<?xml version="1.0" encoding="UTF-8" standalone="no"?>
<!-- Created with PhysiCell (http://PhysiCell.MathCancer.org/) -->
<svg 
 xmlns:dc="http://purl.org/dc/elements/1.1/" 
 xmlns:cc="http://creativecommons.org/ns#" 
 xmlns:rdf="http://www.w3.org/1999/02/22-rdf-syntax-ns#" 
 xmlns:svg="http://www.w3.org/2000/svg" 
 xmlns="http://www.w3.org/2000/svg" 
 version="1.1" 
 width="2000" 
 height="2140" 
 id="svg2">
  <rect x="0" y="0" width="2000" height="2140" stroke-width="4" stroke="white" fill="white"/>
  <text x="25" y="60"
   font-family="Arial" font-size="50" fill="black" >
   Current time: 0 days, 12 hours, and 0.01 minutes, z = 0.00 &#956;m
  </text>
  <text x="25" y="115"
   font-family="Arial" font-size="47.5" fill="black" >
   100 agents
  </text>
 <g id="tissue" 
    transform="translate(0,2140) scale(1,-1)">
  <g id="ECM">
  </g>
  <g id="cells">
   <g id="cell0">
  <circle cx="1116.7" cy="1149.29" r="10.3325" stroke-width="0.5" stroke="black" fill="grey"/>
  <circle cx="1116.7" cy="1149.29" r="6.24369" stroke-width="0.5" stroke="grey" fill="grey"/>
   </g>
   <g id="cell1">
  <circle cx="1682.23" cy="1166.25" r="10.1996" stroke-width="0.5" stroke="black" fill="grey"/>
  <circle cx="1682.23" cy="1166.25" r="6.17434" stroke-width="0.5" stroke="grey" fill="grey"/>
   </g>
   <g id="cell2">
  <circle cx="1136.34" cy="1702.3" r="10.4208" stroke-width="0.5" stroke="black" fill="grey"/>
  <circle cx="1136.34" cy="1702.3" r="6.28762" stroke-width="0.5" stroke="grey" fill="grey"/>
   </g>
   <g id="cell3">
  <circle cx="1231" cy="1294.96" r="10.5012" stroke-width="0.5" stroke="black" fill="grey"/>
  <circle cx="1231" cy="1294.96" r="6.32534" stroke-width="0.5" stroke="grey" fill="grey"/>
   </g>
   <g id="cell4">
  <circle cx="856.244" cy="603.059" r="10.4489" stroke-width="0.5" stroke="black" fill="grey"/>
  <circle cx="856.244" cy="603.059" r="6.30112" stroke-width="0.5" stroke="grey" fill="grey"/>
   </g>
   <g id="cell5">
  <circle cx="100.146" cy="1960.42" r="9.62199" stroke-width="0.5" stroke="black" fill="grey"/>
  <circle cx="100.146" cy="1960.42" r="5.8471" stroke-width="0.5" stroke="grey" fill="grey"/>
   </g>
   <g id="cell6">
  <circle cx="786.036" cy="910.136" r="10.3747" stroke-width="0.5" stroke="black" fill="grey"/>
  <circle cx="786.036" cy="910.136" r="6.26498" stroke-width="0.5" stroke="grey" fill="grey"/>
   </g>
   <g id="cell7">
  <circle cx="1643.27" cy="1072.67" r="10.4446" stroke-width="0.5" stroke="black" fill="grey"/>
  <circle cx="1643.27" cy="1072.67" r="6.29905" stroke-width="0.5" stroke="grey" fill="grey"/>
   </g>
   <g id="cell8">
  <circle cx="1132.04" cy="801.884" r="10.3811" stroke-width="0.5" stroke="black" fill="grey"/>
  <circle cx="1132.04" cy="801.884" r="6.26814" stroke-width="0.5" stroke="grey" fill="grey"/>
   </g>
   <g id="cell9">
  <circle cx="1735.71" cy="135.498" r="10.0654" stroke-width="0.5" stroke="black" fill="grey"/>
  <circle cx="1735.71" cy="135.498" r="6.10145" stroke-width="0.5" stroke="grey" fill="grey"/>
   </g>
   <g id="cell10">
  <circle cx="187.924" cy="1286.33" r="10.4925" stroke-width="0.5" stroke="black" fill="grey"/>
  <circle cx="187.924" cy="1286.33" r="6.32139" stroke-width="0.5" stroke="grey" fill="grey"/>
   </g>
   <g id="cell11">
  <circle cx="692.552" cy="1706.23" r="10.34" stroke-width="0.5" stroke="black" fill="grey"/>
  <circle cx="692.552" cy="1706.23" r="6.24753" stroke-width="0.5" stroke="grey" fill="grey"/>
   </g>
   <g id="cell12">
  <circle cx="1531.91" cy="318.679" r="10.4258" stroke-width="0.5" stroke="black" fill="grey"/>
  <circle cx="1531.91" cy="318.679" r="6.29005" stroke-width="0.5" stroke="grey" fill="grey"/>
   </g>
   <g id="cell13">
  <circle cx="1753.59" cy="1964.57" r="9.88629" stroke-width="0.5" stroke="black" fill="grey"/>
  <circle cx="1753.59" cy="1964.57" r="6.00088" stroke-width="0.5" stroke="grey" fill="grey"/>
   </g>
   <g id="cell14">
  <circle cx="1608.62" cy="1564.3" r="10.3166" stroke-width="0.5" stroke="black" fill="grey"/>
  <circle cx="1608.62" cy="1564.3" r="6.23561" stroke-width="0.5" stroke="grey" fill="grey"/>
   </g>
   <g id="cell15">
  <circle cx="1039.2" cy="1590.1" r="10.4894" stroke-width="0.5" stroke="black" fill="grey"/>
  <circle cx="1039.2" cy="1590.1" r="6.31998" stroke-width="0.5" stroke="grey" fill="grey"/>
   </g>
   <g id="cell16">
  <circle cx="230.445" cy="1454.71" r="10.4894" stroke-width="0.5" stroke="black" fill="grey"/>
  <circle cx="230.445" cy="1454.71" r="6.31998" stroke-width="0.5" stroke="grey" fill="grey"/>
   </g>
   <g id="cell17">
  <circle cx="1157.32" cy="286.932" r="10.4894" stroke-width="0.5" stroke="black" fill="grey"/>
  <circle cx="1157.32" cy="286.932" r="6.31998" stroke-width="0.5" stroke="grey" fill="grey"/>
   </g>
   <g id="cell18">
  <circle cx="1864.14" cy="1553.3" r="8.41271" stroke-width="0.5" stroke="black" fill="grey"/>
  <circle cx="1864.14" cy="1553.3" r="5.05167" stroke-width="0.5" stroke="grey" fill="grey"/>
   </g>
   <g id="cell19">
  <circle cx="192.879" cy="836.726" r="8.41271" stroke-width="0.5" stroke="black" fill="grey"/>
  <circle cx="192.879" cy="836.726" r="5.05167" stroke-width="0.5" stroke="grey" fill="grey"/>
   </g>
   <g id="cell20">
  <circle cx="554.161" cy="374.602" r="10.4651" stroke-width="0.5" stroke="black" fill="grey"/>
  <circle cx="554.161" cy="374.602" r="6.30877" stroke-width="0.5" stroke="grey" fill="grey"/>
   </g>
   <g id="cell21">
  <circle cx="1461.79" cy="923.334" r="10.3747" stroke-width="0.5" stroke="black" fill="grey"/>
  <circle cx="1461.79" cy="923.334" r="6.26498" stroke-width="0.5" stroke="grey" fill="grey"/>
   </g>
   <g id="cell22">
  <circle cx="1166.29" cy="264.5" r="10.483" stroke-width="0.5" stroke="black" fill="grey"/>
  <circle cx="1166.29" cy="264.5" r="6.31703" stroke-width="0.5" stroke="grey" fill="grey"/>
   </g>
   <g id="cell23">
  <circle cx="649.863" cy="1223.27" r="10.4689" stroke-width="0.5" stroke="black" fill="grey"/>
  <circle cx="649.863" cy="1223.27" r="6.31053" stroke-width="0.5" stroke="grey" fill="grey"/>
   </g>
   <g id="cell24">
  <circle cx="1233.49" cy="441.016" r="1.20653" stroke-width="0.5" stroke="black" fill="grey"/>
  <circle cx="1233.49" cy="441.016" r="1.20179" stroke-width="0.5" stroke="black" fill="black"/>
   </g>
   <g id="cell25">
  <circle cx="753.705" cy="1923.91" r="10.4726" stroke-width="0.5" stroke="black" fill="grey"/>
  <circle cx="753.705" cy="1923.91" r="6.31223" stroke-width="0.5" stroke="grey" fill="grey"/>
   </g>
   <g id="cell26">
  <circle cx="1376.27" cy="908.675" r="9.7273" stroke-width="0.5" stroke="black" fill="grey"/>
  <circle cx="1376.27" cy="908.675" r="5.90906" stroke-width="0.5" stroke="grey" fill="grey"/>
   </g>
   <g id="cell27">
  <circle cx="1230.53" cy="839.278" r="10.4446" stroke-width="0.5" stroke="black" fill="grey"/>
  <circle cx="1230.53" cy="839.278" r="6.29905" stroke-width="0.5" stroke="grey" fill="grey"/>
   </g>
   <g id="cell28">
  <circle cx="1379.23" cy="202.35" r="10.4984" stroke-width="0.5" stroke="black" fill="grey"/>
  <circle cx="1379.23" cy="202.35" r="6.32406" stroke-width="0.5" stroke="grey" fill="grey"/>
   </g>
   <g id="cell29">
  <circle cx="1919.8" cy="1327.14" r="10.4984" stroke-width="0.5" stroke="black" fill="grey"/>
  <circle cx="1919.8" cy="1327.14" r="6.32406" stroke-width="0.5" stroke="grey" fill="grey"/>
   </g>
   <g id="cell30">
  <circle cx="1351.39" cy="371.394" r="9.94548" stroke-width="0.5" stroke="black" fill="grey"/>
  <circle cx="1351.39" cy="371.394" r="6.03448" stroke-width="0.5" stroke="grey" fill="grey"/>
   </g>
   <g id="cell31">
  <circle cx="734.318" cy="289.111" r="10.3084" stroke-width="0.5" stroke="black" fill="grey"/>
  <circle cx="734.318" cy="289.111" r="6.23137" stroke-width="0.5" stroke="grey" fill="grey"/>
   </g>
   <g id="cell32">
  <circle cx="695.307" cy="1194.51" r="10.5142" stroke-width="0.5" stroke="black" fill="grey"/>
  <circle cx="695.307" cy="1194.51" r="6.33113" stroke-width="0.5" stroke="grey" fill="grey"/>
   </g>
   <g id="cell33">
  <circle cx="649.419" cy="1153.69" r="10.0654" stroke-width="0.5" stroke="black" fill="grey"/>
  <circle cx="649.419" cy="1153.69" r="6.10145" stroke-width="0.5" stroke="grey" fill="grey"/>
   </g>
   <g id="cell34">
  <circle cx="864.547" cy="1313.92" r="10.3474" stroke-width="0.5" stroke="black" fill="grey"/>
  <circle cx="864.547" cy="1313.92" r="6.25125" stroke-width="0.5" stroke="grey" fill="grey"/>
   </g>
   <g id="cell35">
  <circle cx="1909.67" cy="185.99" r="10.1098" stroke-width="0.5" stroke="black" fill="grey"/>
  <circle cx="1909.67" cy="185.99" r="6.12585" stroke-width="0.5" stroke="grey" fill="grey"/>
   </g>
   <g id="cell36">
  <circle cx="414.629" cy="1273.66" r="10.4689" stroke-width="0.5" stroke="black" fill="grey"/>
  <circle cx="414.629" cy="1273.66" r="6.31053" stroke-width="0.5" stroke="grey" fill="grey"/>
   </g>
   <g id="cell37">
  <circle cx="1974.48" cy="1369.83" r="10.4102" stroke-width="0.5" stroke="black" fill="grey"/>
  <circle cx="1974.48" cy="1369.83" r="6.2825" stroke-width="0.5" stroke="grey" fill="grey"/>
   </g>
   <g id="cell38">
  <circle cx="509.709" cy="847.892" r="8.41271" stroke-width="0.5" stroke="black" fill="grey"/>
  <circle cx="509.709" cy="847.892" r="5.05167" stroke-width="0.5" stroke="grey" fill="grey"/>
   </g>
   <g id="cell39">
  <circle cx="917.234" cy="496.068" r="10.4258" stroke-width="0.5" stroke="black" fill="grey"/>
  <circle cx="917.234" cy="496.068" r="6.29005" stroke-width="0.5" stroke="grey" fill="grey"/>
   </g>
   <g id="cell40">
  <circle cx="331.282" cy="663.349" r="10.4208" stroke-width="0.5" stroke="black" fill="grey"/>
  <circle cx="331.282" cy="663.349" r="6.28762" stroke-width="0.5" stroke="grey" fill="grey"/>
   </g>
   <g id="cell41">
  <circle cx="1336.54" cy="1299.07" r="10.2728" stroke-width="0.5" stroke="black" fill="grey"/>
  <circle cx="1336.54" cy="1299.07" r="6.21295" stroke-width="0.5" stroke="grey" fill="grey"/>
   </g>
   <g id="cell42">
  <circle cx="238.916" cy="1561.36" r="8.41271" stroke-width="0.5" stroke="black" fill="grey"/>
  <circle cx="238.916" cy="1561.36" r="5.05167" stroke-width="0.5" stroke="grey" fill="grey"/>
   </g>
   <g id="cell43">
  <circle cx="1872.48" cy="727.318" r="8.51252" stroke-width="0.5" stroke="black" fill="grey"/>
  <circle cx="1872.48" cy="727.318" r="5.12552" stroke-width="0.5" stroke="grey" fill="grey"/>
   </g>
   <g id="cell44">
  <circle cx="1654.21" cy="49.1035" r="10.3933" stroke-width="0.5" stroke="black" fill="grey"/>
  <circle cx="1654.21" cy="49.1035" r="6.27417" stroke-width="0.5" stroke="grey" fill="grey"/>
   </g>
   <g id="cell45">
  <circle cx="1192.5" cy="1645.31" r="8.84788" stroke-width="0.5" stroke="black" fill="grey"/>
  <circle cx="1192.5" cy="1645.31" r="5.36278" stroke-width="0.5" stroke="grey" fill="grey"/>
   </g>
   <g id="cell46">
  <circle cx="168.796" cy="1866.55" r="10.0654" stroke-width="0.5" stroke="black" fill="grey"/>
  <circle cx="168.796" cy="1866.55" r="6.10145" stroke-width="0.5" stroke="grey" fill="grey"/>
   </g>
   <g id="cell47">
  <circle cx="1771.39" cy="969.317" r="10.4726" stroke-width="0.5" stroke="black" fill="grey"/>
  <circle cx="1771.39" cy="969.317" r="6.31223" stroke-width="0.5" stroke="grey" fill="grey"/>
   </g>
   <g id="cell48">
  <circle cx="1987.36" cy="98.1906" r="10.483" stroke-width="0.5" stroke="black" fill="grey"/>
  <circle cx="1987.36" cy="98.1906" r="6.31703" stroke-width="0.5" stroke="grey" fill="grey"/>
   </g>
   <g id="cell49">
  <circle cx="834.952" cy="1481.56" r="10.5066" stroke-width="0.5" stroke="black" fill="grey"/>
  <circle cx="834.952" cy="1481.56" r="6.32777" stroke-width="0.5" stroke="grey" fill="grey"/>
   </g>
   <g id="cell50">
  <circle cx="75.4476" cy="892.69" r="10.5142" stroke-width="0.5" stroke="black" fill="red"/>
  <circle cx="75.4476" cy="892.69" r="6.33113" stroke-width="0.5" stroke="red" fill="red"/>
   </g>
   <g id="cell51">
  <circle cx="1961.33" cy="262.663" r="9.92631" stroke-width="0.5" stroke="black" fill="red"/>
  <circle cx="1961.33" cy="262.663" r="6.02363" stroke-width="0.5" stroke="red" fill="red"/>
   </g>
   <g id="cell52">
  <circle cx="591.67" cy="988.872" r="10.3991" stroke-width="0.5" stroke="black" fill="red"/>
  <circle cx="591.67" cy="988.872" r="6.27703" stroke-width="0.5" stroke="red" fill="red"/>
   </g>
   <g id="cell53">
  <circle cx="1354.48" cy="600.015" r="10.5039" stroke-width="0.5" stroke="black" fill="red"/>
  <circle cx="1354.48" cy="600.015" r="6.32657" stroke-width="0.5" stroke="red" fill="red"/>
   </g>
   <g id="cell54">
  <circle cx="782.457" cy="1821.1" r="10.5142" stroke-width="0.5" stroke="black" fill="red"/>
  <circle cx="782.457" cy="1821.1" r="6.33113" stroke-width="0.5" stroke="red" fill="red"/>
   </g>
   <g id="cell55">
  <circle cx="420.019" cy="1395.62" r="10.4689" stroke-width="0.5" stroke="black" fill="red"/>
  <circle cx="420.019" cy="1395.62" r="6.31053" stroke-width="0.5" stroke="red" fill="red"/>
   </g>
   <g id="cell56">
  <circle cx="1161.4" cy="1699.14" r="9.64936" stroke-width="0.5" stroke="black" fill="red"/>
  <circle cx="1161.4" cy="1699.14" r="5.86329" stroke-width="0.5" stroke="red" fill="red"/>
   </g>
   <g id="cell57">
  <circle cx="1022.25" cy="1026.94" r="8.41271" stroke-width="0.5" stroke="black" fill="red"/>
  <circle cx="1022.25" cy="1026.94" r="5.05167" stroke-width="0.5" stroke="red" fill="red"/>
   </g>
   <g id="cell58">
  <circle cx="182.722" cy="1784.07" r="10.4613" stroke-width="0.5" stroke="black" fill="red"/>
  <circle cx="182.722" cy="1784.07" r="6.30695" stroke-width="0.5" stroke="red" fill="red"/>
   </g>
   <g id="cell59">
  <circle cx="171.722" cy="1844.99" r="1.36644" stroke-width="0.5" stroke="black" fill="red"/>
  <circle cx="171.722" cy="1844.99" r="1.36131" stroke-width="0.5" stroke="black" fill="black"/>
   </g>
   <g id="cell60">
  <circle cx="686.779" cy="68.8304" r="10.4984" stroke-width="0.5" stroke="black" fill="red"/>
  <circle cx="686.779" cy="68.8304" r="6.32406" stroke-width="0.5" stroke="red" fill="red"/>
   </g>
   <g id="cell61">
  <circle cx="1676.47" cy="277.07" r="10.3747" stroke-width="0.5" stroke="black" fill="red"/>
  <circle cx="1676.47" cy="277.07" r="6.26498" stroke-width="0.5" stroke="red" fill="red"/>
   </g>
   <g id="cell62">
  <circle cx="1431.15" cy="1675.59" r="10.1758" stroke-width="0.5" stroke="black" fill="red"/>
  <circle cx="1431.15" cy="1675.59" r="6.16159" stroke-width="0.5" stroke="red" fill="red"/>
   </g>
   <g id="cell63">
  <circle cx="512.214" cy="328.059" r="9.7273" stroke-width="0.5" stroke="black" fill="red"/>
  <circle cx="512.214" cy="328.059" r="5.90906" stroke-width="0.5" stroke="red" fill="red"/>
   </g>
   <g id="cell64">
  <circle cx="1163.1" cy="1107.66" r="10.1879" stroke-width="0.5" stroke="black" fill="red"/>
  <circle cx="1163.1" cy="1107.66" r="6.16807" stroke-width="0.5" stroke="red" fill="red"/>
   </g>
   <g id="cell65">
  <circle cx="373.351" cy="1632.42" r="10.4689" stroke-width="0.5" stroke="black" fill="red"/>
  <circle cx="373.351" cy="1632.42" r="6.31053" stroke-width="0.5" stroke="red" fill="red"/>
   </g>
   <g id="cell66">
  <circle cx="11.0022" cy="311.442" r="10.3747" stroke-width="0.5" stroke="black" fill="red"/>
  <circle cx="11.0022" cy="311.442" r="6.26498" stroke-width="0.5" stroke="red" fill="red"/>
   </g>
   <g id="cell67">
  <circle cx="1100.39" cy="547.995" r="10.3084" stroke-width="0.5" stroke="black" fill="red"/>
  <circle cx="1100.39" cy="547.995" r="6.23137" stroke-width="0.5" stroke="red" fill="red"/>
   </g>
   <g id="cell68">
  <circle cx="1483.96" cy="608.9" r="10.4651" stroke-width="0.5" stroke="black" fill="red"/>
  <circle cx="1483.96" cy="608.9" r="6.30877" stroke-width="0.5" stroke="red" fill="red"/>
   </g>
   <g id="cell69">
  <circle cx="892.674" cy="551.123" r="8.41271" stroke-width="0.5" stroke="black" fill="red"/>
  <circle cx="892.674" cy="551.123" r="5.05167" stroke-width="0.5" stroke="red" fill="red"/>
   </g>
   <g id="cell70">
  <circle cx="1161.59" cy="810.308" r="10.4307" stroke-width="0.5" stroke="black" fill="red"/>
  <circle cx="1161.59" cy="810.308" r="6.29241" stroke-width="0.5" stroke="red" fill="red"/>
   </g>
   <g id="cell71">
  <circle cx="1767.12" cy="1129.65" r="10.3933" stroke-width="0.5" stroke="black" fill="red"/>
  <circle cx="1767.12" cy="1129.65" r="6.27417" stroke-width="0.5" stroke="red" fill="red"/>
   </g>
   <g id="cell72">
  <circle cx="449.541" cy="1819.45" r="10.0497" stroke-width="0.5" stroke="black" fill="red"/>
  <circle cx="449.541" cy="1819.45" r="6.09278" stroke-width="0.5" stroke="red" fill="red"/>
   </g>
   <g id="cell73">
  <circle cx="1455.88" cy="900.161" r="10.4796" stroke-width="0.5" stroke="black" fill="red"/>
  <circle cx="1455.88" cy="900.161" r="6.31548" stroke-width="0.5" stroke="red" fill="red"/>
   </g>
   <g id="cell74">
  <circle cx="1685.29" cy="1964.82" r="10.4761" stroke-width="0.5" stroke="black" fill="red"/>
  <circle cx="1685.29" cy="1964.82" r="6.31388" stroke-width="0.5" stroke="red" fill="red"/>
   </g>
   <g id="cell75">
  <circle cx="209.245" cy="604.899" r="9.5053" stroke-width="0.5" stroke="black" fill="red"/>
  <circle cx="209.245" cy="604.899" r="5.77744" stroke-width="0.5" stroke="red" fill="red"/>
   </g>
   <g id="cell76">
  <circle cx="1606.83" cy="841.329" r="10.3084" stroke-width="0.5" stroke="black" fill="red"/>
  <circle cx="1606.83" cy="841.329" r="6.23137" stroke-width="0.5" stroke="red" fill="red"/>
   </g>
   <g id="cell77">
  <circle cx="1406.07" cy="1764.44" r="10.211" stroke-width="0.5" stroke="black" fill="red"/>
  <circle cx="1406.07" cy="1764.44" r="6.18041" stroke-width="0.5" stroke="red" fill="red"/>
   </g>
   <g id="cell78">
  <circle cx="1236.09" cy="652.517" r="10.211" stroke-width="0.5" stroke="black" fill="red"/>
  <circle cx="1236.09" cy="652.517" r="6.18041" stroke-width="0.5" stroke="red" fill="red"/>
   </g>
   <g id="cell79">
  <circle cx="1933.56" cy="1382.45" r="8.41271" stroke-width="0.5" stroke="black" fill="red"/>
  <circle cx="1933.56" cy="1382.45" r="5.05167" stroke-width="0.5" stroke="red" fill="red"/>
   </g>
   <g id="cell80">
  <circle cx="1414.65" cy="1267.96" r="10.3933" stroke-width="0.5" stroke="black" fill="red"/>
  <circle cx="1414.65" cy="1267.96" r="6.27417" stroke-width="0.5" stroke="red" fill="red"/>
   </g>
   <g id="cell81">
  <circle cx="1073.97" cy="1890.12" r="1.39339" stroke-width="0.5" stroke="black" fill="red"/>
  <circle cx="1073.97" cy="1890.12" r="1.38645" stroke-width="0.5" stroke="black" fill="black"/>
   </g>
   <g id="cell82">
  <circle cx="1255.86" cy="762.358" r="10.4102" stroke-width="0.5" stroke="black" fill="red"/>
  <circle cx="1255.86" cy="762.358" r="6.2825" stroke-width="0.5" stroke="red" fill="red"/>
   </g>
   <g id="cell83">
  <circle cx="1270.39" cy="1248.11" r="10.1634" stroke-width="0.5" stroke="black" fill="red"/>
  <circle cx="1270.39" cy="1248.11" r="6.1549" stroke-width="0.5" stroke="red" fill="red"/>
   </g>
   <g id="cell84">
  <circle cx="23.698" cy="960.508" r="10.4955" stroke-width="0.5" stroke="black" fill="red"/>
  <circle cx="23.698" cy="960.508" r="6.32275" stroke-width="0.5" stroke="red" fill="red"/>
   </g>
   <g id="cell85">
  <circle cx="1425.79" cy="1286.3" r="9.88629" stroke-width="0.5" stroke="black" fill="red"/>
  <circle cx="1425.79" cy="1286.3" r="6.00088" stroke-width="0.5" stroke="red" fill="red"/>
   </g>
   <g id="cell86">
  <circle cx="605.132" cy="796.366" r="8.41271" stroke-width="0.5" stroke="black" fill="red"/>
  <circle cx="605.132" cy="796.366" r="5.05167" stroke-width="0.5" stroke="red" fill="red"/>
   </g>
   <g id="cell87">
  <circle cx="1500.21" cy="879.566" r="10.3747" stroke-width="0.5" stroke="black" fill="red"/>
  <circle cx="1500.21" cy="879.566" r="6.26498" stroke-width="0.5" stroke="red" fill="red"/>
   </g>
   <g id="cell88">
  <circle cx="319.519" cy="210.059" r="10.3933" stroke-width="0.5" stroke="black" fill="red"/>
  <circle cx="319.519" cy="210.059" r="6.27417" stroke-width="0.5" stroke="red" fill="red"/>
   </g>
   <g id="cell89">
  <circle cx="177.583" cy="1151.74" r="8.41271" stroke-width="0.5" stroke="black" fill="red"/>
  <circle cx="177.583" cy="1151.74" r="5.05167" stroke-width="0.5" stroke="red" fill="red"/>
   </g>
   <g id="cell90">
  <circle cx="1150.72" cy="1098.77" r="9.4743" stroke-width="0.5" stroke="black" fill="red"/>
  <circle cx="1150.72" cy="1098.77" r="5.75875" stroke-width="0.5" stroke="red" fill="red"/>
   </g>
   <g id="cell91">
  <circle cx="55.2738" cy="1267.04" r="9.62199" stroke-width="0.5" stroke="black" fill="red"/>
  <circle cx="55.2738" cy="1267.04" r="5.8471" stroke-width="0.5" stroke="red" fill="red"/>
   </g>
   <g id="cell92">
  <circle cx="1262.53" cy="634.696" r="10.5142" stroke-width="0.5" stroke="black" fill="red"/>
  <circle cx="1262.53" cy="634.696" r="6.33113" stroke-width="0.5" stroke="red" fill="red"/>
   </g>
   <g id="cell93">
  <circle cx="427.913" cy="1796.98" r="10.2534" stroke-width="0.5" stroke="black" fill="red"/>
  <circle cx="427.913" cy="1796.98" r="6.2028" stroke-width="0.5" stroke="red" fill="red"/>
   </g>
   <g id="cell94">
  <circle cx="744.51" cy="227.824" r="10.4401" stroke-width="0.5" stroke="black" fill="red"/>
  <circle cx="744.51" cy="227.824" r="6.29691" stroke-width="0.5" stroke="red" fill="red"/>
   </g>
   <g id="cell95">
  <circle cx="1983.45" cy="1757.91" r="10.4208" stroke-width="0.5" stroke="black" fill="red"/>
  <circle cx="1983.45" cy="1757.91" r="6.28762" stroke-width="0.5" stroke="red" fill="red"/>
   </g>
   <g id="cell96">
  <circle cx="1629.41" cy="1083.27" r="10.4613" stroke-width="0.5" stroke="black" fill="red"/>
  <circle cx="1629.41" cy="1083.27" r="6.30695" stroke-width="0.5" stroke="red" fill="red"/>
   </g>
   <g id="cell97">
  <circle cx="874.228" cy="219.053" r="10.5012" stroke-width="0.5" stroke="black" fill="red"/>
  <circle cx="874.228" cy="219.053" r="6.32534" stroke-width="0.5" stroke="red" fill="red"/>
   </g>
   <g id="cell98">
  <circle cx="1828.53" cy="695.456" r="10.5092" stroke-width="0.5" stroke="black" fill="red"/>
  <circle cx="1828.53" cy="695.456" r="6.32893" stroke-width="0.5" stroke="red" fill="red"/>
   </g>
   <g id="cell99">
  <circle cx="915.456" cy="1976.84" r="10.5117" stroke-width="0.5" stroke="black" fill="red"/>
  <circle cx="915.456" cy="1976.84" r="6.33005" stroke-width="0.5" stroke="red" fill="red"/>
   </g>
  </g>
 </g>
  <rect x="1750" y="2070" width="200" height="20" stroke-width="4" stroke="rgb(255,255,255)" fill="rgb(0,0,0)"/>
  <text x="1762.5" y="2057.5"
   font-family="Arial" font-size="50" fill="black" >
   200 &#956;m
  </text>
  <text x="50" y="2090"
   font-family="Arial" font-size="37.5" fill="black" >
   0 days, 0 hours, 0 minutes, and 17.8263 seconds
  </text>
  <rect x="0" y="140" width="2000" height="2000" stroke-width="4" stroke="rgb(0,0,0)" fill="none"/>
</svg>
