<?xml version="1.0" encoding="UTF-8" standalone="no"?>
<!-- Created with PhysiCell (http://PhysiCell.MathCancer.org/) -->
<svg 
 xmlns:dc="http://purl.org/dc/elements/1.1/" 
 xmlns:cc="http://creativecommons.org/ns#" 
 xmlns:rdf="http://www.w3.org/1999/02/22-rdf-syntax-ns#" 
 xmlns:svg="http://www.w3.org/2000/svg" 
 xmlns="http://www.w3.org/2000/svg" 
 version="1.1" 
 width="2000" 
 height="2140" 
 id="svg2">
  <rect x="0" y="0" width="2000" height="2140" stroke-width="4" stroke="white" fill="white"/>
  <text x="25" y="60"
   font-family="Arial" font-size="50" fill="black" >
   Current time: 0 days, 12 hours, and 0.01 minutes, z = 0.00 &#956;m
  </text>
  <text x="25" y="115"
   font-family="Arial" font-size="47.5" fill="black" >
   96 agents
  </text>
 <g id="tissue" 
    transform="translate(0,2140) scale(1,-1)">
  <g id="ECM">
  </g>
  <g id="cells">
   <g id="cell0">
  <circle cx="1107.04" cy="1163.64" r="8.48289" stroke-width="0.5" stroke="black" fill="grey"/>
  <circle cx="1107.04" cy="1163.64" r="5.10317" stroke-width="0.5" stroke="grey" fill="grey"/>
   </g>
   <g id="cell1">
  <circle cx="1693.15" cy="1219.16" r="10.4531" stroke-width="0.5" stroke="black" fill="grey"/>
  <circle cx="1693.15" cy="1219.16" r="6.30312" stroke-width="0.5" stroke="grey" fill="grey"/>
   </g>
   <g id="cell2">
  <circle cx="1080.23" cy="1691.26" r="10.4156" stroke-width="0.5" stroke="black" fill="grey"/>
  <circle cx="1080.23" cy="1691.26" r="6.2851" stroke-width="0.5" stroke="grey" fill="grey"/>
   </g>
   <g id="cell3">
  <circle cx="1257.09" cy="1316.84" r="10.2221" stroke-width="0.5" stroke="black" fill="grey"/>
  <circle cx="1257.09" cy="1316.84" r="6.18628" stroke-width="0.5" stroke="grey" fill="grey"/>
   </g>
   <g id="cell4">
  <circle cx="847.609" cy="558.528" r="10.3747" stroke-width="0.5" stroke="black" fill="grey"/>
  <circle cx="847.609" cy="558.528" r="6.26498" stroke-width="0.5" stroke="grey" fill="grey"/>
   </g>
   <g id="cell5">
  <circle cx="146.131" cy="1920.43" r="10.0806" stroke-width="0.5" stroke="black" fill="grey"/>
  <circle cx="146.131" cy="1920.43" r="6.10985" stroke-width="0.5" stroke="grey" fill="grey"/>
   </g>
   <g id="cell6">
  <circle cx="684.014" cy="867.926" r="10.1879" stroke-width="0.5" stroke="black" fill="grey"/>
  <circle cx="684.014" cy="867.926" r="6.16807" stroke-width="0.5" stroke="grey" fill="grey"/>
   </g>
   <g id="cell7">
  <circle cx="1661.1" cy="1042.11" r="10.4613" stroke-width="0.5" stroke="black" fill="grey"/>
  <circle cx="1661.1" cy="1042.11" r="6.30695" stroke-width="0.5" stroke="grey" fill="grey"/>
   </g>
   <g id="cell8">
  <circle cx="1172.07" cy="769.357" r="10.0336" stroke-width="0.5" stroke="black" fill="grey"/>
  <circle cx="1172.07" cy="769.357" r="6.08382" stroke-width="0.5" stroke="grey" fill="grey"/>
   </g>
   <g id="cell9">
  <circle cx="1719.77" cy="154.916" r="10.2911" stroke-width="0.5" stroke="black" fill="grey"/>
  <circle cx="1719.77" cy="154.916" r="6.22246" stroke-width="0.5" stroke="grey" fill="grey"/>
   </g>
   <g id="cell10">
  <circle cx="187.529" cy="1279.06" r="10.0336" stroke-width="0.5" stroke="black" fill="grey"/>
  <circle cx="187.529" cy="1279.06" r="6.08382" stroke-width="0.5" stroke="grey" fill="grey"/>
   </g>
   <g id="cell11">
  <circle cx="775.681" cy="1655.13" r="10.4613" stroke-width="0.5" stroke="black" fill="grey"/>
  <circle cx="775.681" cy="1655.13" r="6.30695" stroke-width="0.5" stroke="grey" fill="grey"/>
   </g>
   <g id="cell12">
  <circle cx="1570.89" cy="262.588" r="10.1238" stroke-width="0.5" stroke="black" fill="grey"/>
  <circle cx="1570.89" cy="262.588" r="6.13347" stroke-width="0.5" stroke="grey" fill="grey"/>
   </g>
   <g id="cell13">
  <circle cx="1699.21" cy="1978.33" r="10.4955" stroke-width="0.5" stroke="black" fill="grey"/>
  <circle cx="1699.21" cy="1978.33" r="6.32275" stroke-width="0.5" stroke="grey" fill="grey"/>
   </g>
   <g id="cell14">
  <circle cx="1651.01" cy="1613.77" r="10.2999" stroke-width="0.5" stroke="black" fill="grey"/>
  <circle cx="1651.01" cy="1613.77" r="6.22699" stroke-width="0.5" stroke="grey" fill="grey"/>
   </g>
   <g id="cell15">
  <circle cx="1007.58" cy="1532.42" r="10.4984" stroke-width="0.5" stroke="black" fill="grey"/>
  <circle cx="1007.58" cy="1532.42" r="6.32406" stroke-width="0.5" stroke="grey" fill="grey"/>
   </g>
   <g id="cell16">
  <circle cx="235.677" cy="1475.49" r="8.41271" stroke-width="0.5" stroke="black" fill="grey"/>
  <circle cx="235.677" cy="1475.49" r="5.05167" stroke-width="0.5" stroke="grey" fill="grey"/>
   </g>
   <g id="cell17">
  <circle cx="1152.98" cy="275.365" r="10.3991" stroke-width="0.5" stroke="black" fill="grey"/>
  <circle cx="1152.98" cy="275.365" r="6.27703" stroke-width="0.5" stroke="grey" fill="grey"/>
   </g>
   <g id="cell18">
  <circle cx="1908.39" cy="1519.37" r="10.2999" stroke-width="0.5" stroke="black" fill="grey"/>
  <circle cx="1908.39" cy="1519.37" r="6.22699" stroke-width="0.5" stroke="grey" fill="grey"/>
   </g>
   <g id="cell19">
  <circle cx="156.09" cy="823.906" r="10.0806" stroke-width="0.5" stroke="black" fill="grey"/>
  <circle cx="156.09" cy="823.906" r="6.10985" stroke-width="0.5" stroke="grey" fill="grey"/>
   </g>
   <g id="cell96">
  <circle cx="1653.82" cy="1077.23" r="10.3747" stroke-width="0.5" stroke="black" fill="red"/>
  <circle cx="1653.82" cy="1077.23" r="6.26498" stroke-width="0.5" stroke="red" fill="red"/>
   </g>
   <g id="cell21">
  <circle cx="1474.28" cy="889.835" r="10.3545" stroke-width="0.5" stroke="black" fill="grey"/>
  <circle cx="1474.28" cy="889.835" r="6.25485" stroke-width="0.5" stroke="grey" fill="grey"/>
   </g>
   <g id="cell22">
  <circle cx="1150.22" cy="312.058" r="10.4955" stroke-width="0.5" stroke="black" fill="grey"/>
  <circle cx="1150.22" cy="312.058" r="6.32275" stroke-width="0.5" stroke="grey" fill="grey"/>
   </g>
   <g id="cell23">
  <circle cx="697.274" cy="1228.34" r="10.4401" stroke-width="0.5" stroke="black" fill="grey"/>
  <circle cx="697.274" cy="1228.34" r="6.29691" stroke-width="0.5" stroke="grey" fill="grey"/>
   </g>
   <g id="cell24">
  <circle cx="1246.65" cy="439.73" r="10.4689" stroke-width="0.5" stroke="black" fill="grey"/>
  <circle cx="1246.65" cy="439.73" r="6.31053" stroke-width="0.5" stroke="grey" fill="grey"/>
   </g>
   <g id="cell25">
  <circle cx="814.338" cy="1873.85" r="10.1374" stroke-width="0.5" stroke="black" fill="grey"/>
  <circle cx="814.338" cy="1873.85" r="6.14084" stroke-width="0.5" stroke="grey" fill="grey"/>
   </g>
   <g id="cell26">
  <circle cx="1362.78" cy="896.075" r="10.4761" stroke-width="0.5" stroke="black" fill="grey"/>
  <circle cx="1362.78" cy="896.075" r="6.31388" stroke-width="0.5" stroke="grey" fill="grey"/>
   </g>
   <g id="cell27">
  <circle cx="1227.07" cy="922.007" r="10.4651" stroke-width="0.5" stroke="black" fill="grey"/>
  <circle cx="1227.07" cy="922.007" r="6.30877" stroke-width="0.5" stroke="grey" fill="grey"/>
   </g>
   <g id="cell28">
  <circle cx="1396.56" cy="183.604" r="10.0497" stroke-width="0.5" stroke="black" fill="grey"/>
  <circle cx="1396.56" cy="183.604" r="6.09278" stroke-width="0.5" stroke="grey" fill="grey"/>
   </g>
   <g id="cell29">
  <circle cx="1931.3" cy="1319.22" r="10.3991" stroke-width="0.5" stroke="black" fill="grey"/>
  <circle cx="1931.3" cy="1319.22" r="6.27703" stroke-width="0.5" stroke="grey" fill="grey"/>
   </g>
   <g id="cell30">
  <circle cx="1314.65" cy="336.389" r="10.5092" stroke-width="0.5" stroke="black" fill="grey"/>
  <circle cx="1314.65" cy="336.389" r="6.32893" stroke-width="0.5" stroke="grey" fill="grey"/>
   </g>
   <g id="cell31">
  <circle cx="704.249" cy="260.491" r="10.4651" stroke-width="0.5" stroke="black" fill="grey"/>
  <circle cx="704.249" cy="260.491" r="6.30877" stroke-width="0.5" stroke="grey" fill="grey"/>
   </g>
   <g id="cell98">
  <circle cx="1773.59" cy="742.443" r="10.4258" stroke-width="0.5" stroke="black" fill="red"/>
  <circle cx="1773.59" cy="742.443" r="6.29005" stroke-width="0.5" stroke="red" fill="red"/>
   </g>
   <g id="cell33">
  <circle cx="669.127" cy="1168.04" r="10.4925" stroke-width="0.5" stroke="black" fill="grey"/>
  <circle cx="669.127" cy="1168.04" r="6.32139" stroke-width="0.5" stroke="grey" fill="grey"/>
   </g>
   <g id="cell34">
  <circle cx="895.73" cy="1275.42" r="10.3615" stroke-width="0.5" stroke="black" fill="grey"/>
  <circle cx="895.73" cy="1275.42" r="6.25834" stroke-width="0.5" stroke="grey" fill="grey"/>
   </g>
   <g id="cell35">
  <circle cx="1916.87" cy="185.012" r="10.4862" stroke-width="0.5" stroke="black" fill="grey"/>
  <circle cx="1916.87" cy="185.012" r="6.31853" stroke-width="0.5" stroke="grey" fill="grey"/>
   </g>
   <g id="cell36">
  <circle cx="374.77" cy="1301.01" r="10.3991" stroke-width="0.5" stroke="black" fill="grey"/>
  <circle cx="374.77" cy="1301.01" r="6.27703" stroke-width="0.5" stroke="grey" fill="grey"/>
   </g>
   <g id="cell37">
  <circle cx="1965.98" cy="1303.03" r="10.4401" stroke-width="0.5" stroke="black" fill="grey"/>
  <circle cx="1965.98" cy="1303.03" r="6.29691" stroke-width="0.5" stroke="grey" fill="grey"/>
   </g>
   <g id="cell38">
  <circle cx="511.035" cy="802.062" r="10.5039" stroke-width="0.5" stroke="black" fill="grey"/>
  <circle cx="511.035" cy="802.062" r="6.32657" stroke-width="0.5" stroke="grey" fill="grey"/>
   </g>
   <g id="cell39">
  <circle cx="936.772" cy="449.85" r="10.5066" stroke-width="0.5" stroke="black" fill="grey"/>
  <circle cx="936.772" cy="449.85" r="6.32777" stroke-width="0.5" stroke="grey" fill="grey"/>
   </g>
   <g id="cell40">
  <circle cx="307.375" cy="674.251" r="10.4984" stroke-width="0.5" stroke="black" fill="grey"/>
  <circle cx="307.375" cy="674.251" r="6.32406" stroke-width="0.5" stroke="grey" fill="grey"/>
   </g>
   <g id="cell41">
  <circle cx="1372.64" cy="1294.32" r="9.84395" stroke-width="0.5" stroke="black" fill="grey"/>
  <circle cx="1372.64" cy="1294.32" r="5.97665" stroke-width="0.5" stroke="grey" fill="grey"/>
   </g>
   <g id="cell42">
  <circle cx="299.969" cy="1556.6" r="8.41271" stroke-width="0.5" stroke="black" fill="grey"/>
  <circle cx="299.969" cy="1556.6" r="5.05167" stroke-width="0.5" stroke="grey" fill="grey"/>
   </g>
   <g id="cell43">
  <circle cx="1891.68" cy="781.568" r="10.2728" stroke-width="0.5" stroke="black" fill="grey"/>
  <circle cx="1891.68" cy="781.568" r="6.21295" stroke-width="0.5" stroke="grey" fill="grey"/>
   </g>
   <g id="cell44">
  <circle cx="1669.84" cy="45.4855" r="10.1879" stroke-width="0.5" stroke="black" fill="grey"/>
  <circle cx="1669.84" cy="45.4855" r="6.16807" stroke-width="0.5" stroke="grey" fill="grey"/>
   </g>
   <g id="cell45">
  <circle cx="1283.82" cy="1655.08" r="10.34" stroke-width="0.5" stroke="black" fill="grey"/>
  <circle cx="1283.82" cy="1655.08" r="6.24753" stroke-width="0.5" stroke="grey" fill="grey"/>
   </g>
   <g id="cell46">
  <circle cx="230.011" cy="1969.46" r="9.62199" stroke-width="0.5" stroke="black" fill="grey"/>
  <circle cx="230.011" cy="1969.46" r="5.8471" stroke-width="0.5" stroke="grey" fill="grey"/>
   </g>
   <g id="cell47">
  <circle cx="1708.8" cy="914.251" r="10.1238" stroke-width="0.5" stroke="black" fill="grey"/>
  <circle cx="1708.8" cy="914.251" r="6.13347" stroke-width="0.5" stroke="grey" fill="grey"/>
   </g>
   <g id="cell48">
  <circle cx="1951.44" cy="123.409" r="9.00806" stroke-width="0.5" stroke="black" fill="grey"/>
  <circle cx="1951.44" cy="123.409" r="5.46807" stroke-width="0.5" stroke="grey" fill="grey"/>
   </g>
   <g id="cell49">
  <circle cx="922.846" cy="1450.52" r="10.4894" stroke-width="0.5" stroke="black" fill="grey"/>
  <circle cx="922.846" cy="1450.52" r="6.31998" stroke-width="0.5" stroke="grey" fill="grey"/>
   </g>
   <g id="cell50">
  <circle cx="75.8925" cy="899.296" r="10.3991" stroke-width="0.5" stroke="black" fill="red"/>
  <circle cx="75.8925" cy="899.296" r="6.27703" stroke-width="0.5" stroke="red" fill="red"/>
   </g>
   <g id="cell51">
  <circle cx="1985.77" cy="209.005" r="10.3474" stroke-width="0.5" stroke="black" fill="red"/>
  <circle cx="1985.77" cy="209.005" r="6.25125" stroke-width="0.5" stroke="red" fill="red"/>
   </g>
   <g id="cell52">
  <circle cx="628.458" cy="978.774" r="10.4984" stroke-width="0.5" stroke="black" fill="red"/>
  <circle cx="628.458" cy="978.774" r="6.32406" stroke-width="0.5" stroke="red" fill="red"/>
   </g>
   <g id="cell53">
  <circle cx="1380.87" cy="615.829" r="10.5012" stroke-width="0.5" stroke="black" fill="red"/>
  <circle cx="1380.87" cy="615.829" r="6.32534" stroke-width="0.5" stroke="red" fill="red"/>
   </g>
   <g id="cell54">
  <circle cx="875.866" cy="1867.3" r="10.0654" stroke-width="0.5" stroke="black" fill="red"/>
  <circle cx="875.866" cy="1867.3" r="6.10145" stroke-width="0.5" stroke="red" fill="red"/>
   </g>
   <g id="cell55">
  <circle cx="403.822" cy="1434.8" r="10.4984" stroke-width="0.5" stroke="black" fill="red"/>
  <circle cx="403.822" cy="1434.8" r="6.32406" stroke-width="0.5" stroke="red" fill="red"/>
   </g>
   <g id="cell56">
  <circle cx="1112.22" cy="1762.84" r="10.4894" stroke-width="0.5" stroke="black" fill="red"/>
  <circle cx="1112.22" cy="1762.84" r="6.31998" stroke-width="0.5" stroke="red" fill="red"/>
   </g>
   <g id="cell57">
  <circle cx="1057.54" cy="1012.84" r="10.2221" stroke-width="0.5" stroke="black" fill="red"/>
  <circle cx="1057.54" cy="1012.84" r="6.18628" stroke-width="0.5" stroke="red" fill="red"/>
   </g>
   <g id="cell58">
  <circle cx="207.981" cy="1843.48" r="8.41271" stroke-width="0.5" stroke="black" fill="red"/>
  <circle cx="207.981" cy="1843.48" r="5.05167" stroke-width="0.5" stroke="red" fill="red"/>
   </g>
   <g id="cell59">
  <circle cx="180.146" cy="1838.73" r="10.5012" stroke-width="0.5" stroke="black" fill="red"/>
  <circle cx="180.146" cy="1838.73" r="6.32534" stroke-width="0.5" stroke="red" fill="red"/>
   </g>
   <g id="cell60">
  <circle cx="617.349" cy="13.2886" r="10.3933" stroke-width="0.5" stroke="black" fill="red"/>
  <circle cx="617.349" cy="13.2886" r="6.27417" stroke-width="0.5" stroke="red" fill="red"/>
   </g>
   <g id="cell61">
  <circle cx="1692.39" cy="294.96" r="10.4651" stroke-width="0.5" stroke="black" fill="red"/>
  <circle cx="1692.39" cy="294.96" r="6.30877" stroke-width="0.5" stroke="red" fill="red"/>
   </g>
   <g id="cell62">
  <circle cx="1414.25" cy="1675.73" r="9.59391" stroke-width="0.5" stroke="black" fill="red"/>
  <circle cx="1414.25" cy="1675.73" r="5.83043" stroke-width="0.5" stroke="red" fill="red"/>
   </g>
   <g id="cell63">
  <circle cx="530.332" cy="372.531" r="8.88811" stroke-width="0.5" stroke="black" fill="red"/>
  <circle cx="530.332" cy="372.531" r="5.38958" stroke-width="0.5" stroke="red" fill="red"/>
   </g>
   <g id="cell64">
  <circle cx="1173.29" cy="1110.28" r="10.4258" stroke-width="0.5" stroke="black" fill="red"/>
  <circle cx="1173.29" cy="1110.28" r="6.29005" stroke-width="0.5" stroke="red" fill="red"/>
   </g>
   <g id="cell65">
  <circle cx="357.349" cy="1651.2" r="10.4726" stroke-width="0.5" stroke="black" fill="red"/>
  <circle cx="357.349" cy="1651.2" r="6.31223" stroke-width="0.5" stroke="red" fill="red"/>
   </g>
   <g id="cell66">
  <circle cx="41.4546" cy="301.294" r="10.4156" stroke-width="0.5" stroke="black" fill="red"/>
  <circle cx="41.4546" cy="301.294" r="6.2851" stroke-width="0.5" stroke="red" fill="red"/>
   </g>
   <g id="cell67">
  <circle cx="1191.14" cy="501.944" r="8.41271" stroke-width="0.5" stroke="black" fill="red"/>
  <circle cx="1191.14" cy="501.944" r="5.05167" stroke-width="0.5" stroke="red" fill="red"/>
   </g>
   <g id="cell68">
  <circle cx="1471.03" cy="558.729" r="10.5066" stroke-width="0.5" stroke="black" fill="red"/>
  <circle cx="1471.03" cy="558.729" r="6.32777" stroke-width="0.5" stroke="red" fill="red"/>
   </g>
   <g id="cell69">
  <circle cx="859.784" cy="498.956" r="10.5012" stroke-width="0.5" stroke="black" fill="red"/>
  <circle cx="859.784" cy="498.956" r="6.32534" stroke-width="0.5" stroke="red" fill="red"/>
   </g>
   <g id="cell70">
  <circle cx="1156.51" cy="823.06" r="9.5651" stroke-width="0.5" stroke="black" fill="red"/>
  <circle cx="1156.51" cy="823.06" r="5.81327" stroke-width="0.5" stroke="red" fill="red"/>
   </g>
   <g id="cell71">
  <circle cx="1749.16" cy="1149.61" r="10.5117" stroke-width="0.5" stroke="black" fill="red"/>
  <circle cx="1749.16" cy="1149.61" r="6.33005" stroke-width="0.5" stroke="red" fill="red"/>
   </g>
   <g id="cell72">
  <circle cx="487.085" cy="1802" r="9.34292" stroke-width="0.5" stroke="black" fill="red"/>
  <circle cx="487.085" cy="1802" r="5.67875" stroke-width="0.5" stroke="red" fill="red"/>
   </g>
   <g id="cell73">
  <circle cx="1337.97" cy="898.659" r="10.1238" stroke-width="0.5" stroke="black" fill="red"/>
  <circle cx="1337.97" cy="898.659" r="6.13347" stroke-width="0.5" stroke="red" fill="red"/>
   </g>
   <g id="cell74">
  <circle cx="1661.09" cy="1960.47" r="8.41271" stroke-width="0.5" stroke="black" fill="red"/>
  <circle cx="1661.09" cy="1960.47" r="5.05167" stroke-width="0.5" stroke="red" fill="red"/>
   </g>
   <g id="cell75">
  <circle cx="246.217" cy="575.788" r="10.4401" stroke-width="0.5" stroke="black" fill="red"/>
  <circle cx="246.217" cy="575.788" r="6.29691" stroke-width="0.5" stroke="red" fill="red"/>
   </g>
   <g id="cell76">
  <circle cx="1615.7" cy="899.927" r="10.0497" stroke-width="0.5" stroke="black" fill="red"/>
  <circle cx="1615.7" cy="899.927" r="6.09278" stroke-width="0.5" stroke="red" fill="red"/>
   </g>
   <g id="cell77">
  <circle cx="1388.93" cy="1720.58" r="10.0169" stroke-width="0.5" stroke="black" fill="red"/>
  <circle cx="1388.93" cy="1720.58" r="6.07458" stroke-width="0.5" stroke="red" fill="red"/>
   </g>
   <g id="cell78">
  <circle cx="1179.69" cy="619.333" r="10.3615" stroke-width="0.5" stroke="black" fill="red"/>
  <circle cx="1179.69" cy="619.333" r="6.25834" stroke-width="0.5" stroke="red" fill="red"/>
   </g>
   <g id="cell79">
  <circle cx="1930.16" cy="1372.14" r="8.72828" stroke-width="0.5" stroke="black" fill="red"/>
  <circle cx="1930.16" cy="1372.14" r="5.28134" stroke-width="0.5" stroke="red" fill="red"/>
   </g>
   <g id="cell80">
  <circle cx="1451.63" cy="1310.55" r="10.5092" stroke-width="0.5" stroke="black" fill="red"/>
  <circle cx="1451.63" cy="1310.55" r="6.32893" stroke-width="0.5" stroke="red" fill="red"/>
   </g>
   <g id="cell81">
  <circle cx="1056.2" cy="1900.79" r="10.4925" stroke-width="0.5" stroke="black" fill="red"/>
  <circle cx="1056.2" cy="1900.79" r="6.32139" stroke-width="0.5" stroke="red" fill="red"/>
   </g>
   <g id="cell82">
  <circle cx="1289.52" cy="785.713" r="10.4651" stroke-width="0.5" stroke="black" fill="red"/>
  <circle cx="1289.52" cy="785.713" r="6.30877" stroke-width="0.5" stroke="red" fill="red"/>
   </g>
   <g id="cell83">
  <circle cx="1235.04" cy="1229.37" r="9.00806" stroke-width="0.5" stroke="black" fill="red"/>
  <circle cx="1235.04" cy="1229.37" r="5.46807" stroke-width="0.5" stroke="red" fill="red"/>
   </g>
   <g id="cell84">
  <circle cx="36.8054" cy="955.679" r="10.2728" stroke-width="0.5" stroke="black" fill="red"/>
  <circle cx="36.8054" cy="955.679" r="6.21295" stroke-width="0.5" stroke="red" fill="red"/>
   </g>
   <g id="cell85">
  <circle cx="1428.54" cy="1380.77" r="10.4796" stroke-width="0.5" stroke="black" fill="red"/>
  <circle cx="1428.54" cy="1380.77" r="6.31548" stroke-width="0.5" stroke="red" fill="red"/>
   </g>
   <g id="cell86">
  <circle cx="610.407" cy="746.415" r="9.23685" stroke-width="0.5" stroke="black" fill="red"/>
  <circle cx="610.407" cy="746.415" r="5.61315" stroke-width="0.5" stroke="red" fill="red"/>
   </g>
   <g id="cell87">
  <circle cx="1484" cy="835.985" r="10.4102" stroke-width="0.5" stroke="black" fill="red"/>
  <circle cx="1484" cy="835.985" r="6.2825" stroke-width="0.5" stroke="red" fill="red"/>
   </g>
   <g id="cell88">
  <circle cx="256.256" cy="190.339" r="10.5012" stroke-width="0.5" stroke="black" fill="red"/>
  <circle cx="256.256" cy="190.339" r="6.32534" stroke-width="0.5" stroke="red" fill="red"/>
   </g>
   <g id="cell99">
  <circle cx="877.575" cy="1983.74" r="8.72828" stroke-width="0.5" stroke="black" fill="red"/>
  <circle cx="877.575" cy="1983.74" r="5.28134" stroke-width="0.5" stroke="red" fill="red"/>
   </g>
   <g id="cell90">
  <circle cx="1142.69" cy="1099.07" r="10.4925" stroke-width="0.5" stroke="black" fill="red"/>
  <circle cx="1142.69" cy="1099.07" r="6.32139" stroke-width="0.5" stroke="red" fill="red"/>
   </g>
   <g id="cell91">
  <circle cx="70.8935" cy="1283.67" r="8.41271" stroke-width="0.5" stroke="black" fill="red"/>
  <circle cx="70.8935" cy="1283.67" r="5.05167" stroke-width="0.5" stroke="red" fill="red"/>
   </g>
   <g id="cell97">
  <circle cx="907.104" cy="179.425" r="10.4208" stroke-width="0.5" stroke="black" fill="red"/>
  <circle cx="907.104" cy="179.425" r="6.28762" stroke-width="0.5" stroke="red" fill="red"/>
   </g>
   <g id="cell93">
  <circle cx="445.983" cy="1805.98" r="10.0497" stroke-width="0.5" stroke="black" fill="red"/>
  <circle cx="445.983" cy="1805.98" r="6.09278" stroke-width="0.5" stroke="red" fill="red"/>
   </g>
   <g id="cell94">
  <circle cx="713.047" cy="222.422" r="10.3747" stroke-width="0.5" stroke="black" fill="red"/>
  <circle cx="713.047" cy="222.422" r="6.26498" stroke-width="0.5" stroke="red" fill="red"/>
   </g>
   <g id="cell95">
  <circle cx="1967.37" cy="1767.46" r="10.5066" stroke-width="0.5" stroke="black" fill="red"/>
  <circle cx="1967.37" cy="1767.46" r="6.32777" stroke-width="0.5" stroke="red" fill="red"/>
   </g>
  </g>
 </g>
  <rect x="1750" y="2070" width="200" height="20" stroke-width="4" stroke="rgb(255,255,255)" fill="rgb(0,0,0)"/>
  <text x="1762.5" y="2057.5"
   font-family="Arial" font-size="50" fill="black" >
   200 &#956;m
  </text>
  <text x="50" y="2090"
   font-family="Arial" font-size="37.5" fill="black" >
   0 days, 0 hours, 0 minutes, and 17.7346 seconds
  </text>
  <rect x="0" y="140" width="2000" height="2000" stroke-width="4" stroke="rgb(0,0,0)" fill="none"/>
</svg>
