<?xml version="1.0" encoding="UTF-8" standalone="no"?>
<!-- Created with PhysiCell (http://PhysiCell.MathCancer.org/) -->
<svg 
 xmlns:dc="http://purl.org/dc/elements/1.1/" 
 xmlns:cc="http://creativecommons.org/ns#" 
 xmlns:rdf="http://www.w3.org/1999/02/22-rdf-syntax-ns#" 
 xmlns:svg="http://www.w3.org/2000/svg" 
 xmlns="http://www.w3.org/2000/svg" 
 version="1.1" 
 width="2000" 
 height="2140" 
 id="svg2">
  <rect x="0" y="0" width="2000" height="2140" stroke-width="4" stroke="white" fill="white"/>
  <text x="25" y="60"
   font-family="Arial" font-size="50" fill="black" >
   Current time: 0 days, 7 hours, and 30.00 minutes, z = 0.00 &#956;m
  </text>
  <text x="25" y="115"
   font-family="Arial" font-size="47.5" fill="black" >
   100 agents
  </text>
 <g id="tissue" 
    transform="translate(0,2140) scale(1,-1)">
  <g id="ECM">
  </g>
  <g id="cells">
   <g id="cell0">
  <circle cx="1077.27" cy="1157.36" r="9.37686" stroke-width="0.5" stroke="black" fill="grey"/>
  <circle cx="1077.27" cy="1157.36" r="5.69955" stroke-width="0.5" stroke="grey" fill="grey"/>
   </g>
   <g id="cell1">
  <circle cx="1685.69" cy="1208.09" r="10.0497" stroke-width="0.5" stroke="black" fill="grey"/>
  <circle cx="1685.69" cy="1208.09" r="6.09278" stroke-width="0.5" stroke="grey" fill="grey"/>
   </g>
   <g id="cell2">
  <circle cx="1089.77" cy="1706.09" r="10.2728" stroke-width="0.5" stroke="black" fill="grey"/>
  <circle cx="1089.77" cy="1706.09" r="6.21295" stroke-width="0.5" stroke="grey" fill="grey"/>
   </g>
   <g id="cell3">
  <circle cx="1233.81" cy="1270.77" r="9.62199" stroke-width="0.5" stroke="black" fill="grey"/>
  <circle cx="1233.81" cy="1270.77" r="5.8471" stroke-width="0.5" stroke="grey" fill="grey"/>
   </g>
   <g id="cell4">
  <circle cx="905.814" cy="590.717" r="8.41271" stroke-width="0.5" stroke="black" fill="grey"/>
  <circle cx="905.814" cy="590.717" r="5.05167" stroke-width="0.5" stroke="grey" fill="grey"/>
   </g>
   <g id="cell5">
  <circle cx="84.7176" cy="1928.84" r="9.04745" stroke-width="0.5" stroke="black" fill="grey"/>
  <circle cx="84.7176" cy="1928.84" r="5.49345" stroke-width="0.5" stroke="grey" fill="grey"/>
   </g>
   <g id="cell6">
  <circle cx="756.351" cy="932.45" r="8.54454" stroke-width="0.5" stroke="black" fill="grey"/>
  <circle cx="756.351" cy="932.45" r="5.14947" stroke-width="0.5" stroke="grey" fill="grey"/>
   </g>
   <g id="cell7">
  <circle cx="1596.33" cy="1039.59" r="9.90658" stroke-width="0.5" stroke="black" fill="grey"/>
  <circle cx="1596.33" cy="1039.59" r="6.01243" stroke-width="0.5" stroke="grey" fill="grey"/>
   </g>
   <g id="cell8">
  <circle cx="1137.51" cy="818.601" r="10.2632" stroke-width="0.5" stroke="black" fill="grey"/>
  <circle cx="1137.51" cy="818.601" r="6.20796" stroke-width="0.5" stroke="grey" fill="grey"/>
   </g>
   <g id="cell9">
  <circle cx="1648.78" cy="162.041" r="9.30826" stroke-width="0.5" stroke="black" fill="grey"/>
  <circle cx="1648.78" cy="162.041" r="5.65742" stroke-width="0.5" stroke="grey" fill="grey"/>
   </g>
   <g id="cell10">
  <circle cx="179.475" cy="1304.51" r="8.41271" stroke-width="0.5" stroke="black" fill="grey"/>
  <circle cx="179.475" cy="1304.51" r="5.05167" stroke-width="0.5" stroke="grey" fill="grey"/>
   </g>
   <g id="cell11">
  <circle cx="755.114" cy="1633.57" r="10.1634" stroke-width="0.5" stroke="black" fill="grey"/>
  <circle cx="755.114" cy="1633.57" r="6.1549" stroke-width="0.5" stroke="grey" fill="grey"/>
   </g>
   <g id="cell12">
  <circle cx="1581.97" cy="285.895" r="9.2729" stroke-width="0.5" stroke="black" fill="grey"/>
  <circle cx="1581.97" cy="285.895" r="5.63555" stroke-width="0.5" stroke="grey" fill="grey"/>
   </g>
   <g id="cell13">
  <circle cx="1740.63" cy="1910.12" r="10.1879" stroke-width="0.5" stroke="black" fill="grey"/>
  <circle cx="1740.63" cy="1910.12" r="6.16807" stroke-width="0.5" stroke="grey" fill="grey"/>
   </g>
   <g id="cell14">
  <circle cx="1561.99" cy="1623.26" r="8.41271" stroke-width="0.5" stroke="black" fill="grey"/>
  <circle cx="1561.99" cy="1623.26" r="5.05167" stroke-width="0.5" stroke="grey" fill="grey"/>
   </g>
   <g id="cell15">
  <circle cx="1026.86" cy="1561.36" r="9.67603" stroke-width="0.5" stroke="black" fill="grey"/>
  <circle cx="1026.86" cy="1561.36" r="5.87901" stroke-width="0.5" stroke="grey" fill="grey"/>
   </g>
   <g id="cell16">
  <circle cx="267.894" cy="1401.27" r="9.99984" stroke-width="0.5" stroke="black" fill="grey"/>
  <circle cx="267.894" cy="1401.27" r="6.06503" stroke-width="0.5" stroke="grey" fill="grey"/>
   </g>
   <g id="cell17">
  <circle cx="1192.82" cy="278.873" r="9.86542" stroke-width="0.5" stroke="black" fill="grey"/>
  <circle cx="1192.82" cy="278.873" r="5.98895" stroke-width="0.5" stroke="grey" fill="grey"/>
   </g>
   <g id="cell18">
  <circle cx="1874.58" cy="1517.48" r="10.1758" stroke-width="0.5" stroke="black" fill="grey"/>
  <circle cx="1874.58" cy="1517.48" r="6.16159" stroke-width="0.5" stroke="grey" fill="grey"/>
   </g>
   <g id="cell19">
  <circle cx="234.199" cy="855.809" r="8.41271" stroke-width="0.5" stroke="black" fill="grey"/>
  <circle cx="234.199" cy="855.809" r="5.05167" stroke-width="0.5" stroke="grey" fill="grey"/>
   </g>
   <g id="cell20">
  <circle cx="532.384" cy="368.656" r="8.41271" stroke-width="0.5" stroke="black" fill="grey"/>
  <circle cx="532.384" cy="368.656" r="5.05167" stroke-width="0.5" stroke="grey" fill="grey"/>
   </g>
   <g id="cell21">
  <circle cx="1405.93" cy="892.059" r="8.57856" stroke-width="0.5" stroke="black" fill="grey"/>
  <circle cx="1405.93" cy="892.059" r="5.17461" stroke-width="0.5" stroke="grey" fill="grey"/>
   </g>
   <g id="cell22">
  <circle cx="1129.06" cy="260.315" r="8.41271" stroke-width="0.5" stroke="black" fill="grey"/>
  <circle cx="1129.06" cy="260.315" r="5.05167" stroke-width="0.5" stroke="grey" fill="grey"/>
   </g>
   <g id="cell23">
  <circle cx="679.167" cy="1246.22" r="10.2221" stroke-width="0.5" stroke="black" fill="grey"/>
  <circle cx="679.167" cy="1246.22" r="6.18628" stroke-width="0.5" stroke="grey" fill="grey"/>
   </g>
   <g id="cell24">
  <circle cx="1274.49" cy="451.409" r="8.41271" stroke-width="0.5" stroke="black" fill="grey"/>
  <circle cx="1274.49" cy="451.409" r="5.05167" stroke-width="0.5" stroke="grey" fill="grey"/>
   </g>
   <g id="cell25">
  <circle cx="794.57" cy="1872.56" r="10.2632" stroke-width="0.5" stroke="black" fill="grey"/>
  <circle cx="794.57" cy="1872.56" r="6.20796" stroke-width="0.5" stroke="grey" fill="grey"/>
   </g>
   <g id="cell26">
  <circle cx="1378.36" cy="903.318" r="8.41271" stroke-width="0.5" stroke="black" fill="grey"/>
  <circle cx="1378.36" cy="903.318" r="5.05167" stroke-width="0.5" stroke="grey" fill="grey"/>
   </g>
   <g id="cell27">
  <circle cx="1209.73" cy="885.172" r="9.7992" stroke-width="0.5" stroke="black" fill="grey"/>
  <circle cx="1209.73" cy="885.172" r="5.95086" stroke-width="0.5" stroke="grey" fill="grey"/>
   </g>
   <g id="cell28">
  <circle cx="1371.29" cy="191.432" r="9.98223" stroke-width="0.5" stroke="black" fill="grey"/>
  <circle cx="1371.29" cy="191.432" r="6.05517" stroke-width="0.5" stroke="grey" fill="grey"/>
   </g>
   <g id="cell29">
  <circle cx="1952.44" cy="1312.31" r="9.59391" stroke-width="0.5" stroke="black" fill="grey"/>
  <circle cx="1952.44" cy="1312.31" r="5.83043" stroke-width="0.5" stroke="grey" fill="grey"/>
   </g>
   <g id="cell30">
  <circle cx="1343.28" cy="322.574" r="9.2729" stroke-width="0.5" stroke="black" fill="grey"/>
  <circle cx="1343.28" cy="322.574" r="5.63555" stroke-width="0.5" stroke="grey" fill="grey"/>
   </g>
   <g id="cell31">
  <circle cx="719.635" cy="243.247" r="10.1996" stroke-width="0.5" stroke="black" fill="grey"/>
  <circle cx="719.635" cy="243.247" r="6.17434" stroke-width="0.5" stroke="grey" fill="grey"/>
   </g>
   <g id="cell32">
  <circle cx="600.838" cy="1222.37" r="10.1879" stroke-width="0.5" stroke="black" fill="grey"/>
  <circle cx="600.838" cy="1222.37" r="6.16807" stroke-width="0.5" stroke="grey" fill="grey"/>
   </g>
   <g id="cell33">
  <circle cx="665.396" cy="1137.76" r="9.16281" stroke-width="0.5" stroke="black" fill="grey"/>
  <circle cx="665.396" cy="1137.76" r="5.56677" stroke-width="0.5" stroke="grey" fill="grey"/>
   </g>
   <g id="cell34">
  <circle cx="903.433" cy="1247.66" r="10.2534" stroke-width="0.5" stroke="black" fill="grey"/>
  <circle cx="903.433" cy="1247.66" r="6.2028" stroke-width="0.5" stroke="grey" fill="grey"/>
   </g>
   <g id="cell35">
  <circle cx="1881.09" cy="222.818" r="10.1374" stroke-width="0.5" stroke="black" fill="grey"/>
  <circle cx="1881.09" cy="222.818" r="6.14084" stroke-width="0.5" stroke="grey" fill="grey"/>
   </g>
   <g id="cell36">
  <circle cx="390.422" cy="1271.81" r="10.0654" stroke-width="0.5" stroke="black" fill="grey"/>
  <circle cx="390.422" cy="1271.81" r="6.10145" stroke-width="0.5" stroke="grey" fill="grey"/>
   </g>
   <g id="cell37">
  <circle cx="1982.4" cy="1304.23" r="8.41271" stroke-width="0.5" stroke="black" fill="grey"/>
  <circle cx="1982.4" cy="1304.23" r="5.05167" stroke-width="0.5" stroke="grey" fill="grey"/>
   </g>
   <g id="cell38">
  <circle cx="461.122" cy="864.086" r="10.1506" stroke-width="0.5" stroke="black" fill="grey"/>
  <circle cx="461.122" cy="864.086" r="6.14798" stroke-width="0.5" stroke="grey" fill="grey"/>
   </g>
   <g id="cell39">
  <circle cx="925.815" cy="481.518" r="8.41271" stroke-width="0.5" stroke="black" fill="grey"/>
  <circle cx="925.815" cy="481.518" r="5.05167" stroke-width="0.5" stroke="grey" fill="grey"/>
   </g>
   <g id="cell40">
  <circle cx="293.262" cy="671.449" r="10.1758" stroke-width="0.5" stroke="black" fill="grey"/>
  <circle cx="293.262" cy="671.449" r="6.16159" stroke-width="0.5" stroke="grey" fill="grey"/>
   </g>
   <g id="cell41">
  <circle cx="1360.88" cy="1274.9" r="10.2821" stroke-width="0.5" stroke="black" fill="grey"/>
  <circle cx="1360.88" cy="1274.9" r="6.21778" stroke-width="0.5" stroke="grey" fill="grey"/>
   </g>
   <g id="cell42">
  <circle cx="277.795" cy="1562.06" r="9.86542" stroke-width="0.5" stroke="black" fill="grey"/>
  <circle cx="277.795" cy="1562.06" r="5.98895" stroke-width="0.5" stroke="grey" fill="grey"/>
   </g>
   <g id="cell43">
  <circle cx="1913.67" cy="754.675" r="9.99984" stroke-width="0.5" stroke="black" fill="grey"/>
  <circle cx="1913.67" cy="754.675" r="6.06503" stroke-width="0.5" stroke="grey" fill="grey"/>
   </g>
   <g id="cell44">
  <circle cx="1663.16" cy="59.5534" r="9.90658" stroke-width="0.5" stroke="black" fill="grey"/>
  <circle cx="1663.16" cy="59.5534" r="6.01243" stroke-width="0.5" stroke="grey" fill="grey"/>
   </g>
   <g id="cell45">
  <circle cx="1249.29" cy="1711.21" r="9.7273" stroke-width="0.5" stroke="black" fill="grey"/>
  <circle cx="1249.29" cy="1711.21" r="5.90906" stroke-width="0.5" stroke="grey" fill="grey"/>
   </g>
   <g id="cell46">
  <circle cx="180.781" cy="1946.22" r="9.98223" stroke-width="0.5" stroke="black" fill="grey"/>
  <circle cx="180.781" cy="1946.22" r="6.05517" stroke-width="0.5" stroke="grey" fill="grey"/>
   </g>
   <g id="cell47">
  <circle cx="1745.88" cy="922.437" r="10.2433" stroke-width="0.5" stroke="black" fill="grey"/>
  <circle cx="1745.88" cy="922.437" r="6.19748" stroke-width="0.5" stroke="grey" fill="grey"/>
   </g>
   <g id="cell48">
  <circle cx="1943.9" cy="112.264" r="9.16281" stroke-width="0.5" stroke="black" fill="grey"/>
  <circle cx="1943.9" cy="112.264" r="5.56677" stroke-width="0.5" stroke="grey" fill="grey"/>
   </g>
   <g id="cell49">
  <circle cx="898.653" cy="1470.73" r="9.7273" stroke-width="0.5" stroke="black" fill="grey"/>
  <circle cx="898.653" cy="1470.73" r="5.90906" stroke-width="0.5" stroke="grey" fill="grey"/>
   </g>
   <g id="cell50">
  <circle cx="134.459" cy="866.758" r="9.70201" stroke-width="0.5" stroke="black" fill="red"/>
  <circle cx="134.459" cy="866.758" r="5.89426" stroke-width="0.5" stroke="red" fill="red"/>
   </g>
   <g id="cell51">
  <circle cx="1975.95" cy="269.478" r="8.41271" stroke-width="0.5" stroke="black" fill="red"/>
  <circle cx="1975.95" cy="269.478" r="5.05167" stroke-width="0.5" stroke="red" fill="red"/>
   </g>
   <g id="cell52">
  <circle cx="611.152" cy="960.816" r="9.86542" stroke-width="0.5" stroke="black" fill="red"/>
  <circle cx="611.152" cy="960.816" r="5.98895" stroke-width="0.5" stroke="red" fill="red"/>
   </g>
   <g id="cell53">
  <circle cx="1374.52" cy="667.724" r="8.41271" stroke-width="0.5" stroke="black" fill="red"/>
  <circle cx="1374.52" cy="667.724" r="5.05167" stroke-width="0.5" stroke="red" fill="red"/>
   </g>
   <g id="cell54">
  <circle cx="815.386" cy="1828.21" r="9.96412" stroke-width="0.5" stroke="black" fill="red"/>
  <circle cx="815.386" cy="1828.21" r="6.04499" stroke-width="0.5" stroke="red" fill="red"/>
   </g>
   <g id="cell55">
  <circle cx="422.466" cy="1376.05" r="8.41271" stroke-width="0.5" stroke="black" fill="red"/>
  <circle cx="422.466" cy="1376.05" r="5.05167" stroke-width="0.5" stroke="red" fill="red"/>
   </g>
   <g id="cell56">
  <circle cx="1144.11" cy="1705.22" r="8.41271" stroke-width="0.5" stroke="black" fill="red"/>
  <circle cx="1144.11" cy="1705.22" r="5.05167" stroke-width="0.5" stroke="red" fill="red"/>
   </g>
   <g id="cell57">
  <circle cx="1015.2" cy="1067.7" r="10.211" stroke-width="0.5" stroke="black" fill="red"/>
  <circle cx="1015.2" cy="1067.7" r="6.18041" stroke-width="0.5" stroke="red" fill="red"/>
   </g>
   <g id="cell58">
  <circle cx="168.521" cy="1814.19" r="8.88811" stroke-width="0.5" stroke="black" fill="red"/>
  <circle cx="168.521" cy="1814.19" r="5.38958" stroke-width="0.5" stroke="red" fill="red"/>
   </g>
   <g id="cell59">
  <circle cx="166.225" cy="1858.59" r="1.33065" stroke-width="0.5" stroke="black" fill="red"/>
  <circle cx="166.225" cy="1858.59" r="1.32157" stroke-width="0.5" stroke="black" fill="black"/>
   </g>
   <g id="cell60">
  <circle cx="636.339" cy="40.6495" r="9.77588" stroke-width="0.5" stroke="black" fill="red"/>
  <circle cx="636.339" cy="40.6495" r="5.93735" stroke-width="0.5" stroke="red" fill="red"/>
   </g>
   <g id="cell61">
  <circle cx="1660.79" cy="259.249" r="10.0336" stroke-width="0.5" stroke="black" fill="red"/>
  <circle cx="1660.79" cy="259.249" r="6.08382" stroke-width="0.5" stroke="red" fill="red"/>
   </g>
   <g id="cell62">
  <circle cx="1411.69" cy="1704.78" r="9.94548" stroke-width="0.5" stroke="black" fill="red"/>
  <circle cx="1411.69" cy="1704.78" r="6.03448" stroke-width="0.5" stroke="red" fill="red"/>
   </g>
   <g id="cell63">
  <circle cx="557.728" cy="362.961" r="8.72828" stroke-width="0.5" stroke="black" fill="red"/>
  <circle cx="557.728" cy="362.961" r="5.28134" stroke-width="0.5" stroke="red" fill="red"/>
   </g>
   <g id="cell64">
  <circle cx="1190.02" cy="1105.07" r="9.77588" stroke-width="0.5" stroke="black" fill="red"/>
  <circle cx="1190.02" cy="1105.07" r="5.93735" stroke-width="0.5" stroke="red" fill="red"/>
   </g>
   <g id="cell65">
  <circle cx="313.368" cy="1655.18" r="9.96412" stroke-width="0.5" stroke="black" fill="red"/>
  <circle cx="313.368" cy="1655.18" r="6.04499" stroke-width="0.5" stroke="red" fill="red"/>
   </g>
   <g id="cell66">
  <circle cx="13.1116" cy="283.99" r="9.5651" stroke-width="0.5" stroke="black" fill="red"/>
  <circle cx="13.1116" cy="283.99" r="5.81327" stroke-width="0.5" stroke="red" fill="red"/>
   </g>
   <g id="cell67">
  <circle cx="1168.62" cy="550.219" r="8.4325" stroke-width="0.5" stroke="black" fill="red"/>
  <circle cx="1168.62" cy="550.219" r="5.06552" stroke-width="0.5" stroke="red" fill="red"/>
   </g>
   <g id="cell68">
  <circle cx="1462.57" cy="607.674" r="9.88629" stroke-width="0.5" stroke="black" fill="red"/>
  <circle cx="1462.57" cy="607.674" r="6.00088" stroke-width="0.5" stroke="red" fill="red"/>
   </g>
   <g id="cell69">
  <circle cx="866.777" cy="515.293" r="9.30826" stroke-width="0.5" stroke="black" fill="red"/>
  <circle cx="866.777" cy="515.293" r="5.65742" stroke-width="0.5" stroke="red" fill="red"/>
   </g>
   <g id="cell70">
  <circle cx="1166.96" cy="785.934" r="10.0654" stroke-width="0.5" stroke="black" fill="red"/>
  <circle cx="1166.96" cy="785.934" r="6.10145" stroke-width="0.5" stroke="red" fill="red"/>
   </g>
   <g id="cell71">
  <circle cx="1775.29" cy="1176.07" r="10.2328" stroke-width="0.5" stroke="black" fill="red"/>
  <circle cx="1775.29" cy="1176.07" r="6.19197" stroke-width="0.5" stroke="red" fill="red"/>
   </g>
   <g id="cell72">
  <circle cx="437.702" cy="1766" r="8.41271" stroke-width="0.5" stroke="black" fill="red"/>
  <circle cx="437.702" cy="1766" r="5.05167" stroke-width="0.5" stroke="red" fill="red"/>
   </g>
   <g id="cell73">
  <circle cx="1355.75" cy="858.344" r="10.1758" stroke-width="0.5" stroke="black" fill="red"/>
  <circle cx="1355.75" cy="858.344" r="6.16159" stroke-width="0.5" stroke="red" fill="red"/>
   </g>
   <g id="cell74">
  <circle cx="1692.65" cy="1915.61" r="9.98223" stroke-width="0.5" stroke="black" fill="red"/>
  <circle cx="1692.65" cy="1915.61" r="6.05517" stroke-width="0.5" stroke="red" fill="red"/>
   </g>
   <g id="cell75">
  <circle cx="221.6" cy="583.458" r="8.41271" stroke-width="0.5" stroke="black" fill="red"/>
  <circle cx="221.6" cy="583.458" r="5.05167" stroke-width="0.5" stroke="red" fill="red"/>
   </g>
   <g id="cell76">
  <circle cx="1641.75" cy="777.322" r="9.37686" stroke-width="0.5" stroke="black" fill="red"/>
  <circle cx="1641.75" cy="777.322" r="5.69955" stroke-width="0.5" stroke="red" fill="red"/>
   </g>
   <g id="cell77">
  <circle cx="1359.48" cy="1787.57" r="10.1098" stroke-width="0.5" stroke="black" fill="red"/>
  <circle cx="1359.48" cy="1787.57" r="6.12585" stroke-width="0.5" stroke="red" fill="red"/>
   </g>
   <g id="cell78">
  <circle cx="1156.14" cy="629.777" r="8.41271" stroke-width="0.5" stroke="black" fill="red"/>
  <circle cx="1156.14" cy="629.777" r="5.05167" stroke-width="0.5" stroke="red" fill="red"/>
   </g>
   <g id="cell79">
  <circle cx="1960.43" cy="1418.29" r="9.44256" stroke-width="0.5" stroke="black" fill="red"/>
  <circle cx="1960.43" cy="1418.29" r="5.73955" stroke-width="0.5" stroke="red" fill="red"/>
   </g>
   <g id="cell80">
  <circle cx="1462.97" cy="1308.92" r="10.0806" stroke-width="0.5" stroke="black" fill="red"/>
  <circle cx="1462.97" cy="1308.92" r="6.10985" stroke-width="0.5" stroke="red" fill="red"/>
   </g>
   <g id="cell81">
  <circle cx="1074.32" cy="1913.3" r="9.7992" stroke-width="0.5" stroke="black" fill="red"/>
  <circle cx="1074.32" cy="1913.3" r="5.95086" stroke-width="0.5" stroke="red" fill="red"/>
   </g>
   <g id="cell82">
  <circle cx="1282.07" cy="803.087" r="10.1634" stroke-width="0.5" stroke="black" fill="red"/>
  <circle cx="1282.07" cy="803.087" r="6.1549" stroke-width="0.5" stroke="red" fill="red"/>
   </g>
   <g id="cell83">
  <circle cx="1218.49" cy="1214.03" r="10.2632" stroke-width="0.5" stroke="black" fill="red"/>
  <circle cx="1218.49" cy="1214.03" r="6.20796" stroke-width="0.5" stroke="red" fill="red"/>
   </g>
   <g id="cell84">
  <circle cx="19.2553" cy="914.361" r="8.41271" stroke-width="0.5" stroke="black" fill="red"/>
  <circle cx="19.2553" cy="914.361" r="5.05167" stroke-width="0.5" stroke="red" fill="red"/>
   </g>
   <g id="cell85">
  <circle cx="1457.59" cy="1334.23" r="8.41271" stroke-width="0.5" stroke="black" fill="red"/>
  <circle cx="1457.59" cy="1334.23" r="5.05167" stroke-width="0.5" stroke="red" fill="red"/>
   </g>
   <g id="cell86">
  <circle cx="582.057" cy="784.785" r="9.67603" stroke-width="0.5" stroke="black" fill="red"/>
  <circle cx="582.057" cy="784.785" r="5.87901" stroke-width="0.5" stroke="red" fill="red"/>
   </g>
   <g id="cell87">
  <circle cx="1496.98" cy="893.171" r="8.41271" stroke-width="0.5" stroke="black" fill="red"/>
  <circle cx="1496.98" cy="893.171" r="5.05167" stroke-width="0.5" stroke="red" fill="red"/>
   </g>
   <g id="cell88">
  <circle cx="262.55" cy="197.365" r="9.98223" stroke-width="0.5" stroke="black" fill="red"/>
  <circle cx="262.55" cy="197.365" r="6.05517" stroke-width="0.5" stroke="red" fill="red"/>
   </g>
   <g id="cell89">
  <circle cx="174.969" cy="1162.39" r="10.0336" stroke-width="0.5" stroke="black" fill="red"/>
  <circle cx="174.969" cy="1162.39" r="6.08382" stroke-width="0.5" stroke="red" fill="red"/>
   </g>
   <g id="cell90">
  <circle cx="1180.25" cy="1085.89" r="9.00806" stroke-width="0.5" stroke="black" fill="red"/>
  <circle cx="1180.25" cy="1085.89" r="5.46807" stroke-width="0.5" stroke="red" fill="red"/>
   </g>
   <g id="cell91">
  <circle cx="52.1914" cy="1274.7" r="10.1098" stroke-width="0.5" stroke="black" fill="red"/>
  <circle cx="52.1914" cy="1274.7" r="6.12585" stroke-width="0.5" stroke="red" fill="red"/>
   </g>
   <g id="cell92">
  <circle cx="1304.21" cy="641.994" r="1.33065" stroke-width="0.5" stroke="black" fill="red"/>
  <circle cx="1304.21" cy="641.994" r="1.32157" stroke-width="0.5" stroke="black" fill="black"/>
   </g>
   <g id="cell93">
  <circle cx="430.02" cy="1791.77" r="10.2534" stroke-width="0.5" stroke="black" fill="red"/>
  <circle cx="430.02" cy="1791.77" r="6.2028" stroke-width="0.5" stroke="red" fill="red"/>
   </g>
   <g id="cell94">
  <circle cx="731.27" cy="182.726" r="9.82189" stroke-width="0.5" stroke="black" fill="red"/>
  <circle cx="731.27" cy="182.726" r="5.96395" stroke-width="0.5" stroke="red" fill="red"/>
   </g>
   <g id="cell95">
  <circle cx="1934.84" cy="1764.34" r="10.211" stroke-width="0.5" stroke="black" fill="red"/>
  <circle cx="1934.84" cy="1764.34" r="6.18041" stroke-width="0.5" stroke="red" fill="red"/>
   </g>
   <g id="cell96">
  <circle cx="1658.05" cy="1062.34" r="8.41271" stroke-width="0.5" stroke="black" fill="red"/>
  <circle cx="1658.05" cy="1062.34" r="5.05167" stroke-width="0.5" stroke="red" fill="red"/>
   </g>
   <g id="cell97">
  <circle cx="945.7" cy="181.53" r="9.77588" stroke-width="0.5" stroke="black" fill="red"/>
  <circle cx="945.7" cy="181.53" r="5.93735" stroke-width="0.5" stroke="red" fill="red"/>
   </g>
   <g id="cell98">
  <circle cx="1824.16" cy="708.994" r="9.41008" stroke-width="0.5" stroke="black" fill="red"/>
  <circle cx="1824.16" cy="708.994" r="5.71981" stroke-width="0.5" stroke="red" fill="red"/>
   </g>
   <g id="cell99">
  <circle cx="955.666" cy="1989.29" r="10.2221" stroke-width="0.5" stroke="black" fill="red"/>
  <circle cx="955.666" cy="1989.29" r="6.18628" stroke-width="0.5" stroke="red" fill="red"/>
   </g>
  </g>
 </g>
  <rect x="1750" y="2070" width="200" height="20" stroke-width="4" stroke="rgb(255,255,255)" fill="rgb(0,0,0)"/>
  <text x="1762.5" y="2057.5"
   font-family="Arial" font-size="50" fill="black" >
   200 &#956;m
  </text>
  <text x="50" y="2090"
   font-family="Arial" font-size="37.5" fill="black" >
   0 days, 0 hours, 0 minutes, and 11.0705 seconds
  </text>
  <rect x="0" y="140" width="2000" height="2000" stroke-width="4" stroke="rgb(0,0,0)" fill="none"/>
</svg>
