<?xml version="1.0" encoding="UTF-8" standalone="no"?>
<!-- Created with PhysiCell (http://PhysiCell.MathCancer.org/) -->
<svg 
 xmlns:dc="http://purl.org/dc/elements/1.1/" 
 xmlns:cc="http://creativecommons.org/ns#" 
 xmlns:rdf="http://www.w3.org/1999/02/22-rdf-syntax-ns#" 
 xmlns:svg="http://www.w3.org/2000/svg" 
 xmlns="http://www.w3.org/2000/svg" 
 version="1.1" 
 width="2000" 
 height="2140" 
 id="svg2">
  <rect x="0" y="0" width="2000" height="2140" stroke-width="4" stroke="white" fill="white"/>
  <text x="25" y="60"
   font-family="Arial" font-size="50" fill="black" >
   Current time: 3 days, 10 hours, and 0.00 minutes, z = 0.00 &#956;m
  </text>
  <text x="25" y="115"
   font-family="Arial" font-size="47.5" fill="black" >
   139 agents
  </text>
 <g id="tissue" 
    transform="translate(0,2140) scale(1,-1)">
  <g id="ECM">
  </g>
  <g id="cells">
   <g id="cell0">
  <circle cx="1084.85" cy="1209.68" r="8.37718" stroke-width="0.5" stroke="black" fill="grey"/>
  <circle cx="1084.85" cy="1209.68" r="5.03876" stroke-width="0.5" stroke="grey" fill="grey"/>
   </g>
   <g id="cell1">
  <circle cx="1693.51" cy="1250.34" r="10.0909" stroke-width="0.5" stroke="black" fill="grey"/>
  <circle cx="1693.51" cy="1250.34" r="6.11655" stroke-width="0.5" stroke="grey" fill="grey"/>
   </g>
   <g id="cell2">
  <circle cx="1211.8" cy="1738.91" r="10.4098" stroke-width="0.5" stroke="black" fill="grey"/>
  <circle cx="1211.8" cy="1738.91" r="6.28238" stroke-width="0.5" stroke="grey" fill="grey"/>
   </g>
   <g id="cell3">
  <circle cx="1261.97" cy="1316.49" r="8.37178" stroke-width="0.5" stroke="black" fill="grey"/>
  <circle cx="1261.97" cy="1316.49" r="5.03654" stroke-width="0.5" stroke="grey" fill="grey"/>
   </g>
   <g id="cell4">
  <circle cx="804.852" cy="532.126" r="10.3397" stroke-width="0.5" stroke="black" fill="grey"/>
  <circle cx="804.852" cy="532.126" r="6.24745" stroke-width="0.5" stroke="grey" fill="grey"/>
   </g>
   <g id="cell5">
  <circle cx="68.8768" cy="1936.47" r="10.5089" stroke-width="0.5" stroke="black" fill="red"/>
  <circle cx="68.8768" cy="1936.47" r="6.32886" stroke-width="0.5" stroke="red" fill="red"/>
   </g>
   <g id="cell6">
  <circle cx="886.032" cy="900.719" r="10.4439" stroke-width="0.5" stroke="black" fill="red"/>
  <circle cx="886.032" cy="900.719" r="6.29887" stroke-width="0.5" stroke="red" fill="red"/>
   </g>
   <g id="cell19">
  <circle cx="1700.2" cy="1360.73" r="8.36119" stroke-width="0.5" stroke="black" fill="grey"/>
  <circle cx="1700.2" cy="1360.73" r="5.03212" stroke-width="0.5" stroke="grey" fill="grey"/>
   </g>
   <g id="cell18">
  <circle cx="1613.92" cy="288.157" r="8.38452" stroke-width="0.5" stroke="black" fill="red"/>
  <circle cx="1613.92" cy="288.157" r="5.04167" stroke-width="0.5" stroke="red" fill="red"/>
   </g>
   <g id="cell9">
  <circle cx="1723.02" cy="123.729" r="10.5231" stroke-width="0.5" stroke="black" fill="red"/>
  <circle cx="1723.02" cy="123.729" r="6.33509" stroke-width="0.5" stroke="red" fill="red"/>
   </g>
   <g id="cell11">
  <circle cx="1550.77" cy="1115.3" r="10.5271" stroke-width="0.5" stroke="black" fill="red"/>
  <circle cx="1550.77" cy="1115.3" r="6.33687" stroke-width="0.5" stroke="red" fill="red"/>
   </g>
   <g id="cell20">
  <circle cx="788.565" cy="1019.24" r="10.1315" stroke-width="0.5" stroke="black" fill="red"/>
  <circle cx="788.565" cy="1019.24" r="6.13898" stroke-width="0.5" stroke="red" fill="red"/>
   </g>
   <g id="cell13">
  <circle cx="857.08" cy="628.026" r="8.40089" stroke-width="0.5" stroke="black" fill="grey"/>
  <circle cx="857.08" cy="628.026" r="5.04788" stroke-width="0.5" stroke="grey" fill="grey"/>
   </g>
   <g id="cell14">
  <circle cx="1138.29" cy="1298.96" r="10.0943" stroke-width="0.5" stroke="black" fill="grey"/>
  <circle cx="1138.29" cy="1298.96" r="6.11766" stroke-width="0.5" stroke="grey" fill="grey"/>
   </g>
   <g id="cell15">
  <circle cx="1135.99" cy="1205.26" r="10.3317" stroke-width="0.5" stroke="black" fill="grey"/>
  <circle cx="1135.99" cy="1205.26" r="6.24348" stroke-width="0.5" stroke="grey" fill="grey"/>
   </g>
   <g id="cell16">
  <circle cx="1101.55" cy="1675.66" r="8.36939" stroke-width="0.5" stroke="black" fill="grey"/>
  <circle cx="1101.55" cy="1675.66" r="5.03555" stroke-width="0.5" stroke="grey" fill="grey"/>
   </g>
   <g id="cell90">
  <circle cx="808.535" cy="860.799" r="10.4823" stroke-width="0.5" stroke="black" fill="red"/>
  <circle cx="808.535" cy="860.799" r="6.31686" stroke-width="0.5" stroke="red" fill="red"/>
   </g>
   <g id="cell86">
  <circle cx="1535.81" cy="1020.26" r="10.4756" stroke-width="0.5" stroke="black" fill="red"/>
  <circle cx="1535.81" cy="1020.26" r="6.31374" stroke-width="0.5" stroke="red" fill="red"/>
   </g>
   <g id="cell22">
  <circle cx="1106.29" cy="1707.82" r="10.345" stroke-width="0.5" stroke="black" fill="grey"/>
  <circle cx="1106.29" cy="1707.82" r="6.25057" stroke-width="0.5" stroke="grey" fill="grey"/>
   </g>
   <g id="cell23">
  <circle cx="1215.1" cy="1331.68" r="9.79581" stroke-width="0.5" stroke="black" fill="grey"/>
  <circle cx="1215.1" cy="1331.68" r="5.94981" stroke-width="0.5" stroke="grey" fill="grey"/>
   </g>
   <g id="cell24">
  <circle cx="1164.38" cy="1261.95" r="10.4154" stroke-width="0.5" stroke="black" fill="grey"/>
  <circle cx="1164.38" cy="1261.95" r="6.28506" stroke-width="0.5" stroke="grey" fill="grey"/>
   </g>
   <g id="cell25">
  <circle cx="1176.46" cy="731.632" r="8.36307" stroke-width="0.5" stroke="black" fill="red"/>
  <circle cx="1176.46" cy="731.632" r="5.03285" stroke-width="0.5" stroke="red" fill="red"/>
   </g>
   <g id="cell26">
  <circle cx="1717.16" cy="1221.06" r="10.5115" stroke-width="0.5" stroke="black" fill="grey"/>
  <circle cx="1717.16" cy="1221.06" r="6.33" stroke-width="0.5" stroke="grey" fill="grey"/>
   </g>
   <g id="cell27">
  <circle cx="907.172" cy="549.4" r="9.26285" stroke-width="0.5" stroke="black" fill="grey"/>
  <circle cx="907.172" cy="549.4" r="5.6321" stroke-width="0.5" stroke="grey" fill="grey"/>
   </g>
   <g id="cell28">
  <circle cx="58.1199" cy="1969.5" r="10.4781" stroke-width="0.5" stroke="black" fill="red"/>
  <circle cx="58.1199" cy="1969.5" r="6.31508" stroke-width="0.5" stroke="red" fill="red"/>
   </g>
   <g id="cell29">
  <circle cx="1067.05" cy="1066.85" r="8.38596" stroke-width="0.5" stroke="black" fill="grey"/>
  <circle cx="1067.05" cy="1066.85" r="5.04226" stroke-width="0.5" stroke="grey" fill="grey"/>
   </g>
   <g id="cell30">
  <circle cx="965.106" cy="503.299" r="8.37697" stroke-width="0.5" stroke="black" fill="grey"/>
  <circle cx="965.106" cy="503.299" r="5.0387" stroke-width="0.5" stroke="grey" fill="grey"/>
   </g>
   <g id="cell31">
  <circle cx="1176.22" cy="1351.95" r="9.67302" stroke-width="0.5" stroke="black" fill="grey"/>
  <circle cx="1176.22" cy="1351.95" r="5.87809" stroke-width="0.5" stroke="grey" fill="grey"/>
   </g>
   <g id="cell109">
  <circle cx="778.309" cy="949.881" r="10.3908" stroke-width="0.5" stroke="black" fill="red"/>
  <circle cx="778.309" cy="949.881" r="6.27347" stroke-width="0.5" stroke="red" fill="red"/>
   </g>
   <g id="cell33">
  <circle cx="1667.03" cy="1170.98" r="10.3525" stroke-width="0.5" stroke="black" fill="grey"/>
  <circle cx="1667.03" cy="1170.98" r="6.25429" stroke-width="0.5" stroke="grey" fill="grey"/>
   </g>
   <g id="cell34">
  <circle cx="1109.14" cy="1635.16" r="8.38751" stroke-width="0.5" stroke="black" fill="grey"/>
  <circle cx="1109.14" cy="1635.16" r="5.04286" stroke-width="0.5" stroke="grey" fill="grey"/>
   </g>
   <g id="cell35">
  <circle cx="738.24" cy="940.268" r="9.04144" stroke-width="0.5" stroke="black" fill="red"/>
  <circle cx="738.24" cy="940.268" r="5.49149" stroke-width="0.5" stroke="red" fill="red"/>
   </g>
   <g id="cell36">
  <circle cx="1740.24" cy="256.914" r="10.1626" stroke-width="0.5" stroke="black" fill="red"/>
  <circle cx="1740.24" cy="256.914" r="6.15471" stroke-width="0.5" stroke="red" fill="red"/>
   </g>
   <g id="cell37">
  <circle cx="814.449" cy="910.403" r="10.3913" stroke-width="0.5" stroke="black" fill="red"/>
  <circle cx="814.449" cy="910.403" r="6.27362" stroke-width="0.5" stroke="red" fill="red"/>
   </g>
   <g id="cell38">
  <circle cx="1587.41" cy="1055.86" r="8.4728" stroke-width="0.5" stroke="black" fill="red"/>
  <circle cx="1587.41" cy="1055.86" r="5.11071" stroke-width="0.5" stroke="red" fill="red"/>
   </g>
   <g id="cell39">
  <circle cx="1133.7" cy="1180.25" r="10.338" stroke-width="0.5" stroke="black" fill="grey"/>
  <circle cx="1133.7" cy="1180.25" r="6.24695" stroke-width="0.5" stroke="grey" fill="grey"/>
   </g>
   <g id="cell40">
  <circle cx="1770.95" cy="1274.15" r="10.5314" stroke-width="0.5" stroke="black" fill="grey"/>
  <circle cx="1770.95" cy="1274.15" r="6.33865" stroke-width="0.5" stroke="grey" fill="grey"/>
   </g>
   <g id="cell41">
  <circle cx="1199.78" cy="1464.21" r="9.33921" stroke-width="0.5" stroke="black" fill="grey"/>
  <circle cx="1199.78" cy="1464.21" r="5.67758" stroke-width="0.5" stroke="grey" fill="grey"/>
   </g>
   <g id="cell42">
  <circle cx="1111.24" cy="1127.52" r="8.38103" stroke-width="0.5" stroke="black" fill="grey"/>
  <circle cx="1111.24" cy="1127.52" r="5.0403" stroke-width="0.5" stroke="grey" fill="grey"/>
   </g>
   <g id="cell43">
  <circle cx="1057.33" cy="1108.01" r="8.40449" stroke-width="0.5" stroke="black" fill="grey"/>
  <circle cx="1057.33" cy="1108.01" r="5.04914" stroke-width="0.5" stroke="grey" fill="grey"/>
   </g>
   <g id="cell44">
  <circle cx="1684.63" cy="1181.68" r="10.3608" stroke-width="0.5" stroke="black" fill="grey"/>
  <circle cx="1684.63" cy="1181.68" r="6.25817" stroke-width="0.5" stroke="grey" fill="grey"/>
   </g>
   <g id="cell45">
  <circle cx="1527.92" cy="1064.86" r="10.4097" stroke-width="0.5" stroke="black" fill="red"/>
  <circle cx="1527.92" cy="1064.86" r="6.28235" stroke-width="0.5" stroke="red" fill="red"/>
   </g>
   <g id="cell101">
  <circle cx="1676.11" cy="254.127" r="9.72543" stroke-width="0.5" stroke="black" fill="red"/>
  <circle cx="1676.11" cy="254.127" r="5.90852" stroke-width="0.5" stroke="red" fill="red"/>
   </g>
   <g id="cell47">
  <circle cx="1648.95" cy="158.876" r="10.4088" stroke-width="0.5" stroke="black" fill="red"/>
  <circle cx="1648.95" cy="158.876" r="6.28211" stroke-width="0.5" stroke="red" fill="red"/>
   </g>
   <g id="cell48">
  <circle cx="1181.54" cy="1791.24" r="10.4603" stroke-width="0.5" stroke="black" fill="grey"/>
  <circle cx="1181.54" cy="1791.24" r="6.30668" stroke-width="0.5" stroke="grey" fill="grey"/>
   </g>
   <g id="cell49">
  <circle cx="98.1708" cy="1958.06" r="10.4336" stroke-width="0.5" stroke="black" fill="red"/>
  <circle cx="98.1708" cy="1958.06" r="6.29419" stroke-width="0.5" stroke="red" fill="red"/>
   </g>
   <g id="cell50">
  <circle cx="1128.1" cy="1163.03" r="10.4381" stroke-width="0.5" stroke="black" fill="grey"/>
  <circle cx="1128.1" cy="1163.03" r="6.29634" stroke-width="0.5" stroke="grey" fill="grey"/>
   </g>
   <g id="cell51">
  <circle cx="1108.69" cy="1279.93" r="8.39291" stroke-width="0.5" stroke="black" fill="grey"/>
  <circle cx="1108.69" cy="1279.93" r="5.04497" stroke-width="0.5" stroke="grey" fill="grey"/>
   </g>
   <g id="cell52">
  <circle cx="888.629" cy="621.978" r="10.511" stroke-width="0.5" stroke="black" fill="grey"/>
  <circle cx="888.629" cy="621.978" r="6.32985" stroke-width="0.5" stroke="grey" fill="grey"/>
   </g>
   <g id="cell87">
  <circle cx="904.035" cy="646.209" r="8.4487" stroke-width="0.5" stroke="black" fill="grey"/>
  <circle cx="904.035" cy="646.209" r="5.09077" stroke-width="0.5" stroke="grey" fill="grey"/>
   </g>
   <g id="cell54">
  <circle cx="882.954" cy="546.994" r="10.4752" stroke-width="0.5" stroke="black" fill="grey"/>
  <circle cx="882.954" cy="546.994" r="6.31363" stroke-width="0.5" stroke="grey" fill="grey"/>
   </g>
   <g id="cell55">
  <circle cx="881.266" cy="575.616" r="8.66112" stroke-width="0.5" stroke="black" fill="grey"/>
  <circle cx="881.266" cy="575.616" r="5.24381" stroke-width="0.5" stroke="grey" fill="grey"/>
   </g>
   <g id="cell56">
  <circle cx="170.927" cy="1908.55" r="9.98093" stroke-width="0.5" stroke="black" fill="red"/>
  <circle cx="170.927" cy="1908.55" r="6.0548" stroke-width="0.5" stroke="red" fill="red"/>
   </g>
   <g id="cell57">
  <circle cx="1671.38" cy="276.503" r="10.3731" stroke-width="0.5" stroke="black" fill="red"/>
  <circle cx="1671.38" cy="276.503" r="6.26453" stroke-width="0.5" stroke="red" fill="red"/>
   </g>
   <g id="cell58">
  <circle cx="703.109" cy="845.716" r="5.1796" stroke-width="0.5" stroke="black" fill="red"/>
  <circle cx="703.109" cy="845.716" r="3.41695" stroke-width="0.5" stroke="black" fill="black"/>
   </g>
   <g id="cell59">
  <circle cx="1722.02" cy="328.861" r="10.2502" stroke-width="0.5" stroke="black" fill="red"/>
  <circle cx="1722.02" cy="328.861" r="6.20186" stroke-width="0.5" stroke="red" fill="red"/>
   </g>
   <g id="cell60">
  <circle cx="1740.14" cy="1188.08" r="10.2709" stroke-width="0.5" stroke="black" fill="grey"/>
  <circle cx="1740.14" cy="1188.08" r="6.21243" stroke-width="0.5" stroke="grey" fill="grey"/>
   </g>
   <g id="cell61">
  <circle cx="1089.15" cy="1790.7" r="9.79024" stroke-width="0.5" stroke="black" fill="grey"/>
  <circle cx="1089.15" cy="1790.7" r="5.94784" stroke-width="0.5" stroke="grey" fill="grey"/>
   </g>
   <g id="cell62">
  <circle cx="1181.97" cy="1658.61" r="8.40213" stroke-width="0.5" stroke="black" fill="grey"/>
  <circle cx="1181.97" cy="1658.61" r="5.04832" stroke-width="0.5" stroke="grey" fill="grey"/>
   </g>
   <g id="cell63">
  <circle cx="1645.4" cy="353.383" r="10.5201" stroke-width="0.5" stroke="black" fill="red"/>
  <circle cx="1645.4" cy="353.383" r="6.33392" stroke-width="0.5" stroke="red" fill="red"/>
   </g>
   <g id="cell64">
  <circle cx="1700.11" cy="1160.67" r="8.37318" stroke-width="0.5" stroke="black" fill="grey"/>
  <circle cx="1700.11" cy="1160.67" r="5.03708" stroke-width="0.5" stroke="grey" fill="grey"/>
   </g>
   <g id="cell115">
  <circle cx="839.106" cy="555.405" r="10.0461" stroke-width="0.5" stroke="black" fill="grey"/>
  <circle cx="839.106" cy="555.405" r="6.09168" stroke-width="0.5" stroke="grey" fill="grey"/>
   </g>
   <g id="cell66">
  <circle cx="795.652" cy="956.897" r="3.91625" stroke-width="0.5" stroke="black" fill="red"/>
  <circle cx="795.652" cy="956.897" r="2.856" stroke-width="0.5" stroke="black" fill="black"/>
   </g>
   <g id="cell67">
  <circle cx="1573.51" cy="1053.77" r="8.47893" stroke-width="0.5" stroke="black" fill="red"/>
  <circle cx="1573.51" cy="1053.77" r="5.10204" stroke-width="0.5" stroke="red" fill="red"/>
   </g>
   <g id="cell68">
  <circle cx="830.95" cy="1052.85" r="8.36314" stroke-width="0.5" stroke="black" fill="red"/>
  <circle cx="830.95" cy="1052.85" r="5.03287" stroke-width="0.5" stroke="red" fill="red"/>
   </g>
   <g id="cell69">
  <circle cx="819.477" cy="562.836" r="8.40753" stroke-width="0.5" stroke="black" fill="grey"/>
  <circle cx="819.477" cy="562.836" r="5.05016" stroke-width="0.5" stroke="grey" fill="grey"/>
   </g>
   <g id="cell70">
  <circle cx="1657.4" cy="1246.66" r="9.81727" stroke-width="0.5" stroke="black" fill="grey"/>
  <circle cx="1657.4" cy="1246.66" r="5.9625" stroke-width="0.5" stroke="grey" fill="grey"/>
   </g>
   <g id="cell71">
  <circle cx="1035.91" cy="1053.31" r="9.36643" stroke-width="0.5" stroke="black" fill="grey"/>
  <circle cx="1035.91" cy="1053.31" r="5.69596" stroke-width="0.5" stroke="grey" fill="grey"/>
   </g>
   <g id="cell72">
  <circle cx="1139.04" cy="746.706" r="8.39862" stroke-width="0.5" stroke="black" fill="red"/>
  <circle cx="1139.04" cy="746.706" r="5.04708" stroke-width="0.5" stroke="red" fill="red"/>
   </g>
   <g id="cell73">
  <circle cx="1212.03" cy="1196.11" r="9.79087" stroke-width="0.5" stroke="black" fill="grey"/>
  <circle cx="1212.03" cy="1196.11" r="5.94808" stroke-width="0.5" stroke="grey" fill="grey"/>
   </g>
   <g id="cell74">
  <circle cx="1098.94" cy="1069.38" r="8.3819" stroke-width="0.5" stroke="black" fill="grey"/>
  <circle cx="1098.94" cy="1069.38" r="5.04065" stroke-width="0.5" stroke="grey" fill="grey"/>
   </g>
   <g id="cell75">
  <circle cx="1715.35" cy="1173" r="8.95553" stroke-width="0.5" stroke="black" fill="grey"/>
  <circle cx="1715.35" cy="1173" r="5.43784" stroke-width="0.5" stroke="grey" fill="grey"/>
   </g>
   <g id="cell76">
  <circle cx="1636.03" cy="242.003" r="8.37822" stroke-width="0.5" stroke="black" fill="red"/>
  <circle cx="1636.03" cy="242.003" r="5.03917" stroke-width="0.5" stroke="red" fill="red"/>
   </g>
   <g id="cell77">
  <circle cx="40.4028" cy="1931.7" r="8.46288" stroke-width="0.5" stroke="black" fill="red"/>
  <circle cx="40.4028" cy="1931.7" r="5.09635" stroke-width="0.5" stroke="red" fill="red"/>
   </g>
   <g id="cell128">
  <circle cx="1707.6" cy="1199.28" r="8.99539" stroke-width="0.5" stroke="black" fill="grey"/>
  <circle cx="1707.6" cy="1199.28" r="5.46367" stroke-width="0.5" stroke="grey" fill="grey"/>
   </g>
   <g id="cell79">
  <circle cx="1199.72" cy="1288.33" r="9.98189" stroke-width="0.5" stroke="black" fill="grey"/>
  <circle cx="1199.72" cy="1288.33" r="6.05508" stroke-width="0.5" stroke="grey" fill="grey"/>
   </g>
   <g id="cell80">
  <circle cx="809.692" cy="504.951" r="10.2908" stroke-width="0.5" stroke="black" fill="grey"/>
  <circle cx="809.692" cy="504.951" r="6.22238" stroke-width="0.5" stroke="grey" fill="grey"/>
   </g>
   <g id="cell81">
  <circle cx="1219.51" cy="1261.8" r="10.4648" stroke-width="0.5" stroke="black" fill="grey"/>
  <circle cx="1219.51" cy="1261.8" r="6.30867" stroke-width="0.5" stroke="grey" fill="grey"/>
   </g>
   <g id="cell82">
  <circle cx="1618.36" cy="1125" r="10.5271" stroke-width="0.5" stroke="black" fill="red"/>
  <circle cx="1618.36" cy="1125" r="6.33687" stroke-width="0.5" stroke="red" fill="red"/>
   </g>
   <g id="cell83">
  <circle cx="923.248" cy="582.998" r="10.3743" stroke-width="0.5" stroke="black" fill="grey"/>
  <circle cx="923.248" cy="582.998" r="6.26488" stroke-width="0.5" stroke="grey" fill="grey"/>
   </g>
   <g id="cell84">
  <circle cx="1145.5" cy="1641.21" r="9.75143" stroke-width="0.5" stroke="black" fill="grey"/>
  <circle cx="1145.5" cy="1641.21" r="5.92329" stroke-width="0.5" stroke="grey" fill="grey"/>
   </g>
   <g id="cell85">
  <circle cx="1192.58" cy="1703.26" r="8.50999" stroke-width="0.5" stroke="black" fill="grey"/>
  <circle cx="1192.58" cy="1703.26" r="5.13678" stroke-width="0.5" stroke="grey" fill="grey"/>
   </g>
   <g id="cell88">
  <circle cx="1671.02" cy="1202.92" r="8.41172" stroke-width="0.5" stroke="black" fill="grey"/>
  <circle cx="1671.02" cy="1202.92" r="5.05142" stroke-width="0.5" stroke="grey" fill="grey"/>
   </g>
   <g id="cell89">
  <circle cx="1782.92" cy="284.767" r="9.53474" stroke-width="0.5" stroke="black" fill="red"/>
  <circle cx="1782.92" cy="284.767" r="5.79538" stroke-width="0.5" stroke="red" fill="red"/>
   </g>
   <g id="cell91">
  <circle cx="1182.77" cy="1222.67" r="10.0946" stroke-width="0.5" stroke="black" fill="grey"/>
  <circle cx="1182.77" cy="1222.67" r="6.11776" stroke-width="0.5" stroke="grey" fill="grey"/>
   </g>
   <g id="cell92">
  <circle cx="1687.7" cy="1369.28" r="9.99901" stroke-width="0.5" stroke="black" fill="grey"/>
  <circle cx="1687.7" cy="1369.28" r="6.0648" stroke-width="0.5" stroke="grey" fill="grey"/>
   </g>
   <g id="cell93">
  <circle cx="845.367" cy="588.063" r="9.84307" stroke-width="0.5" stroke="black" fill="grey"/>
  <circle cx="845.367" cy="588.063" r="5.9764" stroke-width="0.5" stroke="grey" fill="grey"/>
   </g>
   <g id="cell94">
  <circle cx="855.474" cy="533.76" r="10.3315" stroke-width="0.5" stroke="black" fill="grey"/>
  <circle cx="855.474" cy="533.76" r="6.24342" stroke-width="0.5" stroke="grey" fill="grey"/>
   </g>
   <g id="cell95">
  <circle cx="1162.93" cy="1787.48" r="10.4716" stroke-width="0.5" stroke="black" fill="grey"/>
  <circle cx="1162.93" cy="1787.48" r="6.31197" stroke-width="0.5" stroke="grey" fill="grey"/>
   </g>
   <g id="cell96">
  <circle cx="1654.09" cy="284.785" r="10.5029" stroke-width="0.5" stroke="black" fill="red"/>
  <circle cx="1654.09" cy="284.785" r="6.3263" stroke-width="0.5" stroke="red" fill="red"/>
   </g>
   <g id="cell97">
  <circle cx="1172.95" cy="1333.64" r="10.3389" stroke-width="0.5" stroke="black" fill="grey"/>
  <circle cx="1172.95" cy="1333.64" r="6.24724" stroke-width="0.5" stroke="grey" fill="grey"/>
   </g>
   <g id="cell98">
  <circle cx="154.575" cy="1920.66" r="10.3072" stroke-width="0.5" stroke="black" fill="red"/>
  <circle cx="154.575" cy="1920.66" r="6.23104" stroke-width="0.5" stroke="red" fill="red"/>
   </g>
   <g id="cell99">
  <circle cx="1682.7" cy="137.682" r="9.40835" stroke-width="0.5" stroke="black" fill="red"/>
  <circle cx="1682.7" cy="137.682" r="5.7193" stroke-width="0.5" stroke="red" fill="red"/>
   </g>
   <g id="cell100">
  <circle cx="50.629" cy="1947.77" r="10.4598" stroke-width="0.5" stroke="black" fill="red"/>
  <circle cx="50.629" cy="1947.77" r="6.30654" stroke-width="0.5" stroke="red" fill="red"/>
   </g>
   <g id="cell102">
  <circle cx="1731.61" cy="1152.48" r="8.40993" stroke-width="0.5" stroke="black" fill="grey"/>
  <circle cx="1731.61" cy="1152.48" r="5.05091" stroke-width="0.5" stroke="grey" fill="grey"/>
   </g>
   <g id="cell103">
  <circle cx="89.4064" cy="1983.42" r="10.4513" stroke-width="0.5" stroke="black" fill="red"/>
  <circle cx="89.4064" cy="1983.42" r="6.30263" stroke-width="0.5" stroke="red" fill="red"/>
   </g>
   <g id="cell104">
  <circle cx="780.609" cy="907.912" r="9.86326" stroke-width="0.5" stroke="black" fill="red"/>
  <circle cx="780.609" cy="907.912" r="5.98832" stroke-width="0.5" stroke="red" fill="red"/>
   </g>
   <g id="cell105">
  <circle cx="1645.97" cy="1152.43" r="10.4028" stroke-width="0.5" stroke="black" fill="grey"/>
  <circle cx="1645.97" cy="1152.43" r="6.27925" stroke-width="0.5" stroke="grey" fill="grey"/>
   </g>
   <g id="cell106">
  <circle cx="1155.94" cy="1193.68" r="8.40961" stroke-width="0.5" stroke="black" fill="grey"/>
  <circle cx="1155.94" cy="1193.68" r="5.05081" stroke-width="0.5" stroke="grey" fill="grey"/>
   </g>
   <g id="cell107">
  <circle cx="1152.55" cy="1162.18" r="9.59152" stroke-width="0.5" stroke="black" fill="grey"/>
  <circle cx="1152.55" cy="1162.18" r="5.82971" stroke-width="0.5" stroke="grey" fill="grey"/>
   </g>
   <g id="cell108">
  <circle cx="1131.53" cy="1696.08" r="10.1074" stroke-width="0.5" stroke="black" fill="grey"/>
  <circle cx="1131.53" cy="1696.08" r="6.12512" stroke-width="0.5" stroke="grey" fill="grey"/>
   </g>
   <g id="cell110">
  <circle cx="1584.07" cy="1035.76" r="9.6463" stroke-width="0.5" stroke="black" fill="red"/>
  <circle cx="1584.07" cy="1035.76" r="5.86236" stroke-width="0.5" stroke="red" fill="red"/>
   </g>
   <g id="cell111">
  <circle cx="1207.78" cy="1359.92" r="10.1969" stroke-width="0.5" stroke="black" fill="grey"/>
  <circle cx="1207.78" cy="1359.92" r="6.17354" stroke-width="0.5" stroke="grey" fill="grey"/>
   </g>
   <g id="cell112">
  <circle cx="1234.66" cy="1292.89" r="10.3136" stroke-width="0.5" stroke="black" fill="grey"/>
  <circle cx="1234.66" cy="1292.89" r="6.23471" stroke-width="0.5" stroke="grey" fill="grey"/>
   </g>
   <g id="cell113">
  <circle cx="1241.43" cy="1431.79" r="10.3444" stroke-width="0.5" stroke="black" fill="grey"/>
  <circle cx="1241.43" cy="1431.79" r="6.25036" stroke-width="0.5" stroke="grey" fill="grey"/>
   </g>
   <g id="cell114">
  <circle cx="1710.62" cy="372.658" r="10.2078" stroke-width="0.5" stroke="black" fill="red"/>
  <circle cx="1710.62" cy="372.658" r="6.17945" stroke-width="0.5" stroke="red" fill="red"/>
   </g>
   <g id="cell116">
  <circle cx="1686.77" cy="1214.58" r="10.0911" stroke-width="0.5" stroke="black" fill="grey"/>
  <circle cx="1686.77" cy="1214.58" r="6.11663" stroke-width="0.5" stroke="grey" fill="grey"/>
   </g>
   <g id="cell117">
  <circle cx="1706.77" cy="1240.12" r="8.40613" stroke-width="0.5" stroke="black" fill="grey"/>
  <circle cx="1706.77" cy="1240.12" r="5.0497" stroke-width="0.5" stroke="grey" fill="grey"/>
   </g>
   <g id="cell118">
  <circle cx="718.905" cy="941.17" r="8.72182" stroke-width="0.5" stroke="black" fill="red"/>
  <circle cx="718.905" cy="941.17" r="5.27928" stroke-width="0.5" stroke="red" fill="red"/>
   </g>
   <g id="cell119">
  <circle cx="1060.26" cy="1125.38" r="8.40449" stroke-width="0.5" stroke="black" fill="grey"/>
  <circle cx="1060.26" cy="1125.38" r="5.04914" stroke-width="0.5" stroke="grey" fill="grey"/>
   </g>
   <g id="cell120">
  <circle cx="772.124" cy="1058.86" r="8.72039" stroke-width="0.5" stroke="black" fill="red"/>
  <circle cx="772.124" cy="1058.86" r="5.27878" stroke-width="0.5" stroke="red" fill="red"/>
   </g>
   <g id="cell121">
  <circle cx="1158.63" cy="1624.72" r="8.40213" stroke-width="0.5" stroke="black" fill="grey"/>
  <circle cx="1158.63" cy="1624.72" r="5.04832" stroke-width="0.5" stroke="grey" fill="grey"/>
   </g>
   <g id="cell122">
  <circle cx="1188.03" cy="1177.34" r="8.4014" stroke-width="0.5" stroke="black" fill="grey"/>
  <circle cx="1188.03" cy="1177.34" r="5.04808" stroke-width="0.5" stroke="grey" fill="grey"/>
   </g>
   <g id="cell123">
  <circle cx="871.606" cy="643.851" r="8.40089" stroke-width="0.5" stroke="black" fill="grey"/>
  <circle cx="871.606" cy="643.851" r="5.04788" stroke-width="0.5" stroke="grey" fill="grey"/>
   </g>
   <g id="cell124">
  <circle cx="1119" cy="1805.64" r="9.6127" stroke-width="0.5" stroke="black" fill="grey"/>
  <circle cx="1119" cy="1805.64" r="5.84394" stroke-width="0.5" stroke="grey" fill="grey"/>
   </g>
   <g id="cell125">
  <circle cx="915.604" cy="522.629" r="9.91754" stroke-width="0.5" stroke="black" fill="grey"/>
  <circle cx="915.604" cy="522.629" r="6.0207" stroke-width="0.5" stroke="grey" fill="grey"/>
   </g>
   <g id="cell126">
  <circle cx="1054.39" cy="1082.98" r="8.39975" stroke-width="0.5" stroke="black" fill="grey"/>
  <circle cx="1054.39" cy="1082.98" r="5.04749" stroke-width="0.5" stroke="grey" fill="grey"/>
   </g>
   <g id="cell127">
  <circle cx="1098.52" cy="728.991" r="8.39862" stroke-width="0.5" stroke="black" fill="red"/>
  <circle cx="1098.52" cy="728.991" r="5.04708" stroke-width="0.5" stroke="red" fill="red"/>
   </g>
   <g id="cell129">
  <circle cx="1153.13" cy="1279.54" r="5.18725" stroke-width="0.5" stroke="black" fill="grey"/>
  <circle cx="1153.13" cy="1279.54" r="3.42018" stroke-width="0.5" stroke="black" fill="black"/>
   </g>
   <g id="cell130">
  <circle cx="28.0634" cy="1920.65" r="9.25616" stroke-width="0.5" stroke="black" fill="red"/>
  <circle cx="28.0634" cy="1920.65" r="5.62952" stroke-width="0.5" stroke="red" fill="red"/>
   </g>
   <g id="cell131">
  <circle cx="1127.08" cy="1666.08" r="8.38751" stroke-width="0.5" stroke="black" fill="grey"/>
  <circle cx="1127.08" cy="1666.08" r="5.04286" stroke-width="0.5" stroke="grey" fill="grey"/>
   </g>
   <g id="cell132">
  <circle cx="1078.87" cy="1044.14" r="9.14028" stroke-width="0.5" stroke="black" fill="grey"/>
  <circle cx="1078.87" cy="1044.14" r="5.55841" stroke-width="0.5" stroke="grey" fill="grey"/>
   </g>
   <g id="cell133">
  <circle cx="1623.74" cy="281.019" r="8.38452" stroke-width="0.5" stroke="black" fill="red"/>
  <circle cx="1623.74" cy="281.019" r="5.04167" stroke-width="0.5" stroke="red" fill="red"/>
   </g>
   <g id="cell134">
  <circle cx="862.889" cy="552.905" r="8.38257" stroke-width="0.5" stroke="black" fill="grey"/>
  <circle cx="862.889" cy="552.905" r="5.04095" stroke-width="0.5" stroke="grey" fill="grey"/>
   </g>
   <g id="cell135">
  <circle cx="1116.31" cy="1062.16" r="8.3819" stroke-width="0.5" stroke="black" fill="grey"/>
  <circle cx="1116.31" cy="1062.16" r="5.04065" stroke-width="0.5" stroke="grey" fill="grey"/>
   </g>
   <g id="cell136">
  <circle cx="1117.42" cy="1152.33" r="8.38103" stroke-width="0.5" stroke="black" fill="grey"/>
  <circle cx="1117.42" cy="1152.33" r="5.0403" stroke-width="0.5" stroke="grey" fill="grey"/>
   </g>
   <g id="cell137">
  <circle cx="678.282" cy="853.189" r="8.38027" stroke-width="0.5" stroke="black" fill="red"/>
  <circle cx="678.282" cy="853.189" r="5.03997" stroke-width="0.5" stroke="red" fill="red"/>
   </g>
   <g id="cell138">
  <circle cx="1618.09" cy="245.47" r="8.37822" stroke-width="0.5" stroke="black" fill="red"/>
  <circle cx="1618.09" cy="245.47" r="5.03917" stroke-width="0.5" stroke="red" fill="red"/>
   </g>
   <g id="cell139">
  <circle cx="923.755" cy="626.024" r="8.37795" stroke-width="0.5" stroke="black" fill="grey"/>
  <circle cx="923.755" cy="626.024" r="5.0391" stroke-width="0.5" stroke="grey" fill="grey"/>
   </g>
   <g id="cell140">
  <circle cx="956.71" cy="526.004" r="8.37697" stroke-width="0.5" stroke="black" fill="grey"/>
  <circle cx="956.71" cy="526.004" r="5.0387" stroke-width="0.5" stroke="grey" fill="grey"/>
   </g>
   <g id="cell141">
  <circle cx="1109.41" cy="1214.76" r="8.37718" stroke-width="0.5" stroke="black" fill="grey"/>
  <circle cx="1109.41" cy="1214.76" r="5.03876" stroke-width="0.5" stroke="grey" fill="grey"/>
   </g>
   <g id="cell142">
  <circle cx="1193.38" cy="1725.08" r="8.37706" stroke-width="0.5" stroke="black" fill="grey"/>
  <circle cx="1193.38" cy="1725.08" r="5.03873" stroke-width="0.5" stroke="grey" fill="grey"/>
   </g>
   <g id="cell143">
  <circle cx="1709.36" cy="1143.25" r="8.37318" stroke-width="0.5" stroke="black" fill="grey"/>
  <circle cx="1709.36" cy="1143.25" r="5.03708" stroke-width="0.5" stroke="grey" fill="grey"/>
   </g>
   <g id="cell144">
  <circle cx="1598.35" cy="1048.28" r="8.37203" stroke-width="0.5" stroke="black" fill="red"/>
  <circle cx="1598.35" cy="1048.28" r="5.0366" stroke-width="0.5" stroke="red" fill="red"/>
   </g>
   <g id="cell145">
  <circle cx="1277.81" cy="1305.93" r="8.37178" stroke-width="0.5" stroke="black" fill="grey"/>
  <circle cx="1277.81" cy="1305.93" r="5.03654" stroke-width="0.5" stroke="grey" fill="grey"/>
   </g>
   <g id="cell146">
  <circle cx="1114.13" cy="1689.82" r="8.36939" stroke-width="0.5" stroke="black" fill="grey"/>
  <circle cx="1114.13" cy="1689.82" r="5.03555" stroke-width="0.5" stroke="grey" fill="grey"/>
   </g>
   <g id="cell147">
  <circle cx="823.762" cy="1066.83" r="8.36314" stroke-width="0.5" stroke="black" fill="red"/>
  <circle cx="823.762" cy="1066.83" r="5.03287" stroke-width="0.5" stroke="red" fill="red"/>
   </g>
   <g id="cell148">
  <circle cx="1181.73" cy="747.475" r="8.36307" stroke-width="0.5" stroke="black" fill="red"/>
  <circle cx="1181.73" cy="747.475" r="5.03285" stroke-width="0.5" stroke="red" fill="red"/>
   </g>
   <g id="cell149">
  <circle cx="1714.6" cy="1355.68" r="8.36119" stroke-width="0.5" stroke="black" fill="grey"/>
  <circle cx="1714.6" cy="1355.68" r="5.03212" stroke-width="0.5" stroke="grey" fill="grey"/>
   </g>
  </g>
 </g>
  <rect x="1750" y="2070" width="200" height="20" stroke-width="4" stroke="rgb(255,255,255)" fill="rgb(0,0,0)"/>
  <text x="1762.5" y="2057.5"
   font-family="Arial" font-size="50" fill="black" >
   200 &#956;m
  </text>
  <text x="50" y="2090"
   font-family="Arial" font-size="37.5" fill="black" >
   0 days, 0 hours, 1 minutes, and 48.1535 seconds
  </text>
  <rect x="0" y="140" width="2000" height="2000" stroke-width="4" stroke="rgb(0,0,0)" fill="none"/>
</svg>
