<?xml version="1.0" encoding="UTF-8" standalone="no"?>
<!-- Created with PhysiCell (http://PhysiCell.MathCancer.org/) -->
<svg 
 xmlns:dc="http://purl.org/dc/elements/1.1/" 
 xmlns:cc="http://creativecommons.org/ns#" 
 xmlns:rdf="http://www.w3.org/1999/02/22-rdf-syntax-ns#" 
 xmlns:svg="http://www.w3.org/2000/svg" 
 xmlns="http://www.w3.org/2000/svg" 
 version="1.1" 
 width="2000" 
 height="2140" 
 id="svg2">
  <rect x="0" y="0" width="2000" height="2140" stroke-width="4" stroke="white" fill="white"/>
  <text x="25" y="60"
   font-family="Arial" font-size="50" fill="black" >
   Current time: 2 days, 17 hours, and 0.00 minutes, z = 0.00 &#956;m
  </text>
  <text x="25" y="115"
   font-family="Arial" font-size="47.5" fill="black" >
   73 agents
  </text>
 <g id="tissue" 
    transform="translate(0,2140) scale(1,-1)">
  <g id="ECM">
  </g>
  <g id="cells">
   <g id="cell0">
  <circle cx="1117.2" cy="1228.02" r="10.5312" stroke-width="0.5" stroke="black" fill="grey"/>
  <circle cx="1117.2" cy="1228.02" r="6.3386" stroke-width="0.5" stroke="grey" fill="grey"/>
   </g>
   <g id="cell1">
  <circle cx="1650.09" cy="1226.74" r="9.56283" stroke-width="0.5" stroke="black" fill="grey"/>
  <circle cx="1650.09" cy="1226.74" r="5.81259" stroke-width="0.5" stroke="grey" fill="grey"/>
   </g>
   <g id="cell2">
  <circle cx="1149.05" cy="1734.4" r="10.4948" stroke-width="0.5" stroke="black" fill="grey"/>
  <circle cx="1149.05" cy="1734.4" r="6.32258" stroke-width="0.5" stroke="grey" fill="grey"/>
   </g>
   <g id="cell3">
  <circle cx="1245.85" cy="1323.3" r="10.5139" stroke-width="0.5" stroke="black" fill="grey"/>
  <circle cx="1245.85" cy="1323.3" r="6.33107" stroke-width="0.5" stroke="grey" fill="grey"/>
   </g>
   <g id="cell4">
  <circle cx="826.475" cy="539.912" r="10.5287" stroke-width="0.5" stroke="black" fill="grey"/>
  <circle cx="826.475" cy="539.912" r="6.33761" stroke-width="0.5" stroke="grey" fill="grey"/>
   </g>
   <g id="cell5">
  <circle cx="84.4819" cy="1951.7" r="10.5326" stroke-width="0.5" stroke="black" fill="red"/>
  <circle cx="84.4819" cy="1951.7" r="6.3393" stroke-width="0.5" stroke="red" fill="red"/>
   </g>
   <g id="cell6">
  <circle cx="849.729" cy="863.528" r="10.4445" stroke-width="0.5" stroke="black" fill="red"/>
  <circle cx="849.729" cy="863.528" r="6.29904" stroke-width="0.5" stroke="red" fill="red"/>
   </g>
   <g id="cell19">
  <circle cx="1707.54" cy="1324.52" r="10.4255" stroke-width="0.5" stroke="black" fill="grey"/>
  <circle cx="1707.54" cy="1324.52" r="6.28999" stroke-width="0.5" stroke="grey" fill="grey"/>
   </g>
   <g id="cell18">
  <circle cx="1647.72" cy="291.86" r="8.40798" stroke-width="0.5" stroke="black" fill="red"/>
  <circle cx="1647.72" cy="291.86" r="5.0503" stroke-width="0.5" stroke="red" fill="red"/>
   </g>
   <g id="cell9">
  <circle cx="1678.23" cy="165.348" r="8.37156" stroke-width="0.5" stroke="black" fill="red"/>
  <circle cx="1678.23" cy="165.348" r="5.03648" stroke-width="0.5" stroke="red" fill="red"/>
   </g>
   <g id="cell11">
  <circle cx="1597.77" cy="1085.07" r="10.5141" stroke-width="0.5" stroke="black" fill="red"/>
  <circle cx="1597.77" cy="1085.07" r="6.33112" stroke-width="0.5" stroke="red" fill="red"/>
   </g>
   <g id="cell20">
  <circle cx="785.996" cy="1032.75" r="9.26287" stroke-width="0.5" stroke="black" fill="red"/>
  <circle cx="785.996" cy="1032.75" r="5.6321" stroke-width="0.5" stroke="red" fill="red"/>
   </g>
   <g id="cell13">
  <circle cx="869.844" cy="622.912" r="8.80618" stroke-width="0.5" stroke="black" fill="grey"/>
  <circle cx="869.844" cy="622.912" r="5.33531" stroke-width="0.5" stroke="grey" fill="grey"/>
   </g>
   <g id="cell14">
  <circle cx="1187.15" cy="1329.55" r="10.3537" stroke-width="0.5" stroke="black" fill="grey"/>
  <circle cx="1187.15" cy="1329.55" r="6.25463" stroke-width="0.5" stroke="grey" fill="grey"/>
   </g>
   <g id="cell15">
  <circle cx="1143.94" cy="1210.28" r="10.425" stroke-width="0.5" stroke="black" fill="grey"/>
  <circle cx="1143.94" cy="1210.28" r="6.28984" stroke-width="0.5" stroke="grey" fill="grey"/>
   </g>
   <g id="cell16">
  <circle cx="1116.24" cy="1674.83" r="10.5034" stroke-width="0.5" stroke="black" fill="grey"/>
  <circle cx="1116.24" cy="1674.83" r="6.32643" stroke-width="0.5" stroke="grey" fill="grey"/>
   </g>
   <g id="cell17">
  <circle cx="1055.23" cy="669.423" r="2.1627" stroke-width="0.5" stroke="black" fill="red"/>
  <circle cx="1055.23" cy="669.423" r="2.10596" stroke-width="0.5" stroke="black" fill="black"/>
   </g>
   <g id="cell21">
  <circle cx="1568.98" cy="1030.39" r="1.86512" stroke-width="0.5" stroke="black" fill="red"/>
  <circle cx="1568.98" cy="1030.39" r="1.83353" stroke-width="0.5" stroke="black" fill="black"/>
   </g>
   <g id="cell22">
  <circle cx="1143.19" cy="1688.29" r="10.0468" stroke-width="0.5" stroke="black" fill="grey"/>
  <circle cx="1143.19" cy="1688.29" r="6.09192" stroke-width="0.5" stroke="grey" fill="grey"/>
   </g>
   <g id="cell23">
  <circle cx="1267.61" cy="1297.58" r="9.8805" stroke-width="0.5" stroke="black" fill="grey"/>
  <circle cx="1267.61" cy="1297.58" r="5.99902" stroke-width="0.5" stroke="grey" fill="grey"/>
   </g>
   <g id="cell24">
  <circle cx="1164.98" cy="1244.64" r="8.38009" stroke-width="0.5" stroke="black" fill="grey"/>
  <circle cx="1164.98" cy="1244.64" r="5.03993" stroke-width="0.5" stroke="grey" fill="grey"/>
   </g>
   <g id="cell25">
  <circle cx="1150.17" cy="710.727" r="8.38453" stroke-width="0.5" stroke="black" fill="red"/>
  <circle cx="1150.17" cy="710.727" r="5.04168" stroke-width="0.5" stroke="red" fill="red"/>
   </g>
   <g id="cell26">
  <circle cx="1701.48" cy="1217.3" r="8.37608" stroke-width="0.5" stroke="black" fill="grey"/>
  <circle cx="1701.48" cy="1217.3" r="5.03832" stroke-width="0.5" stroke="grey" fill="grey"/>
   </g>
   <g id="cell27">
  <circle cx="875.747" cy="567.047" r="8.75457" stroke-width="0.5" stroke="black" fill="grey"/>
  <circle cx="875.747" cy="567.047" r="5.30402" stroke-width="0.5" stroke="grey" fill="grey"/>
   </g>
   <g id="cell28">
  <circle cx="56.833" cy="1989.57" r="10.2519" stroke-width="0.5" stroke="black" fill="red"/>
  <circle cx="56.833" cy="1989.57" r="6.20238" stroke-width="0.5" stroke="red" fill="red"/>
   </g>
   <g id="cell29">
  <circle cx="1049.98" cy="1099.22" r="8.38578" stroke-width="0.5" stroke="black" fill="grey"/>
  <circle cx="1049.98" cy="1099.22" r="5.04222" stroke-width="0.5" stroke="grey" fill="grey"/>
   </g>
   <g id="cell30">
  <circle cx="909.591" cy="594.278" r="10.4677" stroke-width="0.5" stroke="black" fill="grey"/>
  <circle cx="909.591" cy="594.278" r="6.31019" stroke-width="0.5" stroke="grey" fill="grey"/>
   </g>
   <g id="cell31">
  <circle cx="1221" cy="1322.03" r="9.98116" stroke-width="0.5" stroke="black" fill="grey"/>
  <circle cx="1221" cy="1322.03" r="6.05487" stroke-width="0.5" stroke="grey" fill="grey"/>
   </g>
   <g id="cell32">
  <circle cx="1661.55" cy="204.985" r="6.01615" stroke-width="0.5" stroke="black" fill="red"/>
  <circle cx="1661.55" cy="204.985" r="4.06655" stroke-width="0.5" stroke="black" fill="black"/>
   </g>
   <g id="cell33">
  <circle cx="1663.59" cy="1148.25" r="10.133" stroke-width="0.5" stroke="black" fill="grey"/>
  <circle cx="1663.59" cy="1148.25" r="6.13948" stroke-width="0.5" stroke="grey" fill="grey"/>
   </g>
   <g id="cell34">
  <circle cx="1127.84" cy="1661.12" r="8.40813" stroke-width="0.5" stroke="black" fill="grey"/>
  <circle cx="1127.84" cy="1661.12" r="5.05035" stroke-width="0.5" stroke="grey" fill="grey"/>
   </g>
   <g id="cell35">
  <circle cx="756.049" cy="883.094" r="9.503" stroke-width="0.5" stroke="black" fill="red"/>
  <circle cx="756.049" cy="883.094" r="5.77674" stroke-width="0.5" stroke="red" fill="red"/>
   </g>
   <g id="cell36">
  <circle cx="1756.95" cy="289.225" r="10.4426" stroke-width="0.5" stroke="black" fill="red"/>
  <circle cx="1756.95" cy="289.225" r="6.29851" stroke-width="0.5" stroke="red" fill="red"/>
   </g>
   <g id="cell37">
  <circle cx="815.765" cy="917.947" r="10.1447" stroke-width="0.5" stroke="black" fill="red"/>
  <circle cx="815.765" cy="917.947" r="6.14613" stroke-width="0.5" stroke="red" fill="red"/>
   </g>
   <g id="cell38">
  <circle cx="1606.25" cy="1059.14" r="8.40179" stroke-width="0.5" stroke="black" fill="red"/>
  <circle cx="1606.25" cy="1059.14" r="5.04821" stroke-width="0.5" stroke="red" fill="red"/>
   </g>
   <g id="cell39">
  <circle cx="1142.71" cy="1190.23" r="10.1236" stroke-width="0.5" stroke="black" fill="grey"/>
  <circle cx="1142.71" cy="1190.23" r="6.1334" stroke-width="0.5" stroke="grey" fill="grey"/>
   </g>
   <g id="cell40">
  <circle cx="1734.93" cy="1285.9" r="8.3955" stroke-width="0.5" stroke="black" fill="grey"/>
  <circle cx="1734.93" cy="1285.9" r="5.04594" stroke-width="0.5" stroke="grey" fill="grey"/>
   </g>
   <g id="cell41">
  <circle cx="1236.82" cy="1395.32" r="9.88598" stroke-width="0.5" stroke="black" fill="grey"/>
  <circle cx="1236.82" cy="1395.32" r="6.0008" stroke-width="0.5" stroke="grey" fill="grey"/>
   </g>
   <g id="cell42">
  <circle cx="1116.23" cy="1121.67" r="8.37818" stroke-width="0.5" stroke="black" fill="grey"/>
  <circle cx="1116.23" cy="1121.67" r="5.03916" stroke-width="0.5" stroke="grey" fill="grey"/>
   </g>
   <g id="cell43">
  <circle cx="1072.07" cy="1109.39" r="9.30777" stroke-width="0.5" stroke="black" fill="grey"/>
  <circle cx="1072.07" cy="1109.39" r="5.65729" stroke-width="0.5" stroke="grey" fill="grey"/>
   </g>
   <g id="cell44">
  <circle cx="1663.49" cy="1166.76" r="10.4527" stroke-width="0.5" stroke="black" fill="grey"/>
  <circle cx="1663.49" cy="1166.76" r="6.30302" stroke-width="0.5" stroke="grey" fill="grey"/>
   </g>
   <g id="cell45">
  <circle cx="1549.83" cy="1036.3" r="10.4683" stroke-width="0.5" stroke="black" fill="red"/>
  <circle cx="1549.83" cy="1036.3" r="6.31038" stroke-width="0.5" stroke="red" fill="red"/>
   </g>
   <g id="cell46">
  <circle cx="1209.1" cy="1690.67" r="3.61145" stroke-width="0.5" stroke="black" fill="grey"/>
  <circle cx="1209.1" cy="1690.67" r="3.01945" stroke-width="0.5" stroke="black" fill="black"/>
   </g>
   <g id="cell47">
  <circle cx="1620.59" cy="163.397" r="10.2721" stroke-width="0.5" stroke="black" fill="red"/>
  <circle cx="1620.59" cy="163.397" r="6.21278" stroke-width="0.5" stroke="red" fill="red"/>
   </g>
   <g id="cell48">
  <circle cx="1159.94" cy="1776.99" r="10.3675" stroke-width="0.5" stroke="black" fill="grey"/>
  <circle cx="1159.94" cy="1776.99" r="6.26154" stroke-width="0.5" stroke="grey" fill="grey"/>
   </g>
   <g id="cell49">
  <circle cx="67.3022" cy="1961.71" r="10.175" stroke-width="0.5" stroke="black" fill="red"/>
  <circle cx="67.3022" cy="1961.71" r="6.16138" stroke-width="0.5" stroke="red" fill="red"/>
   </g>
   <g id="cell50">
  <circle cx="1156.79" cy="1153.44" r="10.1229" stroke-width="0.5" stroke="black" fill="grey"/>
  <circle cx="1156.79" cy="1153.44" r="6.13323" stroke-width="0.5" stroke="grey" fill="grey"/>
   </g>
   <g id="cell51">
  <circle cx="1162.16" cy="1272.26" r="10.5287" stroke-width="0.5" stroke="black" fill="grey"/>
  <circle cx="1162.16" cy="1272.26" r="6.33761" stroke-width="0.5" stroke="grey" fill="grey"/>
   </g>
   <g id="cell52">
  <circle cx="866.007" cy="589.128" r="10.4199" stroke-width="0.5" stroke="black" fill="grey"/>
  <circle cx="866.007" cy="589.128" r="6.28739" stroke-width="0.5" stroke="grey" fill="grey"/>
   </g>
   <g id="cell53">
  <circle cx="1187.44" cy="1270.08" r="1.91501" stroke-width="0.5" stroke="black" fill="grey"/>
  <circle cx="1187.44" cy="1270.08" r="1.88244" stroke-width="0.5" stroke="black" fill="black"/>
   </g>
   <g id="cell54">
  <circle cx="876.072" cy="530.409" r="10.3736" stroke-width="0.5" stroke="black" fill="grey"/>
  <circle cx="876.072" cy="530.409" r="6.26469" stroke-width="0.5" stroke="grey" fill="grey"/>
   </g>
   <g id="cell55">
  <circle cx="892.611" cy="583.879" r="10.5027" stroke-width="0.5" stroke="black" fill="grey"/>
  <circle cx="892.611" cy="583.879" r="6.32624" stroke-width="0.5" stroke="grey" fill="grey"/>
   </g>
   <g id="cell56">
  <circle cx="146.809" cy="1920.44" r="10.3232" stroke-width="0.5" stroke="black" fill="red"/>
  <circle cx="146.809" cy="1920.44" r="6.23929" stroke-width="0.5" stroke="red" fill="red"/>
   </g>
   <g id="cell57">
  <circle cx="1665.15" cy="272.419" r="10.2201" stroke-width="0.5" stroke="black" fill="red"/>
  <circle cx="1665.15" cy="272.419" r="6.18573" stroke-width="0.5" stroke="red" fill="red"/>
   </g>
   <g id="cell58">
  <circle cx="712.465" cy="850.063" r="8.40977" stroke-width="0.5" stroke="black" fill="red"/>
  <circle cx="712.465" cy="850.063" r="5.05086" stroke-width="0.5" stroke="red" fill="red"/>
   </g>
   <g id="cell59">
  <circle cx="1696.25" cy="314.879" r="9.86327" stroke-width="0.5" stroke="black" fill="red"/>
  <circle cx="1696.25" cy="314.879" r="5.98832" stroke-width="0.5" stroke="red" fill="red"/>
   </g>
   <g id="cell60">
  <circle cx="1685.92" cy="1187.48" r="10.1738" stroke-width="0.5" stroke="black" fill="grey"/>
  <circle cx="1685.92" cy="1187.48" r="6.16102" stroke-width="0.5" stroke="grey" fill="grey"/>
   </g>
   <g id="cell61">
  <circle cx="1119.53" cy="1763.11" r="8.76403" stroke-width="0.5" stroke="black" fill="grey"/>
  <circle cx="1119.53" cy="1763.11" r="5.30742" stroke-width="0.5" stroke="grey" fill="grey"/>
   </g>
   <g id="cell62">
  <circle cx="1142.48" cy="1647.44" r="8.96428" stroke-width="0.5" stroke="black" fill="grey"/>
  <circle cx="1142.48" cy="1647.44" r="5.44102" stroke-width="0.5" stroke="grey" fill="grey"/>
   </g>
   <g id="cell63">
  <circle cx="1655.94" cy="314.862" r="10.3583" stroke-width="0.5" stroke="black" fill="red"/>
  <circle cx="1655.94" cy="314.862" r="6.25742" stroke-width="0.5" stroke="red" fill="red"/>
   </g>
   <g id="cell64">
  <circle cx="1683.42" cy="1158.74" r="8.40631" stroke-width="0.5" stroke="black" fill="grey"/>
  <circle cx="1683.42" cy="1158.74" r="5.04976" stroke-width="0.5" stroke="grey" fill="grey"/>
   </g>
   <g id="cell65">
  <circle cx="1318.29" cy="1271.06" r="8.88096" stroke-width="0.5" stroke="black" fill="grey"/>
  <circle cx="1318.29" cy="1271.06" r="5.38724" stroke-width="0.5" stroke="grey" fill="grey"/>
   </g>
   <g id="cell66">
  <circle cx="793.352" cy="913.792" r="10.0276" stroke-width="0.5" stroke="black" fill="red"/>
  <circle cx="793.352" cy="913.792" r="6.08191" stroke-width="0.5" stroke="red" fill="red"/>
   </g>
   <g id="cell67">
  <circle cx="1592.1" cy="1045.51" r="9.97448" stroke-width="0.5" stroke="black" fill="red"/>
  <circle cx="1592.1" cy="1045.51" r="6.05261" stroke-width="0.5" stroke="red" fill="red"/>
   </g>
   <g id="cell68">
  <circle cx="808.121" cy="1038.96" r="8.40052" stroke-width="0.5" stroke="black" fill="red"/>
  <circle cx="808.121" cy="1038.96" r="5.04776" stroke-width="0.5" stroke="red" fill="red"/>
   </g>
   <g id="cell69">
  <circle cx="862.618" cy="569.857" r="9.78862" stroke-width="0.5" stroke="black" fill="grey"/>
  <circle cx="862.618" cy="569.857" r="5.94723" stroke-width="0.5" stroke="grey" fill="grey"/>
   </g>
   <g id="cell70">
  <circle cx="1685.79" cy="1275.39" r="9.60885" stroke-width="0.5" stroke="black" fill="grey"/>
  <circle cx="1685.79" cy="1275.39" r="5.84249" stroke-width="0.5" stroke="grey" fill="grey"/>
   </g>
   <g id="cell71">
  <circle cx="1019.94" cy="1071.84" r="8.66413" stroke-width="0.5" stroke="black" fill="grey"/>
  <circle cx="1019.94" cy="1071.84" r="5.24503" stroke-width="0.5" stroke="grey" fill="grey"/>
   </g>
   <g id="cell72">
  <circle cx="1130.09" cy="705.71" r="8.55147" stroke-width="0.5" stroke="black" fill="red"/>
  <circle cx="1130.09" cy="705.71" r="5.16484" stroke-width="0.5" stroke="red" fill="red"/>
   </g>
   <g id="cell73">
  <circle cx="1163.72" cy="1227.52" r="8.85891" stroke-width="0.5" stroke="black" fill="grey"/>
  <circle cx="1163.72" cy="1227.52" r="5.3786" stroke-width="0.5" stroke="grey" fill="grey"/>
   </g>
   <g id="cell74">
  <circle cx="1121.22" cy="1106.94" r="8.37818" stroke-width="0.5" stroke="black" fill="grey"/>
  <circle cx="1121.22" cy="1106.94" r="5.03916" stroke-width="0.5" stroke="grey" fill="grey"/>
   </g>
   <g id="cell75">
  <circle cx="1703.16" cy="1193.48" r="8.50904" stroke-width="0.5" stroke="black" fill="grey"/>
  <circle cx="1703.16" cy="1193.48" r="5.13639" stroke-width="0.5" stroke="grey" fill="grey"/>
   </g>
   <g id="cell76">
  <circle cx="1687.99" cy="176.353" r="8.37156" stroke-width="0.5" stroke="black" fill="red"/>
  <circle cx="1687.99" cy="176.353" r="5.03648" stroke-width="0.5" stroke="red" fill="red"/>
   </g>
  </g>
 </g>
  <rect x="1750" y="2070" width="200" height="20" stroke-width="4" stroke="rgb(255,255,255)" fill="rgb(0,0,0)"/>
  <text x="1762.5" y="2057.5"
   font-family="Arial" font-size="50" fill="black" >
   200 &#956;m
  </text>
  <text x="50" y="2090"
   font-family="Arial" font-size="37.5" fill="black" >
   0 days, 0 hours, 1 minutes, and 25.0625 seconds
  </text>
  <rect x="0" y="140" width="2000" height="2000" stroke-width="4" stroke="rgb(0,0,0)" fill="none"/>
</svg>
