<?xml version="1.0" encoding="UTF-8" standalone="no"?>
<!-- Created with PhysiCell (http://PhysiCell.MathCancer.org/) -->
<svg 
 xmlns:dc="http://purl.org/dc/elements/1.1/" 
 xmlns:cc="http://creativecommons.org/ns#" 
 xmlns:rdf="http://www.w3.org/1999/02/22-rdf-syntax-ns#" 
 xmlns:svg="http://www.w3.org/2000/svg" 
 xmlns="http://www.w3.org/2000/svg" 
 version="1.1" 
 width="2000" 
 height="2140" 
 id="svg2">
  <rect x="0" y="0" width="2000" height="2140" stroke-width="4" stroke="white" fill="white"/>
  <text x="25" y="60"
   font-family="Arial" font-size="50" fill="black" >
   Current time: 0 days, 13 hours, and 0.00 minutes, z = 0.00 &#956;m
  </text>
  <text x="25" y="115"
   font-family="Arial" font-size="47.5" fill="black" >
   99 agents
  </text>
 <g id="tissue" 
    transform="translate(0,2140) scale(1,-1)">
  <g id="ECM">
  </g>
  <g id="cells">
   <g id="cell0">
  <circle cx="1075.47" cy="1177.2" r="1.45753" stroke-width="0.5" stroke="black" fill="grey"/>
  <circle cx="1075.47" cy="1177.2" r="1.45203" stroke-width="0.5" stroke="black" fill="black"/>
   </g>
   <g id="cell1">
  <circle cx="1720.17" cy="1237.26" r="10.1758" stroke-width="0.5" stroke="black" fill="grey"/>
  <circle cx="1720.17" cy="1237.26" r="6.16159" stroke-width="0.5" stroke="grey" fill="grey"/>
   </g>
   <g id="cell2">
  <circle cx="1075.87" cy="1680" r="9.82189" stroke-width="0.5" stroke="black" fill="grey"/>
  <circle cx="1075.87" cy="1680" r="5.96395" stroke-width="0.5" stroke="grey" fill="grey"/>
   </g>
   <g id="cell3">
  <circle cx="1290.58" cy="1327.62" r="10.5254" stroke-width="0.5" stroke="black" fill="grey"/>
  <circle cx="1290.58" cy="1327.62" r="6.33607" stroke-width="0.5" stroke="grey" fill="grey"/>
   </g>
   <g id="cell4">
  <circle cx="923.389" cy="582.704" r="10.0654" stroke-width="0.5" stroke="black" fill="grey"/>
  <circle cx="923.389" cy="582.704" r="6.10145" stroke-width="0.5" stroke="grey" fill="grey"/>
   </g>
   <g id="cell5">
  <circle cx="97.3904" cy="1918.44" r="8.48289" stroke-width="0.5" stroke="black" fill="grey"/>
  <circle cx="97.3904" cy="1918.44" r="5.10317" stroke-width="0.5" stroke="grey" fill="grey"/>
   </g>
   <g id="cell6">
  <circle cx="716.754" cy="981.947" r="10.5295" stroke-width="0.5" stroke="black" fill="grey"/>
  <circle cx="716.754" cy="981.947" r="6.33783" stroke-width="0.5" stroke="grey" fill="grey"/>
   </g>
   <g id="cell7">
  <circle cx="1591.96" cy="1059.15" r="10.5233" stroke-width="0.5" stroke="black" fill="grey"/>
  <circle cx="1591.96" cy="1059.15" r="6.33514" stroke-width="0.5" stroke="grey" fill="grey"/>
   </g>
   <g id="cell8">
  <circle cx="1139.42" cy="781.212" r="10.4446" stroke-width="0.5" stroke="black" fill="grey"/>
  <circle cx="1139.42" cy="781.212" r="6.29905" stroke-width="0.5" stroke="grey" fill="grey"/>
   </g>
   <g id="cell9">
  <circle cx="1683.73" cy="135.942" r="10.1996" stroke-width="0.5" stroke="black" fill="grey"/>
  <circle cx="1683.73" cy="135.942" r="6.17434" stroke-width="0.5" stroke="grey" fill="grey"/>
   </g>
   <g id="cell10">
  <circle cx="167.533" cy="1291.87" r="9.88629" stroke-width="0.5" stroke="black" fill="grey"/>
  <circle cx="167.533" cy="1291.87" r="6.00088" stroke-width="0.5" stroke="grey" fill="grey"/>
   </g>
   <g id="cell11">
  <circle cx="762.584" cy="1647.21" r="10.5333" stroke-width="0.5" stroke="black" fill="grey"/>
  <circle cx="762.584" cy="1647.21" r="6.33948" stroke-width="0.5" stroke="grey" fill="grey"/>
   </g>
   <g id="cell12">
  <circle cx="1533.34" cy="285.597" r="10.1996" stroke-width="0.5" stroke="black" fill="grey"/>
  <circle cx="1533.34" cy="285.597" r="6.17434" stroke-width="0.5" stroke="grey" fill="grey"/>
   </g>
   <g id="cell13">
  <circle cx="1772.88" cy="1984.49" r="10.4761" stroke-width="0.5" stroke="black" fill="grey"/>
  <circle cx="1772.88" cy="1984.49" r="6.31388" stroke-width="0.5" stroke="grey" fill="grey"/>
   </g>
   <g id="cell14">
  <circle cx="1557.06" cy="1552.42" r="10.1506" stroke-width="0.5" stroke="black" fill="grey"/>
  <circle cx="1557.06" cy="1552.42" r="6.14798" stroke-width="0.5" stroke="grey" fill="grey"/>
   </g>
   <g id="cell15">
  <circle cx="1033.4" cy="1550.21" r="9.44256" stroke-width="0.5" stroke="black" fill="grey"/>
  <circle cx="1033.4" cy="1550.21" r="5.73955" stroke-width="0.5" stroke="grey" fill="grey"/>
   </g>
   <g id="cell16">
  <circle cx="203.649" cy="1443.84" r="10.4984" stroke-width="0.5" stroke="black" fill="grey"/>
  <circle cx="203.649" cy="1443.84" r="6.32406" stroke-width="0.5" stroke="grey" fill="grey"/>
   </g>
   <g id="cell17">
  <circle cx="1145.4" cy="296.56" r="10.1238" stroke-width="0.5" stroke="black" fill="grey"/>
  <circle cx="1145.4" cy="296.56" r="6.13347" stroke-width="0.5" stroke="grey" fill="grey"/>
   </g>
   <g id="cell18">
  <circle cx="1863.04" cy="1510.76" r="10.5275" stroke-width="0.5" stroke="black" fill="grey"/>
  <circle cx="1863.04" cy="1510.76" r="6.33696" stroke-width="0.5" stroke="grey" fill="grey"/>
   </g>
   <g id="cell19">
  <circle cx="200.071" cy="851.914" r="10.1098" stroke-width="0.5" stroke="black" fill="grey"/>
  <circle cx="200.071" cy="851.914" r="6.12585" stroke-width="0.5" stroke="grey" fill="grey"/>
   </g>
   <g id="cell20">
  <circle cx="539.753" cy="434.781" r="10.3811" stroke-width="0.5" stroke="black" fill="grey"/>
  <circle cx="539.753" cy="434.781" r="6.26814" stroke-width="0.5" stroke="grey" fill="grey"/>
   </g>
   <g id="cell21">
  <circle cx="1470.69" cy="914.227" r="10.2999" stroke-width="0.5" stroke="black" fill="grey"/>
  <circle cx="1470.69" cy="914.227" r="6.22699" stroke-width="0.5" stroke="grey" fill="grey"/>
   </g>
   <g id="cell22">
  <circle cx="1136.25" cy="265.436" r="10.5254" stroke-width="0.5" stroke="black" fill="grey"/>
  <circle cx="1136.25" cy="265.436" r="6.33607" stroke-width="0.5" stroke="grey" fill="grey"/>
   </g>
   <g id="cell23">
  <circle cx="669.978" cy="1205.81" r="10.4613" stroke-width="0.5" stroke="black" fill="grey"/>
  <circle cx="669.978" cy="1205.81" r="6.30695" stroke-width="0.5" stroke="grey" fill="grey"/>
   </g>
   <g id="cell24">
  <circle cx="1226.2" cy="426.964" r="10.4102" stroke-width="0.5" stroke="black" fill="grey"/>
  <circle cx="1226.2" cy="426.964" r="6.2825" stroke-width="0.5" stroke="grey" fill="grey"/>
   </g>
   <g id="cell25">
  <circle cx="753.682" cy="1890.26" r="10.0169" stroke-width="0.5" stroke="black" fill="grey"/>
  <circle cx="753.682" cy="1890.26" r="6.07458" stroke-width="0.5" stroke="grey" fill="grey"/>
   </g>
   <g id="cell26">
  <circle cx="1357.63" cy="889.206" r="10.4613" stroke-width="0.5" stroke="black" fill="grey"/>
  <circle cx="1357.63" cy="889.206" r="6.30695" stroke-width="0.5" stroke="grey" fill="grey"/>
   </g>
   <g id="cell27">
  <circle cx="1217.23" cy="873.993" r="9.12489" stroke-width="0.5" stroke="black" fill="grey"/>
  <circle cx="1217.23" cy="873.993" r="5.54282" stroke-width="0.5" stroke="grey" fill="grey"/>
   </g>
   <g id="cell28">
  <circle cx="1356.68" cy="173.056" r="10.483" stroke-width="0.5" stroke="black" fill="grey"/>
  <circle cx="1356.68" cy="173.056" r="6.31703" stroke-width="0.5" stroke="grey" fill="grey"/>
   </g>
   <g id="cell29">
  <circle cx="1922.16" cy="1332.85" r="10.5117" stroke-width="0.5" stroke="black" fill="grey"/>
  <circle cx="1922.16" cy="1332.85" r="6.33005" stroke-width="0.5" stroke="grey" fill="grey"/>
   </g>
   <g id="cell30">
  <circle cx="1375.18" cy="358.989" r="10.3747" stroke-width="0.5" stroke="black" fill="grey"/>
  <circle cx="1375.18" cy="358.989" r="6.26498" stroke-width="0.5" stroke="grey" fill="grey"/>
   </g>
   <g id="cell31">
  <circle cx="684.102" cy="306.107" r="10.4489" stroke-width="0.5" stroke="black" fill="grey"/>
  <circle cx="684.102" cy="306.107" r="6.30112" stroke-width="0.5" stroke="grey" fill="grey"/>
   </g>
   <g id="cell32">
  <circle cx="635.545" cy="1163.82" r="10.0169" stroke-width="0.5" stroke="black" fill="grey"/>
  <circle cx="635.545" cy="1163.82" r="6.07458" stroke-width="0.5" stroke="grey" fill="grey"/>
   </g>
   <g id="cell33">
  <circle cx="646.714" cy="1183.15" r="10.5275" stroke-width="0.5" stroke="black" fill="grey"/>
  <circle cx="646.714" cy="1183.15" r="6.33696" stroke-width="0.5" stroke="grey" fill="grey"/>
   </g>
   <g id="cell34">
  <circle cx="872.173" cy="1258.66" r="10.5211" stroke-width="0.5" stroke="black" fill="grey"/>
  <circle cx="872.173" cy="1258.66" r="6.33419" stroke-width="0.5" stroke="grey" fill="grey"/>
   </g>
   <g id="cell35">
  <circle cx="1931.51" cy="174.852" r="10.2821" stroke-width="0.5" stroke="black" fill="grey"/>
  <circle cx="1931.51" cy="174.852" r="6.21778" stroke-width="0.5" stroke="grey" fill="grey"/>
   </g>
   <g id="cell36">
  <circle cx="419.112" cy="1247.11" r="10.5333" stroke-width="0.5" stroke="black" fill="grey"/>
  <circle cx="419.112" cy="1247.11" r="6.33948" stroke-width="0.5" stroke="grey" fill="grey"/>
   </g>
   <g id="cell37">
  <circle cx="1964.11" cy="1316.56" r="8.72828" stroke-width="0.5" stroke="black" fill="grey"/>
  <circle cx="1964.11" cy="1316.56" r="5.28134" stroke-width="0.5" stroke="grey" fill="grey"/>
   </g>
   <g id="cell38">
  <circle cx="499.972" cy="837.242" r="10.5066" stroke-width="0.5" stroke="black" fill="grey"/>
  <circle cx="499.972" cy="837.242" r="6.32777" stroke-width="0.5" stroke="grey" fill="grey"/>
   </g>
   <g id="cell39">
  <circle cx="943.458" cy="456.481" r="10.5066" stroke-width="0.5" stroke="black" fill="grey"/>
  <circle cx="943.458" cy="456.481" r="6.32777" stroke-width="0.5" stroke="grey" fill="grey"/>
   </g>
   <g id="cell40">
  <circle cx="336.882" cy="619.758" r="10.2911" stroke-width="0.5" stroke="black" fill="grey"/>
  <circle cx="336.882" cy="619.758" r="6.22246" stroke-width="0.5" stroke="grey" fill="grey"/>
   </g>
   <g id="cell41">
  <circle cx="1374.22" cy="1299.47" r="9.62199" stroke-width="0.5" stroke="black" fill="grey"/>
  <circle cx="1374.22" cy="1299.47" r="5.8471" stroke-width="0.5" stroke="grey" fill="grey"/>
   </g>
   <g id="cell42">
  <circle cx="250.702" cy="1580.11" r="10.5275" stroke-width="0.5" stroke="black" fill="grey"/>
  <circle cx="250.702" cy="1580.11" r="6.33696" stroke-width="0.5" stroke="grey" fill="grey"/>
   </g>
   <g id="cell43">
  <circle cx="1864.31" cy="710.759" r="10.1758" stroke-width="0.5" stroke="black" fill="grey"/>
  <circle cx="1864.31" cy="710.759" r="6.16159" stroke-width="0.5" stroke="grey" fill="grey"/>
   </g>
   <g id="cell44">
  <circle cx="1630.76" cy="18.4743" r="8.41271" stroke-width="0.5" stroke="black" fill="grey"/>
  <circle cx="1630.76" cy="18.4743" r="5.05167" stroke-width="0.5" stroke="grey" fill="grey"/>
   </g>
   <g id="cell45">
  <circle cx="1252.86" cy="1705.45" r="10.4102" stroke-width="0.5" stroke="black" fill="grey"/>
  <circle cx="1252.86" cy="1705.45" r="6.2825" stroke-width="0.5" stroke="grey" fill="grey"/>
   </g>
   <g id="cell46">
  <circle cx="206.637" cy="1939.64" r="10.3747" stroke-width="0.5" stroke="black" fill="grey"/>
  <circle cx="206.637" cy="1939.64" r="6.26498" stroke-width="0.5" stroke="grey" fill="grey"/>
   </g>
   <g id="cell47">
  <circle cx="1733.8" cy="947.847" r="10.1374" stroke-width="0.5" stroke="black" fill="grey"/>
  <circle cx="1733.8" cy="947.847" r="6.14084" stroke-width="0.5" stroke="grey" fill="grey"/>
   </g>
   <g id="cell48">
  <circle cx="1934.25" cy="150.765" r="10.3873" stroke-width="0.5" stroke="black" fill="grey"/>
  <circle cx="1934.25" cy="150.765" r="6.2712" stroke-width="0.5" stroke="grey" fill="grey"/>
   </g>
   <g id="cell49">
  <circle cx="919.796" cy="1467.76" r="8.41271" stroke-width="0.5" stroke="black" fill="grey"/>
  <circle cx="919.796" cy="1467.76" r="5.05167" stroke-width="0.5" stroke="grey" fill="grey"/>
   </g>
   <g id="cell50">
  <circle cx="57.357" cy="869.189" r="10.4573" stroke-width="0.5" stroke="black" fill="red"/>
  <circle cx="57.357" cy="869.189" r="6.30507" stroke-width="0.5" stroke="red" fill="red"/>
   </g>
   <g id="cell51">
  <circle cx="1941.01" cy="229.428" r="10.4102" stroke-width="0.5" stroke="black" fill="red"/>
  <circle cx="1941.01" cy="229.428" r="6.2825" stroke-width="0.5" stroke="red" fill="red"/>
   </g>
   <g id="cell52">
  <circle cx="587.924" cy="945.67" r="10.5039" stroke-width="0.5" stroke="black" fill="red"/>
  <circle cx="587.924" cy="945.67" r="6.32657" stroke-width="0.5" stroke="red" fill="red"/>
   </g>
   <g id="cell53">
  <circle cx="1355.21" cy="635.117" r="10.5211" stroke-width="0.5" stroke="black" fill="red"/>
  <circle cx="1355.21" cy="635.117" r="6.33419" stroke-width="0.5" stroke="red" fill="red"/>
   </g>
   <g id="cell99">
  <circle cx="985.068" cy="1972.86" r="10.4355" stroke-width="0.5" stroke="black" fill="red"/>
  <circle cx="985.068" cy="1972.86" r="6.2947" stroke-width="0.5" stroke="red" fill="red"/>
   </g>
   <g id="cell55">
  <circle cx="380.966" cy="1354.65" r="9.23685" stroke-width="0.5" stroke="black" fill="red"/>
  <circle cx="380.966" cy="1354.65" r="5.61315" stroke-width="0.5" stroke="red" fill="red"/>
   </g>
   <g id="cell56">
  <circle cx="1135.15" cy="1694.77" r="9.84395" stroke-width="0.5" stroke="black" fill="red"/>
  <circle cx="1135.15" cy="1694.77" r="5.97665" stroke-width="0.5" stroke="red" fill="red"/>
   </g>
   <g id="cell57">
  <circle cx="983.771" cy="1077.79" r="10.2728" stroke-width="0.5" stroke="black" fill="red"/>
  <circle cx="983.771" cy="1077.79" r="6.21295" stroke-width="0.5" stroke="red" fill="red"/>
   </g>
   <g id="cell58">
  <circle cx="183.065" cy="1847.57" r="10.1238" stroke-width="0.5" stroke="black" fill="red"/>
  <circle cx="183.065" cy="1847.57" r="6.13347" stroke-width="0.5" stroke="red" fill="red"/>
   </g>
   <g id="cell59">
  <circle cx="165.662" cy="1851.58" r="8.41271" stroke-width="0.5" stroke="black" fill="red"/>
  <circle cx="165.662" cy="1851.58" r="5.05167" stroke-width="0.5" stroke="red" fill="red"/>
   </g>
   <g id="cell60">
  <circle cx="622.013" cy="65.7436" r="10.1996" stroke-width="0.5" stroke="black" fill="red"/>
  <circle cx="622.013" cy="65.7436" r="6.17434" stroke-width="0.5" stroke="red" fill="red"/>
   </g>
   <g id="cell61">
  <circle cx="1658.11" cy="220.868" r="10.4689" stroke-width="0.5" stroke="black" fill="red"/>
  <circle cx="1658.11" cy="220.868" r="6.31053" stroke-width="0.5" stroke="red" fill="red"/>
   </g>
   <g id="cell62">
  <circle cx="1435.78" cy="1723.28" r="9.20015" stroke-width="0.5" stroke="black" fill="red"/>
  <circle cx="1435.78" cy="1723.28" r="5.59022" stroke-width="0.5" stroke="red" fill="red"/>
   </g>
   <g id="cell63">
  <circle cx="525.152" cy="344.322" r="10.4355" stroke-width="0.5" stroke="black" fill="red"/>
  <circle cx="525.152" cy="344.322" r="6.2947" stroke-width="0.5" stroke="red" fill="red"/>
   </g>
   <g id="cell64">
  <circle cx="1153.5" cy="1071.16" r="10.5066" stroke-width="0.5" stroke="black" fill="red"/>
  <circle cx="1153.5" cy="1071.16" r="6.32777" stroke-width="0.5" stroke="red" fill="red"/>
   </g>
   <g id="cell65">
  <circle cx="327.731" cy="1632.16" r="10.0497" stroke-width="0.5" stroke="black" fill="red"/>
  <circle cx="327.731" cy="1632.16" r="6.09278" stroke-width="0.5" stroke="red" fill="red"/>
   </g>
   <g id="cell66">
  <circle cx="28.7423" cy="274.103" r="9.12489" stroke-width="0.5" stroke="black" fill="red"/>
  <circle cx="28.7423" cy="274.103" r="5.54282" stroke-width="0.5" stroke="red" fill="red"/>
   </g>
   <g id="cell67">
  <circle cx="1110.8" cy="542.226" r="10.3747" stroke-width="0.5" stroke="black" fill="red"/>
  <circle cx="1110.8" cy="542.226" r="6.26498" stroke-width="0.5" stroke="red" fill="red"/>
   </g>
   <g id="cell68">
  <circle cx="1456.99" cy="564.541" r="10.4651" stroke-width="0.5" stroke="black" fill="red"/>
  <circle cx="1456.99" cy="564.541" r="6.30877" stroke-width="0.5" stroke="red" fill="red"/>
   </g>
   <g id="cell69">
  <circle cx="882.587" cy="515.095" r="10.1238" stroke-width="0.5" stroke="black" fill="red"/>
  <circle cx="882.587" cy="515.095" r="6.13347" stroke-width="0.5" stroke="red" fill="red"/>
   </g>
   <g id="cell70">
  <circle cx="1188.26" cy="754.322" r="9.92631" stroke-width="0.5" stroke="black" fill="red"/>
  <circle cx="1188.26" cy="754.322" r="6.02363" stroke-width="0.5" stroke="red" fill="red"/>
   </g>
   <g id="cell71">
  <circle cx="1784.79" cy="1144.29" r="10.4573" stroke-width="0.5" stroke="black" fill="red"/>
  <circle cx="1784.79" cy="1144.29" r="6.30507" stroke-width="0.5" stroke="red" fill="red"/>
   </g>
   <g id="cell72">
  <circle cx="468.81" cy="1783.89" r="10.5333" stroke-width="0.5" stroke="black" fill="red"/>
  <circle cx="468.81" cy="1783.89" r="6.33948" stroke-width="0.5" stroke="red" fill="red"/>
   </g>
   <g id="cell73">
  <circle cx="1330.77" cy="863.401" r="10.4307" stroke-width="0.5" stroke="black" fill="red"/>
  <circle cx="1330.77" cy="863.401" r="6.29241" stroke-width="0.5" stroke="red" fill="red"/>
   </g>
   <g id="cell74">
  <circle cx="1688.67" cy="1926.43" r="10.5189" stroke-width="0.5" stroke="black" fill="red"/>
  <circle cx="1688.67" cy="1926.43" r="6.3332" stroke-width="0.5" stroke="red" fill="red"/>
   </g>
   <g id="cell75">
  <circle cx="279.791" cy="594.649" r="10.3811" stroke-width="0.5" stroke="black" fill="red"/>
  <circle cx="279.791" cy="594.649" r="6.26814" stroke-width="0.5" stroke="red" fill="red"/>
   </g>
   <g id="cell76">
  <circle cx="1651.77" cy="845.994" r="10.4489" stroke-width="0.5" stroke="black" fill="red"/>
  <circle cx="1651.77" cy="845.994" r="6.30112" stroke-width="0.5" stroke="red" fill="red"/>
   </g>
   <g id="cell77">
  <circle cx="1333.25" cy="1762.78" r="10.5012" stroke-width="0.5" stroke="black" fill="red"/>
  <circle cx="1333.25" cy="1762.78" r="6.32534" stroke-width="0.5" stroke="red" fill="red"/>
   </g>
   <g id="cell78">
  <circle cx="1123.58" cy="601.165" r="10.3682" stroke-width="0.5" stroke="black" fill="red"/>
  <circle cx="1123.58" cy="601.165" r="6.26172" stroke-width="0.5" stroke="red" fill="red"/>
   </g>
   <g id="cell79">
  <circle cx="1960.35" cy="1361.56" r="10.4726" stroke-width="0.5" stroke="black" fill="red"/>
  <circle cx="1960.35" cy="1361.56" r="6.31223" stroke-width="0.5" stroke="red" fill="red"/>
   </g>
   <g id="cell80">
  <circle cx="1400.62" cy="1328" r="10.1996" stroke-width="0.5" stroke="black" fill="red"/>
  <circle cx="1400.62" cy="1328" r="6.17434" stroke-width="0.5" stroke="red" fill="red"/>
   </g>
   <g id="cell81">
  <circle cx="1017.92" cy="1907.05" r="10.1238" stroke-width="0.5" stroke="black" fill="red"/>
  <circle cx="1017.92" cy="1907.05" r="6.13347" stroke-width="0.5" stroke="red" fill="red"/>
   </g>
   <g id="cell82">
  <circle cx="1292.71" cy="781.849" r="10.4894" stroke-width="0.5" stroke="black" fill="red"/>
  <circle cx="1292.71" cy="781.849" r="6.31998" stroke-width="0.5" stroke="red" fill="red"/>
   </g>
   <g id="cell83">
  <circle cx="1293.93" cy="1167.03" r="10.3747" stroke-width="0.5" stroke="black" fill="red"/>
  <circle cx="1293.93" cy="1167.03" r="6.26498" stroke-width="0.5" stroke="red" fill="red"/>
   </g>
   <g id="cell84">
  <circle cx="30.4372" cy="923.079" r="10.2821" stroke-width="0.5" stroke="black" fill="red"/>
  <circle cx="30.4372" cy="923.079" r="6.21778" stroke-width="0.5" stroke="red" fill="red"/>
   </g>
   <g id="cell85">
  <circle cx="1376.71" cy="1329.98" r="10.3682" stroke-width="0.5" stroke="black" fill="red"/>
  <circle cx="1376.71" cy="1329.98" r="6.26172" stroke-width="0.5" stroke="red" fill="red"/>
   </g>
   <g id="cell86">
  <circle cx="583.279" cy="746.026" r="10.5333" stroke-width="0.5" stroke="black" fill="red"/>
  <circle cx="583.279" cy="746.026" r="6.33948" stroke-width="0.5" stroke="red" fill="red"/>
   </g>
   <g id="cell87">
  <circle cx="1511.36" cy="866.196" r="8.41271" stroke-width="0.5" stroke="black" fill="red"/>
  <circle cx="1511.36" cy="866.196" r="5.05167" stroke-width="0.5" stroke="red" fill="red"/>
   </g>
   <g id="cell88">
  <circle cx="240.482" cy="157.716" r="10.4355" stroke-width="0.5" stroke="black" fill="red"/>
  <circle cx="240.482" cy="157.716" r="6.2947" stroke-width="0.5" stroke="red" fill="red"/>
   </g>
   <g id="cell89">
  <circle cx="216.918" cy="1072.94" r="10.5211" stroke-width="0.5" stroke="black" fill="red"/>
  <circle cx="216.918" cy="1072.94" r="6.33419" stroke-width="0.5" stroke="red" fill="red"/>
   </g>
   <g id="cell90">
  <circle cx="1203.89" cy="1098.72" r="1.69814" stroke-width="0.5" stroke="black" fill="red"/>
  <circle cx="1203.89" cy="1098.72" r="1.65609" stroke-width="0.5" stroke="black" fill="black"/>
   </g>
   <g id="cell91">
  <circle cx="52.078" cy="1289.38" r="8.41271" stroke-width="0.5" stroke="black" fill="red"/>
  <circle cx="52.078" cy="1289.38" r="5.05167" stroke-width="0.5" stroke="red" fill="red"/>
   </g>
   <g id="cell92">
  <circle cx="1312.54" cy="614.407" r="10.5295" stroke-width="0.5" stroke="black" fill="red"/>
  <circle cx="1312.54" cy="614.407" r="6.33783" stroke-width="0.5" stroke="red" fill="red"/>
   </g>
   <g id="cell93">
  <circle cx="446.195" cy="1799" r="10.5066" stroke-width="0.5" stroke="black" fill="red"/>
  <circle cx="446.195" cy="1799" r="6.32777" stroke-width="0.5" stroke="red" fill="red"/>
   </g>
   <g id="cell94">
  <circle cx="742.711" cy="176.613" r="10.211" stroke-width="0.5" stroke="black" fill="red"/>
  <circle cx="742.711" cy="176.613" r="6.18041" stroke-width="0.5" stroke="red" fill="red"/>
   </g>
   <g id="cell95">
  <circle cx="1985.02" cy="1750.04" r="10.4925" stroke-width="0.5" stroke="black" fill="red"/>
  <circle cx="1985.02" cy="1750.04" r="6.32139" stroke-width="0.5" stroke="red" fill="red"/>
   </g>
   <g id="cell96">
  <circle cx="1617.2" cy="1074.12" r="10.3933" stroke-width="0.5" stroke="black" fill="red"/>
  <circle cx="1617.2" cy="1074.12" r="6.27417" stroke-width="0.5" stroke="red" fill="red"/>
   </g>
   <g id="cell97">
  <circle cx="892.389" cy="185.524" r="8.41271" stroke-width="0.5" stroke="black" fill="red"/>
  <circle cx="892.389" cy="185.524" r="5.05167" stroke-width="0.5" stroke="red" fill="red"/>
   </g>
   <g id="cell98">
  <circle cx="1886.95" cy="678.586" r="9.7273" stroke-width="0.5" stroke="black" fill="red"/>
  <circle cx="1886.95" cy="678.586" r="5.90906" stroke-width="0.5" stroke="red" fill="red"/>
   </g>
  </g>
 </g>
  <rect x="1750" y="2070" width="200" height="20" stroke-width="4" stroke="rgb(255,255,255)" fill="rgb(0,0,0)"/>
  <text x="1762.5" y="2057.5"
   font-family="Arial" font-size="50" fill="black" >
   200 &#956;m
  </text>
  <text x="50" y="2090"
   font-family="Arial" font-size="37.5" fill="black" >
   0 days, 0 hours, 0 minutes, and 19.5215 seconds
  </text>
  <rect x="0" y="140" width="2000" height="2000" stroke-width="4" stroke="rgb(0,0,0)" fill="none"/>
</svg>
