<?xml version="1.0" encoding="UTF-8" standalone="no"?>
<!-- Created with PhysiCell (http://PhysiCell.MathCancer.org/) -->
<svg 
 xmlns:dc="http://purl.org/dc/elements/1.1/" 
 xmlns:cc="http://creativecommons.org/ns#" 
 xmlns:rdf="http://www.w3.org/1999/02/22-rdf-syntax-ns#" 
 xmlns:svg="http://www.w3.org/2000/svg" 
 xmlns="http://www.w3.org/2000/svg" 
 version="1.1" 
 width="2000" 
 height="2140" 
 id="svg2">
  <rect x="0" y="0" width="2000" height="2140" stroke-width="4" stroke="white" fill="white"/>
  <text x="25" y="60"
   font-family="Arial" font-size="50" fill="black" >
   Current time: 0 days, 21 hours, and 0.00 minutes, z = 0.00 &#956;m
  </text>
  <text x="25" y="115"
   font-family="Arial" font-size="47.5" fill="black" >
   19 agents
  </text>
 <g id="tissue" 
    transform="translate(0,2140) scale(1,-1)">
  <g id="ECM">
  </g>
  <g id="cells">
   <g id="cell0">
  <circle cx="1138.89" cy="1200.61" r="9.18971" stroke-width="0.5" stroke="black" fill="grey"/>
  <circle cx="1138.89" cy="1200.61" r="5.58662" stroke-width="0.5" stroke="grey" fill="grey"/>
   </g>
   <g id="cell1">
  <circle cx="1682.86" cy="1221.85" r="8.37321" stroke-width="0.5" stroke="black" fill="grey"/>
  <circle cx="1682.86" cy="1221.85" r="5.03708" stroke-width="0.5" stroke="grey" fill="grey"/>
   </g>
   <g id="cell2">
  <circle cx="1174.3" cy="1701.83" r="9.3965" stroke-width="0.5" stroke="black" fill="grey"/>
  <circle cx="1174.3" cy="1701.83" r="5.715" stroke-width="0.5" stroke="grey" fill="grey"/>
   </g>
   <g id="cell3">
  <circle cx="1258.18" cy="1278.35" r="9.36681" stroke-width="0.5" stroke="black" fill="grey"/>
  <circle cx="1258.18" cy="1278.35" r="5.69609" stroke-width="0.5" stroke="grey" fill="grey"/>
   </g>
   <g id="cell4">
  <circle cx="878.488" cy="559.978" r="8.40215" stroke-width="0.5" stroke="black" fill="grey"/>
  <circle cx="878.488" cy="559.978" r="5.04833" stroke-width="0.5" stroke="grey" fill="grey"/>
   </g>
   <g id="cell5">
  <circle cx="123.871" cy="1923.15" r="8.40378" stroke-width="0.5" stroke="black" fill="red"/>
  <circle cx="123.871" cy="1923.15" r="5.0489" stroke-width="0.5" stroke="red" fill="red"/>
   </g>
   <g id="cell6">
  <circle cx="783.395" cy="923.578" r="10.4613" stroke-width="0.5" stroke="black" fill="red"/>
  <circle cx="783.395" cy="923.578" r="6.30695" stroke-width="0.5" stroke="red" fill="red"/>
   </g>
   <g id="cell7">
  <circle cx="1585.71" cy="1016.5" r="3.53085" stroke-width="0.5" stroke="black" fill="red"/>
  <circle cx="1585.71" cy="1016.5" r="2.90421" stroke-width="0.5" stroke="black" fill="black"/>
   </g>
   <g id="cell8">
  <circle cx="1127.68" cy="746.859" r="4.32913" stroke-width="0.5" stroke="black" fill="red"/>
  <circle cx="1127.68" cy="746.859" r="3.1878" stroke-width="0.5" stroke="black" fill="black"/>
   </g>
   <g id="cell9">
  <circle cx="1688.61" cy="183.469" r="8.38206" stroke-width="0.5" stroke="black" fill="red"/>
  <circle cx="1688.61" cy="183.469" r="5.04069" stroke-width="0.5" stroke="red" fill="red"/>
   </g>
   <g id="cell11">
  <circle cx="1580.7" cy="1034.77" r="9.83779" stroke-width="0.5" stroke="black" fill="red"/>
  <circle cx="1580.7" cy="1034.77" r="5.97465" stroke-width="0.5" stroke="red" fill="red"/>
   </g>
   <g id="cell12">
  <circle cx="111.452" cy="1950.57" r="1.67218" stroke-width="0.5" stroke="black" fill="red"/>
  <circle cx="111.452" cy="1950.57" r="1.63369" stroke-width="0.5" stroke="black" fill="black"/>
   </g>
   <g id="cell13">
  <circle cx="820.434" cy="577.247" r="8.40215" stroke-width="0.5" stroke="black" fill="grey"/>
  <circle cx="820.434" cy="577.247" r="5.04833" stroke-width="0.5" stroke="grey" fill="grey"/>
   </g>
   <g id="cell14">
  <circle cx="1230.72" cy="1285.01" r="8.40022" stroke-width="0.5" stroke="black" fill="grey"/>
  <circle cx="1230.72" cy="1285.01" r="5.04764" stroke-width="0.5" stroke="grey" fill="grey"/>
   </g>
   <g id="cell15">
  <circle cx="1109.42" cy="1204.98" r="8.40022" stroke-width="0.5" stroke="black" fill="grey"/>
  <circle cx="1109.42" cy="1204.98" r="5.04764" stroke-width="0.5" stroke="grey" fill="grey"/>
   </g>
   <g id="cell16">
  <circle cx="1168.02" cy="1716.3" r="8.39571" stroke-width="0.5" stroke="black" fill="grey"/>
  <circle cx="1168.02" cy="1716.3" r="5.04599" stroke-width="0.5" stroke="grey" fill="grey"/>
   </g>
   <g id="cell17">
  <circle cx="1101.5" cy="758.87" r="8.95062" stroke-width="0.5" stroke="black" fill="red"/>
  <circle cx="1101.5" cy="758.87" r="5.43591" stroke-width="0.5" stroke="red" fill="red"/>
   </g>
   <g id="cell18">
  <circle cx="1683.81" cy="198.642" r="8.38206" stroke-width="0.5" stroke="black" fill="red"/>
  <circle cx="1683.81" cy="198.642" r="5.04069" stroke-width="0.5" stroke="red" fill="red"/>
   </g>
   <g id="cell19">
  <circle cx="1669.4" cy="1236.55" r="8.47395" stroke-width="0.5" stroke="black" fill="grey"/>
  <circle cx="1669.4" cy="1236.55" r="5.11118" stroke-width="0.5" stroke="grey" fill="grey"/>
   </g>
  </g>
 </g>
  <rect x="1750" y="2070" width="200" height="20" stroke-width="4" stroke="rgb(255,255,255)" fill="rgb(0,0,0)"/>
  <text x="1762.5" y="2057.5"
   font-family="Arial" font-size="50" fill="black" >
   200 &#956;m
  </text>
  <text x="50" y="2090"
   font-family="Arial" font-size="37.5" fill="black" >
   0 days, 0 hours, 0 minutes, and 26.9953 seconds
  </text>
  <rect x="0" y="140" width="2000" height="2000" stroke-width="4" stroke="rgb(0,0,0)" fill="none"/>
</svg>
