<?xml version="1.0" encoding="UTF-8" standalone="no"?>
<!-- Created with PhysiCell (http://PhysiCell.MathCancer.org/) -->
<svg 
 xmlns:dc="http://purl.org/dc/elements/1.1/" 
 xmlns:cc="http://creativecommons.org/ns#" 
 xmlns:rdf="http://www.w3.org/1999/02/22-rdf-syntax-ns#" 
 xmlns:svg="http://www.w3.org/2000/svg" 
 xmlns="http://www.w3.org/2000/svg" 
 version="1.1" 
 width="2000" 
 height="2140" 
 id="svg2">
  <rect x="0" y="0" width="2000" height="2140" stroke-width="4" stroke="white" fill="white"/>
  <text x="25" y="60"
   font-family="Arial" font-size="50" fill="black" >
   Current time: 1 days, 4 hours, and 20.00 minutes, z = 0.00 &#956;m
  </text>
  <text x="25" y="115"
   font-family="Arial" font-size="47.5" fill="black" >
   196 agents
  </text>
 <g id="tissue" 
    transform="translate(0,2140) scale(1,-1)">
  <g id="ECM">
  </g>
  <g id="cells">
   <g id="cell0">
  <circle cx="1079.35" cy="1180.02" r="10.2711" stroke-width="0.5" stroke="black" fill="grey"/>
  <circle cx="1079.35" cy="1180.02" r="6.21246" stroke-width="0.5" stroke="grey" fill="grey"/>
   </g>
   <g id="cell1">
  <circle cx="1668.83" cy="1191.83" r="10.3803" stroke-width="0.5" stroke="black" fill="grey"/>
  <circle cx="1668.83" cy="1191.83" r="6.26794" stroke-width="0.5" stroke="grey" fill="grey"/>
   </g>
   <g id="cell2">
  <circle cx="1107.37" cy="1734.54" r="10.5113" stroke-width="0.5" stroke="black" fill="grey"/>
  <circle cx="1107.37" cy="1734.54" r="6.32993" stroke-width="0.5" stroke="grey" fill="grey"/>
   </g>
   <g id="cell3">
  <circle cx="1249.17" cy="1334.25" r="9.77433" stroke-width="0.5" stroke="black" fill="grey"/>
  <circle cx="1249.17" cy="1334.25" r="5.9369" stroke-width="0.5" stroke="grey" fill="grey"/>
   </g>
   <g id="cell4">
  <circle cx="889.418" cy="506.507" r="3.78191" stroke-width="0.5" stroke="black" fill="grey"/>
  <circle cx="889.418" cy="506.507" r="3.0104" stroke-width="0.5" stroke="black" fill="black"/>
   </g>
   <g id="cell5">
  <circle cx="99.41" cy="1926.67" r="10.4134" stroke-width="0.5" stroke="black" fill="grey"/>
  <circle cx="99.41" cy="1926.67" r="6.28447" stroke-width="0.5" stroke="grey" fill="grey"/>
   </g>
   <g id="cell6">
  <circle cx="755.3" cy="913.729" r="10.2188" stroke-width="0.5" stroke="black" fill="grey"/>
  <circle cx="755.3" cy="913.729" r="6.18531" stroke-width="0.5" stroke="grey" fill="grey"/>
   </g>
   <g id="cell7">
  <circle cx="1592.65" cy="1126.44" r="10.3801" stroke-width="0.5" stroke="black" fill="grey"/>
  <circle cx="1592.65" cy="1126.44" r="6.26788" stroke-width="0.5" stroke="grey" fill="grey"/>
   </g>
   <g id="cell8">
  <circle cx="1165.24" cy="801.85" r="10.4396" stroke-width="0.5" stroke="black" fill="grey"/>
  <circle cx="1165.24" cy="801.85" r="6.29679" stroke-width="0.5" stroke="grey" fill="grey"/>
   </g>
   <g id="cell9">
  <circle cx="1602.21" cy="205.034" r="10.3306" stroke-width="0.5" stroke="black" fill="grey"/>
  <circle cx="1602.21" cy="205.034" r="6.24317" stroke-width="0.5" stroke="grey" fill="grey"/>
   </g>
   <g id="cell10">
  <circle cx="199.596" cy="1284.06" r="8.40353" stroke-width="0.5" stroke="black" fill="grey"/>
  <circle cx="199.596" cy="1284.06" r="5.04881" stroke-width="0.5" stroke="grey" fill="grey"/>
   </g>
   <g id="cell11">
  <circle cx="736.994" cy="1608.24" r="10.4096" stroke-width="0.5" stroke="black" fill="grey"/>
  <circle cx="736.994" cy="1608.24" r="6.28234" stroke-width="0.5" stroke="grey" fill="grey"/>
   </g>
   <g id="cell12">
  <circle cx="1603.32" cy="256.096" r="10.3972" stroke-width="0.5" stroke="black" fill="grey"/>
  <circle cx="1603.32" cy="256.096" r="6.27651" stroke-width="0.5" stroke="grey" fill="grey"/>
   </g>
   <g id="cell13">
  <circle cx="1770.98" cy="1868.95" r="10.444" stroke-width="0.5" stroke="black" fill="grey"/>
  <circle cx="1770.98" cy="1868.95" r="6.2989" stroke-width="0.5" stroke="grey" fill="grey"/>
   </g>
   <g id="cell14">
  <circle cx="1552.48" cy="1681.19" r="8.78476" stroke-width="0.5" stroke="black" fill="grey"/>
  <circle cx="1552.48" cy="1681.19" r="5.32736" stroke-width="0.5" stroke="grey" fill="grey"/>
   </g>
   <g id="cell15">
  <circle cx="1065.32" cy="1539.24" r="8.51058" stroke-width="0.5" stroke="black" fill="grey"/>
  <circle cx="1065.32" cy="1539.24" r="5.125" stroke-width="0.5" stroke="grey" fill="grey"/>
   </g>
   <g id="cell16">
  <circle cx="241.465" cy="1395.35" r="10.4681" stroke-width="0.5" stroke="black" fill="grey"/>
  <circle cx="241.465" cy="1395.35" r="6.31031" stroke-width="0.5" stroke="grey" fill="grey"/>
   </g>
   <g id="cell17">
  <circle cx="1209.65" cy="234.891" r="10.2622" stroke-width="0.5" stroke="black" fill="grey"/>
  <circle cx="1209.65" cy="234.891" r="6.20767" stroke-width="0.5" stroke="grey" fill="grey"/>
   </g>
   <g id="cell18">
  <circle cx="1894.53" cy="1564.57" r="10.3676" stroke-width="0.5" stroke="black" fill="grey"/>
  <circle cx="1894.53" cy="1564.57" r="6.26156" stroke-width="0.5" stroke="grey" fill="grey"/>
   </g>
   <g id="cell19">
  <circle cx="249.141" cy="913.414" r="10.5092" stroke-width="0.5" stroke="black" fill="grey"/>
  <circle cx="249.141" cy="913.414" r="6.32893" stroke-width="0.5" stroke="grey" fill="grey"/>
   </g>
   <g id="cell20">
  <circle cx="548.283" cy="343.357" r="9.46665" stroke-width="0.5" stroke="black" fill="grey"/>
  <circle cx="548.283" cy="343.357" r="5.75619" stroke-width="0.5" stroke="grey" fill="grey"/>
   </g>
   <g id="cell21">
  <circle cx="1467.75" cy="910.804" r="10.1601" stroke-width="0.5" stroke="black" fill="grey"/>
  <circle cx="1467.75" cy="910.804" r="6.15393" stroke-width="0.5" stroke="grey" fill="grey"/>
   </g>
   <g id="cell22">
  <circle cx="1124.76" cy="264.498" r="8.39203" stroke-width="0.5" stroke="black" fill="grey"/>
  <circle cx="1124.76" cy="264.498" r="5.0446" stroke-width="0.5" stroke="grey" fill="grey"/>
   </g>
   <g id="cell175">
  <circle cx="755.626" cy="890.836" r="8.40788" stroke-width="0.5" stroke="black" fill="grey"/>
  <circle cx="755.626" cy="890.836" r="5.05027" stroke-width="0.5" stroke="grey" fill="grey"/>
   </g>
   <g id="cell24">
  <circle cx="1284.13" cy="393.464" r="9.85634" stroke-width="0.5" stroke="black" fill="grey"/>
  <circle cx="1284.13" cy="393.464" r="5.98589" stroke-width="0.5" stroke="grey" fill="grey"/>
   </g>
   <g id="cell25">
  <circle cx="791.832" cy="1920.33" r="10.5061" stroke-width="0.5" stroke="black" fill="grey"/>
  <circle cx="791.832" cy="1920.33" r="6.32765" stroke-width="0.5" stroke="grey" fill="grey"/>
   </g>
   <g id="cell26">
  <circle cx="1336.96" cy="881.23" r="9.26668" stroke-width="0.5" stroke="black" fill="grey"/>
  <circle cx="1336.96" cy="881.23" r="5.6335" stroke-width="0.5" stroke="grey" fill="grey"/>
   </g>
   <g id="cell27">
  <circle cx="1174.08" cy="889.822" r="10.4973" stroke-width="0.5" stroke="black" fill="grey"/>
  <circle cx="1174.08" cy="889.822" r="6.32377" stroke-width="0.5" stroke="grey" fill="grey"/>
   </g>
   <g id="cell28">
  <circle cx="1312.69" cy="104.617" r="10.4249" stroke-width="0.5" stroke="black" fill="grey"/>
  <circle cx="1312.69" cy="104.617" r="6.28983" stroke-width="0.5" stroke="grey" fill="grey"/>
   </g>
   <g id="cell29">
  <circle cx="1958.77" cy="1313.18" r="10.3531" stroke-width="0.5" stroke="black" fill="grey"/>
  <circle cx="1958.77" cy="1313.18" r="6.25446" stroke-width="0.5" stroke="grey" fill="grey"/>
   </g>
   <g id="cell30">
  <circle cx="1340.69" cy="362.29" r="8.40986" stroke-width="0.5" stroke="black" fill="grey"/>
  <circle cx="1340.69" cy="362.29" r="5.05089" stroke-width="0.5" stroke="grey" fill="grey"/>
   </g>
   <g id="cell31">
  <circle cx="699.048" cy="236.21" r="10.1628" stroke-width="0.5" stroke="black" fill="grey"/>
  <circle cx="699.048" cy="236.21" r="6.15474" stroke-width="0.5" stroke="grey" fill="grey"/>
   </g>
   <g id="cell32">
  <circle cx="623.258" cy="1212.58" r="10.5111" stroke-width="0.5" stroke="black" fill="grey"/>
  <circle cx="623.258" cy="1212.58" r="6.3299" stroke-width="0.5" stroke="grey" fill="grey"/>
   </g>
   <g id="cell33">
  <circle cx="678.161" cy="1127.31" r="10.3791" stroke-width="0.5" stroke="black" fill="grey"/>
  <circle cx="678.161" cy="1127.31" r="6.26757" stroke-width="0.5" stroke="grey" fill="grey"/>
   </g>
   <g id="cell34">
  <circle cx="900.304" cy="1226.32" r="10.5184" stroke-width="0.5" stroke="black" fill="grey"/>
  <circle cx="900.304" cy="1226.32" r="6.33308" stroke-width="0.5" stroke="grey" fill="grey"/>
   </g>
   <g id="cell35">
  <circle cx="1911.58" cy="221.404" r="10.5345" stroke-width="0.5" stroke="black" fill="grey"/>
  <circle cx="1911.58" cy="221.404" r="6.34011" stroke-width="0.5" stroke="grey" fill="grey"/>
   </g>
   <g id="cell36">
  <circle cx="370.003" cy="1291.16" r="10.1871" stroke-width="0.5" stroke="black" fill="grey"/>
  <circle cx="370.003" cy="1291.16" r="6.16786" stroke-width="0.5" stroke="grey" fill="grey"/>
   </g>
   <g id="cell37">
  <circle cx="1973.45" cy="1340.7" r="8.38753" stroke-width="0.5" stroke="black" fill="grey"/>
  <circle cx="1973.45" cy="1340.7" r="5.04286" stroke-width="0.5" stroke="grey" fill="grey"/>
   </g>
   <g id="cell38">
  <circle cx="455.259" cy="831.67" r="10.5363" stroke-width="0.5" stroke="black" fill="grey"/>
  <circle cx="455.259" cy="831.67" r="6.34087" stroke-width="0.5" stroke="grey" fill="grey"/>
   </g>
   <g id="cell39">
  <circle cx="925.937" cy="531.186" r="8.40244" stroke-width="0.5" stroke="black" fill="grey"/>
  <circle cx="925.937" cy="531.186" r="5.04843" stroke-width="0.5" stroke="grey" fill="grey"/>
   </g>
   <g id="cell40">
  <circle cx="274.238" cy="633.956" r="10.2992" stroke-width="0.5" stroke="black" fill="grey"/>
  <circle cx="274.238" cy="633.956" r="6.22683" stroke-width="0.5" stroke="grey" fill="grey"/>
   </g>
   <g id="cell41">
  <circle cx="1391.03" cy="1300.87" r="9.04684" stroke-width="0.5" stroke="black" fill="grey"/>
  <circle cx="1391.03" cy="1300.87" r="5.49328" stroke-width="0.5" stroke="grey" fill="grey"/>
   </g>
   <g id="cell42">
  <circle cx="263.321" cy="1592.9" r="10.5132" stroke-width="0.5" stroke="black" fill="grey"/>
  <circle cx="263.321" cy="1592.9" r="6.33087" stroke-width="0.5" stroke="grey" fill="grey"/>
   </g>
   <g id="cell43">
  <circle cx="1915.37" cy="740.074" r="10.5004" stroke-width="0.5" stroke="black" fill="grey"/>
  <circle cx="1915.37" cy="740.074" r="6.32512" stroke-width="0.5" stroke="grey" fill="grey"/>
   </g>
   <g id="cell44">
  <circle cx="1689.42" cy="62.5838" r="10.3464" stroke-width="0.5" stroke="black" fill="grey"/>
  <circle cx="1689.42" cy="62.5838" r="6.25099" stroke-width="0.5" stroke="grey" fill="grey"/>
   </g>
   <g id="cell45">
  <circle cx="1267.63" cy="1714.1" r="8.41083" stroke-width="0.5" stroke="black" fill="grey"/>
  <circle cx="1267.63" cy="1714.1" r="5.05118" stroke-width="0.5" stroke="grey" fill="grey"/>
   </g>
   <g id="cell46">
  <circle cx="187.04" cy="1983.87" r="10.4039" stroke-width="0.5" stroke="black" fill="grey"/>
  <circle cx="187.04" cy="1983.87" r="6.27958" stroke-width="0.5" stroke="grey" fill="grey"/>
   </g>
   <g id="cell47">
  <circle cx="1748.63" cy="936.237" r="8.37168" stroke-width="0.5" stroke="black" fill="grey"/>
  <circle cx="1748.63" cy="936.237" r="5.03652" stroke-width="0.5" stroke="grey" fill="grey"/>
   </g>
   <g id="cell48">
  <circle cx="1956.27" cy="73.4889" r="3.02728" stroke-width="0.5" stroke="black" fill="grey"/>
  <circle cx="1956.27" cy="73.4889" r="2.70467" stroke-width="0.5" stroke="black" fill="black"/>
   </g>
   <g id="cell49">
  <circle cx="943.991" cy="1479.24" r="2.28039" stroke-width="0.5" stroke="black" fill="grey"/>
  <circle cx="943.991" cy="1479.24" r="2.19426" stroke-width="0.5" stroke="black" fill="black"/>
   </g>
   <g id="cell50">
  <circle cx="137.772" cy="820.674" r="10.4783" stroke-width="0.5" stroke="black" fill="red"/>
  <circle cx="137.772" cy="820.674" r="6.31515" stroke-width="0.5" stroke="red" fill="red"/>
   </g>
   <g id="cell51">
  <circle cx="1976.04" cy="286.695" r="8.39473" stroke-width="0.5" stroke="black" fill="red"/>
  <circle cx="1976.04" cy="286.695" r="5.04562" stroke-width="0.5" stroke="red" fill="red"/>
   </g>
   <g id="cell52">
  <circle cx="659.082" cy="1004.27" r="10.5029" stroke-width="0.5" stroke="black" fill="red"/>
  <circle cx="659.082" cy="1004.27" r="6.32631" stroke-width="0.5" stroke="red" fill="red"/>
   </g>
   <g id="cell53">
  <circle cx="1362.04" cy="677.703" r="8.38532" stroke-width="0.5" stroke="black" fill="red"/>
  <circle cx="1362.04" cy="677.703" r="5.04199" stroke-width="0.5" stroke="red" fill="red"/>
   </g>
   <g id="cell54">
  <circle cx="813.46" cy="1769.37" r="10.4199" stroke-width="0.5" stroke="black" fill="red"/>
  <circle cx="813.46" cy="1769.37" r="6.28738" stroke-width="0.5" stroke="red" fill="red"/>
   </g>
   <g id="cell55">
  <circle cx="467.161" cy="1337.65" r="8.38118" stroke-width="0.5" stroke="black" fill="red"/>
  <circle cx="467.161" cy="1337.65" r="5.04034" stroke-width="0.5" stroke="red" fill="red"/>
   </g>
   <g id="cell56">
  <circle cx="1135.64" cy="1685.36" r="8.8369" stroke-width="0.5" stroke="black" fill="red"/>
  <circle cx="1135.64" cy="1685.36" r="5.35904" stroke-width="0.5" stroke="red" fill="red"/>
   </g>
   <g id="cell57">
  <circle cx="1018.61" cy="1098.13" r="8.47459" stroke-width="0.5" stroke="black" fill="red"/>
  <circle cx="1018.61" cy="1098.13" r="5.11152" stroke-width="0.5" stroke="red" fill="red"/>
   </g>
   <g id="cell58">
  <circle cx="111.846" cy="1796.59" r="10.0309" stroke-width="0.5" stroke="black" fill="red"/>
  <circle cx="111.846" cy="1796.59" r="6.08304" stroke-width="0.5" stroke="red" fill="red"/>
   </g>
   <g id="cell98">
  <circle cx="1820.82" cy="645.659" r="8.41016" stroke-width="0.5" stroke="black" fill="red"/>
  <circle cx="1820.82" cy="645.659" r="5.05098" stroke-width="0.5" stroke="red" fill="red"/>
   </g>
   <g id="cell60">
  <circle cx="689.451" cy="25.8873" r="10.367" stroke-width="0.5" stroke="black" fill="red"/>
  <circle cx="689.451" cy="25.8873" r="6.2614" stroke-width="0.5" stroke="red" fill="red"/>
   </g>
   <g id="cell61">
  <circle cx="1682.81" cy="258.185" r="10.0488" stroke-width="0.5" stroke="black" fill="red"/>
  <circle cx="1682.81" cy="258.185" r="6.09254" stroke-width="0.5" stroke="red" fill="red"/>
   </g>
   <g id="cell62">
  <circle cx="1425.65" cy="1722.11" r="10.5057" stroke-width="0.5" stroke="black" fill="red"/>
  <circle cx="1425.65" cy="1722.11" r="6.32753" stroke-width="0.5" stroke="red" fill="red"/>
   </g>
   <g id="cell63">
  <circle cx="577.742" cy="359.439" r="10.1477" stroke-width="0.5" stroke="black" fill="red"/>
  <circle cx="577.742" cy="359.439" r="6.14713" stroke-width="0.5" stroke="red" fill="red"/>
   </g>
   <g id="cell64">
  <circle cx="1240.12" cy="1129.72" r="10.2809" stroke-width="0.5" stroke="black" fill="red"/>
  <circle cx="1240.12" cy="1129.72" r="6.21746" stroke-width="0.5" stroke="red" fill="red"/>
   </g>
   <g id="cell65">
  <circle cx="322.938" cy="1631.3" r="10.3157" stroke-width="0.5" stroke="black" fill="red"/>
  <circle cx="322.938" cy="1631.3" r="6.23537" stroke-width="0.5" stroke="red" fill="red"/>
   </g>
   <g id="cell66">
  <circle cx="34.5594" cy="318.238" r="10.2806" stroke-width="0.5" stroke="black" fill="red"/>
  <circle cx="34.5594" cy="318.238" r="6.21737" stroke-width="0.5" stroke="red" fill="red"/>
   </g>
   <g id="cell67">
  <circle cx="1083.15" cy="546.772" r="10.1959" stroke-width="0.5" stroke="black" fill="red"/>
  <circle cx="1083.15" cy="546.772" r="6.17323" stroke-width="0.5" stroke="red" fill="red"/>
   </g>
   <g id="cell68">
  <circle cx="1422.18" cy="594.005" r="10.3863" stroke-width="0.5" stroke="black" fill="red"/>
  <circle cx="1422.18" cy="594.005" r="6.27094" stroke-width="0.5" stroke="red" fill="red"/>
   </g>
   <g id="cell69">
  <circle cx="783.98" cy="485.339" r="9.53341" stroke-width="0.5" stroke="black" fill="red"/>
  <circle cx="783.98" cy="485.339" r="5.79496" stroke-width="0.5" stroke="red" fill="red"/>
   </g>
   <g id="cell70">
  <circle cx="1070.13" cy="770.891" r="10.5226" stroke-width="0.5" stroke="black" fill="red"/>
  <circle cx="1070.13" cy="770.891" r="6.33495" stroke-width="0.5" stroke="red" fill="red"/>
   </g>
   <g id="cell71">
  <circle cx="1731.8" cy="1184.34" r="10.354" stroke-width="0.5" stroke="black" fill="red"/>
  <circle cx="1731.8" cy="1184.34" r="6.25472" stroke-width="0.5" stroke="red" fill="red"/>
   </g>
   <g id="cell72">
  <circle cx="456.022" cy="1757.43" r="9.34292" stroke-width="0.5" stroke="black" fill="red"/>
  <circle cx="456.022" cy="1757.43" r="5.67875" stroke-width="0.5" stroke="red" fill="red"/>
   </g>
   <g id="cell73">
  <circle cx="1355.89" cy="824.29" r="10.5289" stroke-width="0.5" stroke="black" fill="red"/>
  <circle cx="1355.89" cy="824.29" r="6.33768" stroke-width="0.5" stroke="red" fill="red"/>
   </g>
   <g id="cell74">
  <circle cx="1752.34" cy="1847.35" r="8.41136" stroke-width="0.5" stroke="black" fill="red"/>
  <circle cx="1752.34" cy="1847.35" r="5.05133" stroke-width="0.5" stroke="red" fill="red"/>
   </g>
   <g id="cell75">
  <circle cx="313.935" cy="545.473" r="10.5352" stroke-width="0.5" stroke="black" fill="red"/>
  <circle cx="313.935" cy="545.473" r="6.34027" stroke-width="0.5" stroke="red" fill="red"/>
   </g>
   <g id="cell76">
  <circle cx="1598.32" cy="806.671" r="8.41009" stroke-width="0.5" stroke="black" fill="red"/>
  <circle cx="1598.32" cy="806.671" r="5.05096" stroke-width="0.5" stroke="red" fill="red"/>
   </g>
   <g id="cell77">
  <circle cx="1417.01" cy="1813.21" r="10.5033" stroke-width="0.5" stroke="black" fill="red"/>
  <circle cx="1417.01" cy="1813.21" r="6.3264" stroke-width="0.5" stroke="red" fill="red"/>
   </g>
   <g id="cell78">
  <circle cx="1139.79" cy="591.218" r="10.1038" stroke-width="0.5" stroke="black" fill="red"/>
  <circle cx="1139.79" cy="591.218" r="6.12392" stroke-width="0.5" stroke="red" fill="red"/>
   </g>
   <g id="cell79">
  <circle cx="1973.74" cy="1413.46" r="10.3308" stroke-width="0.5" stroke="black" fill="red"/>
  <circle cx="1973.74" cy="1413.46" r="6.24323" stroke-width="0.5" stroke="red" fill="red"/>
   </g>
   <g id="cell80">
  <circle cx="1429.8" cy="1263.2" r="10.4095" stroke-width="0.5" stroke="black" fill="red"/>
  <circle cx="1429.8" cy="1263.2" r="6.28231" stroke-width="0.5" stroke="red" fill="red"/>
   </g>
   <g id="cell81">
  <circle cx="1132.13" cy="1886.64" r="10.1086" stroke-width="0.5" stroke="black" fill="red"/>
  <circle cx="1132.13" cy="1886.64" r="6.12552" stroke-width="0.5" stroke="red" fill="red"/>
   </g>
   <g id="cell82">
  <circle cx="1227.66" cy="816.636" r="10.4201" stroke-width="0.5" stroke="black" fill="red"/>
  <circle cx="1227.66" cy="816.636" r="6.28746" stroke-width="0.5" stroke="red" fill="red"/>
   </g>
   <g id="cell83">
  <circle cx="1225.01" cy="1211.57" r="10.1874" stroke-width="0.5" stroke="black" fill="red"/>
  <circle cx="1225.01" cy="1211.57" r="6.16794" stroke-width="0.5" stroke="red" fill="red"/>
   </g>
   <g id="cell84">
  <circle cx="63.5475" cy="976.291" r="8.38891" stroke-width="0.5" stroke="black" fill="red"/>
  <circle cx="63.5475" cy="976.291" r="5.0434" stroke-width="0.5" stroke="red" fill="red"/>
   </g>
   <g id="cell85">
  <circle cx="1373.09" cy="1281.47" r="9.83859" stroke-width="0.5" stroke="black" fill="red"/>
  <circle cx="1373.09" cy="1281.47" r="5.97493" stroke-width="0.5" stroke="red" fill="red"/>
   </g>
   <g id="cell86">
  <circle cx="570.372" cy="824.951" r="10.2898" stroke-width="0.5" stroke="black" fill="red"/>
  <circle cx="570.372" cy="824.951" r="6.2221" stroke-width="0.5" stroke="red" fill="red"/>
   </g>
   <g id="cell87">
  <circle cx="1484.53" cy="867.793" r="8.40516" stroke-width="0.5" stroke="black" fill="red"/>
  <circle cx="1484.53" cy="867.793" r="5.04937" stroke-width="0.5" stroke="red" fill="red"/>
   </g>
   <g id="cell88">
  <circle cx="250.532" cy="252.464" r="9.47324" stroke-width="0.5" stroke="black" fill="red"/>
  <circle cx="250.532" cy="252.464" r="5.75845" stroke-width="0.5" stroke="red" fill="red"/>
   </g>
   <g id="cell89">
  <circle cx="218.295" cy="1195.32" r="9.72637" stroke-width="0.5" stroke="black" fill="red"/>
  <circle cx="218.295" cy="1195.32" r="5.90881" stroke-width="0.5" stroke="red" fill="red"/>
   </g>
   <g id="cell90">
  <circle cx="1168.7" cy="1112.58" r="10.0782" stroke-width="0.5" stroke="black" fill="red"/>
  <circle cx="1168.7" cy="1112.58" r="6.10914" stroke-width="0.5" stroke="red" fill="red"/>
   </g>
   <g id="cell91">
  <circle cx="46.6399" cy="1282.58" r="10.4394" stroke-width="0.5" stroke="black" fill="red"/>
  <circle cx="46.6399" cy="1282.58" r="6.29673" stroke-width="0.5" stroke="red" fill="red"/>
   </g>
   <g id="cell99">
  <circle cx="940.716" cy="1983.98" r="8.44777" stroke-width="0.5" stroke="black" fill="red"/>
  <circle cx="940.716" cy="1983.98" r="5.09038" stroke-width="0.5" stroke="red" fill="red"/>
   </g>
   <g id="cell93">
  <circle cx="419.513" cy="1756.56" r="10.492" stroke-width="0.5" stroke="black" fill="red"/>
  <circle cx="419.513" cy="1756.56" r="6.32126" stroke-width="0.5" stroke="red" fill="red"/>
   </g>
   <g id="cell94">
  <circle cx="776.688" cy="217.934" r="10.475" stroke-width="0.5" stroke="black" fill="red"/>
  <circle cx="776.688" cy="217.934" r="6.3136" stroke-width="0.5" stroke="red" fill="red"/>
   </g>
   <g id="cell95">
  <circle cx="1947.02" cy="1781.91" r="10.516" stroke-width="0.5" stroke="black" fill="red"/>
  <circle cx="1947.02" cy="1781.91" r="6.33205" stroke-width="0.5" stroke="red" fill="red"/>
   </g>
   <g id="cell96">
  <circle cx="1698.53" cy="1066.2" r="9.26491" stroke-width="0.5" stroke="black" fill="red"/>
  <circle cx="1698.53" cy="1066.2" r="5.63286" stroke-width="0.5" stroke="red" fill="red"/>
   </g>
   <g id="cell97">
  <circle cx="900.485" cy="173.745" r="10.4943" stroke-width="0.5" stroke="black" fill="red"/>
  <circle cx="900.485" cy="173.745" r="6.32244" stroke-width="0.5" stroke="red" fill="red"/>
   </g>
   <g id="cell101">
  <circle cx="1342.17" cy="1261.2" r="8.37502" stroke-width="0.5" stroke="black" fill="grey"/>
  <circle cx="1342.17" cy="1261.2" r="5.03789" stroke-width="0.5" stroke="grey" fill="grey"/>
   </g>
   <g id="cell102">
  <circle cx="1065.64" cy="1749.51" r="10.4568" stroke-width="0.5" stroke="black" fill="grey"/>
  <circle cx="1065.64" cy="1749.51" r="6.30495" stroke-width="0.5" stroke="grey" fill="grey"/>
   </g>
   <g id="cell103">
  <circle cx="1247.65" cy="1247.74" r="8.36934" stroke-width="0.5" stroke="black" fill="red"/>
  <circle cx="1247.65" cy="1247.74" r="5.03554" stroke-width="0.5" stroke="red" fill="red"/>
   </g>
   <g id="cell104">
  <circle cx="792.678" cy="1866.19" r="8.37897" stroke-width="0.5" stroke="black" fill="grey"/>
  <circle cx="792.678" cy="1866.19" r="5.03951" stroke-width="0.5" stroke="grey" fill="grey"/>
   </g>
   <g id="cell105">
  <circle cx="1146.07" cy="782.82" r="8.37897" stroke-width="0.5" stroke="black" fill="grey"/>
  <circle cx="1146.07" cy="782.82" r="5.03951" stroke-width="0.5" stroke="grey" fill="grey"/>
   </g>
   <g id="cell106">
  <circle cx="444.034" cy="1741.69" r="10.5365" stroke-width="0.5" stroke="black" fill="red"/>
  <circle cx="444.034" cy="1741.69" r="6.34091" stroke-width="0.5" stroke="red" fill="red"/>
   </g>
   <g id="cell107">
  <circle cx="919.888" cy="1246.05" r="10.3868" stroke-width="0.5" stroke="black" fill="grey"/>
  <circle cx="919.888" cy="1246.05" r="6.27108" stroke-width="0.5" stroke="grey" fill="grey"/>
   </g>
   <g id="cell108">
  <circle cx="1771.74" cy="965.321" r="10.5184" stroke-width="0.5" stroke="black" fill="grey"/>
  <circle cx="1771.74" cy="965.321" r="6.33308" stroke-width="0.5" stroke="grey" fill="grey"/>
   </g>
   <g id="cell109">
  <circle cx="1758.53" cy="1174.87" r="10.3241" stroke-width="0.5" stroke="black" fill="red"/>
  <circle cx="1758.53" cy="1174.87" r="6.23958" stroke-width="0.5" stroke="red" fill="red"/>
   </g>
   <g id="cell110">
  <circle cx="991.519" cy="1966.66" r="10.354" stroke-width="0.5" stroke="black" fill="red"/>
  <circle cx="991.519" cy="1966.66" r="6.25471" stroke-width="0.5" stroke="red" fill="red"/>
   </g>
   <g id="cell111">
  <circle cx="1933.17" cy="1762.84" r="9.47362" stroke-width="0.5" stroke="black" fill="red"/>
  <circle cx="1933.17" cy="1762.84" r="5.75857" stroke-width="0.5" stroke="red" fill="red"/>
   </g>
   <g id="cell112">
  <circle cx="997.641" cy="1073.9" r="10.5346" stroke-width="0.5" stroke="black" fill="red"/>
  <circle cx="997.641" cy="1073.9" r="6.34013" stroke-width="0.5" stroke="red" fill="red"/>
   </g>
   <g id="cell113">
  <circle cx="697.615" cy="221.112" r="10.506" stroke-width="0.5" stroke="black" fill="grey"/>
  <circle cx="697.615" cy="221.112" r="6.32763" stroke-width="0.5" stroke="grey" fill="grey"/>
   </g>
   <g id="cell114">
  <circle cx="628.257" cy="1237.54" r="8.4118" stroke-width="0.5" stroke="black" fill="grey"/>
  <circle cx="628.257" cy="1237.54" r="5.05145" stroke-width="0.5" stroke="grey" fill="grey"/>
   </g>
   <g id="cell115">
  <circle cx="1721.98" cy="1938.49" r="10.4856" stroke-width="0.5" stroke="black" fill="grey"/>
  <circle cx="1721.98" cy="1938.49" r="6.31838" stroke-width="0.5" stroke="grey" fill="grey"/>
   </g>
   <g id="cell116">
  <circle cx="284.293" cy="692.728" r="9.98157" stroke-width="0.5" stroke="black" fill="grey"/>
  <circle cx="284.293" cy="692.728" r="6.05499" stroke-width="0.5" stroke="grey" fill="grey"/>
   </g>
   <g id="cell117">
  <circle cx="1905.59" cy="1582.89" r="10.5183" stroke-width="0.5" stroke="black" fill="grey"/>
  <circle cx="1905.59" cy="1582.89" r="6.33305" stroke-width="0.5" stroke="grey" fill="grey"/>
   </g>
   <g id="cell118">
  <circle cx="1324.36" cy="868.618" r="10.1367" stroke-width="0.5" stroke="black" fill="red"/>
  <circle cx="1324.36" cy="868.618" r="6.14067" stroke-width="0.5" stroke="red" fill="red"/>
   </g>
   <g id="cell119">
  <circle cx="1268.57" cy="832.096" r="10.4525" stroke-width="0.5" stroke="black" fill="red"/>
  <circle cx="1268.57" cy="832.096" r="6.30297" stroke-width="0.5" stroke="red" fill="red"/>
   </g>
   <g id="cell120">
  <circle cx="735.636" cy="1661.41" r="10.479" stroke-width="0.5" stroke="black" fill="grey"/>
  <circle cx="735.636" cy="1661.41" r="6.31533" stroke-width="0.5" stroke="grey" fill="grey"/>
   </g>
   <g id="cell121">
  <circle cx="472.757" cy="887.756" r="10.5111" stroke-width="0.5" stroke="black" fill="grey"/>
  <circle cx="472.757" cy="887.756" r="6.32989" stroke-width="0.5" stroke="grey" fill="grey"/>
   </g>
   <g id="cell122">
  <circle cx="1914.95" cy="248.274" r="10.4682" stroke-width="0.5" stroke="black" fill="grey"/>
  <circle cx="1914.95" cy="248.274" r="6.31036" stroke-width="0.5" stroke="grey" fill="grey"/>
   </g>
   <g id="cell123">
  <circle cx="62.3969" cy="1244.18" r="10.5159" stroke-width="0.5" stroke="black" fill="red"/>
  <circle cx="62.3969" cy="1244.18" r="6.33201" stroke-width="0.5" stroke="red" fill="red"/>
   </g>
   <g id="cell124">
  <circle cx="1385.53" cy="1785.43" r="10.5268" stroke-width="0.5" stroke="black" fill="red"/>
  <circle cx="1385.53" cy="1785.43" r="6.33679" stroke-width="0.5" stroke="red" fill="red"/>
   </g>
   <g id="cell125">
  <circle cx="1440.66" cy="1359.41" r="10.4482" stroke-width="0.5" stroke="black" fill="red"/>
  <circle cx="1440.66" cy="1359.41" r="6.30093" stroke-width="0.5" stroke="red" fill="red"/>
   </g>
   <g id="cell126">
  <circle cx="1210.44" cy="802.246" r="10.4822" stroke-width="0.5" stroke="black" fill="red"/>
  <circle cx="1210.44" cy="802.246" r="6.31684" stroke-width="0.5" stroke="red" fill="red"/>
   </g>
   <g id="cell127">
  <circle cx="382.642" cy="1273.79" r="9.75105" stroke-width="0.5" stroke="black" fill="grey"/>
  <circle cx="382.642" cy="1273.79" r="5.92318" stroke-width="0.5" stroke="grey" fill="grey"/>
   </g>
   <g id="cell128">
  <circle cx="1729.43" cy="1212.79" r="9.99898" stroke-width="0.5" stroke="black" fill="grey"/>
  <circle cx="1729.43" cy="1212.79" r="6.0648" stroke-width="0.5" stroke="grey" fill="grey"/>
   </g>
   <g id="cell129">
  <circle cx="1665.69" cy="303.739" r="10.5267" stroke-width="0.5" stroke="black" fill="red"/>
  <circle cx="1665.69" cy="303.739" r="6.33676" stroke-width="0.5" stroke="red" fill="red"/>
   </g>
   <g id="cell130">
  <circle cx="237.68" cy="1102.52" r="10.5032" stroke-width="0.5" stroke="black" fill="red"/>
  <circle cx="237.68" cy="1102.52" r="6.32637" stroke-width="0.5" stroke="red" fill="red"/>
   </g>
   <g id="cell131">
  <circle cx="230.324" cy="1451.3" r="10.4392" stroke-width="0.5" stroke="black" fill="grey"/>
  <circle cx="230.324" cy="1451.3" r="6.29669" stroke-width="0.5" stroke="grey" fill="grey"/>
   </g>
   <g id="cell132">
  <circle cx="1971.64" cy="818.012" r="10.5084" stroke-width="0.5" stroke="black" fill="grey"/>
  <circle cx="1971.64" cy="818.012" r="6.32871" stroke-width="0.5" stroke="grey" fill="grey"/>
   </g>
   <g id="cell133">
  <circle cx="284.04" cy="164.132" r="10.4346" stroke-width="0.5" stroke="black" fill="red"/>
  <circle cx="284.04" cy="164.132" r="6.29447" stroke-width="0.5" stroke="red" fill="red"/>
   </g>
   <g id="cell134">
  <circle cx="1349.11" cy="182.952" r="10.5224" stroke-width="0.5" stroke="black" fill="grey"/>
  <circle cx="1349.11" cy="182.952" r="6.33492" stroke-width="0.5" stroke="grey" fill="grey"/>
   </g>
   <g id="cell135">
  <circle cx="190.066" cy="1957.66" r="10.4787" stroke-width="0.5" stroke="black" fill="grey"/>
  <circle cx="190.066" cy="1957.66" r="6.31526" stroke-width="0.5" stroke="grey" fill="grey"/>
   </g>
   <g id="cell136">
  <circle cx="1677.33" cy="1902.16" r="10.299" stroke-width="0.5" stroke="black" fill="red"/>
  <circle cx="1677.33" cy="1902.16" r="6.22675" stroke-width="0.5" stroke="red" fill="red"/>
   </g>
   <g id="cell137">
  <circle cx="761.181" cy="1793.05" r="10.4946" stroke-width="0.5" stroke="black" fill="red"/>
  <circle cx="761.181" cy="1793.05" r="6.32252" stroke-width="0.5" stroke="red" fill="red"/>
   </g>
   <g id="cell138">
  <circle cx="276.48" cy="1607.09" r="10.1496" stroke-width="0.5" stroke="black" fill="red"/>
  <circle cx="276.48" cy="1607.09" r="6.14773" stroke-width="0.5" stroke="red" fill="red"/>
   </g>
   <g id="cell139">
  <circle cx="1413.78" cy="1697.35" r="10.5157" stroke-width="0.5" stroke="black" fill="red"/>
  <circle cx="1413.78" cy="1697.35" r="6.33195" stroke-width="0.5" stroke="red" fill="red"/>
   </g>
   <g id="cell140">
  <circle cx="1580.77" cy="1022.59" r="10.4679" stroke-width="0.5" stroke="black" fill="grey"/>
  <circle cx="1580.77" cy="1022.59" r="6.31027" stroke-width="0.5" stroke="grey" fill="grey"/>
   </g>
   <g id="cell141">
  <circle cx="1687.11" cy="36.0698" r="10.4642" stroke-width="0.5" stroke="black" fill="grey"/>
  <circle cx="1687.11" cy="36.0698" r="6.30851" stroke-width="0.5" stroke="grey" fill="grey"/>
   </g>
   <g id="cell142">
  <circle cx="1428.14" cy="621.777" r="10.4146" stroke-width="0.5" stroke="black" fill="red"/>
  <circle cx="1428.14" cy="621.777" r="6.28483" stroke-width="0.5" stroke="red" fill="red"/>
   </g>
   <g id="cell143">
  <circle cx="645.263" cy="944.158" r="10.4751" stroke-width="0.5" stroke="black" fill="red"/>
  <circle cx="645.263" cy="944.158" r="6.31362" stroke-width="0.5" stroke="red" fill="red"/>
   </g>
   <g id="cell144">
  <circle cx="1213.22" cy="271.023" r="8.61272" stroke-width="0.5" stroke="black" fill="grey"/>
  <circle cx="1213.22" cy="271.023" r="5.2002" stroke-width="0.5" stroke="grey" fill="grey"/>
   </g>
   <g id="cell145">
  <circle cx="271.266" cy="1542.89" r="10.4248" stroke-width="0.5" stroke="black" fill="grey"/>
  <circle cx="271.266" cy="1542.89" r="6.28978" stroke-width="0.5" stroke="grey" fill="grey"/>
   </g>
   <g id="cell146">
  <circle cx="743.068" cy="192.142" r="10.1087" stroke-width="0.5" stroke="black" fill="red"/>
  <circle cx="743.068" cy="192.142" r="6.12553" stroke-width="0.5" stroke="red" fill="red"/>
   </g>
   <g id="cell147">
  <circle cx="1155.33" cy="1903.09" r="10.3072" stroke-width="0.5" stroke="black" fill="red"/>
  <circle cx="1155.33" cy="1903.09" r="6.23106" stroke-width="0.5" stroke="red" fill="red"/>
   </g>
   <g id="cell148">
  <circle cx="1171.65" cy="939.944" r="10.0485" stroke-width="0.5" stroke="black" fill="grey"/>
  <circle cx="1171.65" cy="939.944" r="6.09244" stroke-width="0.5" stroke="grey" fill="grey"/>
   </g>
   <g id="cell149">
  <circle cx="650.191" cy="71.2959" r="10.4851" stroke-width="0.5" stroke="black" fill="red"/>
  <circle cx="650.191" cy="71.2959" r="6.31823" stroke-width="0.5" stroke="red" fill="red"/>
   </g>
   <g id="cell150">
  <circle cx="1194.3" cy="1071.39" r="10.4478" stroke-width="0.5" stroke="black" fill="red"/>
  <circle cx="1194.3" cy="1071.39" r="6.30081" stroke-width="0.5" stroke="red" fill="red"/>
   </g>
   <g id="cell151">
  <circle cx="967.441" cy="197.096" r="9.19866" stroke-width="0.5" stroke="black" fill="red"/>
  <circle cx="967.441" cy="197.096" r="5.58979" stroke-width="0.5" stroke="red" fill="red"/>
   </g>
   <g id="cell152">
  <circle cx="1207.87" cy="1704.98" r="9.9809" stroke-width="0.5" stroke="black" fill="grey"/>
  <circle cx="1207.87" cy="1704.98" r="6.05479" stroke-width="0.5" stroke="grey" fill="grey"/>
   </g>
   <g id="cell153">
  <circle cx="933.235" cy="1484.57" r="10.367" stroke-width="0.5" stroke="black" fill="grey"/>
  <circle cx="933.235" cy="1484.57" r="6.26138" stroke-width="0.5" stroke="grey" fill="grey"/>
   </g>
   <g id="cell154">
  <circle cx="176.045" cy="834.268" r="4.0245" stroke-width="0.5" stroke="black" fill="red"/>
  <circle cx="176.045" cy="834.268" r="3.19356" stroke-width="0.5" stroke="black" fill="black"/>
   </g>
   <g id="cell155">
  <circle cx="588.535" cy="799.48" r="10.4388" stroke-width="0.5" stroke="black" fill="red"/>
  <circle cx="588.535" cy="799.48" r="6.29656" stroke-width="0.5" stroke="red" fill="red"/>
   </g>
   <g id="cell193">
  <circle cx="1379.7" cy="688.159" r="8.82313" stroke-width="0.5" stroke="black" fill="red"/>
  <circle cx="1379.7" cy="688.159" r="5.35363" stroke-width="0.5" stroke="red" fill="red"/>
   </g>
   <g id="cell157">
  <circle cx="1236.48" cy="1274.68" r="10.4476" stroke-width="0.5" stroke="black" fill="grey"/>
  <circle cx="1236.48" cy="1274.68" r="6.30075" stroke-width="0.5" stroke="grey" fill="grey"/>
   </g>
   <g id="cell158">
  <circle cx="1923.63" cy="1310.65" r="9.70038" stroke-width="0.5" stroke="black" fill="grey"/>
  <circle cx="1923.63" cy="1310.65" r="5.89379" stroke-width="0.5" stroke="grey" fill="grey"/>
   </g>
   <g id="cell159">
  <circle cx="69.367" cy="277.204" r="10.4386" stroke-width="0.5" stroke="black" fill="red"/>
  <circle cx="69.367" cy="277.204" r="6.29651" stroke-width="0.5" stroke="red" fill="red"/>
   </g>
   <g id="cell160">
  <circle cx="1955.21" cy="1501.08" r="10.2982" stroke-width="0.5" stroke="black" fill="red"/>
  <circle cx="1955.21" cy="1501.08" r="6.22653" stroke-width="0.5" stroke="red" fill="red"/>
   </g>
   <g id="cell161">
  <circle cx="1809.39" cy="664.099" r="10.3856" stroke-width="0.5" stroke="black" fill="red"/>
  <circle cx="1809.39" cy="664.099" r="6.27074" stroke-width="0.5" stroke="red" fill="red"/>
   </g>
   <g id="cell162">
  <circle cx="1652.23" cy="750.761" r="8.41009" stroke-width="0.5" stroke="black" fill="red"/>
  <circle cx="1652.23" cy="750.761" r="5.05096" stroke-width="0.5" stroke="red" fill="red"/>
   </g>
   <g id="cell196">
  <circle cx="1175.81" cy="766.664" r="8.37897" stroke-width="0.5" stroke="black" fill="grey"/>
  <circle cx="1175.81" cy="766.664" r="5.03951" stroke-width="0.5" stroke="grey" fill="grey"/>
   </g>
   <g id="cell164">
  <circle cx="832.388" cy="533.243" r="10.3596" stroke-width="0.5" stroke="black" fill="red"/>
  <circle cx="832.388" cy="533.243" r="6.25783" stroke-width="0.5" stroke="red" fill="red"/>
   </g>
   <g id="cell165">
  <circle cx="1598.61" cy="164.565" r="9.99788" stroke-width="0.5" stroke="black" fill="grey"/>
  <circle cx="1598.61" cy="164.565" r="6.06446" stroke-width="0.5" stroke="grey" fill="grey"/>
   </g>
   <g id="cell166">
  <circle cx="1391.84" cy="367.201" r="10.3854" stroke-width="0.5" stroke="black" fill="grey"/>
  <circle cx="1391.84" cy="367.201" r="6.27068" stroke-width="0.5" stroke="grey" fill="grey"/>
   </g>
   <g id="cell167">
  <circle cx="1667.35" cy="268.264" r="9.67388" stroke-width="0.5" stroke="black" fill="grey"/>
  <circle cx="1667.35" cy="268.264" r="5.87837" stroke-width="0.5" stroke="grey" fill="grey"/>
   </g>
   <g id="cell168">
  <circle cx="689.004" cy="1217.34" r="8.40961" stroke-width="0.5" stroke="black" fill="grey"/>
  <circle cx="689.004" cy="1217.34" r="5.05081" stroke-width="0.5" stroke="grey" fill="grey"/>
   </g>
   <g id="cell169">
  <circle cx="1955.67" cy="122.036" r="10.3146" stroke-width="0.5" stroke="black" fill="grey"/>
  <circle cx="1955.67" cy="122.036" r="6.23502" stroke-width="0.5" stroke="grey" fill="grey"/>
   </g>
   <g id="cell170">
  <circle cx="95.9802" cy="1886.85" r="9.27013" stroke-width="0.5" stroke="black" fill="grey"/>
  <circle cx="95.9802" cy="1886.85" r="5.6347" stroke-width="0.5" stroke="grey" fill="grey"/>
   </g>
   <g id="cell171">
  <circle cx="1134.59" cy="1098.52" r="10.1973" stroke-width="0.5" stroke="black" fill="red"/>
  <circle cx="1134.59" cy="1098.52" r="6.17366" stroke-width="0.5" stroke="red" fill="red"/>
   </g>
   <g id="cell172">
  <circle cx="154.276" cy="1833.15" r="9.97956" stroke-width="0.5" stroke="black" fill="red"/>
  <circle cx="154.276" cy="1833.15" r="6.05437" stroke-width="0.5" stroke="red" fill="red"/>
   </g>
   <g id="cell173">
  <circle cx="530.35" cy="347.072" r="8.4085" stroke-width="0.5" stroke="black" fill="red"/>
  <circle cx="530.35" cy="347.072" r="5.05047" stroke-width="0.5" stroke="red" fill="red"/>
   </g>
   <g id="cell174">
  <circle cx="1453.49" cy="946.579" r="9.04339" stroke-width="0.5" stroke="black" fill="grey"/>
  <circle cx="1453.49" cy="946.579" r="5.49217" stroke-width="0.5" stroke="grey" fill="grey"/>
   </g>
   <g id="cell176">
  <circle cx="1141.53" cy="544.553" r="8.40731" stroke-width="0.5" stroke="black" fill="red"/>
  <circle cx="1141.53" cy="544.553" r="5.05008" stroke-width="0.5" stroke="red" fill="red"/>
   </g>
   <g id="cell177">
  <circle cx="1410.76" cy="1285.21" r="10.0446" stroke-width="0.5" stroke="black" fill="red"/>
  <circle cx="1410.76" cy="1285.21" r="6.09115" stroke-width="0.5" stroke="red" fill="red"/>
   </g>
   <g id="cell178">
  <circle cx="1505.2" cy="887.766" r="8.40516" stroke-width="0.5" stroke="black" fill="red"/>
  <circle cx="1505.2" cy="887.766" r="5.04937" stroke-width="0.5" stroke="red" fill="red"/>
   </g>
   <g id="cell179">
  <circle cx="1387.99" cy="891.84" r="10.0754" stroke-width="0.5" stroke="black" fill="grey"/>
  <circle cx="1387.99" cy="891.84" r="6.10818" stroke-width="0.5" stroke="grey" fill="grey"/>
   </g>
   <g id="cell180">
  <circle cx="1144.68" cy="565.788" r="8.40403" stroke-width="0.5" stroke="black" fill="red"/>
  <circle cx="1144.68" cy="565.788" r="5.04898" stroke-width="0.5" stroke="red" fill="red"/>
   </g>
   <g id="cell181">
  <circle cx="214.519" cy="1270.07" r="10.0105" stroke-width="0.5" stroke="black" fill="grey"/>
  <circle cx="214.519" cy="1270.07" r="6.07248" stroke-width="0.5" stroke="grey" fill="grey"/>
   </g>
   <g id="cell182">
  <circle cx="1664.16" cy="1071.31" r="8.42284" stroke-width="0.5" stroke="black" fill="red"/>
  <circle cx="1664.16" cy="1071.31" r="5.0625" stroke-width="0.5" stroke="red" fill="red"/>
   </g>
   <g id="cell183">
  <circle cx="590.719" cy="321.509" r="8.403" stroke-width="0.5" stroke="black" fill="grey"/>
  <circle cx="590.719" cy="321.509" r="5.04863" stroke-width="0.5" stroke="grey" fill="grey"/>
   </g>
   <g id="cell184">
  <circle cx="937.34" cy="522.451" r="9.66827" stroke-width="0.5" stroke="black" fill="grey"/>
  <circle cx="937.34" cy="522.451" r="5.87642" stroke-width="0.5" stroke="grey" fill="grey"/>
   </g>
   <g id="cell185">
  <circle cx="900.59" cy="563.959" r="9.19055" stroke-width="0.5" stroke="black" fill="grey"/>
  <circle cx="900.59" cy="563.959" r="5.58693" stroke-width="0.5" stroke="grey" fill="grey"/>
   </g>
   <g id="cell186">
  <circle cx="1147.16" cy="1724.46" r="9.2629" stroke-width="0.5" stroke="black" fill="red"/>
  <circle cx="1147.16" cy="1724.46" r="5.63211" stroke-width="0.5" stroke="red" fill="red"/>
   </g>
   <g id="cell187">
  <circle cx="1300.02" cy="414.117" r="9.79" stroke-width="0.5" stroke="black" fill="grey"/>
  <circle cx="1300.02" cy="414.117" r="5.94774" stroke-width="0.5" stroke="grey" fill="grey"/>
   </g>
   <g id="cell188">
  <circle cx="1984.26" cy="244.633" r="8.83163" stroke-width="0.5" stroke="black" fill="red"/>
  <circle cx="1984.26" cy="244.633" r="5.35703" stroke-width="0.5" stroke="red" fill="red"/>
   </g>
   <g id="cell189">
  <circle cx="1104.8" cy="282.892" r="8.43559" stroke-width="0.5" stroke="black" fill="grey"/>
  <circle cx="1104.8" cy="282.892" r="5.07595" stroke-width="0.5" stroke="grey" fill="grey"/>
   </g>
   <g id="cell190">
  <circle cx="21.8961" cy="973.722" r="8.38891" stroke-width="0.5" stroke="black" fill="red"/>
  <circle cx="21.8961" cy="973.722" r="5.0434" stroke-width="0.5" stroke="red" fill="red"/>
   </g>
   <g id="cell191">
  <circle cx="1534.68" cy="1676.1" r="8.38753" stroke-width="0.5" stroke="black" fill="grey"/>
  <circle cx="1534.68" cy="1676.1" r="5.04286" stroke-width="0.5" stroke="grey" fill="grey"/>
   </g>
   <g id="cell192">
  <circle cx="1971.65" cy="1323.69" r="8.45813" stroke-width="0.5" stroke="black" fill="grey"/>
  <circle cx="1971.65" cy="1323.69" r="5.09447" stroke-width="0.5" stroke="grey" fill="grey"/>
   </g>
   <g id="cell194">
  <circle cx="454.649" cy="1357.9" r="8.38118" stroke-width="0.5" stroke="black" fill="red"/>
  <circle cx="454.649" cy="1357.9" r="5.04034" stroke-width="0.5" stroke="red" fill="red"/>
   </g>
   <g id="cell195">
  <circle cx="781.941" cy="1875.98" r="8.69696" stroke-width="0.5" stroke="black" fill="grey"/>
  <circle cx="781.941" cy="1875.98" r="5.26967" stroke-width="0.5" stroke="grey" fill="grey"/>
   </g>
   <g id="cell197">
  <circle cx="917.907" cy="1983.32" r="8.377" stroke-width="0.5" stroke="black" fill="red"/>
  <circle cx="917.907" cy="1983.32" r="5.03871" stroke-width="0.5" stroke="red" fill="red"/>
   </g>
   <g id="cell198">
  <circle cx="1338.55" cy="1277.01" r="8.37502" stroke-width="0.5" stroke="black" fill="grey"/>
  <circle cx="1338.55" cy="1277.01" r="5.03789" stroke-width="0.5" stroke="grey" fill="grey"/>
   </g>
   <g id="cell199">
  <circle cx="1012.68" cy="1083.37" r="8.37387" stroke-width="0.5" stroke="black" fill="red"/>
  <circle cx="1012.68" cy="1083.37" r="5.03743" stroke-width="0.5" stroke="red" fill="red"/>
   </g>
   <g id="cell200">
  <circle cx="1754.82" cy="953.694" r="8.37168" stroke-width="0.5" stroke="black" fill="grey"/>
  <circle cx="1754.82" cy="953.694" r="5.03652" stroke-width="0.5" stroke="grey" fill="grey"/>
   </g>
   <g id="cell201">
  <circle cx="1250.75" cy="1266.25" r="8.36934" stroke-width="0.5" stroke="black" fill="red"/>
  <circle cx="1250.75" cy="1266.25" r="5.03554" stroke-width="0.5" stroke="red" fill="red"/>
   </g>
  </g>
 </g>
  <rect x="1750" y="2070" width="200" height="20" stroke-width="4" stroke="rgb(255,255,255)" fill="rgb(0,0,0)"/>
  <text x="1762.5" y="2057.5"
   font-family="Arial" font-size="50" fill="black" >
   200 &#956;m
  </text>
  <text x="50" y="2090"
   font-family="Arial" font-size="37.5" fill="black" >
   0 days, 0 hours, 0 minutes, and 42.4198 seconds
  </text>
  <rect x="0" y="140" width="2000" height="2000" stroke-width="4" stroke="rgb(0,0,0)" fill="none"/>
</svg>
