<?xml version="1.0" encoding="UTF-8" standalone="no"?>
<!-- Created with PhysiCell (http://PhysiCell.MathCancer.org/) -->
<svg 
 xmlns:dc="http://purl.org/dc/elements/1.1/" 
 xmlns:cc="http://creativecommons.org/ns#" 
 xmlns:rdf="http://www.w3.org/1999/02/22-rdf-syntax-ns#" 
 xmlns:svg="http://www.w3.org/2000/svg" 
 xmlns="http://www.w3.org/2000/svg" 
 version="1.1" 
 width="2000" 
 height="2140" 
 id="svg2">
  <rect x="0" y="0" width="2000" height="2140" stroke-width="4" stroke="white" fill="white"/>
  <text x="25" y="60"
   font-family="Arial" font-size="50" fill="black" >
   Current time: 0 days, 20 hours, and 0.00 minutes, z = 0.00 &#956;m
  </text>
  <text x="25" y="115"
   font-family="Arial" font-size="47.5" fill="black" >
   171 agents
  </text>
 <g id="tissue" 
    transform="translate(0,2140) scale(1,-1)">
  <g id="ECM">
  </g>
  <g id="cells">
   <g id="cell0">
  <circle cx="1075.16" cy="1181.47" r="8.38532" stroke-width="0.5" stroke="black" fill="grey"/>
  <circle cx="1075.16" cy="1181.47" r="5.04199" stroke-width="0.5" stroke="grey" fill="grey"/>
   </g>
   <g id="cell1">
  <circle cx="1682.38" cy="1180.88" r="8.47061" stroke-width="0.5" stroke="black" fill="grey"/>
  <circle cx="1682.38" cy="1180.88" r="5.09919" stroke-width="0.5" stroke="grey" fill="grey"/>
   </g>
   <g id="cell2">
  <circle cx="1098.44" cy="1740.93" r="9.61622" stroke-width="0.5" stroke="black" fill="grey"/>
  <circle cx="1098.44" cy="1740.93" r="5.84523" stroke-width="0.5" stroke="grey" fill="grey"/>
   </g>
   <g id="cell3">
  <circle cx="1239.6" cy="1324.71" r="8.39083" stroke-width="0.5" stroke="black" fill="grey"/>
  <circle cx="1239.6" cy="1324.71" r="5.04414" stroke-width="0.5" stroke="grey" fill="grey"/>
   </g>
   <g id="cell4">
  <circle cx="917.549" cy="543.613" r="10.4446" stroke-width="0.5" stroke="black" fill="grey"/>
  <circle cx="917.549" cy="543.613" r="6.29905" stroke-width="0.5" stroke="grey" fill="grey"/>
   </g>
   <g id="cell5">
  <circle cx="86.0569" cy="1923.08" r="8.6563" stroke-width="0.5" stroke="black" fill="grey"/>
  <circle cx="86.0569" cy="1923.08" r="5.24178" stroke-width="0.5" stroke="grey" fill="grey"/>
   </g>
   <g id="cell6">
  <circle cx="738.687" cy="899.743" r="10.5352" stroke-width="0.5" stroke="black" fill="grey"/>
  <circle cx="738.687" cy="899.743" r="6.34027" stroke-width="0.5" stroke="grey" fill="grey"/>
   </g>
   <g id="cell7">
  <circle cx="1566.22" cy="1068.04" r="8.46752" stroke-width="0.5" stroke="black" fill="grey"/>
  <circle cx="1566.22" cy="1068.04" r="5.09806" stroke-width="0.5" stroke="grey" fill="grey"/>
   </g>
   <g id="cell8">
  <circle cx="1136.34" cy="820.853" r="8.88116" stroke-width="0.5" stroke="black" fill="grey"/>
  <circle cx="1136.34" cy="820.853" r="5.38731" stroke-width="0.5" stroke="grey" fill="grey"/>
   </g>
   <g id="cell9">
  <circle cx="1630.59" cy="158.965" r="8.38373" stroke-width="0.5" stroke="black" fill="grey"/>
  <circle cx="1630.59" cy="158.965" r="5.04136" stroke-width="0.5" stroke="grey" fill="grey"/>
   </g>
   <g id="cell10">
  <circle cx="174.893" cy="1283.34" r="10.4761" stroke-width="0.5" stroke="black" fill="grey"/>
  <circle cx="174.893" cy="1283.34" r="6.31388" stroke-width="0.5" stroke="grey" fill="grey"/>
   </g>
   <g id="cell11">
  <circle cx="736.363" cy="1648.38" r="8.64183" stroke-width="0.5" stroke="black" fill="grey"/>
  <circle cx="736.363" cy="1648.38" r="5.22412" stroke-width="0.5" stroke="grey" fill="grey"/>
   </g>
   <g id="cell12">
  <circle cx="1623.95" cy="278.508" r="8.5499" stroke-width="0.5" stroke="black" fill="grey"/>
  <circle cx="1623.95" cy="278.508" r="5.16421" stroke-width="0.5" stroke="grey" fill="grey"/>
   </g>
   <g id="cell13">
  <circle cx="1765.69" cy="1886.79" r="8.91991" stroke-width="0.5" stroke="black" fill="grey"/>
  <circle cx="1765.69" cy="1886.79" r="5.4133" stroke-width="0.5" stroke="grey" fill="grey"/>
   </g>
   <g id="cell14">
  <circle cx="1568.26" cy="1656.02" r="10.2534" stroke-width="0.5" stroke="black" fill="grey"/>
  <circle cx="1568.26" cy="1656.02" r="6.2028" stroke-width="0.5" stroke="grey" fill="grey"/>
   </g>
   <g id="cell15">
  <circle cx="1037.02" cy="1540.54" r="8.39203" stroke-width="0.5" stroke="black" fill="grey"/>
  <circle cx="1037.02" cy="1540.54" r="5.0446" stroke-width="0.5" stroke="grey" fill="grey"/>
   </g>
   <g id="cell16">
  <circle cx="260.789" cy="1419.57" r="9.15137" stroke-width="0.5" stroke="black" fill="grey"/>
  <circle cx="260.789" cy="1419.57" r="5.56279" stroke-width="0.5" stroke="grey" fill="grey"/>
   </g>
   <g id="cell17">
  <circle cx="1173.98" cy="256.961" r="8.39618" stroke-width="0.5" stroke="black" fill="grey"/>
  <circle cx="1173.98" cy="256.961" r="5.04616" stroke-width="0.5" stroke="grey" fill="grey"/>
   </g>
   <g id="cell18">
  <circle cx="1873.99" cy="1551.82" r="8.42284" stroke-width="0.5" stroke="black" fill="grey"/>
  <circle cx="1873.99" cy="1551.82" r="5.0625" stroke-width="0.5" stroke="grey" fill="grey"/>
   </g>
   <g id="cell19">
  <circle cx="218.141" cy="890.791" r="9.59391" stroke-width="0.5" stroke="black" fill="grey"/>
  <circle cx="218.141" cy="890.791" r="5.83043" stroke-width="0.5" stroke="grey" fill="grey"/>
   </g>
   <g id="cell20">
  <circle cx="565.62" cy="342.549" r="10.4689" stroke-width="0.5" stroke="black" fill="grey"/>
  <circle cx="565.62" cy="342.549" r="6.31053" stroke-width="0.5" stroke="grey" fill="grey"/>
   </g>
   <g id="cell21">
  <circle cx="1455.81" cy="927.161" r="10.537" stroke-width="0.5" stroke="black" fill="grey"/>
  <circle cx="1455.81" cy="927.161" r="6.34103" stroke-width="0.5" stroke="grey" fill="grey"/>
   </g>
   <g id="cell22">
  <circle cx="1101.43" cy="256.257" r="10.3166" stroke-width="0.5" stroke="black" fill="grey"/>
  <circle cx="1101.43" cy="256.257" r="6.23561" stroke-width="0.5" stroke="grey" fill="grey"/>
   </g>
   <g id="cell23">
  <circle cx="641.8" cy="1243.18" r="1.55163" stroke-width="0.5" stroke="black" fill="grey"/>
  <circle cx="641.8" cy="1243.18" r="1.5447" stroke-width="0.5" stroke="black" fill="black"/>
   </g>
   <g id="cell24">
  <circle cx="1291.11" cy="417.596" r="10.4307" stroke-width="0.5" stroke="black" fill="grey"/>
  <circle cx="1291.11" cy="417.596" r="6.29241" stroke-width="0.5" stroke="grey" fill="grey"/>
   </g>
   <g id="cell25">
  <circle cx="797.207" cy="1875.71" r="9.5591" stroke-width="0.5" stroke="black" fill="grey"/>
  <circle cx="797.207" cy="1875.71" r="5.81131" stroke-width="0.5" stroke="grey" fill="grey"/>
   </g>
   <g id="cell26">
  <circle cx="1357.72" cy="884.889" r="10.4984" stroke-width="0.5" stroke="black" fill="grey"/>
  <circle cx="1357.72" cy="884.889" r="6.32406" stroke-width="0.5" stroke="grey" fill="grey"/>
   </g>
   <g id="cell27">
  <circle cx="1191.72" cy="896.138" r="9.46013" stroke-width="0.5" stroke="black" fill="grey"/>
  <circle cx="1191.72" cy="896.138" r="5.75372" stroke-width="0.5" stroke="grey" fill="grey"/>
   </g>
   <g id="cell28">
  <circle cx="1332.34" cy="147.329" r="8.75494" stroke-width="0.5" stroke="black" fill="grey"/>
  <circle cx="1332.34" cy="147.329" r="5.30416" stroke-width="0.5" stroke="grey" fill="grey"/>
   </g>
   <g id="cell29">
  <circle cx="1972.47" cy="1291.45" r="8.39021" stroke-width="0.5" stroke="black" fill="grey"/>
  <circle cx="1972.47" cy="1291.45" r="5.0439" stroke-width="0.5" stroke="grey" fill="grey"/>
   </g>
   <g id="cell30">
  <circle cx="1358.56" cy="379.885" r="8.38291" stroke-width="0.5" stroke="black" fill="grey"/>
  <circle cx="1358.56" cy="379.885" r="5.04103" stroke-width="0.5" stroke="grey" fill="grey"/>
   </g>
   <g id="cell31">
  <circle cx="688.425" cy="256.992" r="8.40353" stroke-width="0.5" stroke="black" fill="grey"/>
  <circle cx="688.425" cy="256.992" r="5.04881" stroke-width="0.5" stroke="grey" fill="grey"/>
   </g>
   <g id="cell32">
  <circle cx="613.758" cy="1222.74" r="9.61478" stroke-width="0.5" stroke="black" fill="grey"/>
  <circle cx="613.758" cy="1222.74" r="5.84471" stroke-width="0.5" stroke="grey" fill="grey"/>
   </g>
   <g id="cell33">
  <circle cx="688.233" cy="1170.75" r="8.451" stroke-width="0.5" stroke="black" fill="grey"/>
  <circle cx="688.233" cy="1170.75" r="5.09163" stroke-width="0.5" stroke="grey" fill="grey"/>
   </g>
   <g id="cell34">
  <circle cx="896.513" cy="1245.92" r="9.696" stroke-width="0.5" stroke="black" fill="grey"/>
  <circle cx="896.513" cy="1245.92" r="5.89231" stroke-width="0.5" stroke="grey" fill="grey"/>
   </g>
   <g id="cell35">
  <circle cx="1939.94" cy="205.816" r="9.87864" stroke-width="0.5" stroke="black" fill="grey"/>
  <circle cx="1939.94" cy="205.816" r="5.99835" stroke-width="0.5" stroke="grey" fill="grey"/>
   </g>
   <g id="cell36">
  <circle cx="379.231" cy="1284.11" r="8.40056" stroke-width="0.5" stroke="black" fill="grey"/>
  <circle cx="379.231" cy="1284.11" r="5.04776" stroke-width="0.5" stroke="grey" fill="grey"/>
   </g>
   <g id="cell37">
  <circle cx="1956.64" cy="1315.2" r="10.2534" stroke-width="0.5" stroke="black" fill="grey"/>
  <circle cx="1956.64" cy="1315.2" r="6.2028" stroke-width="0.5" stroke="grey" fill="grey"/>
   </g>
   <g id="cell38">
  <circle cx="461.83" cy="837.224" r="9.89918" stroke-width="0.5" stroke="black" fill="grey"/>
  <circle cx="461.83" cy="837.224" r="6.00999" stroke-width="0.5" stroke="grey" fill="grey"/>
   </g>
   <g id="cell39">
  <circle cx="921.653" cy="502.331" r="10.4613" stroke-width="0.5" stroke="black" fill="grey"/>
  <circle cx="921.653" cy="502.331" r="6.30695" stroke-width="0.5" stroke="grey" fill="grey"/>
   </g>
   <g id="cell40">
  <circle cx="281.568" cy="636.609" r="8.403" stroke-width="0.5" stroke="black" fill="grey"/>
  <circle cx="281.568" cy="636.609" r="5.04863" stroke-width="0.5" stroke="grey" fill="grey"/>
   </g>
   <g id="cell41">
  <circle cx="1333.41" cy="1288.2" r="8.40537" stroke-width="0.5" stroke="black" fill="grey"/>
  <circle cx="1333.41" cy="1288.2" r="5.04944" stroke-width="0.5" stroke="grey" fill="grey"/>
   </g>
   <g id="cell42">
  <circle cx="297.399" cy="1591.52" r="9.63681" stroke-width="0.5" stroke="black" fill="grey"/>
  <circle cx="297.399" cy="1591.52" r="5.85889" stroke-width="0.5" stroke="grey" fill="grey"/>
   </g>
   <g id="cell43">
  <circle cx="1931.11" cy="780.016" r="9.49467" stroke-width="0.5" stroke="black" fill="grey"/>
  <circle cx="1931.11" cy="780.016" r="5.77376" stroke-width="0.5" stroke="grey" fill="grey"/>
   </g>
   <g id="cell44">
  <circle cx="1664.59" cy="67.8203" r="8.39708" stroke-width="0.5" stroke="black" fill="grey"/>
  <circle cx="1664.59" cy="67.8203" r="5.0465" stroke-width="0.5" stroke="grey" fill="grey"/>
   </g>
   <g id="cell45">
  <circle cx="1254.04" cy="1713.84" r="8.39316" stroke-width="0.5" stroke="black" fill="grey"/>
  <circle cx="1254.04" cy="1713.84" r="5.04503" stroke-width="0.5" stroke="grey" fill="grey"/>
   </g>
   <g id="cell46">
  <circle cx="203.96" cy="1990.7" r="8.60092" stroke-width="0.5" stroke="black" fill="grey"/>
  <circle cx="203.96" cy="1990.7" r="5.19614" stroke-width="0.5" stroke="grey" fill="grey"/>
   </g>
   <g id="cell47">
  <circle cx="1739.81" cy="921.213" r="10.0278" stroke-width="0.5" stroke="black" fill="grey"/>
  <circle cx="1739.81" cy="921.213" r="6.08198" stroke-width="0.5" stroke="grey" fill="grey"/>
   </g>
   <g id="cell48">
  <circle cx="1955.57" cy="77.8834" r="8.48085" stroke-width="0.5" stroke="black" fill="grey"/>
  <circle cx="1955.57" cy="77.8834" r="5.11401" stroke-width="0.5" stroke="grey" fill="grey"/>
   </g>
   <g id="cell49">
  <circle cx="937.317" cy="1482.24" r="8.8706" stroke-width="0.5" stroke="black" fill="grey"/>
  <circle cx="937.317" cy="1482.24" r="5.38332" stroke-width="0.5" stroke="grey" fill="grey"/>
   </g>
   <g id="cell50">
  <circle cx="157.208" cy="855.442" r="9.25635" stroke-width="0.5" stroke="black" fill="red"/>
  <circle cx="157.208" cy="855.442" r="5.62957" stroke-width="0.5" stroke="red" fill="red"/>
   </g>
   <g id="cell51">
  <circle cx="1979.51" cy="272.591" r="10.3545" stroke-width="0.5" stroke="black" fill="red"/>
  <circle cx="1979.51" cy="272.591" r="6.25485" stroke-width="0.5" stroke="red" fill="red"/>
   </g>
   <g id="cell52">
  <circle cx="643.669" cy="1005.72" r="9.52271" stroke-width="0.5" stroke="black" fill="red"/>
  <circle cx="643.669" cy="1005.72" r="5.79108" stroke-width="0.5" stroke="red" fill="red"/>
   </g>
   <g id="cell53">
  <circle cx="1383.46" cy="631.96" r="10.2221" stroke-width="0.5" stroke="black" fill="red"/>
  <circle cx="1383.46" cy="631.96" r="6.18628" stroke-width="0.5" stroke="red" fill="red"/>
   </g>
   <g id="cell54">
  <circle cx="801.001" cy="1804.87" r="8.71494" stroke-width="0.5" stroke="black" fill="red"/>
  <circle cx="801.001" cy="1804.87" r="5.27677" stroke-width="0.5" stroke="red" fill="red"/>
   </g>
   <g id="cell55">
  <circle cx="428.044" cy="1319.71" r="10.1634" stroke-width="0.5" stroke="black" fill="red"/>
  <circle cx="428.044" cy="1319.71" r="6.1549" stroke-width="0.5" stroke="red" fill="red"/>
   </g>
   <g id="cell56">
  <circle cx="1166.98" cy="1700.27" r="10.4355" stroke-width="0.5" stroke="black" fill="red"/>
  <circle cx="1166.98" cy="1700.27" r="6.2947" stroke-width="0.5" stroke="red" fill="red"/>
   </g>
   <g id="cell57">
  <circle cx="959.416" cy="1091.17" r="10.0592" stroke-width="0.5" stroke="black" fill="red"/>
  <circle cx="959.416" cy="1091.17" r="6.09944" stroke-width="0.5" stroke="red" fill="red"/>
   </g>
   <g id="cell58">
  <circle cx="125.545" cy="1816.82" r="8.37321" stroke-width="0.5" stroke="black" fill="red"/>
  <circle cx="125.545" cy="1816.82" r="5.03708" stroke-width="0.5" stroke="red" fill="red"/>
   </g>
   <g id="cell98">
  <circle cx="1812.95" cy="677.249" r="8.38608" stroke-width="0.5" stroke="black" fill="red"/>
  <circle cx="1812.95" cy="677.249" r="5.04229" stroke-width="0.5" stroke="red" fill="red"/>
   </g>
   <g id="cell60">
  <circle cx="666.049" cy="34.0652" r="8.4141" stroke-width="0.5" stroke="black" fill="red"/>
  <circle cx="666.049" cy="34.0652" r="5.05932" stroke-width="0.5" stroke="red" fill="red"/>
   </g>
   <g id="cell61">
  <circle cx="1657.33" cy="277.717" r="8.39987" stroke-width="0.5" stroke="black" fill="red"/>
  <circle cx="1657.33" cy="277.717" r="5.04751" stroke-width="0.5" stroke="red" fill="red"/>
   </g>
   <g id="cell62">
  <circle cx="1426.48" cy="1715.4" r="9.55368" stroke-width="0.5" stroke="black" fill="red"/>
  <circle cx="1426.48" cy="1715.4" r="5.8093" stroke-width="0.5" stroke="red" fill="red"/>
   </g>
   <g id="cell63">
  <circle cx="571.132" cy="381.118" r="8.36849" stroke-width="0.5" stroke="black" fill="red"/>
  <circle cx="571.132" cy="381.118" r="5.03512" stroke-width="0.5" stroke="red" fill="red"/>
   </g>
   <g id="cell64">
  <circle cx="1204.96" cy="1100.65" r="8.39422" stroke-width="0.5" stroke="black" fill="red"/>
  <circle cx="1204.96" cy="1100.65" r="5.04543" stroke-width="0.5" stroke="red" fill="red"/>
   </g>
   <g id="cell65">
  <circle cx="301.05" cy="1645.91" r="8.39834" stroke-width="0.5" stroke="black" fill="red"/>
  <circle cx="301.05" cy="1645.91" r="5.04696" stroke-width="0.5" stroke="red" fill="red"/>
   </g>
   <g id="cell66">
  <circle cx="36.6101" cy="297.771" r="8.38957" stroke-width="0.5" stroke="black" fill="red"/>
  <circle cx="36.6101" cy="297.771" r="5.04365" stroke-width="0.5" stroke="red" fill="red"/>
   </g>
   <g id="cell67">
  <circle cx="1128.77" cy="548.21" r="10.5275" stroke-width="0.5" stroke="black" fill="red"/>
  <circle cx="1128.77" cy="548.21" r="6.33696" stroke-width="0.5" stroke="red" fill="red"/>
   </g>
   <g id="cell68">
  <circle cx="1405.94" cy="601.031" r="8.49683" stroke-width="0.5" stroke="black" fill="red"/>
  <circle cx="1405.94" cy="601.031" r="5.12026" stroke-width="0.5" stroke="red" fill="red"/>
   </g>
   <g id="cell69">
  <circle cx="805.688" cy="504.185" r="8.38373" stroke-width="0.5" stroke="black" fill="red"/>
  <circle cx="805.688" cy="504.185" r="5.04136" stroke-width="0.5" stroke="red" fill="red"/>
   </g>
   <g id="cell70">
  <circle cx="1114.77" cy="788.904" r="9.74288" stroke-width="0.5" stroke="black" fill="red"/>
  <circle cx="1114.77" cy="788.904" r="5.92037" stroke-width="0.5" stroke="red" fill="red"/>
   </g>
   <g id="cell71">
  <circle cx="1732.13" cy="1183.77" r="8.40427" stroke-width="0.5" stroke="black" fill="red"/>
  <circle cx="1732.13" cy="1183.77" r="5.04906" stroke-width="0.5" stroke="red" fill="red"/>
   </g>
   <g id="cell72">
  <circle cx="461.704" cy="1765.53" r="8.41271" stroke-width="0.5" stroke="black" fill="red"/>
  <circle cx="461.704" cy="1765.53" r="5.05167" stroke-width="0.5" stroke="red" fill="red"/>
   </g>
   <g id="cell73">
  <circle cx="1367.69" cy="862.722" r="9.81477" stroke-width="0.5" stroke="black" fill="red"/>
  <circle cx="1367.69" cy="862.722" r="5.96161" stroke-width="0.5" stroke="red" fill="red"/>
   </g>
   <g id="cell74">
  <circle cx="1735.02" cy="1856.54" r="8.39874" stroke-width="0.5" stroke="black" fill="red"/>
  <circle cx="1735.02" cy="1856.54" r="5.04711" stroke-width="0.5" stroke="red" fill="red"/>
   </g>
   <g id="cell75">
  <circle cx="270.118" cy="559.957" r="9.88629" stroke-width="0.5" stroke="black" fill="red"/>
  <circle cx="270.118" cy="559.957" r="6.00088" stroke-width="0.5" stroke="red" fill="red"/>
   </g>
   <g id="cell76">
  <circle cx="1623.77" cy="768.093" r="8.38532" stroke-width="0.5" stroke="black" fill="red"/>
  <circle cx="1623.77" cy="768.093" r="5.04199" stroke-width="0.5" stroke="red" fill="red"/>
   </g>
   <g id="cell77">
  <circle cx="1409.67" cy="1811.55" r="9.52688" stroke-width="0.5" stroke="black" fill="red"/>
  <circle cx="1409.67" cy="1811.55" r="5.79266" stroke-width="0.5" stroke="red" fill="red"/>
   </g>
   <g id="cell78">
  <circle cx="1156.56" cy="590.054" r="10.483" stroke-width="0.5" stroke="black" fill="red"/>
  <circle cx="1156.56" cy="590.054" r="6.31703" stroke-width="0.5" stroke="red" fill="red"/>
   </g>
   <g id="cell79">
  <circle cx="1973.73" cy="1436.74" r="8.38682" stroke-width="0.5" stroke="black" fill="red"/>
  <circle cx="1973.73" cy="1436.74" r="5.04258" stroke-width="0.5" stroke="red" fill="red"/>
   </g>
   <g id="cell80">
  <circle cx="1422.63" cy="1294.53" r="8.6401" stroke-width="0.5" stroke="black" fill="red"/>
  <circle cx="1422.63" cy="1294.53" r="5.2235" stroke-width="0.5" stroke="red" fill="red"/>
   </g>
   <g id="cell81">
  <circle cx="1130.99" cy="1924.99" r="8.39473" stroke-width="0.5" stroke="black" fill="red"/>
  <circle cx="1130.99" cy="1924.99" r="5.04562" stroke-width="0.5" stroke="red" fill="red"/>
   </g>
   <g id="cell82">
  <circle cx="1253.02" cy="819.168" r="8.71901" stroke-width="0.5" stroke="black" fill="red"/>
  <circle cx="1253.02" cy="819.168" r="5.27828" stroke-width="0.5" stroke="red" fill="red"/>
   </g>
   <g id="cell83">
  <circle cx="1235.92" cy="1210.96" r="8.40494" stroke-width="0.5" stroke="black" fill="red"/>
  <circle cx="1235.92" cy="1210.96" r="5.04929" stroke-width="0.5" stroke="red" fill="red"/>
   </g>
   <g id="cell84">
  <circle cx="14.0254" cy="923.841" r="10.2728" stroke-width="0.5" stroke="black" fill="red"/>
  <circle cx="14.0254" cy="923.841" r="6.21295" stroke-width="0.5" stroke="red" fill="red"/>
   </g>
   <g id="cell85">
  <circle cx="1414.91" cy="1263.9" r="10.5012" stroke-width="0.5" stroke="black" fill="red"/>
  <circle cx="1414.91" cy="1263.9" r="6.32534" stroke-width="0.5" stroke="red" fill="red"/>
   </g>
   <g id="cell86">
  <circle cx="592.69" cy="817.526" r="8.39203" stroke-width="0.5" stroke="black" fill="red"/>
  <circle cx="592.69" cy="817.526" r="5.0446" stroke-width="0.5" stroke="red" fill="red"/>
   </g>
   <g id="cell87">
  <circle cx="1457.55" cy="889.884" r="10.4984" stroke-width="0.5" stroke="black" fill="red"/>
  <circle cx="1457.55" cy="889.884" r="6.32406" stroke-width="0.5" stroke="red" fill="red"/>
   </g>
   <g id="cell88">
  <circle cx="262.337" cy="235.277" r="8.39874" stroke-width="0.5" stroke="black" fill="red"/>
  <circle cx="262.337" cy="235.277" r="5.04711" stroke-width="0.5" stroke="red" fill="red"/>
   </g>
   <g id="cell89">
  <circle cx="184.004" cy="1164.47" r="8.39987" stroke-width="0.5" stroke="black" fill="red"/>
  <circle cx="184.004" cy="1164.47" r="5.04751" stroke-width="0.5" stroke="red" fill="red"/>
   </g>
   <g id="cell90">
  <circle cx="1170.91" cy="1123.94" r="8.37641" stroke-width="0.5" stroke="black" fill="red"/>
  <circle cx="1170.91" cy="1123.94" r="5.0384" stroke-width="0.5" stroke="red" fill="red"/>
   </g>
   <g id="cell91">
  <circle cx="66.0617" cy="1271.6" r="8.87811" stroke-width="0.5" stroke="black" fill="red"/>
  <circle cx="66.0617" cy="1271.6" r="5.3862" stroke-width="0.5" stroke="red" fill="red"/>
   </g>
   <g id="cell99">
  <circle cx="951.322" cy="1978.96" r="10.1038" stroke-width="0.5" stroke="black" fill="red"/>
  <circle cx="951.322" cy="1978.96" r="6.12392" stroke-width="0.5" stroke="red" fill="red"/>
   </g>
   <g id="cell93">
  <circle cx="411.053" cy="1777.18" r="9.40369" stroke-width="0.5" stroke="black" fill="red"/>
  <circle cx="411.053" cy="1777.18" r="5.71771" stroke-width="0.5" stroke="red" fill="red"/>
   </g>
   <g id="cell94">
  <circle cx="786.276" cy="216.356" r="9.22236" stroke-width="0.5" stroke="black" fill="red"/>
  <circle cx="786.276" cy="216.356" r="5.60798" stroke-width="0.5" stroke="red" fill="red"/>
   </g>
   <g id="cell95">
  <circle cx="1981.04" cy="1773.61" r="9.66928" stroke-width="0.5" stroke="black" fill="red"/>
  <circle cx="1981.04" cy="1773.61" r="5.87678" stroke-width="0.5" stroke="red" fill="red"/>
   </g>
   <g id="cell96">
  <circle cx="1696.2" cy="1087.1" r="10.4689" stroke-width="0.5" stroke="black" fill="red"/>
  <circle cx="1696.2" cy="1087.1" r="6.31053" stroke-width="0.5" stroke="red" fill="red"/>
   </g>
   <g id="cell97">
  <circle cx="924.799" cy="175.014" r="9.42789" stroke-width="0.5" stroke="black" fill="red"/>
  <circle cx="924.799" cy="175.014" r="5.73431" stroke-width="0.5" stroke="red" fill="red"/>
   </g>
   <g id="cell101">
  <circle cx="1322.62" cy="1254.34" r="10.0755" stroke-width="0.5" stroke="black" fill="grey"/>
  <circle cx="1322.62" cy="1254.34" r="6.10823" stroke-width="0.5" stroke="grey" fill="grey"/>
   </g>
   <g id="cell102">
  <circle cx="1067.81" cy="1797.4" r="9.04092" stroke-width="0.5" stroke="black" fill="grey"/>
  <circle cx="1067.81" cy="1797.4" r="5.4913" stroke-width="0.5" stroke="grey" fill="grey"/>
   </g>
   <g id="cell103">
  <circle cx="1222.93" cy="1270.54" r="9.99434" stroke-width="0.5" stroke="black" fill="red"/>
  <circle cx="1222.93" cy="1270.54" r="6.06328" stroke-width="0.5" stroke="red" fill="red"/>
   </g>
   <g id="cell104">
  <circle cx="780.111" cy="1867.37" r="10.132" stroke-width="0.5" stroke="black" fill="grey"/>
  <circle cx="780.111" cy="1867.37" r="6.13916" stroke-width="0.5" stroke="grey" fill="grey"/>
   </g>
   <g id="cell105">
  <circle cx="1150.38" cy="810.891" r="10.132" stroke-width="0.5" stroke="black" fill="grey"/>
  <circle cx="1150.38" cy="810.891" r="6.13916" stroke-width="0.5" stroke="grey" fill="grey"/>
   </g>
   <g id="cell106">
  <circle cx="432.212" cy="1774.26" r="9.90082" stroke-width="0.5" stroke="black" fill="red"/>
  <circle cx="432.212" cy="1774.26" r="6.01058" stroke-width="0.5" stroke="red" fill="red"/>
   </g>
   <g id="cell107">
  <circle cx="931.017" cy="1245.89" r="8.50472" stroke-width="0.5" stroke="black" fill="grey"/>
  <circle cx="931.017" cy="1245.89" r="5.1231" stroke-width="0.5" stroke="grey" fill="grey"/>
   </g>
   <g id="cell108">
  <circle cx="1767.52" cy="939.94" r="9.69583" stroke-width="0.5" stroke="black" fill="grey"/>
  <circle cx="1767.52" cy="939.94" r="5.89225" stroke-width="0.5" stroke="grey" fill="grey"/>
   </g>
   <g id="cell109">
  <circle cx="1733.63" cy="1204.98" r="8.40427" stroke-width="0.5" stroke="black" fill="red"/>
  <circle cx="1733.63" cy="1204.98" r="5.04906" stroke-width="0.5" stroke="red" fill="red"/>
   </g>
   <g id="cell110">
  <circle cx="996.358" cy="1964.56" r="8.40403" stroke-width="0.5" stroke="black" fill="red"/>
  <circle cx="996.358" cy="1964.56" r="5.04898" stroke-width="0.5" stroke="red" fill="red"/>
   </g>
   <g id="cell111">
  <circle cx="1964.25" cy="1750.4" r="8.40378" stroke-width="0.5" stroke="black" fill="red"/>
  <circle cx="1964.25" cy="1750.4" r="5.0489" stroke-width="0.5" stroke="red" fill="red"/>
   </g>
   <g id="cell112">
  <circle cx="1002.55" cy="1056.94" r="9.87982" stroke-width="0.5" stroke="black" fill="red"/>
  <circle cx="1002.55" cy="1056.94" r="5.99877" stroke-width="0.5" stroke="red" fill="red"/>
   </g>
   <g id="cell113">
  <circle cx="696.521" cy="178.735" r="9.558" stroke-width="0.5" stroke="black" fill="grey"/>
  <circle cx="696.521" cy="178.735" r="5.81091" stroke-width="0.5" stroke="grey" fill="grey"/>
   </g>
   <g id="cell114">
  <circle cx="626.345" cy="1232.65" r="8.40327" stroke-width="0.5" stroke="black" fill="grey"/>
  <circle cx="626.345" cy="1232.65" r="5.04872" stroke-width="0.5" stroke="grey" fill="grey"/>
   </g>
   <g id="cell115">
  <circle cx="1732.96" cy="1928.73" r="9.33526" stroke-width="0.5" stroke="black" fill="grey"/>
  <circle cx="1732.96" cy="1928.73" r="5.67618" stroke-width="0.5" stroke="grey" fill="grey"/>
   </g>
   <g id="cell116">
  <circle cx="313.867" cy="692.087" r="8.403" stroke-width="0.5" stroke="black" fill="grey"/>
  <circle cx="313.867" cy="692.087" r="5.04863" stroke-width="0.5" stroke="grey" fill="grey"/>
   </g>
   <g id="cell117">
  <circle cx="1894.74" cy="1561.69" r="9.69471" stroke-width="0.5" stroke="black" fill="grey"/>
  <circle cx="1894.74" cy="1561.69" r="5.89184" stroke-width="0.5" stroke="grey" fill="grey"/>
   </g>
   <g id="cell118">
  <circle cx="1321.93" cy="865.412" r="8.403" stroke-width="0.5" stroke="black" fill="red"/>
  <circle cx="1321.93" cy="865.412" r="5.04863" stroke-width="0.5" stroke="red" fill="red"/>
   </g>
   <g id="cell119">
  <circle cx="1271.34" cy="824.01" r="8.99935" stroke-width="0.5" stroke="black" fill="red"/>
  <circle cx="1271.34" cy="824.01" r="5.46514" stroke-width="0.5" stroke="red" fill="red"/>
   </g>
   <g id="cell120">
  <circle cx="728.856" cy="1663.5" r="9.26468" stroke-width="0.5" stroke="black" fill="grey"/>
  <circle cx="728.856" cy="1663.5" r="5.63277" stroke-width="0.5" stroke="grey" fill="grey"/>
   </g>
   <g id="cell121">
  <circle cx="436.307" cy="880.89" r="9.61415" stroke-width="0.5" stroke="black" fill="grey"/>
  <circle cx="436.307" cy="880.89" r="5.84448" stroke-width="0.5" stroke="grey" fill="grey"/>
   </g>
   <g id="cell122">
  <circle cx="1928.95" cy="253.027" r="9.15391" stroke-width="0.5" stroke="black" fill="grey"/>
  <circle cx="1928.95" cy="253.027" r="5.56375" stroke-width="0.5" stroke="grey" fill="grey"/>
   </g>
   <g id="cell123">
  <circle cx="83.7376" cy="1261.69" r="9.66759" stroke-width="0.5" stroke="black" fill="red"/>
  <circle cx="83.7376" cy="1261.69" r="5.87617" stroke-width="0.5" stroke="red" fill="red"/>
   </g>
   <g id="cell124">
  <circle cx="1387.09" cy="1818.61" r="9.79097" stroke-width="0.5" stroke="black" fill="red"/>
  <circle cx="1387.09" cy="1818.61" r="5.9481" stroke-width="0.5" stroke="red" fill="red"/>
   </g>
   <g id="cell125">
  <circle cx="1448.42" cy="1305.26" r="8.95792" stroke-width="0.5" stroke="black" fill="red"/>
  <circle cx="1448.42" cy="1305.26" r="5.43873" stroke-width="0.5" stroke="red" fill="red"/>
   </g>
   <g id="cell126">
  <circle cx="1172.75" cy="789.308" r="9.29834" stroke-width="0.5" stroke="black" fill="red"/>
  <circle cx="1172.75" cy="789.308" r="5.65401" stroke-width="0.5" stroke="red" fill="red"/>
   </g>
   <g id="cell127">
  <circle cx="392.287" cy="1281.26" r="8.40056" stroke-width="0.5" stroke="black" fill="grey"/>
  <circle cx="392.287" cy="1281.26" r="5.04776" stroke-width="0.5" stroke="grey" fill="grey"/>
   </g>
   <g id="cell128">
  <circle cx="1672.02" cy="1219.15" r="8.40022" stroke-width="0.5" stroke="black" fill="grey"/>
  <circle cx="1672.02" cy="1219.15" r="5.04764" stroke-width="0.5" stroke="grey" fill="grey"/>
   </g>
   <g id="cell129">
  <circle cx="1668.89" cy="299.4" r="9.78974" stroke-width="0.5" stroke="black" fill="red"/>
  <circle cx="1668.89" cy="299.4" r="5.94765" stroke-width="0.5" stroke="red" fill="red"/>
   </g>
   <g id="cell130">
  <circle cx="232.207" cy="1171.73" r="9.52558" stroke-width="0.5" stroke="black" fill="red"/>
  <circle cx="232.207" cy="1171.73" r="5.79218" stroke-width="0.5" stroke="red" fill="red"/>
   </g>
   <g id="cell131">
  <circle cx="245.354" cy="1452.29" r="8.87595" stroke-width="0.5" stroke="black" fill="grey"/>
  <circle cx="245.354" cy="1452.29" r="5.38538" stroke-width="0.5" stroke="grey" fill="grey"/>
   </g>
   <g id="cell132">
  <circle cx="1961.28" cy="789.002" r="9.58347" stroke-width="0.5" stroke="black" fill="grey"/>
  <circle cx="1961.28" cy="789.002" r="5.82684" stroke-width="0.5" stroke="grey" fill="grey"/>
   </g>
   <g id="cell133">
  <circle cx="253.972" cy="190.376" r="8.83525" stroke-width="0.5" stroke="black" fill="red"/>
  <circle cx="253.972" cy="190.376" r="5.35842" stroke-width="0.5" stroke="red" fill="red"/>
   </g>
   <g id="cell134">
  <circle cx="1363.06" cy="165.716" r="9.74153" stroke-width="0.5" stroke="black" fill="grey"/>
  <circle cx="1363.06" cy="165.716" r="5.91986" stroke-width="0.5" stroke="grey" fill="grey"/>
   </g>
   <g id="cell135">
  <circle cx="174.713" cy="1956.25" r="9.2614" stroke-width="0.5" stroke="black" fill="grey"/>
  <circle cx="174.713" cy="1956.25" r="5.63154" stroke-width="0.5" stroke="grey" fill="grey"/>
   </g>
   <g id="cell136">
  <circle cx="1695.04" cy="1895.25" r="8.39874" stroke-width="0.5" stroke="black" fill="red"/>
  <circle cx="1695.04" cy="1895.25" r="5.04711" stroke-width="0.5" stroke="red" fill="red"/>
   </g>
   <g id="cell137">
  <circle cx="779.676" cy="1832.31" r="9.43116" stroke-width="0.5" stroke="black" fill="red"/>
  <circle cx="779.676" cy="1832.31" r="5.73558" stroke-width="0.5" stroke="red" fill="red"/>
   </g>
   <g id="cell138">
  <circle cx="310.55" cy="1618.37" r="8.39834" stroke-width="0.5" stroke="black" fill="red"/>
  <circle cx="310.55" cy="1618.37" r="5.04696" stroke-width="0.5" stroke="red" fill="red"/>
   </g>
   <g id="cell139">
  <circle cx="1415.26" cy="1670.64" r="9.66487" stroke-width="0.5" stroke="black" fill="red"/>
  <circle cx="1415.26" cy="1670.64" r="5.87515" stroke-width="0.5" stroke="red" fill="red"/>
   </g>
   <g id="cell140">
  <circle cx="1583.32" cy="1024.28" r="9.14965" stroke-width="0.5" stroke="black" fill="grey"/>
  <circle cx="1583.32" cy="1024.28" r="5.56213" stroke-width="0.5" stroke="grey" fill="grey"/>
   </g>
   <g id="cell141">
  <circle cx="1664.9" cy="38.5378" r="9.11161" stroke-width="0.5" stroke="black" fill="grey"/>
  <circle cx="1664.9" cy="38.5378" r="5.53814" stroke-width="0.5" stroke="grey" fill="grey"/>
   </g>
   <g id="cell142">
  <circle cx="1428.38" cy="629.148" r="8.6743" stroke-width="0.5" stroke="black" fill="red"/>
  <circle cx="1428.38" cy="629.148" r="5.24898" stroke-width="0.5" stroke="red" fill="red"/>
   </g>
   <g id="cell143">
  <circle cx="606.875" cy="946.907" r="9.22315" stroke-width="0.5" stroke="black" fill="red"/>
  <circle cx="606.875" cy="946.907" r="5.60829" stroke-width="0.5" stroke="red" fill="red"/>
   </g>
   <g id="cell144">
  <circle cx="1195.01" cy="256.101" r="8.39618" stroke-width="0.5" stroke="black" fill="grey"/>
  <circle cx="1195.01" cy="256.101" r="5.04616" stroke-width="0.5" stroke="grey" fill="grey"/>
   </g>
   <g id="cell145">
  <circle cx="267.781" cy="1539.97" r="8.75259" stroke-width="0.5" stroke="black" fill="grey"/>
  <circle cx="267.781" cy="1539.97" r="5.30326" stroke-width="0.5" stroke="grey" fill="grey"/>
   </g>
   <g id="cell146">
  <circle cx="746.663" cy="179.263" r="8.39523" stroke-width="0.5" stroke="black" fill="red"/>
  <circle cx="746.663" cy="179.263" r="5.04581" stroke-width="0.5" stroke="red" fill="red"/>
   </g>
   <g id="cell147">
  <circle cx="1128.85" cy="1879.66" r="8.39473" stroke-width="0.5" stroke="black" fill="red"/>
  <circle cx="1128.85" cy="1879.66" r="5.04562" stroke-width="0.5" stroke="red" fill="red"/>
   </g>
   <g id="cell148">
  <circle cx="1198.15" cy="917.787" r="8.39473" stroke-width="0.5" stroke="black" fill="grey"/>
  <circle cx="1198.15" cy="917.787" r="5.04562" stroke-width="0.5" stroke="grey" fill="grey"/>
   </g>
   <g id="cell149">
  <circle cx="661.383" cy="49.402" r="9.32794" stroke-width="0.5" stroke="black" fill="red"/>
  <circle cx="661.383" cy="49.402" r="5.67339" stroke-width="0.5" stroke="red" fill="red"/>
   </g>
   <g id="cell150">
  <circle cx="1193.91" cy="1085.6" r="8.95205" stroke-width="0.5" stroke="black" fill="red"/>
  <circle cx="1193.91" cy="1085.6" r="5.43647" stroke-width="0.5" stroke="red" fill="red"/>
   </g>
   <g id="cell151">
  <circle cx="938.412" cy="195.844" r="8.39422" stroke-width="0.5" stroke="black" fill="red"/>
  <circle cx="938.412" cy="195.844" r="5.04543" stroke-width="0.5" stroke="red" fill="red"/>
   </g>
   <g id="cell152">
  <circle cx="1221.6" cy="1708.22" r="8.39316" stroke-width="0.5" stroke="black" fill="grey"/>
  <circle cx="1221.6" cy="1708.22" r="5.04503" stroke-width="0.5" stroke="grey" fill="grey"/>
   </g>
   <g id="cell153">
  <circle cx="924.131" cy="1488.25" r="8.41304" stroke-width="0.5" stroke="black" fill="grey"/>
  <circle cx="924.131" cy="1488.25" r="5.05892" stroke-width="0.5" stroke="grey" fill="grey"/>
   </g>
   <g id="cell154">
  <circle cx="181.929" cy="826.257" r="8.3926" stroke-width="0.5" stroke="black" fill="red"/>
  <circle cx="181.929" cy="826.257" r="5.04482" stroke-width="0.5" stroke="red" fill="red"/>
   </g>
   <g id="cell155">
  <circle cx="557.194" cy="797.821" r="8.86959" stroke-width="0.5" stroke="black" fill="red"/>
  <circle cx="557.194" cy="797.821" r="5.38292" stroke-width="0.5" stroke="red" fill="red"/>
   </g>
   <g id="cell156">
  <circle cx="1054.54" cy="1528.01" r="3.03862" stroke-width="0.5" stroke="black" fill="grey"/>
  <circle cx="1054.54" cy="1528.01" r="2.48332" stroke-width="0.5" stroke="black" fill="black"/>
   </g>
   <g id="cell157">
  <circle cx="1239.32" cy="1295.87" r="8.94907" stroke-width="0.5" stroke="black" fill="grey"/>
  <circle cx="1239.32" cy="1295.87" r="5.43529" stroke-width="0.5" stroke="grey" fill="grey"/>
   </g>
   <g id="cell158">
  <circle cx="1933.62" cy="1317.58" r="8.39021" stroke-width="0.5" stroke="black" fill="grey"/>
  <circle cx="1933.62" cy="1317.58" r="5.0439" stroke-width="0.5" stroke="grey" fill="grey"/>
   </g>
   <g id="cell159">
  <circle cx="57.147" cy="243.133" r="8.86739" stroke-width="0.5" stroke="black" fill="red"/>
  <circle cx="57.147" cy="243.133" r="5.38204" stroke-width="0.5" stroke="red" fill="red"/>
   </g>
   <g id="cell160">
  <circle cx="1986.06" cy="1460.7" r="8.38682" stroke-width="0.5" stroke="black" fill="red"/>
  <circle cx="1986.06" cy="1460.7" r="5.04258" stroke-width="0.5" stroke="red" fill="red"/>
   </g>
   <g id="cell161">
  <circle cx="1800.62" cy="659.368" r="8.48651" stroke-width="0.5" stroke="black" fill="red"/>
  <circle cx="1800.62" cy="659.368" r="5.11628" stroke-width="0.5" stroke="red" fill="red"/>
   </g>
   <g id="cell162">
  <circle cx="1617.58" cy="756.107" r="8.38532" stroke-width="0.5" stroke="black" fill="red"/>
  <circle cx="1617.58" cy="756.107" r="5.04199" stroke-width="0.5" stroke="red" fill="red"/>
   </g>
   <g id="cell163">
  <circle cx="1092.86" cy="1200.02" r="3.84092" stroke-width="0.5" stroke="black" fill="grey"/>
  <circle cx="1092.86" cy="1200.02" r="2.85106" stroke-width="0.5" stroke="black" fill="black"/>
   </g>
   <g id="cell164">
  <circle cx="824.489" cy="503.265" r="8.38373" stroke-width="0.5" stroke="black" fill="red"/>
  <circle cx="824.489" cy="503.265" r="5.04136" stroke-width="0.5" stroke="red" fill="red"/>
   </g>
   <g id="cell165">
  <circle cx="1589.74" cy="186.109" r="8.38373" stroke-width="0.5" stroke="black" fill="grey"/>
  <circle cx="1589.74" cy="186.109" r="5.04136" stroke-width="0.5" stroke="grey" fill="grey"/>
   </g>
   <g id="cell166">
  <circle cx="1357.45" cy="351.2" r="8.48342" stroke-width="0.5" stroke="black" fill="grey"/>
  <circle cx="1357.45" cy="351.2" r="5.11505" stroke-width="0.5" stroke="grey" fill="grey"/>
   </g>
   <g id="cell167">
  <circle cx="1643.66" cy="268.128" r="8.38291" stroke-width="0.5" stroke="black" fill="grey"/>
  <circle cx="1643.66" cy="268.128" r="5.04103" stroke-width="0.5" stroke="grey" fill="grey"/>
   </g>
   <g id="cell168">
  <circle cx="692.267" cy="1200.31" r="8.38028" stroke-width="0.5" stroke="black" fill="grey"/>
  <circle cx="692.267" cy="1200.31" r="5.03997" stroke-width="0.5" stroke="grey" fill="grey"/>
   </g>
   <g id="cell169">
  <circle cx="1944.55" cy="96.3881" r="8.38028" stroke-width="0.5" stroke="black" fill="grey"/>
  <circle cx="1944.55" cy="96.3881" r="5.03997" stroke-width="0.5" stroke="grey" fill="grey"/>
   </g>
   <g id="cell170">
  <circle cx="93.4182" cy="1904.24" r="8.37742" stroke-width="0.5" stroke="black" fill="grey"/>
  <circle cx="93.4182" cy="1904.24" r="5.03881" stroke-width="0.5" stroke="grey" fill="grey"/>
   </g>
   <g id="cell171">
  <circle cx="1163.53" cy="1106.24" r="8.37641" stroke-width="0.5" stroke="black" fill="red"/>
  <circle cx="1163.53" cy="1106.24" r="5.0384" stroke-width="0.5" stroke="red" fill="red"/>
   </g>
   <g id="cell172">
  <circle cx="129.611" cy="1833.83" r="8.37321" stroke-width="0.5" stroke="black" fill="red"/>
  <circle cx="129.611" cy="1833.83" r="5.03708" stroke-width="0.5" stroke="red" fill="red"/>
   </g>
   <g id="cell173">
  <circle cx="557.366" cy="376.041" r="8.36849" stroke-width="0.5" stroke="black" fill="red"/>
  <circle cx="557.366" cy="376.041" r="5.03512" stroke-width="0.5" stroke="red" fill="red"/>
   </g>
  </g>
 </g>
  <rect x="1750" y="2070" width="200" height="20" stroke-width="4" stroke="rgb(255,255,255)" fill="rgb(0,0,0)"/>
  <text x="1762.5" y="2057.5"
   font-family="Arial" font-size="50" fill="black" >
   200 &#956;m
  </text>
  <text x="50" y="2090"
   font-family="Arial" font-size="37.5" fill="black" >
   0 days, 0 hours, 0 minutes, and 29.7045 seconds
  </text>
  <rect x="0" y="140" width="2000" height="2000" stroke-width="4" stroke="rgb(0,0,0)" fill="none"/>
</svg>
