<?xml version="1.0" encoding="UTF-8" standalone="no"?>
<!-- Created with PhysiCell (http://PhysiCell.MathCancer.org/) -->
<svg 
 xmlns:dc="http://purl.org/dc/elements/1.1/" 
 xmlns:cc="http://creativecommons.org/ns#" 
 xmlns:rdf="http://www.w3.org/1999/02/22-rdf-syntax-ns#" 
 xmlns:svg="http://www.w3.org/2000/svg" 
 xmlns="http://www.w3.org/2000/svg" 
 version="1.1" 
 width="2000" 
 height="2140" 
 id="svg2">
  <rect x="0" y="0" width="2000" height="2140" stroke-width="4" stroke="white" fill="white"/>
  <text x="25" y="60"
   font-family="Arial" font-size="50" fill="black" >
   Current time: 0 days, 12 hours, and 30.00 minutes, z = 0.00 &#956;m
  </text>
  <text x="25" y="115"
   font-family="Arial" font-size="47.5" fill="black" >
   98 agents
  </text>
 <g id="tissue" 
    transform="translate(0,2140) scale(1,-1)">
  <g id="ECM">
  </g>
  <g id="cells">
   <g id="cell0">
  <circle cx="1084.15" cy="1184.56" r="10.3084" stroke-width="0.5" stroke="black" fill="grey"/>
  <circle cx="1084.15" cy="1184.56" r="6.23137" stroke-width="0.5" stroke="grey" fill="grey"/>
   </g>
   <g id="cell1">
  <circle cx="1673.43" cy="1198.28" r="10.4689" stroke-width="0.5" stroke="black" fill="grey"/>
  <circle cx="1673.43" cy="1198.28" r="6.31053" stroke-width="0.5" stroke="grey" fill="grey"/>
   </g>
   <g id="cell2">
  <circle cx="1093.48" cy="1735.47" r="10.5211" stroke-width="0.5" stroke="black" fill="grey"/>
  <circle cx="1093.48" cy="1735.47" r="6.33419" stroke-width="0.5" stroke="grey" fill="grey"/>
   </g>
   <g id="cell3">
  <circle cx="1250.89" cy="1280.15" r="10.3682" stroke-width="0.5" stroke="black" fill="grey"/>
  <circle cx="1250.89" cy="1280.15" r="6.26172" stroke-width="0.5" stroke="grey" fill="grey"/>
   </g>
   <g id="cell4">
  <circle cx="919.598" cy="577.847" r="9.2729" stroke-width="0.5" stroke="black" fill="grey"/>
  <circle cx="919.598" cy="577.847" r="5.63555" stroke-width="0.5" stroke="grey" fill="grey"/>
   </g>
   <g id="cell5">
  <circle cx="88.5857" cy="1929.53" r="10.2221" stroke-width="0.5" stroke="black" fill="grey"/>
  <circle cx="88.5857" cy="1929.53" r="6.18628" stroke-width="0.5" stroke="grey" fill="grey"/>
   </g>
   <g id="cell6">
  <circle cx="766.721" cy="909.62" r="10.0497" stroke-width="0.5" stroke="black" fill="grey"/>
  <circle cx="766.721" cy="909.62" r="6.09278" stroke-width="0.5" stroke="grey" fill="grey"/>
   </g>
   <g id="cell7">
  <circle cx="1579.16" cy="1048.93" r="10.4355" stroke-width="0.5" stroke="black" fill="grey"/>
  <circle cx="1579.16" cy="1048.93" r="6.2947" stroke-width="0.5" stroke="grey" fill="grey"/>
   </g>
   <g id="cell8">
  <circle cx="1129.1" cy="781.13" r="10.5189" stroke-width="0.5" stroke="black" fill="grey"/>
  <circle cx="1129.1" cy="781.13" r="6.3332" stroke-width="0.5" stroke="grey" fill="grey"/>
   </g>
   <g id="cell9">
  <circle cx="1629.73" cy="170.616" r="10.2911" stroke-width="0.5" stroke="black" fill="grey"/>
  <circle cx="1629.73" cy="170.616" r="6.22246" stroke-width="0.5" stroke="grey" fill="grey"/>
   </g>
   <g id="cell10">
  <circle cx="180.38" cy="1298.05" r="9.53557" stroke-width="0.5" stroke="black" fill="grey"/>
  <circle cx="180.38" cy="1298.05" r="5.79561" stroke-width="0.5" stroke="grey" fill="grey"/>
   </g>
   <g id="cell11">
  <circle cx="738.004" cy="1634.17" r="10.4955" stroke-width="0.5" stroke="black" fill="grey"/>
  <circle cx="738.004" cy="1634.17" r="6.32275" stroke-width="0.5" stroke="grey" fill="grey"/>
   </g>
   <g id="cell12">
  <circle cx="1602.65" cy="283.193" r="10.2821" stroke-width="0.5" stroke="black" fill="grey"/>
  <circle cx="1602.65" cy="283.193" r="6.21778" stroke-width="0.5" stroke="grey" fill="grey"/>
   </g>
   <g id="cell13">
  <circle cx="1729.16" cy="1889.68" r="10.5012" stroke-width="0.5" stroke="black" fill="grey"/>
  <circle cx="1729.16" cy="1889.68" r="6.32534" stroke-width="0.5" stroke="grey" fill="grey"/>
   </g>
   <g id="cell14">
  <circle cx="1561.72" cy="1643.98" r="8.41271" stroke-width="0.5" stroke="black" fill="grey"/>
  <circle cx="1561.72" cy="1643.98" r="5.05167" stroke-width="0.5" stroke="grey" fill="grey"/>
   </g>
   <g id="cell15">
  <circle cx="1048.45" cy="1532.22" r="10.3811" stroke-width="0.5" stroke="black" fill="grey"/>
  <circle cx="1048.45" cy="1532.22" r="6.26814" stroke-width="0.5" stroke="grey" fill="grey"/>
   </g>
   <g id="cell16">
  <circle cx="243.807" cy="1386.36" r="10.4573" stroke-width="0.5" stroke="black" fill="grey"/>
  <circle cx="243.807" cy="1386.36" r="6.30507" stroke-width="0.5" stroke="grey" fill="grey"/>
   </g>
   <g id="cell17">
  <circle cx="1192.98" cy="254.253" r="10.4258" stroke-width="0.5" stroke="black" fill="grey"/>
  <circle cx="1192.98" cy="254.253" r="6.29005" stroke-width="0.5" stroke="grey" fill="grey"/>
   </g>
   <g id="cell18">
  <circle cx="1869.01" cy="1530.96" r="10.4984" stroke-width="0.5" stroke="black" fill="grey"/>
  <circle cx="1869.01" cy="1530.96" r="6.32406" stroke-width="0.5" stroke="grey" fill="grey"/>
   </g>
   <g id="cell19">
  <circle cx="227.439" cy="890.819" r="8.41271" stroke-width="0.5" stroke="black" fill="grey"/>
  <circle cx="227.439" cy="890.819" r="5.05167" stroke-width="0.5" stroke="grey" fill="grey"/>
   </g>
   <g id="cell20">
  <circle cx="546.14" cy="357.762" r="9.4743" stroke-width="0.5" stroke="black" fill="grey"/>
  <circle cx="546.14" cy="357.762" r="5.75875" stroke-width="0.5" stroke="grey" fill="grey"/>
   </g>
   <g id="cell21">
  <circle cx="1429.16" cy="893.523" r="10.0654" stroke-width="0.5" stroke="black" fill="grey"/>
  <circle cx="1429.16" cy="893.523" r="6.10145" stroke-width="0.5" stroke="grey" fill="grey"/>
   </g>
   <g id="cell22">
  <circle cx="1139.7" cy="262.292" r="8.48289" stroke-width="0.5" stroke="black" fill="grey"/>
  <circle cx="1139.7" cy="262.292" r="5.10317" stroke-width="0.5" stroke="grey" fill="grey"/>
   </g>
   <g id="cell23">
  <circle cx="641.8" cy="1243.18" r="6.93284" stroke-width="0.5" stroke="black" fill="grey"/>
  <circle cx="641.8" cy="1243.18" r="4.4888" stroke-width="0.5" stroke="black" fill="black"/>
   </g>
   <g id="cell24">
  <circle cx="1284.12" cy="421.753" r="9.16281" stroke-width="0.5" stroke="black" fill="grey"/>
  <circle cx="1284.12" cy="421.753" r="5.56677" stroke-width="0.5" stroke="grey" fill="grey"/>
   </g>
   <g id="cell25">
  <circle cx="787.315" cy="1885.6" r="10.5189" stroke-width="0.5" stroke="black" fill="grey"/>
  <circle cx="787.315" cy="1885.6" r="6.3332" stroke-width="0.5" stroke="grey" fill="grey"/>
   </g>
   <g id="cell26">
  <circle cx="1362.19" cy="899.979" r="9.7273" stroke-width="0.5" stroke="black" fill="grey"/>
  <circle cx="1362.19" cy="899.979" r="5.90906" stroke-width="0.5" stroke="grey" fill="grey"/>
   </g>
   <g id="cell27">
  <circle cx="1210.6" cy="876.618" r="10.4102" stroke-width="0.5" stroke="black" fill="grey"/>
  <circle cx="1210.6" cy="876.618" r="6.2825" stroke-width="0.5" stroke="grey" fill="grey"/>
   </g>
   <g id="cell28">
  <circle cx="1348.32" cy="169.944" r="10.4531" stroke-width="0.5" stroke="black" fill="grey"/>
  <circle cx="1348.32" cy="169.944" r="6.30312" stroke-width="0.5" stroke="grey" fill="grey"/>
   </g>
   <g id="cell29">
  <circle cx="1956.25" cy="1316.88" r="10.3615" stroke-width="0.5" stroke="black" fill="grey"/>
  <circle cx="1956.25" cy="1316.88" r="6.25834" stroke-width="0.5" stroke="grey" fill="grey"/>
   </g>
   <g id="cell30">
  <circle cx="1331.38" cy="338.446" r="10.2821" stroke-width="0.5" stroke="black" fill="grey"/>
  <circle cx="1331.38" cy="338.446" r="6.21778" stroke-width="0.5" stroke="grey" fill="grey"/>
   </g>
   <g id="cell31">
  <circle cx="688.818" cy="242.044" r="10.5039" stroke-width="0.5" stroke="black" fill="grey"/>
  <circle cx="688.818" cy="242.044" r="6.32657" stroke-width="0.5" stroke="grey" fill="grey"/>
   </g>
   <g id="cell32">
  <circle cx="604.525" cy="1234.26" r="10.5012" stroke-width="0.5" stroke="black" fill="grey"/>
  <circle cx="604.525" cy="1234.26" r="6.32534" stroke-width="0.5" stroke="grey" fill="grey"/>
   </g>
   <g id="cell33">
  <circle cx="668.296" cy="1170.64" r="10.2534" stroke-width="0.5" stroke="black" fill="grey"/>
  <circle cx="668.296" cy="1170.64" r="6.2028" stroke-width="0.5" stroke="grey" fill="grey"/>
   </g>
   <g id="cell34">
  <circle cx="916.952" cy="1251.29" r="10.5166" stroke-width="0.5" stroke="black" fill="grey"/>
  <circle cx="916.952" cy="1251.29" r="6.33218" stroke-width="0.5" stroke="grey" fill="grey"/>
   </g>
   <g id="cell35">
  <circle cx="1890.93" cy="215.861" r="10.4894" stroke-width="0.5" stroke="black" fill="grey"/>
  <circle cx="1890.93" cy="215.861" r="6.31998" stroke-width="0.5" stroke="grey" fill="grey"/>
   </g>
   <g id="cell36">
  <circle cx="395.163" cy="1290.94" r="10.4726" stroke-width="0.5" stroke="black" fill="grey"/>
  <circle cx="395.163" cy="1290.94" r="6.31223" stroke-width="0.5" stroke="grey" fill="grey"/>
   </g>
   <g id="cell37">
  <circle cx="1973.98" cy="1306.58" r="8.41271" stroke-width="0.5" stroke="black" fill="grey"/>
  <circle cx="1973.98" cy="1306.58" r="5.05167" stroke-width="0.5" stroke="grey" fill="grey"/>
   </g>
   <g id="cell38">
  <circle cx="430.573" cy="849.976" r="10.4925" stroke-width="0.5" stroke="black" fill="grey"/>
  <circle cx="430.573" cy="849.976" r="6.32139" stroke-width="0.5" stroke="grey" fill="grey"/>
   </g>
   <g id="cell39">
  <circle cx="929.164" cy="468.502" r="9.41008" stroke-width="0.5" stroke="black" fill="grey"/>
  <circle cx="929.164" cy="468.502" r="5.71981" stroke-width="0.5" stroke="grey" fill="grey"/>
   </g>
   <g id="cell40">
  <circle cx="303.449" cy="658.491" r="10.4984" stroke-width="0.5" stroke="black" fill="grey"/>
  <circle cx="303.449" cy="658.491" r="6.32406" stroke-width="0.5" stroke="grey" fill="grey"/>
   </g>
   <g id="cell41">
  <circle cx="1341.58" cy="1279.58" r="10.5233" stroke-width="0.5" stroke="black" fill="grey"/>
  <circle cx="1341.58" cy="1279.58" r="6.33514" stroke-width="0.5" stroke="grey" fill="grey"/>
   </g>
   <g id="cell42">
  <circle cx="277.619" cy="1550.59" r="10.4258" stroke-width="0.5" stroke="black" fill="grey"/>
  <circle cx="277.619" cy="1550.59" r="6.29005" stroke-width="0.5" stroke="grey" fill="grey"/>
   </g>
   <g id="cell43">
  <circle cx="1937.43" cy="787.851" r="10.4573" stroke-width="0.5" stroke="black" fill="grey"/>
  <circle cx="1937.43" cy="787.851" r="6.30507" stroke-width="0.5" stroke="grey" fill="grey"/>
   </g>
   <g id="cell44">
  <circle cx="1660.32" cy="39.1142" r="10.4355" stroke-width="0.5" stroke="black" fill="grey"/>
  <circle cx="1660.32" cy="39.1142" r="6.2947" stroke-width="0.5" stroke="grey" fill="grey"/>
   </g>
   <g id="cell45">
  <circle cx="1219.58" cy="1710.2" r="10.3933" stroke-width="0.5" stroke="black" fill="grey"/>
  <circle cx="1219.58" cy="1710.2" r="6.27417" stroke-width="0.5" stroke="grey" fill="grey"/>
   </g>
   <g id="cell46">
  <circle cx="184.705" cy="1963.8" r="10.4531" stroke-width="0.5" stroke="black" fill="grey"/>
  <circle cx="184.705" cy="1963.8" r="6.30312" stroke-width="0.5" stroke="grey" fill="grey"/>
   </g>
   <g id="cell47">
  <circle cx="1741.48" cy="938.47" r="10.5142" stroke-width="0.5" stroke="black" fill="grey"/>
  <circle cx="1741.48" cy="938.47" r="6.33113" stroke-width="0.5" stroke="grey" fill="grey"/>
   </g>
   <g id="cell48">
  <circle cx="1942.89" cy="89.3432" r="10.2534" stroke-width="0.5" stroke="black" fill="grey"/>
  <circle cx="1942.89" cy="89.3432" r="6.2028" stroke-width="0.5" stroke="grey" fill="grey"/>
   </g>
   <g id="cell49">
  <circle cx="923.662" cy="1467.29" r="10.3933" stroke-width="0.5" stroke="black" fill="grey"/>
  <circle cx="923.662" cy="1467.29" r="6.27417" stroke-width="0.5" stroke="grey" fill="grey"/>
   </g>
   <g id="cell50">
  <circle cx="146.76" cy="864.874" r="10.3873" stroke-width="0.5" stroke="black" fill="red"/>
  <circle cx="146.76" cy="864.874" r="6.2712" stroke-width="0.5" stroke="red" fill="red"/>
   </g>
   <g id="cell51">
  <circle cx="1965.57" cy="280.399" r="8.65127" stroke-width="0.5" stroke="black" fill="red"/>
  <circle cx="1965.57" cy="280.399" r="5.2272" stroke-width="0.5" stroke="red" fill="red"/>
   </g>
   <g id="cell52">
  <circle cx="625.37" cy="976.737" r="10.4258" stroke-width="0.5" stroke="black" fill="red"/>
  <circle cx="625.37" cy="976.737" r="6.29005" stroke-width="0.5" stroke="red" fill="red"/>
   </g>
   <g id="cell53">
  <circle cx="1393.03" cy="650.555" r="8.41271" stroke-width="0.5" stroke="black" fill="red"/>
  <circle cx="1393.03" cy="650.555" r="5.05167" stroke-width="0.5" stroke="red" fill="red"/>
   </g>
   <g id="cell54">
  <circle cx="808.164" cy="1835.73" r="10.4489" stroke-width="0.5" stroke="black" fill="red"/>
  <circle cx="808.164" cy="1835.73" r="6.30112" stroke-width="0.5" stroke="red" fill="red"/>
   </g>
   <g id="cell55">
  <circle cx="412.139" cy="1361.84" r="8.41271" stroke-width="0.5" stroke="black" fill="red"/>
  <circle cx="412.139" cy="1361.84" r="5.05167" stroke-width="0.5" stroke="red" fill="red"/>
   </g>
   <g id="cell56">
  <circle cx="1139.51" cy="1690.27" r="9.20015" stroke-width="0.5" stroke="black" fill="red"/>
  <circle cx="1139.51" cy="1690.27" r="5.59022" stroke-width="0.5" stroke="red" fill="red"/>
   </g>
   <g id="cell57">
  <circle cx="1006.01" cy="1064.55" r="10.5066" stroke-width="0.5" stroke="black" fill="red"/>
  <circle cx="1006.01" cy="1064.55" r="6.32777" stroke-width="0.5" stroke="red" fill="red"/>
   </g>
   <g id="cell58">
  <circle cx="136.336" cy="1810.9" r="10.1758" stroke-width="0.5" stroke="black" fill="red"/>
  <circle cx="136.336" cy="1810.9" r="6.16159" stroke-width="0.5" stroke="red" fill="red"/>
   </g>
   <g id="cell98">
  <circle cx="1808.98" cy="716.289" r="10.3166" stroke-width="0.5" stroke="black" fill="red"/>
  <circle cx="1808.98" cy="716.289" r="6.23561" stroke-width="0.5" stroke="red" fill="red"/>
   </g>
   <g id="cell60">
  <circle cx="648.209" cy="33.9336" r="10.4048" stroke-width="0.5" stroke="black" fill="red"/>
  <circle cx="648.209" cy="33.9336" r="6.27981" stroke-width="0.5" stroke="red" fill="red"/>
   </g>
   <g id="cell61">
  <circle cx="1655.11" cy="264.48" r="10.4651" stroke-width="0.5" stroke="black" fill="red"/>
  <circle cx="1655.11" cy="264.48" r="6.30877" stroke-width="0.5" stroke="red" fill="red"/>
   </g>
   <g id="cell62">
  <circle cx="1412.62" cy="1676.31" r="10.4446" stroke-width="0.5" stroke="black" fill="red"/>
  <circle cx="1412.62" cy="1676.31" r="6.29905" stroke-width="0.5" stroke="red" fill="red"/>
   </g>
   <g id="cell63">
  <circle cx="562.265" cy="353.721" r="10.1238" stroke-width="0.5" stroke="black" fill="red"/>
  <circle cx="562.265" cy="353.721" r="6.13347" stroke-width="0.5" stroke="red" fill="red"/>
   </g>
   <g id="cell64">
  <circle cx="1191.91" cy="1097.59" r="10.4048" stroke-width="0.5" stroke="black" fill="red"/>
  <circle cx="1191.91" cy="1097.59" r="6.27981" stroke-width="0.5" stroke="red" fill="red"/>
   </g>
   <g id="cell65">
  <circle cx="299.697" cy="1641.89" r="10.4489" stroke-width="0.5" stroke="black" fill="red"/>
  <circle cx="299.697" cy="1641.89" r="6.30112" stroke-width="0.5" stroke="red" fill="red"/>
   </g>
   <g id="cell66">
  <circle cx="19.6642" cy="266.808" r="10.3545" stroke-width="0.5" stroke="black" fill="red"/>
  <circle cx="19.6642" cy="266.808" r="6.25485" stroke-width="0.5" stroke="red" fill="red"/>
   </g>
   <g id="cell67">
  <circle cx="1156.46" cy="567.762" r="9.98223" stroke-width="0.5" stroke="black" fill="red"/>
  <circle cx="1156.46" cy="567.762" r="6.05517" stroke-width="0.5" stroke="red" fill="red"/>
   </g>
   <g id="cell68">
  <circle cx="1446.13" cy="604.465" r="10.4307" stroke-width="0.5" stroke="black" fill="red"/>
  <circle cx="1446.13" cy="604.465" r="6.29241" stroke-width="0.5" stroke="red" fill="red"/>
   </g>
   <g id="cell69">
  <circle cx="831.144" cy="513.295" r="10.2911" stroke-width="0.5" stroke="black" fill="red"/>
  <circle cx="831.144" cy="513.295" r="6.22246" stroke-width="0.5" stroke="red" fill="red"/>
   </g>
   <g id="cell70">
  <circle cx="1148.3" cy="783.715" r="10.4726" stroke-width="0.5" stroke="black" fill="red"/>
  <circle cx="1148.3" cy="783.715" r="6.31223" stroke-width="0.5" stroke="red" fill="red"/>
   </g>
   <g id="cell71">
  <circle cx="1755.81" cy="1176.82" r="10.5117" stroke-width="0.5" stroke="black" fill="red"/>
  <circle cx="1755.81" cy="1176.82" r="6.33005" stroke-width="0.5" stroke="red" fill="red"/>
   </g>
   <g id="cell72">
  <circle cx="422.159" cy="1760.15" r="8.41271" stroke-width="0.5" stroke="black" fill="red"/>
  <circle cx="422.159" cy="1760.15" r="5.05167" stroke-width="0.5" stroke="red" fill="red"/>
   </g>
   <g id="cell73">
  <circle cx="1355.88" cy="858.553" r="10.4984" stroke-width="0.5" stroke="black" fill="red"/>
  <circle cx="1355.88" cy="858.553" r="6.32406" stroke-width="0.5" stroke="red" fill="red"/>
   </g>
   <g id="cell74">
  <circle cx="1687.29" cy="1885.92" r="10.4531" stroke-width="0.5" stroke="black" fill="red"/>
  <circle cx="1687.29" cy="1885.92" r="6.30312" stroke-width="0.5" stroke="red" fill="red"/>
   </g>
   <g id="cell75">
  <circle cx="246.507" cy="582.791" r="8.41271" stroke-width="0.5" stroke="black" fill="red"/>
  <circle cx="246.507" cy="582.791" r="5.05167" stroke-width="0.5" stroke="red" fill="red"/>
   </g>
   <g id="cell76">
  <circle cx="1634.21" cy="758.902" r="10.3084" stroke-width="0.5" stroke="black" fill="red"/>
  <circle cx="1634.21" cy="758.902" r="6.23137" stroke-width="0.5" stroke="red" fill="red"/>
   </g>
   <g id="cell77">
  <circle cx="1387.96" cy="1802.9" r="10.483" stroke-width="0.5" stroke="black" fill="red"/>
  <circle cx="1387.96" cy="1802.9" r="6.31703" stroke-width="0.5" stroke="red" fill="red"/>
   </g>
   <g id="cell78">
  <circle cx="1145.32" cy="605.442" r="9.59391" stroke-width="0.5" stroke="black" fill="red"/>
  <circle cx="1145.32" cy="605.442" r="5.83043" stroke-width="0.5" stroke="red" fill="red"/>
   </g>
   <g id="cell79">
  <circle cx="1986.81" cy="1428.09" r="10.3247" stroke-width="0.5" stroke="black" fill="red"/>
  <circle cx="1986.81" cy="1428.09" r="6.23971" stroke-width="0.5" stroke="red" fill="red"/>
   </g>
   <g id="cell80">
  <circle cx="1472.54" cy="1311.68" r="10.4761" stroke-width="0.5" stroke="black" fill="red"/>
  <circle cx="1472.54" cy="1311.68" r="6.31388" stroke-width="0.5" stroke="red" fill="red"/>
   </g>
   <g id="cell81">
  <circle cx="1102.83" cy="1903.96" r="10.4102" stroke-width="0.5" stroke="black" fill="red"/>
  <circle cx="1102.83" cy="1903.96" r="6.2825" stroke-width="0.5" stroke="red" fill="red"/>
   </g>
   <g id="cell82">
  <circle cx="1280.7" cy="806.564" r="10.4955" stroke-width="0.5" stroke="black" fill="red"/>
  <circle cx="1280.7" cy="806.564" r="6.32275" stroke-width="0.5" stroke="red" fill="red"/>
   </g>
   <g id="cell83">
  <circle cx="1226.28" cy="1247.03" r="10.5189" stroke-width="0.5" stroke="black" fill="red"/>
  <circle cx="1226.28" cy="1247.03" r="6.3332" stroke-width="0.5" stroke="red" fill="red"/>
   </g>
   <g id="cell84">
  <circle cx="41.0793" cy="926.044" r="8.41271" stroke-width="0.5" stroke="black" fill="red"/>
  <circle cx="41.0793" cy="926.044" r="5.05167" stroke-width="0.5" stroke="red" fill="red"/>
   </g>
   <g id="cell85">
  <circle cx="1440.88" cy="1307.88" r="9.75192" stroke-width="0.5" stroke="black" fill="red"/>
  <circle cx="1440.88" cy="1307.88" r="5.92342" stroke-width="0.5" stroke="red" fill="red"/>
   </g>
   <g id="cell86">
  <circle cx="582.155" cy="797.97" r="10.3811" stroke-width="0.5" stroke="black" fill="red"/>
  <circle cx="582.155" cy="797.97" r="6.26814" stroke-width="0.5" stroke="red" fill="red"/>
   </g>
   <g id="cell87">
  <circle cx="1468.09" cy="893.096" r="9.7273" stroke-width="0.5" stroke="black" fill="red"/>
  <circle cx="1468.09" cy="893.096" r="5.90906" stroke-width="0.5" stroke="red" fill="red"/>
   </g>
   <g id="cell88">
  <circle cx="274.693" cy="206.692" r="10.4531" stroke-width="0.5" stroke="black" fill="red"/>
  <circle cx="274.693" cy="206.692" r="6.30312" stroke-width="0.5" stroke="red" fill="red"/>
   </g>
   <g id="cell89">
  <circle cx="185.118" cy="1171.25" r="10.4651" stroke-width="0.5" stroke="black" fill="red"/>
  <circle cx="185.118" cy="1171.25" r="6.30877" stroke-width="0.5" stroke="red" fill="red"/>
   </g>
   <g id="cell90">
  <circle cx="1156.5" cy="1084.17" r="10.211" stroke-width="0.5" stroke="black" fill="red"/>
  <circle cx="1156.5" cy="1084.17" r="6.18041" stroke-width="0.5" stroke="red" fill="red"/>
   </g>
   <g id="cell91">
  <circle cx="56.9634" cy="1259.64" r="10.483" stroke-width="0.5" stroke="black" fill="red"/>
  <circle cx="56.9634" cy="1259.64" r="6.31703" stroke-width="0.5" stroke="red" fill="red"/>
   </g>
   <g id="cell99">
  <circle cx="959.251" cy="1982.73" r="10.5092" stroke-width="0.5" stroke="black" fill="red"/>
  <circle cx="959.251" cy="1982.73" r="6.32893" stroke-width="0.5" stroke="red" fill="red"/>
   </g>
   <g id="cell93">
  <circle cx="404.67" cy="1784.46" r="10.5166" stroke-width="0.5" stroke="black" fill="red"/>
  <circle cx="404.67" cy="1784.46" r="6.33218" stroke-width="0.5" stroke="red" fill="red"/>
   </g>
   <g id="cell94">
  <circle cx="764.891" cy="189.631" r="10.4156" stroke-width="0.5" stroke="black" fill="red"/>
  <circle cx="764.891" cy="189.631" r="6.2851" stroke-width="0.5" stroke="red" fill="red"/>
   </g>
   <g id="cell95">
  <circle cx="1972.65" cy="1764.73" r="10.5066" stroke-width="0.5" stroke="black" fill="red"/>
  <circle cx="1972.65" cy="1764.73" r="6.32777" stroke-width="0.5" stroke="red" fill="red"/>
   </g>
   <g id="cell96">
  <circle cx="1678.33" cy="1082.03" r="9.4743" stroke-width="0.5" stroke="black" fill="red"/>
  <circle cx="1678.33" cy="1082.03" r="5.75875" stroke-width="0.5" stroke="red" fill="red"/>
   </g>
   <g id="cell97">
  <circle cx="941.614" cy="167.264" r="10.4048" stroke-width="0.5" stroke="black" fill="red"/>
  <circle cx="941.614" cy="167.264" r="6.27981" stroke-width="0.5" stroke="red" fill="red"/>
   </g>
  </g>
 </g>
  <rect x="1750" y="2070" width="200" height="20" stroke-width="4" stroke="rgb(255,255,255)" fill="rgb(0,0,0)"/>
  <text x="1762.5" y="2057.5"
   font-family="Arial" font-size="50" fill="black" >
   200 &#956;m
  </text>
  <text x="50" y="2090"
   font-family="Arial" font-size="37.5" fill="black" >
   0 days, 0 hours, 0 minutes, and 18.4984 seconds
  </text>
  <rect x="0" y="140" width="2000" height="2000" stroke-width="4" stroke="rgb(0,0,0)" fill="none"/>
</svg>
