<?xml version="1.0" encoding="UTF-8" standalone="no"?>
<!-- Created with PhysiCell (http://PhysiCell.MathCancer.org/) -->
<svg 
 xmlns:dc="http://purl.org/dc/elements/1.1/" 
 xmlns:cc="http://creativecommons.org/ns#" 
 xmlns:rdf="http://www.w3.org/1999/02/22-rdf-syntax-ns#" 
 xmlns:svg="http://www.w3.org/2000/svg" 
 xmlns="http://www.w3.org/2000/svg" 
 version="1.1" 
 width="2000" 
 height="2140" 
 id="svg2">
  <rect x="0" y="0" width="2000" height="2140" stroke-width="4" stroke="white" fill="white"/>
  <text x="25" y="60"
   font-family="Arial" font-size="50" fill="black" >
   Current time: 1 days, 15 hours, and 0.00 minutes, z = 0.00 &#956;m
  </text>
  <text x="25" y="115"
   font-family="Arial" font-size="47.5" fill="black" >
   32 agents
  </text>
 <g id="tissue" 
    transform="translate(0,2140) scale(1,-1)">
  <g id="ECM">
  </g>
  <g id="cells">
   <g id="cell0">
  <circle cx="1120.34" cy="1177.58" r="9.74686" stroke-width="0.5" stroke="black" fill="grey"/>
  <circle cx="1120.34" cy="1177.58" r="5.92181" stroke-width="0.5" stroke="grey" fill="grey"/>
   </g>
   <g id="cell1">
  <circle cx="1688.6" cy="1226.66" r="8.38668" stroke-width="0.5" stroke="black" fill="grey"/>
  <circle cx="1688.6" cy="1226.66" r="5.04255" stroke-width="0.5" stroke="grey" fill="grey"/>
   </g>
   <g id="cell2">
  <circle cx="1165.04" cy="1725.69" r="8.72292" stroke-width="0.5" stroke="black" fill="grey"/>
  <circle cx="1165.04" cy="1725.69" r="5.27966" stroke-width="0.5" stroke="grey" fill="grey"/>
   </g>
   <g id="cell3">
  <circle cx="1281.31" cy="1310.02" r="9.79484" stroke-width="0.5" stroke="black" fill="grey"/>
  <circle cx="1281.31" cy="1310.02" r="5.94949" stroke-width="0.5" stroke="grey" fill="grey"/>
   </g>
   <g id="cell4">
  <circle cx="879.328" cy="546.756" r="8.42004" stroke-width="0.5" stroke="black" fill="grey"/>
  <circle cx="879.328" cy="546.756" r="5.06151" stroke-width="0.5" stroke="grey" fill="grey"/>
   </g>
   <g id="cell5">
  <circle cx="120.532" cy="1981.42" r="8.56392" stroke-width="0.5" stroke="black" fill="red"/>
  <circle cx="120.532" cy="1981.42" r="5.16968" stroke-width="0.5" stroke="red" fill="red"/>
   </g>
   <g id="cell6">
  <circle cx="801.419" cy="876.992" r="8.37502" stroke-width="0.5" stroke="black" fill="red"/>
  <circle cx="801.419" cy="876.992" r="5.03789" stroke-width="0.5" stroke="red" fill="red"/>
   </g>
   <g id="cell19">
  <circle cx="1687.22" cy="1267.66" r="9.79088" stroke-width="0.5" stroke="black" fill="grey"/>
  <circle cx="1687.22" cy="1267.66" r="5.94808" stroke-width="0.5" stroke="grey" fill="grey"/>
   </g>
   <g id="cell18">
  <circle cx="1657.08" cy="264.869" r="10.5065" stroke-width="0.5" stroke="black" fill="red"/>
  <circle cx="1657.08" cy="264.869" r="6.32774" stroke-width="0.5" stroke="red" fill="red"/>
   </g>
   <g id="cell9">
  <circle cx="1680.55" cy="220.097" r="8.70414" stroke-width="0.5" stroke="black" fill="red"/>
  <circle cx="1680.55" cy="220.097" r="5.27256" stroke-width="0.5" stroke="red" fill="red"/>
   </g>
   <g id="cell11">
  <circle cx="1593.56" cy="1050.47" r="10.3909" stroke-width="0.5" stroke="black" fill="red"/>
  <circle cx="1593.56" cy="1050.47" r="6.27348" stroke-width="0.5" stroke="red" fill="red"/>
   </g>
   <g id="cell20">
  <circle cx="827.017" cy="955.588" r="10.4441" stroke-width="0.5" stroke="black" fill="red"/>
  <circle cx="827.017" cy="955.588" r="6.29893" stroke-width="0.5" stroke="red" fill="red"/>
   </g>
   <g id="cell13">
  <circle cx="845.799" cy="560.53" r="8.39199" stroke-width="0.5" stroke="black" fill="grey"/>
  <circle cx="845.799" cy="560.53" r="5.04459" stroke-width="0.5" stroke="grey" fill="grey"/>
   </g>
   <g id="cell14">
  <circle cx="1205.54" cy="1294.01" r="8.40877" stroke-width="0.5" stroke="black" fill="grey"/>
  <circle cx="1205.54" cy="1294.01" r="5.05729" stroke-width="0.5" stroke="grey" fill="grey"/>
   </g>
   <g id="cell15">
  <circle cx="1150.03" cy="1155" r="8.43612" stroke-width="0.5" stroke="black" fill="grey"/>
  <circle cx="1150.03" cy="1155" r="5.07616" stroke-width="0.5" stroke="grey" fill="grey"/>
   </g>
   <g id="cell16">
  <circle cx="1184.31" cy="1712.77" r="8.85903" stroke-width="0.5" stroke="black" fill="grey"/>
  <circle cx="1184.31" cy="1712.77" r="5.37863" stroke-width="0.5" stroke="grey" fill="grey"/>
   </g>
   <g id="cell17">
  <circle cx="1095.72" cy="712.063" r="8.40466" stroke-width="0.5" stroke="black" fill="red"/>
  <circle cx="1095.72" cy="712.063" r="5.04921" stroke-width="0.5" stroke="red" fill="red"/>
   </g>
   <g id="cell21">
  <circle cx="1565.84" cy="1051.51" r="8.92502" stroke-width="0.5" stroke="black" fill="red"/>
  <circle cx="1565.84" cy="1051.51" r="5.4151" stroke-width="0.5" stroke="red" fill="red"/>
   </g>
   <g id="cell22">
  <circle cx="1163.77" cy="1739.05" r="8.40694" stroke-width="0.5" stroke="black" fill="grey"/>
  <circle cx="1163.77" cy="1739.05" r="5.04997" stroke-width="0.5" stroke="grey" fill="grey"/>
   </g>
   <g id="cell23">
  <circle cx="1260.59" cy="1299.6" r="8.40679" stroke-width="0.5" stroke="black" fill="grey"/>
  <circle cx="1260.59" cy="1299.6" r="5.04992" stroke-width="0.5" stroke="grey" fill="grey"/>
   </g>
   <g id="cell24">
  <circle cx="1144.78" cy="1201.39" r="9.90168" stroke-width="0.5" stroke="black" fill="grey"/>
  <circle cx="1144.78" cy="1201.39" r="6.01089" stroke-width="0.5" stroke="grey" fill="grey"/>
   </g>
   <g id="cell25">
  <circle cx="1115.05" cy="692.71" r="8.40466" stroke-width="0.5" stroke="black" fill="red"/>
  <circle cx="1115.05" cy="692.71" r="5.04921" stroke-width="0.5" stroke="red" fill="red"/>
   </g>
   <g id="cell26">
  <circle cx="1664.6" cy="1232.45" r="9.33376" stroke-width="0.5" stroke="black" fill="grey"/>
  <circle cx="1664.6" cy="1232.45" r="5.67564" stroke-width="0.5" stroke="grey" fill="grey"/>
   </g>
   <g id="cell27">
  <circle cx="904.802" cy="578.721" r="8.40018" stroke-width="0.5" stroke="black" fill="grey"/>
  <circle cx="904.802" cy="578.721" r="5.04763" stroke-width="0.5" stroke="grey" fill="grey"/>
   </g>
   <g id="cell28">
  <circle cx="99.3655" cy="1977.64" r="8.39749" stroke-width="0.5" stroke="black" fill="red"/>
  <circle cx="99.3655" cy="1977.64" r="5.04665" stroke-width="0.5" stroke="red" fill="red"/>
   </g>
   <g id="cell29">
  <circle cx="1109.26" cy="1131.99" r="9.45842" stroke-width="0.5" stroke="black" fill="grey"/>
  <circle cx="1109.26" cy="1131.99" r="5.75305" stroke-width="0.5" stroke="grey" fill="grey"/>
   </g>
   <g id="cell30">
  <circle cx="861.016" cy="600.92" r="8.39199" stroke-width="0.5" stroke="black" fill="grey"/>
  <circle cx="861.016" cy="600.92" r="5.04459" stroke-width="0.5" stroke="grey" fill="grey"/>
   </g>
   <g id="cell31">
  <circle cx="1171.77" cy="1293.12" r="8.38887" stroke-width="0.5" stroke="black" fill="grey"/>
  <circle cx="1171.77" cy="1293.12" r="5.04339" stroke-width="0.5" stroke="grey" fill="grey"/>
   </g>
   <g id="cell32">
  <circle cx="1655.42" cy="227.009" r="8.38671" stroke-width="0.5" stroke="black" fill="red"/>
  <circle cx="1655.42" cy="227.009" r="5.04256" stroke-width="0.5" stroke="red" fill="red"/>
   </g>
   <g id="cell33">
  <circle cx="1678.12" cy="1197.75" r="8.38668" stroke-width="0.5" stroke="black" fill="grey"/>
  <circle cx="1678.12" cy="1197.75" r="5.04255" stroke-width="0.5" stroke="grey" fill="grey"/>
   </g>
   <g id="cell34">
  <circle cx="1171.3" cy="1684.98" r="8.38022" stroke-width="0.5" stroke="black" fill="grey"/>
  <circle cx="1171.3" cy="1684.98" r="5.03996" stroke-width="0.5" stroke="grey" fill="grey"/>
   </g>
   <g id="cell35">
  <circle cx="765.344" cy="879.153" r="8.37502" stroke-width="0.5" stroke="black" fill="red"/>
  <circle cx="765.344" cy="879.153" r="5.03789" stroke-width="0.5" stroke="red" fill="red"/>
   </g>
  </g>
 </g>
  <rect x="1750" y="2070" width="200" height="20" stroke-width="4" stroke="rgb(255,255,255)" fill="rgb(0,0,0)"/>
  <text x="1762.5" y="2057.5"
   font-family="Arial" font-size="50" fill="black" >
   200 &#956;m
  </text>
  <text x="50" y="2090"
   font-family="Arial" font-size="37.5" fill="black" >
   0 days, 0 hours, 0 minutes, and 50.5630 seconds
  </text>
  <rect x="0" y="140" width="2000" height="2000" stroke-width="4" stroke="rgb(0,0,0)" fill="none"/>
</svg>
