<?xml version="1.0" encoding="UTF-8" standalone="no"?>
<!-- Created with PhysiCell (http://PhysiCell.MathCancer.org/) -->
<svg 
 xmlns:dc="http://purl.org/dc/elements/1.1/" 
 xmlns:cc="http://creativecommons.org/ns#" 
 xmlns:rdf="http://www.w3.org/1999/02/22-rdf-syntax-ns#" 
 xmlns:svg="http://www.w3.org/2000/svg" 
 xmlns="http://www.w3.org/2000/svg" 
 version="1.1" 
 width="2000" 
 height="2140" 
 id="svg2">
  <rect x="0" y="0" width="2000" height="2140" stroke-width="4" stroke="white" fill="white"/>
  <text x="25" y="60"
   font-family="Arial" font-size="50" fill="black" >
   Current time: 0 days, 23 hours, and 0.00 minutes, z = 0.00 &#956;m
  </text>
  <text x="25" y="115"
   font-family="Arial" font-size="47.5" fill="black" >
   19 agents
  </text>
 <g id="tissue" 
    transform="translate(0,2140) scale(1,-1)">
  <g id="ECM">
  </g>
  <g id="cells">
   <g id="cell0">
  <circle cx="1139.82" cy="1203.16" r="9.79394" stroke-width="0.5" stroke="black" fill="grey"/>
  <circle cx="1139.82" cy="1203.16" r="5.94917" stroke-width="0.5" stroke="grey" fill="grey"/>
   </g>
   <g id="cell1">
  <circle cx="1687.31" cy="1223.8" r="8.39021" stroke-width="0.5" stroke="black" fill="grey"/>
  <circle cx="1687.31" cy="1223.8" r="5.0439" stroke-width="0.5" stroke="grey" fill="grey"/>
   </g>
   <g id="cell2">
  <circle cx="1179.53" cy="1698.36" r="9.91933" stroke-width="0.5" stroke="black" fill="grey"/>
  <circle cx="1179.53" cy="1698.36" r="6.02135" stroke-width="0.5" stroke="grey" fill="grey"/>
   </g>
   <g id="cell3">
  <circle cx="1267.92" cy="1261.97" r="9.90143" stroke-width="0.5" stroke="black" fill="grey"/>
  <circle cx="1267.92" cy="1261.97" r="6.0108" stroke-width="0.5" stroke="grey" fill="grey"/>
   </g>
   <g id="cell4">
  <circle cx="896.002" cy="557.132" r="9.11975" stroke-width="0.5" stroke="black" fill="grey"/>
  <circle cx="896.002" cy="557.132" r="5.54116" stroke-width="0.5" stroke="grey" fill="grey"/>
   </g>
   <g id="cell5">
  <circle cx="115.934" cy="1932.15" r="8.84326" stroke-width="0.5" stroke="black" fill="red"/>
  <circle cx="115.934" cy="1932.15" r="5.36133" stroke-width="0.5" stroke="red" fill="red"/>
   </g>
   <g id="cell6">
  <circle cx="800.065" cy="919.12" r="10.5211" stroke-width="0.5" stroke="black" fill="red"/>
  <circle cx="800.065" cy="919.12" r="6.33419" stroke-width="0.5" stroke="red" fill="red"/>
   </g>
   <g id="cell7">
  <circle cx="1586.22" cy="1013.69" r="2.42611" stroke-width="0.5" stroke="black" fill="red"/>
  <circle cx="1586.22" cy="1013.69" r="2.28466" stroke-width="0.5" stroke="black" fill="black"/>
   </g>
   <g id="cell8">
  <circle cx="1127.68" cy="746.859" r="2.71234" stroke-width="0.5" stroke="black" fill="red"/>
  <circle cx="1127.68" cy="746.859" r="2.44187" stroke-width="0.5" stroke="black" fill="black"/>
   </g>
   <g id="cell9">
  <circle cx="1692.43" cy="186.808" r="8.39523" stroke-width="0.5" stroke="black" fill="red"/>
  <circle cx="1692.43" cy="186.808" r="5.04581" stroke-width="0.5" stroke="red" fill="red"/>
   </g>
   <g id="cell11">
  <circle cx="1589.65" cy="1039" r="10.1725" stroke-width="0.5" stroke="black" fill="red"/>
  <circle cx="1589.65" cy="1039" r="6.1606" stroke-width="0.5" stroke="red" fill="red"/>
   </g>
   <g id="cell12">
  <circle cx="111.453" cy="1950.56" r="1.29596" stroke-width="0.5" stroke="black" fill="red"/>
  <circle cx="111.453" cy="1950.56" r="1.2883" stroke-width="0.5" stroke="black" fill="black"/>
   </g>
   <g id="cell13">
  <circle cx="824.824" cy="564.654" r="8.45008" stroke-width="0.5" stroke="black" fill="grey"/>
  <circle cx="824.824" cy="564.654" r="5.08118" stroke-width="0.5" stroke="grey" fill="grey"/>
   </g>
   <g id="cell14">
  <circle cx="1228.26" cy="1295.45" r="8.40557" stroke-width="0.5" stroke="black" fill="grey"/>
  <circle cx="1228.26" cy="1295.45" r="5.04951" stroke-width="0.5" stroke="grey" fill="grey"/>
   </g>
   <g id="cell15">
  <circle cx="1118.97" cy="1189.97" r="8.47586" stroke-width="0.5" stroke="black" fill="grey"/>
  <circle cx="1118.97" cy="1189.97" r="5.10103" stroke-width="0.5" stroke="grey" fill="grey"/>
   </g>
   <g id="cell16">
  <circle cx="1162.76" cy="1710.22" r="8.403" stroke-width="0.5" stroke="black" fill="grey"/>
  <circle cx="1162.76" cy="1710.22" r="5.04863" stroke-width="0.5" stroke="grey" fill="grey"/>
   </g>
   <g id="cell17">
  <circle cx="1100.69" cy="748.206" r="9.64064" stroke-width="0.5" stroke="black" fill="red"/>
  <circle cx="1100.69" cy="748.206" r="5.86034" stroke-width="0.5" stroke="red" fill="red"/>
   </g>
   <g id="cell18">
  <circle cx="1682.08" cy="204.997" r="8.39523" stroke-width="0.5" stroke="black" fill="red"/>
  <circle cx="1682.08" cy="204.997" r="5.04581" stroke-width="0.5" stroke="red" fill="red"/>
   </g>
   <g id="cell19">
  <circle cx="1655.56" cy="1231.5" r="9.25439" stroke-width="0.5" stroke="black" fill="grey"/>
  <circle cx="1655.56" cy="1231.5" r="5.62879" stroke-width="0.5" stroke="grey" fill="grey"/>
   </g>
  </g>
 </g>
  <rect x="1750" y="2070" width="200" height="20" stroke-width="4" stroke="rgb(255,255,255)" fill="rgb(0,0,0)"/>
  <text x="1762.5" y="2057.5"
   font-family="Arial" font-size="50" fill="black" >
   200 &#956;m
  </text>
  <text x="50" y="2090"
   font-family="Arial" font-size="37.5" fill="black" >
   0 days, 0 hours, 0 minutes, and 29.5995 seconds
  </text>
  <rect x="0" y="140" width="2000" height="2000" stroke-width="4" stroke="rgb(0,0,0)" fill="none"/>
</svg>
