<?xml version="1.0" encoding="UTF-8" standalone="no"?>
<!-- Created with PhysiCell (http://PhysiCell.MathCancer.org/) -->
<svg 
 xmlns:dc="http://purl.org/dc/elements/1.1/" 
 xmlns:cc="http://creativecommons.org/ns#" 
 xmlns:rdf="http://www.w3.org/1999/02/22-rdf-syntax-ns#" 
 xmlns:svg="http://www.w3.org/2000/svg" 
 xmlns="http://www.w3.org/2000/svg" 
 version="1.1" 
 width="2000" 
 height="2140" 
 id="svg2">
  <rect x="0" y="0" width="2000" height="2140" stroke-width="4" stroke="white" fill="white"/>
  <text x="25" y="60"
   font-family="Arial" font-size="50" fill="black" >
   Current time: 1 days, 0 hours, and 0.00 minutes, z = 0.00 &#956;m
  </text>
  <text x="25" y="115"
   font-family="Arial" font-size="47.5" fill="black" >
   19 agents
  </text>
 <g id="tissue" 
    transform="translate(0,2140) scale(1,-1)">
  <g id="ECM">
  </g>
  <g id="cells">
   <g id="cell0">
  <circle cx="1137.75" cy="1197.91" r="9.99601" stroke-width="0.5" stroke="black" fill="grey"/>
  <circle cx="1137.75" cy="1197.91" r="6.06385" stroke-width="0.5" stroke="grey" fill="grey"/>
   </g>
   <g id="cell1">
  <circle cx="1689.81" cy="1217.64" r="8.49592" stroke-width="0.5" stroke="black" fill="grey"/>
  <circle cx="1689.81" cy="1217.64" r="5.11992" stroke-width="0.5" stroke="grey" fill="grey"/>
   </g>
   <g id="cell2">
  <circle cx="1184.2" cy="1704.3" r="10.0904" stroke-width="0.5" stroke="black" fill="grey"/>
  <circle cx="1184.2" cy="1704.3" r="6.11637" stroke-width="0.5" stroke="grey" fill="grey"/>
   </g>
   <g id="cell3">
  <circle cx="1266.66" cy="1257.87" r="10.0769" stroke-width="0.5" stroke="black" fill="grey"/>
  <circle cx="1266.66" cy="1257.87" r="6.1087" stroke-width="0.5" stroke="grey" fill="grey"/>
   </g>
   <g id="cell4">
  <circle cx="913.942" cy="558.141" r="9.47069" stroke-width="0.5" stroke="black" fill="grey"/>
  <circle cx="913.942" cy="558.141" r="5.75762" stroke-width="0.5" stroke="grey" fill="grey"/>
   </g>
   <g id="cell5">
  <circle cx="116.309" cy="1930.04" r="9.23364" stroke-width="0.5" stroke="black" fill="red"/>
  <circle cx="116.309" cy="1930.04" r="5.61215" stroke-width="0.5" stroke="red" fill="red"/>
   </g>
   <g id="cell6">
  <circle cx="800.017" cy="911.272" r="8.36592" stroke-width="0.5" stroke="black" fill="red"/>
  <circle cx="800.017" cy="911.272" r="5.03403" stroke-width="0.5" stroke="red" fill="red"/>
   </g>
   <g id="cell7">
  <circle cx="1586.22" cy="1013.69" r="2.09325" stroke-width="0.5" stroke="black" fill="red"/>
  <circle cx="1586.22" cy="1013.69" r="2.02882" stroke-width="0.5" stroke="black" fill="black"/>
   </g>
   <g id="cell8">
  <circle cx="1127.68" cy="746.859" r="2.29411" stroke-width="0.5" stroke="black" fill="red"/>
  <circle cx="1127.68" cy="746.859" r="2.16824" stroke-width="0.5" stroke="black" fill="black"/>
   </g>
   <g id="cell9">
  <circle cx="1686.56" cy="170.214" r="8.49962" stroke-width="0.5" stroke="black" fill="red"/>
  <circle cx="1686.56" cy="170.214" r="5.12129" stroke-width="0.5" stroke="red" fill="red"/>
   </g>
   <g id="cell11">
  <circle cx="1582.85" cy="1045.53" r="10.2796" stroke-width="0.5" stroke="black" fill="red"/>
  <circle cx="1582.85" cy="1045.53" r="6.21708" stroke-width="0.5" stroke="red" fill="red"/>
   </g>
   <g id="cell20">
  <circle cx="813.016" cy="919.366" r="8.36592" stroke-width="0.5" stroke="black" fill="red"/>
  <circle cx="813.016" cy="919.366" r="5.03403" stroke-width="0.5" stroke="red" fill="red"/>
   </g>
   <g id="cell13">
  <circle cx="824.691" cy="566.325" r="8.80355" stroke-width="0.5" stroke="black" fill="grey"/>
  <circle cx="824.691" cy="566.325" r="5.33445" stroke-width="0.5" stroke="grey" fill="grey"/>
   </g>
   <g id="cell14">
  <circle cx="1226.02" cy="1294.65" r="8.60909" stroke-width="0.5" stroke="black" fill="grey"/>
  <circle cx="1226.02" cy="1294.65" r="5.19904" stroke-width="0.5" stroke="grey" fill="grey"/>
   </g>
   <g id="cell15">
  <circle cx="1120.37" cy="1174.35" r="8.84299" stroke-width="0.5" stroke="black" fill="grey"/>
  <circle cx="1120.37" cy="1174.35" r="5.36123" stroke-width="0.5" stroke="grey" fill="grey"/>
   </g>
   <g id="cell16">
  <circle cx="1166.09" cy="1697.8" r="8.40537" stroke-width="0.5" stroke="black" fill="grey"/>
  <circle cx="1166.09" cy="1697.8" r="5.04944" stroke-width="0.5" stroke="grey" fill="grey"/>
   </g>
   <g id="cell17">
  <circle cx="1111.82" cy="753.259" r="9.88" stroke-width="0.5" stroke="black" fill="red"/>
  <circle cx="1111.82" cy="753.259" r="5.99884" stroke-width="0.5" stroke="red" fill="red"/>
   </g>
   <g id="cell18">
  <circle cx="1680.03" cy="205.082" r="8.3995" stroke-width="0.5" stroke="black" fill="red"/>
  <circle cx="1680.03" cy="205.082" r="5.04738" stroke-width="0.5" stroke="red" fill="red"/>
   </g>
   <g id="cell19">
  <circle cx="1654.79" cy="1235" r="9.58085" stroke-width="0.5" stroke="black" fill="grey"/>
  <circle cx="1654.79" cy="1235" r="5.82583" stroke-width="0.5" stroke="grey" fill="grey"/>
   </g>
  </g>
 </g>
  <rect x="1750" y="2070" width="200" height="20" stroke-width="4" stroke="rgb(255,255,255)" fill="rgb(0,0,0)"/>
  <text x="1762.5" y="2057.5"
   font-family="Arial" font-size="50" fill="black" >
   200 &#956;m
  </text>
  <text x="50" y="2090"
   font-family="Arial" font-size="37.5" fill="black" >
   0 days, 0 hours, 0 minutes, and 30.9117 seconds
  </text>
  <rect x="0" y="140" width="2000" height="2000" stroke-width="4" stroke="rgb(0,0,0)" fill="none"/>
</svg>
