<?xml version="1.0" encoding="UTF-8" standalone="no"?>
<!-- Created with PhysiCell (http://PhysiCell.MathCancer.org/) -->
<svg 
 xmlns:dc="http://purl.org/dc/elements/1.1/" 
 xmlns:cc="http://creativecommons.org/ns#" 
 xmlns:rdf="http://www.w3.org/1999/02/22-rdf-syntax-ns#" 
 xmlns:svg="http://www.w3.org/2000/svg" 
 xmlns="http://www.w3.org/2000/svg" 
 version="1.1" 
 width="2000" 
 height="2140" 
 id="svg2">
  <rect x="0" y="0" width="2000" height="2140" stroke-width="4" stroke="white" fill="white"/>
  <text x="25" y="60"
   font-family="Arial" font-size="50" fill="black" >
   Current time: 1 days, 10 hours, and 0.00 minutes, z = 0.00 &#956;m
  </text>
  <text x="25" y="115"
   font-family="Arial" font-size="47.5" fill="black" >
   23 agents
  </text>
 <g id="tissue" 
    transform="translate(0,2140) scale(1,-1)">
  <g id="ECM">
  </g>
  <g id="cells">
   <g id="cell0">
  <circle cx="1131.69" cy="1164.83" r="8.38515" stroke-width="0.5" stroke="black" fill="grey"/>
  <circle cx="1131.69" cy="1164.83" r="5.04195" stroke-width="0.5" stroke="grey" fill="grey"/>
   </g>
   <g id="cell1">
  <circle cx="1701.95" cy="1219.11" r="10.4645" stroke-width="0.5" stroke="black" fill="grey"/>
  <circle cx="1701.95" cy="1219.11" r="6.30859" stroke-width="0.5" stroke="grey" fill="grey"/>
   </g>
   <g id="cell2">
  <circle cx="1161.12" cy="1706.37" r="8.38934" stroke-width="0.5" stroke="black" fill="grey"/>
  <circle cx="1161.12" cy="1706.37" r="5.0436" stroke-width="0.5" stroke="grey" fill="grey"/>
   </g>
   <g id="cell3">
  <circle cx="1274.79" cy="1290.13" r="8.38874" stroke-width="0.5" stroke="black" fill="grey"/>
  <circle cx="1274.79" cy="1290.13" r="5.04336" stroke-width="0.5" stroke="grey" fill="grey"/>
   </g>
   <g id="cell4">
  <circle cx="900.125" cy="563.087" r="10.535" stroke-width="0.5" stroke="black" fill="grey"/>
  <circle cx="900.125" cy="563.087" r="6.34023" stroke-width="0.5" stroke="grey" fill="grey"/>
   </g>
   <g id="cell5">
  <circle cx="108.968" cy="1955.65" r="10.521" stroke-width="0.5" stroke="black" fill="red"/>
  <circle cx="108.968" cy="1955.65" r="6.33415" stroke-width="0.5" stroke="red" fill="red"/>
   </g>
   <g id="cell6">
  <circle cx="805.115" cy="876.437" r="10.4029" stroke-width="0.5" stroke="black" fill="red"/>
  <circle cx="805.115" cy="876.437" r="6.27929" stroke-width="0.5" stroke="red" fill="red"/>
   </g>
   <g id="cell19">
  <circle cx="1684.39" cy="1248.6" r="8.36669" stroke-width="0.5" stroke="black" fill="grey"/>
  <circle cx="1684.39" cy="1248.6" r="5.03445" stroke-width="0.5" stroke="grey" fill="grey"/>
   </g>
   <g id="cell18">
  <circle cx="1654.72" cy="222.984" r="10.2105" stroke-width="0.5" stroke="black" fill="red"/>
  <circle cx="1654.72" cy="222.984" r="6.18027" stroke-width="0.5" stroke="red" fill="red"/>
   </g>
   <g id="cell9">
  <circle cx="1679.22" cy="226.875" r="10.4646" stroke-width="0.5" stroke="black" fill="red"/>
  <circle cx="1679.22" cy="226.875" r="6.30864" stroke-width="0.5" stroke="red" fill="red"/>
   </g>
   <g id="cell11">
  <circle cx="1587.64" cy="1075.07" r="9.71617" stroke-width="0.5" stroke="black" fill="red"/>
  <circle cx="1587.64" cy="1075.07" r="5.90523" stroke-width="0.5" stroke="red" fill="red"/>
   </g>
   <g id="cell20">
  <circle cx="831.501" cy="950.91" r="9.94344" stroke-width="0.5" stroke="black" fill="red"/>
  <circle cx="831.501" cy="950.91" r="6.03388" stroke-width="0.5" stroke="red" fill="red"/>
   </g>
   <g id="cell13">
  <circle cx="856.001" cy="568.704" r="10.4923" stroke-width="0.5" stroke="black" fill="grey"/>
  <circle cx="856.001" cy="568.704" r="6.32134" stroke-width="0.5" stroke="grey" fill="grey"/>
   </g>
   <g id="cell14">
  <circle cx="1198.67" cy="1294.38" r="10.4759" stroke-width="0.5" stroke="black" fill="grey"/>
  <circle cx="1198.67" cy="1294.38" r="6.31384" stroke-width="0.5" stroke="grey" fill="grey"/>
   </g>
   <g id="cell15">
  <circle cx="1137.37" cy="1145.38" r="10.4952" stroke-width="0.5" stroke="black" fill="grey"/>
  <circle cx="1137.37" cy="1145.38" r="6.3227" stroke-width="0.5" stroke="grey" fill="grey"/>
   </g>
   <g id="cell16">
  <circle cx="1172.11" cy="1676.14" r="10.4304" stroke-width="0.5" stroke="black" fill="grey"/>
  <circle cx="1172.11" cy="1676.14" r="6.29234" stroke-width="0.5" stroke="grey" fill="grey"/>
   </g>
   <g id="cell17">
  <circle cx="1086.38" cy="713.822" r="8.38001" stroke-width="0.5" stroke="black" fill="red"/>
  <circle cx="1086.38" cy="713.822" r="5.03991" stroke-width="0.5" stroke="red" fill="red"/>
   </g>
   <g id="cell21">
  <circle cx="1551.04" cy="1070.81" r="8.39782" stroke-width="0.5" stroke="black" fill="red"/>
  <circle cx="1551.04" cy="1070.81" r="5.04679" stroke-width="0.5" stroke="red" fill="red"/>
   </g>
   <g id="cell22">
  <circle cx="1166.64" cy="1723.24" r="8.38934" stroke-width="0.5" stroke="black" fill="grey"/>
  <circle cx="1166.64" cy="1723.24" r="5.0436" stroke-width="0.5" stroke="grey" fill="grey"/>
   </g>
   <g id="cell23">
  <circle cx="1253.65" cy="1287.2" r="8.38874" stroke-width="0.5" stroke="black" fill="grey"/>
  <circle cx="1253.65" cy="1287.2" r="5.04336" stroke-width="0.5" stroke="grey" fill="grey"/>
   </g>
   <g id="cell24">
  <circle cx="1150.74" cy="1193.29" r="8.38515" stroke-width="0.5" stroke="black" fill="grey"/>
  <circle cx="1150.74" cy="1193.29" r="5.04195" stroke-width="0.5" stroke="grey" fill="grey"/>
   </g>
   <g id="cell25">
  <circle cx="1102.63" cy="702.029" r="8.38001" stroke-width="0.5" stroke="black" fill="red"/>
  <circle cx="1102.63" cy="702.029" r="5.03991" stroke-width="0.5" stroke="red" fill="red"/>
   </g>
   <g id="cell26">
  <circle cx="1673.22" cy="1240.48" r="8.36669" stroke-width="0.5" stroke="black" fill="grey"/>
  <circle cx="1673.22" cy="1240.48" r="5.03445" stroke-width="0.5" stroke="grey" fill="grey"/>
   </g>
  </g>
 </g>
  <rect x="1750" y="2070" width="200" height="20" stroke-width="4" stroke="rgb(255,255,255)" fill="rgb(0,0,0)"/>
  <text x="1762.5" y="2057.5"
   font-family="Arial" font-size="50" fill="black" >
   200 &#956;m
  </text>
  <text x="50" y="2090"
   font-family="Arial" font-size="37.5" fill="black" >
   0 days, 0 hours, 0 minutes, and 43.9844 seconds
  </text>
  <rect x="0" y="140" width="2000" height="2000" stroke-width="4" stroke="rgb(0,0,0)" fill="none"/>
</svg>
