<?xml version="1.0" encoding="UTF-8" standalone="no"?>
<!-- Created with PhysiCell (http://PhysiCell.MathCancer.org/) -->
<svg 
 xmlns:dc="http://purl.org/dc/elements/1.1/" 
 xmlns:cc="http://creativecommons.org/ns#" 
 xmlns:rdf="http://www.w3.org/1999/02/22-rdf-syntax-ns#" 
 xmlns:svg="http://www.w3.org/2000/svg" 
 xmlns="http://www.w3.org/2000/svg" 
 version="1.1" 
 width="2000" 
 height="2140" 
 id="svg2">
  <rect x="0" y="0" width="2000" height="2140" stroke-width="4" stroke="white" fill="white"/>
  <text x="25" y="60"
   font-family="Arial" font-size="50" fill="black" >
   Current time: 0 days, 15 hours, and 50.00 minutes, z = 0.00 &#956;m
  </text>
  <text x="25" y="115"
   font-family="Arial" font-size="47.5" fill="black" >
   137 agents
  </text>
 <g id="tissue" 
    transform="translate(0,2140) scale(1,-1)">
  <g id="ECM">
  </g>
  <g id="cells">
   <g id="cell0">
  <circle cx="1102.28" cy="1179.78" r="10.4894" stroke-width="0.5" stroke="black" fill="grey"/>
  <circle cx="1102.28" cy="1179.78" r="6.31998" stroke-width="0.5" stroke="grey" fill="grey"/>
   </g>
   <g id="cell1">
  <circle cx="1671.93" cy="1193.32" r="8.37321" stroke-width="0.5" stroke="black" fill="grey"/>
  <circle cx="1671.93" cy="1193.32" r="5.03708" stroke-width="0.5" stroke="grey" fill="grey"/>
   </g>
   <g id="cell2">
  <circle cx="1108.75" cy="1737.39" r="8.38891" stroke-width="0.5" stroke="black" fill="grey"/>
  <circle cx="1108.75" cy="1737.39" r="5.0434" stroke-width="0.5" stroke="grey" fill="grey"/>
   </g>
   <g id="cell3">
  <circle cx="1229.91" cy="1293.75" r="10.5117" stroke-width="0.5" stroke="black" fill="grey"/>
  <circle cx="1229.91" cy="1293.75" r="6.33005" stroke-width="0.5" stroke="grey" fill="grey"/>
   </g>
   <g id="cell4">
  <circle cx="918.965" cy="562.486" r="10.0955" stroke-width="0.5" stroke="black" fill="grey"/>
  <circle cx="918.965" cy="562.486" r="6.11797" stroke-width="0.5" stroke="grey" fill="grey"/>
   </g>
   <g id="cell5">
  <circle cx="85.0428" cy="1911.22" r="10.4573" stroke-width="0.5" stroke="black" fill="grey"/>
  <circle cx="85.0428" cy="1911.22" r="6.30507" stroke-width="0.5" stroke="grey" fill="grey"/>
   </g>
   <g id="cell6">
  <circle cx="753.193" cy="895.565" r="10.3933" stroke-width="0.5" stroke="black" fill="grey"/>
  <circle cx="753.193" cy="895.565" r="6.27417" stroke-width="0.5" stroke="grey" fill="grey"/>
   </g>
   <g id="cell7">
  <circle cx="1560" cy="1045.43" r="10.537" stroke-width="0.5" stroke="black" fill="grey"/>
  <circle cx="1560" cy="1045.43" r="6.34103" stroke-width="0.5" stroke="grey" fill="grey"/>
   </g>
   <g id="cell8">
  <circle cx="1108.16" cy="786.872" r="8.38823" stroke-width="0.5" stroke="black" fill="grey"/>
  <circle cx="1108.16" cy="786.872" r="5.04313" stroke-width="0.5" stroke="grey" fill="grey"/>
   </g>
   <g id="cell9">
  <circle cx="1612.61" cy="182.531" r="10.483" stroke-width="0.5" stroke="black" fill="grey"/>
  <circle cx="1612.61" cy="182.531" r="6.31703" stroke-width="0.5" stroke="grey" fill="grey"/>
   </g>
   <g id="cell10">
  <circle cx="173.781" cy="1280.18" r="10.1996" stroke-width="0.5" stroke="black" fill="grey"/>
  <circle cx="173.781" cy="1280.18" r="6.17434" stroke-width="0.5" stroke="grey" fill="grey"/>
   </g>
   <g id="cell11">
  <circle cx="738.823" cy="1634.49" r="8.38118" stroke-width="0.5" stroke="black" fill="grey"/>
  <circle cx="738.823" cy="1634.49" r="5.04034" stroke-width="0.5" stroke="grey" fill="grey"/>
   </g>
   <g id="cell12">
  <circle cx="1614.83" cy="261.856" r="10.4796" stroke-width="0.5" stroke="black" fill="grey"/>
  <circle cx="1614.83" cy="261.856" r="6.31548" stroke-width="0.5" stroke="grey" fill="grey"/>
   </g>
   <g id="cell13">
  <circle cx="1737.81" cy="1887.57" r="8.38291" stroke-width="0.5" stroke="black" fill="grey"/>
  <circle cx="1737.81" cy="1887.57" r="5.04103" stroke-width="0.5" stroke="grey" fill="grey"/>
   </g>
   <g id="cell14">
  <circle cx="1569.22" cy="1645.85" r="9.4743" stroke-width="0.5" stroke="black" fill="grey"/>
  <circle cx="1569.22" cy="1645.85" r="5.75875" stroke-width="0.5" stroke="grey" fill="grey"/>
   </g>
   <g id="cell15">
  <circle cx="1059.9" cy="1526.15" r="10.5166" stroke-width="0.5" stroke="black" fill="grey"/>
  <circle cx="1059.9" cy="1526.15" r="6.33218" stroke-width="0.5" stroke="grey" fill="grey"/>
   </g>
   <g id="cell16">
  <circle cx="248.212" cy="1422.31" r="8.36972" stroke-width="0.5" stroke="black" fill="grey"/>
  <circle cx="248.212" cy="1422.31" r="5.03563" stroke-width="0.5" stroke="grey" fill="grey"/>
   </g>
   <g id="cell17">
  <circle cx="1202.28" cy="264.472" r="10.5333" stroke-width="0.5" stroke="black" fill="grey"/>
  <circle cx="1202.28" cy="264.472" r="6.33948" stroke-width="0.5" stroke="grey" fill="grey"/>
   </g>
   <g id="cell18">
  <circle cx="1871.06" cy="1548.65" r="8.38206" stroke-width="0.5" stroke="black" fill="grey"/>
  <circle cx="1871.06" cy="1548.65" r="5.04069" stroke-width="0.5" stroke="grey" fill="grey"/>
   </g>
   <g id="cell19">
  <circle cx="239.755" cy="876.094" r="8.41271" stroke-width="0.5" stroke="black" fill="grey"/>
  <circle cx="239.755" cy="876.094" r="5.05167" stroke-width="0.5" stroke="grey" fill="grey"/>
   </g>
   <g id="cell20">
  <circle cx="544.973" cy="351.384" r="10.1758" stroke-width="0.5" stroke="black" fill="grey"/>
  <circle cx="544.973" cy="351.384" r="6.16159" stroke-width="0.5" stroke="grey" fill="grey"/>
   </g>
   <g id="cell21">
  <circle cx="1434.2" cy="909.146" r="10.3991" stroke-width="0.5" stroke="black" fill="grey"/>
  <circle cx="1434.2" cy="909.146" r="6.27703" stroke-width="0.5" stroke="grey" fill="grey"/>
   </g>
   <g id="cell22">
  <circle cx="1123.76" cy="257.405" r="9.67603" stroke-width="0.5" stroke="black" fill="grey"/>
  <circle cx="1123.76" cy="257.405" r="5.87901" stroke-width="0.5" stroke="grey" fill="grey"/>
   </g>
   <g id="cell23">
  <circle cx="641.8" cy="1243.18" r="2.69743" stroke-width="0.5" stroke="black" fill="grey"/>
  <circle cx="641.8" cy="1243.18" r="2.51369" stroke-width="0.5" stroke="black" fill="black"/>
   </g>
   <g id="cell24">
  <circle cx="1276.21" cy="397.365" r="10.0497" stroke-width="0.5" stroke="black" fill="grey"/>
  <circle cx="1276.21" cy="397.365" r="6.09278" stroke-width="0.5" stroke="grey" fill="grey"/>
   </g>
   <g id="cell25">
  <circle cx="802.037" cy="1884.57" r="8.38823" stroke-width="0.5" stroke="black" fill="grey"/>
  <circle cx="802.037" cy="1884.57" r="5.04313" stroke-width="0.5" stroke="grey" fill="grey"/>
   </g>
   <g id="cell26">
  <circle cx="1362.32" cy="873.64" r="10.2728" stroke-width="0.5" stroke="black" fill="grey"/>
  <circle cx="1362.32" cy="873.64" r="6.21295" stroke-width="0.5" stroke="grey" fill="grey"/>
   </g>
   <g id="cell27">
  <circle cx="1200.79" cy="893.218" r="10.5275" stroke-width="0.5" stroke="black" fill="grey"/>
  <circle cx="1200.79" cy="893.218" r="6.33696" stroke-width="0.5" stroke="grey" fill="grey"/>
   </g>
   <g id="cell28">
  <circle cx="1331.15" cy="170.349" r="8.36849" stroke-width="0.5" stroke="black" fill="grey"/>
  <circle cx="1331.15" cy="170.349" r="5.03512" stroke-width="0.5" stroke="grey" fill="grey"/>
   </g>
   <g id="cell29">
  <circle cx="1960.1" cy="1295.32" r="10.5092" stroke-width="0.5" stroke="black" fill="grey"/>
  <circle cx="1960.1" cy="1295.32" r="6.32893" stroke-width="0.5" stroke="grey" fill="grey"/>
   </g>
   <g id="cell30">
  <circle cx="1349.4" cy="346.356" r="10.4796" stroke-width="0.5" stroke="black" fill="grey"/>
  <circle cx="1349.4" cy="346.356" r="6.31548" stroke-width="0.5" stroke="grey" fill="grey"/>
   </g>
   <g id="cell31">
  <circle cx="684.549" cy="245.938" r="8.38373" stroke-width="0.5" stroke="black" fill="grey"/>
  <circle cx="684.549" cy="245.938" r="5.04136" stroke-width="0.5" stroke="grey" fill="grey"/>
   </g>
   <g id="cell32">
  <circle cx="605.157" cy="1215.48" r="8.38291" stroke-width="0.5" stroke="black" fill="grey"/>
  <circle cx="605.157" cy="1215.48" r="5.04103" stroke-width="0.5" stroke="grey" fill="grey"/>
   </g>
   <g id="cell33">
  <circle cx="684.733" cy="1181.34" r="10.4689" stroke-width="0.5" stroke="black" fill="grey"/>
  <circle cx="684.733" cy="1181.34" r="6.31053" stroke-width="0.5" stroke="grey" fill="grey"/>
   </g>
   <g id="cell34">
  <circle cx="886.36" cy="1254.25" r="8.38753" stroke-width="0.5" stroke="black" fill="grey"/>
  <circle cx="886.36" cy="1254.25" r="5.04286" stroke-width="0.5" stroke="grey" fill="grey"/>
   </g>
   <g id="cell35">
  <circle cx="1912.76" cy="212.939" r="8.51221" stroke-width="0.5" stroke="black" fill="grey"/>
  <circle cx="1912.76" cy="212.939" r="5.13764" stroke-width="0.5" stroke="grey" fill="grey"/>
   </g>
   <g id="cell36">
  <circle cx="368.25" cy="1306" r="8.37431" stroke-width="0.5" stroke="black" fill="grey"/>
  <circle cx="368.25" cy="1306" r="5.03754" stroke-width="0.5" stroke="grey" fill="grey"/>
   </g>
   <g id="cell37">
  <circle cx="1978.81" cy="1316.88" r="9.4743" stroke-width="0.5" stroke="black" fill="grey"/>
  <circle cx="1978.81" cy="1316.88" r="5.75875" stroke-width="0.5" stroke="grey" fill="grey"/>
   </g>
   <g id="cell38">
  <circle cx="444.493" cy="861.336" r="8.54738" stroke-width="0.5" stroke="black" fill="grey"/>
  <circle cx="444.493" cy="861.336" r="5.16319" stroke-width="0.5" stroke="grey" fill="grey"/>
   </g>
   <g id="cell39">
  <circle cx="929.67" cy="487.701" r="10.1506" stroke-width="0.5" stroke="black" fill="grey"/>
  <circle cx="929.67" cy="487.701" r="6.14798" stroke-width="0.5" stroke="grey" fill="grey"/>
   </g>
   <g id="cell40">
  <circle cx="308.381" cy="642.84" r="8.38206" stroke-width="0.5" stroke="black" fill="grey"/>
  <circle cx="308.381" cy="642.84" r="5.04069" stroke-width="0.5" stroke="grey" fill="grey"/>
   </g>
   <g id="cell41">
  <circle cx="1330.26" cy="1289.06" r="8.38957" stroke-width="0.5" stroke="black" fill="grey"/>
  <circle cx="1330.26" cy="1289.06" r="5.04365" stroke-width="0.5" stroke="grey" fill="grey"/>
   </g>
   <g id="cell42">
  <circle cx="280.243" cy="1555.08" r="10.5333" stroke-width="0.5" stroke="black" fill="grey"/>
  <circle cx="280.243" cy="1555.08" r="6.33948" stroke-width="0.5" stroke="grey" fill="grey"/>
   </g>
   <g id="cell43">
  <circle cx="1940.06" cy="782.983" r="8.36972" stroke-width="0.5" stroke="black" fill="grey"/>
  <circle cx="1940.06" cy="782.983" r="5.03563" stroke-width="0.5" stroke="grey" fill="grey"/>
   </g>
   <g id="cell44">
  <circle cx="1652.81" cy="62.3724" r="10.537" stroke-width="0.5" stroke="black" fill="grey"/>
  <circle cx="1652.81" cy="62.3724" r="6.34103" stroke-width="0.5" stroke="grey" fill="grey"/>
   </g>
   <g id="cell45">
  <circle cx="1224.04" cy="1705.79" r="10.5211" stroke-width="0.5" stroke="black" fill="grey"/>
  <circle cx="1224.04" cy="1705.79" r="6.33419" stroke-width="0.5" stroke="grey" fill="grey"/>
   </g>
   <g id="cell46">
  <circle cx="191.239" cy="1967.55" r="8.36849" stroke-width="0.5" stroke="black" fill="grey"/>
  <circle cx="191.239" cy="1967.55" r="5.03512" stroke-width="0.5" stroke="grey" fill="grey"/>
   </g>
   <g id="cell47">
  <circle cx="1726.96" cy="935.911" r="8.82448" stroke-width="0.5" stroke="black" fill="grey"/>
  <circle cx="1726.96" cy="935.911" r="5.35418" stroke-width="0.5" stroke="grey" fill="grey"/>
   </g>
   <g id="cell48">
  <circle cx="1933.62" cy="80.6328" r="10.4689" stroke-width="0.5" stroke="black" fill="grey"/>
  <circle cx="1933.62" cy="80.6328" r="6.31053" stroke-width="0.5" stroke="grey" fill="grey"/>
   </g>
   <g id="cell49">
  <circle cx="926.798" cy="1486.86" r="10.5211" stroke-width="0.5" stroke="black" fill="grey"/>
  <circle cx="926.798" cy="1486.86" r="6.33419" stroke-width="0.5" stroke="grey" fill="grey"/>
   </g>
   <g id="cell50">
  <circle cx="157.381" cy="838.349" r="10.5189" stroke-width="0.5" stroke="black" fill="red"/>
  <circle cx="157.381" cy="838.349" r="6.3332" stroke-width="0.5" stroke="red" fill="red"/>
   </g>
   <g id="cell51">
  <circle cx="1958.74" cy="271.579" r="9.7992" stroke-width="0.5" stroke="black" fill="red"/>
  <circle cx="1958.74" cy="271.579" r="5.95086" stroke-width="0.5" stroke="red" fill="red"/>
   </g>
   <g id="cell52">
  <circle cx="633.865" cy="962.768" r="10.5333" stroke-width="0.5" stroke="black" fill="red"/>
  <circle cx="633.865" cy="962.768" r="6.33948" stroke-width="0.5" stroke="red" fill="red"/>
   </g>
   <g id="cell53">
  <circle cx="1373.33" cy="654.184" r="9.37686" stroke-width="0.5" stroke="black" fill="red"/>
  <circle cx="1373.33" cy="654.184" r="5.69955" stroke-width="0.5" stroke="red" fill="red"/>
   </g>
   <g id="cell54">
  <circle cx="785.599" cy="1818.65" r="8.36722" stroke-width="0.5" stroke="black" fill="red"/>
  <circle cx="785.599" cy="1818.65" r="5.03458" stroke-width="0.5" stroke="red" fill="red"/>
   </g>
   <g id="cell55">
  <circle cx="429.13" cy="1340.89" r="9.20015" stroke-width="0.5" stroke="black" fill="red"/>
  <circle cx="429.13" cy="1340.89" r="5.59022" stroke-width="0.5" stroke="red" fill="red"/>
   </g>
   <g id="cell56">
  <circle cx="1147.21" cy="1690.97" r="10.0654" stroke-width="0.5" stroke="black" fill="red"/>
  <circle cx="1147.21" cy="1690.97" r="6.10145" stroke-width="0.5" stroke="red" fill="red"/>
   </g>
   <g id="cell57">
  <circle cx="984.301" cy="1084.5" r="8.9033" stroke-width="0.5" stroke="black" fill="red"/>
  <circle cx="984.301" cy="1084.5" r="5.4068" stroke-width="0.5" stroke="red" fill="red"/>
   </g>
   <g id="cell58">
  <circle cx="113.397" cy="1832.71" r="10.4401" stroke-width="0.5" stroke="black" fill="red"/>
  <circle cx="113.397" cy="1832.71" r="6.29691" stroke-width="0.5" stroke="red" fill="red"/>
   </g>
   <g id="cell98">
  <circle cx="1816.09" cy="692.556" r="10.4925" stroke-width="0.5" stroke="black" fill="red"/>
  <circle cx="1816.09" cy="692.556" r="6.32139" stroke-width="0.5" stroke="red" fill="red"/>
   </g>
   <g id="cell60">
  <circle cx="663.134" cy="34.6052" r="10.5254" stroke-width="0.5" stroke="black" fill="red"/>
  <circle cx="663.134" cy="34.6052" r="6.33607" stroke-width="0.5" stroke="red" fill="red"/>
   </g>
   <g id="cell61">
  <circle cx="1647.74" cy="273.657" r="8.37208" stroke-width="0.5" stroke="black" fill="red"/>
  <circle cx="1647.74" cy="273.657" r="5.03661" stroke-width="0.5" stroke="red" fill="red"/>
   </g>
   <g id="cell62">
  <circle cx="1415.86" cy="1686.91" r="8.36592" stroke-width="0.5" stroke="black" fill="red"/>
  <circle cx="1415.86" cy="1686.91" r="5.03403" stroke-width="0.5" stroke="red" fill="red"/>
   </g>
   <g id="cell63">
  <circle cx="555.068" cy="377.327" r="10.4208" stroke-width="0.5" stroke="black" fill="red"/>
  <circle cx="555.068" cy="377.327" r="6.28762" stroke-width="0.5" stroke="red" fill="red"/>
   </g>
   <g id="cell64">
  <circle cx="1200.49" cy="1092.46" r="10.5254" stroke-width="0.5" stroke="black" fill="red"/>
  <circle cx="1200.49" cy="1092.46" r="6.33607" stroke-width="0.5" stroke="red" fill="red"/>
   </g>
   <g id="cell65">
  <circle cx="307.765" cy="1648.74" r="8.36722" stroke-width="0.5" stroke="black" fill="red"/>
  <circle cx="307.765" cy="1648.74" r="5.03458" stroke-width="0.5" stroke="red" fill="red"/>
   </g>
   <g id="cell66">
  <circle cx="13.493" cy="270.608" r="10.5066" stroke-width="0.5" stroke="black" fill="red"/>
  <circle cx="13.493" cy="270.608" r="6.32777" stroke-width="0.5" stroke="red" fill="red"/>
   </g>
   <g id="cell67">
  <circle cx="1131.93" cy="567.265" r="10.3682" stroke-width="0.5" stroke="black" fill="red"/>
  <circle cx="1131.93" cy="567.265" r="6.26172" stroke-width="0.5" stroke="red" fill="red"/>
   </g>
   <g id="cell68">
  <circle cx="1435.35" cy="600.533" r="10.5352" stroke-width="0.5" stroke="black" fill="red"/>
  <circle cx="1435.35" cy="600.533" r="6.34027" stroke-width="0.5" stroke="red" fill="red"/>
   </g>
   <g id="cell69">
  <circle cx="823.983" cy="506.727" r="10.483" stroke-width="0.5" stroke="black" fill="red"/>
  <circle cx="823.983" cy="506.727" r="6.31703" stroke-width="0.5" stroke="red" fill="red"/>
   </g>
   <g id="cell70">
  <circle cx="1145.5" cy="780.881" r="8.37431" stroke-width="0.5" stroke="black" fill="red"/>
  <circle cx="1145.5" cy="780.881" r="5.03754" stroke-width="0.5" stroke="red" fill="red"/>
   </g>
   <g id="cell71">
  <circle cx="1739.83" cy="1176.58" r="8.38608" stroke-width="0.5" stroke="black" fill="red"/>
  <circle cx="1739.83" cy="1176.58" r="5.04229" stroke-width="0.5" stroke="red" fill="red"/>
   </g>
   <g id="cell72">
  <circle cx="440.184" cy="1765.5" r="8.41271" stroke-width="0.5" stroke="black" fill="red"/>
  <circle cx="440.184" cy="1765.5" r="5.05167" stroke-width="0.5" stroke="red" fill="red"/>
   </g>
   <g id="cell73">
  <circle cx="1370.01" cy="856.314" r="8.42572" stroke-width="0.5" stroke="black" fill="red"/>
  <circle cx="1370.01" cy="856.314" r="5.07208" stroke-width="0.5" stroke="red" fill="red"/>
   </g>
   <g id="cell74">
  <circle cx="1724.73" cy="1878.98" r="8.36849" stroke-width="0.5" stroke="black" fill="red"/>
  <circle cx="1724.73" cy="1878.98" r="5.03512" stroke-width="0.5" stroke="red" fill="red"/>
   </g>
   <g id="cell75">
  <circle cx="252.005" cy="562.41" r="8.54454" stroke-width="0.5" stroke="black" fill="red"/>
  <circle cx="252.005" cy="562.41" r="5.14947" stroke-width="0.5" stroke="red" fill="red"/>
   </g>
   <g id="cell76">
  <circle cx="1630.2" cy="754.963" r="10.4894" stroke-width="0.5" stroke="black" fill="red"/>
  <circle cx="1630.2" cy="754.963" r="6.31998" stroke-width="0.5" stroke="red" fill="red"/>
   </g>
   <g id="cell77">
  <circle cx="1413.1" cy="1807.16" r="8.37742" stroke-width="0.5" stroke="black" fill="red"/>
  <circle cx="1413.1" cy="1807.16" r="5.03881" stroke-width="0.5" stroke="red" fill="red"/>
   </g>
   <g id="cell78">
  <circle cx="1157.89" cy="616.991" r="10.2221" stroke-width="0.5" stroke="black" fill="red"/>
  <circle cx="1157.89" cy="616.991" r="6.18628" stroke-width="0.5" stroke="red" fill="red"/>
   </g>
   <g id="cell79">
  <circle cx="1984.54" cy="1435.08" r="10.4955" stroke-width="0.5" stroke="black" fill="red"/>
  <circle cx="1984.54" cy="1435.08" r="6.32275" stroke-width="0.5" stroke="red" fill="red"/>
   </g>
   <g id="cell80">
  <circle cx="1439.42" cy="1306.71" r="8.37537" stroke-width="0.5" stroke="black" fill="red"/>
  <circle cx="1439.42" cy="1306.71" r="5.03798" stroke-width="0.5" stroke="red" fill="red"/>
   </g>
   <g id="cell81">
  <circle cx="1114.65" cy="1905.15" r="10.5275" stroke-width="0.5" stroke="black" fill="red"/>
  <circle cx="1114.65" cy="1905.15" r="6.33696" stroke-width="0.5" stroke="red" fill="red"/>
   </g>
   <g id="cell82">
  <circle cx="1281.26" cy="817.671" r="8.38118" stroke-width="0.5" stroke="black" fill="red"/>
  <circle cx="1281.26" cy="817.671" r="5.04034" stroke-width="0.5" stroke="red" fill="red"/>
   </g>
   <g id="cell83">
  <circle cx="1216.91" cy="1229.87" r="8.38823" stroke-width="0.5" stroke="black" fill="red"/>
  <circle cx="1216.91" cy="1229.87" r="5.04313" stroke-width="0.5" stroke="red" fill="red"/>
   </g>
   <g id="cell84">
  <circle cx="27.0371" cy="910.509" r="9.53557" stroke-width="0.5" stroke="black" fill="red"/>
  <circle cx="27.0371" cy="910.509" r="5.79561" stroke-width="0.5" stroke="red" fill="red"/>
   </g>
   <g id="cell85">
  <circle cx="1429.05" cy="1295.56" r="10.2821" stroke-width="0.5" stroke="black" fill="red"/>
  <circle cx="1429.05" cy="1295.56" r="6.21778" stroke-width="0.5" stroke="red" fill="red"/>
   </g>
   <g id="cell86">
  <circle cx="576.922" cy="804.006" r="10.5166" stroke-width="0.5" stroke="black" fill="red"/>
  <circle cx="576.922" cy="804.006" r="6.33218" stroke-width="0.5" stroke="red" fill="red"/>
   </g>
   <g id="cell87">
  <circle cx="1454.24" cy="893.289" r="10.2728" stroke-width="0.5" stroke="black" fill="red"/>
  <circle cx="1454.24" cy="893.289" r="6.21295" stroke-width="0.5" stroke="red" fill="red"/>
   </g>
   <g id="cell88">
  <circle cx="269.839" cy="205.207" r="8.36849" stroke-width="0.5" stroke="black" fill="red"/>
  <circle cx="269.839" cy="205.207" r="5.03512" stroke-width="0.5" stroke="red" fill="red"/>
   </g>
   <g id="cell89">
  <circle cx="202.634" cy="1174.62" r="8.37208" stroke-width="0.5" stroke="black" fill="red"/>
  <circle cx="202.634" cy="1174.62" r="5.03661" stroke-width="0.5" stroke="red" fill="red"/>
   </g>
   <g id="cell90">
  <circle cx="1167.25" cy="1102.06" r="10.4531" stroke-width="0.5" stroke="black" fill="red"/>
  <circle cx="1167.25" cy="1102.06" r="6.30312" stroke-width="0.5" stroke="red" fill="red"/>
   </g>
   <g id="cell91">
  <circle cx="40.3119" cy="1253.15" r="8.37742" stroke-width="0.5" stroke="black" fill="red"/>
  <circle cx="40.3119" cy="1253.15" r="5.03881" stroke-width="0.5" stroke="red" fill="red"/>
   </g>
   <g id="cell99">
  <circle cx="937.131" cy="1986.87" r="9.02378" stroke-width="0.5" stroke="black" fill="red"/>
  <circle cx="937.131" cy="1986.87" r="5.48464" stroke-width="0.5" stroke="red" fill="red"/>
   </g>
   <g id="cell93">
  <circle cx="411.167" cy="1791.78" r="8.38753" stroke-width="0.5" stroke="black" fill="red"/>
  <circle cx="411.167" cy="1791.78" r="5.04286" stroke-width="0.5" stroke="red" fill="red"/>
   </g>
   <g id="cell94">
  <circle cx="764.132" cy="193.228" r="10.5295" stroke-width="0.5" stroke="black" fill="red"/>
  <circle cx="764.132" cy="193.228" r="6.33783" stroke-width="0.5" stroke="red" fill="red"/>
   </g>
   <g id="cell95">
  <circle cx="1984.07" cy="1765.51" r="8.38454" stroke-width="0.5" stroke="black" fill="red"/>
  <circle cx="1984.07" cy="1765.51" r="5.04168" stroke-width="0.5" stroke="red" fill="red"/>
   </g>
   <g id="cell96">
  <circle cx="1687" cy="1087.17" r="10.1758" stroke-width="0.5" stroke="black" fill="red"/>
  <circle cx="1687" cy="1087.17" r="6.16159" stroke-width="0.5" stroke="red" fill="red"/>
   </g>
   <g id="cell97">
  <circle cx="930.018" cy="171.986" r="10.5254" stroke-width="0.5" stroke="black" fill="red"/>
  <circle cx="930.018" cy="171.986" r="6.33607" stroke-width="0.5" stroke="red" fill="red"/>
   </g>
   <g id="cell101">
  <circle cx="1312.62" cy="1263.37" r="8.94796" stroke-width="0.5" stroke="black" fill="grey"/>
  <circle cx="1312.62" cy="1263.37" r="5.43485" stroke-width="0.5" stroke="grey" fill="grey"/>
   </g>
   <g id="cell102">
  <circle cx="1087.06" cy="1763.36" r="8.38891" stroke-width="0.5" stroke="black" fill="grey"/>
  <circle cx="1087.06" cy="1763.36" r="5.0434" stroke-width="0.5" stroke="grey" fill="grey"/>
   </g>
   <g id="cell103">
  <circle cx="1201.7" cy="1254.19" r="8.74527" stroke-width="0.5" stroke="black" fill="red"/>
  <circle cx="1201.7" cy="1254.19" r="5.30039" stroke-width="0.5" stroke="red" fill="red"/>
   </g>
   <g id="cell104">
  <circle cx="784.913" cy="1881.37" r="9.10409" stroke-width="0.5" stroke="black" fill="grey"/>
  <circle cx="784.913" cy="1881.37" r="5.53516" stroke-width="0.5" stroke="grey" fill="grey"/>
   </g>
   <g id="cell105">
  <circle cx="1153.64" cy="801.125" r="9.10409" stroke-width="0.5" stroke="black" fill="grey"/>
  <circle cx="1153.64" cy="801.125" r="5.53516" stroke-width="0.5" stroke="grey" fill="grey"/>
   </g>
   <g id="cell106">
  <circle cx="434.063" cy="1786.45" r="8.55435" stroke-width="0.5" stroke="black" fill="red"/>
  <circle cx="434.063" cy="1786.45" r="5.16599" stroke-width="0.5" stroke="red" fill="red"/>
   </g>
   <g id="cell107">
  <circle cx="925.526" cy="1250.21" r="8.38753" stroke-width="0.5" stroke="black" fill="grey"/>
  <circle cx="925.526" cy="1250.21" r="5.04286" stroke-width="0.5" stroke="grey" fill="grey"/>
   </g>
   <g id="cell108">
  <circle cx="1746.95" cy="937.026" r="8.38682" stroke-width="0.5" stroke="black" fill="grey"/>
  <circle cx="1746.95" cy="937.026" r="5.04258" stroke-width="0.5" stroke="grey" fill="grey"/>
   </g>
   <g id="cell109">
  <circle cx="1731.5" cy="1200.31" r="8.38608" stroke-width="0.5" stroke="black" fill="red"/>
  <circle cx="1731.5" cy="1200.31" r="5.04229" stroke-width="0.5" stroke="red" fill="red"/>
   </g>
   <g id="cell110">
  <circle cx="978.705" cy="1968.43" r="8.38532" stroke-width="0.5" stroke="black" fill="red"/>
  <circle cx="978.705" cy="1968.43" r="5.04199" stroke-width="0.5" stroke="red" fill="red"/>
   </g>
   <g id="cell111">
  <circle cx="1965.68" cy="1744.68" r="8.38454" stroke-width="0.5" stroke="black" fill="red"/>
  <circle cx="1965.68" cy="1744.68" r="5.04168" stroke-width="0.5" stroke="red" fill="red"/>
   </g>
   <g id="cell112">
  <circle cx="1000.07" cy="1076.31" r="8.51723" stroke-width="0.5" stroke="black" fill="red"/>
  <circle cx="1000.07" cy="1076.31" r="5.13967" stroke-width="0.5" stroke="red" fill="red"/>
   </g>
   <g id="cell113">
  <circle cx="681.003" cy="216.005" r="8.38373" stroke-width="0.5" stroke="black" fill="grey"/>
  <circle cx="681.003" cy="216.005" r="5.04136" stroke-width="0.5" stroke="grey" fill="grey"/>
   </g>
   <g id="cell114">
  <circle cx="610.596" cy="1254.6" r="8.38291" stroke-width="0.5" stroke="black" fill="grey"/>
  <circle cx="610.596" cy="1254.6" r="5.04103" stroke-width="0.5" stroke="grey" fill="grey"/>
   </g>
   <g id="cell115">
  <circle cx="1733.93" cy="1905.33" r="8.38291" stroke-width="0.5" stroke="black" fill="grey"/>
  <circle cx="1733.93" cy="1905.33" r="5.04103" stroke-width="0.5" stroke="grey" fill="grey"/>
   </g>
   <g id="cell116">
  <circle cx="322.206" cy="682.052" r="8.38206" stroke-width="0.5" stroke="black" fill="grey"/>
  <circle cx="322.206" cy="682.052" r="5.04069" stroke-width="0.5" stroke="grey" fill="grey"/>
   </g>
   <g id="cell117">
  <circle cx="1897.01" cy="1535.92" r="8.38206" stroke-width="0.5" stroke="black" fill="grey"/>
  <circle cx="1897.01" cy="1535.92" r="5.04069" stroke-width="0.5" stroke="grey" fill="grey"/>
   </g>
   <g id="cell118">
  <circle cx="1334.78" cy="873.213" r="8.38206" stroke-width="0.5" stroke="black" fill="red"/>
  <circle cx="1334.78" cy="873.213" r="5.04069" stroke-width="0.5" stroke="red" fill="red"/>
   </g>
   <g id="cell119">
  <circle cx="1276.09" cy="834.18" r="8.38118" stroke-width="0.5" stroke="black" fill="red"/>
  <circle cx="1276.09" cy="834.18" r="5.04034" stroke-width="0.5" stroke="red" fill="red"/>
   </g>
   <g id="cell120">
  <circle cx="727.313" cy="1672.07" r="8.38118" stroke-width="0.5" stroke="black" fill="grey"/>
  <circle cx="727.313" cy="1672.07" r="5.04034" stroke-width="0.5" stroke="grey" fill="grey"/>
   </g>
   <g id="cell121">
  <circle cx="429.188" cy="869.918" r="8.38028" stroke-width="0.5" stroke="black" fill="grey"/>
  <circle cx="429.188" cy="869.918" r="5.03997" stroke-width="0.5" stroke="grey" fill="grey"/>
   </g>
   <g id="cell122">
  <circle cx="1910.04" cy="232.924" r="8.37935" stroke-width="0.5" stroke="black" fill="grey"/>
  <circle cx="1910.04" cy="232.924" r="5.0396" stroke-width="0.5" stroke="grey" fill="grey"/>
   </g>
   <g id="cell123">
  <circle cx="63.6088" cy="1271.97" r="8.37742" stroke-width="0.5" stroke="black" fill="red"/>
  <circle cx="63.6088" cy="1271.97" r="5.03881" stroke-width="0.5" stroke="red" fill="red"/>
   </g>
   <g id="cell124">
  <circle cx="1392.87" cy="1823.35" r="8.39738" stroke-width="0.5" stroke="black" fill="red"/>
  <circle cx="1392.87" cy="1823.35" r="5.05274" stroke-width="0.5" stroke="red" fill="red"/>
   </g>
   <g id="cell125">
  <circle cx="1459.52" cy="1310.02" r="8.37537" stroke-width="0.5" stroke="black" fill="red"/>
  <circle cx="1459.52" cy="1310.02" r="5.03798" stroke-width="0.5" stroke="red" fill="red"/>
   </g>
   <g id="cell126">
  <circle cx="1163.79" cy="787.602" r="8.37431" stroke-width="0.5" stroke="black" fill="red"/>
  <circle cx="1163.79" cy="787.602" r="5.03754" stroke-width="0.5" stroke="red" fill="red"/>
   </g>
   <g id="cell127">
  <circle cx="390.664" cy="1295.76" r="8.37431" stroke-width="0.5" stroke="black" fill="grey"/>
  <circle cx="390.664" cy="1295.76" r="5.03754" stroke-width="0.5" stroke="grey" fill="grey"/>
   </g>
   <g id="cell128">
  <circle cx="1675.61" cy="1209.68" r="8.37321" stroke-width="0.5" stroke="black" fill="grey"/>
  <circle cx="1675.61" cy="1209.68" r="5.03708" stroke-width="0.5" stroke="grey" fill="grey"/>
   </g>
   <g id="cell129">
  <circle cx="1646.96" cy="292.065" r="8.39206" stroke-width="0.5" stroke="black" fill="red"/>
  <circle cx="1646.96" cy="292.065" r="5.05055" stroke-width="0.5" stroke="red" fill="red"/>
   </g>
   <g id="cell130">
  <circle cx="200.008" cy="1191.51" r="8.37208" stroke-width="0.5" stroke="black" fill="red"/>
  <circle cx="200.008" cy="1191.51" r="5.03661" stroke-width="0.5" stroke="red" fill="red"/>
   </g>
   <g id="cell131">
  <circle cx="239.646" cy="1434.72" r="8.36972" stroke-width="0.5" stroke="black" fill="grey"/>
  <circle cx="239.646" cy="1434.72" r="5.03563" stroke-width="0.5" stroke="grey" fill="grey"/>
   </g>
   <g id="cell132">
  <circle cx="1956.27" cy="776.64" r="8.36972" stroke-width="0.5" stroke="black" fill="grey"/>
  <circle cx="1956.27" cy="776.64" r="5.03563" stroke-width="0.5" stroke="grey" fill="grey"/>
   </g>
   <g id="cell133">
  <circle cx="257.365" cy="196.688" r="8.36849" stroke-width="0.5" stroke="black" fill="red"/>
  <circle cx="257.365" cy="196.688" r="5.03512" stroke-width="0.5" stroke="red" fill="red"/>
   </g>
   <g id="cell134">
  <circle cx="1334.31" cy="185.427" r="8.36849" stroke-width="0.5" stroke="black" fill="grey"/>
  <circle cx="1334.31" cy="185.427" r="5.03512" stroke-width="0.5" stroke="grey" fill="grey"/>
   </g>
   <g id="cell135">
  <circle cx="166.786" cy="1968.01" r="8.36849" stroke-width="0.5" stroke="black" fill="grey"/>
  <circle cx="166.786" cy="1968.01" r="5.03512" stroke-width="0.5" stroke="grey" fill="grey"/>
   </g>
   <g id="cell136">
  <circle cx="1716.65" cy="1900.85" r="8.36849" stroke-width="0.5" stroke="black" fill="red"/>
  <circle cx="1716.65" cy="1900.85" r="5.03512" stroke-width="0.5" stroke="red" fill="red"/>
   </g>
   <g id="cell137">
  <circle cx="778.429" cy="1833.69" r="8.36722" stroke-width="0.5" stroke="black" fill="red"/>
  <circle cx="778.429" cy="1833.69" r="5.03458" stroke-width="0.5" stroke="red" fill="red"/>
   </g>
   <g id="cell138">
  <circle cx="308.009" cy="1633.56" r="8.36722" stroke-width="0.5" stroke="black" fill="red"/>
  <circle cx="308.009" cy="1633.56" r="5.03458" stroke-width="0.5" stroke="red" fill="red"/>
   </g>
   <g id="cell139">
  <circle cx="1408.73" cy="1674.75" r="8.36592" stroke-width="0.5" stroke="black" fill="red"/>
  <circle cx="1408.73" cy="1674.75" r="5.03403" stroke-width="0.5" stroke="red" fill="red"/>
   </g>
  </g>
 </g>
  <rect x="1750" y="2070" width="200" height="20" stroke-width="4" stroke="rgb(255,255,255)" fill="rgb(0,0,0)"/>
  <text x="1762.5" y="2057.5"
   font-family="Arial" font-size="50" fill="black" >
   200 &#956;m
  </text>
  <text x="50" y="2090"
   font-family="Arial" font-size="37.5" fill="black" >
   0 days, 0 hours, 0 minutes, and 23.4273 seconds
  </text>
  <rect x="0" y="140" width="2000" height="2000" stroke-width="4" stroke="rgb(0,0,0)" fill="none"/>
</svg>
