<?xml version="1.0" encoding="UTF-8" standalone="no"?>
<!-- Created with PhysiCell (http://PhysiCell.MathCancer.org/) -->
<svg 
 xmlns:dc="http://purl.org/dc/elements/1.1/" 
 xmlns:cc="http://creativecommons.org/ns#" 
 xmlns:rdf="http://www.w3.org/1999/02/22-rdf-syntax-ns#" 
 xmlns:svg="http://www.w3.org/2000/svg" 
 xmlns="http://www.w3.org/2000/svg" 
 version="1.1" 
 width="2000" 
 height="2140" 
 id="svg2">
  <rect x="0" y="0" width="2000" height="2140" stroke-width="4" stroke="white" fill="white"/>
  <text x="25" y="60"
   font-family="Arial" font-size="50" fill="black" >
   Current time: 3 days, 6 hours, and 0.00 minutes, z = 0.00 &#956;m
  </text>
  <text x="25" y="115"
   font-family="Arial" font-size="47.5" fill="black" >
   118 agents
  </text>
 <g id="tissue" 
    transform="translate(0,2140) scale(1,-1)">
  <g id="ECM">
  </g>
  <g id="cells">
   <g id="cell0">
  <circle cx="1116.75" cy="1234.31" r="10.4603" stroke-width="0.5" stroke="black" fill="grey"/>
  <circle cx="1116.75" cy="1234.31" r="6.30671" stroke-width="0.5" stroke="grey" fill="grey"/>
   </g>
   <g id="cell1">
  <circle cx="1700.78" cy="1255.71" r="9.03004" stroke-width="0.5" stroke="black" fill="grey"/>
  <circle cx="1700.78" cy="1255.71" r="5.48717" stroke-width="0.5" stroke="grey" fill="grey"/>
   </g>
   <g id="cell2">
  <circle cx="1190.44" cy="1754.85" r="9.9983" stroke-width="0.5" stroke="black" fill="grey"/>
  <circle cx="1190.44" cy="1754.85" r="6.06459" stroke-width="0.5" stroke="grey" fill="grey"/>
   </g>
   <g id="cell3">
  <circle cx="1272.42" cy="1324.77" r="10.4389" stroke-width="0.5" stroke="black" fill="grey"/>
  <circle cx="1272.42" cy="1324.77" r="6.2966" stroke-width="0.5" stroke="grey" fill="grey"/>
   </g>
   <g id="cell4">
  <circle cx="809.149" cy="543.068" r="9.77479" stroke-width="0.5" stroke="black" fill="grey"/>
  <circle cx="809.149" cy="543.068" r="5.93704" stroke-width="0.5" stroke="grey" fill="grey"/>
   </g>
   <g id="cell5">
  <circle cx="79.5031" cy="1952.11" r="10.3157" stroke-width="0.5" stroke="black" fill="red"/>
  <circle cx="79.5031" cy="1952.11" r="6.23536" stroke-width="0.5" stroke="red" fill="red"/>
   </g>
   <g id="cell6">
  <circle cx="894.951" cy="926.563" r="10.1076" stroke-width="0.5" stroke="black" fill="red"/>
  <circle cx="894.951" cy="926.563" r="6.12521" stroke-width="0.5" stroke="red" fill="red"/>
   </g>
   <g id="cell19">
  <circle cx="1708.36" cy="1368.84" r="10.3968" stroke-width="0.5" stroke="black" fill="grey"/>
  <circle cx="1708.36" cy="1368.84" r="6.27637" stroke-width="0.5" stroke="grey" fill="grey"/>
   </g>
   <g id="cell18">
  <circle cx="1616.95" cy="295.579" r="10.4893" stroke-width="0.5" stroke="black" fill="red"/>
  <circle cx="1616.95" cy="295.579" r="6.31996" stroke-width="0.5" stroke="red" fill="red"/>
   </g>
   <g id="cell9">
  <circle cx="1693.46" cy="151.056" r="10.3607" stroke-width="0.5" stroke="black" fill="red"/>
  <circle cx="1693.46" cy="151.056" r="6.25816" stroke-width="0.5" stroke="red" fill="red"/>
   </g>
   <g id="cell11">
  <circle cx="1556.23" cy="1104.82" r="10.3736" stroke-width="0.5" stroke="black" fill="red"/>
  <circle cx="1556.23" cy="1104.82" r="6.26467" stroke-width="0.5" stroke="red" fill="red"/>
   </g>
   <g id="cell20">
  <circle cx="791.07" cy="1029.35" r="9.14086" stroke-width="0.5" stroke="black" fill="red"/>
  <circle cx="791.07" cy="1029.35" r="5.55866" stroke-width="0.5" stroke="red" fill="red"/>
   </g>
   <g id="cell13">
  <circle cx="867.92" cy="634.608" r="8.37639" stroke-width="0.5" stroke="black" fill="grey"/>
  <circle cx="867.92" cy="634.608" r="5.0384" stroke-width="0.5" stroke="grey" fill="grey"/>
   </g>
   <g id="cell14">
  <circle cx="1147.38" cy="1320.92" r="9.04314" stroke-width="0.5" stroke="black" fill="grey"/>
  <circle cx="1147.38" cy="1320.92" r="5.49208" stroke-width="0.5" stroke="grey" fill="grey"/>
   </g>
   <g id="cell15">
  <circle cx="1147.27" cy="1207.56" r="9.74926" stroke-width="0.5" stroke="black" fill="grey"/>
  <circle cx="1147.27" cy="1207.56" r="5.92262" stroke-width="0.5" stroke="grey" fill="grey"/>
   </g>
   <g id="cell16">
  <circle cx="1117.05" cy="1691.04" r="10.4294" stroke-width="0.5" stroke="black" fill="grey"/>
  <circle cx="1117.05" cy="1691.04" r="6.29206" stroke-width="0.5" stroke="grey" fill="grey"/>
   </g>
   <g id="cell90">
  <circle cx="819.537" cy="850.218" r="10.2307" stroke-width="0.5" stroke="black" fill="red"/>
  <circle cx="819.537" cy="850.218" r="6.19135" stroke-width="0.5" stroke="red" fill="red"/>
   </g>
   <g id="cell86">
  <circle cx="1542.42" cy="1001.28" r="10.2092" stroke-width="0.5" stroke="black" fill="red"/>
  <circle cx="1542.42" cy="1001.28" r="6.17989" stroke-width="0.5" stroke="red" fill="red"/>
   </g>
   <g id="cell22">
  <circle cx="1119.14" cy="1707.77" r="9.79116" stroke-width="0.5" stroke="black" fill="grey"/>
  <circle cx="1119.14" cy="1707.77" r="5.94818" stroke-width="0.5" stroke="grey" fill="grey"/>
   </g>
   <g id="cell23">
  <circle cx="1232.56" cy="1327.28" r="8.44213" stroke-width="0.5" stroke="black" fill="grey"/>
  <circle cx="1232.56" cy="1327.28" r="5.07841" stroke-width="0.5" stroke="grey" fill="grey"/>
   </g>
   <g id="cell24">
  <circle cx="1171.51" cy="1256.25" r="10.0163" stroke-width="0.5" stroke="black" fill="grey"/>
  <circle cx="1171.51" cy="1256.25" r="6.07442" stroke-width="0.5" stroke="grey" fill="grey"/>
   </g>
   <g id="cell25">
  <circle cx="1150.66" cy="715.962" r="10.4043" stroke-width="0.5" stroke="black" fill="red"/>
  <circle cx="1150.66" cy="715.962" r="6.27969" stroke-width="0.5" stroke="red" fill="red"/>
   </g>
   <g id="cell26">
  <circle cx="1701.74" cy="1214.67" r="10.324" stroke-width="0.5" stroke="black" fill="grey"/>
  <circle cx="1701.74" cy="1214.67" r="6.23955" stroke-width="0.5" stroke="grey" fill="grey"/>
   </g>
   <g id="cell27">
  <circle cx="913.232" cy="552.369" r="8.37518" stroke-width="0.5" stroke="black" fill="grey"/>
  <circle cx="913.232" cy="552.369" r="5.03793" stroke-width="0.5" stroke="grey" fill="grey"/>
   </g>
   <g id="cell28">
  <circle cx="45.3677" cy="1980.86" r="10.2174" stroke-width="0.5" stroke="black" fill="red"/>
  <circle cx="45.3677" cy="1980.86" r="6.18482" stroke-width="0.5" stroke="red" fill="red"/>
   </g>
   <g id="cell29">
  <circle cx="1059.98" cy="1076.06" r="10.495" stroke-width="0.5" stroke="black" fill="grey"/>
  <circle cx="1059.98" cy="1076.06" r="6.32263" stroke-width="0.5" stroke="grey" fill="grey"/>
   </g>
   <g id="cell30">
  <circle cx="960.06" cy="524.249" r="10.4595" stroke-width="0.5" stroke="black" fill="grey"/>
  <circle cx="960.06" cy="524.249" r="6.30646" stroke-width="0.5" stroke="grey" fill="grey"/>
   </g>
   <g id="cell31">
  <circle cx="1175.46" cy="1354.4" r="8.40054" stroke-width="0.5" stroke="black" fill="grey"/>
  <circle cx="1175.46" cy="1354.4" r="5.04776" stroke-width="0.5" stroke="grey" fill="grey"/>
   </g>
   <g id="cell109">
  <circle cx="762.822" cy="929.909" r="9.93741" stroke-width="0.5" stroke="black" fill="red"/>
  <circle cx="762.822" cy="929.909" r="6.03181" stroke-width="0.5" stroke="red" fill="red"/>
   </g>
   <g id="cell33">
  <circle cx="1689.27" cy="1162.19" r="9.81509" stroke-width="0.5" stroke="black" fill="grey"/>
  <circle cx="1689.27" cy="1162.19" r="5.96173" stroke-width="0.5" stroke="grey" fill="grey"/>
   </g>
   <g id="cell34">
  <circle cx="1119.03" cy="1663.44" r="10.5011" stroke-width="0.5" stroke="black" fill="grey"/>
  <circle cx="1119.03" cy="1663.44" r="6.32532" stroke-width="0.5" stroke="grey" fill="grey"/>
   </g>
   <g id="cell35">
  <circle cx="737.249" cy="891.051" r="8.3914" stroke-width="0.5" stroke="black" fill="red"/>
  <circle cx="737.249" cy="891.051" r="5.04436" stroke-width="0.5" stroke="red" fill="red"/>
   </g>
   <g id="cell36">
  <circle cx="1760.7" cy="244.678" r="9.23418" stroke-width="0.5" stroke="black" fill="red"/>
  <circle cx="1760.7" cy="244.678" r="5.61233" stroke-width="0.5" stroke="red" fill="red"/>
   </g>
   <g id="cell37">
  <circle cx="821.769" cy="905.251" r="9.93901" stroke-width="0.5" stroke="black" fill="red"/>
  <circle cx="821.769" cy="905.251" r="6.03239" stroke-width="0.5" stroke="red" fill="red"/>
   </g>
   <g id="cell38">
  <circle cx="1593.39" cy="1031.11" r="10.4399" stroke-width="0.5" stroke="black" fill="red"/>
  <circle cx="1593.39" cy="1031.11" r="6.29686" stroke-width="0.5" stroke="red" fill="red"/>
   </g>
   <g id="cell39">
  <circle cx="1132.37" cy="1181.09" r="9.76889" stroke-width="0.5" stroke="black" fill="grey"/>
  <circle cx="1132.37" cy="1181.09" r="5.93505" stroke-width="0.5" stroke="grey" fill="grey"/>
   </g>
   <g id="cell40">
  <circle cx="1764.63" cy="1294.74" r="10.387" stroke-width="0.5" stroke="black" fill="grey"/>
  <circle cx="1764.63" cy="1294.74" r="6.27113" stroke-width="0.5" stroke="grey" fill="grey"/>
   </g>
   <g id="cell41">
  <circle cx="1211.84" cy="1461.75" r="8.39873" stroke-width="0.5" stroke="black" fill="grey"/>
  <circle cx="1211.84" cy="1461.75" r="5.0471" stroke-width="0.5" stroke="grey" fill="grey"/>
   </g>
   <g id="cell42">
  <circle cx="1116.28" cy="1144.58" r="10.4755" stroke-width="0.5" stroke="black" fill="grey"/>
  <circle cx="1116.28" cy="1144.58" r="6.31374" stroke-width="0.5" stroke="grey" fill="grey"/>
   </g>
   <g id="cell43">
  <circle cx="1069.7" cy="1098.84" r="8.38753" stroke-width="0.5" stroke="black" fill="grey"/>
  <circle cx="1069.7" cy="1098.84" r="5.04286" stroke-width="0.5" stroke="grey" fill="grey"/>
   </g>
   <g id="cell44">
  <circle cx="1689.06" cy="1198.15" r="9.84175" stroke-width="0.5" stroke="black" fill="grey"/>
  <circle cx="1689.06" cy="1198.15" r="5.976" stroke-width="0.5" stroke="grey" fill="grey"/>
   </g>
   <g id="cell45">
  <circle cx="1525.6" cy="1056.19" r="9.99792" stroke-width="0.5" stroke="black" fill="red"/>
  <circle cx="1525.6" cy="1056.19" r="6.06447" stroke-width="0.5" stroke="red" fill="red"/>
   </g>
   <g id="cell101">
  <circle cx="1661.92" cy="276.677" r="8.40512" stroke-width="0.5" stroke="black" fill="red"/>
  <circle cx="1661.92" cy="276.677" r="5.04936" stroke-width="0.5" stroke="red" fill="red"/>
   </g>
   <g id="cell47">
  <circle cx="1642.32" cy="131.418" r="9.99518" stroke-width="0.5" stroke="black" fill="red"/>
  <circle cx="1642.32" cy="131.418" r="6.06357" stroke-width="0.5" stroke="red" fill="red"/>
   </g>
   <g id="cell48">
  <circle cx="1189.55" cy="1789.7" r="10.1601" stroke-width="0.5" stroke="black" fill="grey"/>
  <circle cx="1189.55" cy="1789.7" r="6.15393" stroke-width="0.5" stroke="grey" fill="grey"/>
   </g>
   <g id="cell49">
  <circle cx="89.6874" cy="1965.4" r="10.0748" stroke-width="0.5" stroke="black" fill="red"/>
  <circle cx="89.6874" cy="1965.4" r="6.10796" stroke-width="0.5" stroke="red" fill="red"/>
   </g>
   <g id="cell50">
  <circle cx="1144.24" cy="1165.56" r="10.0889" stroke-width="0.5" stroke="black" fill="grey"/>
  <circle cx="1144.24" cy="1165.56" r="6.11586" stroke-width="0.5" stroke="grey" fill="grey"/>
   </g>
   <g id="cell51">
  <circle cx="1119.6" cy="1286.08" r="10.5224" stroke-width="0.5" stroke="black" fill="grey"/>
  <circle cx="1119.6" cy="1286.08" r="6.3349" stroke-width="0.5" stroke="grey" fill="grey"/>
   </g>
   <g id="cell52">
  <circle cx="875.368" cy="620.248" r="10.3222" stroke-width="0.5" stroke="black" fill="grey"/>
  <circle cx="875.368" cy="620.248" r="6.23901" stroke-width="0.5" stroke="grey" fill="grey"/>
   </g>
   <g id="cell87">
  <circle cx="897.579" cy="609.143" r="10.4634" stroke-width="0.5" stroke="black" fill="grey"/>
  <circle cx="897.579" cy="609.143" r="6.30828" stroke-width="0.5" stroke="grey" fill="grey"/>
   </g>
   <g id="cell54">
  <circle cx="861.914" cy="532.346" r="10.2079" stroke-width="0.5" stroke="black" fill="grey"/>
  <circle cx="861.914" cy="532.346" r="6.17948" stroke-width="0.5" stroke="grey" fill="grey"/>
   </g>
   <g id="cell55">
  <circle cx="866.588" cy="572.091" r="10.4817" stroke-width="0.5" stroke="black" fill="grey"/>
  <circle cx="866.588" cy="572.091" r="6.31669" stroke-width="0.5" stroke="grey" fill="grey"/>
   </g>
   <g id="cell56">
  <circle cx="160.61" cy="1899.3" r="8.76266" stroke-width="0.5" stroke="black" fill="red"/>
  <circle cx="160.61" cy="1899.3" r="5.30696" stroke-width="0.5" stroke="red" fill="red"/>
   </g>
   <g id="cell57">
  <circle cx="1677.78" cy="281.514" r="9.88079" stroke-width="0.5" stroke="black" fill="red"/>
  <circle cx="1677.78" cy="281.514" r="5.99912" stroke-width="0.5" stroke="red" fill="red"/>
   </g>
   <g id="cell58">
  <circle cx="693.846" cy="860.412" r="10.4725" stroke-width="0.5" stroke="black" fill="red"/>
  <circle cx="693.846" cy="860.412" r="6.31222" stroke-width="0.5" stroke="red" fill="red"/>
   </g>
   <g id="cell59">
  <circle cx="1737.18" cy="322.184" r="9.49402" stroke-width="0.5" stroke="black" fill="red"/>
  <circle cx="1737.18" cy="322.184" r="5.77352" stroke-width="0.5" stroke="red" fill="red"/>
   </g>
   <g id="cell60">
  <circle cx="1732.93" cy="1205.45" r="9.55854" stroke-width="0.5" stroke="black" fill="grey"/>
  <circle cx="1732.93" cy="1205.45" r="5.81111" stroke-width="0.5" stroke="grey" fill="grey"/>
   </g>
   <g id="cell61">
  <circle cx="1100.78" cy="1794.15" r="8.41906" stroke-width="0.5" stroke="black" fill="grey"/>
  <circle cx="1100.78" cy="1794.15" r="5.06939" stroke-width="0.5" stroke="grey" fill="grey"/>
   </g>
   <g id="cell62">
  <circle cx="1147.58" cy="1657.87" r="8.38022" stroke-width="0.5" stroke="black" fill="grey"/>
  <circle cx="1147.58" cy="1657.87" r="5.03996" stroke-width="0.5" stroke="grey" fill="grey"/>
   </g>
   <g id="cell63">
  <circle cx="1641.82" cy="341.083" r="10.3513" stroke-width="0.5" stroke="black" fill="red"/>
  <circle cx="1641.82" cy="341.083" r="6.2539" stroke-width="0.5" stroke="red" fill="red"/>
   </g>
   <g id="cell64">
  <circle cx="1708.77" cy="1151.7" r="10.4444" stroke-width="0.5" stroke="black" fill="grey"/>
  <circle cx="1708.77" cy="1151.7" r="6.29902" stroke-width="0.5" stroke="grey" fill="grey"/>
   </g>
   <g id="cell115">
  <circle cx="841.57" cy="540.622" r="8.91426" stroke-width="0.5" stroke="black" fill="grey"/>
  <circle cx="841.57" cy="540.622" r="5.4112" stroke-width="0.5" stroke="grey" fill="grey"/>
   </g>
   <g id="cell66">
  <circle cx="793.444" cy="952.869" r="8.40143" stroke-width="0.5" stroke="black" fill="red"/>
  <circle cx="793.444" cy="952.869" r="5.04809" stroke-width="0.5" stroke="red" fill="red"/>
   </g>
   <g id="cell67">
  <circle cx="1582.93" cy="1047.97" r="8.40042" stroke-width="0.5" stroke="black" fill="red"/>
  <circle cx="1582.93" cy="1047.97" r="5.04773" stroke-width="0.5" stroke="red" fill="red"/>
   </g>
   <g id="cell68">
  <circle cx="829.141" cy="1060.77" r="10.4045" stroke-width="0.5" stroke="black" fill="red"/>
  <circle cx="829.141" cy="1060.77" r="6.27976" stroke-width="0.5" stroke="red" fill="red"/>
   </g>
   <g id="cell69">
  <circle cx="832.328" cy="561.053" r="8.39689" stroke-width="0.5" stroke="black" fill="grey"/>
  <circle cx="832.328" cy="561.053" r="5.04645" stroke-width="0.5" stroke="grey" fill="grey"/>
   </g>
   <g id="cell70">
  <circle cx="1672.79" cy="1241.55" r="8.46396" stroke-width="0.5" stroke="black" fill="grey"/>
  <circle cx="1672.79" cy="1241.55" r="5.09676" stroke-width="0.5" stroke="grey" fill="grey"/>
   </g>
   <g id="cell71">
  <circle cx="1020.69" cy="1063.84" r="8.37284" stroke-width="0.5" stroke="black" fill="grey"/>
  <circle cx="1020.69" cy="1063.84" r="5.03699" stroke-width="0.5" stroke="grey" fill="grey"/>
   </g>
   <g id="cell72">
  <circle cx="1141.74" cy="730.037" r="8.36934" stroke-width="0.5" stroke="black" fill="red"/>
  <circle cx="1141.74" cy="730.037" r="5.03554" stroke-width="0.5" stroke="red" fill="red"/>
   </g>
   <g id="cell73">
  <circle cx="1192.09" cy="1226" r="8.42167" stroke-width="0.5" stroke="black" fill="grey"/>
  <circle cx="1192.09" cy="1226" r="5.07052" stroke-width="0.5" stroke="grey" fill="grey"/>
   </g>
   <g id="cell74">
  <circle cx="1100.77" cy="1082.43" r="10.479" stroke-width="0.5" stroke="black" fill="grey"/>
  <circle cx="1100.77" cy="1082.43" r="6.31534" stroke-width="0.5" stroke="grey" fill="grey"/>
   </g>
   <g id="cell75">
  <circle cx="1710.12" cy="1192.26" r="8.368" stroke-width="0.5" stroke="black" fill="grey"/>
  <circle cx="1710.12" cy="1192.26" r="5.03499" stroke-width="0.5" stroke="grey" fill="grey"/>
   </g>
   <g id="cell76">
  <circle cx="1640.44" cy="246.801" r="10.4644" stroke-width="0.5" stroke="black" fill="red"/>
  <circle cx="1640.44" cy="246.801" r="6.30859" stroke-width="0.5" stroke="red" fill="red"/>
   </g>
   <g id="cell77">
  <circle cx="71.6037" cy="1929.17" r="10.5202" stroke-width="0.5" stroke="black" fill="red"/>
  <circle cx="71.6037" cy="1929.17" r="6.33396" stroke-width="0.5" stroke="red" fill="red"/>
   </g>
   <g id="cell128">
  <circle cx="1718.23" cy="1203.49" r="8.368" stroke-width="0.5" stroke="black" fill="grey"/>
  <circle cx="1718.23" cy="1203.49" r="5.03499" stroke-width="0.5" stroke="grey" fill="grey"/>
   </g>
   <g id="cell79">
  <circle cx="1196.29" cy="1265.77" r="8.76644" stroke-width="0.5" stroke="black" fill="grey"/>
  <circle cx="1196.29" cy="1265.77" r="5.30819" stroke-width="0.5" stroke="grey" fill="grey"/>
   </g>
   <g id="cell80">
  <circle cx="804.195" cy="504.135" r="9.62086" stroke-width="0.5" stroke="black" fill="grey"/>
  <circle cx="804.195" cy="504.135" r="5.84678" stroke-width="0.5" stroke="grey" fill="grey"/>
   </g>
   <g id="cell81">
  <circle cx="1222.76" cy="1270.6" r="10.1746" stroke-width="0.5" stroke="black" fill="grey"/>
  <circle cx="1222.76" cy="1270.6" r="6.16126" stroke-width="0.5" stroke="grey" fill="grey"/>
   </g>
   <g id="cell82">
  <circle cx="1615.37" cy="1117.7" r="10.3736" stroke-width="0.5" stroke="black" fill="red"/>
  <circle cx="1615.37" cy="1117.7" r="6.26467" stroke-width="0.5" stroke="red" fill="red"/>
   </g>
   <g id="cell83">
  <circle cx="914.115" cy="572.821" r="9.88483" stroke-width="0.5" stroke="black" fill="grey"/>
  <circle cx="914.115" cy="572.821" r="6.00046" stroke-width="0.5" stroke="grey" fill="grey"/>
   </g>
   <g id="cell84">
  <circle cx="1120.51" cy="1645.29" r="8.41071" stroke-width="0.5" stroke="black" fill="grey"/>
  <circle cx="1120.51" cy="1645.29" r="5.05114" stroke-width="0.5" stroke="grey" fill="grey"/>
   </g>
   <g id="cell85">
  <circle cx="1184.73" cy="1719.32" r="10.4599" stroke-width="0.5" stroke="black" fill="grey"/>
  <circle cx="1184.73" cy="1719.32" r="6.30657" stroke-width="0.5" stroke="grey" fill="grey"/>
   </g>
   <g id="cell88">
  <circle cx="1673.37" cy="1173.85" r="8.40969" stroke-width="0.5" stroke="black" fill="grey"/>
  <circle cx="1673.37" cy="1173.85" r="5.05084" stroke-width="0.5" stroke="grey" fill="grey"/>
   </g>
   <g id="cell89">
  <circle cx="1795.53" cy="288.661" r="8.40949" stroke-width="0.5" stroke="black" fill="red"/>
  <circle cx="1795.53" cy="288.661" r="5.05078" stroke-width="0.5" stroke="red" fill="red"/>
   </g>
   <g id="cell91">
  <circle cx="1156.52" cy="1228.4" r="9.04436" stroke-width="0.5" stroke="black" fill="grey"/>
  <circle cx="1156.52" cy="1228.4" r="5.4925" stroke-width="0.5" stroke="grey" fill="grey"/>
   </g>
   <g id="cell92">
  <circle cx="1685.76" cy="1361.4" r="8.80447" stroke-width="0.5" stroke="black" fill="grey"/>
  <circle cx="1685.76" cy="1361.4" r="5.33476" stroke-width="0.5" stroke="grey" fill="grey"/>
   </g>
   <g id="cell93">
  <circle cx="846.578" cy="585.471" r="8.50893" stroke-width="0.5" stroke="black" fill="grey"/>
  <circle cx="846.578" cy="585.471" r="5.12449" stroke-width="0.5" stroke="grey" fill="grey"/>
   </g>
   <g id="cell94">
  <circle cx="858.94" cy="553.209" r="9.7485" stroke-width="0.5" stroke="black" fill="grey"/>
  <circle cx="858.94" cy="553.209" r="5.92237" stroke-width="0.5" stroke="grey" fill="grey"/>
   </g>
   <g id="cell95">
  <circle cx="1161.1" cy="1774.81" r="10.1964" stroke-width="0.5" stroke="black" fill="grey"/>
  <circle cx="1161.1" cy="1774.81" r="6.17338" stroke-width="0.5" stroke="grey" fill="grey"/>
   </g>
   <g id="cell96">
  <circle cx="1651.19" cy="303.561" r="10.2966" stroke-width="0.5" stroke="black" fill="red"/>
  <circle cx="1651.19" cy="303.561" r="6.22602" stroke-width="0.5" stroke="red" fill="red"/>
   </g>
   <g id="cell97">
  <circle cx="1172.13" cy="1340.37" r="9.77219" stroke-width="0.5" stroke="black" fill="grey"/>
  <circle cx="1172.13" cy="1340.37" r="5.93621" stroke-width="0.5" stroke="grey" fill="grey"/>
   </g>
   <g id="cell98">
  <circle cx="143.408" cy="1902.94" r="9.67181" stroke-width="0.5" stroke="black" fill="red"/>
  <circle cx="143.408" cy="1902.94" r="5.87768" stroke-width="0.5" stroke="red" fill="red"/>
   </g>
   <g id="cell99">
  <circle cx="1666.62" cy="156.521" r="8.40613" stroke-width="0.5" stroke="black" fill="red"/>
  <circle cx="1666.62" cy="156.521" r="5.0497" stroke-width="0.5" stroke="red" fill="red"/>
   </g>
   <g id="cell100">
  <circle cx="25.8444" cy="1960.98" r="10.1586" stroke-width="0.5" stroke="black" fill="red"/>
  <circle cx="25.8444" cy="1960.98" r="6.15341" stroke-width="0.5" stroke="red" fill="red"/>
   </g>
   <g id="cell102">
  <circle cx="1749.64" cy="1134.95" r="8.40422" stroke-width="0.5" stroke="black" fill="grey"/>
  <circle cx="1749.64" cy="1134.95" r="5.04906" stroke-width="0.5" stroke="grey" fill="grey"/>
   </g>
   <g id="cell103">
  <circle cx="81.6373" cy="1987.1" r="10.1316" stroke-width="0.5" stroke="black" fill="red"/>
  <circle cx="81.6373" cy="1987.1" r="6.13899" stroke-width="0.5" stroke="red" fill="red"/>
   </g>
   <g id="cell104">
  <circle cx="802.904" cy="913.956" r="8.53577" stroke-width="0.5" stroke="black" fill="red"/>
  <circle cx="802.904" cy="913.956" r="5.14671" stroke-width="0.5" stroke="red" fill="red"/>
   </g>
   <g id="cell105">
  <circle cx="1669.64" cy="1152.85" r="9.97565" stroke-width="0.5" stroke="black" fill="grey"/>
  <circle cx="1669.64" cy="1152.85" r="6.05304" stroke-width="0.5" stroke="grey" fill="grey"/>
   </g>
   <g id="cell106">
  <circle cx="1146.49" cy="1191.08" r="8.40326" stroke-width="0.5" stroke="black" fill="grey"/>
  <circle cx="1146.49" cy="1191.08" r="5.04872" stroke-width="0.5" stroke="grey" fill="grey"/>
   </g>
   <g id="cell107">
  <circle cx="1148.39" cy="1148.43" r="8.40325" stroke-width="0.5" stroke="black" fill="grey"/>
  <circle cx="1148.39" cy="1148.43" r="5.04872" stroke-width="0.5" stroke="grey" fill="grey"/>
   </g>
   <g id="cell108">
  <circle cx="1129.34" cy="1681.01" r="9.07706" stroke-width="0.5" stroke="black" fill="grey"/>
  <circle cx="1129.34" cy="1681.01" r="5.51519" stroke-width="0.5" stroke="grey" fill="grey"/>
   </g>
   <g id="cell110">
  <circle cx="1562.63" cy="1024.72" r="8.40042" stroke-width="0.5" stroke="black" fill="red"/>
  <circle cx="1562.63" cy="1024.72" r="5.04773" stroke-width="0.5" stroke="red" fill="red"/>
   </g>
   <g id="cell111">
  <circle cx="1222.05" cy="1366.93" r="9.33306" stroke-width="0.5" stroke="black" fill="grey"/>
  <circle cx="1222.05" cy="1366.93" r="5.67536" stroke-width="0.5" stroke="grey" fill="grey"/>
   </g>
   <g id="cell112">
  <circle cx="1233.79" cy="1282.36" r="9.69143" stroke-width="0.5" stroke="black" fill="grey"/>
  <circle cx="1233.79" cy="1282.36" r="5.89063" stroke-width="0.5" stroke="grey" fill="grey"/>
   </g>
   <g id="cell113">
  <circle cx="1222.43" cy="1438.04" r="9.78891" stroke-width="0.5" stroke="black" fill="grey"/>
  <circle cx="1222.43" cy="1438.04" r="5.94734" stroke-width="0.5" stroke="grey" fill="grey"/>
   </g>
   <g id="cell114">
  <circle cx="1701.45" cy="366.945" r="9.36527" stroke-width="0.5" stroke="black" fill="red"/>
  <circle cx="1701.45" cy="366.945" r="5.69551" stroke-width="0.5" stroke="red" fill="red"/>
   </g>
   <g id="cell116">
  <circle cx="1671.57" cy="1206.92" r="9.03082" stroke-width="0.5" stroke="black" fill="grey"/>
  <circle cx="1671.57" cy="1206.92" r="5.4875" stroke-width="0.5" stroke="grey" fill="grey"/>
   </g>
   <g id="cell117">
  <circle cx="1715.62" cy="1226.84" r="8.39256" stroke-width="0.5" stroke="black" fill="grey"/>
  <circle cx="1715.62" cy="1226.84" r="5.04481" stroke-width="0.5" stroke="grey" fill="grey"/>
   </g>
   <g id="cell118">
  <circle cx="712.381" cy="931.282" r="8.3914" stroke-width="0.5" stroke="black" fill="red"/>
  <circle cx="712.381" cy="931.282" r="5.04436" stroke-width="0.5" stroke="red" fill="red"/>
   </g>
   <g id="cell119">
  <circle cx="1052.15" cy="1127.3" r="8.38753" stroke-width="0.5" stroke="black" fill="grey"/>
  <circle cx="1052.15" cy="1127.3" r="5.04286" stroke-width="0.5" stroke="grey" fill="grey"/>
   </g>
   <g id="cell120">
  <circle cx="787.859" cy="1052.2" r="8.38665" stroke-width="0.5" stroke="black" fill="red"/>
  <circle cx="787.859" cy="1052.2" r="5.04254" stroke-width="0.5" stroke="red" fill="red"/>
   </g>
   <g id="cell121">
  <circle cx="1164.08" cy="1617.02" r="8.38022" stroke-width="0.5" stroke="black" fill="grey"/>
  <circle cx="1164.08" cy="1617.02" r="5.03996" stroke-width="0.5" stroke="grey" fill="grey"/>
   </g>
   <g id="cell122">
  <circle cx="1191.99" cy="1186.63" r="8.37796" stroke-width="0.5" stroke="black" fill="grey"/>
  <circle cx="1191.99" cy="1186.63" r="5.0391" stroke-width="0.5" stroke="grey" fill="grey"/>
   </g>
   <g id="cell123">
  <circle cx="856.504" cy="651.484" r="8.37639" stroke-width="0.5" stroke="black" fill="grey"/>
  <circle cx="856.504" cy="651.484" r="5.0384" stroke-width="0.5" stroke="grey" fill="grey"/>
   </g>
   <g id="cell124">
  <circle cx="1122.83" cy="1782.37" r="8.37532" stroke-width="0.5" stroke="black" fill="grey"/>
  <circle cx="1122.83" cy="1782.37" r="5.03796" stroke-width="0.5" stroke="grey" fill="grey"/>
   </g>
   <g id="cell125">
  <circle cx="913.587" cy="535.597" r="8.61579" stroke-width="0.5" stroke="black" fill="grey"/>
  <circle cx="913.587" cy="535.597" r="5.2139" stroke-width="0.5" stroke="grey" fill="grey"/>
   </g>
   <g id="cell126">
  <circle cx="1040.46" cy="1067.38" r="8.37284" stroke-width="0.5" stroke="black" fill="grey"/>
  <circle cx="1040.46" cy="1067.38" r="5.03699" stroke-width="0.5" stroke="grey" fill="grey"/>
   </g>
   <g id="cell127">
  <circle cx="1140.46" cy="743.662" r="8.36934" stroke-width="0.5" stroke="black" fill="red"/>
  <circle cx="1140.46" cy="743.662" r="5.03554" stroke-width="0.5" stroke="red" fill="red"/>
   </g>
  </g>
 </g>
  <rect x="1750" y="2070" width="200" height="20" stroke-width="4" stroke="rgb(255,255,255)" fill="rgb(0,0,0)"/>
  <text x="1762.5" y="2057.5"
   font-family="Arial" font-size="50" fill="black" >
   200 &#956;m
  </text>
  <text x="50" y="2090"
   font-family="Arial" font-size="37.5" fill="black" >
   0 days, 0 hours, 1 minutes, and 42.6454 seconds
  </text>
  <rect x="0" y="140" width="2000" height="2000" stroke-width="4" stroke="rgb(0,0,0)" fill="none"/>
</svg>
