<?xml version="1.0" encoding="UTF-8" standalone="no"?>
<!-- Created with PhysiCell (http://PhysiCell.MathCancer.org/) -->
<svg 
 xmlns:dc="http://purl.org/dc/elements/1.1/" 
 xmlns:cc="http://creativecommons.org/ns#" 
 xmlns:rdf="http://www.w3.org/1999/02/22-rdf-syntax-ns#" 
 xmlns:svg="http://www.w3.org/2000/svg" 
 xmlns="http://www.w3.org/2000/svg" 
 version="1.1" 
 width="2000" 
 height="2140" 
 id="svg2">
  <rect x="0" y="0" width="2000" height="2140" stroke-width="4" stroke="white" fill="white"/>
  <text x="25" y="60"
   font-family="Arial" font-size="50" fill="black" >
   Current time: 0 days, 5 hours, and 10.00 minutes, z = 0.00 &#956;m
  </text>
  <text x="25" y="115"
   font-family="Arial" font-size="47.5" fill="black" >
   100 agents
  </text>
 <g id="tissue" 
    transform="translate(0,2140) scale(1,-1)">
  <g id="ECM">
  </g>
  <g id="cells">
   <g id="cell0">
  <circle cx="1122.49" cy="1158.29" r="8.7678" stroke-width="0.5" stroke="black" fill="grey"/>
  <circle cx="1122.49" cy="1158.29" r="5.30857" stroke-width="0.5" stroke="grey" fill="grey"/>
   </g>
   <g id="cell1">
  <circle cx="1689.66" cy="1167.69" r="8.41271" stroke-width="0.5" stroke="black" fill="grey"/>
  <circle cx="1689.66" cy="1167.69" r="5.05167" stroke-width="0.5" stroke="grey" fill="grey"/>
   </g>
   <g id="cell2">
  <circle cx="1114.2" cy="1709.63" r="9.30826" stroke-width="0.5" stroke="black" fill="grey"/>
  <circle cx="1114.2" cy="1709.63" r="5.65742" stroke-width="0.5" stroke="grey" fill="grey"/>
   </g>
   <g id="cell3">
  <circle cx="1235.38" cy="1286.1" r="9.88629" stroke-width="0.5" stroke="black" fill="grey"/>
  <circle cx="1235.38" cy="1286.1" r="6.00088" stroke-width="0.5" stroke="grey" fill="grey"/>
   </g>
   <g id="cell4">
  <circle cx="849.327" cy="622.954" r="9.5053" stroke-width="0.5" stroke="black" fill="grey"/>
  <circle cx="849.327" cy="622.954" r="5.77744" stroke-width="0.5" stroke="grey" fill="grey"/>
   </g>
   <g id="cell5">
  <circle cx="104.075" cy="1947.88" r="8.41271" stroke-width="0.5" stroke="black" fill="grey"/>
  <circle cx="104.075" cy="1947.88" r="5.05167" stroke-width="0.5" stroke="grey" fill="grey"/>
   </g>
   <g id="cell6">
  <circle cx="772.238" cy="945.885" r="9.00806" stroke-width="0.5" stroke="black" fill="grey"/>
  <circle cx="772.238" cy="945.885" r="5.46807" stroke-width="0.5" stroke="grey" fill="grey"/>
   </g>
   <g id="cell7">
  <circle cx="1627.12" cy="1060.93" r="9.4743" stroke-width="0.5" stroke="black" fill="grey"/>
  <circle cx="1627.12" cy="1060.93" r="5.75875" stroke-width="0.5" stroke="grey" fill="grey"/>
   </g>
   <g id="cell8">
  <circle cx="1130.2" cy="769.661" r="9.04745" stroke-width="0.5" stroke="black" fill="grey"/>
  <circle cx="1130.2" cy="769.661" r="5.49345" stroke-width="0.5" stroke="grey" fill="grey"/>
   </g>
   <g id="cell9">
  <circle cx="1697.53" cy="145.505" r="8.41271" stroke-width="0.5" stroke="black" fill="grey"/>
  <circle cx="1697.53" cy="145.505" r="5.05167" stroke-width="0.5" stroke="grey" fill="grey"/>
   </g>
   <g id="cell10">
  <circle cx="173.038" cy="1300.63" r="9.82189" stroke-width="0.5" stroke="black" fill="grey"/>
  <circle cx="173.038" cy="1300.63" r="5.96395" stroke-width="0.5" stroke="grey" fill="grey"/>
   </g>
   <g id="cell11">
  <circle cx="726.143" cy="1661.06" r="8.80772" stroke-width="0.5" stroke="black" fill="grey"/>
  <circle cx="726.143" cy="1661.06" r="5.33574" stroke-width="0.5" stroke="grey" fill="grey"/>
   </g>
   <g id="cell12">
  <circle cx="1550.12" cy="321.674" r="9.34292" stroke-width="0.5" stroke="black" fill="grey"/>
  <circle cx="1550.12" cy="321.674" r="5.67875" stroke-width="0.5" stroke="grey" fill="grey"/>
   </g>
   <g id="cell13">
  <circle cx="1761.15" cy="1958.16" r="8.41271" stroke-width="0.5" stroke="black" fill="grey"/>
  <circle cx="1761.15" cy="1958.16" r="5.05167" stroke-width="0.5" stroke="grey" fill="grey"/>
   </g>
   <g id="cell14">
  <circle cx="1594.59" cy="1577.68" r="8.68937" stroke-width="0.5" stroke="black" fill="grey"/>
  <circle cx="1594.59" cy="1577.68" r="5.25417" stroke-width="0.5" stroke="grey" fill="grey"/>
   </g>
   <g id="cell15">
  <circle cx="1022.87" cy="1557.14" r="9.7992" stroke-width="0.5" stroke="black" fill="grey"/>
  <circle cx="1022.87" cy="1557.14" r="5.95086" stroke-width="0.5" stroke="grey" fill="grey"/>
   </g>
   <g id="cell16">
  <circle cx="225.559" cy="1450.58" r="9.7992" stroke-width="0.5" stroke="black" fill="grey"/>
  <circle cx="225.559" cy="1450.58" r="5.95086" stroke-width="0.5" stroke="grey" fill="grey"/>
   </g>
   <g id="cell17">
  <circle cx="1178.55" cy="287.952" r="9.7992" stroke-width="0.5" stroke="black" fill="grey"/>
  <circle cx="1178.55" cy="287.952" r="5.95086" stroke-width="0.5" stroke="grey" fill="grey"/>
   </g>
   <g id="cell18">
  <circle cx="1881.86" cy="1539.66" r="8.41271" stroke-width="0.5" stroke="black" fill="grey"/>
  <circle cx="1881.86" cy="1539.66" r="5.05167" stroke-width="0.5" stroke="grey" fill="grey"/>
   </g>
   <g id="cell19">
  <circle cx="187.711" cy="831.683" r="8.41271" stroke-width="0.5" stroke="black" fill="grey"/>
  <circle cx="187.711" cy="831.683" r="5.05167" stroke-width="0.5" stroke="grey" fill="grey"/>
   </g>
   <g id="cell20">
  <circle cx="559.174" cy="375.459" r="9.62199" stroke-width="0.5" stroke="black" fill="grey"/>
  <circle cx="559.174" cy="375.459" r="5.8471" stroke-width="0.5" stroke="grey" fill="grey"/>
   </g>
   <g id="cell21">
  <circle cx="1468.68" cy="930.455" r="9.00806" stroke-width="0.5" stroke="black" fill="grey"/>
  <circle cx="1468.68" cy="930.455" r="5.46807" stroke-width="0.5" stroke="grey" fill="grey"/>
   </g>
   <g id="cell22">
  <circle cx="1145.71" cy="228.819" r="9.75192" stroke-width="0.5" stroke="black" fill="grey"/>
  <circle cx="1145.71" cy="228.819" r="5.92342" stroke-width="0.5" stroke="grey" fill="grey"/>
   </g>
   <g id="cell23">
  <circle cx="651.927" cy="1221.49" r="9.64936" stroke-width="0.5" stroke="black" fill="grey"/>
  <circle cx="651.927" cy="1221.49" r="5.86329" stroke-width="0.5" stroke="grey" fill="grey"/>
   </g>
   <g id="cell24">
  <circle cx="1233.49" cy="441.016" r="3.78562" stroke-width="0.5" stroke="black" fill="grey"/>
  <circle cx="1233.49" cy="441.016" r="2.80027" stroke-width="0.5" stroke="black" fill="black"/>
   </g>
   <g id="cell25">
  <circle cx="770.968" cy="1893.81" r="9.67603" stroke-width="0.5" stroke="black" fill="grey"/>
  <circle cx="770.968" cy="1893.81" r="5.87901" stroke-width="0.5" stroke="grey" fill="grey"/>
   </g>
   <g id="cell26">
  <circle cx="1387.04" cy="922.454" r="8.41271" stroke-width="0.5" stroke="black" fill="grey"/>
  <circle cx="1387.04" cy="922.454" r="5.05167" stroke-width="0.5" stroke="grey" fill="grey"/>
   </g>
   <g id="cell27">
  <circle cx="1231.98" cy="849.325" r="9.4743" stroke-width="0.5" stroke="black" fill="grey"/>
  <circle cx="1231.98" cy="849.325" r="5.75875" stroke-width="0.5" stroke="grey" fill="grey"/>
   </g>
   <g id="cell28">
  <circle cx="1404.65" cy="208.45" r="9.86542" stroke-width="0.5" stroke="black" fill="grey"/>
  <circle cx="1404.65" cy="208.45" r="5.98895" stroke-width="0.5" stroke="grey" fill="grey"/>
   </g>
   <g id="cell29">
  <circle cx="1926.07" cy="1334.6" r="9.86542" stroke-width="0.5" stroke="black" fill="grey"/>
  <circle cx="1926.07" cy="1334.6" r="5.98895" stroke-width="0.5" stroke="grey" fill="grey"/>
   </g>
   <g id="cell30">
  <circle cx="1355.28" cy="331.872" r="8.41271" stroke-width="0.5" stroke="black" fill="grey"/>
  <circle cx="1355.28" cy="331.872" r="5.05167" stroke-width="0.5" stroke="grey" fill="grey"/>
   </g>
   <g id="cell31">
  <circle cx="709.833" cy="282.233" r="8.65127" stroke-width="0.5" stroke="black" fill="grey"/>
  <circle cx="709.833" cy="282.233" r="5.2272" stroke-width="0.5" stroke="grey" fill="grey"/>
   </g>
   <g id="cell32">
  <circle cx="657.269" cy="1202.09" r="9.98223" stroke-width="0.5" stroke="black" fill="grey"/>
  <circle cx="657.269" cy="1202.09" r="6.05517" stroke-width="0.5" stroke="grey" fill="grey"/>
   </g>
   <g id="cell33">
  <circle cx="643.927" cy="1142.49" r="8.41271" stroke-width="0.5" stroke="black" fill="grey"/>
  <circle cx="643.927" cy="1142.49" r="5.05167" stroke-width="0.5" stroke="grey" fill="grey"/>
   </g>
   <g id="cell34">
  <circle cx="876.719" cy="1283.91" r="8.84788" stroke-width="0.5" stroke="black" fill="grey"/>
  <circle cx="876.719" cy="1283.91" r="5.36278" stroke-width="0.5" stroke="grey" fill="grey"/>
   </g>
   <g id="cell35">
  <circle cx="1931.02" cy="196.303" r="8.41271" stroke-width="0.5" stroke="black" fill="grey"/>
  <circle cx="1931.02" cy="196.303" r="5.05167" stroke-width="0.5" stroke="grey" fill="grey"/>
   </g>
   <g id="cell36">
  <circle cx="427.067" cy="1255.28" r="9.64936" stroke-width="0.5" stroke="black" fill="grey"/>
  <circle cx="427.067" cy="1255.28" r="5.86329" stroke-width="0.5" stroke="grey" fill="grey"/>
   </g>
   <g id="cell37">
  <circle cx="1985.38" cy="1344.45" r="9.23685" stroke-width="0.5" stroke="black" fill="grey"/>
  <circle cx="1985.38" cy="1344.45" r="5.61315" stroke-width="0.5" stroke="grey" fill="grey"/>
   </g>
   <g id="cell38">
  <circle cx="514.62" cy="844.579" r="8.41271" stroke-width="0.5" stroke="black" fill="grey"/>
  <circle cx="514.62" cy="844.579" r="5.05167" stroke-width="0.5" stroke="grey" fill="grey"/>
   </g>
   <g id="cell39">
  <circle cx="967.039" cy="471.743" r="9.34292" stroke-width="0.5" stroke="black" fill="grey"/>
  <circle cx="967.039" cy="471.743" r="5.67875" stroke-width="0.5" stroke="grey" fill="grey"/>
   </g>
   <g id="cell40">
  <circle cx="330.898" cy="661.293" r="9.30826" stroke-width="0.5" stroke="black" fill="grey"/>
  <circle cx="330.898" cy="661.293" r="5.65742" stroke-width="0.5" stroke="grey" fill="grey"/>
   </g>
   <g id="cell41">
  <circle cx="1339.03" cy="1323.03" r="8.51252" stroke-width="0.5" stroke="black" fill="grey"/>
  <circle cx="1339.03" cy="1323.03" r="5.12552" stroke-width="0.5" stroke="grey" fill="grey"/>
   </g>
   <g id="cell42">
  <circle cx="250.628" cy="1551.26" r="8.41271" stroke-width="0.5" stroke="black" fill="grey"/>
  <circle cx="250.628" cy="1551.26" r="5.05167" stroke-width="0.5" stroke="grey" fill="grey"/>
   </g>
   <g id="cell43">
  <circle cx="1888.58" cy="725.161" r="8.41271" stroke-width="0.5" stroke="black" fill="grey"/>
  <circle cx="1888.58" cy="725.161" r="5.05167" stroke-width="0.5" stroke="grey" fill="grey"/>
   </g>
   <g id="cell44">
  <circle cx="1645.17" cy="56.3434" r="9.12489" stroke-width="0.5" stroke="black" fill="grey"/>
  <circle cx="1645.17" cy="56.3434" r="5.54282" stroke-width="0.5" stroke="grey" fill="grey"/>
   </g>
   <g id="cell45">
  <circle cx="1216.08" cy="1634.2" r="8.41271" stroke-width="0.5" stroke="black" fill="grey"/>
  <circle cx="1216.08" cy="1634.2" r="5.05167" stroke-width="0.5" stroke="grey" fill="grey"/>
   </g>
   <g id="cell46">
  <circle cx="216.406" cy="1916.15" r="8.41271" stroke-width="0.5" stroke="black" fill="grey"/>
  <circle cx="216.406" cy="1916.15" r="5.05167" stroke-width="0.5" stroke="grey" fill="grey"/>
   </g>
   <g id="cell47">
  <circle cx="1756.7" cy="964.213" r="9.67603" stroke-width="0.5" stroke="black" fill="grey"/>
  <circle cx="1756.7" cy="964.213" r="5.87901" stroke-width="0.5" stroke="grey" fill="grey"/>
   </g>
   <g id="cell48">
  <circle cx="1965.11" cy="117.888" r="9.75192" stroke-width="0.5" stroke="black" fill="grey"/>
  <circle cx="1965.11" cy="117.888" r="5.92342" stroke-width="0.5" stroke="grey" fill="grey"/>
   </g>
   <g id="cell49">
  <circle cx="878.953" cy="1444.9" r="9.92631" stroke-width="0.5" stroke="black" fill="grey"/>
  <circle cx="878.953" cy="1444.9" r="6.02363" stroke-width="0.5" stroke="grey" fill="grey"/>
   </g>
   <g id="cell50">
  <circle cx="84.513" cy="883.059" r="9.98223" stroke-width="0.5" stroke="black" fill="red"/>
  <circle cx="84.513" cy="883.059" r="6.05517" stroke-width="0.5" stroke="red" fill="red"/>
   </g>
   <g id="cell51">
  <circle cx="1967.71" cy="242.412" r="8.41271" stroke-width="0.5" stroke="black" fill="red"/>
  <circle cx="1967.71" cy="242.412" r="5.05167" stroke-width="0.5" stroke="red" fill="red"/>
   </g>
   <g id="cell52">
  <circle cx="602.036" cy="983.132" r="9.16281" stroke-width="0.5" stroke="black" fill="red"/>
  <circle cx="602.036" cy="983.132" r="5.56677" stroke-width="0.5" stroke="red" fill="red"/>
   </g>
   <g id="cell53">
  <circle cx="1339.05" cy="634.407" r="9.90658" stroke-width="0.5" stroke="black" fill="red"/>
  <circle cx="1339.05" cy="634.407" r="6.01243" stroke-width="0.5" stroke="red" fill="red"/>
   </g>
   <g id="cell54">
  <circle cx="787.669" cy="1819.48" r="9.98223" stroke-width="0.5" stroke="black" fill="red"/>
  <circle cx="787.669" cy="1819.48" r="6.05517" stroke-width="0.5" stroke="red" fill="red"/>
   </g>
   <g id="cell55">
  <circle cx="423.451" cy="1380.18" r="9.64936" stroke-width="0.5" stroke="black" fill="red"/>
  <circle cx="423.451" cy="1380.18" r="5.86329" stroke-width="0.5" stroke="red" fill="red"/>
   </g>
   <g id="cell56">
  <circle cx="1172.21" cy="1712.29" r="8.41271" stroke-width="0.5" stroke="black" fill="red"/>
  <circle cx="1172.21" cy="1712.29" r="5.05167" stroke-width="0.5" stroke="red" fill="red"/>
   </g>
   <g id="cell57">
  <circle cx="1022.22" cy="1048.81" r="8.41271" stroke-width="0.5" stroke="black" fill="red"/>
  <circle cx="1022.22" cy="1048.81" r="5.05167" stroke-width="0.5" stroke="red" fill="red"/>
   </g>
   <g id="cell58">
  <circle cx="177.583" cy="1820.88" r="9.59391" stroke-width="0.5" stroke="black" fill="red"/>
  <circle cx="177.583" cy="1820.88" r="5.83043" stroke-width="0.5" stroke="red" fill="red"/>
   </g>
   <g id="cell59">
  <circle cx="171.722" cy="1844.99" r="4.23218" stroke-width="0.5" stroke="black" fill="red"/>
  <circle cx="171.722" cy="1844.99" r="3.15922" stroke-width="0.5" stroke="black" fill="black"/>
   </g>
   <g id="cell60">
  <circle cx="642.952" cy="30.7042" r="9.86542" stroke-width="0.5" stroke="black" fill="red"/>
  <circle cx="642.952" cy="30.7042" r="5.98895" stroke-width="0.5" stroke="red" fill="red"/>
   </g>
   <g id="cell61">
  <circle cx="1661.16" cy="284.637" r="9.00806" stroke-width="0.5" stroke="black" fill="red"/>
  <circle cx="1661.16" cy="284.637" r="5.46807" stroke-width="0.5" stroke="red" fill="red"/>
   </g>
   <g id="cell62">
  <circle cx="1438.46" cy="1668.27" r="8.41271" stroke-width="0.5" stroke="black" fill="red"/>
  <circle cx="1438.46" cy="1668.27" r="5.05167" stroke-width="0.5" stroke="red" fill="red"/>
   </g>
   <g id="cell63">
  <circle cx="541.885" cy="349.807" r="8.41271" stroke-width="0.5" stroke="black" fill="red"/>
  <circle cx="541.885" cy="349.807" r="5.05167" stroke-width="0.5" stroke="red" fill="red"/>
   </g>
   <g id="cell64">
  <circle cx="1145.66" cy="1097.39" r="8.41271" stroke-width="0.5" stroke="black" fill="red"/>
  <circle cx="1145.66" cy="1097.39" r="5.05167" stroke-width="0.5" stroke="red" fill="red"/>
   </g>
   <g id="cell65">
  <circle cx="351.228" cy="1648.48" r="9.64936" stroke-width="0.5" stroke="black" fill="red"/>
  <circle cx="351.228" cy="1648.48" r="5.86329" stroke-width="0.5" stroke="red" fill="red"/>
   </g>
   <g id="cell66">
  <circle cx="22.7516" cy="304.637" r="9.00806" stroke-width="0.5" stroke="black" fill="red"/>
  <circle cx="22.7516" cy="304.637" r="5.46807" stroke-width="0.5" stroke="red" fill="red"/>
   </g>
   <g id="cell67">
  <circle cx="1091.99" cy="550.606" r="8.65127" stroke-width="0.5" stroke="black" fill="red"/>
  <circle cx="1091.99" cy="550.606" r="5.2272" stroke-width="0.5" stroke="red" fill="red"/>
   </g>
   <g id="cell68">
  <circle cx="1468.76" cy="586.507" r="9.62199" stroke-width="0.5" stroke="black" fill="red"/>
  <circle cx="1468.76" cy="586.507" r="5.8471" stroke-width="0.5" stroke="red" fill="red"/>
   </g>
   <g id="cell69">
  <circle cx="869.827" cy="506.024" r="8.41271" stroke-width="0.5" stroke="black" fill="red"/>
  <circle cx="869.827" cy="506.024" r="5.05167" stroke-width="0.5" stroke="red" fill="red"/>
   </g>
   <g id="cell70">
  <circle cx="1171.11" cy="815.011" r="9.37686" stroke-width="0.5" stroke="black" fill="red"/>
  <circle cx="1171.11" cy="815.011" r="5.69955" stroke-width="0.5" stroke="red" fill="red"/>
   </g>
   <g id="cell71">
  <circle cx="1781.8" cy="1127.88" r="9.12489" stroke-width="0.5" stroke="black" fill="red"/>
  <circle cx="1781.8" cy="1127.88" r="5.54282" stroke-width="0.5" stroke="red" fill="red"/>
   </g>
   <g id="cell72">
  <circle cx="459.877" cy="1795.07" r="8.41271" stroke-width="0.5" stroke="black" fill="red"/>
  <circle cx="459.877" cy="1795.07" r="5.05167" stroke-width="0.5" stroke="red" fill="red"/>
   </g>
   <g id="cell73">
  <circle cx="1389.68" cy="892.13" r="9.7273" stroke-width="0.5" stroke="black" fill="red"/>
  <circle cx="1389.68" cy="892.13" r="5.90906" stroke-width="0.5" stroke="red" fill="red"/>
   </g>
   <g id="cell74">
  <circle cx="1678.52" cy="1936.58" r="9.70201" stroke-width="0.5" stroke="black" fill="red"/>
  <circle cx="1678.52" cy="1936.58" r="5.89426" stroke-width="0.5" stroke="red" fill="red"/>
   </g>
   <g id="cell75">
  <circle cx="203.504" cy="606.704" r="8.41271" stroke-width="0.5" stroke="black" fill="red"/>
  <circle cx="203.504" cy="606.704" r="5.05167" stroke-width="0.5" stroke="red" fill="red"/>
   </g>
   <g id="cell76">
  <circle cx="1604.32" cy="821.624" r="8.65127" stroke-width="0.5" stroke="black" fill="red"/>
  <circle cx="1604.32" cy="821.624" r="5.2272" stroke-width="0.5" stroke="red" fill="red"/>
   </g>
   <g id="cell77">
  <circle cx="1361.04" cy="1749.54" r="8.41271" stroke-width="0.5" stroke="black" fill="red"/>
  <circle cx="1361.04" cy="1749.54" r="5.05167" stroke-width="0.5" stroke="red" fill="red"/>
   </g>
   <g id="cell78">
  <circle cx="1184.62" cy="648.341" r="8.41271" stroke-width="0.5" stroke="black" fill="red"/>
  <circle cx="1184.62" cy="648.341" r="5.05167" stroke-width="0.5" stroke="red" fill="red"/>
   </g>
   <g id="cell79">
  <circle cx="1921.4" cy="1380.47" r="8.41271" stroke-width="0.5" stroke="black" fill="red"/>
  <circle cx="1921.4" cy="1380.47" r="5.05167" stroke-width="0.5" stroke="red" fill="red"/>
   </g>
   <g id="cell80">
  <circle cx="1451" cy="1306.41" r="9.12489" stroke-width="0.5" stroke="black" fill="red"/>
  <circle cx="1451" cy="1306.41" r="5.54282" stroke-width="0.5" stroke="red" fill="red"/>
   </g>
   <g id="cell81">
  <circle cx="1073.97" cy="1890.12" r="4.77375" stroke-width="0.5" stroke="black" fill="red"/>
  <circle cx="1073.97" cy="1890.12" r="3.35213" stroke-width="0.5" stroke="black" fill="black"/>
   </g>
   <g id="cell82">
  <circle cx="1266.68" cy="787.773" r="9.23685" stroke-width="0.5" stroke="black" fill="red"/>
  <circle cx="1266.68" cy="787.773" r="5.61315" stroke-width="0.5" stroke="red" fill="red"/>
   </g>
   <g id="cell83">
  <circle cx="1261.8" cy="1245.36" r="8.41271" stroke-width="0.5" stroke="black" fill="red"/>
  <circle cx="1261.8" cy="1245.36" r="5.05167" stroke-width="0.5" stroke="red" fill="red"/>
   </g>
   <g id="cell84">
  <circle cx="25.5132" cy="954.095" r="9.84395" stroke-width="0.5" stroke="black" fill="red"/>
  <circle cx="25.5132" cy="954.095" r="5.97665" stroke-width="0.5" stroke="red" fill="red"/>
   </g>
   <g id="cell85">
  <circle cx="1413.78" cy="1324.11" r="8.41271" stroke-width="0.5" stroke="black" fill="red"/>
  <circle cx="1413.78" cy="1324.11" r="5.05167" stroke-width="0.5" stroke="red" fill="red"/>
   </g>
   <g id="cell86">
  <circle cx="574.105" cy="780.917" r="8.41271" stroke-width="0.5" stroke="black" fill="red"/>
  <circle cx="574.105" cy="780.917" r="5.05167" stroke-width="0.5" stroke="red" fill="red"/>
   </g>
   <g id="cell87">
  <circle cx="1479.25" cy="867.776" r="9.00806" stroke-width="0.5" stroke="black" fill="red"/>
  <circle cx="1479.25" cy="867.776" r="5.46807" stroke-width="0.5" stroke="red" fill="red"/>
   </g>
   <g id="cell88">
  <circle cx="306.874" cy="169.496" r="9.12489" stroke-width="0.5" stroke="black" fill="red"/>
  <circle cx="306.874" cy="169.496" r="5.54282" stroke-width="0.5" stroke="red" fill="red"/>
   </g>
   <g id="cell89">
  <circle cx="189.517" cy="1139.78" r="8.41271" stroke-width="0.5" stroke="black" fill="red"/>
  <circle cx="189.517" cy="1139.78" r="5.05167" stroke-width="0.5" stroke="red" fill="red"/>
   </g>
   <g id="cell90">
  <circle cx="1159.3" cy="1099.62" r="8.41271" stroke-width="0.5" stroke="black" fill="red"/>
  <circle cx="1159.3" cy="1099.62" r="5.05167" stroke-width="0.5" stroke="red" fill="red"/>
   </g>
   <g id="cell91">
  <circle cx="44.9612" cy="1284.41" r="8.41271" stroke-width="0.5" stroke="black" fill="red"/>
  <circle cx="44.9612" cy="1284.41" r="5.05167" stroke-width="0.5" stroke="red" fill="red"/>
   </g>
   <g id="cell92">
  <circle cx="1268.11" cy="644.849" r="9.98223" stroke-width="0.5" stroke="black" fill="red"/>
  <circle cx="1268.11" cy="644.849" r="6.05517" stroke-width="0.5" stroke="red" fill="red"/>
   </g>
   <g id="cell93">
  <circle cx="444.852" cy="1796.75" r="8.45606" stroke-width="0.5" stroke="black" fill="red"/>
  <circle cx="444.852" cy="1796.75" r="5.08296" stroke-width="0.5" stroke="red" fill="red"/>
   </g>
   <g id="cell94">
  <circle cx="759.246" cy="203.075" r="9.44256" stroke-width="0.5" stroke="black" fill="red"/>
  <circle cx="759.246" cy="203.075" r="5.73955" stroke-width="0.5" stroke="red" fill="red"/>
   </g>
   <g id="cell95">
  <circle cx="1977.66" cy="1759.56" r="9.30826" stroke-width="0.5" stroke="black" fill="red"/>
  <circle cx="1977.66" cy="1759.56" r="5.65742" stroke-width="0.5" stroke="red" fill="red"/>
   </g>
   <g id="cell96">
  <circle cx="1615.7" cy="1077.05" r="9.59391" stroke-width="0.5" stroke="black" fill="red"/>
  <circle cx="1615.7" cy="1077.05" r="5.83043" stroke-width="0.5" stroke="red" fill="red"/>
   </g>
   <g id="cell97">
  <circle cx="879.76" cy="194.847" r="9.88629" stroke-width="0.5" stroke="black" fill="red"/>
  <circle cx="879.76" cy="194.847" r="6.00088" stroke-width="0.5" stroke="red" fill="red"/>
   </g>
   <g id="cell98">
  <circle cx="1818.48" cy="710.887" r="9.94548" stroke-width="0.5" stroke="black" fill="red"/>
  <circle cx="1818.48" cy="710.887" r="6.03448" stroke-width="0.5" stroke="red" fill="red"/>
   </g>
   <g id="cell99">
  <circle cx="933.883" cy="1976.11" r="9.96412" stroke-width="0.5" stroke="black" fill="red"/>
  <circle cx="933.883" cy="1976.11" r="6.04499" stroke-width="0.5" stroke="red" fill="red"/>
   </g>
  </g>
 </g>
  <rect x="1750" y="2070" width="200" height="20" stroke-width="4" stroke="rgb(255,255,255)" fill="rgb(0,0,0)"/>
  <text x="1762.5" y="2057.5"
   font-family="Arial" font-size="50" fill="black" >
   200 &#956;m
  </text>
  <text x="50" y="2090"
   font-family="Arial" font-size="37.5" fill="black" >
   0 days, 0 hours, 0 minutes, and 7.7282 seconds
  </text>
  <rect x="0" y="140" width="2000" height="2000" stroke-width="4" stroke="rgb(0,0,0)" fill="none"/>
</svg>
