<?xml version="1.0" encoding="UTF-8" standalone="no"?>
<!-- Created with PhysiCell (http://PhysiCell.MathCancer.org/) -->
<svg 
 xmlns:dc="http://purl.org/dc/elements/1.1/" 
 xmlns:cc="http://creativecommons.org/ns#" 
 xmlns:rdf="http://www.w3.org/1999/02/22-rdf-syntax-ns#" 
 xmlns:svg="http://www.w3.org/2000/svg" 
 xmlns="http://www.w3.org/2000/svg" 
 version="1.1" 
 width="2000" 
 height="2140" 
 id="svg2">
  <rect x="0" y="0" width="2000" height="2140" stroke-width="4" stroke="white" fill="white"/>
  <text x="25" y="60"
   font-family="Arial" font-size="50" fill="black" >
   Current time: 0 days, 10 hours, and 50.00 minutes, z = 0.00 &#956;m
  </text>
  <text x="25" y="115"
   font-family="Arial" font-size="47.5" fill="black" >
   98 agents
  </text>
 <g id="tissue" 
    transform="translate(0,2140) scale(1,-1)">
  <g id="ECM">
  </g>
  <g id="cells">
   <g id="cell0">
  <circle cx="1083.78" cy="1168.08" r="10.1374" stroke-width="0.5" stroke="black" fill="grey"/>
  <circle cx="1083.78" cy="1168.08" r="6.14084" stroke-width="0.5" stroke="grey" fill="grey"/>
   </g>
   <g id="cell1">
  <circle cx="1677.75" cy="1206.74" r="10.3933" stroke-width="0.5" stroke="black" fill="grey"/>
  <circle cx="1677.75" cy="1206.74" r="6.27417" stroke-width="0.5" stroke="grey" fill="grey"/>
   </g>
   <g id="cell2">
  <circle cx="1098.56" cy="1727.46" r="10.4761" stroke-width="0.5" stroke="black" fill="grey"/>
  <circle cx="1098.56" cy="1727.46" r="6.31388" stroke-width="0.5" stroke="grey" fill="grey"/>
   </g>
   <g id="cell3">
  <circle cx="1235.38" cy="1283.11" r="10.2328" stroke-width="0.5" stroke="black" fill="grey"/>
  <circle cx="1235.38" cy="1283.11" r="6.19197" stroke-width="0.5" stroke="grey" fill="grey"/>
   </g>
   <g id="cell4">
  <circle cx="917.186" cy="578.88" r="8.65127" stroke-width="0.5" stroke="black" fill="grey"/>
  <circle cx="917.186" cy="578.88" r="5.2272" stroke-width="0.5" stroke="grey" fill="grey"/>
   </g>
   <g id="cell5">
  <circle cx="75.015" cy="1934.67" r="9.99984" stroke-width="0.5" stroke="black" fill="grey"/>
  <circle cx="75.015" cy="1934.67" r="6.06503" stroke-width="0.5" stroke="grey" fill="grey"/>
   </g>
   <g id="cell6">
  <circle cx="762.33" cy="916.987" r="9.7273" stroke-width="0.5" stroke="black" fill="grey"/>
  <circle cx="762.33" cy="916.987" r="5.90906" stroke-width="0.5" stroke="grey" fill="grey"/>
   </g>
   <g id="cell7">
  <circle cx="1588.08" cy="1059.14" r="10.34" stroke-width="0.5" stroke="black" fill="grey"/>
  <circle cx="1588.08" cy="1059.14" r="6.24753" stroke-width="0.5" stroke="grey" fill="grey"/>
   </g>
   <g id="cell8">
  <circle cx="1136.58" cy="803.31" r="10.4726" stroke-width="0.5" stroke="black" fill="grey"/>
  <circle cx="1136.58" cy="803.31" r="6.31223" stroke-width="0.5" stroke="grey" fill="grey"/>
   </g>
   <g id="cell9">
  <circle cx="1626.66" cy="164.822" r="10.1098" stroke-width="0.5" stroke="black" fill="grey"/>
  <circle cx="1626.66" cy="164.822" r="6.12585" stroke-width="0.5" stroke="grey" fill="grey"/>
   </g>
   <g id="cell10">
  <circle cx="192.538" cy="1292.51" r="8.96831" stroke-width="0.5" stroke="black" fill="grey"/>
  <circle cx="192.538" cy="1292.51" r="5.44228" stroke-width="0.5" stroke="grey" fill="grey"/>
   </g>
   <g id="cell11">
  <circle cx="750.631" cy="1617.87" r="10.4355" stroke-width="0.5" stroke="black" fill="grey"/>
  <circle cx="750.631" cy="1617.87" r="6.2947" stroke-width="0.5" stroke="grey" fill="grey"/>
   </g>
   <g id="cell12">
  <circle cx="1598.88" cy="286.338" r="10.0955" stroke-width="0.5" stroke="black" fill="grey"/>
  <circle cx="1598.88" cy="286.338" r="6.11797" stroke-width="0.5" stroke="grey" fill="grey"/>
   </g>
   <g id="cell13">
  <circle cx="1737.35" cy="1899.54" r="10.4446" stroke-width="0.5" stroke="black" fill="grey"/>
  <circle cx="1737.35" cy="1899.54" r="6.29905" stroke-width="0.5" stroke="grey" fill="grey"/>
   </g>
   <g id="cell14">
  <circle cx="1557.59" cy="1635.64" r="8.41271" stroke-width="0.5" stroke="black" fill="grey"/>
  <circle cx="1557.59" cy="1635.64" r="5.05167" stroke-width="0.5" stroke="grey" fill="grey"/>
   </g>
   <g id="cell15">
  <circle cx="1032.73" cy="1542.73" r="10.2534" stroke-width="0.5" stroke="black" fill="grey"/>
  <circle cx="1032.73" cy="1542.73" r="6.2028" stroke-width="0.5" stroke="grey" fill="grey"/>
   </g>
   <g id="cell16">
  <circle cx="265.471" cy="1387.68" r="10.3747" stroke-width="0.5" stroke="black" fill="grey"/>
  <circle cx="265.471" cy="1387.68" r="6.26498" stroke-width="0.5" stroke="grey" fill="grey"/>
   </g>
   <g id="cell17">
  <circle cx="1180.46" cy="271.463" r="10.3247" stroke-width="0.5" stroke="black" fill="grey"/>
  <circle cx="1180.46" cy="271.463" r="6.23971" stroke-width="0.5" stroke="grey" fill="grey"/>
   </g>
   <g id="cell18">
  <circle cx="1877.14" cy="1512.94" r="10.4401" stroke-width="0.5" stroke="black" fill="grey"/>
  <circle cx="1877.14" cy="1512.94" r="6.29691" stroke-width="0.5" stroke="grey" fill="grey"/>
   </g>
   <g id="cell19">
  <circle cx="223.393" cy="879.562" r="8.41271" stroke-width="0.5" stroke="black" fill="grey"/>
  <circle cx="223.393" cy="879.562" r="5.05167" stroke-width="0.5" stroke="grey" fill="grey"/>
   </g>
   <g id="cell20">
  <circle cx="538.164" cy="370.858" r="8.88811" stroke-width="0.5" stroke="black" fill="grey"/>
  <circle cx="538.164" cy="370.858" r="5.38958" stroke-width="0.5" stroke="grey" fill="grey"/>
   </g>
   <g id="cell21">
  <circle cx="1424.51" cy="917.026" r="9.75192" stroke-width="0.5" stroke="black" fill="grey"/>
  <circle cx="1424.51" cy="917.026" r="5.92342" stroke-width="0.5" stroke="grey" fill="grey"/>
   </g>
   <g id="cell22">
  <circle cx="1135.62" cy="256.541" r="8.41271" stroke-width="0.5" stroke="black" fill="grey"/>
  <circle cx="1135.62" cy="256.541" r="5.05167" stroke-width="0.5" stroke="grey" fill="grey"/>
   </g>
   <g id="cell23">
  <circle cx="643.758" cy="1243.45" r="10.4573" stroke-width="0.5" stroke="black" fill="grey"/>
  <circle cx="643.758" cy="1243.45" r="6.30507" stroke-width="0.5" stroke="grey" fill="grey"/>
   </g>
   <g id="cell24">
  <circle cx="1304.21" cy="435.503" r="8.54454" stroke-width="0.5" stroke="black" fill="grey"/>
  <circle cx="1304.21" cy="435.503" r="5.14947" stroke-width="0.5" stroke="grey" fill="grey"/>
   </g>
   <g id="cell25">
  <circle cx="791.603" cy="1875.51" r="10.4726" stroke-width="0.5" stroke="black" fill="grey"/>
  <circle cx="791.603" cy="1875.51" r="6.31223" stroke-width="0.5" stroke="grey" fill="grey"/>
   </g>
   <g id="cell26">
  <circle cx="1366.52" cy="906.114" r="9.23685" stroke-width="0.5" stroke="black" fill="grey"/>
  <circle cx="1366.52" cy="906.114" r="5.61315" stroke-width="0.5" stroke="grey" fill="grey"/>
   </g>
   <g id="cell27">
  <circle cx="1218.94" cy="880.433" r="10.2999" stroke-width="0.5" stroke="black" fill="grey"/>
  <circle cx="1218.94" cy="880.433" r="6.22699" stroke-width="0.5" stroke="grey" fill="grey"/>
   </g>
   <g id="cell28">
  <circle cx="1359.92" cy="173.707" r="10.3682" stroke-width="0.5" stroke="black" fill="grey"/>
  <circle cx="1359.92" cy="173.707" r="6.26172" stroke-width="0.5" stroke="grey" fill="grey"/>
   </g>
   <g id="cell29">
  <circle cx="1948.9" cy="1322.37" r="10.2221" stroke-width="0.5" stroke="black" fill="grey"/>
  <circle cx="1948.9" cy="1322.37" r="6.18628" stroke-width="0.5" stroke="grey" fill="grey"/>
   </g>
   <g id="cell30">
  <circle cx="1323.35" cy="333.165" r="10.0955" stroke-width="0.5" stroke="black" fill="grey"/>
  <circle cx="1323.35" cy="333.165" r="6.11797" stroke-width="0.5" stroke="grey" fill="grey"/>
   </g>
   <g id="cell31">
  <circle cx="696.083" cy="245.657" r="10.4489" stroke-width="0.5" stroke="black" fill="grey"/>
  <circle cx="696.083" cy="245.657" r="6.30112" stroke-width="0.5" stroke="grey" fill="grey"/>
   </g>
   <g id="cell32">
  <circle cx="604.044" cy="1226.08" r="10.4446" stroke-width="0.5" stroke="black" fill="grey"/>
  <circle cx="604.044" cy="1226.08" r="6.29905" stroke-width="0.5" stroke="grey" fill="grey"/>
   </g>
   <g id="cell33">
  <circle cx="677.918" cy="1158.78" r="10.0497" stroke-width="0.5" stroke="black" fill="grey"/>
  <circle cx="677.918" cy="1158.78" r="6.09278" stroke-width="0.5" stroke="grey" fill="grey"/>
   </g>
   <g id="cell34">
  <circle cx="911.259" cy="1241.48" r="10.4689" stroke-width="0.5" stroke="black" fill="grey"/>
  <circle cx="911.259" cy="1241.48" r="6.31053" stroke-width="0.5" stroke="grey" fill="grey"/>
   </g>
   <g id="cell35">
  <circle cx="1879.06" cy="202.966" r="10.4258" stroke-width="0.5" stroke="black" fill="grey"/>
  <circle cx="1879.06" cy="202.966" r="6.29005" stroke-width="0.5" stroke="grey" fill="grey"/>
   </g>
   <g id="cell36">
  <circle cx="397.268" cy="1282.56" r="10.3991" stroke-width="0.5" stroke="black" fill="grey"/>
  <circle cx="397.268" cy="1282.56" r="6.27703" stroke-width="0.5" stroke="grey" fill="grey"/>
   </g>
   <g id="cell37">
  <circle cx="1975.32" cy="1312.67" r="8.41271" stroke-width="0.5" stroke="black" fill="grey"/>
  <circle cx="1975.32" cy="1312.67" r="5.05167" stroke-width="0.5" stroke="grey" fill="grey"/>
   </g>
   <g id="cell38">
  <circle cx="455.059" cy="857.46" r="10.4307" stroke-width="0.5" stroke="black" fill="grey"/>
  <circle cx="455.059" cy="857.46" r="6.29241" stroke-width="0.5" stroke="grey" fill="grey"/>
   </g>
   <g id="cell39">
  <circle cx="923.22" cy="474.695" r="8.80772" stroke-width="0.5" stroke="black" fill="grey"/>
  <circle cx="923.22" cy="474.695" r="5.33574" stroke-width="0.5" stroke="grey" fill="grey"/>
   </g>
   <g id="cell40">
  <circle cx="292.029" cy="672.955" r="10.4401" stroke-width="0.5" stroke="black" fill="grey"/>
  <circle cx="292.029" cy="672.955" r="6.29691" stroke-width="0.5" stroke="grey" fill="grey"/>
   </g>
   <g id="cell41">
  <circle cx="1348.33" cy="1276.98" r="10.4796" stroke-width="0.5" stroke="black" fill="grey"/>
  <circle cx="1348.33" cy="1276.98" r="6.31548" stroke-width="0.5" stroke="grey" fill="grey"/>
   </g>
   <g id="cell42">
  <circle cx="282.183" cy="1553.32" r="10.3247" stroke-width="0.5" stroke="black" fill="grey"/>
  <circle cx="282.183" cy="1553.32" r="6.23971" stroke-width="0.5" stroke="grey" fill="grey"/>
   </g>
   <g id="cell43">
  <circle cx="1928.8" cy="774.05" r="10.3747" stroke-width="0.5" stroke="black" fill="grey"/>
  <circle cx="1928.8" cy="774.05" r="6.26498" stroke-width="0.5" stroke="grey" fill="grey"/>
   </g>
   <g id="cell44">
  <circle cx="1667.93" cy="39.6502" r="10.34" stroke-width="0.5" stroke="black" fill="grey"/>
  <circle cx="1667.93" cy="39.6502" r="6.24753" stroke-width="0.5" stroke="grey" fill="grey"/>
   </g>
   <g id="cell45">
  <circle cx="1213.3" cy="1715.65" r="10.2728" stroke-width="0.5" stroke="black" fill="grey"/>
  <circle cx="1213.3" cy="1715.65" r="6.21295" stroke-width="0.5" stroke="grey" fill="grey"/>
   </g>
   <g id="cell46">
  <circle cx="183.902" cy="1961.74" r="10.3682" stroke-width="0.5" stroke="black" fill="grey"/>
  <circle cx="183.902" cy="1961.74" r="6.26172" stroke-width="0.5" stroke="grey" fill="grey"/>
   </g>
   <g id="cell47">
  <circle cx="1739.17" cy="927.77" r="10.4651" stroke-width="0.5" stroke="black" fill="grey"/>
  <circle cx="1739.17" cy="927.77" r="6.30877" stroke-width="0.5" stroke="grey" fill="grey"/>
   </g>
   <g id="cell48">
  <circle cx="1937.71" cy="106.729" r="10.0497" stroke-width="0.5" stroke="black" fill="grey"/>
  <circle cx="1937.71" cy="106.729" r="6.09278" stroke-width="0.5" stroke="grey" fill="grey"/>
   </g>
   <g id="cell49">
  <circle cx="927.639" cy="1469.65" r="10.2728" stroke-width="0.5" stroke="black" fill="grey"/>
  <circle cx="927.639" cy="1469.65" r="6.21295" stroke-width="0.5" stroke="grey" fill="grey"/>
   </g>
   <g id="cell50">
  <circle cx="150.971" cy="870.297" r="10.2632" stroke-width="0.5" stroke="black" fill="red"/>
  <circle cx="150.971" cy="870.297" r="6.20796" stroke-width="0.5" stroke="red" fill="red"/>
   </g>
   <g id="cell51">
  <circle cx="1968.67" cy="288.43" r="8.41271" stroke-width="0.5" stroke="black" fill="red"/>
  <circle cx="1968.67" cy="288.43" r="5.05167" stroke-width="0.5" stroke="red" fill="red"/>
   </g>
   <g id="cell52">
  <circle cx="627.133" cy="979.135" r="10.3247" stroke-width="0.5" stroke="black" fill="red"/>
  <circle cx="627.133" cy="979.135" r="6.23971" stroke-width="0.5" stroke="red" fill="red"/>
   </g>
   <g id="cell53">
  <circle cx="1390.68" cy="654.314" r="8.41271" stroke-width="0.5" stroke="black" fill="red"/>
  <circle cx="1390.68" cy="654.314" r="5.05167" stroke-width="0.5" stroke="red" fill="red"/>
   </g>
   <g id="cell54">
  <circle cx="804.862" cy="1833.37" r="10.3615" stroke-width="0.5" stroke="black" fill="red"/>
  <circle cx="804.862" cy="1833.37" r="6.25834" stroke-width="0.5" stroke="red" fill="red"/>
   </g>
   <g id="cell55">
  <circle cx="418.825" cy="1375.76" r="8.41271" stroke-width="0.5" stroke="black" fill="red"/>
  <circle cx="418.825" cy="1375.76" r="5.05167" stroke-width="0.5" stroke="red" fill="red"/>
   </g>
   <g id="cell56">
  <circle cx="1124.75" cy="1687.69" r="8.57856" stroke-width="0.5" stroke="black" fill="red"/>
  <circle cx="1124.75" cy="1687.69" r="5.17461" stroke-width="0.5" stroke="red" fill="red"/>
   </g>
   <g id="cell57">
  <circle cx="1013.98" cy="1059.16" r="10.4531" stroke-width="0.5" stroke="black" fill="red"/>
  <circle cx="1013.98" cy="1059.16" r="6.30312" stroke-width="0.5" stroke="red" fill="red"/>
   </g>
   <g id="cell58">
  <circle cx="146.46" cy="1804.33" r="9.92631" stroke-width="0.5" stroke="black" fill="red"/>
  <circle cx="146.46" cy="1804.33" r="6.02363" stroke-width="0.5" stroke="red" fill="red"/>
   </g>
   <g id="cell98">
  <circle cx="1818.75" cy="701.821" r="10.1506" stroke-width="0.5" stroke="black" fill="red"/>
  <circle cx="1818.75" cy="701.821" r="6.14798" stroke-width="0.5" stroke="red" fill="red"/>
   </g>
   <g id="cell60">
  <circle cx="649.831" cy="38.6082" r="10.2911" stroke-width="0.5" stroke="black" fill="red"/>
  <circle cx="649.831" cy="38.6082" r="6.22246" stroke-width="0.5" stroke="red" fill="red"/>
   </g>
   <g id="cell61">
  <circle cx="1661.32" cy="262.631" r="10.3873" stroke-width="0.5" stroke="black" fill="red"/>
  <circle cx="1661.32" cy="262.631" r="6.2712" stroke-width="0.5" stroke="red" fill="red"/>
   </g>
   <g id="cell62">
  <circle cx="1417.75" cy="1689.93" r="10.3545" stroke-width="0.5" stroke="black" fill="red"/>
  <circle cx="1417.75" cy="1689.93" r="6.25485" stroke-width="0.5" stroke="red" fill="red"/>
   </g>
   <g id="cell63">
  <circle cx="554.781" cy="369.623" r="9.84395" stroke-width="0.5" stroke="black" fill="red"/>
  <circle cx="554.781" cy="369.623" r="5.97665" stroke-width="0.5" stroke="red" fill="red"/>
   </g>
   <g id="cell64">
  <circle cx="1187.76" cy="1102.27" r="10.2911" stroke-width="0.5" stroke="black" fill="red"/>
  <circle cx="1187.76" cy="1102.27" r="6.22246" stroke-width="0.5" stroke="red" fill="red"/>
   </g>
   <g id="cell65">
  <circle cx="309.881" cy="1641.22" r="10.3615" stroke-width="0.5" stroke="black" fill="red"/>
  <circle cx="309.881" cy="1641.22" r="6.25834" stroke-width="0.5" stroke="red" fill="red"/>
   </g>
   <g id="cell66">
  <circle cx="21.8375" cy="277.852" r="10.211" stroke-width="0.5" stroke="black" fill="red"/>
  <circle cx="21.8375" cy="277.852" r="6.18041" stroke-width="0.5" stroke="red" fill="red"/>
   </g>
   <g id="cell67">
  <circle cx="1152.09" cy="563.858" r="9.62199" stroke-width="0.5" stroke="black" fill="red"/>
  <circle cx="1152.09" cy="563.858" r="5.8471" stroke-width="0.5" stroke="red" fill="red"/>
   </g>
   <g id="cell68">
  <circle cx="1453.33" cy="605.565" r="10.3325" stroke-width="0.5" stroke="black" fill="red"/>
  <circle cx="1453.33" cy="605.565" r="6.24369" stroke-width="0.5" stroke="red" fill="red"/>
   </g>
   <g id="cell69">
  <circle cx="846.32" cy="491.407" r="10.1098" stroke-width="0.5" stroke="black" fill="red"/>
  <circle cx="846.32" cy="491.407" r="6.12585" stroke-width="0.5" stroke="red" fill="red"/>
   </g>
   <g id="cell70">
  <circle cx="1159.29" cy="775.762" r="10.3991" stroke-width="0.5" stroke="black" fill="red"/>
  <circle cx="1159.29" cy="775.762" r="6.27703" stroke-width="0.5" stroke="red" fill="red"/>
   </g>
   <g id="cell71">
  <circle cx="1744.76" cy="1178.76" r="10.4613" stroke-width="0.5" stroke="black" fill="red"/>
  <circle cx="1744.76" cy="1178.76" r="6.30695" stroke-width="0.5" stroke="red" fill="red"/>
   </g>
   <g id="cell72">
  <circle cx="420.056" cy="1764.52" r="8.41271" stroke-width="0.5" stroke="black" fill="red"/>
  <circle cx="420.056" cy="1764.52" r="5.05167" stroke-width="0.5" stroke="red" fill="red"/>
   </g>
   <g id="cell73">
  <circle cx="1353.2" cy="872.037" r="10.4401" stroke-width="0.5" stroke="black" fill="red"/>
  <circle cx="1353.2" cy="872.037" r="6.29691" stroke-width="0.5" stroke="red" fill="red"/>
   </g>
   <g id="cell74">
  <circle cx="1690.65" cy="1888.8" r="10.3682" stroke-width="0.5" stroke="black" fill="red"/>
  <circle cx="1690.65" cy="1888.8" r="6.26172" stroke-width="0.5" stroke="red" fill="red"/>
   </g>
   <g id="cell75">
  <circle cx="224.115" cy="576.615" r="8.41271" stroke-width="0.5" stroke="black" fill="red"/>
  <circle cx="224.115" cy="576.615" r="5.05167" stroke-width="0.5" stroke="red" fill="red"/>
   </g>
   <g id="cell76">
  <circle cx="1636.56" cy="775.075" r="10.1374" stroke-width="0.5" stroke="black" fill="red"/>
  <circle cx="1636.56" cy="775.075" r="6.14084" stroke-width="0.5" stroke="red" fill="red"/>
   </g>
   <g id="cell77">
  <circle cx="1387.16" cy="1801.06" r="10.4156" stroke-width="0.5" stroke="black" fill="red"/>
  <circle cx="1387.16" cy="1801.06" r="6.2851" stroke-width="0.5" stroke="red" fill="red"/>
   </g>
   <g id="cell78">
  <circle cx="1147.86" cy="619.432" r="9.04745" stroke-width="0.5" stroke="black" fill="red"/>
  <circle cx="1147.86" cy="619.432" r="5.49345" stroke-width="0.5" stroke="red" fill="red"/>
   </g>
   <g id="cell79">
  <circle cx="1980.11" cy="1425.66" r="10.1634" stroke-width="0.5" stroke="black" fill="red"/>
  <circle cx="1980.11" cy="1425.66" r="6.1549" stroke-width="0.5" stroke="red" fill="red"/>
   </g>
   <g id="cell80">
  <circle cx="1469.15" cy="1310.1" r="10.4048" stroke-width="0.5" stroke="black" fill="red"/>
  <circle cx="1469.15" cy="1310.1" r="6.27981" stroke-width="0.5" stroke="red" fill="red"/>
   </g>
   <g id="cell81">
  <circle cx="1083.78" cy="1912.78" r="10.2999" stroke-width="0.5" stroke="black" fill="red"/>
  <circle cx="1083.78" cy="1912.78" r="6.22699" stroke-width="0.5" stroke="red" fill="red"/>
   </g>
   <g id="cell82">
  <circle cx="1269.76" cy="815.653" r="10.4355" stroke-width="0.5" stroke="black" fill="red"/>
  <circle cx="1269.76" cy="815.653" r="6.2947" stroke-width="0.5" stroke="red" fill="red"/>
   </g>
   <g id="cell83">
  <circle cx="1233.36" cy="1231.1" r="10.4726" stroke-width="0.5" stroke="black" fill="red"/>
  <circle cx="1233.36" cy="1231.1" r="6.31223" stroke-width="0.5" stroke="red" fill="red"/>
   </g>
   <g id="cell84">
  <circle cx="32.4487" cy="921.692" r="8.41271" stroke-width="0.5" stroke="black" fill="red"/>
  <circle cx="32.4487" cy="921.692" r="5.05167" stroke-width="0.5" stroke="red" fill="red"/>
   </g>
   <g id="cell85">
  <circle cx="1447.31" cy="1312.07" r="9.2729" stroke-width="0.5" stroke="black" fill="red"/>
  <circle cx="1447.31" cy="1312.07" r="5.63555" stroke-width="0.5" stroke="red" fill="red"/>
   </g>
   <g id="cell86">
  <circle cx="585.497" cy="791.939" r="10.2534" stroke-width="0.5" stroke="black" fill="red"/>
  <circle cx="585.497" cy="791.939" r="6.2028" stroke-width="0.5" stroke="red" fill="red"/>
   </g>
   <g id="cell87">
  <circle cx="1471.91" cy="894.682" r="9.23685" stroke-width="0.5" stroke="black" fill="red"/>
  <circle cx="1471.91" cy="894.682" r="5.61315" stroke-width="0.5" stroke="red" fill="red"/>
   </g>
   <g id="cell88">
  <circle cx="273.242" cy="202.857" r="10.3682" stroke-width="0.5" stroke="black" fill="red"/>
  <circle cx="273.242" cy="202.857" r="6.26172" stroke-width="0.5" stroke="red" fill="red"/>
   </g>
   <g id="cell89">
  <circle cx="186.046" cy="1161.06" r="10.3873" stroke-width="0.5" stroke="black" fill="red"/>
  <circle cx="186.046" cy="1161.06" r="6.2712" stroke-width="0.5" stroke="red" fill="red"/>
   </g>
   <g id="cell90">
  <circle cx="1157.11" cy="1078.8" r="9.98223" stroke-width="0.5" stroke="black" fill="red"/>
  <circle cx="1157.11" cy="1078.8" r="6.05517" stroke-width="0.5" stroke="red" fill="red"/>
   </g>
   <g id="cell91">
  <circle cx="40.8561" cy="1276.45" r="10.4156" stroke-width="0.5" stroke="black" fill="red"/>
  <circle cx="40.8561" cy="1276.45" r="6.2851" stroke-width="0.5" stroke="red" fill="red"/>
   </g>
   <g id="cell99">
  <circle cx="965.403" cy="1990.38" r="10.4573" stroke-width="0.5" stroke="black" fill="red"/>
  <circle cx="965.403" cy="1990.38" r="6.30507" stroke-width="0.5" stroke="red" fill="red"/>
   </g>
   <g id="cell93">
  <circle cx="410.449" cy="1782.97" r="10.4689" stroke-width="0.5" stroke="black" fill="red"/>
  <circle cx="410.449" cy="1782.97" r="6.31053" stroke-width="0.5" stroke="red" fill="red"/>
   </g>
   <g id="cell94">
  <circle cx="757.589" cy="187.852" r="10.3084" stroke-width="0.5" stroke="black" fill="red"/>
  <circle cx="757.589" cy="187.852" r="6.23137" stroke-width="0.5" stroke="red" fill="red"/>
   </g>
   <g id="cell95">
  <circle cx="1965.05" cy="1760" r="10.4531" stroke-width="0.5" stroke="black" fill="red"/>
  <circle cx="1965.05" cy="1760" r="6.30312" stroke-width="0.5" stroke="red" fill="red"/>
   </g>
   <g id="cell96">
  <circle cx="1665.63" cy="1079.84" r="8.88811" stroke-width="0.5" stroke="black" fill="red"/>
  <circle cx="1665.63" cy="1079.84" r="5.38958" stroke-width="0.5" stroke="red" fill="red"/>
   </g>
   <g id="cell97">
  <circle cx="949.153" cy="179.836" r="10.2911" stroke-width="0.5" stroke="black" fill="red"/>
  <circle cx="949.153" cy="179.836" r="6.22246" stroke-width="0.5" stroke="red" fill="red"/>
   </g>
  </g>
 </g>
  <rect x="1750" y="2070" width="200" height="20" stroke-width="4" stroke="rgb(255,255,255)" fill="rgb(0,0,0)"/>
  <text x="1762.5" y="2057.5"
   font-family="Arial" font-size="50" fill="black" >
   200 &#956;m
  </text>
  <text x="50" y="2090"
   font-family="Arial" font-size="37.5" fill="black" >
   0 days, 0 hours, 0 minutes, and 16.0364 seconds
  </text>
  <rect x="0" y="140" width="2000" height="2000" stroke-width="4" stroke="rgb(0,0,0)" fill="none"/>
</svg>
