<?xml version="1.0" encoding="UTF-8" standalone="no"?>
<!-- Created with PhysiCell (http://PhysiCell.MathCancer.org/) -->
<svg 
 xmlns:dc="http://purl.org/dc/elements/1.1/" 
 xmlns:cc="http://creativecommons.org/ns#" 
 xmlns:rdf="http://www.w3.org/1999/02/22-rdf-syntax-ns#" 
 xmlns:svg="http://www.w3.org/2000/svg" 
 xmlns="http://www.w3.org/2000/svg" 
 version="1.1" 
 width="2000" 
 height="2140" 
 id="svg2">
  <rect x="0" y="0" width="2000" height="2140" stroke-width="4" stroke="white" fill="white"/>
  <text x="25" y="60"
   font-family="Arial" font-size="50" fill="black" >
   Current time: 1 days, 23 hours, and 0.00 minutes, z = 0.00 &#956;m
  </text>
  <text x="25" y="115"
   font-family="Arial" font-size="47.5" fill="black" >
   35 agents
  </text>
 <g id="tissue" 
    transform="translate(0,2140) scale(1,-1)">
  <g id="ECM">
  </g>
  <g id="cells">
   <g id="cell0">
  <circle cx="1114.83" cy="1160.48" r="10.5137" stroke-width="0.5" stroke="black" fill="grey"/>
  <circle cx="1114.83" cy="1160.48" r="6.33102" stroke-width="0.5" stroke="grey" fill="grey"/>
   </g>
   <g id="cell1">
  <circle cx="1692.53" cy="1209.91" r="9.99787" stroke-width="0.5" stroke="black" fill="grey"/>
  <circle cx="1692.53" cy="1209.91" r="6.06446" stroke-width="0.5" stroke="grey" fill="grey"/>
   </g>
   <g id="cell2">
  <circle cx="1165.89" cy="1740.75" r="10.3987" stroke-width="0.5" stroke="black" fill="grey"/>
  <circle cx="1165.89" cy="1740.75" r="6.27693" stroke-width="0.5" stroke="grey" fill="grey"/>
   </g>
   <g id="cell3">
  <circle cx="1271.02" cy="1340.19" r="10.5185" stroke-width="0.5" stroke="black" fill="grey"/>
  <circle cx="1271.02" cy="1340.19" r="6.3331" stroke-width="0.5" stroke="grey" fill="grey"/>
   </g>
   <g id="cell4">
  <circle cx="866.089" cy="560.837" r="10.3391" stroke-width="0.5" stroke="black" fill="grey"/>
  <circle cx="866.089" cy="560.837" r="6.2473" stroke-width="0.5" stroke="grey" fill="grey"/>
   </g>
   <g id="cell5">
  <circle cx="101.641" cy="1990.31" r="10.3737" stroke-width="0.5" stroke="black" fill="red"/>
  <circle cx="101.641" cy="1990.31" r="6.2647" stroke-width="0.5" stroke="red" fill="red"/>
   </g>
   <g id="cell6">
  <circle cx="795.301" cy="870.601" r="8.40869" stroke-width="0.5" stroke="black" fill="red"/>
  <circle cx="795.301" cy="870.601" r="5.05053" stroke-width="0.5" stroke="red" fill="red"/>
   </g>
   <g id="cell19">
  <circle cx="1704.63" cy="1285.21" r="10.5181" stroke-width="0.5" stroke="black" fill="grey"/>
  <circle cx="1704.63" cy="1285.21" r="6.333" stroke-width="0.5" stroke="grey" fill="grey"/>
   </g>
   <g id="cell18">
  <circle cx="1661.43" cy="303.692" r="9.61605" stroke-width="0.5" stroke="black" fill="red"/>
  <circle cx="1661.43" cy="303.692" r="5.84517" stroke-width="0.5" stroke="red" fill="red"/>
   </g>
   <g id="cell9">
  <circle cx="1668.59" cy="190.525" r="10.3973" stroke-width="0.5" stroke="black" fill="red"/>
  <circle cx="1668.59" cy="190.525" r="6.27653" stroke-width="0.5" stroke="red" fill="red"/>
   </g>
   <g id="cell11">
  <circle cx="1570.85" cy="1095.41" r="8.39551" stroke-width="0.5" stroke="black" fill="red"/>
  <circle cx="1570.85" cy="1095.41" r="5.04594" stroke-width="0.5" stroke="red" fill="red"/>
   </g>
   <g id="cell20">
  <circle cx="847.334" cy="980.894" r="8.41968" stroke-width="0.5" stroke="black" fill="red"/>
  <circle cx="847.334" cy="980.894" r="5.06138" stroke-width="0.5" stroke="red" fill="red"/>
   </g>
   <g id="cell13">
  <circle cx="864.356" cy="588.666" r="10.2618" stroke-width="0.5" stroke="black" fill="grey"/>
  <circle cx="864.356" cy="588.666" r="6.20755" stroke-width="0.5" stroke="grey" fill="grey"/>
   </g>
   <g id="cell14">
  <circle cx="1187.08" cy="1292.68" r="10.3383" stroke-width="0.5" stroke="black" fill="grey"/>
  <circle cx="1187.08" cy="1292.68" r="6.24706" stroke-width="0.5" stroke="grey" fill="grey"/>
   </g>
   <g id="cell15">
  <circle cx="1135.74" cy="1145.7" r="10.346" stroke-width="0.5" stroke="black" fill="grey"/>
  <circle cx="1135.74" cy="1145.7" r="6.25086" stroke-width="0.5" stroke="grey" fill="grey"/>
   </g>
   <g id="cell16">
  <circle cx="1173.08" cy="1702.16" r="10.4185" stroke-width="0.5" stroke="black" fill="grey"/>
  <circle cx="1173.08" cy="1702.16" r="6.28697" stroke-width="0.5" stroke="grey" fill="grey"/>
   </g>
   <g id="cell17">
  <circle cx="1090.35" cy="691.211" r="8.41184" stroke-width="0.5" stroke="black" fill="red"/>
  <circle cx="1090.35" cy="691.211" r="5.05146" stroke-width="0.5" stroke="red" fill="red"/>
   </g>
   <g id="cell21">
  <circle cx="1551.77" cy="1024.66" r="10.4255" stroke-width="0.5" stroke="black" fill="red"/>
  <circle cx="1551.77" cy="1024.66" r="6.28999" stroke-width="0.5" stroke="red" fill="red"/>
   </g>
   <g id="cell22">
  <circle cx="1182.38" cy="1736.89" r="9.75145" stroke-width="0.5" stroke="black" fill="grey"/>
  <circle cx="1182.38" cy="1736.89" r="5.9233" stroke-width="0.5" stroke="grey" fill="grey"/>
   </g>
   <g id="cell23">
  <circle cx="1265.68" cy="1310.99" r="8.96775" stroke-width="0.5" stroke="black" fill="grey"/>
  <circle cx="1265.68" cy="1310.99" r="5.44213" stroke-width="0.5" stroke="grey" fill="grey"/>
   </g>
   <g id="cell24">
  <circle cx="1143.13" cy="1203.68" r="10.529" stroke-width="0.5" stroke="black" fill="grey"/>
  <circle cx="1143.13" cy="1203.68" r="6.33771" stroke-width="0.5" stroke="grey" fill="grey"/>
   </g>
   <g id="cell25">
  <circle cx="1110.8" cy="718.81" r="8.41184" stroke-width="0.5" stroke="black" fill="red"/>
  <circle cx="1110.8" cy="718.81" r="5.05146" stroke-width="0.5" stroke="red" fill="red"/>
   </g>
   <g id="cell26">
  <circle cx="1677.3" cy="1216.59" r="10.4718" stroke-width="0.5" stroke="black" fill="grey"/>
  <circle cx="1677.3" cy="1216.59" r="6.31203" stroke-width="0.5" stroke="grey" fill="grey"/>
   </g>
   <g id="cell27">
  <circle cx="905.556" cy="572.316" r="8.41136" stroke-width="0.5" stroke="black" fill="grey"/>
  <circle cx="905.556" cy="572.316" r="5.05133" stroke-width="0.5" stroke="grey" fill="grey"/>
   </g>
   <g id="cell28">
  <circle cx="94.5238" cy="1945.54" r="10.1363" stroke-width="0.5" stroke="black" fill="red"/>
  <circle cx="94.5238" cy="1945.54" r="6.14054" stroke-width="0.5" stroke="red" fill="red"/>
   </g>
   <g id="cell29">
  <circle cx="1127.88" cy="1112.16" r="10.4848" stroke-width="0.5" stroke="black" fill="grey"/>
  <circle cx="1127.88" cy="1112.16" r="6.31815" stroke-width="0.5" stroke="grey" fill="grey"/>
   </g>
   <g id="cell30">
  <circle cx="906.639" cy="619.686" r="10.2095" stroke-width="0.5" stroke="black" fill="grey"/>
  <circle cx="906.639" cy="619.686" r="6.17999" stroke-width="0.5" stroke="grey" fill="grey"/>
   </g>
   <g id="cell31">
  <circle cx="1168.8" cy="1294.43" r="10.2982" stroke-width="0.5" stroke="black" fill="grey"/>
  <circle cx="1168.8" cy="1294.43" r="6.22651" stroke-width="0.5" stroke="grey" fill="grey"/>
   </g>
   <g id="cell32">
  <circle cx="1644.48" cy="225.19" r="10.015" stroke-width="0.5" stroke="black" fill="red"/>
  <circle cx="1644.48" cy="225.19" r="6.07401" stroke-width="0.5" stroke="red" fill="red"/>
   </g>
   <g id="cell33">
  <circle cx="1663.59" cy="1183.53" r="9.2706" stroke-width="0.5" stroke="black" fill="grey"/>
  <circle cx="1663.59" cy="1183.53" r="5.63486" stroke-width="0.5" stroke="grey" fill="grey"/>
   </g>
   <g id="cell34">
  <circle cx="1172.44" cy="1679.16" r="9.64673" stroke-width="0.5" stroke="black" fill="grey"/>
  <circle cx="1172.44" cy="1679.16" r="5.86249" stroke-width="0.5" stroke="grey" fill="grey"/>
   </g>
   <g id="cell35">
  <circle cx="765.57" cy="869.612" r="9.99699" stroke-width="0.5" stroke="black" fill="red"/>
  <circle cx="765.57" cy="869.612" r="6.06418" stroke-width="0.5" stroke="red" fill="red"/>
   </g>
   <g id="cell36">
  <circle cx="1683.98" cy="288.539" r="9.99433" stroke-width="0.5" stroke="black" fill="red"/>
  <circle cx="1683.98" cy="288.539" r="6.06327" stroke-width="0.5" stroke="red" fill="red"/>
   </g>
   <g id="cell37">
  <circle cx="830.075" cy="935.585" r="8.87657" stroke-width="0.5" stroke="black" fill="red"/>
  <circle cx="830.075" cy="935.585" r="5.38563" stroke-width="0.5" stroke="red" fill="red"/>
   </g>
   <g id="cell38">
  <circle cx="1595.5" cy="1047.4" r="8.52787" stroke-width="0.5" stroke="black" fill="red"/>
  <circle cx="1595.5" cy="1047.4" r="5.14384" stroke-width="0.5" stroke="red" fill="red"/>
   </g>
  </g>
 </g>
  <rect x="1750" y="2070" width="200" height="20" stroke-width="4" stroke="rgb(255,255,255)" fill="rgb(0,0,0)"/>
  <text x="1762.5" y="2057.5"
   font-family="Arial" font-size="50" fill="black" >
   200 &#956;m
  </text>
  <text x="50" y="2090"
   font-family="Arial" font-size="37.5" fill="black" >
   0 days, 0 hours, 1 minutes, and 1.1028 seconds
  </text>
  <rect x="0" y="140" width="2000" height="2000" stroke-width="4" stroke="rgb(0,0,0)" fill="none"/>
</svg>
