<?xml version="1.0" encoding="UTF-8" standalone="no"?>
<!-- Created with PhysiCell (http://PhysiCell.MathCancer.org/) -->
<svg 
 xmlns:dc="http://purl.org/dc/elements/1.1/" 
 xmlns:cc="http://creativecommons.org/ns#" 
 xmlns:rdf="http://www.w3.org/1999/02/22-rdf-syntax-ns#" 
 xmlns:svg="http://www.w3.org/2000/svg" 
 xmlns="http://www.w3.org/2000/svg" 
 version="1.1" 
 width="2000" 
 height="2140" 
 id="svg2">
  <rect x="0" y="0" width="2000" height="2140" stroke-width="4" stroke="white" fill="white"/>
  <text x="25" y="60"
   font-family="Arial" font-size="50" fill="black" >
   Current time: 3 days, 7 hours, and 0.00 minutes, z = 0.00 &#956;m
  </text>
  <text x="25" y="115"
   font-family="Arial" font-size="47.5" fill="black" >
   120 agents
  </text>
 <g id="tissue" 
    transform="translate(0,2140) scale(1,-1)">
  <g id="ECM">
  </g>
  <g id="cells">
   <g id="cell0">
  <circle cx="1108.22" cy="1219.16" r="10.4948" stroke-width="0.5" stroke="black" fill="grey"/>
  <circle cx="1108.22" cy="1219.16" r="6.32257" stroke-width="0.5" stroke="grey" fill="grey"/>
   </g>
   <g id="cell1">
  <circle cx="1698.75" cy="1245.51" r="9.39791" stroke-width="0.5" stroke="black" fill="grey"/>
  <circle cx="1698.75" cy="1245.51" r="5.71555" stroke-width="0.5" stroke="grey" fill="grey"/>
   </g>
   <g id="cell2">
  <circle cx="1193.42" cy="1746.76" r="10.1494" stroke-width="0.5" stroke="black" fill="grey"/>
  <circle cx="1193.42" cy="1746.76" r="6.14768" stroke-width="0.5" stroke="grey" fill="grey"/>
   </g>
   <g id="cell3">
  <circle cx="1276.8" cy="1314.62" r="10.4787" stroke-width="0.5" stroke="black" fill="grey"/>
  <circle cx="1276.8" cy="1314.62" r="6.31526" stroke-width="0.5" stroke="grey" fill="grey"/>
   </g>
   <g id="cell4">
  <circle cx="809.088" cy="538.307" r="9.98144" stroke-width="0.5" stroke="black" fill="grey"/>
  <circle cx="809.088" cy="538.307" r="6.05495" stroke-width="0.5" stroke="grey" fill="grey"/>
   </g>
   <g id="cell5">
  <circle cx="70.6158" cy="1941.55" r="10.3866" stroke-width="0.5" stroke="black" fill="red"/>
  <circle cx="70.6158" cy="1941.55" r="6.27103" stroke-width="0.5" stroke="red" fill="red"/>
   </g>
   <g id="cell6">
  <circle cx="879.27" cy="925.92" r="10.2312" stroke-width="0.5" stroke="black" fill="red"/>
  <circle cx="879.27" cy="925.92" r="6.19152" stroke-width="0.5" stroke="red" fill="red"/>
   </g>
   <g id="cell19">
  <circle cx="1697.72" cy="1358.63" r="10.4472" stroke-width="0.5" stroke="black" fill="grey"/>
  <circle cx="1697.72" cy="1358.63" r="6.30063" stroke-width="0.5" stroke="grey" fill="grey"/>
   </g>
   <g id="cell18">
  <circle cx="1620.08" cy="301.357" r="10.5165" stroke-width="0.5" stroke="black" fill="red"/>
  <circle cx="1620.08" cy="301.357" r="6.33217" stroke-width="0.5" stroke="red" fill="red"/>
   </g>
   <g id="cell9">
  <circle cx="1706.73" cy="148.924" r="10.4202" stroke-width="0.5" stroke="black" fill="red"/>
  <circle cx="1706.73" cy="148.924" r="6.28748" stroke-width="0.5" stroke="red" fill="red"/>
   </g>
   <g id="cell11">
  <circle cx="1563.88" cy="1094.79" r="10.4298" stroke-width="0.5" stroke="black" fill="red"/>
  <circle cx="1563.88" cy="1094.79" r="6.29218" stroke-width="0.5" stroke="red" fill="red"/>
   </g>
   <g id="cell20">
  <circle cx="792.042" cy="1038.73" r="9.4899" stroke-width="0.5" stroke="black" fill="red"/>
  <circle cx="792.042" cy="1038.73" r="5.77193" stroke-width="0.5" stroke="red" fill="red"/>
   </g>
   <g id="cell13">
  <circle cx="868.204" cy="634.979" r="8.3853" stroke-width="0.5" stroke="black" fill="grey"/>
  <circle cx="868.204" cy="634.979" r="5.04198" stroke-width="0.5" stroke="grey" fill="grey"/>
   </g>
   <g id="cell14">
  <circle cx="1143.36" cy="1308" r="9.40706" stroke-width="0.5" stroke="black" fill="grey"/>
  <circle cx="1143.36" cy="1308" r="5.71888" stroke-width="0.5" stroke="grey" fill="grey"/>
   </g>
   <g id="cell15">
  <circle cx="1144.13" cy="1206.56" r="9.96219" stroke-width="0.5" stroke="black" fill="grey"/>
  <circle cx="1144.13" cy="1206.56" r="6.04443" stroke-width="0.5" stroke="grey" fill="grey"/>
   </g>
   <g id="cell16">
  <circle cx="1112.59" cy="1689.14" r="10.4716" stroke-width="0.5" stroke="black" fill="grey"/>
  <circle cx="1112.59" cy="1689.14" r="6.31198" stroke-width="0.5" stroke="grey" fill="grey"/>
   </g>
   <g id="cell90">
  <circle cx="822.334" cy="856.247" r="10.3231" stroke-width="0.5" stroke="black" fill="red"/>
  <circle cx="822.334" cy="856.247" r="6.23927" stroke-width="0.5" stroke="red" fill="red"/>
   </g>
   <g id="cell86">
  <circle cx="1536.92" cy="1003.71" r="10.307" stroke-width="0.5" stroke="black" fill="red"/>
  <circle cx="1536.92" cy="1003.71" r="6.231" stroke-width="0.5" stroke="red" fill="red"/>
   </g>
   <g id="cell22">
  <circle cx="1122.18" cy="1707.23" r="9.994" stroke-width="0.5" stroke="black" fill="grey"/>
  <circle cx="1122.18" cy="1707.23" r="6.06316" stroke-width="0.5" stroke="grey" fill="grey"/>
   </g>
   <g id="cell23">
  <circle cx="1236.36" cy="1329.15" r="8.79802" stroke-width="0.5" stroke="black" fill="grey"/>
  <circle cx="1236.36" cy="1329.15" r="5.3325" stroke-width="0.5" stroke="grey" fill="grey"/>
   </g>
   <g id="cell24">
  <circle cx="1166.43" cy="1256.01" r="10.1629" stroke-width="0.5" stroke="black" fill="grey"/>
  <circle cx="1166.43" cy="1256.01" r="6.15478" stroke-width="0.5" stroke="grey" fill="grey"/>
   </g>
   <g id="cell25">
  <circle cx="1163.85" cy="727.205" r="10.4528" stroke-width="0.5" stroke="black" fill="red"/>
  <circle cx="1163.85" cy="727.205" r="6.30304" stroke-width="0.5" stroke="red" fill="red"/>
   </g>
   <g id="cell26">
  <circle cx="1697" cy="1213.46" r="10.3928" stroke-width="0.5" stroke="black" fill="grey"/>
  <circle cx="1697" cy="1213.46" r="6.27405" stroke-width="0.5" stroke="grey" fill="grey"/>
   </g>
   <g id="cell27">
  <circle cx="900.43" cy="552.598" r="8.38439" stroke-width="0.5" stroke="black" fill="grey"/>
  <circle cx="900.43" cy="552.598" r="5.04164" stroke-width="0.5" stroke="grey" fill="grey"/>
   </g>
   <g id="cell28">
  <circle cx="36.9811" cy="1974.29" r="10.3131" stroke-width="0.5" stroke="black" fill="red"/>
  <circle cx="36.9811" cy="1974.29" r="6.23456" stroke-width="0.5" stroke="red" fill="red"/>
   </g>
   <g id="cell29">
  <circle cx="1060.04" cy="1065.38" r="10.5208" stroke-width="0.5" stroke="black" fill="grey"/>
  <circle cx="1060.04" cy="1065.38" r="6.33411" stroke-width="0.5" stroke="grey" fill="grey"/>
   </g>
   <g id="cell30">
  <circle cx="957.238" cy="517.572" r="10.4941" stroke-width="0.5" stroke="black" fill="grey"/>
  <circle cx="957.238" cy="517.572" r="6.32239" stroke-width="0.5" stroke="grey" fill="grey"/>
   </g>
   <g id="cell31">
  <circle cx="1175.27" cy="1352.66" r="8.60547" stroke-width="0.5" stroke="black" fill="grey"/>
  <circle cx="1175.27" cy="1352.66" r="5.19779" stroke-width="0.5" stroke="grey" fill="grey"/>
   </g>
   <g id="cell109">
  <circle cx="778.36" cy="931.123" r="10.1039" stroke-width="0.5" stroke="black" fill="red"/>
  <circle cx="778.36" cy="931.123" r="6.12397" stroke-width="0.5" stroke="red" fill="red"/>
   </g>
   <g id="cell33">
  <circle cx="1685.51" cy="1172.35" r="10.012" stroke-width="0.5" stroke="black" fill="grey"/>
  <circle cx="1685.51" cy="1172.35" r="6.07302" stroke-width="0.5" stroke="grey" fill="grey"/>
   </g>
   <g id="cell34">
  <circle cx="1112.36" cy="1649.92" r="10.5254" stroke-width="0.5" stroke="black" fill="grey"/>
  <circle cx="1112.36" cy="1649.92" r="6.33605" stroke-width="0.5" stroke="grey" fill="grey"/>
   </g>
   <g id="cell35">
  <circle cx="728.872" cy="909.892" r="8.39661" stroke-width="0.5" stroke="black" fill="red"/>
  <circle cx="728.872" cy="909.892" r="5.04633" stroke-width="0.5" stroke="red" fill="red"/>
   </g>
   <g id="cell36">
  <circle cx="1759.97" cy="244.451" r="9.56321" stroke-width="0.5" stroke="black" fill="red"/>
  <circle cx="1759.97" cy="244.451" r="5.81271" stroke-width="0.5" stroke="red" fill="red"/>
   </g>
   <g id="cell37">
  <circle cx="816.966" cy="909.009" r="10.1051" stroke-width="0.5" stroke="black" fill="red"/>
  <circle cx="816.966" cy="909.009" r="6.12437" stroke-width="0.5" stroke="red" fill="red"/>
   </g>
   <g id="cell38">
  <circle cx="1595.91" cy="1030.7" r="10.4794" stroke-width="0.5" stroke="black" fill="red"/>
  <circle cx="1595.91" cy="1030.7" r="6.31545" stroke-width="0.5" stroke="red" fill="red"/>
   </g>
   <g id="cell39">
  <circle cx="1118.75" cy="1174.17" r="9.97716" stroke-width="0.5" stroke="black" fill="grey"/>
  <circle cx="1118.75" cy="1174.17" r="6.05356" stroke-width="0.5" stroke="grey" fill="grey"/>
   </g>
   <g id="cell40">
  <circle cx="1773.55" cy="1292.34" r="10.4398" stroke-width="0.5" stroke="black" fill="grey"/>
  <circle cx="1773.55" cy="1292.34" r="6.29685" stroke-width="0.5" stroke="grey" fill="grey"/>
   </g>
   <g id="cell41">
  <circle cx="1208.97" cy="1459.95" r="8.40215" stroke-width="0.5" stroke="black" fill="grey"/>
  <circle cx="1208.97" cy="1459.95" r="5.04833" stroke-width="0.5" stroke="grey" fill="grey"/>
   </g>
   <g id="cell42">
  <circle cx="1108.79" cy="1146.01" r="10.5062" stroke-width="0.5" stroke="black" fill="grey"/>
  <circle cx="1108.79" cy="1146.01" r="6.32766" stroke-width="0.5" stroke="grey" fill="grey"/>
   </g>
   <g id="cell43">
  <circle cx="1067.6" cy="1086.77" r="8.39369" stroke-width="0.5" stroke="black" fill="grey"/>
  <circle cx="1067.6" cy="1086.77" r="5.04523" stroke-width="0.5" stroke="grey" fill="grey"/>
   </g>
   <g id="cell44">
  <circle cx="1689.66" cy="1193.64" r="10.032" stroke-width="0.5" stroke="black" fill="grey"/>
  <circle cx="1689.66" cy="1193.64" r="6.08337" stroke-width="0.5" stroke="grey" fill="grey"/>
   </g>
   <g id="cell45">
  <circle cx="1513.13" cy="1062.19" r="10.1492" stroke-width="0.5" stroke="black" fill="red"/>
  <circle cx="1513.13" cy="1062.19" r="6.14759" stroke-width="0.5" stroke="red" fill="red"/>
   </g>
   <g id="cell101">
  <circle cx="1657.17" cy="276.023" r="8.68398" stroke-width="0.5" stroke="black" fill="red"/>
  <circle cx="1657.17" cy="276.023" r="5.2525" stroke-width="0.5" stroke="red" fill="red"/>
   </g>
   <g id="cell47">
  <circle cx="1638.44" cy="137.783" r="10.1471" stroke-width="0.5" stroke="black" fill="red"/>
  <circle cx="1638.44" cy="137.783" r="6.14695" stroke-width="0.5" stroke="red" fill="red"/>
   </g>
   <g id="cell48">
  <circle cx="1193.9" cy="1775.16" r="10.2704" stroke-width="0.5" stroke="black" fill="grey"/>
  <circle cx="1193.9" cy="1775.16" r="6.21226" stroke-width="0.5" stroke="grey" fill="grey"/>
   </g>
   <g id="cell49">
  <circle cx="90.3666" cy="1971.68" r="10.2067" stroke-width="0.5" stroke="black" fill="red"/>
  <circle cx="90.3666" cy="1971.68" r="6.17907" stroke-width="0.5" stroke="red" fill="red"/>
   </g>
   <g id="cell50">
  <circle cx="1139.2" cy="1169.27" r="10.2172" stroke-width="0.5" stroke="black" fill="grey"/>
  <circle cx="1139.2" cy="1169.27" r="6.18478" stroke-width="0.5" stroke="grey" fill="grey"/>
   </g>
   <g id="cell51">
  <circle cx="1128.1" cy="1279.6" r="8.36665" stroke-width="0.5" stroke="black" fill="grey"/>
  <circle cx="1128.1" cy="1279.6" r="5.03444" stroke-width="0.5" stroke="grey" fill="grey"/>
   </g>
   <g id="cell52">
  <circle cx="872.653" cy="619.479" r="10.3914" stroke-width="0.5" stroke="black" fill="grey"/>
  <circle cx="872.653" cy="619.479" r="6.27366" stroke-width="0.5" stroke="grey" fill="grey"/>
   </g>
   <g id="cell87">
  <circle cx="902.657" cy="619.321" r="10.4971" stroke-width="0.5" stroke="black" fill="grey"/>
  <circle cx="902.657" cy="619.321" r="6.32371" stroke-width="0.5" stroke="grey" fill="grey"/>
   </g>
   <g id="cell54">
  <circle cx="871.006" cy="532.025" r="10.3061" stroke-width="0.5" stroke="black" fill="grey"/>
  <circle cx="871.006" cy="532.025" r="6.2307" stroke-width="0.5" stroke="grey" fill="grey"/>
   </g>
   <g id="cell55">
  <circle cx="873.326" cy="574.91" r="10.5108" stroke-width="0.5" stroke="black" fill="grey"/>
  <circle cx="873.326" cy="574.91" r="6.32979" stroke-width="0.5" stroke="grey" fill="grey"/>
   </g>
   <g id="cell56">
  <circle cx="170.26" cy="1912.4" r="9.15925" stroke-width="0.5" stroke="black" fill="red"/>
  <circle cx="170.26" cy="1912.4" r="5.56566" stroke-width="0.5" stroke="red" fill="red"/>
   </g>
   <g id="cell57">
  <circle cx="1681.76" cy="282.202" r="10.0614" stroke-width="0.5" stroke="black" fill="red"/>
  <circle cx="1681.76" cy="282.202" r="6.10022" stroke-width="0.5" stroke="red" fill="red"/>
   </g>
   <g id="cell58">
  <circle cx="693.438" cy="857.422" r="10.5039" stroke-width="0.5" stroke="black" fill="red"/>
  <circle cx="693.438" cy="857.422" r="6.32657" stroke-width="0.5" stroke="red" fill="red"/>
   </g>
   <g id="cell59">
  <circle cx="1729.33" cy="320.397" r="9.76782" stroke-width="0.5" stroke="black" fill="red"/>
  <circle cx="1729.33" cy="320.397" r="5.93466" stroke-width="0.5" stroke="red" fill="red"/>
   </g>
   <g id="cell60">
  <circle cx="1735.88" cy="1199.18" r="9.81718" stroke-width="0.5" stroke="black" fill="grey"/>
  <circle cx="1735.88" cy="1199.18" r="5.96246" stroke-width="0.5" stroke="grey" fill="grey"/>
   </g>
   <g id="cell61">
  <circle cx="1106.83" cy="1787.93" r="8.78199" stroke-width="0.5" stroke="black" fill="grey"/>
  <circle cx="1106.83" cy="1787.93" r="5.32624" stroke-width="0.5" stroke="grey" fill="grey"/>
   </g>
   <g id="cell62">
  <circle cx="1150.39" cy="1661.04" r="8.38818" stroke-width="0.5" stroke="black" fill="grey"/>
  <circle cx="1150.39" cy="1661.04" r="5.04312" stroke-width="0.5" stroke="grey" fill="grey"/>
   </g>
   <g id="cell63">
  <circle cx="1649.77" cy="344.662" r="10.4132" stroke-width="0.5" stroke="black" fill="red"/>
  <circle cx="1649.77" cy="344.662" r="6.28441" stroke-width="0.5" stroke="red" fill="red"/>
   </g>
   <g id="cell64">
  <circle cx="1704.61" cy="1151.15" r="10.4829" stroke-width="0.5" stroke="black" fill="grey"/>
  <circle cx="1704.61" cy="1151.15" r="6.31701" stroke-width="0.5" stroke="grey" fill="grey"/>
   </g>
   <g id="cell115">
  <circle cx="849.955" cy="543.03" r="9.29849" stroke-width="0.5" stroke="black" fill="grey"/>
  <circle cx="849.955" cy="543.03" r="5.65408" stroke-width="0.5" stroke="grey" fill="grey"/>
   </g>
   <g id="cell66">
  <circle cx="792.823" cy="946.325" r="8.40418" stroke-width="0.5" stroke="black" fill="red"/>
  <circle cx="792.823" cy="946.325" r="5.04904" stroke-width="0.5" stroke="red" fill="red"/>
   </g>
   <g id="cell67">
  <circle cx="1585.42" cy="1046.63" r="8.40341" stroke-width="0.5" stroke="black" fill="red"/>
  <circle cx="1585.42" cy="1046.63" r="5.04878" stroke-width="0.5" stroke="red" fill="red"/>
   </g>
   <g id="cell68">
  <circle cx="828.474" cy="1059.38" r="10.453" stroke-width="0.5" stroke="black" fill="red"/>
  <circle cx="828.474" cy="1059.38" r="6.30309" stroke-width="0.5" stroke="red" fill="red"/>
   </g>
   <g id="cell69">
  <circle cx="823.927" cy="560.804" r="8.40075" stroke-width="0.5" stroke="black" fill="grey"/>
  <circle cx="823.927" cy="560.804" r="5.04785" stroke-width="0.5" stroke="grey" fill="grey"/>
   </g>
   <g id="cell70">
  <circle cx="1669.24" cy="1238.07" r="8.83473" stroke-width="0.5" stroke="black" fill="grey"/>
  <circle cx="1669.24" cy="1238.07" r="5.35824" stroke-width="0.5" stroke="grey" fill="grey"/>
   </g>
   <g id="cell71">
  <circle cx="1021.05" cy="1061.23" r="8.38263" stroke-width="0.5" stroke="black" fill="grey"/>
  <circle cx="1021.05" cy="1061.23" r="5.04096" stroke-width="0.5" stroke="grey" fill="grey"/>
   </g>
   <g id="cell72">
  <circle cx="1144.03" cy="737.446" r="8.37999" stroke-width="0.5" stroke="black" fill="red"/>
  <circle cx="1144.03" cy="737.446" r="5.03991" stroke-width="0.5" stroke="red" fill="red"/>
   </g>
   <g id="cell73">
  <circle cx="1197.51" cy="1208.36" r="8.78381" stroke-width="0.5" stroke="black" fill="grey"/>
  <circle cx="1197.51" cy="1208.36" r="5.32702" stroke-width="0.5" stroke="grey" fill="grey"/>
   </g>
   <g id="cell74">
  <circle cx="1091.83" cy="1080.31" r="10.5088" stroke-width="0.5" stroke="black" fill="grey"/>
  <circle cx="1091.83" cy="1080.31" r="6.32882" stroke-width="0.5" stroke="grey" fill="grey"/>
   </g>
   <g id="cell75">
  <circle cx="1708.13" cy="1192.39" r="8.37898" stroke-width="0.5" stroke="black" fill="grey"/>
  <circle cx="1708.13" cy="1192.39" r="5.03951" stroke-width="0.5" stroke="grey" fill="grey"/>
   </g>
   <g id="cell76">
  <circle cx="1637.66" cy="232.749" r="10.4978" stroke-width="0.5" stroke="black" fill="red"/>
  <circle cx="1637.66" cy="232.749" r="6.32393" stroke-width="0.5" stroke="red" fill="red"/>
   </g>
   <g id="cell77">
  <circle cx="64.7695" cy="1925.18" r="8.36538" stroke-width="0.5" stroke="black" fill="red"/>
  <circle cx="64.7695" cy="1925.18" r="5.0339" stroke-width="0.5" stroke="red" fill="red"/>
   </g>
   <g id="cell128">
  <circle cx="1719.14" cy="1213.13" r="8.37898" stroke-width="0.5" stroke="black" fill="grey"/>
  <circle cx="1719.14" cy="1213.13" r="5.03951" stroke-width="0.5" stroke="grey" fill="grey"/>
   </g>
   <g id="cell79">
  <circle cx="1194.75" cy="1264.29" r="9.16187" stroke-width="0.5" stroke="black" fill="grey"/>
  <circle cx="1194.75" cy="1264.29" r="5.56651" stroke-width="0.5" stroke="grey" fill="grey"/>
   </g>
   <g id="cell80">
  <circle cx="793.742" cy="503.947" r="9.8646" stroke-width="0.5" stroke="black" fill="grey"/>
  <circle cx="793.742" cy="503.947" r="5.98873" stroke-width="0.5" stroke="grey" fill="grey"/>
   </g>
   <g id="cell81">
  <circle cx="1224.86" cy="1259.31" r="10.2812" stroke-width="0.5" stroke="black" fill="grey"/>
  <circle cx="1224.86" cy="1259.31" r="6.21755" stroke-width="0.5" stroke="grey" fill="grey"/>
   </g>
   <g id="cell82">
  <circle cx="1617.11" cy="1120" r="10.4298" stroke-width="0.5" stroke="black" fill="red"/>
  <circle cx="1617.11" cy="1120" r="6.29218" stroke-width="0.5" stroke="red" fill="red"/>
   </g>
   <g id="cell83">
  <circle cx="918.349" cy="573.085" r="10.0643" stroke-width="0.5" stroke="black" fill="grey"/>
  <circle cx="918.349" cy="573.085" r="6.10116" stroke-width="0.5" stroke="grey" fill="grey"/>
   </g>
   <g id="cell84">
  <circle cx="1131.2" cy="1640.97" r="8.72688" stroke-width="0.5" stroke="black" fill="grey"/>
  <circle cx="1131.2" cy="1640.97" r="5.28095" stroke-width="0.5" stroke="grey" fill="grey"/>
   </g>
   <g id="cell85">
  <circle cx="1187.45" cy="1727.62" r="10.4944" stroke-width="0.5" stroke="black" fill="grey"/>
  <circle cx="1187.45" cy="1727.62" r="6.32247" stroke-width="0.5" stroke="grey" fill="grey"/>
   </g>
   <g id="cell88">
  <circle cx="1673.18" cy="1184.72" r="8.41042" stroke-width="0.5" stroke="black" fill="grey"/>
  <circle cx="1673.18" cy="1184.72" r="5.05106" stroke-width="0.5" stroke="grey" fill="grey"/>
   </g>
   <g id="cell89">
  <circle cx="1786.62" cy="290.78" r="8.45365" stroke-width="0.5" stroke="black" fill="red"/>
  <circle cx="1786.62" cy="290.78" r="5.08231" stroke-width="0.5" stroke="red" fill="red"/>
   </g>
   <g id="cell91">
  <circle cx="1153.41" cy="1237.02" r="9.40791" stroke-width="0.5" stroke="black" fill="grey"/>
  <circle cx="1153.41" cy="1237.02" r="5.71916" stroke-width="0.5" stroke="grey" fill="grey"/>
   </g>
   <g id="cell92">
  <circle cx="1680.96" cy="1371.96" r="9.19789" stroke-width="0.5" stroke="black" fill="grey"/>
  <circle cx="1680.96" cy="1371.96" r="5.58954" stroke-width="0.5" stroke="grey" fill="grey"/>
   </g>
   <g id="cell93">
  <circle cx="850.249" cy="572.154" r="8.88562" stroke-width="0.5" stroke="black" fill="grey"/>
  <circle cx="850.249" cy="572.154" r="5.38884" stroke-width="0.5" stroke="grey" fill="grey"/>
   </g>
   <g id="cell94">
  <circle cx="868.628" cy="554.589" r="9.96164" stroke-width="0.5" stroke="black" fill="grey"/>
  <circle cx="868.628" cy="554.589" r="6.04425" stroke-width="0.5" stroke="grey" fill="grey"/>
   </g>
   <g id="cell95">
  <circle cx="1164.02" cy="1775.64" r="10.2975" stroke-width="0.5" stroke="black" fill="grey"/>
  <circle cx="1164.02" cy="1775.64" r="6.2263" stroke-width="0.5" stroke="grey" fill="grey"/>
   </g>
   <g id="cell96">
  <circle cx="1650.36" cy="295.977" r="10.3723" stroke-width="0.5" stroke="black" fill="red"/>
  <circle cx="1650.36" cy="295.977" r="6.26428" stroke-width="0.5" stroke="red" fill="red"/>
   </g>
   <g id="cell97">
  <circle cx="1159.37" cy="1335.69" r="9.97955" stroke-width="0.5" stroke="black" fill="grey"/>
  <circle cx="1159.37" cy="1335.69" r="6.05437" stroke-width="0.5" stroke="grey" fill="grey"/>
   </g>
   <g id="cell98">
  <circle cx="142.578" cy="1897.93" r="9.90353" stroke-width="0.5" stroke="black" fill="red"/>
  <circle cx="142.578" cy="1897.93" r="6.01151" stroke-width="0.5" stroke="red" fill="red"/>
   </g>
   <g id="cell99">
  <circle cx="1674.33" cy="146.776" r="8.40773" stroke-width="0.5" stroke="black" fill="red"/>
  <circle cx="1674.33" cy="146.776" r="5.05022" stroke-width="0.5" stroke="red" fill="red"/>
   </g>
   <g id="cell100">
  <circle cx="28.5162" cy="1958.62" r="10.2693" stroke-width="0.5" stroke="black" fill="red"/>
  <circle cx="28.5162" cy="1958.62" r="6.21189" stroke-width="0.5" stroke="red" fill="red"/>
   </g>
   <g id="cell102">
  <circle cx="1751" cy="1136.75" r="8.40629" stroke-width="0.5" stroke="black" fill="grey"/>
  <circle cx="1751" cy="1136.75" r="5.04975" stroke-width="0.5" stroke="grey" fill="grey"/>
   </g>
   <g id="cell103">
  <circle cx="77.9621" cy="1988.26" r="10.2491" stroke-width="0.5" stroke="black" fill="red"/>
  <circle cx="77.9621" cy="1988.26" r="6.20148" stroke-width="0.5" stroke="red" fill="red"/>
   </g>
   <g id="cell104">
  <circle cx="790.049" cy="919.422" r="8.92222" stroke-width="0.5" stroke="black" fill="red"/>
  <circle cx="790.049" cy="919.422" r="5.41414" stroke-width="0.5" stroke="red" fill="red"/>
   </g>
   <g id="cell105">
  <circle cx="1658.25" cy="1153.15" r="10.1326" stroke-width="0.5" stroke="black" fill="grey"/>
  <circle cx="1658.25" cy="1153.15" r="6.13934" stroke-width="0.5" stroke="grey" fill="grey"/>
   </g>
   <g id="cell106">
  <circle cx="1141.84" cy="1188.46" r="8.40556" stroke-width="0.5" stroke="black" fill="grey"/>
  <circle cx="1141.84" cy="1188.46" r="5.04951" stroke-width="0.5" stroke="grey" fill="grey"/>
   </g>
   <g id="cell107">
  <circle cx="1147.61" cy="1151.68" r="8.50553" stroke-width="0.5" stroke="black" fill="grey"/>
  <circle cx="1147.61" cy="1151.68" r="5.12337" stroke-width="0.5" stroke="grey" fill="grey"/>
   </g>
   <g id="cell108">
  <circle cx="1140.4" cy="1678.15" r="9.43601" stroke-width="0.5" stroke="black" fill="grey"/>
  <circle cx="1140.4" cy="1678.15" r="5.73739" stroke-width="0.5" stroke="grey" fill="grey"/>
   </g>
   <g id="cell110">
  <circle cx="1563.68" cy="1017.63" r="8.56962" stroke-width="0.5" stroke="black" fill="red"/>
  <circle cx="1563.68" cy="1017.63" r="5.17177" stroke-width="0.5" stroke="red" fill="red"/>
   </g>
   <g id="cell111">
  <circle cx="1213.14" cy="1365.06" r="9.64237" stroke-width="0.5" stroke="black" fill="grey"/>
  <circle cx="1213.14" cy="1365.06" r="5.86098" stroke-width="0.5" stroke="grey" fill="grey"/>
   </g>
   <g id="cell112">
  <circle cx="1231.92" cy="1288.59" r="9.91866" stroke-width="0.5" stroke="black" fill="grey"/>
  <circle cx="1231.92" cy="1288.59" r="6.02111" stroke-width="0.5" stroke="grey" fill="grey"/>
   </g>
   <g id="cell113">
  <circle cx="1227.62" cy="1434.73" r="9.99236" stroke-width="0.5" stroke="black" fill="grey"/>
  <circle cx="1227.62" cy="1434.73" r="6.06257" stroke-width="0.5" stroke="grey" fill="grey"/>
   </g>
   <g id="cell114">
  <circle cx="1698.48" cy="370.001" r="9.6678" stroke-width="0.5" stroke="black" fill="red"/>
  <circle cx="1698.48" cy="370.001" r="5.87625" stroke-width="0.5" stroke="red" fill="red"/>
   </g>
   <g id="cell116">
  <circle cx="1658.06" cy="1203.3" r="9.39846" stroke-width="0.5" stroke="black" fill="grey"/>
  <circle cx="1658.06" cy="1203.3" r="5.71578" stroke-width="0.5" stroke="grey" fill="grey"/>
   </g>
   <g id="cell117">
  <circle cx="1711.65" cy="1225.22" r="8.39749" stroke-width="0.5" stroke="black" fill="grey"/>
  <circle cx="1711.65" cy="1225.22" r="5.04665" stroke-width="0.5" stroke="grey" fill="grey"/>
   </g>
   <g id="cell118">
  <circle cx="700.038" cy="936.979" r="8.39661" stroke-width="0.5" stroke="black" fill="red"/>
  <circle cx="700.038" cy="936.979" r="5.04633" stroke-width="0.5" stroke="red" fill="red"/>
   </g>
   <g id="cell119">
  <circle cx="1050.79" cy="1118.16" r="8.39369" stroke-width="0.5" stroke="black" fill="grey"/>
  <circle cx="1050.79" cy="1118.16" r="5.04523" stroke-width="0.5" stroke="grey" fill="grey"/>
   </g>
   <g id="cell120">
  <circle cx="771.431" cy="1051.39" r="8.39303" stroke-width="0.5" stroke="black" fill="red"/>
  <circle cx="771.431" cy="1051.39" r="5.045" stroke-width="0.5" stroke="red" fill="red"/>
   </g>
   <g id="cell121">
  <circle cx="1164.69" cy="1612.42" r="8.38818" stroke-width="0.5" stroke="black" fill="grey"/>
  <circle cx="1164.69" cy="1612.42" r="5.04312" stroke-width="0.5" stroke="grey" fill="grey"/>
   </g>
   <g id="cell122">
  <circle cx="1192.99" cy="1181.46" r="8.38648" stroke-width="0.5" stroke="black" fill="grey"/>
  <circle cx="1192.99" cy="1181.46" r="5.0425" stroke-width="0.5" stroke="grey" fill="grey"/>
   </g>
   <g id="cell123">
  <circle cx="858.589" cy="653.082" r="8.3853" stroke-width="0.5" stroke="black" fill="grey"/>
  <circle cx="858.589" cy="653.082" r="5.04198" stroke-width="0.5" stroke="grey" fill="grey"/>
   </g>
   <g id="cell124">
  <circle cx="1122.28" cy="1779.7" r="8.51719" stroke-width="0.5" stroke="black" fill="grey"/>
  <circle cx="1122.28" cy="1779.7" r="5.13966" stroke-width="0.5" stroke="grey" fill="grey"/>
   </g>
   <g id="cell125">
  <circle cx="909.982" cy="537.426" r="9.02298" stroke-width="0.5" stroke="black" fill="grey"/>
  <circle cx="909.982" cy="537.426" r="5.48433" stroke-width="0.5" stroke="grey" fill="grey"/>
   </g>
   <g id="cell126">
  <circle cx="1033.87" cy="1079.39" r="8.38263" stroke-width="0.5" stroke="black" fill="grey"/>
  <circle cx="1033.87" cy="1079.39" r="5.04096" stroke-width="0.5" stroke="grey" fill="grey"/>
   </g>
   <g id="cell127">
  <circle cx="1123.75" cy="744.016" r="8.37999" stroke-width="0.5" stroke="black" fill="red"/>
  <circle cx="1123.75" cy="744.016" r="5.03991" stroke-width="0.5" stroke="red" fill="red"/>
   </g>
   <g id="cell129">
  <circle cx="1144.57" cy="1289.36" r="8.36665" stroke-width="0.5" stroke="black" fill="grey"/>
  <circle cx="1144.57" cy="1289.36" r="5.03444" stroke-width="0.5" stroke="grey" fill="grey"/>
   </g>
   <g id="cell130">
  <circle cx="44.7525" cy="1929.41" r="8.36538" stroke-width="0.5" stroke="black" fill="red"/>
  <circle cx="44.7525" cy="1929.41" r="5.0339" stroke-width="0.5" stroke="red" fill="red"/>
   </g>
  </g>
 </g>
  <rect x="1750" y="2070" width="200" height="20" stroke-width="4" stroke="rgb(255,255,255)" fill="rgb(0,0,0)"/>
  <text x="1762.5" y="2057.5"
   font-family="Arial" font-size="50" fill="black" >
   200 &#956;m
  </text>
  <text x="50" y="2090"
   font-family="Arial" font-size="37.5" fill="black" >
   0 days, 0 hours, 1 minutes, and 44.0168 seconds
  </text>
  <rect x="0" y="140" width="2000" height="2000" stroke-width="4" stroke="rgb(0,0,0)" fill="none"/>
</svg>
