<?xml version="1.0" encoding="UTF-8" standalone="no"?>
<!-- Created with PhysiCell (http://PhysiCell.MathCancer.org/) -->
<svg 
 xmlns:dc="http://purl.org/dc/elements/1.1/" 
 xmlns:cc="http://creativecommons.org/ns#" 
 xmlns:rdf="http://www.w3.org/1999/02/22-rdf-syntax-ns#" 
 xmlns:svg="http://www.w3.org/2000/svg" 
 xmlns="http://www.w3.org/2000/svg" 
 version="1.1" 
 width="2000" 
 height="2140" 
 id="svg2">
  <rect x="0" y="0" width="2000" height="2140" stroke-width="4" stroke="white" fill="white"/>
  <text x="25" y="60"
   font-family="Arial" font-size="50" fill="black" >
   Current time: 0 days, 22 hours, and 0.00 minutes, z = 0.00 &#956;m
  </text>
  <text x="25" y="115"
   font-family="Arial" font-size="47.5" fill="black" >
   174 agents
  </text>
 <g id="tissue" 
    transform="translate(0,2140) scale(1,-1)">
  <g id="ECM">
  </g>
  <g id="cells">
   <g id="cell104">
  <circle cx="764.445" cy="1643.08" r="8.72438" stroke-width="0.5" stroke="black" fill="grey"/>
  <circle cx="764.445" cy="1643.08" r="5.28015" stroke-width="0.5" stroke="grey" fill="grey"/>
   </g>
   <g id="cell1">
  <circle cx="1730.22" cy="1234.02" r="8.38682" stroke-width="0.5" stroke="black" fill="grey"/>
  <circle cx="1730.22" cy="1234.02" r="5.04258" stroke-width="0.5" stroke="grey" fill="grey"/>
   </g>
   <g id="cell2">
  <circle cx="1095.49" cy="1674.54" r="8.36592" stroke-width="0.5" stroke="black" fill="grey"/>
  <circle cx="1095.49" cy="1674.54" r="5.03403" stroke-width="0.5" stroke="grey" fill="grey"/>
   </g>
   <g id="cell3">
  <circle cx="1292.79" cy="1296.94" r="10.1066" stroke-width="0.5" stroke="black" fill="grey"/>
  <circle cx="1292.79" cy="1296.94" r="6.12487" stroke-width="0.5" stroke="grey" fill="grey"/>
   </g>
   <g id="cell4">
  <circle cx="899.943" cy="542.238" r="8.38028" stroke-width="0.5" stroke="black" fill="grey"/>
  <circle cx="899.943" cy="542.238" r="5.03997" stroke-width="0.5" stroke="grey" fill="grey"/>
   </g>
   <g id="cell5">
  <circle cx="121.186" cy="1935.25" r="10.4156" stroke-width="0.5" stroke="black" fill="grey"/>
  <circle cx="121.186" cy="1935.25" r="6.2851" stroke-width="0.5" stroke="grey" fill="grey"/>
   </g>
   <g id="cell6">
  <circle cx="689.317" cy="974.643" r="9.43903" stroke-width="0.5" stroke="black" fill="grey"/>
  <circle cx="689.317" cy="974.643" r="5.73844" stroke-width="0.5" stroke="grey" fill="grey"/>
   </g>
   <g id="cell7">
  <circle cx="1606.96" cy="1027.26" r="9.72368" stroke-width="0.5" stroke="black" fill="grey"/>
  <circle cx="1606.96" cy="1027.26" r="5.90794" stroke-width="0.5" stroke="grey" fill="grey"/>
   </g>
   <g id="cell8">
  <circle cx="1157.47" cy="753.893" r="9.87926" stroke-width="0.5" stroke="black" fill="grey"/>
  <circle cx="1157.47" cy="753.893" r="5.99857" stroke-width="0.5" stroke="grey" fill="grey"/>
   </g>
   <g id="cell9">
  <circle cx="1681.05" cy="151.352" r="8.38823" stroke-width="0.5" stroke="black" fill="grey"/>
  <circle cx="1681.05" cy="151.352" r="5.04313" stroke-width="0.5" stroke="grey" fill="grey"/>
   </g>
   <g id="cell10">
  <circle cx="184.244" cy="1305.27" r="8.36972" stroke-width="0.5" stroke="black" fill="grey"/>
  <circle cx="184.244" cy="1305.27" r="5.03563" stroke-width="0.5" stroke="grey" fill="grey"/>
   </g>
   <g id="cell11">
  <circle cx="740.821" cy="1685.05" r="10.1729" stroke-width="0.5" stroke="black" fill="grey"/>
  <circle cx="740.821" cy="1685.05" r="6.16074" stroke-width="0.5" stroke="grey" fill="grey"/>
   </g>
   <g id="cell12">
  <circle cx="1532.52" cy="295.479" r="8.45882" stroke-width="0.5" stroke="black" fill="grey"/>
  <circle cx="1532.52" cy="295.479" r="5.09474" stroke-width="0.5" stroke="grey" fill="grey"/>
   </g>
   <g id="cell13">
  <circle cx="1737.9" cy="1946.34" r="8.40494" stroke-width="0.5" stroke="black" fill="grey"/>
  <circle cx="1737.9" cy="1946.34" r="5.04929" stroke-width="0.5" stroke="grey" fill="grey"/>
   </g>
   <g id="cell14">
  <circle cx="1534.87" cy="1589.22" r="8.38532" stroke-width="0.5" stroke="black" fill="grey"/>
  <circle cx="1534.87" cy="1589.22" r="5.04199" stroke-width="0.5" stroke="grey" fill="grey"/>
   </g>
   <g id="cell15">
  <circle cx="1036.34" cy="1506.67" r="10.5117" stroke-width="0.5" stroke="black" fill="grey"/>
  <circle cx="1036.34" cy="1506.67" r="6.33005" stroke-width="0.5" stroke="grey" fill="grey"/>
   </g>
   <g id="cell16">
  <circle cx="225.543" cy="1464.67" r="9.88166" stroke-width="0.5" stroke="black" fill="grey"/>
  <circle cx="225.543" cy="1464.67" r="5.99942" stroke-width="0.5" stroke="grey" fill="grey"/>
   </g>
   <g id="cell17">
  <circle cx="1118.41" cy="310.558" r="8.38373" stroke-width="0.5" stroke="black" fill="grey"/>
  <circle cx="1118.41" cy="310.558" r="5.04136" stroke-width="0.5" stroke="grey" fill="grey"/>
   </g>
   <g id="cell18">
  <circle cx="1855.92" cy="1531.73" r="10.3294" stroke-width="0.5" stroke="black" fill="grey"/>
  <circle cx="1855.92" cy="1531.73" r="6.24279" stroke-width="0.5" stroke="grey" fill="grey"/>
   </g>
   <g id="cell19">
  <circle cx="192.627" cy="848.121" r="8.38291" stroke-width="0.5" stroke="black" fill="grey"/>
  <circle cx="192.627" cy="848.121" r="5.04103" stroke-width="0.5" stroke="grey" fill="grey"/>
   </g>
   <g id="cell20">
  <circle cx="537.627" cy="407.587" r="7.95373" stroke-width="0.5" stroke="black" fill="grey"/>
  <circle cx="537.627" cy="407.587" r="4.84835" stroke-width="0.5" stroke="black" fill="black"/>
   </g>
   <g id="cell21">
  <circle cx="1457.11" cy="917.371" r="9.49083" stroke-width="0.5" stroke="black" fill="grey"/>
  <circle cx="1457.11" cy="917.371" r="5.77228" stroke-width="0.5" stroke="grey" fill="grey"/>
   </g>
   <g id="cell22">
  <circle cx="1100.15" cy="217.297" r="9.53191" stroke-width="0.5" stroke="black" fill="grey"/>
  <circle cx="1100.15" cy="217.297" r="5.79446" stroke-width="0.5" stroke="grey" fill="grey"/>
   </g>
   <g id="cell23">
  <circle cx="664.065" cy="1246.32" r="9.58723" stroke-width="0.5" stroke="black" fill="grey"/>
  <circle cx="664.065" cy="1246.32" r="5.82823" stroke-width="0.5" stroke="grey" fill="grey"/>
   </g>
   <g id="cell24">
  <circle cx="1244.47" cy="469.027" r="8.4009" stroke-width="0.5" stroke="black" fill="grey"/>
  <circle cx="1244.47" cy="469.027" r="5.04788" stroke-width="0.5" stroke="grey" fill="grey"/>
   </g>
   <g id="cell25">
  <circle cx="727.569" cy="1877.08" r="8.37742" stroke-width="0.5" stroke="black" fill="grey"/>
  <circle cx="727.569" cy="1877.08" r="5.03881" stroke-width="0.5" stroke="grey" fill="grey"/>
   </g>
   <g id="cell26">
  <circle cx="1372.86" cy="893.305" r="8.40403" stroke-width="0.5" stroke="black" fill="grey"/>
  <circle cx="1372.86" cy="893.305" r="5.04898" stroke-width="0.5" stroke="grey" fill="grey"/>
   </g>
   <g id="cell27">
  <circle cx="1218.56" cy="866.883" r="10.4862" stroke-width="0.5" stroke="black" fill="grey"/>
  <circle cx="1218.56" cy="866.883" r="6.31853" stroke-width="0.5" stroke="grey" fill="grey"/>
   </g>
   <g id="cell28">
  <circle cx="1376.26" cy="180.557" r="9.94023" stroke-width="0.5" stroke="black" fill="grey"/>
  <circle cx="1376.26" cy="180.557" r="6.03281" stroke-width="0.5" stroke="grey" fill="grey"/>
   </g>
   <g id="cell29">
  <circle cx="1913.43" cy="1282.09" r="9.81781" stroke-width="0.5" stroke="black" fill="grey"/>
  <circle cx="1913.43" cy="1282.09" r="5.96268" stroke-width="0.5" stroke="grey" fill="grey"/>
   </g>
   <g id="cell30">
  <circle cx="1380.1" cy="334.945" r="8.39874" stroke-width="0.5" stroke="black" fill="grey"/>
  <circle cx="1380.1" cy="334.945" r="5.04711" stroke-width="0.5" stroke="grey" fill="grey"/>
   </g>
   <g id="cell31">
  <circle cx="746.751" cy="296.979" r="8.40327" stroke-width="0.5" stroke="black" fill="grey"/>
  <circle cx="746.751" cy="296.979" r="5.04872" stroke-width="0.5" stroke="grey" fill="grey"/>
   </g>
   <g id="cell32">
  <circle cx="667.111" cy="1149.69" r="8.37742" stroke-width="0.5" stroke="black" fill="grey"/>
  <circle cx="667.111" cy="1149.69" r="5.03881" stroke-width="0.5" stroke="grey" fill="grey"/>
   </g>
   <g id="cell33">
  <circle cx="652.58" cy="1202.61" r="10.3053" stroke-width="0.5" stroke="black" fill="grey"/>
  <circle cx="652.58" cy="1202.61" r="6.23047" stroke-width="0.5" stroke="grey" fill="grey"/>
   </g>
   <g id="cell34">
  <circle cx="903.09" cy="1227.2" r="10.2076" stroke-width="0.5" stroke="black" fill="grey"/>
  <circle cx="903.09" cy="1227.2" r="6.1794" stroke-width="0.5" stroke="grey" fill="grey"/>
   </g>
   <g id="cell35">
  <circle cx="1875.81" cy="211.448" r="8.39316" stroke-width="0.5" stroke="black" fill="grey"/>
  <circle cx="1875.81" cy="211.448" r="5.04503" stroke-width="0.5" stroke="grey" fill="grey"/>
   </g>
   <g id="cell36">
  <circle cx="439.881" cy="1221.36" r="10.3138" stroke-width="0.5" stroke="black" fill="grey"/>
  <circle cx="439.881" cy="1221.36" r="6.23479" stroke-width="0.5" stroke="grey" fill="grey"/>
   </g>
   <g id="cell37">
  <circle cx="1958.47" cy="1304.88" r="10.4489" stroke-width="0.5" stroke="black" fill="grey"/>
  <circle cx="1958.47" cy="1304.88" r="6.30112" stroke-width="0.5" stroke="grey" fill="grey"/>
   </g>
   <g id="cell38">
  <circle cx="527.709" cy="842.395" r="9.08138" stroke-width="0.5" stroke="black" fill="grey"/>
  <circle cx="527.709" cy="842.395" r="5.51675" stroke-width="0.5" stroke="grey" fill="grey"/>
   </g>
   <g id="cell39">
  <circle cx="942.718" cy="464.866" r="8.40683" stroke-width="0.5" stroke="black" fill="grey"/>
  <circle cx="942.718" cy="464.866" r="5.04993" stroke-width="0.5" stroke="grey" fill="grey"/>
   </g>
   <g id="cell40">
  <circle cx="363.776" cy="629.28" r="8.3937" stroke-width="0.5" stroke="black" fill="grey"/>
  <circle cx="363.776" cy="629.28" r="5.04523" stroke-width="0.5" stroke="grey" fill="grey"/>
   </g>
   <g id="cell41">
  <circle cx="1371" cy="1330.86" r="10.5254" stroke-width="0.5" stroke="black" fill="grey"/>
  <circle cx="1371" cy="1330.86" r="6.33607" stroke-width="0.5" stroke="grey" fill="grey"/>
   </g>
   <g id="cell42">
  <circle cx="270.665" cy="1586.03" r="9.59039" stroke-width="0.5" stroke="black" fill="grey"/>
  <circle cx="270.665" cy="1586.03" r="5.82934" stroke-width="0.5" stroke="grey" fill="grey"/>
   </g>
   <g id="cell43">
  <circle cx="1849.53" cy="679.706" r="8.38682" stroke-width="0.5" stroke="black" fill="grey"/>
  <circle cx="1849.53" cy="679.706" r="5.04258" stroke-width="0.5" stroke="grey" fill="grey"/>
   </g>
   <g id="cell44">
  <circle cx="1589.8" cy="10.6334" r="8.65127" stroke-width="0.5" stroke="black" fill="grey"/>
  <circle cx="1589.8" cy="10.6334" r="5.2272" stroke-width="0.5" stroke="grey" fill="grey"/>
   </g>
   <g id="cell45">
  <circle cx="1223.1" cy="1710.6" r="8.4009" stroke-width="0.5" stroke="black" fill="grey"/>
  <circle cx="1223.1" cy="1710.6" r="5.04788" stroke-width="0.5" stroke="grey" fill="grey"/>
   </g>
   <g id="cell46">
  <circle cx="176.676" cy="1985.24" r="8.39874" stroke-width="0.5" stroke="black" fill="grey"/>
  <circle cx="176.676" cy="1985.24" r="5.04711" stroke-width="0.5" stroke="grey" fill="grey"/>
   </g>
   <g id="cell47">
  <circle cx="1714.81" cy="947.72" r="8.38454" stroke-width="0.5" stroke="black" fill="grey"/>
  <circle cx="1714.81" cy="947.72" r="5.04168" stroke-width="0.5" stroke="grey" fill="grey"/>
   </g>
   <g id="cell48">
  <circle cx="1953.07" cy="171.908" r="8.3995" stroke-width="0.5" stroke="black" fill="grey"/>
  <circle cx="1953.07" cy="171.908" r="5.04738" stroke-width="0.5" stroke="grey" fill="grey"/>
   </g>
   <g id="cell49">
  <circle cx="937.063" cy="1421.7" r="9.41008" stroke-width="0.5" stroke="black" fill="grey"/>
  <circle cx="937.063" cy="1421.7" r="5.71981" stroke-width="0.5" stroke="grey" fill="grey"/>
   </g>
   <g id="cell50">
  <circle cx="44.1792" cy="864.919" r="9.87982" stroke-width="0.5" stroke="black" fill="red"/>
  <circle cx="44.1792" cy="864.919" r="5.99877" stroke-width="0.5" stroke="red" fill="red"/>
   </g>
   <g id="cell51">
  <circle cx="1991.99" cy="255.741" r="8.87754" stroke-width="0.5" stroke="black" fill="red"/>
  <circle cx="1991.99" cy="255.741" r="5.38598" stroke-width="0.5" stroke="red" fill="red"/>
   </g>
   <g id="cell52">
  <circle cx="582.644" cy="932.19" r="10.1838" stroke-width="0.5" stroke="black" fill="red"/>
  <circle cx="582.644" cy="932.19" r="6.16681" stroke-width="0.5" stroke="red" fill="red"/>
   </g>
   <g id="cell53">
  <circle cx="1365.58" cy="628.758" r="8.40774" stroke-width="0.5" stroke="black" fill="red"/>
  <circle cx="1365.58" cy="628.758" r="5.05022" stroke-width="0.5" stroke="red" fill="red"/>
   </g>
   <g id="cell99">
  <circle cx="1017.58" cy="1982.67" r="8.87892" stroke-width="0.5" stroke="black" fill="red"/>
  <circle cx="1017.58" cy="1982.67" r="5.38649" stroke-width="0.5" stroke="red" fill="red"/>
   </g>
   <g id="cell55">
  <circle cx="370.416" cy="1335.44" r="10.4955" stroke-width="0.5" stroke="black" fill="red"/>
  <circle cx="370.416" cy="1335.44" r="6.32275" stroke-width="0.5" stroke="red" fill="red"/>
   </g>
   <g id="cell56">
  <circle cx="1082.31" cy="1642.36" r="8.36722" stroke-width="0.5" stroke="black" fill="red"/>
  <circle cx="1082.31" cy="1642.36" r="5.03458" stroke-width="0.5" stroke="red" fill="red"/>
   </g>
   <g id="cell57">
  <circle cx="969.943" cy="1063.61" r="8.3926" stroke-width="0.5" stroke="black" fill="red"/>
  <circle cx="969.943" cy="1063.61" r="5.04482" stroke-width="0.5" stroke="red" fill="red"/>
   </g>
   <g id="cell58">
  <circle cx="170.859" cy="1838.94" r="1.85791" stroke-width="0.5" stroke="black" fill="red"/>
  <circle cx="170.859" cy="1838.94" r="1.8349" stroke-width="0.5" stroke="black" fill="black"/>
   </g>
   <g id="cell59">
  <circle cx="147.822" cy="1847.24" r="10.3811" stroke-width="0.5" stroke="black" fill="red"/>
  <circle cx="147.822" cy="1847.24" r="6.26814" stroke-width="0.5" stroke="red" fill="red"/>
   </g>
   <g id="cell60">
  <circle cx="616.143" cy="67.7556" r="8.38823" stroke-width="0.5" stroke="black" fill="red"/>
  <circle cx="616.143" cy="67.7556" r="5.04313" stroke-width="0.5" stroke="red" fill="red"/>
   </g>
   <g id="cell61">
  <circle cx="1646.33" cy="212.11" r="8.4045" stroke-width="0.5" stroke="black" fill="red"/>
  <circle cx="1646.33" cy="212.11" r="5.04914" stroke-width="0.5" stroke="red" fill="red"/>
   </g>
   <g id="cell62">
  <circle cx="1408.83" cy="1715.5" r="10.4925" stroke-width="0.5" stroke="black" fill="red"/>
  <circle cx="1408.83" cy="1715.5" r="6.32139" stroke-width="0.5" stroke="red" fill="red"/>
   </g>
   <g id="cell63">
  <circle cx="560.165" cy="346.109" r="9.55716" stroke-width="0.5" stroke="black" fill="red"/>
  <circle cx="560.165" cy="346.109" r="5.8106" stroke-width="0.5" stroke="red" fill="red"/>
   </g>
   <g id="cell64">
  <circle cx="1171.85" cy="1048.26" r="8.40683" stroke-width="0.5" stroke="black" fill="red"/>
  <circle cx="1171.85" cy="1048.26" r="5.04993" stroke-width="0.5" stroke="red" fill="red"/>
   </g>
   <g id="cell65">
  <circle cx="327.044" cy="1575.42" r="8.37935" stroke-width="0.5" stroke="black" fill="red"/>
  <circle cx="327.044" cy="1575.42" r="5.0396" stroke-width="0.5" stroke="red" fill="red"/>
   </g>
   <g id="cell66">
  <circle cx="74.3391" cy="245.35" r="10.4862" stroke-width="0.5" stroke="black" fill="red"/>
  <circle cx="74.3391" cy="245.35" r="6.31853" stroke-width="0.5" stroke="red" fill="red"/>
   </g>
   <g id="cell67">
  <circle cx="1097.48" cy="571.056" r="9.69151" stroke-width="0.5" stroke="black" fill="red"/>
  <circle cx="1097.48" cy="571.056" r="5.89065" stroke-width="0.5" stroke="red" fill="red"/>
   </g>
   <g id="cell68">
  <circle cx="1456.37" cy="564.709" r="9.85928" stroke-width="0.5" stroke="black" fill="red"/>
  <circle cx="1456.37" cy="564.709" r="5.98696" stroke-width="0.5" stroke="red" fill="red"/>
   </g>
   <g id="cell69">
  <circle cx="895.357" cy="516.518" r="8.66221" stroke-width="0.5" stroke="black" fill="red"/>
  <circle cx="895.357" cy="516.518" r="5.24421" stroke-width="0.5" stroke="red" fill="red"/>
   </g>
   <g id="cell70">
  <circle cx="1172.9" cy="797.493" r="8.37208" stroke-width="0.5" stroke="black" fill="red"/>
  <circle cx="1172.9" cy="797.493" r="5.03661" stroke-width="0.5" stroke="red" fill="red"/>
   </g>
   <g id="cell71">
  <circle cx="1778.71" cy="1157.98" r="10.0592" stroke-width="0.5" stroke="black" fill="red"/>
  <circle cx="1778.71" cy="1157.98" r="6.09944" stroke-width="0.5" stroke="red" fill="red"/>
   </g>
   <g id="cell72">
  <circle cx="522.502" cy="1806.12" r="8.64729" stroke-width="0.5" stroke="black" fill="red"/>
  <circle cx="522.502" cy="1806.12" r="5.22601" stroke-width="0.5" stroke="red" fill="red"/>
   </g>
   <g id="cell73">
  <circle cx="1362.99" cy="854.546" r="9.55694" stroke-width="0.5" stroke="black" fill="red"/>
  <circle cx="1362.99" cy="854.546" r="5.81052" stroke-width="0.5" stroke="red" fill="red"/>
   </g>
   <g id="cell74">
  <circle cx="1690.84" cy="1942.83" r="10.2965" stroke-width="0.5" stroke="black" fill="red"/>
  <circle cx="1690.84" cy="1942.83" r="6.22597" stroke-width="0.5" stroke="red" fill="red"/>
   </g>
   <g id="cell75">
  <circle cx="269.703" cy="570.451" r="2.28703" stroke-width="0.5" stroke="black" fill="red"/>
  <circle cx="269.703" cy="570.451" r="2.20897" stroke-width="0.5" stroke="black" fill="black"/>
   </g>
   <g id="cell76">
  <circle cx="1650.75" cy="834.574" r="10.0269" stroke-width="0.5" stroke="black" fill="red"/>
  <circle cx="1650.75" cy="834.574" r="6.08167" stroke-width="0.5" stroke="red" fill="red"/>
   </g>
   <g id="cell77">
  <circle cx="1329.3" cy="1765.99" r="8.4065" stroke-width="0.5" stroke="black" fill="red"/>
  <circle cx="1329.3" cy="1765.99" r="5.04982" stroke-width="0.5" stroke="red" fill="red"/>
   </g>
   <g id="cell78">
  <circle cx="1112.41" cy="590.301" r="8.39834" stroke-width="0.5" stroke="black" fill="red"/>
  <circle cx="1112.41" cy="590.301" r="5.04696" stroke-width="0.5" stroke="red" fill="red"/>
   </g>
   <g id="cell79">
  <circle cx="1969.88" cy="1402.45" r="8.40472" stroke-width="0.5" stroke="black" fill="red"/>
  <circle cx="1969.88" cy="1402.45" r="5.04922" stroke-width="0.5" stroke="red" fill="red"/>
   </g>
   <g id="cell80">
  <circle cx="1431.92" cy="1330" r="8.55502" stroke-width="0.5" stroke="black" fill="red"/>
  <circle cx="1431.92" cy="1330" r="5.16625" stroke-width="0.5" stroke="red" fill="red"/>
   </g>
   <g id="cell81">
  <circle cx="1037.36" cy="1927.26" r="8.38373" stroke-width="0.5" stroke="black" fill="red"/>
  <circle cx="1037.36" cy="1927.26" r="5.04136" stroke-width="0.5" stroke="red" fill="red"/>
   </g>
   <g id="cell82">
  <circle cx="1312.98" cy="795.885" r="9.81679" stroke-width="0.5" stroke="black" fill="red"/>
  <circle cx="1312.98" cy="795.885" r="5.96233" stroke-width="0.5" stroke="red" fill="red"/>
   </g>
   <g id="cell83">
  <circle cx="1277.79" cy="1202" r="8.99588" stroke-width="0.5" stroke="black" fill="red"/>
  <circle cx="1277.79" cy="1202" r="5.46384" stroke-width="0.5" stroke="red" fill="red"/>
   </g>
   <g id="cell84">
  <circle cx="59.3596" cy="912.178" r="8.41304" stroke-width="0.5" stroke="black" fill="red"/>
  <circle cx="59.3596" cy="912.178" r="5.05892" stroke-width="0.5" stroke="red" fill="red"/>
   </g>
   <g id="cell85">
  <circle cx="1402.32" cy="1339.7" r="8.39834" stroke-width="0.5" stroke="black" fill="red"/>
  <circle cx="1402.32" cy="1339.7" r="5.04696" stroke-width="0.5" stroke="red" fill="red"/>
   </g>
   <g id="cell86">
  <circle cx="614.291" cy="742.753" r="8.4085" stroke-width="0.5" stroke="black" fill="red"/>
  <circle cx="614.291" cy="742.753" r="5.05047" stroke-width="0.5" stroke="red" fill="red"/>
   </g>
   <g id="cell87">
  <circle cx="1520.75" cy="872.826" r="10.3545" stroke-width="0.5" stroke="black" fill="red"/>
  <circle cx="1520.75" cy="872.826" r="6.25485" stroke-width="0.5" stroke="red" fill="red"/>
   </g>
   <g id="cell88">
  <circle cx="185.462" cy="175.679" r="8.56869" stroke-width="0.5" stroke="black" fill="red"/>
  <circle cx="185.462" cy="175.679" r="5.17142" stroke-width="0.5" stroke="red" fill="red"/>
   </g>
   <g id="cell89">
  <circle cx="204.602" cy="1059.46" r="10.1471" stroke-width="0.5" stroke="black" fill="red"/>
  <circle cx="204.602" cy="1059.46" r="6.14695" stroke-width="0.5" stroke="red" fill="red"/>
   </g>
   <g id="cell134">
  <circle cx="1803.61" cy="1152.14" r="8.40378" stroke-width="0.5" stroke="black" fill="red"/>
  <circle cx="1803.61" cy="1152.14" r="5.0489" stroke-width="0.5" stroke="red" fill="red"/>
   </g>
   <g id="cell91">
  <circle cx="28.833" cy="1306.32" r="1.34721" stroke-width="0.5" stroke="black" fill="red"/>
  <circle cx="28.833" cy="1306.32" r="1.33735" stroke-width="0.5" stroke="black" fill="black"/>
   </g>
   <g id="cell177">
  <circle cx="1100.61" cy="1640.31" r="8.36722" stroke-width="0.5" stroke="black" fill="red"/>
  <circle cx="1100.61" cy="1640.31" r="5.03458" stroke-width="0.5" stroke="red" fill="red"/>
   </g>
   <g id="cell93">
  <circle cx="399.397" cy="1753.57" r="10.0914" stroke-width="0.5" stroke="black" fill="red"/>
  <circle cx="399.397" cy="1753.57" r="6.11672" stroke-width="0.5" stroke="red" fill="red"/>
   </g>
   <g id="cell94">
  <circle cx="777.798" cy="156.677" r="9.18026" stroke-width="0.5" stroke="black" fill="red"/>
  <circle cx="777.798" cy="156.677" r="5.58291" stroke-width="0.5" stroke="red" fill="red"/>
   </g>
   <g id="cell95">
  <circle cx="1982.13" cy="1748.52" r="9.00217" stroke-width="0.5" stroke="black" fill="red"/>
  <circle cx="1982.13" cy="1748.52" r="5.46616" stroke-width="0.5" stroke="red" fill="red"/>
   </g>
   <g id="cell96">
  <circle cx="1593.02" cy="1074.96" r="2.22372" stroke-width="0.5" stroke="black" fill="red"/>
  <circle cx="1593.02" cy="1074.96" r="2.15712" stroke-width="0.5" stroke="black" fill="black"/>
   </g>
   <g id="cell97">
  <circle cx="865.437" cy="188.155" r="9.86542" stroke-width="0.5" stroke="black" fill="red"/>
  <circle cx="865.437" cy="188.155" r="5.98895" stroke-width="0.5" stroke="red" fill="red"/>
   </g>
   <g id="cell98">
  <circle cx="1883.36" cy="656.211" r="10.5333" stroke-width="0.5" stroke="black" fill="red"/>
  <circle cx="1883.36" cy="656.211" r="6.33948" stroke-width="0.5" stroke="red" fill="red"/>
   </g>
   <g id="cell101">
  <circle cx="425.364" cy="1279.61" r="10.0777" stroke-width="0.5" stroke="black" fill="grey"/>
  <circle cx="425.364" cy="1279.61" r="6.10897" stroke-width="0.5" stroke="grey" fill="grey"/>
   </g>
   <g id="cell102">
  <circle cx="613.703" cy="720.222" r="10.2506" stroke-width="0.5" stroke="black" fill="red"/>
  <circle cx="613.703" cy="720.222" r="6.20197" stroke-width="0.5" stroke="red" fill="red"/>
   </g>
   <g id="cell103">
  <circle cx="479.796" cy="1803.12" r="9.96112" stroke-width="0.5" stroke="black" fill="red"/>
  <circle cx="479.796" cy="1803.12" r="6.04408" stroke-width="0.5" stroke="red" fill="red"/>
   </g>
   <g id="cell105">
  <circle cx="735.057" cy="988.502" r="10.3295" stroke-width="0.5" stroke="black" fill="grey"/>
  <circle cx="735.057" cy="988.502" r="6.24282" stroke-width="0.5" stroke="grey" fill="grey"/>
   </g>
   <g id="cell106">
  <circle cx="269.384" cy="1563.78" r="9.7725" stroke-width="0.5" stroke="black" fill="grey"/>
  <circle cx="269.384" cy="1563.78" r="5.93631" stroke-width="0.5" stroke="grey" fill="grey"/>
   </g>
   <g id="cell107">
  <circle cx="1818.76" cy="1483.36" r="10.2602" stroke-width="0.5" stroke="black" fill="grey"/>
  <circle cx="1818.76" cy="1483.36" r="6.20705" stroke-width="0.5" stroke="grey" fill="grey"/>
   </g>
   <g id="cell108">
  <circle cx="617.391" cy="1196.55" r="10.2881" stroke-width="0.5" stroke="black" fill="grey"/>
  <circle cx="617.391" cy="1196.55" r="6.22156" stroke-width="0.5" stroke="grey" fill="grey"/>
   </g>
   <g id="cell109">
  <circle cx="1152.58" cy="228.39" r="8.40801" stroke-width="0.5" stroke="black" fill="grey"/>
  <circle cx="1152.58" cy="228.39" r="5.05031" stroke-width="0.5" stroke="grey" fill="grey"/>
   </g>
   <g id="cell110">
  <circle cx="1313.62" cy="1365.79" r="8.92412" stroke-width="0.5" stroke="black" fill="grey"/>
  <circle cx="1313.62" cy="1365.79" r="5.41479" stroke-width="0.5" stroke="grey" fill="grey"/>
   </g>
   <g id="cell111">
  <circle cx="1649.19" cy="1067.92" r="10.2696" stroke-width="0.5" stroke="black" fill="grey"/>
  <circle cx="1649.19" cy="1067.92" r="6.21199" stroke-width="0.5" stroke="grey" fill="grey"/>
   </g>
   <g id="cell112">
  <circle cx="195.725" cy="1078.49" r="9.88269" stroke-width="0.5" stroke="black" fill="red"/>
  <circle cx="195.725" cy="1078.49" r="5.99977" stroke-width="0.5" stroke="red" fill="red"/>
   </g>
   <g id="cell113">
  <circle cx="1327.4" cy="598.503" r="9.8618" stroke-width="0.5" stroke="black" fill="red"/>
  <circle cx="1327.4" cy="598.503" r="5.98784" stroke-width="0.5" stroke="red" fill="red"/>
   </g>
   <g id="cell114">
  <circle cx="903.478" cy="1263.64" r="9.69827" stroke-width="0.5" stroke="black" fill="grey"/>
  <circle cx="903.478" cy="1263.64" r="5.8931" stroke-width="0.5" stroke="grey" fill="grey"/>
   </g>
   <g id="cell115">
  <circle cx="1703.59" cy="1961.07" r="8.4076" stroke-width="0.5" stroke="black" fill="red"/>
  <circle cx="1703.59" cy="1961.07" r="5.05018" stroke-width="0.5" stroke="red" fill="red"/>
   </g>
   <g id="cell116">
  <circle cx="1874.3" cy="1346.5" r="10.1841" stroke-width="0.5" stroke="black" fill="grey"/>
  <circle cx="1874.3" cy="1346.5" r="6.16692" stroke-width="0.5" stroke="grey" fill="grey"/>
   </g>
   <g id="cell117">
  <circle cx="472.143" cy="854.775" r="9.23198" stroke-width="0.5" stroke="black" fill="grey"/>
  <circle cx="472.143" cy="854.775" r="5.61158" stroke-width="0.5" stroke="grey" fill="grey"/>
   </g>
   <g id="cell118">
  <circle cx="968.106" cy="446.609" r="8.40683" stroke-width="0.5" stroke="black" fill="grey"/>
  <circle cx="968.106" cy="446.609" r="5.04993" stroke-width="0.5" stroke="grey" fill="grey"/>
   </g>
   <g id="cell119">
  <circle cx="1146.49" cy="1035.4" r="8.40683" stroke-width="0.5" stroke="black" fill="red"/>
  <circle cx="1146.49" cy="1035.4" r="5.04993" stroke-width="0.5" stroke="red" fill="red"/>
   </g>
   <g id="cell120">
  <circle cx="444.834" cy="1796.49" r="9.88203" stroke-width="0.5" stroke="black" fill="red"/>
  <circle cx="444.834" cy="1796.49" r="5.99955" stroke-width="0.5" stroke="red" fill="red"/>
   </g>
   <g id="cell121">
  <circle cx="568.483" cy="911.294" r="8.40667" stroke-width="0.5" stroke="black" fill="red"/>
  <circle cx="568.483" cy="911.294" r="5.04987" stroke-width="0.5" stroke="red" fill="red"/>
   </g>
   <g id="cell122">
  <circle cx="1334.49" cy="1743.88" r="1.76759" stroke-width="0.5" stroke="black" fill="red"/>
  <circle cx="1334.49" cy="1743.88" r="1.71446" stroke-width="0.5" stroke="black" fill="black"/>
   </g>
   <g id="cell123">
  <circle cx="178.277" cy="1438.69" r="9.92172" stroke-width="0.5" stroke="black" fill="grey"/>
  <circle cx="178.277" cy="1438.69" r="6.02219" stroke-width="0.5" stroke="grey" fill="grey"/>
   </g>
   <g id="cell124">
  <circle cx="1972.42" cy="1711.43" r="10.045" stroke-width="0.5" stroke="black" fill="red"/>
  <circle cx="1972.42" cy="1711.43" r="6.0913" stroke-width="0.5" stroke="red" fill="red"/>
   </g>
   <g id="cell125">
  <circle cx="1270.71" cy="769.989" r="9.30259" stroke-width="0.5" stroke="black" fill="red"/>
  <circle cx="1270.71" cy="769.989" r="5.65556" stroke-width="0.5" stroke="red" fill="red"/>
   </g>
   <g id="cell126">
  <circle cx="1381.03" cy="195.447" r="2.01607" stroke-width="0.5" stroke="black" fill="grey"/>
  <circle cx="1381.03" cy="195.447" r="1.90805" stroke-width="0.5" stroke="black" fill="black"/>
   </g>
   <g id="cell127">
  <circle cx="1798.21" cy="1979.23" r="8.40494" stroke-width="0.5" stroke="black" fill="grey"/>
  <circle cx="1798.21" cy="1979.23" r="5.04929" stroke-width="0.5" stroke="grey" fill="grey"/>
   </g>
   <g id="cell128">
  <circle cx="1930.23" cy="1384.6" r="9.15608" stroke-width="0.5" stroke="black" fill="red"/>
  <circle cx="1930.23" cy="1384.6" r="5.56454" stroke-width="0.5" stroke="red" fill="red"/>
   </g>
   <g id="cell129">
  <circle cx="1675.61" cy="208.194" r="1.81733" stroke-width="0.5" stroke="black" fill="red"/>
  <circle cx="1675.61" cy="208.194" r="1.75514" stroke-width="0.5" stroke="black" fill="black"/>
   </g>
   <g id="cell130">
  <circle cx="1447.25" cy="596.26" r="9.97624" stroke-width="0.5" stroke="black" fill="red"/>
  <circle cx="1447.25" cy="596.26" r="6.05324" stroke-width="0.5" stroke="red" fill="red"/>
   </g>
   <g id="cell131">
  <circle cx="650.367" cy="1228.37" r="8.40403" stroke-width="0.5" stroke="black" fill="grey"/>
  <circle cx="650.367" cy="1228.37" r="5.04898" stroke-width="0.5" stroke="grey" fill="grey"/>
   </g>
   <g id="cell132">
  <circle cx="1367.1" cy="874.671" r="9.7208" stroke-width="0.5" stroke="black" fill="grey"/>
  <circle cx="1367.1" cy="874.671" r="5.90694" stroke-width="0.5" stroke="grey" fill="grey"/>
   </g>
   <g id="cell133">
  <circle cx="94.7884" cy="808.208" r="8.40378" stroke-width="0.5" stroke="black" fill="red"/>
  <circle cx="94.7884" cy="808.208" r="5.0489" stroke-width="0.5" stroke="red" fill="red"/>
   </g>
   <g id="cell135">
  <circle cx="706.485" cy="284.293" r="8.40327" stroke-width="0.5" stroke="black" fill="grey"/>
  <circle cx="706.485" cy="284.293" r="5.04872" stroke-width="0.5" stroke="grey" fill="grey"/>
   </g>
   <g id="cell136">
  <circle cx="1671.63" cy="871.237" r="8.40327" stroke-width="0.5" stroke="black" fill="red"/>
  <circle cx="1671.63" cy="871.237" r="5.04872" stroke-width="0.5" stroke="red" fill="red"/>
   </g>
   <g id="cell137">
  <circle cx="1128.84" cy="793.928" r="9.74469" stroke-width="0.5" stroke="black" fill="grey"/>
  <circle cx="1128.84" cy="793.928" r="5.92103" stroke-width="0.5" stroke="grey" fill="grey"/>
   </g>
   <g id="cell138">
  <circle cx="973.263" cy="1966.28" r="9.87885" stroke-width="0.5" stroke="black" fill="red"/>
  <circle cx="973.263" cy="1966.28" r="5.99842" stroke-width="0.5" stroke="red" fill="red"/>
   </g>
   <g id="cell139">
  <circle cx="582.149" cy="335.049" r="8.40244" stroke-width="0.5" stroke="black" fill="red"/>
  <circle cx="582.149" cy="335.049" r="5.04843" stroke-width="0.5" stroke="red" fill="red"/>
   </g>
   <g id="cell140">
  <circle cx="201.571" cy="186.067" r="9.19156" stroke-width="0.5" stroke="black" fill="red"/>
  <circle cx="201.571" cy="186.067" r="5.58731" stroke-width="0.5" stroke="red" fill="red"/>
   </g>
   <g id="cell141">
  <circle cx="1319.6" cy="879.926" r="8.40215" stroke-width="0.5" stroke="black" fill="red"/>
  <circle cx="1319.6" cy="879.926" r="5.04833" stroke-width="0.5" stroke="red" fill="red"/>
   </g>
   <g id="cell142">
  <circle cx="1977.45" cy="212.35" r="2.42437" stroke-width="0.5" stroke="black" fill="red"/>
  <circle cx="1977.45" cy="212.35" r="2.17412" stroke-width="0.5" stroke="black" fill="black"/>
   </g>
   <g id="cell143">
  <circle cx="1199.58" cy="439.174" r="9.76714" stroke-width="0.5" stroke="black" fill="grey"/>
  <circle cx="1199.58" cy="439.174" r="5.93441" stroke-width="0.5" stroke="grey" fill="grey"/>
   </g>
   <g id="cell144">
  <circle cx="1247.06" cy="1701.46" r="8.4009" stroke-width="0.5" stroke="black" fill="grey"/>
  <circle cx="1247.06" cy="1701.46" r="5.04788" stroke-width="0.5" stroke="grey" fill="grey"/>
   </g>
   <g id="cell145">
  <circle cx="1917.95" cy="133.149" r="8.3995" stroke-width="0.5" stroke="black" fill="grey"/>
  <circle cx="1917.95" cy="133.149" r="5.04738" stroke-width="0.5" stroke="grey" fill="grey"/>
   </g>
   <g id="cell146">
  <circle cx="570.393" cy="411.212" r="8.39913" stroke-width="0.5" stroke="black" fill="grey"/>
  <circle cx="570.393" cy="411.212" r="5.04725" stroke-width="0.5" stroke="grey" fill="grey"/>
   </g>
   <g id="cell147">
  <circle cx="1394.36" cy="376.289" r="8.44224" stroke-width="0.5" stroke="black" fill="grey"/>
  <circle cx="1394.36" cy="376.289" r="5.07844" stroke-width="0.5" stroke="grey" fill="grey"/>
   </g>
   <g id="cell148">
  <circle cx="1318.36" cy="1204.29" r="9.71685" stroke-width="0.5" stroke="black" fill="red"/>
  <circle cx="1318.36" cy="1204.29" r="5.90548" stroke-width="0.5" stroke="red" fill="red"/>
   </g>
   <g id="cell149">
  <circle cx="228.135" cy="1984.75" r="8.39874" stroke-width="0.5" stroke="black" fill="grey"/>
  <circle cx="228.135" cy="1984.75" r="5.04711" stroke-width="0.5" stroke="grey" fill="grey"/>
   </g>
   <g id="cell150">
  <circle cx="1102.94" cy="536.807" r="8.39874" stroke-width="0.5" stroke="black" fill="red"/>
  <circle cx="1102.94" cy="536.807" r="5.04711" stroke-width="0.5" stroke="red" fill="red"/>
   </g>
   <g id="cell151">
  <circle cx="1129.21" cy="560.848" r="8.75458" stroke-width="0.5" stroke="black" fill="red"/>
  <circle cx="1129.21" cy="560.848" r="5.30402" stroke-width="0.5" stroke="red" fill="red"/>
   </g>
   <g id="cell152">
  <circle cx="1390.04" cy="1370.18" r="8.99553" stroke-width="0.5" stroke="black" fill="red"/>
  <circle cx="1390.04" cy="1370.18" r="5.4637" stroke-width="0.5" stroke="red" fill="red"/>
   </g>
   <g id="cell153">
  <circle cx="1505.51" cy="921.067" r="8.39422" stroke-width="0.5" stroke="black" fill="grey"/>
  <circle cx="1505.51" cy="921.067" r="5.04543" stroke-width="0.5" stroke="grey" fill="grey"/>
   </g>
   <g id="cell154">
  <circle cx="341.47" cy="604.926" r="9.42747" stroke-width="0.5" stroke="black" fill="grey"/>
  <circle cx="341.47" cy="604.926" r="5.73415" stroke-width="0.5" stroke="grey" fill="grey"/>
   </g>
   <g id="cell155">
  <circle cx="1888.74" cy="216.767" r="9.42705" stroke-width="0.5" stroke="black" fill="grey"/>
  <circle cx="1888.74" cy="216.767" r="5.73398" stroke-width="0.5" stroke="grey" fill="grey"/>
   </g>
   <g id="cell156">
  <circle cx="37.9181" cy="918.895" r="8.39316" stroke-width="0.5" stroke="black" fill="red"/>
  <circle cx="37.9181" cy="918.895" r="5.04503" stroke-width="0.5" stroke="red" fill="red"/>
   </g>
   <g id="cell157">
  <circle cx="978.808" cy="1093.5" r="8.41249" stroke-width="0.5" stroke="black" fill="red"/>
  <circle cx="978.808" cy="1093.5" r="5.05871" stroke-width="0.5" stroke="red" fill="red"/>
   </g>
   <g id="cell158">
  <circle cx="759.674" cy="173.505" r="8.66706" stroke-width="0.5" stroke="black" fill="red"/>
  <circle cx="759.674" cy="173.505" r="5.24616" stroke-width="0.5" stroke="red" fill="red"/>
   </g>
   <g id="cell159">
  <circle cx="610.498" cy="51.8582" r="8.38823" stroke-width="0.5" stroke="black" fill="red"/>
  <circle cx="610.498" cy="51.8582" r="5.04313" stroke-width="0.5" stroke="red" fill="red"/>
   </g>
   <g id="cell160">
  <circle cx="1408.02" cy="1302.12" r="9.10409" stroke-width="0.5" stroke="black" fill="red"/>
  <circle cx="1408.02" cy="1302.12" r="5.53516" stroke-width="0.5" stroke="red" fill="red"/>
   </g>
   <g id="cell161">
  <circle cx="1646.58" cy="158.397" r="8.48862" stroke-width="0.5" stroke="black" fill="grey"/>
  <circle cx="1646.58" cy="158.397" r="5.11711" stroke-width="0.5" stroke="grey" fill="grey"/>
   </g>
   <g id="cell162">
  <circle cx="1537.59" cy="313.582" r="8.43184" stroke-width="0.5" stroke="black" fill="grey"/>
  <circle cx="1537.59" cy="313.582" r="5.0745" stroke-width="0.5" stroke="grey" fill="grey"/>
   </g>
   <g id="cell163">
  <circle cx="1725.03" cy="1219.52" r="8.38682" stroke-width="0.5" stroke="black" fill="grey"/>
  <circle cx="1725.03" cy="1219.52" r="5.04258" stroke-width="0.5" stroke="grey" fill="grey"/>
   </g>
   <g id="cell164">
  <circle cx="1845.1" cy="714.597" r="8.38682" stroke-width="0.5" stroke="black" fill="grey"/>
  <circle cx="1845.1" cy="714.597" r="5.04258" stroke-width="0.5" stroke="grey" fill="grey"/>
   </g>
   <g id="cell165">
  <circle cx="1511.84" cy="1560.69" r="8.38532" stroke-width="0.5" stroke="black" fill="grey"/>
  <circle cx="1511.84" cy="1560.69" r="5.04199" stroke-width="0.5" stroke="grey" fill="grey"/>
   </g>
   <g id="cell166">
  <circle cx="1693.76" cy="973.938" r="8.38454" stroke-width="0.5" stroke="black" fill="grey"/>
  <circle cx="1693.76" cy="973.938" r="5.04168" stroke-width="0.5" stroke="grey" fill="grey"/>
   </g>
   <g id="cell167">
  <circle cx="889.049" cy="490.494" r="8.38373" stroke-width="0.5" stroke="black" fill="red"/>
  <circle cx="889.049" cy="490.494" r="5.04136" stroke-width="0.5" stroke="red" fill="red"/>
   </g>
   <g id="cell168">
  <circle cx="1131.83" cy="289.802" r="8.38373" stroke-width="0.5" stroke="black" fill="grey"/>
  <circle cx="1131.83" cy="289.802" r="5.04136" stroke-width="0.5" stroke="grey" fill="grey"/>
   </g>
   <g id="cell169">
  <circle cx="1036.56" cy="1904.58" r="8.38373" stroke-width="0.5" stroke="black" fill="red"/>
  <circle cx="1036.56" cy="1904.58" r="5.04136" stroke-width="0.5" stroke="red" fill="red"/>
   </g>
   <g id="cell170">
  <circle cx="193.645" cy="871.703" r="8.38291" stroke-width="0.5" stroke="black" fill="grey"/>
  <circle cx="193.645" cy="871.703" r="5.04103" stroke-width="0.5" stroke="grey" fill="grey"/>
   </g>
   <g id="cell171">
  <circle cx="872.684" cy="525.691" r="8.38028" stroke-width="0.5" stroke="black" fill="grey"/>
  <circle cx="872.684" cy="525.691" r="5.03997" stroke-width="0.5" stroke="grey" fill="grey"/>
   </g>
   <g id="cell172">
  <circle cx="330.702" cy="1618.88" r="8.37935" stroke-width="0.5" stroke="black" fill="red"/>
  <circle cx="330.702" cy="1618.88" r="5.0396" stroke-width="0.5" stroke="red" fill="red"/>
   </g>
   <g id="cell173">
  <circle cx="665.825" cy="1168.77" r="8.37742" stroke-width="0.5" stroke="black" fill="grey"/>
  <circle cx="665.825" cy="1168.77" r="5.03881" stroke-width="0.5" stroke="grey" fill="grey"/>
   </g>
   <g id="cell174">
  <circle cx="708.709" cy="1892.41" r="8.54463" stroke-width="0.5" stroke="black" fill="grey"/>
  <circle cx="708.709" cy="1892.41" r="5.16206" stroke-width="0.5" stroke="grey" fill="grey"/>
   </g>
   <g id="cell175">
  <circle cx="1190.21" cy="793.369" r="8.37208" stroke-width="0.5" stroke="black" fill="red"/>
  <circle cx="1190.21" cy="793.369" r="5.03661" stroke-width="0.5" stroke="red" fill="red"/>
   </g>
   <g id="cell176">
  <circle cx="169.012" cy="1294.2" r="8.36972" stroke-width="0.5" stroke="black" fill="grey"/>
  <circle cx="169.012" cy="1294.2" r="5.03563" stroke-width="0.5" stroke="grey" fill="grey"/>
   </g>
   <g id="cell178">
  <circle cx="1085.78" cy="1664.96" r="8.36592" stroke-width="0.5" stroke="black" fill="grey"/>
  <circle cx="1085.78" cy="1664.96" r="5.03403" stroke-width="0.5" stroke="grey" fill="grey"/>
   </g>
  </g>
 </g>
  <rect x="1750" y="2070" width="200" height="20" stroke-width="4" stroke="rgb(255,255,255)" fill="rgb(0,0,0)"/>
  <text x="1762.5" y="2057.5"
   font-family="Arial" font-size="50" fill="black" >
   200 &#956;m
  </text>
  <text x="50" y="2090"
   font-family="Arial" font-size="37.5" fill="black" >
   0 days, 0 hours, 0 minutes, and 33.1045 seconds
  </text>
  <rect x="0" y="140" width="2000" height="2000" stroke-width="4" stroke="rgb(0,0,0)" fill="none"/>
</svg>
