<?xml version="1.0" encoding="UTF-8" standalone="no"?>
<!-- Created with PhysiCell (http://PhysiCell.MathCancer.org/) -->
<svg 
 xmlns:dc="http://purl.org/dc/elements/1.1/" 
 xmlns:cc="http://creativecommons.org/ns#" 
 xmlns:rdf="http://www.w3.org/1999/02/22-rdf-syntax-ns#" 
 xmlns:svg="http://www.w3.org/2000/svg" 
 xmlns="http://www.w3.org/2000/svg" 
 version="1.1" 
 width="2000" 
 height="2140" 
 id="svg2">
  <rect x="0" y="0" width="2000" height="2140" stroke-width="4" stroke="white" fill="white"/>
  <text x="25" y="60"
   font-family="Arial" font-size="50" fill="black" >
   Current time: 0 days, 1 hours, and 0.00 minutes, z = 0.00 &#956;m
  </text>
  <text x="25" y="115"
   font-family="Arial" font-size="47.5" fill="black" >
   100 agents
  </text>
 <g id="tissue" 
    transform="translate(0,2140) scale(1,-1)">
  <g id="ECM">
  </g>
  <g id="cells">
   <g id="cell0">
  <circle cx="1097.75" cy="1186.82" r="8.41271" stroke-width="0.5" stroke="black" fill="grey"/>
  <circle cx="1097.75" cy="1186.82" r="5.05167" stroke-width="0.5" stroke="grey" fill="grey"/>
   </g>
   <g id="cell1">
  <circle cx="1688.18" cy="1213.6" r="8.41271" stroke-width="0.5" stroke="black" fill="grey"/>
  <circle cx="1688.18" cy="1213.6" r="5.05167" stroke-width="0.5" stroke="grey" fill="grey"/>
   </g>
   <g id="cell2">
  <circle cx="1089.34" cy="1707.13" r="8.41271" stroke-width="0.5" stroke="black" fill="grey"/>
  <circle cx="1089.34" cy="1707.13" r="5.05167" stroke-width="0.5" stroke="grey" fill="grey"/>
   </g>
   <g id="cell3">
  <circle cx="1256.32" cy="1299.74" r="8.41271" stroke-width="0.5" stroke="black" fill="grey"/>
  <circle cx="1256.32" cy="1299.74" r="5.05167" stroke-width="0.5" stroke="grey" fill="grey"/>
   </g>
   <g id="cell4">
  <circle cx="864.676" cy="582.308" r="8.41271" stroke-width="0.5" stroke="black" fill="grey"/>
  <circle cx="864.676" cy="582.308" r="5.05167" stroke-width="0.5" stroke="grey" fill="grey"/>
   </g>
   <g id="cell5">
  <circle cx="117.006" cy="1919.66" r="8.41271" stroke-width="0.5" stroke="black" fill="grey"/>
  <circle cx="117.006" cy="1919.66" r="5.05167" stroke-width="0.5" stroke="grey" fill="grey"/>
   </g>
   <g id="cell6">
  <circle cx="763.734" cy="946.789" r="8.41271" stroke-width="0.5" stroke="black" fill="grey"/>
  <circle cx="763.734" cy="946.789" r="5.05167" stroke-width="0.5" stroke="grey" fill="grey"/>
   </g>
   <g id="cell7">
  <circle cx="1619.89" cy="1051.14" r="8.41271" stroke-width="0.5" stroke="black" fill="grey"/>
  <circle cx="1619.89" cy="1051.14" r="5.05167" stroke-width="0.5" stroke="grey" fill="grey"/>
   </g>
   <g id="cell8">
  <circle cx="1131.44" cy="761.436" r="8.41271" stroke-width="0.5" stroke="black" fill="grey"/>
  <circle cx="1131.44" cy="761.436" r="5.05167" stroke-width="0.5" stroke="grey" fill="grey"/>
   </g>
   <g id="cell9">
  <circle cx="1671.55" cy="154.818" r="8.41271" stroke-width="0.5" stroke="black" fill="grey"/>
  <circle cx="1671.55" cy="154.818" r="5.05167" stroke-width="0.5" stroke="grey" fill="grey"/>
   </g>
   <g id="cell10">
  <circle cx="185.411" cy="1297.16" r="8.41271" stroke-width="0.5" stroke="black" fill="grey"/>
  <circle cx="185.411" cy="1297.16" r="5.05167" stroke-width="0.5" stroke="grey" fill="grey"/>
   </g>
   <g id="cell11">
  <circle cx="741.566" cy="1654.32" r="8.41271" stroke-width="0.5" stroke="black" fill="grey"/>
  <circle cx="741.566" cy="1654.32" r="5.05167" stroke-width="0.5" stroke="grey" fill="grey"/>
   </g>
   <g id="cell12">
  <circle cx="1554.24" cy="280.128" r="8.41271" stroke-width="0.5" stroke="black" fill="grey"/>
  <circle cx="1554.24" cy="280.128" r="5.05167" stroke-width="0.5" stroke="grey" fill="grey"/>
   </g>
   <g id="cell13">
  <circle cx="1746.41" cy="1968.76" r="8.45606" stroke-width="0.5" stroke="black" fill="grey"/>
  <circle cx="1746.41" cy="1968.76" r="5.08296" stroke-width="0.5" stroke="grey" fill="grey"/>
   </g>
   <g id="cell14">
  <circle cx="1601.32" cy="1595.49" r="8.41271" stroke-width="0.5" stroke="black" fill="grey"/>
  <circle cx="1601.32" cy="1595.49" r="5.05167" stroke-width="0.5" stroke="grey" fill="grey"/>
   </g>
   <g id="cell15">
  <circle cx="1033.14" cy="1549.81" r="8.48289" stroke-width="0.5" stroke="black" fill="grey"/>
  <circle cx="1033.14" cy="1549.81" r="5.10317" stroke-width="0.5" stroke="grey" fill="grey"/>
   </g>
   <g id="cell16">
  <circle cx="240.272" cy="1442.26" r="8.41271" stroke-width="0.5" stroke="black" fill="grey"/>
  <circle cx="240.272" cy="1442.26" r="5.05167" stroke-width="0.5" stroke="grey" fill="grey"/>
   </g>
   <g id="cell17">
  <circle cx="1161.43" cy="292.098" r="8.41271" stroke-width="0.5" stroke="black" fill="grey"/>
  <circle cx="1161.43" cy="292.098" r="5.05167" stroke-width="0.5" stroke="grey" fill="grey"/>
   </g>
   <g id="cell18">
  <circle cx="1892.94" cy="1515.68" r="8.41271" stroke-width="0.5" stroke="black" fill="grey"/>
  <circle cx="1892.94" cy="1515.68" r="5.05167" stroke-width="0.5" stroke="grey" fill="grey"/>
   </g>
   <g id="cell19">
  <circle cx="203.327" cy="827.074" r="8.41271" stroke-width="0.5" stroke="black" fill="grey"/>
  <circle cx="203.327" cy="827.074" r="5.05167" stroke-width="0.5" stroke="grey" fill="grey"/>
   </g>
   <g id="cell20">
  <circle cx="530.097" cy="386.874" r="8.4325" stroke-width="0.5" stroke="black" fill="grey"/>
  <circle cx="530.097" cy="386.874" r="5.06552" stroke-width="0.5" stroke="grey" fill="grey"/>
   </g>
   <g id="cell21">
  <circle cx="1462.99" cy="904.481" r="8.41271" stroke-width="0.5" stroke="black" fill="grey"/>
  <circle cx="1462.99" cy="904.481" r="5.05167" stroke-width="0.5" stroke="grey" fill="grey"/>
   </g>
   <g id="cell22">
  <circle cx="1123.12" cy="269.015" r="8.45606" stroke-width="0.5" stroke="black" fill="grey"/>
  <circle cx="1123.12" cy="269.015" r="5.08296" stroke-width="0.5" stroke="grey" fill="grey"/>
   </g>
   <g id="cell23">
  <circle cx="641.612" cy="1243.73" r="8.41271" stroke-width="0.5" stroke="black" fill="grey"/>
  <circle cx="641.612" cy="1243.73" r="5.05167" stroke-width="0.5" stroke="grey" fill="grey"/>
   </g>
   <g id="cell24">
  <circle cx="1220.81" cy="438.995" r="8.41271" stroke-width="0.5" stroke="black" fill="grey"/>
  <circle cx="1220.81" cy="438.995" r="5.05167" stroke-width="0.5" stroke="grey" fill="grey"/>
   </g>
   <g id="cell25">
  <circle cx="768.42" cy="1876.32" r="8.41271" stroke-width="0.5" stroke="black" fill="grey"/>
  <circle cx="768.42" cy="1876.32" r="5.05167" stroke-width="0.5" stroke="grey" fill="grey"/>
   </g>
   <g id="cell26">
  <circle cx="1356.75" cy="906.457" r="8.41271" stroke-width="0.5" stroke="black" fill="grey"/>
  <circle cx="1356.75" cy="906.457" r="5.05167" stroke-width="0.5" stroke="grey" fill="grey"/>
   </g>
   <g id="cell27">
  <circle cx="1220.68" cy="888.702" r="8.41271" stroke-width="0.5" stroke="black" fill="grey"/>
  <circle cx="1220.68" cy="888.702" r="5.05167" stroke-width="0.5" stroke="grey" fill="grey"/>
   </g>
   <g id="cell28">
  <circle cx="1392.77" cy="203.451" r="8.41271" stroke-width="0.5" stroke="black" fill="grey"/>
  <circle cx="1392.77" cy="203.451" r="5.05167" stroke-width="0.5" stroke="grey" fill="grey"/>
   </g>
   <g id="cell29">
  <circle cx="1941.83" cy="1322.13" r="8.41271" stroke-width="0.5" stroke="black" fill="grey"/>
  <circle cx="1941.83" cy="1322.13" r="5.05167" stroke-width="0.5" stroke="grey" fill="grey"/>
   </g>
   <g id="cell30">
  <circle cx="1335.97" cy="331.528" r="8.61424" stroke-width="0.5" stroke="black" fill="grey"/>
  <circle cx="1335.97" cy="331.528" r="5.20061" stroke-width="0.5" stroke="grey" fill="grey"/>
   </g>
   <g id="cell31">
  <circle cx="695.853" cy="261.641" r="8.41271" stroke-width="0.5" stroke="black" fill="grey"/>
  <circle cx="695.853" cy="261.641" r="5.05167" stroke-width="0.5" stroke="grey" fill="grey"/>
   </g>
   <g id="cell32">
  <circle cx="631.476" cy="1210.96" r="5.95973" stroke-width="0.5" stroke="black" fill="grey"/>
  <circle cx="631.476" cy="1210.96" r="3.76978" stroke-width="0.5" stroke="black" fill="black"/>
   </g>
   <g id="cell33">
  <circle cx="658.539" cy="1152.79" r="8.4325" stroke-width="0.5" stroke="black" fill="grey"/>
  <circle cx="658.539" cy="1152.79" r="5.06552" stroke-width="0.5" stroke="grey" fill="grey"/>
   </g>
   <g id="cell34">
  <circle cx="868.583" cy="1264.91" r="8.41271" stroke-width="0.5" stroke="black" fill="grey"/>
  <circle cx="868.583" cy="1264.91" r="5.05167" stroke-width="0.5" stroke="grey" fill="grey"/>
   </g>
   <g id="cell35">
  <circle cx="1924.83" cy="214.679" r="8.41271" stroke-width="0.5" stroke="black" fill="grey"/>
  <circle cx="1924.83" cy="214.679" r="5.05167" stroke-width="0.5" stroke="grey" fill="grey"/>
   </g>
   <g id="cell36">
  <circle cx="413.666" cy="1256.67" r="8.41271" stroke-width="0.5" stroke="black" fill="grey"/>
  <circle cx="413.666" cy="1256.67" r="5.05167" stroke-width="0.5" stroke="grey" fill="grey"/>
   </g>
   <g id="cell37">
  <circle cx="1974" cy="1309.04" r="8.41271" stroke-width="0.5" stroke="black" fill="grey"/>
  <circle cx="1974" cy="1309.04" r="5.05167" stroke-width="0.5" stroke="grey" fill="grey"/>
   </g>
   <g id="cell38">
  <circle cx="511.96" cy="820.74" r="8.54454" stroke-width="0.5" stroke="black" fill="grey"/>
  <circle cx="511.96" cy="820.74" r="5.14947" stroke-width="0.5" stroke="grey" fill="grey"/>
   </g>
   <g id="cell39">
  <circle cx="953.105" cy="505.064" r="8.57856" stroke-width="0.5" stroke="black" fill="grey"/>
  <circle cx="953.105" cy="505.064" r="5.17461" stroke-width="0.5" stroke="grey" fill="grey"/>
   </g>
   <g id="cell40">
  <circle cx="291.828" cy="661.933" r="8.48289" stroke-width="0.5" stroke="black" fill="grey"/>
  <circle cx="291.828" cy="661.933" r="5.10317" stroke-width="0.5" stroke="grey" fill="grey"/>
   </g>
   <g id="cell41">
  <circle cx="1344.11" cy="1311.88" r="8.41271" stroke-width="0.5" stroke="black" fill="grey"/>
  <circle cx="1344.11" cy="1311.88" r="5.05167" stroke-width="0.5" stroke="grey" fill="grey"/>
   </g>
   <g id="cell42">
  <circle cx="257.006" cy="1544.58" r="8.41271" stroke-width="0.5" stroke="black" fill="grey"/>
  <circle cx="257.006" cy="1544.58" r="5.05167" stroke-width="0.5" stroke="grey" fill="grey"/>
   </g>
   <g id="cell43">
  <circle cx="1894.59" cy="744.2" r="8.41271" stroke-width="0.5" stroke="black" fill="grey"/>
  <circle cx="1894.59" cy="744.2" r="5.05167" stroke-width="0.5" stroke="grey" fill="grey"/>
   </g>
   <g id="cell44">
  <circle cx="1633.04" cy="35.4014" r="8.41271" stroke-width="0.5" stroke="black" fill="grey"/>
  <circle cx="1633.04" cy="35.4014" r="5.05167" stroke-width="0.5" stroke="grey" fill="grey"/>
   </g>
   <g id="cell45">
  <circle cx="1247.75" cy="1671.82" r="8.41271" stroke-width="0.5" stroke="black" fill="grey"/>
  <circle cx="1247.75" cy="1671.82" r="5.05167" stroke-width="0.5" stroke="grey" fill="grey"/>
   </g>
   <g id="cell46">
  <circle cx="190.02" cy="1949.47" r="8.41271" stroke-width="0.5" stroke="black" fill="grey"/>
  <circle cx="190.02" cy="1949.47" r="5.05167" stroke-width="0.5" stroke="grey" fill="grey"/>
   </g>
   <g id="cell47">
  <circle cx="1753.06" cy="924.378" r="8.41271" stroke-width="0.5" stroke="black" fill="grey"/>
  <circle cx="1753.06" cy="924.378" r="5.05167" stroke-width="0.5" stroke="grey" fill="grey"/>
   </g>
   <g id="cell48">
  <circle cx="1947.13" cy="119.665" r="8.41271" stroke-width="0.5" stroke="black" fill="grey"/>
  <circle cx="1947.13" cy="119.665" r="5.05167" stroke-width="0.5" stroke="grey" fill="grey"/>
   </g>
   <g id="cell49">
  <circle cx="909.65" cy="1483.55" r="8.41271" stroke-width="0.5" stroke="black" fill="grey"/>
  <circle cx="909.65" cy="1483.55" r="5.05167" stroke-width="0.5" stroke="grey" fill="grey"/>
   </g>
   <g id="cell50">
  <circle cx="75.7593" cy="880.842" r="8.41271" stroke-width="0.5" stroke="black" fill="red"/>
  <circle cx="75.7593" cy="880.842" r="5.05167" stroke-width="0.5" stroke="red" fill="red"/>
   </g>
   <g id="cell51">
  <circle cx="1947.93" cy="233.279" r="8.41271" stroke-width="0.5" stroke="black" fill="red"/>
  <circle cx="1947.93" cy="233.279" r="5.05167" stroke-width="0.5" stroke="red" fill="red"/>
   </g>
   <g id="cell52">
  <circle cx="588.847" cy="957.122" r="8.48289" stroke-width="0.5" stroke="black" fill="red"/>
  <circle cx="588.847" cy="957.122" r="5.10317" stroke-width="0.5" stroke="red" fill="red"/>
   </g>
   <g id="cell53">
  <circle cx="1379.71" cy="637.453" r="8.51252" stroke-width="0.5" stroke="black" fill="red"/>
  <circle cx="1379.71" cy="637.453" r="5.12552" stroke-width="0.5" stroke="red" fill="red"/>
   </g>
   <g id="cell54">
  <circle cx="843.324" cy="1843.78" r="8.41271" stroke-width="0.5" stroke="black" fill="red"/>
  <circle cx="843.324" cy="1843.78" r="5.05167" stroke-width="0.5" stroke="red" fill="red"/>
   </g>
   <g id="cell55">
  <circle cx="446.393" cy="1385.66" r="8.48289" stroke-width="0.5" stroke="black" fill="red"/>
  <circle cx="446.393" cy="1385.66" r="5.10317" stroke-width="0.5" stroke="red" fill="red"/>
   </g>
   <g id="cell56">
  <circle cx="1120.34" cy="1735.05" r="8.41271" stroke-width="0.5" stroke="black" fill="red"/>
  <circle cx="1120.34" cy="1735.05" r="5.05167" stroke-width="0.5" stroke="red" fill="red"/>
   </g>
   <g id="cell57">
  <circle cx="1026.05" cy="1042.35" r="8.41271" stroke-width="0.5" stroke="black" fill="red"/>
  <circle cx="1026.05" cy="1042.35" r="5.05167" stroke-width="0.5" stroke="red" fill="red"/>
   </g>
   <g id="cell58">
  <circle cx="181.333" cy="1843.77" r="8.41271" stroke-width="0.5" stroke="black" fill="red"/>
  <circle cx="181.333" cy="1843.77" r="5.05167" stroke-width="0.5" stroke="red" fill="red"/>
   </g>
   <g id="cell59">
  <circle cx="167.176" cy="1855.76" r="8.51252" stroke-width="0.5" stroke="black" fill="red"/>
  <circle cx="167.176" cy="1855.76" r="5.12552" stroke-width="0.5" stroke="red" fill="red"/>
   </g>
   <g id="cell60">
  <circle cx="646.3" cy="10.1473" r="8.41271" stroke-width="0.5" stroke="black" fill="red"/>
  <circle cx="646.3" cy="10.1473" r="5.05167" stroke-width="0.5" stroke="red" fill="red"/>
   </g>
   <g id="cell61">
  <circle cx="1678.29" cy="261.891" r="8.41271" stroke-width="0.5" stroke="black" fill="red"/>
  <circle cx="1678.29" cy="261.891" r="5.05167" stroke-width="0.5" stroke="red" fill="red"/>
   </g>
   <g id="cell62">
  <circle cx="1426.85" cy="1671.73" r="8.41271" stroke-width="0.5" stroke="black" fill="red"/>
  <circle cx="1426.85" cy="1671.73" r="5.05167" stroke-width="0.5" stroke="red" fill="red"/>
   </g>
   <g id="cell63">
  <circle cx="522.04" cy="359.209" r="8.41271" stroke-width="0.5" stroke="black" fill="red"/>
  <circle cx="522.04" cy="359.209" r="5.05167" stroke-width="0.5" stroke="red" fill="red"/>
   </g>
   <g id="cell64">
  <circle cx="1166.04" cy="1093.33" r="8.41271" stroke-width="0.5" stroke="black" fill="red"/>
  <circle cx="1166.04" cy="1093.33" r="5.05167" stroke-width="0.5" stroke="red" fill="red"/>
   </g>
   <g id="cell65">
  <circle cx="333.426" cy="1654.55" r="8.41271" stroke-width="0.5" stroke="black" fill="red"/>
  <circle cx="333.426" cy="1654.55" r="5.05167" stroke-width="0.5" stroke="red" fill="red"/>
   </g>
   <g id="cell66">
  <circle cx="13.0818" cy="291.437" r="8.41271" stroke-width="0.5" stroke="black" fill="red"/>
  <circle cx="13.0818" cy="291.437" r="5.05167" stroke-width="0.5" stroke="red" fill="red"/>
   </g>
   <g id="cell67">
  <circle cx="1152.5" cy="531.593" r="8.41271" stroke-width="0.5" stroke="black" fill="red"/>
  <circle cx="1152.5" cy="531.593" r="5.05167" stroke-width="0.5" stroke="red" fill="red"/>
   </g>
   <g id="cell68">
  <circle cx="1465.82" cy="576.828" r="8.57856" stroke-width="0.5" stroke="black" fill="red"/>
  <circle cx="1465.82" cy="576.828" r="5.17461" stroke-width="0.5" stroke="red" fill="red"/>
   </g>
   <g id="cell69">
  <circle cx="853.833" cy="504.013" r="8.51252" stroke-width="0.5" stroke="black" fill="red"/>
  <circle cx="853.833" cy="504.013" r="5.12552" stroke-width="0.5" stroke="red" fill="red"/>
   </g>
   <g id="cell70">
  <circle cx="1151.13" cy="787.462" r="8.41271" stroke-width="0.5" stroke="black" fill="red"/>
  <circle cx="1151.13" cy="787.462" r="5.05167" stroke-width="0.5" stroke="red" fill="red"/>
   </g>
   <g id="cell71">
  <circle cx="1797.73" cy="1137.9" r="8.65127" stroke-width="0.5" stroke="black" fill="red"/>
  <circle cx="1797.73" cy="1137.9" r="5.2272" stroke-width="0.5" stroke="red" fill="red"/>
   </g>
   <g id="cell72">
  <circle cx="448.418" cy="1782.84" r="8.41271" stroke-width="0.5" stroke="black" fill="red"/>
  <circle cx="448.418" cy="1782.84" r="5.05167" stroke-width="0.5" stroke="red" fill="red"/>
   </g>
   <g id="cell73">
  <circle cx="1352.51" cy="881.792" r="8.41271" stroke-width="0.5" stroke="black" fill="red"/>
  <circle cx="1352.51" cy="881.792" r="5.05167" stroke-width="0.5" stroke="red" fill="red"/>
   </g>
   <g id="cell74">
  <circle cx="1701" cy="1955.55" r="8.41271" stroke-width="0.5" stroke="black" fill="red"/>
  <circle cx="1701" cy="1955.55" r="5.05167" stroke-width="0.5" stroke="red" fill="red"/>
   </g>
   <g id="cell75">
  <circle cx="239.005" cy="600.614" r="8.41271" stroke-width="0.5" stroke="black" fill="red"/>
  <circle cx="239.005" cy="600.614" r="5.05167" stroke-width="0.5" stroke="red" fill="red"/>
   </g>
   <g id="cell76">
  <circle cx="1628.51" cy="824.261" r="8.41271" stroke-width="0.5" stroke="black" fill="red"/>
  <circle cx="1628.51" cy="824.261" r="5.05167" stroke-width="0.5" stroke="red" fill="red"/>
   </g>
   <g id="cell77">
  <circle cx="1356.29" cy="1755.37" r="8.41271" stroke-width="0.5" stroke="black" fill="red"/>
  <circle cx="1356.29" cy="1755.37" r="5.05167" stroke-width="0.5" stroke="red" fill="red"/>
   </g>
   <g id="cell78">
  <circle cx="1171.38" cy="625.338" r="8.41271" stroke-width="0.5" stroke="black" fill="red"/>
  <circle cx="1171.38" cy="625.338" r="5.05167" stroke-width="0.5" stroke="red" fill="red"/>
   </g>
   <g id="cell79">
  <circle cx="1914.52" cy="1394.11" r="8.41271" stroke-width="0.5" stroke="black" fill="red"/>
  <circle cx="1914.52" cy="1394.11" r="5.05167" stroke-width="0.5" stroke="red" fill="red"/>
   </g>
   <g id="cell80">
  <circle cx="1458.76" cy="1331.05" r="8.61424" stroke-width="0.5" stroke="black" fill="red"/>
  <circle cx="1458.76" cy="1331.05" r="5.20061" stroke-width="0.5" stroke="red" fill="red"/>
   </g>
   <g id="cell81">
  <circle cx="1078.51" cy="1909.36" r="8.4325" stroke-width="0.5" stroke="black" fill="red"/>
  <circle cx="1078.51" cy="1909.36" r="5.06552" stroke-width="0.5" stroke="red" fill="red"/>
   </g>
   <g id="cell82">
  <circle cx="1285.03" cy="787.391" r="8.41271" stroke-width="0.5" stroke="black" fill="red"/>
  <circle cx="1285.03" cy="787.391" r="5.05167" stroke-width="0.5" stroke="red" fill="red"/>
   </g>
   <g id="cell83">
  <circle cx="1231.66" cy="1217.42" r="8.41271" stroke-width="0.5" stroke="black" fill="red"/>
  <circle cx="1231.66" cy="1217.42" r="5.05167" stroke-width="0.5" stroke="red" fill="red"/>
   </g>
   <g id="cell84">
  <circle cx="34.0854" cy="935.211" r="8.41271" stroke-width="0.5" stroke="black" fill="red"/>
  <circle cx="34.0854" cy="935.211" r="5.05167" stroke-width="0.5" stroke="red" fill="red"/>
   </g>
   <g id="cell85">
  <circle cx="1412.77" cy="1324.34" r="8.41271" stroke-width="0.5" stroke="black" fill="red"/>
  <circle cx="1412.77" cy="1324.34" r="5.05167" stroke-width="0.5" stroke="red" fill="red"/>
   </g>
   <g id="cell86">
  <circle cx="593.226" cy="773.872" r="8.41271" stroke-width="0.5" stroke="black" fill="red"/>
  <circle cx="593.226" cy="773.872" r="5.05167" stroke-width="0.5" stroke="red" fill="red"/>
   </g>
   <g id="cell87">
  <circle cx="1493.23" cy="851.496" r="8.41271" stroke-width="0.5" stroke="black" fill="red"/>
  <circle cx="1493.23" cy="851.496" r="5.05167" stroke-width="0.5" stroke="red" fill="red"/>
   </g>
   <g id="cell88">
  <circle cx="273.082" cy="201.268" r="8.51252" stroke-width="0.5" stroke="black" fill="red"/>
  <circle cx="273.082" cy="201.268" r="5.12552" stroke-width="0.5" stroke="red" fill="red"/>
   </g>
   <g id="cell89">
  <circle cx="184.748" cy="1139.93" r="4.42406" stroke-width="0.5" stroke="black" fill="red"/>
  <circle cx="184.748" cy="1139.93" r="3.07758" stroke-width="0.5" stroke="black" fill="black"/>
   </g>
   <g id="cell90">
  <circle cx="1178.29" cy="1105.88" r="8.4325" stroke-width="0.5" stroke="black" fill="red"/>
  <circle cx="1178.29" cy="1105.88" r="5.06552" stroke-width="0.5" stroke="red" fill="red"/>
   </g>
   <g id="cell91">
  <circle cx="54.5178" cy="1304.73" r="8.41271" stroke-width="0.5" stroke="black" fill="red"/>
  <circle cx="54.5178" cy="1304.73" r="5.05167" stroke-width="0.5" stroke="red" fill="red"/>
   </g>
   <g id="cell92">
  <circle cx="1292.04" cy="650.381" r="8.48289" stroke-width="0.5" stroke="black" fill="red"/>
  <circle cx="1292.04" cy="650.381" r="5.10317" stroke-width="0.5" stroke="red" fill="red"/>
   </g>
   <g id="cell93">
  <circle cx="435.679" cy="1792.7" r="8.41271" stroke-width="0.5" stroke="black" fill="red"/>
  <circle cx="435.679" cy="1792.7" r="5.05167" stroke-width="0.5" stroke="red" fill="red"/>
   </g>
   <g id="cell94">
  <circle cx="714.071" cy="192.339" r="8.41271" stroke-width="0.5" stroke="black" fill="red"/>
  <circle cx="714.071" cy="192.339" r="5.05167" stroke-width="0.5" stroke="red" fill="red"/>
   </g>
   <g id="cell95">
  <circle cx="1975.74" cy="1776.44" r="8.57856" stroke-width="0.5" stroke="black" fill="red"/>
  <circle cx="1975.74" cy="1776.44" r="5.17461" stroke-width="0.5" stroke="red" fill="red"/>
   </g>
   <g id="cell96">
  <circle cx="1615.31" cy="1072.55" r="8.41271" stroke-width="0.5" stroke="black" fill="red"/>
  <circle cx="1615.31" cy="1072.55" r="5.05167" stroke-width="0.5" stroke="red" fill="red"/>
   </g>
   <g id="cell97">
  <circle cx="897.745" cy="196.068" r="8.41271" stroke-width="0.5" stroke="black" fill="red"/>
  <circle cx="897.745" cy="196.068" r="5.05167" stroke-width="0.5" stroke="red" fill="red"/>
   </g>
   <g id="cell98">
  <circle cx="1825.91" cy="707.009" r="8.41271" stroke-width="0.5" stroke="black" fill="red"/>
  <circle cx="1825.91" cy="707.009" r="5.05167" stroke-width="0.5" stroke="red" fill="red"/>
   </g>
   <g id="cell99">
  <circle cx="938.082" cy="1988.93" r="8.41271" stroke-width="0.5" stroke="black" fill="red"/>
  <circle cx="938.082" cy="1988.93" r="5.05167" stroke-width="0.5" stroke="red" fill="red"/>
   </g>
  </g>
 </g>
  <rect x="1750" y="2070" width="200" height="20" stroke-width="4" stroke="rgb(255,255,255)" fill="rgb(0,0,0)"/>
  <text x="1762.5" y="2057.5"
   font-family="Arial" font-size="50" fill="black" >
   200 &#956;m
  </text>
  <text x="50" y="2090"
   font-family="Arial" font-size="37.5" fill="black" >
   0 days, 0 hours, 0 minutes, and 1.5276 seconds
  </text>
  <rect x="0" y="140" width="2000" height="2000" stroke-width="4" stroke="rgb(0,0,0)" fill="none"/>
</svg>
