<?xml version="1.0" encoding="UTF-8" standalone="no"?>
<!-- Created with PhysiCell (http://PhysiCell.MathCancer.org/) -->
<svg 
 xmlns:dc="http://purl.org/dc/elements/1.1/" 
 xmlns:cc="http://creativecommons.org/ns#" 
 xmlns:rdf="http://www.w3.org/1999/02/22-rdf-syntax-ns#" 
 xmlns:svg="http://www.w3.org/2000/svg" 
 xmlns="http://www.w3.org/2000/svg" 
 version="1.1" 
 width="2000" 
 height="2140" 
 id="svg2">
  <rect x="0" y="0" width="2000" height="2140" stroke-width="4" stroke="white" fill="white"/>
  <text x="25" y="60"
   font-family="Arial" font-size="50" fill="black" >
   Current time: 0 days, 17 hours, and 30.00 minutes, z = 0.00 &#956;m
  </text>
  <text x="25" y="115"
   font-family="Arial" font-size="47.5" fill="black" >
   157 agents
  </text>
 <g id="tissue" 
    transform="translate(0,2140) scale(1,-1)">
  <g id="ECM">
  </g>
  <g id="cells">
   <g id="cell0">
  <circle cx="1088.95" cy="1179.83" r="10.5295" stroke-width="0.5" stroke="black" fill="grey"/>
  <circle cx="1088.95" cy="1179.83" r="6.33783" stroke-width="0.5" stroke="grey" fill="grey"/>
   </g>
   <g id="cell1">
  <circle cx="1662.55" cy="1195.97" r="8.38753" stroke-width="0.5" stroke="black" fill="grey"/>
  <circle cx="1662.55" cy="1195.97" r="5.04286" stroke-width="0.5" stroke="grey" fill="grey"/>
   </g>
   <g id="cell2">
  <circle cx="1097.58" cy="1735.62" r="8.71417" stroke-width="0.5" stroke="black" fill="grey"/>
  <circle cx="1097.58" cy="1735.62" r="5.27648" stroke-width="0.5" stroke="grey" fill="grey"/>
   </g>
   <g id="cell3">
  <circle cx="1245.44" cy="1316.63" r="8.36849" stroke-width="0.5" stroke="black" fill="grey"/>
  <circle cx="1245.44" cy="1316.63" r="5.03512" stroke-width="0.5" stroke="grey" fill="grey"/>
   </g>
   <g id="cell4">
  <circle cx="911.738" cy="557.733" r="10.2821" stroke-width="0.5" stroke="black" fill="grey"/>
  <circle cx="911.738" cy="557.733" r="6.21778" stroke-width="0.5" stroke="grey" fill="grey"/>
   </g>
   <g id="cell5">
  <circle cx="83.2004" cy="1903.69" r="10.5092" stroke-width="0.5" stroke="black" fill="grey"/>
  <circle cx="83.2004" cy="1903.69" r="6.32893" stroke-width="0.5" stroke="grey" fill="grey"/>
   </g>
   <g id="cell6">
  <circle cx="735.686" cy="895.238" r="10.4689" stroke-width="0.5" stroke="black" fill="grey"/>
  <circle cx="735.686" cy="895.238" r="6.31053" stroke-width="0.5" stroke="grey" fill="grey"/>
   </g>
   <g id="cell7">
  <circle cx="1547.06" cy="1054.26" r="8.38118" stroke-width="0.5" stroke="black" fill="grey"/>
  <circle cx="1547.06" cy="1054.26" r="5.04034" stroke-width="0.5" stroke="grey" fill="grey"/>
   </g>
   <g id="cell8">
  <circle cx="1122.8" cy="811.003" r="8.39708" stroke-width="0.5" stroke="black" fill="grey"/>
  <circle cx="1122.8" cy="811.003" r="5.0465" stroke-width="0.5" stroke="grey" fill="grey"/>
   </g>
   <g id="cell9">
  <circle cx="1605.88" cy="176.988" r="10.5254" stroke-width="0.5" stroke="black" fill="grey"/>
  <circle cx="1605.88" cy="176.988" r="6.33607" stroke-width="0.5" stroke="grey" fill="grey"/>
   </g>
   <g id="cell10">
  <circle cx="171.488" cy="1268.46" r="10.3474" stroke-width="0.5" stroke="black" fill="grey"/>
  <circle cx="171.488" cy="1268.46" r="6.25125" stroke-width="0.5" stroke="grey" fill="grey"/>
   </g>
   <g id="cell11">
  <circle cx="755.783" cy="1651.43" r="8.3926" stroke-width="0.5" stroke="black" fill="grey"/>
  <circle cx="755.783" cy="1651.43" r="5.04482" stroke-width="0.5" stroke="grey" fill="grey"/>
   </g>
   <g id="cell12">
  <circle cx="1627.11" cy="263.811" r="10.5233" stroke-width="0.5" stroke="black" fill="grey"/>
  <circle cx="1627.11" cy="263.811" r="6.33514" stroke-width="0.5" stroke="grey" fill="grey"/>
   </g>
   <g id="cell13">
  <circle cx="1750.06" cy="1889.73" r="8.3937" stroke-width="0.5" stroke="black" fill="grey"/>
  <circle cx="1750.06" cy="1889.73" r="5.04523" stroke-width="0.5" stroke="grey" fill="grey"/>
   </g>
   <g id="cell14">
  <circle cx="1582.94" cy="1640.34" r="9.88629" stroke-width="0.5" stroke="black" fill="grey"/>
  <circle cx="1582.94" cy="1640.34" r="6.00088" stroke-width="0.5" stroke="grey" fill="grey"/>
   </g>
   <g id="cell15">
  <circle cx="1041.07" cy="1517.39" r="8.37092" stroke-width="0.5" stroke="black" fill="grey"/>
  <circle cx="1041.07" cy="1517.39" r="5.03613" stroke-width="0.5" stroke="grey" fill="grey"/>
   </g>
   <g id="cell16">
  <circle cx="251.292" cy="1410.22" r="8.38532" stroke-width="0.5" stroke="black" fill="grey"/>
  <circle cx="251.292" cy="1410.22" r="5.04199" stroke-width="0.5" stroke="grey" fill="grey"/>
   </g>
   <g id="cell17">
  <circle cx="1191.08" cy="254.476" r="8.37935" stroke-width="0.5" stroke="black" fill="grey"/>
  <circle cx="1191.08" cy="254.476" r="5.0396" stroke-width="0.5" stroke="grey" fill="grey"/>
   </g>
   <g id="cell18">
  <circle cx="1871.73" cy="1531.69" r="8.39316" stroke-width="0.5" stroke="black" fill="grey"/>
  <circle cx="1871.73" cy="1531.69" r="5.04503" stroke-width="0.5" stroke="grey" fill="grey"/>
   </g>
   <g id="cell19">
  <circle cx="224.201" cy="878.994" r="8.68937" stroke-width="0.5" stroke="black" fill="grey"/>
  <circle cx="224.201" cy="878.994" r="5.25417" stroke-width="0.5" stroke="grey" fill="grey"/>
   </g>
   <g id="cell20">
  <circle cx="553.894" cy="345.107" r="10.3325" stroke-width="0.5" stroke="black" fill="grey"/>
  <circle cx="553.894" cy="345.107" r="6.24369" stroke-width="0.5" stroke="grey" fill="grey"/>
   </g>
   <g id="cell21">
  <circle cx="1447.03" cy="918.012" r="10.4726" stroke-width="0.5" stroke="black" fill="grey"/>
  <circle cx="1447.03" cy="918.012" r="6.31223" stroke-width="0.5" stroke="grey" fill="grey"/>
   </g>
   <g id="cell22">
  <circle cx="1123.68" cy="258.897" r="10.0169" stroke-width="0.5" stroke="black" fill="grey"/>
  <circle cx="1123.68" cy="258.897" r="6.07458" stroke-width="0.5" stroke="grey" fill="grey"/>
   </g>
   <g id="cell23">
  <circle cx="641.8" cy="1243.18" r="2.13086" stroke-width="0.5" stroke="black" fill="grey"/>
  <circle cx="641.8" cy="1243.18" r="2.07866" stroke-width="0.5" stroke="black" fill="black"/>
   </g>
   <g id="cell24">
  <circle cx="1282.92" cy="404.504" r="10.2534" stroke-width="0.5" stroke="black" fill="grey"/>
  <circle cx="1282.92" cy="404.504" r="6.2028" stroke-width="0.5" stroke="grey" fill="grey"/>
   </g>
   <g id="cell25">
  <circle cx="797.81" cy="1889" r="8.63649" stroke-width="0.5" stroke="black" fill="grey"/>
  <circle cx="797.81" cy="1889" r="5.22215" stroke-width="0.5" stroke="grey" fill="grey"/>
   </g>
   <g id="cell26">
  <circle cx="1353.4" cy="883.168" r="10.3933" stroke-width="0.5" stroke="black" fill="grey"/>
  <circle cx="1353.4" cy="883.168" r="6.27417" stroke-width="0.5" stroke="grey" fill="grey"/>
   </g>
   <g id="cell27">
  <circle cx="1179.26" cy="898.335" r="8.50936" stroke-width="0.5" stroke="black" fill="grey"/>
  <circle cx="1179.26" cy="898.335" r="5.13647" stroke-width="0.5" stroke="grey" fill="grey"/>
   </g>
   <g id="cell28">
  <circle cx="1331.31" cy="166.487" r="8.38454" stroke-width="0.5" stroke="black" fill="grey"/>
  <circle cx="1331.31" cy="166.487" r="5.04168" stroke-width="0.5" stroke="grey" fill="grey"/>
   </g>
   <g id="cell29">
  <circle cx="1967.8" cy="1290.32" r="8.36722" stroke-width="0.5" stroke="black" fill="grey"/>
  <circle cx="1967.8" cy="1290.32" r="5.03458" stroke-width="0.5" stroke="grey" fill="grey"/>
   </g>
   <g id="cell30">
  <circle cx="1355.33" cy="356.508" r="10.5233" stroke-width="0.5" stroke="black" fill="grey"/>
  <circle cx="1355.33" cy="356.508" r="6.33514" stroke-width="0.5" stroke="grey" fill="grey"/>
   </g>
   <g id="cell31">
  <circle cx="692.294" cy="242.398" r="8.39422" stroke-width="0.5" stroke="black" fill="grey"/>
  <circle cx="692.294" cy="242.398" r="5.04543" stroke-width="0.5" stroke="grey" fill="grey"/>
   </g>
   <g id="cell32">
  <circle cx="602.315" cy="1233.01" r="8.71062" stroke-width="0.5" stroke="black" fill="grey"/>
  <circle cx="602.315" cy="1233.01" r="5.27512" stroke-width="0.5" stroke="grey" fill="grey"/>
   </g>
   <g id="cell33">
  <circle cx="688.937" cy="1197.3" r="10.5166" stroke-width="0.5" stroke="black" fill="grey"/>
  <circle cx="688.937" cy="1197.3" r="6.33218" stroke-width="0.5" stroke="grey" fill="grey"/>
   </g>
   <g id="cell34">
  <circle cx="891.643" cy="1238.27" r="8.83335" stroke-width="0.5" stroke="black" fill="grey"/>
  <circle cx="891.643" cy="1238.27" r="5.35769" stroke-width="0.5" stroke="grey" fill="grey"/>
   </g>
   <g id="cell35">
  <circle cx="1929.28" cy="216.018" r="9.14489" stroke-width="0.5" stroke="black" fill="grey"/>
  <circle cx="1929.28" cy="216.018" r="5.56026" stroke-width="0.5" stroke="grey" fill="grey"/>
   </g>
   <g id="cell36">
  <circle cx="367.129" cy="1303.76" r="8.38823" stroke-width="0.5" stroke="black" fill="grey"/>
  <circle cx="367.129" cy="1303.76" r="5.04313" stroke-width="0.5" stroke="grey" fill="grey"/>
   </g>
   <g id="cell37">
  <circle cx="1969.15" cy="1323.78" r="9.88629" stroke-width="0.5" stroke="black" fill="grey"/>
  <circle cx="1969.15" cy="1323.78" r="6.00088" stroke-width="0.5" stroke="grey" fill="grey"/>
   </g>
   <g id="cell38">
  <circle cx="462.585" cy="861.284" r="9.18286" stroke-width="0.5" stroke="black" fill="grey"/>
  <circle cx="462.585" cy="861.284" r="5.58396" stroke-width="0.5" stroke="grey" fill="grey"/>
   </g>
   <g id="cell39">
  <circle cx="919.338" cy="502.597" r="10.3166" stroke-width="0.5" stroke="black" fill="grey"/>
  <circle cx="919.338" cy="502.597" r="6.23561" stroke-width="0.5" stroke="grey" fill="grey"/>
   </g>
   <g id="cell40">
  <circle cx="307.078" cy="635.093" r="8.39316" stroke-width="0.5" stroke="black" fill="grey"/>
  <circle cx="307.078" cy="635.093" r="5.04503" stroke-width="0.5" stroke="grey" fill="grey"/>
   </g>
   <g id="cell41">
  <circle cx="1308.81" cy="1297.32" r="8.39794" stroke-width="0.5" stroke="black" fill="grey"/>
  <circle cx="1308.81" cy="1297.32" r="5.04681" stroke-width="0.5" stroke="grey" fill="grey"/>
   </g>
   <g id="cell42">
  <circle cx="283.166" cy="1574.6" r="8.73711" stroke-width="0.5" stroke="black" fill="grey"/>
  <circle cx="283.166" cy="1574.6" r="5.29706" stroke-width="0.5" stroke="grey" fill="grey"/>
   </g>
   <g id="cell43">
  <circle cx="1936.42" cy="776.143" r="8.55222" stroke-width="0.5" stroke="black" fill="grey"/>
  <circle cx="1936.42" cy="776.143" r="5.16514" stroke-width="0.5" stroke="grey" fill="grey"/>
   </g>
   <g id="cell44">
  <circle cx="1650.09" cy="56.6794" r="8.38118" stroke-width="0.5" stroke="black" fill="grey"/>
  <circle cx="1650.09" cy="56.6794" r="5.04034" stroke-width="0.5" stroke="grey" fill="grey"/>
   </g>
   <g id="cell45">
  <circle cx="1246.78" cy="1703.13" r="8.37321" stroke-width="0.5" stroke="black" fill="grey"/>
  <circle cx="1246.78" cy="1703.13" r="5.03708" stroke-width="0.5" stroke="grey" fill="grey"/>
   </g>
   <g id="cell46">
  <circle cx="193.671" cy="1977.95" r="8.38454" stroke-width="0.5" stroke="black" fill="grey"/>
  <circle cx="193.671" cy="1977.95" r="5.04168" stroke-width="0.5" stroke="grey" fill="grey"/>
   </g>
   <g id="cell47">
  <circle cx="1721.56" cy="916.668" r="9.42945" stroke-width="0.5" stroke="black" fill="grey"/>
  <circle cx="1721.56" cy="916.668" r="5.73492" stroke-width="0.5" stroke="grey" fill="grey"/>
   </g>
   <g id="cell48">
  <circle cx="1937.92" cy="94.4736" r="10.5166" stroke-width="0.5" stroke="black" fill="grey"/>
  <circle cx="1937.92" cy="94.4736" r="6.33218" stroke-width="0.5" stroke="grey" fill="grey"/>
   </g>
   <g id="cell49">
  <circle cx="937.955" cy="1497.88" r="8.37321" stroke-width="0.5" stroke="black" fill="grey"/>
  <circle cx="937.955" cy="1497.88" r="5.03708" stroke-width="0.5" stroke="grey" fill="grey"/>
   </g>
   <g id="cell50">
  <circle cx="163.37" cy="847.499" r="8.37208" stroke-width="0.5" stroke="black" fill="red"/>
  <circle cx="163.37" cy="847.499" r="5.03661" stroke-width="0.5" stroke="red" fill="red"/>
   </g>
   <g id="cell51">
  <circle cx="1974.99" cy="264.345" r="10.0955" stroke-width="0.5" stroke="black" fill="red"/>
  <circle cx="1974.99" cy="264.345" r="6.11797" stroke-width="0.5" stroke="red" fill="red"/>
   </g>
   <g id="cell52">
  <circle cx="631.338" cy="974.153" r="8.58244" stroke-width="0.5" stroke="black" fill="red"/>
  <circle cx="631.338" cy="974.153" r="5.18887" stroke-width="0.5" stroke="red" fill="red"/>
   </g>
   <g id="cell53">
  <circle cx="1381.19" cy="648.707" r="9.82189" stroke-width="0.5" stroke="black" fill="red"/>
  <circle cx="1381.19" cy="648.707" r="5.96395" stroke-width="0.5" stroke="red" fill="red"/>
   </g>
   <g id="cell54">
  <circle cx="790.077" cy="1807.9" r="8.38373" stroke-width="0.5" stroke="black" fill="red"/>
  <circle cx="790.077" cy="1807.9" r="5.04136" stroke-width="0.5" stroke="red" fill="red"/>
   </g>
   <g id="cell55">
  <circle cx="428.944" cy="1333.63" r="9.70201" stroke-width="0.5" stroke="black" fill="red"/>
  <circle cx="428.944" cy="1333.63" r="5.89426" stroke-width="0.5" stroke="red" fill="red"/>
   </g>
   <g id="cell56">
  <circle cx="1164.02" cy="1684.6" r="10.2632" stroke-width="0.5" stroke="black" fill="red"/>
  <circle cx="1164.02" cy="1684.6" r="6.20796" stroke-width="0.5" stroke="red" fill="red"/>
   </g>
   <g id="cell57">
  <circle cx="973.861" cy="1090.8" r="9.49123" stroke-width="0.5" stroke="black" fill="red"/>
  <circle cx="973.861" cy="1090.8" r="5.77244" stroke-width="0.5" stroke="red" fill="red"/>
   </g>
   <g id="cell58">
  <circle cx="112.344" cy="1848.45" r="10.4984" stroke-width="0.5" stroke="black" fill="red"/>
  <circle cx="112.344" cy="1848.45" r="6.32406" stroke-width="0.5" stroke="red" fill="red"/>
   </g>
   <g id="cell98">
  <circle cx="1815.39" cy="677.519" r="10.5314" stroke-width="0.5" stroke="black" fill="red"/>
  <circle cx="1815.39" cy="677.519" r="6.33867" stroke-width="0.5" stroke="red" fill="red"/>
   </g>
   <g id="cell60">
  <circle cx="673.533" cy="20.9373" r="8.37537" stroke-width="0.5" stroke="black" fill="red"/>
  <circle cx="673.533" cy="20.9373" r="5.03798" stroke-width="0.5" stroke="red" fill="red"/>
   </g>
   <g id="cell61">
  <circle cx="1657.62" cy="270.9" r="8.38682" stroke-width="0.5" stroke="black" fill="red"/>
  <circle cx="1657.62" cy="270.9" r="5.04258" stroke-width="0.5" stroke="red" fill="red"/>
   </g>
   <g id="cell62">
  <circle cx="1416.95" cy="1704.33" r="8.62309" stroke-width="0.5" stroke="black" fill="red"/>
  <circle cx="1416.95" cy="1704.33" r="5.21688" stroke-width="0.5" stroke="red" fill="red"/>
   </g>
   <g id="cell63">
  <circle cx="562.205" cy="385.141" r="10.4862" stroke-width="0.5" stroke="black" fill="red"/>
  <circle cx="562.205" cy="385.141" r="6.31853" stroke-width="0.5" stroke="red" fill="red"/>
   </g>
   <g id="cell64">
  <circle cx="1210.16" cy="1098.61" r="8.37537" stroke-width="0.5" stroke="black" fill="red"/>
  <circle cx="1210.16" cy="1098.61" r="5.03798" stroke-width="0.5" stroke="red" fill="red"/>
   </g>
   <g id="cell65">
  <circle cx="303.77" cy="1653.3" r="8.38373" stroke-width="0.5" stroke="black" fill="red"/>
  <circle cx="303.77" cy="1653.3" r="5.04136" stroke-width="0.5" stroke="red" fill="red"/>
   </g>
   <g id="cell66">
  <circle cx="22.0159" cy="286.171" r="8.36592" stroke-width="0.5" stroke="black" fill="red"/>
  <circle cx="22.0159" cy="286.171" r="5.03403" stroke-width="0.5" stroke="red" fill="red"/>
   </g>
   <g id="cell67">
  <circle cx="1129.65" cy="570.528" r="10.4531" stroke-width="0.5" stroke="black" fill="red"/>
  <circle cx="1129.65" cy="570.528" r="6.30312" stroke-width="0.5" stroke="red" fill="red"/>
   </g>
   <g id="cell68">
  <circle cx="1442.29" cy="603.949" r="8.38028" stroke-width="0.5" stroke="black" fill="red"/>
  <circle cx="1442.29" cy="603.949" r="5.03997" stroke-width="0.5" stroke="red" fill="red"/>
   </g>
   <g id="cell69">
  <circle cx="817.898" cy="496.82" r="10.5254" stroke-width="0.5" stroke="black" fill="red"/>
  <circle cx="817.898" cy="496.82" r="6.33607" stroke-width="0.5" stroke="red" fill="red"/>
   </g>
   <g id="cell70">
  <circle cx="1136.89" cy="783.642" r="8.90657" stroke-width="0.5" stroke="black" fill="red"/>
  <circle cx="1136.89" cy="783.642" r="5.40814" stroke-width="0.5" stroke="red" fill="red"/>
   </g>
   <g id="cell71">
  <circle cx="1738.26" cy="1177.07" r="8.39571" stroke-width="0.5" stroke="black" fill="red"/>
  <circle cx="1738.26" cy="1177.07" r="5.04599" stroke-width="0.5" stroke="red" fill="red"/>
   </g>
   <g id="cell72">
  <circle cx="456.696" cy="1771.73" r="8.41271" stroke-width="0.5" stroke="black" fill="red"/>
  <circle cx="456.696" cy="1771.73" r="5.05167" stroke-width="0.5" stroke="red" fill="red"/>
   </g>
   <g id="cell73">
  <circle cx="1360.43" cy="862.922" r="9.03055" stroke-width="0.5" stroke="black" fill="red"/>
  <circle cx="1360.43" cy="862.922" r="5.48737" stroke-width="0.5" stroke="red" fill="red"/>
   </g>
   <g id="cell74">
  <circle cx="1729.73" cy="1879.32" r="8.38454" stroke-width="0.5" stroke="black" fill="red"/>
  <circle cx="1729.73" cy="1879.32" r="5.04168" stroke-width="0.5" stroke="red" fill="red"/>
   </g>
   <g id="cell75">
  <circle cx="278.532" cy="560.024" r="9.16281" stroke-width="0.5" stroke="black" fill="red"/>
  <circle cx="278.532" cy="560.024" r="5.56677" stroke-width="0.5" stroke="red" fill="red"/>
   </g>
   <g id="cell76">
  <circle cx="1632.1" cy="764.273" r="10.5295" stroke-width="0.5" stroke="black" fill="red"/>
  <circle cx="1632.1" cy="764.273" r="6.33783" stroke-width="0.5" stroke="red" fill="red"/>
   </g>
   <g id="cell77">
  <circle cx="1406.66" cy="1795.34" r="8.59278" stroke-width="0.5" stroke="black" fill="red"/>
  <circle cx="1406.66" cy="1795.34" r="5.19303" stroke-width="0.5" stroke="red" fill="red"/>
   </g>
   <g id="cell78">
  <circle cx="1161.82" cy="597.618" r="10.3615" stroke-width="0.5" stroke="black" fill="red"/>
  <circle cx="1161.82" cy="597.618" r="6.25834" stroke-width="0.5" stroke="red" fill="red"/>
   </g>
   <g id="cell79">
  <circle cx="1987.19" cy="1447.86" r="10.5333" stroke-width="0.5" stroke="black" fill="red"/>
  <circle cx="1987.19" cy="1447.86" r="6.33948" stroke-width="0.5" stroke="red" fill="red"/>
   </g>
   <g id="cell80">
  <circle cx="1439.57" cy="1296.81" r="8.38891" stroke-width="0.5" stroke="black" fill="red"/>
  <circle cx="1439.57" cy="1296.81" r="5.0434" stroke-width="0.5" stroke="red" fill="red"/>
   </g>
   <g id="cell81">
  <circle cx="1127.09" cy="1905.18" r="8.37641" stroke-width="0.5" stroke="black" fill="red"/>
  <circle cx="1127.09" cy="1905.18" r="5.0384" stroke-width="0.5" stroke="red" fill="red"/>
   </g>
   <g id="cell82">
  <circle cx="1265.05" cy="812.948" r="8.3926" stroke-width="0.5" stroke="black" fill="red"/>
  <circle cx="1265.05" cy="812.948" r="5.04482" stroke-width="0.5" stroke="red" fill="red"/>
   </g>
   <g id="cell83">
  <circle cx="1223.67" cy="1229.69" r="8.39708" stroke-width="0.5" stroke="black" fill="red"/>
  <circle cx="1223.67" cy="1229.69" r="5.0465" stroke-width="0.5" stroke="red" fill="red"/>
   </g>
   <g id="cell84">
  <circle cx="22.0481" cy="920.615" r="9.92631" stroke-width="0.5" stroke="black" fill="red"/>
  <circle cx="22.0481" cy="920.615" r="6.02363" stroke-width="0.5" stroke="red" fill="red"/>
   </g>
   <g id="cell85">
  <circle cx="1423.9" cy="1297.59" r="10.3991" stroke-width="0.5" stroke="black" fill="red"/>
  <circle cx="1423.9" cy="1297.59" r="6.27703" stroke-width="0.5" stroke="red" fill="red"/>
   </g>
   <g id="cell86">
  <circle cx="583.041" cy="805.723" r="8.37092" stroke-width="0.5" stroke="black" fill="red"/>
  <circle cx="583.041" cy="805.723" r="5.03613" stroke-width="0.5" stroke="red" fill="red"/>
   </g>
   <g id="cell87">
  <circle cx="1454.29" cy="895.862" r="10.3933" stroke-width="0.5" stroke="black" fill="red"/>
  <circle cx="1454.29" cy="895.862" r="6.27417" stroke-width="0.5" stroke="red" fill="red"/>
   </g>
   <g id="cell88">
  <circle cx="253.399" cy="226.008" r="8.38454" stroke-width="0.5" stroke="black" fill="red"/>
  <circle cx="253.399" cy="226.008" r="5.04168" stroke-width="0.5" stroke="red" fill="red"/>
   </g>
   <g id="cell89">
  <circle cx="204.825" cy="1162.18" r="8.38682" stroke-width="0.5" stroke="black" fill="red"/>
  <circle cx="204.825" cy="1162.18" r="5.04258" stroke-width="0.5" stroke="red" fill="red"/>
   </g>
   <g id="cell90">
  <circle cx="1162.25" cy="1101.2" r="10.5066" stroke-width="0.5" stroke="black" fill="red"/>
  <circle cx="1162.25" cy="1101.2" r="6.32777" stroke-width="0.5" stroke="red" fill="red"/>
   </g>
   <g id="cell91">
  <circle cx="59.1051" cy="1257.32" r="8.39021" stroke-width="0.5" stroke="black" fill="red"/>
  <circle cx="59.1051" cy="1257.32" r="5.0439" stroke-width="0.5" stroke="red" fill="red"/>
   </g>
   <g id="cell99">
  <circle cx="942.763" cy="1978.8" r="9.58048" stroke-width="0.5" stroke="black" fill="red"/>
  <circle cx="942.763" cy="1978.8" r="5.82569" stroke-width="0.5" stroke="red" fill="red"/>
   </g>
   <g id="cell93">
  <circle cx="416.741" cy="1787.06" r="8.46709" stroke-width="0.5" stroke="black" fill="red"/>
  <circle cx="416.741" cy="1787.06" r="5.0979" stroke-width="0.5" stroke="red" fill="red"/>
   </g>
   <g id="cell94">
  <circle cx="776.554" cy="195.767" r="8.37742" stroke-width="0.5" stroke="black" fill="red"/>
  <circle cx="776.554" cy="195.767" r="5.03881" stroke-width="0.5" stroke="red" fill="red"/>
   </g>
   <g id="cell95">
  <circle cx="1990.18" cy="1765.55" r="8.79133" stroke-width="0.5" stroke="black" fill="red"/>
  <circle cx="1990.18" cy="1765.55" r="5.32996" stroke-width="0.5" stroke="red" fill="red"/>
   </g>
   <g id="cell96">
  <circle cx="1693.22" cy="1080.03" r="10.3325" stroke-width="0.5" stroke="black" fill="red"/>
  <circle cx="1693.22" cy="1080.03" r="6.24369" stroke-width="0.5" stroke="red" fill="red"/>
   </g>
   <g id="cell97">
  <circle cx="922.557" cy="187.622" r="8.47606" stroke-width="0.5" stroke="black" fill="red"/>
  <circle cx="922.557" cy="187.622" r="5.11205" stroke-width="0.5" stroke="red" fill="red"/>
   </g>
   <g id="cell101">
  <circle cx="1318.72" cy="1261.41" r="9.52408" stroke-width="0.5" stroke="black" fill="grey"/>
  <circle cx="1318.72" cy="1261.41" r="5.79161" stroke-width="0.5" stroke="grey" fill="grey"/>
   </g>
   <g id="cell102">
  <circle cx="1068.49" cy="1772" r="8.39752" stroke-width="0.5" stroke="black" fill="grey"/>
  <circle cx="1068.49" cy="1772" r="5.04666" stroke-width="0.5" stroke="grey" fill="grey"/>
   </g>
   <g id="cell103">
  <circle cx="1204.08" cy="1251.92" r="9.36429" stroke-width="0.5" stroke="black" fill="red"/>
  <circle cx="1204.08" cy="1251.92" r="5.69513" stroke-width="0.5" stroke="red" fill="red"/>
   </g>
   <g id="cell104">
  <circle cx="788.602" cy="1868.73" r="9.63749" stroke-width="0.5" stroke="black" fill="grey"/>
  <circle cx="788.602" cy="1868.73" r="5.85916" stroke-width="0.5" stroke="grey" fill="grey"/>
   </g>
   <g id="cell105">
  <circle cx="1150.26" cy="814.73" r="9.63749" stroke-width="0.5" stroke="black" fill="grey"/>
  <circle cx="1150.26" cy="814.73" r="5.85916" stroke-width="0.5" stroke="grey" fill="grey"/>
   </g>
   <g id="cell106">
  <circle cx="433.445" cy="1785.16" r="9.18672" stroke-width="0.5" stroke="black" fill="red"/>
  <circle cx="433.445" cy="1785.16" r="5.58547" stroke-width="0.5" stroke="red" fill="red"/>
   </g>
   <g id="cell107">
  <circle cx="928.144" cy="1247.67" r="8.39664" stroke-width="0.5" stroke="black" fill="grey"/>
  <circle cx="928.144" cy="1247.67" r="5.04633" stroke-width="0.5" stroke="grey" fill="grey"/>
   </g>
   <g id="cell108">
  <circle cx="1750.66" cy="947.072" r="8.83294" stroke-width="0.5" stroke="black" fill="grey"/>
  <circle cx="1750.66" cy="947.072" r="5.35753" stroke-width="0.5" stroke="grey" fill="grey"/>
   </g>
   <g id="cell109">
  <circle cx="1721.87" cy="1202.15" r="8.39571" stroke-width="0.5" stroke="black" fill="red"/>
  <circle cx="1721.87" cy="1202.15" r="5.04599" stroke-width="0.5" stroke="red" fill="red"/>
   </g>
   <g id="cell110">
  <circle cx="973.269" cy="1967.34" r="8.39523" stroke-width="0.5" stroke="black" fill="red"/>
  <circle cx="973.269" cy="1967.34" r="5.04581" stroke-width="0.5" stroke="red" fill="red"/>
   </g>
   <g id="cell111">
  <circle cx="1974.61" cy="1739.04" r="8.39473" stroke-width="0.5" stroke="black" fill="red"/>
  <circle cx="1974.61" cy="1739.04" r="5.04562" stroke-width="0.5" stroke="red" fill="red"/>
   </g>
   <g id="cell112">
  <circle cx="999.113" cy="1076.89" r="9.14767" stroke-width="0.5" stroke="black" fill="red"/>
  <circle cx="999.113" cy="1076.89" r="5.56136" stroke-width="0.5" stroke="red" fill="red"/>
   </g>
   <g id="cell113">
  <circle cx="677.72" cy="203.548" r="8.63379" stroke-width="0.5" stroke="black" fill="grey"/>
  <circle cx="677.72" cy="203.548" r="5.22112" stroke-width="0.5" stroke="grey" fill="grey"/>
   </g>
   <g id="cell114">
  <circle cx="617.631" cy="1242.8" r="8.3937" stroke-width="0.5" stroke="black" fill="grey"/>
  <circle cx="617.631" cy="1242.8" r="5.04523" stroke-width="0.5" stroke="grey" fill="grey"/>
   </g>
   <g id="cell115">
  <circle cx="1736.67" cy="1919.26" r="8.41358" stroke-width="0.5" stroke="black" fill="grey"/>
  <circle cx="1736.67" cy="1919.26" r="5.05912" stroke-width="0.5" stroke="grey" fill="grey"/>
   </g>
   <g id="cell116">
  <circle cx="323.246" cy="672.865" r="8.39316" stroke-width="0.5" stroke="black" fill="grey"/>
  <circle cx="323.246" cy="672.865" r="5.04503" stroke-width="0.5" stroke="grey" fill="grey"/>
   </g>
   <g id="cell117">
  <circle cx="1895.71" cy="1542.5" r="8.83021" stroke-width="0.5" stroke="black" fill="grey"/>
  <circle cx="1895.71" cy="1542.5" r="5.35647" stroke-width="0.5" stroke="grey" fill="grey"/>
   </g>
   <g id="cell118">
  <circle cx="1327.96" cy="870.962" r="8.39316" stroke-width="0.5" stroke="black" fill="red"/>
  <circle cx="1327.96" cy="870.962" r="5.04503" stroke-width="0.5" stroke="red" fill="red"/>
   </g>
   <g id="cell119">
  <circle cx="1266.35" cy="839.06" r="8.3926" stroke-width="0.5" stroke="black" fill="red"/>
  <circle cx="1266.35" cy="839.06" r="5.04482" stroke-width="0.5" stroke="red" fill="red"/>
   </g>
   <g id="cell120">
  <circle cx="729.535" cy="1678.92" r="8.3926" stroke-width="0.5" stroke="black" fill="grey"/>
  <circle cx="729.535" cy="1678.92" r="5.04482" stroke-width="0.5" stroke="grey" fill="grey"/>
   </g>
   <g id="cell121">
  <circle cx="432.65" cy="875.569" r="8.70907" stroke-width="0.5" stroke="black" fill="grey"/>
  <circle cx="432.65" cy="875.569" r="5.27451" stroke-width="0.5" stroke="grey" fill="grey"/>
   </g>
   <g id="cell122">
  <circle cx="1920.46" cy="245.264" r="8.39144" stroke-width="0.5" stroke="black" fill="grey"/>
  <circle cx="1920.46" cy="245.264" r="5.04437" stroke-width="0.5" stroke="grey" fill="grey"/>
   </g>
   <g id="cell123">
  <circle cx="70.3678" cy="1248.51" r="8.7872" stroke-width="0.5" stroke="black" fill="red"/>
  <circle cx="70.3678" cy="1248.51" r="5.32834" stroke-width="0.5" stroke="red" fill="red"/>
   </g>
   <g id="cell124">
  <circle cx="1396.02" cy="1834" r="8.98845" stroke-width="0.5" stroke="black" fill="red"/>
  <circle cx="1396.02" cy="1834" r="5.46092" stroke-width="0.5" stroke="red" fill="red"/>
   </g>
   <g id="cell125">
  <circle cx="1438.62" cy="1310.95" r="8.38891" stroke-width="0.5" stroke="black" fill="red"/>
  <circle cx="1438.62" cy="1310.95" r="5.0434" stroke-width="0.5" stroke="red" fill="red"/>
   </g>
   <g id="cell126">
  <circle cx="1162.63" cy="793.627" r="8.38823" stroke-width="0.5" stroke="black" fill="red"/>
  <circle cx="1162.63" cy="793.627" r="5.04313" stroke-width="0.5" stroke="red" fill="red"/>
   </g>
   <g id="cell127">
  <circle cx="399.431" cy="1271.32" r="8.38823" stroke-width="0.5" stroke="black" fill="grey"/>
  <circle cx="399.431" cy="1271.32" r="5.04313" stroke-width="0.5" stroke="grey" fill="grey"/>
   </g>
   <g id="cell128">
  <circle cx="1671.16" cy="1212.69" r="8.38753" stroke-width="0.5" stroke="black" fill="grey"/>
  <circle cx="1671.16" cy="1212.69" r="5.04286" stroke-width="0.5" stroke="grey" fill="grey"/>
   </g>
   <g id="cell129">
  <circle cx="1666.58" cy="295.204" r="8.98549" stroke-width="0.5" stroke="black" fill="red"/>
  <circle cx="1666.58" cy="295.204" r="5.45973" stroke-width="0.5" stroke="red" fill="red"/>
   </g>
   <g id="cell130">
  <circle cx="211.862" cy="1189.72" r="8.58955" stroke-width="0.5" stroke="black" fill="red"/>
  <circle cx="211.862" cy="1189.72" r="5.19175" stroke-width="0.5" stroke="red" fill="red"/>
   </g>
   <g id="cell131">
  <circle cx="244.38" cy="1447.32" r="8.38532" stroke-width="0.5" stroke="black" fill="grey"/>
  <circle cx="244.38" cy="1447.32" r="5.04199" stroke-width="0.5" stroke="grey" fill="grey"/>
   </g>
   <g id="cell132">
  <circle cx="1961.66" cy="781.634" r="8.6637" stroke-width="0.5" stroke="black" fill="grey"/>
  <circle cx="1961.66" cy="781.634" r="5.24481" stroke-width="0.5" stroke="grey" fill="grey"/>
   </g>
   <g id="cell133">
  <circle cx="251.971" cy="200.915" r="8.38454" stroke-width="0.5" stroke="black" fill="red"/>
  <circle cx="251.971" cy="200.915" r="5.04168" stroke-width="0.5" stroke="red" fill="red"/>
   </g>
   <g id="cell134">
  <circle cx="1343.14" cy="176.513" r="8.9033" stroke-width="0.5" stroke="black" fill="grey"/>
  <circle cx="1343.14" cy="176.513" r="5.4068" stroke-width="0.5" stroke="grey" fill="grey"/>
   </g>
   <g id="cell135">
  <circle cx="162.867" cy="1963.02" r="8.38454" stroke-width="0.5" stroke="black" fill="grey"/>
  <circle cx="162.867" cy="1963.02" r="5.04168" stroke-width="0.5" stroke="grey" fill="grey"/>
   </g>
   <g id="cell136">
  <circle cx="1720.22" cy="1904.59" r="8.38454" stroke-width="0.5" stroke="black" fill="red"/>
  <circle cx="1720.22" cy="1904.59" r="5.04168" stroke-width="0.5" stroke="red" fill="red"/>
   </g>
   <g id="cell137">
  <circle cx="770.423" cy="1828.45" r="8.48422" stroke-width="0.5" stroke="black" fill="red"/>
  <circle cx="770.423" cy="1828.45" r="5.11537" stroke-width="0.5" stroke="red" fill="red"/>
   </g>
   <g id="cell138">
  <circle cx="322.658" cy="1632.12" r="8.38373" stroke-width="0.5" stroke="black" fill="red"/>
  <circle cx="322.658" cy="1632.12" r="5.04136" stroke-width="0.5" stroke="red" fill="red"/>
   </g>
   <g id="cell139">
  <circle cx="1417.67" cy="1670.28" r="8.78054" stroke-width="0.5" stroke="black" fill="red"/>
  <circle cx="1417.67" cy="1670.28" r="5.32564" stroke-width="0.5" stroke="red" fill="red"/>
   </g>
   <g id="cell140">
  <circle cx="1586.61" cy="1029.99" r="8.38118" stroke-width="0.5" stroke="black" fill="grey"/>
  <circle cx="1586.61" cy="1029.99" r="5.04034" stroke-width="0.5" stroke="grey" fill="grey"/>
   </g>
   <g id="cell141">
  <circle cx="1664.3" cy="58.5803" r="8.38118" stroke-width="0.5" stroke="black" fill="grey"/>
  <circle cx="1664.3" cy="58.5803" r="5.04034" stroke-width="0.5" stroke="grey" fill="grey"/>
   </g>
   <g id="cell142">
  <circle cx="1433.57" cy="617.945" r="8.38028" stroke-width="0.5" stroke="black" fill="red"/>
  <circle cx="1433.57" cy="617.945" r="5.03997" stroke-width="0.5" stroke="red" fill="red"/>
   </g>
   <g id="cell143">
  <circle cx="630.27" cy="956.989" r="8.37935" stroke-width="0.5" stroke="black" fill="red"/>
  <circle cx="630.27" cy="956.989" r="5.0396" stroke-width="0.5" stroke="red" fill="red"/>
   </g>
   <g id="cell144">
  <circle cx="1184.78" cy="266.927" r="8.37935" stroke-width="0.5" stroke="black" fill="grey"/>
  <circle cx="1184.78" cy="266.927" r="5.0396" stroke-width="0.5" stroke="grey" fill="grey"/>
   </g>
   <g id="cell145">
  <circle cx="282.209" cy="1548.49" r="8.37935" stroke-width="0.5" stroke="black" fill="grey"/>
  <circle cx="282.209" cy="1548.49" r="5.0396" stroke-width="0.5" stroke="grey" fill="grey"/>
   </g>
   <g id="cell146">
  <circle cx="759.134" cy="178.887" r="8.37742" stroke-width="0.5" stroke="black" fill="red"/>
  <circle cx="759.134" cy="178.887" r="5.03881" stroke-width="0.5" stroke="red" fill="red"/>
   </g>
   <g id="cell147">
  <circle cx="1111.37" cy="1893.44" r="8.37641" stroke-width="0.5" stroke="black" fill="red"/>
  <circle cx="1111.37" cy="1893.44" r="5.0384" stroke-width="0.5" stroke="red" fill="red"/>
   </g>
   <g id="cell148">
  <circle cx="1192.53" cy="924.605" r="8.37641" stroke-width="0.5" stroke="black" fill="grey"/>
  <circle cx="1192.53" cy="924.605" r="5.0384" stroke-width="0.5" stroke="grey" fill="grey"/>
   </g>
   <g id="cell149">
  <circle cx="663.553" cy="32.2543" r="8.39534" stroke-width="0.5" stroke="black" fill="red"/>
  <circle cx="663.553" cy="32.2543" r="5.0519" stroke-width="0.5" stroke="red" fill="red"/>
   </g>
   <g id="cell150">
  <circle cx="1195.53" cy="1095.29" r="8.37537" stroke-width="0.5" stroke="black" fill="red"/>
  <circle cx="1195.53" cy="1095.29" r="5.03798" stroke-width="0.5" stroke="red" fill="red"/>
   </g>
   <g id="cell151">
  <circle cx="934.298" cy="165.57" r="8.37537" stroke-width="0.5" stroke="black" fill="red"/>
  <circle cx="934.298" cy="165.57" r="5.03798" stroke-width="0.5" stroke="red" fill="red"/>
   </g>
   <g id="cell152">
  <circle cx="1223.76" cy="1706.79" r="8.37321" stroke-width="0.5" stroke="black" fill="grey"/>
  <circle cx="1223.76" cy="1706.79" r="5.03708" stroke-width="0.5" stroke="grey" fill="grey"/>
   </g>
   <g id="cell153">
  <circle cx="927.788" cy="1480.24" r="8.37321" stroke-width="0.5" stroke="black" fill="grey"/>
  <circle cx="927.788" cy="1480.24" r="5.03708" stroke-width="0.5" stroke="grey" fill="grey"/>
   </g>
   <g id="cell154">
  <circle cx="165.531" cy="833.982" r="8.37208" stroke-width="0.5" stroke="black" fill="red"/>
  <circle cx="165.531" cy="833.982" r="5.03661" stroke-width="0.5" stroke="red" fill="red"/>
   </g>
   <g id="cell155">
  <circle cx="563.178" cy="800.21" r="8.37092" stroke-width="0.5" stroke="black" fill="red"/>
  <circle cx="563.178" cy="800.21" r="5.03613" stroke-width="0.5" stroke="red" fill="red"/>
   </g>
   <g id="cell156">
  <circle cx="1058.26" cy="1528.19" r="8.37092" stroke-width="0.5" stroke="black" fill="grey"/>
  <circle cx="1058.26" cy="1528.19" r="5.03613" stroke-width="0.5" stroke="grey" fill="grey"/>
   </g>
   <g id="cell157">
  <circle cx="1246.23" cy="1297.17" r="8.36849" stroke-width="0.5" stroke="black" fill="grey"/>
  <circle cx="1246.23" cy="1297.17" r="5.03512" stroke-width="0.5" stroke="grey" fill="grey"/>
   </g>
   <g id="cell158">
  <circle cx="1953.36" cy="1303.4" r="8.36722" stroke-width="0.5" stroke="black" fill="grey"/>
  <circle cx="1953.36" cy="1303.4" r="5.03458" stroke-width="0.5" stroke="grey" fill="grey"/>
   </g>
   <g id="cell159">
  <circle cx="29.4553" cy="271.466" r="8.36592" stroke-width="0.5" stroke="black" fill="red"/>
  <circle cx="29.4553" cy="271.466" r="5.03403" stroke-width="0.5" stroke="red" fill="red"/>
   </g>
  </g>
 </g>
  <rect x="1750" y="2070" width="200" height="20" stroke-width="4" stroke="rgb(255,255,255)" fill="rgb(0,0,0)"/>
  <text x="1762.5" y="2057.5"
   font-family="Arial" font-size="50" fill="black" >
   200 &#956;m
  </text>
  <text x="50" y="2090"
   font-family="Arial" font-size="37.5" fill="black" >
   0 days, 0 hours, 0 minutes, and 25.9135 seconds
  </text>
  <rect x="0" y="140" width="2000" height="2000" stroke-width="4" stroke="rgb(0,0,0)" fill="none"/>
</svg>
