<?xml version="1.0" encoding="UTF-8" standalone="no"?>
<!-- Created with PhysiCell (http://PhysiCell.MathCancer.org/) -->
<svg 
 xmlns:dc="http://purl.org/dc/elements/1.1/" 
 xmlns:cc="http://creativecommons.org/ns#" 
 xmlns:rdf="http://www.w3.org/1999/02/22-rdf-syntax-ns#" 
 xmlns:svg="http://www.w3.org/2000/svg" 
 xmlns="http://www.w3.org/2000/svg" 
 version="1.1" 
 width="2000" 
 height="2140" 
 id="svg2">
  <rect x="0" y="0" width="2000" height="2140" stroke-width="4" stroke="white" fill="white"/>
  <text x="25" y="60"
   font-family="Arial" font-size="50" fill="black" >
   Current time: 1 days, 21 hours, and 0.00 minutes, z = 0.00 &#956;m
  </text>
  <text x="25" y="115"
   font-family="Arial" font-size="47.5" fill="black" >
   35 agents
  </text>
 <g id="tissue" 
    transform="translate(0,2140) scale(1,-1)">
  <g id="ECM">
  </g>
  <g id="cells">
   <g id="cell0">
  <circle cx="1111.92" cy="1166" r="10.4481" stroke-width="0.5" stroke="black" fill="grey"/>
  <circle cx="1111.92" cy="1166" r="6.3009" stroke-width="0.5" stroke="grey" fill="grey"/>
   </g>
   <g id="cell1">
  <circle cx="1691.36" cy="1211.89" r="9.53179" stroke-width="0.5" stroke="black" fill="grey"/>
  <circle cx="1691.36" cy="1211.89" r="5.79442" stroke-width="0.5" stroke="grey" fill="grey"/>
   </g>
   <g id="cell2">
  <circle cx="1161.29" cy="1728" r="10.2425" stroke-width="0.5" stroke="black" fill="grey"/>
  <circle cx="1161.29" cy="1728" r="6.19729" stroke-width="0.5" stroke="grey" fill="grey"/>
   </g>
   <g id="cell3">
  <circle cx="1273.96" cy="1351.24" r="10.4565" stroke-width="0.5" stroke="black" fill="grey"/>
  <circle cx="1273.96" cy="1351.24" r="6.30488" stroke-width="0.5" stroke="grey" fill="grey"/>
   </g>
   <g id="cell4">
  <circle cx="878.231" cy="552.672" r="10.1358" stroke-width="0.5" stroke="black" fill="grey"/>
  <circle cx="878.231" cy="552.672" r="6.14039" stroke-width="0.5" stroke="grey" fill="grey"/>
   </g>
   <g id="cell5">
  <circle cx="108.245" cy="1987.38" r="10.1977" stroke-width="0.5" stroke="black" fill="red"/>
  <circle cx="108.245" cy="1987.38" r="6.17379" stroke-width="0.5" stroke="red" fill="red"/>
   </g>
   <g id="cell6">
  <circle cx="797.543" cy="860.659" r="8.4057" stroke-width="0.5" stroke="black" fill="red"/>
  <circle cx="797.543" cy="860.659" r="5.04956" stroke-width="0.5" stroke="red" fill="red"/>
   </g>
   <g id="cell19">
  <circle cx="1720.75" cy="1286.82" r="10.4559" stroke-width="0.5" stroke="black" fill="grey"/>
  <circle cx="1720.75" cy="1286.82" r="6.3047" stroke-width="0.5" stroke="grey" fill="grey"/>
   </g>
   <g id="cell18">
  <circle cx="1657.74" cy="299.515" r="8.91622" stroke-width="0.5" stroke="black" fill="red"/>
  <circle cx="1657.74" cy="299.515" r="5.41193" stroke-width="0.5" stroke="red" fill="red"/>
   </g>
   <g id="cell9">
  <circle cx="1667.95" cy="204.549" r="10.24" stroke-width="0.5" stroke="black" fill="red"/>
  <circle cx="1667.95" cy="204.549" r="6.1965" stroke-width="0.5" stroke="red" fill="red"/>
   </g>
   <g id="cell11">
  <circle cx="1587.3" cy="1070.35" r="8.38255" stroke-width="0.5" stroke="black" fill="red"/>
  <circle cx="1587.3" cy="1070.35" r="5.04094" stroke-width="0.5" stroke="red" fill="red"/>
   </g>
   <g id="cell20">
  <circle cx="859.575" cy="975.483" r="8.39014" stroke-width="0.5" stroke="black" fill="red"/>
  <circle cx="859.575" cy="975.483" r="5.04388" stroke-width="0.5" stroke="red" fill="red"/>
   </g>
   <g id="cell13">
  <circle cx="838.978" cy="602.736" r="9.99709" stroke-width="0.5" stroke="black" fill="grey"/>
  <circle cx="838.978" cy="602.736" r="6.06421" stroke-width="0.5" stroke="grey" fill="grey"/>
   </g>
   <g id="cell14">
  <circle cx="1183.34" cy="1289.81" r="10.1343" stroke-width="0.5" stroke="black" fill="grey"/>
  <circle cx="1183.34" cy="1289.81" r="6.13993" stroke-width="0.5" stroke="grey" fill="grey"/>
   </g>
   <g id="cell15">
  <circle cx="1138.49" cy="1150.73" r="10.148" stroke-width="0.5" stroke="black" fill="grey"/>
  <circle cx="1138.49" cy="1150.73" r="6.14722" stroke-width="0.5" stroke="grey" fill="grey"/>
   </g>
   <g id="cell16">
  <circle cx="1186.14" cy="1700.34" r="10.278" stroke-width="0.5" stroke="black" fill="grey"/>
  <circle cx="1186.14" cy="1700.34" r="6.21655" stroke-width="0.5" stroke="grey" fill="grey"/>
   </g>
   <g id="cell17">
  <circle cx="1092.32" cy="700.849" r="8.41119" stroke-width="0.5" stroke="black" fill="red"/>
  <circle cx="1092.32" cy="700.849" r="5.05128" stroke-width="0.5" stroke="red" fill="red"/>
   </g>
   <g id="cell21">
  <circle cx="1556.04" cy="1024.19" r="10.2906" stroke-width="0.5" stroke="black" fill="red"/>
  <circle cx="1556.04" cy="1024.19" r="6.22234" stroke-width="0.5" stroke="red" fill="red"/>
   </g>
   <g id="cell22">
  <circle cx="1186.4" cy="1744.28" r="9.12396" stroke-width="0.5" stroke="black" fill="grey"/>
  <circle cx="1186.4" cy="1744.28" r="5.54256" stroke-width="0.5" stroke="grey" fill="grey"/>
   </g>
   <g id="cell23">
  <circle cx="1246.77" cy="1315.33" r="8.41159" stroke-width="0.5" stroke="black" fill="grey"/>
  <circle cx="1246.77" cy="1315.33" r="5.05139" stroke-width="0.5" stroke="grey" fill="grey"/>
   </g>
   <g id="cell24">
  <circle cx="1146.88" cy="1202.27" r="10.4753" stroke-width="0.5" stroke="black" fill="grey"/>
  <circle cx="1146.88" cy="1202.27" r="6.31367" stroke-width="0.5" stroke="grey" fill="grey"/>
   </g>
   <g id="cell25">
  <circle cx="1118.31" cy="722.14" r="8.41119" stroke-width="0.5" stroke="black" fill="red"/>
  <circle cx="1118.31" cy="722.14" r="5.05128" stroke-width="0.5" stroke="red" fill="red"/>
   </g>
   <g id="cell26">
  <circle cx="1678.54" cy="1226.84" r="10.3733" stroke-width="0.5" stroke="black" fill="grey"/>
  <circle cx="1678.54" cy="1226.84" r="6.2646" stroke-width="0.5" stroke="grey" fill="grey"/>
   </g>
   <g id="cell27">
  <circle cx="904.634" cy="557.874" r="8.41036" stroke-width="0.5" stroke="black" fill="grey"/>
  <circle cx="904.634" cy="557.874" r="5.05104" stroke-width="0.5" stroke="grey" fill="grey"/>
   </g>
   <g id="cell28">
  <circle cx="103.712" cy="1959.3" r="9.77377" stroke-width="0.5" stroke="black" fill="red"/>
  <circle cx="103.712" cy="1959.3" r="5.93673" stroke-width="0.5" stroke="red" fill="red"/>
   </g>
   <g id="cell29">
  <circle cx="1118.2" cy="1121.33" r="10.3966" stroke-width="0.5" stroke="black" fill="grey"/>
  <circle cx="1118.2" cy="1121.33" r="6.27633" stroke-width="0.5" stroke="grey" fill="grey"/>
   </g>
   <g id="cell30">
  <circle cx="900.37" cy="602.49" r="9.90378" stroke-width="0.5" stroke="black" fill="grey"/>
  <circle cx="900.37" cy="602.49" r="6.01159" stroke-width="0.5" stroke="grey" fill="grey"/>
   </g>
   <g id="cell31">
  <circle cx="1155.95" cy="1305.27" r="10.0623" stroke-width="0.5" stroke="black" fill="grey"/>
  <circle cx="1155.95" cy="1305.27" r="6.10052" stroke-width="0.5" stroke="grey" fill="grey"/>
   </g>
   <g id="cell32">
  <circle cx="1654.1" cy="215.363" r="9.56135" stroke-width="0.5" stroke="black" fill="red"/>
  <circle cx="1654.1" cy="215.363" r="5.81209" stroke-width="0.5" stroke="red" fill="red"/>
   </g>
   <g id="cell33">
  <circle cx="1673.15" cy="1196.45" r="8.50778" stroke-width="0.5" stroke="black" fill="grey"/>
  <circle cx="1673.15" cy="1196.45" r="5.12412" stroke-width="0.5" stroke="grey" fill="grey"/>
   </g>
   <g id="cell34">
  <circle cx="1177.96" cy="1685.15" r="8.96299" stroke-width="0.5" stroke="black" fill="grey"/>
  <circle cx="1177.96" cy="1685.15" r="5.44057" stroke-width="0.5" stroke="grey" fill="grey"/>
   </g>
   <g id="cell35">
  <circle cx="766.362" cy="873.422" r="9.53011" stroke-width="0.5" stroke="black" fill="red"/>
  <circle cx="766.362" cy="873.422" r="5.79384" stroke-width="0.5" stroke="red" fill="red"/>
   </g>
   <g id="cell36">
  <circle cx="1674.81" cy="295.451" r="9.52499" stroke-width="0.5" stroke="black" fill="red"/>
  <circle cx="1674.81" cy="295.451" r="5.79196" stroke-width="0.5" stroke="red" fill="red"/>
   </g>
   <g id="cell37">
  <circle cx="820.412" cy="950.497" r="8.39014" stroke-width="0.5" stroke="black" fill="red"/>
  <circle cx="820.412" cy="950.497" r="5.04388" stroke-width="0.5" stroke="red" fill="red"/>
   </g>
   <g id="cell38">
  <circle cx="1586.6" cy="1055.53" r="8.38255" stroke-width="0.5" stroke="black" fill="red"/>
  <circle cx="1586.6" cy="1055.53" r="5.04094" stroke-width="0.5" stroke="red" fill="red"/>
   </g>
  </g>
 </g>
  <rect x="1750" y="2070" width="200" height="20" stroke-width="4" stroke="rgb(255,255,255)" fill="rgb(0,0,0)"/>
  <text x="1762.5" y="2057.5"
   font-family="Arial" font-size="50" fill="black" >
   200 &#956;m
  </text>
  <text x="50" y="2090"
   font-family="Arial" font-size="37.5" fill="black" >
   0 days, 0 hours, 0 minutes, and 58.4707 seconds
  </text>
  <rect x="0" y="140" width="2000" height="2000" stroke-width="4" stroke="rgb(0,0,0)" fill="none"/>
</svg>
