<?xml version="1.0" encoding="UTF-8" standalone="no"?>
<!-- Created with PhysiCell (http://PhysiCell.MathCancer.org/) -->
<svg 
 xmlns:dc="http://purl.org/dc/elements/1.1/" 
 xmlns:cc="http://creativecommons.org/ns#" 
 xmlns:rdf="http://www.w3.org/1999/02/22-rdf-syntax-ns#" 
 xmlns:svg="http://www.w3.org/2000/svg" 
 xmlns="http://www.w3.org/2000/svg" 
 version="1.1" 
 width="2000" 
 height="2140" 
 id="svg2">
  <rect x="0" y="0" width="2000" height="2140" stroke-width="4" stroke="white" fill="white"/>
  <text x="25" y="60"
   font-family="Arial" font-size="50" fill="black" >
   Current time: 0 days, 7 hours, and 50.00 minutes, z = 0.00 &#956;m
  </text>
  <text x="25" y="115"
   font-family="Arial" font-size="47.5" fill="black" >
   100 agents
  </text>
 <g id="tissue" 
    transform="translate(0,2140) scale(1,-1)">
  <g id="ECM">
  </g>
  <g id="cells">
   <g id="cell0">
  <circle cx="1112.89" cy="1163.62" r="9.70201" stroke-width="0.5" stroke="black" fill="grey"/>
  <circle cx="1112.89" cy="1163.62" r="5.89426" stroke-width="0.5" stroke="grey" fill="grey"/>
   </g>
   <g id="cell1">
  <circle cx="1688.07" cy="1170.23" r="9.2729" stroke-width="0.5" stroke="black" fill="grey"/>
  <circle cx="1688.07" cy="1170.23" r="5.63555" stroke-width="0.5" stroke="grey" fill="grey"/>
   </g>
   <g id="cell2">
  <circle cx="1122.43" cy="1719.2" r="9.99984" stroke-width="0.5" stroke="black" fill="grey"/>
  <circle cx="1122.43" cy="1719.2" r="6.06503" stroke-width="0.5" stroke="grey" fill="grey"/>
   </g>
   <g id="cell3">
  <circle cx="1241.94" cy="1283.72" r="10.2728" stroke-width="0.5" stroke="black" fill="grey"/>
  <circle cx="1241.94" cy="1283.72" r="6.21295" stroke-width="0.5" stroke="grey" fill="grey"/>
   </g>
   <g id="cell4">
  <circle cx="844.76" cy="614.445" r="10.0955" stroke-width="0.5" stroke="black" fill="grey"/>
  <circle cx="844.76" cy="614.445" r="6.11797" stroke-width="0.5" stroke="grey" fill="grey"/>
   </g>
   <g id="cell5">
  <circle cx="106.609" cy="1964.17" r="8.41271" stroke-width="0.5" stroke="black" fill="grey"/>
  <circle cx="106.609" cy="1964.17" r="5.05167" stroke-width="0.5" stroke="grey" fill="grey"/>
   </g>
   <g id="cell6">
  <circle cx="784.765" cy="925.856" r="9.84395" stroke-width="0.5" stroke="black" fill="grey"/>
  <circle cx="784.765" cy="925.856" r="5.97665" stroke-width="0.5" stroke="grey" fill="grey"/>
   </g>
   <g id="cell7">
  <circle cx="1631.85" cy="1062.5" r="10.0806" stroke-width="0.5" stroke="black" fill="grey"/>
  <circle cx="1631.85" cy="1062.5" r="6.10985" stroke-width="0.5" stroke="grey" fill="grey"/>
   </g>
   <g id="cell8">
  <circle cx="1125.34" cy="781.683" r="9.86542" stroke-width="0.5" stroke="black" fill="grey"/>
  <circle cx="1125.34" cy="781.683" r="5.98895" stroke-width="0.5" stroke="grey" fill="grey"/>
   </g>
   <g id="cell9">
  <circle cx="1692.83" cy="147.201" r="8.88811" stroke-width="0.5" stroke="black" fill="grey"/>
  <circle cx="1692.83" cy="147.201" r="5.38958" stroke-width="0.5" stroke="grey" fill="grey"/>
   </g>
   <g id="cell10">
  <circle cx="165.608" cy="1281.55" r="10.2433" stroke-width="0.5" stroke="black" fill="grey"/>
  <circle cx="165.608" cy="1281.55" r="6.19748" stroke-width="0.5" stroke="grey" fill="grey"/>
   </g>
   <g id="cell11">
  <circle cx="713.956" cy="1685.49" r="9.7273" stroke-width="0.5" stroke="black" fill="grey"/>
  <circle cx="713.956" cy="1685.49" r="5.90906" stroke-width="0.5" stroke="grey" fill="grey"/>
   </g>
   <g id="cell12">
  <circle cx="1543.59" cy="338.139" r="10.0169" stroke-width="0.5" stroke="black" fill="grey"/>
  <circle cx="1543.59" cy="338.139" r="6.07458" stroke-width="0.5" stroke="grey" fill="grey"/>
   </g>
   <g id="cell13">
  <circle cx="1768.95" cy="1958.39" r="8.51252" stroke-width="0.5" stroke="black" fill="grey"/>
  <circle cx="1768.95" cy="1958.39" r="5.12552" stroke-width="0.5" stroke="grey" fill="grey"/>
   </g>
   <g id="cell14">
  <circle cx="1582.65" cy="1574.75" r="9.64936" stroke-width="0.5" stroke="black" fill="grey"/>
  <circle cx="1582.65" cy="1574.75" r="5.86329" stroke-width="0.5" stroke="grey" fill="grey"/>
   </g>
   <g id="cell15">
  <circle cx="1027.18" cy="1595.99" r="10.2328" stroke-width="0.5" stroke="black" fill="grey"/>
  <circle cx="1027.18" cy="1595.99" r="6.19197" stroke-width="0.5" stroke="grey" fill="grey"/>
   </g>
   <g id="cell16">
  <circle cx="230.221" cy="1453.21" r="10.2328" stroke-width="0.5" stroke="black" fill="grey"/>
  <circle cx="230.221" cy="1453.21" r="6.19197" stroke-width="0.5" stroke="grey" fill="grey"/>
   </g>
   <g id="cell17">
  <circle cx="1187.26" cy="295.433" r="10.2328" stroke-width="0.5" stroke="black" fill="grey"/>
  <circle cx="1187.26" cy="295.433" r="6.19197" stroke-width="0.5" stroke="grey" fill="grey"/>
   </g>
   <g id="cell18">
  <circle cx="1873.28" cy="1542.73" r="8.41271" stroke-width="0.5" stroke="black" fill="grey"/>
  <circle cx="1873.28" cy="1542.73" r="5.05167" stroke-width="0.5" stroke="grey" fill="grey"/>
   </g>
   <g id="cell19">
  <circle cx="190.489" cy="847.455" r="8.41271" stroke-width="0.5" stroke="black" fill="grey"/>
  <circle cx="190.489" cy="847.455" r="5.05167" stroke-width="0.5" stroke="grey" fill="grey"/>
   </g>
   <g id="cell20">
  <circle cx="546.014" cy="367.03" r="10.1506" stroke-width="0.5" stroke="black" fill="grey"/>
  <circle cx="546.014" cy="367.03" r="6.14798" stroke-width="0.5" stroke="grey" fill="grey"/>
   </g>
   <g id="cell21">
  <circle cx="1450.25" cy="927.976" r="9.84395" stroke-width="0.5" stroke="black" fill="grey"/>
  <circle cx="1450.25" cy="927.976" r="5.97665" stroke-width="0.5" stroke="grey" fill="grey"/>
   </g>
   <g id="cell22">
  <circle cx="1168.84" cy="232.576" r="10.211" stroke-width="0.5" stroke="black" fill="grey"/>
  <circle cx="1168.84" cy="232.576" r="6.18041" stroke-width="0.5" stroke="grey" fill="grey"/>
   </g>
   <g id="cell23">
  <circle cx="635.313" cy="1223.18" r="10.1634" stroke-width="0.5" stroke="black" fill="grey"/>
  <circle cx="635.313" cy="1223.18" r="6.1549" stroke-width="0.5" stroke="grey" fill="grey"/>
   </g>
   <g id="cell24">
  <circle cx="1233.49" cy="441.016" r="2.11603" stroke-width="0.5" stroke="black" fill="grey"/>
  <circle cx="1233.49" cy="441.016" r="1.97902" stroke-width="0.5" stroke="black" fill="black"/>
   </g>
   <g id="cell25">
  <circle cx="745.99" cy="1901.26" r="10.1758" stroke-width="0.5" stroke="black" fill="grey"/>
  <circle cx="745.99" cy="1901.26" r="6.16159" stroke-width="0.5" stroke="grey" fill="grey"/>
   </g>
   <g id="cell26">
  <circle cx="1386.93" cy="914.657" r="8.41271" stroke-width="0.5" stroke="black" fill="grey"/>
  <circle cx="1386.93" cy="914.657" r="5.05167" stroke-width="0.5" stroke="grey" fill="grey"/>
   </g>
   <g id="cell27">
  <circle cx="1223.3" cy="834.062" r="10.0806" stroke-width="0.5" stroke="black" fill="grey"/>
  <circle cx="1223.3" cy="834.062" r="6.10985" stroke-width="0.5" stroke="grey" fill="grey"/>
   </g>
   <g id="cell28">
  <circle cx="1397.34" cy="202.228" r="10.2632" stroke-width="0.5" stroke="black" fill="grey"/>
  <circle cx="1397.34" cy="202.228" r="6.20796" stroke-width="0.5" stroke="grey" fill="grey"/>
   </g>
   <g id="cell29">
  <circle cx="1924.67" cy="1343.82" r="10.2632" stroke-width="0.5" stroke="black" fill="grey"/>
  <circle cx="1924.67" cy="1343.82" r="6.20796" stroke-width="0.5" stroke="grey" fill="grey"/>
   </g>
   <g id="cell30">
  <circle cx="1350.65" cy="355.768" r="8.61424" stroke-width="0.5" stroke="black" fill="grey"/>
  <circle cx="1350.65" cy="355.768" r="5.20061" stroke-width="0.5" stroke="grey" fill="grey"/>
   </g>
   <g id="cell31">
  <circle cx="707.519" cy="283.579" r="9.62199" stroke-width="0.5" stroke="black" fill="grey"/>
  <circle cx="707.519" cy="283.579" r="5.8471" stroke-width="0.5" stroke="grey" fill="grey"/>
   </g>
   <g id="cell32">
  <circle cx="670.666" cy="1199.32" r="10.3166" stroke-width="0.5" stroke="black" fill="grey"/>
  <circle cx="670.666" cy="1199.32" r="6.23561" stroke-width="0.5" stroke="grey" fill="grey"/>
   </g>
   <g id="cell33">
  <circle cx="639.496" cy="1138.77" r="8.88811" stroke-width="0.5" stroke="black" fill="grey"/>
  <circle cx="639.496" cy="1138.77" r="5.38958" stroke-width="0.5" stroke="grey" fill="grey"/>
   </g>
   <g id="cell34">
  <circle cx="875.778" cy="1287.04" r="9.75192" stroke-width="0.5" stroke="black" fill="grey"/>
  <circle cx="875.778" cy="1287.04" r="5.92342" stroke-width="0.5" stroke="grey" fill="grey"/>
   </g>
   <g id="cell35">
  <circle cx="1912.21" cy="177.152" r="9.00806" stroke-width="0.5" stroke="black" fill="grey"/>
  <circle cx="1912.21" cy="177.152" r="5.46807" stroke-width="0.5" stroke="grey" fill="grey"/>
   </g>
   <g id="cell36">
  <circle cx="407.087" cy="1246.73" r="10.1634" stroke-width="0.5" stroke="black" fill="grey"/>
  <circle cx="407.087" cy="1246.73" r="6.1549" stroke-width="0.5" stroke="grey" fill="grey"/>
   </g>
   <g id="cell37">
  <circle cx="1977.68" cy="1364.24" r="9.96412" stroke-width="0.5" stroke="black" fill="grey"/>
  <circle cx="1977.68" cy="1364.24" r="6.04499" stroke-width="0.5" stroke="grey" fill="grey"/>
   </g>
   <g id="cell38">
  <circle cx="519.943" cy="861.849" r="8.41271" stroke-width="0.5" stroke="black" fill="grey"/>
  <circle cx="519.943" cy="861.849" r="5.05167" stroke-width="0.5" stroke="grey" fill="grey"/>
   </g>
   <g id="cell39">
  <circle cx="938.001" cy="477.201" r="10.0169" stroke-width="0.5" stroke="black" fill="grey"/>
  <circle cx="938.001" cy="477.201" r="6.07458" stroke-width="0.5" stroke="grey" fill="grey"/>
   </g>
   <g id="cell40">
  <circle cx="336.488" cy="657.611" r="9.99984" stroke-width="0.5" stroke="black" fill="grey"/>
  <circle cx="336.488" cy="657.611" r="6.06503" stroke-width="0.5" stroke="grey" fill="grey"/>
   </g>
   <g id="cell41">
  <circle cx="1337.5" cy="1317.51" r="9.5053" stroke-width="0.5" stroke="black" fill="grey"/>
  <circle cx="1337.5" cy="1317.51" r="5.77744" stroke-width="0.5" stroke="grey" fill="grey"/>
   </g>
   <g id="cell42">
  <circle cx="239.338" cy="1556.9" r="8.41271" stroke-width="0.5" stroke="black" fill="grey"/>
  <circle cx="239.338" cy="1556.9" r="5.05167" stroke-width="0.5" stroke="grey" fill="grey"/>
   </g>
   <g id="cell43">
  <circle cx="1878.91" cy="738.094" r="8.41271" stroke-width="0.5" stroke="black" fill="grey"/>
  <circle cx="1878.91" cy="738.094" r="5.05167" stroke-width="0.5" stroke="grey" fill="grey"/>
   </g>
   <g id="cell44">
  <circle cx="1628.39" cy="39.3977" r="9.90658" stroke-width="0.5" stroke="black" fill="grey"/>
  <circle cx="1628.39" cy="39.3977" r="6.01243" stroke-width="0.5" stroke="grey" fill="grey"/>
   </g>
   <g id="cell45">
  <circle cx="1227.21" cy="1654.37" r="8.41271" stroke-width="0.5" stroke="black" fill="grey"/>
  <circle cx="1227.21" cy="1654.37" r="5.05167" stroke-width="0.5" stroke="grey" fill="grey"/>
   </g>
   <g id="cell46">
  <circle cx="177.662" cy="1896.09" r="8.88811" stroke-width="0.5" stroke="black" fill="grey"/>
  <circle cx="177.662" cy="1896.09" r="5.38958" stroke-width="0.5" stroke="grey" fill="grey"/>
   </g>
   <g id="cell47">
  <circle cx="1761.19" cy="964.879" r="10.1758" stroke-width="0.5" stroke="black" fill="grey"/>
  <circle cx="1761.19" cy="964.879" r="6.16159" stroke-width="0.5" stroke="grey" fill="grey"/>
   </g>
   <g id="cell48">
  <circle cx="1963.44" cy="96.4093" r="10.211" stroke-width="0.5" stroke="black" fill="grey"/>
  <circle cx="1963.44" cy="96.4093" r="6.18041" stroke-width="0.5" stroke="grey" fill="grey"/>
   </g>
   <g id="cell49">
  <circle cx="865.5" cy="1447.88" r="10.2911" stroke-width="0.5" stroke="black" fill="grey"/>
  <circle cx="865.5" cy="1447.88" r="6.22246" stroke-width="0.5" stroke="grey" fill="grey"/>
   </g>
   <g id="cell50">
  <circle cx="67.9322" cy="891.26" r="10.3166" stroke-width="0.5" stroke="black" fill="red"/>
  <circle cx="67.9322" cy="891.26" r="6.23561" stroke-width="0.5" stroke="red" fill="red"/>
   </g>
   <g id="cell51">
  <circle cx="1962.05" cy="244.572" r="8.57856" stroke-width="0.5" stroke="black" fill="red"/>
  <circle cx="1962.05" cy="244.572" r="5.17461" stroke-width="0.5" stroke="red" fill="red"/>
   </g>
   <g id="cell52">
  <circle cx="589.344" cy="985.381" r="9.92631" stroke-width="0.5" stroke="black" fill="red"/>
  <circle cx="589.344" cy="985.381" r="6.02363" stroke-width="0.5" stroke="red" fill="red"/>
   </g>
   <g id="cell53">
  <circle cx="1339.57" cy="615.745" r="10.2821" stroke-width="0.5" stroke="black" fill="red"/>
  <circle cx="1339.57" cy="615.745" r="6.21778" stroke-width="0.5" stroke="red" fill="red"/>
   </g>
   <g id="cell54">
  <circle cx="782.099" cy="1826.61" r="10.3166" stroke-width="0.5" stroke="black" fill="red"/>
  <circle cx="782.099" cy="1826.61" r="6.23561" stroke-width="0.5" stroke="red" fill="red"/>
   </g>
   <g id="cell55">
  <circle cx="413.196" cy="1377.23" r="10.1634" stroke-width="0.5" stroke="black" fill="red"/>
  <circle cx="413.196" cy="1377.23" r="6.1549" stroke-width="0.5" stroke="red" fill="red"/>
   </g>
   <g id="cell56">
  <circle cx="1159.35" cy="1710.19" r="8.41271" stroke-width="0.5" stroke="black" fill="red"/>
  <circle cx="1159.35" cy="1710.19" r="5.05167" stroke-width="0.5" stroke="red" fill="red"/>
   </g>
   <g id="cell57">
  <circle cx="1014.63" cy="1035.09" r="8.41271" stroke-width="0.5" stroke="black" fill="red"/>
  <circle cx="1014.63" cy="1035.09" r="5.05167" stroke-width="0.5" stroke="red" fill="red"/>
   </g>
   <g id="cell58">
  <circle cx="169.711" cy="1812.37" r="10.1374" stroke-width="0.5" stroke="black" fill="red"/>
  <circle cx="169.711" cy="1812.37" r="6.14084" stroke-width="0.5" stroke="red" fill="red"/>
   </g>
   <g id="cell59">
  <circle cx="171.722" cy="1844.99" r="2.39043" stroke-width="0.5" stroke="black" fill="red"/>
  <circle cx="171.722" cy="1844.99" r="2.2417" stroke-width="0.5" stroke="black" fill="black"/>
   </g>
   <g id="cell60">
  <circle cx="658.402" cy="50.8183" r="10.2632" stroke-width="0.5" stroke="black" fill="red"/>
  <circle cx="658.402" cy="50.8183" r="6.20796" stroke-width="0.5" stroke="red" fill="red"/>
   </g>
   <g id="cell61">
  <circle cx="1679.49" cy="289.252" r="9.84395" stroke-width="0.5" stroke="black" fill="red"/>
  <circle cx="1679.49" cy="289.252" r="5.97665" stroke-width="0.5" stroke="red" fill="red"/>
   </g>
   <g id="cell62">
  <circle cx="1436.32" cy="1669.68" r="9.20015" stroke-width="0.5" stroke="black" fill="red"/>
  <circle cx="1436.32" cy="1669.68" r="5.59022" stroke-width="0.5" stroke="red" fill="red"/>
   </g>
   <g id="cell63">
  <circle cx="525.177" cy="346.159" r="8.41271" stroke-width="0.5" stroke="black" fill="red"/>
  <circle cx="525.177" cy="346.159" r="5.05167" stroke-width="0.5" stroke="red" fill="red"/>
   </g>
   <g id="cell64">
  <circle cx="1160.59" cy="1114.31" r="9.23685" stroke-width="0.5" stroke="black" fill="red"/>
  <circle cx="1160.59" cy="1114.31" r="5.61315" stroke-width="0.5" stroke="red" fill="red"/>
   </g>
   <g id="cell65">
  <circle cx="367.482" cy="1643.17" r="10.1634" stroke-width="0.5" stroke="black" fill="red"/>
  <circle cx="367.482" cy="1643.17" r="6.1549" stroke-width="0.5" stroke="red" fill="red"/>
   </g>
   <g id="cell66">
  <circle cx="24.2009" cy="307.908" r="9.84395" stroke-width="0.5" stroke="black" fill="red"/>
  <circle cx="24.2009" cy="307.908" r="5.97665" stroke-width="0.5" stroke="red" fill="red"/>
   </g>
   <g id="cell67">
  <circle cx="1103.9" cy="545.98" r="9.62199" stroke-width="0.5" stroke="black" fill="red"/>
  <circle cx="1103.9" cy="545.98" r="5.8471" stroke-width="0.5" stroke="red" fill="red"/>
   </g>
   <g id="cell68">
  <circle cx="1465.67" cy="593.383" r="10.1506" stroke-width="0.5" stroke="black" fill="red"/>
  <circle cx="1465.67" cy="593.383" r="6.14798" stroke-width="0.5" stroke="red" fill="red"/>
   </g>
   <g id="cell69">
  <circle cx="886.763" cy="528.758" r="8.41271" stroke-width="0.5" stroke="black" fill="red"/>
  <circle cx="886.763" cy="528.758" r="5.05167" stroke-width="0.5" stroke="red" fill="red"/>
   </g>
   <g id="cell70">
  <circle cx="1173.12" cy="807.142" r="10.0336" stroke-width="0.5" stroke="black" fill="red"/>
  <circle cx="1173.12" cy="807.142" r="6.08382" stroke-width="0.5" stroke="red" fill="red"/>
   </g>
   <g id="cell71">
  <circle cx="1771.72" cy="1121.11" r="9.90658" stroke-width="0.5" stroke="black" fill="red"/>
  <circle cx="1771.72" cy="1121.11" r="6.01243" stroke-width="0.5" stroke="red" fill="red"/>
   </g>
   <g id="cell72">
  <circle cx="450.243" cy="1814.81" r="8.84788" stroke-width="0.5" stroke="black" fill="red"/>
  <circle cx="450.243" cy="1814.81" r="5.36278" stroke-width="0.5" stroke="red" fill="red"/>
   </g>
   <g id="cell73">
  <circle cx="1409.86" cy="895.508" r="10.1996" stroke-width="0.5" stroke="black" fill="red"/>
  <circle cx="1409.86" cy="895.508" r="6.17434" stroke-width="0.5" stroke="red" fill="red"/>
   </g>
   <g id="cell74">
  <circle cx="1693.22" cy="1923.66" r="10.1879" stroke-width="0.5" stroke="black" fill="red"/>
  <circle cx="1693.22" cy="1923.66" r="6.16807" stroke-width="0.5" stroke="red" fill="red"/>
   </g>
   <g id="cell75">
  <circle cx="202.079" cy="601.255" r="8.41271" stroke-width="0.5" stroke="black" fill="red"/>
  <circle cx="202.079" cy="601.255" r="5.05167" stroke-width="0.5" stroke="red" fill="red"/>
   </g>
   <g id="cell76">
  <circle cx="1605.45" cy="834.923" r="9.62199" stroke-width="0.5" stroke="black" fill="red"/>
  <circle cx="1605.45" cy="834.923" r="5.8471" stroke-width="0.5" stroke="red" fill="red"/>
   </g>
   <g id="cell77">
  <circle cx="1368.49" cy="1753.54" r="9.30826" stroke-width="0.5" stroke="black" fill="red"/>
  <circle cx="1368.49" cy="1753.54" r="5.65742" stroke-width="0.5" stroke="red" fill="red"/>
   </g>
   <g id="cell78">
  <circle cx="1211.79" cy="641.571" r="9.30826" stroke-width="0.5" stroke="black" fill="red"/>
  <circle cx="1211.79" cy="641.571" r="5.65742" stroke-width="0.5" stroke="red" fill="red"/>
   </g>
   <g id="cell79">
  <circle cx="1929.04" cy="1385.86" r="8.41271" stroke-width="0.5" stroke="black" fill="red"/>
  <circle cx="1929.04" cy="1385.86" r="5.05167" stroke-width="0.5" stroke="red" fill="red"/>
   </g>
   <g id="cell80">
  <circle cx="1429.89" cy="1277.08" r="9.90658" stroke-width="0.5" stroke="black" fill="red"/>
  <circle cx="1429.89" cy="1277.08" r="6.01243" stroke-width="0.5" stroke="red" fill="red"/>
   </g>
   <g id="cell81">
  <circle cx="1073.97" cy="1890.12" r="2.48062" stroke-width="0.5" stroke="black" fill="red"/>
  <circle cx="1073.97" cy="1890.12" r="2.28314" stroke-width="0.5" stroke="black" fill="black"/>
   </g>
   <g id="cell82">
  <circle cx="1257.56" cy="777.556" r="9.96412" stroke-width="0.5" stroke="black" fill="red"/>
  <circle cx="1257.56" cy="777.556" r="6.04499" stroke-width="0.5" stroke="red" fill="red"/>
   </g>
   <g id="cell83">
  <circle cx="1261.93" cy="1237.66" r="9.16281" stroke-width="0.5" stroke="black" fill="red"/>
  <circle cx="1261.93" cy="1237.66" r="5.56677" stroke-width="0.5" stroke="red" fill="red"/>
   </g>
   <g id="cell84">
  <circle cx="26.7009" cy="949.929" r="10.2534" stroke-width="0.5" stroke="black" fill="red"/>
  <circle cx="26.7009" cy="949.929" r="6.2028" stroke-width="0.5" stroke="red" fill="red"/>
   </g>
   <g id="cell85">
  <circle cx="1421.05" cy="1290.18" r="8.51252" stroke-width="0.5" stroke="black" fill="red"/>
  <circle cx="1421.05" cy="1290.18" r="5.12552" stroke-width="0.5" stroke="red" fill="red"/>
   </g>
   <g id="cell86">
  <circle cx="586.182" cy="795.676" r="8.41271" stroke-width="0.5" stroke="black" fill="red"/>
  <circle cx="586.182" cy="795.676" r="5.05167" stroke-width="0.5" stroke="red" fill="red"/>
   </g>
   <g id="cell87">
  <circle cx="1488.98" cy="878.376" r="9.84395" stroke-width="0.5" stroke="black" fill="red"/>
  <circle cx="1488.98" cy="878.376" r="5.97665" stroke-width="0.5" stroke="red" fill="red"/>
   </g>
   <g id="cell88">
  <circle cx="287.028" cy="191.608" r="9.90658" stroke-width="0.5" stroke="black" fill="red"/>
  <circle cx="287.028" cy="191.608" r="6.01243" stroke-width="0.5" stroke="red" fill="red"/>
   </g>
   <g id="cell89">
  <circle cx="181.937" cy="1158.56" r="8.41271" stroke-width="0.5" stroke="black" fill="red"/>
  <circle cx="181.937" cy="1158.56" r="5.05167" stroke-width="0.5" stroke="red" fill="red"/>
   </g>
   <g id="cell90">
  <circle cx="1173.96" cy="1103.14" r="8.41271" stroke-width="0.5" stroke="black" fill="red"/>
  <circle cx="1173.96" cy="1103.14" r="5.05167" stroke-width="0.5" stroke="red" fill="red"/>
   </g>
   <g id="cell91">
  <circle cx="44.7904" cy="1288.03" r="8.41271" stroke-width="0.5" stroke="black" fill="red"/>
  <circle cx="44.7904" cy="1288.03" r="5.05167" stroke-width="0.5" stroke="red" fill="red"/>
   </g>
   <g id="cell92">
  <circle cx="1263.52" cy="645.687" r="10.3166" stroke-width="0.5" stroke="black" fill="red"/>
  <circle cx="1263.52" cy="645.687" r="6.23561" stroke-width="0.5" stroke="red" fill="red"/>
   </g>
   <g id="cell93">
  <circle cx="436.915" cy="1796.01" r="9.44256" stroke-width="0.5" stroke="black" fill="red"/>
  <circle cx="436.915" cy="1796.01" r="5.73955" stroke-width="0.5" stroke="red" fill="red"/>
   </g>
   <g id="cell94">
  <circle cx="755.594" cy="203.768" r="10.0654" stroke-width="0.5" stroke="black" fill="red"/>
  <circle cx="755.594" cy="203.768" r="6.10145" stroke-width="0.5" stroke="red" fill="red"/>
   </g>
   <g id="cell95">
  <circle cx="1981.83" cy="1756.84" r="9.99984" stroke-width="0.5" stroke="black" fill="red"/>
  <circle cx="1981.83" cy="1756.84" r="6.06503" stroke-width="0.5" stroke="red" fill="red"/>
   </g>
   <g id="cell96">
  <circle cx="1619.24" cy="1102.54" r="10.1374" stroke-width="0.5" stroke="black" fill="red"/>
  <circle cx="1619.24" cy="1102.54" r="6.14084" stroke-width="0.5" stroke="red" fill="red"/>
   </g>
   <g id="cell97">
  <circle cx="875.382" cy="202.267" r="10.2728" stroke-width="0.5" stroke="black" fill="red"/>
  <circle cx="875.382" cy="202.267" r="6.21295" stroke-width="0.5" stroke="red" fill="red"/>
   </g>
   <g id="cell98">
  <circle cx="1812.49" cy="692.814" r="10.2999" stroke-width="0.5" stroke="black" fill="red"/>
  <circle cx="1812.49" cy="692.814" r="6.22699" stroke-width="0.5" stroke="red" fill="red"/>
   </g>
   <g id="cell99">
  <circle cx="921.906" cy="1971.28" r="10.3084" stroke-width="0.5" stroke="black" fill="red"/>
  <circle cx="921.906" cy="1971.28" r="6.23137" stroke-width="0.5" stroke="red" fill="red"/>
   </g>
  </g>
 </g>
  <rect x="1750" y="2070" width="200" height="20" stroke-width="4" stroke="rgb(255,255,255)" fill="rgb(0,0,0)"/>
  <text x="1762.5" y="2057.5"
   font-family="Arial" font-size="50" fill="black" >
   200 &#956;m
  </text>
  <text x="50" y="2090"
   font-family="Arial" font-size="37.5" fill="black" >
   0 days, 0 hours, 0 minutes, and 11.6900 seconds
  </text>
  <rect x="0" y="140" width="2000" height="2000" stroke-width="4" stroke="rgb(0,0,0)" fill="none"/>
</svg>
