<?xml version="1.0" encoding="UTF-8" standalone="no"?>
<!-- Created with PhysiCell (http://PhysiCell.MathCancer.org/) -->
<svg 
 xmlns:dc="http://purl.org/dc/elements/1.1/" 
 xmlns:cc="http://creativecommons.org/ns#" 
 xmlns:rdf="http://www.w3.org/1999/02/22-rdf-syntax-ns#" 
 xmlns:svg="http://www.w3.org/2000/svg" 
 xmlns="http://www.w3.org/2000/svg" 
 version="1.1" 
 width="2000" 
 height="2140" 
 id="svg2">
  <rect x="0" y="0" width="2000" height="2140" stroke-width="4" stroke="white" fill="white"/>
  <text x="25" y="60"
   font-family="Arial" font-size="50" fill="black" >
   Current time: 0 days, 18 hours, and 0.00 minutes, z = 0.00 &#956;m
  </text>
  <text x="25" y="115"
   font-family="Arial" font-size="47.5" fill="black" >
   17 agents
  </text>
 <g id="tissue" 
    transform="translate(0,2140) scale(1,-1)">
  <g id="ECM">
  </g>
  <g id="cells">
   <g id="cell0">
  <circle cx="1132" cy="1209.79" r="8.38373" stroke-width="0.5" stroke="black" fill="grey"/>
  <circle cx="1132" cy="1209.79" r="5.04136" stroke-width="0.5" stroke="grey" fill="grey"/>
   </g>
   <g id="cell1">
  <circle cx="1678.83" cy="1223.48" r="10.483" stroke-width="0.5" stroke="black" fill="grey"/>
  <circle cx="1678.83" cy="1223.48" r="6.31703" stroke-width="0.5" stroke="grey" fill="grey"/>
   </g>
   <g id="cell2">
  <circle cx="1166.69" cy="1705.51" r="8.37321" stroke-width="0.5" stroke="black" fill="grey"/>
  <circle cx="1166.69" cy="1705.51" r="5.03708" stroke-width="0.5" stroke="grey" fill="grey"/>
   </g>
   <g id="cell3">
  <circle cx="1247.21" cy="1303.11" r="8.38373" stroke-width="0.5" stroke="black" fill="grey"/>
  <circle cx="1247.21" cy="1303.11" r="5.04136" stroke-width="0.5" stroke="grey" fill="grey"/>
   </g>
   <g id="cell4">
  <circle cx="872.181" cy="558.478" r="8.38823" stroke-width="0.5" stroke="black" fill="grey"/>
  <circle cx="872.181" cy="558.478" r="5.04313" stroke-width="0.5" stroke="grey" fill="grey"/>
   </g>
   <g id="cell5">
  <circle cx="116.545" cy="1940.4" r="8.39203" stroke-width="0.5" stroke="black" fill="red"/>
  <circle cx="116.545" cy="1940.4" r="5.0446" stroke-width="0.5" stroke="red" fill="red"/>
   </g>
   <g id="cell6">
  <circle cx="763.386" cy="912.472" r="10.2728" stroke-width="0.5" stroke="black" fill="red"/>
  <circle cx="763.386" cy="912.472" r="6.21295" stroke-width="0.5" stroke="red" fill="red"/>
   </g>
   <g id="cell7">
  <circle cx="1588.23" cy="1020.83" r="9.03055" stroke-width="0.5" stroke="black" fill="red"/>
  <circle cx="1588.23" cy="1020.83" r="5.48737" stroke-width="0.5" stroke="red" fill="red"/>
   </g>
   <g id="cell8">
  <circle cx="1122.5" cy="741.594" r="8.36592" stroke-width="0.5" stroke="black" fill="red"/>
  <circle cx="1122.5" cy="741.594" r="5.03403" stroke-width="0.5" stroke="red" fill="red"/>
   </g>
   <g id="cell9">
  <circle cx="1687.44" cy="180.244" r="10.5092" stroke-width="0.5" stroke="black" fill="red"/>
  <circle cx="1687.44" cy="180.244" r="6.32893" stroke-width="0.5" stroke="red" fill="red"/>
   </g>
   <g id="cell11">
  <circle cx="1584.64" cy="1037.19" r="8.8706" stroke-width="0.5" stroke="black" fill="red"/>
  <circle cx="1584.64" cy="1037.19" r="5.38332" stroke-width="0.5" stroke="red" fill="red"/>
   </g>
   <g id="cell12">
  <circle cx="112.21" cy="1949.33" r="2.72261" stroke-width="0.5" stroke="black" fill="red"/>
  <circle cx="112.21" cy="1949.33" r="2.33445" stroke-width="0.5" stroke="black" fill="black"/>
   </g>
   <g id="cell13">
  <circle cx="841.059" cy="556.573" r="8.38823" stroke-width="0.5" stroke="black" fill="grey"/>
  <circle cx="841.059" cy="556.573" r="5.04313" stroke-width="0.5" stroke="grey" fill="grey"/>
   </g>
   <g id="cell14">
  <circle cx="1225.9" cy="1286.58" r="8.38373" stroke-width="0.5" stroke="black" fill="grey"/>
  <circle cx="1225.9" cy="1286.58" r="5.04136" stroke-width="0.5" stroke="grey" fill="grey"/>
   </g>
   <g id="cell15">
  <circle cx="1115.4" cy="1213.43" r="8.38373" stroke-width="0.5" stroke="black" fill="grey"/>
  <circle cx="1115.4" cy="1213.43" r="5.04136" stroke-width="0.5" stroke="grey" fill="grey"/>
   </g>
   <g id="cell16">
  <circle cx="1167.33" cy="1720.74" r="8.37321" stroke-width="0.5" stroke="black" fill="grey"/>
  <circle cx="1167.33" cy="1720.74" r="5.03708" stroke-width="0.5" stroke="grey" fill="grey"/>
   </g>
   <g id="cell17">
  <circle cx="1126.37" cy="756.137" r="8.36592" stroke-width="0.5" stroke="black" fill="red"/>
  <circle cx="1126.37" cy="756.137" r="5.03403" stroke-width="0.5" stroke="red" fill="red"/>
   </g>
  </g>
 </g>
  <rect x="1750" y="2070" width="200" height="20" stroke-width="4" stroke="rgb(255,255,255)" fill="rgb(0,0,0)"/>
  <text x="1762.5" y="2057.5"
   font-family="Arial" font-size="50" fill="black" >
   200 &#956;m
  </text>
  <text x="50" y="2090"
   font-family="Arial" font-size="37.5" fill="black" >
   0 days, 0 hours, 0 minutes, and 23.0932 seconds
  </text>
  <rect x="0" y="140" width="2000" height="2000" stroke-width="4" stroke="rgb(0,0,0)" fill="none"/>
</svg>
