<?xml version="1.0" encoding="UTF-8" standalone="no"?>
<!-- Created with PhysiCell (http://PhysiCell.MathCancer.org/) -->
<svg 
 xmlns:dc="http://purl.org/dc/elements/1.1/" 
 xmlns:cc="http://creativecommons.org/ns#" 
 xmlns:rdf="http://www.w3.org/1999/02/22-rdf-syntax-ns#" 
 xmlns:svg="http://www.w3.org/2000/svg" 
 xmlns="http://www.w3.org/2000/svg" 
 version="1.1" 
 width="2000" 
 height="2140" 
 id="svg2">
  <rect x="0" y="0" width="2000" height="2140" stroke-width="4" stroke="white" fill="white"/>
  <text x="25" y="60"
   font-family="Arial" font-size="50" fill="black" >
   Current time: 0 days, 13 hours, and 20.00 minutes, z = 0.00 &#956;m
  </text>
  <text x="25" y="115"
   font-family="Arial" font-size="47.5" fill="black" >
   99 agents
  </text>
 <g id="tissue" 
    transform="translate(0,2140) scale(1,-1)">
  <g id="ECM">
  </g>
  <g id="cells">
   <g id="cell0">
  <circle cx="1088.98" cy="1179.67" r="10.3747" stroke-width="0.5" stroke="black" fill="grey"/>
  <circle cx="1088.98" cy="1179.67" r="6.26498" stroke-width="0.5" stroke="grey" fill="grey"/>
   </g>
   <g id="cell1">
  <circle cx="1673.78" cy="1205.68" r="10.4984" stroke-width="0.5" stroke="black" fill="grey"/>
  <circle cx="1673.78" cy="1205.68" r="6.32406" stroke-width="0.5" stroke="grey" fill="grey"/>
   </g>
   <g id="cell2">
  <circle cx="1100.16" cy="1748.82" r="10.5387" stroke-width="0.5" stroke="black" fill="grey"/>
  <circle cx="1100.16" cy="1748.82" r="6.34177" stroke-width="0.5" stroke="grey" fill="grey"/>
   </g>
   <g id="cell3">
  <circle cx="1249.17" cy="1279.53" r="10.4208" stroke-width="0.5" stroke="black" fill="grey"/>
  <circle cx="1249.17" cy="1279.53" r="6.28762" stroke-width="0.5" stroke="grey" fill="grey"/>
   </g>
   <g id="cell4">
  <circle cx="925.333" cy="583.932" r="9.5651" stroke-width="0.5" stroke="black" fill="grey"/>
  <circle cx="925.333" cy="583.932" r="5.81327" stroke-width="0.5" stroke="grey" fill="grey"/>
   </g>
   <g id="cell5">
  <circle cx="86.5702" cy="1924.06" r="10.3084" stroke-width="0.5" stroke="black" fill="grey"/>
  <circle cx="86.5702" cy="1924.06" r="6.23137" stroke-width="0.5" stroke="grey" fill="grey"/>
   </g>
   <g id="cell6">
  <circle cx="756.016" cy="904.716" r="10.1758" stroke-width="0.5" stroke="black" fill="grey"/>
  <circle cx="756.016" cy="904.716" r="6.16159" stroke-width="0.5" stroke="grey" fill="grey"/>
   </g>
   <g id="cell7">
  <circle cx="1570.94" cy="1051.54" r="10.4726" stroke-width="0.5" stroke="black" fill="grey"/>
  <circle cx="1570.94" cy="1051.54" r="6.31223" stroke-width="0.5" stroke="grey" fill="grey"/>
   </g>
   <g id="cell8">
  <circle cx="1131.34" cy="790.461" r="10.537" stroke-width="0.5" stroke="black" fill="grey"/>
  <circle cx="1131.34" cy="790.461" r="6.34103" stroke-width="0.5" stroke="grey" fill="grey"/>
   </g>
   <g id="cell9">
  <circle cx="1616.7" cy="178.886" r="10.3615" stroke-width="0.5" stroke="black" fill="grey"/>
  <circle cx="1616.7" cy="178.886" r="6.25834" stroke-width="0.5" stroke="grey" fill="grey"/>
   </g>
   <g id="cell10">
  <circle cx="172.353" cy="1300.14" r="9.77588" stroke-width="0.5" stroke="black" fill="grey"/>
  <circle cx="172.353" cy="1300.14" r="5.93735" stroke-width="0.5" stroke="grey" fill="grey"/>
   </g>
   <g id="cell11">
  <circle cx="743.576" cy="1642.74" r="10.5189" stroke-width="0.5" stroke="black" fill="grey"/>
  <circle cx="743.576" cy="1642.74" r="6.3332" stroke-width="0.5" stroke="grey" fill="grey"/>
   </g>
   <g id="cell12">
  <circle cx="1600.96" cy="273.329" r="10.3545" stroke-width="0.5" stroke="black" fill="grey"/>
  <circle cx="1600.96" cy="273.329" r="6.25485" stroke-width="0.5" stroke="grey" fill="grey"/>
   </g>
   <g id="cell13">
  <circle cx="1733.49" cy="1894.56" r="10.5233" stroke-width="0.5" stroke="black" fill="grey"/>
  <circle cx="1733.49" cy="1894.56" r="6.33514" stroke-width="0.5" stroke="grey" fill="grey"/>
   </g>
   <g id="cell14">
  <circle cx="1571.51" cy="1634.37" r="8.54454" stroke-width="0.5" stroke="black" fill="grey"/>
  <circle cx="1571.51" cy="1634.37" r="5.14947" stroke-width="0.5" stroke="grey" fill="grey"/>
   </g>
   <g id="cell15">
  <circle cx="1049.35" cy="1530.26" r="10.4307" stroke-width="0.5" stroke="black" fill="grey"/>
  <circle cx="1049.35" cy="1530.26" r="6.29241" stroke-width="0.5" stroke="grey" fill="grey"/>
   </g>
   <g id="cell16">
  <circle cx="243.807" cy="1405.21" r="10.4894" stroke-width="0.5" stroke="black" fill="grey"/>
  <circle cx="243.807" cy="1405.21" r="6.31998" stroke-width="0.5" stroke="grey" fill="grey"/>
   </g>
   <g id="cell17">
  <circle cx="1186.41" cy="258.549" r="10.4651" stroke-width="0.5" stroke="black" fill="grey"/>
  <circle cx="1186.41" cy="258.549" r="6.30877" stroke-width="0.5" stroke="grey" fill="grey"/>
   </g>
   <g id="cell18">
  <circle cx="1862.56" cy="1541.29" r="10.5211" stroke-width="0.5" stroke="black" fill="grey"/>
  <circle cx="1862.56" cy="1541.29" r="6.33419" stroke-width="0.5" stroke="grey" fill="grey"/>
   </g>
   <g id="cell19">
  <circle cx="224.343" cy="886.287" r="8.41271" stroke-width="0.5" stroke="black" fill="grey"/>
  <circle cx="224.343" cy="886.287" r="5.05167" stroke-width="0.5" stroke="grey" fill="grey"/>
   </g>
   <g id="cell20">
  <circle cx="545.341" cy="361.046" r="9.7273" stroke-width="0.5" stroke="black" fill="grey"/>
  <circle cx="545.341" cy="361.046" r="5.90906" stroke-width="0.5" stroke="grey" fill="grey"/>
   </g>
   <g id="cell21">
  <circle cx="1422.27" cy="889.606" r="10.1879" stroke-width="0.5" stroke="black" fill="grey"/>
  <circle cx="1422.27" cy="889.606" r="6.16807" stroke-width="0.5" stroke="grey" fill="grey"/>
   </g>
   <g id="cell22">
  <circle cx="1124.39" cy="255.189" r="8.80772" stroke-width="0.5" stroke="black" fill="grey"/>
  <circle cx="1124.39" cy="255.189" r="5.33574" stroke-width="0.5" stroke="grey" fill="grey"/>
   </g>
   <g id="cell23">
  <circle cx="641.8" cy="1243.18" r="4.59016" stroke-width="0.5" stroke="black" fill="grey"/>
  <circle cx="641.8" cy="1243.18" r="3.45078" stroke-width="0.5" stroke="black" fill="black"/>
   </g>
   <g id="cell24">
  <circle cx="1278.26" cy="414.621" r="9.4743" stroke-width="0.5" stroke="black" fill="grey"/>
  <circle cx="1278.26" cy="414.621" r="5.75875" stroke-width="0.5" stroke="grey" fill="grey"/>
   </g>
   <g id="cell25">
  <circle cx="784.64" cy="1885.37" r="10.537" stroke-width="0.5" stroke="black" fill="grey"/>
  <circle cx="784.64" cy="1885.37" r="6.34103" stroke-width="0.5" stroke="grey" fill="grey"/>
   </g>
   <g id="cell26">
  <circle cx="1359.33" cy="890.019" r="9.92631" stroke-width="0.5" stroke="black" fill="grey"/>
  <circle cx="1359.33" cy="890.019" r="6.02363" stroke-width="0.5" stroke="grey" fill="grey"/>
   </g>
   <g id="cell27">
  <circle cx="1204.09" cy="883.307" r="10.4531" stroke-width="0.5" stroke="black" fill="grey"/>
  <circle cx="1204.09" cy="883.307" r="6.30312" stroke-width="0.5" stroke="grey" fill="grey"/>
   </g>
   <g id="cell28">
  <circle cx="1339.45" cy="168.252" r="10.4862" stroke-width="0.5" stroke="black" fill="grey"/>
  <circle cx="1339.45" cy="168.252" r="6.31853" stroke-width="0.5" stroke="grey" fill="grey"/>
   </g>
   <g id="cell29">
  <circle cx="1951.88" cy="1299.97" r="10.4156" stroke-width="0.5" stroke="black" fill="grey"/>
  <circle cx="1951.88" cy="1299.97" r="6.2851" stroke-width="0.5" stroke="grey" fill="grey"/>
   </g>
   <g id="cell30">
  <circle cx="1329.72" cy="333.62" r="10.3545" stroke-width="0.5" stroke="black" fill="grey"/>
  <circle cx="1329.72" cy="333.62" r="6.25485" stroke-width="0.5" stroke="grey" fill="grey"/>
   </g>
   <g id="cell31">
  <circle cx="686.526" cy="225.899" r="10.5254" stroke-width="0.5" stroke="black" fill="grey"/>
  <circle cx="686.526" cy="225.899" r="6.33607" stroke-width="0.5" stroke="grey" fill="grey"/>
   </g>
   <g id="cell32">
  <circle cx="601.91" cy="1229" r="10.5233" stroke-width="0.5" stroke="black" fill="grey"/>
  <circle cx="601.91" cy="1229" r="6.33514" stroke-width="0.5" stroke="grey" fill="grey"/>
   </g>
   <g id="cell33">
  <circle cx="668.425" cy="1181.12" r="10.3325" stroke-width="0.5" stroke="black" fill="grey"/>
  <circle cx="668.425" cy="1181.12" r="6.24369" stroke-width="0.5" stroke="grey" fill="grey"/>
   </g>
   <g id="cell34">
  <circle cx="915.773" cy="1246.96" r="10.5352" stroke-width="0.5" stroke="black" fill="grey"/>
  <circle cx="915.773" cy="1246.96" r="6.34027" stroke-width="0.5" stroke="grey" fill="grey"/>
   </g>
   <g id="cell35">
  <circle cx="1895.77" cy="213.45" r="10.5142" stroke-width="0.5" stroke="black" fill="grey"/>
  <circle cx="1895.77" cy="213.45" r="6.33113" stroke-width="0.5" stroke="grey" fill="grey"/>
   </g>
   <g id="cell36">
  <circle cx="399.341" cy="1293.81" r="10.5012" stroke-width="0.5" stroke="black" fill="grey"/>
  <circle cx="399.341" cy="1293.81" r="6.32534" stroke-width="0.5" stroke="grey" fill="grey"/>
   </g>
   <g id="cell37">
  <circle cx="1977.12" cy="1308.87" r="8.54454" stroke-width="0.5" stroke="black" fill="grey"/>
  <circle cx="1977.12" cy="1308.87" r="5.14947" stroke-width="0.5" stroke="grey" fill="grey"/>
   </g>
   <g id="cell38">
  <circle cx="428.009" cy="856.978" r="10.5166" stroke-width="0.5" stroke="black" fill="grey"/>
  <circle cx="428.009" cy="856.978" r="6.33218" stroke-width="0.5" stroke="grey" fill="grey"/>
   </g>
   <g id="cell39">
  <circle cx="924.739" cy="475.951" r="9.67603" stroke-width="0.5" stroke="black" fill="grey"/>
  <circle cx="924.739" cy="475.951" r="5.87901" stroke-width="0.5" stroke="grey" fill="grey"/>
   </g>
   <g id="cell40">
  <circle cx="320.769" cy="657.383" r="10.5211" stroke-width="0.5" stroke="black" fill="grey"/>
  <circle cx="320.769" cy="657.383" r="6.33419" stroke-width="0.5" stroke="grey" fill="grey"/>
   </g>
   <g id="cell41">
  <circle cx="1340.48" cy="1278.35" r="8.36592" stroke-width="0.5" stroke="black" fill="grey"/>
  <circle cx="1340.48" cy="1278.35" r="5.03403" stroke-width="0.5" stroke="grey" fill="grey"/>
   </g>
   <g id="cell42">
  <circle cx="284.07" cy="1558.22" r="10.4651" stroke-width="0.5" stroke="black" fill="grey"/>
  <circle cx="284.07" cy="1558.22" r="6.30877" stroke-width="0.5" stroke="grey" fill="grey"/>
   </g>
   <g id="cell43">
  <circle cx="1933.3" cy="797.25" r="10.4894" stroke-width="0.5" stroke="black" fill="grey"/>
  <circle cx="1933.3" cy="797.25" r="6.31998" stroke-width="0.5" stroke="grey" fill="grey"/>
   </g>
   <g id="cell44">
  <circle cx="1660.7" cy="46.48" r="10.4726" stroke-width="0.5" stroke="black" fill="grey"/>
  <circle cx="1660.7" cy="46.48" r="6.31223" stroke-width="0.5" stroke="grey" fill="grey"/>
   </g>
   <g id="cell45">
  <circle cx="1217.23" cy="1708.36" r="10.4401" stroke-width="0.5" stroke="black" fill="grey"/>
  <circle cx="1217.23" cy="1708.36" r="6.29691" stroke-width="0.5" stroke="grey" fill="grey"/>
   </g>
   <g id="cell46">
  <circle cx="177.6" cy="1967.34" r="10.4862" stroke-width="0.5" stroke="black" fill="grey"/>
  <circle cx="177.6" cy="1967.34" r="6.31853" stroke-width="0.5" stroke="grey" fill="grey"/>
   </g>
   <g id="cell47">
  <circle cx="1741.73" cy="945.12" r="10.5333" stroke-width="0.5" stroke="black" fill="grey"/>
  <circle cx="1741.73" cy="945.12" r="6.33948" stroke-width="0.5" stroke="grey" fill="grey"/>
   </g>
   <g id="cell48">
  <circle cx="1946.56" cy="70.052" r="10.3325" stroke-width="0.5" stroke="black" fill="grey"/>
  <circle cx="1946.56" cy="70.052" r="6.24369" stroke-width="0.5" stroke="grey" fill="grey"/>
   </g>
   <g id="cell49">
  <circle cx="919.277" cy="1472.17" r="10.4401" stroke-width="0.5" stroke="black" fill="grey"/>
  <circle cx="919.277" cy="1472.17" r="6.29691" stroke-width="0.5" stroke="grey" fill="grey"/>
   </g>
   <g id="cell50">
  <circle cx="144.93" cy="854.787" r="10.4355" stroke-width="0.5" stroke="black" fill="red"/>
  <circle cx="144.93" cy="854.787" r="6.2947" stroke-width="0.5" stroke="red" fill="red"/>
   </g>
   <g id="cell51">
  <circle cx="1958.39" cy="279.561" r="9.00806" stroke-width="0.5" stroke="black" fill="red"/>
  <circle cx="1958.39" cy="279.561" r="5.46807" stroke-width="0.5" stroke="red" fill="red"/>
   </g>
   <g id="cell52">
  <circle cx="624.14" cy="968.912" r="10.4651" stroke-width="0.5" stroke="black" fill="red"/>
  <circle cx="624.14" cy="968.912" r="6.30877" stroke-width="0.5" stroke="red" fill="red"/>
   </g>
   <g id="cell53">
  <circle cx="1397.51" cy="655.46" r="8.45606" stroke-width="0.5" stroke="black" fill="red"/>
  <circle cx="1397.51" cy="655.46" r="5.08296" stroke-width="0.5" stroke="red" fill="red"/>
   </g>
   <g id="cell54">
  <circle cx="802.852" cy="1827.14" r="10.483" stroke-width="0.5" stroke="black" fill="red"/>
  <circle cx="802.852" cy="1827.14" r="6.31703" stroke-width="0.5" stroke="red" fill="red"/>
   </g>
   <g id="cell55">
  <circle cx="423.575" cy="1352" r="8.41271" stroke-width="0.5" stroke="black" fill="red"/>
  <circle cx="423.575" cy="1352" r="5.05167" stroke-width="0.5" stroke="red" fill="red"/>
   </g>
   <g id="cell56">
  <circle cx="1139.29" cy="1692.67" r="9.5053" stroke-width="0.5" stroke="black" fill="red"/>
  <circle cx="1139.29" cy="1692.67" r="5.77744" stroke-width="0.5" stroke="red" fill="red"/>
   </g>
   <g id="cell57">
  <circle cx="1010.17" cy="1069.56" r="10.5275" stroke-width="0.5" stroke="black" fill="red"/>
  <circle cx="1010.17" cy="1069.56" r="6.33696" stroke-width="0.5" stroke="red" fill="red"/>
   </g>
   <g id="cell58">
  <circle cx="127.923" cy="1811.16" r="10.2728" stroke-width="0.5" stroke="black" fill="red"/>
  <circle cx="127.923" cy="1811.16" r="6.21295" stroke-width="0.5" stroke="red" fill="red"/>
   </g>
   <g id="cell98">
  <circle cx="1816.33" cy="704.772" r="10.3811" stroke-width="0.5" stroke="black" fill="red"/>
  <circle cx="1816.33" cy="704.772" r="6.26814" stroke-width="0.5" stroke="red" fill="red"/>
   </g>
   <g id="cell60">
  <circle cx="660.331" cy="31.3448" r="10.4489" stroke-width="0.5" stroke="black" fill="red"/>
  <circle cx="660.331" cy="31.3448" r="6.30112" stroke-width="0.5" stroke="red" fill="red"/>
   </g>
   <g id="cell61">
  <circle cx="1652.72" cy="266.866" r="10.4955" stroke-width="0.5" stroke="black" fill="red"/>
  <circle cx="1652.72" cy="266.866" r="6.32275" stroke-width="0.5" stroke="red" fill="red"/>
   </g>
   <g id="cell62">
  <circle cx="1419.16" cy="1683.87" r="10.4796" stroke-width="0.5" stroke="black" fill="red"/>
  <circle cx="1419.16" cy="1683.87" r="6.31548" stroke-width="0.5" stroke="red" fill="red"/>
   </g>
   <g id="cell63">
  <circle cx="564.935" cy="356.949" r="10.2328" stroke-width="0.5" stroke="black" fill="red"/>
  <circle cx="564.935" cy="356.949" r="6.19197" stroke-width="0.5" stroke="red" fill="red"/>
   </g>
   <g id="cell64">
  <circle cx="1196.33" cy="1096.23" r="10.4489" stroke-width="0.5" stroke="black" fill="red"/>
  <circle cx="1196.33" cy="1096.23" r="6.30112" stroke-width="0.5" stroke="red" fill="red"/>
   </g>
   <g id="cell65">
  <circle cx="298.939" cy="1651.33" r="10.483" stroke-width="0.5" stroke="black" fill="red"/>
  <circle cx="298.939" cy="1651.33" r="6.31703" stroke-width="0.5" stroke="red" fill="red"/>
   </g>
   <g id="cell66">
  <circle cx="13.9788" cy="272.184" r="10.4102" stroke-width="0.5" stroke="black" fill="red"/>
  <circle cx="13.9788" cy="272.184" r="6.2825" stroke-width="0.5" stroke="red" fill="red"/>
   </g>
   <g id="cell67">
  <circle cx="1146.9" cy="568.211" r="10.1238" stroke-width="0.5" stroke="black" fill="red"/>
  <circle cx="1146.9" cy="568.211" r="6.13347" stroke-width="0.5" stroke="red" fill="red"/>
   </g>
   <g id="cell68">
  <circle cx="1441.64" cy="597.149" r="10.4689" stroke-width="0.5" stroke="black" fill="red"/>
  <circle cx="1441.64" cy="597.149" r="6.31053" stroke-width="0.5" stroke="red" fill="red"/>
   </g>
   <g id="cell69">
  <circle cx="833.578" cy="512.154" r="10.3615" stroke-width="0.5" stroke="black" fill="red"/>
  <circle cx="833.578" cy="512.154" r="6.25834" stroke-width="0.5" stroke="red" fill="red"/>
   </g>
   <g id="cell70">
  <circle cx="1150.83" cy="787.064" r="10.5012" stroke-width="0.5" stroke="black" fill="red"/>
  <circle cx="1150.83" cy="787.064" r="6.32534" stroke-width="0.5" stroke="red" fill="red"/>
   </g>
   <g id="cell71">
  <circle cx="1744.25" cy="1175.19" r="10.5314" stroke-width="0.5" stroke="black" fill="red"/>
  <circle cx="1744.25" cy="1175.19" r="6.33867" stroke-width="0.5" stroke="red" fill="red"/>
   </g>
   <g id="cell72">
  <circle cx="425.719" cy="1756.08" r="8.41271" stroke-width="0.5" stroke="black" fill="red"/>
  <circle cx="425.719" cy="1756.08" r="5.05167" stroke-width="0.5" stroke="red" fill="red"/>
   </g>
   <g id="cell73">
  <circle cx="1352.69" cy="853.291" r="10.5211" stroke-width="0.5" stroke="black" fill="red"/>
  <circle cx="1352.69" cy="853.291" r="6.33419" stroke-width="0.5" stroke="red" fill="red"/>
   </g>
   <g id="cell74">
  <circle cx="1705.42" cy="1886.31" r="10.4862" stroke-width="0.5" stroke="black" fill="red"/>
  <circle cx="1705.42" cy="1886.31" r="6.31853" stroke-width="0.5" stroke="red" fill="red"/>
   </g>
   <g id="cell75">
  <circle cx="248.839" cy="580.647" r="8.41271" stroke-width="0.5" stroke="black" fill="red"/>
  <circle cx="248.839" cy="580.647" r="5.05167" stroke-width="0.5" stroke="red" fill="red"/>
   </g>
   <g id="cell76">
  <circle cx="1634.14" cy="759.514" r="10.3747" stroke-width="0.5" stroke="black" fill="red"/>
  <circle cx="1634.14" cy="759.514" r="6.26498" stroke-width="0.5" stroke="red" fill="red"/>
   </g>
   <g id="cell77">
  <circle cx="1392.03" cy="1807.47" r="10.5092" stroke-width="0.5" stroke="black" fill="red"/>
  <circle cx="1392.03" cy="1807.47" r="6.32893" stroke-width="0.5" stroke="red" fill="red"/>
   </g>
   <g id="cell78">
  <circle cx="1151.17" cy="603.69" r="9.82189" stroke-width="0.5" stroke="black" fill="red"/>
  <circle cx="1151.17" cy="603.69" r="5.96395" stroke-width="0.5" stroke="red" fill="red"/>
   </g>
   <g id="cell79">
  <circle cx="1985.38" cy="1430.43" r="10.3873" stroke-width="0.5" stroke="black" fill="red"/>
  <circle cx="1985.38" cy="1430.43" r="6.2712" stroke-width="0.5" stroke="red" fill="red"/>
   </g>
   <g id="cell80">
  <circle cx="1471.62" cy="1305.27" r="10.5039" stroke-width="0.5" stroke="black" fill="red"/>
  <circle cx="1471.62" cy="1305.27" r="6.32657" stroke-width="0.5" stroke="red" fill="red"/>
   </g>
   <g id="cell81">
  <circle cx="1110.52" cy="1911.93" r="10.4531" stroke-width="0.5" stroke="black" fill="red"/>
  <circle cx="1110.52" cy="1911.93" r="6.30312" stroke-width="0.5" stroke="red" fill="red"/>
   </g>
   <g id="cell82">
  <circle cx="1272.13" cy="814.993" r="10.5189" stroke-width="0.5" stroke="black" fill="red"/>
  <circle cx="1272.13" cy="814.993" r="6.3332" stroke-width="0.5" stroke="red" fill="red"/>
   </g>
   <g id="cell83">
  <circle cx="1228.13" cy="1232.77" r="10.537" stroke-width="0.5" stroke="black" fill="red"/>
  <circle cx="1228.13" cy="1232.77" r="6.34103" stroke-width="0.5" stroke="red" fill="red"/>
   </g>
   <g id="cell84">
  <circle cx="35.7039" cy="909.692" r="8.61424" stroke-width="0.5" stroke="black" fill="red"/>
  <circle cx="35.7039" cy="909.692" r="5.20061" stroke-width="0.5" stroke="red" fill="red"/>
   </g>
   <g id="cell85">
  <circle cx="1437.99" cy="1302.8" r="9.94548" stroke-width="0.5" stroke="black" fill="red"/>
  <circle cx="1437.99" cy="1302.8" r="6.03448" stroke-width="0.5" stroke="red" fill="red"/>
   </g>
   <g id="cell86">
  <circle cx="580.28" cy="789.287" r="10.4307" stroke-width="0.5" stroke="black" fill="red"/>
  <circle cx="580.28" cy="789.287" r="6.29241" stroke-width="0.5" stroke="red" fill="red"/>
   </g>
   <g id="cell87">
  <circle cx="1472.51" cy="900.017" r="9.92631" stroke-width="0.5" stroke="black" fill="red"/>
  <circle cx="1472.51" cy="900.017" r="6.02363" stroke-width="0.5" stroke="red" fill="red"/>
   </g>
   <g id="cell88">
  <circle cx="270.171" cy="206.688" r="10.4862" stroke-width="0.5" stroke="black" fill="red"/>
  <circle cx="270.171" cy="206.688" r="6.31853" stroke-width="0.5" stroke="red" fill="red"/>
   </g>
   <g id="cell89">
  <circle cx="181.975" cy="1179.59" r="10.4955" stroke-width="0.5" stroke="black" fill="red"/>
  <circle cx="181.975" cy="1179.59" r="6.32275" stroke-width="0.5" stroke="red" fill="red"/>
   </g>
   <g id="cell90">
  <circle cx="1160.13" cy="1085.97" r="10.2999" stroke-width="0.5" stroke="black" fill="red"/>
  <circle cx="1160.13" cy="1085.97" r="6.22699" stroke-width="0.5" stroke="red" fill="red"/>
   </g>
   <g id="cell91">
  <circle cx="56.305" cy="1263.44" r="10.5092" stroke-width="0.5" stroke="black" fill="red"/>
  <circle cx="56.305" cy="1263.44" r="6.32893" stroke-width="0.5" stroke="red" fill="red"/>
   </g>
   <g id="cell99">
  <circle cx="956.457" cy="1988.19" r="10.5295" stroke-width="0.5" stroke="black" fill="red"/>
  <circle cx="956.457" cy="1988.19" r="6.33783" stroke-width="0.5" stroke="red" fill="red"/>
   </g>
   <g id="cell93">
  <circle cx="412.728" cy="1795.16" r="10.5352" stroke-width="0.5" stroke="black" fill="red"/>
  <circle cx="412.728" cy="1795.16" r="6.34027" stroke-width="0.5" stroke="red" fill="red"/>
   </g>
   <g id="cell94">
  <circle cx="758.391" cy="188.332" r="10.4573" stroke-width="0.5" stroke="black" fill="red"/>
  <circle cx="758.391" cy="188.332" r="6.30507" stroke-width="0.5" stroke="red" fill="red"/>
   </g>
   <g id="cell95">
  <circle cx="1972.12" cy="1758.49" r="10.5275" stroke-width="0.5" stroke="black" fill="red"/>
  <circle cx="1972.12" cy="1758.49" r="6.33696" stroke-width="0.5" stroke="red" fill="red"/>
   </g>
   <g id="cell96">
  <circle cx="1678.28" cy="1074.37" r="9.7273" stroke-width="0.5" stroke="black" fill="red"/>
  <circle cx="1678.28" cy="1074.37" r="5.90906" stroke-width="0.5" stroke="red" fill="red"/>
   </g>
   <g id="cell97">
  <circle cx="942.79" cy="172.31" r="10.4489" stroke-width="0.5" stroke="black" fill="red"/>
  <circle cx="942.79" cy="172.31" r="6.30112" stroke-width="0.5" stroke="red" fill="red"/>
   </g>
   <g id="cell101">
  <circle cx="1335.92" cy="1267.35" r="8.36592" stroke-width="0.5" stroke="black" fill="grey"/>
  <circle cx="1335.92" cy="1267.35" r="5.03403" stroke-width="0.5" stroke="grey" fill="grey"/>
   </g>
  </g>
 </g>
  <rect x="1750" y="2070" width="200" height="20" stroke-width="4" stroke="rgb(255,255,255)" fill="rgb(0,0,0)"/>
  <text x="1762.5" y="2057.5"
   font-family="Arial" font-size="50" fill="black" >
   200 &#956;m
  </text>
  <text x="50" y="2090"
   font-family="Arial" font-size="37.5" fill="black" >
   0 days, 0 hours, 0 minutes, and 19.7206 seconds
  </text>
  <rect x="0" y="140" width="2000" height="2000" stroke-width="4" stroke="rgb(0,0,0)" fill="none"/>
</svg>
