<?xml version="1.0" encoding="UTF-8" standalone="no"?>
<!-- Created with PhysiCell (http://PhysiCell.MathCancer.org/) -->
<svg 
 xmlns:dc="http://purl.org/dc/elements/1.1/" 
 xmlns:cc="http://creativecommons.org/ns#" 
 xmlns:rdf="http://www.w3.org/1999/02/22-rdf-syntax-ns#" 
 xmlns:svg="http://www.w3.org/2000/svg" 
 xmlns="http://www.w3.org/2000/svg" 
 version="1.1" 
 width="2000" 
 height="2140" 
 id="svg2">
  <rect x="0" y="0" width="2000" height="2140" stroke-width="4" stroke="white" fill="white"/>
  <text x="25" y="60"
   font-family="Arial" font-size="50" fill="black" >
   Current time: 1 days, 1 hours, and 0.00 minutes, z = 0.00 &#956;m
  </text>
  <text x="25" y="115"
   font-family="Arial" font-size="47.5" fill="black" >
   185 agents
  </text>
 <g id="tissue" 
    transform="translate(0,2140) scale(1,-1)">
  <g id="ECM">
  </g>
  <g id="cells">
   <g id="cell0">
  <circle cx="1092.79" cy="1182.01" r="9.72225" stroke-width="0.5" stroke="black" fill="grey"/>
  <circle cx="1092.79" cy="1182.01" r="5.90745" stroke-width="0.5" stroke="grey" fill="grey"/>
   </g>
   <g id="cell1">
  <circle cx="1690.19" cy="1167.98" r="10.0148" stroke-width="0.5" stroke="black" fill="grey"/>
  <circle cx="1690.19" cy="1167.98" r="6.07394" stroke-width="0.5" stroke="grey" fill="grey"/>
   </g>
   <g id="cell2">
  <circle cx="1106.96" cy="1736.74" r="10.367" stroke-width="0.5" stroke="black" fill="grey"/>
  <circle cx="1106.96" cy="1736.74" r="6.26138" stroke-width="0.5" stroke="grey" fill="grey"/>
   </g>
   <g id="cell3">
  <circle cx="1237.8" cy="1321.5" r="8.60909" stroke-width="0.5" stroke="black" fill="grey"/>
  <circle cx="1237.8" cy="1321.5" r="5.19904" stroke-width="0.5" stroke="grey" fill="grey"/>
   </g>
   <g id="cell4">
  <circle cx="892.878" cy="516.389" r="8.7006" stroke-width="0.5" stroke="black" fill="grey"/>
  <circle cx="892.878" cy="516.389" r="5.27112" stroke-width="0.5" stroke="grey" fill="grey"/>
   </g>
   <g id="cell5">
  <circle cx="100.98" cy="1918.67" r="10.1038" stroke-width="0.5" stroke="black" fill="grey"/>
  <circle cx="100.98" cy="1918.67" r="6.12392" stroke-width="0.5" stroke="grey" fill="grey"/>
   </g>
   <g id="cell6">
  <circle cx="735.627" cy="885.693" r="9.58431" stroke-width="0.5" stroke="black" fill="grey"/>
  <circle cx="735.627" cy="885.693" r="5.82715" stroke-width="0.5" stroke="grey" fill="grey"/>
   </g>
   <g id="cell7">
  <circle cx="1572.99" cy="1106.86" r="10.0142" stroke-width="0.5" stroke="black" fill="grey"/>
  <circle cx="1572.99" cy="1106.86" r="6.07376" stroke-width="0.5" stroke="grey" fill="grey"/>
   </g>
   <g id="cell8">
  <circle cx="1146.6" cy="807.627" r="10.1745" stroke-width="0.5" stroke="black" fill="grey"/>
  <circle cx="1146.6" cy="807.627" r="6.16123" stroke-width="0.5" stroke="grey" fill="grey"/>
   </g>
   <g id="cell9">
  <circle cx="1613.91" cy="201.627" r="9.88112" stroke-width="0.5" stroke="black" fill="grey"/>
  <circle cx="1613.91" cy="201.627" r="5.99923" stroke-width="0.5" stroke="grey" fill="grey"/>
   </g>
   <g id="cell10">
  <circle cx="183.385" cy="1277.78" r="8.38891" stroke-width="0.5" stroke="black" fill="grey"/>
  <circle cx="183.385" cy="1277.78" r="5.0434" stroke-width="0.5" stroke="grey" fill="grey"/>
   </g>
   <g id="cell11">
  <circle cx="735.24" cy="1610.37" r="10.0937" stroke-width="0.5" stroke="black" fill="grey"/>
  <circle cx="735.24" cy="1610.37" r="6.11749" stroke-width="0.5" stroke="grey" fill="grey"/>
   </g>
   <g id="cell12">
  <circle cx="1604.55" cy="280.262" r="10.0603" stroke-width="0.5" stroke="black" fill="grey"/>
  <circle cx="1604.55" cy="280.262" r="6.09983" stroke-width="0.5" stroke="grey" fill="grey"/>
   </g>
   <g id="cell13">
  <circle cx="1773.69" cy="1860.1" r="10.1863" stroke-width="0.5" stroke="black" fill="grey"/>
  <circle cx="1773.69" cy="1860.1" r="6.16762" stroke-width="0.5" stroke="grey" fill="grey"/>
   </g>
   <g id="cell14">
  <circle cx="1551.9" cy="1649.03" r="10.5166" stroke-width="0.5" stroke="black" fill="grey"/>
  <circle cx="1551.9" cy="1649.03" r="6.33218" stroke-width="0.5" stroke="grey" fill="grey"/>
   </g>
   <g id="cell15">
  <circle cx="1037.74" cy="1534.86" r="8.4076" stroke-width="0.5" stroke="black" fill="grey"/>
  <circle cx="1037.74" cy="1534.86" r="5.05018" stroke-width="0.5" stroke="grey" fill="grey"/>
   </g>
   <g id="cell16">
  <circle cx="265.165" cy="1408.73" r="10.2511" stroke-width="0.5" stroke="black" fill="grey"/>
  <circle cx="265.165" cy="1408.73" r="6.20215" stroke-width="0.5" stroke="grey" fill="grey"/>
   </g>
   <g id="cell17">
  <circle cx="1194.08" cy="226.881" r="9.69893" stroke-width="0.5" stroke="black" fill="grey"/>
  <circle cx="1194.08" cy="226.881" r="5.89332" stroke-width="0.5" stroke="grey" fill="grey"/>
   </g>
   <g id="cell18">
  <circle cx="1872.47" cy="1546.7" r="9.98052" stroke-width="0.5" stroke="black" fill="grey"/>
  <circle cx="1872.47" cy="1546.7" r="6.05468" stroke-width="0.5" stroke="grey" fill="grey"/>
   </g>
   <g id="cell19">
  <circle cx="223.408" cy="899.271" r="10.3615" stroke-width="0.5" stroke="black" fill="grey"/>
  <circle cx="223.408" cy="899.271" r="6.25834" stroke-width="0.5" stroke="grey" fill="grey"/>
   </g>
   <g id="cell20">
  <circle cx="562.229" cy="326.66" r="8.38753" stroke-width="0.5" stroke="black" fill="grey"/>
  <circle cx="562.229" cy="326.66" r="5.04286" stroke-width="0.5" stroke="grey" fill="grey"/>
   </g>
   <g id="cell21">
  <circle cx="1462.46" cy="912.709" r="9.43292" stroke-width="0.5" stroke="black" fill="grey"/>
  <circle cx="1462.46" cy="912.709" r="5.73624" stroke-width="0.5" stroke="grey" fill="grey"/>
   </g>
   <g id="cell22">
  <circle cx="1109.62" cy="260.398" r="10.5314" stroke-width="0.5" stroke="black" fill="grey"/>
  <circle cx="1109.62" cy="260.398" r="6.33867" stroke-width="0.5" stroke="grey" fill="grey"/>
   </g>
   <g id="cell175">
  <circle cx="758.044" cy="884.93" r="8.40022" stroke-width="0.5" stroke="black" fill="grey"/>
  <circle cx="758.044" cy="884.93" r="5.04764" stroke-width="0.5" stroke="grey" fill="grey"/>
   </g>
   <g id="cell24">
  <circle cx="1271.37" cy="404.365" r="8.73796" stroke-width="0.5" stroke="black" fill="grey"/>
  <circle cx="1271.37" cy="404.365" r="5.29741" stroke-width="0.5" stroke="grey" fill="grey"/>
   </g>
   <g id="cell25">
  <circle cx="798.444" cy="1899.46" r="10.3533" stroke-width="0.5" stroke="black" fill="grey"/>
  <circle cx="798.444" cy="1899.46" r="6.25451" stroke-width="0.5" stroke="grey" fill="grey"/>
   </g>
   <g id="cell26">
  <circle cx="1355.7" cy="888.055" r="8.39316" stroke-width="0.5" stroke="black" fill="grey"/>
  <circle cx="1355.7" cy="888.055" r="5.04503" stroke-width="0.5" stroke="grey" fill="grey"/>
   </g>
   <g id="cell27">
  <circle cx="1181.47" cy="882.858" r="10.3295" stroke-width="0.5" stroke="black" fill="grey"/>
  <circle cx="1181.47" cy="882.858" r="6.24282" stroke-width="0.5" stroke="grey" fill="grey"/>
   </g>
   <g id="cell28">
  <circle cx="1321.8" cy="118.488" r="10.135" stroke-width="0.5" stroke="black" fill="grey"/>
  <circle cx="1321.8" cy="118.488" r="6.14015" stroke-width="0.5" stroke="grey" fill="grey"/>
   </g>
   <g id="cell29">
  <circle cx="1983.31" cy="1300.97" r="9.94151" stroke-width="0.5" stroke="black" fill="grey"/>
  <circle cx="1983.31" cy="1300.97" r="6.03325" stroke-width="0.5" stroke="grey" fill="grey"/>
   </g>
   <g id="cell30">
  <circle cx="1352.96" cy="353.693" r="8.40537" stroke-width="0.5" stroke="black" fill="grey"/>
  <circle cx="1352.96" cy="353.693" r="5.04944" stroke-width="0.5" stroke="grey" fill="grey"/>
   </g>
   <g id="cell31">
  <circle cx="695.786" cy="231.866" r="9.44075" stroke-width="0.5" stroke="black" fill="grey"/>
  <circle cx="695.786" cy="231.866" r="5.73901" stroke-width="0.5" stroke="grey" fill="grey"/>
   </g>
   <g id="cell32">
  <circle cx="618.124" cy="1198.36" r="10.3667" stroke-width="0.5" stroke="black" fill="grey"/>
  <circle cx="618.124" cy="1198.36" r="6.26129" stroke-width="0.5" stroke="grey" fill="grey"/>
   </g>
   <g id="cell33">
  <circle cx="657.872" cy="1151.19" r="10.0113" stroke-width="0.5" stroke="black" fill="grey"/>
  <circle cx="657.872" cy="1151.19" r="6.07278" stroke-width="0.5" stroke="grey" fill="grey"/>
   </g>
   <g id="cell34">
  <circle cx="897.39" cy="1236.5" r="10.386" stroke-width="0.5" stroke="black" fill="grey"/>
  <circle cx="897.39" cy="1236.5" r="6.27085" stroke-width="0.5" stroke="grey" fill="grey"/>
   </g>
   <g id="cell35">
  <circle cx="1944.98" cy="212.353" r="10.429" stroke-width="0.5" stroke="black" fill="grey"/>
  <circle cx="1944.98" cy="212.353" r="6.29194" stroke-width="0.5" stroke="grey" fill="grey"/>
   </g>
   <g id="cell36">
  <circle cx="359.326" cy="1285.62" r="9.50294" stroke-width="0.5" stroke="black" fill="grey"/>
  <circle cx="359.326" cy="1285.62" r="5.77673" stroke-width="0.5" stroke="grey" fill="grey"/>
   </g>
   <g id="cell37">
  <circle cx="1975.77" cy="1340.98" r="10.5166" stroke-width="0.5" stroke="black" fill="grey"/>
  <circle cx="1975.77" cy="1340.98" r="6.33218" stroke-width="0.5" stroke="grey" fill="grey"/>
   </g>
   <g id="cell38">
  <circle cx="453.858" cy="833.029" r="10.4338" stroke-width="0.5" stroke="black" fill="grey"/>
  <circle cx="453.858" cy="833.029" r="6.29424" stroke-width="0.5" stroke="grey" fill="grey"/>
   </g>
   <g id="cell39">
  <circle cx="922.929" cy="508.555" r="8.38608" stroke-width="0.5" stroke="black" fill="grey"/>
  <circle cx="922.929" cy="508.555" r="5.04229" stroke-width="0.5" stroke="grey" fill="grey"/>
   </g>
   <g id="cell40">
  <circle cx="261.626" cy="663.995" r="9.79742" stroke-width="0.5" stroke="black" fill="grey"/>
  <circle cx="261.626" cy="663.995" r="5.95034" stroke-width="0.5" stroke="grey" fill="grey"/>
   </g>
   <g id="cell41">
  <circle cx="1360.1" cy="1293.25" r="8.41088" stroke-width="0.5" stroke="black" fill="grey"/>
  <circle cx="1360.1" cy="1293.25" r="5.05119" stroke-width="0.5" stroke="grey" fill="grey"/>
   </g>
   <g id="cell42">
  <circle cx="273.43" cy="1587.93" r="10.3721" stroke-width="0.5" stroke="black" fill="grey"/>
  <circle cx="273.43" cy="1587.93" r="6.2642" stroke-width="0.5" stroke="grey" fill="grey"/>
   </g>
   <g id="cell43">
  <circle cx="1922.37" cy="748.114" r="10.3378" stroke-width="0.5" stroke="black" fill="grey"/>
  <circle cx="1922.37" cy="748.114" r="6.24689" stroke-width="0.5" stroke="grey" fill="grey"/>
   </g>
   <g id="cell44">
  <circle cx="1700.72" cy="65.8184" r="9.92353" stroke-width="0.5" stroke="black" fill="grey"/>
  <circle cx="1700.72" cy="65.8184" r="6.0228" stroke-width="0.5" stroke="grey" fill="grey"/>
   </g>
   <g id="cell45">
  <circle cx="1260.04" cy="1717.16" r="8.40788" stroke-width="0.5" stroke="black" fill="grey"/>
  <circle cx="1260.04" cy="1717.16" r="5.05027" stroke-width="0.5" stroke="grey" fill="grey"/>
   </g>
   <g id="cell46">
  <circle cx="184.831" cy="1988.96" r="10.0782" stroke-width="0.5" stroke="black" fill="grey"/>
  <circle cx="184.831" cy="1988.96" r="6.10914" stroke-width="0.5" stroke="grey" fill="grey"/>
   </g>
   <g id="cell47">
  <circle cx="1744.75" cy="913.608" r="10.4638" stroke-width="0.5" stroke="black" fill="grey"/>
  <circle cx="1744.75" cy="913.608" r="6.30841" stroke-width="0.5" stroke="grey" fill="grey"/>
   </g>
   <g id="cell48">
  <circle cx="1956.67" cy="72.7075" r="10.028" stroke-width="0.5" stroke="black" fill="grey"/>
  <circle cx="1956.67" cy="72.7075" r="6.08203" stroke-width="0.5" stroke="grey" fill="grey"/>
   </g>
   <g id="cell49">
  <circle cx="943.049" cy="1480.72" r="4.42957" stroke-width="0.5" stroke="black" fill="grey"/>
  <circle cx="943.049" cy="1480.72" r="3.34764" stroke-width="0.5" stroke="black" fill="black"/>
   </g>
   <g id="cell50">
  <circle cx="154.294" cy="829.494" r="10.2788" stroke-width="0.5" stroke="black" fill="red"/>
  <circle cx="154.294" cy="829.494" r="6.21679" stroke-width="0.5" stroke="red" fill="red"/>
   </g>
   <g id="cell51">
  <circle cx="1991.94" cy="274.813" r="8.36592" stroke-width="0.5" stroke="black" fill="red"/>
  <circle cx="1991.94" cy="274.813" r="5.03403" stroke-width="0.5" stroke="red" fill="red"/>
   </g>
   <g id="cell52">
  <circle cx="656.65" cy="998.969" r="10.3447" stroke-width="0.5" stroke="black" fill="red"/>
  <circle cx="656.65" cy="998.969" r="6.25046" stroke-width="0.5" stroke="red" fill="red"/>
   </g>
   <g id="cell53">
  <circle cx="1376.74" cy="679.795" r="10.5092" stroke-width="0.5" stroke="black" fill="red"/>
  <circle cx="1376.74" cy="679.795" r="6.32893" stroke-width="0.5" stroke="red" fill="red"/>
   </g>
   <g id="cell54">
  <circle cx="808.867" cy="1785.54" r="10.1214" stroke-width="0.5" stroke="black" fill="red"/>
  <circle cx="808.867" cy="1785.54" r="6.13275" stroke-width="0.5" stroke="red" fill="red"/>
   </g>
   <g id="cell55">
  <circle cx="446.986" cy="1345.56" r="10.4955" stroke-width="0.5" stroke="black" fill="red"/>
  <circle cx="446.986" cy="1345.56" r="6.32275" stroke-width="0.5" stroke="red" fill="red"/>
   </g>
   <g id="cell56">
  <circle cx="1162.29" cy="1714.3" r="8.38118" stroke-width="0.5" stroke="black" fill="red"/>
  <circle cx="1162.29" cy="1714.3" r="5.04034" stroke-width="0.5" stroke="red" fill="red"/>
   </g>
   <g id="cell57">
  <circle cx="1000.16" cy="1112.29" r="10.4711" stroke-width="0.5" stroke="black" fill="red"/>
  <circle cx="1000.16" cy="1112.29" r="6.31185" stroke-width="0.5" stroke="red" fill="red"/>
   </g>
   <g id="cell58">
  <circle cx="116.921" cy="1807.81" r="9.11664" stroke-width="0.5" stroke="black" fill="red"/>
  <circle cx="116.921" cy="1807.81" r="5.54004" stroke-width="0.5" stroke="red" fill="red"/>
   </g>
   <g id="cell98">
  <circle cx="1817.98" cy="662.854" r="8.40614" stroke-width="0.5" stroke="black" fill="red"/>
  <circle cx="1817.98" cy="662.854" r="5.0497" stroke-width="0.5" stroke="red" fill="red"/>
   </g>
   <g id="cell60">
  <circle cx="679.27" cy="28.9594" r="9.97899" stroke-width="0.5" stroke="black" fill="red"/>
  <circle cx="679.27" cy="28.9594" r="6.05418" stroke-width="0.5" stroke="red" fill="red"/>
   </g>
   <g id="cell61">
  <circle cx="1672.72" cy="266.693" r="9.16013" stroke-width="0.5" stroke="black" fill="red"/>
  <circle cx="1672.72" cy="266.693" r="5.56595" stroke-width="0.5" stroke="red" fill="red"/>
   </g>
   <g id="cell62">
  <circle cx="1414.06" cy="1717.79" r="10.3521" stroke-width="0.5" stroke="black" fill="red"/>
  <circle cx="1414.06" cy="1717.79" r="6.25416" stroke-width="0.5" stroke="red" fill="red"/>
   </g>
   <g id="cell63">
  <circle cx="573.734" cy="346.068" r="9.4014" stroke-width="0.5" stroke="black" fill="red"/>
  <circle cx="573.734" cy="346.068" r="5.71687" stroke-width="0.5" stroke="red" fill="red"/>
   </g>
   <g id="cell64">
  <circle cx="1225.62" cy="1110.43" r="9.74852" stroke-width="0.5" stroke="black" fill="red"/>
  <circle cx="1225.62" cy="1110.43" r="5.92237" stroke-width="0.5" stroke="red" fill="red"/>
   </g>
   <g id="cell65">
  <circle cx="313.409" cy="1639.15" r="9.84136" stroke-width="0.5" stroke="black" fill="red"/>
  <circle cx="313.409" cy="1639.15" r="5.97587" stroke-width="0.5" stroke="red" fill="red"/>
   </g>
   <g id="cell66">
  <circle cx="19.8742" cy="304.146" r="9.74767" stroke-width="0.5" stroke="black" fill="red"/>
  <circle cx="19.8742" cy="304.146" r="5.92208" stroke-width="0.5" stroke="red" fill="red"/>
   </g>
   <g id="cell67">
  <circle cx="1100.24" cy="537.801" r="9.5247" stroke-width="0.5" stroke="black" fill="red"/>
  <circle cx="1100.24" cy="537.801" r="5.79185" stroke-width="0.5" stroke="red" fill="red"/>
   </g>
   <g id="cell68">
  <circle cx="1431.41" cy="589.464" r="10.0308" stroke-width="0.5" stroke="black" fill="red"/>
  <circle cx="1431.41" cy="589.464" r="6.08299" stroke-width="0.5" stroke="red" fill="red"/>
   </g>
   <g id="cell69">
  <circle cx="797.979" cy="498.841" r="8.40557" stroke-width="0.5" stroke="black" fill="red"/>
  <circle cx="797.979" cy="498.841" r="5.04951" stroke-width="0.5" stroke="red" fill="red"/>
   </g>
   <g id="cell70">
  <circle cx="1098.21" cy="764.692" r="10.3971" stroke-width="0.5" stroke="black" fill="red"/>
  <circle cx="1098.21" cy="764.692" r="6.27648" stroke-width="0.5" stroke="red" fill="red"/>
   </g>
   <g id="cell71">
  <circle cx="1723.68" cy="1185.92" r="9.94398" stroke-width="0.5" stroke="black" fill="red"/>
  <circle cx="1723.68" cy="1185.92" r="6.03405" stroke-width="0.5" stroke="red" fill="red"/>
   </g>
   <g id="cell72">
  <circle cx="468.239" cy="1768.43" r="8.41271" stroke-width="0.5" stroke="black" fill="red"/>
  <circle cx="468.239" cy="1768.43" r="5.05167" stroke-width="0.5" stroke="red" fill="red"/>
   </g>
   <g id="cell73">
  <circle cx="1354.08" cy="823.511" r="10.414" stroke-width="0.5" stroke="black" fill="red"/>
  <circle cx="1354.08" cy="823.511" r="6.28467" stroke-width="0.5" stroke="red" fill="red"/>
   </g>
   <g id="cell74">
  <circle cx="1750.03" cy="1855.71" r="8.40925" stroke-width="0.5" stroke="black" fill="red"/>
  <circle cx="1750.03" cy="1855.71" r="5.0507" stroke-width="0.5" stroke="red" fill="red"/>
   </g>
   <g id="cell75">
  <circle cx="288.465" cy="533.169" r="10.4307" stroke-width="0.5" stroke="black" fill="red"/>
  <circle cx="288.465" cy="533.169" r="6.29241" stroke-width="0.5" stroke="red" fill="red"/>
   </g>
   <g id="cell76">
  <circle cx="1603.77" cy="790.135" r="8.40596" stroke-width="0.5" stroke="black" fill="red"/>
  <circle cx="1603.77" cy="790.135" r="5.04964" stroke-width="0.5" stroke="red" fill="red"/>
   </g>
   <g id="cell77">
  <circle cx="1421.1" cy="1810.86" r="10.3456" stroke-width="0.5" stroke="black" fill="red"/>
  <circle cx="1421.1" cy="1810.86" r="6.25074" stroke-width="0.5" stroke="red" fill="red"/>
   </g>
   <g id="cell78">
  <circle cx="1154.49" cy="575.194" r="9.28989" stroke-width="0.5" stroke="black" fill="red"/>
  <circle cx="1154.49" cy="575.194" r="5.65071" stroke-width="0.5" stroke="red" fill="red"/>
   </g>
   <g id="cell79">
  <circle cx="1957.18" cy="1424.62" r="9.88166" stroke-width="0.5" stroke="black" fill="red"/>
  <circle cx="1957.18" cy="1424.62" r="5.99942" stroke-width="0.5" stroke="red" fill="red"/>
   </g>
   <g id="cell80">
  <circle cx="1439.65" cy="1276.12" r="10.0934" stroke-width="0.5" stroke="black" fill="red"/>
  <circle cx="1439.65" cy="1276.12" r="6.11739" stroke-width="0.5" stroke="red" fill="red"/>
   </g>
   <g id="cell81">
  <circle cx="1133.92" cy="1904.52" r="9.30463" stroke-width="0.5" stroke="black" fill="red"/>
  <circle cx="1133.92" cy="1904.52" r="5.65628" stroke-width="0.5" stroke="red" fill="red"/>
   </g>
   <g id="cell82">
  <circle cx="1233.79" cy="819.294" r="10.1221" stroke-width="0.5" stroke="black" fill="red"/>
  <circle cx="1233.79" cy="819.294" r="6.13298" stroke-width="0.5" stroke="red" fill="red"/>
   </g>
   <g id="cell83">
  <circle cx="1248.13" cy="1214.25" r="9.50379" stroke-width="0.5" stroke="black" fill="red"/>
  <circle cx="1248.13" cy="1214.25" r="5.777" stroke-width="0.5" stroke="red" fill="red"/>
   </g>
   <g id="cell84">
  <circle cx="41.1076" cy="938.623" r="10.5211" stroke-width="0.5" stroke="black" fill="red"/>
  <circle cx="41.1076" cy="938.623" r="6.33419" stroke-width="0.5" stroke="red" fill="red"/>
   </g>
   <g id="cell85">
  <circle cx="1375.74" cy="1270.29" r="8.71062" stroke-width="0.5" stroke="black" fill="red"/>
  <circle cx="1375.74" cy="1270.29" r="5.27512" stroke-width="0.5" stroke="red" fill="red"/>
   </g>
   <g id="cell86">
  <circle cx="560.76" cy="827.16" r="9.7721" stroke-width="0.5" stroke="black" fill="red"/>
  <circle cx="560.76" cy="827.16" r="5.93617" stroke-width="0.5" stroke="red" fill="red"/>
   </g>
   <g id="cell87">
  <circle cx="1482.32" cy="868.539" r="8.39316" stroke-width="0.5" stroke="black" fill="red"/>
  <circle cx="1482.32" cy="868.539" r="5.04503" stroke-width="0.5" stroke="red" fill="red"/>
   </g>
   <g id="cell88">
  <circle cx="259.889" cy="223.896" r="8.40925" stroke-width="0.5" stroke="black" fill="red"/>
  <circle cx="259.889" cy="223.896" r="5.0507" stroke-width="0.5" stroke="red" fill="red"/>
   </g>
   <g id="cell89">
  <circle cx="206.943" cy="1183.42" r="8.54145" stroke-width="0.5" stroke="black" fill="red"/>
  <circle cx="206.943" cy="1183.42" r="5.14859" stroke-width="0.5" stroke="red" fill="red"/>
   </g>
   <g id="cell90">
  <circle cx="1184.13" cy="1130.2" r="9.22944" stroke-width="0.5" stroke="black" fill="red"/>
  <circle cx="1184.13" cy="1130.2" r="5.61067" stroke-width="0.5" stroke="red" fill="red"/>
   </g>
   <g id="cell91">
  <circle cx="49.2788" cy="1276.93" r="10.1739" stroke-width="0.5" stroke="black" fill="red"/>
  <circle cx="49.2788" cy="1276.93" r="6.16105" stroke-width="0.5" stroke="red" fill="red"/>
   </g>
   <g id="cell99">
  <circle cx="923.293" cy="1979.76" r="10.4816" stroke-width="0.5" stroke="black" fill="red"/>
  <circle cx="923.293" cy="1979.76" r="6.31666" stroke-width="0.5" stroke="red" fill="red"/>
   </g>
   <g id="cell93">
  <circle cx="381.497" cy="1753.22" r="10.3153" stroke-width="0.5" stroke="black" fill="red"/>
  <circle cx="381.497" cy="1753.22" r="6.23525" stroke-width="0.5" stroke="red" fill="red"/>
   </g>
   <g id="cell94">
  <circle cx="804.091" cy="215.582" r="10.2699" stroke-width="0.5" stroke="black" fill="red"/>
  <circle cx="804.091" cy="215.582" r="6.2121" stroke-width="0.5" stroke="red" fill="red"/>
   </g>
   <g id="cell95">
  <circle cx="1954.67" cy="1778.9" r="10.3796" stroke-width="0.5" stroke="black" fill="red"/>
  <circle cx="1954.67" cy="1778.9" r="6.26775" stroke-width="0.5" stroke="red" fill="red"/>
   </g>
   <g id="cell96">
  <circle cx="1682.87" cy="1069.68" r="8.38753" stroke-width="0.5" stroke="black" fill="red"/>
  <circle cx="1682.87" cy="1069.68" r="5.04286" stroke-width="0.5" stroke="red" fill="red"/>
   </g>
   <g id="cell97">
  <circle cx="921.921" cy="176.805" r="10.3216" stroke-width="0.5" stroke="black" fill="red"/>
  <circle cx="921.921" cy="176.805" r="6.23882" stroke-width="0.5" stroke="red" fill="red"/>
   </g>
   <g id="cell101">
  <circle cx="1344.46" cy="1253.89" r="10.475" stroke-width="0.5" stroke="black" fill="grey"/>
  <circle cx="1344.46" cy="1253.89" r="6.31357" stroke-width="0.5" stroke="grey" fill="grey"/>
   </g>
   <g id="cell102">
  <circle cx="1060.62" cy="1780.56" r="10.2208" stroke-width="0.5" stroke="black" fill="grey"/>
  <circle cx="1060.62" cy="1780.56" r="6.18594" stroke-width="0.5" stroke="grey" fill="grey"/>
   </g>
   <g id="cell103">
  <circle cx="1246.74" cy="1256.87" r="10.456" stroke-width="0.5" stroke="black" fill="red"/>
  <circle cx="1246.74" cy="1256.87" r="6.30473" stroke-width="0.5" stroke="red" fill="red"/>
   </g>
   <g id="cell104">
  <circle cx="786.897" cy="1874.44" r="10.4881" stroke-width="0.5" stroke="black" fill="grey"/>
  <circle cx="786.897" cy="1874.44" r="6.31965" stroke-width="0.5" stroke="grey" fill="grey"/>
   </g>
   <g id="cell105">
  <circle cx="1155.53" cy="771.954" r="10.4881" stroke-width="0.5" stroke="black" fill="grey"/>
  <circle cx="1155.53" cy="771.954" r="6.31965" stroke-width="0.5" stroke="grey" fill="grey"/>
   </g>
   <g id="cell106">
  <circle cx="440.022" cy="1760.47" r="10.4342" stroke-width="0.5" stroke="black" fill="red"/>
  <circle cx="440.022" cy="1760.47" r="6.29435" stroke-width="0.5" stroke="red" fill="red"/>
   </g>
   <g id="cell107">
  <circle cx="917.018" cy="1254.83" r="10.0322" stroke-width="0.5" stroke="black" fill="grey"/>
  <circle cx="917.018" cy="1254.83" r="6.08343" stroke-width="0.5" stroke="grey" fill="grey"/>
   </g>
   <g id="cell108">
  <circle cx="1777.25" cy="952.857" r="10.3859" stroke-width="0.5" stroke="black" fill="grey"/>
  <circle cx="1777.25" cy="952.857" r="6.27084" stroke-width="0.5" stroke="grey" fill="grey"/>
   </g>
   <g id="cell109">
  <circle cx="1762.41" cy="1174.65" r="9.86389" stroke-width="0.5" stroke="black" fill="red"/>
  <circle cx="1762.41" cy="1174.65" r="5.98852" stroke-width="0.5" stroke="red" fill="red"/>
   </g>
   <g id="cell110">
  <circle cx="996.183" cy="1972.6" r="9.94394" stroke-width="0.5" stroke="black" fill="red"/>
  <circle cx="996.183" cy="1972.6" r="6.03404" stroke-width="0.5" stroke="red" fill="red"/>
   </g>
   <g id="cell111">
  <circle cx="1943.19" cy="1768.89" r="8.41049" stroke-width="0.5" stroke="black" fill="red"/>
  <circle cx="1943.19" cy="1768.89" r="5.05108" stroke-width="0.5" stroke="red" fill="red"/>
   </g>
   <g id="cell112">
  <circle cx="1014.3" cy="1064.33" r="10.4293" stroke-width="0.5" stroke="black" fill="red"/>
  <circle cx="1014.3" cy="1064.33" r="6.29202" stroke-width="0.5" stroke="red" fill="red"/>
   </g>
   <g id="cell113">
  <circle cx="684.839" cy="213.641" r="10.353" stroke-width="0.5" stroke="black" fill="grey"/>
  <circle cx="684.839" cy="213.641" r="6.25444" stroke-width="0.5" stroke="grey" fill="grey"/>
   </g>
   <g id="cell114">
  <circle cx="624.803" cy="1221.48" r="8.41036" stroke-width="0.5" stroke="black" fill="grey"/>
  <circle cx="624.803" cy="1221.48" r="5.05104" stroke-width="0.5" stroke="grey" fill="grey"/>
   </g>
   <g id="cell115">
  <circle cx="1728.41" cy="1935.18" r="10.2983" stroke-width="0.5" stroke="black" fill="grey"/>
  <circle cx="1728.41" cy="1935.18" r="6.22655" stroke-width="0.5" stroke="grey" fill="grey"/>
   </g>
   <g id="cell116">
  <circle cx="298.282" cy="672.399" r="9.00596" stroke-width="0.5" stroke="black" fill="grey"/>
  <circle cx="298.282" cy="672.399" r="5.46745" stroke-width="0.5" stroke="grey" fill="grey"/>
   </g>
   <g id="cell117">
  <circle cx="1894.42" cy="1572.02" r="10.3857" stroke-width="0.5" stroke="black" fill="grey"/>
  <circle cx="1894.42" cy="1572.02" r="6.27077" stroke-width="0.5" stroke="grey" fill="grey"/>
   </g>
   <g id="cell118">
  <circle cx="1311.54" cy="864.827" r="9.37492" stroke-width="0.5" stroke="black" fill="red"/>
  <circle cx="1311.54" cy="864.827" r="5.69897" stroke-width="0.5" stroke="red" fill="red"/>
   </g>
   <g id="cell119">
  <circle cx="1278" cy="814.128" r="10.2093" stroke-width="0.5" stroke="black" fill="red"/>
  <circle cx="1278" cy="814.128" r="6.17994" stroke-width="0.5" stroke="red" fill="red"/>
   </g>
   <g id="cell120">
  <circle cx="725.199" cy="1678.47" r="10.2804" stroke-width="0.5" stroke="black" fill="grey"/>
  <circle cx="725.199" cy="1678.47" r="6.21732" stroke-width="0.5" stroke="grey" fill="grey"/>
   </g>
   <g id="cell121">
  <circle cx="455.843" cy="892.265" r="10.3665" stroke-width="0.5" stroke="black" fill="grey"/>
  <circle cx="455.843" cy="892.265" r="6.26125" stroke-width="0.5" stroke="grey" fill="grey"/>
   </g>
   <g id="cell122">
  <circle cx="1926.53" cy="247.029" r="10.2516" stroke-width="0.5" stroke="black" fill="grey"/>
  <circle cx="1926.53" cy="247.029" r="6.20231" stroke-width="0.5" stroke="grey" fill="grey"/>
   </g>
   <g id="cell123">
  <circle cx="98.4187" cy="1245.38" r="10.3793" stroke-width="0.5" stroke="black" fill="red"/>
  <circle cx="98.4187" cy="1245.38" r="6.26764" stroke-width="0.5" stroke="red" fill="red"/>
   </g>
   <g id="cell124">
  <circle cx="1394.07" cy="1798.01" r="10.4084" stroke-width="0.5" stroke="black" fill="red"/>
  <circle cx="1394.07" cy="1798.01" r="6.28199" stroke-width="0.5" stroke="red" fill="red"/>
   </g>
   <g id="cell125">
  <circle cx="1452.85" cy="1335.45" r="10.1976" stroke-width="0.5" stroke="black" fill="red"/>
  <circle cx="1452.85" cy="1335.45" r="6.17377" stroke-width="0.5" stroke="red" fill="red"/>
   </g>
   <g id="cell126">
  <circle cx="1188.67" cy="810.396" r="10.2891" stroke-width="0.5" stroke="black" fill="red"/>
  <circle cx="1188.67" cy="810.396" r="6.22189" stroke-width="0.5" stroke="red" fill="red"/>
   </g>
   <g id="cell127">
  <circle cx="374.407" cy="1287.14" r="8.57566" stroke-width="0.5" stroke="black" fill="grey"/>
  <circle cx="374.407" cy="1287.14" r="5.17379" stroke-width="0.5" stroke="grey" fill="grey"/>
   </g>
   <g id="cell128">
  <circle cx="1704.46" cy="1226.37" r="9.04478" stroke-width="0.5" stroke="black" fill="grey"/>
  <circle cx="1704.46" cy="1226.37" r="5.49263" stroke-width="0.5" stroke="grey" fill="grey"/>
   </g>
   <g id="cell129">
  <circle cx="1670.8" cy="314.275" r="10.4082" stroke-width="0.5" stroke="black" fill="red"/>
  <circle cx="1670.8" cy="314.275" r="6.28191" stroke-width="0.5" stroke="red" fill="red"/>
   </g>
   <g id="cell130">
  <circle cx="244.336" cy="1127.9" r="10.3453" stroke-width="0.5" stroke="black" fill="red"/>
  <circle cx="244.336" cy="1127.9" r="6.25065" stroke-width="0.5" stroke="red" fill="red"/>
   </g>
   <g id="cell131">
  <circle cx="220.33" cy="1432.3" r="10.1735" stroke-width="0.5" stroke="black" fill="grey"/>
  <circle cx="220.33" cy="1432.3" r="6.16092" stroke-width="0.5" stroke="grey" fill="grey"/>
   </g>
   <g id="cell132">
  <circle cx="1976.03" cy="805.958" r="10.3592" stroke-width="0.5" stroke="black" fill="grey"/>
  <circle cx="1976.03" cy="805.958" r="6.25771" stroke-width="0.5" stroke="grey" fill="grey"/>
   </g>
   <g id="cell133">
  <circle cx="272.205" cy="191.456" r="10.161" stroke-width="0.5" stroke="black" fill="red"/>
  <circle cx="272.205" cy="191.456" r="6.15421" stroke-width="0.5" stroke="red" fill="red"/>
   </g>
   <g id="cell134">
  <circle cx="1366.8" cy="187.208" r="10.3968" stroke-width="0.5" stroke="black" fill="grey"/>
  <circle cx="1366.8" cy="187.208" r="6.27639" stroke-width="0.5" stroke="grey" fill="grey"/>
   </g>
   <g id="cell135">
  <circle cx="181.442" cy="1957.23" r="10.2798" stroke-width="0.5" stroke="black" fill="grey"/>
  <circle cx="181.442" cy="1957.23" r="6.21712" stroke-width="0.5" stroke="grey" fill="grey"/>
   </g>
   <g id="cell136">
  <circle cx="1681.69" cy="1907.98" r="9.79665" stroke-width="0.5" stroke="black" fill="red"/>
  <circle cx="1681.69" cy="1907.98" r="5.95009" stroke-width="0.5" stroke="red" fill="red"/>
   </g>
   <g id="cell137">
  <circle cx="776.249" cy="1801.62" r="10.3223" stroke-width="0.5" stroke="black" fill="red"/>
  <circle cx="776.249" cy="1801.62" r="6.23903" stroke-width="0.5" stroke="red" fill="red"/>
   </g>
   <g id="cell138">
  <circle cx="283.325" cy="1606.14" r="9.40723" stroke-width="0.5" stroke="black" fill="red"/>
  <circle cx="283.325" cy="1606.14" r="5.71894" stroke-width="0.5" stroke="red" fill="red"/>
   </g>
   <g id="cell139">
  <circle cx="1401.57" cy="1672.69" r="10.3787" stroke-width="0.5" stroke="black" fill="red"/>
  <circle cx="1401.57" cy="1672.69" r="6.26745" stroke-width="0.5" stroke="red" fill="red"/>
   </g>
   <g id="cell140">
  <circle cx="1575.53" cy="1028.8" r="10.2508" stroke-width="0.5" stroke="black" fill="grey"/>
  <circle cx="1575.53" cy="1028.8" r="6.20204" stroke-width="0.5" stroke="grey" fill="grey"/>
   </g>
   <g id="cell141">
  <circle cx="1662.72" cy="44.0091" r="10.2407" stroke-width="0.5" stroke="black" fill="grey"/>
  <circle cx="1662.72" cy="44.0091" r="6.19671" stroke-width="0.5" stroke="grey" fill="grey"/>
   </g>
   <g id="cell142">
  <circle cx="1428.86" cy="625.665" r="10.1071" stroke-width="0.5" stroke="black" fill="red"/>
  <circle cx="1428.86" cy="625.665" r="6.12503" stroke-width="0.5" stroke="red" fill="red"/>
   </g>
   <g id="cell143">
  <circle cx="650.387" cy="932.897" r="10.2701" stroke-width="0.5" stroke="black" fill="red"/>
  <circle cx="650.387" cy="932.897" r="6.21215" stroke-width="0.5" stroke="red" fill="red"/>
   </g>
   <g id="cell144">
  <circle cx="1200.33" cy="250.349" r="8.40862" stroke-width="0.5" stroke="black" fill="grey"/>
  <circle cx="1200.33" cy="250.349" r="5.0505" stroke-width="0.5" stroke="grey" fill="grey"/>
   </g>
   <g id="cell145">
  <circle cx="267.494" cy="1543.15" r="10.1346" stroke-width="0.5" stroke="black" fill="grey"/>
  <circle cx="267.494" cy="1543.15" r="6.14001" stroke-width="0.5" stroke="grey" fill="grey"/>
   </g>
   <g id="cell146">
  <circle cx="759.316" cy="186.828" r="9.30473" stroke-width="0.5" stroke="black" fill="red"/>
  <circle cx="759.316" cy="186.828" r="5.65631" stroke-width="0.5" stroke="red" fill="red"/>
   </g>
   <g id="cell147">
  <circle cx="1147.03" cy="1886.04" r="9.81863" stroke-width="0.5" stroke="black" fill="red"/>
  <circle cx="1147.03" cy="1886.04" r="5.96295" stroke-width="0.5" stroke="red" fill="red"/>
   </g>
   <g id="cell148">
  <circle cx="1181.85" cy="904.39" r="9.15906" stroke-width="0.5" stroke="black" fill="grey"/>
  <circle cx="1181.85" cy="904.39" r="5.56559" stroke-width="0.5" stroke="grey" fill="grey"/>
   </g>
   <g id="cell149">
  <circle cx="654.681" cy="54.27" r="10.2968" stroke-width="0.5" stroke="black" fill="red"/>
  <circle cx="654.681" cy="54.27" r="6.22609" stroke-width="0.5" stroke="red" fill="red"/>
   </g>
   <g id="cell150">
  <circle cx="1202.88" cy="1072.02" r="10.1965" stroke-width="0.5" stroke="black" fill="red"/>
  <circle cx="1202.88" cy="1072.02" r="6.17341" stroke-width="0.5" stroke="red" fill="red"/>
   </g>
   <g id="cell151">
  <circle cx="950.305" cy="210.944" r="8.40814" stroke-width="0.5" stroke="black" fill="red"/>
  <circle cx="950.305" cy="210.944" r="5.05035" stroke-width="0.5" stroke="red" fill="red"/>
   </g>
   <g id="cell152">
  <circle cx="1202.81" cy="1707.4" r="9.00384" stroke-width="0.5" stroke="black" fill="grey"/>
  <circle cx="1202.81" cy="1707.4" r="5.46674" stroke-width="0.5" stroke="grey" fill="grey"/>
   </g>
   <g id="cell153">
  <circle cx="933.347" cy="1492.03" r="9.9788" stroke-width="0.5" stroke="black" fill="grey"/>
  <circle cx="933.347" cy="1492.03" r="6.05412" stroke-width="0.5" stroke="grey" fill="grey"/>
   </g>
   <g id="cell154">
  <circle cx="171.053" cy="846.326" r="9.92274" stroke-width="0.5" stroke="black" fill="red"/>
  <circle cx="171.053" cy="846.326" r="6.02253" stroke-width="0.5" stroke="red" fill="red"/>
   </g>
   <g id="cell155">
  <circle cx="566.47" cy="798.587" r="10.1723" stroke-width="0.5" stroke="black" fill="red"/>
  <circle cx="566.47" cy="798.587" r="6.16054" stroke-width="0.5" stroke="red" fill="red"/>
   </g>
   <g id="cell156">
  <circle cx="1054.42" cy="1528.03" r="1.37899" stroke-width="0.5" stroke="black" fill="grey"/>
  <circle cx="1054.42" cy="1528.03" r="1.36748" stroke-width="0.5" stroke="black" fill="black"/>
   </g>
   <g id="cell157">
  <circle cx="1256.53" cy="1294.35" r="10.1959" stroke-width="0.5" stroke="black" fill="grey"/>
  <circle cx="1256.53" cy="1294.35" r="6.17323" stroke-width="0.5" stroke="grey" fill="grey"/>
   </g>
   <g id="cell158">
  <circle cx="1930.38" cy="1326.15" r="8.50709" stroke-width="0.5" stroke="black" fill="grey"/>
  <circle cx="1930.38" cy="1326.15" r="5.1239" stroke-width="0.5" stroke="grey" fill="grey"/>
   </g>
   <g id="cell159">
  <circle cx="68.2491" cy="264.494" r="10.1719" stroke-width="0.5" stroke="black" fill="red"/>
  <circle cx="68.2491" cy="264.494" r="6.1604" stroke-width="0.5" stroke="red" fill="red"/>
   </g>
   <g id="cell160">
  <circle cx="1974.33" cy="1471.66" r="9.79449" stroke-width="0.5" stroke="black" fill="red"/>
  <circle cx="1974.33" cy="1471.66" r="5.94936" stroke-width="0.5" stroke="red" fill="red"/>
   </g>
   <g id="cell161">
  <circle cx="1799.29" cy="664.857" r="10.0289" stroke-width="0.5" stroke="black" fill="red"/>
  <circle cx="1799.29" cy="664.857" r="6.08238" stroke-width="0.5" stroke="red" fill="red"/>
   </g>
   <g id="cell162">
  <circle cx="1632.34" cy="737.551" r="8.40596" stroke-width="0.5" stroke="black" fill="red"/>
  <circle cx="1632.34" cy="737.551" r="5.04964" stroke-width="0.5" stroke="red" fill="red"/>
   </g>
   <g id="cell163">
  <circle cx="1092.86" cy="1200.02" r="1.55781" stroke-width="0.5" stroke="black" fill="grey"/>
  <circle cx="1092.86" cy="1200.02" r="1.53562" stroke-width="0.5" stroke="black" fill="black"/>
   </g>
   <g id="cell164">
  <circle cx="838.843" cy="520.1" r="9.95903" stroke-width="0.5" stroke="black" fill="red"/>
  <circle cx="838.843" cy="520.1" r="6.04337" stroke-width="0.5" stroke="red" fill="red"/>
   </g>
   <g id="cell165">
  <circle cx="1600.5" cy="165.572" r="9.04128" stroke-width="0.5" stroke="black" fill="grey"/>
  <circle cx="1600.5" cy="165.572" r="5.49143" stroke-width="0.5" stroke="grey" fill="grey"/>
   </g>
   <g id="cell166">
  <circle cx="1381.09" cy="349.153" r="10.0284" stroke-width="0.5" stroke="black" fill="grey"/>
  <circle cx="1381.09" cy="349.153" r="6.08219" stroke-width="0.5" stroke="grey" fill="grey"/>
   </g>
   <g id="cell167">
  <circle cx="1655.74" cy="270.34" r="8.47567" stroke-width="0.5" stroke="black" fill="grey"/>
  <circle cx="1655.74" cy="270.34" r="5.10096" stroke-width="0.5" stroke="grey" fill="grey"/>
   </g>
   <g id="cell168">
  <circle cx="708.546" cy="1208.08" r="8.40472" stroke-width="0.5" stroke="black" fill="grey"/>
  <circle cx="708.546" cy="1208.08" r="5.04922" stroke-width="0.5" stroke="grey" fill="grey"/>
   </g>
   <g id="cell169">
  <circle cx="1939.75" cy="82.3447" r="9.83812" stroke-width="0.5" stroke="black" fill="grey"/>
  <circle cx="1939.75" cy="82.3447" r="5.97476" stroke-width="0.5" stroke="grey" fill="grey"/>
   </g>
   <g id="cell170">
  <circle cx="99.0444" cy="1903.59" r="8.40403" stroke-width="0.5" stroke="black" fill="grey"/>
  <circle cx="99.0444" cy="1903.59" r="5.04898" stroke-width="0.5" stroke="grey" fill="grey"/>
   </g>
   <g id="cell171">
  <circle cx="1168.6" cy="1095.95" r="9.52862" stroke-width="0.5" stroke="black" fill="red"/>
  <circle cx="1168.6" cy="1095.95" r="5.7933" stroke-width="0.5" stroke="red" fill="red"/>
   </g>
   <g id="cell172">
  <circle cx="151.804" cy="1844.07" r="8.99959" stroke-width="0.5" stroke="black" fill="red"/>
  <circle cx="151.804" cy="1844.07" r="5.46523" stroke-width="0.5" stroke="red" fill="red"/>
   </g>
   <g id="cell173">
  <circle cx="547.99" cy="349.752" r="8.40185" stroke-width="0.5" stroke="black" fill="red"/>
  <circle cx="547.99" cy="349.752" r="5.04822" stroke-width="0.5" stroke="red" fill="red"/>
   </g>
   <g id="cell174">
  <circle cx="1461.65" cy="960.194" r="8.40056" stroke-width="0.5" stroke="black" fill="grey"/>
  <circle cx="1461.65" cy="960.194" r="5.04776" stroke-width="0.5" stroke="grey" fill="grey"/>
   </g>
   <g id="cell176">
  <circle cx="1142.06" cy="551.961" r="8.39874" stroke-width="0.5" stroke="black" fill="red"/>
  <circle cx="1142.06" cy="551.961" r="5.04711" stroke-width="0.5" stroke="red" fill="red"/>
   </g>
   <g id="cell177">
  <circle cx="1422.06" cy="1287.29" r="9.14679" stroke-width="0.5" stroke="black" fill="red"/>
  <circle cx="1422.06" cy="1287.29" r="5.56102" stroke-width="0.5" stroke="red" fill="red"/>
   </g>
   <g id="cell178">
  <circle cx="1498.44" cy="880.923" r="8.39316" stroke-width="0.5" stroke="black" fill="red"/>
  <circle cx="1498.44" cy="880.923" r="5.04503" stroke-width="0.5" stroke="red" fill="red"/>
   </g>
   <g id="cell179">
  <circle cx="1378.49" cy="886.788" r="9.22064" stroke-width="0.5" stroke="black" fill="grey"/>
  <circle cx="1378.49" cy="886.788" r="5.60731" stroke-width="0.5" stroke="grey" fill="grey"/>
   </g>
   <g id="cell180">
  <circle cx="1168.89" cy="585.155" r="8.39021" stroke-width="0.5" stroke="black" fill="red"/>
  <circle cx="1168.89" cy="585.155" r="5.0439" stroke-width="0.5" stroke="red" fill="red"/>
   </g>
   <g id="cell181">
  <circle cx="190.041" cy="1262.56" r="9.06603" stroke-width="0.5" stroke="black" fill="grey"/>
  <circle cx="190.041" cy="1262.56" r="5.51088" stroke-width="0.5" stroke="grey" fill="grey"/>
   </g>
   <g id="cell182">
  <circle cx="1652.25" cy="1081.97" r="8.38753" stroke-width="0.5" stroke="black" fill="red"/>
  <circle cx="1652.25" cy="1081.97" r="5.04286" stroke-width="0.5" stroke="red" fill="red"/>
   </g>
   <g id="cell183">
  <circle cx="579.878" cy="325.593" r="8.38753" stroke-width="0.5" stroke="black" fill="grey"/>
  <circle cx="579.878" cy="325.593" r="5.04286" stroke-width="0.5" stroke="grey" fill="grey"/>
   </g>
   <g id="cell184">
  <circle cx="947.604" cy="533.537" r="8.4567" stroke-width="0.5" stroke="black" fill="grey"/>
  <circle cx="947.604" cy="533.537" r="5.09391" stroke-width="0.5" stroke="grey" fill="grey"/>
   </g>
   <g id="cell185">
  <circle cx="907.463" cy="546.168" r="8.38291" stroke-width="0.5" stroke="black" fill="grey"/>
  <circle cx="907.463" cy="546.168" r="5.04103" stroke-width="0.5" stroke="grey" fill="grey"/>
   </g>
   <g id="cell186">
  <circle cx="1149.03" cy="1715.57" r="8.38118" stroke-width="0.5" stroke="black" fill="red"/>
  <circle cx="1149.03" cy="1715.57" r="5.04034" stroke-width="0.5" stroke="red" fill="red"/>
   </g>
   <g id="cell187">
  <circle cx="1297.33" cy="403.515" r="8.62061" stroke-width="0.5" stroke="black" fill="grey"/>
  <circle cx="1297.33" cy="403.515" r="5.21587" stroke-width="0.5" stroke="grey" fill="grey"/>
   </g>
   <g id="cell188">
  <circle cx="1977.87" cy="277.335" r="8.36592" stroke-width="0.5" stroke="black" fill="red"/>
  <circle cx="1977.87" cy="277.335" r="5.03403" stroke-width="0.5" stroke="red" fill="red"/>
   </g>
  </g>
 </g>
  <rect x="1750" y="2070" width="200" height="20" stroke-width="4" stroke="rgb(255,255,255)" fill="rgb(0,0,0)"/>
  <text x="1762.5" y="2057.5"
   font-family="Arial" font-size="50" fill="black" >
   200 &#956;m
  </text>
  <text x="50" y="2090"
   font-family="Arial" font-size="37.5" fill="black" >
   0 days, 0 hours, 0 minutes, and 37.3525 seconds
  </text>
  <rect x="0" y="140" width="2000" height="2000" stroke-width="4" stroke="rgb(0,0,0)" fill="none"/>
</svg>
