<?xml version="1.0" encoding="UTF-8" standalone="no"?>
<!-- Created with PhysiCell (http://PhysiCell.MathCancer.org/) -->
<svg 
 xmlns:dc="http://purl.org/dc/elements/1.1/" 
 xmlns:cc="http://creativecommons.org/ns#" 
 xmlns:rdf="http://www.w3.org/1999/02/22-rdf-syntax-ns#" 
 xmlns:svg="http://www.w3.org/2000/svg" 
 xmlns="http://www.w3.org/2000/svg" 
 version="1.1" 
 width="2000" 
 height="2140" 
 id="svg2">
  <rect x="0" y="0" width="2000" height="2140" stroke-width="4" stroke="white" fill="white"/>
  <text x="25" y="60"
   font-family="Arial" font-size="50" fill="black" >
   Current time: 0 days, 17 hours, and 0.00 minutes, z = 0.00 &#956;m
  </text>
  <text x="25" y="115"
   font-family="Arial" font-size="47.5" fill="black" >
   138 agents
  </text>
 <g id="tissue" 
    transform="translate(0,2140) scale(1,-1)">
  <g id="ECM">
  </g>
  <g id="cells">
   <g id="cell104">
  <circle cx="757.088" cy="1652.19" r="8.39571" stroke-width="0.5" stroke="black" fill="grey"/>
  <circle cx="757.088" cy="1652.19" r="5.04599" stroke-width="0.5" stroke="grey" fill="grey"/>
   </g>
   <g id="cell1">
  <circle cx="1724.22" cy="1220.1" r="10.4651" stroke-width="0.5" stroke="black" fill="grey"/>
  <circle cx="1724.22" cy="1220.1" r="6.30877" stroke-width="0.5" stroke="grey" fill="grey"/>
   </g>
   <g id="cell2">
  <circle cx="1102.5" cy="1696.6" r="10.3545" stroke-width="0.5" stroke="black" fill="grey"/>
  <circle cx="1102.5" cy="1696.6" r="6.25485" stroke-width="0.5" stroke="grey" fill="grey"/>
   </g>
   <g id="cell3">
  <circle cx="1279.36" cy="1311.37" r="8.67155" stroke-width="0.5" stroke="black" fill="grey"/>
  <circle cx="1279.36" cy="1311.37" r="5.24792" stroke-width="0.5" stroke="grey" fill="grey"/>
   </g>
   <g id="cell4">
  <circle cx="888.663" cy="554.811" r="10.4307" stroke-width="0.5" stroke="black" fill="grey"/>
  <circle cx="888.663" cy="554.811" r="6.29241" stroke-width="0.5" stroke="grey" fill="grey"/>
   </g>
   <g id="cell5">
  <circle cx="105.602" cy="1927.34" r="9.82189" stroke-width="0.5" stroke="black" fill="grey"/>
  <circle cx="105.602" cy="1927.34" r="5.96395" stroke-width="0.5" stroke="grey" fill="grey"/>
   </g>
   <g id="cell6">
  <circle cx="685.284" cy="976.931" r="8.39473" stroke-width="0.5" stroke="black" fill="grey"/>
  <circle cx="685.284" cy="976.931" r="5.04562" stroke-width="0.5" stroke="grey" fill="grey"/>
   </g>
   <g id="cell7">
  <circle cx="1608.71" cy="1041.14" r="8.39316" stroke-width="0.5" stroke="black" fill="grey"/>
  <circle cx="1608.71" cy="1041.14" r="5.04503" stroke-width="0.5" stroke="grey" fill="grey"/>
   </g>
   <g id="cell8">
  <circle cx="1138.7" cy="785.165" r="8.37321" stroke-width="0.5" stroke="black" fill="grey"/>
  <circle cx="1138.7" cy="785.165" r="5.03708" stroke-width="0.5" stroke="grey" fill="grey"/>
   </g>
   <g id="cell9">
  <circle cx="1668.54" cy="141.129" r="10.4726" stroke-width="0.5" stroke="black" fill="grey"/>
  <circle cx="1668.54" cy="141.129" r="6.31223" stroke-width="0.5" stroke="grey" fill="grey"/>
   </g>
   <g id="cell10">
  <circle cx="193.457" cy="1295.16" r="10.3747" stroke-width="0.5" stroke="black" fill="grey"/>
  <circle cx="193.457" cy="1295.16" r="6.26498" stroke-width="0.5" stroke="grey" fill="grey"/>
   </g>
   <g id="cell11">
  <circle cx="742.625" cy="1672.13" r="8.87289" stroke-width="0.5" stroke="black" fill="grey"/>
  <circle cx="742.625" cy="1672.13" r="5.38421" stroke-width="0.5" stroke="grey" fill="grey"/>
   </g>
   <g id="cell12">
  <circle cx="1538.95" cy="303.287" r="10.4726" stroke-width="0.5" stroke="black" fill="grey"/>
  <circle cx="1538.95" cy="303.287" r="6.31223" stroke-width="0.5" stroke="grey" fill="grey"/>
   </g>
   <g id="cell13">
  <circle cx="1767.07" cy="1971.52" r="8.38118" stroke-width="0.5" stroke="black" fill="grey"/>
  <circle cx="1767.07" cy="1971.52" r="5.04034" stroke-width="0.5" stroke="grey" fill="grey"/>
   </g>
   <g id="cell14">
  <circle cx="1547.33" cy="1566.58" r="10.4573" stroke-width="0.5" stroke="black" fill="grey"/>
  <circle cx="1547.33" cy="1566.58" r="6.30507" stroke-width="0.5" stroke="grey" fill="grey"/>
   </g>
   <g id="cell15">
  <circle cx="1022.42" cy="1545.5" r="10.2328" stroke-width="0.5" stroke="black" fill="grey"/>
  <circle cx="1022.42" cy="1545.5" r="6.19197" stroke-width="0.5" stroke="grey" fill="grey"/>
   </g>
   <g id="cell16">
  <circle cx="209.368" cy="1467.58" r="8.38682" stroke-width="0.5" stroke="black" fill="grey"/>
  <circle cx="209.368" cy="1467.58" r="5.04258" stroke-width="0.5" stroke="grey" fill="grey"/>
   </g>
   <g id="cell17">
  <circle cx="1130.08" cy="314.593" r="10.4489" stroke-width="0.5" stroke="black" fill="grey"/>
  <circle cx="1130.08" cy="314.593" r="6.30112" stroke-width="0.5" stroke="grey" fill="grey"/>
   </g>
   <g id="cell18">
  <circle cx="1862.04" cy="1528.17" r="9.45973" stroke-width="0.5" stroke="black" fill="grey"/>
  <circle cx="1862.04" cy="1528.17" r="5.75356" stroke-width="0.5" stroke="grey" fill="grey"/>
   </g>
   <g id="cell19">
  <circle cx="204.939" cy="849.178" r="10.4446" stroke-width="0.5" stroke="black" fill="grey"/>
  <circle cx="204.939" cy="849.178" r="6.29905" stroke-width="0.5" stroke="grey" fill="grey"/>
   </g>
   <g id="cell20">
  <circle cx="526.619" cy="415.295" r="10.5295" stroke-width="0.5" stroke="black" fill="grey"/>
  <circle cx="526.619" cy="415.295" r="6.33783" stroke-width="0.5" stroke="grey" fill="grey"/>
   </g>
   <g id="cell21">
  <circle cx="1462.2" cy="921.327" r="10.5039" stroke-width="0.5" stroke="black" fill="grey"/>
  <circle cx="1462.2" cy="921.327" r="6.32657" stroke-width="0.5" stroke="grey" fill="grey"/>
   </g>
   <g id="cell22">
  <circle cx="1114.41" cy="246.295" r="8.3937" stroke-width="0.5" stroke="black" fill="grey"/>
  <circle cx="1114.41" cy="246.295" r="5.04523" stroke-width="0.5" stroke="grey" fill="grey"/>
   </g>
   <g id="cell23">
  <circle cx="666.633" cy="1223.69" r="8.37742" stroke-width="0.5" stroke="black" fill="grey"/>
  <circle cx="666.633" cy="1223.69" r="5.03881" stroke-width="0.5" stroke="grey" fill="grey"/>
   </g>
   <g id="cell24">
  <circle cx="1227.65" cy="427.596" r="10.5387" stroke-width="0.5" stroke="black" fill="grey"/>
  <circle cx="1227.65" cy="427.596" r="6.34177" stroke-width="0.5" stroke="grey" fill="grey"/>
   </g>
   <g id="cell25">
  <circle cx="712.916" cy="1902.06" r="10.4156" stroke-width="0.5" stroke="black" fill="grey"/>
  <circle cx="712.916" cy="1902.06" r="6.2851" stroke-width="0.5" stroke="grey" fill="grey"/>
   </g>
   <g id="cell26">
  <circle cx="1347.85" cy="899.514" r="8.37742" stroke-width="0.5" stroke="black" fill="grey"/>
  <circle cx="1347.85" cy="899.514" r="5.03881" stroke-width="0.5" stroke="grey" fill="grey"/>
   </g>
   <g id="cell27">
  <circle cx="1209.05" cy="874.454" r="10.1238" stroke-width="0.5" stroke="black" fill="grey"/>
  <circle cx="1209.05" cy="874.454" r="6.13347" stroke-width="0.5" stroke="grey" fill="grey"/>
   </g>
   <g id="cell28">
  <circle cx="1367.17" cy="171.613" r="8.38291" stroke-width="0.5" stroke="black" fill="grey"/>
  <circle cx="1367.17" cy="171.613" r="5.04103" stroke-width="0.5" stroke="grey" fill="grey"/>
   </g>
   <g id="cell29">
  <circle cx="1892.88" cy="1330.39" r="8.39021" stroke-width="0.5" stroke="black" fill="grey"/>
  <circle cx="1892.88" cy="1330.39" r="5.0439" stroke-width="0.5" stroke="grey" fill="grey"/>
   </g>
   <g id="cell30">
  <circle cx="1379.33" cy="364.879" r="10.5275" stroke-width="0.5" stroke="black" fill="grey"/>
  <circle cx="1379.33" cy="364.879" r="6.33696" stroke-width="0.5" stroke="grey" fill="grey"/>
   </g>
   <g id="cell31">
  <circle cx="727.594" cy="305.969" r="8.37431" stroke-width="0.5" stroke="black" fill="grey"/>
  <circle cx="727.594" cy="305.969" r="5.03754" stroke-width="0.5" stroke="grey" fill="grey"/>
   </g>
   <g id="cell32">
  <circle cx="650.696" cy="1157.36" r="10.4156" stroke-width="0.5" stroke="black" fill="grey"/>
  <circle cx="650.696" cy="1157.36" r="6.2851" stroke-width="0.5" stroke="grey" fill="grey"/>
   </g>
   <g id="cell33">
  <circle cx="658.779" cy="1184.21" r="9.36199" stroke-width="0.5" stroke="black" fill="grey"/>
  <circle cx="658.779" cy="1184.21" r="5.69423" stroke-width="0.5" stroke="grey" fill="grey"/>
   </g>
   <g id="cell34">
  <circle cx="894.301" cy="1270" r="8.99053" stroke-width="0.5" stroke="black" fill="grey"/>
  <circle cx="894.301" cy="1270" r="5.46175" stroke-width="0.5" stroke="grey" fill="grey"/>
   </g>
   <g id="cell35">
  <circle cx="1912.84" cy="183.269" r="10.4984" stroke-width="0.5" stroke="black" fill="grey"/>
  <circle cx="1912.84" cy="183.269" r="6.32406" stroke-width="0.5" stroke="grey" fill="grey"/>
   </g>
   <g id="cell36">
  <circle cx="418.179" cy="1256.09" r="9.3965" stroke-width="0.5" stroke="black" fill="grey"/>
  <circle cx="418.179" cy="1256.09" r="5.715" stroke-width="0.5" stroke="grey" fill="grey"/>
   </g>
   <g id="cell37">
  <circle cx="1963.77" cy="1327.06" r="9.96412" stroke-width="0.5" stroke="black" fill="grey"/>
  <circle cx="1963.77" cy="1327.06" r="6.04499" stroke-width="0.5" stroke="grey" fill="grey"/>
   </g>
   <g id="cell38">
  <circle cx="528.411" cy="836.293" r="8.38891" stroke-width="0.5" stroke="black" fill="grey"/>
  <circle cx="528.411" cy="836.293" r="5.0434" stroke-width="0.5" stroke="grey" fill="grey"/>
   </g>
   <g id="cell39">
  <circle cx="944.412" cy="467.255" r="8.38891" stroke-width="0.5" stroke="black" fill="grey"/>
  <circle cx="944.412" cy="467.255" r="5.0434" stroke-width="0.5" stroke="grey" fill="grey"/>
   </g>
   <g id="cell40">
  <circle cx="333.861" cy="647.418" r="10.5012" stroke-width="0.5" stroke="black" fill="grey"/>
  <circle cx="333.861" cy="647.418" r="6.32534" stroke-width="0.5" stroke="grey" fill="grey"/>
   </g>
   <g id="cell41">
  <circle cx="1359" cy="1302.77" r="10.2911" stroke-width="0.5" stroke="black" fill="grey"/>
  <circle cx="1359" cy="1302.77" r="6.22246" stroke-width="0.5" stroke="grey" fill="grey"/>
   </g>
   <g id="cell42">
  <circle cx="246.434" cy="1569.85" r="8.39422" stroke-width="0.5" stroke="black" fill="grey"/>
  <circle cx="246.434" cy="1569.85" r="5.04543" stroke-width="0.5" stroke="grey" fill="grey"/>
   </g>
   <g id="cell43">
  <circle cx="1854.86" cy="699.22" r="10.4651" stroke-width="0.5" stroke="black" fill="grey"/>
  <circle cx="1854.86" cy="699.22" r="6.30877" stroke-width="0.5" stroke="grey" fill="grey"/>
   </g>
   <g id="cell44">
  <circle cx="1610.21" cy="19.0348" r="8.41271" stroke-width="0.5" stroke="black" fill="grey"/>
  <circle cx="1610.21" cy="19.0348" r="5.05167" stroke-width="0.5" stroke="grey" fill="grey"/>
   </g>
   <g id="cell45">
  <circle cx="1247.39" cy="1726.41" r="10.5387" stroke-width="0.5" stroke="black" fill="grey"/>
  <circle cx="1247.39" cy="1726.41" r="6.34177" stroke-width="0.5" stroke="grey" fill="grey"/>
   </g>
   <g id="cell46">
  <circle cx="214.969" cy="1972.15" r="10.5275" stroke-width="0.5" stroke="black" fill="grey"/>
  <circle cx="214.969" cy="1972.15" r="6.33696" stroke-width="0.5" stroke="grey" fill="grey"/>
   </g>
   <g id="cell47">
  <circle cx="1723.63" cy="945.935" r="10.4531" stroke-width="0.5" stroke="black" fill="grey"/>
  <circle cx="1723.63" cy="945.935" r="6.30312" stroke-width="0.5" stroke="grey" fill="grey"/>
   </g>
   <g id="cell48">
  <circle cx="1932.72" cy="142.701" r="10.5314" stroke-width="0.5" stroke="black" fill="grey"/>
  <circle cx="1932.72" cy="142.701" r="6.33867" stroke-width="0.5" stroke="grey" fill="grey"/>
   </g>
   <g id="cell49">
  <circle cx="920.091" cy="1446.85" r="8.41271" stroke-width="0.5" stroke="black" fill="grey"/>
  <circle cx="920.091" cy="1446.85" r="5.05167" stroke-width="0.5" stroke="grey" fill="grey"/>
   </g>
   <g id="cell50">
  <circle cx="53.1251" cy="840.592" r="8.37641" stroke-width="0.5" stroke="black" fill="red"/>
  <circle cx="53.1251" cy="840.592" r="5.0384" stroke-width="0.5" stroke="red" fill="red"/>
   </g>
   <g id="cell51">
  <circle cx="1969.67" cy="217.555" r="10.5387" stroke-width="0.5" stroke="black" fill="red"/>
  <circle cx="1969.67" cy="217.555" r="6.34177" stroke-width="0.5" stroke="red" fill="red"/>
   </g>
   <g id="cell52">
  <circle cx="591.553" cy="940.614" r="8.90657" stroke-width="0.5" stroke="black" fill="red"/>
  <circle cx="591.553" cy="940.614" r="5.40814" stroke-width="0.5" stroke="red" fill="red"/>
   </g>
   <g id="cell53">
  <circle cx="1359.39" cy="649.342" r="8.3926" stroke-width="0.5" stroke="black" fill="red"/>
  <circle cx="1359.39" cy="649.342" r="5.04482" stroke-width="0.5" stroke="red" fill="red"/>
   </g>
   <g id="cell99">
  <circle cx="998.675" cy="1974.05" r="8.37092" stroke-width="0.5" stroke="black" fill="red"/>
  <circle cx="998.675" cy="1974.05" r="5.03613" stroke-width="0.5" stroke="red" fill="red"/>
   </g>
   <g id="cell55">
  <circle cx="369.052" cy="1341.46" r="10.1634" stroke-width="0.5" stroke="black" fill="red"/>
  <circle cx="369.052" cy="1341.46" r="6.1549" stroke-width="0.5" stroke="red" fill="red"/>
   </g>
   <g id="cell56">
  <circle cx="1107.54" cy="1665.25" r="10.3615" stroke-width="0.5" stroke="black" fill="red"/>
  <circle cx="1107.54" cy="1665.25" r="6.25834" stroke-width="0.5" stroke="red" fill="red"/>
   </g>
   <g id="cell57">
  <circle cx="974.576" cy="1056.45" r="10.4955" stroke-width="0.5" stroke="black" fill="red"/>
  <circle cx="974.576" cy="1056.45" r="6.32275" stroke-width="0.5" stroke="red" fill="red"/>
   </g>
   <g id="cell58">
  <circle cx="170.859" cy="1838.94" r="4.41917" stroke-width="0.5" stroke="black" fill="red"/>
  <circle cx="170.859" cy="1838.94" r="3.37276" stroke-width="0.5" stroke="black" fill="black"/>
   </g>
   <g id="cell59">
  <circle cx="141.448" cy="1867.12" r="9.67603" stroke-width="0.5" stroke="black" fill="red"/>
  <circle cx="141.448" cy="1867.12" r="5.87901" stroke-width="0.5" stroke="red" fill="red"/>
   </g>
   <g id="cell60">
  <circle cx="607.457" cy="58.2166" r="10.4726" stroke-width="0.5" stroke="black" fill="red"/>
  <circle cx="607.457" cy="58.2166" r="6.31223" stroke-width="0.5" stroke="red" fill="red"/>
   </g>
   <g id="cell61">
  <circle cx="1651.83" cy="219.122" r="8.37935" stroke-width="0.5" stroke="black" fill="red"/>
  <circle cx="1651.83" cy="219.122" r="5.0396" stroke-width="0.5" stroke="red" fill="red"/>
   </g>
   <g id="cell62">
  <circle cx="1425.94" cy="1715.89" r="10.1506" stroke-width="0.5" stroke="black" fill="red"/>
  <circle cx="1425.94" cy="1715.89" r="6.14798" stroke-width="0.5" stroke="red" fill="red"/>
   </g>
   <g id="cell63">
  <circle cx="548.912" cy="348.647" r="8.37092" stroke-width="0.5" stroke="black" fill="red"/>
  <circle cx="548.912" cy="348.647" r="5.03613" stroke-width="0.5" stroke="red" fill="red"/>
   </g>
   <g id="cell64">
  <circle cx="1167.75" cy="1058.41" r="8.38891" stroke-width="0.5" stroke="black" fill="red"/>
  <circle cx="1167.75" cy="1058.41" r="5.0434" stroke-width="0.5" stroke="red" fill="red"/>
   </g>
   <g id="cell65">
  <circle cx="325.786" cy="1605.79" r="10.4258" stroke-width="0.5" stroke="black" fill="red"/>
  <circle cx="325.786" cy="1605.79" r="6.29005" stroke-width="0.5" stroke="red" fill="red"/>
   </g>
   <g id="cell66">
  <circle cx="57.4515" cy="257.74" r="10.1238" stroke-width="0.5" stroke="black" fill="red"/>
  <circle cx="57.4515" cy="257.74" r="6.13347" stroke-width="0.5" stroke="red" fill="red"/>
   </g>
   <g id="cell67">
  <circle cx="1107.31" cy="562.047" r="10.5275" stroke-width="0.5" stroke="black" fill="red"/>
  <circle cx="1107.31" cy="562.047" r="6.33696" stroke-width="0.5" stroke="red" fill="red"/>
   </g>
   <g id="cell68">
  <circle cx="1456.14" cy="574.335" r="8.3784" stroke-width="0.5" stroke="black" fill="red"/>
  <circle cx="1456.14" cy="574.335" r="5.03921" stroke-width="0.5" stroke="red" fill="red"/>
   </g>
   <g id="cell69">
  <circle cx="889.58" cy="510.773" r="10.4489" stroke-width="0.5" stroke="black" fill="red"/>
  <circle cx="889.58" cy="510.773" r="6.30112" stroke-width="0.5" stroke="red" fill="red"/>
   </g>
   <g id="cell70">
  <circle cx="1175.2" cy="783.008" r="10.3873" stroke-width="0.5" stroke="black" fill="red"/>
  <circle cx="1175.2" cy="783.008" r="6.2712" stroke-width="0.5" stroke="red" fill="red"/>
   </g>
   <g id="cell71">
  <circle cx="1782.16" cy="1162.75" r="8.54366" stroke-width="0.5" stroke="black" fill="red"/>
  <circle cx="1782.16" cy="1162.75" r="5.16166" stroke-width="0.5" stroke="red" fill="red"/>
   </g>
   <g id="cell72">
  <circle cx="501.039" cy="1799.12" r="8.39571" stroke-width="0.5" stroke="black" fill="red"/>
  <circle cx="501.039" cy="1799.12" r="5.04599" stroke-width="0.5" stroke="red" fill="red"/>
   </g>
   <g id="cell73">
  <circle cx="1341.12" cy="853.53" r="8.36972" stroke-width="0.5" stroke="black" fill="red"/>
  <circle cx="1341.12" cy="853.53" r="5.03563" stroke-width="0.5" stroke="red" fill="red"/>
   </g>
   <g id="cell74">
  <circle cx="1699.9" cy="1922.81" r="9.32616" stroke-width="0.5" stroke="black" fill="red"/>
  <circle cx="1699.9" cy="1922.81" r="5.67269" stroke-width="0.5" stroke="red" fill="red"/>
   </g>
   <g id="cell75">
  <circle cx="269.703" cy="570.451" r="10.5295" stroke-width="0.5" stroke="black" fill="red"/>
  <circle cx="269.703" cy="570.451" r="6.33783" stroke-width="0.5" stroke="black" fill="black"/>
   </g>
   <g id="cell76">
  <circle cx="1655.09" cy="846.464" r="8.47502" stroke-width="0.5" stroke="black" fill="red"/>
  <circle cx="1655.09" cy="846.464" r="5.11162" stroke-width="0.5" stroke="red" fill="red"/>
   </g>
   <g id="cell77">
  <circle cx="1328.66" cy="1768.15" r="8.38753" stroke-width="0.5" stroke="black" fill="red"/>
  <circle cx="1328.66" cy="1768.15" r="5.04286" stroke-width="0.5" stroke="red" fill="red"/>
   </g>
   <g id="cell78">
  <circle cx="1118.28" cy="576.527" r="10.5254" stroke-width="0.5" stroke="black" fill="red"/>
  <circle cx="1118.28" cy="576.527" r="6.33607" stroke-width="0.5" stroke="red" fill="red"/>
   </g>
   <g id="cell79">
  <circle cx="1966.11" cy="1404.48" r="8.38028" stroke-width="0.5" stroke="black" fill="red"/>
  <circle cx="1966.11" cy="1404.48" r="5.03997" stroke-width="0.5" stroke="red" fill="red"/>
   </g>
   <g id="cell80">
  <circle cx="1400.71" cy="1325.95" r="10.4726" stroke-width="0.5" stroke="black" fill="red"/>
  <circle cx="1400.71" cy="1325.95" r="6.31223" stroke-width="0.5" stroke="red" fill="red"/>
   </g>
   <g id="cell81">
  <circle cx="1012.1" cy="1906.6" r="10.4489" stroke-width="0.5" stroke="black" fill="red"/>
  <circle cx="1012.1" cy="1906.6" r="6.30112" stroke-width="0.5" stroke="red" fill="red"/>
   </g>
   <g id="cell82">
  <circle cx="1302.05" cy="796.346" r="8.38454" stroke-width="0.5" stroke="black" fill="red"/>
  <circle cx="1302.05" cy="796.346" r="5.04168" stroke-width="0.5" stroke="red" fill="red"/>
   </g>
   <g id="cell83">
  <circle cx="1291.08" cy="1199.21" r="10.5275" stroke-width="0.5" stroke="black" fill="red"/>
  <circle cx="1291.08" cy="1199.21" r="6.33696" stroke-width="0.5" stroke="red" fill="red"/>
   </g>
   <g id="cell84">
  <circle cx="27.1082" cy="933.239" r="10.4984" stroke-width="0.5" stroke="black" fill="red"/>
  <circle cx="27.1082" cy="933.239" r="6.32406" stroke-width="0.5" stroke="red" fill="red"/>
   </g>
   <g id="cell85">
  <circle cx="1409.85" cy="1348.2" r="10.5254" stroke-width="0.5" stroke="black" fill="red"/>
  <circle cx="1409.85" cy="1348.2" r="6.33607" stroke-width="0.5" stroke="red" fill="red"/>
   </g>
   <g id="cell86">
  <circle cx="592.08" cy="743.191" r="8.39571" stroke-width="0.5" stroke="black" fill="red"/>
  <circle cx="592.08" cy="743.191" r="5.04599" stroke-width="0.5" stroke="red" fill="red"/>
   </g>
   <g id="cell87">
  <circle cx="1524.88" cy="867.66" r="9.5651" stroke-width="0.5" stroke="black" fill="red"/>
  <circle cx="1524.88" cy="867.66" r="5.81327" stroke-width="0.5" stroke="red" fill="red"/>
   </g>
   <g id="cell88">
  <circle cx="193.687" cy="178.168" r="8.37092" stroke-width="0.5" stroke="black" fill="red"/>
  <circle cx="193.687" cy="178.168" r="5.03613" stroke-width="0.5" stroke="red" fill="red"/>
   </g>
   <g id="cell89">
  <circle cx="212.871" cy="1055.31" r="8.78938" stroke-width="0.5" stroke="black" fill="red"/>
  <circle cx="212.871" cy="1055.31" r="5.3292" stroke-width="0.5" stroke="red" fill="red"/>
   </g>
   <g id="cell134">
  <circle cx="1785.86" cy="1137.77" r="8.37641" stroke-width="0.5" stroke="black" fill="red"/>
  <circle cx="1785.86" cy="1137.77" r="5.0384" stroke-width="0.5" stroke="red" fill="red"/>
   </g>
   <g id="cell91">
  <circle cx="28.833" cy="1306.32" r="2.91074" stroke-width="0.5" stroke="black" fill="red"/>
  <circle cx="28.833" cy="1306.32" r="2.42562" stroke-width="0.5" stroke="black" fill="black"/>
   </g>
   <g id="cell92">
  <circle cx="1313.86" cy="616.118" r="2.79366" stroke-width="0.5" stroke="black" fill="red"/>
  <circle cx="1313.86" cy="616.118" r="2.57838" stroke-width="0.5" stroke="black" fill="black"/>
   </g>
   <g id="cell93">
  <circle cx="418.379" cy="1773.08" r="8.62877" stroke-width="0.5" stroke="black" fill="red"/>
  <circle cx="418.379" cy="1773.08" r="5.21916" stroke-width="0.5" stroke="red" fill="red"/>
   </g>
   <g id="cell94">
  <circle cx="768.033" cy="165.134" r="10.4761" stroke-width="0.5" stroke="black" fill="red"/>
  <circle cx="768.033" cy="165.134" r="6.31388" stroke-width="0.5" stroke="red" fill="red"/>
   </g>
   <g id="cell95">
  <circle cx="1984.07" cy="1734.82" r="8.38532" stroke-width="0.5" stroke="black" fill="red"/>
  <circle cx="1984.07" cy="1734.82" r="5.04199" stroke-width="0.5" stroke="red" fill="red"/>
   </g>
   <g id="cell96">
  <circle cx="1592.98" cy="1074.97" r="8.76665" stroke-width="0.5" stroke="black" fill="red"/>
  <circle cx="1592.98" cy="1074.97" r="5.36634" stroke-width="0.5" stroke="black" fill="black"/>
   </g>
   <g id="cell97">
  <circle cx="902.317" cy="183.42" r="8.41271" stroke-width="0.5" stroke="black" fill="red"/>
  <circle cx="902.317" cy="183.42" r="5.05167" stroke-width="0.5" stroke="red" fill="red"/>
   </g>
   <g id="cell98">
  <circle cx="1864.47" cy="680.85" r="10.3247" stroke-width="0.5" stroke="black" fill="red"/>
  <circle cx="1864.47" cy="680.85" r="6.23971" stroke-width="0.5" stroke="red" fill="red"/>
   </g>
   <g id="cell101">
  <circle cx="435.562" cy="1260.82" r="8.59803" stroke-width="0.5" stroke="black" fill="grey"/>
  <circle cx="435.562" cy="1260.82" r="5.19505" stroke-width="0.5" stroke="grey" fill="grey"/>
   </g>
   <g id="cell102">
  <circle cx="590.773" cy="729.007" r="9.14849" stroke-width="0.5" stroke="black" fill="red"/>
  <circle cx="590.773" cy="729.007" r="5.56168" stroke-width="0.5" stroke="red" fill="red"/>
   </g>
   <g id="cell103">
  <circle cx="462.742" cy="1809.5" r="8.39571" stroke-width="0.5" stroke="black" fill="red"/>
  <circle cx="462.742" cy="1809.5" r="5.04599" stroke-width="0.5" stroke="red" fill="red"/>
   </g>
   <g id="cell105">
  <circle cx="715.348" cy="987.369" r="9.46013" stroke-width="0.5" stroke="black" fill="grey"/>
  <circle cx="715.348" cy="987.369" r="5.75372" stroke-width="0.5" stroke="grey" fill="grey"/>
   </g>
   <g id="cell106">
  <circle cx="271.021" cy="1557.57" r="8.39422" stroke-width="0.5" stroke="black" fill="grey"/>
  <circle cx="271.021" cy="1557.57" r="5.04543" stroke-width="0.5" stroke="grey" fill="grey"/>
   </g>
   <g id="cell107">
  <circle cx="1864.45" cy="1505.58" r="9.1847" stroke-width="0.5" stroke="black" fill="grey"/>
  <circle cx="1864.45" cy="1505.58" r="5.58468" stroke-width="0.5" stroke="grey" fill="grey"/>
   </g>
   <g id="cell108">
  <circle cx="627.978" cy="1179.09" r="9.29317" stroke-width="0.5" stroke="black" fill="grey"/>
  <circle cx="627.978" cy="1179.09" r="5.65201" stroke-width="0.5" stroke="grey" fill="grey"/>
   </g>
   <g id="cell109">
  <circle cx="1155.81" cy="238.495" r="8.3937" stroke-width="0.5" stroke="black" fill="grey"/>
  <circle cx="1155.81" cy="238.495" r="5.04523" stroke-width="0.5" stroke="grey" fill="grey"/>
   </g>
   <g id="cell110">
  <circle cx="1296.19" cy="1354.31" r="8.3937" stroke-width="0.5" stroke="black" fill="grey"/>
  <circle cx="1296.19" cy="1354.31" r="5.04523" stroke-width="0.5" stroke="grey" fill="grey"/>
   </g>
   <g id="cell111">
  <circle cx="1616.8" cy="1073.93" r="9.22064" stroke-width="0.5" stroke="black" fill="grey"/>
  <circle cx="1616.8" cy="1073.93" r="5.60731" stroke-width="0.5" stroke="grey" fill="grey"/>
   </g>
   <g id="cell112">
  <circle cx="222.283" cy="1105.36" r="8.3926" stroke-width="0.5" stroke="black" fill="red"/>
  <circle cx="222.283" cy="1105.36" r="5.04482" stroke-width="0.5" stroke="red" fill="red"/>
   </g>
   <g id="cell113">
  <circle cx="1340.79" cy="617.748" r="8.3926" stroke-width="0.5" stroke="black" fill="red"/>
  <circle cx="1340.79" cy="617.748" r="5.04482" stroke-width="0.5" stroke="red" fill="red"/>
   </g>
   <g id="cell114">
  <circle cx="885.703" cy="1250.84" r="8.3926" stroke-width="0.5" stroke="black" fill="grey"/>
  <circle cx="885.703" cy="1250.84" r="5.04482" stroke-width="0.5" stroke="grey" fill="grey"/>
   </g>
   <g id="cell115">
  <circle cx="1717.92" cy="1961.74" r="8.39203" stroke-width="0.5" stroke="black" fill="red"/>
  <circle cx="1717.92" cy="1961.74" r="5.0446" stroke-width="0.5" stroke="red" fill="red"/>
   </g>
   <g id="cell116">
  <circle cx="1907.14" cy="1342.3" r="8.90833" stroke-width="0.5" stroke="black" fill="grey"/>
  <circle cx="1907.14" cy="1342.3" r="5.40884" stroke-width="0.5" stroke="grey" fill="grey"/>
   </g>
   <g id="cell117">
  <circle cx="501.008" cy="834.521" r="8.38891" stroke-width="0.5" stroke="black" fill="grey"/>
  <circle cx="501.008" cy="834.521" r="5.0434" stroke-width="0.5" stroke="grey" fill="grey"/>
   </g>
   <g id="cell118">
  <circle cx="955.757" cy="445.771" r="8.38891" stroke-width="0.5" stroke="black" fill="grey"/>
  <circle cx="955.757" cy="445.771" r="5.0434" stroke-width="0.5" stroke="grey" fill="grey"/>
   </g>
   <g id="cell119">
  <circle cx="1150.22" cy="1055.55" r="8.38891" stroke-width="0.5" stroke="black" fill="red"/>
  <circle cx="1150.22" cy="1055.55" r="5.0434" stroke-width="0.5" stroke="red" fill="red"/>
   </g>
   <g id="cell120">
  <circle cx="426.505" cy="1799.1" r="8.38891" stroke-width="0.5" stroke="black" fill="red"/>
  <circle cx="426.505" cy="1799.1" r="5.0434" stroke-width="0.5" stroke="red" fill="red"/>
   </g>
   <g id="cell121">
  <circle cx="566.183" cy="918.572" r="8.38823" stroke-width="0.5" stroke="black" fill="red"/>
  <circle cx="566.183" cy="918.572" r="5.04313" stroke-width="0.5" stroke="red" fill="red"/>
   </g>
   <g id="cell122">
  <circle cx="1334.49" cy="1743.88" r="6.98088" stroke-width="0.5" stroke="black" fill="red"/>
  <circle cx="1334.49" cy="1743.88" r="4.2687" stroke-width="0.5" stroke="black" fill="black"/>
   </g>
   <g id="cell123">
  <circle cx="183.68" cy="1460.38" r="8.38682" stroke-width="0.5" stroke="black" fill="grey"/>
  <circle cx="183.68" cy="1460.38" r="5.04258" stroke-width="0.5" stroke="grey" fill="grey"/>
   </g>
   <g id="cell124">
  <circle cx="1956.97" cy="1733.35" r="8.51799" stroke-width="0.5" stroke="black" fill="red"/>
  <circle cx="1956.97" cy="1733.35" r="5.13997" stroke-width="0.5" stroke="red" fill="red"/>
   </g>
   <g id="cell125">
  <circle cx="1278.44" cy="769.911" r="8.38454" stroke-width="0.5" stroke="black" fill="red"/>
  <circle cx="1278.44" cy="769.911" r="5.04168" stroke-width="0.5" stroke="red" fill="red"/>
   </g>
   <g id="cell126">
  <circle cx="1373.13" cy="196.91" r="8.38291" stroke-width="0.5" stroke="black" fill="grey"/>
  <circle cx="1373.13" cy="196.91" r="5.04103" stroke-width="0.5" stroke="grey" fill="grey"/>
   </g>
   <g id="cell127">
  <circle cx="1792.16" cy="1974.97" r="8.38118" stroke-width="0.5" stroke="black" fill="grey"/>
  <circle cx="1792.16" cy="1974.97" r="5.04034" stroke-width="0.5" stroke="grey" fill="grey"/>
   </g>
   <g id="cell128">
  <circle cx="1953.61" cy="1395.29" r="8.38028" stroke-width="0.5" stroke="black" fill="red"/>
  <circle cx="1953.61" cy="1395.29" r="5.03997" stroke-width="0.5" stroke="red" fill="red"/>
   </g>
   <g id="cell129">
  <circle cx="1673.02" cy="209.674" r="8.37935" stroke-width="0.5" stroke="black" fill="red"/>
  <circle cx="1673.02" cy="209.674" r="5.0396" stroke-width="0.5" stroke="black" fill="black"/>
   </g>
   <g id="cell130">
  <circle cx="1464.53" cy="596.571" r="8.39836" stroke-width="0.5" stroke="black" fill="red"/>
  <circle cx="1464.53" cy="596.571" r="5.05313" stroke-width="0.5" stroke="red" fill="red"/>
   </g>
   <g id="cell131">
  <circle cx="662.791" cy="1240" r="8.37742" stroke-width="0.5" stroke="black" fill="grey"/>
  <circle cx="662.791" cy="1240" r="5.03881" stroke-width="0.5" stroke="grey" fill="grey"/>
   </g>
   <g id="cell132">
  <circle cx="1358.65" cy="889.43" r="8.37742" stroke-width="0.5" stroke="black" fill="grey"/>
  <circle cx="1358.65" cy="889.43" r="5.03881" stroke-width="0.5" stroke="grey" fill="grey"/>
   </g>
   <g id="cell133">
  <circle cx="84.7435" cy="838.396" r="8.37641" stroke-width="0.5" stroke="black" fill="red"/>
  <circle cx="84.7435" cy="838.396" r="5.0384" stroke-width="0.5" stroke="red" fill="red"/>
   </g>
   <g id="cell135">
  <circle cx="711.067" cy="300.578" r="8.37431" stroke-width="0.5" stroke="black" fill="grey"/>
  <circle cx="711.067" cy="300.578" r="5.03754" stroke-width="0.5" stroke="grey" fill="grey"/>
   </g>
   <g id="cell136">
  <circle cx="1677.4" cy="849.965" r="8.37431" stroke-width="0.5" stroke="black" fill="red"/>
  <circle cx="1677.4" cy="849.965" r="5.03754" stroke-width="0.5" stroke="red" fill="red"/>
   </g>
   <g id="cell137">
  <circle cx="1158.69" cy="789.79" r="8.37321" stroke-width="0.5" stroke="black" fill="grey"/>
  <circle cx="1158.69" cy="789.79" r="5.03708" stroke-width="0.5" stroke="grey" fill="grey"/>
   </g>
   <g id="cell138">
  <circle cx="977.673" cy="1964.02" r="8.37092" stroke-width="0.5" stroke="black" fill="red"/>
  <circle cx="977.673" cy="1964.02" r="5.03613" stroke-width="0.5" stroke="red" fill="red"/>
   </g>
   <g id="cell139">
  <circle cx="559.405" cy="337.71" r="8.37092" stroke-width="0.5" stroke="black" fill="red"/>
  <circle cx="559.405" cy="337.71" r="5.03613" stroke-width="0.5" stroke="red" fill="red"/>
   </g>
   <g id="cell140">
  <circle cx="209.543" cy="191.934" r="8.37092" stroke-width="0.5" stroke="black" fill="red"/>
  <circle cx="209.543" cy="191.934" r="5.03613" stroke-width="0.5" stroke="red" fill="red"/>
   </g>
   <g id="cell141">
  <circle cx="1328.17" cy="859.303" r="8.36972" stroke-width="0.5" stroke="black" fill="red"/>
  <circle cx="1328.17" cy="859.303" r="5.03563" stroke-width="0.5" stroke="red" fill="red"/>
   </g>
  </g>
 </g>
  <rect x="1750" y="2070" width="200" height="20" stroke-width="4" stroke="rgb(255,255,255)" fill="rgb(0,0,0)"/>
  <text x="1762.5" y="2057.5"
   font-family="Arial" font-size="50" fill="black" >
   200 &#956;m
  </text>
  <text x="50" y="2090"
   font-family="Arial" font-size="37.5" fill="black" >
   0 days, 0 hours, 0 minutes, and 25.4891 seconds
  </text>
  <rect x="0" y="140" width="2000" height="2000" stroke-width="4" stroke="rgb(0,0,0)" fill="none"/>
</svg>
