<?xml version="1.0" encoding="UTF-8" standalone="no"?>
<!-- Created with PhysiCell (http://PhysiCell.MathCancer.org/) -->
<svg 
 xmlns:dc="http://purl.org/dc/elements/1.1/" 
 xmlns:cc="http://creativecommons.org/ns#" 
 xmlns:rdf="http://www.w3.org/1999/02/22-rdf-syntax-ns#" 
 xmlns:svg="http://www.w3.org/2000/svg" 
 xmlns="http://www.w3.org/2000/svg" 
 version="1.1" 
 width="2000" 
 height="2140" 
 id="svg2">
  <rect x="0" y="0" width="2000" height="2140" stroke-width="4" stroke="white" fill="white"/>
  <text x="25" y="60"
   font-family="Arial" font-size="50" fill="black" >
   Current time: 2 days, 20 hours, and 0.00 minutes, z = 0.00 &#956;m
  </text>
  <text x="25" y="115"
   font-family="Arial" font-size="47.5" fill="black" >
   83 agents
  </text>
 <g id="tissue" 
    transform="translate(0,2140) scale(1,-1)">
  <g id="ECM">
  </g>
  <g id="cells">
   <g id="cell0">
  <circle cx="1130.32" cy="1234.67" r="8.46003" stroke-width="0.5" stroke="black" fill="grey"/>
  <circle cx="1130.32" cy="1234.67" r="5.09523" stroke-width="0.5" stroke="grey" fill="grey"/>
   </g>
   <g id="cell1">
  <circle cx="1674.3" cy="1237.06" r="10.1625" stroke-width="0.5" stroke="black" fill="grey"/>
  <circle cx="1674.3" cy="1237.06" r="6.15466" stroke-width="0.5" stroke="grey" fill="grey"/>
   </g>
   <g id="cell2">
  <circle cx="1168.37" cy="1751.82" r="8.3772" stroke-width="0.5" stroke="black" fill="grey"/>
  <circle cx="1168.37" cy="1751.82" r="5.03876" stroke-width="0.5" stroke="grey" fill="grey"/>
   </g>
   <g id="cell3">
  <circle cx="1258.2" cy="1318.82" r="8.38364" stroke-width="0.5" stroke="black" fill="grey"/>
  <circle cx="1258.2" cy="1318.82" r="5.04134" stroke-width="0.5" stroke="grey" fill="grey"/>
   </g>
   <g id="cell4">
  <circle cx="849.364" cy="547.268" r="8.38862" stroke-width="0.5" stroke="black" fill="grey"/>
  <circle cx="849.364" cy="547.268" r="5.04333" stroke-width="0.5" stroke="grey" fill="grey"/>
   </g>
   <g id="cell5">
  <circle cx="96.1333" cy="1966.25" r="8.38996" stroke-width="0.5" stroke="black" fill="red"/>
  <circle cx="96.1333" cy="1966.25" r="5.04384" stroke-width="0.5" stroke="red" fill="red"/>
   </g>
   <g id="cell6">
  <circle cx="855.516" cy="875.749" r="10.5333" stroke-width="0.5" stroke="black" fill="red"/>
  <circle cx="855.516" cy="875.749" r="6.33948" stroke-width="0.5" stroke="red" fill="red"/>
   </g>
   <g id="cell19">
  <circle cx="1699.1" cy="1332.37" r="10.5253" stroke-width="0.5" stroke="black" fill="grey"/>
  <circle cx="1699.1" cy="1332.37" r="6.33604" stroke-width="0.5" stroke="grey" fill="grey"/>
   </g>
   <g id="cell18">
  <circle cx="1647.96" cy="290.6" r="8.76591" stroke-width="0.5" stroke="black" fill="red"/>
  <circle cx="1647.96" cy="290.6" r="5.30803" stroke-width="0.5" stroke="red" fill="red"/>
   </g>
   <g id="cell9">
  <circle cx="1685.97" cy="155.331" r="8.39501" stroke-width="0.5" stroke="black" fill="red"/>
  <circle cx="1685.97" cy="155.331" r="5.04576" stroke-width="0.5" stroke="red" fill="red"/>
   </g>
   <g id="cell11">
  <circle cx="1582.91" cy="1084.9" r="8.38371" stroke-width="0.5" stroke="black" fill="red"/>
  <circle cx="1582.91" cy="1084.9" r="5.04135" stroke-width="0.5" stroke="red" fill="red"/>
   </g>
   <g id="cell20">
  <circle cx="789.733" cy="1033.18" r="10.0299" stroke-width="0.5" stroke="black" fill="red"/>
  <circle cx="789.733" cy="1033.18" r="6.08269" stroke-width="0.5" stroke="red" fill="red"/>
   </g>
   <g id="cell13">
  <circle cx="862.961" cy="637.472" r="9.79866" stroke-width="0.5" stroke="black" fill="grey"/>
  <circle cx="862.961" cy="637.472" r="5.95071" stroke-width="0.5" stroke="grey" fill="grey"/>
   </g>
   <g id="cell14">
  <circle cx="1161.42" cy="1347.93" r="10.4951" stroke-width="0.5" stroke="black" fill="grey"/>
  <circle cx="1161.42" cy="1347.93" r="6.32266" stroke-width="0.5" stroke="grey" fill="grey"/>
   </g>
   <g id="cell15">
  <circle cx="1146" cy="1216.32" r="10.5251" stroke-width="0.5" stroke="black" fill="grey"/>
  <circle cx="1146" cy="1216.32" r="6.33598" stroke-width="0.5" stroke="grey" fill="grey"/>
   </g>
   <g id="cell16">
  <circle cx="1123.05" cy="1689.91" r="8.38008" stroke-width="0.5" stroke="black" fill="grey"/>
  <circle cx="1123.05" cy="1689.91" r="5.03993" stroke-width="0.5" stroke="grey" fill="grey"/>
   </g>
   <g id="cell17">
  <circle cx="1055.23" cy="669.423" r="1.47979" stroke-width="0.5" stroke="black" fill="red"/>
  <circle cx="1055.23" cy="669.423" r="1.47477" stroke-width="0.5" stroke="black" fill="black"/>
   </g>
   <g id="cell86">
  <circle cx="1551.69" cy="1010.98" r="8.36829" stroke-width="0.5" stroke="black" fill="red"/>
  <circle cx="1551.69" cy="1010.98" r="5.03507" stroke-width="0.5" stroke="red" fill="red"/>
   </g>
   <g id="cell22">
  <circle cx="1131.3" cy="1677.34" r="10.367" stroke-width="0.5" stroke="black" fill="grey"/>
  <circle cx="1131.3" cy="1677.34" r="6.2614" stroke-width="0.5" stroke="grey" fill="grey"/>
   </g>
   <g id="cell23">
  <circle cx="1253.62" cy="1295.57" r="10.2976" stroke-width="0.5" stroke="black" fill="grey"/>
  <circle cx="1253.62" cy="1295.57" r="6.22632" stroke-width="0.5" stroke="grey" fill="grey"/>
   </g>
   <g id="cell24">
  <circle cx="1164.93" cy="1259.26" r="8.39866" stroke-width="0.5" stroke="black" fill="grey"/>
  <circle cx="1164.93" cy="1259.26" r="5.04709" stroke-width="0.5" stroke="grey" fill="grey"/>
   </g>
   <g id="cell25">
  <circle cx="1168.96" cy="705.93" r="8.40056" stroke-width="0.5" stroke="black" fill="red"/>
  <circle cx="1168.96" cy="705.93" r="5.04776" stroke-width="0.5" stroke="red" fill="red"/>
   </g>
   <g id="cell26">
  <circle cx="1679.39" cy="1208.93" r="8.39694" stroke-width="0.5" stroke="black" fill="grey"/>
  <circle cx="1679.39" cy="1208.93" r="5.04647" stroke-width="0.5" stroke="grey" fill="grey"/>
   </g>
   <g id="cell27">
  <circle cx="882.169" cy="556.555" r="9.77128" stroke-width="0.5" stroke="black" fill="grey"/>
  <circle cx="882.169" cy="556.555" r="5.93589" stroke-width="0.5" stroke="grey" fill="grey"/>
   </g>
   <g id="cell28">
  <circle cx="50.4401" cy="1979.97" r="10.4525" stroke-width="0.5" stroke="black" fill="red"/>
  <circle cx="50.4401" cy="1979.97" r="6.30296" stroke-width="0.5" stroke="red" fill="red"/>
   </g>
   <g id="cell29">
  <circle cx="1049.53" cy="1083.04" r="8.83738" stroke-width="0.5" stroke="black" fill="grey"/>
  <circle cx="1049.53" cy="1083.04" r="5.35923" stroke-width="0.5" stroke="grey" fill="grey"/>
   </g>
   <g id="cell30">
  <circle cx="922.063" cy="581.805" r="8.43898" stroke-width="0.5" stroke="black" fill="grey"/>
  <circle cx="922.063" cy="581.805" r="5.08674" stroke-width="0.5" stroke="grey" fill="grey"/>
   </g>
   <g id="cell31">
  <circle cx="1213.07" cy="1338.21" r="10.3396" stroke-width="0.5" stroke="black" fill="grey"/>
  <circle cx="1213.07" cy="1338.21" r="6.24742" stroke-width="0.5" stroke="grey" fill="grey"/>
   </g>
   <g id="cell32">
  <circle cx="1660.81" cy="204.935" r="2.7535" stroke-width="0.5" stroke="black" fill="red"/>
  <circle cx="1660.81" cy="204.935" r="2.54474" stroke-width="0.5" stroke="black" fill="black"/>
   </g>
   <g id="cell33">
  <circle cx="1674.25" cy="1144.51" r="10.4029" stroke-width="0.5" stroke="black" fill="grey"/>
  <circle cx="1674.25" cy="1144.51" r="6.2793" stroke-width="0.5" stroke="grey" fill="grey"/>
   </g>
   <g id="cell34">
  <circle cx="1138.42" cy="1660.63" r="8.92653" stroke-width="0.5" stroke="black" fill="grey"/>
  <circle cx="1138.42" cy="1660.63" r="5.41559" stroke-width="0.5" stroke="grey" fill="grey"/>
   </g>
   <g id="cell35">
  <circle cx="753.814" cy="899.933" r="10.1365" stroke-width="0.5" stroke="black" fill="red"/>
  <circle cx="753.814" cy="899.933" r="6.14061" stroke-width="0.5" stroke="red" fill="red"/>
   </g>
   <g id="cell36">
  <circle cx="1757.73" cy="268.598" r="10.5325" stroke-width="0.5" stroke="black" fill="red"/>
  <circle cx="1757.73" cy="268.598" r="6.33927" stroke-width="0.5" stroke="red" fill="red"/>
   </g>
   <g id="cell37">
  <circle cx="788.387" cy="921.859" r="10.4078" stroke-width="0.5" stroke="black" fill="red"/>
  <circle cx="788.387" cy="921.859" r="6.28181" stroke-width="0.5" stroke="red" fill="red"/>
   </g>
   <g id="cell38">
  <circle cx="1584.37" cy="1053.1" r="8.40798" stroke-width="0.5" stroke="black" fill="red"/>
  <circle cx="1584.37" cy="1053.1" r="5.0503" stroke-width="0.5" stroke="red" fill="red"/>
   </g>
   <g id="cell39">
  <circle cx="1139.29" cy="1202" r="10.399" stroke-width="0.5" stroke="black" fill="grey"/>
  <circle cx="1139.29" cy="1202" r="6.27701" stroke-width="0.5" stroke="grey" fill="grey"/>
   </g>
   <g id="cell40">
  <circle cx="1774.36" cy="1297.45" r="8.40527" stroke-width="0.5" stroke="black" fill="grey"/>
  <circle cx="1774.36" cy="1297.45" r="5.04942" stroke-width="0.5" stroke="grey" fill="grey"/>
   </g>
   <g id="cell41">
  <circle cx="1236.76" cy="1414.45" r="10.2998" stroke-width="0.5" stroke="black" fill="grey"/>
  <circle cx="1236.76" cy="1414.45" r="6.22696" stroke-width="0.5" stroke="grey" fill="grey"/>
   </g>
   <g id="cell42">
  <circle cx="1109.75" cy="1137.04" r="8.60006" stroke-width="0.5" stroke="black" fill="grey"/>
  <circle cx="1109.75" cy="1137.04" r="5.19583" stroke-width="0.5" stroke="grey" fill="grey"/>
   </g>
   <g id="cell43">
  <circle cx="1065.35" cy="1115.23" r="10.0495" stroke-width="0.5" stroke="black" fill="grey"/>
  <circle cx="1065.35" cy="1115.23" r="6.09273" stroke-width="0.5" stroke="grey" fill="grey"/>
   </g>
   <g id="cell44">
  <circle cx="1674.72" cy="1181.07" r="8.36305" stroke-width="0.5" stroke="black" fill="grey"/>
  <circle cx="1674.72" cy="1181.07" r="5.03285" stroke-width="0.5" stroke="grey" fill="grey"/>
   </g>
   <g id="cell45">
  <circle cx="1559.81" cy="1031.58" r="8.36829" stroke-width="0.5" stroke="black" fill="red"/>
  <circle cx="1559.81" cy="1031.58" r="5.03507" stroke-width="0.5" stroke="red" fill="red"/>
   </g>
   <g id="cell46">
  <circle cx="1209.1" cy="1690.67" r="2.17124" stroke-width="0.5" stroke="black" fill="grey"/>
  <circle cx="1209.1" cy="1690.67" r="2.11121" stroke-width="0.5" stroke="black" fill="black"/>
   </g>
   <g id="cell47">
  <circle cx="1608.2" cy="157.814" r="10.461" stroke-width="0.5" stroke="black" fill="red"/>
  <circle cx="1608.2" cy="157.814" r="6.30688" stroke-width="0.5" stroke="red" fill="red"/>
   </g>
   <g id="cell48">
  <circle cx="1175.84" cy="1779.66" r="10.5009" stroke-width="0.5" stroke="black" fill="grey"/>
  <circle cx="1175.84" cy="1779.66" r="6.32527" stroke-width="0.5" stroke="grey" fill="grey"/>
   </g>
   <g id="cell49">
  <circle cx="73.4005" cy="1967.21" r="10.4204" stroke-width="0.5" stroke="black" fill="red"/>
  <circle cx="73.4005" cy="1967.21" r="6.28754" stroke-width="0.5" stroke="red" fill="red"/>
   </g>
   <g id="cell50">
  <circle cx="1161.41" cy="1149.41" r="10.3987" stroke-width="0.5" stroke="black" fill="grey"/>
  <circle cx="1161.41" cy="1149.41" r="6.27695" stroke-width="0.5" stroke="grey" fill="grey"/>
   </g>
   <g id="cell51">
  <circle cx="1169.79" cy="1280.98" r="9.25308" stroke-width="0.5" stroke="black" fill="grey"/>
  <circle cx="1169.79" cy="1280.98" r="5.6283" stroke-width="0.5" stroke="grey" fill="grey"/>
   </g>
   <g id="cell52">
  <circle cx="851.284" cy="604.578" r="10.5229" stroke-width="0.5" stroke="black" fill="grey"/>
  <circle cx="851.284" cy="604.578" r="6.33506" stroke-width="0.5" stroke="grey" fill="grey"/>
   </g>
   <g id="cell87">
  <circle cx="900.127" cy="587.113" r="8.46892" stroke-width="0.5" stroke="black" fill="grey"/>
  <circle cx="900.127" cy="587.113" r="5.10915" stroke-width="0.5" stroke="grey" fill="grey"/>
   </g>
   <g id="cell54">
  <circle cx="871.276" cy="538.134" r="10.5035" stroke-width="0.5" stroke="black" fill="grey"/>
  <circle cx="871.276" cy="538.134" r="6.32646" stroke-width="0.5" stroke="grey" fill="grey"/>
   </g>
   <g id="cell55">
  <circle cx="892.221" cy="607.562" r="8.65858" stroke-width="0.5" stroke="black" fill="grey"/>
  <circle cx="892.221" cy="607.562" r="5.24278" stroke-width="0.5" stroke="grey" fill="grey"/>
   </g>
   <g id="cell56">
  <circle cx="140" cy="1925.01" r="10.4823" stroke-width="0.5" stroke="black" fill="red"/>
  <circle cx="140" cy="1925.01" r="6.31687" stroke-width="0.5" stroke="red" fill="red"/>
   </g>
   <g id="cell57">
  <circle cx="1674.15" cy="281.453" r="10.4393" stroke-width="0.5" stroke="black" fill="red"/>
  <circle cx="1674.15" cy="281.453" r="6.2967" stroke-width="0.5" stroke="red" fill="red"/>
   </g>
   <g id="cell58">
  <circle cx="711.416" cy="845.757" r="8.57733" stroke-width="0.5" stroke="black" fill="red"/>
  <circle cx="711.416" cy="845.757" r="5.17429" stroke-width="0.5" stroke="red" fill="red"/>
   </g>
   <g id="cell59">
  <circle cx="1699.38" cy="322.3" r="10.2903" stroke-width="0.5" stroke="black" fill="red"/>
  <circle cx="1699.38" cy="322.3" r="6.22224" stroke-width="0.5" stroke="red" fill="red"/>
   </g>
   <g id="cell60">
  <circle cx="1728.34" cy="1177.79" r="10.4199" stroke-width="0.5" stroke="black" fill="grey"/>
  <circle cx="1728.34" cy="1177.79" r="6.2874" stroke-width="0.5" stroke="grey" fill="grey"/>
   </g>
   <g id="cell61">
  <circle cx="1137.5" cy="1772.78" r="9.77457" stroke-width="0.5" stroke="black" fill="grey"/>
  <circle cx="1137.5" cy="1772.78" r="5.93698" stroke-width="0.5" stroke="grey" fill="grey"/>
   </g>
   <g id="cell62">
  <circle cx="1140.01" cy="1635.86" r="9.88485" stroke-width="0.5" stroke="black" fill="grey"/>
  <circle cx="1140.01" cy="1635.86" r="6.00047" stroke-width="0.5" stroke="grey" fill="grey"/>
   </g>
   <g id="cell63">
  <circle cx="1673.02" cy="320.565" r="10.4971" stroke-width="0.5" stroke="black" fill="red"/>
  <circle cx="1673.02" cy="320.565" r="6.32371" stroke-width="0.5" stroke="red" fill="red"/>
   </g>
   <g id="cell64">
  <circle cx="1703.2" cy="1161.48" r="8.40994" stroke-width="0.5" stroke="black" fill="grey"/>
  <circle cx="1703.2" cy="1161.48" r="5.05091" stroke-width="0.5" stroke="grey" fill="grey"/>
   </g>
   <g id="cell65">
  <circle cx="1325.47" cy="1276.97" r="3.48871" stroke-width="0.5" stroke="black" fill="grey"/>
  <circle cx="1325.47" cy="1276.97" r="2.86908" stroke-width="0.5" stroke="black" fill="black"/>
   </g>
   <g id="cell66">
  <circle cx="775.02" cy="938.257" r="10.359" stroke-width="0.5" stroke="black" fill="red"/>
  <circle cx="775.02" cy="938.257" r="6.25764" stroke-width="0.5" stroke="red" fill="red"/>
   </g>
   <g id="cell67">
  <circle cx="1589.3" cy="1025.17" r="10.3369" stroke-width="0.5" stroke="black" fill="red"/>
  <circle cx="1589.3" cy="1025.17" r="6.24661" stroke-width="0.5" stroke="red" fill="red"/>
   </g>
   <g id="cell68">
  <circle cx="809.663" cy="1035.3" r="8.40744" stroke-width="0.5" stroke="black" fill="red"/>
  <circle cx="809.663" cy="1035.3" r="5.05013" stroke-width="0.5" stroke="red" fill="red"/>
   </g>
   <g id="cell69">
  <circle cx="867.714" cy="568.425" r="10.2591" stroke-width="0.5" stroke="black" fill="grey"/>
  <circle cx="867.714" cy="568.425" r="6.20669" stroke-width="0.5" stroke="grey" fill="grey"/>
   </g>
   <g id="cell70">
  <circle cx="1676.02" cy="1269.03" r="10.1828" stroke-width="0.5" stroke="black" fill="grey"/>
  <circle cx="1676.02" cy="1269.03" r="6.16649" stroke-width="0.5" stroke="grey" fill="grey"/>
   </g>
   <g id="cell71">
  <circle cx="1013.79" cy="1080.92" r="9.71861" stroke-width="0.5" stroke="black" fill="grey"/>
  <circle cx="1013.79" cy="1080.92" r="5.90615" stroke-width="0.5" stroke="grey" fill="grey"/>
   </g>
   <g id="cell72">
  <circle cx="1123.06" cy="716.464" r="9.64014" stroke-width="0.5" stroke="black" fill="red"/>
  <circle cx="1123.06" cy="716.464" r="5.86016" stroke-width="0.5" stroke="red" fill="red"/>
   </g>
   <g id="cell73">
  <circle cx="1171.64" cy="1226.53" r="9.8337" stroke-width="0.5" stroke="black" fill="grey"/>
  <circle cx="1171.64" cy="1226.53" r="5.97315" stroke-width="0.5" stroke="grey" fill="grey"/>
   </g>
   <g id="cell74">
  <circle cx="1133.85" cy="1097.58" r="8.63721" stroke-width="0.5" stroke="black" fill="grey"/>
  <circle cx="1133.85" cy="1097.58" r="5.22243" stroke-width="0.5" stroke="grey" fill="grey"/>
   </g>
   <g id="cell75">
  <circle cx="1696.29" cy="1200.1" r="9.60994" stroke-width="0.5" stroke="black" fill="grey"/>
  <circle cx="1696.29" cy="1200.1" r="5.84291" stroke-width="0.5" stroke="grey" fill="grey"/>
   </g>
   <g id="cell76">
  <circle cx="1687.53" cy="216.018" r="8.49523" stroke-width="0.5" stroke="black" fill="red"/>
  <circle cx="1687.53" cy="216.018" r="5.11969" stroke-width="0.5" stroke="red" fill="red"/>
   </g>
   <g id="cell77">
  <circle cx="81.1208" cy="1934.38" r="9.21799" stroke-width="0.5" stroke="black" fill="red"/>
  <circle cx="81.1208" cy="1934.38" r="5.60628" stroke-width="0.5" stroke="red" fill="red"/>
   </g>
   <g id="cell78">
  <circle cx="1113.45" cy="1225.06" r="8.38947" stroke-width="0.5" stroke="black" fill="grey"/>
  <circle cx="1113.45" cy="1225.06" r="5.04363" stroke-width="0.5" stroke="grey" fill="grey"/>
   </g>
   <g id="cell79">
  <circle cx="1189.17" cy="1255.3" r="8.38862" stroke-width="0.5" stroke="black" fill="grey"/>
  <circle cx="1189.17" cy="1255.3" r="5.04333" stroke-width="0.5" stroke="grey" fill="grey"/>
   </g>
   <g id="cell80">
  <circle cx="812.566" cy="518.215" r="8.38862" stroke-width="0.5" stroke="black" fill="grey"/>
  <circle cx="812.566" cy="518.215" r="5.04333" stroke-width="0.5" stroke="grey" fill="grey"/>
   </g>
   <g id="cell81">
  <circle cx="1225.77" cy="1300.77" r="8.38364" stroke-width="0.5" stroke="black" fill="grey"/>
  <circle cx="1225.77" cy="1300.77" r="5.04134" stroke-width="0.5" stroke="grey" fill="grey"/>
   </g>
   <g id="cell82">
  <circle cx="1626.16" cy="1078.46" r="8.38371" stroke-width="0.5" stroke="black" fill="red"/>
  <circle cx="1626.16" cy="1078.46" r="5.04135" stroke-width="0.5" stroke="red" fill="red"/>
   </g>
   <g id="cell83">
  <circle cx="899.83" cy="571.45" r="8.37985" stroke-width="0.5" stroke="black" fill="grey"/>
  <circle cx="899.83" cy="571.45" r="5.03987" stroke-width="0.5" stroke="grey" fill="grey"/>
   </g>
   <g id="cell84">
  <circle cx="1098.58" cy="1653.16" r="8.38008" stroke-width="0.5" stroke="black" fill="grey"/>
  <circle cx="1098.58" cy="1653.16" r="5.03993" stroke-width="0.5" stroke="grey" fill="grey"/>
   </g>
   <g id="cell85">
  <circle cx="1141.87" cy="1725.27" r="8.44796" stroke-width="0.5" stroke="black" fill="grey"/>
  <circle cx="1141.87" cy="1725.27" r="5.09044" stroke-width="0.5" stroke="grey" fill="grey"/>
   </g>
   <g id="cell88">
  <circle cx="1666.44" cy="1169.61" r="8.36305" stroke-width="0.5" stroke="black" fill="grey"/>
  <circle cx="1666.44" cy="1169.61" r="5.03285" stroke-width="0.5" stroke="grey" fill="grey"/>
   </g>
  </g>
 </g>
  <rect x="1750" y="2070" width="200" height="20" stroke-width="4" stroke="rgb(255,255,255)" fill="rgb(0,0,0)"/>
  <text x="1762.5" y="2057.5"
   font-family="Arial" font-size="50" fill="black" >
   200 &#956;m
  </text>
  <text x="50" y="2090"
   font-family="Arial" font-size="37.5" fill="black" >
   0 days, 0 hours, 1 minutes, and 29.0943 seconds
  </text>
  <rect x="0" y="140" width="2000" height="2000" stroke-width="4" stroke="rgb(0,0,0)" fill="none"/>
</svg>
