<?xml version="1.0" encoding="UTF-8" standalone="no"?>
<!-- Created with PhysiCell (http://PhysiCell.MathCancer.org/) -->
<svg 
 xmlns:dc="http://purl.org/dc/elements/1.1/" 
 xmlns:cc="http://creativecommons.org/ns#" 
 xmlns:rdf="http://www.w3.org/1999/02/22-rdf-syntax-ns#" 
 xmlns:svg="http://www.w3.org/2000/svg" 
 xmlns="http://www.w3.org/2000/svg" 
 version="1.1" 
 width="2000" 
 height="2140" 
 id="svg2">
  <rect x="0" y="0" width="2000" height="2140" stroke-width="4" stroke="white" fill="white"/>
  <text x="25" y="60"
   font-family="Arial" font-size="50" fill="black" >
   Current time: 0 days, 18 hours, and 20.00 minutes, z = 0.00 &#956;m
  </text>
  <text x="25" y="115"
   font-family="Arial" font-size="47.5" fill="black" >
   112 agents
  </text>
 <g id="tissue" 
    transform="translate(0,2140) scale(1,-1)">
  <g id="ECM">
  </g>
  <g id="cells">
   <g id="cell0">
  <circle cx="1078.02" cy="1180.1" r="10.5333" stroke-width="0.5" stroke="black" fill="grey"/>
  <circle cx="1078.02" cy="1180.1" r="6.33948" stroke-width="0.5" stroke="grey" fill="grey"/>
   </g>
   <g id="cell1">
  <circle cx="1686.02" cy="1201.33" r="1.16344" stroke-width="0.5" stroke="black" fill="grey"/>
  <circle cx="1686.02" cy="1201.33" r="1.15973" stroke-width="0.5" stroke="black" fill="black"/>
   </g>
   <g id="cell2">
  <circle cx="1085.17" cy="1722.26" r="1.71103" stroke-width="0.5" stroke="black" fill="grey"/>
  <circle cx="1085.17" cy="1722.26" r="1.69416" stroke-width="0.5" stroke="black" fill="black"/>
   </g>
   <g id="cell3">
  <circle cx="1244.85" cy="1303.55" r="8.82754" stroke-width="0.5" stroke="black" fill="grey"/>
  <circle cx="1244.85" cy="1303.55" r="5.35542" stroke-width="0.5" stroke="grey" fill="grey"/>
   </g>
   <g id="cell92">
  <circle cx="1263.01" cy="580.238" r="9.26172" stroke-width="0.5" stroke="black" fill="red"/>
  <circle cx="1263.01" cy="580.238" r="5.63166" stroke-width="0.5" stroke="red" fill="red"/>
   </g>
   <g id="cell5">
  <circle cx="108.063" cy="1976.94" r="9.7273" stroke-width="0.5" stroke="black" fill="grey"/>
  <circle cx="108.063" cy="1976.94" r="5.90906" stroke-width="0.5" stroke="grey" fill="grey"/>
   </g>
   <g id="cell6">
  <circle cx="765.582" cy="957.509" r="8.41271" stroke-width="0.5" stroke="black" fill="grey"/>
  <circle cx="765.582" cy="957.509" r="5.05167" stroke-width="0.5" stroke="grey" fill="grey"/>
   </g>
   <g id="cell7">
  <circle cx="1634.12" cy="1064.24" r="3.18874" stroke-width="0.5" stroke="black" fill="grey"/>
  <circle cx="1634.12" cy="1064.24" r="2.74744" stroke-width="0.5" stroke="black" fill="black"/>
   </g>
   <g id="cell8">
  <circle cx="1142.97" cy="791.09" r="8.39874" stroke-width="0.5" stroke="black" fill="grey"/>
  <circle cx="1142.97" cy="791.09" r="5.04711" stroke-width="0.5" stroke="grey" fill="grey"/>
   </g>
   <g id="cell121">
  <circle cx="302.104" cy="1661.67" r="8.39083" stroke-width="0.5" stroke="black" fill="red"/>
  <circle cx="302.104" cy="1661.67" r="5.04414" stroke-width="0.5" stroke="red" fill="red"/>
   </g>
   <g id="cell124">
  <circle cx="561.046" cy="368.118" r="9.06545" stroke-width="0.5" stroke="black" fill="red"/>
  <circle cx="561.046" cy="368.118" r="5.51065" stroke-width="0.5" stroke="red" fill="red"/>
   </g>
   <g id="cell11">
  <circle cx="773.771" cy="1666.64" r="1.43578" stroke-width="0.5" stroke="black" fill="grey"/>
  <circle cx="773.771" cy="1666.64" r="1.42757" stroke-width="0.5" stroke="black" fill="black"/>
   </g>
   <g id="cell12">
  <circle cx="1568.9" cy="193.26" r="2.19042" stroke-width="0.5" stroke="black" fill="grey"/>
  <circle cx="1568.9" cy="193.26" r="2.12915" stroke-width="0.5" stroke="black" fill="black"/>
   </g>
   <g id="cell96">
  <circle cx="1548.62" cy="1098.25" r="9.40064" stroke-width="0.5" stroke="black" fill="red"/>
  <circle cx="1548.62" cy="1098.25" r="5.71659" stroke-width="0.5" stroke="red" fill="red"/>
   </g>
   <g id="cell14">
  <circle cx="1525.62" cy="1632.33" r="10.1996" stroke-width="0.5" stroke="black" fill="grey"/>
  <circle cx="1525.62" cy="1632.33" r="6.17434" stroke-width="0.5" stroke="grey" fill="grey"/>
   </g>
   <g id="cell98">
  <circle cx="1868.98" cy="708.538" r="9.3328" stroke-width="0.5" stroke="black" fill="red"/>
  <circle cx="1868.98" cy="708.538" r="5.67526" stroke-width="0.5" stroke="red" fill="red"/>
   </g>
   <g id="cell95">
  <circle cx="1975.22" cy="1814.59" r="8.38028" stroke-width="0.5" stroke="black" fill="red"/>
  <circle cx="1975.22" cy="1814.59" r="5.03997" stroke-width="0.5" stroke="red" fill="red"/>
   </g>
   <g id="cell94">
  <circle cx="709.977" cy="233.792" r="8.50131" stroke-width="0.5" stroke="black" fill="red"/>
  <circle cx="709.977" cy="233.792" r="5.12189" stroke-width="0.5" stroke="red" fill="red"/>
   </g>
   <g id="cell122">
  <circle cx="1257.22" cy="1341.34" r="8.66828" stroke-width="0.5" stroke="black" fill="grey"/>
  <circle cx="1257.22" cy="1341.34" r="5.24664" stroke-width="0.5" stroke="grey" fill="grey"/>
   </g>
   <g id="cell19">
  <circle cx="182.183" cy="794.499" r="2.91074" stroke-width="0.5" stroke="black" fill="grey"/>
  <circle cx="182.183" cy="794.499" r="2.42562" stroke-width="0.5" stroke="black" fill="black"/>
   </g>
   <g id="cell133">
  <circle cx="212.746" cy="1150.03" r="8.37641" stroke-width="0.5" stroke="black" fill="red"/>
  <circle cx="212.746" cy="1150.03" r="5.0384" stroke-width="0.5" stroke="red" fill="red"/>
   </g>
   <g id="cell123">
  <circle cx="1320.57" cy="945.785" r="9.02746" stroke-width="0.5" stroke="black" fill="red"/>
  <circle cx="1320.57" cy="945.785" r="5.48613" stroke-width="0.5" stroke="red" fill="red"/>
   </g>
   <g id="cell22">
  <circle cx="1142.7" cy="295.776" r="1.47065" stroke-width="0.5" stroke="black" fill="grey"/>
  <circle cx="1142.7" cy="295.776" r="1.45328" stroke-width="0.5" stroke="black" fill="black"/>
   </g>
   <g id="cell90">
  <circle cx="1182.49" cy="1068.45" r="10.4531" stroke-width="0.5" stroke="black" fill="red"/>
  <circle cx="1182.49" cy="1068.45" r="6.30312" stroke-width="0.5" stroke="red" fill="red"/>
   </g>
   <g id="cell24">
  <circle cx="1238.02" cy="431.104" r="1.41343" stroke-width="0.5" stroke="black" fill="grey"/>
  <circle cx="1238.02" cy="431.104" r="1.4088" stroke-width="0.5" stroke="black" fill="black"/>
   </g>
   <g id="cell25">
  <circle cx="760.564" cy="1862.62" r="8.40056" stroke-width="0.5" stroke="black" fill="grey"/>
  <circle cx="760.564" cy="1862.62" r="5.04776" stroke-width="0.5" stroke="grey" fill="grey"/>
   </g>
   <g id="cell93">
  <circle cx="447.926" cy="1810.21" r="8.6786" stroke-width="0.5" stroke="black" fill="red"/>
  <circle cx="447.926" cy="1810.21" r="5.25058" stroke-width="0.5" stroke="red" fill="red"/>
   </g>
   <g id="cell108">
  <circle cx="1918.53" cy="696.68" r="8.40022" stroke-width="0.5" stroke="black" fill="red"/>
  <circle cx="1918.53" cy="696.68" r="5.04764" stroke-width="0.5" stroke="red" fill="red"/>
   </g>
   <g id="cell89">
  <circle cx="220.432" cy="1136.36" r="8.37641" stroke-width="0.5" stroke="black" fill="red"/>
  <circle cx="220.432" cy="1136.36" r="5.0384" stroke-width="0.5" stroke="red" fill="red"/>
   </g>
   <g id="cell29">
  <circle cx="1902.1" cy="1317.31" r="10.4862" stroke-width="0.5" stroke="black" fill="grey"/>
  <circle cx="1902.1" cy="1317.31" r="6.31853" stroke-width="0.5" stroke="grey" fill="grey"/>
   </g>
   <g id="cell30">
  <circle cx="1366.18" cy="314.534" r="2.09965" stroke-width="0.5" stroke="black" fill="grey"/>
  <circle cx="1366.18" cy="314.534" r="2.04264" stroke-width="0.5" stroke="black" fill="black"/>
   </g>
   <g id="cell31">
  <circle cx="752.001" cy="266.2" r="9.14767" stroke-width="0.5" stroke="black" fill="grey"/>
  <circle cx="752.001" cy="266.2" r="5.56136" stroke-width="0.5" stroke="grey" fill="grey"/>
   </g>
   <g id="cell86">
  <circle cx="549.489" cy="798.882" r="10.2911" stroke-width="0.5" stroke="black" fill="red"/>
  <circle cx="549.489" cy="798.882" r="6.22246" stroke-width="0.5" stroke="red" fill="red"/>
   </g>
   <g id="cell88">
  <circle cx="260.538" cy="219.227" r="8.38028" stroke-width="0.5" stroke="black" fill="red"/>
  <circle cx="260.538" cy="219.227" r="5.03997" stroke-width="0.5" stroke="red" fill="red"/>
   </g>
   <g id="cell119">
  <circle cx="1632.2" cy="868.812" r="9.10873" stroke-width="0.5" stroke="black" fill="red"/>
  <circle cx="1632.2" cy="868.812" r="5.53701" stroke-width="0.5" stroke="red" fill="red"/>
   </g>
   <g id="cell91">
  <circle cx="105.243" cy="1295.46" r="9.66455" stroke-width="0.5" stroke="black" fill="red"/>
  <circle cx="105.243" cy="1295.46" r="5.87503" stroke-width="0.5" stroke="red" fill="red"/>
   </g>
   <g id="cell87">
  <circle cx="1444.59" cy="822.17" r="8.39913" stroke-width="0.5" stroke="black" fill="red"/>
  <circle cx="1444.59" cy="822.17" r="5.04725" stroke-width="0.5" stroke="red" fill="red"/>
   </g>
   <g id="cell37">
  <circle cx="1962.83" cy="1304.61" r="8.65127" stroke-width="0.5" stroke="black" fill="grey"/>
  <circle cx="1962.83" cy="1304.61" r="5.2272" stroke-width="0.5" stroke="black" fill="black"/>
   </g>
   <g id="cell138">
  <circle cx="1101.52" cy="746.563" r="8.36722" stroke-width="0.5" stroke="black" fill="red"/>
  <circle cx="1101.52" cy="746.563" r="5.03458" stroke-width="0.5" stroke="red" fill="red"/>
   </g>
   <g id="cell39">
  <circle cx="954.168" cy="483.289" r="10.1634" stroke-width="0.5" stroke="black" fill="grey"/>
  <circle cx="954.168" cy="483.289" r="6.1549" stroke-width="0.5" stroke="grey" fill="grey"/>
   </g>
   <g id="cell40">
  <circle cx="329.458" cy="687.875" r="2.74253" stroke-width="0.5" stroke="black" fill="grey"/>
  <circle cx="329.458" cy="687.875" r="2.54405" stroke-width="0.5" stroke="black" fill="black"/>
   </g>
   <g id="cell134">
  <circle cx="1162.24" cy="1146.08" r="8.37537" stroke-width="0.5" stroke="black" fill="red"/>
  <circle cx="1162.24" cy="1146.08" r="5.03798" stroke-width="0.5" stroke="red" fill="red"/>
   </g>
   <g id="cell42">
  <circle cx="302.177" cy="1559.02" r="1.89965" stroke-width="0.5" stroke="black" fill="grey"/>
  <circle cx="302.177" cy="1559.02" r="1.86028" stroke-width="0.5" stroke="black" fill="black"/>
   </g>
   <g id="cell84">
  <circle cx="26.6044" cy="954.496" r="8.36592" stroke-width="0.5" stroke="black" fill="red"/>
  <circle cx="26.6044" cy="954.496" r="5.03403" stroke-width="0.5" stroke="red" fill="red"/>
   </g>
   <g id="cell85">
  <circle cx="1418.39" cy="1293.75" r="8.37742" stroke-width="0.5" stroke="black" fill="red"/>
  <circle cx="1418.39" cy="1293.75" r="5.03881" stroke-width="0.5" stroke="red" fill="red"/>
   </g>
   <g id="cell114">
  <circle cx="115.13" cy="1324.21" r="8.56395" stroke-width="0.5" stroke="black" fill="red"/>
  <circle cx="115.13" cy="1324.21" r="5.16969" stroke-width="0.5" stroke="red" fill="red"/>
   </g>
   <g id="cell46">
  <circle cx="175.455" cy="1919.1" r="2.84772" stroke-width="0.5" stroke="black" fill="grey"/>
  <circle cx="175.455" cy="1919.1" r="2.39601" stroke-width="0.5" stroke="black" fill="black"/>
   </g>
   <g id="cell47">
  <circle cx="1760.91" cy="912.566" r="9.86542" stroke-width="0.5" stroke="black" fill="grey"/>
  <circle cx="1760.91" cy="912.566" r="5.98895" stroke-width="0.5" stroke="grey" fill="grey"/>
   </g>
   <g id="cell97">
  <circle cx="915.333" cy="225.848" r="10.5352" stroke-width="0.5" stroke="black" fill="red"/>
  <circle cx="915.333" cy="225.848" r="6.34027" stroke-width="0.5" stroke="red" fill="red"/>
   </g>
   <g id="cell112">
  <circle cx="1151.41" cy="773.953" r="9.3316" stroke-width="0.5" stroke="black" fill="grey"/>
  <circle cx="1151.41" cy="773.953" r="5.67481" stroke-width="0.5" stroke="grey" fill="grey"/>
   </g>
   <g id="cell50">
  <circle cx="68.3743" cy="841.517" r="8.40056" stroke-width="0.5" stroke="black" fill="red"/>
  <circle cx="68.3743" cy="841.517" r="5.04776" stroke-width="0.5" stroke="red" fill="red"/>
   </g>
   <g id="cell51">
  <circle cx="1922.97" cy="239.692" r="5.34788" stroke-width="0.5" stroke="black" fill="red"/>
  <circle cx="1922.97" cy="239.692" r="3.70046" stroke-width="0.5" stroke="black" fill="black"/>
   </g>
   <g id="cell52">
  <circle cx="547.65" cy="967.852" r="9.14767" stroke-width="0.5" stroke="black" fill="red"/>
  <circle cx="547.65" cy="967.852" r="5.56136" stroke-width="0.5" stroke="red" fill="red"/>
   </g>
   <g id="cell53">
  <circle cx="1311.48" cy="628.559" r="10.5352" stroke-width="0.5" stroke="black" fill="red"/>
  <circle cx="1311.48" cy="628.559" r="6.34027" stroke-width="0.5" stroke="red" fill="red"/>
   </g>
   <g id="cell54">
  <circle cx="799.102" cy="1874.92" r="8.71159" stroke-width="0.5" stroke="black" fill="red"/>
  <circle cx="799.102" cy="1874.92" r="5.27549" stroke-width="0.5" stroke="red" fill="red"/>
   </g>
   <g id="cell55">
  <circle cx="469.891" cy="1389.6" r="8.40056" stroke-width="0.5" stroke="black" fill="red"/>
  <circle cx="469.891" cy="1389.6" r="5.04776" stroke-width="0.5" stroke="red" fill="red"/>
   </g>
   <g id="cell56">
  <circle cx="1119.13" cy="1720.65" r="8.37092" stroke-width="0.5" stroke="black" fill="red"/>
  <circle cx="1119.13" cy="1720.65" r="5.03613" stroke-width="0.5" stroke="red" fill="red"/>
   </g>
   <g id="cell57">
  <circle cx="1031.52" cy="1081.72" r="8.39987" stroke-width="0.5" stroke="black" fill="red"/>
  <circle cx="1031.52" cy="1081.72" r="5.04751" stroke-width="0.5" stroke="red" fill="red"/>
   </g>
   <g id="cell99">
  <circle cx="906.927" cy="1932.12" r="8.36972" stroke-width="0.5" stroke="black" fill="red"/>
  <circle cx="906.927" cy="1932.12" r="5.03563" stroke-width="0.5" stroke="red" fill="red"/>
   </g>
   <g id="cell59">
  <circle cx="151.992" cy="1860.59" r="8.37641" stroke-width="0.5" stroke="black" fill="red"/>
  <circle cx="151.992" cy="1860.59" r="5.0384" stroke-width="0.5" stroke="red" fill="red"/>
   </g>
   <g id="cell60">
  <circle cx="678.058" cy="25.3566" r="8.36972" stroke-width="0.5" stroke="black" fill="red"/>
  <circle cx="678.058" cy="25.3566" r="5.03563" stroke-width="0.5" stroke="red" fill="red"/>
   </g>
   <g id="cell61">
  <circle cx="1692.88" cy="288.151" r="10.5333" stroke-width="0.5" stroke="black" fill="red"/>
  <circle cx="1692.88" cy="288.151" r="6.33948" stroke-width="0.5" stroke="red" fill="red"/>
   </g>
   <g id="cell62">
  <circle cx="1416.02" cy="1731.35" r="10.5314" stroke-width="0.5" stroke="black" fill="red"/>
  <circle cx="1416.02" cy="1731.35" r="6.33867" stroke-width="0.5" stroke="red" fill="red"/>
   </g>
   <g id="cell63">
  <circle cx="566.954" cy="337.442" r="8.38823" stroke-width="0.5" stroke="black" fill="red"/>
  <circle cx="566.954" cy="337.442" r="5.04313" stroke-width="0.5" stroke="red" fill="red"/>
   </g>
   <g id="cell64">
  <circle cx="1185.9" cy="1152.42" r="8.37537" stroke-width="0.5" stroke="black" fill="red"/>
  <circle cx="1185.9" cy="1152.42" r="5.03798" stroke-width="0.5" stroke="red" fill="red"/>
   </g>
   <g id="cell65">
  <circle cx="308.965" cy="1636.1" r="8.39083" stroke-width="0.5" stroke="black" fill="red"/>
  <circle cx="308.965" cy="1636.1" r="5.04414" stroke-width="0.5" stroke="red" fill="red"/>
   </g>
   <g id="cell66">
  <circle cx="31.5006" cy="329.646" r="10.5387" stroke-width="0.5" stroke="black" fill="red"/>
  <circle cx="31.5006" cy="329.646" r="6.34177" stroke-width="0.5" stroke="red" fill="red"/>
   </g>
   <g id="cell67">
  <circle cx="1125.78" cy="561.994" r="10.2632" stroke-width="0.5" stroke="black" fill="red"/>
  <circle cx="1125.78" cy="561.994" r="6.20796" stroke-width="0.5" stroke="red" fill="red"/>
   </g>
   <g id="cell68">
  <circle cx="1428.02" cy="603.317" r="9.07013" stroke-width="0.5" stroke="black" fill="red"/>
  <circle cx="1428.02" cy="603.317" r="5.51252" stroke-width="0.5" stroke="red" fill="red"/>
   </g>
   <g id="cell69">
  <circle cx="857.744" cy="481.491" r="8.37641" stroke-width="0.5" stroke="black" fill="red"/>
  <circle cx="857.744" cy="481.491" r="5.0384" stroke-width="0.5" stroke="red" fill="red"/>
   </g>
   <g id="cell70">
  <circle cx="1091.44" cy="734.363" r="8.36722" stroke-width="0.5" stroke="black" fill="red"/>
  <circle cx="1091.44" cy="734.363" r="5.03458" stroke-width="0.5" stroke="red" fill="red"/>
   </g>
   <g id="cell71">
  <circle cx="1768.84" cy="1105.46" r="8.37641" stroke-width="0.5" stroke="black" fill="red"/>
  <circle cx="1768.84" cy="1105.46" r="5.0384" stroke-width="0.5" stroke="red" fill="red"/>
   </g>
   <g id="cell72">
  <circle cx="424.085" cy="1729.64" r="8.41271" stroke-width="0.5" stroke="black" fill="red"/>
  <circle cx="424.085" cy="1729.64" r="5.05167" stroke-width="0.5" stroke="red" fill="red"/>
   </g>
   <g id="cell73">
  <circle cx="1333.35" cy="900.329" r="8.38957" stroke-width="0.5" stroke="black" fill="red"/>
  <circle cx="1333.35" cy="900.329" r="5.04365" stroke-width="0.5" stroke="red" fill="red"/>
   </g>
   <g id="cell74">
  <circle cx="1748.83" cy="1955.61" r="8.39144" stroke-width="0.5" stroke="black" fill="red"/>
  <circle cx="1748.83" cy="1955.61" r="5.04437" stroke-width="0.5" stroke="red" fill="red"/>
   </g>
   <g id="cell75">
  <circle cx="204.344" cy="612.657" r="8.4009" stroke-width="0.5" stroke="black" fill="red"/>
  <circle cx="204.344" cy="612.657" r="5.04788" stroke-width="0.5" stroke="red" fill="red"/>
   </g>
   <g id="cell76">
  <circle cx="1626.39" cy="882.862" r="8.3937" stroke-width="0.5" stroke="black" fill="red"/>
  <circle cx="1626.39" cy="882.862" r="5.04523" stroke-width="0.5" stroke="red" fill="red"/>
   </g>
   <g id="cell77">
  <circle cx="1329.15" cy="1749.68" r="10.1634" stroke-width="0.5" stroke="black" fill="red"/>
  <circle cx="1329.15" cy="1749.68" r="6.1549" stroke-width="0.5" stroke="red" fill="red"/>
   </g>
   <g id="cell78">
  <circle cx="1134.92" cy="630.981" r="8.38118" stroke-width="0.5" stroke="black" fill="red"/>
  <circle cx="1134.92" cy="630.981" r="5.04034" stroke-width="0.5" stroke="red" fill="red"/>
   </g>
   <g id="cell79">
  <circle cx="1936.93" cy="1427.61" r="10.5314" stroke-width="0.5" stroke="black" fill="red"/>
  <circle cx="1936.93" cy="1427.61" r="6.33867" stroke-width="0.5" stroke="red" fill="red"/>
   </g>
   <g id="cell80">
  <circle cx="1490.69" cy="1351.05" r="8.36592" stroke-width="0.5" stroke="black" fill="red"/>
  <circle cx="1490.69" cy="1351.05" r="5.03403" stroke-width="0.5" stroke="red" fill="red"/>
   </g>
   <g id="cell81">
  <circle cx="1048.38" cy="1893.5" r="8.38206" stroke-width="0.5" stroke="black" fill="red"/>
  <circle cx="1048.38" cy="1893.5" r="5.04069" stroke-width="0.5" stroke="red" fill="red"/>
   </g>
   <g id="cell82">
  <circle cx="1285.73" cy="757.271" r="10.5189" stroke-width="0.5" stroke="black" fill="red"/>
  <circle cx="1285.73" cy="757.271" r="6.3332" stroke-width="0.5" stroke="red" fill="red"/>
   </g>
   <g id="cell113">
  <circle cx="1901.69" cy="229.271" r="9.61102" stroke-width="0.5" stroke="black" fill="red"/>
  <circle cx="1901.69" cy="229.271" r="5.84331" stroke-width="0.5" stroke="red" fill="red"/>
   </g>
   <g id="cell101">
  <circle cx="749.248" cy="219.312" r="9.93727" stroke-width="0.5" stroke="black" fill="red"/>
  <circle cx="749.248" cy="219.312" r="6.03175" stroke-width="0.5" stroke="red" fill="red"/>
   </g>
   <g id="cell102">
  <circle cx="439.869" cy="1783.07" r="9.22733" stroke-width="0.5" stroke="black" fill="red"/>
  <circle cx="439.869" cy="1783.07" r="5.60989" stroke-width="0.5" stroke="red" fill="red"/>
   </g>
   <g id="cell103">
  <circle cx="248.053" cy="582.877" r="8.4009" stroke-width="0.5" stroke="black" fill="red"/>
  <circle cx="248.053" cy="582.877" r="5.04788" stroke-width="0.5" stroke="red" fill="red"/>
   </g>
   <g id="cell104">
  <circle cx="1577.62" cy="1074.93" r="8.91781" stroke-width="0.5" stroke="black" fill="red"/>
  <circle cx="1577.62" cy="1074.93" r="5.41253" stroke-width="0.5" stroke="red" fill="red"/>
   </g>
   <g id="cell105">
  <circle cx="71.7656" cy="791.59" r="9.69288" stroke-width="0.5" stroke="black" fill="red"/>
  <circle cx="71.7656" cy="791.59" r="5.89117" stroke-width="0.5" stroke="red" fill="red"/>
   </g>
   <g id="cell106">
  <circle cx="790.588" cy="1837.61" r="8.40056" stroke-width="0.5" stroke="black" fill="grey"/>
  <circle cx="790.588" cy="1837.61" r="5.04776" stroke-width="0.5" stroke="grey" fill="grey"/>
   </g>
   <g id="cell107">
  <circle cx="426.334" cy="1378.03" r="9.52612" stroke-width="0.5" stroke="black" fill="red"/>
  <circle cx="426.334" cy="1378.03" r="5.79238" stroke-width="0.5" stroke="red" fill="red"/>
   </g>
   <g id="cell109">
  <circle cx="1005.15" cy="1099.96" r="8.39987" stroke-width="0.5" stroke="black" fill="red"/>
  <circle cx="1005.15" cy="1099.96" r="5.04751" stroke-width="0.5" stroke="red" fill="red"/>
   </g>
   <g id="cell110">
  <circle cx="1469.99" cy="819.629" r="8.49926" stroke-width="0.5" stroke="black" fill="red"/>
  <circle cx="1469.99" cy="819.629" r="5.12115" stroke-width="0.5" stroke="red" fill="red"/>
   </g>
   <g id="cell111">
  <circle cx="1319.6" cy="581.596" r="9.6918" stroke-width="0.5" stroke="black" fill="red"/>
  <circle cx="1319.6" cy="581.596" r="5.89076" stroke-width="0.5" stroke="red" fill="red"/>
   </g>
   <g id="cell115">
  <circle cx="586.751" cy="931.357" r="9.22195" stroke-width="0.5" stroke="black" fill="red"/>
  <circle cx="586.751" cy="931.357" r="5.60782" stroke-width="0.5" stroke="red" fill="red"/>
   </g>
   <g id="cell116">
  <circle cx="782.077" cy="1882.29" r="8.39473" stroke-width="0.5" stroke="black" fill="red"/>
  <circle cx="782.077" cy="1882.29" r="5.04562" stroke-width="0.5" stroke="red" fill="red"/>
   </g>
   <g id="cell117">
  <circle cx="765.955" cy="239.388" r="8.39473" stroke-width="0.5" stroke="black" fill="grey"/>
  <circle cx="765.955" cy="239.388" r="5.04562" stroke-width="0.5" stroke="grey" fill="grey"/>
   </g>
   <g id="cell118">
  <circle cx="1474.65" cy="627.082" r="8.63329" stroke-width="0.5" stroke="black" fill="red"/>
  <circle cx="1474.65" cy="627.082" r="5.22093" stroke-width="0.5" stroke="red" fill="red"/>
   </g>
   <g id="cell120">
  <circle cx="1714.93" cy="1958.31" r="9.06819" stroke-width="0.5" stroke="black" fill="red"/>
  <circle cx="1714.93" cy="1958.31" r="5.51175" stroke-width="0.5" stroke="red" fill="red"/>
   </g>
   <g id="cell125">
  <circle cx="1058.59" cy="1932.4" r="8.38206" stroke-width="0.5" stroke="black" fill="red"/>
  <circle cx="1058.59" cy="1932.4" r="5.04069" stroke-width="0.5" stroke="red" fill="red"/>
   </g>
   <g id="cell126">
  <circle cx="1156.48" cy="609.143" r="8.38118" stroke-width="0.5" stroke="black" fill="red"/>
  <circle cx="1156.48" cy="609.143" r="5.04034" stroke-width="0.5" stroke="red" fill="red"/>
   </g>
   <g id="cell127">
  <circle cx="240.428" cy="237.356" r="8.77815" stroke-width="0.5" stroke="black" fill="red"/>
  <circle cx="240.428" cy="237.356" r="5.32466" stroke-width="0.5" stroke="red" fill="red"/>
   </g>
   <g id="cell128">
  <circle cx="1981.85" cy="1860.51" r="8.54738" stroke-width="0.5" stroke="black" fill="red"/>
  <circle cx="1981.85" cy="1860.51" r="5.16319" stroke-width="0.5" stroke="red" fill="red"/>
   </g>
   <g id="cell129">
  <circle cx="1418.98" cy="1274.09" r="8.37742" stroke-width="0.5" stroke="black" fill="red"/>
  <circle cx="1418.98" cy="1274.09" r="5.03881" stroke-width="0.5" stroke="red" fill="red"/>
   </g>
   <g id="cell130">
  <circle cx="1783.78" cy="1113.85" r="8.54366" stroke-width="0.5" stroke="black" fill="red"/>
  <circle cx="1783.78" cy="1113.85" r="5.16166" stroke-width="0.5" stroke="red" fill="red"/>
   </g>
   <g id="cell131">
  <circle cx="129.142" cy="1880.95" r="8.37641" stroke-width="0.5" stroke="black" fill="red"/>
  <circle cx="129.142" cy="1880.95" r="5.0384" stroke-width="0.5" stroke="red" fill="red"/>
   </g>
   <g id="cell132">
  <circle cx="854.389" cy="511.329" r="8.37641" stroke-width="0.5" stroke="black" fill="red"/>
  <circle cx="854.389" cy="511.329" r="5.0384" stroke-width="0.5" stroke="red" fill="red"/>
   </g>
   <g id="cell135">
  <circle cx="1120.2" cy="1704.48" r="8.37092" stroke-width="0.5" stroke="black" fill="red"/>
  <circle cx="1120.2" cy="1704.48" r="5.03613" stroke-width="0.5" stroke="red" fill="red"/>
   </g>
   <g id="cell136">
  <circle cx="907.107" cy="1917.51" r="8.36972" stroke-width="0.5" stroke="black" fill="red"/>
  <circle cx="907.107" cy="1917.51" r="5.03563" stroke-width="0.5" stroke="red" fill="red"/>
   </g>
   <g id="cell137">
  <circle cx="659.334" cy="23.1717" r="8.36972" stroke-width="0.5" stroke="black" fill="red"/>
  <circle cx="659.334" cy="23.1717" r="5.03563" stroke-width="0.5" stroke="red" fill="red"/>
   </g>
   <g id="cell139">
  <circle cx="1501.58" cy="1348" r="8.36592" stroke-width="0.5" stroke="black" fill="red"/>
  <circle cx="1501.58" cy="1348" r="5.03403" stroke-width="0.5" stroke="red" fill="red"/>
   </g>
   <g id="cell140">
  <circle cx="32.6038" cy="967.033" r="8.36592" stroke-width="0.5" stroke="black" fill="red"/>
  <circle cx="32.6038" cy="967.033" r="5.03403" stroke-width="0.5" stroke="red" fill="red"/>
   </g>
  </g>
 </g>
  <rect x="1750" y="2070" width="200" height="20" stroke-width="4" stroke="rgb(255,255,255)" fill="rgb(0,0,0)"/>
  <text x="1762.5" y="2057.5"
   font-family="Arial" font-size="50" fill="black" >
   200 &#956;m
  </text>
  <text x="50" y="2090"
   font-family="Arial" font-size="37.5" fill="black" >
   0 days, 0 hours, 0 minutes, and 26.9221 seconds
  </text>
  <rect x="0" y="140" width="2000" height="2000" stroke-width="4" stroke="rgb(0,0,0)" fill="none"/>
</svg>
