<?xml version="1.0" encoding="UTF-8" standalone="no"?>
<!-- Created with PhysiCell (http://PhysiCell.MathCancer.org/) -->
<svg 
 xmlns:dc="http://purl.org/dc/elements/1.1/" 
 xmlns:cc="http://creativecommons.org/ns#" 
 xmlns:rdf="http://www.w3.org/1999/02/22-rdf-syntax-ns#" 
 xmlns:svg="http://www.w3.org/2000/svg" 
 xmlns="http://www.w3.org/2000/svg" 
 version="1.1" 
 width="2000" 
 height="2140" 
 id="svg2">
  <rect x="0" y="0" width="2000" height="2140" stroke-width="4" stroke="white" fill="white"/>
  <text x="25" y="60"
   font-family="Arial" font-size="50" fill="black" >
   Current time: 0 days, 8 hours, and 20.00 minutes, z = 0.00 &#956;m
  </text>
  <text x="25" y="115"
   font-family="Arial" font-size="47.5" fill="black" >
   100 agents
  </text>
 <g id="tissue" 
    transform="translate(0,2140) scale(1,-1)">
  <g id="ECM">
  </g>
  <g id="cells">
   <g id="cell0">
  <circle cx="1098.83" cy="1181.94" r="9.44256" stroke-width="0.5" stroke="black" fill="grey"/>
  <circle cx="1098.83" cy="1181.94" r="5.73955" stroke-width="0.5" stroke="grey" fill="grey"/>
   </g>
   <g id="cell1">
  <circle cx="1699.2" cy="1196.25" r="10.3166" stroke-width="0.5" stroke="black" fill="grey"/>
  <circle cx="1699.2" cy="1196.25" r="6.23561" stroke-width="0.5" stroke="grey" fill="grey"/>
   </g>
   <g id="cell2">
  <circle cx="1099.41" cy="1704.16" r="8.51252" stroke-width="0.5" stroke="black" fill="grey"/>
  <circle cx="1099.41" cy="1704.16" r="5.12552" stroke-width="0.5" stroke="grey" fill="grey"/>
   </g>
   <g id="cell3">
  <circle cx="1247.91" cy="1300.62" r="10.1098" stroke-width="0.5" stroke="black" fill="grey"/>
  <circle cx="1247.91" cy="1300.62" r="6.12585" stroke-width="0.5" stroke="grey" fill="grey"/>
   </g>
   <g id="cell4">
  <circle cx="888.838" cy="576.725" r="1.47065" stroke-width="0.5" stroke="black" fill="grey"/>
  <circle cx="888.838" cy="576.725" r="1.45328" stroke-width="0.5" stroke="black" fill="black"/>
   </g>
   <g id="cell5">
  <circle cx="138.428" cy="1949.42" r="8.41271" stroke-width="0.5" stroke="black" fill="grey"/>
  <circle cx="138.428" cy="1949.42" r="5.05167" stroke-width="0.5" stroke="grey" fill="grey"/>
   </g>
   <g id="cell6">
  <circle cx="757.925" cy="955.566" r="9.62199" stroke-width="0.5" stroke="black" fill="grey"/>
  <circle cx="757.925" cy="955.566" r="5.8471" stroke-width="0.5" stroke="grey" fill="grey"/>
   </g>
   <g id="cell7">
  <circle cx="1624.31" cy="1069.57" r="1.45214" stroke-width="0.5" stroke="black" fill="grey"/>
  <circle cx="1624.31" cy="1069.57" r="1.43612" stroke-width="0.5" stroke="black" fill="black"/>
   </g>
   <g id="cell8">
  <circle cx="1144.17" cy="781.067" r="10.2999" stroke-width="0.5" stroke="black" fill="grey"/>
  <circle cx="1144.17" cy="781.067" r="6.22699" stroke-width="0.5" stroke="grey" fill="grey"/>
   </g>
   <g id="cell9">
  <circle cx="1662.9" cy="159.749" r="7.00193" stroke-width="0.5" stroke="black" fill="grey"/>
  <circle cx="1662.9" cy="159.749" r="4.27611" stroke-width="0.5" stroke="black" fill="black"/>
   </g>
   <g id="cell10">
  <circle cx="131.058" cy="1309.42" r="4.64437" stroke-width="0.5" stroke="black" fill="grey"/>
  <circle cx="131.058" cy="1309.42" r="3.17578" stroke-width="0.5" stroke="black" fill="black"/>
   </g>
   <g id="cell11">
  <circle cx="766.112" cy="1657.33" r="8.41271" stroke-width="0.5" stroke="black" fill="grey"/>
  <circle cx="766.112" cy="1657.33" r="5.05167" stroke-width="0.5" stroke="grey" fill="grey"/>
   </g>
   <g id="cell12">
  <circle cx="1539.3" cy="231.655" r="10.2221" stroke-width="0.5" stroke="black" fill="grey"/>
  <circle cx="1539.3" cy="231.655" r="6.18628" stroke-width="0.5" stroke="grey" fill="grey"/>
   </g>
   <g id="cell13">
  <circle cx="1738.91" cy="1953.97" r="1.29827" stroke-width="0.5" stroke="black" fill="grey"/>
  <circle cx="1738.91" cy="1953.97" r="1.29055" stroke-width="0.5" stroke="black" fill="black"/>
   </g>
   <g id="cell14">
  <circle cx="1558.79" cy="1623.16" r="8.41271" stroke-width="0.5" stroke="black" fill="grey"/>
  <circle cx="1558.79" cy="1623.16" r="5.05167" stroke-width="0.5" stroke="grey" fill="grey"/>
   </g>
   <g id="cell15">
  <circle cx="1043.38" cy="1562.39" r="1.20653" stroke-width="0.5" stroke="black" fill="grey"/>
  <circle cx="1043.38" cy="1562.39" r="1.20179" stroke-width="0.5" stroke="black" fill="black"/>
   </g>
   <g id="cell16">
  <circle cx="218.08" cy="1429.96" r="1.33065" stroke-width="0.5" stroke="black" fill="grey"/>
  <circle cx="218.08" cy="1429.96" r="1.32157" stroke-width="0.5" stroke="black" fill="black"/>
   </g>
   <g id="cell17">
  <circle cx="1167.46" cy="288.104" r="1.33065" stroke-width="0.5" stroke="black" fill="grey"/>
  <circle cx="1167.46" cy="288.104" r="1.32157" stroke-width="0.5" stroke="black" fill="black"/>
   </g>
   <g id="cell18">
  <circle cx="1895.2" cy="1505.44" r="4.8109" stroke-width="0.5" stroke="black" fill="grey"/>
  <circle cx="1895.2" cy="1505.44" r="3.52867" stroke-width="0.5" stroke="black" fill="black"/>
   </g>
   <g id="cell19">
  <circle cx="204" cy="822.772" r="8.41271" stroke-width="0.5" stroke="black" fill="grey"/>
  <circle cx="204" cy="822.772" r="5.05167" stroke-width="0.5" stroke="grey" fill="grey"/>
   </g>
   <g id="cell20">
  <circle cx="507.995" cy="364.741" r="8.41271" stroke-width="0.5" stroke="black" fill="grey"/>
  <circle cx="507.995" cy="364.741" r="5.05167" stroke-width="0.5" stroke="grey" fill="grey"/>
   </g>
   <g id="cell21">
  <circle cx="1485.56" cy="920.913" r="6.8293" stroke-width="0.5" stroke="black" fill="grey"/>
  <circle cx="1485.56" cy="920.913" r="4.37813" stroke-width="0.5" stroke="black" fill="black"/>
   </g>
   <g id="cell22">
  <circle cx="1143.59" cy="285.169" r="9.64936" stroke-width="0.5" stroke="black" fill="grey"/>
  <circle cx="1143.59" cy="285.169" r="5.86329" stroke-width="0.5" stroke="grey" fill="grey"/>
   </g>
   <g id="cell23">
  <circle cx="671.545" cy="1250.24" r="1.50862" stroke-width="0.5" stroke="black" fill="grey"/>
  <circle cx="671.545" cy="1250.24" r="1.48821" stroke-width="0.5" stroke="black" fill="black"/>
   </g>
   <g id="cell24">
  <circle cx="1231.71" cy="438.154" r="9.23685" stroke-width="0.5" stroke="black" fill="grey"/>
  <circle cx="1231.71" cy="438.154" r="5.61315" stroke-width="0.5" stroke="grey" fill="grey"/>
   </g>
   <g id="cell25">
  <circle cx="750.684" cy="1864.73" r="10.34" stroke-width="0.5" stroke="black" fill="grey"/>
  <circle cx="750.684" cy="1864.73" r="6.24753" stroke-width="0.5" stroke="grey" fill="grey"/>
   </g>
   <g id="cell26">
  <circle cx="1365.51" cy="903.594" r="1.33065" stroke-width="0.5" stroke="black" fill="grey"/>
  <circle cx="1365.51" cy="903.594" r="1.32157" stroke-width="0.5" stroke="black" fill="black"/>
   </g>
   <g id="cell27">
  <circle cx="1238.77" cy="850.47" r="2.89768" stroke-width="0.5" stroke="black" fill="grey"/>
  <circle cx="1238.77" cy="850.47" r="2.6226" stroke-width="0.5" stroke="black" fill="black"/>
   </g>
   <g id="cell28">
  <circle cx="1376.73" cy="196.361" r="1.52812" stroke-width="0.5" stroke="black" fill="grey"/>
  <circle cx="1376.73" cy="196.361" r="1.50599" stroke-width="0.5" stroke="black" fill="black"/>
   </g>
   <g id="cell29">
  <circle cx="1909.86" cy="1319.89" r="8.72828" stroke-width="0.5" stroke="black" fill="grey"/>
  <circle cx="1909.86" cy="1319.89" r="5.28134" stroke-width="0.5" stroke="grey" fill="grey"/>
   </g>
   <g id="cell30">
  <circle cx="1378.43" cy="354.929" r="8.41271" stroke-width="0.5" stroke="black" fill="grey"/>
  <circle cx="1378.43" cy="354.929" r="5.05167" stroke-width="0.5" stroke="grey" fill="grey"/>
   </g>
   <g id="cell31">
  <circle cx="731.128" cy="236.736" r="10.211" stroke-width="0.5" stroke="black" fill="grey"/>
  <circle cx="731.128" cy="236.736" r="6.18041" stroke-width="0.5" stroke="grey" fill="grey"/>
   </g>
   <g id="cell32">
  <circle cx="634.619" cy="1219.34" r="1.95777" stroke-width="0.5" stroke="black" fill="grey"/>
  <circle cx="634.619" cy="1219.34" r="1.86492" stroke-width="0.5" stroke="black" fill="black"/>
   </g>
   <g id="cell33">
  <circle cx="643.263" cy="1147.51" r="1.72142" stroke-width="0.5" stroke="black" fill="grey"/>
  <circle cx="643.263" cy="1147.51" r="1.67587" stroke-width="0.5" stroke="black" fill="black"/>
   </g>
   <g id="cell34">
  <circle cx="892.533" cy="1280.93" r="3.65057" stroke-width="0.5" stroke="black" fill="grey"/>
  <circle cx="892.533" cy="1280.93" r="2.86605" stroke-width="0.5" stroke="black" fill="black"/>
   </g>
   <g id="cell35">
  <circle cx="1917.06" cy="219.87" r="1.48947" stroke-width="0.5" stroke="black" fill="grey"/>
  <circle cx="1917.06" cy="219.87" r="1.47064" stroke-width="0.5" stroke="black" fill="black"/>
   </g>
   <g id="cell36">
  <circle cx="396.868" cy="1261.9" r="1.76957" stroke-width="0.5" stroke="black" fill="grey"/>
  <circle cx="396.868" cy="1261.9" r="1.71615" stroke-width="0.5" stroke="black" fill="black"/>
   </g>
   <g id="cell37">
  <circle cx="1979.36" cy="1313.64" r="10.1996" stroke-width="0.5" stroke="black" fill="grey"/>
  <circle cx="1979.36" cy="1313.64" r="6.17434" stroke-width="0.5" stroke="black" fill="black"/>
   </g>
   <g id="cell38">
  <circle cx="486.032" cy="822.519" r="9.96412" stroke-width="0.5" stroke="black" fill="grey"/>
  <circle cx="486.032" cy="822.519" r="6.04499" stroke-width="0.5" stroke="grey" fill="grey"/>
   </g>
   <g id="cell39">
  <circle cx="942.266" cy="491.05" r="8.41271" stroke-width="0.5" stroke="black" fill="grey"/>
  <circle cx="942.266" cy="491.05" r="5.05167" stroke-width="0.5" stroke="grey" fill="grey"/>
   </g>
   <g id="cell40">
  <circle cx="317.355" cy="690.728" r="9.99984" stroke-width="0.5" stroke="black" fill="grey"/>
  <circle cx="317.355" cy="690.728" r="6.06503" stroke-width="0.5" stroke="grey" fill="grey"/>
   </g>
   <g id="cell41">
  <circle cx="1340.86" cy="1279.42" r="10.2728" stroke-width="0.5" stroke="black" fill="grey"/>
  <circle cx="1340.86" cy="1279.42" r="6.21295" stroke-width="0.5" stroke="grey" fill="grey"/>
   </g>
   <g id="cell42">
  <circle cx="285.449" cy="1559.1" r="1.24968" stroke-width="0.5" stroke="black" fill="grey"/>
  <circle cx="285.449" cy="1559.1" r="1.24407" stroke-width="0.5" stroke="black" fill="black"/>
   </g>
   <g id="cell43">
  <circle cx="1883.3" cy="733.201" r="2.1864" stroke-width="0.5" stroke="black" fill="grey"/>
  <circle cx="1883.3" cy="733.201" r="2.0266" stroke-width="0.5" stroke="black" fill="black"/>
   </g>
   <g id="cell44">
  <circle cx="1612.72" cy="33.0678" r="2.1864" stroke-width="0.5" stroke="black" fill="grey"/>
  <circle cx="1612.72" cy="33.0678" r="2.0266" stroke-width="0.5" stroke="black" fill="black"/>
   </g>
   <g id="cell45">
  <circle cx="1262.55" cy="1672.15" r="3.17811" stroke-width="0.5" stroke="black" fill="grey"/>
  <circle cx="1262.55" cy="1672.15" r="2.68968" stroke-width="0.5" stroke="black" fill="black"/>
   </g>
   <g id="cell46">
  <circle cx="175.712" cy="1917.55" r="8.41271" stroke-width="0.5" stroke="black" fill="grey"/>
  <circle cx="175.712" cy="1917.55" r="5.05167" stroke-width="0.5" stroke="grey" fill="grey"/>
   </g>
   <g id="cell47">
  <circle cx="1766.56" cy="901.855" r="10.2433" stroke-width="0.5" stroke="black" fill="grey"/>
  <circle cx="1766.56" cy="901.855" r="6.19748" stroke-width="0.5" stroke="grey" fill="grey"/>
   </g>
   <g id="cell48">
  <circle cx="1956.03" cy="100.739" r="1.29827" stroke-width="0.5" stroke="black" fill="grey"/>
  <circle cx="1956.03" cy="100.739" r="1.29055" stroke-width="0.5" stroke="black" fill="black"/>
   </g>
   <g id="cell49">
  <circle cx="916.039" cy="1493.1" r="2.5701" stroke-width="0.5" stroke="black" fill="grey"/>
  <circle cx="916.039" cy="1493.1" r="2.25579" stroke-width="0.5" stroke="black" fill="black"/>
   </g>
   <g id="cell50">
  <circle cx="68.5332" cy="878.9" r="10.34" stroke-width="0.5" stroke="black" fill="red"/>
  <circle cx="68.5332" cy="878.9" r="6.24753" stroke-width="0.5" stroke="red" fill="red"/>
   </g>
   <g id="cell51">
  <circle cx="1950.98" cy="240.922" r="10.2911" stroke-width="0.5" stroke="black" fill="red"/>
  <circle cx="1950.98" cy="240.922" r="6.22246" stroke-width="0.5" stroke="red" fill="red"/>
   </g>
   <g id="cell52">
  <circle cx="574.346" cy="971.671" r="10.211" stroke-width="0.5" stroke="black" fill="red"/>
  <circle cx="574.346" cy="971.671" r="6.18041" stroke-width="0.5" stroke="red" fill="red"/>
   </g>
   <g id="cell53">
  <circle cx="1356.84" cy="630.201" r="9.4743" stroke-width="0.5" stroke="black" fill="red"/>
  <circle cx="1356.84" cy="630.201" r="5.75875" stroke-width="0.5" stroke="red" fill="red"/>
   </g>
   <g id="cell54">
  <circle cx="811.232" cy="1868.65" r="10.211" stroke-width="0.5" stroke="black" fill="red"/>
  <circle cx="811.232" cy="1868.65" r="6.18041" stroke-width="0.5" stroke="red" fill="red"/>
   </g>
   <g id="cell55">
  <circle cx="444.459" cy="1396.81" r="10.34" stroke-width="0.5" stroke="black" fill="red"/>
  <circle cx="444.459" cy="1396.81" r="6.24753" stroke-width="0.5" stroke="red" fill="red"/>
   </g>
   <g id="cell56">
  <circle cx="1143.25" cy="1735.15" r="9.67603" stroke-width="0.5" stroke="black" fill="red"/>
  <circle cx="1143.25" cy="1735.15" r="5.87901" stroke-width="0.5" stroke="red" fill="red"/>
   </g>
   <g id="cell57">
  <circle cx="1051.24" cy="1072.48" r="10.3247" stroke-width="0.5" stroke="black" fill="red"/>
  <circle cx="1051.24" cy="1072.48" r="6.23971" stroke-width="0.5" stroke="red" fill="red"/>
   </g>
   <g id="cell58">
  <circle cx="187.881" cy="1842.32" r="1.19198" stroke-width="0.5" stroke="black" fill="red"/>
  <circle cx="187.881" cy="1842.32" r="1.1876" stroke-width="0.5" stroke="black" fill="black"/>
   </g>
   <g id="cell59">
  <circle cx="155.172" cy="1896.04" r="9.7992" stroke-width="0.5" stroke="black" fill="red"/>
  <circle cx="155.172" cy="1896.04" r="5.95086" stroke-width="0.5" stroke="red" fill="red"/>
   </g>
   <g id="cell60">
  <circle cx="679.899" cy="21.599" r="9.64936" stroke-width="0.5" stroke="black" fill="red"/>
  <circle cx="679.899" cy="21.599" r="5.86329" stroke-width="0.5" stroke="red" fill="red"/>
   </g>
   <g id="cell61">
  <circle cx="1672.97" cy="286.018" r="9.44256" stroke-width="0.5" stroke="black" fill="red"/>
  <circle cx="1672.97" cy="286.018" r="5.73955" stroke-width="0.5" stroke="red" fill="red"/>
   </g>
   <g id="cell62">
  <circle cx="1417.67" cy="1696.91" r="9.41008" stroke-width="0.5" stroke="black" fill="red"/>
  <circle cx="1417.67" cy="1696.91" r="5.71981" stroke-width="0.5" stroke="red" fill="red"/>
   </g>
   <g id="cell63">
  <circle cx="549.762" cy="336.785" r="10.0654" stroke-width="0.5" stroke="black" fill="red"/>
  <circle cx="549.762" cy="336.785" r="6.10145" stroke-width="0.5" stroke="red" fill="red"/>
   </g>
   <g id="cell64">
  <circle cx="1157.15" cy="1149.89" r="9.77588" stroke-width="0.5" stroke="black" fill="red"/>
  <circle cx="1157.15" cy="1149.89" r="5.93735" stroke-width="0.5" stroke="red" fill="red"/>
   </g>
   <g id="cell65">
  <circle cx="356.738" cy="1666.71" r="10.1238" stroke-width="0.5" stroke="black" fill="red"/>
  <circle cx="356.738" cy="1666.71" r="6.13347" stroke-width="0.5" stroke="red" fill="red"/>
   </g>
   <g id="cell66">
  <circle cx="17.3085" cy="304.406" r="9.53557" stroke-width="0.5" stroke="black" fill="red"/>
  <circle cx="17.3085" cy="304.406" r="5.79561" stroke-width="0.5" stroke="red" fill="red"/>
   </g>
   <g id="cell67">
  <circle cx="1135.2" cy="535.182" r="8.41271" stroke-width="0.5" stroke="black" fill="red"/>
  <circle cx="1135.2" cy="535.182" r="5.05167" stroke-width="0.5" stroke="red" fill="red"/>
   </g>
   <g id="cell68">
  <circle cx="1441.89" cy="594.162" r="10.1879" stroke-width="0.5" stroke="black" fill="red"/>
  <circle cx="1441.89" cy="594.162" r="6.16807" stroke-width="0.5" stroke="red" fill="red"/>
   </g>
   <g id="cell69">
  <circle cx="853.811" cy="508.213" r="9.7992" stroke-width="0.5" stroke="black" fill="red"/>
  <circle cx="853.811" cy="508.213" r="5.95086" stroke-width="0.5" stroke="red" fill="red"/>
   </g>
   <g id="cell70">
  <circle cx="1142.9" cy="755.089" r="9.59391" stroke-width="0.5" stroke="black" fill="red"/>
  <circle cx="1142.9" cy="755.089" r="5.83043" stroke-width="0.5" stroke="red" fill="red"/>
   </g>
   <g id="cell71">
  <circle cx="1766.71" cy="1103.38" r="9.7992" stroke-width="0.5" stroke="black" fill="red"/>
  <circle cx="1766.71" cy="1103.38" r="5.95086" stroke-width="0.5" stroke="red" fill="red"/>
   </g>
   <g id="cell72">
  <circle cx="420.708" cy="1767.75" r="8.41271" stroke-width="0.5" stroke="black" fill="red"/>
  <circle cx="420.708" cy="1767.75" r="5.05167" stroke-width="0.5" stroke="red" fill="red"/>
   </g>
   <g id="cell73">
  <circle cx="1349.88" cy="891.104" r="10.0955" stroke-width="0.5" stroke="black" fill="red"/>
  <circle cx="1349.88" cy="891.104" r="6.11797" stroke-width="0.5" stroke="red" fill="red"/>
   </g>
   <g id="cell74">
  <circle cx="1744.93" cy="1968.66" r="10.1374" stroke-width="0.5" stroke="black" fill="red"/>
  <circle cx="1744.93" cy="1968.66" r="6.14084" stroke-width="0.5" stroke="red" fill="red"/>
   </g>
   <g id="cell75">
  <circle cx="213.104" cy="585.612" r="10.3474" stroke-width="0.5" stroke="black" fill="red"/>
  <circle cx="213.104" cy="585.612" r="6.25125" stroke-width="0.5" stroke="red" fill="red"/>
   </g>
   <g id="cell76">
  <circle cx="1619.59" cy="844.719" r="10.1879" stroke-width="0.5" stroke="black" fill="red"/>
  <circle cx="1619.59" cy="844.719" r="6.16807" stroke-width="0.5" stroke="red" fill="red"/>
   </g>
   <g id="cell77">
  <circle cx="1328.34" cy="1761.06" r="8.41271" stroke-width="0.5" stroke="black" fill="red"/>
  <circle cx="1328.34" cy="1761.06" r="5.05167" stroke-width="0.5" stroke="red" fill="red"/>
   </g>
   <g id="cell78">
  <circle cx="1156.27" cy="626.13" r="9.90658" stroke-width="0.5" stroke="black" fill="red"/>
  <circle cx="1156.27" cy="626.13" r="6.01243" stroke-width="0.5" stroke="red" fill="red"/>
   </g>
   <g id="cell79">
  <circle cx="1923" cy="1398.77" r="9.41008" stroke-width="0.5" stroke="black" fill="red"/>
  <circle cx="1923" cy="1398.77" r="5.71981" stroke-width="0.5" stroke="red" fill="red"/>
   </g>
   <g id="cell80">
  <circle cx="1474.21" cy="1317.94" r="9.5651" stroke-width="0.5" stroke="black" fill="red"/>
  <circle cx="1474.21" cy="1317.94" r="5.81327" stroke-width="0.5" stroke="red" fill="red"/>
   </g>
   <g id="cell81">
  <circle cx="1067" cy="1938" r="9.92631" stroke-width="0.5" stroke="black" fill="red"/>
  <circle cx="1067" cy="1938" r="6.02363" stroke-width="0.5" stroke="red" fill="red"/>
   </g>
   <g id="cell82">
  <circle cx="1326.69" cy="779.827" r="9.20015" stroke-width="0.5" stroke="black" fill="red"/>
  <circle cx="1326.69" cy="779.827" r="5.59022" stroke-width="0.5" stroke="red" fill="red"/>
   </g>
   <g id="cell83">
  <circle cx="1249.43" cy="1218.61" r="2.62118" stroke-width="0.5" stroke="black" fill="red"/>
  <circle cx="1249.43" cy="1218.61" r="2.28296" stroke-width="0.5" stroke="black" fill="black"/>
   </g>
   <g id="cell84">
  <circle cx="26.1406" cy="963.331" r="9.5651" stroke-width="0.5" stroke="black" fill="red"/>
  <circle cx="26.1406" cy="963.331" r="5.81327" stroke-width="0.5" stroke="red" fill="red"/>
   </g>
   <g id="cell85">
  <circle cx="1439.39" cy="1305.27" r="9.82189" stroke-width="0.5" stroke="black" fill="red"/>
  <circle cx="1439.39" cy="1305.27" r="5.96395" stroke-width="0.5" stroke="red" fill="red"/>
   </g>
   <g id="cell86">
  <circle cx="579.696" cy="779.718" r="8.41271" stroke-width="0.5" stroke="black" fill="red"/>
  <circle cx="579.696" cy="779.718" r="5.05167" stroke-width="0.5" stroke="red" fill="red"/>
   </g>
   <g id="cell87">
  <circle cx="1467.19" cy="842.324" r="10.3084" stroke-width="0.5" stroke="black" fill="red"/>
  <circle cx="1467.19" cy="842.324" r="6.23137" stroke-width="0.5" stroke="red" fill="red"/>
   </g>
   <g id="cell88">
  <circle cx="279.382" cy="191.727" r="9.88629" stroke-width="0.5" stroke="black" fill="red"/>
  <circle cx="279.382" cy="191.727" r="6.00088" stroke-width="0.5" stroke="red" fill="red"/>
   </g>
   <g id="cell89">
  <circle cx="215.518" cy="1177.12" r="9.7992" stroke-width="0.5" stroke="black" fill="red"/>
  <circle cx="215.518" cy="1177.12" r="5.95086" stroke-width="0.5" stroke="red" fill="red"/>
   </g>
   <g id="cell90">
  <circle cx="1189.56" cy="1088" r="8.4325" stroke-width="0.5" stroke="black" fill="red"/>
  <circle cx="1189.56" cy="1088" r="5.06552" stroke-width="0.5" stroke="red" fill="red"/>
   </g>
   <g id="cell91">
  <circle cx="95.1229" cy="1300.88" r="10.2728" stroke-width="0.5" stroke="black" fill="red"/>
  <circle cx="95.1229" cy="1300.88" r="6.21295" stroke-width="0.5" stroke="red" fill="red"/>
   </g>
   <g id="cell92">
  <circle cx="1314.59" cy="629.603" r="10.3084" stroke-width="0.5" stroke="black" fill="red"/>
  <circle cx="1314.59" cy="629.603" r="6.23137" stroke-width="0.5" stroke="red" fill="red"/>
   </g>
   <g id="cell93">
  <circle cx="445" cy="1827.55" r="10.3545" stroke-width="0.5" stroke="black" fill="red"/>
  <circle cx="445" cy="1827.55" r="6.25485" stroke-width="0.5" stroke="red" fill="red"/>
   </g>
   <g id="cell94">
  <circle cx="751.271" cy="205.149" r="10.3545" stroke-width="0.5" stroke="black" fill="red"/>
  <circle cx="751.271" cy="205.149" r="6.25485" stroke-width="0.5" stroke="red" fill="red"/>
   </g>
   <g id="cell95">
  <circle cx="1973.15" cy="1798.87" r="9.88629" stroke-width="0.5" stroke="black" fill="red"/>
  <circle cx="1973.15" cy="1798.87" r="6.00088" stroke-width="0.5" stroke="red" fill="red"/>
   </g>
   <g id="cell96">
  <circle cx="1571.46" cy="1092.52" r="10.3474" stroke-width="0.5" stroke="black" fill="red"/>
  <circle cx="1571.46" cy="1092.52" r="6.25125" stroke-width="0.5" stroke="red" fill="red"/>
   </g>
   <g id="cell97">
  <circle cx="863.829" cy="190.496" r="9.4743" stroke-width="0.5" stroke="black" fill="red"/>
  <circle cx="863.829" cy="190.496" r="5.75875" stroke-width="0.5" stroke="red" fill="red"/>
   </g>
   <g id="cell98">
  <circle cx="1837.35" cy="678.424" r="10.3325" stroke-width="0.5" stroke="black" fill="red"/>
  <circle cx="1837.35" cy="678.424" r="6.24369" stroke-width="0.5" stroke="red" fill="red"/>
   </g>
   <g id="cell99">
  <circle cx="950.703" cy="1963.16" r="9.64936" stroke-width="0.5" stroke="black" fill="red"/>
  <circle cx="950.703" cy="1963.16" r="5.86329" stroke-width="0.5" stroke="red" fill="red"/>
   </g>
  </g>
 </g>
  <rect x="1750" y="2070" width="200" height="20" stroke-width="4" stroke="rgb(255,255,255)" fill="rgb(0,0,0)"/>
  <text x="1762.5" y="2057.5"
   font-family="Arial" font-size="50" fill="black" >
   200 &#956;m
  </text>
  <text x="50" y="2090"
   font-family="Arial" font-size="37.5" fill="black" >
   0 days, 0 hours, 0 minutes, and 12.2464 seconds
  </text>
  <rect x="0" y="140" width="2000" height="2000" stroke-width="4" stroke="rgb(0,0,0)" fill="none"/>
</svg>
