<?xml version="1.0" encoding="UTF-8" standalone="no"?>
<!-- Created with PhysiCell (http://PhysiCell.MathCancer.org/) -->
<svg 
 xmlns:dc="http://purl.org/dc/elements/1.1/" 
 xmlns:cc="http://creativecommons.org/ns#" 
 xmlns:rdf="http://www.w3.org/1999/02/22-rdf-syntax-ns#" 
 xmlns:svg="http://www.w3.org/2000/svg" 
 xmlns="http://www.w3.org/2000/svg" 
 version="1.1" 
 width="2000" 
 height="2140" 
 id="svg2">
  <rect x="0" y="0" width="2000" height="2140" stroke-width="4" stroke="white" fill="white"/>
  <text x="25" y="60"
   font-family="Arial" font-size="50" fill="black" >
   Current time: 0 days, 1 hours, and 40.00 minutes, z = 0.00 &#956;m
  </text>
  <text x="25" y="115"
   font-family="Arial" font-size="47.5" fill="black" >
   100 agents
  </text>
 <g id="tissue" 
    transform="translate(0,2140) scale(1,-1)">
  <g id="ECM">
  </g>
  <g id="cells">
   <g id="cell0">
  <circle cx="1115.59" cy="1193.74" r="8.41271" stroke-width="0.5" stroke="black" fill="grey"/>
  <circle cx="1115.59" cy="1193.74" r="5.05167" stroke-width="0.5" stroke="grey" fill="grey"/>
   </g>
   <g id="cell1">
  <circle cx="1710.67" cy="1208.42" r="8.41271" stroke-width="0.5" stroke="black" fill="grey"/>
  <circle cx="1710.67" cy="1208.42" r="5.05167" stroke-width="0.5" stroke="grey" fill="grey"/>
   </g>
   <g id="cell2">
  <circle cx="1087.3" cy="1697.61" r="8.41271" stroke-width="0.5" stroke="black" fill="grey"/>
  <circle cx="1087.3" cy="1697.61" r="5.05167" stroke-width="0.5" stroke="grey" fill="grey"/>
   </g>
   <g id="cell3">
  <circle cx="1243.61" cy="1299.62" r="8.41271" stroke-width="0.5" stroke="black" fill="grey"/>
  <circle cx="1243.61" cy="1299.62" r="5.05167" stroke-width="0.5" stroke="grey" fill="grey"/>
   </g>
   <g id="cell4">
  <circle cx="850.389" cy="589.916" r="8.57856" stroke-width="0.5" stroke="black" fill="grey"/>
  <circle cx="850.389" cy="589.916" r="5.17461" stroke-width="0.5" stroke="grey" fill="grey"/>
   </g>
   <g id="cell5">
  <circle cx="121.589" cy="1932.2" r="8.41271" stroke-width="0.5" stroke="black" fill="grey"/>
  <circle cx="121.589" cy="1932.2" r="5.05167" stroke-width="0.5" stroke="grey" fill="grey"/>
   </g>
   <g id="cell6">
  <circle cx="765.54" cy="962.472" r="8.41271" stroke-width="0.5" stroke="black" fill="grey"/>
  <circle cx="765.54" cy="962.472" r="5.05167" stroke-width="0.5" stroke="grey" fill="grey"/>
   </g>
   <g id="cell7">
  <circle cx="1612.4" cy="1051.12" r="8.41271" stroke-width="0.5" stroke="black" fill="grey"/>
  <circle cx="1612.4" cy="1051.12" r="5.05167" stroke-width="0.5" stroke="grey" fill="grey"/>
   </g>
   <g id="cell8">
  <circle cx="1136.83" cy="781.475" r="8.41271" stroke-width="0.5" stroke="black" fill="grey"/>
  <circle cx="1136.83" cy="781.475" r="5.05167" stroke-width="0.5" stroke="grey" fill="grey"/>
   </g>
   <g id="cell9">
  <circle cx="1668.54" cy="156.726" r="8.41271" stroke-width="0.5" stroke="black" fill="grey"/>
  <circle cx="1668.54" cy="156.726" r="5.05167" stroke-width="0.5" stroke="grey" fill="grey"/>
   </g>
   <g id="cell10">
  <circle cx="179.6" cy="1301.89" r="8.41271" stroke-width="0.5" stroke="black" fill="grey"/>
  <circle cx="179.6" cy="1301.89" r="5.05167" stroke-width="0.5" stroke="grey" fill="grey"/>
   </g>
   <g id="cell11">
  <circle cx="741.791" cy="1677.17" r="8.9283" stroke-width="0.5" stroke="black" fill="grey"/>
  <circle cx="741.791" cy="1677.17" r="5.4161" stroke-width="0.5" stroke="grey" fill="grey"/>
   </g>
   <g id="cell12">
  <circle cx="1564.36" cy="264.291" r="8.41271" stroke-width="0.5" stroke="black" fill="grey"/>
  <circle cx="1564.36" cy="264.291" r="5.05167" stroke-width="0.5" stroke="grey" fill="grey"/>
   </g>
   <g id="cell13">
  <circle cx="1723" cy="1953.43" r="8.41271" stroke-width="0.5" stroke="black" fill="grey"/>
  <circle cx="1723" cy="1953.43" r="5.05167" stroke-width="0.5" stroke="grey" fill="grey"/>
   </g>
   <g id="cell14">
  <circle cx="1605.55" cy="1618.53" r="8.41271" stroke-width="0.5" stroke="black" fill="grey"/>
  <circle cx="1605.55" cy="1618.53" r="5.05167" stroke-width="0.5" stroke="grey" fill="grey"/>
   </g>
   <g id="cell15">
  <circle cx="1031.47" cy="1547.28" r="8.41271" stroke-width="0.5" stroke="black" fill="grey"/>
  <circle cx="1031.47" cy="1547.28" r="5.05167" stroke-width="0.5" stroke="grey" fill="grey"/>
   </g>
   <g id="cell16">
  <circle cx="229.039" cy="1443.78" r="8.41271" stroke-width="0.5" stroke="black" fill="grey"/>
  <circle cx="229.039" cy="1443.78" r="5.05167" stroke-width="0.5" stroke="grey" fill="grey"/>
   </g>
   <g id="cell17">
  <circle cx="1145.5" cy="286.957" r="8.41271" stroke-width="0.5" stroke="black" fill="grey"/>
  <circle cx="1145.5" cy="286.957" r="5.05167" stroke-width="0.5" stroke="grey" fill="grey"/>
   </g>
   <g id="cell18">
  <circle cx="1900.7" cy="1516.15" r="8.41271" stroke-width="0.5" stroke="black" fill="grey"/>
  <circle cx="1900.7" cy="1516.15" r="5.05167" stroke-width="0.5" stroke="grey" fill="grey"/>
   </g>
   <g id="cell19">
  <circle cx="228.145" cy="843.658" r="8.41271" stroke-width="0.5" stroke="black" fill="grey"/>
  <circle cx="228.145" cy="843.658" r="5.05167" stroke-width="0.5" stroke="grey" fill="grey"/>
   </g>
   <g id="cell20">
  <circle cx="533.37" cy="390.349" r="8.41271" stroke-width="0.5" stroke="black" fill="grey"/>
  <circle cx="533.37" cy="390.349" r="5.05167" stroke-width="0.5" stroke="grey" fill="grey"/>
   </g>
   <g id="cell21">
  <circle cx="1469.93" cy="912.019" r="8.54454" stroke-width="0.5" stroke="black" fill="grey"/>
  <circle cx="1469.93" cy="912.019" r="5.14947" stroke-width="0.5" stroke="grey" fill="grey"/>
   </g>
   <g id="cell22">
  <circle cx="1128.96" cy="271.134" r="8.88811" stroke-width="0.5" stroke="black" fill="grey"/>
  <circle cx="1128.96" cy="271.134" r="5.38958" stroke-width="0.5" stroke="grey" fill="grey"/>
   </g>
   <g id="cell23">
  <circle cx="629.153" cy="1237.29" r="8.65127" stroke-width="0.5" stroke="black" fill="grey"/>
  <circle cx="629.153" cy="1237.29" r="5.2272" stroke-width="0.5" stroke="grey" fill="grey"/>
   </g>
   <g id="cell24">
  <circle cx="1236.56" cy="443.921" r="8.41271" stroke-width="0.5" stroke="black" fill="grey"/>
  <circle cx="1236.56" cy="443.921" r="5.05167" stroke-width="0.5" stroke="grey" fill="grey"/>
   </g>
   <g id="cell25">
  <circle cx="773.302" cy="1893.6" r="8.41271" stroke-width="0.5" stroke="black" fill="grey"/>
  <circle cx="773.302" cy="1893.6" r="5.05167" stroke-width="0.5" stroke="grey" fill="grey"/>
   </g>
   <g id="cell26">
  <circle cx="1370.32" cy="912.016" r="8.41271" stroke-width="0.5" stroke="black" fill="grey"/>
  <circle cx="1370.32" cy="912.016" r="5.05167" stroke-width="0.5" stroke="grey" fill="grey"/>
   </g>
   <g id="cell27">
  <circle cx="1226.98" cy="863.321" r="8.41271" stroke-width="0.5" stroke="black" fill="grey"/>
  <circle cx="1226.98" cy="863.321" r="5.05167" stroke-width="0.5" stroke="grey" fill="grey"/>
   </g>
   <g id="cell28">
  <circle cx="1374.66" cy="197.219" r="8.41271" stroke-width="0.5" stroke="black" fill="grey"/>
  <circle cx="1374.66" cy="197.219" r="5.05167" stroke-width="0.5" stroke="grey" fill="grey"/>
   </g>
   <g id="cell29">
  <circle cx="1945.46" cy="1321.34" r="8.41271" stroke-width="0.5" stroke="black" fill="grey"/>
  <circle cx="1945.46" cy="1321.34" r="5.05167" stroke-width="0.5" stroke="grey" fill="grey"/>
   </g>
   <g id="cell30">
  <circle cx="1357.19" cy="336.199" r="8.54454" stroke-width="0.5" stroke="black" fill="grey"/>
  <circle cx="1357.19" cy="336.199" r="5.14947" stroke-width="0.5" stroke="grey" fill="grey"/>
   </g>
   <g id="cell31">
  <circle cx="727.318" cy="266.991" r="8.41271" stroke-width="0.5" stroke="black" fill="grey"/>
  <circle cx="727.318" cy="266.991" r="5.05167" stroke-width="0.5" stroke="grey" fill="grey"/>
   </g>
   <g id="cell32">
  <circle cx="641.322" cy="1212.91" r="8.48289" stroke-width="0.5" stroke="black" fill="grey"/>
  <circle cx="641.322" cy="1212.91" r="5.10317" stroke-width="0.5" stroke="grey" fill="grey"/>
   </g>
   <g id="cell33">
  <circle cx="637.096" cy="1148.31" r="8.41271" stroke-width="0.5" stroke="black" fill="grey"/>
  <circle cx="637.096" cy="1148.31" r="5.05167" stroke-width="0.5" stroke="grey" fill="grey"/>
   </g>
   <g id="cell34">
  <circle cx="864.859" cy="1272.48" r="8.41271" stroke-width="0.5" stroke="black" fill="grey"/>
  <circle cx="864.859" cy="1272.48" r="5.05167" stroke-width="0.5" stroke="grey" fill="grey"/>
   </g>
   <g id="cell35">
  <circle cx="1903.84" cy="191.812" r="8.41271" stroke-width="0.5" stroke="black" fill="grey"/>
  <circle cx="1903.84" cy="191.812" r="5.05167" stroke-width="0.5" stroke="grey" fill="grey"/>
   </g>
   <g id="cell36">
  <circle cx="416.036" cy="1265.3" r="8.41271" stroke-width="0.5" stroke="black" fill="grey"/>
  <circle cx="416.036" cy="1265.3" r="5.05167" stroke-width="0.5" stroke="grey" fill="grey"/>
   </g>
   <g id="cell37">
  <circle cx="1990.67" cy="1303.25" r="8.41271" stroke-width="0.5" stroke="black" fill="grey"/>
  <circle cx="1990.67" cy="1303.25" r="5.05167" stroke-width="0.5" stroke="grey" fill="grey"/>
   </g>
   <g id="cell38">
  <circle cx="509.544" cy="820.757" r="8.41271" stroke-width="0.5" stroke="black" fill="grey"/>
  <circle cx="509.544" cy="820.757" r="5.05167" stroke-width="0.5" stroke="grey" fill="grey"/>
   </g>
   <g id="cell39">
  <circle cx="959.936" cy="478.989" r="8.41271" stroke-width="0.5" stroke="black" fill="grey"/>
  <circle cx="959.936" cy="478.989" r="5.05167" stroke-width="0.5" stroke="grey" fill="grey"/>
   </g>
   <g id="cell40">
  <circle cx="297.365" cy="672.881" r="8.41271" stroke-width="0.5" stroke="black" fill="grey"/>
  <circle cx="297.365" cy="672.881" r="5.05167" stroke-width="0.5" stroke="grey" fill="grey"/>
   </g>
   <g id="cell41">
  <circle cx="1356.61" cy="1303.41" r="8.41271" stroke-width="0.5" stroke="black" fill="grey"/>
  <circle cx="1356.61" cy="1303.41" r="5.05167" stroke-width="0.5" stroke="grey" fill="grey"/>
   </g>
   <g id="cell42">
  <circle cx="284.626" cy="1544.97" r="8.41271" stroke-width="0.5" stroke="black" fill="grey"/>
  <circle cx="284.626" cy="1544.97" r="5.05167" stroke-width="0.5" stroke="grey" fill="grey"/>
   </g>
   <g id="cell43">
  <circle cx="1888.99" cy="753.888" r="8.65127" stroke-width="0.5" stroke="black" fill="grey"/>
  <circle cx="1888.99" cy="753.888" r="5.2272" stroke-width="0.5" stroke="grey" fill="grey"/>
   </g>
   <g id="cell44">
  <circle cx="1638.41" cy="27.0163" r="8.54454" stroke-width="0.5" stroke="black" fill="grey"/>
  <circle cx="1638.41" cy="27.0163" r="5.14947" stroke-width="0.5" stroke="grey" fill="grey"/>
   </g>
   <g id="cell45">
  <circle cx="1249.7" cy="1661.45" r="8.41271" stroke-width="0.5" stroke="black" fill="grey"/>
  <circle cx="1249.7" cy="1661.45" r="5.05167" stroke-width="0.5" stroke="grey" fill="grey"/>
   </g>
   <g id="cell46">
  <circle cx="200.833" cy="1948.86" r="8.41271" stroke-width="0.5" stroke="black" fill="grey"/>
  <circle cx="200.833" cy="1948.86" r="5.05167" stroke-width="0.5" stroke="grey" fill="grey"/>
   </g>
   <g id="cell47">
  <circle cx="1763.41" cy="936.288" r="8.41271" stroke-width="0.5" stroke="black" fill="grey"/>
  <circle cx="1763.41" cy="936.288" r="5.05167" stroke-width="0.5" stroke="grey" fill="grey"/>
   </g>
   <g id="cell48">
  <circle cx="1955.54" cy="106.84" r="8.41271" stroke-width="0.5" stroke="black" fill="grey"/>
  <circle cx="1955.54" cy="106.84" r="5.05167" stroke-width="0.5" stroke="grey" fill="grey"/>
   </g>
   <g id="cell49">
  <circle cx="905.754" cy="1476.03" r="8.41271" stroke-width="0.5" stroke="black" fill="grey"/>
  <circle cx="905.754" cy="1476.03" r="5.05167" stroke-width="0.5" stroke="grey" fill="grey"/>
   </g>
   <g id="cell50">
  <circle cx="79.0183" cy="875.532" r="8.41271" stroke-width="0.5" stroke="black" fill="red"/>
  <circle cx="79.0183" cy="875.532" r="5.05167" stroke-width="0.5" stroke="red" fill="red"/>
   </g>
   <g id="cell51">
  <circle cx="1949.96" cy="234.789" r="8.41271" stroke-width="0.5" stroke="black" fill="red"/>
  <circle cx="1949.96" cy="234.789" r="5.05167" stroke-width="0.5" stroke="red" fill="red"/>
   </g>
   <g id="cell52">
  <circle cx="612.269" cy="954.147" r="8.41271" stroke-width="0.5" stroke="black" fill="red"/>
  <circle cx="612.269" cy="954.147" r="5.05167" stroke-width="0.5" stroke="red" fill="red"/>
   </g>
   <g id="cell53">
  <circle cx="1363.7" cy="634.511" r="8.41271" stroke-width="0.5" stroke="black" fill="red"/>
  <circle cx="1363.7" cy="634.511" r="5.05167" stroke-width="0.5" stroke="red" fill="red"/>
   </g>
   <g id="cell54">
  <circle cx="834.921" cy="1850.26" r="8.41271" stroke-width="0.5" stroke="black" fill="red"/>
  <circle cx="834.921" cy="1850.26" r="5.05167" stroke-width="0.5" stroke="red" fill="red"/>
   </g>
   <g id="cell55">
  <circle cx="421.641" cy="1387.64" r="8.41271" stroke-width="0.5" stroke="black" fill="red"/>
  <circle cx="421.641" cy="1387.64" r="5.05167" stroke-width="0.5" stroke="red" fill="red"/>
   </g>
   <g id="cell56">
  <circle cx="1144.59" cy="1739.03" r="8.41271" stroke-width="0.5" stroke="black" fill="red"/>
  <circle cx="1144.59" cy="1739.03" r="5.05167" stroke-width="0.5" stroke="red" fill="red"/>
   </g>
   <g id="cell57">
  <circle cx="1015.49" cy="1049.33" r="8.41271" stroke-width="0.5" stroke="black" fill="red"/>
  <circle cx="1015.49" cy="1049.33" r="5.05167" stroke-width="0.5" stroke="red" fill="red"/>
   </g>
   <g id="cell58">
  <circle cx="192.847" cy="1833.99" r="8.41271" stroke-width="0.5" stroke="black" fill="red"/>
  <circle cx="192.847" cy="1833.99" r="5.05167" stroke-width="0.5" stroke="red" fill="red"/>
   </g>
   <g id="cell59">
  <circle cx="171.137" cy="1847.71" r="8.45606" stroke-width="0.5" stroke="black" fill="red"/>
  <circle cx="171.137" cy="1847.71" r="5.08296" stroke-width="0.5" stroke="red" fill="red"/>
   </g>
   <g id="cell60">
  <circle cx="619.946" cy="8.59606" r="8.48289" stroke-width="0.5" stroke="black" fill="red"/>
  <circle cx="619.946" cy="8.59606" r="5.10317" stroke-width="0.5" stroke="red" fill="red"/>
   </g>
   <g id="cell61">
  <circle cx="1686.31" cy="265.061" r="8.41271" stroke-width="0.5" stroke="black" fill="red"/>
  <circle cx="1686.31" cy="265.061" r="5.05167" stroke-width="0.5" stroke="red" fill="red"/>
   </g>
   <g id="cell62">
  <circle cx="1430.66" cy="1672.17" r="8.80772" stroke-width="0.5" stroke="black" fill="red"/>
  <circle cx="1430.66" cy="1672.17" r="5.33574" stroke-width="0.5" stroke="red" fill="red"/>
   </g>
   <g id="cell63">
  <circle cx="507.691" cy="372.166" r="8.41271" stroke-width="0.5" stroke="black" fill="red"/>
  <circle cx="507.691" cy="372.166" r="5.05167" stroke-width="0.5" stroke="red" fill="red"/>
   </g>
   <g id="cell64">
  <circle cx="1163.62" cy="1105.2" r="8.88811" stroke-width="0.5" stroke="black" fill="red"/>
  <circle cx="1163.62" cy="1105.2" r="5.38958" stroke-width="0.5" stroke="red" fill="red"/>
   </g>
   <g id="cell65">
  <circle cx="350.661" cy="1667.06" r="8.41271" stroke-width="0.5" stroke="black" fill="red"/>
  <circle cx="350.661" cy="1667.06" r="5.05167" stroke-width="0.5" stroke="red" fill="red"/>
   </g>
   <g id="cell66">
  <circle cx="13.809" cy="304.831" r="8.51252" stroke-width="0.5" stroke="black" fill="red"/>
  <circle cx="13.809" cy="304.831" r="5.12552" stroke-width="0.5" stroke="red" fill="red"/>
   </g>
   <g id="cell67">
  <circle cx="1141.87" cy="558.567" r="8.41271" stroke-width="0.5" stroke="black" fill="red"/>
  <circle cx="1141.87" cy="558.567" r="5.05167" stroke-width="0.5" stroke="red" fill="red"/>
   </g>
   <g id="cell68">
  <circle cx="1471.72" cy="576.393" r="8.41271" stroke-width="0.5" stroke="black" fill="red"/>
  <circle cx="1471.72" cy="576.393" r="5.05167" stroke-width="0.5" stroke="red" fill="red"/>
   </g>
   <g id="cell69">
  <circle cx="869.278" cy="474.235" r="8.51252" stroke-width="0.5" stroke="black" fill="red"/>
  <circle cx="869.278" cy="474.235" r="5.12552" stroke-width="0.5" stroke="red" fill="red"/>
   </g>
   <g id="cell70">
  <circle cx="1161.21" cy="783.557" r="8.68937" stroke-width="0.5" stroke="black" fill="red"/>
  <circle cx="1161.21" cy="783.557" r="5.25417" stroke-width="0.5" stroke="red" fill="red"/>
   </g>
   <g id="cell71">
  <circle cx="1781.03" cy="1149.22" r="8.72828" stroke-width="0.5" stroke="black" fill="red"/>
  <circle cx="1781.03" cy="1149.22" r="5.28134" stroke-width="0.5" stroke="red" fill="red"/>
   </g>
   <g id="cell72">
  <circle cx="461.351" cy="1788.28" r="8.41271" stroke-width="0.5" stroke="black" fill="red"/>
  <circle cx="461.351" cy="1788.28" r="5.05167" stroke-width="0.5" stroke="red" fill="red"/>
   </g>
   <g id="cell73">
  <circle cx="1356.89" cy="895.421" r="8.51252" stroke-width="0.5" stroke="black" fill="red"/>
  <circle cx="1356.89" cy="895.421" r="5.12552" stroke-width="0.5" stroke="red" fill="red"/>
   </g>
   <g id="cell74">
  <circle cx="1680.95" cy="1961.93" r="8.41271" stroke-width="0.5" stroke="black" fill="red"/>
  <circle cx="1680.95" cy="1961.93" r="5.05167" stroke-width="0.5" stroke="red" fill="red"/>
   </g>
   <g id="cell75">
  <circle cx="233.915" cy="614.063" r="8.41271" stroke-width="0.5" stroke="black" fill="red"/>
  <circle cx="233.915" cy="614.063" r="5.05167" stroke-width="0.5" stroke="red" fill="red"/>
   </g>
   <g id="cell76">
  <circle cx="1623.14" cy="829.404" r="8.41271" stroke-width="0.5" stroke="black" fill="red"/>
  <circle cx="1623.14" cy="829.404" r="5.05167" stroke-width="0.5" stroke="red" fill="red"/>
   </g>
   <g id="cell77">
  <circle cx="1350.22" cy="1776.46" r="8.41271" stroke-width="0.5" stroke="black" fill="red"/>
  <circle cx="1350.22" cy="1776.46" r="5.05167" stroke-width="0.5" stroke="red" fill="red"/>
   </g>
   <g id="cell78">
  <circle cx="1150.31" cy="632.636" r="8.41271" stroke-width="0.5" stroke="black" fill="red"/>
  <circle cx="1150.31" cy="632.636" r="5.05167" stroke-width="0.5" stroke="red" fill="red"/>
   </g>
   <g id="cell79">
  <circle cx="1932.95" cy="1393.76" r="8.96831" stroke-width="0.5" stroke="black" fill="red"/>
  <circle cx="1932.95" cy="1393.76" r="5.44228" stroke-width="0.5" stroke="red" fill="red"/>
   </g>
   <g id="cell80">
  <circle cx="1455.98" cy="1339" r="8.41271" stroke-width="0.5" stroke="black" fill="red"/>
  <circle cx="1455.98" cy="1339" r="5.05167" stroke-width="0.5" stroke="red" fill="red"/>
   </g>
   <g id="cell81">
  <circle cx="1067.35" cy="1923.07" r="8.41271" stroke-width="0.5" stroke="black" fill="red"/>
  <circle cx="1067.35" cy="1923.07" r="5.05167" stroke-width="0.5" stroke="red" fill="red"/>
   </g>
   <g id="cell82">
  <circle cx="1261.7" cy="803.232" r="8.48289" stroke-width="0.5" stroke="black" fill="red"/>
  <circle cx="1261.7" cy="803.232" r="5.10317" stroke-width="0.5" stroke="red" fill="red"/>
   </g>
   <g id="cell83">
  <circle cx="1246.85" cy="1230.18" r="8.41271" stroke-width="0.5" stroke="black" fill="red"/>
  <circle cx="1246.85" cy="1230.18" r="5.05167" stroke-width="0.5" stroke="red" fill="red"/>
   </g>
   <g id="cell84">
  <circle cx="26.1261" cy="945.408" r="8.41271" stroke-width="0.5" stroke="black" fill="red"/>
  <circle cx="26.1261" cy="945.408" r="5.05167" stroke-width="0.5" stroke="red" fill="red"/>
   </g>
   <g id="cell85">
  <circle cx="1434.07" cy="1325.31" r="8.96831" stroke-width="0.5" stroke="black" fill="red"/>
  <circle cx="1434.07" cy="1325.31" r="5.44228" stroke-width="0.5" stroke="red" fill="red"/>
   </g>
   <g id="cell86">
  <circle cx="574.162" cy="766.49" r="8.41271" stroke-width="0.5" stroke="black" fill="red"/>
  <circle cx="574.162" cy="766.49" r="5.05167" stroke-width="0.5" stroke="red" fill="red"/>
   </g>
   <g id="cell87">
  <circle cx="1502.07" cy="856.811" r="8.80772" stroke-width="0.5" stroke="black" fill="red"/>
  <circle cx="1502.07" cy="856.811" r="5.33574" stroke-width="0.5" stroke="red" fill="red"/>
   </g>
   <g id="cell88">
  <circle cx="272.543" cy="199.205" r="8.41271" stroke-width="0.5" stroke="black" fill="red"/>
  <circle cx="272.543" cy="199.205" r="5.05167" stroke-width="0.5" stroke="red" fill="red"/>
   </g>
   <g id="cell89">
  <circle cx="191.221" cy="1139.63" r="8.88811" stroke-width="0.5" stroke="black" fill="red"/>
  <circle cx="191.221" cy="1139.63" r="5.38958" stroke-width="0.5" stroke="red" fill="red"/>
   </g>
   <g id="cell90">
  <circle cx="1192.67" cy="1098.93" r="8.41271" stroke-width="0.5" stroke="black" fill="red"/>
  <circle cx="1192.67" cy="1098.93" r="5.05167" stroke-width="0.5" stroke="red" fill="red"/>
   </g>
   <g id="cell91">
  <circle cx="81.1908" cy="1287.97" r="8.41271" stroke-width="0.5" stroke="black" fill="red"/>
  <circle cx="81.1908" cy="1287.97" r="5.05167" stroke-width="0.5" stroke="red" fill="red"/>
   </g>
   <g id="cell92">
  <circle cx="1288.15" cy="648.706" r="8.41271" stroke-width="0.5" stroke="black" fill="red"/>
  <circle cx="1288.15" cy="648.706" r="5.05167" stroke-width="0.5" stroke="red" fill="red"/>
   </g>
   <g id="cell93">
  <circle cx="442.177" cy="1806.61" r="8.96831" stroke-width="0.5" stroke="black" fill="red"/>
  <circle cx="442.177" cy="1806.61" r="5.44228" stroke-width="0.5" stroke="red" fill="red"/>
   </g>
   <g id="cell94">
  <circle cx="733.68" cy="191.159" r="8.41271" stroke-width="0.5" stroke="black" fill="red"/>
  <circle cx="733.68" cy="191.159" r="5.05167" stroke-width="0.5" stroke="red" fill="red"/>
   </g>
   <g id="cell95">
  <circle cx="1973.49" cy="1777.77" r="8.41271" stroke-width="0.5" stroke="black" fill="red"/>
  <circle cx="1973.49" cy="1777.77" r="5.05167" stroke-width="0.5" stroke="red" fill="red"/>
   </g>
   <g id="cell96">
  <circle cx="1614.91" cy="1072.53" r="8.41271" stroke-width="0.5" stroke="black" fill="red"/>
  <circle cx="1614.91" cy="1072.53" r="5.05167" stroke-width="0.5" stroke="red" fill="red"/>
   </g>
   <g id="cell97">
  <circle cx="905.503" cy="194.402" r="8.41271" stroke-width="0.5" stroke="black" fill="red"/>
  <circle cx="905.503" cy="194.402" r="5.05167" stroke-width="0.5" stroke="red" fill="red"/>
   </g>
   <g id="cell98">
  <circle cx="1825.26" cy="687.851" r="8.4325" stroke-width="0.5" stroke="black" fill="red"/>
  <circle cx="1825.26" cy="687.851" r="5.06552" stroke-width="0.5" stroke="red" fill="red"/>
   </g>
   <g id="cell99">
  <circle cx="936.924" cy="1992.09" r="8.41271" stroke-width="0.5" stroke="black" fill="red"/>
  <circle cx="936.924" cy="1992.09" r="5.05167" stroke-width="0.5" stroke="red" fill="red"/>
   </g>
  </g>
 </g>
  <rect x="1750" y="2070" width="200" height="20" stroke-width="4" stroke="rgb(255,255,255)" fill="rgb(0,0,0)"/>
  <text x="1762.5" y="2057.5"
   font-family="Arial" font-size="50" fill="black" >
   200 &#956;m
  </text>
  <text x="50" y="2090"
   font-family="Arial" font-size="37.5" fill="black" >
   0 days, 0 hours, 0 minutes, and 2.5120 seconds
  </text>
  <rect x="0" y="140" width="2000" height="2000" stroke-width="4" stroke="rgb(0,0,0)" fill="none"/>
</svg>
