<?xml version="1.0" encoding="UTF-8" standalone="no"?>
<!-- Created with PhysiCell (http://PhysiCell.MathCancer.org/) -->
<svg 
 xmlns:dc="http://purl.org/dc/elements/1.1/" 
 xmlns:cc="http://creativecommons.org/ns#" 
 xmlns:rdf="http://www.w3.org/1999/02/22-rdf-syntax-ns#" 
 xmlns:svg="http://www.w3.org/2000/svg" 
 xmlns="http://www.w3.org/2000/svg" 
 version="1.1" 
 width="2000" 
 height="2140" 
 id="svg2">
  <rect x="0" y="0" width="2000" height="2140" stroke-width="4" stroke="white" fill="white"/>
  <text x="25" y="60"
   font-family="Arial" font-size="50" fill="black" >
   Current time: 0 days, 8 hours, and 20.00 minutes, z = 0.00 &#956;m
  </text>
  <text x="25" y="115"
   font-family="Arial" font-size="47.5" fill="black" >
   100 agents
  </text>
 <g id="tissue" 
    transform="translate(0,2140) scale(1,-1)">
  <g id="ECM">
  </g>
  <g id="cells">
   <g id="cell0">
  <circle cx="1081.47" cy="1156.97" r="9.64936" stroke-width="0.5" stroke="black" fill="grey"/>
  <circle cx="1081.47" cy="1156.97" r="5.86329" stroke-width="0.5" stroke="grey" fill="grey"/>
   </g>
   <g id="cell1">
  <circle cx="1686.8" cy="1204.76" r="10.1758" stroke-width="0.5" stroke="black" fill="grey"/>
  <circle cx="1686.8" cy="1204.76" r="6.16159" stroke-width="0.5" stroke="grey" fill="grey"/>
   </g>
   <g id="cell2">
  <circle cx="1098.33" cy="1713.6" r="10.3474" stroke-width="0.5" stroke="black" fill="grey"/>
  <circle cx="1098.33" cy="1713.6" r="6.25125" stroke-width="0.5" stroke="grey" fill="grey"/>
   </g>
   <g id="cell3">
  <circle cx="1231.15" cy="1276.01" r="9.84395" stroke-width="0.5" stroke="black" fill="grey"/>
  <circle cx="1231.15" cy="1276.01" r="5.97665" stroke-width="0.5" stroke="grey" fill="grey"/>
   </g>
   <g id="cell4">
  <circle cx="900.893" cy="589.948" r="8.41271" stroke-width="0.5" stroke="black" fill="grey"/>
  <circle cx="900.893" cy="589.948" r="5.05167" stroke-width="0.5" stroke="grey" fill="grey"/>
   </g>
   <g id="cell5">
  <circle cx="76.4533" cy="1928.72" r="9.37686" stroke-width="0.5" stroke="black" fill="grey"/>
  <circle cx="76.4533" cy="1928.72" r="5.69955" stroke-width="0.5" stroke="grey" fill="grey"/>
   </g>
   <g id="cell6">
  <circle cx="764.238" cy="932.464" r="8.88811" stroke-width="0.5" stroke="black" fill="grey"/>
  <circle cx="764.238" cy="932.464" r="5.38958" stroke-width="0.5" stroke="grey" fill="grey"/>
   </g>
   <g id="cell7">
  <circle cx="1583.77" cy="1034.5" r="10.0654" stroke-width="0.5" stroke="black" fill="grey"/>
  <circle cx="1583.77" cy="1034.5" r="6.10145" stroke-width="0.5" stroke="grey" fill="grey"/>
   </g>
   <g id="cell8">
  <circle cx="1138.85" cy="808.971" r="10.34" stroke-width="0.5" stroke="black" fill="grey"/>
  <circle cx="1138.85" cy="808.971" r="6.24753" stroke-width="0.5" stroke="grey" fill="grey"/>
   </g>
   <g id="cell9">
  <circle cx="1646.05" cy="164.999" r="9.59391" stroke-width="0.5" stroke="black" fill="grey"/>
  <circle cx="1646.05" cy="164.999" r="5.83043" stroke-width="0.5" stroke="grey" fill="grey"/>
   </g>
   <g id="cell10">
  <circle cx="188.817" cy="1306.08" r="8.41271" stroke-width="0.5" stroke="black" fill="grey"/>
  <circle cx="188.817" cy="1306.08" r="5.05167" stroke-width="0.5" stroke="grey" fill="grey"/>
   </g>
   <g id="cell11">
  <circle cx="753.022" cy="1630.1" r="10.2632" stroke-width="0.5" stroke="black" fill="grey"/>
  <circle cx="753.022" cy="1630.1" r="6.20796" stroke-width="0.5" stroke="grey" fill="grey"/>
   </g>
   <g id="cell12">
  <circle cx="1585.21" cy="289.328" r="9.5651" stroke-width="0.5" stroke="black" fill="grey"/>
  <circle cx="1585.21" cy="289.328" r="5.81327" stroke-width="0.5" stroke="grey" fill="grey"/>
   </g>
   <g id="cell13">
  <circle cx="1740.95" cy="1904.13" r="10.2821" stroke-width="0.5" stroke="black" fill="grey"/>
  <circle cx="1740.95" cy="1904.13" r="6.21778" stroke-width="0.5" stroke="grey" fill="grey"/>
   </g>
   <g id="cell14">
  <circle cx="1559.29" cy="1630.14" r="8.41271" stroke-width="0.5" stroke="black" fill="grey"/>
  <circle cx="1559.29" cy="1630.14" r="5.05167" stroke-width="0.5" stroke="grey" fill="grey"/>
   </g>
   <g id="cell15">
  <circle cx="1032.85" cy="1550.76" r="9.88629" stroke-width="0.5" stroke="black" fill="grey"/>
  <circle cx="1032.85" cy="1550.76" r="6.00088" stroke-width="0.5" stroke="grey" fill="grey"/>
   </g>
   <g id="cell16">
  <circle cx="267.707" cy="1399.75" r="10.1374" stroke-width="0.5" stroke="black" fill="grey"/>
  <circle cx="267.707" cy="1399.75" r="6.14084" stroke-width="0.5" stroke="grey" fill="grey"/>
   </g>
   <g id="cell17">
  <circle cx="1180.47" cy="277.134" r="10.0336" stroke-width="0.5" stroke="black" fill="grey"/>
  <circle cx="1180.47" cy="277.134" r="6.08382" stroke-width="0.5" stroke="grey" fill="grey"/>
   </g>
   <g id="cell18">
  <circle cx="1871" cy="1518.76" r="10.2728" stroke-width="0.5" stroke="black" fill="grey"/>
  <circle cx="1871" cy="1518.76" r="6.21295" stroke-width="0.5" stroke="grey" fill="grey"/>
   </g>
   <g id="cell19">
  <circle cx="225.518" cy="859.032" r="8.41271" stroke-width="0.5" stroke="black" fill="grey"/>
  <circle cx="225.518" cy="859.032" r="5.05167" stroke-width="0.5" stroke="grey" fill="grey"/>
   </g>
   <g id="cell20">
  <circle cx="525.493" cy="375.387" r="8.41271" stroke-width="0.5" stroke="black" fill="grey"/>
  <circle cx="525.493" cy="375.387" r="5.05167" stroke-width="0.5" stroke="grey" fill="grey"/>
   </g>
   <g id="cell21">
  <circle cx="1412.01" cy="896.919" r="8.9283" stroke-width="0.5" stroke="black" fill="grey"/>
  <circle cx="1412.01" cy="896.919" r="5.4161" stroke-width="0.5" stroke="grey" fill="grey"/>
   </g>
   <g id="cell22">
  <circle cx="1122.04" cy="263.452" r="8.41271" stroke-width="0.5" stroke="black" fill="grey"/>
  <circle cx="1122.04" cy="263.452" r="5.05167" stroke-width="0.5" stroke="grey" fill="grey"/>
   </g>
   <g id="cell23">
  <circle cx="668.422" cy="1244.97" r="10.3084" stroke-width="0.5" stroke="black" fill="grey"/>
  <circle cx="668.422" cy="1244.97" r="6.23137" stroke-width="0.5" stroke="grey" fill="grey"/>
   </g>
   <g id="cell24">
  <circle cx="1281.14" cy="457.899" r="8.41271" stroke-width="0.5" stroke="black" fill="grey"/>
  <circle cx="1281.14" cy="457.899" r="5.05167" stroke-width="0.5" stroke="grey" fill="grey"/>
   </g>
   <g id="cell25">
  <circle cx="795.09" cy="1881.31" r="10.34" stroke-width="0.5" stroke="black" fill="grey"/>
  <circle cx="795.09" cy="1881.31" r="6.24753" stroke-width="0.5" stroke="grey" fill="grey"/>
   </g>
   <g id="cell26">
  <circle cx="1373.28" cy="909.755" r="8.41271" stroke-width="0.5" stroke="black" fill="grey"/>
  <circle cx="1373.28" cy="909.755" r="5.05167" stroke-width="0.5" stroke="grey" fill="grey"/>
   </g>
   <g id="cell27">
  <circle cx="1206.74" cy="883.787" r="9.98223" stroke-width="0.5" stroke="black" fill="grey"/>
  <circle cx="1206.74" cy="883.787" r="6.05517" stroke-width="0.5" stroke="grey" fill="grey"/>
   </g>
   <g id="cell28">
  <circle cx="1362" cy="179.951" r="10.1238" stroke-width="0.5" stroke="black" fill="grey"/>
  <circle cx="1362" cy="179.951" r="6.13347" stroke-width="0.5" stroke="grey" fill="grey"/>
   </g>
   <g id="cell29">
  <circle cx="1947.33" cy="1318.71" r="9.82189" stroke-width="0.5" stroke="black" fill="grey"/>
  <circle cx="1947.33" cy="1318.71" r="5.96395" stroke-width="0.5" stroke="grey" fill="grey"/>
   </g>
   <g id="cell30">
  <circle cx="1345.9" cy="327.196" r="9.5651" stroke-width="0.5" stroke="black" fill="grey"/>
  <circle cx="1345.9" cy="327.196" r="5.81327" stroke-width="0.5" stroke="grey" fill="grey"/>
   </g>
   <g id="cell31">
  <circle cx="709.837" cy="256.283" r="10.2911" stroke-width="0.5" stroke="black" fill="grey"/>
  <circle cx="709.837" cy="256.283" r="6.22246" stroke-width="0.5" stroke="grey" fill="grey"/>
   </g>
   <g id="cell32">
  <circle cx="600.69" cy="1223.34" r="10.2821" stroke-width="0.5" stroke="black" fill="grey"/>
  <circle cx="600.69" cy="1223.34" r="6.21778" stroke-width="0.5" stroke="grey" fill="grey"/>
   </g>
   <g id="cell33">
  <circle cx="665.888" cy="1134.84" r="9.4743" stroke-width="0.5" stroke="black" fill="grey"/>
  <circle cx="665.888" cy="1134.84" r="5.75875" stroke-width="0.5" stroke="grey" fill="grey"/>
   </g>
   <g id="cell34">
  <circle cx="896.165" cy="1246.56" r="10.3325" stroke-width="0.5" stroke="black" fill="grey"/>
  <circle cx="896.165" cy="1246.56" r="6.24369" stroke-width="0.5" stroke="grey" fill="grey"/>
   </g>
   <g id="cell35">
  <circle cx="1881.24" cy="219.328" r="10.2433" stroke-width="0.5" stroke="black" fill="grey"/>
  <circle cx="1881.24" cy="219.328" r="6.19748" stroke-width="0.5" stroke="grey" fill="grey"/>
   </g>
   <g id="cell36">
  <circle cx="401.272" cy="1268.87" r="10.1879" stroke-width="0.5" stroke="black" fill="grey"/>
  <circle cx="401.272" cy="1268.87" r="6.16807" stroke-width="0.5" stroke="grey" fill="grey"/>
   </g>
   <g id="cell37">
  <circle cx="1974.55" cy="1304.53" r="8.41271" stroke-width="0.5" stroke="black" fill="grey"/>
  <circle cx="1974.55" cy="1304.53" r="5.05167" stroke-width="0.5" stroke="grey" fill="grey"/>
   </g>
   <g id="cell38">
  <circle cx="465.215" cy="858.645" r="10.2534" stroke-width="0.5" stroke="black" fill="grey"/>
  <circle cx="465.215" cy="858.645" r="6.2028" stroke-width="0.5" stroke="grey" fill="grey"/>
   </g>
   <g id="cell39">
  <circle cx="916.314" cy="488.039" r="8.41271" stroke-width="0.5" stroke="black" fill="grey"/>
  <circle cx="916.314" cy="488.039" r="5.05167" stroke-width="0.5" stroke="grey" fill="grey"/>
   </g>
   <g id="cell40">
  <circle cx="293.532" cy="676.219" r="10.2728" stroke-width="0.5" stroke="black" fill="grey"/>
  <circle cx="293.532" cy="676.219" r="6.21295" stroke-width="0.5" stroke="grey" fill="grey"/>
   </g>
   <g id="cell41">
  <circle cx="1361.87" cy="1277.36" r="10.3545" stroke-width="0.5" stroke="black" fill="grey"/>
  <circle cx="1361.87" cy="1277.36" r="6.25485" stroke-width="0.5" stroke="grey" fill="grey"/>
   </g>
   <g id="cell42">
  <circle cx="280.621" cy="1566.37" r="10.0336" stroke-width="0.5" stroke="black" fill="grey"/>
  <circle cx="280.621" cy="1566.37" r="6.08382" stroke-width="0.5" stroke="grey" fill="grey"/>
   </g>
   <g id="cell43">
  <circle cx="1918.07" cy="756.987" r="10.1374" stroke-width="0.5" stroke="black" fill="grey"/>
  <circle cx="1918.07" cy="756.987" r="6.14084" stroke-width="0.5" stroke="grey" fill="grey"/>
   </g>
   <g id="cell44">
  <circle cx="1669.96" cy="54.1762" r="10.0654" stroke-width="0.5" stroke="black" fill="grey"/>
  <circle cx="1669.96" cy="54.1762" r="6.10145" stroke-width="0.5" stroke="grey" fill="grey"/>
   </g>
   <g id="cell45">
  <circle cx="1246.92" cy="1719.41" r="9.92631" stroke-width="0.5" stroke="black" fill="grey"/>
  <circle cx="1246.92" cy="1719.41" r="6.02363" stroke-width="0.5" stroke="grey" fill="grey"/>
   </g>
   <g id="cell46">
  <circle cx="189.083" cy="1948.92" r="10.1238" stroke-width="0.5" stroke="black" fill="grey"/>
  <circle cx="189.083" cy="1948.92" r="6.13347" stroke-width="0.5" stroke="grey" fill="grey"/>
   </g>
   <g id="cell47">
  <circle cx="1729.77" cy="916.39" r="10.3247" stroke-width="0.5" stroke="black" fill="grey"/>
  <circle cx="1729.77" cy="916.39" r="6.23971" stroke-width="0.5" stroke="grey" fill="grey"/>
   </g>
   <g id="cell48">
  <circle cx="1941.76" cy="110.227" r="9.4743" stroke-width="0.5" stroke="black" fill="grey"/>
  <circle cx="1941.76" cy="110.227" r="5.75875" stroke-width="0.5" stroke="grey" fill="grey"/>
   </g>
   <g id="cell49">
  <circle cx="910.844" cy="1476.26" r="9.92631" stroke-width="0.5" stroke="black" fill="grey"/>
  <circle cx="910.844" cy="1476.26" r="6.02363" stroke-width="0.5" stroke="grey" fill="grey"/>
   </g>
   <g id="cell50">
  <circle cx="137.425" cy="881.445" r="9.90658" stroke-width="0.5" stroke="black" fill="red"/>
  <circle cx="137.425" cy="881.445" r="6.01243" stroke-width="0.5" stroke="red" fill="red"/>
   </g>
   <g id="cell51">
  <circle cx="1989.71" cy="272.655" r="8.41271" stroke-width="0.5" stroke="black" fill="red"/>
  <circle cx="1989.71" cy="272.655" r="5.05167" stroke-width="0.5" stroke="red" fill="red"/>
   </g>
   <g id="cell52">
  <circle cx="612.765" cy="963.596" r="10.0336" stroke-width="0.5" stroke="black" fill="red"/>
  <circle cx="612.765" cy="963.596" r="6.08382" stroke-width="0.5" stroke="red" fill="red"/>
   </g>
   <g id="cell53">
  <circle cx="1377.22" cy="661.342" r="8.41271" stroke-width="0.5" stroke="black" fill="red"/>
  <circle cx="1377.22" cy="661.342" r="5.05167" stroke-width="0.5" stroke="red" fill="red"/>
   </g>
   <g id="cell54">
  <circle cx="814.74" cy="1826.01" r="10.1098" stroke-width="0.5" stroke="black" fill="red"/>
  <circle cx="814.74" cy="1826.01" r="6.12585" stroke-width="0.5" stroke="red" fill="red"/>
   </g>
   <g id="cell55">
  <circle cx="422.826" cy="1381.96" r="8.41271" stroke-width="0.5" stroke="black" fill="red"/>
  <circle cx="422.826" cy="1381.96" r="5.05167" stroke-width="0.5" stroke="red" fill="red"/>
   </g>
   <g id="cell56">
  <circle cx="1146.08" cy="1709.66" r="8.41271" stroke-width="0.5" stroke="black" fill="red"/>
  <circle cx="1146.08" cy="1709.66" r="5.05167" stroke-width="0.5" stroke="red" fill="red"/>
   </g>
   <g id="cell57">
  <circle cx="1013.02" cy="1078.4" r="10.2999" stroke-width="0.5" stroke="black" fill="red"/>
  <circle cx="1013.02" cy="1078.4" r="6.22699" stroke-width="0.5" stroke="red" fill="red"/>
   </g>
   <g id="cell58">
  <circle cx="150.367" cy="1809.95" r="9.23685" stroke-width="0.5" stroke="black" fill="red"/>
  <circle cx="150.367" cy="1809.95" r="5.61315" stroke-width="0.5" stroke="red" fill="red"/>
   </g>
   <g id="cell59">
  <circle cx="166.225" cy="1858.59" r="1.19198" stroke-width="0.5" stroke="black" fill="red"/>
  <circle cx="166.225" cy="1858.59" r="1.1876" stroke-width="0.5" stroke="black" fill="black"/>
   </g>
   <g id="cell60">
  <circle cx="637.598" cy="46.3116" r="9.96412" stroke-width="0.5" stroke="black" fill="red"/>
  <circle cx="637.598" cy="46.3116" r="6.04499" stroke-width="0.5" stroke="red" fill="red"/>
   </g>
   <g id="cell61">
  <circle cx="1665.23" cy="256.896" r="10.1634" stroke-width="0.5" stroke="black" fill="red"/>
  <circle cx="1665.23" cy="256.896" r="6.1549" stroke-width="0.5" stroke="red" fill="red"/>
   </g>
   <g id="cell62">
  <circle cx="1422.5" cy="1711.49" r="10.0955" stroke-width="0.5" stroke="black" fill="red"/>
  <circle cx="1422.5" cy="1711.49" r="6.11797" stroke-width="0.5" stroke="red" fill="red"/>
   </g>
   <g id="cell63">
  <circle cx="558.633" cy="367.923" r="9.08642" stroke-width="0.5" stroke="black" fill="red"/>
  <circle cx="558.633" cy="367.923" r="5.51837" stroke-width="0.5" stroke="red" fill="red"/>
   </g>
   <g id="cell64">
  <circle cx="1192.33" cy="1103.16" r="9.96412" stroke-width="0.5" stroke="black" fill="red"/>
  <circle cx="1192.33" cy="1103.16" r="6.04499" stroke-width="0.5" stroke="red" fill="red"/>
   </g>
   <g id="cell65">
  <circle cx="312.283" cy="1663.97" r="10.1098" stroke-width="0.5" stroke="black" fill="red"/>
  <circle cx="312.283" cy="1663.97" r="6.12585" stroke-width="0.5" stroke="red" fill="red"/>
   </g>
   <g id="cell66">
  <circle cx="17.3462" cy="292.066" r="9.7992" stroke-width="0.5" stroke="black" fill="red"/>
  <circle cx="17.3462" cy="292.066" r="5.95086" stroke-width="0.5" stroke="red" fill="red"/>
   </g>
   <g id="cell67">
  <circle cx="1170.78" cy="538.595" r="8.72828" stroke-width="0.5" stroke="black" fill="red"/>
  <circle cx="1170.78" cy="538.595" r="5.28134" stroke-width="0.5" stroke="red" fill="red"/>
   </g>
   <g id="cell68">
  <circle cx="1457.83" cy="608.072" r="10.0497" stroke-width="0.5" stroke="black" fill="red"/>
  <circle cx="1457.83" cy="608.072" r="6.09278" stroke-width="0.5" stroke="red" fill="red"/>
   </g>
   <g id="cell69">
  <circle cx="856.414" cy="508.359" r="9.59391" stroke-width="0.5" stroke="black" fill="red"/>
  <circle cx="856.414" cy="508.359" r="5.83043" stroke-width="0.5" stroke="red" fill="red"/>
   </g>
   <g id="cell70">
  <circle cx="1161.41" cy="786.89" r="10.1879" stroke-width="0.5" stroke="black" fill="red"/>
  <circle cx="1161.41" cy="786.89" r="6.16807" stroke-width="0.5" stroke="red" fill="red"/>
   </g>
   <g id="cell71">
  <circle cx="1770.06" cy="1171.86" r="10.3166" stroke-width="0.5" stroke="black" fill="red"/>
  <circle cx="1770.06" cy="1171.86" r="6.23561" stroke-width="0.5" stroke="red" fill="red"/>
   </g>
   <g id="cell72">
  <circle cx="424.737" cy="1762.55" r="8.41271" stroke-width="0.5" stroke="black" fill="red"/>
  <circle cx="424.737" cy="1762.55" r="5.05167" stroke-width="0.5" stroke="red" fill="red"/>
   </g>
   <g id="cell73">
  <circle cx="1362.11" cy="864.892" r="10.2728" stroke-width="0.5" stroke="black" fill="red"/>
  <circle cx="1362.11" cy="864.892" r="6.21295" stroke-width="0.5" stroke="red" fill="red"/>
   </g>
   <g id="cell74">
  <circle cx="1683.01" cy="1906.13" r="10.1238" stroke-width="0.5" stroke="black" fill="red"/>
  <circle cx="1683.01" cy="1906.13" r="6.13347" stroke-width="0.5" stroke="red" fill="red"/>
   </g>
   <g id="cell75">
  <circle cx="221.108" cy="591.3" r="8.41271" stroke-width="0.5" stroke="black" fill="red"/>
  <circle cx="221.108" cy="591.3" r="5.05167" stroke-width="0.5" stroke="red" fill="red"/>
   </g>
   <g id="cell76">
  <circle cx="1635.98" cy="787.026" r="9.64936" stroke-width="0.5" stroke="black" fill="red"/>
  <circle cx="1635.98" cy="787.026" r="5.86329" stroke-width="0.5" stroke="red" fill="red"/>
   </g>
   <g id="cell77">
  <circle cx="1375.1" cy="1791.59" r="10.2221" stroke-width="0.5" stroke="black" fill="red"/>
  <circle cx="1375.1" cy="1791.59" r="6.18628" stroke-width="0.5" stroke="red" fill="red"/>
   </g>
   <g id="cell78">
  <circle cx="1143.62" cy="619.375" r="8.41271" stroke-width="0.5" stroke="black" fill="red"/>
  <circle cx="1143.62" cy="619.375" r="5.05167" stroke-width="0.5" stroke="red" fill="red"/>
   </g>
   <g id="cell79">
  <circle cx="1969.79" cy="1430.3" r="9.70201" stroke-width="0.5" stroke="black" fill="red"/>
  <circle cx="1969.79" cy="1430.3" r="5.89426" stroke-width="0.5" stroke="red" fill="red"/>
   </g>
   <g id="cell80">
  <circle cx="1468.96" cy="1303.94" r="10.1996" stroke-width="0.5" stroke="black" fill="red"/>
  <circle cx="1468.96" cy="1303.94" r="6.17434" stroke-width="0.5" stroke="red" fill="red"/>
   </g>
   <g id="cell81">
  <circle cx="1069.54" cy="1911.45" r="9.98223" stroke-width="0.5" stroke="black" fill="red"/>
  <circle cx="1069.54" cy="1911.45" r="6.05517" stroke-width="0.5" stroke="red" fill="red"/>
   </g>
   <g id="cell82">
  <circle cx="1285.27" cy="809.462" r="10.2632" stroke-width="0.5" stroke="black" fill="red"/>
  <circle cx="1285.27" cy="809.462" r="6.20796" stroke-width="0.5" stroke="red" fill="red"/>
   </g>
   <g id="cell83">
  <circle cx="1225.04" cy="1217.8" r="10.34" stroke-width="0.5" stroke="black" fill="red"/>
  <circle cx="1225.04" cy="1217.8" r="6.24753" stroke-width="0.5" stroke="red" fill="red"/>
   </g>
   <g id="cell84">
  <circle cx="15.0872" cy="923.536" r="8.41271" stroke-width="0.5" stroke="black" fill="red"/>
  <circle cx="15.0872" cy="923.536" r="5.05167" stroke-width="0.5" stroke="red" fill="red"/>
   </g>
   <g id="cell85">
  <circle cx="1450.15" cy="1325.11" r="8.41271" stroke-width="0.5" stroke="black" fill="red"/>
  <circle cx="1450.15" cy="1325.11" r="5.05167" stroke-width="0.5" stroke="red" fill="red"/>
   </g>
   <g id="cell86">
  <circle cx="582.422" cy="786.939" r="9.88629" stroke-width="0.5" stroke="black" fill="red"/>
  <circle cx="582.422" cy="786.939" r="6.00088" stroke-width="0.5" stroke="red" fill="red"/>
   </g>
   <g id="cell87">
  <circle cx="1493.68" cy="897.755" r="8.41271" stroke-width="0.5" stroke="black" fill="red"/>
  <circle cx="1493.68" cy="897.755" r="5.05167" stroke-width="0.5" stroke="red" fill="red"/>
   </g>
   <g id="cell88">
  <circle cx="260.751" cy="205.952" r="10.1238" stroke-width="0.5" stroke="black" fill="red"/>
  <circle cx="260.751" cy="205.952" r="6.13347" stroke-width="0.5" stroke="red" fill="red"/>
   </g>
   <g id="cell89">
  <circle cx="185.997" cy="1161.19" r="10.1634" stroke-width="0.5" stroke="black" fill="red"/>
  <circle cx="185.997" cy="1161.19" r="6.1549" stroke-width="0.5" stroke="red" fill="red"/>
   </g>
   <g id="cell90">
  <circle cx="1176.06" cy="1076.3" r="9.34292" stroke-width="0.5" stroke="black" fill="red"/>
  <circle cx="1176.06" cy="1076.3" r="5.67875" stroke-width="0.5" stroke="red" fill="red"/>
   </g>
   <g id="cell91">
  <circle cx="51.0191" cy="1277.14" r="10.2221" stroke-width="0.5" stroke="black" fill="red"/>
  <circle cx="51.0191" cy="1277.14" r="6.18628" stroke-width="0.5" stroke="red" fill="red"/>
   </g>
   <g id="cell92">
  <circle cx="1304.21" cy="641.994" r="1.19198" stroke-width="0.5" stroke="black" fill="red"/>
  <circle cx="1304.21" cy="641.994" r="1.1876" stroke-width="0.5" stroke="black" fill="black"/>
   </g>
   <g id="cell93">
  <circle cx="420.467" cy="1780.3" r="10.3325" stroke-width="0.5" stroke="black" fill="red"/>
  <circle cx="420.467" cy="1780.3" r="6.24369" stroke-width="0.5" stroke="red" fill="red"/>
   </g>
   <g id="cell94">
  <circle cx="730.312" cy="192.022" r="9.99984" stroke-width="0.5" stroke="black" fill="red"/>
  <circle cx="730.312" cy="192.022" r="6.06503" stroke-width="0.5" stroke="red" fill="red"/>
   </g>
   <g id="cell95">
  <circle cx="1937.07" cy="1758.24" r="10.2999" stroke-width="0.5" stroke="black" fill="red"/>
  <circle cx="1937.07" cy="1758.24" r="6.22699" stroke-width="0.5" stroke="red" fill="red"/>
   </g>
   <g id="cell96">
  <circle cx="1670.68" cy="1065.13" r="8.41271" stroke-width="0.5" stroke="black" fill="red"/>
  <circle cx="1670.68" cy="1065.13" r="5.05167" stroke-width="0.5" stroke="red" fill="red"/>
   </g>
   <g id="cell97">
  <circle cx="940.068" cy="191.743" r="9.96412" stroke-width="0.5" stroke="black" fill="red"/>
  <circle cx="940.068" cy="191.743" r="6.04499" stroke-width="0.5" stroke="red" fill="red"/>
   </g>
   <g id="cell98">
  <circle cx="1817.96" cy="712.043" r="9.67603" stroke-width="0.5" stroke="black" fill="red"/>
  <circle cx="1817.96" cy="712.043" r="5.87901" stroke-width="0.5" stroke="red" fill="red"/>
   </g>
   <g id="cell99">
  <circle cx="955.542" cy="1989.87" r="10.3084" stroke-width="0.5" stroke="black" fill="red"/>
  <circle cx="955.542" cy="1989.87" r="6.23137" stroke-width="0.5" stroke="red" fill="red"/>
   </g>
  </g>
 </g>
  <rect x="1750" y="2070" width="200" height="20" stroke-width="4" stroke="rgb(255,255,255)" fill="rgb(0,0,0)"/>
  <text x="1762.5" y="2057.5"
   font-family="Arial" font-size="50" fill="black" >
   200 &#956;m
  </text>
  <text x="50" y="2090"
   font-family="Arial" font-size="37.5" fill="black" >
   0 days, 0 hours, 0 minutes, and 12.2941 seconds
  </text>
  <rect x="0" y="140" width="2000" height="2000" stroke-width="4" stroke="rgb(0,0,0)" fill="none"/>
</svg>
