<?xml version="1.0" encoding="UTF-8" standalone="no"?>
<!-- Created with PhysiCell (http://PhysiCell.MathCancer.org/) -->
<svg 
 xmlns:dc="http://purl.org/dc/elements/1.1/" 
 xmlns:cc="http://creativecommons.org/ns#" 
 xmlns:rdf="http://www.w3.org/1999/02/22-rdf-syntax-ns#" 
 xmlns:svg="http://www.w3.org/2000/svg" 
 xmlns="http://www.w3.org/2000/svg" 
 version="1.1" 
 width="2000" 
 height="2140" 
 id="svg2">
  <rect x="0" y="0" width="2000" height="2140" stroke-width="4" stroke="white" fill="white"/>
  <text x="25" y="60"
   font-family="Arial" font-size="50" fill="black" >
   Current time: 1 days, 8 hours, and 0.00 minutes, z = 0.00 &#956;m
  </text>
  <text x="25" y="115"
   font-family="Arial" font-size="47.5" fill="black" >
   20 agents
  </text>
 <g id="tissue" 
    transform="translate(0,2140) scale(1,-1)">
  <g id="ECM">
  </g>
  <g id="cells">
   <g id="cell0">
  <circle cx="1138.55" cy="1180.68" r="10.5383" stroke-width="0.5" stroke="black" fill="grey"/>
  <circle cx="1138.55" cy="1180.68" r="6.34168" stroke-width="0.5" stroke="grey" fill="grey"/>
   </g>
   <g id="cell1">
  <circle cx="1691.65" cy="1215.66" r="10.3603" stroke-width="0.5" stroke="black" fill="grey"/>
  <circle cx="1691.65" cy="1215.66" r="6.25802" stroke-width="0.5" stroke="grey" fill="grey"/>
   </g>
   <g id="cell2">
  <circle cx="1175.71" cy="1714.29" r="8.37168" stroke-width="0.5" stroke="black" fill="grey"/>
  <circle cx="1175.71" cy="1714.29" r="5.03652" stroke-width="0.5" stroke="grey" fill="grey"/>
   </g>
   <g id="cell3">
  <circle cx="1270.85" cy="1306.7" r="8.37062" stroke-width="0.5" stroke="black" fill="grey"/>
  <circle cx="1270.85" cy="1306.7" r="5.03606" stroke-width="0.5" stroke="grey" fill="grey"/>
   </g>
   <g id="cell4">
  <circle cx="896.383" cy="553.113" r="10.4859" stroke-width="0.5" stroke="black" fill="grey"/>
  <circle cx="896.383" cy="553.113" r="6.31845" stroke-width="0.5" stroke="grey" fill="grey"/>
   </g>
   <g id="cell5">
  <circle cx="87.1925" cy="1967.55" r="10.461" stroke-width="0.5" stroke="black" fill="red"/>
  <circle cx="87.1925" cy="1967.55" r="6.30688" stroke-width="0.5" stroke="red" fill="red"/>
   </g>
   <g id="cell6">
  <circle cx="803.897" cy="880.036" r="10.2501" stroke-width="0.5" stroke="black" fill="red"/>
  <circle cx="803.897" cy="880.036" r="6.2018" stroke-width="0.5" stroke="red" fill="red"/>
   </g>
   <g id="cell19">
  <circle cx="1681.75" cy="1233.87" r="10.4972" stroke-width="0.5" stroke="black" fill="grey"/>
  <circle cx="1681.75" cy="1233.87" r="6.32375" stroke-width="0.5" stroke="grey" fill="grey"/>
   </g>
   <g id="cell18">
  <circle cx="1660.08" cy="227.031" r="9.90555" stroke-width="0.5" stroke="black" fill="red"/>
  <circle cx="1660.08" cy="227.031" r="6.01215" stroke-width="0.5" stroke="red" fill="red"/>
   </g>
   <g id="cell9">
  <circle cx="1677.09" cy="208.963" r="10.3605" stroke-width="0.5" stroke="black" fill="red"/>
  <circle cx="1677.09" cy="208.963" r="6.25809" stroke-width="0.5" stroke="red" fill="red"/>
   </g>
   <g id="cell11">
  <circle cx="1585.69" cy="1060.75" r="9.06406" stroke-width="0.5" stroke="black" fill="red"/>
  <circle cx="1585.69" cy="1060.75" r="5.51011" stroke-width="0.5" stroke="red" fill="red"/>
   </g>
   <g id="cell20">
  <circle cx="836.542" cy="950.707" r="9.43861" stroke-width="0.5" stroke="black" fill="red"/>
  <circle cx="836.542" cy="950.707" r="5.7383" stroke-width="0.5" stroke="red" fill="red"/>
   </g>
   <g id="cell13">
  <circle cx="845.948" cy="563.612" r="10.4099" stroke-width="0.5" stroke="black" fill="grey"/>
  <circle cx="845.948" cy="563.612" r="6.28242" stroke-width="0.5" stroke="grey" fill="grey"/>
   </g>
   <g id="cell14">
  <circle cx="1209.65" cy="1295.53" r="10.3807" stroke-width="0.5" stroke="black" fill="grey"/>
  <circle cx="1209.65" cy="1295.53" r="6.26805" stroke-width="0.5" stroke="grey" fill="grey"/>
   </g>
   <g id="cell15">
  <circle cx="1141.65" cy="1144.95" r="10.4152" stroke-width="0.5" stroke="black" fill="grey"/>
  <circle cx="1141.65" cy="1144.95" r="6.28501" stroke-width="0.5" stroke="grey" fill="grey"/>
   </g>
   <g id="cell16">
  <circle cx="1164.86" cy="1670.11" r="10.2993" stroke-width="0.5" stroke="black" fill="grey"/>
  <circle cx="1164.86" cy="1670.11" r="6.22685" stroke-width="0.5" stroke="grey" fill="grey"/>
   </g>
   <g id="cell17">
  <circle cx="1096.08" cy="705.869" r="10.5269" stroke-width="0.5" stroke="black" fill="red"/>
  <circle cx="1096.08" cy="705.869" r="6.33681" stroke-width="0.5" stroke="red" fill="red"/>
   </g>
   <g id="cell21">
  <circle cx="1576.95" cy="1074.06" r="8.38662" stroke-width="0.5" stroke="black" fill="red"/>
  <circle cx="1576.95" cy="1074.06" r="5.04253" stroke-width="0.5" stroke="red" fill="red"/>
   </g>
   <g id="cell22">
  <circle cx="1173.17" cy="1729.51" r="8.37168" stroke-width="0.5" stroke="black" fill="grey"/>
  <circle cx="1173.17" cy="1729.51" r="5.03652" stroke-width="0.5" stroke="grey" fill="grey"/>
   </g>
   <g id="cell23">
  <circle cx="1250.96" cy="1286.94" r="8.37062" stroke-width="0.5" stroke="black" fill="grey"/>
  <circle cx="1250.96" cy="1286.94" r="5.03606" stroke-width="0.5" stroke="grey" fill="grey"/>
   </g>
  </g>
 </g>
  <rect x="1750" y="2070" width="200" height="20" stroke-width="4" stroke="rgb(255,255,255)" fill="rgb(0,0,0)"/>
  <text x="1762.5" y="2057.5"
   font-family="Arial" font-size="50" fill="black" >
   200 &#956;m
  </text>
  <text x="50" y="2090"
   font-family="Arial" font-size="37.5" fill="black" >
   0 days, 0 hours, 0 minutes, and 41.3703 seconds
  </text>
  <rect x="0" y="140" width="2000" height="2000" stroke-width="4" stroke="rgb(0,0,0)" fill="none"/>
</svg>
