<?xml version="1.0" encoding="UTF-8" standalone="no"?>
<!-- Created with PhysiCell (http://PhysiCell.MathCancer.org/) -->
<svg 
 xmlns:dc="http://purl.org/dc/elements/1.1/" 
 xmlns:cc="http://creativecommons.org/ns#" 
 xmlns:rdf="http://www.w3.org/1999/02/22-rdf-syntax-ns#" 
 xmlns:svg="http://www.w3.org/2000/svg" 
 xmlns="http://www.w3.org/2000/svg" 
 version="1.1" 
 width="2000" 
 height="2140" 
 id="svg2">
  <rect x="0" y="0" width="2000" height="2140" stroke-width="4" stroke="white" fill="white"/>
  <text x="25" y="60"
   font-family="Arial" font-size="50" fill="black" >
   Current time: 0 days, 15 hours, and 0.00 minutes, z = 0.00 &#956;m
  </text>
  <text x="25" y="115"
   font-family="Arial" font-size="47.5" fill="black" >
   97 agents
  </text>
 <g id="tissue" 
    transform="translate(0,2140) scale(1,-1)">
  <g id="ECM">
  </g>
  <g id="cells">
   <g id="cell0">
  <circle cx="1059.29" cy="1162.79" r="10.4258" stroke-width="0.5" stroke="black" fill="grey"/>
  <circle cx="1059.29" cy="1162.79" r="6.29005" stroke-width="0.5" stroke="grey" fill="grey"/>
   </g>
   <g id="cell1">
  <circle cx="1686.02" cy="1201.33" r="1.79449" stroke-width="0.5" stroke="black" fill="grey"/>
  <circle cx="1686.02" cy="1201.33" r="1.73665" stroke-width="0.5" stroke="black" fill="black"/>
   </g>
   <g id="cell2">
  <circle cx="1085.17" cy="1722.26" r="2.78529" stroke-width="0.5" stroke="black" fill="grey"/>
  <circle cx="1085.17" cy="1722.26" r="2.53708" stroke-width="0.5" stroke="black" fill="black"/>
   </g>
   <g id="cell3">
  <circle cx="1241.12" cy="1312.98" r="10.5254" stroke-width="0.5" stroke="black" fill="grey"/>
  <circle cx="1241.12" cy="1312.98" r="6.33607" stroke-width="0.5" stroke="grey" fill="grey"/>
   </g>
   <g id="cell92">
  <circle cx="1282.87" cy="589.196" r="8.37742" stroke-width="0.5" stroke="black" fill="red"/>
  <circle cx="1282.87" cy="589.196" r="5.03881" stroke-width="0.5" stroke="red" fill="red"/>
   </g>
   <g id="cell5">
  <circle cx="102.097" cy="1985.81" r="8.54454" stroke-width="0.5" stroke="black" fill="grey"/>
  <circle cx="102.097" cy="1985.81" r="5.14947" stroke-width="0.5" stroke="grey" fill="grey"/>
   </g>
   <g id="cell6">
  <circle cx="764.197" cy="962.468" r="3.69296" stroke-width="0.5" stroke="black" fill="grey"/>
  <circle cx="764.197" cy="962.468" r="3.05717" stroke-width="0.5" stroke="black" fill="black"/>
   </g>
   <g id="cell7">
  <circle cx="1629.4" cy="1069.01" r="9.16281" stroke-width="0.5" stroke="black" fill="grey"/>
  <circle cx="1629.4" cy="1069.01" r="5.56677" stroke-width="0.5" stroke="grey" fill="grey"/>
   </g>
   <g id="cell8">
  <circle cx="1140.13" cy="787.86" r="8.37641" stroke-width="0.5" stroke="black" fill="grey"/>
  <circle cx="1140.13" cy="787.86" r="5.0384" stroke-width="0.5" stroke="grey" fill="grey"/>
   </g>
   <g id="cell9">
  <circle cx="1662.9" cy="159.749" r="1.43395" stroke-width="0.5" stroke="black" fill="grey"/>
  <circle cx="1662.9" cy="159.749" r="1.41917" stroke-width="0.5" stroke="black" fill="black"/>
   </g>
   <g id="cell10">
  <circle cx="131.058" cy="1309.42" r="1.33065" stroke-width="0.5" stroke="black" fill="grey"/>
  <circle cx="131.058" cy="1309.42" r="1.32157" stroke-width="0.5" stroke="black" fill="black"/>
   </g>
   <g id="cell11">
  <circle cx="773.771" cy="1666.64" r="2.26264" stroke-width="0.5" stroke="black" fill="grey"/>
  <circle cx="773.771" cy="1666.64" r="2.13775" stroke-width="0.5" stroke="black" fill="black"/>
   </g>
   <g id="cell12">
  <circle cx="1568.9" cy="193.26" r="4.00476" stroke-width="0.5" stroke="black" fill="grey"/>
  <circle cx="1568.9" cy="193.26" r="3.20427" stroke-width="0.5" stroke="black" fill="black"/>
   </g>
   <g id="cell96">
  <circle cx="1534.09" cy="1086.25" r="8.38206" stroke-width="0.5" stroke="black" fill="red"/>
  <circle cx="1534.09" cy="1086.25" r="5.04069" stroke-width="0.5" stroke="red" fill="red"/>
   </g>
   <g id="cell14">
  <circle cx="1547.8" cy="1637.75" r="9.53557" stroke-width="0.5" stroke="black" fill="grey"/>
  <circle cx="1547.8" cy="1637.75" r="5.79561" stroke-width="0.5" stroke="grey" fill="grey"/>
   </g>
   <g id="cell98">
  <circle cx="1878.07" cy="693.363" r="8.38028" stroke-width="0.5" stroke="black" fill="red"/>
  <circle cx="1878.07" cy="693.363" r="5.03997" stroke-width="0.5" stroke="red" fill="red"/>
   </g>
   <g id="cell95">
  <circle cx="1988.74" cy="1817.36" r="10.4925" stroke-width="0.5" stroke="black" fill="red"/>
  <circle cx="1988.74" cy="1817.36" r="6.32139" stroke-width="0.5" stroke="red" fill="red"/>
   </g>
   <g id="cell94">
  <circle cx="749.075" cy="223.157" r="8.38291" stroke-width="0.5" stroke="black" fill="red"/>
  <circle cx="749.075" cy="223.157" r="5.04103" stroke-width="0.5" stroke="red" fill="red"/>
   </g>
   <g id="cell18">
  <circle cx="1895.2" cy="1505.44" r="1.56727" stroke-width="0.5" stroke="black" fill="grey"/>
  <circle cx="1895.2" cy="1505.44" r="1.55938" stroke-width="0.5" stroke="black" fill="black"/>
   </g>
   <g id="cell19">
  <circle cx="179.248" cy="804.674" r="8.41271" stroke-width="0.5" stroke="black" fill="grey"/>
  <circle cx="179.248" cy="804.674" r="5.05167" stroke-width="0.5" stroke="grey" fill="grey"/>
   </g>
   <g id="cell20">
  <circle cx="506.936" cy="366.041" r="1.56818" stroke-width="0.5" stroke="black" fill="grey"/>
  <circle cx="506.936" cy="366.041" r="1.54219" stroke-width="0.5" stroke="black" fill="black"/>
   </g>
   <g id="cell21">
  <circle cx="1485.56" cy="920.913" r="1.65457" stroke-width="0.5" stroke="black" fill="grey"/>
  <circle cx="1485.56" cy="920.913" r="1.64036" stroke-width="0.5" stroke="black" fill="black"/>
   </g>
   <g id="cell22">
  <circle cx="1142.7" cy="295.776" r="2.42814" stroke-width="0.5" stroke="black" fill="grey"/>
  <circle cx="1142.7" cy="295.776" r="2.17648" stroke-width="0.5" stroke="black" fill="black"/>
   </g>
   <g id="cell90">
  <circle cx="1169.67" cy="1076.6" r="10.211" stroke-width="0.5" stroke="black" fill="red"/>
  <circle cx="1169.67" cy="1076.6" r="6.18041" stroke-width="0.5" stroke="red" fill="red"/>
   </g>
   <g id="cell24">
  <circle cx="1238.02" cy="431.104" r="2.18169" stroke-width="0.5" stroke="black" fill="grey"/>
  <circle cx="1238.02" cy="431.104" r="2.10963" stroke-width="0.5" stroke="black" fill="black"/>
   </g>
   <g id="cell25">
  <circle cx="763.181" cy="1852.97" r="8.38118" stroke-width="0.5" stroke="black" fill="grey"/>
  <circle cx="763.181" cy="1852.97" r="5.04034" stroke-width="0.5" stroke="grey" fill="grey"/>
   </g>
   <g id="cell93">
  <circle cx="454.731" cy="1827.84" r="8.38291" stroke-width="0.5" stroke="black" fill="red"/>
  <circle cx="454.731" cy="1827.84" r="5.04103" stroke-width="0.5" stroke="red" fill="red"/>
   </g>
   <g id="cell108">
  <circle cx="1900.56" cy="691.461" r="8.38028" stroke-width="0.5" stroke="black" fill="red"/>
  <circle cx="1900.56" cy="691.461" r="5.03997" stroke-width="0.5" stroke="red" fill="red"/>
   </g>
   <g id="cell89">
  <circle cx="217.511" cy="1161.41" r="10.4796" stroke-width="0.5" stroke="black" fill="red"/>
  <circle cx="217.511" cy="1161.41" r="6.31548" stroke-width="0.5" stroke="red" fill="red"/>
   </g>
   <g id="cell29">
  <circle cx="1908.87" cy="1305.56" r="10.2999" stroke-width="0.5" stroke="black" fill="grey"/>
  <circle cx="1908.87" cy="1305.56" r="6.22699" stroke-width="0.5" stroke="grey" fill="grey"/>
   </g>
   <g id="cell30">
  <circle cx="1366.18" cy="314.534" r="3.82074" stroke-width="0.5" stroke="black" fill="grey"/>
  <circle cx="1366.18" cy="314.534" r="3.07266" stroke-width="0.5" stroke="black" fill="black"/>
   </g>
   <g id="cell31">
  <circle cx="754.067" cy="252.869" r="8.36592" stroke-width="0.5" stroke="black" fill="grey"/>
  <circle cx="754.067" cy="252.869" r="5.03403" stroke-width="0.5" stroke="grey" fill="grey"/>
   </g>
   <g id="cell86">
  <circle cx="555.719" cy="811.807" r="9.77588" stroke-width="0.5" stroke="black" fill="red"/>
  <circle cx="555.719" cy="811.807" r="5.93735" stroke-width="0.5" stroke="red" fill="red"/>
   </g>
   <g id="cell88">
  <circle cx="252.521" cy="216.972" r="10.4925" stroke-width="0.5" stroke="black" fill="red"/>
  <circle cx="252.521" cy="216.972" r="6.32139" stroke-width="0.5" stroke="red" fill="red"/>
   </g>
   <g id="cell34">
  <circle cx="892.533" cy="1280.93" r="1.30362" stroke-width="0.5" stroke="black" fill="grey"/>
  <circle cx="892.533" cy="1280.93" r="1.29901" stroke-width="0.5" stroke="black" fill="black"/>
   </g>
   <g id="cell91">
  <circle cx="87.094" cy="1304.2" r="8.44404" stroke-width="0.5" stroke="black" fill="red"/>
  <circle cx="87.094" cy="1304.2" r="5.08878" stroke-width="0.5" stroke="red" fill="red"/>
   </g>
   <g id="cell87">
  <circle cx="1434.64" cy="828.472" r="8.37742" stroke-width="0.5" stroke="black" fill="red"/>
  <circle cx="1434.64" cy="828.472" r="5.03881" stroke-width="0.5" stroke="red" fill="red"/>
   </g>
   <g id="cell37">
  <circle cx="1979.36" cy="1313.64" r="1.81793" stroke-width="0.5" stroke="black" fill="grey"/>
  <circle cx="1979.36" cy="1313.64" r="1.79707" stroke-width="0.5" stroke="black" fill="black"/>
   </g>
   <g id="cell38">
  <circle cx="482.131" cy="820.979" r="2.15186" stroke-width="0.5" stroke="black" fill="grey"/>
  <circle cx="482.131" cy="820.979" r="2.09279" stroke-width="0.5" stroke="black" fill="black"/>
   </g>
   <g id="cell39">
  <circle cx="947.022" cy="490.421" r="9.44256" stroke-width="0.5" stroke="black" fill="grey"/>
  <circle cx="947.022" cy="490.421" r="5.73955" stroke-width="0.5" stroke="grey" fill="grey"/>
   </g>
   <g id="cell40">
  <circle cx="329.458" cy="687.875" r="7.44513" stroke-width="0.5" stroke="black" fill="grey"/>
  <circle cx="329.458" cy="687.875" r="4.72369" stroke-width="0.5" stroke="black" fill="black"/>
   </g>
   <g id="cell41">
  <circle cx="1338.88" cy="1280.85" r="2.03143" stroke-width="0.5" stroke="black" fill="grey"/>
  <circle cx="1338.88" cy="1280.85" r="1.99111" stroke-width="0.5" stroke="black" fill="black"/>
   </g>
   <g id="cell42">
  <circle cx="302.177" cy="1559.02" r="3.32568" stroke-width="0.5" stroke="black" fill="grey"/>
  <circle cx="302.177" cy="1559.02" r="2.78947" stroke-width="0.5" stroke="black" fill="black"/>
   </g>
   <g id="cell84">
  <circle cx="17.8733" cy="950.186" r="10.4446" stroke-width="0.5" stroke="black" fill="red"/>
  <circle cx="17.8733" cy="950.186" r="6.29905" stroke-width="0.5" stroke="red" fill="red"/>
   </g>
   <g id="cell85">
  <circle cx="1421.66" cy="1298.27" r="10.483" stroke-width="0.5" stroke="black" fill="red"/>
  <circle cx="1421.66" cy="1298.27" r="6.31703" stroke-width="0.5" stroke="red" fill="red"/>
   </g>
   <g id="cell114">
  <circle cx="76.9649" cy="1311.35" r="8.37321" stroke-width="0.5" stroke="black" fill="red"/>
  <circle cx="76.9649" cy="1311.35" r="5.03708" stroke-width="0.5" stroke="red" fill="red"/>
   </g>
   <g id="cell46">
  <circle cx="175.828" cy="1923.53" r="8.41271" stroke-width="0.5" stroke="black" fill="grey"/>
  <circle cx="175.828" cy="1923.53" r="5.05167" stroke-width="0.5" stroke="grey" fill="grey"/>
   </g>
   <g id="cell47">
  <circle cx="1777.5" cy="913.97" r="8.7678" stroke-width="0.5" stroke="black" fill="grey"/>
  <circle cx="1777.5" cy="913.97" r="5.30857" stroke-width="0.5" stroke="grey" fill="grey"/>
   </g>
   <g id="cell97">
  <circle cx="888.576" cy="214.315" r="10.4307" stroke-width="0.5" stroke="black" fill="red"/>
  <circle cx="888.576" cy="214.315" r="6.29241" stroke-width="0.5" stroke="red" fill="red"/>
   </g>
   <g id="cell112">
  <circle cx="1152.56" cy="772.626" r="8.37641" stroke-width="0.5" stroke="black" fill="grey"/>
  <circle cx="1152.56" cy="772.626" r="5.0384" stroke-width="0.5" stroke="grey" fill="grey"/>
   </g>
   <g id="cell50">
  <circle cx="73.8062" cy="844.582" r="8.38118" stroke-width="0.5" stroke="black" fill="red"/>
  <circle cx="73.8062" cy="844.582" r="5.04034" stroke-width="0.5" stroke="red" fill="red"/>
   </g>
   <g id="cell51">
  <circle cx="1920.1" cy="237.44" r="8.47606" stroke-width="0.5" stroke="black" fill="red"/>
  <circle cx="1920.1" cy="237.44" r="5.11205" stroke-width="0.5" stroke="red" fill="red"/>
   </g>
   <g id="cell52">
  <circle cx="563.705" cy="954.414" r="8.36592" stroke-width="0.5" stroke="black" fill="red"/>
  <circle cx="563.705" cy="954.414" r="5.03403" stroke-width="0.5" stroke="red" fill="red"/>
   </g>
   <g id="cell53">
  <circle cx="1337.32" cy="632.207" r="10.4307" stroke-width="0.5" stroke="black" fill="red"/>
  <circle cx="1337.32" cy="632.207" r="6.29241" stroke-width="0.5" stroke="red" fill="red"/>
   </g>
   <g id="cell54">
  <circle cx="796.787" cy="1873.03" r="8.36592" stroke-width="0.5" stroke="black" fill="red"/>
  <circle cx="796.787" cy="1873.03" r="5.03403" stroke-width="0.5" stroke="red" fill="red"/>
   </g>
   <g id="cell55">
  <circle cx="459.269" cy="1392.94" r="8.38118" stroke-width="0.5" stroke="black" fill="red"/>
  <circle cx="459.269" cy="1392.94" r="5.04034" stroke-width="0.5" stroke="red" fill="red"/>
   </g>
   <g id="cell56">
  <circle cx="1137.87" cy="1726.53" r="10.4613" stroke-width="0.5" stroke="black" fill="red"/>
  <circle cx="1137.87" cy="1726.53" r="6.30695" stroke-width="0.5" stroke="red" fill="red"/>
   </g>
   <g id="cell57">
  <circle cx="1035.26" cy="1080.77" r="8.37935" stroke-width="0.5" stroke="black" fill="red"/>
  <circle cx="1035.26" cy="1080.77" r="5.0396" stroke-width="0.5" stroke="red" fill="red"/>
   </g>
   <g id="cell99">
  <circle cx="916.978" cy="1949.25" r="10.4573" stroke-width="0.5" stroke="black" fill="red"/>
  <circle cx="916.978" cy="1949.25" r="6.30507" stroke-width="0.5" stroke="red" fill="red"/>
   </g>
   <g id="cell59">
  <circle cx="164.201" cy="1873.02" r="10.4796" stroke-width="0.5" stroke="black" fill="red"/>
  <circle cx="164.201" cy="1873.02" r="6.31548" stroke-width="0.5" stroke="red" fill="red"/>
   </g>
   <g id="cell60">
  <circle cx="679.539" cy="16.9452" r="10.4573" stroke-width="0.5" stroke="black" fill="red"/>
  <circle cx="679.539" cy="16.9452" r="6.30507" stroke-width="0.5" stroke="red" fill="red"/>
   </g>
   <g id="cell61">
  <circle cx="1670.38" cy="288.766" r="10.4258" stroke-width="0.5" stroke="black" fill="red"/>
  <circle cx="1670.38" cy="288.766" r="6.29005" stroke-width="0.5" stroke="red" fill="red"/>
   </g>
   <g id="cell62">
  <circle cx="1411.09" cy="1717.24" r="10.4208" stroke-width="0.5" stroke="black" fill="red"/>
  <circle cx="1411.09" cy="1717.24" r="6.28762" stroke-width="0.5" stroke="red" fill="red"/>
   </g>
   <g id="cell63">
  <circle cx="571.802" cy="335.217" r="10.5189" stroke-width="0.5" stroke="black" fill="red"/>
  <circle cx="571.802" cy="335.217" r="6.3332" stroke-width="0.5" stroke="red" fill="red"/>
   </g>
   <g id="cell64">
  <circle cx="1173.93" cy="1142.35" r="10.4761" stroke-width="0.5" stroke="black" fill="red"/>
  <circle cx="1173.93" cy="1142.35" r="6.31388" stroke-width="0.5" stroke="red" fill="red"/>
   </g>
   <g id="cell65">
  <circle cx="327.61" cy="1644.9" r="10.5275" stroke-width="0.5" stroke="black" fill="red"/>
  <circle cx="327.61" cy="1644.9" r="6.33696" stroke-width="0.5" stroke="red" fill="red"/>
   </g>
   <g id="cell66">
  <circle cx="17.6638" cy="310.364" r="10.4401" stroke-width="0.5" stroke="black" fill="red"/>
  <circle cx="17.6638" cy="310.364" r="6.29691" stroke-width="0.5" stroke="red" fill="red"/>
   </g>
   <g id="cell67">
  <circle cx="1112.38" cy="564.989" r="9.70201" stroke-width="0.5" stroke="black" fill="red"/>
  <circle cx="1112.38" cy="564.989" r="5.89426" stroke-width="0.5" stroke="red" fill="red"/>
   </g>
   <g id="cell68">
  <circle cx="1453.5" cy="623.199" r="10.537" stroke-width="0.5" stroke="black" fill="red"/>
  <circle cx="1453.5" cy="623.199" r="6.34103" stroke-width="0.5" stroke="red" fill="red"/>
   </g>
   <g id="cell69">
  <circle cx="847.211" cy="488.486" r="10.4796" stroke-width="0.5" stroke="black" fill="red"/>
  <circle cx="847.211" cy="488.486" r="6.31548" stroke-width="0.5" stroke="red" fill="red"/>
   </g>
   <g id="cell70">
  <circle cx="1114.7" cy="741.503" r="10.4489" stroke-width="0.5" stroke="black" fill="red"/>
  <circle cx="1114.7" cy="741.503" r="6.30112" stroke-width="0.5" stroke="red" fill="red"/>
   </g>
   <g id="cell71">
  <circle cx="1771.15" cy="1124.31" r="10.4796" stroke-width="0.5" stroke="black" fill="red"/>
  <circle cx="1771.15" cy="1124.31" r="6.31548" stroke-width="0.5" stroke="red" fill="red"/>
   </g>
   <g id="cell72">
  <circle cx="419.777" cy="1746.95" r="8.41271" stroke-width="0.5" stroke="black" fill="red"/>
  <circle cx="419.777" cy="1746.95" r="5.05167" stroke-width="0.5" stroke="red" fill="red"/>
   </g>
   <g id="cell73">
  <circle cx="1344.67" cy="904.779" r="10.5233" stroke-width="0.5" stroke="black" fill="red"/>
  <circle cx="1344.67" cy="904.779" r="6.33514" stroke-width="0.5" stroke="red" fill="red"/>
   </g>
   <g id="cell74">
  <circle cx="1733.92" cy="1971.94" r="10.5295" stroke-width="0.5" stroke="black" fill="red"/>
  <circle cx="1733.92" cy="1971.94" r="6.33783" stroke-width="0.5" stroke="red" fill="red"/>
   </g>
   <g id="cell75">
  <circle cx="203.051" cy="599.264" r="8.38206" stroke-width="0.5" stroke="black" fill="red"/>
  <circle cx="203.051" cy="599.264" r="5.04069" stroke-width="0.5" stroke="red" fill="red"/>
   </g>
   <g id="cell76">
  <circle cx="1609.82" cy="873.565" r="10.537" stroke-width="0.5" stroke="black" fill="red"/>
  <circle cx="1609.82" cy="873.565" r="6.34103" stroke-width="0.5" stroke="red" fill="red"/>
   </g>
   <g id="cell77">
  <circle cx="1320.19" cy="1745.17" r="9.44256" stroke-width="0.5" stroke="black" fill="red"/>
  <circle cx="1320.19" cy="1745.17" r="5.73955" stroke-width="0.5" stroke="red" fill="red"/>
   </g>
   <g id="cell78">
  <circle cx="1159.9" cy="608.444" r="10.4955" stroke-width="0.5" stroke="black" fill="red"/>
  <circle cx="1159.9" cy="608.444" r="6.32275" stroke-width="0.5" stroke="red" fill="red"/>
   </g>
   <g id="cell79">
  <circle cx="1925.69" cy="1412.82" r="10.4208" stroke-width="0.5" stroke="black" fill="red"/>
  <circle cx="1925.69" cy="1412.82" r="6.28762" stroke-width="0.5" stroke="red" fill="red"/>
   </g>
   <g id="cell80">
  <circle cx="1491.73" cy="1342.16" r="10.4446" stroke-width="0.5" stroke="black" fill="red"/>
  <circle cx="1491.73" cy="1342.16" r="6.29905" stroke-width="0.5" stroke="red" fill="red"/>
   </g>
   <g id="cell81">
  <circle cx="1034.61" cy="1918.17" r="10.4984" stroke-width="0.5" stroke="black" fill="red"/>
  <circle cx="1034.61" cy="1918.17" r="6.32406" stroke-width="0.5" stroke="red" fill="red"/>
   </g>
   <g id="cell82">
  <circle cx="1295.39" cy="744.587" r="10.3873" stroke-width="0.5" stroke="black" fill="red"/>
  <circle cx="1295.39" cy="744.587" r="6.2712" stroke-width="0.5" stroke="red" fill="red"/>
   </g>
   <g id="cell113">
  <circle cx="1915.16" cy="219.234" r="8.39534" stroke-width="0.5" stroke="black" fill="red"/>
  <circle cx="1915.16" cy="219.234" r="5.0519" stroke-width="0.5" stroke="red" fill="red"/>
   </g>
   <g id="cell101">
  <circle cx="753.63" cy="201.383" r="8.90185" stroke-width="0.5" stroke="black" fill="red"/>
  <circle cx="753.63" cy="201.383" r="5.40621" stroke-width="0.5" stroke="red" fill="red"/>
   </g>
   <g id="cell102">
  <circle cx="461.131" cy="1788.19" r="8.38291" stroke-width="0.5" stroke="black" fill="red"/>
  <circle cx="461.131" cy="1788.19" r="5.04103" stroke-width="0.5" stroke="red" fill="red"/>
   </g>
   <g id="cell103">
  <circle cx="256.821" cy="590.57" r="8.38206" stroke-width="0.5" stroke="black" fill="red"/>
  <circle cx="256.821" cy="590.57" r="5.04069" stroke-width="0.5" stroke="red" fill="red"/>
   </g>
   <g id="cell104">
  <circle cx="1560.27" cy="1075.15" r="8.38206" stroke-width="0.5" stroke="black" fill="red"/>
  <circle cx="1560.27" cy="1075.15" r="5.04069" stroke-width="0.5" stroke="red" fill="red"/>
   </g>
   <g id="cell105">
  <circle cx="81.9248" cy="816.401" r="8.48173" stroke-width="0.5" stroke="black" fill="red"/>
  <circle cx="81.9248" cy="816.401" r="5.11437" stroke-width="0.5" stroke="red" fill="red"/>
   </g>
   <g id="cell106">
  <circle cx="776.857" cy="1839.87" r="8.38118" stroke-width="0.5" stroke="black" fill="grey"/>
  <circle cx="776.857" cy="1839.87" r="5.04034" stroke-width="0.5" stroke="grey" fill="grey"/>
   </g>
   <g id="cell107">
  <circle cx="440.62" cy="1387.48" r="8.38118" stroke-width="0.5" stroke="black" fill="red"/>
  <circle cx="440.62" cy="1387.48" r="5.04034" stroke-width="0.5" stroke="red" fill="red"/>
   </g>
   <g id="cell109">
  <circle cx="1017.82" cy="1102.08" r="8.37935" stroke-width="0.5" stroke="black" fill="red"/>
  <circle cx="1017.82" cy="1102.08" r="5.0396" stroke-width="0.5" stroke="red" fill="red"/>
   </g>
   <g id="cell110">
  <circle cx="1445.09" cy="817.323" r="8.37742" stroke-width="0.5" stroke="black" fill="red"/>
  <circle cx="1445.09" cy="817.323" r="5.03881" stroke-width="0.5" stroke="red" fill="red"/>
   </g>
   <g id="cell111">
  <circle cx="1299.36" cy="584.055" r="8.47806" stroke-width="0.5" stroke="black" fill="red"/>
  <circle cx="1299.36" cy="584.055" r="5.11288" stroke-width="0.5" stroke="red" fill="red"/>
   </g>
   <g id="cell115">
  <circle cx="568.927" cy="942.606" r="8.36592" stroke-width="0.5" stroke="black" fill="red"/>
  <circle cx="568.927" cy="942.606" r="5.03403" stroke-width="0.5" stroke="red" fill="red"/>
   </g>
   <g id="cell116">
  <circle cx="781.81" cy="1880.22" r="8.36592" stroke-width="0.5" stroke="black" fill="red"/>
  <circle cx="781.81" cy="1880.22" r="5.03403" stroke-width="0.5" stroke="red" fill="red"/>
   </g>
   <g id="cell117">
  <circle cx="752.284" cy="237.494" r="8.36592" stroke-width="0.5" stroke="black" fill="grey"/>
  <circle cx="752.284" cy="237.494" r="5.03403" stroke-width="0.5" stroke="grey" fill="grey"/>
   </g>
  </g>
 </g>
  <rect x="1750" y="2070" width="200" height="20" stroke-width="4" stroke="rgb(255,255,255)" fill="rgb(0,0,0)"/>
  <text x="1762.5" y="2057.5"
   font-family="Arial" font-size="50" fill="black" >
   200 &#956;m
  </text>
  <text x="50" y="2090"
   font-family="Arial" font-size="37.5" fill="black" >
   0 days, 0 hours, 0 minutes, and 22.0148 seconds
  </text>
  <rect x="0" y="140" width="2000" height="2000" stroke-width="4" stroke="rgb(0,0,0)" fill="none"/>
</svg>
