<?xml version="1.0" encoding="UTF-8" standalone="no"?>
<!-- Created with PhysiCell (http://PhysiCell.MathCancer.org/) -->
<svg 
 xmlns:dc="http://purl.org/dc/elements/1.1/" 
 xmlns:cc="http://creativecommons.org/ns#" 
 xmlns:rdf="http://www.w3.org/1999/02/22-rdf-syntax-ns#" 
 xmlns:svg="http://www.w3.org/2000/svg" 
 xmlns="http://www.w3.org/2000/svg" 
 version="1.1" 
 width="2000" 
 height="2140" 
 id="svg2">
  <rect x="0" y="0" width="2000" height="2140" stroke-width="4" stroke="white" fill="white"/>
  <text x="25" y="60"
   font-family="Arial" font-size="50" fill="black" >
   Current time: 1 days, 6 hours, and 0.00 minutes, z = 0.00 &#956;m
  </text>
  <text x="25" y="115"
   font-family="Arial" font-size="47.5" fill="black" >
   18 agents
  </text>
 <g id="tissue" 
    transform="translate(0,2140) scale(1,-1)">
  <g id="ECM">
  </g>
  <g id="cells">
   <g id="cell0">
  <circle cx="1139.35" cy="1197.16" r="10.4918" stroke-width="0.5" stroke="black" fill="grey"/>
  <circle cx="1139.35" cy="1197.16" r="6.32122" stroke-width="0.5" stroke="grey" fill="grey"/>
   </g>
   <g id="cell1">
  <circle cx="1697.24" cy="1212.61" r="10.1736" stroke-width="0.5" stroke="black" fill="grey"/>
  <circle cx="1697.24" cy="1212.61" r="6.16096" stroke-width="0.5" stroke="grey" fill="grey"/>
   </g>
   <g id="cell2">
  <circle cx="1170.75" cy="1705.28" r="10.5083" stroke-width="0.5" stroke="black" fill="grey"/>
  <circle cx="1170.75" cy="1705.28" r="6.3287" stroke-width="0.5" stroke="grey" fill="grey"/>
   </g>
   <g id="cell3">
  <circle cx="1244.07" cy="1290.65" r="10.506" stroke-width="0.5" stroke="black" fill="grey"/>
  <circle cx="1244.07" cy="1290.65" r="6.32761" stroke-width="0.5" stroke="grey" fill="grey"/>
   </g>
   <g id="cell4">
  <circle cx="896.232" cy="559.218" r="10.3985" stroke-width="0.5" stroke="black" fill="grey"/>
  <circle cx="896.232" cy="559.218" r="6.27689" stroke-width="0.5" stroke="grey" fill="grey"/>
   </g>
   <g id="cell5">
  <circle cx="106.779" cy="1967.55" r="10.354" stroke-width="0.5" stroke="black" fill="red"/>
  <circle cx="106.779" cy="1967.55" r="6.25473" stroke-width="0.5" stroke="red" fill="red"/>
   </g>
   <g id="cell6">
  <circle cx="787.587" cy="891.619" r="9.97607" stroke-width="0.5" stroke="black" fill="red"/>
  <circle cx="787.587" cy="891.619" r="6.05318" stroke-width="0.5" stroke="red" fill="red"/>
   </g>
   <g id="cell19">
  <circle cx="1690.37" cy="1246.13" r="10.4187" stroke-width="0.5" stroke="black" fill="grey"/>
  <circle cx="1690.37" cy="1246.13" r="6.28703" stroke-width="0.5" stroke="grey" fill="grey"/>
   </g>
   <g id="cell18">
  <circle cx="1647.48" cy="206.743" r="9.37487" stroke-width="0.5" stroke="black" fill="red"/>
  <circle cx="1647.48" cy="206.743" r="5.69895" stroke-width="0.5" stroke="red" fill="red"/>
   </g>
   <g id="cell9">
  <circle cx="1661.52" cy="205.496" r="10.1741" stroke-width="0.5" stroke="black" fill="red"/>
  <circle cx="1661.52" cy="205.496" r="6.16111" stroke-width="0.5" stroke="red" fill="red"/>
   </g>
   <g id="cell11">
  <circle cx="1581.13" cy="1056.63" r="8.36687" stroke-width="0.5" stroke="black" fill="red"/>
  <circle cx="1581.13" cy="1056.63" r="5.0345" stroke-width="0.5" stroke="red" fill="red"/>
   </g>
   <g id="cell20">
  <circle cx="832.309" cy="924.014" r="8.68123" stroke-width="0.5" stroke="black" fill="red"/>
  <circle cx="832.309" cy="924.014" r="5.25153" stroke-width="0.5" stroke="red" fill="red"/>
   </g>
   <g id="cell13">
  <circle cx="837.244" cy="559.744" r="10.2627" stroke-width="0.5" stroke="black" fill="grey"/>
  <circle cx="837.244" cy="559.744" r="6.20781" stroke-width="0.5" stroke="grey" fill="grey"/>
   </g>
   <g id="cell14">
  <circle cx="1224.2" cy="1298.75" r="10.2103" stroke-width="0.5" stroke="black" fill="grey"/>
  <circle cx="1224.2" cy="1298.75" r="6.18023" stroke-width="0.5" stroke="grey" fill="grey"/>
   </g>
   <g id="cell15">
  <circle cx="1139.7" cy="1142.13" r="10.2721" stroke-width="0.5" stroke="black" fill="grey"/>
  <circle cx="1139.7" cy="1142.13" r="6.21278" stroke-width="0.5" stroke="grey" fill="grey"/>
   </g>
   <g id="cell16">
  <circle cx="1174.88" cy="1675.58" r="10.0644" stroke-width="0.5" stroke="black" fill="grey"/>
  <circle cx="1174.88" cy="1675.58" r="6.10119" stroke-width="0.5" stroke="grey" fill="grey"/>
   </g>
   <g id="cell17">
  <circle cx="1091.34" cy="729.243" r="10.4715" stroke-width="0.5" stroke="black" fill="red"/>
  <circle cx="1091.34" cy="729.243" r="6.31196" stroke-width="0.5" stroke="red" fill="red"/>
   </g>
   <g id="cell21">
  <circle cx="1568.15" cy="1065.98" r="8.36687" stroke-width="0.5" stroke="black" fill="red"/>
  <circle cx="1568.15" cy="1065.98" r="5.0345" stroke-width="0.5" stroke="red" fill="red"/>
   </g>
  </g>
 </g>
  <rect x="1750" y="2070" width="200" height="20" stroke-width="4" stroke="rgb(255,255,255)" fill="rgb(0,0,0)"/>
  <text x="1762.5" y="2057.5"
   font-family="Arial" font-size="50" fill="black" >
   200 &#956;m
  </text>
  <text x="50" y="2090"
   font-family="Arial" font-size="37.5" fill="black" >
   0 days, 0 hours, 0 minutes, and 38.7552 seconds
  </text>
  <rect x="0" y="140" width="2000" height="2000" stroke-width="4" stroke="rgb(0,0,0)" fill="none"/>
</svg>
