<?xml version="1.0" encoding="UTF-8" standalone="no"?>
<!-- Created with PhysiCell (http://PhysiCell.MathCancer.org/) -->
<svg 
 xmlns:dc="http://purl.org/dc/elements/1.1/" 
 xmlns:cc="http://creativecommons.org/ns#" 
 xmlns:rdf="http://www.w3.org/1999/02/22-rdf-syntax-ns#" 
 xmlns:svg="http://www.w3.org/2000/svg" 
 xmlns="http://www.w3.org/2000/svg" 
 version="1.1" 
 width="2000" 
 height="2140" 
 id="svg2">
  <rect x="0" y="0" width="2000" height="2140" stroke-width="4" stroke="white" fill="white"/>
  <text x="25" y="60"
   font-family="Arial" font-size="50" fill="black" >
   Current time: 0 days, 15 hours, and 0.00 minutes, z = 0.00 &#956;m
  </text>
  <text x="25" y="115"
   font-family="Arial" font-size="47.5" fill="black" >
   122 agents
  </text>
 <g id="tissue" 
    transform="translate(0,2140) scale(1,-1)">
  <g id="ECM">
  </g>
  <g id="cells">
   <g id="cell0">
  <circle cx="1099.02" cy="1176.17" r="10.4573" stroke-width="0.5" stroke="black" fill="grey"/>
  <circle cx="1099.02" cy="1176.17" r="6.30507" stroke-width="0.5" stroke="grey" fill="grey"/>
   </g>
   <g id="cell1">
  <circle cx="1671.89" cy="1206.37" r="10.5352" stroke-width="0.5" stroke="black" fill="grey"/>
  <circle cx="1671.89" cy="1206.37" r="6.34027" stroke-width="0.5" stroke="grey" fill="grey"/>
   </g>
   <g id="cell2">
  <circle cx="1105.21" cy="1746.14" r="8.38206" stroke-width="0.5" stroke="black" fill="grey"/>
  <circle cx="1105.21" cy="1746.14" r="5.04069" stroke-width="0.5" stroke="grey" fill="grey"/>
   </g>
   <g id="cell3">
  <circle cx="1234.6" cy="1283.04" r="10.4862" stroke-width="0.5" stroke="black" fill="grey"/>
  <circle cx="1234.6" cy="1283.04" r="6.31853" stroke-width="0.5" stroke="grey" fill="grey"/>
   </g>
   <g id="cell4">
  <circle cx="922.26" cy="565.099" r="9.94548" stroke-width="0.5" stroke="black" fill="grey"/>
  <circle cx="922.26" cy="565.099" r="6.03448" stroke-width="0.5" stroke="grey" fill="grey"/>
   </g>
   <g id="cell5">
  <circle cx="95.8909" cy="1914.74" r="10.4156" stroke-width="0.5" stroke="black" fill="grey"/>
  <circle cx="95.8909" cy="1914.74" r="6.2851" stroke-width="0.5" stroke="grey" fill="grey"/>
   </g>
   <g id="cell6">
  <circle cx="755.541" cy="889.572" r="10.3325" stroke-width="0.5" stroke="black" fill="grey"/>
  <circle cx="755.541" cy="889.572" r="6.24369" stroke-width="0.5" stroke="grey" fill="grey"/>
   </g>
   <g id="cell7">
  <circle cx="1559.46" cy="1046.37" r="10.5189" stroke-width="0.5" stroke="black" fill="grey"/>
  <circle cx="1559.46" cy="1046.37" r="6.3332" stroke-width="0.5" stroke="grey" fill="grey"/>
   </g>
   <g id="cell8">
  <circle cx="1104.57" cy="789.119" r="8.38118" stroke-width="0.5" stroke="black" fill="grey"/>
  <circle cx="1104.57" cy="789.119" r="5.04034" stroke-width="0.5" stroke="grey" fill="grey"/>
   </g>
   <g id="cell9">
  <circle cx="1614.56" cy="175.898" r="10.4489" stroke-width="0.5" stroke="black" fill="grey"/>
  <circle cx="1614.56" cy="175.898" r="6.30112" stroke-width="0.5" stroke="grey" fill="grey"/>
   </g>
   <g id="cell10">
  <circle cx="171.423" cy="1286.16" r="10.0806" stroke-width="0.5" stroke="black" fill="grey"/>
  <circle cx="171.423" cy="1286.16" r="6.10985" stroke-width="0.5" stroke="grey" fill="grey"/>
   </g>
   <g id="cell11">
  <circle cx="737.313" cy="1641.33" r="8.37208" stroke-width="0.5" stroke="black" fill="grey"/>
  <circle cx="737.313" cy="1641.33" r="5.03661" stroke-width="0.5" stroke="grey" fill="grey"/>
   </g>
   <g id="cell12">
  <circle cx="1605.76" cy="267.616" r="10.4446" stroke-width="0.5" stroke="black" fill="grey"/>
  <circle cx="1605.76" cy="267.616" r="6.29905" stroke-width="0.5" stroke="grey" fill="grey"/>
   </g>
   <g id="cell13">
  <circle cx="1738.26" cy="1889.24" r="8.37431" stroke-width="0.5" stroke="black" fill="grey"/>
  <circle cx="1738.26" cy="1889.24" r="5.03754" stroke-width="0.5" stroke="grey" fill="grey"/>
   </g>
   <g id="cell14">
  <circle cx="1559.53" cy="1635.96" r="9.16281" stroke-width="0.5" stroke="black" fill="grey"/>
  <circle cx="1559.53" cy="1635.96" r="5.56677" stroke-width="0.5" stroke="grey" fill="grey"/>
   </g>
   <g id="cell15">
  <circle cx="1049.29" cy="1524.48" r="10.4925" stroke-width="0.5" stroke="black" fill="grey"/>
  <circle cx="1049.29" cy="1524.48" r="6.32139" stroke-width="0.5" stroke="grey" fill="grey"/>
   </g>
   <g id="cell16">
  <circle cx="246.289" cy="1421.99" r="10.5295" stroke-width="0.5" stroke="black" fill="grey"/>
  <circle cx="246.289" cy="1421.99" r="6.33783" stroke-width="0.5" stroke="grey" fill="grey"/>
   </g>
   <g id="cell17">
  <circle cx="1199.79" cy="276.497" r="10.5142" stroke-width="0.5" stroke="black" fill="grey"/>
  <circle cx="1199.79" cy="276.497" r="6.33113" stroke-width="0.5" stroke="grey" fill="grey"/>
   </g>
   <g id="cell18">
  <circle cx="1867.87" cy="1548.98" r="8.37321" stroke-width="0.5" stroke="black" fill="grey"/>
  <circle cx="1867.87" cy="1548.98" r="5.03708" stroke-width="0.5" stroke="grey" fill="grey"/>
   </g>
   <g id="cell19">
  <circle cx="228.575" cy="876.688" r="8.41271" stroke-width="0.5" stroke="black" fill="grey"/>
  <circle cx="228.575" cy="876.688" r="5.05167" stroke-width="0.5" stroke="grey" fill="grey"/>
   </g>
   <g id="cell20">
  <circle cx="544.811" cy="348.879" r="10.0497" stroke-width="0.5" stroke="black" fill="grey"/>
  <circle cx="544.811" cy="348.879" r="6.09278" stroke-width="0.5" stroke="grey" fill="grey"/>
   </g>
   <g id="cell21">
  <circle cx="1428.86" cy="915.131" r="10.34" stroke-width="0.5" stroke="black" fill="grey"/>
  <circle cx="1428.86" cy="915.131" r="6.24753" stroke-width="0.5" stroke="grey" fill="grey"/>
   </g>
   <g id="cell22">
  <circle cx="1118.16" cy="262.368" r="9.41008" stroke-width="0.5" stroke="black" fill="grey"/>
  <circle cx="1118.16" cy="262.368" r="5.71981" stroke-width="0.5" stroke="grey" fill="grey"/>
   </g>
   <g id="cell23">
  <circle cx="641.8" cy="1243.18" r="3.16047" stroke-width="0.5" stroke="black" fill="grey"/>
  <circle cx="641.8" cy="1243.18" r="2.79776" stroke-width="0.5" stroke="black" fill="black"/>
   </g>
   <g id="cell24">
  <circle cx="1276.89" cy="405.702" r="9.88629" stroke-width="0.5" stroke="black" fill="grey"/>
  <circle cx="1276.89" cy="405.702" r="6.00088" stroke-width="0.5" stroke="grey" fill="grey"/>
   </g>
   <g id="cell25">
  <circle cx="798.397" cy="1883.1" r="8.38118" stroke-width="0.5" stroke="black" fill="grey"/>
  <circle cx="798.397" cy="1883.1" r="5.04034" stroke-width="0.5" stroke="grey" fill="grey"/>
   </g>
   <g id="cell26">
  <circle cx="1368.99" cy="877.255" r="10.1758" stroke-width="0.5" stroke="black" fill="grey"/>
  <circle cx="1368.99" cy="877.255" r="6.16159" stroke-width="0.5" stroke="grey" fill="grey"/>
   </g>
   <g id="cell27">
  <circle cx="1204.37" cy="883.449" r="10.5066" stroke-width="0.5" stroke="black" fill="grey"/>
  <circle cx="1204.37" cy="883.449" r="6.32777" stroke-width="0.5" stroke="grey" fill="grey"/>
   </g>
   <g id="cell28">
  <circle cx="1349.22" cy="178.453" r="10.5275" stroke-width="0.5" stroke="black" fill="grey"/>
  <circle cx="1349.22" cy="178.453" r="6.33696" stroke-width="0.5" stroke="grey" fill="grey"/>
   </g>
   <g id="cell29">
  <circle cx="1958.24" cy="1293.52" r="10.483" stroke-width="0.5" stroke="black" fill="grey"/>
  <circle cx="1958.24" cy="1293.52" r="6.31703" stroke-width="0.5" stroke="grey" fill="grey"/>
   </g>
   <g id="cell30">
  <circle cx="1353.05" cy="349.557" r="10.4446" stroke-width="0.5" stroke="black" fill="grey"/>
  <circle cx="1353.05" cy="349.557" r="6.29905" stroke-width="0.5" stroke="grey" fill="grey"/>
   </g>
   <g id="cell31">
  <circle cx="679.431" cy="238.651" r="8.37537" stroke-width="0.5" stroke="black" fill="grey"/>
  <circle cx="679.431" cy="238.651" r="5.03798" stroke-width="0.5" stroke="grey" fill="grey"/>
   </g>
   <g id="cell32">
  <circle cx="614.595" cy="1220.03" r="8.37431" stroke-width="0.5" stroke="black" fill="grey"/>
  <circle cx="614.595" cy="1220.03" r="5.03754" stroke-width="0.5" stroke="grey" fill="grey"/>
   </g>
   <g id="cell33">
  <circle cx="663.46" cy="1184.08" r="10.4307" stroke-width="0.5" stroke="black" fill="grey"/>
  <circle cx="663.46" cy="1184.08" r="6.29241" stroke-width="0.5" stroke="grey" fill="grey"/>
   </g>
   <g id="cell34">
  <circle cx="891.774" cy="1250.51" r="8.38028" stroke-width="0.5" stroke="black" fill="grey"/>
  <circle cx="891.774" cy="1250.51" r="5.03997" stroke-width="0.5" stroke="grey" fill="grey"/>
   </g>
   <g id="cell35">
  <circle cx="1901.12" cy="211.525" r="8.36972" stroke-width="0.5" stroke="black" fill="grey"/>
  <circle cx="1901.12" cy="211.525" r="5.03563" stroke-width="0.5" stroke="grey" fill="grey"/>
   </g>
   <g id="cell36">
  <circle cx="376.486" cy="1300.19" r="10.537" stroke-width="0.5" stroke="black" fill="grey"/>
  <circle cx="376.486" cy="1300.19" r="6.34103" stroke-width="0.5" stroke="grey" fill="grey"/>
   </g>
   <g id="cell37">
  <circle cx="1981.76" cy="1314.9" r="9.16281" stroke-width="0.5" stroke="black" fill="grey"/>
  <circle cx="1981.76" cy="1314.9" r="5.56677" stroke-width="0.5" stroke="grey" fill="grey"/>
   </g>
   <g id="cell38">
  <circle cx="447.035" cy="862.488" r="8.37092" stroke-width="0.5" stroke="black" fill="grey"/>
  <circle cx="447.035" cy="862.488" r="5.03613" stroke-width="0.5" stroke="grey" fill="grey"/>
   </g>
   <g id="cell39">
  <circle cx="925.865" cy="486.858" r="10.0169" stroke-width="0.5" stroke="black" fill="grey"/>
  <circle cx="925.865" cy="486.858" r="6.07458" stroke-width="0.5" stroke="grey" fill="grey"/>
   </g>
   <g id="cell40">
  <circle cx="323.001" cy="649.589" r="8.37321" stroke-width="0.5" stroke="black" fill="grey"/>
  <circle cx="323.001" cy="649.589" r="5.03708" stroke-width="0.5" stroke="grey" fill="grey"/>
   </g>
   <g id="cell41">
  <circle cx="1337.91" cy="1291.81" r="8.38291" stroke-width="0.5" stroke="black" fill="grey"/>
  <circle cx="1337.91" cy="1291.81" r="5.04103" stroke-width="0.5" stroke="grey" fill="grey"/>
   </g>
   <g id="cell42">
  <circle cx="288.886" cy="1558.11" r="10.5142" stroke-width="0.5" stroke="black" fill="grey"/>
  <circle cx="288.886" cy="1558.11" r="6.33113" stroke-width="0.5" stroke="grey" fill="grey"/>
   </g>
   <g id="cell43">
  <circle cx="1936.46" cy="779.297" r="10.5295" stroke-width="0.5" stroke="black" fill="grey"/>
  <circle cx="1936.46" cy="779.297" r="6.33783" stroke-width="0.5" stroke="grey" fill="grey"/>
   </g>
   <g id="cell44">
  <circle cx="1658.35" cy="55.4337" r="10.5189" stroke-width="0.5" stroke="black" fill="grey"/>
  <circle cx="1658.35" cy="55.4337" r="6.3332" stroke-width="0.5" stroke="grey" fill="grey"/>
   </g>
   <g id="cell45">
  <circle cx="1220.11" cy="1710.27" r="10.4984" stroke-width="0.5" stroke="black" fill="grey"/>
  <circle cx="1220.11" cy="1710.27" r="6.32406" stroke-width="0.5" stroke="grey" fill="grey"/>
   </g>
   <g id="cell46">
  <circle cx="180.835" cy="1961.46" r="10.5275" stroke-width="0.5" stroke="black" fill="grey"/>
  <circle cx="180.835" cy="1961.46" r="6.33696" stroke-width="0.5" stroke="grey" fill="grey"/>
   </g>
   <g id="cell47">
  <circle cx="1731.29" cy="937.974" r="8.47995" stroke-width="0.5" stroke="black" fill="grey"/>
  <circle cx="1731.29" cy="937.974" r="5.11365" stroke-width="0.5" stroke="grey" fill="grey"/>
   </g>
   <g id="cell48">
  <circle cx="1937.19" cy="75.573" r="10.4307" stroke-width="0.5" stroke="black" fill="grey"/>
  <circle cx="1937.19" cy="75.573" r="6.29241" stroke-width="0.5" stroke="grey" fill="grey"/>
   </g>
   <g id="cell49">
  <circle cx="921.585" cy="1478.33" r="10.4984" stroke-width="0.5" stroke="black" fill="grey"/>
  <circle cx="921.585" cy="1478.33" r="6.32406" stroke-width="0.5" stroke="grey" fill="grey"/>
   </g>
   <g id="cell50">
  <circle cx="148.825" cy="847.433" r="10.4955" stroke-width="0.5" stroke="black" fill="red"/>
  <circle cx="148.825" cy="847.433" r="6.32275" stroke-width="0.5" stroke="red" fill="red"/>
   </g>
   <g id="cell51">
  <circle cx="1957.69" cy="267.509" r="9.5651" stroke-width="0.5" stroke="black" fill="red"/>
  <circle cx="1957.69" cy="267.509" r="5.81327" stroke-width="0.5" stroke="red" fill="red"/>
   </g>
   <g id="cell52">
  <circle cx="637.281" cy="962.788" r="10.5142" stroke-width="0.5" stroke="black" fill="red"/>
  <circle cx="637.281" cy="962.788" r="6.33113" stroke-width="0.5" stroke="red" fill="red"/>
   </g>
   <g id="cell53">
  <circle cx="1385.14" cy="649.594" r="9.04745" stroke-width="0.5" stroke="black" fill="red"/>
  <circle cx="1385.14" cy="649.594" r="5.49345" stroke-width="0.5" stroke="red" fill="red"/>
   </g>
   <g id="cell54">
  <circle cx="791.132" cy="1831" r="10.5254" stroke-width="0.5" stroke="black" fill="red"/>
  <circle cx="791.132" cy="1831" r="6.33607" stroke-width="0.5" stroke="red" fill="red"/>
   </g>
   <g id="cell55">
  <circle cx="433.337" cy="1344.45" r="8.84788" stroke-width="0.5" stroke="black" fill="red"/>
  <circle cx="433.337" cy="1344.45" r="5.36278" stroke-width="0.5" stroke="red" fill="red"/>
   </g>
   <g id="cell56">
  <circle cx="1143.39" cy="1696.3" r="9.90658" stroke-width="0.5" stroke="black" fill="red"/>
  <circle cx="1143.39" cy="1696.3" r="6.01243" stroke-width="0.5" stroke="red" fill="red"/>
   </g>
   <g id="cell57">
  <circle cx="990.859" cy="1087.54" r="8.54366" stroke-width="0.5" stroke="black" fill="red"/>
  <circle cx="990.859" cy="1087.54" r="5.16166" stroke-width="0.5" stroke="red" fill="red"/>
   </g>
   <g id="cell58">
  <circle cx="121.438" cy="1818.26" r="10.3933" stroke-width="0.5" stroke="black" fill="red"/>
  <circle cx="121.438" cy="1818.26" r="6.27417" stroke-width="0.5" stroke="red" fill="red"/>
   </g>
   <g id="cell98">
  <circle cx="1819.42" cy="699.267" r="10.4613" stroke-width="0.5" stroke="black" fill="red"/>
  <circle cx="1819.42" cy="699.267" r="6.30695" stroke-width="0.5" stroke="red" fill="red"/>
   </g>
   <g id="cell60">
  <circle cx="659.259" cy="34.4101" r="10.5039" stroke-width="0.5" stroke="black" fill="red"/>
  <circle cx="659.259" cy="34.4101" r="6.32657" stroke-width="0.5" stroke="red" fill="red"/>
   </g>
   <g id="cell61">
  <circle cx="1650.17" cy="276.165" r="10.5333" stroke-width="0.5" stroke="black" fill="red"/>
  <circle cx="1650.17" cy="276.165" r="6.33948" stroke-width="0.5" stroke="red" fill="red"/>
   </g>
   <g id="cell62">
  <circle cx="1423.59" cy="1689.28" r="10.5233" stroke-width="0.5" stroke="black" fill="red"/>
  <circle cx="1423.59" cy="1689.28" r="6.33514" stroke-width="0.5" stroke="red" fill="red"/>
   </g>
   <g id="cell63">
  <circle cx="559.629" cy="370.5" r="10.3682" stroke-width="0.5" stroke="black" fill="red"/>
  <circle cx="559.629" cy="370.5" r="6.26172" stroke-width="0.5" stroke="red" fill="red"/>
   </g>
   <g id="cell64">
  <circle cx="1200.69" cy="1091.34" r="10.5039" stroke-width="0.5" stroke="black" fill="red"/>
  <circle cx="1200.69" cy="1091.34" r="6.32657" stroke-width="0.5" stroke="red" fill="red"/>
   </g>
   <g id="cell65">
  <circle cx="293.95" cy="1645.67" r="10.5254" stroke-width="0.5" stroke="black" fill="red"/>
  <circle cx="293.95" cy="1645.67" r="6.33607" stroke-width="0.5" stroke="red" fill="red"/>
   </g>
   <g id="cell66">
  <circle cx="20.2481" cy="271.297" r="10.4796" stroke-width="0.5" stroke="black" fill="red"/>
  <circle cx="20.2481" cy="271.297" r="6.31548" stroke-width="0.5" stroke="red" fill="red"/>
   </g>
   <g id="cell67">
  <circle cx="1140.53" cy="557.673" r="10.2999" stroke-width="0.5" stroke="black" fill="red"/>
  <circle cx="1140.53" cy="557.673" r="6.22699" stroke-width="0.5" stroke="red" fill="red"/>
   </g>
   <g id="cell68">
  <circle cx="1431.68" cy="599.617" r="10.5166" stroke-width="0.5" stroke="black" fill="red"/>
  <circle cx="1431.68" cy="599.617" r="6.33218" stroke-width="0.5" stroke="red" fill="red"/>
   </g>
   <g id="cell69">
  <circle cx="827.952" cy="510.034" r="10.4489" stroke-width="0.5" stroke="black" fill="red"/>
  <circle cx="827.952" cy="510.034" r="6.30112" stroke-width="0.5" stroke="red" fill="red"/>
   </g>
   <g id="cell70">
  <circle cx="1151.87" cy="775.297" r="10.537" stroke-width="0.5" stroke="black" fill="red"/>
  <circle cx="1151.87" cy="775.297" r="6.34103" stroke-width="0.5" stroke="red" fill="red"/>
   </g>
   <g id="cell71">
  <circle cx="1734.97" cy="1174.94" r="8.3784" stroke-width="0.5" stroke="black" fill="red"/>
  <circle cx="1734.97" cy="1174.94" r="5.03921" stroke-width="0.5" stroke="red" fill="red"/>
   </g>
   <g id="cell72">
  <circle cx="439.746" cy="1755.29" r="8.41271" stroke-width="0.5" stroke="black" fill="red"/>
  <circle cx="439.746" cy="1755.29" r="5.05167" stroke-width="0.5" stroke="red" fill="red"/>
   </g>
   <g id="cell73">
  <circle cx="1364.93" cy="862.245" r="8.37321" stroke-width="0.5" stroke="black" fill="red"/>
  <circle cx="1364.93" cy="862.245" r="5.03708" stroke-width="0.5" stroke="red" fill="red"/>
   </g>
   <g id="cell74">
  <circle cx="1710.04" cy="1890.66" r="10.5275" stroke-width="0.5" stroke="black" fill="red"/>
  <circle cx="1710.04" cy="1890.66" r="6.33696" stroke-width="0.5" stroke="red" fill="red"/>
   </g>
   <g id="cell75">
  <circle cx="241.997" cy="575.251" r="8.41271" stroke-width="0.5" stroke="black" fill="red"/>
  <circle cx="241.997" cy="575.251" r="5.05167" stroke-width="0.5" stroke="red" fill="red"/>
   </g>
   <g id="cell76">
  <circle cx="1629.99" cy="759.664" r="10.4573" stroke-width="0.5" stroke="black" fill="red"/>
  <circle cx="1629.99" cy="759.664" r="6.30507" stroke-width="0.5" stroke="red" fill="red"/>
   </g>
   <g id="cell77">
  <circle cx="1408.58" cy="1813.45" r="8.36722" stroke-width="0.5" stroke="black" fill="red"/>
  <circle cx="1408.58" cy="1813.45" r="5.03458" stroke-width="0.5" stroke="red" fill="red"/>
   </g>
   <g id="cell78">
  <circle cx="1157.94" cy="614.273" r="10.1098" stroke-width="0.5" stroke="black" fill="red"/>
  <circle cx="1157.94" cy="614.273" r="6.12585" stroke-width="0.5" stroke="red" fill="red"/>
   </g>
   <g id="cell79">
  <circle cx="1985.16" cy="1443.4" r="10.4651" stroke-width="0.5" stroke="black" fill="red"/>
  <circle cx="1985.16" cy="1443.4" r="6.30877" stroke-width="0.5" stroke="red" fill="red"/>
   </g>
   <g id="cell80">
  <circle cx="1457.5" cy="1312.1" r="10.5387" stroke-width="0.5" stroke="black" fill="red"/>
  <circle cx="1457.5" cy="1312.1" r="6.34177" stroke-width="0.5" stroke="red" fill="red"/>
   </g>
   <g id="cell81">
  <circle cx="1115.38" cy="1901.3" r="10.5066" stroke-width="0.5" stroke="black" fill="red"/>
  <circle cx="1115.38" cy="1901.3" r="6.32777" stroke-width="0.5" stroke="red" fill="red"/>
   </g>
   <g id="cell82">
  <circle cx="1278.9" cy="823.264" r="8.37208" stroke-width="0.5" stroke="black" fill="red"/>
  <circle cx="1278.9" cy="823.264" r="5.03661" stroke-width="0.5" stroke="red" fill="red"/>
   </g>
   <g id="cell83">
  <circle cx="1229.11" cy="1229.63" r="8.38118" stroke-width="0.5" stroke="black" fill="red"/>
  <circle cx="1229.11" cy="1229.63" r="5.04034" stroke-width="0.5" stroke="red" fill="red"/>
   </g>
   <g id="cell84">
  <circle cx="28.0184" cy="911.264" r="9.23685" stroke-width="0.5" stroke="black" fill="red"/>
  <circle cx="28.0184" cy="911.264" r="5.61315" stroke-width="0.5" stroke="red" fill="red"/>
   </g>
   <g id="cell85">
  <circle cx="1421.05" cy="1288" r="10.1879" stroke-width="0.5" stroke="black" fill="red"/>
  <circle cx="1421.05" cy="1288" r="6.16807" stroke-width="0.5" stroke="red" fill="red"/>
   </g>
   <g id="cell86">
  <circle cx="573.737" cy="790.903" r="10.4925" stroke-width="0.5" stroke="black" fill="red"/>
  <circle cx="573.737" cy="790.903" r="6.32139" stroke-width="0.5" stroke="red" fill="red"/>
   </g>
   <g id="cell87">
  <circle cx="1463.59" cy="893.727" r="10.1758" stroke-width="0.5" stroke="black" fill="red"/>
  <circle cx="1463.59" cy="893.727" r="6.16159" stroke-width="0.5" stroke="red" fill="red"/>
   </g>
   <g id="cell88">
  <circle cx="270.925" cy="204.922" r="10.5275" stroke-width="0.5" stroke="black" fill="red"/>
  <circle cx="270.925" cy="204.922" r="6.33696" stroke-width="0.5" stroke="red" fill="red"/>
   </g>
   <g id="cell89">
  <circle cx="199.176" cy="1177.67" r="10.5333" stroke-width="0.5" stroke="black" fill="red"/>
  <circle cx="199.176" cy="1177.67" r="6.33948" stroke-width="0.5" stroke="red" fill="red"/>
   </g>
   <g id="cell90">
  <circle cx="1173.95" cy="1100.96" r="10.4102" stroke-width="0.5" stroke="black" fill="red"/>
  <circle cx="1173.95" cy="1100.96" r="6.2825" stroke-width="0.5" stroke="red" fill="red"/>
   </g>
   <g id="cell91">
  <circle cx="53.1983" cy="1253.11" r="8.36722" stroke-width="0.5" stroke="black" fill="red"/>
  <circle cx="53.1983" cy="1253.11" r="5.03458" stroke-width="0.5" stroke="red" fill="red"/>
   </g>
   <g id="cell99">
  <circle cx="939.391" cy="1990.03" r="8.6563" stroke-width="0.5" stroke="black" fill="red"/>
  <circle cx="939.391" cy="1990.03" r="5.24178" stroke-width="0.5" stroke="red" fill="red"/>
   </g>
   <g id="cell93">
  <circle cx="413.289" cy="1786.57" r="8.38028" stroke-width="0.5" stroke="black" fill="red"/>
  <circle cx="413.289" cy="1786.57" r="5.03997" stroke-width="0.5" stroke="red" fill="red"/>
   </g>
   <g id="cell94">
  <circle cx="767.185" cy="184.224" r="10.5092" stroke-width="0.5" stroke="black" fill="red"/>
  <circle cx="767.185" cy="184.224" r="6.32893" stroke-width="0.5" stroke="red" fill="red"/>
   </g>
   <g id="cell95">
  <circle cx="1981.15" cy="1768.32" r="8.37641" stroke-width="0.5" stroke="black" fill="red"/>
  <circle cx="1981.15" cy="1768.32" r="5.0384" stroke-width="0.5" stroke="red" fill="red"/>
   </g>
   <g id="cell96">
  <circle cx="1676.86" cy="1083.7" r="10.0497" stroke-width="0.5" stroke="black" fill="red"/>
  <circle cx="1676.86" cy="1083.7" r="6.09278" stroke-width="0.5" stroke="red" fill="red"/>
   </g>
   <g id="cell97">
  <circle cx="942.603" cy="164.002" r="10.5039" stroke-width="0.5" stroke="black" fill="red"/>
  <circle cx="942.603" cy="164.002" r="6.32657" stroke-width="0.5" stroke="red" fill="red"/>
   </g>
   <g id="cell101">
  <circle cx="1321.37" cy="1256.07" r="8.58582" stroke-width="0.5" stroke="black" fill="grey"/>
  <circle cx="1321.37" cy="1256.07" r="5.19025" stroke-width="0.5" stroke="grey" fill="grey"/>
   </g>
   <g id="cell102">
  <circle cx="1081.52" cy="1758.17" r="8.38206" stroke-width="0.5" stroke="black" fill="grey"/>
  <circle cx="1081.52" cy="1758.17" r="5.04069" stroke-width="0.5" stroke="grey" fill="grey"/>
   </g>
   <g id="cell103">
  <circle cx="1208.16" cy="1244.94" r="8.42486" stroke-width="0.5" stroke="black" fill="red"/>
  <circle cx="1208.16" cy="1244.94" r="5.07174" stroke-width="0.5" stroke="red" fill="red"/>
   </g>
   <g id="cell104">
  <circle cx="775.91" cy="1875.6" r="8.73879" stroke-width="0.5" stroke="black" fill="grey"/>
  <circle cx="775.91" cy="1875.6" r="5.29775" stroke-width="0.5" stroke="grey" fill="grey"/>
   </g>
   <g id="cell105">
  <circle cx="1148.16" cy="795.394" r="8.73879" stroke-width="0.5" stroke="black" fill="grey"/>
  <circle cx="1148.16" cy="795.394" r="5.29775" stroke-width="0.5" stroke="grey" fill="grey"/>
   </g>
   <g id="cell106">
  <circle cx="430.085" cy="1778.64" r="8.38028" stroke-width="0.5" stroke="black" fill="red"/>
  <circle cx="430.085" cy="1778.64" r="5.03997" stroke-width="0.5" stroke="red" fill="red"/>
   </g>
   <g id="cell107">
  <circle cx="917.241" cy="1255.76" r="8.38028" stroke-width="0.5" stroke="black" fill="grey"/>
  <circle cx="917.241" cy="1255.76" r="5.03997" stroke-width="0.5" stroke="grey" fill="grey"/>
   </g>
   <g id="cell108">
  <circle cx="1746.53" cy="934.545" r="8.37935" stroke-width="0.5" stroke="black" fill="grey"/>
  <circle cx="1746.53" cy="934.545" r="5.0396" stroke-width="0.5" stroke="grey" fill="grey"/>
   </g>
   <g id="cell109">
  <circle cx="1746.75" cy="1199.68" r="8.3784" stroke-width="0.5" stroke="black" fill="red"/>
  <circle cx="1746.75" cy="1199.68" r="5.03921" stroke-width="0.5" stroke="red" fill="red"/>
   </g>
   <g id="cell110">
  <circle cx="974.427" cy="1974" r="8.37742" stroke-width="0.5" stroke="black" fill="red"/>
  <circle cx="974.427" cy="1974" r="5.03881" stroke-width="0.5" stroke="red" fill="red"/>
   </g>
   <g id="cell111">
  <circle cx="1968.73" cy="1760.29" r="8.37641" stroke-width="0.5" stroke="black" fill="red"/>
  <circle cx="1968.73" cy="1760.29" r="5.0384" stroke-width="0.5" stroke="red" fill="red"/>
   </g>
   <g id="cell112">
  <circle cx="1002.1" cy="1066.61" r="8.37641" stroke-width="0.5" stroke="black" fill="red"/>
  <circle cx="1002.1" cy="1066.61" r="5.0384" stroke-width="0.5" stroke="red" fill="red"/>
   </g>
   <g id="cell113">
  <circle cx="673.845" cy="217.672" r="8.37537" stroke-width="0.5" stroke="black" fill="grey"/>
  <circle cx="673.845" cy="217.672" r="5.03798" stroke-width="0.5" stroke="grey" fill="grey"/>
   </g>
   <g id="cell114">
  <circle cx="616.06" cy="1255.32" r="8.37431" stroke-width="0.5" stroke="black" fill="grey"/>
  <circle cx="616.06" cy="1255.32" r="5.03754" stroke-width="0.5" stroke="grey" fill="grey"/>
   </g>
   <g id="cell115">
  <circle cx="1728.81" cy="1899.47" r="8.37431" stroke-width="0.5" stroke="black" fill="grey"/>
  <circle cx="1728.81" cy="1899.47" r="5.03754" stroke-width="0.5" stroke="grey" fill="grey"/>
   </g>
   <g id="cell116">
  <circle cx="328.062" cy="676.052" r="8.37321" stroke-width="0.5" stroke="black" fill="grey"/>
  <circle cx="328.062" cy="676.052" r="5.03708" stroke-width="0.5" stroke="grey" fill="grey"/>
   </g>
   <g id="cell117">
  <circle cx="1886.55" cy="1539.01" r="8.37321" stroke-width="0.5" stroke="black" fill="grey"/>
  <circle cx="1886.55" cy="1539.01" r="5.03708" stroke-width="0.5" stroke="grey" fill="grey"/>
   </g>
   <g id="cell118">
  <circle cx="1343.65" cy="873.936" r="8.37321" stroke-width="0.5" stroke="black" fill="red"/>
  <circle cx="1343.65" cy="873.936" r="5.03708" stroke-width="0.5" stroke="red" fill="red"/>
   </g>
   <g id="cell119">
  <circle cx="1279.24" cy="838.302" r="8.37208" stroke-width="0.5" stroke="black" fill="red"/>
  <circle cx="1279.24" cy="838.302" r="5.03661" stroke-width="0.5" stroke="red" fill="red"/>
   </g>
   <g id="cell120">
  <circle cx="726.78" cy="1655.83" r="8.37208" stroke-width="0.5" stroke="black" fill="grey"/>
  <circle cx="726.78" cy="1655.83" r="5.03661" stroke-width="0.5" stroke="grey" fill="grey"/>
   </g>
   <g id="cell121">
  <circle cx="430.184" cy="864.912" r="8.37092" stroke-width="0.5" stroke="black" fill="grey"/>
  <circle cx="430.184" cy="864.912" r="5.03613" stroke-width="0.5" stroke="grey" fill="grey"/>
   </g>
   <g id="cell122">
  <circle cx="1909.02" cy="225.494" r="8.36972" stroke-width="0.5" stroke="black" fill="grey"/>
  <circle cx="1909.02" cy="225.494" r="5.03563" stroke-width="0.5" stroke="grey" fill="grey"/>
   </g>
   <g id="cell123">
  <circle cx="55.2232" cy="1271.49" r="8.36722" stroke-width="0.5" stroke="black" fill="red"/>
  <circle cx="55.2232" cy="1271.49" r="5.03458" stroke-width="0.5" stroke="red" fill="red"/>
   </g>
   <g id="cell124">
  <circle cx="1401.05" cy="1828.78" r="8.36722" stroke-width="0.5" stroke="black" fill="red"/>
  <circle cx="1401.05" cy="1828.78" r="5.03458" stroke-width="0.5" stroke="red" fill="red"/>
   </g>
  </g>
 </g>
  <rect x="1750" y="2070" width="200" height="20" stroke-width="4" stroke="rgb(255,255,255)" fill="rgb(0,0,0)"/>
  <text x="1762.5" y="2057.5"
   font-family="Arial" font-size="50" fill="black" >
   200 &#956;m
  </text>
  <text x="50" y="2090"
   font-family="Arial" font-size="37.5" fill="black" >
   0 days, 0 hours, 0 minutes, and 22.1925 seconds
  </text>
  <rect x="0" y="140" width="2000" height="2000" stroke-width="4" stroke="rgb(0,0,0)" fill="none"/>
</svg>
