<?xml version="1.0" encoding="UTF-8" standalone="no"?>
<!-- Created with PhysiCell (http://PhysiCell.MathCancer.org/) -->
<svg 
 xmlns:dc="http://purl.org/dc/elements/1.1/" 
 xmlns:cc="http://creativecommons.org/ns#" 
 xmlns:rdf="http://www.w3.org/1999/02/22-rdf-syntax-ns#" 
 xmlns:svg="http://www.w3.org/2000/svg" 
 xmlns="http://www.w3.org/2000/svg" 
 version="1.1" 
 width="2000" 
 height="2140" 
 id="svg2">
  <rect x="0" y="0" width="2000" height="2140" stroke-width="4" stroke="white" fill="white"/>
  <text x="25" y="60"
   font-family="Arial" font-size="50" fill="black" >
   Current time: 0 days, 6 hours, and 40.00 minutes, z = 0.00 &#956;m
  </text>
  <text x="25" y="115"
   font-family="Arial" font-size="47.5" fill="black" >
   100 agents
  </text>
 <g id="tissue" 
    transform="translate(0,2140) scale(1,-1)">
  <g id="ECM">
  </g>
  <g id="cells">
   <g id="cell0">
  <circle cx="1084.5" cy="1150.09" r="9.08642" stroke-width="0.5" stroke="black" fill="grey"/>
  <circle cx="1084.5" cy="1150.09" r="5.51837" stroke-width="0.5" stroke="grey" fill="grey"/>
   </g>
   <g id="cell1">
  <circle cx="1697.2" cy="1200.72" r="9.90658" stroke-width="0.5" stroke="black" fill="grey"/>
  <circle cx="1697.2" cy="1200.72" r="6.01243" stroke-width="0.5" stroke="grey" fill="grey"/>
   </g>
   <g id="cell2">
  <circle cx="1082.87" cy="1702.1" r="10.1879" stroke-width="0.5" stroke="black" fill="grey"/>
  <circle cx="1082.87" cy="1702.1" r="6.16807" stroke-width="0.5" stroke="grey" fill="grey"/>
   </g>
   <g id="cell3">
  <circle cx="1217.73" cy="1266.1" r="9.37686" stroke-width="0.5" stroke="black" fill="grey"/>
  <circle cx="1217.73" cy="1266.1" r="5.69955" stroke-width="0.5" stroke="grey" fill="grey"/>
   </g>
   <g id="cell4">
  <circle cx="903.906" cy="601.256" r="8.41271" stroke-width="0.5" stroke="black" fill="grey"/>
  <circle cx="903.906" cy="601.256" r="5.05167" stroke-width="0.5" stroke="grey" fill="grey"/>
   </g>
   <g id="cell5">
  <circle cx="89.8237" cy="1922.36" r="8.72828" stroke-width="0.5" stroke="black" fill="grey"/>
  <circle cx="89.8237" cy="1922.36" r="5.28134" stroke-width="0.5" stroke="grey" fill="grey"/>
   </g>
   <g id="cell6">
  <circle cx="760.215" cy="933.392" r="8.41271" stroke-width="0.5" stroke="black" fill="grey"/>
  <circle cx="760.215" cy="933.392" r="5.05167" stroke-width="0.5" stroke="grey" fill="grey"/>
   </g>
   <g id="cell7">
  <circle cx="1596.85" cy="1036.08" r="9.7273" stroke-width="0.5" stroke="black" fill="grey"/>
  <circle cx="1596.85" cy="1036.08" r="5.90906" stroke-width="0.5" stroke="grey" fill="grey"/>
   </g>
   <g id="cell8">
  <circle cx="1134.66" cy="815.455" r="10.1758" stroke-width="0.5" stroke="black" fill="grey"/>
  <circle cx="1134.66" cy="815.455" r="6.16159" stroke-width="0.5" stroke="grey" fill="grey"/>
   </g>
   <g id="cell9">
  <circle cx="1660.49" cy="159.958" r="9.00806" stroke-width="0.5" stroke="black" fill="grey"/>
  <circle cx="1660.49" cy="159.958" r="5.46807" stroke-width="0.5" stroke="grey" fill="grey"/>
   </g>
   <g id="cell10">
  <circle cx="178.867" cy="1313.43" r="8.41271" stroke-width="0.5" stroke="black" fill="grey"/>
  <circle cx="178.867" cy="1313.43" r="5.05167" stroke-width="0.5" stroke="grey" fill="grey"/>
   </g>
   <g id="cell11">
  <circle cx="755.606" cy="1649.33" r="10.0497" stroke-width="0.5" stroke="black" fill="grey"/>
  <circle cx="755.606" cy="1649.33" r="6.09278" stroke-width="0.5" stroke="grey" fill="grey"/>
   </g>
   <g id="cell12">
  <circle cx="1585.01" cy="274.375" r="8.96831" stroke-width="0.5" stroke="black" fill="grey"/>
  <circle cx="1585.01" cy="274.375" r="5.44228" stroke-width="0.5" stroke="grey" fill="grey"/>
   </g>
   <g id="cell13">
  <circle cx="1745.83" cy="1923.55" r="10.0806" stroke-width="0.5" stroke="black" fill="grey"/>
  <circle cx="1745.83" cy="1923.55" r="6.10985" stroke-width="0.5" stroke="grey" fill="grey"/>
   </g>
   <g id="cell14">
  <circle cx="1559.37" cy="1617.94" r="8.41271" stroke-width="0.5" stroke="black" fill="grey"/>
  <circle cx="1559.37" cy="1617.94" r="5.05167" stroke-width="0.5" stroke="grey" fill="grey"/>
   </g>
   <g id="cell15">
  <circle cx="1036.14" cy="1555.88" r="9.44256" stroke-width="0.5" stroke="black" fill="grey"/>
  <circle cx="1036.14" cy="1555.88" r="5.73955" stroke-width="0.5" stroke="grey" fill="grey"/>
   </g>
   <g id="cell16">
  <circle cx="258.663" cy="1397.24" r="9.84395" stroke-width="0.5" stroke="black" fill="grey"/>
  <circle cx="258.663" cy="1397.24" r="5.97665" stroke-width="0.5" stroke="grey" fill="grey"/>
   </g>
   <g id="cell17">
  <circle cx="1192.8" cy="284.113" r="9.67603" stroke-width="0.5" stroke="black" fill="grey"/>
  <circle cx="1192.8" cy="284.113" r="5.87901" stroke-width="0.5" stroke="grey" fill="grey"/>
   </g>
   <g id="cell18">
  <circle cx="1867.22" cy="1513.73" r="10.0654" stroke-width="0.5" stroke="black" fill="grey"/>
  <circle cx="1867.22" cy="1513.73" r="6.10145" stroke-width="0.5" stroke="grey" fill="grey"/>
   </g>
   <g id="cell19">
  <circle cx="237.56" cy="848.365" r="8.41271" stroke-width="0.5" stroke="black" fill="grey"/>
  <circle cx="237.56" cy="848.365" r="5.05167" stroke-width="0.5" stroke="grey" fill="grey"/>
   </g>
   <g id="cell20">
  <circle cx="535.881" cy="367.56" r="8.41271" stroke-width="0.5" stroke="black" fill="grey"/>
  <circle cx="535.881" cy="367.56" r="5.05167" stroke-width="0.5" stroke="grey" fill="grey"/>
   </g>
   <g id="cell21">
  <circle cx="1405.92" cy="889.587" r="8.41271" stroke-width="0.5" stroke="black" fill="grey"/>
  <circle cx="1405.92" cy="889.587" r="5.05167" stroke-width="0.5" stroke="grey" fill="grey"/>
   </g>
   <g id="cell22">
  <circle cx="1123.93" cy="264.551" r="8.41271" stroke-width="0.5" stroke="black" fill="grey"/>
  <circle cx="1123.93" cy="264.551" r="5.05167" stroke-width="0.5" stroke="grey" fill="grey"/>
   </g>
   <g id="cell23">
  <circle cx="680.684" cy="1232.78" r="10.1238" stroke-width="0.5" stroke="black" fill="grey"/>
  <circle cx="680.684" cy="1232.78" r="6.13347" stroke-width="0.5" stroke="grey" fill="grey"/>
   </g>
   <g id="cell24">
  <circle cx="1278.68" cy="440.135" r="8.41271" stroke-width="0.5" stroke="black" fill="grey"/>
  <circle cx="1278.68" cy="440.135" r="5.05167" stroke-width="0.5" stroke="grey" fill="grey"/>
   </g>
   <g id="cell25">
  <circle cx="795.257" cy="1862.56" r="10.1758" stroke-width="0.5" stroke="black" fill="grey"/>
  <circle cx="795.257" cy="1862.56" r="6.16159" stroke-width="0.5" stroke="grey" fill="grey"/>
   </g>
   <g id="cell26">
  <circle cx="1360.39" cy="892.461" r="8.41271" stroke-width="0.5" stroke="black" fill="grey"/>
  <circle cx="1360.39" cy="892.461" r="5.05167" stroke-width="0.5" stroke="grey" fill="grey"/>
   </g>
   <g id="cell27">
  <circle cx="1203.8" cy="884.519" r="9.59391" stroke-width="0.5" stroke="black" fill="grey"/>
  <circle cx="1203.8" cy="884.519" r="5.83043" stroke-width="0.5" stroke="grey" fill="grey"/>
   </g>
   <g id="cell28">
  <circle cx="1381.15" cy="188.25" r="9.82189" stroke-width="0.5" stroke="black" fill="grey"/>
  <circle cx="1381.15" cy="188.25" r="5.96395" stroke-width="0.5" stroke="grey" fill="grey"/>
   </g>
   <g id="cell29">
  <circle cx="1951.14" cy="1318.05" r="9.34292" stroke-width="0.5" stroke="black" fill="grey"/>
  <circle cx="1951.14" cy="1318.05" r="5.67875" stroke-width="0.5" stroke="grey" fill="grey"/>
   </g>
   <g id="cell30">
  <circle cx="1341.18" cy="310.61" r="8.96831" stroke-width="0.5" stroke="black" fill="grey"/>
  <circle cx="1341.18" cy="310.61" r="5.44228" stroke-width="0.5" stroke="grey" fill="grey"/>
   </g>
   <g id="cell31">
  <circle cx="715.052" cy="239.219" r="10.0955" stroke-width="0.5" stroke="black" fill="grey"/>
  <circle cx="715.052" cy="239.219" r="6.11797" stroke-width="0.5" stroke="grey" fill="grey"/>
   </g>
   <g id="cell32">
  <circle cx="602.86" cy="1228.11" r="10.0806" stroke-width="0.5" stroke="black" fill="grey"/>
  <circle cx="602.86" cy="1228.11" r="6.10985" stroke-width="0.5" stroke="grey" fill="grey"/>
   </g>
   <g id="cell33">
  <circle cx="666.724" cy="1146.19" r="8.84788" stroke-width="0.5" stroke="black" fill="grey"/>
  <circle cx="666.724" cy="1146.19" r="5.36278" stroke-width="0.5" stroke="grey" fill="grey"/>
   </g>
   <g id="cell34">
  <circle cx="916.605" cy="1251.28" r="10.1634" stroke-width="0.5" stroke="black" fill="grey"/>
  <circle cx="916.605" cy="1251.28" r="6.1549" stroke-width="0.5" stroke="grey" fill="grey"/>
   </g>
   <g id="cell35">
  <circle cx="1881.96" cy="210.104" r="10.0169" stroke-width="0.5" stroke="black" fill="grey"/>
  <circle cx="1881.96" cy="210.104" r="6.07458" stroke-width="0.5" stroke="grey" fill="grey"/>
   </g>
   <g id="cell36">
  <circle cx="396.515" cy="1269.67" r="9.92631" stroke-width="0.5" stroke="black" fill="grey"/>
  <circle cx="396.515" cy="1269.67" r="6.02363" stroke-width="0.5" stroke="grey" fill="grey"/>
   </g>
   <g id="cell37">
  <circle cx="1991.46" cy="1302.02" r="8.41271" stroke-width="0.5" stroke="black" fill="grey"/>
  <circle cx="1991.46" cy="1302.02" r="5.05167" stroke-width="0.5" stroke="grey" fill="grey"/>
   </g>
   <g id="cell38">
  <circle cx="476.002" cy="855.334" r="10.0336" stroke-width="0.5" stroke="black" fill="grey"/>
  <circle cx="476.002" cy="855.334" r="6.08382" stroke-width="0.5" stroke="grey" fill="grey"/>
   </g>
   <g id="cell39">
  <circle cx="912.222" cy="477.285" r="8.41271" stroke-width="0.5" stroke="black" fill="grey"/>
  <circle cx="912.222" cy="477.285" r="5.05167" stroke-width="0.5" stroke="grey" fill="grey"/>
   </g>
   <g id="cell40">
  <circle cx="292.148" cy="675.216" r="10.0654" stroke-width="0.5" stroke="black" fill="grey"/>
  <circle cx="292.148" cy="675.216" r="6.10145" stroke-width="0.5" stroke="grey" fill="grey"/>
   </g>
   <g id="cell41">
  <circle cx="1358.23" cy="1277.33" r="10.1996" stroke-width="0.5" stroke="black" fill="grey"/>
  <circle cx="1358.23" cy="1277.33" r="6.17434" stroke-width="0.5" stroke="grey" fill="grey"/>
   </g>
   <g id="cell42">
  <circle cx="278.565" cy="1559.76" r="9.67603" stroke-width="0.5" stroke="black" fill="grey"/>
  <circle cx="278.565" cy="1559.76" r="5.87901" stroke-width="0.5" stroke="grey" fill="grey"/>
   </g>
   <g id="cell43">
  <circle cx="1897.04" cy="760.513" r="9.84395" stroke-width="0.5" stroke="black" fill="grey"/>
  <circle cx="1897.04" cy="760.513" r="5.97665" stroke-width="0.5" stroke="grey" fill="grey"/>
   </g>
   <g id="cell44">
  <circle cx="1659.22" cy="55.1032" r="9.7273" stroke-width="0.5" stroke="black" fill="grey"/>
  <circle cx="1659.22" cy="55.1032" r="5.90906" stroke-width="0.5" stroke="grey" fill="grey"/>
   </g>
   <g id="cell45">
  <circle cx="1250.17" cy="1717.27" r="9.5053" stroke-width="0.5" stroke="black" fill="grey"/>
  <circle cx="1250.17" cy="1717.27" r="5.77744" stroke-width="0.5" stroke="grey" fill="grey"/>
   </g>
   <g id="cell46">
  <circle cx="190.141" cy="1940.49" r="9.82189" stroke-width="0.5" stroke="black" fill="grey"/>
  <circle cx="190.141" cy="1940.49" r="5.96395" stroke-width="0.5" stroke="grey" fill="grey"/>
   </g>
   <g id="cell47">
  <circle cx="1749.65" cy="924.7" r="10.1506" stroke-width="0.5" stroke="black" fill="grey"/>
  <circle cx="1749.65" cy="924.7" r="6.14798" stroke-width="0.5" stroke="grey" fill="grey"/>
   </g>
   <g id="cell48">
  <circle cx="1944.08" cy="116.673" r="8.84788" stroke-width="0.5" stroke="black" fill="grey"/>
  <circle cx="1944.08" cy="116.673" r="5.36278" stroke-width="0.5" stroke="grey" fill="grey"/>
   </g>
   <g id="cell49">
  <circle cx="894.219" cy="1463.01" r="9.5053" stroke-width="0.5" stroke="black" fill="grey"/>
  <circle cx="894.219" cy="1463.01" r="5.77744" stroke-width="0.5" stroke="grey" fill="grey"/>
   </g>
   <g id="cell50">
  <circle cx="127.912" cy="872.443" r="9.4743" stroke-width="0.5" stroke="black" fill="red"/>
  <circle cx="127.912" cy="872.443" r="5.75875" stroke-width="0.5" stroke="red" fill="red"/>
   </g>
   <g id="cell51">
  <circle cx="1972.76" cy="269.4" r="8.41271" stroke-width="0.5" stroke="black" fill="red"/>
  <circle cx="1972.76" cy="269.4" r="5.05167" stroke-width="0.5" stroke="red" fill="red"/>
   </g>
   <g id="cell52">
  <circle cx="602.404" cy="954.164" r="9.67603" stroke-width="0.5" stroke="black" fill="red"/>
  <circle cx="602.404" cy="954.164" r="5.87901" stroke-width="0.5" stroke="red" fill="red"/>
   </g>
   <g id="cell53">
  <circle cx="1376.42" cy="667.892" r="8.41271" stroke-width="0.5" stroke="black" fill="red"/>
  <circle cx="1376.42" cy="667.892" r="5.05167" stroke-width="0.5" stroke="red" fill="red"/>
   </g>
   <g id="cell54">
  <circle cx="822.797" cy="1825.18" r="9.7992" stroke-width="0.5" stroke="black" fill="red"/>
  <circle cx="822.797" cy="1825.18" r="5.95086" stroke-width="0.5" stroke="red" fill="red"/>
   </g>
   <g id="cell55">
  <circle cx="430.575" cy="1380.45" r="8.41271" stroke-width="0.5" stroke="black" fill="red"/>
  <circle cx="430.575" cy="1380.45" r="5.05167" stroke-width="0.5" stroke="red" fill="red"/>
   </g>
   <g id="cell56">
  <circle cx="1143.68" cy="1707.8" r="8.41271" stroke-width="0.5" stroke="black" fill="red"/>
  <circle cx="1143.68" cy="1707.8" r="5.05167" stroke-width="0.5" stroke="red" fill="red"/>
   </g>
   <g id="cell57">
  <circle cx="1014.59" cy="1072.83" r="10.1098" stroke-width="0.5" stroke="black" fill="red"/>
  <circle cx="1014.59" cy="1072.83" r="6.12585" stroke-width="0.5" stroke="red" fill="red"/>
   </g>
   <g id="cell58">
  <circle cx="165.951" cy="1811.35" r="8.57856" stroke-width="0.5" stroke="black" fill="red"/>
  <circle cx="165.951" cy="1811.35" r="5.17461" stroke-width="0.5" stroke="red" fill="red"/>
   </g>
   <g id="cell59">
  <circle cx="166.225" cy="1858.59" r="1.47065" stroke-width="0.5" stroke="black" fill="red"/>
  <circle cx="166.225" cy="1858.59" r="1.45328" stroke-width="0.5" stroke="black" fill="black"/>
   </g>
   <g id="cell60">
  <circle cx="639.441" cy="40.9901" r="9.5651" stroke-width="0.5" stroke="black" fill="red"/>
  <circle cx="639.441" cy="40.9901" r="5.81327" stroke-width="0.5" stroke="red" fill="red"/>
   </g>
   <g id="cell61">
  <circle cx="1655.5" cy="256.392" r="9.88629" stroke-width="0.5" stroke="black" fill="red"/>
  <circle cx="1655.5" cy="256.392" r="6.00088" stroke-width="0.5" stroke="red" fill="red"/>
   </g>
   <g id="cell62">
  <circle cx="1408.19" cy="1699.23" r="9.77588" stroke-width="0.5" stroke="black" fill="red"/>
  <circle cx="1408.19" cy="1699.23" r="5.93735" stroke-width="0.5" stroke="red" fill="red"/>
   </g>
   <g id="cell63">
  <circle cx="572.069" cy="354.37" r="8.45606" stroke-width="0.5" stroke="black" fill="red"/>
  <circle cx="572.069" cy="354.37" r="5.08296" stroke-width="0.5" stroke="red" fill="red"/>
   </g>
   <g id="cell64">
  <circle cx="1180.74" cy="1112.8" r="9.5651" stroke-width="0.5" stroke="black" fill="red"/>
  <circle cx="1180.74" cy="1112.8" r="5.81327" stroke-width="0.5" stroke="red" fill="red"/>
   </g>
   <g id="cell65">
  <circle cx="307.831" cy="1662.89" r="9.7992" stroke-width="0.5" stroke="black" fill="red"/>
  <circle cx="307.831" cy="1662.89" r="5.95086" stroke-width="0.5" stroke="red" fill="red"/>
   </g>
   <g id="cell66">
  <circle cx="17.8575" cy="288.161" r="9.30826" stroke-width="0.5" stroke="black" fill="red"/>
  <circle cx="17.8575" cy="288.161" r="5.65742" stroke-width="0.5" stroke="red" fill="red"/>
   </g>
   <g id="cell67">
  <circle cx="1166.61" cy="547.43" r="8.41271" stroke-width="0.5" stroke="black" fill="red"/>
  <circle cx="1166.61" cy="547.43" r="5.05167" stroke-width="0.5" stroke="red" fill="red"/>
   </g>
   <g id="cell68">
  <circle cx="1456.65" cy="602.04" r="9.70201" stroke-width="0.5" stroke="black" fill="red"/>
  <circle cx="1456.65" cy="602.04" r="5.89426" stroke-width="0.5" stroke="red" fill="red"/>
   </g>
   <g id="cell69">
  <circle cx="866.05" cy="519.884" r="9.00806" stroke-width="0.5" stroke="black" fill="red"/>
  <circle cx="866.05" cy="519.884" r="5.46807" stroke-width="0.5" stroke="red" fill="red"/>
   </g>
   <g id="cell70">
  <circle cx="1168.45" cy="790.284" r="9.92631" stroke-width="0.5" stroke="black" fill="red"/>
  <circle cx="1168.45" cy="790.284" r="6.02363" stroke-width="0.5" stroke="red" fill="red"/>
   </g>
   <g id="cell71">
  <circle cx="1782.83" cy="1178.87" r="10.1374" stroke-width="0.5" stroke="black" fill="red"/>
  <circle cx="1782.83" cy="1178.87" r="6.14084" stroke-width="0.5" stroke="red" fill="red"/>
   </g>
   <g id="cell72">
  <circle cx="440.984" cy="1766.71" r="8.41271" stroke-width="0.5" stroke="black" fill="red"/>
  <circle cx="440.984" cy="1766.71" r="5.05167" stroke-width="0.5" stroke="red" fill="red"/>
   </g>
   <g id="cell73">
  <circle cx="1362.03" cy="855.32" r="10.0654" stroke-width="0.5" stroke="black" fill="red"/>
  <circle cx="1362.03" cy="855.32" r="6.10145" stroke-width="0.5" stroke="red" fill="red"/>
   </g>
   <g id="cell74">
  <circle cx="1690.09" cy="1923.94" r="9.82189" stroke-width="0.5" stroke="black" fill="red"/>
  <circle cx="1690.09" cy="1923.94" r="5.96395" stroke-width="0.5" stroke="red" fill="red"/>
   </g>
   <g id="cell75">
  <circle cx="234.884" cy="582.838" r="8.41271" stroke-width="0.5" stroke="black" fill="red"/>
  <circle cx="234.884" cy="582.838" r="5.05167" stroke-width="0.5" stroke="red" fill="red"/>
   </g>
   <g id="cell76">
  <circle cx="1630.99" cy="774.594" r="9.08642" stroke-width="0.5" stroke="black" fill="red"/>
  <circle cx="1630.99" cy="774.594" r="5.51837" stroke-width="0.5" stroke="red" fill="red"/>
   </g>
   <g id="cell77">
  <circle cx="1360.92" cy="1786.74" r="9.98223" stroke-width="0.5" stroke="black" fill="red"/>
  <circle cx="1360.92" cy="1786.74" r="6.05517" stroke-width="0.5" stroke="red" fill="red"/>
   </g>
   <g id="cell78">
  <circle cx="1143.59" cy="627.65" r="8.41271" stroke-width="0.5" stroke="black" fill="red"/>
  <circle cx="1143.59" cy="627.65" r="5.05167" stroke-width="0.5" stroke="red" fill="red"/>
   </g>
   <g id="cell79">
  <circle cx="1954.63" cy="1418.64" r="9.16281" stroke-width="0.5" stroke="black" fill="red"/>
  <circle cx="1954.63" cy="1418.64" r="5.56677" stroke-width="0.5" stroke="red" fill="red"/>
   </g>
   <g id="cell80">
  <circle cx="1461.37" cy="1301.26" r="9.94548" stroke-width="0.5" stroke="black" fill="red"/>
  <circle cx="1461.37" cy="1301.26" r="6.03448" stroke-width="0.5" stroke="red" fill="red"/>
   </g>
   <g id="cell81">
  <circle cx="1082.32" cy="1903.99" r="9.59391" stroke-width="0.5" stroke="black" fill="red"/>
  <circle cx="1082.32" cy="1903.99" r="5.83043" stroke-width="0.5" stroke="red" fill="red"/>
   </g>
   <g id="cell82">
  <circle cx="1277.53" cy="807.675" r="10.0497" stroke-width="0.5" stroke="black" fill="red"/>
  <circle cx="1277.53" cy="807.675" r="6.09278" stroke-width="0.5" stroke="red" fill="red"/>
   </g>
   <g id="cell83">
  <circle cx="1208.58" cy="1223.6" r="10.1758" stroke-width="0.5" stroke="black" fill="red"/>
  <circle cx="1208.58" cy="1223.6" r="6.16159" stroke-width="0.5" stroke="red" fill="red"/>
   </g>
   <g id="cell84">
  <circle cx="33.6705" cy="911.739" r="8.41271" stroke-width="0.5" stroke="black" fill="red"/>
  <circle cx="33.6705" cy="911.739" r="5.05167" stroke-width="0.5" stroke="red" fill="red"/>
   </g>
   <g id="cell85">
  <circle cx="1457.88" cy="1336.2" r="8.41271" stroke-width="0.5" stroke="black" fill="red"/>
  <circle cx="1457.88" cy="1336.2" r="5.05167" stroke-width="0.5" stroke="red" fill="red"/>
   </g>
   <g id="cell86">
  <circle cx="572.809" cy="775.235" r="9.44256" stroke-width="0.5" stroke="black" fill="red"/>
  <circle cx="572.809" cy="775.235" r="5.73955" stroke-width="0.5" stroke="red" fill="red"/>
   </g>
   <g id="cell87">
  <circle cx="1491.05" cy="884.049" r="8.41271" stroke-width="0.5" stroke="black" fill="red"/>
  <circle cx="1491.05" cy="884.049" r="5.05167" stroke-width="0.5" stroke="red" fill="red"/>
   </g>
   <g id="cell88">
  <circle cx="260.497" cy="197.274" r="9.82189" stroke-width="0.5" stroke="black" fill="red"/>
  <circle cx="260.497" cy="197.274" r="5.96395" stroke-width="0.5" stroke="red" fill="red"/>
   </g>
   <g id="cell89">
  <circle cx="175.495" cy="1151.69" r="9.88629" stroke-width="0.5" stroke="black" fill="red"/>
  <circle cx="175.495" cy="1151.69" r="6.00088" stroke-width="0.5" stroke="red" fill="red"/>
   </g>
   <g id="cell90">
  <circle cx="1195.87" cy="1082.68" r="8.68937" stroke-width="0.5" stroke="black" fill="red"/>
  <circle cx="1195.87" cy="1082.68" r="5.25417" stroke-width="0.5" stroke="red" fill="red"/>
   </g>
   <g id="cell91">
  <circle cx="56.3812" cy="1273.51" r="9.98223" stroke-width="0.5" stroke="black" fill="red"/>
  <circle cx="56.3812" cy="1273.51" r="6.05517" stroke-width="0.5" stroke="red" fill="red"/>
   </g>
   <g id="cell92">
  <circle cx="1304.21" cy="641.994" r="1.47065" stroke-width="0.5" stroke="black" fill="red"/>
  <circle cx="1304.21" cy="641.994" r="1.45328" stroke-width="0.5" stroke="black" fill="black"/>
   </g>
   <g id="cell93">
  <circle cx="435.39" cy="1789.04" r="10.1634" stroke-width="0.5" stroke="black" fill="red"/>
  <circle cx="435.39" cy="1789.04" r="6.1549" stroke-width="0.5" stroke="red" fill="red"/>
   </g>
   <g id="cell94">
  <circle cx="725.996" cy="185.119" r="9.62199" stroke-width="0.5" stroke="black" fill="red"/>
  <circle cx="725.996" cy="185.119" r="5.8471" stroke-width="0.5" stroke="red" fill="red"/>
   </g>
   <g id="cell95">
  <circle cx="1929.23" cy="1766.39" r="10.1098" stroke-width="0.5" stroke="black" fill="red"/>
  <circle cx="1929.23" cy="1766.39" r="6.12585" stroke-width="0.5" stroke="red" fill="red"/>
   </g>
   <g id="cell96">
  <circle cx="1648.99" cy="1066.58" r="8.41271" stroke-width="0.5" stroke="black" fill="red"/>
  <circle cx="1648.99" cy="1066.58" r="5.05167" stroke-width="0.5" stroke="red" fill="red"/>
   </g>
   <g id="cell97">
  <circle cx="942.771" cy="185.209" r="9.5651" stroke-width="0.5" stroke="black" fill="red"/>
  <circle cx="942.771" cy="185.209" r="5.81327" stroke-width="0.5" stroke="red" fill="red"/>
   </g>
   <g id="cell98">
  <circle cx="1803.03" cy="709.122" r="9.12489" stroke-width="0.5" stroke="black" fill="red"/>
  <circle cx="1803.03" cy="709.122" r="5.54282" stroke-width="0.5" stroke="red" fill="red"/>
   </g>
   <g id="cell99">
  <circle cx="949.039" cy="1990.76" r="10.1238" stroke-width="0.5" stroke="black" fill="red"/>
  <circle cx="949.039" cy="1990.76" r="6.13347" stroke-width="0.5" stroke="red" fill="red"/>
   </g>
  </g>
 </g>
  <rect x="1750" y="2070" width="200" height="20" stroke-width="4" stroke="rgb(255,255,255)" fill="rgb(0,0,0)"/>
  <text x="1762.5" y="2057.5"
   font-family="Arial" font-size="50" fill="black" >
   200 &#956;m
  </text>
  <text x="50" y="2090"
   font-family="Arial" font-size="37.5" fill="black" >
   0 days, 0 hours, 0 minutes, and 9.8630 seconds
  </text>
  <rect x="0" y="140" width="2000" height="2000" stroke-width="4" stroke="rgb(0,0,0)" fill="none"/>
</svg>
