<?xml version="1.0" encoding="UTF-8" standalone="no"?>
<!-- Created with PhysiCell (http://PhysiCell.MathCancer.org/) -->
<svg 
 xmlns:dc="http://purl.org/dc/elements/1.1/" 
 xmlns:cc="http://creativecommons.org/ns#" 
 xmlns:rdf="http://www.w3.org/1999/02/22-rdf-syntax-ns#" 
 xmlns:svg="http://www.w3.org/2000/svg" 
 xmlns="http://www.w3.org/2000/svg" 
 version="1.1" 
 width="2000" 
 height="2140" 
 id="svg2">
  <rect x="0" y="0" width="2000" height="2140" stroke-width="4" stroke="white" fill="white"/>
  <text x="25" y="60"
   font-family="Arial" font-size="50" fill="black" >
   Current time: 0 days, 17 hours, and 0.00 minutes, z = 0.00 &#956;m
  </text>
  <text x="25" y="115"
   font-family="Arial" font-size="47.5" fill="black" >
   15 agents
  </text>
 <g id="tissue" 
    transform="translate(0,2140) scale(1,-1)">
  <g id="ECM">
  </g>
  <g id="cells">
   <g id="cell0">
  <circle cx="1130.49" cy="1220.37" r="8.37431" stroke-width="0.5" stroke="black" fill="grey"/>
  <circle cx="1130.49" cy="1220.37" r="5.03754" stroke-width="0.5" stroke="grey" fill="grey"/>
   </g>
   <g id="cell1">
  <circle cx="1680.04" cy="1229.32" r="10.4446" stroke-width="0.5" stroke="black" fill="grey"/>
  <circle cx="1680.04" cy="1229.32" r="6.29905" stroke-width="0.5" stroke="grey" fill="grey"/>
   </g>
   <g id="cell2">
  <circle cx="1156.88" cy="1703.79" r="10.5333" stroke-width="0.5" stroke="black" fill="grey"/>
  <circle cx="1156.88" cy="1703.79" r="6.33948" stroke-width="0.5" stroke="grey" fill="grey"/>
   </g>
   <g id="cell3">
  <circle cx="1250.38" cy="1303.48" r="8.37431" stroke-width="0.5" stroke="black" fill="grey"/>
  <circle cx="1250.38" cy="1303.48" r="5.03754" stroke-width="0.5" stroke="grey" fill="grey"/>
   </g>
   <g id="cell4">
  <circle cx="871.344" cy="568.39" r="8.38028" stroke-width="0.5" stroke="black" fill="grey"/>
  <circle cx="871.344" cy="568.39" r="5.03997" stroke-width="0.5" stroke="grey" fill="grey"/>
   </g>
   <g id="cell5">
  <circle cx="117.337" cy="1928.62" r="8.38532" stroke-width="0.5" stroke="black" fill="red"/>
  <circle cx="117.337" cy="1928.62" r="5.04199" stroke-width="0.5" stroke="red" fill="red"/>
   </g>
   <g id="cell6">
  <circle cx="758.203" cy="916.838" r="10.1634" stroke-width="0.5" stroke="black" fill="red"/>
  <circle cx="758.203" cy="916.838" r="6.1549" stroke-width="0.5" stroke="red" fill="red"/>
   </g>
   <g id="cell7">
  <circle cx="1601.92" cy="1029.72" r="8.62679" stroke-width="0.5" stroke="black" fill="red"/>
  <circle cx="1601.92" cy="1029.72" r="5.21837" stroke-width="0.5" stroke="red" fill="red"/>
   </g>
   <g id="cell8">
  <circle cx="1126.21" cy="746.718" r="10.5211" stroke-width="0.5" stroke="black" fill="red"/>
  <circle cx="1126.21" cy="746.718" r="6.33419" stroke-width="0.5" stroke="red" fill="red"/>
   </g>
   <g id="cell9">
  <circle cx="1699.03" cy="177.793" r="10.4796" stroke-width="0.5" stroke="black" fill="red"/>
  <circle cx="1699.03" cy="177.793" r="6.31548" stroke-width="0.5" stroke="red" fill="red"/>
   </g>
   <g id="cell11">
  <circle cx="1581.73" cy="1024.44" r="8.48723" stroke-width="0.5" stroke="black" fill="red"/>
  <circle cx="1581.73" cy="1024.44" r="5.11657" stroke-width="0.5" stroke="red" fill="red"/>
   </g>
   <g id="cell12">
  <circle cx="112.335" cy="1949.01" r="3.44649" stroke-width="0.5" stroke="black" fill="red"/>
  <circle cx="112.335" cy="1949.01" r="2.65779" stroke-width="0.5" stroke="black" fill="black"/>
   </g>
   <g id="cell13">
  <circle cx="848.709" cy="559.426" r="8.38028" stroke-width="0.5" stroke="black" fill="grey"/>
  <circle cx="848.709" cy="559.426" r="5.03997" stroke-width="0.5" stroke="grey" fill="grey"/>
   </g>
   <g id="cell14">
  <circle cx="1231.03" cy="1293.25" r="8.37431" stroke-width="0.5" stroke="black" fill="grey"/>
  <circle cx="1231.03" cy="1293.25" r="5.03754" stroke-width="0.5" stroke="grey" fill="grey"/>
   </g>
   <g id="cell15">
  <circle cx="1104.16" cy="1217.04" r="8.37431" stroke-width="0.5" stroke="black" fill="grey"/>
  <circle cx="1104.16" cy="1217.04" r="5.03754" stroke-width="0.5" stroke="grey" fill="grey"/>
   </g>
  </g>
 </g>
  <rect x="1750" y="2070" width="200" height="20" stroke-width="4" stroke="rgb(255,255,255)" fill="rgb(0,0,0)"/>
  <text x="1762.5" y="2057.5"
   font-family="Arial" font-size="50" fill="black" >
   200 &#956;m
  </text>
  <text x="50" y="2090"
   font-family="Arial" font-size="37.5" fill="black" >
   0 days, 0 hours, 0 minutes, and 21.7869 seconds
  </text>
  <rect x="0" y="140" width="2000" height="2000" stroke-width="4" stroke="rgb(0,0,0)" fill="none"/>
</svg>
