<?xml version="1.0" encoding="UTF-8" standalone="no"?>
<!-- Created with PhysiCell (http://PhysiCell.MathCancer.org/) -->
<svg 
 xmlns:dc="http://purl.org/dc/elements/1.1/" 
 xmlns:cc="http://creativecommons.org/ns#" 
 xmlns:rdf="http://www.w3.org/1999/02/22-rdf-syntax-ns#" 
 xmlns:svg="http://www.w3.org/2000/svg" 
 xmlns="http://www.w3.org/2000/svg" 
 version="1.1" 
 width="2000" 
 height="2140" 
 id="svg2">
  <rect x="0" y="0" width="2000" height="2140" stroke-width="4" stroke="white" fill="white"/>
  <text x="25" y="60"
   font-family="Arial" font-size="50" fill="black" >
   Current time: 0 days, 7 hours, and 10.00 minutes, z = 0.00 &#956;m
  </text>
  <text x="25" y="115"
   font-family="Arial" font-size="47.5" fill="black" >
   100 agents
  </text>
 <g id="tissue" 
    transform="translate(0,2140) scale(1,-1)">
  <g id="ECM">
  </g>
  <g id="cells">
   <g id="cell0">
  <circle cx="1112.29" cy="1170.7" r="9.5053" stroke-width="0.5" stroke="black" fill="grey"/>
  <circle cx="1112.29" cy="1170.7" r="5.77744" stroke-width="0.5" stroke="grey" fill="grey"/>
   </g>
   <g id="cell1">
  <circle cx="1693.39" cy="1166.67" r="9.00806" stroke-width="0.5" stroke="black" fill="grey"/>
  <circle cx="1693.39" cy="1166.67" r="5.46807" stroke-width="0.5" stroke="grey" fill="grey"/>
   </g>
   <g id="cell2">
  <circle cx="1125.71" cy="1728.51" r="9.86542" stroke-width="0.5" stroke="black" fill="grey"/>
  <circle cx="1125.71" cy="1728.51" r="5.98895" stroke-width="0.5" stroke="grey" fill="grey"/>
   </g>
   <g id="cell3">
  <circle cx="1243.75" cy="1284.59" r="10.1996" stroke-width="0.5" stroke="black" fill="grey"/>
  <circle cx="1243.75" cy="1284.59" r="6.17434" stroke-width="0.5" stroke="grey" fill="grey"/>
   </g>
   <g id="cell4">
  <circle cx="851.795" cy="613.264" r="9.98223" stroke-width="0.5" stroke="black" fill="grey"/>
  <circle cx="851.795" cy="613.264" r="6.05517" stroke-width="0.5" stroke="grey" fill="grey"/>
   </g>
   <g id="cell5">
  <circle cx="106.712" cy="1966.17" r="8.41271" stroke-width="0.5" stroke="black" fill="grey"/>
  <circle cx="106.712" cy="1966.17" r="5.05167" stroke-width="0.5" stroke="grey" fill="grey"/>
   </g>
   <g id="cell6">
  <circle cx="783.779" cy="930.477" r="9.67603" stroke-width="0.5" stroke="black" fill="grey"/>
  <circle cx="783.779" cy="930.477" r="5.87901" stroke-width="0.5" stroke="grey" fill="grey"/>
   </g>
   <g id="cell7">
  <circle cx="1628.56" cy="1069.67" r="9.96412" stroke-width="0.5" stroke="black" fill="grey"/>
  <circle cx="1628.56" cy="1069.67" r="6.04499" stroke-width="0.5" stroke="grey" fill="grey"/>
   </g>
   <g id="cell8">
  <circle cx="1121.33" cy="771.063" r="9.70201" stroke-width="0.5" stroke="black" fill="grey"/>
  <circle cx="1121.33" cy="771.063" r="5.89426" stroke-width="0.5" stroke="grey" fill="grey"/>
   </g>
   <g id="cell9">
  <circle cx="1698.35" cy="149.393" r="8.61424" stroke-width="0.5" stroke="black" fill="grey"/>
  <circle cx="1698.35" cy="149.393" r="5.20061" stroke-width="0.5" stroke="grey" fill="grey"/>
   </g>
   <g id="cell10">
  <circle cx="169.972" cy="1284.1" r="10.1634" stroke-width="0.5" stroke="black" fill="grey"/>
  <circle cx="169.972" cy="1284.1" r="6.1549" stroke-width="0.5" stroke="grey" fill="grey"/>
   </g>
   <g id="cell11">
  <circle cx="714.975" cy="1673.29" r="9.53557" stroke-width="0.5" stroke="black" fill="grey"/>
  <circle cx="714.975" cy="1673.29" r="5.79561" stroke-width="0.5" stroke="grey" fill="grey"/>
   </g>
   <g id="cell12">
  <circle cx="1539.92" cy="336.54" r="9.88629" stroke-width="0.5" stroke="black" fill="grey"/>
  <circle cx="1539.92" cy="336.54" r="6.00088" stroke-width="0.5" stroke="grey" fill="grey"/>
   </g>
   <g id="cell13">
  <circle cx="1764.18" cy="1955.56" r="8.41271" stroke-width="0.5" stroke="black" fill="grey"/>
  <circle cx="1764.18" cy="1955.56" r="5.05167" stroke-width="0.5" stroke="grey" fill="grey"/>
   </g>
   <g id="cell14">
  <circle cx="1582.87" cy="1571.9" r="9.44256" stroke-width="0.5" stroke="black" fill="grey"/>
  <circle cx="1582.87" cy="1571.9" r="5.73955" stroke-width="0.5" stroke="grey" fill="grey"/>
   </g>
   <g id="cell15">
  <circle cx="1021.73" cy="1581.67" r="10.1506" stroke-width="0.5" stroke="black" fill="grey"/>
  <circle cx="1021.73" cy="1581.67" r="6.14798" stroke-width="0.5" stroke="grey" fill="grey"/>
   </g>
   <g id="cell16">
  <circle cx="229.55" cy="1450.68" r="10.1506" stroke-width="0.5" stroke="black" fill="grey"/>
  <circle cx="229.55" cy="1450.68" r="6.14798" stroke-width="0.5" stroke="grey" fill="grey"/>
   </g>
   <g id="cell17">
  <circle cx="1182.06" cy="292.98" r="10.1506" stroke-width="0.5" stroke="black" fill="grey"/>
  <circle cx="1182.06" cy="292.98" r="6.14798" stroke-width="0.5" stroke="grey" fill="grey"/>
   </g>
   <g id="cell18">
  <circle cx="1872.69" cy="1545.53" r="8.41271" stroke-width="0.5" stroke="black" fill="grey"/>
  <circle cx="1872.69" cy="1545.53" r="5.05167" stroke-width="0.5" stroke="grey" fill="grey"/>
   </g>
   <g id="cell19">
  <circle cx="188.773" cy="836.526" r="8.41271" stroke-width="0.5" stroke="black" fill="grey"/>
  <circle cx="188.773" cy="836.526" r="5.05167" stroke-width="0.5" stroke="grey" fill="grey"/>
   </g>
   <g id="cell20">
  <circle cx="555.898" cy="368.618" r="10.0497" stroke-width="0.5" stroke="black" fill="grey"/>
  <circle cx="555.898" cy="368.618" r="6.09278" stroke-width="0.5" stroke="grey" fill="grey"/>
   </g>
   <g id="cell21">
  <circle cx="1437.04" cy="928.077" r="9.67603" stroke-width="0.5" stroke="black" fill="grey"/>
  <circle cx="1437.04" cy="928.077" r="5.87901" stroke-width="0.5" stroke="grey" fill="grey"/>
   </g>
   <g id="cell22">
  <circle cx="1166.53" cy="226.376" r="10.1238" stroke-width="0.5" stroke="black" fill="grey"/>
  <circle cx="1166.53" cy="226.376" r="6.13347" stroke-width="0.5" stroke="grey" fill="grey"/>
   </g>
   <g id="cell23">
  <circle cx="644.913" cy="1221.8" r="10.0654" stroke-width="0.5" stroke="black" fill="grey"/>
  <circle cx="644.913" cy="1221.8" r="6.10145" stroke-width="0.5" stroke="grey" fill="grey"/>
   </g>
   <g id="cell24">
  <circle cx="1233.49" cy="441.016" r="2.38423" stroke-width="0.5" stroke="black" fill="grey"/>
  <circle cx="1233.49" cy="441.016" r="2.15073" stroke-width="0.5" stroke="black" fill="black"/>
   </g>
   <g id="cell25">
  <circle cx="750.092" cy="1893.42" r="10.0806" stroke-width="0.5" stroke="black" fill="grey"/>
  <circle cx="750.092" cy="1893.42" r="6.10985" stroke-width="0.5" stroke="grey" fill="grey"/>
   </g>
   <g id="cell26">
  <circle cx="1384.71" cy="915.035" r="8.41271" stroke-width="0.5" stroke="black" fill="grey"/>
  <circle cx="1384.71" cy="915.035" r="5.05167" stroke-width="0.5" stroke="grey" fill="grey"/>
   </g>
   <g id="cell27">
  <circle cx="1216.68" cy="846.789" r="9.96412" stroke-width="0.5" stroke="black" fill="grey"/>
  <circle cx="1216.68" cy="846.789" r="6.04499" stroke-width="0.5" stroke="grey" fill="grey"/>
   </g>
   <g id="cell28">
  <circle cx="1403.16" cy="207.678" r="10.1879" stroke-width="0.5" stroke="black" fill="grey"/>
  <circle cx="1403.16" cy="207.678" r="6.16807" stroke-width="0.5" stroke="grey" fill="grey"/>
   </g>
   <g id="cell29">
  <circle cx="1923.34" cy="1347.09" r="10.1879" stroke-width="0.5" stroke="black" fill="grey"/>
  <circle cx="1923.34" cy="1347.09" r="6.16807" stroke-width="0.5" stroke="grey" fill="grey"/>
   </g>
   <g id="cell30">
  <circle cx="1357.79" cy="348.676" r="8.41271" stroke-width="0.5" stroke="black" fill="grey"/>
  <circle cx="1357.79" cy="348.676" r="5.05167" stroke-width="0.5" stroke="grey" fill="grey"/>
   </g>
   <g id="cell31">
  <circle cx="697.715" cy="280.46" r="9.41008" stroke-width="0.5" stroke="black" fill="grey"/>
  <circle cx="697.715" cy="280.46" r="5.71981" stroke-width="0.5" stroke="grey" fill="grey"/>
   </g>
   <g id="cell32">
  <circle cx="673.804" cy="1201.39" r="10.2534" stroke-width="0.5" stroke="black" fill="grey"/>
  <circle cx="673.804" cy="1201.39" r="6.2028" stroke-width="0.5" stroke="grey" fill="grey"/>
   </g>
   <g id="cell33">
  <circle cx="642.762" cy="1141.1" r="8.61424" stroke-width="0.5" stroke="black" fill="grey"/>
  <circle cx="642.762" cy="1141.1" r="5.20061" stroke-width="0.5" stroke="grey" fill="grey"/>
   </g>
   <g id="cell34">
  <circle cx="867.08" cy="1286.37" r="9.5651" stroke-width="0.5" stroke="black" fill="grey"/>
  <circle cx="867.08" cy="1286.37" r="5.81327" stroke-width="0.5" stroke="grey" fill="grey"/>
   </g>
   <g id="cell35">
  <circle cx="1913.34" cy="174.739" r="8.72828" stroke-width="0.5" stroke="black" fill="grey"/>
  <circle cx="1913.34" cy="174.739" r="5.28134" stroke-width="0.5" stroke="grey" fill="grey"/>
   </g>
   <g id="cell36">
  <circle cx="408.661" cy="1246.33" r="10.0654" stroke-width="0.5" stroke="black" fill="grey"/>
  <circle cx="408.661" cy="1246.33" r="6.10145" stroke-width="0.5" stroke="grey" fill="grey"/>
   </g>
   <g id="cell37">
  <circle cx="1973.53" cy="1363.02" r="9.82189" stroke-width="0.5" stroke="black" fill="grey"/>
  <circle cx="1973.53" cy="1363.02" r="5.96395" stroke-width="0.5" stroke="grey" fill="grey"/>
   </g>
   <g id="cell38">
  <circle cx="516.915" cy="866.199" r="8.41271" stroke-width="0.5" stroke="black" fill="grey"/>
  <circle cx="516.915" cy="866.199" r="5.05167" stroke-width="0.5" stroke="grey" fill="grey"/>
   </g>
   <g id="cell39">
  <circle cx="949.147" cy="467.458" r="9.88629" stroke-width="0.5" stroke="black" fill="grey"/>
  <circle cx="949.147" cy="467.458" r="6.00088" stroke-width="0.5" stroke="grey" fill="grey"/>
   </g>
   <g id="cell40">
  <circle cx="341.436" cy="656.28" r="9.86542" stroke-width="0.5" stroke="black" fill="grey"/>
  <circle cx="341.436" cy="656.28" r="5.98895" stroke-width="0.5" stroke="grey" fill="grey"/>
   </g>
   <g id="cell41">
  <circle cx="1328.33" cy="1317.6" r="9.2729" stroke-width="0.5" stroke="black" fill="grey"/>
  <circle cx="1328.33" cy="1317.6" r="5.63555" stroke-width="0.5" stroke="grey" fill="grey"/>
   </g>
   <g id="cell42">
  <circle cx="239.626" cy="1557.59" r="8.41271" stroke-width="0.5" stroke="black" fill="grey"/>
  <circle cx="239.626" cy="1557.59" r="5.05167" stroke-width="0.5" stroke="grey" fill="grey"/>
   </g>
   <g id="cell43">
  <circle cx="1882.4" cy="727.639" r="8.41271" stroke-width="0.5" stroke="black" fill="grey"/>
  <circle cx="1882.4" cy="727.639" r="5.05167" stroke-width="0.5" stroke="grey" fill="grey"/>
   </g>
   <g id="cell44">
  <circle cx="1623.16" cy="40.4659" r="9.75192" stroke-width="0.5" stroke="black" fill="grey"/>
  <circle cx="1623.16" cy="40.4659" r="5.92342" stroke-width="0.5" stroke="grey" fill="grey"/>
   </g>
   <g id="cell45">
  <circle cx="1220.88" cy="1655.06" r="8.41271" stroke-width="0.5" stroke="black" fill="grey"/>
  <circle cx="1220.88" cy="1655.06" r="5.05167" stroke-width="0.5" stroke="grey" fill="grey"/>
   </g>
   <g id="cell46">
  <circle cx="191.099" cy="1902.1" r="8.61424" stroke-width="0.5" stroke="black" fill="grey"/>
  <circle cx="191.099" cy="1902.1" r="5.20061" stroke-width="0.5" stroke="grey" fill="grey"/>
   </g>
   <g id="cell47">
  <circle cx="1762.51" cy="965.999" r="10.0806" stroke-width="0.5" stroke="black" fill="grey"/>
  <circle cx="1762.51" cy="965.999" r="6.10985" stroke-width="0.5" stroke="grey" fill="grey"/>
   </g>
   <g id="cell48">
  <circle cx="1965.91" cy="92.4413" r="10.1238" stroke-width="0.5" stroke="black" fill="grey"/>
  <circle cx="1965.91" cy="92.4413" r="6.13347" stroke-width="0.5" stroke="grey" fill="grey"/>
   </g>
   <g id="cell49">
  <circle cx="878.031" cy="1448.26" r="10.2221" stroke-width="0.5" stroke="black" fill="grey"/>
  <circle cx="878.031" cy="1448.26" r="6.18628" stroke-width="0.5" stroke="grey" fill="grey"/>
   </g>
   <g id="cell50">
  <circle cx="68.218" cy="882.916" r="10.2534" stroke-width="0.5" stroke="black" fill="red"/>
  <circle cx="68.218" cy="882.916" r="6.2028" stroke-width="0.5" stroke="red" fill="red"/>
   </g>
   <g id="cell51">
  <circle cx="1966.03" cy="249.224" r="8.41271" stroke-width="0.5" stroke="black" fill="red"/>
  <circle cx="1966.03" cy="249.224" r="5.05167" stroke-width="0.5" stroke="red" fill="red"/>
   </g>
   <g id="cell52">
  <circle cx="583.369" cy="978.541" r="9.77588" stroke-width="0.5" stroke="black" fill="red"/>
  <circle cx="583.369" cy="978.541" r="5.93735" stroke-width="0.5" stroke="red" fill="red"/>
   </g>
   <g id="cell53">
  <circle cx="1341.11" cy="629.785" r="10.211" stroke-width="0.5" stroke="black" fill="red"/>
  <circle cx="1341.11" cy="629.785" r="6.18041" stroke-width="0.5" stroke="red" fill="red"/>
   </g>
   <g id="cell54">
  <circle cx="784.731" cy="1825.89" r="10.2534" stroke-width="0.5" stroke="black" fill="red"/>
  <circle cx="784.731" cy="1825.89" r="6.2028" stroke-width="0.5" stroke="red" fill="red"/>
   </g>
   <g id="cell55">
  <circle cx="418.072" cy="1390.19" r="10.0654" stroke-width="0.5" stroke="black" fill="red"/>
  <circle cx="418.072" cy="1390.19" r="6.10145" stroke-width="0.5" stroke="red" fill="red"/>
   </g>
   <g id="cell56">
  <circle cx="1162.3" cy="1707.69" r="8.41271" stroke-width="0.5" stroke="black" fill="red"/>
  <circle cx="1162.3" cy="1707.69" r="5.05167" stroke-width="0.5" stroke="red" fill="red"/>
   </g>
   <g id="cell57">
  <circle cx="1021.23" cy="1038.82" r="8.41271" stroke-width="0.5" stroke="black" fill="red"/>
  <circle cx="1021.23" cy="1038.82" r="5.05167" stroke-width="0.5" stroke="red" fill="red"/>
   </g>
   <g id="cell58">
  <circle cx="167.806" cy="1815.6" r="10.0336" stroke-width="0.5" stroke="black" fill="red"/>
  <circle cx="167.806" cy="1815.6" r="6.08382" stroke-width="0.5" stroke="red" fill="red"/>
   </g>
   <g id="cell59">
  <circle cx="171.722" cy="1844.99" r="2.69001" stroke-width="0.5" stroke="black" fill="red"/>
  <circle cx="171.722" cy="1844.99" r="2.43616" stroke-width="0.5" stroke="black" fill="black"/>
   </g>
   <g id="cell60">
  <circle cx="662.709" cy="43.4632" r="10.1879" stroke-width="0.5" stroke="black" fill="red"/>
  <circle cx="662.709" cy="43.4632" r="6.16807" stroke-width="0.5" stroke="red" fill="red"/>
   </g>
   <g id="cell61">
  <circle cx="1682.4" cy="279.11" r="9.67603" stroke-width="0.5" stroke="black" fill="red"/>
  <circle cx="1682.4" cy="279.11" r="5.87901" stroke-width="0.5" stroke="red" fill="red"/>
   </g>
   <g id="cell62">
  <circle cx="1437.48" cy="1661.78" r="8.9283" stroke-width="0.5" stroke="black" fill="red"/>
  <circle cx="1437.48" cy="1661.78" r="5.4161" stroke-width="0.5" stroke="red" fill="red"/>
   </g>
   <g id="cell63">
  <circle cx="536.576" cy="344.32" r="8.41271" stroke-width="0.5" stroke="black" fill="red"/>
  <circle cx="536.576" cy="344.32" r="5.05167" stroke-width="0.5" stroke="red" fill="red"/>
   </g>
   <g id="cell64">
  <circle cx="1163.68" cy="1124.52" r="8.96831" stroke-width="0.5" stroke="black" fill="red"/>
  <circle cx="1163.68" cy="1124.52" r="5.44228" stroke-width="0.5" stroke="red" fill="red"/>
   </g>
   <g id="cell65">
  <circle cx="362.807" cy="1648.68" r="10.0654" stroke-width="0.5" stroke="black" fill="red"/>
  <circle cx="362.807" cy="1648.68" r="6.10145" stroke-width="0.5" stroke="red" fill="red"/>
   </g>
   <g id="cell66">
  <circle cx="29.0356" cy="314.364" r="9.67603" stroke-width="0.5" stroke="black" fill="red"/>
  <circle cx="29.0356" cy="314.364" r="5.87901" stroke-width="0.5" stroke="red" fill="red"/>
   </g>
   <g id="cell67">
  <circle cx="1093.16" cy="542.013" r="9.41008" stroke-width="0.5" stroke="black" fill="red"/>
  <circle cx="1093.16" cy="542.013" r="5.71981" stroke-width="0.5" stroke="red" fill="red"/>
   </g>
   <g id="cell68">
  <circle cx="1462.94" cy="588.388" r="10.0497" stroke-width="0.5" stroke="black" fill="red"/>
  <circle cx="1462.94" cy="588.388" r="6.09278" stroke-width="0.5" stroke="red" fill="red"/>
   </g>
   <g id="cell69">
  <circle cx="880.807" cy="526.264" r="8.41271" stroke-width="0.5" stroke="black" fill="red"/>
  <circle cx="880.807" cy="526.264" r="5.05167" stroke-width="0.5" stroke="red" fill="red"/>
   </g>
   <g id="cell70">
  <circle cx="1169.92" cy="808.131" r="9.90658" stroke-width="0.5" stroke="black" fill="red"/>
  <circle cx="1169.92" cy="808.131" r="6.01243" stroke-width="0.5" stroke="red" fill="red"/>
   </g>
   <g id="cell71">
  <circle cx="1775.38" cy="1130.27" r="9.75192" stroke-width="0.5" stroke="black" fill="red"/>
  <circle cx="1775.38" cy="1130.27" r="5.92342" stroke-width="0.5" stroke="red" fill="red"/>
   </g>
   <g id="cell72">
  <circle cx="454.401" cy="1809" r="8.57856" stroke-width="0.5" stroke="black" fill="red"/>
  <circle cx="454.401" cy="1809" r="5.17461" stroke-width="0.5" stroke="red" fill="red"/>
   </g>
   <g id="cell73">
  <circle cx="1409.27" cy="884.238" r="10.1098" stroke-width="0.5" stroke="black" fill="red"/>
  <circle cx="1409.27" cy="884.238" r="6.12585" stroke-width="0.5" stroke="red" fill="red"/>
   </g>
   <g id="cell74">
  <circle cx="1696.34" cy="1928.11" r="10.0955" stroke-width="0.5" stroke="black" fill="red"/>
  <circle cx="1696.34" cy="1928.11" r="6.11797" stroke-width="0.5" stroke="red" fill="red"/>
   </g>
   <g id="cell75">
  <circle cx="207.798" cy="603.272" r="8.41271" stroke-width="0.5" stroke="black" fill="red"/>
  <circle cx="207.798" cy="603.272" r="5.05167" stroke-width="0.5" stroke="red" fill="red"/>
   </g>
   <g id="cell76">
  <circle cx="1609.31" cy="836.412" r="9.41008" stroke-width="0.5" stroke="black" fill="red"/>
  <circle cx="1609.31" cy="836.412" r="5.71981" stroke-width="0.5" stroke="red" fill="red"/>
   </g>
   <g id="cell77">
  <circle cx="1368.56" cy="1746.87" r="9.04745" stroke-width="0.5" stroke="black" fill="red"/>
  <circle cx="1368.56" cy="1746.87" r="5.49345" stroke-width="0.5" stroke="red" fill="red"/>
   </g>
   <g id="cell78">
  <circle cx="1207.93" cy="645.592" r="9.04745" stroke-width="0.5" stroke="black" fill="red"/>
  <circle cx="1207.93" cy="645.592" r="5.49345" stroke-width="0.5" stroke="red" fill="red"/>
   </g>
   <g id="cell79">
  <circle cx="1923.29" cy="1381.91" r="8.41271" stroke-width="0.5" stroke="black" fill="red"/>
  <circle cx="1923.29" cy="1381.91" r="5.05167" stroke-width="0.5" stroke="red" fill="red"/>
   </g>
   <g id="cell80">
  <circle cx="1432.47" cy="1288.46" r="9.75192" stroke-width="0.5" stroke="black" fill="red"/>
  <circle cx="1432.47" cy="1288.46" r="5.92342" stroke-width="0.5" stroke="red" fill="red"/>
   </g>
   <g id="cell81">
  <circle cx="1073.97" cy="1890.12" r="2.81546" stroke-width="0.5" stroke="black" fill="red"/>
  <circle cx="1073.97" cy="1890.12" r="2.48155" stroke-width="0.5" stroke="black" fill="black"/>
   </g>
   <g id="cell82">
  <circle cx="1258.48" cy="786.914" r="9.82189" stroke-width="0.5" stroke="black" fill="red"/>
  <circle cx="1258.48" cy="786.914" r="5.96395" stroke-width="0.5" stroke="red" fill="red"/>
   </g>
   <g id="cell83">
  <circle cx="1258.08" cy="1238.32" r="8.88811" stroke-width="0.5" stroke="black" fill="red"/>
  <circle cx="1258.08" cy="1238.32" r="5.38958" stroke-width="0.5" stroke="red" fill="red"/>
   </g>
   <g id="cell84">
  <circle cx="23.1121" cy="945.882" r="10.1758" stroke-width="0.5" stroke="black" fill="red"/>
  <circle cx="23.1121" cy="945.882" r="6.16159" stroke-width="0.5" stroke="red" fill="red"/>
   </g>
   <g id="cell85">
  <circle cx="1413.54" cy="1299.4" r="8.41271" stroke-width="0.5" stroke="black" fill="red"/>
  <circle cx="1413.54" cy="1299.4" r="5.05167" stroke-width="0.5" stroke="red" fill="red"/>
   </g>
   <g id="cell86">
  <circle cx="585.326" cy="791.005" r="8.41271" stroke-width="0.5" stroke="black" fill="red"/>
  <circle cx="585.326" cy="791.005" r="5.05167" stroke-width="0.5" stroke="red" fill="red"/>
   </g>
   <g id="cell87">
  <circle cx="1482.21" cy="871.985" r="9.67603" stroke-width="0.5" stroke="black" fill="red"/>
  <circle cx="1482.21" cy="871.985" r="5.87901" stroke-width="0.5" stroke="red" fill="red"/>
   </g>
   <g id="cell88">
  <circle cx="286.079" cy="186.136" r="9.75192" stroke-width="0.5" stroke="black" fill="red"/>
  <circle cx="286.079" cy="186.136" r="5.92342" stroke-width="0.5" stroke="red" fill="red"/>
   </g>
   <g id="cell89">
  <circle cx="183.057" cy="1160.44" r="8.41271" stroke-width="0.5" stroke="black" fill="red"/>
  <circle cx="183.057" cy="1160.44" r="5.05167" stroke-width="0.5" stroke="red" fill="red"/>
   </g>
   <g id="cell90">
  <circle cx="1173" cy="1106.41" r="8.41271" stroke-width="0.5" stroke="black" fill="red"/>
  <circle cx="1173" cy="1106.41" r="5.05167" stroke-width="0.5" stroke="red" fill="red"/>
   </g>
   <g id="cell91">
  <circle cx="49.1911" cy="1286.79" r="8.41271" stroke-width="0.5" stroke="black" fill="red"/>
  <circle cx="49.1911" cy="1286.79" r="5.05167" stroke-width="0.5" stroke="red" fill="red"/>
   </g>
   <g id="cell92">
  <circle cx="1265.8" cy="653.875" r="10.2534" stroke-width="0.5" stroke="black" fill="red"/>
  <circle cx="1265.8" cy="653.875" r="6.2028" stroke-width="0.5" stroke="red" fill="red"/>
   </g>
   <g id="cell93">
  <circle cx="434.846" cy="1802.23" r="9.20015" stroke-width="0.5" stroke="black" fill="red"/>
  <circle cx="434.846" cy="1802.23" r="5.59022" stroke-width="0.5" stroke="red" fill="red"/>
   </g>
   <g id="cell94">
  <circle cx="766.407" cy="199.551" r="9.94548" stroke-width="0.5" stroke="black" fill="red"/>
  <circle cx="766.407" cy="199.551" r="6.03448" stroke-width="0.5" stroke="red" fill="red"/>
   </g>
   <g id="cell95">
  <circle cx="1982.33" cy="1762.89" r="9.86542" stroke-width="0.5" stroke="black" fill="red"/>
  <circle cx="1982.33" cy="1762.89" r="5.98895" stroke-width="0.5" stroke="red" fill="red"/>
   </g>
   <g id="cell96">
  <circle cx="1619.52" cy="1104.12" r="10.0336" stroke-width="0.5" stroke="black" fill="red"/>
  <circle cx="1619.52" cy="1104.12" r="6.08382" stroke-width="0.5" stroke="red" fill="red"/>
   </g>
   <g id="cell97">
  <circle cx="872.161" cy="204.456" r="10.1996" stroke-width="0.5" stroke="black" fill="red"/>
  <circle cx="872.161" cy="204.456" r="6.17434" stroke-width="0.5" stroke="red" fill="red"/>
   </g>
   <g id="cell98">
  <circle cx="1804.64" cy="697.204" r="10.2328" stroke-width="0.5" stroke="black" fill="red"/>
  <circle cx="1804.64" cy="697.204" r="6.19197" stroke-width="0.5" stroke="red" fill="red"/>
   </g>
   <g id="cell99">
  <circle cx="919.09" cy="1966" r="10.2433" stroke-width="0.5" stroke="black" fill="red"/>
  <circle cx="919.09" cy="1966" r="6.19748" stroke-width="0.5" stroke="red" fill="red"/>
   </g>
  </g>
 </g>
  <rect x="1750" y="2070" width="200" height="20" stroke-width="4" stroke="rgb(255,255,255)" fill="rgb(0,0,0)"/>
  <text x="1762.5" y="2057.5"
   font-family="Arial" font-size="50" fill="black" >
   200 &#956;m
  </text>
  <text x="50" y="2090"
   font-family="Arial" font-size="37.5" fill="black" >
   0 days, 0 hours, 0 minutes, and 10.7161 seconds
  </text>
  <rect x="0" y="140" width="2000" height="2000" stroke-width="4" stroke="rgb(0,0,0)" fill="none"/>
</svg>
