<?xml version="1.0" encoding="UTF-8" standalone="no"?>
<!-- Created with PhysiCell (http://PhysiCell.MathCancer.org/) -->
<svg 
 xmlns:dc="http://purl.org/dc/elements/1.1/" 
 xmlns:cc="http://creativecommons.org/ns#" 
 xmlns:rdf="http://www.w3.org/1999/02/22-rdf-syntax-ns#" 
 xmlns:svg="http://www.w3.org/2000/svg" 
 xmlns="http://www.w3.org/2000/svg" 
 version="1.1" 
 width="2000" 
 height="2140" 
 id="svg2">
  <rect x="0" y="0" width="2000" height="2140" stroke-width="4" stroke="white" fill="white"/>
  <text x="25" y="60"
   font-family="Arial" font-size="50" fill="black" >
   Current time: 1 days, 1 hours, and 0.00 minutes, z = 0.00 &#956;m
  </text>
  <text x="25" y="115"
   font-family="Arial" font-size="47.5" fill="black" >
   185 agents
  </text>
 <g id="tissue" 
    transform="translate(0,2140) scale(1,-1)">
  <g id="ECM">
  </g>
  <g id="cells">
   <g id="cell0">
  <circle cx="1157.8" cy="1236.02" r="9.71918" stroke-width="0.5" stroke="black" fill="grey"/>
  <circle cx="1157.8" cy="1236.02" r="5.90634" stroke-width="0.5" stroke="grey" fill="grey"/>
   </g>
   <g id="cell1">
  <circle cx="1659.58" cy="1287.83" r="10.0922" stroke-width="0.5" stroke="black" fill="grey"/>
  <circle cx="1659.58" cy="1287.83" r="6.11699" stroke-width="0.5" stroke="grey" fill="grey"/>
   </g>
   <g id="cell2">
  <circle cx="1091.71" cy="1738.68" r="9.96095" stroke-width="0.5" stroke="black" fill="grey"/>
  <circle cx="1091.71" cy="1738.68" r="6.04403" stroke-width="0.5" stroke="grey" fill="grey"/>
   </g>
   <g id="cell3">
  <circle cx="1228.65" cy="1306.73" r="8.84438" stroke-width="0.5" stroke="black" fill="grey"/>
  <circle cx="1228.65" cy="1306.73" r="5.3617" stroke-width="0.5" stroke="grey" fill="grey"/>
   </g>
   <g id="cell4">
  <circle cx="901.159" cy="648.251" r="10.2983" stroke-width="0.5" stroke="black" fill="grey"/>
  <circle cx="901.159" cy="648.251" r="6.22654" stroke-width="0.5" stroke="grey" fill="grey"/>
   </g>
   <g id="cell5">
  <circle cx="116.98" cy="1921.65" r="10.5275" stroke-width="0.5" stroke="black" fill="grey"/>
  <circle cx="116.98" cy="1921.65" r="6.33696" stroke-width="0.5" stroke="grey" fill="grey"/>
   </g>
   <g id="cell6">
  <circle cx="845.534" cy="940.923" r="9.81733" stroke-width="0.5" stroke="black" fill="grey"/>
  <circle cx="845.534" cy="940.923" r="5.96251" stroke-width="0.5" stroke="grey" fill="grey"/>
   </g>
   <g id="cell7">
  <circle cx="1515.92" cy="1030.69" r="9.79244" stroke-width="0.5" stroke="black" fill="grey"/>
  <circle cx="1515.92" cy="1030.69" r="5.94864" stroke-width="0.5" stroke="grey" fill="grey"/>
   </g>
   <g id="cell166">
  <circle cx="675.572" cy="995.71" r="9.15728" stroke-width="0.5" stroke="black" fill="red"/>
  <circle cx="675.572" cy="995.71" r="5.56497" stroke-width="0.5" stroke="red" fill="red"/>
   </g>
   <g id="cell9">
  <circle cx="1669.02" cy="203.666" r="8.36722" stroke-width="0.5" stroke="black" fill="grey"/>
  <circle cx="1669.02" cy="203.666" r="5.03458" stroke-width="0.5" stroke="grey" fill="grey"/>
   </g>
   <g id="cell10">
  <circle cx="184.235" cy="1267.55" r="9.67326" stroke-width="0.5" stroke="black" fill="grey"/>
  <circle cx="184.235" cy="1267.55" r="5.87817" stroke-width="0.5" stroke="grey" fill="grey"/>
   </g>
   <g id="cell11">
  <circle cx="793.315" cy="1688.45" r="10.2715" stroke-width="0.5" stroke="black" fill="grey"/>
  <circle cx="793.315" cy="1688.45" r="6.21261" stroke-width="0.5" stroke="grey" fill="grey"/>
   </g>
   <g id="cell12">
  <circle cx="1506.23" cy="296.987" r="10.1841" stroke-width="0.5" stroke="black" fill="grey"/>
  <circle cx="1506.23" cy="296.987" r="6.16692" stroke-width="0.5" stroke="grey" fill="grey"/>
   </g>
   <g id="cell13">
  <circle cx="1691.54" cy="1949.3" r="9.23421" stroke-width="0.5" stroke="black" fill="grey"/>
  <circle cx="1691.54" cy="1949.3" r="5.61234" stroke-width="0.5" stroke="grey" fill="grey"/>
   </g>
   <g id="cell14">
  <circle cx="1649.2" cy="1565.01" r="10.0913" stroke-width="0.5" stroke="black" fill="grey"/>
  <circle cx="1649.2" cy="1565.01" r="6.11668" stroke-width="0.5" stroke="grey" fill="grey"/>
   </g>
   <g id="cell15">
  <circle cx="996.121" cy="1572.13" r="9.81679" stroke-width="0.5" stroke="black" fill="grey"/>
  <circle cx="996.121" cy="1572.13" r="5.96233" stroke-width="0.5" stroke="grey" fill="grey"/>
   </g>
   <g id="cell188">
  <circle cx="892.037" cy="1443.71" r="8.38682" stroke-width="0.5" stroke="black" fill="grey"/>
  <circle cx="892.037" cy="1443.71" r="5.04258" stroke-width="0.5" stroke="grey" fill="grey"/>
   </g>
   <g id="cell17">
  <circle cx="1128.58" cy="301.942" r="2.74707" stroke-width="0.5" stroke="black" fill="grey"/>
  <circle cx="1128.58" cy="301.942" r="2.5162" stroke-width="0.5" stroke="black" fill="black"/>
   </g>
   <g id="cell18">
  <circle cx="1869.55" cy="1557.39" r="8.40884" stroke-width="0.5" stroke="black" fill="grey"/>
  <circle cx="1869.55" cy="1557.39" r="5.05057" stroke-width="0.5" stroke="grey" fill="grey"/>
   </g>
   <g id="cell19">
  <circle cx="191.096" cy="839.619" r="8.84086" stroke-width="0.5" stroke="black" fill="grey"/>
  <circle cx="191.096" cy="839.619" r="5.36049" stroke-width="0.5" stroke="grey" fill="grey"/>
   </g>
   <g id="cell20">
  <circle cx="527.973" cy="364.98" r="8.49926" stroke-width="0.5" stroke="black" fill="grey"/>
  <circle cx="527.973" cy="364.98" r="5.12115" stroke-width="0.5" stroke="grey" fill="grey"/>
   </g>
   <g id="cell21">
  <circle cx="1494.59" cy="804.484" r="8.41023" stroke-width="0.5" stroke="black" fill="grey"/>
  <circle cx="1494.59" cy="804.484" r="5.051" stroke-width="0.5" stroke="grey" fill="grey"/>
   </g>
   <g id="cell22">
  <circle cx="1164.13" cy="318.948" r="10.392" stroke-width="0.5" stroke="black" fill="grey"/>
  <circle cx="1164.13" cy="318.948" r="6.27383" stroke-width="0.5" stroke="grey" fill="grey"/>
   </g>
   <g id="cell23">
  <circle cx="610.895" cy="1252.75" r="10.3667" stroke-width="0.5" stroke="black" fill="grey"/>
  <circle cx="610.895" cy="1252.75" r="6.2613" stroke-width="0.5" stroke="grey" fill="grey"/>
   </g>
   <g id="cell24">
  <circle cx="1207.27" cy="434.371" r="8.40494" stroke-width="0.5" stroke="black" fill="grey"/>
  <circle cx="1207.27" cy="434.371" r="5.04929" stroke-width="0.5" stroke="grey" fill="grey"/>
   </g>
   <g id="cell25">
  <circle cx="703.569" cy="1833.07" r="9.22152" stroke-width="0.5" stroke="black" fill="grey"/>
  <circle cx="703.569" cy="1833.07" r="5.60766" stroke-width="0.5" stroke="grey" fill="grey"/>
   </g>
   <g id="cell26">
  <circle cx="1310.4" cy="937.507" r="10.3592" stroke-width="0.5" stroke="black" fill="grey"/>
  <circle cx="1310.4" cy="937.507" r="6.25771" stroke-width="0.5" stroke="grey" fill="grey"/>
   </g>
   <g id="cell27">
  <circle cx="1205.94" cy="891.016" r="8.40472" stroke-width="0.5" stroke="black" fill="grey"/>
  <circle cx="1205.94" cy="891.016" r="5.04922" stroke-width="0.5" stroke="grey" fill="grey"/>
   </g>
   <g id="cell28">
  <circle cx="1395.79" cy="171.595" r="10.1073" stroke-width="0.5" stroke="black" fill="grey"/>
  <circle cx="1395.79" cy="171.595" r="6.1251" stroke-width="0.5" stroke="grey" fill="grey"/>
   </g>
   <g id="cell29">
  <circle cx="1883.87" cy="1379.67" r="8.40403" stroke-width="0.5" stroke="black" fill="grey"/>
  <circle cx="1883.87" cy="1379.67" r="5.04898" stroke-width="0.5" stroke="grey" fill="grey"/>
   </g>
   <g id="cell30">
  <circle cx="1366.38" cy="341.391" r="9.88449" stroke-width="0.5" stroke="black" fill="grey"/>
  <circle cx="1366.38" cy="341.391" r="6.00036" stroke-width="0.5" stroke="grey" fill="grey"/>
   </g>
   <g id="cell186">
  <circle cx="1202.57" cy="1242.02" r="9.14219" stroke-width="0.5" stroke="black" fill="red"/>
  <circle cx="1202.57" cy="1242.02" r="5.55918" stroke-width="0.5" stroke="red" fill="red"/>
   </g>
   <g id="cell32">
  <circle cx="680.889" cy="1256.87" r="10.373" stroke-width="0.5" stroke="black" fill="grey"/>
  <circle cx="680.889" cy="1256.87" r="6.2645" stroke-width="0.5" stroke="grey" fill="grey"/>
   </g>
   <g id="cell33">
  <circle cx="660.082" cy="1118.91" r="9.15906" stroke-width="0.5" stroke="black" fill="grey"/>
  <circle cx="660.082" cy="1118.91" r="5.56559" stroke-width="0.5" stroke="grey" fill="grey"/>
   </g>
   <g id="cell34">
  <circle cx="916.11" cy="1256.41" r="10.0896" stroke-width="0.5" stroke="black" fill="grey"/>
  <circle cx="916.11" cy="1256.41" r="6.1161" stroke-width="0.5" stroke="grey" fill="grey"/>
   </g>
   <g id="cell35">
  <circle cx="1934.01" cy="207.618" r="10.5387" stroke-width="0.5" stroke="black" fill="grey"/>
  <circle cx="1934.01" cy="207.618" r="6.34177" stroke-width="0.5" stroke="grey" fill="grey"/>
   </g>
   <g id="cell36">
  <circle cx="437.581" cy="1240.11" r="10.5117" stroke-width="0.5" stroke="black" fill="grey"/>
  <circle cx="437.581" cy="1240.11" r="6.33005" stroke-width="0.5" stroke="grey" fill="grey"/>
   </g>
   <g id="cell37">
  <circle cx="1927.5" cy="1292.78" r="10.5012" stroke-width="0.5" stroke="black" fill="grey"/>
  <circle cx="1927.5" cy="1292.78" r="6.32534" stroke-width="0.5" stroke="grey" fill="grey"/>
   </g>
   <g id="cell38">
  <circle cx="510.996" cy="815.609" r="10.2801" stroke-width="0.5" stroke="black" fill="grey"/>
  <circle cx="510.996" cy="815.609" r="6.21723" stroke-width="0.5" stroke="grey" fill="grey"/>
   </g>
   <g id="cell39">
  <circle cx="924.317" cy="475.162" r="10.2079" stroke-width="0.5" stroke="black" fill="grey"/>
  <circle cx="924.317" cy="475.162" r="6.17948" stroke-width="0.5" stroke="grey" fill="grey"/>
   </g>
   <g id="cell40">
  <circle cx="314.022" cy="699.115" r="9.79487" stroke-width="0.5" stroke="black" fill="grey"/>
  <circle cx="314.022" cy="699.115" r="5.94949" stroke-width="0.5" stroke="grey" fill="grey"/>
   </g>
   <g id="cell41">
  <circle cx="1415.39" cy="1273.33" r="8.39664" stroke-width="0.5" stroke="black" fill="grey"/>
  <circle cx="1415.39" cy="1273.33" r="5.04633" stroke-width="0.5" stroke="grey" fill="grey"/>
   </g>
   <g id="cell42">
  <circle cx="269.534" cy="1525.11" r="10.2199" stroke-width="0.5" stroke="black" fill="grey"/>
  <circle cx="269.534" cy="1525.11" r="6.18566" stroke-width="0.5" stroke="grey" fill="grey"/>
   </g>
   <g id="cell43">
  <circle cx="1868.38" cy="740.895" r="10.4193" stroke-width="0.5" stroke="black" fill="grey"/>
  <circle cx="1868.38" cy="740.895" r="6.28721" stroke-width="0.5" stroke="grey" fill="grey"/>
   </g>
   <g id="cell44">
  <circle cx="1633.77" cy="10.1111" r="10.4192" stroke-width="0.5" stroke="black" fill="grey"/>
  <circle cx="1633.77" cy="10.1111" r="6.28717" stroke-width="0.5" stroke="grey" fill="grey"/>
   </g>
   <g id="cell45">
  <circle cx="1248.34" cy="1672.79" r="10.3375" stroke-width="0.5" stroke="black" fill="grey"/>
  <circle cx="1248.34" cy="1672.79" r="6.24681" stroke-width="0.5" stroke="grey" fill="grey"/>
   </g>
   <g id="cell46">
  <circle cx="180.619" cy="1980.64" r="9.08328" stroke-width="0.5" stroke="black" fill="grey"/>
  <circle cx="180.619" cy="1980.64" r="5.5174" stroke-width="0.5" stroke="grey" fill="grey"/>
   </g>
   <g id="cell47">
  <circle cx="1767.12" cy="903.889" r="9.14219" stroke-width="0.5" stroke="black" fill="grey"/>
  <circle cx="1767.12" cy="903.889" r="5.55918" stroke-width="0.5" stroke="grey" fill="grey"/>
   </g>
   <g id="cell48">
  <circle cx="1896.36" cy="127.94" r="9.67326" stroke-width="0.5" stroke="black" fill="grey"/>
  <circle cx="1896.36" cy="127.94" r="5.87817" stroke-width="0.5" stroke="grey" fill="grey"/>
   </g>
   <g id="cell49">
  <circle cx="907.149" cy="1412.66" r="8.62679" stroke-width="0.5" stroke="black" fill="grey"/>
  <circle cx="907.149" cy="1412.66" r="5.21837" stroke-width="0.5" stroke="grey" fill="grey"/>
   </g>
   <g id="cell50">
  <circle cx="91.7282" cy="934.973" r="9.4694" stroke-width="0.5" stroke="black" fill="red"/>
  <circle cx="91.7282" cy="934.973" r="5.75718" stroke-width="0.5" stroke="red" fill="red"/>
   </g>
   <g id="cell51">
  <circle cx="1987.68" cy="239.656" r="10.1958" stroke-width="0.5" stroke="black" fill="red"/>
  <circle cx="1987.68" cy="239.656" r="6.17319" stroke-width="0.5" stroke="red" fill="red"/>
   </g>
   <g id="cell52">
  <circle cx="619.781" cy="975.053" r="10.2176" stroke-width="0.5" stroke="black" fill="red"/>
  <circle cx="619.781" cy="975.053" r="6.18491" stroke-width="0.5" stroke="red" fill="red"/>
   </g>
   <g id="cell53">
  <circle cx="1309.63" cy="649.18" r="8.96129" stroke-width="0.5" stroke="black" fill="red"/>
  <circle cx="1309.63" cy="649.18" r="5.43997" stroke-width="0.5" stroke="red" fill="red"/>
   </g>
   <g id="cell54">
  <circle cx="874.471" cy="1877.04" r="10.2412" stroke-width="0.5" stroke="black" fill="red"/>
  <circle cx="874.471" cy="1877.04" r="6.1969" stroke-width="0.5" stroke="red" fill="red"/>
   </g>
   <g id="cell55">
  <circle cx="447.696" cy="1402.55" r="10.5254" stroke-width="0.5" stroke="black" fill="red"/>
  <circle cx="447.696" cy="1402.55" r="6.33607" stroke-width="0.5" stroke="red" fill="red"/>
   </g>
   <g id="cell56">
  <circle cx="1197.14" cy="1728.21" r="8.42284" stroke-width="0.5" stroke="black" fill="red"/>
  <circle cx="1197.14" cy="1728.21" r="5.0625" stroke-width="0.5" stroke="red" fill="red"/>
   </g>
   <g id="cell57">
  <circle cx="990.865" cy="1082.66" r="9.40437" stroke-width="0.5" stroke="black" fill="red"/>
  <circle cx="990.865" cy="1082.66" r="5.71795" stroke-width="0.5" stroke="red" fill="red"/>
   </g>
   <g id="cell58">
  <circle cx="161.767" cy="1876.71" r="10.2091" stroke-width="0.5" stroke="black" fill="red"/>
  <circle cx="161.767" cy="1876.71" r="6.17986" stroke-width="0.5" stroke="red" fill="red"/>
   </g>
   <g id="cell59">
  <circle cx="200.203" cy="1802.61" r="10.4337" stroke-width="0.5" stroke="black" fill="red"/>
  <circle cx="200.203" cy="1802.61" r="6.29421" stroke-width="0.5" stroke="red" fill="red"/>
   </g>
   <g id="cell60">
  <circle cx="647.776" cy="74.7648" r="10.373" stroke-width="0.5" stroke="black" fill="red"/>
  <circle cx="647.776" cy="74.7648" r="6.2645" stroke-width="0.5" stroke="red" fill="red"/>
   </g>
   <g id="cell61">
  <circle cx="1694.13" cy="245.347" r="9.20015" stroke-width="0.5" stroke="black" fill="red"/>
  <circle cx="1694.13" cy="245.347" r="5.59022" stroke-width="0.5" stroke="red" fill="red"/>
   </g>
   <g id="cell62">
  <circle cx="1422.96" cy="1660" r="9.08467" stroke-width="0.5" stroke="black" fill="red"/>
  <circle cx="1422.96" cy="1660" r="5.51785" stroke-width="0.5" stroke="red" fill="red"/>
   </g>
   <g id="cell63">
  <circle cx="466.035" cy="408.427" r="10.3381" stroke-width="0.5" stroke="black" fill="red"/>
  <circle cx="466.035" cy="408.427" r="6.247" stroke-width="0.5" stroke="red" fill="red"/>
   </g>
   <g id="cell64">
  <circle cx="1171.95" cy="1120.31" r="10.4433" stroke-width="0.5" stroke="black" fill="red"/>
  <circle cx="1171.95" cy="1120.31" r="6.29871" stroke-width="0.5" stroke="red" fill="red"/>
   </g>
   <g id="cell65">
  <circle cx="362.075" cy="1684.77" r="10.5387" stroke-width="0.5" stroke="black" fill="red"/>
  <circle cx="362.075" cy="1684.77" r="6.34177" stroke-width="0.5" stroke="red" fill="red"/>
   </g>
   <g id="cell66">
  <circle cx="17.8947" cy="322.358" r="10.1488" stroke-width="0.5" stroke="black" fill="red"/>
  <circle cx="17.8947" cy="322.358" r="6.14749" stroke-width="0.5" stroke="red" fill="red"/>
   </g>
   <g id="cell67">
  <circle cx="1200.43" cy="543.579" r="9.97908" stroke-width="0.5" stroke="black" fill="red"/>
  <circle cx="1200.43" cy="543.579" r="6.05421" stroke-width="0.5" stroke="red" fill="red"/>
   </g>
   <g id="cell68">
  <circle cx="1444.43" cy="608.713" r="8.92514" stroke-width="0.5" stroke="black" fill="red"/>
  <circle cx="1444.43" cy="608.713" r="5.41514" stroke-width="0.5" stroke="red" fill="red"/>
   </g>
   <g id="cell69">
  <circle cx="885.305" cy="472.231" r="10.4556" stroke-width="0.5" stroke="black" fill="red"/>
  <circle cx="885.305" cy="472.231" r="6.30461" stroke-width="0.5" stroke="red" fill="red"/>
   </g>
   <g id="cell70">
  <circle cx="1125.74" cy="739.256" r="8.54239" stroke-width="0.5" stroke="black" fill="red"/>
  <circle cx="1125.74" cy="739.256" r="5.14888" stroke-width="0.5" stroke="red" fill="red"/>
   </g>
   <g id="cell71">
  <circle cx="1784.27" cy="1143.91" r="8.41055" stroke-width="0.5" stroke="black" fill="red"/>
  <circle cx="1784.27" cy="1143.91" r="5.05109" stroke-width="0.5" stroke="red" fill="red"/>
   </g>
   <g id="cell72">
  <circle cx="443.643" cy="1749.43" r="10.2408" stroke-width="0.5" stroke="black" fill="red"/>
  <circle cx="443.643" cy="1749.43" r="6.19676" stroke-width="0.5" stroke="red" fill="red"/>
   </g>
   <g id="cell73">
  <circle cx="1376.59" cy="830.228" r="8.41016" stroke-width="0.5" stroke="black" fill="red"/>
  <circle cx="1376.59" cy="830.228" r="5.05098" stroke-width="0.5" stroke="red" fill="red"/>
   </g>
   <g id="cell74">
  <circle cx="1682.21" cy="1963.9" r="8.7234" stroke-width="0.5" stroke="black" fill="red"/>
  <circle cx="1682.21" cy="1963.9" r="5.27982" stroke-width="0.5" stroke="red" fill="red"/>
   </g>
   <g id="cell75">
  <circle cx="240.6" cy="618.01" r="9.64694" stroke-width="0.5" stroke="black" fill="red"/>
  <circle cx="240.6" cy="618.01" r="5.86256" stroke-width="0.5" stroke="red" fill="red"/>
   </g>
   <g id="cell76">
  <circle cx="1679.63" cy="788.358" r="8.80002" stroke-width="0.5" stroke="black" fill="red"/>
  <circle cx="1679.63" cy="788.358" r="5.33322" stroke-width="0.5" stroke="red" fill="red"/>
   </g>
   <g id="cell77">
  <circle cx="1360.89" cy="1762.68" r="9.85874" stroke-width="0.5" stroke="black" fill="red"/>
  <circle cx="1360.89" cy="1762.68" r="5.98677" stroke-width="0.5" stroke="red" fill="red"/>
   </g>
   <g id="cell78">
  <circle cx="1087.45" cy="640.644" r="9.79685" stroke-width="0.5" stroke="black" fill="red"/>
  <circle cx="1087.45" cy="640.644" r="5.95016" stroke-width="0.5" stroke="red" fill="red"/>
   </g>
   <g id="cell79">
  <circle cx="1887.06" cy="1341.04" r="10.4036" stroke-width="0.5" stroke="black" fill="red"/>
  <circle cx="1887.06" cy="1341.04" r="6.27949" stroke-width="0.5" stroke="red" fill="red"/>
   </g>
   <g id="cell80">
  <circle cx="1436.49" cy="1319.77" r="9.04499" stroke-width="0.5" stroke="black" fill="red"/>
  <circle cx="1436.49" cy="1319.77" r="5.4927" stroke-width="0.5" stroke="red" fill="red"/>
   </g>
   <g id="cell81">
  <circle cx="1127.91" cy="1919.45" r="9.15104" stroke-width="0.5" stroke="black" fill="red"/>
  <circle cx="1127.91" cy="1919.45" r="5.56267" stroke-width="0.5" stroke="red" fill="red"/>
   </g>
   <g id="cell82">
  <circle cx="1211" cy="767.62" r="10.2415" stroke-width="0.5" stroke="black" fill="red"/>
  <circle cx="1211" cy="767.62" r="6.19698" stroke-width="0.5" stroke="red" fill="red"/>
   </g>
   <g id="cell83">
  <circle cx="1259.34" cy="1248.51" r="8.38823" stroke-width="0.5" stroke="black" fill="red"/>
  <circle cx="1259.34" cy="1248.51" r="5.04313" stroke-width="0.5" stroke="red" fill="red"/>
   </g>
   <g id="cell84">
  <circle cx="11.8369" cy="927.198" r="9.92242" stroke-width="0.5" stroke="black" fill="red"/>
  <circle cx="11.8369" cy="927.198" r="6.02243" stroke-width="0.5" stroke="red" fill="red"/>
   </g>
   <g id="cell85">
  <circle cx="1425.71" cy="1290.47" r="10.262" stroke-width="0.5" stroke="black" fill="red"/>
  <circle cx="1425.71" cy="1290.47" r="6.20763" stroke-width="0.5" stroke="red" fill="red"/>
   </g>
   <g id="cell86">
  <circle cx="544.117" cy="721.454" r="10.3724" stroke-width="0.5" stroke="black" fill="red"/>
  <circle cx="544.117" cy="721.454" r="6.26431" stroke-width="0.5" stroke="red" fill="red"/>
   </g>
   <g id="cell87">
  <circle cx="1493.6" cy="866.066" r="8.80586" stroke-width="0.5" stroke="black" fill="red"/>
  <circle cx="1493.6" cy="866.066" r="5.33521" stroke-width="0.5" stroke="red" fill="red"/>
   </g>
   <g id="cell88">
  <circle cx="296.736" cy="225.386" r="8.40516" stroke-width="0.5" stroke="black" fill="red"/>
  <circle cx="296.736" cy="225.386" r="5.04937" stroke-width="0.5" stroke="red" fill="red"/>
   </g>
   <g id="cell89">
  <circle cx="217.843" cy="1139.31" r="9.30668" stroke-width="0.5" stroke="black" fill="red"/>
  <circle cx="217.843" cy="1139.31" r="5.65695" stroke-width="0.5" stroke="red" fill="red"/>
   </g>
   <g id="cell90">
  <circle cx="1127.57" cy="1159.94" r="8.36722" stroke-width="0.5" stroke="black" fill="red"/>
  <circle cx="1127.57" cy="1159.94" r="5.03458" stroke-width="0.5" stroke="red" fill="red"/>
   </g>
   <g id="cell91">
  <circle cx="34.4154" cy="1300.34" r="9.86283" stroke-width="0.5" stroke="black" fill="red"/>
  <circle cx="34.4154" cy="1300.34" r="5.98818" stroke-width="0.5" stroke="red" fill="red"/>
   </g>
   <g id="cell92">
  <circle cx="1277" cy="704.052" r="9.42907" stroke-width="0.5" stroke="black" fill="red"/>
  <circle cx="1277" cy="704.052" r="5.73477" stroke-width="0.5" stroke="red" fill="red"/>
   </g>
   <g id="cell93">
  <circle cx="446.819" cy="1811.32" r="10.2316" stroke-width="0.5" stroke="black" fill="red"/>
  <circle cx="446.819" cy="1811.32" r="6.19163" stroke-width="0.5" stroke="red" fill="red"/>
   </g>
   <g id="cell94">
  <circle cx="707.804" cy="241.425" r="10.3663" stroke-width="0.5" stroke="black" fill="red"/>
  <circle cx="707.804" cy="241.425" r="6.26117" stroke-width="0.5" stroke="red" fill="red"/>
   </g>
   <g id="cell95">
  <circle cx="1920.73" cy="1818.95" r="9.9785" stroke-width="0.5" stroke="black" fill="red"/>
  <circle cx="1920.73" cy="1818.95" r="6.05402" stroke-width="0.5" stroke="red" fill="red"/>
   </g>
   <g id="cell180">
  <circle cx="1134.04" cy="1294.82" r="8.79782" stroke-width="0.5" stroke="black" fill="grey"/>
  <circle cx="1134.04" cy="1294.82" r="5.33242" stroke-width="0.5" stroke="grey" fill="grey"/>
   </g>
   <g id="cell97">
  <circle cx="908.684" cy="228.015" r="9.30473" stroke-width="0.5" stroke="black" fill="red"/>
  <circle cx="908.684" cy="228.015" r="5.65631" stroke-width="0.5" stroke="red" fill="red"/>
   </g>
   <g id="cell98">
  <circle cx="1789.54" cy="678.891" r="10.2614" stroke-width="0.5" stroke="black" fill="red"/>
  <circle cx="1789.54" cy="678.891" r="6.20744" stroke-width="0.5" stroke="red" fill="red"/>
   </g>
   <g id="cell99">
  <circle cx="917.953" cy="1979.18" r="9.12111" stroke-width="0.5" stroke="black" fill="red"/>
  <circle cx="917.953" cy="1979.18" r="5.54163" stroke-width="0.5" stroke="red" fill="red"/>
   </g>
   <g id="cell101">
  <circle cx="1363.22" cy="1343.56" r="10.2316" stroke-width="0.5" stroke="black" fill="red"/>
  <circle cx="1363.22" cy="1343.56" r="6.19163" stroke-width="0.5" stroke="red" fill="red"/>
   </g>
   <g id="cell102">
  <circle cx="477.599" cy="1789.3" r="8.76612" stroke-width="0.5" stroke="black" fill="red"/>
  <circle cx="477.599" cy="1789.3" r="5.30809" stroke-width="0.5" stroke="red" fill="red"/>
   </g>
   <g id="cell187">
  <circle cx="1728.6" cy="904.585" r="8.38823" stroke-width="0.5" stroke="black" fill="grey"/>
  <circle cx="1728.6" cy="904.585" r="5.04313" stroke-width="0.5" stroke="grey" fill="grey"/>
   </g>
   <g id="cell104">
  <circle cx="781.516" cy="1673.95" r="2.47857" stroke-width="0.5" stroke="black" fill="grey"/>
  <circle cx="781.516" cy="1673.95" r="2.2685" stroke-width="0.5" stroke="black" fill="black"/>
   </g>
   <g id="cell105">
  <circle cx="239.343" cy="1142.3" r="10.3388" stroke-width="0.5" stroke="black" fill="red"/>
  <circle cx="239.343" cy="1142.3" r="6.24718" stroke-width="0.5" stroke="red" fill="red"/>
   </g>
   <g id="cell106">
  <circle cx="1152.11" cy="1159.56" r="4.23906" stroke-width="0.5" stroke="black" fill="red"/>
  <circle cx="1152.11" cy="1159.56" r="3.28349" stroke-width="0.5" stroke="black" fill="black"/>
   </g>
   <g id="cell107">
  <circle cx="1176.59" cy="246.154" r="10.4433" stroke-width="0.5" stroke="black" fill="grey"/>
  <circle cx="1176.59" cy="246.154" r="6.29871" stroke-width="0.5" stroke="grey" fill="grey"/>
   </g>
   <g id="cell108">
  <circle cx="1408.68" cy="1670.34" r="10.307" stroke-width="0.5" stroke="black" fill="red"/>
  <circle cx="1408.68" cy="1670.34" r="6.231" stroke-width="0.5" stroke="red" fill="red"/>
   </g>
   <g id="cell109">
  <circle cx="1484.83" cy="892.814" r="8.41067" stroke-width="0.5" stroke="black" fill="red"/>
  <circle cx="1484.83" cy="892.814" r="5.05113" stroke-width="0.5" stroke="red" fill="red"/>
   </g>
   <g id="cell110">
  <circle cx="1803.52" cy="1112.67" r="10.094" stroke-width="0.5" stroke="black" fill="red"/>
  <circle cx="1803.52" cy="1112.67" r="6.11755" stroke-width="0.5" stroke="red" fill="red"/>
   </g>
   <g id="cell111">
  <circle cx="1144.73" cy="799.405" r="8.96636" stroke-width="0.5" stroke="black" fill="red"/>
  <circle cx="1144.73" cy="799.405" r="5.44171" stroke-width="0.5" stroke="red" fill="red"/>
   </g>
   <g id="cell112">
  <circle cx="577.454" cy="1247.51" r="10.4431" stroke-width="0.5" stroke="black" fill="grey"/>
  <circle cx="577.454" cy="1247.51" r="6.29864" stroke-width="0.5" stroke="grey" fill="grey"/>
   </g>
   <g id="cell113">
  <circle cx="1888.53" cy="753.302" r="10.4711" stroke-width="0.5" stroke="black" fill="grey"/>
  <circle cx="1888.53" cy="753.302" r="6.31183" stroke-width="0.5" stroke="grey" fill="grey"/>
   </g>
   <g id="cell114">
  <circle cx="956.626" cy="611.998" r="10.0637" stroke-width="0.5" stroke="black" fill="grey"/>
  <circle cx="956.626" cy="611.998" r="6.10097" stroke-width="0.5" stroke="grey" fill="grey"/>
   </g>
   <g id="cell115">
  <circle cx="1480.08" cy="861.367" r="8.48045" stroke-width="0.5" stroke="black" fill="grey"/>
  <circle cx="1480.08" cy="861.367" r="5.10251" stroke-width="0.5" stroke="grey" fill="grey"/>
   </g>
   <g id="cell116">
  <circle cx="1653.55" cy="39.3793" r="10.3731" stroke-width="0.5" stroke="black" fill="grey"/>
  <circle cx="1653.55" cy="39.3793" r="6.26453" stroke-width="0.5" stroke="grey" fill="grey"/>
   </g>
   <g id="cell117">
  <circle cx="1327" cy="386.286" r="8.41023" stroke-width="0.5" stroke="black" fill="grey"/>
  <circle cx="1327" cy="386.286" r="5.051" stroke-width="0.5" stroke="grey" fill="grey"/>
   </g>
   <g id="cell118">
  <circle cx="66.1142" cy="290.072" r="10.4031" stroke-width="0.5" stroke="black" fill="red"/>
  <circle cx="66.1142" cy="290.072" r="6.27935" stroke-width="0.5" stroke="red" fill="red"/>
   </g>
   <g id="cell119">
  <circle cx="849.606" cy="526.53" r="8.51003" stroke-width="0.5" stroke="black" fill="red"/>
  <circle cx="849.606" cy="526.53" r="5.12483" stroke-width="0.5" stroke="red" fill="red"/>
   </g>
   <g id="cell120">
  <circle cx="1408.35" cy="876.37" r="10.2093" stroke-width="0.5" stroke="black" fill="red"/>
  <circle cx="1408.35" cy="876.37" r="6.17992" stroke-width="0.5" stroke="red" fill="red"/>
   </g>
   <g id="cell121">
  <circle cx="1194.54" cy="760.43" r="10.4337" stroke-width="0.5" stroke="black" fill="red"/>
  <circle cx="1194.54" cy="760.43" r="6.29422" stroke-width="0.5" stroke="red" fill="red"/>
   </g>
   <g id="cell122">
  <circle cx="620.943" cy="21.2465" r="10.2894" stroke-width="0.5" stroke="black" fill="red"/>
  <circle cx="620.943" cy="21.2465" r="6.22197" stroke-width="0.5" stroke="red" fill="red"/>
   </g>
   <g id="cell123">
  <circle cx="721.052" cy="1287.16" r="10.4429" stroke-width="0.5" stroke="black" fill="grey"/>
  <circle cx="721.052" cy="1287.16" r="6.29858" stroke-width="0.5" stroke="grey" fill="grey"/>
   </g>
   <g id="cell124">
  <circle cx="197.489" cy="1829.85" r="9.86346" stroke-width="0.5" stroke="black" fill="red"/>
  <circle cx="197.489" cy="1829.85" r="5.98838" stroke-width="0.5" stroke="red" fill="red"/>
   </g>
   <g id="cell125">
  <circle cx="1807.35" cy="664.142" r="10.1355" stroke-width="0.5" stroke="black" fill="red"/>
  <circle cx="1807.35" cy="664.142" r="6.1403" stroke-width="0.5" stroke="red" fill="red"/>
   </g>
   <g id="cell126">
  <circle cx="471.782" cy="458.265" r="9.27055" stroke-width="0.5" stroke="black" fill="red"/>
  <circle cx="471.782" cy="458.265" r="5.63484" stroke-width="0.5" stroke="red" fill="red"/>
   </g>
   <g id="cell127">
  <circle cx="234.862" cy="1788.96" r="9.90452" stroke-width="0.5" stroke="black" fill="red"/>
  <circle cx="234.862" cy="1788.96" r="6.01183" stroke-width="0.5" stroke="red" fill="red"/>
   </g>
   <g id="cell128">
  <circle cx="1466.7" cy="1306.53" r="10.2892" stroke-width="0.5" stroke="black" fill="red"/>
  <circle cx="1466.7" cy="1306.53" r="6.22192" stroke-width="0.5" stroke="red" fill="red"/>
   </g>
   <g id="cell129">
  <circle cx="721.533" cy="220.942" r="9.50301" stroke-width="0.5" stroke="black" fill="red"/>
  <circle cx="721.533" cy="220.942" r="5.77675" stroke-width="0.5" stroke="red" fill="red"/>
   </g>
   <g id="cell130">
  <circle cx="462.101" cy="834.033" r="8.61145" stroke-width="0.5" stroke="black" fill="grey"/>
  <circle cx="462.101" cy="834.033" r="5.19981" stroke-width="0.5" stroke="grey" fill="grey"/>
   </g>
   <g id="cell131">
  <circle cx="835.37" cy="1838.59" r="8.4097" stroke-width="0.5" stroke="black" fill="red"/>
  <circle cx="835.37" cy="1838.59" r="5.05084" stroke-width="0.5" stroke="red" fill="red"/>
   </g>
   <g id="cell132">
  <circle cx="207.039" cy="697.008" r="9.16013" stroke-width="0.5" stroke="black" fill="red"/>
  <circle cx="207.039" cy="697.008" r="5.56595" stroke-width="0.5" stroke="red" fill="red"/>
   </g>
   <g id="cell133">
  <circle cx="1125.53" cy="633.185" r="8.40953" stroke-width="0.5" stroke="black" fill="red"/>
  <circle cx="1125.53" cy="633.185" r="5.05079" stroke-width="0.5" stroke="red" fill="red"/>
   </g>
   <g id="cell134">
  <circle cx="1735.61" cy="1931.21" r="8.40953" stroke-width="0.5" stroke="black" fill="grey"/>
  <circle cx="1735.61" cy="1931.21" r="5.05079" stroke-width="0.5" stroke="grey" fill="grey"/>
   </g>
   <g id="cell135">
  <circle cx="223.667" cy="1557.53" r="8.40953" stroke-width="0.5" stroke="black" fill="grey"/>
  <circle cx="223.667" cy="1557.53" r="5.05079" stroke-width="0.5" stroke="grey" fill="grey"/>
   </g>
   <g id="cell136">
  <circle cx="1350.31" cy="935.414" r="8.40934" stroke-width="0.5" stroke="black" fill="grey"/>
  <circle cx="1350.31" cy="935.414" r="5.05073" stroke-width="0.5" stroke="grey" fill="grey"/>
   </g>
   <g id="cell137">
  <circle cx="1119.53" cy="312.875" r="10.2305" stroke-width="0.5" stroke="black" fill="grey"/>
  <circle cx="1119.53" cy="312.875" r="6.19132" stroke-width="0.5" stroke="grey" fill="grey"/>
   </g>
   <g id="cell138">
  <circle cx="1505.43" cy="558.408" r="8.40915" stroke-width="0.5" stroke="black" fill="red"/>
  <circle cx="1505.43" cy="558.408" r="5.05067" stroke-width="0.5" stroke="red" fill="red"/>
   </g>
   <g id="cell139">
  <circle cx="562.082" cy="784.169" r="10.3223" stroke-width="0.5" stroke="black" fill="red"/>
  <circle cx="562.082" cy="784.169" r="6.23903" stroke-width="0.5" stroke="red" fill="red"/>
   </g>
   <g id="cell140">
  <circle cx="690.512" cy="318.007" r="8.80448" stroke-width="0.5" stroke="black" fill="grey"/>
  <circle cx="690.512" cy="318.007" r="5.33476" stroke-width="0.5" stroke="grey" fill="grey"/>
   </g>
   <g id="cell141">
  <circle cx="67.3503" cy="1305.4" r="8.40915" stroke-width="0.5" stroke="black" fill="red"/>
  <circle cx="67.3503" cy="1305.4" r="5.05067" stroke-width="0.5" stroke="red" fill="red"/>
   </g>
   <g id="cell142">
  <circle cx="459.98" cy="1738.48" r="10.1213" stroke-width="0.5" stroke="black" fill="red"/>
  <circle cx="459.98" cy="1738.48" r="6.13272" stroke-width="0.5" stroke="red" fill="red"/>
   </g>
   <g id="cell143">
  <circle cx="1424.24" cy="128.967" r="8.40905" stroke-width="0.5" stroke="black" fill="grey"/>
  <circle cx="1424.24" cy="128.967" r="5.05064" stroke-width="0.5" stroke="grey" fill="grey"/>
   </g>
   <g id="cell144">
  <circle cx="1898.33" cy="93.0745" r="8.92505" stroke-width="0.5" stroke="black" fill="grey"/>
  <circle cx="1898.33" cy="93.0745" r="5.41511" stroke-width="0.5" stroke="grey" fill="grey"/>
   </g>
   <g id="cell145">
  <circle cx="230.785" cy="1302.92" r="9.5911" stroke-width="0.5" stroke="black" fill="grey"/>
  <circle cx="230.785" cy="1302.92" r="5.82957" stroke-width="0.5" stroke="grey" fill="grey"/>
   </g>
   <g id="cell146">
  <circle cx="174.403" cy="1934.07" r="9.7492" stroke-width="0.5" stroke="black" fill="grey"/>
  <circle cx="174.403" cy="1934.07" r="5.9226" stroke-width="0.5" stroke="grey" fill="grey"/>
   </g>
   <g id="cell147">
  <circle cx="1254.09" cy="1641.05" r="10.3848" stroke-width="0.5" stroke="black" fill="grey"/>
  <circle cx="1254.09" cy="1641.05" r="6.27049" stroke-width="0.5" stroke="grey" fill="grey"/>
   </g>
   <g id="cell148">
  <circle cx="1222.33" cy="1249.16" r="10.3058" stroke-width="0.5" stroke="black" fill="grey"/>
  <circle cx="1222.33" cy="1249.16" r="6.23062" stroke-width="0.5" stroke="grey" fill="grey"/>
   </g>
   <g id="cell149">
  <circle cx="1910.26" cy="1551.63" r="8.40884" stroke-width="0.5" stroke="black" fill="grey"/>
  <circle cx="1910.26" cy="1551.63" r="5.05057" stroke-width="0.5" stroke="grey" fill="grey"/>
   </g>
   <g id="cell150">
  <circle cx="934.553" cy="241.822" r="10.3296" stroke-width="0.5" stroke="black" fill="red"/>
  <circle cx="934.553" cy="241.822" r="6.24284" stroke-width="0.5" stroke="red" fill="red"/>
   </g>
   <g id="cell151">
  <circle cx="1114.57" cy="1713.34" r="9.96095" stroke-width="0.5" stroke="black" fill="grey"/>
  <circle cx="1114.57" cy="1713.34" r="6.04403" stroke-width="0.5" stroke="grey" fill="grey"/>
   </g>
   <g id="cell152">
  <circle cx="603.076" cy="1120.31" r="8.80367" stroke-width="0.5" stroke="black" fill="grey"/>
  <circle cx="603.076" cy="1120.31" r="5.33449" stroke-width="0.5" stroke="grey" fill="grey"/>
   </g>
   <g id="cell153">
  <circle cx="940.134" cy="1954.8" r="9.56166" stroke-width="0.5" stroke="black" fill="red"/>
  <circle cx="940.134" cy="1954.8" r="5.8122" stroke-width="0.5" stroke="red" fill="red"/>
   </g>
   <g id="cell154">
  <circle cx="1189.63" cy="565.234" r="9.61859" stroke-width="0.5" stroke="black" fill="red"/>
  <circle cx="1189.63" cy="565.234" r="5.84605" stroke-width="0.5" stroke="red" fill="red"/>
   </g>
   <g id="cell155">
  <circle cx="901.488" cy="525.775" r="10.2079" stroke-width="0.5" stroke="black" fill="grey"/>
  <circle cx="901.488" cy="525.775" r="6.17948" stroke-width="0.5" stroke="grey" fill="grey"/>
   </g>
   <g id="cell156">
  <circle cx="1700.75" cy="1283.44" r="9.84052" stroke-width="0.5" stroke="black" fill="grey"/>
  <circle cx="1700.75" cy="1283.44" r="5.97559" stroke-width="0.5" stroke="grey" fill="grey"/>
   </g>
   <g id="cell157">
  <circle cx="1926.02" cy="1838.36" r="10.2693" stroke-width="0.5" stroke="black" fill="red"/>
  <circle cx="1926.02" cy="1838.36" r="6.21189" stroke-width="0.5" stroke="red" fill="red"/>
   </g>
   <g id="cell158">
  <circle cx="1642.67" cy="1964.59" r="9.96037" stroke-width="0.5" stroke="black" fill="red"/>
  <circle cx="1642.67" cy="1964.59" r="6.04383" stroke-width="0.5" stroke="red" fill="red"/>
   </g>
   <g id="cell159">
  <circle cx="70.8112" cy="971.491" r="10.2692" stroke-width="0.5" stroke="black" fill="red"/>
  <circle cx="70.8112" cy="971.491" r="6.21186" stroke-width="0.5" stroke="red" fill="red"/>
   </g>
   <g id="cell160">
  <circle cx="1980.46" cy="220.591" r="10.1958" stroke-width="0.5" stroke="black" fill="red"/>
  <circle cx="1980.46" cy="220.591" r="6.17319" stroke-width="0.5" stroke="red" fill="red"/>
   </g>
   <g id="cell161">
  <circle cx="1541.1" cy="313.444" r="10.1841" stroke-width="0.5" stroke="black" fill="grey"/>
  <circle cx="1541.1" cy="313.444" r="6.16692" stroke-width="0.5" stroke="grey" fill="grey"/>
   </g>
   <g id="cell162">
  <circle cx="254.46" cy="729.121" r="8.40683" stroke-width="0.5" stroke="black" fill="grey"/>
  <circle cx="254.46" cy="729.121" r="5.04993" stroke-width="0.5" stroke="grey" fill="grey"/>
   </g>
   <g id="cell163">
  <circle cx="1592.24" cy="1606.57" r="8.57275" stroke-width="0.5" stroke="black" fill="grey"/>
  <circle cx="1592.24" cy="1606.57" r="5.17284" stroke-width="0.5" stroke="grey" fill="grey"/>
   </g>
   <g id="cell164">
  <circle cx="824.593" cy="924.19" r="9.8609" stroke-width="0.5" stroke="black" fill="grey"/>
  <circle cx="824.593" cy="924.19" r="5.98753" stroke-width="0.5" stroke="grey" fill="grey"/>
   </g>
   <g id="cell165">
  <circle cx="115.08" cy="892.284" r="9.79462" stroke-width="0.5" stroke="black" fill="red"/>
  <circle cx="115.08" cy="892.284" r="5.94941" stroke-width="0.5" stroke="red" fill="red"/>
   </g>
   <g id="cell167">
  <circle cx="1016" cy="1566.35" r="8.40576" stroke-width="0.5" stroke="black" fill="grey"/>
  <circle cx="1016" cy="1566.35" r="5.04957" stroke-width="0.5" stroke="grey" fill="grey"/>
   </g>
   <g id="cell168">
  <circle cx="1003.6" cy="1048.69" r="8.57169" stroke-width="0.5" stroke="black" fill="red"/>
  <circle cx="1003.6" cy="1048.69" r="5.17248" stroke-width="0.5" stroke="red" fill="red"/>
   </g>
   <g id="cell169">
  <circle cx="249.512" cy="227.13" r="9.19383" stroke-width="0.5" stroke="black" fill="red"/>
  <circle cx="249.512" cy="227.13" r="5.58814" stroke-width="0.5" stroke="red" fill="red"/>
   </g>
   <g id="cell170">
  <circle cx="207" cy="857.933" r="8.42477" stroke-width="0.5" stroke="black" fill="grey"/>
  <circle cx="207" cy="857.933" r="5.06316" stroke-width="0.5" stroke="grey" fill="grey"/>
   </g>
   <g id="cell171">
  <circle cx="1230.09" cy="423.119" r="9.15627" stroke-width="0.5" stroke="black" fill="grey"/>
  <circle cx="1230.09" cy="423.119" r="5.56461" stroke-width="0.5" stroke="grey" fill="grey"/>
   </g>
   <g id="cell172">
  <circle cx="1230.37" cy="902.784" r="9.19347" stroke-width="0.5" stroke="black" fill="grey"/>
  <circle cx="1230.37" cy="902.784" r="5.58801" stroke-width="0.5" stroke="grey" fill="grey"/>
   </g>
   <g id="cell173">
  <circle cx="1327.57" cy="654.273" r="10.0751" stroke-width="0.5" stroke="black" fill="red"/>
  <circle cx="1327.57" cy="654.273" r="6.10808" stroke-width="0.5" stroke="red" fill="red"/>
   </g>
   <g id="cell174">
  <circle cx="1651.4" cy="780.681" r="9.92024" stroke-width="0.5" stroke="black" fill="red"/>
  <circle cx="1651.4" cy="780.681" r="6.02167" stroke-width="0.5" stroke="red" fill="red"/>
   </g>
   <g id="cell175">
  <circle cx="878.502" cy="1245.3" r="10.0595" stroke-width="0.5" stroke="black" fill="grey"/>
  <circle cx="878.502" cy="1245.3" r="6.09956" stroke-width="0.5" stroke="grey" fill="grey"/>
   </g>
   <g id="cell176">
  <circle cx="1927.49" cy="1369.67" r="9.22965" stroke-width="0.5" stroke="black" fill="grey"/>
  <circle cx="1927.49" cy="1369.67" r="5.61075" stroke-width="0.5" stroke="grey" fill="grey"/>
   </g>
   <g id="cell177">
  <circle cx="1374.53" cy="1829.64" r="9.61497" stroke-width="0.5" stroke="black" fill="red"/>
  <circle cx="1374.53" cy="1829.64" r="5.84478" stroke-width="0.5" stroke="red" fill="red"/>
   </g>
   <g id="cell178">
  <circle cx="1550.7" cy="1032.14" r="9.46706" stroke-width="0.5" stroke="black" fill="grey"/>
  <circle cx="1550.7" cy="1032.14" r="5.75634" stroke-width="0.5" stroke="grey" fill="grey"/>
   </g>
   <g id="cell179">
  <circle cx="1152.97" cy="1710.93" r="9.9572" stroke-width="0.5" stroke="black" fill="red"/>
  <circle cx="1152.97" cy="1710.93" r="6.04273" stroke-width="0.5" stroke="red" fill="red"/>
   </g>
   <g id="cell181">
  <circle cx="557.547" cy="409.134" r="8.39913" stroke-width="0.5" stroke="black" fill="grey"/>
  <circle cx="557.547" cy="409.134" r="5.04725" stroke-width="0.5" stroke="grey" fill="grey"/>
   </g>
   <g id="cell182">
  <circle cx="1074.03" cy="1929.76" r="8.9159" stroke-width="0.5" stroke="black" fill="red"/>
  <circle cx="1074.03" cy="1929.76" r="5.4118" stroke-width="0.5" stroke="red" fill="red"/>
   </g>
   <g id="cell183">
  <circle cx="1408.65" cy="1296.03" r="9.63716" stroke-width="0.5" stroke="black" fill="grey"/>
  <circle cx="1408.65" cy="1296.03" r="5.85903" stroke-width="0.5" stroke="grey" fill="grey"/>
   </g>
   <g id="cell184">
  <circle cx="1309.97" cy="682.893" r="8.39571" stroke-width="0.5" stroke="black" fill="red"/>
  <circle cx="1309.97" cy="682.893" r="5.04599" stroke-width="0.5" stroke="red" fill="red"/>
   </g>
   <g id="cell185">
  <circle cx="745.394" cy="1840.09" r="8.49447" stroke-width="0.5" stroke="black" fill="grey"/>
  <circle cx="745.394" cy="1840.09" r="5.11937" stroke-width="0.5" stroke="grey" fill="grey"/>
   </g>
   <g id="cell189">
  <circle cx="1126.57" cy="1144.86" r="8.36722" stroke-width="0.5" stroke="black" fill="red"/>
  <circle cx="1126.57" cy="1144.86" r="5.03458" stroke-width="0.5" stroke="red" fill="red"/>
   </g>
   <g id="cell190">
  <circle cx="1652.23" cy="206.259" r="8.36722" stroke-width="0.5" stroke="black" fill="grey"/>
  <circle cx="1652.23" cy="206.259" r="5.03458" stroke-width="0.5" stroke="grey" fill="grey"/>
   </g>
  </g>
 </g>
  <rect x="1750" y="2070" width="200" height="20" stroke-width="4" stroke="rgb(255,255,255)" fill="rgb(0,0,0)"/>
  <text x="1762.5" y="2057.5"
   font-family="Arial" font-size="50" fill="black" >
   200 &#956;m
  </text>
  <text x="50" y="2090"
   font-family="Arial" font-size="37.5" fill="black" >
   0 days, 0 hours, 0 minutes, and 37.2553 seconds
  </text>
  <rect x="0" y="140" width="2000" height="2000" stroke-width="4" stroke="rgb(0,0,0)" fill="none"/>
</svg>
