<?xml version="1.0" encoding="UTF-8" standalone="no"?>
<!-- Created with PhysiCell (http://PhysiCell.MathCancer.org/) -->
<svg 
 xmlns:dc="http://purl.org/dc/elements/1.1/" 
 xmlns:cc="http://creativecommons.org/ns#" 
 xmlns:rdf="http://www.w3.org/1999/02/22-rdf-syntax-ns#" 
 xmlns:svg="http://www.w3.org/2000/svg" 
 xmlns="http://www.w3.org/2000/svg" 
 version="1.1" 
 width="2000" 
 height="2140" 
 id="svg2">
  <rect x="0" y="0" width="2000" height="2140" stroke-width="4" stroke="white" fill="white"/>
  <text x="25" y="60"
   font-family="Arial" font-size="50" fill="black" >
   Current time: 2 days, 12 hours, and 0.00 minutes, z = 0.00 &#956;m
  </text>
  <text x="25" y="115"
   font-family="Arial" font-size="47.5" fill="black" >
   65 agents
  </text>
 <g id="tissue" 
    transform="translate(0,2140) scale(1,-1)">
  <g id="ECM">
  </g>
  <g id="cells">
   <g id="cell0">
  <circle cx="1114.8" cy="1192.14" r="10.3155" stroke-width="0.5" stroke="black" fill="grey"/>
  <circle cx="1114.8" cy="1192.14" r="6.23529" stroke-width="0.5" stroke="grey" fill="grey"/>
   </g>
   <g id="cell1">
  <circle cx="1675.01" cy="1223.34" r="8.40086" stroke-width="0.5" stroke="black" fill="grey"/>
  <circle cx="1675.01" cy="1223.34" r="5.04788" stroke-width="0.5" stroke="grey" fill="grey"/>
   </g>
   <g id="cell2">
  <circle cx="1135.69" cy="1759.49" r="10.1606" stroke-width="0.5" stroke="black" fill="grey"/>
  <circle cx="1135.69" cy="1759.49" r="6.15407" stroke-width="0.5" stroke="grey" fill="grey"/>
   </g>
   <g id="cell3">
  <circle cx="1252.84" cy="1318.64" r="10.2421" stroke-width="0.5" stroke="black" fill="grey"/>
  <circle cx="1252.84" cy="1318.64" r="6.19717" stroke-width="0.5" stroke="grey" fill="grey"/>
   </g>
   <g id="cell4">
  <circle cx="823.17" cy="529.625" r="10.3049" stroke-width="0.5" stroke="black" fill="grey"/>
  <circle cx="823.17" cy="529.625" r="6.23032" stroke-width="0.5" stroke="grey" fill="grey"/>
   </g>
   <g id="cell5">
  <circle cx="91.5949" cy="1951.3" r="10.3216" stroke-width="0.5" stroke="black" fill="red"/>
  <circle cx="91.5949" cy="1951.3" r="6.23881" stroke-width="0.5" stroke="red" fill="red"/>
   </g>
   <g id="cell6">
  <circle cx="827.17" cy="877.811" r="9.9454" stroke-width="0.5" stroke="black" fill="red"/>
  <circle cx="827.17" cy="877.811" r="6.03446" stroke-width="0.5" stroke="red" fill="red"/>
   </g>
   <g id="cell19">
  <circle cx="1723.42" cy="1318.25" r="9.86418" stroke-width="0.5" stroke="black" fill="grey"/>
  <circle cx="1723.42" cy="1318.25" r="5.98861" stroke-width="0.5" stroke="grey" fill="grey"/>
   </g>
   <g id="cell18">
  <circle cx="1648.36" cy="297.175" r="8.39359" stroke-width="0.5" stroke="black" fill="red"/>
  <circle cx="1648.36" cy="297.175" r="5.04521" stroke-width="0.5" stroke="red" fill="red"/>
   </g>
   <g id="cell9">
  <circle cx="1646.1" cy="167.445" r="10.3846" stroke-width="0.5" stroke="black" fill="red"/>
  <circle cx="1646.1" cy="167.445" r="6.27042" stroke-width="0.5" stroke="red" fill="red"/>
   </g>
   <g id="cell11">
  <circle cx="1610.93" cy="1081.91" r="10.2429" stroke-width="0.5" stroke="black" fill="red"/>
  <circle cx="1610.93" cy="1081.91" r="6.1974" stroke-width="0.5" stroke="red" fill="red"/>
   </g>
   <g id="cell20">
  <circle cx="791.569" cy="1036.35" r="8.36302" stroke-width="0.5" stroke="black" fill="red"/>
  <circle cx="791.569" cy="1036.35" r="5.03284" stroke-width="0.5" stroke="red" fill="red"/>
   </g>
   <g id="cell13">
  <circle cx="878.416" cy="618.275" r="8.40592" stroke-width="0.5" stroke="black" fill="grey"/>
  <circle cx="878.416" cy="618.275" r="5.04963" stroke-width="0.5" stroke="grey" fill="grey"/>
   </g>
   <g id="cell14">
  <circle cx="1195.75" cy="1314.71" r="9.56101" stroke-width="0.5" stroke="black" fill="grey"/>
  <circle cx="1195.75" cy="1314.71" r="5.81198" stroke-width="0.5" stroke="grey" fill="grey"/>
   </g>
   <g id="cell15">
  <circle cx="1126.19" cy="1177.08" r="9.86168" stroke-width="0.5" stroke="black" fill="grey"/>
  <circle cx="1126.19" cy="1177.08" r="5.9878" stroke-width="0.5" stroke="grey" fill="grey"/>
   </g>
   <g id="cell16">
  <circle cx="1107.19" cy="1681.99" r="10.1971" stroke-width="0.5" stroke="black" fill="grey"/>
  <circle cx="1107.19" cy="1681.99" r="6.17361" stroke-width="0.5" stroke="grey" fill="grey"/>
   </g>
   <g id="cell17">
  <circle cx="1055.23" cy="669.423" r="7.46086" stroke-width="0.5" stroke="black" fill="red"/>
  <circle cx="1055.23" cy="669.423" r="4.73078" stroke-width="0.5" stroke="black" fill="black"/>
   </g>
   <g id="cell21">
  <circle cx="1568.8" cy="1030.58" r="4.88635" stroke-width="0.5" stroke="black" fill="red"/>
  <circle cx="1568.8" cy="1030.58" r="3.49198" stroke-width="0.5" stroke="black" fill="black"/>
   </g>
   <g id="cell22">
  <circle cx="1165.46" cy="1692.55" r="8.52851" stroke-width="0.5" stroke="black" fill="grey"/>
  <circle cx="1165.46" cy="1692.55" r="5.14405" stroke-width="0.5" stroke="grey" fill="grey"/>
   </g>
   <g id="cell23">
  <circle cx="1262.02" cy="1296" r="8.38027" stroke-width="0.5" stroke="black" fill="grey"/>
  <circle cx="1262.02" cy="1296" r="5.03997" stroke-width="0.5" stroke="grey" fill="grey"/>
   </g>
   <g id="cell24">
  <circle cx="1138.75" cy="1245.49" r="10.4297" stroke-width="0.5" stroke="black" fill="grey"/>
  <circle cx="1138.75" cy="1245.49" r="6.29216" stroke-width="0.5" stroke="grey" fill="grey"/>
   </g>
   <g id="cell25">
  <circle cx="1133.98" cy="729.645" r="10.4531" stroke-width="0.5" stroke="black" fill="red"/>
  <circle cx="1133.98" cy="729.645" r="6.30312" stroke-width="0.5" stroke="red" fill="red"/>
   </g>
   <g id="cell26">
  <circle cx="1706.03" cy="1194.01" r="10.4085" stroke-width="0.5" stroke="black" fill="grey"/>
  <circle cx="1706.03" cy="1194.01" r="6.28202" stroke-width="0.5" stroke="grey" fill="grey"/>
   </g>
   <g id="cell27">
  <circle cx="875.263" cy="567.352" r="10.5254" stroke-width="0.5" stroke="black" fill="grey"/>
  <circle cx="875.263" cy="567.352" r="6.33606" stroke-width="0.5" stroke="grey" fill="grey"/>
   </g>
   <g id="cell28">
  <circle cx="47.6257" cy="1991.57" r="9.15505" stroke-width="0.5" stroke="black" fill="red"/>
  <circle cx="47.6257" cy="1991.57" r="5.56417" stroke-width="0.5" stroke="red" fill="red"/>
   </g>
   <g id="cell29">
  <circle cx="1059.92" cy="1070.3" r="10.4597" stroke-width="0.5" stroke="black" fill="grey"/>
  <circle cx="1059.92" cy="1070.3" r="6.30653" stroke-width="0.5" stroke="grey" fill="grey"/>
   </g>
   <g id="cell30">
  <circle cx="915.841" cy="611.662" r="10.0443" stroke-width="0.5" stroke="black" fill="grey"/>
  <circle cx="915.841" cy="611.662" r="6.09105" stroke-width="0.5" stroke="grey" fill="grey"/>
   </g>
   <g id="cell31">
  <circle cx="1228.65" cy="1304.61" r="8.42645" stroke-width="0.5" stroke="black" fill="grey"/>
  <circle cx="1228.65" cy="1304.61" r="5.06373" stroke-width="0.5" stroke="grey" fill="grey"/>
   </g>
   <g id="cell32">
  <circle cx="1661.82" cy="209.324" r="9.43341" stroke-width="0.5" stroke="black" fill="red"/>
  <circle cx="1661.82" cy="209.324" r="5.73643" stroke-width="0.5" stroke="red" fill="red"/>
   </g>
   <g id="cell33">
  <circle cx="1676.17" cy="1147.7" r="8.74393" stroke-width="0.5" stroke="black" fill="grey"/>
  <circle cx="1676.17" cy="1147.7" r="5.29986" stroke-width="0.5" stroke="grey" fill="grey"/>
   </g>
   <g id="cell34">
  <circle cx="1137.13" cy="1636.59" r="8.39417" stroke-width="0.5" stroke="black" fill="grey"/>
  <circle cx="1137.13" cy="1636.59" r="5.04542" stroke-width="0.5" stroke="grey" fill="grey"/>
   </g>
   <g id="cell35">
  <circle cx="751.559" cy="893.565" r="8.40084" stroke-width="0.5" stroke="black" fill="red"/>
  <circle cx="751.559" cy="893.565" r="5.04787" stroke-width="0.5" stroke="red" fill="red"/>
   </g>
   <g id="cell36">
  <circle cx="1737.88" cy="301.847" r="9.93696" stroke-width="0.5" stroke="black" fill="red"/>
  <circle cx="1737.88" cy="301.847" r="6.03164" stroke-width="0.5" stroke="red" fill="red"/>
   </g>
   <g id="cell37">
  <circle cx="820.505" cy="932.095" r="8.77628" stroke-width="0.5" stroke="black" fill="red"/>
  <circle cx="820.505" cy="932.095" r="5.3239" stroke-width="0.5" stroke="red" fill="red"/>
   </g>
   <g id="cell38">
  <circle cx="1603.2" cy="1062.16" r="8.36825" stroke-width="0.5" stroke="black" fill="red"/>
  <circle cx="1603.2" cy="1062.16" r="5.03506" stroke-width="0.5" stroke="red" fill="red"/>
   </g>
   <g id="cell39">
  <circle cx="1168.98" cy="1199.66" r="8.72691" stroke-width="0.5" stroke="black" fill="grey"/>
  <circle cx="1168.98" cy="1199.66" r="5.28096" stroke-width="0.5" stroke="grey" fill="grey"/>
   </g>
   <g id="cell40">
  <circle cx="1703.96" cy="1284.52" r="10.5106" stroke-width="0.5" stroke="black" fill="grey"/>
  <circle cx="1703.96" cy="1284.52" r="6.32976" stroke-width="0.5" stroke="grey" fill="grey"/>
   </g>
   <g id="cell41">
  <circle cx="1236.85" cy="1378.43" r="8.41102" stroke-width="0.5" stroke="black" fill="grey"/>
  <circle cx="1236.85" cy="1378.43" r="5.05123" stroke-width="0.5" stroke="grey" fill="grey"/>
   </g>
   <g id="cell42">
  <circle cx="1110.05" cy="1123.8" r="10.4196" stroke-width="0.5" stroke="black" fill="grey"/>
  <circle cx="1110.05" cy="1123.8" r="6.28731" stroke-width="0.5" stroke="grey" fill="grey"/>
   </g>
   <g id="cell43">
  <circle cx="1085.35" cy="1080.13" r="8.41034" stroke-width="0.5" stroke="black" fill="grey"/>
  <circle cx="1085.35" cy="1080.13" r="5.05103" stroke-width="0.5" stroke="grey" fill="grey"/>
   </g>
   <g id="cell44">
  <circle cx="1651.81" cy="1183.52" r="9.98036" stroke-width="0.5" stroke="black" fill="grey"/>
  <circle cx="1651.81" cy="1183.52" r="6.05463" stroke-width="0.5" stroke="grey" fill="grey"/>
   </g>
   <g id="cell45">
  <circle cx="1536.87" cy="1029.98" r="10.0472" stroke-width="0.5" stroke="black" fill="red"/>
  <circle cx="1536.87" cy="1029.98" r="6.09204" stroke-width="0.5" stroke="red" fill="red"/>
   </g>
   <g id="cell46">
  <circle cx="1204.5" cy="1685.52" r="9.99721" stroke-width="0.5" stroke="black" fill="grey"/>
  <circle cx="1204.5" cy="1685.52" r="6.06425" stroke-width="0.5" stroke="grey" fill="grey"/>
   </g>
   <g id="cell47">
  <circle cx="1633.06" cy="179.496" r="9.23343" stroke-width="0.5" stroke="black" fill="red"/>
  <circle cx="1633.06" cy="179.496" r="5.61208" stroke-width="0.5" stroke="red" fill="red"/>
   </g>
   <g id="cell48">
  <circle cx="1167.65" cy="1767.65" r="9.61886" stroke-width="0.5" stroke="black" fill="grey"/>
  <circle cx="1167.65" cy="1767.65" r="5.84614" stroke-width="0.5" stroke="grey" fill="grey"/>
   </g>
   <g id="cell49">
  <circle cx="78.4792" cy="1989.22" r="8.884" stroke-width="0.5" stroke="black" fill="red"/>
  <circle cx="78.4792" cy="1989.22" r="5.3883" stroke-width="0.5" stroke="red" fill="red"/>
   </g>
   <g id="cell50">
  <circle cx="1136.86" cy="1153.14" r="8.72351" stroke-width="0.5" stroke="black" fill="grey"/>
  <circle cx="1136.86" cy="1153.14" r="5.27986" stroke-width="0.5" stroke="grey" fill="grey"/>
   </g>
   <g id="cell51">
  <circle cx="1173.82" cy="1280.55" r="10.3049" stroke-width="0.5" stroke="black" fill="grey"/>
  <circle cx="1173.82" cy="1280.55" r="6.23031" stroke-width="0.5" stroke="grey" fill="grey"/>
   </g>
   <g id="cell52">
  <circle cx="873.914" cy="589.33" r="9.8401" stroke-width="0.5" stroke="black" fill="grey"/>
  <circle cx="873.914" cy="589.33" r="5.97545" stroke-width="0.5" stroke="grey" fill="grey"/>
   </g>
   <g id="cell53">
  <circle cx="1184.69" cy="1271.35" r="5.03122" stroke-width="0.5" stroke="black" fill="grey"/>
  <circle cx="1184.69" cy="1271.35" r="3.59177" stroke-width="0.5" stroke="black" fill="black"/>
   </g>
   <g id="cell54">
  <circle cx="867.599" cy="550.36" r="9.64421" stroke-width="0.5" stroke="black" fill="grey"/>
  <circle cx="867.599" cy="550.36" r="5.86164" stroke-width="0.5" stroke="grey" fill="grey"/>
   </g>
   <g id="cell55">
  <circle cx="907.955" cy="586.869" r="10.1943" stroke-width="0.5" stroke="black" fill="grey"/>
  <circle cx="907.955" cy="586.869" r="6.17267" stroke-width="0.5" stroke="grey" fill="grey"/>
   </g>
   <g id="cell56">
  <circle cx="99.3885" cy="1930" r="9.43525" stroke-width="0.5" stroke="black" fill="red"/>
  <circle cx="99.3885" cy="1930" r="5.73711" stroke-width="0.5" stroke="red" fill="red"/>
   </g>
   <g id="cell57">
  <circle cx="1642.98" cy="262.91" r="9.03749" stroke-width="0.5" stroke="black" fill="red"/>
  <circle cx="1642.98" cy="262.91" r="5.49005" stroke-width="0.5" stroke="red" fill="red"/>
   </g>
   <g id="cell58">
  <circle cx="728.975" cy="857.168" r="8.40084" stroke-width="0.5" stroke="black" fill="red"/>
  <circle cx="728.975" cy="857.168" r="5.04787" stroke-width="0.5" stroke="red" fill="red"/>
   </g>
   <g id="cell59">
  <circle cx="1707.74" cy="304.484" r="8.40079" stroke-width="0.5" stroke="black" fill="red"/>
  <circle cx="1707.74" cy="304.484" r="5.04786" stroke-width="0.5" stroke="red" fill="red"/>
   </g>
   <g id="cell60">
  <circle cx="1689.89" cy="1195.23" r="8.8775" stroke-width="0.5" stroke="black" fill="grey"/>
  <circle cx="1689.89" cy="1195.23" r="5.38597" stroke-width="0.5" stroke="grey" fill="grey"/>
   </g>
   <g id="cell61">
  <circle cx="1155.81" cy="1757.33" r="8.39617" stroke-width="0.5" stroke="black" fill="grey"/>
  <circle cx="1155.81" cy="1757.33" r="5.04616" stroke-width="0.5" stroke="grey" fill="grey"/>
   </g>
   <g id="cell62">
  <circle cx="1136.64" cy="1666.6" r="8.39417" stroke-width="0.5" stroke="black" fill="grey"/>
  <circle cx="1136.64" cy="1666.6" r="5.04542" stroke-width="0.5" stroke="grey" fill="grey"/>
   </g>
   <g id="cell63">
  <circle cx="1653.81" cy="323.004" r="9.57922" stroke-width="0.5" stroke="black" fill="red"/>
  <circle cx="1653.81" cy="323.004" r="5.82521" stroke-width="0.5" stroke="red" fill="red"/>
   </g>
   <g id="cell64">
  <circle cx="1694.04" cy="1159.47" r="8.38678" stroke-width="0.5" stroke="black" fill="grey"/>
  <circle cx="1694.04" cy="1159.47" r="5.04257" stroke-width="0.5" stroke="grey" fill="grey"/>
   </g>
   <g id="cell65">
  <circle cx="1286.97" cy="1264.02" r="8.38027" stroke-width="0.5" stroke="black" fill="grey"/>
  <circle cx="1286.97" cy="1264.02" r="5.03997" stroke-width="0.5" stroke="grey" fill="grey"/>
   </g>
   <g id="cell66">
  <circle cx="809.914" cy="893.067" r="8.47885" stroke-width="0.5" stroke="black" fill="red"/>
  <circle cx="809.914" cy="893.067" r="5.11323" stroke-width="0.5" stroke="red" fill="red"/>
   </g>
   <g id="cell67">
  <circle cx="1603.64" cy="1037.11" r="8.38826" stroke-width="0.5" stroke="black" fill="red"/>
  <circle cx="1603.64" cy="1037.11" r="5.04901" stroke-width="0.5" stroke="red" fill="red"/>
   </g>
   <g id="cell68">
  <circle cx="800.648" cy="1023.59" r="8.36302" stroke-width="0.5" stroke="black" fill="red"/>
  <circle cx="800.648" cy="1023.59" r="5.03284" stroke-width="0.5" stroke="red" fill="red"/>
   </g>
  </g>
 </g>
  <rect x="1750" y="2070" width="200" height="20" stroke-width="4" stroke="rgb(255,255,255)" fill="rgb(0,0,0)"/>
  <text x="1762.5" y="2057.5"
   font-family="Arial" font-size="50" fill="black" >
   200 &#956;m
  </text>
  <text x="50" y="2090"
   font-family="Arial" font-size="37.5" fill="black" >
   0 days, 0 hours, 1 minutes, and 18.3827 seconds
  </text>
  <rect x="0" y="140" width="2000" height="2000" stroke-width="4" stroke="rgb(0,0,0)" fill="none"/>
</svg>
