<?xml version="1.0" encoding="UTF-8" standalone="no"?>
<!-- Created with PhysiCell (http://PhysiCell.MathCancer.org/) -->
<svg 
 xmlns:dc="http://purl.org/dc/elements/1.1/" 
 xmlns:cc="http://creativecommons.org/ns#" 
 xmlns:rdf="http://www.w3.org/1999/02/22-rdf-syntax-ns#" 
 xmlns:svg="http://www.w3.org/2000/svg" 
 xmlns="http://www.w3.org/2000/svg" 
 version="1.1" 
 width="2000" 
 height="2140" 
 id="svg2">
  <rect x="0" y="0" width="2000" height="2140" stroke-width="4" stroke="white" fill="white"/>
  <text x="25" y="60"
   font-family="Arial" font-size="50" fill="black" >
   Current time: 0 days, 23 hours, and 20.00 minutes, z = 0.00 &#956;m
  </text>
  <text x="25" y="115"
   font-family="Arial" font-size="47.5" fill="black" >
   185 agents
  </text>
 <g id="tissue" 
    transform="translate(0,2140) scale(1,-1)">
  <g id="ECM">
  </g>
  <g id="cells">
   <g id="cell0">
  <circle cx="1150.48" cy="1240.62" r="9.22276" stroke-width="0.5" stroke="black" fill="grey"/>
  <circle cx="1150.48" cy="1240.62" r="5.60814" stroke-width="0.5" stroke="grey" fill="grey"/>
   </g>
   <g id="cell1">
  <circle cx="1669.24" cy="1289.42" r="9.79379" stroke-width="0.5" stroke="black" fill="grey"/>
  <circle cx="1669.24" cy="1289.42" r="5.94912" stroke-width="0.5" stroke="grey" fill="grey"/>
   </g>
   <g id="cell2">
  <circle cx="1099.48" cy="1721.12" r="9.58857" stroke-width="0.5" stroke="black" fill="grey"/>
  <circle cx="1099.48" cy="1721.12" r="5.82871" stroke-width="0.5" stroke="grey" fill="grey"/>
   </g>
   <g id="cell3">
  <circle cx="1234.49" cy="1289.87" r="8.40667" stroke-width="0.5" stroke="black" fill="grey"/>
  <circle cx="1234.49" cy="1289.87" r="5.04987" stroke-width="0.5" stroke="grey" fill="grey"/>
   </g>
   <g id="cell4">
  <circle cx="913.401" cy="646.329" r="10.1212" stroke-width="0.5" stroke="black" fill="grey"/>
  <circle cx="913.401" cy="646.329" r="6.1327" stroke-width="0.5" stroke="grey" fill="grey"/>
   </g>
   <g id="cell5">
  <circle cx="131.822" cy="1931.18" r="10.4862" stroke-width="0.5" stroke="black" fill="grey"/>
  <circle cx="131.822" cy="1931.18" r="6.31853" stroke-width="0.5" stroke="grey" fill="grey"/>
   </g>
   <g id="cell6">
  <circle cx="852.784" cy="947.655" r="9.36905" stroke-width="0.5" stroke="black" fill="grey"/>
  <circle cx="852.784" cy="947.655" r="5.69692" stroke-width="0.5" stroke="grey" fill="grey"/>
   </g>
   <g id="cell7">
  <circle cx="1513.4" cy="1017.34" r="9.33128" stroke-width="0.5" stroke="black" fill="grey"/>
  <circle cx="1513.4" cy="1017.34" r="5.67469" stroke-width="0.5" stroke="grey" fill="grey"/>
   </g>
   <g id="cell166">
  <circle cx="659.886" cy="996.35" r="8.53459" stroke-width="0.5" stroke="black" fill="red"/>
  <circle cx="659.886" cy="996.35" r="5.14627" stroke-width="0.5" stroke="red" fill="red"/>
   </g>
   <g id="cell9">
  <circle cx="1662.11" cy="209.644" r="10.5092" stroke-width="0.5" stroke="black" fill="grey"/>
  <circle cx="1662.11" cy="209.644" r="6.32893" stroke-width="0.5" stroke="grey" fill="grey"/>
   </g>
   <g id="cell10">
  <circle cx="196.069" cy="1268.16" r="9.158" stroke-width="0.5" stroke="black" fill="grey"/>
  <circle cx="196.069" cy="1268.16" r="5.56523" stroke-width="0.5" stroke="grey" fill="grey"/>
   </g>
   <g id="cell11">
  <circle cx="793.852" cy="1675.78" r="10.0786" stroke-width="0.5" stroke="black" fill="grey"/>
  <circle cx="793.852" cy="1675.78" r="6.10926" stroke-width="0.5" stroke="grey" fill="grey"/>
   </g>
   <g id="cell12">
  <circle cx="1507.2" cy="290.033" r="9.93927" stroke-width="0.5" stroke="black" fill="grey"/>
  <circle cx="1507.2" cy="290.033" r="6.03247" stroke-width="0.5" stroke="grey" fill="grey"/>
   </g>
   <g id="cell13">
  <circle cx="1694.96" cy="1942.48" r="8.6095" stroke-width="0.5" stroke="black" fill="grey"/>
  <circle cx="1694.96" cy="1942.48" r="5.19918" stroke-width="0.5" stroke="grey" fill="grey"/>
   </g>
   <g id="cell14">
  <circle cx="1649.86" cy="1582.09" r="9.79224" stroke-width="0.5" stroke="black" fill="grey"/>
  <circle cx="1649.86" cy="1582.09" r="5.94857" stroke-width="0.5" stroke="grey" fill="grey"/>
   </g>
   <g id="cell15">
  <circle cx="1005.95" cy="1586.56" r="9.36812" stroke-width="0.5" stroke="black" fill="grey"/>
  <circle cx="1005.95" cy="1586.56" r="5.69658" stroke-width="0.5" stroke="grey" fill="grey"/>
   </g>
   <g id="cell188">
  <circle cx="876.729" cy="1430.22" r="8.37208" stroke-width="0.5" stroke="black" fill="grey"/>
  <circle cx="876.729" cy="1430.22" r="5.03661" stroke-width="0.5" stroke="grey" fill="grey"/>
   </g>
   <g id="cell17">
  <circle cx="1125.36" cy="304.762" r="3.79887" stroke-width="0.5" stroke="black" fill="grey"/>
  <circle cx="1125.36" cy="304.762" r="3.05629" stroke-width="0.5" stroke="black" fill="black"/>
   </g>
   <g id="cell18">
  <circle cx="1876.74" cy="1551.99" r="8.40667" stroke-width="0.5" stroke="black" fill="grey"/>
  <circle cx="1876.74" cy="1551.99" r="5.04987" stroke-width="0.5" stroke="grey" fill="grey"/>
   </g>
   <g id="cell19">
  <circle cx="180.777" cy="844.481" r="8.40056" stroke-width="0.5" stroke="black" fill="grey"/>
  <circle cx="180.777" cy="844.481" r="5.04776" stroke-width="0.5" stroke="grey" fill="grey"/>
   </g>
   <g id="cell20">
  <circle cx="537.246" cy="360.694" r="8.39144" stroke-width="0.5" stroke="black" fill="grey"/>
  <circle cx="537.246" cy="360.694" r="5.04437" stroke-width="0.5" stroke="grey" fill="grey"/>
   </g>
   <g id="cell21">
  <circle cx="1498.95" cy="812.361" r="8.40884" stroke-width="0.5" stroke="black" fill="grey"/>
  <circle cx="1498.95" cy="812.361" r="5.05057" stroke-width="0.5" stroke="grey" fill="grey"/>
   </g>
   <g id="cell22">
  <circle cx="1172.46" cy="293.314" r="10.2708" stroke-width="0.5" stroke="black" fill="grey"/>
  <circle cx="1172.46" cy="293.314" r="6.21238" stroke-width="0.5" stroke="grey" fill="grey"/>
   </g>
   <g id="cell23">
  <circle cx="634.112" cy="1271.7" r="10.2304" stroke-width="0.5" stroke="black" fill="grey"/>
  <circle cx="634.112" cy="1271.7" r="6.19127" stroke-width="0.5" stroke="grey" fill="grey"/>
   </g>
   <g id="cell24">
  <circle cx="1210.33" cy="446.4" r="8.40056" stroke-width="0.5" stroke="black" fill="grey"/>
  <circle cx="1210.33" cy="446.4" r="5.04776" stroke-width="0.5" stroke="grey" fill="grey"/>
   </g>
   <g id="cell25">
  <circle cx="715.412" cy="1836.68" r="8.58661" stroke-width="0.5" stroke="black" fill="grey"/>
  <circle cx="715.412" cy="1836.68" r="5.19057" stroke-width="0.5" stroke="grey" fill="grey"/>
   </g>
   <g id="cell26">
  <circle cx="1306.74" cy="949.112" r="10.2185" stroke-width="0.5" stroke="black" fill="grey"/>
  <circle cx="1306.74" cy="949.112" r="6.18521" stroke-width="0.5" stroke="grey" fill="grey"/>
   </g>
   <g id="cell27">
  <circle cx="1215.53" cy="903.103" r="8.40022" stroke-width="0.5" stroke="black" fill="grey"/>
  <circle cx="1215.53" cy="903.103" r="5.04764" stroke-width="0.5" stroke="grey" fill="grey"/>
   </g>
   <g id="cell28">
  <circle cx="1398.86" cy="162.791" r="9.8177" stroke-width="0.5" stroke="black" fill="grey"/>
  <circle cx="1398.86" cy="162.791" r="5.96264" stroke-width="0.5" stroke="grey" fill="grey"/>
   </g>
   <g id="cell29">
  <circle cx="1892.18" cy="1374.97" r="8.39913" stroke-width="0.5" stroke="black" fill="grey"/>
  <circle cx="1892.18" cy="1374.97" r="5.04725" stroke-width="0.5" stroke="grey" fill="grey"/>
   </g>
   <g id="cell30">
  <circle cx="1381.88" cy="336.36" r="9.47125" stroke-width="0.5" stroke="black" fill="grey"/>
  <circle cx="1381.88" cy="336.36" r="5.75781" stroke-width="0.5" stroke="grey" fill="grey"/>
   </g>
   <g id="cell31">
  <circle cx="681.399" cy="305.995" r="1.3282" stroke-width="0.5" stroke="black" fill="grey"/>
  <circle cx="681.399" cy="305.995" r="1.31919" stroke-width="0.5" stroke="black" fill="black"/>
   </g>
   <g id="cell32">
  <circle cx="676.171" cy="1256.44" r="10.2405" stroke-width="0.5" stroke="black" fill="grey"/>
  <circle cx="676.171" cy="1256.44" r="6.19667" stroke-width="0.5" stroke="grey" fill="grey"/>
   </g>
   <g id="cell33">
  <circle cx="647.853" cy="1124.33" r="8.53781" stroke-width="0.5" stroke="black" fill="grey"/>
  <circle cx="647.853" cy="1124.33" r="5.1474" stroke-width="0.5" stroke="grey" fill="grey"/>
   </g>
   <g id="cell34">
  <circle cx="907.111" cy="1247.15" r="9.78947" stroke-width="0.5" stroke="black" fill="grey"/>
  <circle cx="907.111" cy="1247.15" r="5.94755" stroke-width="0.5" stroke="grey" fill="grey"/>
   </g>
   <g id="cell35">
  <circle cx="1930.15" cy="203.077" r="10.5039" stroke-width="0.5" stroke="black" fill="grey"/>
  <circle cx="1930.15" cy="203.077" r="6.32657" stroke-width="0.5" stroke="grey" fill="grey"/>
   </g>
   <g id="cell36">
  <circle cx="447.104" cy="1227.4" r="10.4613" stroke-width="0.5" stroke="black" fill="grey"/>
  <circle cx="447.104" cy="1227.4" r="6.30695" stroke-width="0.5" stroke="grey" fill="grey"/>
   </g>
   <g id="cell37">
  <circle cx="1945.04" cy="1289.7" r="10.4446" stroke-width="0.5" stroke="black" fill="grey"/>
  <circle cx="1945.04" cy="1289.7" r="6.29905" stroke-width="0.5" stroke="grey" fill="grey"/>
   </g>
   <g id="cell38">
  <circle cx="507.228" cy="819.874" r="10.0923" stroke-width="0.5" stroke="black" fill="grey"/>
  <circle cx="507.228" cy="819.874" r="6.11702" stroke-width="0.5" stroke="grey" fill="grey"/>
   </g>
   <g id="cell39">
  <circle cx="922.757" cy="492.182" r="9.97716" stroke-width="0.5" stroke="black" fill="grey"/>
  <circle cx="922.757" cy="492.182" r="6.05356" stroke-width="0.5" stroke="grey" fill="grey"/>
   </g>
   <g id="cell40">
  <circle cx="303.053" cy="701.716" r="9.33547" stroke-width="0.5" stroke="black" fill="grey"/>
  <circle cx="303.053" cy="701.716" r="5.67626" stroke-width="0.5" stroke="grey" fill="grey"/>
   </g>
   <g id="cell41">
  <circle cx="1414.54" cy="1272.12" r="8.38753" stroke-width="0.5" stroke="black" fill="grey"/>
  <circle cx="1414.54" cy="1272.12" r="5.04286" stroke-width="0.5" stroke="grey" fill="grey"/>
   </g>
   <g id="cell42">
  <circle cx="277.806" cy="1512.06" r="9.99632" stroke-width="0.5" stroke="black" fill="grey"/>
  <circle cx="277.806" cy="1512.06" r="6.06395" stroke-width="0.5" stroke="grey" fill="grey"/>
   </g>
   <g id="cell43">
  <circle cx="1868.48" cy="751.308" r="10.3143" stroke-width="0.5" stroke="black" fill="grey"/>
  <circle cx="1868.48" cy="751.308" r="6.23493" stroke-width="0.5" stroke="grey" fill="grey"/>
   </g>
   <g id="cell44">
  <circle cx="1647.33" cy="9.38614" r="10.3141" stroke-width="0.5" stroke="black" fill="grey"/>
  <circle cx="1647.33" cy="9.38614" r="6.23486" stroke-width="0.5" stroke="grey" fill="grey"/>
   </g>
   <g id="cell45">
  <circle cx="1259.85" cy="1657.97" r="10.1839" stroke-width="0.5" stroke="black" fill="grey"/>
  <circle cx="1259.85" cy="1657.97" r="6.16684" stroke-width="0.5" stroke="grey" fill="grey"/>
   </g>
   <g id="cell46">
  <circle cx="181.106" cy="1973.9" r="8.47727" stroke-width="0.5" stroke="black" fill="grey"/>
  <circle cx="181.106" cy="1973.9" r="5.1015" stroke-width="0.5" stroke="grey" fill="grey"/>
   </g>
   <g id="cell47">
  <circle cx="1755.29" cy="905.172" r="8.50732" stroke-width="0.5" stroke="black" fill="grey"/>
  <circle cx="1755.29" cy="905.172" r="5.13563" stroke-width="0.5" stroke="grey" fill="grey"/>
   </g>
   <g id="cell48">
  <circle cx="1919.06" cy="106.149" r="9.158" stroke-width="0.5" stroke="black" fill="grey"/>
  <circle cx="1919.06" cy="106.149" r="5.56523" stroke-width="0.5" stroke="grey" fill="grey"/>
   </g>
   <g id="cell49">
  <circle cx="893.292" cy="1430.85" r="8.37208" stroke-width="0.5" stroke="black" fill="grey"/>
  <circle cx="893.292" cy="1430.85" r="5.03661" stroke-width="0.5" stroke="grey" fill="grey"/>
   </g>
   <g id="cell50">
  <circle cx="104.401" cy="925.408" r="8.87942" stroke-width="0.5" stroke="black" fill="red"/>
  <circle cx="104.401" cy="925.408" r="5.38668" stroke-width="0.5" stroke="red" fill="red"/>
   </g>
   <g id="cell51">
  <circle cx="1971.65" cy="250.47" r="9.95793" stroke-width="0.5" stroke="black" fill="red"/>
  <circle cx="1971.65" cy="250.47" r="6.04299" stroke-width="0.5" stroke="red" fill="red"/>
   </g>
   <g id="cell52">
  <circle cx="602.817" cy="969.24" r="9.99257" stroke-width="0.5" stroke="black" fill="red"/>
  <circle cx="602.817" cy="969.24" r="6.06265" stroke-width="0.5" stroke="red" fill="red"/>
   </g>
   <g id="cell53">
  <circle cx="1314.55" cy="654.675" r="8.40022" stroke-width="0.5" stroke="black" fill="red"/>
  <circle cx="1314.55" cy="654.675" r="5.04764" stroke-width="0.5" stroke="red" fill="red"/>
   </g>
   <g id="cell54">
  <circle cx="870.699" cy="1884.96" r="10.0303" stroke-width="0.5" stroke="black" fill="red"/>
  <circle cx="870.699" cy="1884.96" r="6.08282" stroke-width="0.5" stroke="red" fill="red"/>
   </g>
   <g id="cell55">
  <circle cx="455.229" cy="1403.13" r="10.483" stroke-width="0.5" stroke="black" fill="red"/>
  <circle cx="455.229" cy="1403.13" r="6.31703" stroke-width="0.5" stroke="red" fill="red"/>
   </g>
   <g id="cell56">
  <circle cx="1184.08" cy="1738.56" r="8.39752" stroke-width="0.5" stroke="black" fill="red"/>
  <circle cx="1184.08" cy="1738.56" r="5.04666" stroke-width="0.5" stroke="red" fill="red"/>
   </g>
   <g id="cell57">
  <circle cx="993.346" cy="1084.45" r="8.79754" stroke-width="0.5" stroke="black" fill="red"/>
  <circle cx="993.346" cy="1084.45" r="5.33232" stroke-width="0.5" stroke="red" fill="red"/>
   </g>
   <g id="cell58">
  <circle cx="164.268" cy="1876.45" r="9.97908" stroke-width="0.5" stroke="black" fill="red"/>
  <circle cx="164.268" cy="1876.45" r="6.05421" stroke-width="0.5" stroke="red" fill="red"/>
   </g>
   <g id="cell59">
  <circle cx="204.678" cy="1806.79" r="10.3373" stroke-width="0.5" stroke="black" fill="red"/>
  <circle cx="204.678" cy="1806.79" r="6.24672" stroke-width="0.5" stroke="red" fill="red"/>
   </g>
   <g id="cell60">
  <circle cx="657.803" cy="73.5915" r="10.2405" stroke-width="0.5" stroke="black" fill="red"/>
  <circle cx="657.803" cy="73.5915" r="6.19667" stroke-width="0.5" stroke="red" fill="red"/>
   </g>
   <g id="cell61">
  <circle cx="1663.1" cy="254.123" r="8.57856" stroke-width="0.5" stroke="black" fill="red"/>
  <circle cx="1663.1" cy="254.123" r="5.17461" stroke-width="0.5" stroke="red" fill="red"/>
   </g>
   <g id="cell62">
  <circle cx="1423.34" cy="1673.72" r="8.47976" stroke-width="0.5" stroke="black" fill="red"/>
  <circle cx="1423.34" cy="1673.72" r="5.1023" stroke-width="0.5" stroke="red" fill="red"/>
   </g>
   <g id="cell63">
  <circle cx="468.671" cy="401.098" r="10.1849" stroke-width="0.5" stroke="black" fill="red"/>
  <circle cx="468.671" cy="401.098" r="6.16717" stroke-width="0.5" stroke="red" fill="red"/>
   </g>
   <g id="cell64">
  <circle cx="1160.34" cy="1114.08" r="10.3525" stroke-width="0.5" stroke="black" fill="red"/>
  <circle cx="1160.34" cy="1114.08" r="6.25429" stroke-width="0.5" stroke="red" fill="red"/>
   </g>
   <g id="cell65">
  <circle cx="355.719" cy="1688.66" r="10.5039" stroke-width="0.5" stroke="black" fill="red"/>
  <circle cx="355.719" cy="1688.66" r="6.32657" stroke-width="0.5" stroke="red" fill="red"/>
   </g>
   <g id="cell66">
  <circle cx="18.1414" cy="299.758" r="9.88341" stroke-width="0.5" stroke="black" fill="red"/>
  <circle cx="18.1414" cy="299.758" r="6.00001" stroke-width="0.5" stroke="red" fill="red"/>
   </g>
   <g id="cell67">
  <circle cx="1203.59" cy="543.888" r="9.61668" stroke-width="0.5" stroke="black" fill="red"/>
  <circle cx="1203.59" cy="543.888" r="5.84539" stroke-width="0.5" stroke="red" fill="red"/>
   </g>
   <g id="cell68">
  <circle cx="1441.06" cy="602.79" r="8.40715" stroke-width="0.5" stroke="black" fill="red"/>
  <circle cx="1441.06" cy="602.79" r="5.05003" stroke-width="0.5" stroke="red" fill="red"/>
   </g>
   <g id="cell69">
  <circle cx="895.796" cy="475.336" r="10.3721" stroke-width="0.5" stroke="black" fill="red"/>
  <circle cx="895.796" cy="475.336" r="6.26422" stroke-width="0.5" stroke="red" fill="red"/>
   </g>
   <g id="cell70">
  <circle cx="1132.87" cy="744.067" r="8.40925" stroke-width="0.5" stroke="black" fill="red"/>
  <circle cx="1132.87" cy="744.067" r="5.0507" stroke-width="0.5" stroke="red" fill="red"/>
   </g>
   <g id="cell71">
  <circle cx="1775.95" cy="1139.26" r="8.40934" stroke-width="0.5" stroke="black" fill="red"/>
  <circle cx="1775.95" cy="1139.26" r="5.05073" stroke-width="0.5" stroke="red" fill="red"/>
   </g>
   <g id="cell72">
  <circle cx="451.139" cy="1732.9" r="10.0295" stroke-width="0.5" stroke="black" fill="red"/>
  <circle cx="451.139" cy="1732.9" r="6.08258" stroke-width="0.5" stroke="red" fill="red"/>
   </g>
   <g id="cell73">
  <circle cx="1364.25" cy="828.464" r="8.40873" stroke-width="0.5" stroke="black" fill="red"/>
  <circle cx="1364.25" cy="828.464" r="5.05054" stroke-width="0.5" stroke="red" fill="red"/>
   </g>
   <g id="cell74">
  <circle cx="1692.21" cy="1965.83" r="8.4045" stroke-width="0.5" stroke="black" fill="red"/>
  <circle cx="1692.21" cy="1965.83" r="5.04914" stroke-width="0.5" stroke="red" fill="red"/>
   </g>
   <g id="cell75">
  <circle cx="239.126" cy="624.258" r="9.12066" stroke-width="0.5" stroke="black" fill="red"/>
  <circle cx="239.126" cy="624.258" r="5.54148" stroke-width="0.5" stroke="red" fill="red"/>
   </g>
   <g id="cell76">
  <circle cx="1676.44" cy="774.322" r="8.3995" stroke-width="0.5" stroke="black" fill="red"/>
  <circle cx="1676.44" cy="774.322" r="5.04738" stroke-width="0.5" stroke="red" fill="red"/>
   </g>
   <g id="cell77">
  <circle cx="1344.84" cy="1770.44" r="9.43116" stroke-width="0.5" stroke="black" fill="red"/>
  <circle cx="1344.84" cy="1770.44" r="5.73558" stroke-width="0.5" stroke="red" fill="red"/>
   </g>
   <g id="cell78">
  <circle cx="1105.89" cy="641.443" r="9.33889" stroke-width="0.5" stroke="black" fill="red"/>
  <circle cx="1105.89" cy="641.443" r="5.67747" stroke-width="0.5" stroke="red" fill="red"/>
   </g>
   <g id="cell79">
  <circle cx="1913.63" cy="1342.84" r="10.2892" stroke-width="0.5" stroke="black" fill="red"/>
  <circle cx="1913.63" cy="1342.84" r="6.22192" stroke-width="0.5" stroke="red" fill="red"/>
   </g>
   <g id="cell80">
  <circle cx="1439.46" cy="1323.59" r="8.45166" stroke-width="0.5" stroke="black" fill="red"/>
  <circle cx="1439.46" cy="1323.59" r="5.08169" stroke-width="0.5" stroke="red" fill="red"/>
   </g>
   <g id="cell81">
  <circle cx="1130.87" cy="1924.32" r="8.52333" stroke-width="0.5" stroke="black" fill="red"/>
  <circle cx="1130.87" cy="1924.32" r="5.14207" stroke-width="0.5" stroke="red" fill="red"/>
   </g>
   <g id="cell82">
  <circle cx="1212.74" cy="762.008" r="10.0307" stroke-width="0.5" stroke="black" fill="red"/>
  <circle cx="1212.74" cy="762.008" r="6.08296" stroke-width="0.5" stroke="red" fill="red"/>
   </g>
   <g id="cell83">
  <circle cx="1231.76" cy="1230.81" r="8.37431" stroke-width="0.5" stroke="black" fill="red"/>
  <circle cx="1231.76" cy="1230.81" r="5.03754" stroke-width="0.5" stroke="red" fill="red"/>
   </g>
   <g id="cell84">
  <circle cx="13.7636" cy="938.45" r="9.529" stroke-width="0.5" stroke="black" fill="red"/>
  <circle cx="13.7636" cy="938.45" r="5.79344" stroke-width="0.5" stroke="red" fill="red"/>
   </g>
   <g id="cell85">
  <circle cx="1443.39" cy="1289.98" r="10.0634" stroke-width="0.5" stroke="black" fill="red"/>
  <circle cx="1443.39" cy="1289.98" r="6.10088" stroke-width="0.5" stroke="red" fill="red"/>
   </g>
   <g id="cell86">
  <circle cx="546.265" cy="733.334" r="10.2395" stroke-width="0.5" stroke="black" fill="red"/>
  <circle cx="546.265" cy="733.334" r="6.19634" stroke-width="0.5" stroke="red" fill="red"/>
   </g>
   <g id="cell87">
  <circle cx="1485.07" cy="879.455" r="8.40953" stroke-width="0.5" stroke="black" fill="red"/>
  <circle cx="1485.07" cy="879.455" r="5.05079" stroke-width="0.5" stroke="red" fill="red"/>
   </g>
   <g id="cell88">
  <circle cx="289.554" cy="223.857" r="8.4009" stroke-width="0.5" stroke="black" fill="red"/>
  <circle cx="289.554" cy="223.857" r="5.04788" stroke-width="0.5" stroke="red" fill="red"/>
   </g>
   <g id="cell89">
  <circle cx="209.837" cy="1140.3" r="8.68654" stroke-width="0.5" stroke="black" fill="red"/>
  <circle cx="209.837" cy="1140.3" r="5.25334" stroke-width="0.5" stroke="red" fill="red"/>
   </g>
   <g id="cell90">
  <circle cx="1128.1" cy="1151.57" r="10.5092" stroke-width="0.5" stroke="black" fill="red"/>
  <circle cx="1128.1" cy="1151.57" r="6.32893" stroke-width="0.5" stroke="red" fill="red"/>
   </g>
   <g id="cell91">
  <circle cx="39.7975" cy="1305.38" r="9.43815" stroke-width="0.5" stroke="black" fill="red"/>
  <circle cx="39.7975" cy="1305.38" r="5.73814" stroke-width="0.5" stroke="red" fill="red"/>
   </g>
   <g id="cell92">
  <circle cx="1276.65" cy="706.235" r="8.82381" stroke-width="0.5" stroke="black" fill="red"/>
  <circle cx="1276.65" cy="706.235" r="5.35391" stroke-width="0.5" stroke="red" fill="red"/>
   </g>
   <g id="cell93">
  <circle cx="431.17" cy="1804.44" r="10.0149" stroke-width="0.5" stroke="black" fill="red"/>
  <circle cx="431.17" cy="1804.44" r="6.07399" stroke-width="0.5" stroke="red" fill="red"/>
   </g>
   <g id="cell94">
  <circle cx="728.204" cy="233.193" r="10.2297" stroke-width="0.5" stroke="black" fill="red"/>
  <circle cx="728.204" cy="233.193" r="6.19105" stroke-width="0.5" stroke="red" fill="red"/>
   </g>
   <g id="cell95">
  <circle cx="1925.36" cy="1812.55" r="9.61572" stroke-width="0.5" stroke="black" fill="red"/>
  <circle cx="1925.36" cy="1812.55" r="5.84505" stroke-width="0.5" stroke="red" fill="red"/>
   </g>
   <g id="cell180">
  <circle cx="1139.33" cy="1288.03" r="8.39571" stroke-width="0.5" stroke="black" fill="grey"/>
  <circle cx="1139.33" cy="1288.03" r="5.04599" stroke-width="0.5" stroke="grey" fill="grey"/>
   </g>
   <g id="cell97">
  <circle cx="907.043" cy="237.645" r="8.68303" stroke-width="0.5" stroke="black" fill="red"/>
  <circle cx="907.043" cy="237.645" r="5.25217" stroke-width="0.5" stroke="red" fill="red"/>
   </g>
   <g id="cell98">
  <circle cx="1791.73" cy="688.626" r="10.0624" stroke-width="0.5" stroke="black" fill="red"/>
  <circle cx="1791.73" cy="688.626" r="6.10054" stroke-width="0.5" stroke="red" fill="red"/>
   </g>
   <g id="cell99">
  <circle cx="922.885" cy="1971.06" r="8.50574" stroke-width="0.5" stroke="black" fill="red"/>
  <circle cx="922.885" cy="1971.06" r="5.12344" stroke-width="0.5" stroke="red" fill="red"/>
   </g>
   <g id="cell101">
  <circle cx="1374.28" cy="1344.09" r="10.0149" stroke-width="0.5" stroke="black" fill="red"/>
  <circle cx="1374.28" cy="1344.09" r="6.07399" stroke-width="0.5" stroke="red" fill="red"/>
   </g>
   <g id="cell102">
  <circle cx="476.748" cy="1796.05" r="8.40986" stroke-width="0.5" stroke="black" fill="red"/>
  <circle cx="476.748" cy="1796.05" r="5.05089" stroke-width="0.5" stroke="red" fill="red"/>
   </g>
   <g id="cell103">
  <circle cx="1900.91" cy="1355.12" r="1.22003" stroke-width="0.5" stroke="black" fill="red"/>
  <circle cx="1900.91" cy="1355.12" r="1.21491" stroke-width="0.5" stroke="black" fill="black"/>
   </g>
   <g id="cell104">
  <circle cx="781.581" cy="1673.93" r="3.42989" stroke-width="0.5" stroke="black" fill="grey"/>
  <circle cx="781.581" cy="1673.93" r="2.75501" stroke-width="0.5" stroke="black" fill="black"/>
   </g>
   <g id="cell105">
  <circle cx="251.691" cy="1142.42" r="10.1858" stroke-width="0.5" stroke="black" fill="red"/>
  <circle cx="251.691" cy="1142.42" r="6.16748" stroke-width="0.5" stroke="red" fill="red"/>
   </g>
   <g id="cell106">
  <circle cx="1152.11" cy="1159.56" r="10.1613" stroke-width="0.5" stroke="black" fill="red"/>
  <circle cx="1152.11" cy="1159.56" r="6.1543" stroke-width="0.5" stroke="black" fill="black"/>
   </g>
   <g id="cell107">
  <circle cx="1168.04" cy="238.653" r="10.3525" stroke-width="0.5" stroke="black" fill="grey"/>
  <circle cx="1168.04" cy="238.653" r="6.25429" stroke-width="0.5" stroke="grey" fill="grey"/>
   </g>
   <g id="cell108">
  <circle cx="1403.71" cy="1673.64" r="10.1352" stroke-width="0.5" stroke="black" fill="red"/>
  <circle cx="1403.71" cy="1673.64" r="6.14021" stroke-width="0.5" stroke="red" fill="red"/>
   </g>
   <g id="cell109">
  <circle cx="1469.21" cy="897.422" r="8.40953" stroke-width="0.5" stroke="black" fill="red"/>
  <circle cx="1469.21" cy="897.422" r="5.05079" stroke-width="0.5" stroke="red" fill="red"/>
   </g>
   <g id="cell110">
  <circle cx="1801.3" cy="1100.76" r="9.79672" stroke-width="0.5" stroke="black" fill="red"/>
  <circle cx="1801.3" cy="1100.76" r="5.95011" stroke-width="0.5" stroke="red" fill="red"/>
   </g>
   <g id="cell111">
  <circle cx="1137.82" cy="808.482" r="8.40925" stroke-width="0.5" stroke="black" fill="red"/>
  <circle cx="1137.82" cy="808.482" r="5.0507" stroke-width="0.5" stroke="red" fill="red"/>
   </g>
   <g id="cell112">
  <circle cx="570.068" cy="1243.4" r="10.3522" stroke-width="0.5" stroke="black" fill="grey"/>
  <circle cx="570.068" cy="1243.4" r="6.25418" stroke-width="0.5" stroke="grey" fill="grey"/>
   </g>
   <g id="cell113">
  <circle cx="1898.68" cy="736.963" r="10.3968" stroke-width="0.5" stroke="black" fill="grey"/>
  <circle cx="1898.68" cy="736.963" r="6.27637" stroke-width="0.5" stroke="grey" fill="grey"/>
   </g>
   <g id="cell114">
  <circle cx="969.75" cy="607.717" r="9.74912" stroke-width="0.5" stroke="black" fill="grey"/>
  <circle cx="969.75" cy="607.717" r="5.92257" stroke-width="0.5" stroke="grey" fill="grey"/>
   </g>
   <g id="cell115">
  <circle cx="1466.15" cy="844.937" r="8.40884" stroke-width="0.5" stroke="black" fill="grey"/>
  <circle cx="1466.15" cy="844.937" r="5.05057" stroke-width="0.5" stroke="grey" fill="grey"/>
   </g>
   <g id="cell116">
  <circle cx="1664.56" cy="22.247" r="10.2407" stroke-width="0.5" stroke="black" fill="grey"/>
  <circle cx="1664.56" cy="22.247" r="6.19671" stroke-width="0.5" stroke="grey" fill="grey"/>
   </g>
   <g id="cell117">
  <circle cx="1322.19" cy="375.797" r="8.40884" stroke-width="0.5" stroke="black" fill="grey"/>
  <circle cx="1322.19" cy="375.797" r="5.05057" stroke-width="0.5" stroke="grey" fill="grey"/>
   </g>
   <g id="cell118">
  <circle cx="60.5729" cy="294.144" r="10.2885" stroke-width="0.5" stroke="black" fill="red"/>
  <circle cx="60.5729" cy="294.144" r="6.22169" stroke-width="0.5" stroke="red" fill="red"/>
   </g>
   <g id="cell119">
  <circle cx="859.882" cy="525.124" r="8.40873" stroke-width="0.5" stroke="black" fill="red"/>
  <circle cx="859.882" cy="525.124" r="5.05054" stroke-width="0.5" stroke="red" fill="red"/>
   </g>
   <g id="cell120">
  <circle cx="1400.96" cy="878.159" r="9.97941" stroke-width="0.5" stroke="black" fill="red"/>
  <circle cx="1400.96" cy="878.159" r="6.05432" stroke-width="0.5" stroke="red" fill="red"/>
   </g>
   <g id="cell121">
  <circle cx="1176.22" cy="765.443" r="10.3373" stroke-width="0.5" stroke="black" fill="red"/>
  <circle cx="1176.22" cy="765.443" r="6.24674" stroke-width="0.5" stroke="red" fill="red"/>
   </g>
   <g id="cell122">
  <circle cx="620.336" cy="19.163" r="10.107" stroke-width="0.5" stroke="black" fill="red"/>
  <circle cx="620.336" cy="19.163" r="6.125" stroke-width="0.5" stroke="red" fill="red"/>
   </g>
   <g id="cell123">
  <circle cx="709.242" cy="1288.11" r="10.3518" stroke-width="0.5" stroke="black" fill="grey"/>
  <circle cx="709.242" cy="1288.11" r="6.25407" stroke-width="0.5" stroke="grey" fill="grey"/>
   </g>
   <g id="cell124">
  <circle cx="203.005" cy="1824.28" r="9.43922" stroke-width="0.5" stroke="black" fill="red"/>
  <circle cx="203.005" cy="1824.28" r="5.73851" stroke-width="0.5" stroke="red" fill="red"/>
   </g>
   <g id="cell125">
  <circle cx="1800.97" cy="662.321" r="9.86227" stroke-width="0.5" stroke="black" fill="red"/>
  <circle cx="1800.97" cy="662.321" r="5.98799" stroke-width="0.5" stroke="red" fill="red"/>
   </g>
   <g id="cell126">
  <circle cx="472.85" cy="451.739" r="8.64706" stroke-width="0.5" stroke="black" fill="red"/>
  <circle cx="472.85" cy="451.739" r="5.22594" stroke-width="0.5" stroke="red" fill="red"/>
   </g>
   <g id="cell127">
  <circle cx="220.168" cy="1791.08" r="9.50182" stroke-width="0.5" stroke="black" fill="red"/>
  <circle cx="220.168" cy="1791.08" r="5.77635" stroke-width="0.5" stroke="red" fill="red"/>
   </g>
   <g id="cell128">
  <circle cx="1459.53" cy="1326.48" r="10.1068" stroke-width="0.5" stroke="black" fill="red"/>
  <circle cx="1459.53" cy="1326.48" r="6.12492" stroke-width="0.5" stroke="red" fill="red"/>
   </g>
   <g id="cell129">
  <circle cx="725.422" cy="212.716" r="8.92424" stroke-width="0.5" stroke="black" fill="red"/>
  <circle cx="725.422" cy="212.716" r="5.41483" stroke-width="0.5" stroke="red" fill="red"/>
   </g>
   <g id="cell130">
  <circle cx="487.575" cy="835.437" r="8.40814" stroke-width="0.5" stroke="black" fill="grey"/>
  <circle cx="487.575" cy="835.437" r="5.05035" stroke-width="0.5" stroke="grey" fill="grey"/>
   </g>
   <g id="cell131">
  <circle cx="830.138" cy="1840.12" r="8.40801" stroke-width="0.5" stroke="black" fill="red"/>
  <circle cx="830.138" cy="1840.12" r="5.05031" stroke-width="0.5" stroke="red" fill="red"/>
   </g>
   <g id="cell132">
  <circle cx="196.657" cy="682.313" r="8.53972" stroke-width="0.5" stroke="black" fill="red"/>
  <circle cx="196.657" cy="682.313" r="5.14804" stroke-width="0.5" stroke="red" fill="red"/>
   </g>
   <g id="cell133">
  <circle cx="1126.29" cy="634.964" r="8.40774" stroke-width="0.5" stroke="black" fill="red"/>
  <circle cx="1126.29" cy="634.964" r="5.05022" stroke-width="0.5" stroke="red" fill="red"/>
   </g>
   <g id="cell134">
  <circle cx="1739.57" cy="1928.69" r="8.40774" stroke-width="0.5" stroke="black" fill="grey"/>
  <circle cx="1739.57" cy="1928.69" r="5.05022" stroke-width="0.5" stroke="grey" fill="grey"/>
   </g>
   <g id="cell135">
  <circle cx="232.716" cy="1554.87" r="8.40774" stroke-width="0.5" stroke="black" fill="grey"/>
  <circle cx="232.716" cy="1554.87" r="5.05022" stroke-width="0.5" stroke="grey" fill="grey"/>
   </g>
   <g id="cell136">
  <circle cx="1350.8" cy="935.182" r="8.40745" stroke-width="0.5" stroke="black" fill="grey"/>
  <circle cx="1350.8" cy="935.182" r="5.05013" stroke-width="0.5" stroke="grey" fill="grey"/>
   </g>
   <g id="cell137">
  <circle cx="1105.43" cy="311.019" r="10.0132" stroke-width="0.5" stroke="black" fill="grey"/>
  <circle cx="1105.43" cy="311.019" r="6.07344" stroke-width="0.5" stroke="grey" fill="grey"/>
   </g>
   <g id="cell138">
  <circle cx="1507.89" cy="566.825" r="8.40715" stroke-width="0.5" stroke="black" fill="red"/>
  <circle cx="1507.89" cy="566.825" r="5.05003" stroke-width="0.5" stroke="red" fill="red"/>
   </g>
   <g id="cell139">
  <circle cx="564.087" cy="785.505" r="10.1596" stroke-width="0.5" stroke="black" fill="red"/>
  <circle cx="564.087" cy="785.505" r="6.15374" stroke-width="0.5" stroke="red" fill="red"/>
   </g>
   <g id="cell140">
  <circle cx="694.561" cy="308.139" r="8.40715" stroke-width="0.5" stroke="black" fill="grey"/>
  <circle cx="694.561" cy="308.139" r="5.05003" stroke-width="0.5" stroke="grey" fill="grey"/>
   </g>
   <g id="cell141">
  <circle cx="61.0649" cy="1302.93" r="8.40715" stroke-width="0.5" stroke="black" fill="red"/>
  <circle cx="61.0649" cy="1302.93" r="5.05003" stroke-width="0.5" stroke="red" fill="red"/>
   </g>
   <g id="cell142">
  <circle cx="454.212" cy="1754.71" r="9.83978" stroke-width="0.5" stroke="black" fill="red"/>
  <circle cx="454.212" cy="1754.71" r="5.97534" stroke-width="0.5" stroke="red" fill="red"/>
   </g>
   <g id="cell143">
  <circle cx="1423.53" cy="134.858" r="8.407" stroke-width="0.5" stroke="black" fill="grey"/>
  <circle cx="1423.53" cy="134.858" r="5.04998" stroke-width="0.5" stroke="grey" fill="grey"/>
   </g>
   <g id="cell144">
  <circle cx="1904.53" cy="98.2118" r="8.407" stroke-width="0.5" stroke="black" fill="grey"/>
  <circle cx="1904.53" cy="98.2118" r="5.04998" stroke-width="0.5" stroke="grey" fill="grey"/>
   </g>
   <g id="cell145">
  <circle cx="234.337" cy="1298.89" r="9.04251" stroke-width="0.5" stroke="black" fill="grey"/>
  <circle cx="234.337" cy="1298.89" r="5.49186" stroke-width="0.5" stroke="grey" fill="grey"/>
   </g>
   <g id="cell146">
  <circle cx="173.492" cy="1940.87" r="9.26819" stroke-width="0.5" stroke="black" fill="grey"/>
  <circle cx="173.492" cy="1940.87" r="5.63404" stroke-width="0.5" stroke="grey" fill="grey"/>
   </g>
   <g id="cell147">
  <circle cx="1251.23" cy="1627.01" r="10.2593" stroke-width="0.5" stroke="black" fill="grey"/>
  <circle cx="1251.23" cy="1627.01" r="6.20676" stroke-width="0.5" stroke="grey" fill="grey"/>
   </g>
   <g id="cell148">
  <circle cx="1226.95" cy="1252.32" r="10.1332" stroke-width="0.5" stroke="black" fill="grey"/>
  <circle cx="1226.95" cy="1252.32" r="6.13956" stroke-width="0.5" stroke="grey" fill="grey"/>
   </g>
   <g id="cell149">
  <circle cx="1916.32" cy="1557.4" r="8.40667" stroke-width="0.5" stroke="black" fill="grey"/>
  <circle cx="1916.32" cy="1557.4" r="5.04987" stroke-width="0.5" stroke="grey" fill="grey"/>
   </g>
   <g id="cell150">
  <circle cx="931.165" cy="256.605" r="10.1712" stroke-width="0.5" stroke="black" fill="red"/>
  <circle cx="931.165" cy="256.605" r="6.16016" stroke-width="0.5" stroke="red" fill="red"/>
   </g>
   <g id="cell151">
  <circle cx="1114.68" cy="1705.81" r="9.58857" stroke-width="0.5" stroke="black" fill="grey"/>
  <circle cx="1114.68" cy="1705.81" r="5.82871" stroke-width="0.5" stroke="grey" fill="grey"/>
   </g>
   <g id="cell152">
  <circle cx="617.607" cy="1135.35" r="8.40576" stroke-width="0.5" stroke="black" fill="grey"/>
  <circle cx="617.607" cy="1135.35" r="5.04957" stroke-width="0.5" stroke="grey" fill="grey"/>
   </g>
   <g id="cell153">
  <circle cx="947.744" cy="1958.46" r="9.002" stroke-width="0.5" stroke="black" fill="red"/>
  <circle cx="947.744" cy="1958.46" r="5.4661" stroke-width="0.5" stroke="red" fill="red"/>
   </g>
   <g id="cell154">
  <circle cx="1174.06" cy="553.943" r="9.08046" stroke-width="0.5" stroke="black" fill="red"/>
  <circle cx="1174.06" cy="553.943" r="5.51643" stroke-width="0.5" stroke="red" fill="red"/>
   </g>
   <g id="cell155">
  <circle cx="911.266" cy="519.473" r="9.97716" stroke-width="0.5" stroke="black" fill="grey"/>
  <circle cx="911.266" cy="519.473" r="6.05356" stroke-width="0.5" stroke="grey" fill="grey"/>
   </g>
   <g id="cell156">
  <circle cx="1699.85" cy="1282.12" r="9.40421" stroke-width="0.5" stroke="black" fill="grey"/>
  <circle cx="1699.85" cy="1282.12" r="5.71789" stroke-width="0.5" stroke="grey" fill="grey"/>
   </g>
   <g id="cell157">
  <circle cx="1930.05" cy="1839.59" r="10.0749" stroke-width="0.5" stroke="black" fill="red"/>
  <circle cx="1930.05" cy="1839.59" r="6.10802" stroke-width="0.5" stroke="red" fill="red"/>
   </g>
   <g id="cell158">
  <circle cx="1647.73" cy="1950.8" r="9.5876" stroke-width="0.5" stroke="black" fill="red"/>
  <circle cx="1647.73" cy="1950.8" r="5.82836" stroke-width="0.5" stroke="red" fill="red"/>
   </g>
   <g id="cell159">
  <circle cx="69.0792" cy="965.724" r="10.0748" stroke-width="0.5" stroke="black" fill="red"/>
  <circle cx="69.0792" cy="965.724" r="6.10797" stroke-width="0.5" stroke="red" fill="red"/>
   </g>
   <g id="cell160">
  <circle cx="1982.54" cy="215.344" r="9.95793" stroke-width="0.5" stroke="black" fill="red"/>
  <circle cx="1982.54" cy="215.344" r="6.04299" stroke-width="0.5" stroke="red" fill="red"/>
   </g>
   <g id="cell161">
  <circle cx="1549.29" cy="304.615" r="9.93927" stroke-width="0.5" stroke="black" fill="grey"/>
  <circle cx="1549.29" cy="304.615" r="6.03247" stroke-width="0.5" stroke="grey" fill="grey"/>
   </g>
   <g id="cell162">
  <circle cx="252.762" cy="714.974" r="8.40353" stroke-width="0.5" stroke="black" fill="grey"/>
  <circle cx="252.762" cy="714.974" r="5.04881" stroke-width="0.5" stroke="grey" fill="grey"/>
   </g>
   <g id="cell163">
  <circle cx="1598.84" cy="1596.17" r="8.40327" stroke-width="0.5" stroke="black" fill="grey"/>
  <circle cx="1598.84" cy="1596.17" r="5.04872" stroke-width="0.5" stroke="grey" fill="grey"/>
   </g>
   <g id="cell164">
  <circle cx="816.78" cy="927.272" r="9.43485" stroke-width="0.5" stroke="black" fill="grey"/>
  <circle cx="816.78" cy="927.272" r="5.73696" stroke-width="0.5" stroke="grey" fill="grey"/>
   </g>
   <g id="cell165">
  <circle cx="102.135" cy="897.358" r="9.33505" stroke-width="0.5" stroke="black" fill="red"/>
  <circle cx="102.135" cy="897.358" r="5.6761" stroke-width="0.5" stroke="red" fill="red"/>
   </g>
   <g id="cell167">
  <circle cx="998.218" cy="1560.01" r="8.40185" stroke-width="0.5" stroke="black" fill="grey"/>
  <circle cx="998.218" cy="1560.01" r="5.04822" stroke-width="0.5" stroke="grey" fill="grey"/>
   </g>
   <g id="cell168">
  <circle cx="1004.13" cy="1063.59" r="8.40154" stroke-width="0.5" stroke="black" fill="red"/>
  <circle cx="1004.13" cy="1063.59" r="5.04811" stroke-width="0.5" stroke="red" fill="red"/>
   </g>
   <g id="cell169">
  <circle cx="260.808" cy="210.15" r="8.5672" stroke-width="0.5" stroke="black" fill="red"/>
  <circle cx="260.808" cy="210.15" r="5.17089" stroke-width="0.5" stroke="red" fill="red"/>
   </g>
   <g id="cell170">
  <circle cx="214.651" cy="848.558" r="8.40056" stroke-width="0.5" stroke="black" fill="grey"/>
  <circle cx="214.651" cy="848.558" r="5.04776" stroke-width="0.5" stroke="grey" fill="grey"/>
   </g>
   <g id="cell171">
  <circle cx="1218.28" cy="418.46" r="8.53277" stroke-width="0.5" stroke="black" fill="grey"/>
  <circle cx="1218.28" cy="418.46" r="5.14562" stroke-width="0.5" stroke="grey" fill="grey"/>
   </g>
   <g id="cell172">
  <circle cx="1236.7" cy="899.132" r="8.56655" stroke-width="0.5" stroke="black" fill="grey"/>
  <circle cx="1236.7" cy="899.132" r="5.17065" stroke-width="0.5" stroke="grey" fill="grey"/>
   </g>
   <g id="cell173">
  <circle cx="1328.94" cy="654.082" r="9.76664" stroke-width="0.5" stroke="black" fill="red"/>
  <circle cx="1328.94" cy="654.082" r="5.93422" stroke-width="0.5" stroke="red" fill="red"/>
   </g>
   <g id="cell174">
  <circle cx="1659.49" cy="788.004" r="9.52529" stroke-width="0.5" stroke="black" fill="red"/>
  <circle cx="1659.49" cy="788.004" r="5.79207" stroke-width="0.5" stroke="red" fill="red"/>
   </g>
   <g id="cell175">
  <circle cx="889.023" cy="1230.35" r="9.74209" stroke-width="0.5" stroke="black" fill="grey"/>
  <circle cx="889.023" cy="1230.35" r="5.92007" stroke-width="0.5" stroke="grey" fill="grey"/>
   </g>
   <g id="cell176">
  <circle cx="1915.75" cy="1367.48" r="8.60129" stroke-width="0.5" stroke="black" fill="grey"/>
  <circle cx="1915.75" cy="1367.48" r="5.19627" stroke-width="0.5" stroke="grey" fill="grey"/>
   </g>
   <g id="cell177">
  <circle cx="1355.39" cy="1831.03" r="9.07411" stroke-width="0.5" stroke="black" fill="red"/>
  <circle cx="1355.39" cy="1831.03" r="5.51407" stroke-width="0.5" stroke="red" fill="red"/>
   </g>
   <g id="cell178">
  <circle cx="1545.45" cy="1036.26" r="8.87525" stroke-width="0.5" stroke="black" fill="grey"/>
  <circle cx="1545.45" cy="1036.26" r="5.38512" stroke-width="0.5" stroke="grey" fill="grey"/>
   </g>
   <g id="cell179">
  <circle cx="1163.48" cy="1701.41" r="9.58223" stroke-width="0.5" stroke="black" fill="red"/>
  <circle cx="1163.48" cy="1701.41" r="5.82637" stroke-width="0.5" stroke="red" fill="red"/>
   </g>
   <g id="cell181">
  <circle cx="554.903" cy="409.54" r="8.39144" stroke-width="0.5" stroke="black" fill="grey"/>
  <circle cx="554.903" cy="409.54" r="5.04437" stroke-width="0.5" stroke="grey" fill="grey"/>
   </g>
   <g id="cell182">
  <circle cx="1069.4" cy="1921.51" r="8.39083" stroke-width="0.5" stroke="black" fill="red"/>
  <circle cx="1069.4" cy="1921.51" r="5.04414" stroke-width="0.5" stroke="red" fill="red"/>
   </g>
   <g id="cell183">
  <circle cx="1412.35" cy="1292.61" r="9.1035" stroke-width="0.5" stroke="black" fill="grey"/>
  <circle cx="1412.35" cy="1292.61" r="5.53492" stroke-width="0.5" stroke="grey" fill="grey"/>
   </g>
   <g id="cell184">
  <circle cx="1292.5" cy="677.734" r="8.38608" stroke-width="0.5" stroke="black" fill="red"/>
  <circle cx="1292.5" cy="677.734" r="5.04229" stroke-width="0.5" stroke="red" fill="red"/>
   </g>
   <g id="cell185">
  <circle cx="730.025" cy="1843.85" r="8.38373" stroke-width="0.5" stroke="black" fill="grey"/>
  <circle cx="730.025" cy="1843.85" r="5.04136" stroke-width="0.5" stroke="grey" fill="grey"/>
   </g>
   <g id="cell186">
  <circle cx="1213.44" cy="1222.47" r="8.50732" stroke-width="0.5" stroke="black" fill="red"/>
  <circle cx="1213.44" cy="1222.47" r="5.13563" stroke-width="0.5" stroke="red" fill="red"/>
   </g>
   <g id="cell187">
  <circle cx="1738.17" cy="905.211" r="8.37431" stroke-width="0.5" stroke="black" fill="grey"/>
  <circle cx="1738.17" cy="905.211" r="5.03754" stroke-width="0.5" stroke="grey" fill="grey"/>
   </g>
  </g>
 </g>
  <rect x="1750" y="2070" width="200" height="20" stroke-width="4" stroke="rgb(255,255,255)" fill="rgb(0,0,0)"/>
  <text x="1762.5" y="2057.5"
   font-family="Arial" font-size="50" fill="black" >
   200 &#956;m
  </text>
  <text x="50" y="2090"
   font-family="Arial" font-size="37.5" fill="black" >
   0 days, 0 hours, 0 minutes, and 34.7343 seconds
  </text>
  <rect x="0" y="140" width="2000" height="2000" stroke-width="4" stroke="rgb(0,0,0)" fill="none"/>
</svg>
