<?xml version="1.0" encoding="UTF-8" standalone="no"?>
<!-- Created with PhysiCell (http://PhysiCell.MathCancer.org/) -->
<svg 
 xmlns:dc="http://purl.org/dc/elements/1.1/" 
 xmlns:cc="http://creativecommons.org/ns#" 
 xmlns:rdf="http://www.w3.org/1999/02/22-rdf-syntax-ns#" 
 xmlns:svg="http://www.w3.org/2000/svg" 
 xmlns="http://www.w3.org/2000/svg" 
 version="1.1" 
 width="2000" 
 height="2140" 
 id="svg2">
  <rect x="0" y="0" width="2000" height="2140" stroke-width="4" stroke="white" fill="white"/>
  <text x="25" y="60"
   font-family="Arial" font-size="50" fill="black" >
   Current time: 0 days, 6 hours, and 40.00 minutes, z = 0.00 &#956;m
  </text>
  <text x="25" y="115"
   font-family="Arial" font-size="47.5" fill="black" >
   100 agents
  </text>
 <g id="tissue" 
    transform="translate(0,2140) scale(1,-1)">
  <g id="ECM">
  </g>
  <g id="cells">
   <g id="cell0">
  <circle cx="1108.22" cy="1174.87" r="9.34292" stroke-width="0.5" stroke="black" fill="grey"/>
  <circle cx="1108.22" cy="1174.87" r="5.67875" stroke-width="0.5" stroke="grey" fill="grey"/>
   </g>
   <g id="cell1">
  <circle cx="1701.68" cy="1176.4" r="8.80772" stroke-width="0.5" stroke="black" fill="grey"/>
  <circle cx="1701.68" cy="1176.4" r="5.33574" stroke-width="0.5" stroke="grey" fill="grey"/>
   </g>
   <g id="cell2">
  <circle cx="1121.22" cy="1729.57" r="9.75192" stroke-width="0.5" stroke="black" fill="grey"/>
  <circle cx="1121.22" cy="1729.57" r="5.92342" stroke-width="0.5" stroke="grey" fill="grey"/>
   </g>
   <g id="cell3">
  <circle cx="1234.92" cy="1284.52" r="10.1374" stroke-width="0.5" stroke="black" fill="grey"/>
  <circle cx="1234.92" cy="1284.52" r="6.14084" stroke-width="0.5" stroke="grey" fill="grey"/>
   </g>
   <g id="cell4">
  <circle cx="849.142" cy="618.713" r="9.88629" stroke-width="0.5" stroke="black" fill="grey"/>
  <circle cx="849.142" cy="618.713" r="6.00088" stroke-width="0.5" stroke="grey" fill="grey"/>
   </g>
   <g id="cell5">
  <circle cx="102.593" cy="1956.22" r="8.41271" stroke-width="0.5" stroke="black" fill="grey"/>
  <circle cx="102.593" cy="1956.22" r="5.05167" stroke-width="0.5" stroke="grey" fill="grey"/>
   </g>
   <g id="cell6">
  <circle cx="789.792" cy="932.281" r="9.53557" stroke-width="0.5" stroke="black" fill="grey"/>
  <circle cx="789.792" cy="932.281" r="5.79561" stroke-width="0.5" stroke="grey" fill="grey"/>
   </g>
   <g id="cell7">
  <circle cx="1631" cy="1073.33" r="9.86542" stroke-width="0.5" stroke="black" fill="grey"/>
  <circle cx="1631" cy="1073.33" r="5.98895" stroke-width="0.5" stroke="grey" fill="grey"/>
   </g>
   <g id="cell8">
  <circle cx="1121.38" cy="768.923" r="9.5651" stroke-width="0.5" stroke="black" fill="grey"/>
  <circle cx="1121.38" cy="768.923" r="5.81327" stroke-width="0.5" stroke="grey" fill="grey"/>
   </g>
   <g id="cell9">
  <circle cx="1698.97" cy="141.238" r="8.45606" stroke-width="0.5" stroke="black" fill="grey"/>
  <circle cx="1698.97" cy="141.238" r="5.08296" stroke-width="0.5" stroke="grey" fill="grey"/>
   </g>
   <g id="cell10">
  <circle cx="171.289" cy="1290.24" r="10.0955" stroke-width="0.5" stroke="black" fill="grey"/>
  <circle cx="171.289" cy="1290.24" r="6.11797" stroke-width="0.5" stroke="grey" fill="grey"/>
   </g>
   <g id="cell11">
  <circle cx="714.556" cy="1673.57" r="9.37686" stroke-width="0.5" stroke="black" fill="grey"/>
  <circle cx="714.556" cy="1673.57" r="5.69955" stroke-width="0.5" stroke="grey" fill="grey"/>
   </g>
   <g id="cell12">
  <circle cx="1531.99" cy="328.998" r="9.77588" stroke-width="0.5" stroke="black" fill="grey"/>
  <circle cx="1531.99" cy="328.998" r="5.93735" stroke-width="0.5" stroke="grey" fill="grey"/>
   </g>
   <g id="cell13">
  <circle cx="1757.11" cy="1945.17" r="8.41271" stroke-width="0.5" stroke="black" fill="grey"/>
  <circle cx="1757.11" cy="1945.17" r="5.05167" stroke-width="0.5" stroke="grey" fill="grey"/>
   </g>
   <g id="cell14">
  <circle cx="1591.84" cy="1568.59" r="9.2729" stroke-width="0.5" stroke="black" fill="grey"/>
  <circle cx="1591.84" cy="1568.59" r="5.63555" stroke-width="0.5" stroke="grey" fill="grey"/>
   </g>
   <g id="cell15">
  <circle cx="1013.65" cy="1580.5" r="10.0806" stroke-width="0.5" stroke="black" fill="grey"/>
  <circle cx="1013.65" cy="1580.5" r="6.10985" stroke-width="0.5" stroke="grey" fill="grey"/>
   </g>
   <g id="cell16">
  <circle cx="234.05" cy="1449.7" r="10.0806" stroke-width="0.5" stroke="black" fill="grey"/>
  <circle cx="234.05" cy="1449.7" r="6.10985" stroke-width="0.5" stroke="grey" fill="grey"/>
   </g>
   <g id="cell17">
  <circle cx="1180.7" cy="298.992" r="10.0806" stroke-width="0.5" stroke="black" fill="grey"/>
  <circle cx="1180.7" cy="298.992" r="6.10985" stroke-width="0.5" stroke="grey" fill="grey"/>
   </g>
   <g id="cell18">
  <circle cx="1874.32" cy="1552.21" r="8.41271" stroke-width="0.5" stroke="black" fill="grey"/>
  <circle cx="1874.32" cy="1552.21" r="5.05167" stroke-width="0.5" stroke="grey" fill="grey"/>
   </g>
   <g id="cell19">
  <circle cx="192.427" cy="830.042" r="8.41271" stroke-width="0.5" stroke="black" fill="grey"/>
  <circle cx="192.427" cy="830.042" r="5.05167" stroke-width="0.5" stroke="grey" fill="grey"/>
   </g>
   <g id="cell20">
  <circle cx="553.536" cy="368.106" r="9.96412" stroke-width="0.5" stroke="black" fill="grey"/>
  <circle cx="553.536" cy="368.106" r="6.04499" stroke-width="0.5" stroke="grey" fill="grey"/>
   </g>
   <g id="cell21">
  <circle cx="1445.99" cy="922.598" r="9.53557" stroke-width="0.5" stroke="black" fill="grey"/>
  <circle cx="1445.99" cy="922.598" r="5.79561" stroke-width="0.5" stroke="grey" fill="grey"/>
   </g>
   <g id="cell22">
  <circle cx="1164.13" cy="226.892" r="10.0497" stroke-width="0.5" stroke="black" fill="grey"/>
  <circle cx="1164.13" cy="226.892" r="6.09278" stroke-width="0.5" stroke="grey" fill="grey"/>
   </g>
   <g id="cell23">
  <circle cx="653.129" cy="1223.76" r="9.98223" stroke-width="0.5" stroke="black" fill="grey"/>
  <circle cx="653.129" cy="1223.76" r="6.05517" stroke-width="0.5" stroke="grey" fill="grey"/>
   </g>
   <g id="cell24">
  <circle cx="1233.49" cy="441.016" r="2.62118" stroke-width="0.5" stroke="black" fill="grey"/>
  <circle cx="1233.49" cy="441.016" r="2.28296" stroke-width="0.5" stroke="black" fill="black"/>
   </g>
   <g id="cell25">
  <circle cx="755.259" cy="1891.52" r="9.99984" stroke-width="0.5" stroke="black" fill="grey"/>
  <circle cx="755.259" cy="1891.52" r="6.06503" stroke-width="0.5" stroke="grey" fill="grey"/>
   </g>
   <g id="cell26">
  <circle cx="1389.48" cy="924.075" r="8.41271" stroke-width="0.5" stroke="black" fill="grey"/>
  <circle cx="1389.48" cy="924.075" r="5.05167" stroke-width="0.5" stroke="grey" fill="grey"/>
   </g>
   <g id="cell27">
  <circle cx="1220.21" cy="843.348" r="9.86542" stroke-width="0.5" stroke="black" fill="grey"/>
  <circle cx="1220.21" cy="843.348" r="5.98895" stroke-width="0.5" stroke="grey" fill="grey"/>
   </g>
   <g id="cell28">
  <circle cx="1394.86" cy="206.706" r="10.1238" stroke-width="0.5" stroke="black" fill="grey"/>
  <circle cx="1394.86" cy="206.706" r="6.13347" stroke-width="0.5" stroke="grey" fill="grey"/>
   </g>
   <g id="cell29">
  <circle cx="1919.83" cy="1342.77" r="10.1238" stroke-width="0.5" stroke="black" fill="grey"/>
  <circle cx="1919.83" cy="1342.77" r="6.13347" stroke-width="0.5" stroke="grey" fill="grey"/>
   </g>
   <g id="cell30">
  <circle cx="1356.87" cy="343.34" r="8.41271" stroke-width="0.5" stroke="black" fill="grey"/>
  <circle cx="1356.87" cy="343.34" r="5.05167" stroke-width="0.5" stroke="grey" fill="grey"/>
   </g>
   <g id="cell31">
  <circle cx="699.749" cy="288.844" r="9.23685" stroke-width="0.5" stroke="black" fill="grey"/>
  <circle cx="699.749" cy="288.844" r="5.61315" stroke-width="0.5" stroke="grey" fill="grey"/>
   </g>
   <g id="cell32">
  <circle cx="670.047" cy="1199.42" r="10.1996" stroke-width="0.5" stroke="black" fill="grey"/>
  <circle cx="670.047" cy="1199.42" r="6.17434" stroke-width="0.5" stroke="grey" fill="grey"/>
   </g>
   <g id="cell33">
  <circle cx="635.043" cy="1141.7" r="8.45606" stroke-width="0.5" stroke="black" fill="grey"/>
  <circle cx="635.043" cy="1141.7" r="5.08296" stroke-width="0.5" stroke="grey" fill="grey"/>
   </g>
   <g id="cell34">
  <circle cx="868.036" cy="1291.92" r="9.41008" stroke-width="0.5" stroke="black" fill="grey"/>
  <circle cx="868.036" cy="1291.92" r="5.71981" stroke-width="0.5" stroke="grey" fill="grey"/>
   </g>
   <g id="cell35">
  <circle cx="1914.83" cy="186.382" r="8.54454" stroke-width="0.5" stroke="black" fill="grey"/>
  <circle cx="1914.83" cy="186.382" r="5.14947" stroke-width="0.5" stroke="grey" fill="grey"/>
   </g>
   <g id="cell36">
  <circle cx="415.74" cy="1252.43" r="9.98223" stroke-width="0.5" stroke="black" fill="grey"/>
  <circle cx="415.74" cy="1252.43" r="6.05517" stroke-width="0.5" stroke="grey" fill="grey"/>
   </g>
   <g id="cell37">
  <circle cx="1978.77" cy="1362.57" r="9.70201" stroke-width="0.5" stroke="black" fill="grey"/>
  <circle cx="1978.77" cy="1362.57" r="5.89426" stroke-width="0.5" stroke="grey" fill="grey"/>
   </g>
   <g id="cell38">
  <circle cx="512.694" cy="858.114" r="8.41271" stroke-width="0.5" stroke="black" fill="grey"/>
  <circle cx="512.694" cy="858.114" r="5.05167" stroke-width="0.5" stroke="grey" fill="grey"/>
   </g>
   <g id="cell39">
  <circle cx="958.381" cy="470.382" r="9.77588" stroke-width="0.5" stroke="black" fill="grey"/>
  <circle cx="958.381" cy="470.382" r="5.93735" stroke-width="0.5" stroke="grey" fill="grey"/>
   </g>
   <g id="cell40">
  <circle cx="329.381" cy="659.015" r="9.75192" stroke-width="0.5" stroke="black" fill="grey"/>
  <circle cx="329.381" cy="659.015" r="5.92342" stroke-width="0.5" stroke="grey" fill="grey"/>
   </g>
   <g id="cell41">
  <circle cx="1325.25" cy="1319.48" r="9.08642" stroke-width="0.5" stroke="black" fill="grey"/>
  <circle cx="1325.25" cy="1319.48" r="5.51837" stroke-width="0.5" stroke="grey" fill="grey"/>
   </g>
   <g id="cell42">
  <circle cx="244.127" cy="1556.68" r="8.41271" stroke-width="0.5" stroke="black" fill="grey"/>
  <circle cx="244.127" cy="1556.68" r="5.05167" stroke-width="0.5" stroke="grey" fill="grey"/>
   </g>
   <g id="cell43">
  <circle cx="1887.8" cy="722.696" r="8.41271" stroke-width="0.5" stroke="black" fill="grey"/>
  <circle cx="1887.8" cy="722.696" r="5.05167" stroke-width="0.5" stroke="grey" fill="grey"/>
   </g>
   <g id="cell44">
  <circle cx="1632.11" cy="48.2256" r="9.62199" stroke-width="0.5" stroke="black" fill="grey"/>
  <circle cx="1632.11" cy="48.2256" r="5.8471" stroke-width="0.5" stroke="grey" fill="grey"/>
   </g>
   <g id="cell45">
  <circle cx="1228.15" cy="1647.4" r="8.41271" stroke-width="0.5" stroke="black" fill="grey"/>
  <circle cx="1228.15" cy="1647.4" r="5.05167" stroke-width="0.5" stroke="grey" fill="grey"/>
   </g>
   <g id="cell46">
  <circle cx="198.68" cy="1909.2" r="8.45606" stroke-width="0.5" stroke="black" fill="grey"/>
  <circle cx="198.68" cy="1909.2" r="5.08296" stroke-width="0.5" stroke="grey" fill="grey"/>
   </g>
   <g id="cell47">
  <circle cx="1761.36" cy="970.648" r="9.99984" stroke-width="0.5" stroke="black" fill="grey"/>
  <circle cx="1761.36" cy="970.648" r="6.06503" stroke-width="0.5" stroke="grey" fill="grey"/>
   </g>
   <g id="cell48">
  <circle cx="1968.53" cy="96.2568" r="10.0497" stroke-width="0.5" stroke="black" fill="grey"/>
  <circle cx="1968.53" cy="96.2568" r="6.09278" stroke-width="0.5" stroke="grey" fill="grey"/>
   </g>
   <g id="cell49">
  <circle cx="874.577" cy="1443.96" r="10.1634" stroke-width="0.5" stroke="black" fill="grey"/>
  <circle cx="874.577" cy="1443.96" r="6.1549" stroke-width="0.5" stroke="grey" fill="grey"/>
   </g>
   <g id="cell50">
  <circle cx="70.095" cy="894.289" r="10.1996" stroke-width="0.5" stroke="black" fill="red"/>
  <circle cx="70.095" cy="894.289" r="6.17434" stroke-width="0.5" stroke="red" fill="red"/>
   </g>
   <g id="cell51">
  <circle cx="1973.38" cy="254.533" r="8.41271" stroke-width="0.5" stroke="black" fill="red"/>
  <circle cx="1973.38" cy="254.533" r="5.05167" stroke-width="0.5" stroke="red" fill="red"/>
   </g>
   <g id="cell52">
  <circle cx="587.084" cy="975.302" r="9.64936" stroke-width="0.5" stroke="black" fill="red"/>
  <circle cx="587.084" cy="975.302" r="5.86329" stroke-width="0.5" stroke="red" fill="red"/>
   </g>
   <g id="cell53">
  <circle cx="1333.18" cy="638.169" r="10.1506" stroke-width="0.5" stroke="black" fill="red"/>
  <circle cx="1333.18" cy="638.169" r="6.14798" stroke-width="0.5" stroke="red" fill="red"/>
   </g>
   <g id="cell54">
  <circle cx="794.059" cy="1819.07" r="10.1996" stroke-width="0.5" stroke="black" fill="red"/>
  <circle cx="794.059" cy="1819.07" r="6.17434" stroke-width="0.5" stroke="red" fill="red"/>
   </g>
   <g id="cell55">
  <circle cx="415.644" cy="1383.05" r="9.98223" stroke-width="0.5" stroke="black" fill="red"/>
  <circle cx="415.644" cy="1383.05" r="6.05517" stroke-width="0.5" stroke="red" fill="red"/>
   </g>
   <g id="cell56">
  <circle cx="1160.6" cy="1706.35" r="8.41271" stroke-width="0.5" stroke="black" fill="red"/>
  <circle cx="1160.6" cy="1706.35" r="5.05167" stroke-width="0.5" stroke="red" fill="red"/>
   </g>
   <g id="cell57">
  <circle cx="1021.34" cy="1041.7" r="8.41271" stroke-width="0.5" stroke="black" fill="red"/>
  <circle cx="1021.34" cy="1041.7" r="5.05167" stroke-width="0.5" stroke="red" fill="red"/>
   </g>
   <g id="cell58">
  <circle cx="169.394" cy="1815.35" r="9.94548" stroke-width="0.5" stroke="black" fill="red"/>
  <circle cx="169.394" cy="1815.35" r="6.03448" stroke-width="0.5" stroke="red" fill="red"/>
   </g>
   <g id="cell59">
  <circle cx="171.722" cy="1844.99" r="2.95396" stroke-width="0.5" stroke="black" fill="red"/>
  <circle cx="171.722" cy="1844.99" r="2.58582" stroke-width="0.5" stroke="black" fill="black"/>
   </g>
   <g id="cell60">
  <circle cx="660.854" cy="40.7102" r="10.1238" stroke-width="0.5" stroke="black" fill="red"/>
  <circle cx="660.854" cy="40.7102" r="6.13347" stroke-width="0.5" stroke="red" fill="red"/>
   </g>
   <g id="cell61">
  <circle cx="1674.91" cy="276.269" r="9.53557" stroke-width="0.5" stroke="black" fill="red"/>
  <circle cx="1674.91" cy="276.269" r="5.79561" stroke-width="0.5" stroke="red" fill="red"/>
   </g>
   <g id="cell62">
  <circle cx="1438.47" cy="1666.33" r="8.72828" stroke-width="0.5" stroke="black" fill="red"/>
  <circle cx="1438.47" cy="1666.33" r="5.28134" stroke-width="0.5" stroke="red" fill="red"/>
   </g>
   <g id="cell63">
  <circle cx="535.065" cy="336.482" r="8.41271" stroke-width="0.5" stroke="black" fill="red"/>
  <circle cx="535.065" cy="336.482" r="5.05167" stroke-width="0.5" stroke="red" fill="red"/>
   </g>
   <g id="cell64">
  <circle cx="1156.46" cy="1118.04" r="8.7678" stroke-width="0.5" stroke="black" fill="red"/>
  <circle cx="1156.46" cy="1118.04" r="5.30857" stroke-width="0.5" stroke="red" fill="red"/>
   </g>
   <g id="cell65">
  <circle cx="361.174" cy="1646.43" r="9.98223" stroke-width="0.5" stroke="black" fill="red"/>
  <circle cx="361.174" cy="1646.43" r="6.05517" stroke-width="0.5" stroke="red" fill="red"/>
   </g>
   <g id="cell66">
  <circle cx="23.6197" cy="317.173" r="9.53557" stroke-width="0.5" stroke="black" fill="red"/>
  <circle cx="23.6197" cy="317.173" r="5.79561" stroke-width="0.5" stroke="red" fill="red"/>
   </g>
   <g id="cell67">
  <circle cx="1083.56" cy="540.46" r="9.23685" stroke-width="0.5" stroke="black" fill="red"/>
  <circle cx="1083.56" cy="540.46" r="5.61315" stroke-width="0.5" stroke="red" fill="red"/>
   </g>
   <g id="cell68">
  <circle cx="1465.33" cy="583.964" r="9.96412" stroke-width="0.5" stroke="black" fill="red"/>
  <circle cx="1465.33" cy="583.964" r="6.04499" stroke-width="0.5" stroke="red" fill="red"/>
   </g>
   <g id="cell69">
  <circle cx="880.649" cy="516.48" r="8.41271" stroke-width="0.5" stroke="black" fill="red"/>
  <circle cx="880.649" cy="516.48" r="5.05167" stroke-width="0.5" stroke="red" fill="red"/>
   </g>
   <g id="cell70">
  <circle cx="1164.79" cy="817.382" r="9.7992" stroke-width="0.5" stroke="black" fill="red"/>
  <circle cx="1164.79" cy="817.382" r="5.95086" stroke-width="0.5" stroke="red" fill="red"/>
   </g>
   <g id="cell71">
  <circle cx="1785.68" cy="1119.4" r="9.62199" stroke-width="0.5" stroke="black" fill="red"/>
  <circle cx="1785.68" cy="1119.4" r="5.8471" stroke-width="0.5" stroke="red" fill="red"/>
   </g>
   <g id="cell72">
  <circle cx="457.169" cy="1809.5" r="8.4325" stroke-width="0.5" stroke="black" fill="red"/>
  <circle cx="457.169" cy="1809.5" r="5.06552" stroke-width="0.5" stroke="red" fill="red"/>
   </g>
   <g id="cell73">
  <circle cx="1414.11" cy="892.154" r="10.0336" stroke-width="0.5" stroke="black" fill="red"/>
  <circle cx="1414.11" cy="892.154" r="6.08382" stroke-width="0.5" stroke="red" fill="red"/>
   </g>
   <g id="cell74">
  <circle cx="1692.56" cy="1923.41" r="10.0169" stroke-width="0.5" stroke="black" fill="red"/>
  <circle cx="1692.56" cy="1923.41" r="6.07458" stroke-width="0.5" stroke="red" fill="red"/>
   </g>
   <g id="cell75">
  <circle cx="210.551" cy="603.959" r="8.41271" stroke-width="0.5" stroke="black" fill="red"/>
  <circle cx="210.551" cy="603.959" r="5.05167" stroke-width="0.5" stroke="red" fill="red"/>
   </g>
   <g id="cell76">
  <circle cx="1611.83" cy="833.362" r="9.23685" stroke-width="0.5" stroke="black" fill="red"/>
  <circle cx="1611.83" cy="833.362" r="5.61315" stroke-width="0.5" stroke="red" fill="red"/>
   </g>
   <g id="cell77">
  <circle cx="1361.26" cy="1739.47" r="8.84788" stroke-width="0.5" stroke="black" fill="red"/>
  <circle cx="1361.26" cy="1739.47" r="5.36278" stroke-width="0.5" stroke="red" fill="red"/>
   </g>
   <g id="cell78">
  <circle cx="1208.71" cy="652.391" r="8.84788" stroke-width="0.5" stroke="black" fill="red"/>
  <circle cx="1208.71" cy="652.391" r="5.36278" stroke-width="0.5" stroke="red" fill="red"/>
   </g>
   <g id="cell79">
  <circle cx="1927.34" cy="1382.18" r="8.41271" stroke-width="0.5" stroke="black" fill="red"/>
  <circle cx="1927.34" cy="1382.18" r="5.05167" stroke-width="0.5" stroke="red" fill="red"/>
   </g>
   <g id="cell80">
  <circle cx="1437.07" cy="1292.54" r="9.62199" stroke-width="0.5" stroke="black" fill="red"/>
  <circle cx="1437.07" cy="1292.54" r="5.8471" stroke-width="0.5" stroke="red" fill="red"/>
   </g>
   <g id="cell81">
  <circle cx="1073.97" cy="1890.12" r="3.11583" stroke-width="0.5" stroke="black" fill="red"/>
  <circle cx="1073.97" cy="1890.12" r="2.63542" stroke-width="0.5" stroke="black" fill="black"/>
   </g>
   <g id="cell82">
  <circle cx="1258.32" cy="792.781" r="9.70201" stroke-width="0.5" stroke="black" fill="red"/>
  <circle cx="1258.32" cy="792.781" r="5.89426" stroke-width="0.5" stroke="red" fill="red"/>
   </g>
   <g id="cell83">
  <circle cx="1253.24" cy="1238.77" r="8.68937" stroke-width="0.5" stroke="black" fill="red"/>
  <circle cx="1253.24" cy="1238.77" r="5.25417" stroke-width="0.5" stroke="red" fill="red"/>
   </g>
   <g id="cell84">
  <circle cx="20.3339" cy="947.127" r="10.1098" stroke-width="0.5" stroke="black" fill="red"/>
  <circle cx="20.3339" cy="947.127" r="6.12585" stroke-width="0.5" stroke="red" fill="red"/>
   </g>
   <g id="cell85">
  <circle cx="1411.2" cy="1309.98" r="8.41271" stroke-width="0.5" stroke="black" fill="red"/>
  <circle cx="1411.2" cy="1309.98" r="5.05167" stroke-width="0.5" stroke="red" fill="red"/>
   </g>
   <g id="cell86">
  <circle cx="577.483" cy="791.612" r="8.41271" stroke-width="0.5" stroke="black" fill="red"/>
  <circle cx="577.483" cy="791.612" r="5.05167" stroke-width="0.5" stroke="red" fill="red"/>
   </g>
   <g id="cell87">
  <circle cx="1478.63" cy="868.731" r="9.53557" stroke-width="0.5" stroke="black" fill="red"/>
  <circle cx="1478.63" cy="868.731" r="5.79561" stroke-width="0.5" stroke="red" fill="red"/>
   </g>
   <g id="cell88">
  <circle cx="288.725" cy="179.634" r="9.62199" stroke-width="0.5" stroke="black" fill="red"/>
  <circle cx="288.725" cy="179.634" r="5.8471" stroke-width="0.5" stroke="red" fill="red"/>
   </g>
   <g id="cell89">
  <circle cx="185.902" cy="1158.62" r="8.41271" stroke-width="0.5" stroke="black" fill="red"/>
  <circle cx="185.902" cy="1158.62" r="5.05167" stroke-width="0.5" stroke="red" fill="red"/>
   </g>
   <g id="cell90">
  <circle cx="1175.11" cy="1103.39" r="8.41271" stroke-width="0.5" stroke="black" fill="red"/>
  <circle cx="1175.11" cy="1103.39" r="5.05167" stroke-width="0.5" stroke="red" fill="red"/>
   </g>
   <g id="cell91">
  <circle cx="47.7048" cy="1287.05" r="8.41271" stroke-width="0.5" stroke="black" fill="red"/>
  <circle cx="47.7048" cy="1287.05" r="5.05167" stroke-width="0.5" stroke="red" fill="red"/>
   </g>
   <g id="cell92">
  <circle cx="1266.39" cy="655.764" r="10.1996" stroke-width="0.5" stroke="black" fill="red"/>
  <circle cx="1266.39" cy="655.764" r="6.17434" stroke-width="0.5" stroke="red" fill="red"/>
   </g>
   <g id="cell93">
  <circle cx="438.694" cy="1811.22" r="9.00806" stroke-width="0.5" stroke="black" fill="red"/>
  <circle cx="438.694" cy="1811.22" r="5.46807" stroke-width="0.5" stroke="red" fill="red"/>
   </g>
   <g id="cell94">
  <circle cx="758.433" cy="196.923" r="9.84395" stroke-width="0.5" stroke="black" fill="red"/>
  <circle cx="758.433" cy="196.923" r="5.97665" stroke-width="0.5" stroke="red" fill="red"/>
   </g>
   <g id="cell95">
  <circle cx="1991.05" cy="1769.53" r="9.75192" stroke-width="0.5" stroke="black" fill="red"/>
  <circle cx="1991.05" cy="1769.53" r="5.92342" stroke-width="0.5" stroke="red" fill="red"/>
   </g>
   <g id="cell96">
  <circle cx="1621.18" cy="1092.08" r="9.94548" stroke-width="0.5" stroke="black" fill="red"/>
  <circle cx="1621.18" cy="1092.08" r="6.03448" stroke-width="0.5" stroke="red" fill="red"/>
   </g>
   <g id="cell97">
  <circle cx="868.862" cy="198.998" r="10.1374" stroke-width="0.5" stroke="black" fill="red"/>
  <circle cx="868.862" cy="198.998" r="6.14084" stroke-width="0.5" stroke="red" fill="red"/>
   </g>
   <g id="cell98">
  <circle cx="1805.63" cy="703.013" r="10.1758" stroke-width="0.5" stroke="black" fill="red"/>
  <circle cx="1805.63" cy="703.013" r="6.16159" stroke-width="0.5" stroke="red" fill="red"/>
   </g>
   <g id="cell99">
  <circle cx="920.492" cy="1969.34" r="10.1879" stroke-width="0.5" stroke="black" fill="red"/>
  <circle cx="920.492" cy="1969.34" r="6.16807" stroke-width="0.5" stroke="red" fill="red"/>
   </g>
  </g>
 </g>
  <rect x="1750" y="2070" width="200" height="20" stroke-width="4" stroke="rgb(255,255,255)" fill="rgb(0,0,0)"/>
  <text x="1762.5" y="2057.5"
   font-family="Arial" font-size="50" fill="black" >
   200 &#956;m
  </text>
  <text x="50" y="2090"
   font-family="Arial" font-size="37.5" fill="black" >
   0 days, 0 hours, 0 minutes, and 9.9927 seconds
  </text>
  <rect x="0" y="140" width="2000" height="2000" stroke-width="4" stroke="rgb(0,0,0)" fill="none"/>
</svg>
