<?xml version="1.0" encoding="UTF-8" standalone="no"?>
<!-- Created with PhysiCell (http://PhysiCell.MathCancer.org/) -->
<svg 
 xmlns:dc="http://purl.org/dc/elements/1.1/" 
 xmlns:cc="http://creativecommons.org/ns#" 
 xmlns:rdf="http://www.w3.org/1999/02/22-rdf-syntax-ns#" 
 xmlns:svg="http://www.w3.org/2000/svg" 
 xmlns="http://www.w3.org/2000/svg" 
 version="1.1" 
 width="2000" 
 height="2140" 
 id="svg2">
  <rect x="0" y="0" width="2000" height="2140" stroke-width="4" stroke="white" fill="white"/>
  <text x="25" y="60"
   font-family="Arial" font-size="50" fill="black" >
   Current time: 0 days, 12 hours, and 0.00 minutes, z = 0.00 &#956;m
  </text>
  <text x="25" y="115"
   font-family="Arial" font-size="47.5" fill="black" >
   100 agents
  </text>
 <g id="tissue" 
    transform="translate(0,2140) scale(1,-1)">
  <g id="ECM">
  </g>
  <g id="cells">
   <g id="cell0">
  <circle cx="1116.77" cy="1149.22" r="10.3247" stroke-width="0.5" stroke="black" fill="grey"/>
  <circle cx="1116.77" cy="1149.22" r="6.23971" stroke-width="0.5" stroke="grey" fill="grey"/>
   </g>
   <g id="cell1">
  <circle cx="1682.26" cy="1166.16" r="10.1879" stroke-width="0.5" stroke="black" fill="grey"/>
  <circle cx="1682.26" cy="1166.16" r="6.16807" stroke-width="0.5" stroke="grey" fill="grey"/>
   </g>
   <g id="cell2">
  <circle cx="1136.28" cy="1702.38" r="10.4156" stroke-width="0.5" stroke="black" fill="grey"/>
  <circle cx="1136.28" cy="1702.38" r="6.2851" stroke-width="0.5" stroke="grey" fill="grey"/>
   </g>
   <g id="cell3">
  <circle cx="1231.09" cy="1294.92" r="10.4984" stroke-width="0.5" stroke="black" fill="grey"/>
  <circle cx="1231.09" cy="1294.92" r="6.32406" stroke-width="0.5" stroke="grey" fill="grey"/>
   </g>
   <g id="cell4">
  <circle cx="856.178" cy="603.135" r="10.4446" stroke-width="0.5" stroke="black" fill="grey"/>
  <circle cx="856.178" cy="603.135" r="6.29905" stroke-width="0.5" stroke="grey" fill="grey"/>
   </g>
   <g id="cell5">
  <circle cx="100.11" cy="1960.32" r="9.59391" stroke-width="0.5" stroke="black" fill="grey"/>
  <circle cx="100.11" cy="1960.32" r="5.83043" stroke-width="0.5" stroke="grey" fill="grey"/>
   </g>
   <g id="cell6">
  <circle cx="786.134" cy="910.115" r="10.3682" stroke-width="0.5" stroke="black" fill="grey"/>
  <circle cx="786.134" cy="910.115" r="6.26172" stroke-width="0.5" stroke="grey" fill="grey"/>
   </g>
   <g id="cell7">
  <circle cx="1643.35" cy="1072.65" r="10.4401" stroke-width="0.5" stroke="black" fill="grey"/>
  <circle cx="1643.35" cy="1072.65" r="6.29691" stroke-width="0.5" stroke="grey" fill="grey"/>
   </g>
   <g id="cell8">
  <circle cx="1132.1" cy="801.804" r="10.3747" stroke-width="0.5" stroke="black" fill="grey"/>
  <circle cx="1132.1" cy="801.804" r="6.26498" stroke-width="0.5" stroke="grey" fill="grey"/>
   </g>
   <g id="cell9">
  <circle cx="1735.78" cy="135.567" r="10.0497" stroke-width="0.5" stroke="black" fill="grey"/>
  <circle cx="1735.78" cy="135.567" r="6.09278" stroke-width="0.5" stroke="grey" fill="grey"/>
   </g>
   <g id="cell10">
  <circle cx="187.837" cy="1286.38" r="10.4894" stroke-width="0.5" stroke="black" fill="grey"/>
  <circle cx="187.837" cy="1286.38" r="6.31998" stroke-width="0.5" stroke="grey" fill="grey"/>
   </g>
   <g id="cell11">
  <circle cx="692.455" cy="1706.21" r="10.3325" stroke-width="0.5" stroke="black" fill="grey"/>
  <circle cx="692.455" cy="1706.21" r="6.24369" stroke-width="0.5" stroke="grey" fill="grey"/>
   </g>
   <g id="cell12">
  <circle cx="1531.98" cy="318.747" r="10.4208" stroke-width="0.5" stroke="black" fill="grey"/>
  <circle cx="1531.98" cy="318.747" r="6.28762" stroke-width="0.5" stroke="grey" fill="grey"/>
   </g>
   <g id="cell13">
  <circle cx="1753.52" cy="1964.49" r="9.86542" stroke-width="0.5" stroke="black" fill="grey"/>
  <circle cx="1753.52" cy="1964.49" r="5.98895" stroke-width="0.5" stroke="grey" fill="grey"/>
   </g>
   <g id="cell14">
  <circle cx="1608.52" cy="1564.31" r="10.3084" stroke-width="0.5" stroke="black" fill="grey"/>
  <circle cx="1608.52" cy="1564.31" r="6.23137" stroke-width="0.5" stroke="grey" fill="grey"/>
   </g>
   <g id="cell15">
  <circle cx="1039.25" cy="1590.02" r="10.4862" stroke-width="0.5" stroke="black" fill="grey"/>
  <circle cx="1039.25" cy="1590.02" r="6.31853" stroke-width="0.5" stroke="grey" fill="grey"/>
   </g>
   <g id="cell16">
  <circle cx="230.368" cy="1454.77" r="10.4862" stroke-width="0.5" stroke="black" fill="grey"/>
  <circle cx="230.368" cy="1454.77" r="6.31853" stroke-width="0.5" stroke="grey" fill="grey"/>
   </g>
   <g id="cell17">
  <circle cx="1157.22" cy="286.897" r="10.4862" stroke-width="0.5" stroke="black" fill="grey"/>
  <circle cx="1157.22" cy="286.897" r="6.31853" stroke-width="0.5" stroke="grey" fill="grey"/>
   </g>
   <g id="cell18">
  <circle cx="1864.22" cy="1553.25" r="8.41271" stroke-width="0.5" stroke="black" fill="grey"/>
  <circle cx="1864.22" cy="1553.25" r="5.05167" stroke-width="0.5" stroke="grey" fill="grey"/>
   </g>
   <g id="cell19">
  <circle cx="192.809" cy="836.654" r="8.41271" stroke-width="0.5" stroke="black" fill="grey"/>
  <circle cx="192.809" cy="836.654" r="5.05167" stroke-width="0.5" stroke="grey" fill="grey"/>
   </g>
   <g id="cell20">
  <circle cx="554.154" cy="374.503" r="10.4613" stroke-width="0.5" stroke="black" fill="grey"/>
  <circle cx="554.154" cy="374.503" r="6.30695" stroke-width="0.5" stroke="grey" fill="grey"/>
   </g>
   <g id="cell21">
  <circle cx="1461.69" cy="923.339" r="10.3682" stroke-width="0.5" stroke="black" fill="grey"/>
  <circle cx="1461.69" cy="923.339" r="6.26172" stroke-width="0.5" stroke="grey" fill="grey"/>
   </g>
   <g id="cell22">
  <circle cx="1166.24" cy="264.583" r="10.4796" stroke-width="0.5" stroke="black" fill="grey"/>
  <circle cx="1166.24" cy="264.583" r="6.31548" stroke-width="0.5" stroke="grey" fill="grey"/>
   </g>
   <g id="cell23">
  <circle cx="649.854" cy="1223.37" r="10.4651" stroke-width="0.5" stroke="black" fill="grey"/>
  <circle cx="649.854" cy="1223.37" r="6.30877" stroke-width="0.5" stroke="grey" fill="grey"/>
   </g>
   <g id="cell24">
  <circle cx="1233.49" cy="441.016" r="1.22129" stroke-width="0.5" stroke="black" fill="grey"/>
  <circle cx="1233.49" cy="441.016" r="1.21615" stroke-width="0.5" stroke="black" fill="black"/>
   </g>
   <g id="cell25">
  <circle cx="753.605" cy="1923.91" r="10.4689" stroke-width="0.5" stroke="black" fill="grey"/>
  <circle cx="753.605" cy="1923.91" r="6.31053" stroke-width="0.5" stroke="grey" fill="grey"/>
   </g>
   <g id="cell26">
  <circle cx="1376.31" cy="908.582" r="9.70201" stroke-width="0.5" stroke="black" fill="grey"/>
  <circle cx="1376.31" cy="908.582" r="5.89426" stroke-width="0.5" stroke="grey" fill="grey"/>
   </g>
   <g id="cell27">
  <circle cx="1230.44" cy="839.24" r="10.4401" stroke-width="0.5" stroke="black" fill="grey"/>
  <circle cx="1230.44" cy="839.24" r="6.29691" stroke-width="0.5" stroke="grey" fill="grey"/>
   </g>
   <g id="cell28">
  <circle cx="1379.13" cy="202.385" r="10.4955" stroke-width="0.5" stroke="black" fill="grey"/>
  <circle cx="1379.13" cy="202.385" r="6.32275" stroke-width="0.5" stroke="grey" fill="grey"/>
   </g>
   <g id="cell29">
  <circle cx="1919.75" cy="1327.22" r="10.4955" stroke-width="0.5" stroke="black" fill="grey"/>
  <circle cx="1919.75" cy="1327.22" r="6.32275" stroke-width="0.5" stroke="grey" fill="grey"/>
   </g>
   <g id="cell30">
  <circle cx="1351.49" cy="371.433" r="9.92631" stroke-width="0.5" stroke="black" fill="grey"/>
  <circle cx="1351.49" cy="371.433" r="6.02363" stroke-width="0.5" stroke="grey" fill="grey"/>
   </g>
   <g id="cell31">
  <circle cx="734.365" cy="289.023" r="10.2999" stroke-width="0.5" stroke="black" fill="grey"/>
  <circle cx="734.365" cy="289.023" r="6.22699" stroke-width="0.5" stroke="grey" fill="grey"/>
   </g>
   <g id="cell32">
  <circle cx="695.264" cy="1194.42" r="10.5117" stroke-width="0.5" stroke="black" fill="grey"/>
  <circle cx="695.264" cy="1194.42" r="6.33005" stroke-width="0.5" stroke="grey" fill="grey"/>
   </g>
   <g id="cell33">
  <circle cx="649.474" cy="1153.78" r="10.0497" stroke-width="0.5" stroke="black" fill="grey"/>
  <circle cx="649.474" cy="1153.78" r="6.09278" stroke-width="0.5" stroke="grey" fill="grey"/>
   </g>
   <g id="cell34">
  <circle cx="864.545" cy="1313.82" r="10.34" stroke-width="0.5" stroke="black" fill="grey"/>
  <circle cx="864.545" cy="1313.82" r="6.24753" stroke-width="0.5" stroke="grey" fill="grey"/>
   </g>
   <g id="cell35">
  <circle cx="1909.76" cy="186.03" r="10.0955" stroke-width="0.5" stroke="black" fill="grey"/>
  <circle cx="1909.76" cy="186.03" r="6.11797" stroke-width="0.5" stroke="grey" fill="grey"/>
   </g>
   <g id="cell36">
  <circle cx="414.645" cy="1273.76" r="10.4651" stroke-width="0.5" stroke="black" fill="grey"/>
  <circle cx="414.645" cy="1273.76" r="6.30877" stroke-width="0.5" stroke="grey" fill="grey"/>
   </g>
   <g id="cell37">
  <circle cx="1974.38" cy="1369.82" r="10.4048" stroke-width="0.5" stroke="black" fill="grey"/>
  <circle cx="1974.38" cy="1369.82" r="6.27981" stroke-width="0.5" stroke="grey" fill="grey"/>
   </g>
   <g id="cell38">
  <circle cx="509.65" cy="847.812" r="8.41271" stroke-width="0.5" stroke="black" fill="grey"/>
  <circle cx="509.65" cy="847.812" r="5.05167" stroke-width="0.5" stroke="grey" fill="grey"/>
   </g>
   <g id="cell39">
  <circle cx="917.227" cy="495.968" r="10.4208" stroke-width="0.5" stroke="black" fill="grey"/>
  <circle cx="917.227" cy="495.968" r="6.28762" stroke-width="0.5" stroke="grey" fill="grey"/>
   </g>
   <g id="cell40">
  <circle cx="331.225" cy="663.267" r="10.4156" stroke-width="0.5" stroke="black" fill="grey"/>
  <circle cx="331.225" cy="663.267" r="6.2851" stroke-width="0.5" stroke="grey" fill="grey"/>
   </g>
   <g id="cell41">
  <circle cx="1336.54" cy="1299.17" r="10.2632" stroke-width="0.5" stroke="black" fill="grey"/>
  <circle cx="1336.54" cy="1299.17" r="6.20796" stroke-width="0.5" stroke="grey" fill="grey"/>
   </g>
   <g id="cell42">
  <circle cx="239.013" cy="1561.25" r="8.41271" stroke-width="0.5" stroke="black" fill="grey"/>
  <circle cx="239.013" cy="1561.25" r="5.05167" stroke-width="0.5" stroke="grey" fill="grey"/>
   </g>
   <g id="cell43">
  <circle cx="1872.46" cy="727.22" r="8.48289" stroke-width="0.5" stroke="black" fill="grey"/>
  <circle cx="1872.46" cy="727.22" r="5.10317" stroke-width="0.5" stroke="grey" fill="grey"/>
   </g>
   <g id="cell44">
  <circle cx="1654.23" cy="49.2011" r="10.3873" stroke-width="0.5" stroke="black" fill="grey"/>
  <circle cx="1654.23" cy="49.2011" r="6.2712" stroke-width="0.5" stroke="grey" fill="grey"/>
   </g>
   <g id="cell45">
  <circle cx="1192.7" cy="1645.32" r="8.80772" stroke-width="0.5" stroke="black" fill="grey"/>
  <circle cx="1192.7" cy="1645.32" r="5.33574" stroke-width="0.5" stroke="grey" fill="grey"/>
   </g>
   <g id="cell46">
  <circle cx="168.711" cy="1866.6" r="10.0497" stroke-width="0.5" stroke="black" fill="grey"/>
  <circle cx="168.711" cy="1866.6" r="6.09278" stroke-width="0.5" stroke="grey" fill="grey"/>
   </g>
   <g id="cell47">
  <circle cx="1771.3" cy="969.284" r="10.4689" stroke-width="0.5" stroke="black" fill="grey"/>
  <circle cx="1771.3" cy="969.284" r="6.31053" stroke-width="0.5" stroke="grey" fill="grey"/>
   </g>
   <g id="cell48">
  <circle cx="1987.26" cy="98.1763" r="10.4796" stroke-width="0.5" stroke="black" fill="grey"/>
  <circle cx="1987.26" cy="98.1763" r="6.31548" stroke-width="0.5" stroke="grey" fill="grey"/>
   </g>
   <g id="cell49">
  <circle cx="835.037" cy="1481.51" r="10.5039" stroke-width="0.5" stroke="black" fill="grey"/>
  <circle cx="835.037" cy="1481.51" r="6.32657" stroke-width="0.5" stroke="grey" fill="grey"/>
   </g>
   <g id="cell50">
  <circle cx="75.353" cy="892.657" r="10.5117" stroke-width="0.5" stroke="black" fill="red"/>
  <circle cx="75.353" cy="892.657" r="6.33005" stroke-width="0.5" stroke="red" fill="red"/>
   </g>
   <g id="cell51">
  <circle cx="1961.22" cy="262.506" r="9.90658" stroke-width="0.5" stroke="black" fill="red"/>
  <circle cx="1961.22" cy="262.506" r="6.01243" stroke-width="0.5" stroke="red" fill="red"/>
   </g>
   <g id="cell52">
  <circle cx="591.822" cy="988.813" r="10.3933" stroke-width="0.5" stroke="black" fill="red"/>
  <circle cx="591.822" cy="988.813" r="6.27417" stroke-width="0.5" stroke="red" fill="red"/>
   </g>
   <g id="cell53">
  <circle cx="1354.42" cy="599.935" r="10.5012" stroke-width="0.5" stroke="black" fill="red"/>
  <circle cx="1354.42" cy="599.935" r="6.32534" stroke-width="0.5" stroke="red" fill="red"/>
   </g>
   <g id="cell54">
  <circle cx="782.555" cy="1821.08" r="10.5117" stroke-width="0.5" stroke="black" fill="red"/>
  <circle cx="782.555" cy="1821.08" r="6.33005" stroke-width="0.5" stroke="red" fill="red"/>
   </g>
   <g id="cell55">
  <circle cx="420.027" cy="1395.52" r="10.4651" stroke-width="0.5" stroke="black" fill="red"/>
  <circle cx="420.027" cy="1395.52" r="6.30877" stroke-width="0.5" stroke="red" fill="red"/>
   </g>
   <g id="cell56">
  <circle cx="1161.32" cy="1699.2" r="9.62199" stroke-width="0.5" stroke="black" fill="red"/>
  <circle cx="1161.32" cy="1699.2" r="5.8471" stroke-width="0.5" stroke="red" fill="red"/>
   </g>
   <g id="cell57">
  <circle cx="1022.31" cy="1027.02" r="8.41271" stroke-width="0.5" stroke="black" fill="red"/>
  <circle cx="1022.31" cy="1027.02" r="5.05167" stroke-width="0.5" stroke="red" fill="red"/>
   </g>
   <g id="cell58">
  <circle cx="182.899" cy="1784.03" r="10.4573" stroke-width="0.5" stroke="black" fill="red"/>
  <circle cx="182.899" cy="1784.03" r="6.30507" stroke-width="0.5" stroke="red" fill="red"/>
   </g>
   <g id="cell59">
  <circle cx="171.722" cy="1844.99" r="1.38314" stroke-width="0.5" stroke="black" fill="red"/>
  <circle cx="171.722" cy="1844.99" r="1.37757" stroke-width="0.5" stroke="black" fill="black"/>
   </g>
   <g id="cell60">
  <circle cx="686.758" cy="68.9282" r="10.4955" stroke-width="0.5" stroke="black" fill="red"/>
  <circle cx="686.758" cy="68.9282" r="6.32275" stroke-width="0.5" stroke="red" fill="red"/>
   </g>
   <g id="cell61">
  <circle cx="1676.49" cy="277.167" r="10.3682" stroke-width="0.5" stroke="black" fill="red"/>
  <circle cx="1676.49" cy="277.167" r="6.26172" stroke-width="0.5" stroke="red" fill="red"/>
   </g>
   <g id="cell62">
  <circle cx="1431.15" cy="1675.49" r="10.1634" stroke-width="0.5" stroke="black" fill="red"/>
  <circle cx="1431.15" cy="1675.49" r="6.1549" stroke-width="0.5" stroke="red" fill="red"/>
   </g>
   <g id="cell63">
  <circle cx="512.171" cy="328.149" r="9.70201" stroke-width="0.5" stroke="black" fill="red"/>
  <circle cx="512.171" cy="328.149" r="5.89426" stroke-width="0.5" stroke="red" fill="red"/>
   </g>
   <g id="cell64">
  <circle cx="1162.93" cy="1107.55" r="10.1758" stroke-width="0.5" stroke="black" fill="red"/>
  <circle cx="1162.93" cy="1107.55" r="6.16159" stroke-width="0.5" stroke="red" fill="red"/>
   </g>
   <g id="cell65">
  <circle cx="373.445" cy="1632.38" r="10.4651" stroke-width="0.5" stroke="black" fill="red"/>
  <circle cx="373.445" cy="1632.38" r="6.30877" stroke-width="0.5" stroke="red" fill="red"/>
   </g>
   <g id="cell66">
  <circle cx="10.9427" cy="311.361" r="10.3682" stroke-width="0.5" stroke="black" fill="red"/>
  <circle cx="10.9427" cy="311.361" r="6.26172" stroke-width="0.5" stroke="red" fill="red"/>
   </g>
   <g id="cell67">
  <circle cx="1100.26" cy="547.86" r="10.2999" stroke-width="0.5" stroke="black" fill="red"/>
  <circle cx="1100.26" cy="547.86" r="6.22699" stroke-width="0.5" stroke="red" fill="red"/>
   </g>
   <g id="cell68">
  <circle cx="1483.91" cy="608.989" r="10.4613" stroke-width="0.5" stroke="black" fill="red"/>
  <circle cx="1483.91" cy="608.989" r="6.30695" stroke-width="0.5" stroke="red" fill="red"/>
   </g>
   <g id="cell69">
  <circle cx="892.619" cy="551.207" r="8.41271" stroke-width="0.5" stroke="black" fill="red"/>
  <circle cx="892.619" cy="551.207" r="5.05167" stroke-width="0.5" stroke="red" fill="red"/>
   </g>
   <g id="cell70">
  <circle cx="1161.66" cy="810.38" r="10.4258" stroke-width="0.5" stroke="black" fill="red"/>
  <circle cx="1161.66" cy="810.38" r="6.29005" stroke-width="0.5" stroke="red" fill="red"/>
   </g>
   <g id="cell71">
  <circle cx="1767.19" cy="1129.57" r="10.3873" stroke-width="0.5" stroke="black" fill="red"/>
  <circle cx="1767.19" cy="1129.57" r="6.2712" stroke-width="0.5" stroke="red" fill="red"/>
   </g>
   <g id="cell72">
  <circle cx="449.68" cy="1819.48" r="10.0336" stroke-width="0.5" stroke="black" fill="red"/>
  <circle cx="449.68" cy="1819.48" r="6.08382" stroke-width="0.5" stroke="red" fill="red"/>
   </g>
   <g id="cell73">
  <circle cx="1455.8" cy="900.095" r="10.4761" stroke-width="0.5" stroke="black" fill="red"/>
  <circle cx="1455.8" cy="900.095" r="6.31388" stroke-width="0.5" stroke="red" fill="red"/>
   </g>
   <g id="cell74">
  <circle cx="1685.15" cy="1964.68" r="10.4726" stroke-width="0.5" stroke="black" fill="red"/>
  <circle cx="1685.15" cy="1964.68" r="6.31223" stroke-width="0.5" stroke="red" fill="red"/>
   </g>
   <g id="cell75">
  <circle cx="209.254" cy="604.998" r="9.4743" stroke-width="0.5" stroke="black" fill="red"/>
  <circle cx="209.254" cy="604.998" r="5.75875" stroke-width="0.5" stroke="red" fill="red"/>
   </g>
   <g id="cell76">
  <circle cx="1606.88" cy="841.244" r="10.2999" stroke-width="0.5" stroke="black" fill="red"/>
  <circle cx="1606.88" cy="841.244" r="6.22699" stroke-width="0.5" stroke="red" fill="red"/>
   </g>
   <g id="cell77">
  <circle cx="1405.99" cy="1764.39" r="10.1996" stroke-width="0.5" stroke="black" fill="red"/>
  <circle cx="1405.99" cy="1764.39" r="6.17434" stroke-width="0.5" stroke="red" fill="red"/>
   </g>
   <g id="cell78">
  <circle cx="1236.04" cy="652.431" r="10.1996" stroke-width="0.5" stroke="black" fill="red"/>
  <circle cx="1236.04" cy="652.431" r="6.17434" stroke-width="0.5" stroke="red" fill="red"/>
   </g>
   <g id="cell79">
  <circle cx="1933.51" cy="1382.36" r="8.41271" stroke-width="0.5" stroke="black" fill="red"/>
  <circle cx="1933.51" cy="1382.36" r="5.05167" stroke-width="0.5" stroke="red" fill="red"/>
   </g>
   <g id="cell80">
  <circle cx="1414.55" cy="1267.93" r="10.3873" stroke-width="0.5" stroke="black" fill="red"/>
  <circle cx="1414.55" cy="1267.93" r="6.2712" stroke-width="0.5" stroke="red" fill="red"/>
   </g>
   <g id="cell81">
  <circle cx="1073.97" cy="1890.12" r="1.41054" stroke-width="0.5" stroke="black" fill="red"/>
  <circle cx="1073.97" cy="1890.12" r="1.40301" stroke-width="0.5" stroke="black" fill="black"/>
   </g>
   <g id="cell82">
  <circle cx="1255.93" cy="762.288" r="10.4048" stroke-width="0.5" stroke="black" fill="red"/>
  <circle cx="1255.93" cy="762.288" r="6.27981" stroke-width="0.5" stroke="red" fill="red"/>
   </g>
   <g id="cell83">
  <circle cx="1270.49" cy="1248.07" r="10.1506" stroke-width="0.5" stroke="black" fill="red"/>
  <circle cx="1270.49" cy="1248.07" r="6.14798" stroke-width="0.5" stroke="red" fill="red"/>
   </g>
   <g id="cell84">
  <circle cx="23.8081" cy="960.675" r="10.4925" stroke-width="0.5" stroke="black" fill="red"/>
  <circle cx="23.8081" cy="960.675" r="6.32139" stroke-width="0.5" stroke="red" fill="red"/>
   </g>
   <g id="cell85">
  <circle cx="1425.88" cy="1286.34" r="9.86542" stroke-width="0.5" stroke="black" fill="red"/>
  <circle cx="1425.88" cy="1286.34" r="5.98895" stroke-width="0.5" stroke="red" fill="red"/>
   </g>
   <g id="cell86">
  <circle cx="605.119" cy="796.465" r="8.41271" stroke-width="0.5" stroke="black" fill="red"/>
  <circle cx="605.119" cy="796.465" r="5.05167" stroke-width="0.5" stroke="red" fill="red"/>
   </g>
   <g id="cell87">
  <circle cx="1500.33" cy="879.509" r="10.3682" stroke-width="0.5" stroke="black" fill="red"/>
  <circle cx="1500.33" cy="879.509" r="6.26172" stroke-width="0.5" stroke="red" fill="red"/>
   </g>
   <g id="cell88">
  <circle cx="319.426" cy="209.989" r="10.3873" stroke-width="0.5" stroke="black" fill="red"/>
  <circle cx="319.426" cy="209.989" r="6.2712" stroke-width="0.5" stroke="red" fill="red"/>
   </g>
   <g id="cell89">
  <circle cx="177.638" cy="1151.65" r="8.41271" stroke-width="0.5" stroke="black" fill="red"/>
  <circle cx="177.638" cy="1151.65" r="5.05167" stroke-width="0.5" stroke="red" fill="red"/>
   </g>
   <g id="cell90">
  <circle cx="1150.86" cy="1098.78" r="9.44256" stroke-width="0.5" stroke="black" fill="red"/>
  <circle cx="1150.86" cy="1098.78" r="5.73955" stroke-width="0.5" stroke="red" fill="red"/>
   </g>
   <g id="cell91">
  <circle cx="55.356" cy="1266.98" r="9.59391" stroke-width="0.5" stroke="black" fill="red"/>
  <circle cx="55.356" cy="1266.98" r="5.83043" stroke-width="0.5" stroke="red" fill="red"/>
   </g>
   <g id="cell92">
  <circle cx="1262.46" cy="634.629" r="10.5117" stroke-width="0.5" stroke="black" fill="red"/>
  <circle cx="1262.46" cy="634.629" r="6.33005" stroke-width="0.5" stroke="red" fill="red"/>
   </g>
   <g id="cell93">
  <circle cx="427.84" cy="1796.91" r="10.2433" stroke-width="0.5" stroke="black" fill="red"/>
  <circle cx="427.84" cy="1796.91" r="6.19748" stroke-width="0.5" stroke="red" fill="red"/>
   </g>
   <g id="cell94">
  <circle cx="744.567" cy="227.743" r="10.4355" stroke-width="0.5" stroke="black" fill="red"/>
  <circle cx="744.567" cy="227.743" r="6.2947" stroke-width="0.5" stroke="red" fill="red"/>
   </g>
   <g id="cell95">
  <circle cx="1983.5" cy="1758" r="10.4156" stroke-width="0.5" stroke="black" fill="red"/>
  <circle cx="1983.5" cy="1758" r="6.2851" stroke-width="0.5" stroke="red" fill="red"/>
   </g>
   <g id="cell96">
  <circle cx="1629.47" cy="1083.16" r="10.4573" stroke-width="0.5" stroke="black" fill="red"/>
  <circle cx="1629.47" cy="1083.16" r="6.30507" stroke-width="0.5" stroke="red" fill="red"/>
   </g>
   <g id="cell97">
  <circle cx="874.277" cy="219.191" r="10.4984" stroke-width="0.5" stroke="black" fill="red"/>
  <circle cx="874.277" cy="219.191" r="6.32406" stroke-width="0.5" stroke="red" fill="red"/>
   </g>
   <g id="cell98">
  <circle cx="1828.5" cy="695.551" r="10.5066" stroke-width="0.5" stroke="black" fill="red"/>
  <circle cx="1828.5" cy="695.551" r="6.32777" stroke-width="0.5" stroke="red" fill="red"/>
   </g>
   <g id="cell99">
  <circle cx="915.384" cy="1976.91" r="10.5092" stroke-width="0.5" stroke="black" fill="red"/>
  <circle cx="915.384" cy="1976.91" r="6.32893" stroke-width="0.5" stroke="red" fill="red"/>
   </g>
  </g>
 </g>
  <rect x="1750" y="2070" width="200" height="20" stroke-width="4" stroke="rgb(255,255,255)" fill="rgb(0,0,0)"/>
  <text x="1762.5" y="2057.5"
   font-family="Arial" font-size="50" fill="black" >
   200 &#956;m
  </text>
  <text x="50" y="2090"
   font-family="Arial" font-size="37.5" fill="black" >
   0 days, 0 hours, 0 minutes, and 17.8178 seconds
  </text>
  <rect x="0" y="140" width="2000" height="2000" stroke-width="4" stroke="rgb(0,0,0)" fill="none"/>
</svg>
