<?xml version="1.0" encoding="UTF-8" standalone="no"?>
<!-- Created with PhysiCell (http://PhysiCell.MathCancer.org/) -->
<svg 
 xmlns:dc="http://purl.org/dc/elements/1.1/" 
 xmlns:cc="http://creativecommons.org/ns#" 
 xmlns:rdf="http://www.w3.org/1999/02/22-rdf-syntax-ns#" 
 xmlns:svg="http://www.w3.org/2000/svg" 
 xmlns="http://www.w3.org/2000/svg" 
 version="1.1" 
 width="2000" 
 height="2140" 
 id="svg2">
  <rect x="0" y="0" width="2000" height="2140" stroke-width="4" stroke="white" fill="white"/>
  <text x="25" y="60"
   font-family="Arial" font-size="50" fill="black" >
   Current time: 0 days, 4 hours, and 10.00 minutes, z = 0.00 &#956;m
  </text>
  <text x="25" y="115"
   font-family="Arial" font-size="47.5" fill="black" >
   100 agents
  </text>
 <g id="tissue" 
    transform="translate(0,2140) scale(1,-1)">
  <g id="ECM">
  </g>
  <g id="cells">
   <g id="cell0">
  <circle cx="1077.33" cy="1162.92" r="8.41271" stroke-width="0.5" stroke="black" fill="grey"/>
  <circle cx="1077.33" cy="1162.92" r="5.05167" stroke-width="0.5" stroke="grey" fill="grey"/>
   </g>
   <g id="cell1">
  <circle cx="1709.98" cy="1199.91" r="9.20015" stroke-width="0.5" stroke="black" fill="grey"/>
  <circle cx="1709.98" cy="1199.91" r="5.59022" stroke-width="0.5" stroke="grey" fill="grey"/>
   </g>
   <g id="cell2">
  <circle cx="1089.71" cy="1711.55" r="9.75192" stroke-width="0.5" stroke="black" fill="grey"/>
  <circle cx="1089.71" cy="1711.55" r="5.92342" stroke-width="0.5" stroke="grey" fill="grey"/>
   </g>
   <g id="cell3">
  <circle cx="1244.42" cy="1268.87" r="8.45606" stroke-width="0.5" stroke="black" fill="grey"/>
  <circle cx="1244.42" cy="1268.87" r="5.08296" stroke-width="0.5" stroke="grey" fill="grey"/>
   </g>
   <g id="cell4">
  <circle cx="891.748" cy="596.839" r="8.41271" stroke-width="0.5" stroke="black" fill="grey"/>
  <circle cx="891.748" cy="596.839" r="5.05167" stroke-width="0.5" stroke="grey" fill="grey"/>
   </g>
   <g id="cell5">
  <circle cx="85.279" cy="1914.93" r="8.41271" stroke-width="0.5" stroke="black" fill="grey"/>
  <circle cx="85.279" cy="1914.93" r="5.05167" stroke-width="0.5" stroke="grey" fill="grey"/>
   </g>
   <g id="cell6">
  <circle cx="747.217" cy="921.061" r="8.41271" stroke-width="0.5" stroke="black" fill="grey"/>
  <circle cx="747.217" cy="921.061" r="5.05167" stroke-width="0.5" stroke="grey" fill="grey"/>
   </g>
   <g id="cell7">
  <circle cx="1596.89" cy="1058.15" r="8.88811" stroke-width="0.5" stroke="black" fill="grey"/>
  <circle cx="1596.89" cy="1058.15" r="5.38958" stroke-width="0.5" stroke="grey" fill="grey"/>
   </g>
   <g id="cell8">
  <circle cx="1143.56" cy="791.241" r="9.7273" stroke-width="0.5" stroke="black" fill="grey"/>
  <circle cx="1143.56" cy="791.241" r="5.90906" stroke-width="0.5" stroke="grey" fill="grey"/>
   </g>
   <g id="cell9">
  <circle cx="1648.08" cy="163.478" r="8.41271" stroke-width="0.5" stroke="black" fill="grey"/>
  <circle cx="1648.08" cy="163.478" r="5.05167" stroke-width="0.5" stroke="grey" fill="grey"/>
   </g>
   <g id="cell10">
  <circle cx="192.986" cy="1301.41" r="8.41271" stroke-width="0.5" stroke="black" fill="grey"/>
  <circle cx="192.986" cy="1301.41" r="5.05167" stroke-width="0.5" stroke="grey" fill="grey"/>
   </g>
   <g id="cell11">
  <circle cx="752.308" cy="1640.63" r="9.4743" stroke-width="0.5" stroke="black" fill="grey"/>
  <circle cx="752.308" cy="1640.63" r="5.75875" stroke-width="0.5" stroke="grey" fill="grey"/>
   </g>
   <g id="cell12">
  <circle cx="1589.94" cy="268.855" r="8.41271" stroke-width="0.5" stroke="black" fill="grey"/>
  <circle cx="1589.94" cy="268.855" r="5.05167" stroke-width="0.5" stroke="grey" fill="grey"/>
   </g>
   <g id="cell13">
  <circle cx="1743.17" cy="1938.46" r="9.53557" stroke-width="0.5" stroke="black" fill="grey"/>
  <circle cx="1743.17" cy="1938.46" r="5.79561" stroke-width="0.5" stroke="grey" fill="grey"/>
   </g>
   <g id="cell14">
  <circle cx="1586.69" cy="1607.25" r="8.41271" stroke-width="0.5" stroke="black" fill="grey"/>
  <circle cx="1586.69" cy="1607.25" r="5.05167" stroke-width="0.5" stroke="grey" fill="grey"/>
   </g>
   <g id="cell15">
  <circle cx="1037.08" cy="1561.82" r="8.51252" stroke-width="0.5" stroke="black" fill="grey"/>
  <circle cx="1037.08" cy="1561.82" r="5.12552" stroke-width="0.5" stroke="grey" fill="grey"/>
   </g>
   <g id="cell16">
  <circle cx="243.327" cy="1415.03" r="9.08642" stroke-width="0.5" stroke="black" fill="grey"/>
  <circle cx="243.327" cy="1415.03" r="5.51837" stroke-width="0.5" stroke="grey" fill="grey"/>
   </g>
   <g id="cell17">
  <circle cx="1192.9" cy="290.576" r="8.80772" stroke-width="0.5" stroke="black" fill="grey"/>
  <circle cx="1192.9" cy="290.576" r="5.33574" stroke-width="0.5" stroke="grey" fill="grey"/>
   </g>
   <g id="cell18">
  <circle cx="1881.82" cy="1525.15" r="9.5053" stroke-width="0.5" stroke="black" fill="grey"/>
  <circle cx="1881.82" cy="1525.15" r="5.77744" stroke-width="0.5" stroke="grey" fill="grey"/>
   </g>
   <g id="cell19">
  <circle cx="231.962" cy="822.973" r="8.41271" stroke-width="0.5" stroke="black" fill="grey"/>
  <circle cx="231.962" cy="822.973" r="5.05167" stroke-width="0.5" stroke="grey" fill="grey"/>
   </g>
   <g id="cell20">
  <circle cx="540.405" cy="371.694" r="8.41271" stroke-width="0.5" stroke="black" fill="grey"/>
  <circle cx="540.405" cy="371.694" r="5.05167" stroke-width="0.5" stroke="grey" fill="grey"/>
   </g>
   <g id="cell21">
  <circle cx="1433.18" cy="908.329" r="8.41271" stroke-width="0.5" stroke="black" fill="grey"/>
  <circle cx="1433.18" cy="908.329" r="5.05167" stroke-width="0.5" stroke="grey" fill="grey"/>
   </g>
   <g id="cell22">
  <circle cx="1137.21" cy="262.644" r="8.41271" stroke-width="0.5" stroke="black" fill="grey"/>
  <circle cx="1137.21" cy="262.644" r="5.05167" stroke-width="0.5" stroke="grey" fill="grey"/>
   </g>
   <g id="cell23">
  <circle cx="659.622" cy="1242.58" r="9.62199" stroke-width="0.5" stroke="black" fill="grey"/>
  <circle cx="659.622" cy="1242.58" r="5.8471" stroke-width="0.5" stroke="grey" fill="grey"/>
   </g>
   <g id="cell24">
  <circle cx="1259.66" cy="432.081" r="8.41271" stroke-width="0.5" stroke="black" fill="grey"/>
  <circle cx="1259.66" cy="432.081" r="5.05167" stroke-width="0.5" stroke="grey" fill="grey"/>
   </g>
   <g id="cell25">
  <circle cx="777.287" cy="1875.89" r="9.7273" stroke-width="0.5" stroke="black" fill="grey"/>
  <circle cx="777.287" cy="1875.89" r="5.90906" stroke-width="0.5" stroke="grey" fill="grey"/>
   </g>
   <g id="cell26">
  <circle cx="1383.67" cy="898.566" r="8.41271" stroke-width="0.5" stroke="black" fill="grey"/>
  <circle cx="1383.67" cy="898.566" r="5.05167" stroke-width="0.5" stroke="grey" fill="grey"/>
   </g>
   <g id="cell27">
  <circle cx="1215.53" cy="880.497" r="8.68937" stroke-width="0.5" stroke="black" fill="grey"/>
  <circle cx="1215.53" cy="880.497" r="5.25417" stroke-width="0.5" stroke="grey" fill="grey"/>
   </g>
   <g id="cell28">
  <circle cx="1385.34" cy="203.938" r="9.04745" stroke-width="0.5" stroke="black" fill="grey"/>
  <circle cx="1385.34" cy="203.938" r="5.49345" stroke-width="0.5" stroke="grey" fill="grey"/>
   </g>
   <g id="cell29">
  <circle cx="1946.92" cy="1329.94" r="8.4325" stroke-width="0.5" stroke="black" fill="grey"/>
  <circle cx="1946.92" cy="1329.94" r="5.06552" stroke-width="0.5" stroke="grey" fill="grey"/>
   </g>
   <g id="cell30">
  <circle cx="1354.87" cy="321.681" r="8.41271" stroke-width="0.5" stroke="black" fill="grey"/>
  <circle cx="1354.87" cy="321.681" r="5.05167" stroke-width="0.5" stroke="grey" fill="grey"/>
   </g>
   <g id="cell31">
  <circle cx="708.939" cy="260.317" r="9.5651" stroke-width="0.5" stroke="black" fill="grey"/>
  <circle cx="708.939" cy="260.317" r="5.81327" stroke-width="0.5" stroke="grey" fill="grey"/>
   </g>
   <g id="cell32">
  <circle cx="604.222" cy="1218.34" r="9.53557" stroke-width="0.5" stroke="black" fill="grey"/>
  <circle cx="604.222" cy="1218.34" r="5.79561" stroke-width="0.5" stroke="grey" fill="grey"/>
   </g>
   <g id="cell33">
  <circle cx="657.991" cy="1140.55" r="8.41271" stroke-width="0.5" stroke="black" fill="grey"/>
  <circle cx="657.991" cy="1140.55" r="5.05167" stroke-width="0.5" stroke="grey" fill="grey"/>
   </g>
   <g id="cell34">
  <circle cx="904.889" cy="1259.11" r="9.70201" stroke-width="0.5" stroke="black" fill="grey"/>
  <circle cx="904.889" cy="1259.11" r="5.89426" stroke-width="0.5" stroke="grey" fill="grey"/>
   </g>
   <g id="cell35">
  <circle cx="1895.63" cy="212.459" r="9.41008" stroke-width="0.5" stroke="black" fill="grey"/>
  <circle cx="1895.63" cy="212.459" r="5.71981" stroke-width="0.5" stroke="grey" fill="grey"/>
   </g>
   <g id="cell36">
  <circle cx="407.6" cy="1263.16" r="9.23685" stroke-width="0.5" stroke="black" fill="grey"/>
  <circle cx="407.6" cy="1263.16" r="5.61315" stroke-width="0.5" stroke="grey" fill="grey"/>
   </g>
   <g id="cell37">
  <circle cx="1974.17" cy="1290.62" r="8.41271" stroke-width="0.5" stroke="black" fill="grey"/>
  <circle cx="1974.17" cy="1290.62" r="5.05167" stroke-width="0.5" stroke="grey" fill="grey"/>
   </g>
   <g id="cell38">
  <circle cx="489.919" cy="861.531" r="9.44256" stroke-width="0.5" stroke="black" fill="grey"/>
  <circle cx="489.919" cy="861.531" r="5.73955" stroke-width="0.5" stroke="grey" fill="grey"/>
   </g>
   <g id="cell39">
  <circle cx="923.665" cy="486.652" r="8.41271" stroke-width="0.5" stroke="black" fill="grey"/>
  <circle cx="923.665" cy="486.652" r="5.05167" stroke-width="0.5" stroke="grey" fill="grey"/>
   </g>
   <g id="cell40">
  <circle cx="286.174" cy="668.896" r="9.5053" stroke-width="0.5" stroke="black" fill="grey"/>
  <circle cx="286.174" cy="668.896" r="5.77744" stroke-width="0.5" stroke="grey" fill="grey"/>
   </g>
   <g id="cell41">
  <circle cx="1345.64" cy="1289.14" r="9.77588" stroke-width="0.5" stroke="black" fill="grey"/>
  <circle cx="1345.64" cy="1289.14" r="5.93735" stroke-width="0.5" stroke="grey" fill="grey"/>
   </g>
   <g id="cell42">
  <circle cx="283.581" cy="1571.27" r="8.80772" stroke-width="0.5" stroke="black" fill="grey"/>
  <circle cx="283.581" cy="1571.27" r="5.33574" stroke-width="0.5" stroke="grey" fill="grey"/>
   </g>
   <g id="cell43">
  <circle cx="1891.57" cy="757.267" r="9.08642" stroke-width="0.5" stroke="black" fill="grey"/>
  <circle cx="1891.57" cy="757.267" r="5.51837" stroke-width="0.5" stroke="grey" fill="grey"/>
   </g>
   <g id="cell44">
  <circle cx="1628.55" cy="51.7855" r="8.88811" stroke-width="0.5" stroke="black" fill="grey"/>
  <circle cx="1628.55" cy="51.7855" r="5.38958" stroke-width="0.5" stroke="grey" fill="grey"/>
   </g>
   <g id="cell45">
  <circle cx="1245.23" cy="1697.99" r="8.57856" stroke-width="0.5" stroke="black" fill="grey"/>
  <circle cx="1245.23" cy="1697.99" r="5.17461" stroke-width="0.5" stroke="grey" fill="grey"/>
   </g>
   <g id="cell46">
  <circle cx="178.326" cy="1948.59" r="9.04745" stroke-width="0.5" stroke="black" fill="grey"/>
  <circle cx="178.326" cy="1948.59" r="5.49345" stroke-width="0.5" stroke="grey" fill="grey"/>
   </g>
   <g id="cell47">
  <circle cx="1753.77" cy="916.219" r="9.67603" stroke-width="0.5" stroke="black" fill="grey"/>
  <circle cx="1753.77" cy="916.219" r="5.87901" stroke-width="0.5" stroke="grey" fill="grey"/>
   </g>
   <g id="cell48">
  <circle cx="1935.38" cy="116.658" r="8.41271" stroke-width="0.5" stroke="black" fill="grey"/>
  <circle cx="1935.38" cy="116.658" r="5.05167" stroke-width="0.5" stroke="grey" fill="grey"/>
   </g>
   <g id="cell49">
  <circle cx="897.957" cy="1464.54" r="8.57856" stroke-width="0.5" stroke="black" fill="grey"/>
  <circle cx="897.957" cy="1464.54" r="5.17461" stroke-width="0.5" stroke="grey" fill="grey"/>
   </g>
   <g id="cell50">
  <circle cx="112.293" cy="889.923" r="8.54454" stroke-width="0.5" stroke="black" fill="red"/>
  <circle cx="112.293" cy="889.923" r="5.14947" stroke-width="0.5" stroke="red" fill="red"/>
   </g>
   <g id="cell51">
  <circle cx="1972.76" cy="265.182" r="8.41271" stroke-width="0.5" stroke="black" fill="red"/>
  <circle cx="1972.76" cy="265.182" r="5.05167" stroke-width="0.5" stroke="red" fill="red"/>
   </g>
   <g id="cell52">
  <circle cx="601.035" cy="945.403" r="8.80772" stroke-width="0.5" stroke="black" fill="red"/>
  <circle cx="601.035" cy="945.403" r="5.33574" stroke-width="0.5" stroke="red" fill="red"/>
   </g>
   <g id="cell53">
  <circle cx="1371.31" cy="645.638" r="8.41271" stroke-width="0.5" stroke="black" fill="red"/>
  <circle cx="1371.31" cy="645.638" r="5.05167" stroke-width="0.5" stroke="red" fill="red"/>
   </g>
   <g id="cell54">
  <circle cx="826.193" cy="1832.44" r="9.00806" stroke-width="0.5" stroke="black" fill="red"/>
  <circle cx="826.193" cy="1832.44" r="5.46807" stroke-width="0.5" stroke="red" fill="red"/>
   </g>
   <g id="cell55">
  <circle cx="419.831" cy="1387.73" r="8.41271" stroke-width="0.5" stroke="black" fill="red"/>
  <circle cx="419.831" cy="1387.73" r="5.05167" stroke-width="0.5" stroke="red" fill="red"/>
   </g>
   <g id="cell56">
  <circle cx="1154.1" cy="1720.34" r="8.41271" stroke-width="0.5" stroke="black" fill="red"/>
  <circle cx="1154.1" cy="1720.34" r="5.05167" stroke-width="0.5" stroke="red" fill="red"/>
   </g>
   <g id="cell57">
  <circle cx="1011.35" cy="1068.13" r="9.59391" stroke-width="0.5" stroke="black" fill="red"/>
  <circle cx="1011.35" cy="1068.13" r="5.83043" stroke-width="0.5" stroke="red" fill="red"/>
   </g>
   <g id="cell58">
  <circle cx="169.009" cy="1807.81" r="8.41271" stroke-width="0.5" stroke="black" fill="red"/>
  <circle cx="169.009" cy="1807.81" r="5.05167" stroke-width="0.5" stroke="red" fill="red"/>
   </g>
   <g id="cell59">
  <circle cx="166.225" cy="1858.59" r="2.08246" stroke-width="0.5" stroke="black" fill="red"/>
  <circle cx="166.225" cy="1858.59" r="1.95565" stroke-width="0.5" stroke="black" fill="black"/>
   </g>
   <g id="cell60">
  <circle cx="660.278" cy="25.588" r="8.65127" stroke-width="0.5" stroke="black" fill="red"/>
  <circle cx="660.278" cy="25.588" r="5.2272" stroke-width="0.5" stroke="red" fill="red"/>
   </g>
   <g id="cell61">
  <circle cx="1661.31" cy="252.601" r="9.16281" stroke-width="0.5" stroke="black" fill="red"/>
  <circle cx="1661.31" cy="252.601" r="5.56677" stroke-width="0.5" stroke="red" fill="red"/>
   </g>
   <g id="cell62">
  <circle cx="1429.6" cy="1690.44" r="8.96831" stroke-width="0.5" stroke="black" fill="red"/>
  <circle cx="1429.6" cy="1690.44" r="5.44228" stroke-width="0.5" stroke="red" fill="red"/>
   </g>
   <g id="cell63">
  <circle cx="551.871" cy="382.233" r="8.41271" stroke-width="0.5" stroke="black" fill="red"/>
  <circle cx="551.871" cy="382.233" r="5.05167" stroke-width="0.5" stroke="red" fill="red"/>
   </g>
   <g id="cell64">
  <circle cx="1166.82" cy="1125.11" r="8.65127" stroke-width="0.5" stroke="black" fill="red"/>
  <circle cx="1166.82" cy="1125.11" r="5.2272" stroke-width="0.5" stroke="red" fill="red"/>
   </g>
   <g id="cell65">
  <circle cx="314.89" cy="1661.51" r="9.00806" stroke-width="0.5" stroke="black" fill="red"/>
  <circle cx="314.89" cy="1661.51" r="5.46807" stroke-width="0.5" stroke="red" fill="red"/>
   </g>
   <g id="cell66">
  <circle cx="19.9851" cy="293.588" r="8.41271" stroke-width="0.5" stroke="black" fill="red"/>
  <circle cx="19.9851" cy="293.588" r="5.05167" stroke-width="0.5" stroke="red" fill="red"/>
   </g>
   <g id="cell67">
  <circle cx="1156.78" cy="533.248" r="8.41271" stroke-width="0.5" stroke="black" fill="red"/>
  <circle cx="1156.78" cy="533.248" r="5.05167" stroke-width="0.5" stroke="red" fill="red"/>
   </g>
   <g id="cell68">
  <circle cx="1455.45" cy="592.773" r="8.84788" stroke-width="0.5" stroke="black" fill="red"/>
  <circle cx="1455.45" cy="592.773" r="5.36278" stroke-width="0.5" stroke="red" fill="red"/>
   </g>
   <g id="cell69">
  <circle cx="863.725" cy="514.218" r="8.41271" stroke-width="0.5" stroke="black" fill="red"/>
  <circle cx="863.725" cy="514.218" r="5.05167" stroke-width="0.5" stroke="red" fill="red"/>
   </g>
   <g id="cell70">
  <circle cx="1175.29" cy="798.948" r="9.23685" stroke-width="0.5" stroke="black" fill="red"/>
  <circle cx="1175.29" cy="798.948" r="5.61315" stroke-width="0.5" stroke="red" fill="red"/>
   </g>
   <g id="cell71">
  <circle cx="1780.53" cy="1157.97" r="9.64936" stroke-width="0.5" stroke="black" fill="red"/>
  <circle cx="1780.53" cy="1157.97" r="5.86329" stroke-width="0.5" stroke="red" fill="red"/>
   </g>
   <g id="cell72">
  <circle cx="444.928" cy="1764.48" r="8.41271" stroke-width="0.5" stroke="black" fill="red"/>
  <circle cx="444.928" cy="1764.48" r="5.05167" stroke-width="0.5" stroke="red" fill="red"/>
   </g>
   <g id="cell73">
  <circle cx="1364.61" cy="868.3" r="9.5053" stroke-width="0.5" stroke="black" fill="red"/>
  <circle cx="1364.61" cy="868.3" r="5.77744" stroke-width="0.5" stroke="red" fill="red"/>
   </g>
   <g id="cell74">
  <circle cx="1702.88" cy="1927.25" r="9.04745" stroke-width="0.5" stroke="black" fill="red"/>
  <circle cx="1702.88" cy="1927.25" r="5.49345" stroke-width="0.5" stroke="red" fill="red"/>
   </g>
   <g id="cell75">
  <circle cx="223.445" cy="589.364" r="8.41271" stroke-width="0.5" stroke="black" fill="red"/>
  <circle cx="223.445" cy="589.364" r="5.05167" stroke-width="0.5" stroke="red" fill="red"/>
   </g>
   <g id="cell76">
  <circle cx="1640.37" cy="810.181" r="8.41271" stroke-width="0.5" stroke="black" fill="red"/>
  <circle cx="1640.37" cy="810.181" r="5.05167" stroke-width="0.5" stroke="red" fill="red"/>
   </g>
   <g id="cell77">
  <circle cx="1350.61" cy="1782.41" r="9.34292" stroke-width="0.5" stroke="black" fill="red"/>
  <circle cx="1350.61" cy="1782.41" r="5.67875" stroke-width="0.5" stroke="red" fill="red"/>
   </g>
   <g id="cell78">
  <circle cx="1145.29" cy="627.893" r="8.41271" stroke-width="0.5" stroke="black" fill="red"/>
  <circle cx="1145.29" cy="627.893" r="5.05167" stroke-width="0.5" stroke="red" fill="red"/>
   </g>
   <g id="cell79">
  <circle cx="1944.7" cy="1421.41" r="8.41271" stroke-width="0.5" stroke="black" fill="red"/>
  <circle cx="1944.7" cy="1421.41" r="5.05167" stroke-width="0.5" stroke="red" fill="red"/>
   </g>
   <g id="cell80">
  <circle cx="1459.9" cy="1310.73" r="9.2729" stroke-width="0.5" stroke="black" fill="red"/>
  <circle cx="1459.9" cy="1310.73" r="5.63555" stroke-width="0.5" stroke="red" fill="red"/>
   </g>
   <g id="cell81">
  <circle cx="1078.07" cy="1910.83" r="8.68937" stroke-width="0.5" stroke="black" fill="red"/>
  <circle cx="1078.07" cy="1910.83" r="5.25417" stroke-width="0.5" stroke="red" fill="red"/>
   </g>
   <g id="cell82">
  <circle cx="1288.45" cy="795.021" r="9.4743" stroke-width="0.5" stroke="black" fill="red"/>
  <circle cx="1288.45" cy="795.021" r="5.75875" stroke-width="0.5" stroke="red" fill="red"/>
   </g>
   <g id="cell83">
  <circle cx="1207.02" cy="1218.84" r="9.7273" stroke-width="0.5" stroke="black" fill="red"/>
  <circle cx="1207.02" cy="1218.84" r="5.90906" stroke-width="0.5" stroke="red" fill="red"/>
   </g>
   <g id="cell84">
  <circle cx="28.1229" cy="929.923" r="8.41271" stroke-width="0.5" stroke="black" fill="red"/>
  <circle cx="28.1229" cy="929.923" r="5.05167" stroke-width="0.5" stroke="red" fill="red"/>
   </g>
   <g id="cell85">
  <circle cx="1444.19" cy="1334.8" r="8.41271" stroke-width="0.5" stroke="black" fill="red"/>
  <circle cx="1444.19" cy="1334.8" r="5.05167" stroke-width="0.5" stroke="red" fill="red"/>
   </g>
   <g id="cell86">
  <circle cx="563.227" cy="778.435" r="8.51252" stroke-width="0.5" stroke="black" fill="red"/>
  <circle cx="563.227" cy="778.435" r="5.12552" stroke-width="0.5" stroke="red" fill="red"/>
   </g>
   <g id="cell87">
  <circle cx="1491.47" cy="868.422" r="8.41271" stroke-width="0.5" stroke="black" fill="red"/>
  <circle cx="1491.47" cy="868.422" r="5.05167" stroke-width="0.5" stroke="red" fill="red"/>
   </g>
   <g id="cell88">
  <circle cx="266.31" cy="216.662" r="9.04745" stroke-width="0.5" stroke="black" fill="red"/>
  <circle cx="266.31" cy="216.662" r="5.49345" stroke-width="0.5" stroke="red" fill="red"/>
   </g>
   <g id="cell89">
  <circle cx="191.042" cy="1130.84" r="9.16281" stroke-width="0.5" stroke="black" fill="red"/>
  <circle cx="191.042" cy="1130.84" r="5.56677" stroke-width="0.5" stroke="red" fill="red"/>
   </g>
   <g id="cell90">
  <circle cx="1204.11" cy="1096.39" r="8.41271" stroke-width="0.5" stroke="black" fill="red"/>
  <circle cx="1204.11" cy="1096.39" r="5.05167" stroke-width="0.5" stroke="red" fill="red"/>
   </g>
   <g id="cell91">
  <circle cx="66.9333" cy="1279.61" r="9.34292" stroke-width="0.5" stroke="black" fill="red"/>
  <circle cx="66.9333" cy="1279.61" r="5.67875" stroke-width="0.5" stroke="red" fill="red"/>
   </g>
   <g id="cell92">
  <circle cx="1304.21" cy="641.994" r="2.08246" stroke-width="0.5" stroke="black" fill="red"/>
  <circle cx="1304.21" cy="641.994" r="1.95565" stroke-width="0.5" stroke="black" fill="black"/>
   </g>
   <g id="cell93">
  <circle cx="449.515" cy="1810.27" r="9.70201" stroke-width="0.5" stroke="black" fill="red"/>
  <circle cx="449.515" cy="1810.27" r="5.89426" stroke-width="0.5" stroke="red" fill="red"/>
   </g>
   <g id="cell94">
  <circle cx="742.351" cy="194.395" r="8.72828" stroke-width="0.5" stroke="black" fill="red"/>
  <circle cx="742.351" cy="194.395" r="5.28134" stroke-width="0.5" stroke="red" fill="red"/>
   </g>
   <g id="cell95">
  <circle cx="1950.97" cy="1780.34" r="9.59391" stroke-width="0.5" stroke="black" fill="red"/>
  <circle cx="1950.97" cy="1780.34" r="5.83043" stroke-width="0.5" stroke="red" fill="red"/>
   </g>
   <g id="cell96">
  <circle cx="1630.82" cy="1065.91" r="8.41271" stroke-width="0.5" stroke="black" fill="red"/>
  <circle cx="1630.82" cy="1065.91" r="5.05167" stroke-width="0.5" stroke="red" fill="red"/>
   </g>
   <g id="cell97">
  <circle cx="931.168" cy="186.486" r="8.65127" stroke-width="0.5" stroke="black" fill="red"/>
  <circle cx="931.168" cy="186.486" r="5.2272" stroke-width="0.5" stroke="red" fill="red"/>
   </g>
   <g id="cell98">
  <circle cx="1810.81" cy="704.28" r="8.41271" stroke-width="0.5" stroke="black" fill="red"/>
  <circle cx="1810.81" cy="704.28" r="5.05167" stroke-width="0.5" stroke="red" fill="red"/>
   </g>
   <g id="cell99">
  <circle cx="946.381" cy="1990.81" r="9.62199" stroke-width="0.5" stroke="black" fill="red"/>
  <circle cx="946.381" cy="1990.81" r="5.8471" stroke-width="0.5" stroke="red" fill="red"/>
   </g>
  </g>
 </g>
  <rect x="1750" y="2070" width="200" height="20" stroke-width="4" stroke="rgb(255,255,255)" fill="rgb(0,0,0)"/>
  <text x="1762.5" y="2057.5"
   font-family="Arial" font-size="50" fill="black" >
   200 &#956;m
  </text>
  <text x="50" y="2090"
   font-family="Arial" font-size="37.5" fill="black" >
   0 days, 0 hours, 0 minutes, and 6.1921 seconds
  </text>
  <rect x="0" y="140" width="2000" height="2000" stroke-width="4" stroke="rgb(0,0,0)" fill="none"/>
</svg>
