<?xml version="1.0" encoding="UTF-8" standalone="no"?>
<!-- Created with PhysiCell (http://PhysiCell.MathCancer.org/) -->
<svg 
 xmlns:dc="http://purl.org/dc/elements/1.1/" 
 xmlns:cc="http://creativecommons.org/ns#" 
 xmlns:rdf="http://www.w3.org/1999/02/22-rdf-syntax-ns#" 
 xmlns:svg="http://www.w3.org/2000/svg" 
 xmlns="http://www.w3.org/2000/svg" 
 version="1.1" 
 width="2000" 
 height="2140" 
 id="svg2">
  <rect x="0" y="0" width="2000" height="2140" stroke-width="4" stroke="white" fill="white"/>
  <text x="25" y="60"
   font-family="Arial" font-size="50" fill="black" >
   Current time: 0 days, 8 hours, and 10.00 minutes, z = 0.00 &#956;m
  </text>
  <text x="25" y="115"
   font-family="Arial" font-size="47.5" fill="black" >
   100 agents
  </text>
 <g id="tissue" 
    transform="translate(0,2140) scale(1,-1)">
  <g id="ECM">
  </g>
  <g id="cells">
   <g id="cell0">
  <circle cx="1115.28" cy="1163.17" r="9.77588" stroke-width="0.5" stroke="black" fill="grey"/>
  <circle cx="1115.28" cy="1163.17" r="5.93735" stroke-width="0.5" stroke="grey" fill="grey"/>
   </g>
   <g id="cell1">
  <circle cx="1688.54" cy="1166.81" r="9.37686" stroke-width="0.5" stroke="black" fill="grey"/>
  <circle cx="1688.54" cy="1166.81" r="5.69955" stroke-width="0.5" stroke="grey" fill="grey"/>
   </g>
   <g id="cell2">
  <circle cx="1125.02" cy="1715.3" r="10.0497" stroke-width="0.5" stroke="black" fill="grey"/>
  <circle cx="1125.02" cy="1715.3" r="6.09278" stroke-width="0.5" stroke="grey" fill="grey"/>
   </g>
   <g id="cell3">
  <circle cx="1242.99" cy="1275.45" r="10.2999" stroke-width="0.5" stroke="black" fill="grey"/>
  <circle cx="1242.99" cy="1275.45" r="6.22699" stroke-width="0.5" stroke="grey" fill="grey"/>
   </g>
   <g id="cell4">
  <circle cx="840.311" cy="614.266" r="10.1374" stroke-width="0.5" stroke="black" fill="grey"/>
  <circle cx="840.311" cy="614.266" r="6.14084" stroke-width="0.5" stroke="grey" fill="grey"/>
   </g>
   <g id="cell5">
  <circle cx="110.102" cy="1962.49" r="8.41271" stroke-width="0.5" stroke="black" fill="grey"/>
  <circle cx="110.102" cy="1962.49" r="5.05167" stroke-width="0.5" stroke="grey" fill="grey"/>
   </g>
   <g id="cell6">
  <circle cx="787.172" cy="926.746" r="9.90658" stroke-width="0.5" stroke="black" fill="grey"/>
  <circle cx="787.172" cy="926.746" r="6.01243" stroke-width="0.5" stroke="grey" fill="grey"/>
   </g>
   <g id="cell7">
  <circle cx="1628.46" cy="1062.13" r="10.1238" stroke-width="0.5" stroke="black" fill="grey"/>
  <circle cx="1628.46" cy="1062.13" r="6.13347" stroke-width="0.5" stroke="grey" fill="grey"/>
   </g>
   <g id="cell8">
  <circle cx="1124.27" cy="786.718" r="9.92631" stroke-width="0.5" stroke="black" fill="grey"/>
  <circle cx="1124.27" cy="786.718" r="6.02363" stroke-width="0.5" stroke="grey" fill="grey"/>
   </g>
   <g id="cell9">
  <circle cx="1693.65" cy="136.17" r="9.00806" stroke-width="0.5" stroke="black" fill="grey"/>
  <circle cx="1693.65" cy="136.17" r="5.46807" stroke-width="0.5" stroke="grey" fill="grey"/>
   </g>
   <g id="cell10">
  <circle cx="160.205" cy="1282.5" r="10.2728" stroke-width="0.5" stroke="black" fill="grey"/>
  <circle cx="160.205" cy="1282.5" r="6.21295" stroke-width="0.5" stroke="grey" fill="grey"/>
   </g>
   <g id="cell11">
  <circle cx="710.306" cy="1687.88" r="9.7992" stroke-width="0.5" stroke="black" fill="grey"/>
  <circle cx="710.306" cy="1687.88" r="5.95086" stroke-width="0.5" stroke="grey" fill="grey"/>
   </g>
   <g id="cell12">
  <circle cx="1543.16" cy="341.17" r="10.0654" stroke-width="0.5" stroke="black" fill="grey"/>
  <circle cx="1543.16" cy="341.17" r="6.10145" stroke-width="0.5" stroke="grey" fill="grey"/>
   </g>
   <g id="cell13">
  <circle cx="1766.16" cy="1951.58" r="8.61424" stroke-width="0.5" stroke="black" fill="grey"/>
  <circle cx="1766.16" cy="1951.58" r="5.20061" stroke-width="0.5" stroke="grey" fill="grey"/>
   </g>
   <g id="cell14">
  <circle cx="1581.17" cy="1575.27" r="9.7273" stroke-width="0.5" stroke="black" fill="grey"/>
  <circle cx="1581.17" cy="1575.27" r="5.90906" stroke-width="0.5" stroke="grey" fill="grey"/>
   </g>
   <g id="cell15">
  <circle cx="1035.1" cy="1596.9" r="10.2632" stroke-width="0.5" stroke="black" fill="grey"/>
  <circle cx="1035.1" cy="1596.9" r="6.20796" stroke-width="0.5" stroke="grey" fill="grey"/>
   </g>
   <g id="cell16">
  <circle cx="230.623" cy="1452.88" r="10.2632" stroke-width="0.5" stroke="black" fill="grey"/>
  <circle cx="230.623" cy="1452.88" r="6.20796" stroke-width="0.5" stroke="grey" fill="grey"/>
   </g>
   <g id="cell17">
  <circle cx="1180.25" cy="298.469" r="10.2632" stroke-width="0.5" stroke="black" fill="grey"/>
  <circle cx="1180.25" cy="298.469" r="6.20796" stroke-width="0.5" stroke="grey" fill="grey"/>
   </g>
   <g id="cell18">
  <circle cx="1869.35" cy="1534.1" r="8.41271" stroke-width="0.5" stroke="black" fill="grey"/>
  <circle cx="1869.35" cy="1534.1" r="5.05167" stroke-width="0.5" stroke="grey" fill="grey"/>
   </g>
   <g id="cell19">
  <circle cx="198.13" cy="845.089" r="8.41271" stroke-width="0.5" stroke="black" fill="grey"/>
  <circle cx="198.13" cy="845.089" r="5.05167" stroke-width="0.5" stroke="grey" fill="grey"/>
   </g>
   <g id="cell20">
  <circle cx="549.498" cy="361.631" r="10.1879" stroke-width="0.5" stroke="black" fill="grey"/>
  <circle cx="549.498" cy="361.631" r="6.16807" stroke-width="0.5" stroke="grey" fill="grey"/>
   </g>
   <g id="cell21">
  <circle cx="1450.31" cy="920.483" r="9.90658" stroke-width="0.5" stroke="black" fill="grey"/>
  <circle cx="1450.31" cy="920.483" r="6.01243" stroke-width="0.5" stroke="grey" fill="grey"/>
   </g>
   <g id="cell22">
  <circle cx="1171.65" cy="239.435" r="10.2433" stroke-width="0.5" stroke="black" fill="grey"/>
  <circle cx="1171.65" cy="239.435" r="6.19748" stroke-width="0.5" stroke="grey" fill="grey"/>
   </g>
   <g id="cell23">
  <circle cx="633.498" cy="1218.77" r="10.1996" stroke-width="0.5" stroke="black" fill="grey"/>
  <circle cx="633.498" cy="1218.77" r="6.17434" stroke-width="0.5" stroke="grey" fill="grey"/>
   </g>
   <g id="cell24">
  <circle cx="1233.49" cy="441.016" r="2.01831" stroke-width="0.5" stroke="black" fill="grey"/>
  <circle cx="1233.49" cy="441.016" r="1.90974" stroke-width="0.5" stroke="black" fill="black"/>
   </g>
   <g id="cell25">
  <circle cx="742.713" cy="1900.14" r="10.211" stroke-width="0.5" stroke="black" fill="grey"/>
  <circle cx="742.713" cy="1900.14" r="6.18041" stroke-width="0.5" stroke="grey" fill="grey"/>
   </g>
   <g id="cell26">
  <circle cx="1391.46" cy="911.081" r="8.41271" stroke-width="0.5" stroke="black" fill="grey"/>
  <circle cx="1391.46" cy="911.081" r="5.05167" stroke-width="0.5" stroke="grey" fill="grey"/>
   </g>
   <g id="cell27">
  <circle cx="1221.71" cy="835.254" r="10.1238" stroke-width="0.5" stroke="black" fill="grey"/>
  <circle cx="1221.71" cy="835.254" r="6.13347" stroke-width="0.5" stroke="grey" fill="grey"/>
   </g>
   <g id="cell28">
  <circle cx="1395.6" cy="200.52" r="10.2911" stroke-width="0.5" stroke="black" fill="grey"/>
  <circle cx="1395.6" cy="200.52" r="6.22246" stroke-width="0.5" stroke="grey" fill="grey"/>
   </g>
   <g id="cell29">
  <circle cx="1929.37" cy="1337.77" r="10.2911" stroke-width="0.5" stroke="black" fill="grey"/>
  <circle cx="1929.37" cy="1337.77" r="6.22246" stroke-width="0.5" stroke="grey" fill="grey"/>
   </g>
   <g id="cell30">
  <circle cx="1359.96" cy="356.529" r="8.72828" stroke-width="0.5" stroke="black" fill="grey"/>
  <circle cx="1359.96" cy="356.529" r="5.28134" stroke-width="0.5" stroke="grey" fill="grey"/>
   </g>
   <g id="cell31">
  <circle cx="705.439" cy="280.633" r="9.70201" stroke-width="0.5" stroke="black" fill="grey"/>
  <circle cx="705.439" cy="280.633" r="5.89426" stroke-width="0.5" stroke="grey" fill="grey"/>
   </g>
   <g id="cell32">
  <circle cx="671.195" cy="1200.7" r="10.34" stroke-width="0.5" stroke="black" fill="grey"/>
  <circle cx="671.195" cy="1200.7" r="6.24753" stroke-width="0.5" stroke="grey" fill="grey"/>
   </g>
   <g id="cell33">
  <circle cx="631.586" cy="1135.58" r="9.00806" stroke-width="0.5" stroke="black" fill="grey"/>
  <circle cx="631.586" cy="1135.58" r="5.46807" stroke-width="0.5" stroke="grey" fill="grey"/>
   </g>
   <g id="cell34">
  <circle cx="878.382" cy="1286.82" r="9.82189" stroke-width="0.5" stroke="black" fill="grey"/>
  <circle cx="878.382" cy="1286.82" r="5.96395" stroke-width="0.5" stroke="grey" fill="grey"/>
   </g>
   <g id="cell35">
  <circle cx="1913.58" cy="183.093" r="9.12489" stroke-width="0.5" stroke="black" fill="grey"/>
  <circle cx="1913.58" cy="183.093" r="5.54282" stroke-width="0.5" stroke="grey" fill="grey"/>
   </g>
   <g id="cell36">
  <circle cx="409.597" cy="1256.99" r="10.1996" stroke-width="0.5" stroke="black" fill="grey"/>
  <circle cx="409.597" cy="1256.99" r="6.17434" stroke-width="0.5" stroke="grey" fill="grey"/>
   </g>
   <g id="cell37">
  <circle cx="1974.88" cy="1364.27" r="10.0169" stroke-width="0.5" stroke="black" fill="grey"/>
  <circle cx="1974.88" cy="1364.27" r="6.07458" stroke-width="0.5" stroke="grey" fill="grey"/>
   </g>
   <g id="cell38">
  <circle cx="519.965" cy="858.642" r="8.41271" stroke-width="0.5" stroke="black" fill="grey"/>
  <circle cx="519.965" cy="858.642" r="5.05167" stroke-width="0.5" stroke="grey" fill="grey"/>
   </g>
   <g id="cell39">
  <circle cx="941.806" cy="485.542" r="10.0654" stroke-width="0.5" stroke="black" fill="grey"/>
  <circle cx="941.806" cy="485.542" r="6.10145" stroke-width="0.5" stroke="grey" fill="grey"/>
   </g>
   <g id="cell40">
  <circle cx="338.297" cy="657.786" r="10.0497" stroke-width="0.5" stroke="black" fill="grey"/>
  <circle cx="338.297" cy="657.786" r="6.09278" stroke-width="0.5" stroke="grey" fill="grey"/>
   </g>
   <g id="cell41">
  <circle cx="1329.88" cy="1321.12" r="9.59391" stroke-width="0.5" stroke="black" fill="grey"/>
  <circle cx="1329.88" cy="1321.12" r="5.83043" stroke-width="0.5" stroke="grey" fill="grey"/>
   </g>
   <g id="cell42">
  <circle cx="241.566" cy="1558.56" r="8.41271" stroke-width="0.5" stroke="black" fill="grey"/>
  <circle cx="241.566" cy="1558.56" r="5.05167" stroke-width="0.5" stroke="grey" fill="grey"/>
   </g>
   <g id="cell43">
  <circle cx="1875.62" cy="737.114" r="8.41271" stroke-width="0.5" stroke="black" fill="grey"/>
  <circle cx="1875.62" cy="737.114" r="5.05167" stroke-width="0.5" stroke="grey" fill="grey"/>
   </g>
   <g id="cell44">
  <circle cx="1628.69" cy="42.4358" r="9.96412" stroke-width="0.5" stroke="black" fill="grey"/>
  <circle cx="1628.69" cy="42.4358" r="6.04499" stroke-width="0.5" stroke="grey" fill="grey"/>
   </g>
   <g id="cell45">
  <circle cx="1228.2" cy="1657.72" r="8.41271" stroke-width="0.5" stroke="black" fill="grey"/>
  <circle cx="1228.2" cy="1657.72" r="5.05167" stroke-width="0.5" stroke="grey" fill="grey"/>
   </g>
   <g id="cell46">
  <circle cx="173.872" cy="1893.88" r="9.00806" stroke-width="0.5" stroke="black" fill="grey"/>
  <circle cx="173.872" cy="1893.88" r="5.46807" stroke-width="0.5" stroke="grey" fill="grey"/>
   </g>
   <g id="cell47">
  <circle cx="1761.9" cy="965.173" r="10.211" stroke-width="0.5" stroke="black" fill="grey"/>
  <circle cx="1761.9" cy="965.173" r="6.18041" stroke-width="0.5" stroke="grey" fill="grey"/>
   </g>
   <g id="cell48">
  <circle cx="1964.05" cy="98.4892" r="10.2433" stroke-width="0.5" stroke="black" fill="grey"/>
  <circle cx="1964.05" cy="98.4892" r="6.19748" stroke-width="0.5" stroke="grey" fill="grey"/>
   </g>
   <g id="cell49">
  <circle cx="863.053" cy="1453.34" r="10.3166" stroke-width="0.5" stroke="black" fill="grey"/>
  <circle cx="863.053" cy="1453.34" r="6.23561" stroke-width="0.5" stroke="grey" fill="grey"/>
   </g>
   <g id="cell50">
  <circle cx="74.6877" cy="898.605" r="10.34" stroke-width="0.5" stroke="black" fill="red"/>
  <circle cx="74.6877" cy="898.605" r="6.24753" stroke-width="0.5" stroke="red" fill="red"/>
   </g>
   <g id="cell51">
  <circle cx="1962.31" cy="249.339" r="8.68937" stroke-width="0.5" stroke="black" fill="red"/>
  <circle cx="1962.31" cy="249.339" r="5.25417" stroke-width="0.5" stroke="red" fill="red"/>
   </g>
   <g id="cell52">
  <circle cx="590.137" cy="992.293" r="9.98223" stroke-width="0.5" stroke="black" fill="red"/>
  <circle cx="590.137" cy="992.293" r="6.05517" stroke-width="0.5" stroke="red" fill="red"/>
   </g>
   <g id="cell53">
  <circle cx="1338.47" cy="613.191" r="10.3084" stroke-width="0.5" stroke="black" fill="red"/>
  <circle cx="1338.47" cy="613.191" r="6.23137" stroke-width="0.5" stroke="red" fill="red"/>
   </g>
   <g id="cell54">
  <circle cx="779.578" cy="1827.2" r="10.34" stroke-width="0.5" stroke="black" fill="red"/>
  <circle cx="779.578" cy="1827.2" r="6.24753" stroke-width="0.5" stroke="red" fill="red"/>
   </g>
   <g id="cell55">
  <circle cx="422.367" cy="1379.87" r="10.1996" stroke-width="0.5" stroke="black" fill="red"/>
  <circle cx="422.367" cy="1379.87" r="6.17434" stroke-width="0.5" stroke="red" fill="red"/>
   </g>
   <g id="cell56">
  <circle cx="1155.23" cy="1710.5" r="8.41271" stroke-width="0.5" stroke="black" fill="red"/>
  <circle cx="1155.23" cy="1710.5" r="5.05167" stroke-width="0.5" stroke="red" fill="red"/>
   </g>
   <g id="cell57">
  <circle cx="1019.33" cy="1040.82" r="8.41271" stroke-width="0.5" stroke="black" fill="red"/>
  <circle cx="1019.33" cy="1040.82" r="5.05167" stroke-width="0.5" stroke="red" fill="red"/>
   </g>
   <g id="cell58">
  <circle cx="169.692" cy="1808.48" r="10.1758" stroke-width="0.5" stroke="black" fill="red"/>
  <circle cx="169.692" cy="1808.48" r="6.16159" stroke-width="0.5" stroke="red" fill="red"/>
   </g>
   <g id="cell59">
  <circle cx="171.722" cy="1844.99" r="2.28103" stroke-width="0.5" stroke="black" fill="red"/>
  <circle cx="171.722" cy="1844.99" r="2.16323" stroke-width="0.5" stroke="black" fill="black"/>
   </g>
   <g id="cell60">
  <circle cx="665.867" cy="48.7899" r="10.2911" stroke-width="0.5" stroke="black" fill="red"/>
  <circle cx="665.867" cy="48.7899" r="6.22246" stroke-width="0.5" stroke="red" fill="red"/>
   </g>
   <g id="cell61">
  <circle cx="1671.85" cy="296.612" r="9.90658" stroke-width="0.5" stroke="black" fill="red"/>
  <circle cx="1671.85" cy="296.612" r="6.01243" stroke-width="0.5" stroke="red" fill="red"/>
   </g>
   <g id="cell62">
  <circle cx="1433.88" cy="1673.74" r="9.30826" stroke-width="0.5" stroke="black" fill="red"/>
  <circle cx="1433.88" cy="1673.74" r="5.65742" stroke-width="0.5" stroke="red" fill="red"/>
   </g>
   <g id="cell63">
  <circle cx="523.107" cy="345.537" r="8.41271" stroke-width="0.5" stroke="black" fill="red"/>
  <circle cx="523.107" cy="345.537" r="5.05167" stroke-width="0.5" stroke="red" fill="red"/>
   </g>
   <g id="cell64">
  <circle cx="1162.37" cy="1112.53" r="9.34292" stroke-width="0.5" stroke="black" fill="red"/>
  <circle cx="1162.37" cy="1112.53" r="5.67875" stroke-width="0.5" stroke="red" fill="red"/>
   </g>
   <g id="cell65">
  <circle cx="370.612" cy="1633.1" r="10.1996" stroke-width="0.5" stroke="black" fill="red"/>
  <circle cx="370.612" cy="1633.1" r="6.17434" stroke-width="0.5" stroke="red" fill="red"/>
   </g>
   <g id="cell66">
  <circle cx="25.2397" cy="305.762" r="9.90658" stroke-width="0.5" stroke="black" fill="red"/>
  <circle cx="25.2397" cy="305.762" r="6.01243" stroke-width="0.5" stroke="red" fill="red"/>
   </g>
   <g id="cell67">
  <circle cx="1099.31" cy="553.057" r="9.70201" stroke-width="0.5" stroke="black" fill="red"/>
  <circle cx="1099.31" cy="553.057" r="5.89426" stroke-width="0.5" stroke="red" fill="red"/>
   </g>
   <g id="cell68">
  <circle cx="1460.16" cy="595.839" r="10.1879" stroke-width="0.5" stroke="black" fill="red"/>
  <circle cx="1460.16" cy="595.839" r="6.16807" stroke-width="0.5" stroke="red" fill="red"/>
   </g>
   <g id="cell69">
  <circle cx="888.828" cy="531.938" r="8.41271" stroke-width="0.5" stroke="black" fill="red"/>
  <circle cx="888.828" cy="531.938" r="5.05167" stroke-width="0.5" stroke="red" fill="red"/>
   </g>
   <g id="cell70">
  <circle cx="1176.77" cy="807.451" r="10.0806" stroke-width="0.5" stroke="black" fill="red"/>
  <circle cx="1176.77" cy="807.451" r="6.10985" stroke-width="0.5" stroke="red" fill="red"/>
   </g>
   <g id="cell71">
  <circle cx="1769.93" cy="1120.65" r="9.96412" stroke-width="0.5" stroke="black" fill="red"/>
  <circle cx="1769.93" cy="1120.65" r="6.04499" stroke-width="0.5" stroke="red" fill="red"/>
   </g>
   <g id="cell72">
  <circle cx="443.463" cy="1813.5" r="8.96831" stroke-width="0.5" stroke="black" fill="red"/>
  <circle cx="443.463" cy="1813.5" r="5.44228" stroke-width="0.5" stroke="red" fill="red"/>
   </g>
   <g id="cell73">
  <circle cx="1407.98" cy="891.359" r="10.2328" stroke-width="0.5" stroke="black" fill="red"/>
  <circle cx="1407.98" cy="891.359" r="6.19197" stroke-width="0.5" stroke="red" fill="red"/>
   </g>
   <g id="cell74">
  <circle cx="1692.28" cy="1933.53" r="10.2221" stroke-width="0.5" stroke="black" fill="red"/>
  <circle cx="1692.28" cy="1933.53" r="6.18628" stroke-width="0.5" stroke="red" fill="red"/>
   </g>
   <g id="cell75">
  <circle cx="204.009" cy="599.671" r="8.41271" stroke-width="0.5" stroke="black" fill="red"/>
  <circle cx="204.009" cy="599.671" r="5.05167" stroke-width="0.5" stroke="red" fill="red"/>
   </g>
   <g id="cell76">
  <circle cx="1604.46" cy="834.442" r="9.70201" stroke-width="0.5" stroke="black" fill="red"/>
  <circle cx="1604.46" cy="834.442" r="5.89426" stroke-width="0.5" stroke="red" fill="red"/>
   </g>
   <g id="cell77">
  <circle cx="1378.51" cy="1757.74" r="9.41008" stroke-width="0.5" stroke="black" fill="red"/>
  <circle cx="1378.51" cy="1757.74" r="5.71981" stroke-width="0.5" stroke="red" fill="red"/>
   </g>
   <g id="cell78">
  <circle cx="1217.82" cy="639.363" r="9.41008" stroke-width="0.5" stroke="black" fill="red"/>
  <circle cx="1217.82" cy="639.363" r="5.71981" stroke-width="0.5" stroke="red" fill="red"/>
   </g>
   <g id="cell79">
  <circle cx="1925.94" cy="1384.06" r="8.41271" stroke-width="0.5" stroke="black" fill="red"/>
  <circle cx="1925.94" cy="1384.06" r="5.05167" stroke-width="0.5" stroke="red" fill="red"/>
   </g>
   <g id="cell80">
  <circle cx="1420.49" cy="1273.1" r="9.96412" stroke-width="0.5" stroke="black" fill="red"/>
  <circle cx="1420.49" cy="1273.1" r="6.04499" stroke-width="0.5" stroke="red" fill="red"/>
   </g>
   <g id="cell81">
  <circle cx="1073.97" cy="1890.12" r="2.36011" stroke-width="0.5" stroke="black" fill="red"/>
  <circle cx="1073.97" cy="1890.12" r="2.20319" stroke-width="0.5" stroke="black" fill="black"/>
   </g>
   <g id="cell82">
  <circle cx="1252.83" cy="780.171" r="10.0169" stroke-width="0.5" stroke="black" fill="red"/>
  <circle cx="1252.83" cy="780.171" r="6.07458" stroke-width="0.5" stroke="red" fill="red"/>
   </g>
   <g id="cell83">
  <circle cx="1260.31" cy="1237.66" r="9.2729" stroke-width="0.5" stroke="black" fill="red"/>
  <circle cx="1260.31" cy="1237.66" r="5.63555" stroke-width="0.5" stroke="red" fill="red"/>
   </g>
   <g id="cell84">
  <circle cx="31.1164" cy="954.024" r="10.2821" stroke-width="0.5" stroke="black" fill="red"/>
  <circle cx="31.1164" cy="954.024" r="6.21778" stroke-width="0.5" stroke="red" fill="red"/>
   </g>
   <g id="cell85">
  <circle cx="1424.58" cy="1294.66" r="8.61424" stroke-width="0.5" stroke="black" fill="red"/>
  <circle cx="1424.58" cy="1294.66" r="5.20061" stroke-width="0.5" stroke="red" fill="red"/>
   </g>
   <g id="cell86">
  <circle cx="594.695" cy="795.177" r="8.41271" stroke-width="0.5" stroke="black" fill="red"/>
  <circle cx="594.695" cy="795.177" r="5.05167" stroke-width="0.5" stroke="red" fill="red"/>
   </g>
   <g id="cell87">
  <circle cx="1483.09" cy="882.174" r="9.90658" stroke-width="0.5" stroke="black" fill="red"/>
  <circle cx="1483.09" cy="882.174" r="6.01243" stroke-width="0.5" stroke="red" fill="red"/>
   </g>
   <g id="cell88">
  <circle cx="287.818" cy="192.162" r="9.96412" stroke-width="0.5" stroke="black" fill="red"/>
  <circle cx="287.818" cy="192.162" r="6.04499" stroke-width="0.5" stroke="red" fill="red"/>
   </g>
   <g id="cell89">
  <circle cx="183.149" cy="1161.39" r="8.41271" stroke-width="0.5" stroke="black" fill="red"/>
  <circle cx="183.149" cy="1161.39" r="5.05167" stroke-width="0.5" stroke="red" fill="red"/>
   </g>
   <g id="cell90">
  <circle cx="1179.23" cy="1104.51" r="8.41271" stroke-width="0.5" stroke="black" fill="red"/>
  <circle cx="1179.23" cy="1104.51" r="5.05167" stroke-width="0.5" stroke="red" fill="red"/>
   </g>
   <g id="cell91">
  <circle cx="41.792" cy="1290.34" r="8.41271" stroke-width="0.5" stroke="black" fill="red"/>
  <circle cx="41.792" cy="1290.34" r="5.05167" stroke-width="0.5" stroke="red" fill="red"/>
   </g>
   <g id="cell92">
  <circle cx="1257.76" cy="647.841" r="10.34" stroke-width="0.5" stroke="black" fill="red"/>
  <circle cx="1257.76" cy="647.841" r="6.24753" stroke-width="0.5" stroke="red" fill="red"/>
   </g>
   <g id="cell93">
  <circle cx="445.114" cy="1794.64" r="9.53557" stroke-width="0.5" stroke="black" fill="red"/>
  <circle cx="445.114" cy="1794.64" r="5.79561" stroke-width="0.5" stroke="red" fill="red"/>
   </g>
   <g id="cell94">
  <circle cx="757.735" cy="208.381" r="10.1098" stroke-width="0.5" stroke="black" fill="red"/>
  <circle cx="757.735" cy="208.381" r="6.12585" stroke-width="0.5" stroke="red" fill="red"/>
   </g>
   <g id="cell95">
  <circle cx="1987.61" cy="1754.19" r="10.0497" stroke-width="0.5" stroke="black" fill="red"/>
  <circle cx="1987.61" cy="1754.19" r="6.09278" stroke-width="0.5" stroke="red" fill="red"/>
   </g>
   <g id="cell96">
  <circle cx="1620.26" cy="1099.18" r="10.1758" stroke-width="0.5" stroke="black" fill="red"/>
  <circle cx="1620.26" cy="1099.18" r="6.16159" stroke-width="0.5" stroke="red" fill="red"/>
   </g>
   <g id="cell97">
  <circle cx="871.47" cy="202.233" r="10.2999" stroke-width="0.5" stroke="black" fill="red"/>
  <circle cx="871.47" cy="202.233" r="6.22699" stroke-width="0.5" stroke="red" fill="red"/>
   </g>
   <g id="cell98">
  <circle cx="1815.35" cy="688.17" r="10.3247" stroke-width="0.5" stroke="black" fill="red"/>
  <circle cx="1815.35" cy="688.17" r="6.23971" stroke-width="0.5" stroke="red" fill="red"/>
   </g>
   <g id="cell99">
  <circle cx="917.072" cy="1970.76" r="10.3325" stroke-width="0.5" stroke="black" fill="red"/>
  <circle cx="917.072" cy="1970.76" r="6.24369" stroke-width="0.5" stroke="red" fill="red"/>
   </g>
  </g>
 </g>
  <rect x="1750" y="2070" width="200" height="20" stroke-width="4" stroke="rgb(255,255,255)" fill="rgb(0,0,0)"/>
  <text x="1762.5" y="2057.5"
   font-family="Arial" font-size="50" fill="black" >
   200 &#956;m
  </text>
  <text x="50" y="2090"
   font-family="Arial" font-size="37.5" fill="black" >
   0 days, 0 hours, 0 minutes, and 12.1935 seconds
  </text>
  <rect x="0" y="140" width="2000" height="2000" stroke-width="4" stroke="rgb(0,0,0)" fill="none"/>
</svg>
