<?xml version="1.0" encoding="UTF-8" standalone="no"?>
<!-- Created with PhysiCell (http://PhysiCell.MathCancer.org/) -->
<svg 
 xmlns:dc="http://purl.org/dc/elements/1.1/" 
 xmlns:cc="http://creativecommons.org/ns#" 
 xmlns:rdf="http://www.w3.org/1999/02/22-rdf-syntax-ns#" 
 xmlns:svg="http://www.w3.org/2000/svg" 
 xmlns="http://www.w3.org/2000/svg" 
 version="1.1" 
 width="2000" 
 height="2140" 
 id="svg2">
  <rect x="0" y="0" width="2000" height="2140" stroke-width="4" stroke="white" fill="white"/>
  <text x="25" y="60"
   font-family="Arial" font-size="50" fill="black" >
   Current time: 2 days, 8 hours, and 0.00 minutes, z = 0.00 &#956;m
  </text>
  <text x="25" y="115"
   font-family="Arial" font-size="47.5" fill="black" >
   58 agents
  </text>
 <g id="tissue" 
    transform="translate(0,2140) scale(1,-1)">
  <g id="ECM">
  </g>
  <g id="cells">
   <g id="cell0">
  <circle cx="1129.25" cy="1182.9" r="9.69792" stroke-width="0.5" stroke="black" fill="grey"/>
  <circle cx="1129.25" cy="1182.9" r="5.89298" stroke-width="0.5" stroke="grey" fill="grey"/>
   </g>
   <g id="cell1">
  <circle cx="1668.5" cy="1227.93" r="8.3763" stroke-width="0.5" stroke="black" fill="grey"/>
  <circle cx="1668.5" cy="1227.93" r="5.03838" stroke-width="0.5" stroke="grey" fill="grey"/>
   </g>
   <g id="cell2">
  <circle cx="1150" cy="1739.2" r="9.22647" stroke-width="0.5" stroke="black" fill="grey"/>
  <circle cx="1150" cy="1739.2" r="5.60957" stroke-width="0.5" stroke="grey" fill="grey"/>
   </g>
   <g id="cell3">
  <circle cx="1262.91" cy="1316.89" r="9.47025" stroke-width="0.5" stroke="black" fill="grey"/>
  <circle cx="1262.91" cy="1316.89" r="5.75747" stroke-width="0.5" stroke="grey" fill="grey"/>
   </g>
   <g id="cell4">
  <circle cx="845.762" cy="551.405" r="9.66385" stroke-width="0.5" stroke="black" fill="grey"/>
  <circle cx="845.762" cy="551.405" r="5.87476" stroke-width="0.5" stroke="grey" fill="grey"/>
   </g>
   <g id="cell5">
  <circle cx="96.452" cy="1965.15" r="9.7168" stroke-width="0.5" stroke="black" fill="red"/>
  <circle cx="96.452" cy="1965.15" r="5.90547" stroke-width="0.5" stroke="red" fill="red"/>
   </g>
   <g id="cell6">
  <circle cx="813.111" cy="850.658" r="8.68905" stroke-width="0.5" stroke="black" fill="red"/>
  <circle cx="813.111" cy="850.658" r="5.25409" stroke-width="0.5" stroke="red" fill="red"/>
   </g>
   <g id="cell19">
  <circle cx="1719.07" cy="1301.82" r="8.53954" stroke-width="0.5" stroke="black" fill="grey"/>
  <circle cx="1719.07" cy="1301.82" r="5.14798" stroke-width="0.5" stroke="grey" fill="grey"/>
   </g>
   <g id="cell18">
  <circle cx="1635.46" cy="322.469" r="10.525" stroke-width="0.5" stroke="black" fill="red"/>
  <circle cx="1635.46" cy="322.469" r="6.33597" stroke-width="0.5" stroke="red" fill="red"/>
   </g>
   <g id="cell9">
  <circle cx="1664.55" cy="178.832" r="9.91726" stroke-width="0.5" stroke="black" fill="red"/>
  <circle cx="1664.55" cy="178.832" r="6.0206" stroke-width="0.5" stroke="red" fill="red"/>
   </g>
   <g id="cell11">
  <circle cx="1607.43" cy="1094.49" r="9.4732" stroke-width="0.5" stroke="black" fill="red"/>
  <circle cx="1607.43" cy="1094.49" r="5.75844" stroke-width="0.5" stroke="red" fill="red"/>
   </g>
   <g id="cell20">
  <circle cx="817.666" cy="1006.42" r="10.4041" stroke-width="0.5" stroke="black" fill="red"/>
  <circle cx="817.666" cy="1006.42" r="6.27964" stroke-width="0.5" stroke="red" fill="red"/>
   </g>
   <g id="cell13">
  <circle cx="878.877" cy="615.26" r="8.39193" stroke-width="0.5" stroke="black" fill="grey"/>
  <circle cx="878.877" cy="615.26" r="5.04458" stroke-width="0.5" stroke="grey" fill="grey"/>
   </g>
   <g id="cell14">
  <circle cx="1206.04" cy="1296.33" r="8.39653" stroke-width="0.5" stroke="black" fill="grey"/>
  <circle cx="1206.04" cy="1296.33" r="5.04631" stroke-width="0.5" stroke="grey" fill="grey"/>
   </g>
   <g id="cell15">
  <circle cx="1160.35" cy="1168.97" r="8.52931" stroke-width="0.5" stroke="black" fill="grey"/>
  <circle cx="1160.35" cy="1168.97" r="5.14436" stroke-width="0.5" stroke="grey" fill="grey"/>
   </g>
   <g id="cell16">
  <circle cx="1136.21" cy="1683.07" r="9.33375" stroke-width="0.5" stroke="black" fill="grey"/>
  <circle cx="1136.21" cy="1683.07" r="5.67564" stroke-width="0.5" stroke="grey" fill="grey"/>
   </g>
   <g id="cell17">
  <circle cx="1076.24" cy="659.948" r="10.3872" stroke-width="0.5" stroke="black" fill="red"/>
  <circle cx="1076.24" cy="659.948" r="6.27119" stroke-width="0.5" stroke="red" fill="red"/>
   </g>
   <g id="cell21">
  <circle cx="1580.48" cy="1039.49" r="8.40183" stroke-width="0.5" stroke="black" fill="red"/>
  <circle cx="1580.48" cy="1039.49" r="5.04822" stroke-width="0.5" stroke="red" fill="red"/>
   </g>
   <g id="cell22">
  <circle cx="1163.61" cy="1715.05" r="8.36175" stroke-width="0.5" stroke="black" fill="grey"/>
  <circle cx="1163.61" cy="1715.05" r="5.03227" stroke-width="0.5" stroke="grey" fill="grey"/>
   </g>
   <g id="cell23">
  <circle cx="1275.1" cy="1280.65" r="10.4725" stroke-width="0.5" stroke="black" fill="grey"/>
  <circle cx="1275.1" cy="1280.65" r="6.31223" stroke-width="0.5" stroke="grey" fill="grey"/>
   </g>
   <g id="cell24">
  <circle cx="1132.22" cy="1214.6" r="10.0623" stroke-width="0.5" stroke="black" fill="grey"/>
  <circle cx="1132.22" cy="1214.6" r="6.10051" stroke-width="0.5" stroke="grey" fill="grey"/>
   </g>
   <g id="cell25">
  <circle cx="1137.27" cy="701.613" r="10.1373" stroke-width="0.5" stroke="black" fill="red"/>
  <circle cx="1137.27" cy="701.613" r="6.14083" stroke-width="0.5" stroke="red" fill="red"/>
   </g>
   <g id="cell26">
  <circle cx="1694.19" cy="1186.55" r="9.99415" stroke-width="0.5" stroke="black" fill="grey"/>
  <circle cx="1694.19" cy="1186.55" r="6.06321" stroke-width="0.5" stroke="grey" fill="grey"/>
   </g>
   <g id="cell27">
  <circle cx="904.071" cy="552.76" r="10.3681" stroke-width="0.5" stroke="black" fill="grey"/>
  <circle cx="904.071" cy="552.76" r="6.2617" stroke-width="0.5" stroke="grey" fill="grey"/>
   </g>
   <g id="cell28">
  <circle cx="60.1221" cy="1977.3" r="8.38447" stroke-width="0.5" stroke="black" fill="red"/>
  <circle cx="60.1221" cy="1977.3" r="5.04166" stroke-width="0.5" stroke="red" fill="red"/>
   </g>
   <g id="cell29">
  <circle cx="1081.46" cy="1077.27" r="10.1584" stroke-width="0.5" stroke="black" fill="grey"/>
  <circle cx="1081.46" cy="1077.27" r="6.15336" stroke-width="0.5" stroke="grey" fill="grey"/>
   </g>
   <g id="cell30">
  <circle cx="913.612" cy="623.688" r="8.90709" stroke-width="0.5" stroke="black" fill="grey"/>
  <circle cx="913.612" cy="623.688" r="5.40836" stroke-width="0.5" stroke="grey" fill="grey"/>
   </g>
   <g id="cell31">
  <circle cx="1228.37" cy="1305.59" r="8.39412" stroke-width="0.5" stroke="black" fill="grey"/>
  <circle cx="1228.37" cy="1305.59" r="5.04541" stroke-width="0.5" stroke="grey" fill="grey"/>
   </g>
   <g id="cell32">
  <circle cx="1634.65" cy="225.515" r="8.3773" stroke-width="0.5" stroke="black" fill="red"/>
  <circle cx="1634.65" cy="225.515" r="5.03879" stroke-width="0.5" stroke="red" fill="red"/>
   </g>
   <g id="cell33">
  <circle cx="1683.51" cy="1156.49" r="10.4982" stroke-width="0.5" stroke="black" fill="grey"/>
  <circle cx="1683.51" cy="1156.49" r="6.32403" stroke-width="0.5" stroke="grey" fill="grey"/>
   </g>
   <g id="cell34">
  <circle cx="1140.12" cy="1656.5" r="10.5273" stroke-width="0.5" stroke="black" fill="grey"/>
  <circle cx="1140.12" cy="1656.5" r="6.33692" stroke-width="0.5" stroke="grey" fill="grey"/>
   </g>
   <g id="cell35">
  <circle cx="738.566" cy="877.351" r="8.37624" stroke-width="0.5" stroke="black" fill="red"/>
  <circle cx="738.566" cy="877.351" r="5.03836" stroke-width="0.5" stroke="red" fill="red"/>
   </g>
   <g id="cell36">
  <circle cx="1725.26" cy="318.701" r="8.65505" stroke-width="0.5" stroke="black" fill="red"/>
  <circle cx="1725.26" cy="318.701" r="5.24131" stroke-width="0.5" stroke="red" fill="red"/>
   </g>
   <g id="cell37">
  <circle cx="817.499" cy="897.371" r="10.4645" stroke-width="0.5" stroke="black" fill="red"/>
  <circle cx="817.499" cy="897.371" r="6.30859" stroke-width="0.5" stroke="red" fill="red"/>
   </g>
   <g id="cell38">
  <circle cx="1593.19" cy="1053.53" r="10.4249" stroke-width="0.5" stroke="black" fill="red"/>
  <circle cx="1593.19" cy="1053.53" r="6.28982" stroke-width="0.5" stroke="red" fill="red"/>
   </g>
   <g id="cell39">
  <circle cx="1159.9" cy="1191.8" r="8.40823" stroke-width="0.5" stroke="black" fill="grey"/>
  <circle cx="1159.9" cy="1191.8" r="5.05038" stroke-width="0.5" stroke="grey" fill="grey"/>
   </g>
   <g id="cell40">
  <circle cx="1708.43" cy="1279.62" r="10.3212" stroke-width="0.5" stroke="black" fill="grey"/>
  <circle cx="1708.43" cy="1279.62" r="6.23869" stroke-width="0.5" stroke="grey" fill="grey"/>
   </g>
   <g id="cell41">
  <circle cx="1249.11" cy="1384.1" r="8.40757" stroke-width="0.5" stroke="black" fill="grey"/>
  <circle cx="1249.11" cy="1384.1" r="5.05017" stroke-width="0.5" stroke="grey" fill="grey"/>
   </g>
   <g id="cell42">
  <circle cx="1128.21" cy="1118.64" r="10.0297" stroke-width="0.5" stroke="black" fill="grey"/>
  <circle cx="1128.21" cy="1118.64" r="6.08265" stroke-width="0.5" stroke="grey" fill="grey"/>
   </g>
   <g id="cell43">
  <circle cx="1101.29" cy="1092.07" r="8.40548" stroke-width="0.5" stroke="black" fill="grey"/>
  <circle cx="1101.29" cy="1092.07" r="5.04949" stroke-width="0.5" stroke="grey" fill="grey"/>
   </g>
   <g id="cell44">
  <circle cx="1661.1" cy="1177.28" r="8.7604" stroke-width="0.5" stroke="black" fill="grey"/>
  <circle cx="1661.1" cy="1177.28" r="5.30617" stroke-width="0.5" stroke="grey" fill="grey"/>
   </g>
   <g id="cell45">
  <circle cx="1564.13" cy="1045.18" r="8.91864" stroke-width="0.5" stroke="black" fill="red"/>
  <circle cx="1564.13" cy="1045.18" r="5.41284" stroke-width="0.5" stroke="red" fill="red"/>
   </g>
   <g id="cell46">
  <circle cx="1185.81" cy="1705.78" r="8.79741" stroke-width="0.5" stroke="black" fill="grey"/>
  <circle cx="1185.81" cy="1705.78" r="5.33228" stroke-width="0.5" stroke="grey" fill="grey"/>
   </g>
   <g id="cell47">
  <circle cx="1630.44" cy="183.233" r="8.4001" stroke-width="0.5" stroke="black" fill="red"/>
  <circle cx="1630.44" cy="183.233" r="5.04762" stroke-width="0.5" stroke="red" fill="red"/>
   </g>
   <g id="cell48">
  <circle cx="1150.51" cy="1765.57" r="8.40019" stroke-width="0.5" stroke="black" fill="grey"/>
  <circle cx="1150.51" cy="1765.57" r="5.04764" stroke-width="0.5" stroke="grey" fill="grey"/>
   </g>
   <g id="cell49">
  <circle cx="65.0825" cy="1991.01" r="8.39867" stroke-width="0.5" stroke="black" fill="red"/>
  <circle cx="65.0825" cy="1991.01" r="5.04709" stroke-width="0.5" stroke="red" fill="red"/>
   </g>
   <g id="cell50">
  <circle cx="1126.17" cy="1151.57" r="8.39699" stroke-width="0.5" stroke="black" fill="grey"/>
  <circle cx="1126.17" cy="1151.57" r="5.04648" stroke-width="0.5" stroke="grey" fill="grey"/>
   </g>
   <g id="cell51">
  <circle cx="1163.73" cy="1303.38" r="9.66381" stroke-width="0.5" stroke="black" fill="grey"/>
  <circle cx="1163.73" cy="1303.38" r="5.87475" stroke-width="0.5" stroke="grey" fill="grey"/>
   </g>
   <g id="cell52">
  <circle cx="862.334" cy="578.68" r="8.49677" stroke-width="0.5" stroke="black" fill="grey"/>
  <circle cx="862.334" cy="578.68" r="5.12024" stroke-width="0.5" stroke="grey" fill="grey"/>
   </g>
   <g id="cell53">
  <circle cx="1182.37" cy="1278.51" r="8.79076" stroke-width="0.5" stroke="black" fill="grey"/>
  <circle cx="1182.37" cy="1278.51" r="5.32975" stroke-width="0.5" stroke="grey" fill="grey"/>
   </g>
   <g id="cell54">
  <circle cx="865.389" cy="562.933" r="8.39193" stroke-width="0.5" stroke="black" fill="grey"/>
  <circle cx="865.389" cy="562.933" r="5.04458" stroke-width="0.5" stroke="grey" fill="grey"/>
   </g>
   <g id="cell55">
  <circle cx="905.564" cy="601.586" r="9.32356" stroke-width="0.5" stroke="black" fill="grey"/>
  <circle cx="905.564" cy="601.586" r="5.67166" stroke-width="0.5" stroke="grey" fill="grey"/>
   </g>
   <g id="cell56">
  <circle cx="74.6121" cy="1956.22" r="8.38447" stroke-width="0.5" stroke="black" fill="red"/>
  <circle cx="74.6121" cy="1956.22" r="5.04166" stroke-width="0.5" stroke="red" fill="red"/>
   </g>
   <g id="cell57">
  <circle cx="1628.47" cy="249.075" r="8.3773" stroke-width="0.5" stroke="black" fill="red"/>
  <circle cx="1628.47" cy="249.075" r="5.03879" stroke-width="0.5" stroke="red" fill="red"/>
   </g>
   <g id="cell58">
  <circle cx="763.781" cy="864.418" r="8.37624" stroke-width="0.5" stroke="black" fill="red"/>
  <circle cx="763.781" cy="864.418" r="5.03836" stroke-width="0.5" stroke="red" fill="red"/>
   </g>
   <g id="cell59">
  <circle cx="1712.01" cy="303.406" r="8.37609" stroke-width="0.5" stroke="black" fill="red"/>
  <circle cx="1712.01" cy="303.406" r="5.03832" stroke-width="0.5" stroke="red" fill="red"/>
   </g>
   <g id="cell60">
  <circle cx="1695.11" cy="1204.86" r="8.3763" stroke-width="0.5" stroke="black" fill="grey"/>
  <circle cx="1695.11" cy="1204.86" r="5.03838" stroke-width="0.5" stroke="grey" fill="grey"/>
   </g>
   <g id="cell61">
  <circle cx="1166.4" cy="1734.49" r="8.36175" stroke-width="0.5" stroke="black" fill="grey"/>
  <circle cx="1166.4" cy="1734.49" r="5.03227" stroke-width="0.5" stroke="grey" fill="grey"/>
   </g>
  </g>
 </g>
  <rect x="1750" y="2070" width="200" height="20" stroke-width="4" stroke="rgb(255,255,255)" fill="rgb(0,0,0)"/>
  <text x="1762.5" y="2057.5"
   font-family="Arial" font-size="50" fill="black" >
   200 &#956;m
  </text>
  <text x="50" y="2090"
   font-family="Arial" font-size="37.5" fill="black" >
   0 days, 0 hours, 1 minutes, and 13.0225 seconds
  </text>
  <rect x="0" y="140" width="2000" height="2000" stroke-width="4" stroke="rgb(0,0,0)" fill="none"/>
</svg>
