<?xml version="1.0" encoding="UTF-8" standalone="no"?>
<!-- Created with PhysiCell (http://PhysiCell.MathCancer.org/) -->
<svg 
 xmlns:dc="http://purl.org/dc/elements/1.1/" 
 xmlns:cc="http://creativecommons.org/ns#" 
 xmlns:rdf="http://www.w3.org/1999/02/22-rdf-syntax-ns#" 
 xmlns:svg="http://www.w3.org/2000/svg" 
 xmlns="http://www.w3.org/2000/svg" 
 version="1.1" 
 width="2000" 
 height="2140" 
 id="svg2">
  <rect x="0" y="0" width="2000" height="2140" stroke-width="4" stroke="white" fill="white"/>
  <text x="25" y="60"
   font-family="Arial" font-size="50" fill="black" >
   Current time: 0 days, 11 hours, and 10.00 minutes, z = 0.00 &#956;m
  </text>
  <text x="25" y="115"
   font-family="Arial" font-size="47.5" fill="black" >
   100 agents
  </text>
 <g id="tissue" 
    transform="translate(0,2140) scale(1,-1)">
  <g id="ECM">
  </g>
  <g id="cells">
   <g id="cell0">
  <circle cx="1124.39" cy="1153.39" r="10.2534" stroke-width="0.5" stroke="black" fill="grey"/>
  <circle cx="1124.39" cy="1153.39" r="6.2028" stroke-width="0.5" stroke="grey" fill="grey"/>
   </g>
   <g id="cell1">
  <circle cx="1684.79" cy="1170.68" r="10.0806" stroke-width="0.5" stroke="black" fill="grey"/>
  <circle cx="1684.79" cy="1170.68" r="6.10985" stroke-width="0.5" stroke="grey" fill="grey"/>
   </g>
   <g id="cell2">
  <circle cx="1144.97" cy="1702.76" r="10.3682" stroke-width="0.5" stroke="black" fill="grey"/>
  <circle cx="1144.97" cy="1702.76" r="6.26172" stroke-width="0.5" stroke="grey" fill="grey"/>
   </g>
   <g id="cell3">
  <circle cx="1236.2" cy="1290.4" r="10.4726" stroke-width="0.5" stroke="black" fill="grey"/>
  <circle cx="1236.2" cy="1290.4" r="6.31223" stroke-width="0.5" stroke="grey" fill="grey"/>
   </g>
   <g id="cell4">
  <circle cx="850.279" cy="614.824" r="10.4048" stroke-width="0.5" stroke="black" fill="grey"/>
  <circle cx="850.279" cy="614.824" r="6.27981" stroke-width="0.5" stroke="grey" fill="grey"/>
   </g>
   <g id="cell5">
  <circle cx="96.744" cy="1957.57" r="9.34292" stroke-width="0.5" stroke="black" fill="grey"/>
  <circle cx="96.744" cy="1957.57" r="5.67875" stroke-width="0.5" stroke="grey" fill="grey"/>
   </g>
   <g id="cell6">
  <circle cx="787.737" cy="903.961" r="10.3084" stroke-width="0.5" stroke="black" fill="grey"/>
  <circle cx="787.737" cy="903.961" r="6.23137" stroke-width="0.5" stroke="grey" fill="grey"/>
   </g>
   <g id="cell7">
  <circle cx="1648.12" cy="1073.92" r="10.3991" stroke-width="0.5" stroke="black" fill="grey"/>
  <circle cx="1648.12" cy="1073.92" r="6.27703" stroke-width="0.5" stroke="grey" fill="grey"/>
   </g>
   <g id="cell8">
  <circle cx="1124.85" cy="796.881" r="10.3166" stroke-width="0.5" stroke="black" fill="grey"/>
  <circle cx="1124.85" cy="796.881" r="6.23561" stroke-width="0.5" stroke="grey" fill="grey"/>
   </g>
   <g id="cell9">
  <circle cx="1722.81" cy="135.866" r="9.90658" stroke-width="0.5" stroke="black" fill="grey"/>
  <circle cx="1722.81" cy="135.866" r="6.01243" stroke-width="0.5" stroke="grey" fill="grey"/>
   </g>
   <g id="cell10">
  <circle cx="177.77" cy="1274.56" r="10.4613" stroke-width="0.5" stroke="black" fill="grey"/>
  <circle cx="177.77" cy="1274.56" r="6.30695" stroke-width="0.5" stroke="grey" fill="grey"/>
   </g>
   <g id="cell11">
  <circle cx="701.503" cy="1695.08" r="10.2632" stroke-width="0.5" stroke="black" fill="grey"/>
  <circle cx="701.503" cy="1695.08" r="6.20796" stroke-width="0.5" stroke="grey" fill="grey"/>
   </g>
   <g id="cell12">
  <circle cx="1541.67" cy="320.543" r="10.3747" stroke-width="0.5" stroke="black" fill="grey"/>
  <circle cx="1541.67" cy="320.543" r="6.26498" stroke-width="0.5" stroke="grey" fill="grey"/>
   </g>
   <g id="cell13">
  <circle cx="1758.21" cy="1952.18" r="9.67603" stroke-width="0.5" stroke="black" fill="grey"/>
  <circle cx="1758.21" cy="1952.18" r="5.87901" stroke-width="0.5" stroke="grey" fill="grey"/>
   </g>
   <g id="cell14">
  <circle cx="1597.6" cy="1567.73" r="10.2328" stroke-width="0.5" stroke="black" fill="grey"/>
  <circle cx="1597.6" cy="1567.73" r="6.19197" stroke-width="0.5" stroke="grey" fill="grey"/>
   </g>
   <g id="cell15">
  <circle cx="1044.66" cy="1588.86" r="10.4573" stroke-width="0.5" stroke="black" fill="grey"/>
  <circle cx="1044.66" cy="1588.86" r="6.30507" stroke-width="0.5" stroke="grey" fill="grey"/>
   </g>
   <g id="cell16">
  <circle cx="228.774" cy="1457.71" r="10.4573" stroke-width="0.5" stroke="black" fill="grey"/>
  <circle cx="228.774" cy="1457.71" r="6.30507" stroke-width="0.5" stroke="grey" fill="grey"/>
   </g>
   <g id="cell17">
  <circle cx="1157.55" cy="294.893" r="10.4573" stroke-width="0.5" stroke="black" fill="grey"/>
  <circle cx="1157.55" cy="294.893" r="6.30507" stroke-width="0.5" stroke="grey" fill="grey"/>
   </g>
   <g id="cell18">
  <circle cx="1869.15" cy="1559.43" r="8.41271" stroke-width="0.5" stroke="black" fill="grey"/>
  <circle cx="1869.15" cy="1559.43" r="5.05167" stroke-width="0.5" stroke="grey" fill="grey"/>
   </g>
   <g id="cell19">
  <circle cx="195.55" cy="841.938" r="8.41271" stroke-width="0.5" stroke="black" fill="grey"/>
  <circle cx="195.55" cy="841.938" r="5.05167" stroke-width="0.5" stroke="grey" fill="grey"/>
   </g>
   <g id="cell20">
  <circle cx="551.171" cy="362.978" r="10.4258" stroke-width="0.5" stroke="black" fill="grey"/>
  <circle cx="551.171" cy="362.978" r="6.29005" stroke-width="0.5" stroke="grey" fill="grey"/>
   </g>
   <g id="cell21">
  <circle cx="1460.12" cy="916.206" r="10.3084" stroke-width="0.5" stroke="black" fill="grey"/>
  <circle cx="1460.12" cy="916.206" r="6.23137" stroke-width="0.5" stroke="grey" fill="grey"/>
   </g>
   <g id="cell22">
  <circle cx="1168.12" cy="264.648" r="10.4489" stroke-width="0.5" stroke="black" fill="grey"/>
  <circle cx="1168.12" cy="264.648" r="6.30112" stroke-width="0.5" stroke="grey" fill="grey"/>
   </g>
   <g id="cell23">
  <circle cx="643.037" cy="1220.96" r="10.4307" stroke-width="0.5" stroke="black" fill="grey"/>
  <circle cx="643.037" cy="1220.96" r="6.29241" stroke-width="0.5" stroke="grey" fill="grey"/>
   </g>
   <g id="cell24">
  <circle cx="1233.49" cy="441.016" r="1.34721" stroke-width="0.5" stroke="black" fill="grey"/>
  <circle cx="1233.49" cy="441.016" r="1.33735" stroke-width="0.5" stroke="black" fill="black"/>
   </g>
   <g id="cell25">
  <circle cx="747.411" cy="1920.4" r="10.4355" stroke-width="0.5" stroke="black" fill="grey"/>
  <circle cx="747.411" cy="1920.4" r="6.2947" stroke-width="0.5" stroke="grey" fill="grey"/>
   </g>
   <g id="cell26">
  <circle cx="1381" cy="906.423" r="9.4743" stroke-width="0.5" stroke="black" fill="grey"/>
  <circle cx="1381" cy="906.423" r="5.75875" stroke-width="0.5" stroke="grey" fill="grey"/>
   </g>
   <g id="cell27">
  <circle cx="1229.02" cy="848.773" r="10.3991" stroke-width="0.5" stroke="black" fill="grey"/>
  <circle cx="1229.02" cy="848.773" r="6.27703" stroke-width="0.5" stroke="grey" fill="grey"/>
   </g>
   <g id="cell28">
  <circle cx="1392.37" cy="200.206" r="10.4689" stroke-width="0.5" stroke="black" fill="grey"/>
  <circle cx="1392.37" cy="200.206" r="6.31053" stroke-width="0.5" stroke="grey" fill="grey"/>
   </g>
   <g id="cell29">
  <circle cx="1917.96" cy="1330.36" r="10.4689" stroke-width="0.5" stroke="black" fill="grey"/>
  <circle cx="1917.96" cy="1330.36" r="6.31053" stroke-width="0.5" stroke="grey" fill="grey"/>
   </g>
   <g id="cell30">
  <circle cx="1347.97" cy="369.613" r="9.75192" stroke-width="0.5" stroke="black" fill="grey"/>
  <circle cx="1347.97" cy="369.613" r="5.92342" stroke-width="0.5" stroke="grey" fill="grey"/>
   </g>
   <g id="cell31">
  <circle cx="727.632" cy="286.155" r="10.2221" stroke-width="0.5" stroke="black" fill="grey"/>
  <circle cx="727.632" cy="286.155" r="6.18628" stroke-width="0.5" stroke="grey" fill="grey"/>
   </g>
   <g id="cell32">
  <circle cx="695.479" cy="1199.47" r="10.4894" stroke-width="0.5" stroke="black" fill="grey"/>
  <circle cx="695.479" cy="1199.47" r="6.31998" stroke-width="0.5" stroke="grey" fill="grey"/>
   </g>
   <g id="cell33">
  <circle cx="650.592" cy="1150.43" r="9.90658" stroke-width="0.5" stroke="black" fill="grey"/>
  <circle cx="650.592" cy="1150.43" r="6.01243" stroke-width="0.5" stroke="grey" fill="grey"/>
   </g>
   <g id="cell34">
  <circle cx="851.743" cy="1305.97" r="10.2728" stroke-width="0.5" stroke="black" fill="grey"/>
  <circle cx="851.743" cy="1305.97" r="6.21295" stroke-width="0.5" stroke="grey" fill="grey"/>
   </g>
   <g id="cell35">
  <circle cx="1917.4" cy="188.107" r="9.96412" stroke-width="0.5" stroke="black" fill="grey"/>
  <circle cx="1917.4" cy="188.107" r="6.04499" stroke-width="0.5" stroke="grey" fill="grey"/>
   </g>
   <g id="cell36">
  <circle cx="410.067" cy="1263.69" r="10.4307" stroke-width="0.5" stroke="black" fill="grey"/>
  <circle cx="410.067" cy="1263.69" r="6.29241" stroke-width="0.5" stroke="grey" fill="grey"/>
   </g>
   <g id="cell37">
  <circle cx="1982.27" cy="1364.5" r="10.3545" stroke-width="0.5" stroke="black" fill="grey"/>
  <circle cx="1982.27" cy="1364.5" r="6.25485" stroke-width="0.5" stroke="grey" fill="grey"/>
   </g>
   <g id="cell38">
  <circle cx="510.805" cy="847.899" r="8.41271" stroke-width="0.5" stroke="black" fill="grey"/>
  <circle cx="510.805" cy="847.899" r="5.05167" stroke-width="0.5" stroke="grey" fill="grey"/>
   </g>
   <g id="cell39">
  <circle cx="911.016" cy="487.099" r="10.3747" stroke-width="0.5" stroke="black" fill="grey"/>
  <circle cx="911.016" cy="487.099" r="6.26498" stroke-width="0.5" stroke="grey" fill="grey"/>
   </g>
   <g id="cell40">
  <circle cx="329.574" cy="657.982" r="10.3682" stroke-width="0.5" stroke="black" fill="grey"/>
  <circle cx="329.574" cy="657.982" r="6.26172" stroke-width="0.5" stroke="grey" fill="grey"/>
   </g>
   <g id="cell41">
  <circle cx="1344.8" cy="1307.27" r="10.1758" stroke-width="0.5" stroke="black" fill="grey"/>
  <circle cx="1344.8" cy="1307.27" r="6.16159" stroke-width="0.5" stroke="grey" fill="grey"/>
   </g>
   <g id="cell42">
  <circle cx="237.644" cy="1565.31" r="8.41271" stroke-width="0.5" stroke="black" fill="grey"/>
  <circle cx="237.644" cy="1565.31" r="5.05167" stroke-width="0.5" stroke="grey" fill="grey"/>
   </g>
   <g id="cell43">
  <circle cx="1872.91" cy="728.35" r="8.41271" stroke-width="0.5" stroke="black" fill="grey"/>
  <circle cx="1872.91" cy="728.35" r="5.05167" stroke-width="0.5" stroke="grey" fill="grey"/>
   </g>
   <g id="cell44">
  <circle cx="1652.82" cy="53.7669" r="10.3325" stroke-width="0.5" stroke="black" fill="grey"/>
  <circle cx="1652.82" cy="53.7669" r="6.24369" stroke-width="0.5" stroke="grey" fill="grey"/>
   </g>
   <g id="cell45">
  <circle cx="1202.77" cy="1643.74" r="8.51252" stroke-width="0.5" stroke="black" fill="grey"/>
  <circle cx="1202.77" cy="1643.74" r="5.12552" stroke-width="0.5" stroke="grey" fill="grey"/>
   </g>
   <g id="cell46">
  <circle cx="173.693" cy="1875.76" r="9.90658" stroke-width="0.5" stroke="black" fill="grey"/>
  <circle cx="173.693" cy="1875.76" r="6.01243" stroke-width="0.5" stroke="grey" fill="grey"/>
   </g>
   <g id="cell47">
  <circle cx="1773.83" cy="966.02" r="10.4355" stroke-width="0.5" stroke="black" fill="grey"/>
  <circle cx="1773.83" cy="966.02" r="6.2947" stroke-width="0.5" stroke="grey" fill="grey"/>
   </g>
   <g id="cell48">
  <circle cx="1976.96" cy="104.843" r="10.4489" stroke-width="0.5" stroke="black" fill="grey"/>
  <circle cx="1976.96" cy="104.843" r="6.30112" stroke-width="0.5" stroke="grey" fill="grey"/>
   </g>
   <g id="cell49">
  <circle cx="842.951" cy="1482.89" r="10.4796" stroke-width="0.5" stroke="black" fill="grey"/>
  <circle cx="842.951" cy="1482.89" r="6.31548" stroke-width="0.5" stroke="grey" fill="grey"/>
   </g>
   <g id="cell50">
  <circle cx="80.6185" cy="897.764" r="10.4894" stroke-width="0.5" stroke="black" fill="red"/>
  <circle cx="80.6185" cy="897.764" r="6.31998" stroke-width="0.5" stroke="red" fill="red"/>
   </g>
   <g id="cell51">
  <circle cx="1965.87" cy="258.158" r="9.7273" stroke-width="0.5" stroke="black" fill="red"/>
  <circle cx="1965.87" cy="258.158" r="5.90906" stroke-width="0.5" stroke="red" fill="red"/>
   </g>
   <g id="cell52">
  <circle cx="597.937" cy="990.723" r="10.34" stroke-width="0.5" stroke="black" fill="red"/>
  <circle cx="597.937" cy="990.723" r="6.24753" stroke-width="0.5" stroke="red" fill="red"/>
   </g>
   <g id="cell53">
  <circle cx="1356.49" cy="601.876" r="10.4761" stroke-width="0.5" stroke="black" fill="red"/>
  <circle cx="1356.49" cy="601.876" r="6.31388" stroke-width="0.5" stroke="red" fill="red"/>
   </g>
   <g id="cell54">
  <circle cx="780.24" cy="1831.47" r="10.4894" stroke-width="0.5" stroke="black" fill="red"/>
  <circle cx="780.24" cy="1831.47" r="6.31998" stroke-width="0.5" stroke="red" fill="red"/>
   </g>
   <g id="cell55">
  <circle cx="413.313" cy="1389.77" r="10.4307" stroke-width="0.5" stroke="black" fill="red"/>
  <circle cx="413.313" cy="1389.77" r="6.29241" stroke-width="0.5" stroke="red" fill="red"/>
   </g>
   <g id="cell56">
  <circle cx="1155.06" cy="1689.38" r="9.37686" stroke-width="0.5" stroke="black" fill="red"/>
  <circle cx="1155.06" cy="1689.38" r="5.69955" stroke-width="0.5" stroke="red" fill="red"/>
   </g>
   <g id="cell57">
  <circle cx="1025.73" cy="1039.71" r="8.41271" stroke-width="0.5" stroke="black" fill="red"/>
  <circle cx="1025.73" cy="1039.71" r="5.05167" stroke-width="0.5" stroke="red" fill="red"/>
   </g>
   <g id="cell58">
  <circle cx="184.23" cy="1786.4" r="10.4208" stroke-width="0.5" stroke="black" fill="red"/>
  <circle cx="184.23" cy="1786.4" r="6.28762" stroke-width="0.5" stroke="red" fill="red"/>
   </g>
   <g id="cell59">
  <circle cx="171.722" cy="1844.99" r="1.52554" stroke-width="0.5" stroke="black" fill="red"/>
  <circle cx="171.722" cy="1844.99" r="1.51487" stroke-width="0.5" stroke="black" fill="black"/>
   </g>
   <g id="cell60">
  <circle cx="680.571" cy="47.7825" r="10.4689" stroke-width="0.5" stroke="black" fill="red"/>
  <circle cx="680.571" cy="47.7825" r="6.31053" stroke-width="0.5" stroke="red" fill="red"/>
   </g>
   <g id="cell61">
  <circle cx="1668.38" cy="280.905" r="10.3084" stroke-width="0.5" stroke="black" fill="red"/>
  <circle cx="1668.38" cy="280.905" r="6.23137" stroke-width="0.5" stroke="red" fill="red"/>
   </g>
   <g id="cell62">
  <circle cx="1429.22" cy="1654.48" r="10.0497" stroke-width="0.5" stroke="black" fill="red"/>
  <circle cx="1429.22" cy="1654.48" r="6.09278" stroke-width="0.5" stroke="red" fill="red"/>
   </g>
   <g id="cell63">
  <circle cx="514.509" cy="346.105" r="9.4743" stroke-width="0.5" stroke="black" fill="red"/>
  <circle cx="514.509" cy="346.105" r="5.75875" stroke-width="0.5" stroke="red" fill="red"/>
   </g>
   <g id="cell64">
  <circle cx="1157.95" cy="1110.76" r="10.0654" stroke-width="0.5" stroke="black" fill="red"/>
  <circle cx="1157.95" cy="1110.76" r="6.10145" stroke-width="0.5" stroke="red" fill="red"/>
   </g>
   <g id="cell65">
  <circle cx="372.017" cy="1639.45" r="10.4307" stroke-width="0.5" stroke="black" fill="red"/>
  <circle cx="372.017" cy="1639.45" r="6.29241" stroke-width="0.5" stroke="red" fill="red"/>
   </g>
   <g id="cell66">
  <circle cx="12.3389" cy="312.045" r="10.3084" stroke-width="0.5" stroke="black" fill="red"/>
  <circle cx="12.3389" cy="312.045" r="6.23137" stroke-width="0.5" stroke="red" fill="red"/>
   </g>
   <g id="cell67">
  <circle cx="1093.43" cy="565.32" r="10.2221" stroke-width="0.5" stroke="black" fill="red"/>
  <circle cx="1093.43" cy="565.32" r="6.18628" stroke-width="0.5" stroke="red" fill="red"/>
   </g>
   <g id="cell68">
  <circle cx="1479.73" cy="610.16" r="10.4258" stroke-width="0.5" stroke="black" fill="red"/>
  <circle cx="1479.73" cy="610.16" r="6.29005" stroke-width="0.5" stroke="red" fill="red"/>
   </g>
   <g id="cell69">
  <circle cx="884.238" cy="549.632" r="8.41271" stroke-width="0.5" stroke="black" fill="red"/>
  <circle cx="884.238" cy="549.632" r="5.05167" stroke-width="0.5" stroke="red" fill="red"/>
   </g>
   <g id="cell70">
  <circle cx="1161.69" cy="806.575" r="10.3811" stroke-width="0.5" stroke="black" fill="red"/>
  <circle cx="1161.69" cy="806.575" r="6.26814" stroke-width="0.5" stroke="red" fill="red"/>
   </g>
   <g id="cell71">
  <circle cx="1759.92" cy="1125.99" r="10.3325" stroke-width="0.5" stroke="black" fill="red"/>
  <circle cx="1759.92" cy="1125.99" r="6.24369" stroke-width="0.5" stroke="red" fill="red"/>
   </g>
   <g id="cell72">
  <circle cx="446.402" cy="1811.31" r="9.88629" stroke-width="0.5" stroke="black" fill="red"/>
  <circle cx="446.402" cy="1811.31" r="6.00088" stroke-width="0.5" stroke="red" fill="red"/>
   </g>
   <g id="cell73">
  <circle cx="1438" cy="890.548" r="10.4446" stroke-width="0.5" stroke="black" fill="red"/>
  <circle cx="1438" cy="890.548" r="6.29905" stroke-width="0.5" stroke="red" fill="red"/>
   </g>
   <g id="cell74">
  <circle cx="1694.98" cy="1955.18" r="10.4401" stroke-width="0.5" stroke="black" fill="red"/>
  <circle cx="1694.98" cy="1955.18" r="6.29691" stroke-width="0.5" stroke="red" fill="red"/>
   </g>
   <g id="cell75">
  <circle cx="203.287" cy="601.876" r="9.20015" stroke-width="0.5" stroke="black" fill="red"/>
  <circle cx="203.287" cy="601.876" r="5.59022" stroke-width="0.5" stroke="red" fill="red"/>
   </g>
   <g id="cell76">
  <circle cx="1616.08" cy="838.37" r="10.2221" stroke-width="0.5" stroke="black" fill="red"/>
  <circle cx="1616.08" cy="838.37" r="6.18628" stroke-width="0.5" stroke="red" fill="red"/>
   </g>
   <g id="cell77">
  <circle cx="1389.27" cy="1766.37" r="10.0955" stroke-width="0.5" stroke="black" fill="red"/>
  <circle cx="1389.27" cy="1766.37" r="6.11797" stroke-width="0.5" stroke="red" fill="red"/>
   </g>
   <g id="cell78">
  <circle cx="1233.16" cy="647.475" r="10.0955" stroke-width="0.5" stroke="black" fill="red"/>
  <circle cx="1233.16" cy="647.475" r="6.11797" stroke-width="0.5" stroke="red" fill="red"/>
   </g>
   <g id="cell79">
  <circle cx="1927.8" cy="1396.51" r="8.41271" stroke-width="0.5" stroke="black" fill="red"/>
  <circle cx="1927.8" cy="1396.51" r="5.05167" stroke-width="0.5" stroke="red" fill="red"/>
   </g>
   <g id="cell80">
  <circle cx="1413.44" cy="1271.77" r="10.3325" stroke-width="0.5" stroke="black" fill="red"/>
  <circle cx="1413.44" cy="1271.77" r="6.24369" stroke-width="0.5" stroke="red" fill="red"/>
   </g>
   <g id="cell81">
  <circle cx="1073.97" cy="1890.12" r="1.55726" stroke-width="0.5" stroke="black" fill="red"/>
  <circle cx="1073.97" cy="1890.12" r="1.54284" stroke-width="0.5" stroke="black" fill="black"/>
   </g>
   <g id="cell82">
  <circle cx="1251.26" cy="773.284" r="10.3545" stroke-width="0.5" stroke="black" fill="red"/>
  <circle cx="1251.26" cy="773.284" r="6.25485" stroke-width="0.5" stroke="red" fill="red"/>
   </g>
   <g id="cell83">
  <circle cx="1271.9" cy="1249.08" r="10.0336" stroke-width="0.5" stroke="black" fill="red"/>
  <circle cx="1271.9" cy="1249.08" r="6.08382" stroke-width="0.5" stroke="red" fill="red"/>
   </g>
   <g id="cell84">
  <circle cx="25.3108" cy="959.346" r="10.4651" stroke-width="0.5" stroke="black" fill="red"/>
  <circle cx="25.3108" cy="959.346" r="6.30877" stroke-width="0.5" stroke="red" fill="red"/>
   </g>
   <g id="cell85">
  <circle cx="1422.36" cy="1285.79" r="9.67603" stroke-width="0.5" stroke="black" fill="red"/>
  <circle cx="1422.36" cy="1285.79" r="5.87901" stroke-width="0.5" stroke="red" fill="red"/>
   </g>
   <g id="cell86">
  <circle cx="600.448" cy="787.169" r="8.41271" stroke-width="0.5" stroke="black" fill="red"/>
  <circle cx="600.448" cy="787.169" r="5.05167" stroke-width="0.5" stroke="red" fill="red"/>
   </g>
   <g id="cell87">
  <circle cx="1500.86" cy="886.248" r="10.3084" stroke-width="0.5" stroke="black" fill="red"/>
  <circle cx="1500.86" cy="886.248" r="6.23137" stroke-width="0.5" stroke="red" fill="red"/>
   </g>
   <g id="cell88">
  <circle cx="309.828" cy="195.946" r="10.3325" stroke-width="0.5" stroke="black" fill="red"/>
  <circle cx="309.828" cy="195.946" r="6.24369" stroke-width="0.5" stroke="red" fill="red"/>
   </g>
   <g id="cell89">
  <circle cx="178.671" cy="1153.38" r="8.41271" stroke-width="0.5" stroke="black" fill="red"/>
  <circle cx="178.671" cy="1153.38" r="5.05167" stroke-width="0.5" stroke="red" fill="red"/>
   </g>
   <g id="cell90">
  <circle cx="1161.61" cy="1092.76" r="9.16281" stroke-width="0.5" stroke="black" fill="red"/>
  <circle cx="1161.61" cy="1092.76" r="5.56677" stroke-width="0.5" stroke="red" fill="red"/>
   </g>
   <g id="cell91">
  <circle cx="48.2817" cy="1273.22" r="9.34292" stroke-width="0.5" stroke="black" fill="red"/>
  <circle cx="48.2817" cy="1273.22" r="5.67875" stroke-width="0.5" stroke="red" fill="red"/>
   </g>
   <g id="cell92">
  <circle cx="1258.26" cy="633.316" r="10.4894" stroke-width="0.5" stroke="black" fill="red"/>
  <circle cx="1258.26" cy="633.316" r="6.31998" stroke-width="0.5" stroke="red" fill="red"/>
   </g>
   <g id="cell93">
  <circle cx="429.066" cy="1791.03" r="10.1506" stroke-width="0.5" stroke="black" fill="red"/>
  <circle cx="429.066" cy="1791.03" r="6.14798" stroke-width="0.5" stroke="red" fill="red"/>
   </g>
   <g id="cell94">
  <circle cx="748.077" cy="222.608" r="10.3933" stroke-width="0.5" stroke="black" fill="red"/>
  <circle cx="748.077" cy="222.608" r="6.27417" stroke-width="0.5" stroke="red" fill="red"/>
   </g>
   <g id="cell95">
  <circle cx="1983.12" cy="1765.7" r="10.3682" stroke-width="0.5" stroke="black" fill="red"/>
  <circle cx="1983.12" cy="1765.7" r="6.26172" stroke-width="0.5" stroke="red" fill="red"/>
   </g>
   <g id="cell96">
  <circle cx="1624.97" cy="1089.97" r="10.4208" stroke-width="0.5" stroke="black" fill="red"/>
  <circle cx="1624.97" cy="1089.97" r="6.28762" stroke-width="0.5" stroke="red" fill="red"/>
   </g>
   <g id="cell97">
  <circle cx="882.061" cy="212.47" r="10.4726" stroke-width="0.5" stroke="black" fill="red"/>
  <circle cx="882.061" cy="212.47" r="6.31223" stroke-width="0.5" stroke="red" fill="red"/>
   </g>
   <g id="cell98">
  <circle cx="1817.62" cy="701.095" r="10.483" stroke-width="0.5" stroke="black" fill="red"/>
  <circle cx="1817.62" cy="701.095" r="6.31703" stroke-width="0.5" stroke="red" fill="red"/>
   </g>
   <g id="cell99">
  <circle cx="917.049" cy="1977.82" r="10.4862" stroke-width="0.5" stroke="black" fill="red"/>
  <circle cx="917.049" cy="1977.82" r="6.31853" stroke-width="0.5" stroke="red" fill="red"/>
   </g>
  </g>
 </g>
  <rect x="1750" y="2070" width="200" height="20" stroke-width="4" stroke="rgb(255,255,255)" fill="rgb(0,0,0)"/>
  <text x="1762.5" y="2057.5"
   font-family="Arial" font-size="50" fill="black" >
   200 &#956;m
  </text>
  <text x="50" y="2090"
   font-family="Arial" font-size="37.5" fill="black" >
   0 days, 0 hours, 0 minutes, and 16.6044 seconds
  </text>
  <rect x="0" y="140" width="2000" height="2000" stroke-width="4" stroke="rgb(0,0,0)" fill="none"/>
</svg>
