<?xml version="1.0" encoding="UTF-8" standalone="no"?>
<!-- Created with PhysiCell (http://PhysiCell.MathCancer.org/) -->
<svg 
 xmlns:dc="http://purl.org/dc/elements/1.1/" 
 xmlns:cc="http://creativecommons.org/ns#" 
 xmlns:rdf="http://www.w3.org/1999/02/22-rdf-syntax-ns#" 
 xmlns:svg="http://www.w3.org/2000/svg" 
 xmlns="http://www.w3.org/2000/svg" 
 version="1.1" 
 width="2000" 
 height="2140" 
 id="svg2">
  <rect x="0" y="0" width="2000" height="2140" stroke-width="4" stroke="white" fill="white"/>
  <text x="25" y="60"
   font-family="Arial" font-size="50" fill="black" >
   Current time: 0 days, 5 hours, and 0.00 minutes, z = 0.00 &#956;m
  </text>
  <text x="25" y="115"
   font-family="Arial" font-size="47.5" fill="black" >
   100 agents
  </text>
 <g id="tissue" 
    transform="translate(0,2140) scale(1,-1)">
  <g id="ECM">
  </g>
  <g id="cells">
   <g id="cell0">
  <circle cx="1122.9" cy="1209.71" r="8.41271" stroke-width="0.5" stroke="black" fill="grey"/>
  <circle cx="1122.9" cy="1209.71" r="5.05167" stroke-width="0.5" stroke="grey" fill="grey"/>
   </g>
   <g id="cell1">
  <circle cx="1705.69" cy="1218.46" r="8.9283" stroke-width="0.5" stroke="black" fill="grey"/>
  <circle cx="1705.69" cy="1218.46" r="5.4161" stroke-width="0.5" stroke="grey" fill="grey"/>
   </g>
   <g id="cell2">
  <circle cx="1072.7" cy="1701.24" r="9.00806" stroke-width="0.5" stroke="black" fill="grey"/>
  <circle cx="1072.7" cy="1701.24" r="5.46807" stroke-width="0.5" stroke="grey" fill="grey"/>
   </g>
   <g id="cell3">
  <circle cx="1228.12" cy="1277.48" r="9.20015" stroke-width="0.5" stroke="black" fill="grey"/>
  <circle cx="1228.12" cy="1277.48" r="5.59022" stroke-width="0.5" stroke="grey" fill="grey"/>
   </g>
   <g id="cell4">
  <circle cx="879.912" cy="596.586" r="9.7273" stroke-width="0.5" stroke="black" fill="grey"/>
  <circle cx="879.912" cy="596.586" r="5.90906" stroke-width="0.5" stroke="grey" fill="grey"/>
   </g>
   <g id="cell5">
  <circle cx="132.342" cy="1925.32" r="8.41271" stroke-width="0.5" stroke="black" fill="grey"/>
  <circle cx="132.342" cy="1925.32" r="5.05167" stroke-width="0.5" stroke="grey" fill="grey"/>
   </g>
   <g id="cell6">
  <circle cx="780.539" cy="973.6" r="8.54454" stroke-width="0.5" stroke="black" fill="grey"/>
  <circle cx="780.539" cy="973.6" r="5.14947" stroke-width="0.5" stroke="grey" fill="grey"/>
   </g>
   <g id="cell7">
  <circle cx="1599.98" cy="1053.4" r="8.41271" stroke-width="0.5" stroke="black" fill="grey"/>
  <circle cx="1599.98" cy="1053.4" r="5.05167" stroke-width="0.5" stroke="grey" fill="grey"/>
   </g>
   <g id="cell8">
  <circle cx="1118.27" cy="800.995" r="9.53557" stroke-width="0.5" stroke="black" fill="grey"/>
  <circle cx="1118.27" cy="800.995" r="5.79561" stroke-width="0.5" stroke="grey" fill="grey"/>
   </g>
   <g id="cell9">
  <circle cx="1637.45" cy="161.373" r="8.41271" stroke-width="0.5" stroke="black" fill="grey"/>
  <circle cx="1637.45" cy="161.373" r="5.05167" stroke-width="0.5" stroke="grey" fill="grey"/>
   </g>
   <g id="cell10">
  <circle cx="195.935" cy="1298.5" r="9.2729" stroke-width="0.5" stroke="black" fill="grey"/>
  <circle cx="195.935" cy="1298.5" r="5.63555" stroke-width="0.5" stroke="grey" fill="grey"/>
   </g>
   <g id="cell11">
  <circle cx="755.12" cy="1674.07" r="9.92631" stroke-width="0.5" stroke="black" fill="grey"/>
  <circle cx="755.12" cy="1674.07" r="6.02363" stroke-width="0.5" stroke="grey" fill="grey"/>
   </g>
   <g id="cell12">
  <circle cx="1585.05" cy="296.167" r="8.68937" stroke-width="0.5" stroke="black" fill="grey"/>
  <circle cx="1585.05" cy="296.167" r="5.25417" stroke-width="0.5" stroke="grey" fill="grey"/>
   </g>
   <g id="cell13">
  <circle cx="1741.04" cy="1945.5" r="9.44256" stroke-width="0.5" stroke="black" fill="grey"/>
  <circle cx="1741.04" cy="1945.5" r="5.73955" stroke-width="0.5" stroke="grey" fill="grey"/>
   </g>
   <g id="cell14">
  <circle cx="1605.26" cy="1632.2" r="8.57856" stroke-width="0.5" stroke="black" fill="grey"/>
  <circle cx="1605.26" cy="1632.2" r="5.17461" stroke-width="0.5" stroke="grey" fill="grey"/>
   </g>
   <g id="cell15">
  <circle cx="1044.61" cy="1558.3" r="8.4325" stroke-width="0.5" stroke="black" fill="grey"/>
  <circle cx="1044.61" cy="1558.3" r="5.06552" stroke-width="0.5" stroke="grey" fill="grey"/>
   </g>
   <g id="cell16">
  <circle cx="234.22" cy="1432.32" r="8.41271" stroke-width="0.5" stroke="black" fill="grey"/>
  <circle cx="234.22" cy="1432.32" r="5.05167" stroke-width="0.5" stroke="grey" fill="grey"/>
   </g>
   <g id="cell17">
  <circle cx="1134.98" cy="308.862" r="9.37686" stroke-width="0.5" stroke="black" fill="grey"/>
  <circle cx="1134.98" cy="308.862" r="5.69955" stroke-width="0.5" stroke="grey" fill="grey"/>
   </g>
   <g id="cell18">
  <circle cx="1890.55" cy="1534.07" r="9.20015" stroke-width="0.5" stroke="black" fill="grey"/>
  <circle cx="1890.55" cy="1534.07" r="5.59022" stroke-width="0.5" stroke="grey" fill="grey"/>
   </g>
   <g id="cell19">
  <circle cx="209.546" cy="855.059" r="8.41271" stroke-width="0.5" stroke="black" fill="grey"/>
  <circle cx="209.546" cy="855.059" r="5.05167" stroke-width="0.5" stroke="grey" fill="grey"/>
   </g>
   <g id="cell20">
  <circle cx="535.191" cy="419.35" r="8.41271" stroke-width="0.5" stroke="black" fill="grey"/>
  <circle cx="535.191" cy="419.35" r="5.05167" stroke-width="0.5" stroke="grey" fill="grey"/>
   </g>
   <g id="cell21">
  <circle cx="1472.06" cy="895.252" r="9.70201" stroke-width="0.5" stroke="black" fill="grey"/>
  <circle cx="1472.06" cy="895.252" r="5.89426" stroke-width="0.5" stroke="grey" fill="grey"/>
   </g>
   <g id="cell22">
  <circle cx="1139.93" cy="269.157" r="9.90658" stroke-width="0.5" stroke="black" fill="grey"/>
  <circle cx="1139.93" cy="269.157" r="6.01243" stroke-width="0.5" stroke="grey" fill="grey"/>
   </g>
   <g id="cell23">
  <circle cx="595.446" cy="1229.19" r="9.77588" stroke-width="0.5" stroke="black" fill="grey"/>
  <circle cx="595.446" cy="1229.19" r="5.93735" stroke-width="0.5" stroke="grey" fill="grey"/>
   </g>
   <g id="cell24">
  <circle cx="1242.2" cy="433.276" r="8.41271" stroke-width="0.5" stroke="black" fill="grey"/>
  <circle cx="1242.2" cy="433.276" r="5.05167" stroke-width="0.5" stroke="grey" fill="grey"/>
   </g>
   <g id="cell25">
  <circle cx="751.966" cy="1892.87" r="8.41271" stroke-width="0.5" stroke="black" fill="grey"/>
  <circle cx="751.966" cy="1892.87" r="5.05167" stroke-width="0.5" stroke="grey" fill="grey"/>
   </g>
   <g id="cell26">
  <circle cx="1356.36" cy="929.109" r="9.37686" stroke-width="0.5" stroke="black" fill="grey"/>
  <circle cx="1356.36" cy="929.109" r="5.69955" stroke-width="0.5" stroke="grey" fill="grey"/>
   </g>
   <g id="cell27">
  <circle cx="1210.36" cy="860.805" r="8.41271" stroke-width="0.5" stroke="black" fill="grey"/>
  <circle cx="1210.36" cy="860.805" r="5.05167" stroke-width="0.5" stroke="grey" fill="grey"/>
   </g>
   <g id="cell28">
  <circle cx="1383.38" cy="187.711" r="9.2729" stroke-width="0.5" stroke="black" fill="grey"/>
  <circle cx="1383.38" cy="187.711" r="5.63555" stroke-width="0.5" stroke="grey" fill="grey"/>
   </g>
   <g id="cell29">
  <circle cx="1920.32" cy="1331.74" r="8.41271" stroke-width="0.5" stroke="black" fill="grey"/>
  <circle cx="1920.32" cy="1331.74" r="5.05167" stroke-width="0.5" stroke="grey" fill="grey"/>
   </g>
   <g id="cell30">
  <circle cx="1367.96" cy="324.824" r="9.70201" stroke-width="0.5" stroke="black" fill="grey"/>
  <circle cx="1367.96" cy="324.824" r="5.89426" stroke-width="0.5" stroke="grey" fill="grey"/>
   </g>
   <g id="cell31">
  <circle cx="714.927" cy="275.459" r="9.30826" stroke-width="0.5" stroke="black" fill="grey"/>
  <circle cx="714.927" cy="275.459" r="5.65742" stroke-width="0.5" stroke="grey" fill="grey"/>
   </g>
   <g id="cell32">
  <circle cx="664.649" cy="1207.78" r="9.64936" stroke-width="0.5" stroke="black" fill="grey"/>
  <circle cx="664.649" cy="1207.78" r="5.86329" stroke-width="0.5" stroke="grey" fill="grey"/>
   </g>
   <g id="cell33">
  <circle cx="623.768" cy="1143.99" r="9.00806" stroke-width="0.5" stroke="black" fill="grey"/>
  <circle cx="623.768" cy="1143.99" r="5.46807" stroke-width="0.5" stroke="grey" fill="grey"/>
   </g>
   <g id="cell34">
  <circle cx="893.661" cy="1255.65" r="8.41271" stroke-width="0.5" stroke="black" fill="grey"/>
  <circle cx="893.661" cy="1255.65" r="5.05167" stroke-width="0.5" stroke="grey" fill="grey"/>
   </g>
   <g id="cell35">
  <circle cx="1920.92" cy="180.667" r="8.41271" stroke-width="0.5" stroke="black" fill="grey"/>
  <circle cx="1920.92" cy="180.667" r="5.05167" stroke-width="0.5" stroke="grey" fill="grey"/>
   </g>
   <g id="cell36">
  <circle cx="446.891" cy="1255.92" r="8.41271" stroke-width="0.5" stroke="black" fill="grey"/>
  <circle cx="446.891" cy="1255.92" r="5.05167" stroke-width="0.5" stroke="grey" fill="grey"/>
   </g>
   <g id="cell37">
  <circle cx="1981.12" cy="1276.69" r="8.41271" stroke-width="0.5" stroke="black" fill="grey"/>
  <circle cx="1981.12" cy="1276.69" r="5.05167" stroke-width="0.5" stroke="grey" fill="grey"/>
   </g>
   <g id="cell38">
  <circle cx="509.504" cy="810.206" r="9.53557" stroke-width="0.5" stroke="black" fill="grey"/>
  <circle cx="509.504" cy="810.206" r="5.79561" stroke-width="0.5" stroke="grey" fill="grey"/>
   </g>
   <g id="cell39">
  <circle cx="951.348" cy="486.283" r="8.96831" stroke-width="0.5" stroke="black" fill="grey"/>
  <circle cx="951.348" cy="486.283" r="5.44228" stroke-width="0.5" stroke="grey" fill="grey"/>
   </g>
   <g id="cell40">
  <circle cx="287.897" cy="657.118" r="8.61424" stroke-width="0.5" stroke="black" fill="grey"/>
  <circle cx="287.897" cy="657.118" r="5.20061" stroke-width="0.5" stroke="grey" fill="grey"/>
   </g>
   <g id="cell41">
  <circle cx="1350.84" cy="1304.36" r="8.41271" stroke-width="0.5" stroke="black" fill="grey"/>
  <circle cx="1350.84" cy="1304.36" r="5.05167" stroke-width="0.5" stroke="grey" fill="grey"/>
   </g>
   <g id="cell42">
  <circle cx="306.871" cy="1549.78" r="9.44256" stroke-width="0.5" stroke="black" fill="grey"/>
  <circle cx="306.871" cy="1549.78" r="5.73955" stroke-width="0.5" stroke="grey" fill="grey"/>
   </g>
   <g id="cell43">
  <circle cx="1872.53" cy="764.692" r="9.77588" stroke-width="0.5" stroke="black" fill="grey"/>
  <circle cx="1872.53" cy="764.692" r="5.93735" stroke-width="0.5" stroke="grey" fill="grey"/>
   </g>
   <g id="cell44">
  <circle cx="1657.44" cy="44.695" r="9.70201" stroke-width="0.5" stroke="black" fill="grey"/>
  <circle cx="1657.44" cy="44.695" r="5.89426" stroke-width="0.5" stroke="grey" fill="grey"/>
   </g>
   <g id="cell45">
  <circle cx="1258.04" cy="1663.35" r="9.23685" stroke-width="0.5" stroke="black" fill="grey"/>
  <circle cx="1258.04" cy="1663.35" r="5.61315" stroke-width="0.5" stroke="grey" fill="grey"/>
   </g>
   <g id="cell46">
  <circle cx="209.516" cy="1950.47" r="9.2729" stroke-width="0.5" stroke="black" fill="grey"/>
  <circle cx="209.516" cy="1950.47" r="5.63555" stroke-width="0.5" stroke="grey" fill="grey"/>
   </g>
   <g id="cell47">
  <circle cx="1757.24" cy="946.771" r="8.41271" stroke-width="0.5" stroke="black" fill="grey"/>
  <circle cx="1757.24" cy="946.771" r="5.05167" stroke-width="0.5" stroke="grey" fill="grey"/>
   </g>
   <g id="cell48">
  <circle cx="1950.11" cy="127.916" r="9.2729" stroke-width="0.5" stroke="black" fill="grey"/>
  <circle cx="1950.11" cy="127.916" r="5.63555" stroke-width="0.5" stroke="grey" fill="grey"/>
   </g>
   <g id="cell49">
  <circle cx="920.912" cy="1466.97" r="8.41271" stroke-width="0.5" stroke="black" fill="grey"/>
  <circle cx="920.912" cy="1466.97" r="5.05167" stroke-width="0.5" stroke="grey" fill="grey"/>
   </g>
   <g id="cell50">
  <circle cx="77.2631" cy="867.136" r="8.54454" stroke-width="0.5" stroke="black" fill="red"/>
  <circle cx="77.2631" cy="867.136" r="5.14947" stroke-width="0.5" stroke="red" fill="red"/>
   </g>
   <g id="cell51">
  <circle cx="1949.52" cy="224.855" r="8.68937" stroke-width="0.5" stroke="black" fill="red"/>
  <circle cx="1949.52" cy="224.855" r="5.25417" stroke-width="0.5" stroke="red" fill="red"/>
   </g>
   <g id="cell52">
  <circle cx="609.646" cy="962.317" r="8.48289" stroke-width="0.5" stroke="black" fill="red"/>
  <circle cx="609.646" cy="962.317" r="5.10317" stroke-width="0.5" stroke="red" fill="red"/>
   </g>
   <g id="cell53">
  <circle cx="1350.51" cy="636.811" r="8.41271" stroke-width="0.5" stroke="black" fill="red"/>
  <circle cx="1350.51" cy="636.811" r="5.05167" stroke-width="0.5" stroke="red" fill="red"/>
   </g>
   <g id="cell54">
  <circle cx="864.111" cy="1870.72" r="9.5053" stroke-width="0.5" stroke="black" fill="red"/>
  <circle cx="864.111" cy="1870.72" r="5.77744" stroke-width="0.5" stroke="red" fill="red"/>
   </g>
   <g id="cell55">
  <circle cx="444.372" cy="1405.17" r="8.41271" stroke-width="0.5" stroke="black" fill="red"/>
  <circle cx="444.372" cy="1405.17" r="5.05167" stroke-width="0.5" stroke="red" fill="red"/>
   </g>
   <g id="cell56">
  <circle cx="1151.66" cy="1755.12" r="8.41271" stroke-width="0.5" stroke="black" fill="red"/>
  <circle cx="1151.66" cy="1755.12" r="5.05167" stroke-width="0.5" stroke="red" fill="red"/>
   </g>
   <g id="cell57">
  <circle cx="1017.55" cy="1046.55" r="8.41271" stroke-width="0.5" stroke="black" fill="red"/>
  <circle cx="1017.55" cy="1046.55" r="5.05167" stroke-width="0.5" stroke="red" fill="red"/>
   </g>
   <g id="cell58">
  <circle cx="197.223" cy="1828.71" r="9.5651" stroke-width="0.5" stroke="black" fill="red"/>
  <circle cx="197.223" cy="1828.71" r="5.81327" stroke-width="0.5" stroke="red" fill="red"/>
   </g>
   <g id="cell59">
  <circle cx="176.489" cy="1819.66" r="9.62199" stroke-width="0.5" stroke="black" fill="red"/>
  <circle cx="176.489" cy="1819.66" r="5.8471" stroke-width="0.5" stroke="red" fill="red"/>
   </g>
   <g id="cell60">
  <circle cx="638.129" cy="16.9003" r="9.64936" stroke-width="0.5" stroke="black" fill="red"/>
  <circle cx="638.129" cy="16.9003" r="5.86329" stroke-width="0.5" stroke="red" fill="red"/>
   </g>
   <g id="cell61">
  <circle cx="1707.43" cy="255.752" r="8.41271" stroke-width="0.5" stroke="black" fill="red"/>
  <circle cx="1707.43" cy="255.752" r="5.05167" stroke-width="0.5" stroke="red" fill="red"/>
   </g>
   <g id="cell62">
  <circle cx="1432.36" cy="1687.97" r="9.86542" stroke-width="0.5" stroke="black" fill="red"/>
  <circle cx="1432.36" cy="1687.97" r="5.98895" stroke-width="0.5" stroke="red" fill="red"/>
   </g>
   <g id="cell63">
  <circle cx="521.484" cy="378.425" r="9.5651" stroke-width="0.5" stroke="black" fill="red"/>
  <circle cx="521.484" cy="378.425" r="5.81327" stroke-width="0.5" stroke="red" fill="red"/>
   </g>
   <g id="cell64">
  <circle cx="1157.37" cy="1111.19" r="9.90658" stroke-width="0.5" stroke="black" fill="red"/>
  <circle cx="1157.37" cy="1111.19" r="6.01243" stroke-width="0.5" stroke="red" fill="red"/>
   </g>
   <g id="cell65">
  <circle cx="320.681" cy="1660.81" r="8.41271" stroke-width="0.5" stroke="black" fill="red"/>
  <circle cx="320.681" cy="1660.81" r="5.05167" stroke-width="0.5" stroke="red" fill="red"/>
   </g>
   <g id="cell66">
  <circle cx="10.7814" cy="295.201" r="9.67603" stroke-width="0.5" stroke="black" fill="red"/>
  <circle cx="10.7814" cy="295.201" r="5.87901" stroke-width="0.5" stroke="red" fill="red"/>
   </g>
   <g id="cell67">
  <circle cx="1140.82" cy="552.186" r="9.00806" stroke-width="0.5" stroke="black" fill="red"/>
  <circle cx="1140.82" cy="552.186" r="5.46807" stroke-width="0.5" stroke="red" fill="red"/>
   </g>
   <g id="cell68">
  <circle cx="1474.68" cy="570.428" r="9.30826" stroke-width="0.5" stroke="black" fill="red"/>
  <circle cx="1474.68" cy="570.428" r="5.65742" stroke-width="0.5" stroke="red" fill="red"/>
   </g>
   <g id="cell69">
  <circle cx="908.441" cy="469.238" r="9.67603" stroke-width="0.5" stroke="black" fill="red"/>
  <circle cx="908.441" cy="469.238" r="5.87901" stroke-width="0.5" stroke="red" fill="red"/>
   </g>
   <g id="cell70">
  <circle cx="1158.75" cy="781.05" r="9.7992" stroke-width="0.5" stroke="black" fill="red"/>
  <circle cx="1158.75" cy="781.05" r="5.95086" stroke-width="0.5" stroke="red" fill="red"/>
   </g>
   <g id="cell71">
  <circle cx="1775.06" cy="1144.16" r="9.82189" stroke-width="0.5" stroke="black" fill="red"/>
  <circle cx="1775.06" cy="1144.16" r="5.96395" stroke-width="0.5" stroke="red" fill="red"/>
   </g>
   <g id="cell72">
  <circle cx="471.717" cy="1781.86" r="9.2729" stroke-width="0.5" stroke="black" fill="red"/>
  <circle cx="471.717" cy="1781.86" r="5.63555" stroke-width="0.5" stroke="red" fill="red"/>
   </g>
   <g id="cell73">
  <circle cx="1346.49" cy="885.807" r="9.67603" stroke-width="0.5" stroke="black" fill="red"/>
  <circle cx="1346.49" cy="885.807" r="5.87901" stroke-width="0.5" stroke="red" fill="red"/>
   </g>
   <g id="cell74">
  <circle cx="1675.62" cy="1981.55" r="8.7678" stroke-width="0.5" stroke="black" fill="red"/>
  <circle cx="1675.62" cy="1981.55" r="5.30857" stroke-width="0.5" stroke="red" fill="red"/>
   </g>
   <g id="cell75">
  <circle cx="222.573" cy="629.345" r="9.44256" stroke-width="0.5" stroke="black" fill="red"/>
  <circle cx="222.573" cy="629.345" r="5.73955" stroke-width="0.5" stroke="red" fill="red"/>
   </g>
   <g id="cell76">
  <circle cx="1620.06" cy="819.842" r="8.41271" stroke-width="0.5" stroke="black" fill="red"/>
  <circle cx="1620.06" cy="819.842" r="5.05167" stroke-width="0.5" stroke="red" fill="red"/>
   </g>
   <g id="cell77">
  <circle cx="1337.62" cy="1779.96" r="8.41271" stroke-width="0.5" stroke="black" fill="red"/>
  <circle cx="1337.62" cy="1779.96" r="5.05167" stroke-width="0.5" stroke="red" fill="red"/>
   </g>
   <g id="cell78">
  <circle cx="1167.01" cy="631.214" r="9.44256" stroke-width="0.5" stroke="black" fill="red"/>
  <circle cx="1167.01" cy="631.214" r="5.73955" stroke-width="0.5" stroke="red" fill="red"/>
   </g>
   <g id="cell79">
  <circle cx="1950.7" cy="1386.59" r="9.94548" stroke-width="0.5" stroke="black" fill="red"/>
  <circle cx="1950.7" cy="1386.59" r="6.03448" stroke-width="0.5" stroke="red" fill="red"/>
   </g>
   <g id="cell80">
  <circle cx="1475.61" cy="1354.56" r="9.5651" stroke-width="0.5" stroke="black" fill="red"/>
  <circle cx="1475.61" cy="1354.56" r="5.81327" stroke-width="0.5" stroke="red" fill="red"/>
   </g>
   <g id="cell81">
  <circle cx="1061.44" cy="1926.17" r="8.41271" stroke-width="0.5" stroke="black" fill="red"/>
  <circle cx="1061.44" cy="1926.17" r="5.05167" stroke-width="0.5" stroke="red" fill="red"/>
   </g>
   <g id="cell82">
  <circle cx="1234.24" cy="807.348" r="9.64936" stroke-width="0.5" stroke="black" fill="red"/>
  <circle cx="1234.24" cy="807.348" r="5.86329" stroke-width="0.5" stroke="red" fill="red"/>
   </g>
   <g id="cell83">
  <circle cx="1253.66" cy="1237.63" r="8.41271" stroke-width="0.5" stroke="black" fill="red"/>
  <circle cx="1253.66" cy="1237.63" r="5.05167" stroke-width="0.5" stroke="red" fill="red"/>
   </g>
   <g id="cell84">
  <circle cx="41.2692" cy="944.915" r="8.72828" stroke-width="0.5" stroke="black" fill="red"/>
  <circle cx="41.2692" cy="944.915" r="5.28134" stroke-width="0.5" stroke="red" fill="red"/>
   </g>
   <g id="cell85">
  <circle cx="1427.49" cy="1329.73" r="9.94548" stroke-width="0.5" stroke="black" fill="red"/>
  <circle cx="1427.49" cy="1329.73" r="6.03448" stroke-width="0.5" stroke="red" fill="red"/>
   </g>
   <g id="cell86">
  <circle cx="553.467" cy="768.753" r="9.30826" stroke-width="0.5" stroke="black" fill="red"/>
  <circle cx="553.467" cy="768.753" r="5.65742" stroke-width="0.5" stroke="red" fill="red"/>
   </g>
   <g id="cell87">
  <circle cx="1505.49" cy="872.533" r="9.86542" stroke-width="0.5" stroke="black" fill="red"/>
  <circle cx="1505.49" cy="872.533" r="5.98895" stroke-width="0.5" stroke="red" fill="red"/>
   </g>
   <g id="cell88">
  <circle cx="291.469" cy="194.159" r="8.41271" stroke-width="0.5" stroke="black" fill="red"/>
  <circle cx="291.469" cy="194.159" r="5.05167" stroke-width="0.5" stroke="red" fill="red"/>
   </g>
   <g id="cell89">
  <circle cx="195.972" cy="1150.25" r="9.90658" stroke-width="0.5" stroke="black" fill="red"/>
  <circle cx="195.972" cy="1150.25" r="6.01243" stroke-width="0.5" stroke="red" fill="red"/>
   </g>
   <g id="cell90">
  <circle cx="1186.84" cy="1084.16" r="8.41271" stroke-width="0.5" stroke="black" fill="red"/>
  <circle cx="1186.84" cy="1084.16" r="5.05167" stroke-width="0.5" stroke="red" fill="red"/>
   </g>
   <g id="cell91">
  <circle cx="79.3373" cy="1278.22" r="9.30826" stroke-width="0.5" stroke="black" fill="red"/>
  <circle cx="79.3373" cy="1278.22" r="5.65742" stroke-width="0.5" stroke="red" fill="red"/>
   </g>
   <g id="cell92">
  <circle cx="1281.73" cy="669.095" r="8.41271" stroke-width="0.5" stroke="black" fill="red"/>
  <circle cx="1281.73" cy="669.095" r="5.05167" stroke-width="0.5" stroke="red" fill="red"/>
   </g>
   <g id="cell93">
  <circle cx="457.288" cy="1817.98" r="9.94548" stroke-width="0.5" stroke="black" fill="red"/>
  <circle cx="457.288" cy="1817.98" r="6.03448" stroke-width="0.5" stroke="red" fill="red"/>
   </g>
   <g id="cell94">
  <circle cx="743.484" cy="207.028" r="9.53557" stroke-width="0.5" stroke="black" fill="red"/>
  <circle cx="743.484" cy="207.028" r="5.79561" stroke-width="0.5" stroke="red" fill="red"/>
   </g>
   <g id="cell95">
  <circle cx="1942.65" cy="1778.03" r="8.7678" stroke-width="0.5" stroke="black" fill="red"/>
  <circle cx="1942.65" cy="1778.03" r="5.30857" stroke-width="0.5" stroke="red" fill="red"/>
   </g>
   <g id="cell96">
  <circle cx="1616.52" cy="1048.68" r="9.5053" stroke-width="0.5" stroke="black" fill="red"/>
  <circle cx="1616.52" cy="1048.68" r="5.77744" stroke-width="0.5" stroke="red" fill="red"/>
   </g>
   <g id="cell97">
  <circle cx="900.972" cy="203.692" r="9.04745" stroke-width="0.5" stroke="black" fill="red"/>
  <circle cx="900.972" cy="203.692" r="5.49345" stroke-width="0.5" stroke="red" fill="red"/>
   </g>
   <g id="cell98">
  <circle cx="1810.26" cy="686.454" r="9.59391" stroke-width="0.5" stroke="black" fill="red"/>
  <circle cx="1810.26" cy="686.454" r="5.83043" stroke-width="0.5" stroke="red" fill="red"/>
   </g>
   <g id="cell99">
  <circle cx="918.046" cy="1981.33" r="9.00806" stroke-width="0.5" stroke="black" fill="red"/>
  <circle cx="918.046" cy="1981.33" r="5.46807" stroke-width="0.5" stroke="red" fill="red"/>
   </g>
  </g>
 </g>
  <rect x="1750" y="2070" width="200" height="20" stroke-width="4" stroke="rgb(255,255,255)" fill="rgb(0,0,0)"/>
  <text x="1762.5" y="2057.5"
   font-family="Arial" font-size="50" fill="black" >
   200 &#956;m
  </text>
  <text x="50" y="2090"
   font-family="Arial" font-size="37.5" fill="black" >
   0 days, 0 hours, 0 minutes, and 7.4476 seconds
  </text>
  <rect x="0" y="140" width="2000" height="2000" stroke-width="4" stroke="rgb(0,0,0)" fill="none"/>
</svg>
