<?xml version="1.0" encoding="UTF-8" standalone="no"?>
<!-- Created with PhysiCell (http://PhysiCell.MathCancer.org/) -->
<svg 
 xmlns:dc="http://purl.org/dc/elements/1.1/" 
 xmlns:cc="http://creativecommons.org/ns#" 
 xmlns:rdf="http://www.w3.org/1999/02/22-rdf-syntax-ns#" 
 xmlns:svg="http://www.w3.org/2000/svg" 
 xmlns="http://www.w3.org/2000/svg" 
 version="1.1" 
 width="2000" 
 height="2140" 
 id="svg2">
  <rect x="0" y="0" width="2000" height="2140" stroke-width="4" stroke="white" fill="white"/>
  <text x="25" y="60"
   font-family="Arial" font-size="50" fill="black" >
   Current time: 1 days, 3 hours, and 0.00 minutes, z = 0.00 &#956;m
  </text>
  <text x="25" y="115"
   font-family="Arial" font-size="47.5" fill="black" >
   19 agents
  </text>
 <g id="tissue" 
    transform="translate(0,2140) scale(1,-1)">
  <g id="ECM">
  </g>
  <g id="cells">
   <g id="cell0">
  <circle cx="1152.57" cy="1193.77" r="10.3458" stroke-width="0.5" stroke="black" fill="grey"/>
  <circle cx="1152.57" cy="1193.77" r="6.25082" stroke-width="0.5" stroke="grey" fill="grey"/>
   </g>
   <g id="cell1">
  <circle cx="1690.81" cy="1214.18" r="9.58826" stroke-width="0.5" stroke="black" fill="grey"/>
  <circle cx="1690.81" cy="1214.18" r="5.8286" stroke-width="0.5" stroke="grey" fill="grey"/>
   </g>
   <g id="cell2">
  <circle cx="1158.89" cy="1689.75" r="10.3852" stroke-width="0.5" stroke="black" fill="grey"/>
  <circle cx="1158.89" cy="1689.75" r="6.27061" stroke-width="0.5" stroke="grey" fill="grey"/>
   </g>
   <g id="cell3">
  <circle cx="1249.84" cy="1286.59" r="10.3796" stroke-width="0.5" stroke="black" fill="grey"/>
  <circle cx="1249.84" cy="1286.59" r="6.26772" stroke-width="0.5" stroke="grey" fill="grey"/>
   </g>
   <g id="cell4">
  <circle cx="928.687" cy="549.362" r="10.1224" stroke-width="0.5" stroke="black" fill="grey"/>
  <circle cx="928.687" cy="549.362" r="6.13309" stroke-width="0.5" stroke="grey" fill="grey"/>
   </g>
   <g id="cell5">
  <circle cx="107.683" cy="1970.85" r="10.0158" stroke-width="0.5" stroke="black" fill="red"/>
  <circle cx="107.683" cy="1970.85" r="6.07425" stroke-width="0.5" stroke="red" fill="red"/>
   </g>
   <g id="cell6">
  <circle cx="814.537" cy="899.557" r="9.14587" stroke-width="0.5" stroke="black" fill="red"/>
  <circle cx="814.537" cy="899.557" r="5.56065" stroke-width="0.5" stroke="red" fill="red"/>
   </g>
   <g id="cell7">
  <circle cx="1586.22" cy="1013.69" r="1.42647" stroke-width="0.5" stroke="black" fill="red"/>
  <circle cx="1586.22" cy="1013.69" r="1.42074" stroke-width="0.5" stroke="black" fill="black"/>
   </g>
   <g id="cell8">
  <circle cx="1127.68" cy="746.859" r="1.52981" stroke-width="0.5" stroke="black" fill="red"/>
  <circle cx="1127.68" cy="746.859" r="1.51838" stroke-width="0.5" stroke="black" fill="black"/>
   </g>
   <g id="cell9">
  <circle cx="1655.53" cy="179.142" r="9.58952" stroke-width="0.5" stroke="black" fill="red"/>
  <circle cx="1655.53" cy="179.142" r="5.82904" stroke-width="0.5" stroke="red" fill="red"/>
   </g>
   <g id="cell11">
  <circle cx="1577.03" cy="1059.73" r="10.4641" stroke-width="0.5" stroke="black" fill="red"/>
  <circle cx="1577.03" cy="1059.73" r="6.3085" stroke-width="0.5" stroke="red" fill="red"/>
   </g>
   <g id="cell20">
  <circle cx="829.596" cy="932.401" r="8.3926" stroke-width="0.5" stroke="black" fill="red"/>
  <circle cx="829.596" cy="932.401" r="5.04482" stroke-width="0.5" stroke="red" fill="red"/>
   </g>
   <g id="cell13">
  <circle cx="825.509" cy="569.82" r="9.79774" stroke-width="0.5" stroke="black" fill="grey"/>
  <circle cx="825.509" cy="569.82" r="5.95044" stroke-width="0.5" stroke="grey" fill="grey"/>
   </g>
   <g id="cell14">
  <circle cx="1220.05" cy="1303.46" r="9.67426" stroke-width="0.5" stroke="black" fill="grey"/>
  <circle cx="1220.05" cy="1303.46" r="5.87849" stroke-width="0.5" stroke="grey" fill="grey"/>
   </g>
   <g id="cell15">
  <circle cx="1142.97" cy="1179.12" r="9.82017" stroke-width="0.5" stroke="black" fill="grey"/>
  <circle cx="1142.97" cy="1179.12" r="5.96345" stroke-width="0.5" stroke="grey" fill="grey"/>
   </g>
   <g id="cell16">
  <circle cx="1161.43" cy="1671.23" r="9.34034" stroke-width="0.5" stroke="black" fill="grey"/>
  <circle cx="1161.43" cy="1671.23" r="5.67796" stroke-width="0.5" stroke="grey" fill="grey"/>
   </g>
   <g id="cell17">
  <circle cx="1090.3" cy="724.735" r="10.2974" stroke-width="0.5" stroke="black" fill="red"/>
  <circle cx="1090.3" cy="724.735" r="6.22626" stroke-width="0.5" stroke="red" fill="red"/>
   </g>
   <g id="cell18">
  <circle cx="1680.53" cy="202.29" r="8.407" stroke-width="0.5" stroke="black" fill="red"/>
  <circle cx="1680.53" cy="202.29" r="5.04998" stroke-width="0.5" stroke="red" fill="red"/>
   </g>
   <g id="cell19">
  <circle cx="1657.4" cy="1238.81" r="10.1708" stroke-width="0.5" stroke="black" fill="grey"/>
  <circle cx="1657.4" cy="1238.81" r="6.16002" stroke-width="0.5" stroke="grey" fill="grey"/>
   </g>
  </g>
 </g>
  <rect x="1750" y="2070" width="200" height="20" stroke-width="4" stroke="rgb(255,255,255)" fill="rgb(0,0,0)"/>
  <text x="1762.5" y="2057.5"
   font-family="Arial" font-size="50" fill="black" >
   200 &#956;m
  </text>
  <text x="50" y="2090"
   font-family="Arial" font-size="37.5" fill="black" >
   0 days, 0 hours, 0 minutes, and 34.8320 seconds
  </text>
  <rect x="0" y="140" width="2000" height="2000" stroke-width="4" stroke="rgb(0,0,0)" fill="none"/>
</svg>
