<?xml version="1.0" encoding="UTF-8" standalone="no"?>
<!-- Created with PhysiCell (http://PhysiCell.MathCancer.org/) -->
<svg 
 xmlns:dc="http://purl.org/dc/elements/1.1/" 
 xmlns:cc="http://creativecommons.org/ns#" 
 xmlns:rdf="http://www.w3.org/1999/02/22-rdf-syntax-ns#" 
 xmlns:svg="http://www.w3.org/2000/svg" 
 xmlns="http://www.w3.org/2000/svg" 
 version="1.1" 
 width="2000" 
 height="2140" 
 id="svg2">
  <rect x="0" y="0" width="2000" height="2140" stroke-width="4" stroke="white" fill="white"/>
  <text x="25" y="60"
   font-family="Arial" font-size="50" fill="black" >
   Current time: 1 days, 2 hours, and 0.00 minutes, z = 0.00 &#956;m
  </text>
  <text x="25" y="115"
   font-family="Arial" font-size="47.5" fill="black" >
   19 agents
  </text>
 <g id="tissue" 
    transform="translate(0,2140) scale(1,-1)">
  <g id="ECM">
  </g>
  <g id="cells">
   <g id="cell0">
  <circle cx="1155.29" cy="1191.31" r="10.2612" stroke-width="0.5" stroke="black" fill="grey"/>
  <circle cx="1155.29" cy="1191.31" r="6.20737" stroke-width="0.5" stroke="grey" fill="grey"/>
   </g>
   <g id="cell1">
  <circle cx="1692.35" cy="1210.56" r="9.26491" stroke-width="0.5" stroke="black" fill="grey"/>
  <circle cx="1692.35" cy="1210.56" r="5.63286" stroke-width="0.5" stroke="grey" fill="grey"/>
   </g>
   <g id="cell2">
  <circle cx="1166.29" cy="1694.11" r="10.3138" stroke-width="0.5" stroke="black" fill="grey"/>
  <circle cx="1166.29" cy="1694.11" r="6.23479" stroke-width="0.5" stroke="grey" fill="grey"/>
   </g>
   <g id="cell3">
  <circle cx="1256.72" cy="1281.24" r="10.3063" stroke-width="0.5" stroke="black" fill="grey"/>
  <circle cx="1256.72" cy="1281.24" r="6.23078" stroke-width="0.5" stroke="grey" fill="grey"/>
   </g>
   <g id="cell4">
  <circle cx="923.032" cy="550.398" r="9.96225" stroke-width="0.5" stroke="black" fill="grey"/>
  <circle cx="923.032" cy="550.398" r="6.04445" stroke-width="0.5" stroke="grey" fill="grey"/>
   </g>
   <g id="cell5">
  <circle cx="109.305" cy="1958.28" r="9.82026" stroke-width="0.5" stroke="black" fill="red"/>
  <circle cx="109.305" cy="1958.28" r="5.96348" stroke-width="0.5" stroke="red" fill="red"/>
   </g>
   <g id="cell6">
  <circle cx="806.198" cy="888.427" r="8.74329" stroke-width="0.5" stroke="black" fill="red"/>
  <circle cx="806.198" cy="888.427" r="5.29959" stroke-width="0.5" stroke="red" fill="red"/>
   </g>
   <g id="cell7">
  <circle cx="1586.22" cy="1013.69" r="1.61279" stroke-width="0.5" stroke="black" fill="red"/>
  <circle cx="1586.22" cy="1013.69" r="1.59989" stroke-width="0.5" stroke="black" fill="black"/>
   </g>
   <g id="cell8">
  <circle cx="1127.68" cy="746.859" r="1.73551" stroke-width="0.5" stroke="black" fill="red"/>
  <circle cx="1127.68" cy="746.859" r="1.70984" stroke-width="0.5" stroke="black" fill="black"/>
   </g>
   <g id="cell9">
  <circle cx="1660.06" cy="171.024" r="9.26668" stroke-width="0.5" stroke="black" fill="red"/>
  <circle cx="1660.06" cy="171.024" r="5.6335" stroke-width="0.5" stroke="red" fill="red"/>
   </g>
   <g id="cell11">
  <circle cx="1575.14" cy="1061.64" r="10.4194" stroke-width="0.5" stroke="black" fill="red"/>
  <circle cx="1575.14" cy="1061.64" r="6.28725" stroke-width="0.5" stroke="red" fill="red"/>
   </g>
   <g id="cell20">
  <circle cx="822.633" cy="925.471" r="8.38608" stroke-width="0.5" stroke="black" fill="red"/>
  <circle cx="822.633" cy="925.471" r="5.04229" stroke-width="0.5" stroke="red" fill="red"/>
   </g>
   <g id="cell13">
  <circle cx="828.537" cy="575.488" r="9.53353" stroke-width="0.5" stroke="black" fill="grey"/>
  <circle cx="828.537" cy="575.488" r="5.795" stroke-width="0.5" stroke="grey" fill="grey"/>
   </g>
   <g id="cell14">
  <circle cx="1212.64" cy="1303.7" r="9.37437" stroke-width="0.5" stroke="black" fill="grey"/>
  <circle cx="1212.64" cy="1303.7" r="5.69879" stroke-width="0.5" stroke="grey" fill="grey"/>
   </g>
   <g id="cell15">
  <circle cx="1126.2" cy="1179.76" r="9.56271" stroke-width="0.5" stroke="black" fill="grey"/>
  <circle cx="1126.2" cy="1179.76" r="5.81255" stroke-width="0.5" stroke="grey" fill="grey"/>
   </g>
   <g id="cell16">
  <circle cx="1157.86" cy="1677.82" r="8.96461" stroke-width="0.5" stroke="black" fill="grey"/>
  <circle cx="1157.86" cy="1677.82" r="5.44113" stroke-width="0.5" stroke="grey" fill="grey"/>
   </g>
   <g id="cell17">
  <circle cx="1085.96" cy="740.372" r="10.1962" stroke-width="0.5" stroke="black" fill="red"/>
  <circle cx="1085.96" cy="740.372" r="6.17332" stroke-width="0.5" stroke="red" fill="red"/>
   </g>
   <g id="cell18">
  <circle cx="1682.1" cy="203.744" r="8.40516" stroke-width="0.5" stroke="black" fill="red"/>
  <circle cx="1682.1" cy="203.744" r="5.04937" stroke-width="0.5" stroke="red" fill="red"/>
   </g>
   <g id="cell19">
  <circle cx="1641.74" cy="1240.16" r="10.0267" stroke-width="0.5" stroke="black" fill="grey"/>
  <circle cx="1641.74" cy="1240.16" r="6.0816" stroke-width="0.5" stroke="grey" fill="grey"/>
   </g>
  </g>
 </g>
  <rect x="1750" y="2070" width="200" height="20" stroke-width="4" stroke="rgb(255,255,255)" fill="rgb(0,0,0)"/>
  <text x="1762.5" y="2057.5"
   font-family="Arial" font-size="50" fill="black" >
   200 &#956;m
  </text>
  <text x="50" y="2090"
   font-family="Arial" font-size="37.5" fill="black" >
   0 days, 0 hours, 0 minutes, and 33.5279 seconds
  </text>
  <rect x="0" y="140" width="2000" height="2000" stroke-width="4" stroke="rgb(0,0,0)" fill="none"/>
</svg>
