<?xml version="1.0" encoding="UTF-8" standalone="no"?>
<!-- Created with PhysiCell (http://PhysiCell.MathCancer.org/) -->
<svg 
 xmlns:dc="http://purl.org/dc/elements/1.1/" 
 xmlns:cc="http://creativecommons.org/ns#" 
 xmlns:rdf="http://www.w3.org/1999/02/22-rdf-syntax-ns#" 
 xmlns:svg="http://www.w3.org/2000/svg" 
 xmlns="http://www.w3.org/2000/svg" 
 version="1.1" 
 width="2000" 
 height="2140" 
 id="svg2">
  <rect x="0" y="0" width="2000" height="2140" stroke-width="4" stroke="white" fill="white"/>
  <text x="25" y="60"
   font-family="Arial" font-size="50" fill="black" >
   Current time: 2 days, 3 hours, and 0.00 minutes, z = 0.00 &#956;m
  </text>
  <text x="25" y="115"
   font-family="Arial" font-size="47.5" fill="black" >
   45 agents
  </text>
 <g id="tissue" 
    transform="translate(0,2140) scale(1,-1)">
  <g id="ECM">
  </g>
  <g id="cells">
   <g id="cell0">
  <circle cx="1131.12" cy="1175.38" r="8.39071" stroke-width="0.5" stroke="black" fill="grey"/>
  <circle cx="1131.12" cy="1175.38" r="5.04411" stroke-width="0.5" stroke="grey" fill="grey"/>
   </g>
   <g id="cell1">
  <circle cx="1696.88" cy="1208.62" r="10.4096" stroke-width="0.5" stroke="black" fill="grey"/>
  <circle cx="1696.88" cy="1208.62" r="6.28235" stroke-width="0.5" stroke="grey" fill="grey"/>
   </g>
   <g id="cell2">
  <circle cx="1162.26" cy="1762.51" r="8.36167" stroke-width="0.5" stroke="black" fill="grey"/>
  <circle cx="1162.26" cy="1762.51" r="5.03225" stroke-width="0.5" stroke="grey" fill="grey"/>
   </g>
   <g id="cell3">
  <circle cx="1271.84" cy="1315.09" r="8.39192" stroke-width="0.5" stroke="black" fill="grey"/>
  <circle cx="1271.84" cy="1315.09" r="5.04457" stroke-width="0.5" stroke="grey" fill="grey"/>
   </g>
   <g id="cell4">
  <circle cx="856.596" cy="564.611" r="10.5163" stroke-width="0.5" stroke="black" fill="grey"/>
  <circle cx="856.596" cy="564.611" r="6.33212" stroke-width="0.5" stroke="grey" fill="grey"/>
   </g>
   <g id="cell5">
  <circle cx="77.0838" cy="1978.07" r="10.5271" stroke-width="0.5" stroke="black" fill="red"/>
  <circle cx="77.0838" cy="1978.07" r="6.33688" stroke-width="0.5" stroke="red" fill="red"/>
   </g>
   <g id="cell6">
  <circle cx="808.543" cy="850.474" r="8.41139" stroke-width="0.5" stroke="black" fill="red"/>
  <circle cx="808.543" cy="850.474" r="5.05133" stroke-width="0.5" stroke="red" fill="red"/>
   </g>
   <g id="cell19">
  <circle cx="1720.89" cy="1307.86" r="8.39182" stroke-width="0.5" stroke="black" fill="grey"/>
  <circle cx="1720.89" cy="1307.86" r="5.04455" stroke-width="0.5" stroke="grey" fill="grey"/>
   </g>
   <g id="cell18">
  <circle cx="1642.14" cy="320.304" r="10.2894" stroke-width="0.5" stroke="black" fill="red"/>
  <circle cx="1642.14" cy="320.304" r="6.22198" stroke-width="0.5" stroke="red" fill="red"/>
   </g>
   <g id="cell9">
  <circle cx="1645.5" cy="166.517" r="8.36132" stroke-width="0.5" stroke="black" fill="red"/>
  <circle cx="1645.5" cy="166.517" r="5.03216" stroke-width="0.5" stroke="red" fill="red"/>
   </g>
   <g id="cell11">
  <circle cx="1599.09" cy="1085.65" r="8.40709" stroke-width="0.5" stroke="black" fill="red"/>
  <circle cx="1599.09" cy="1085.65" r="5.05002" stroke-width="0.5" stroke="red" fill="red"/>
   </g>
   <g id="cell20">
  <circle cx="825.76" cy="993.213" r="9.77276" stroke-width="0.5" stroke="black" fill="red"/>
  <circle cx="825.76" cy="993.213" r="5.9364" stroke-width="0.5" stroke="red" fill="red"/>
   </g>
   <g id="cell13">
  <circle cx="872.403" cy="583.945" r="10.492" stroke-width="0.5" stroke="black" fill="grey"/>
  <circle cx="872.403" cy="583.945" r="6.32127" stroke-width="0.5" stroke="grey" fill="grey"/>
   </g>
   <g id="cell14">
  <circle cx="1207.74" cy="1301.36" r="10.516" stroke-width="0.5" stroke="black" fill="grey"/>
  <circle cx="1207.74" cy="1301.36" r="6.33205" stroke-width="0.5" stroke="grey" fill="grey"/>
   </g>
   <g id="cell15">
  <circle cx="1136.03" cy="1147.97" r="10.5184" stroke-width="0.5" stroke="black" fill="grey"/>
  <circle cx="1136.03" cy="1147.97" r="6.33309" stroke-width="0.5" stroke="grey" fill="grey"/>
   </g>
   <g id="cell16">
  <circle cx="1168.6" cy="1695.87" r="8.36664" stroke-width="0.5" stroke="black" fill="grey"/>
  <circle cx="1168.6" cy="1695.87" r="5.03444" stroke-width="0.5" stroke="grey" fill="grey"/>
   </g>
   <g id="cell17">
  <circle cx="1100.39" cy="686.962" r="9.70179" stroke-width="0.5" stroke="black" fill="red"/>
  <circle cx="1100.39" cy="686.962" r="5.89421" stroke-width="0.5" stroke="red" fill="red"/>
   </g>
   <g id="cell21">
  <circle cx="1577.51" cy="1019.21" r="8.36842" stroke-width="0.5" stroke="black" fill="red"/>
  <circle cx="1577.51" cy="1019.21" r="5.0351" stroke-width="0.5" stroke="red" fill="red"/>
   </g>
   <g id="cell22">
  <circle cx="1189.61" cy="1724.78" r="10.3323" stroke-width="0.5" stroke="black" fill="grey"/>
  <circle cx="1189.61" cy="1724.78" r="6.24365" stroke-width="0.5" stroke="grey" fill="grey"/>
   </g>
   <g id="cell23">
  <circle cx="1289.52" cy="1293.34" r="10.0653" stroke-width="0.5" stroke="black" fill="grey"/>
  <circle cx="1289.52" cy="1293.34" r="6.10141" stroke-width="0.5" stroke="grey" fill="grey"/>
   </g>
   <g id="cell24">
  <circle cx="1156.66" cy="1224.58" r="8.56116" stroke-width="0.5" stroke="black" fill="grey"/>
  <circle cx="1156.66" cy="1224.58" r="5.16865" stroke-width="0.5" stroke="grey" fill="grey"/>
   </g>
   <g id="cell25">
  <circle cx="1144.94" cy="691.513" r="8.76754" stroke-width="0.5" stroke="black" fill="red"/>
  <circle cx="1144.94" cy="691.513" r="5.3085" stroke-width="0.5" stroke="red" fill="red"/>
   </g>
   <g id="cell26">
  <circle cx="1678.73" cy="1209.98" r="8.42377" stroke-width="0.5" stroke="black" fill="grey"/>
  <circle cx="1678.73" cy="1209.98" r="5.07133" stroke-width="0.5" stroke="grey" fill="grey"/>
   </g>
   <g id="cell27">
  <circle cx="895.302" cy="565.198" r="9.62165" stroke-width="0.5" stroke="black" fill="grey"/>
  <circle cx="895.302" cy="565.198" r="5.84701" stroke-width="0.5" stroke="grey" fill="grey"/>
   </g>
   <g id="cell28">
  <circle cx="90.7051" cy="1951.17" r="10.4528" stroke-width="0.5" stroke="black" fill="red"/>
  <circle cx="90.7051" cy="1951.17" r="6.30304" stroke-width="0.5" stroke="red" fill="red"/>
   </g>
   <g id="cell29">
  <circle cx="1103.07" cy="1087.94" r="8.82137" stroke-width="0.5" stroke="black" fill="grey"/>
  <circle cx="1103.07" cy="1087.94" r="5.35296" stroke-width="0.5" stroke="grey" fill="grey"/>
   </g>
   <g id="cell30">
  <circle cx="906.406" cy="629.532" r="10.4757" stroke-width="0.5" stroke="black" fill="grey"/>
  <circle cx="906.406" cy="629.532" r="6.31377" stroke-width="0.5" stroke="grey" fill="grey"/>
   </g>
   <g id="cell31">
  <circle cx="1192.44" cy="1288.67" r="10.5034" stroke-width="0.5" stroke="black" fill="grey"/>
  <circle cx="1192.44" cy="1288.67" r="6.32644" stroke-width="0.5" stroke="grey" fill="grey"/>
   </g>
   <g id="cell32">
  <circle cx="1638.55" cy="244.18" r="10.415" stroke-width="0.5" stroke="black" fill="red"/>
  <circle cx="1638.55" cy="244.18" r="6.28495" stroke-width="0.5" stroke="red" fill="red"/>
   </g>
   <g id="cell33">
  <circle cx="1672.34" cy="1164.89" r="10.1752" stroke-width="0.5" stroke="black" fill="grey"/>
  <circle cx="1672.34" cy="1164.89" r="6.16143" stroke-width="0.5" stroke="grey" fill="grey"/>
   </g>
   <g id="cell34">
  <circle cx="1157.44" cy="1657.78" r="10.2991" stroke-width="0.5" stroke="black" fill="grey"/>
  <circle cx="1157.44" cy="1657.78" r="6.22679" stroke-width="0.5" stroke="grey" fill="grey"/>
   </g>
   <g id="cell35">
  <circle cx="763.004" cy="869.608" r="10.4094" stroke-width="0.5" stroke="black" fill="red"/>
  <circle cx="763.004" cy="869.608" r="6.28227" stroke-width="0.5" stroke="red" fill="red"/>
   </g>
   <g id="cell36">
  <circle cx="1690.3" cy="300.906" r="10.4086" stroke-width="0.5" stroke="black" fill="red"/>
  <circle cx="1690.3" cy="300.906" r="6.28204" stroke-width="0.5" stroke="red" fill="red"/>
   </g>
   <g id="cell37">
  <circle cx="807.661" cy="936.509" r="10.0306" stroke-width="0.5" stroke="black" fill="red"/>
  <circle cx="807.661" cy="936.509" r="6.08294" stroke-width="0.5" stroke="red" fill="red"/>
   </g>
   <g id="cell38">
  <circle cx="1583.47" cy="1069.9" r="9.86133" stroke-width="0.5" stroke="black" fill="red"/>
  <circle cx="1583.47" cy="1069.9" r="5.98768" stroke-width="0.5" stroke="red" fill="red"/>
   </g>
   <g id="cell39">
  <circle cx="1149.89" cy="1189.95" r="8.39461" stroke-width="0.5" stroke="black" fill="grey"/>
  <circle cx="1149.89" cy="1189.95" r="5.0456" stroke-width="0.5" stroke="grey" fill="grey"/>
   </g>
   <g id="cell40">
  <circle cx="1716.3" cy="1272.76" r="9.42599" stroke-width="0.5" stroke="black" fill="grey"/>
  <circle cx="1716.3" cy="1272.76" r="5.73359" stroke-width="0.5" stroke="grey" fill="grey"/>
   </g>
   <g id="cell41">
  <circle cx="1263.41" cy="1353.95" r="8.39192" stroke-width="0.5" stroke="black" fill="grey"/>
  <circle cx="1263.41" cy="1353.95" r="5.04457" stroke-width="0.5" stroke="grey" fill="grey"/>
   </g>
   <g id="cell42">
  <circle cx="1118.25" cy="1154.03" r="8.49104" stroke-width="0.5" stroke="black" fill="grey"/>
  <circle cx="1118.25" cy="1154.03" r="5.11807" stroke-width="0.5" stroke="grey" fill="grey"/>
   </g>
   <g id="cell43">
  <circle cx="1122.79" cy="1100.59" r="8.38337" stroke-width="0.5" stroke="black" fill="grey"/>
  <circle cx="1122.79" cy="1100.59" r="5.04127" stroke-width="0.5" stroke="grey" fill="grey"/>
   </g>
   <g id="cell44">
  <circle cx="1663.41" cy="1196.27" r="8.38008" stroke-width="0.5" stroke="black" fill="grey"/>
  <circle cx="1663.41" cy="1196.27" r="5.03993" stroke-width="0.5" stroke="grey" fill="grey"/>
   </g>
   <g id="cell45">
  <circle cx="1581.17" cy="1034.17" r="8.36842" stroke-width="0.5" stroke="black" fill="red"/>
  <circle cx="1581.17" cy="1034.17" r="5.0351" stroke-width="0.5" stroke="red" fill="red"/>
   </g>
   <g id="cell46">
  <circle cx="1172.99" cy="1710.03" r="8.36664" stroke-width="0.5" stroke="black" fill="grey"/>
  <circle cx="1172.99" cy="1710.03" r="5.03444" stroke-width="0.5" stroke="grey" fill="grey"/>
   </g>
   <g id="cell47">
  <circle cx="1655.56" cy="177.678" r="8.36132" stroke-width="0.5" stroke="black" fill="red"/>
  <circle cx="1655.56" cy="177.678" r="5.03216" stroke-width="0.5" stroke="red" fill="red"/>
   </g>
   <g id="cell48">
  <circle cx="1147.72" cy="1765.05" r="8.36167" stroke-width="0.5" stroke="black" fill="grey"/>
  <circle cx="1147.72" cy="1765.05" r="5.03225" stroke-width="0.5" stroke="grey" fill="grey"/>
   </g>
  </g>
 </g>
  <rect x="1750" y="2070" width="200" height="20" stroke-width="4" stroke="rgb(255,255,255)" fill="rgb(0,0,0)"/>
  <text x="1762.5" y="2057.5"
   font-family="Arial" font-size="50" fill="black" >
   200 &#956;m
  </text>
  <text x="50" y="2090"
   font-family="Arial" font-size="37.5" fill="black" >
   0 days, 0 hours, 1 minutes, and 6.3867 seconds
  </text>
  <rect x="0" y="140" width="2000" height="2000" stroke-width="4" stroke="rgb(0,0,0)" fill="none"/>
</svg>
