<?xml version="1.0" encoding="UTF-8" standalone="no"?>
<!-- Created with PhysiCell (http://PhysiCell.MathCancer.org/) -->
<svg 
 xmlns:dc="http://purl.org/dc/elements/1.1/" 
 xmlns:cc="http://creativecommons.org/ns#" 
 xmlns:rdf="http://www.w3.org/1999/02/22-rdf-syntax-ns#" 
 xmlns:svg="http://www.w3.org/2000/svg" 
 xmlns="http://www.w3.org/2000/svg" 
 version="1.1" 
 width="2000" 
 height="2140" 
 id="svg2">
  <rect x="0" y="0" width="2000" height="2140" stroke-width="4" stroke="white" fill="white"/>
  <text x="25" y="60"
   font-family="Arial" font-size="50" fill="black" >
   Current time: 0 days, 1 hours, and 40.00 minutes, z = 0.00 &#956;m
  </text>
  <text x="25" y="115"
   font-family="Arial" font-size="47.5" fill="black" >
   100 agents
  </text>
 <g id="tissue" 
    transform="translate(0,2140) scale(1,-1)">
  <g id="ECM">
  </g>
  <g id="cells">
   <g id="cell0">
  <circle cx="1097.49" cy="1183.96" r="8.41271" stroke-width="0.5" stroke="black" fill="grey"/>
  <circle cx="1097.49" cy="1183.96" r="5.05167" stroke-width="0.5" stroke="grey" fill="grey"/>
   </g>
   <g id="cell1">
  <circle cx="1687.9" cy="1194.76" r="8.7678" stroke-width="0.5" stroke="black" fill="grey"/>
  <circle cx="1687.9" cy="1194.76" r="5.30857" stroke-width="0.5" stroke="grey" fill="grey"/>
   </g>
   <g id="cell2">
  <circle cx="1089.02" cy="1700.07" r="8.65127" stroke-width="0.5" stroke="black" fill="grey"/>
  <circle cx="1089.02" cy="1700.07" r="5.2272" stroke-width="0.5" stroke="grey" fill="grey"/>
   </g>
   <g id="cell3">
  <circle cx="1238.32" cy="1296.21" r="8.41271" stroke-width="0.5" stroke="black" fill="grey"/>
  <circle cx="1238.32" cy="1296.21" r="5.05167" stroke-width="0.5" stroke="grey" fill="grey"/>
   </g>
   <g id="cell4">
  <circle cx="889.401" cy="574.858" r="8.41271" stroke-width="0.5" stroke="black" fill="grey"/>
  <circle cx="889.401" cy="574.858" r="5.05167" stroke-width="0.5" stroke="grey" fill="grey"/>
   </g>
   <g id="cell5">
  <circle cx="119.991" cy="1934.73" r="8.41271" stroke-width="0.5" stroke="black" fill="grey"/>
  <circle cx="119.991" cy="1934.73" r="5.05167" stroke-width="0.5" stroke="grey" fill="grey"/>
   </g>
   <g id="cell6">
  <circle cx="758.527" cy="967.765" r="8.41271" stroke-width="0.5" stroke="black" fill="grey"/>
  <circle cx="758.527" cy="967.765" r="5.05167" stroke-width="0.5" stroke="grey" fill="grey"/>
   </g>
   <g id="cell7">
  <circle cx="1624.14" cy="1069.93" r="8.41271" stroke-width="0.5" stroke="black" fill="grey"/>
  <circle cx="1624.14" cy="1069.93" r="5.05167" stroke-width="0.5" stroke="black" fill="black"/>
   </g>
   <g id="cell8">
  <circle cx="1141.02" cy="769.453" r="8.68937" stroke-width="0.5" stroke="black" fill="grey"/>
  <circle cx="1141.02" cy="769.453" r="5.25417" stroke-width="0.5" stroke="grey" fill="grey"/>
   </g>
   <g id="cell9">
  <circle cx="1672.25" cy="146.946" r="8.41271" stroke-width="0.5" stroke="black" fill="grey"/>
  <circle cx="1672.25" cy="146.946" r="5.05167" stroke-width="0.5" stroke="grey" fill="grey"/>
   </g>
   <g id="cell10">
  <circle cx="143.431" cy="1293.37" r="8.65127" stroke-width="0.5" stroke="black" fill="grey"/>
  <circle cx="143.431" cy="1293.37" r="5.2272" stroke-width="0.5" stroke="grey" fill="grey"/>
   </g>
   <g id="cell11">
  <circle cx="742.853" cy="1656.52" r="8.41271" stroke-width="0.5" stroke="black" fill="grey"/>
  <circle cx="742.853" cy="1656.52" r="5.05167" stroke-width="0.5" stroke="grey" fill="grey"/>
   </g>
   <g id="cell12">
  <circle cx="1550.39" cy="266.126" r="8.4325" stroke-width="0.5" stroke="black" fill="grey"/>
  <circle cx="1550.39" cy="266.126" r="5.06552" stroke-width="0.5" stroke="grey" fill="grey"/>
   </g>
   <g id="cell13">
  <circle cx="1738.91" cy="1953.97" r="4.42406" stroke-width="0.5" stroke="black" fill="grey"/>
  <circle cx="1738.91" cy="1953.97" r="3.07758" stroke-width="0.5" stroke="black" fill="black"/>
   </g>
   <g id="cell14">
  <circle cx="1608.39" cy="1613.71" r="8.41271" stroke-width="0.5" stroke="black" fill="grey"/>
  <circle cx="1608.39" cy="1613.71" r="5.05167" stroke-width="0.5" stroke="grey" fill="grey"/>
   </g>
   <g id="cell15">
  <circle cx="1043.38" cy="1562.39" r="3.55736" stroke-width="0.5" stroke="black" fill="grey"/>
  <circle cx="1043.38" cy="1562.39" r="2.70449" stroke-width="0.5" stroke="black" fill="black"/>
   </g>
   <g id="cell16">
  <circle cx="218.08" cy="1429.96" r="4.90029" stroke-width="0.5" stroke="black" fill="grey"/>
  <circle cx="218.08" cy="1429.96" r="3.29037" stroke-width="0.5" stroke="black" fill="black"/>
   </g>
   <g id="cell17">
  <circle cx="1167.49" cy="288.145" r="4.90029" stroke-width="0.5" stroke="black" fill="grey"/>
  <circle cx="1167.49" cy="288.145" r="3.29037" stroke-width="0.5" stroke="black" fill="black"/>
   </g>
   <g id="cell18">
  <circle cx="1891.01" cy="1526.07" r="8.80772" stroke-width="0.5" stroke="black" fill="grey"/>
  <circle cx="1891.01" cy="1526.07" r="5.33574" stroke-width="0.5" stroke="grey" fill="grey"/>
   </g>
   <g id="cell19">
  <circle cx="208.069" cy="824.495" r="4.42406" stroke-width="0.5" stroke="black" fill="grey"/>
  <circle cx="208.069" cy="824.495" r="3.07758" stroke-width="0.5" stroke="black" fill="black"/>
   </g>
   <g id="cell20">
  <circle cx="516.541" cy="374.364" r="8.41271" stroke-width="0.5" stroke="black" fill="grey"/>
  <circle cx="516.541" cy="374.364" r="5.05167" stroke-width="0.5" stroke="grey" fill="grey"/>
   </g>
   <g id="cell21">
  <circle cx="1474.4" cy="911.187" r="8.9283" stroke-width="0.5" stroke="black" fill="grey"/>
  <circle cx="1474.4" cy="911.187" r="5.4161" stroke-width="0.5" stroke="grey" fill="grey"/>
   </g>
   <g id="cell22">
  <circle cx="1157.07" cy="272.54" r="8.41271" stroke-width="0.5" stroke="black" fill="grey"/>
  <circle cx="1157.07" cy="272.54" r="5.05167" stroke-width="0.5" stroke="grey" fill="grey"/>
   </g>
   <g id="cell23">
  <circle cx="665.921" cy="1249.86" r="8.41271" stroke-width="0.5" stroke="black" fill="grey"/>
  <circle cx="665.921" cy="1249.86" r="5.05167" stroke-width="0.5" stroke="grey" fill="grey"/>
   </g>
   <g id="cell24">
  <circle cx="1236.11" cy="442.165" r="8.41271" stroke-width="0.5" stroke="black" fill="grey"/>
  <circle cx="1236.11" cy="442.165" r="5.05167" stroke-width="0.5" stroke="grey" fill="grey"/>
   </g>
   <g id="cell25">
  <circle cx="756.501" cy="1872.69" r="8.88811" stroke-width="0.5" stroke="black" fill="grey"/>
  <circle cx="756.501" cy="1872.69" r="5.38958" stroke-width="0.5" stroke="grey" fill="grey"/>
   </g>
   <g id="cell26">
  <circle cx="1365.4" cy="903.371" r="4.90029" stroke-width="0.5" stroke="black" fill="grey"/>
  <circle cx="1365.4" cy="903.371" r="3.29037" stroke-width="0.5" stroke="black" fill="black"/>
   </g>
   <g id="cell27">
  <circle cx="1236.76" cy="859.056" r="8.96831" stroke-width="0.5" stroke="black" fill="grey"/>
  <circle cx="1236.76" cy="859.056" r="5.44228" stroke-width="0.5" stroke="grey" fill="grey"/>
   </g>
   <g id="cell28">
  <circle cx="1377.17" cy="194.537" r="8.41271" stroke-width="0.5" stroke="black" fill="grey"/>
  <circle cx="1377.17" cy="194.537" r="5.05167" stroke-width="0.5" stroke="grey" fill="grey"/>
   </g>
   <g id="cell29">
  <circle cx="1940.4" cy="1335.58" r="8.41271" stroke-width="0.5" stroke="black" fill="grey"/>
  <circle cx="1940.4" cy="1335.58" r="5.05167" stroke-width="0.5" stroke="grey" fill="grey"/>
   </g>
   <g id="cell30">
  <circle cx="1351.92" cy="333.722" r="8.41271" stroke-width="0.5" stroke="black" fill="grey"/>
  <circle cx="1351.92" cy="333.722" r="5.05167" stroke-width="0.5" stroke="grey" fill="grey"/>
   </g>
   <g id="cell31">
  <circle cx="728.112" cy="271.119" r="8.41271" stroke-width="0.5" stroke="black" fill="grey"/>
  <circle cx="728.112" cy="271.119" r="5.05167" stroke-width="0.5" stroke="grey" fill="grey"/>
   </g>
   <g id="cell32">
  <circle cx="629.311" cy="1219.92" r="8.41271" stroke-width="0.5" stroke="black" fill="grey"/>
  <circle cx="629.311" cy="1219.92" r="5.05167" stroke-width="0.5" stroke="grey" fill="grey"/>
   </g>
   <g id="cell33">
  <circle cx="644.064" cy="1136.16" r="8.41271" stroke-width="0.5" stroke="black" fill="grey"/>
  <circle cx="644.064" cy="1136.16" r="5.05167" stroke-width="0.5" stroke="grey" fill="grey"/>
   </g>
   <g id="cell34">
  <circle cx="887.705" cy="1271.43" r="8.41271" stroke-width="0.5" stroke="black" fill="grey"/>
  <circle cx="887.705" cy="1271.43" r="5.05167" stroke-width="0.5" stroke="grey" fill="grey"/>
   </g>
   <g id="cell35">
  <circle cx="1916.84" cy="218.778" r="8.41271" stroke-width="0.5" stroke="black" fill="grey"/>
  <circle cx="1916.84" cy="218.778" r="5.05167" stroke-width="0.5" stroke="grey" fill="grey"/>
   </g>
   <g id="cell36">
  <circle cx="412.215" cy="1268.31" r="8.41271" stroke-width="0.5" stroke="black" fill="grey"/>
  <circle cx="412.215" cy="1268.31" r="5.05167" stroke-width="0.5" stroke="grey" fill="grey"/>
   </g>
   <g id="cell37">
  <circle cx="1980.51" cy="1312.13" r="8.41271" stroke-width="0.5" stroke="black" fill="grey"/>
  <circle cx="1980.51" cy="1312.13" r="5.05167" stroke-width="0.5" stroke="grey" fill="grey"/>
   </g>
   <g id="cell38">
  <circle cx="495.138" cy="820.718" r="8.41271" stroke-width="0.5" stroke="black" fill="grey"/>
  <circle cx="495.138" cy="820.718" r="5.05167" stroke-width="0.5" stroke="grey" fill="grey"/>
   </g>
   <g id="cell39">
  <circle cx="965.349" cy="496.401" r="8.41271" stroke-width="0.5" stroke="black" fill="grey"/>
  <circle cx="965.349" cy="496.401" r="5.05167" stroke-width="0.5" stroke="grey" fill="grey"/>
   </g>
   <g id="cell40">
  <circle cx="312.684" cy="690.45" r="8.41271" stroke-width="0.5" stroke="black" fill="grey"/>
  <circle cx="312.684" cy="690.45" r="5.05167" stroke-width="0.5" stroke="grey" fill="grey"/>
   </g>
   <g id="cell41">
  <circle cx="1353.17" cy="1311.34" r="8.57856" stroke-width="0.5" stroke="black" fill="grey"/>
  <circle cx="1353.17" cy="1311.34" r="5.17461" stroke-width="0.5" stroke="grey" fill="grey"/>
   </g>
   <g id="cell42">
  <circle cx="285.449" cy="1559.1" r="3.8195" stroke-width="0.5" stroke="black" fill="grey"/>
  <circle cx="285.449" cy="1559.1" r="2.8287" stroke-width="0.5" stroke="black" fill="black"/>
   </g>
   <g id="cell43">
  <circle cx="1879.77" cy="723.546" r="8.41271" stroke-width="0.5" stroke="black" fill="grey"/>
  <circle cx="1879.77" cy="723.546" r="5.05167" stroke-width="0.5" stroke="grey" fill="grey"/>
   </g>
   <g id="cell44">
  <circle cx="1630.48" cy="34.6663" r="8.41271" stroke-width="0.5" stroke="black" fill="grey"/>
  <circle cx="1630.48" cy="34.6663" r="5.05167" stroke-width="0.5" stroke="grey" fill="grey"/>
   </g>
   <g id="cell45">
  <circle cx="1242.85" cy="1671.73" r="8.41271" stroke-width="0.5" stroke="black" fill="grey"/>
  <circle cx="1242.85" cy="1671.73" r="5.05167" stroke-width="0.5" stroke="grey" fill="grey"/>
   </g>
   <g id="cell46">
  <circle cx="174.929" cy="1913.22" r="8.88811" stroke-width="0.5" stroke="black" fill="grey"/>
  <circle cx="174.929" cy="1913.22" r="5.38958" stroke-width="0.5" stroke="grey" fill="grey"/>
   </g>
   <g id="cell47">
  <circle cx="1762.78" cy="912.106" r="8.48289" stroke-width="0.5" stroke="black" fill="grey"/>
  <circle cx="1762.78" cy="912.106" r="5.10317" stroke-width="0.5" stroke="grey" fill="grey"/>
   </g>
   <g id="cell48">
  <circle cx="1956.03" cy="100.739" r="4.42406" stroke-width="0.5" stroke="black" fill="grey"/>
  <circle cx="1956.03" cy="100.739" r="3.07758" stroke-width="0.5" stroke="black" fill="black"/>
   </g>
   <g id="cell49">
  <circle cx="897.167" cy="1476.06" r="8.96831" stroke-width="0.5" stroke="black" fill="grey"/>
  <circle cx="897.167" cy="1476.06" r="5.44228" stroke-width="0.5" stroke="grey" fill="grey"/>
   </g>
   <g id="cell50">
  <circle cx="70.2142" cy="888.043" r="8.88811" stroke-width="0.5" stroke="black" fill="red"/>
  <circle cx="70.2142" cy="888.043" r="5.38958" stroke-width="0.5" stroke="red" fill="red"/>
   </g>
   <g id="cell51">
  <circle cx="1962.59" cy="240.117" r="8.65127" stroke-width="0.5" stroke="black" fill="red"/>
  <circle cx="1962.59" cy="240.117" r="5.2272" stroke-width="0.5" stroke="red" fill="red"/>
   </g>
   <g id="cell52">
  <circle cx="600.534" cy="978.004" r="8.41271" stroke-width="0.5" stroke="black" fill="red"/>
  <circle cx="600.534" cy="978.004" r="5.05167" stroke-width="0.5" stroke="red" fill="red"/>
   </g>
   <g id="cell53">
  <circle cx="1368.4" cy="646.63" r="8.41271" stroke-width="0.5" stroke="black" fill="red"/>
  <circle cx="1368.4" cy="646.63" r="5.05167" stroke-width="0.5" stroke="red" fill="red"/>
   </g>
   <g id="cell54">
  <circle cx="827.858" cy="1854.96" r="8.41271" stroke-width="0.5" stroke="black" fill="red"/>
  <circle cx="827.858" cy="1854.96" r="5.05167" stroke-width="0.5" stroke="red" fill="red"/>
   </g>
   <g id="cell55">
  <circle cx="424.729" cy="1387.87" r="8.88811" stroke-width="0.5" stroke="black" fill="red"/>
  <circle cx="424.729" cy="1387.87" r="5.38958" stroke-width="0.5" stroke="red" fill="red"/>
   </g>
   <g id="cell56">
  <circle cx="1123.52" cy="1729.35" r="8.41271" stroke-width="0.5" stroke="black" fill="red"/>
  <circle cx="1123.52" cy="1729.35" r="5.05167" stroke-width="0.5" stroke="red" fill="red"/>
   </g>
   <g id="cell57">
  <circle cx="1013.23" cy="1043.33" r="8.80772" stroke-width="0.5" stroke="black" fill="red"/>
  <circle cx="1013.23" cy="1043.33" r="5.33574" stroke-width="0.5" stroke="red" fill="red"/>
   </g>
   <g id="cell58">
  <circle cx="187.881" cy="1842.32" r="3.45715" stroke-width="0.5" stroke="black" fill="red"/>
  <circle cx="187.881" cy="1842.32" r="2.66266" stroke-width="0.5" stroke="black" fill="black"/>
   </g>
   <g id="cell59">
  <circle cx="163.005" cy="1867.08" r="8.41271" stroke-width="0.5" stroke="black" fill="red"/>
  <circle cx="163.005" cy="1867.08" r="5.05167" stroke-width="0.5" stroke="red" fill="red"/>
   </g>
   <g id="cell60">
  <circle cx="639.653" cy="16.1905" r="8.41271" stroke-width="0.5" stroke="black" fill="red"/>
  <circle cx="639.653" cy="16.1905" r="5.05167" stroke-width="0.5" stroke="red" fill="red"/>
   </g>
   <g id="cell61">
  <circle cx="1686.19" cy="272.542" r="8.41271" stroke-width="0.5" stroke="black" fill="red"/>
  <circle cx="1686.19" cy="272.542" r="5.05167" stroke-width="0.5" stroke="red" fill="red"/>
   </g>
   <g id="cell62">
  <circle cx="1442.71" cy="1676.28" r="8.41271" stroke-width="0.5" stroke="black" fill="red"/>
  <circle cx="1442.71" cy="1676.28" r="5.05167" stroke-width="0.5" stroke="red" fill="red"/>
   </g>
   <g id="cell63">
  <circle cx="536.596" cy="361.563" r="8.41271" stroke-width="0.5" stroke="black" fill="red"/>
  <circle cx="536.596" cy="361.563" r="5.05167" stroke-width="0.5" stroke="red" fill="red"/>
   </g>
   <g id="cell64">
  <circle cx="1158.52" cy="1111.03" r="8.41271" stroke-width="0.5" stroke="black" fill="red"/>
  <circle cx="1158.52" cy="1111.03" r="5.05167" stroke-width="0.5" stroke="red" fill="red"/>
   </g>
   <g id="cell65">
  <circle cx="325.673" cy="1662.48" r="8.41271" stroke-width="0.5" stroke="black" fill="red"/>
  <circle cx="325.673" cy="1662.48" r="5.05167" stroke-width="0.5" stroke="red" fill="red"/>
   </g>
   <g id="cell66">
  <circle cx="13.0385" cy="305.017" r="8.41271" stroke-width="0.5" stroke="black" fill="red"/>
  <circle cx="13.0385" cy="305.017" r="5.05167" stroke-width="0.5" stroke="red" fill="red"/>
   </g>
   <g id="cell67">
  <circle cx="1131.59" cy="556.064" r="8.41271" stroke-width="0.5" stroke="black" fill="red"/>
  <circle cx="1131.59" cy="556.064" r="5.05167" stroke-width="0.5" stroke="red" fill="red"/>
   </g>
   <g id="cell68">
  <circle cx="1464.65" cy="572.533" r="8.41271" stroke-width="0.5" stroke="black" fill="red"/>
  <circle cx="1464.65" cy="572.533" r="5.05167" stroke-width="0.5" stroke="red" fill="red"/>
   </g>
   <g id="cell69">
  <circle cx="843.823" cy="501.873" r="8.41271" stroke-width="0.5" stroke="black" fill="red"/>
  <circle cx="843.823" cy="501.873" r="5.05167" stroke-width="0.5" stroke="red" fill="red"/>
   </g>
   <g id="cell70">
  <circle cx="1151.84" cy="801.513" r="8.41271" stroke-width="0.5" stroke="black" fill="red"/>
  <circle cx="1151.84" cy="801.513" r="5.05167" stroke-width="0.5" stroke="red" fill="red"/>
   </g>
   <g id="cell71">
  <circle cx="1780.31" cy="1135.87" r="8.41271" stroke-width="0.5" stroke="black" fill="red"/>
  <circle cx="1780.31" cy="1135.87" r="5.05167" stroke-width="0.5" stroke="red" fill="red"/>
   </g>
   <g id="cell72">
  <circle cx="436.14" cy="1777.06" r="8.41271" stroke-width="0.5" stroke="black" fill="red"/>
  <circle cx="436.14" cy="1777.06" r="5.05167" stroke-width="0.5" stroke="red" fill="red"/>
   </g>
   <g id="cell73">
  <circle cx="1368.06" cy="878.911" r="8.41271" stroke-width="0.5" stroke="black" fill="red"/>
  <circle cx="1368.06" cy="878.911" r="5.05167" stroke-width="0.5" stroke="red" fill="red"/>
   </g>
   <g id="cell74">
  <circle cx="1700.64" cy="1944.65" r="8.41271" stroke-width="0.5" stroke="black" fill="red"/>
  <circle cx="1700.64" cy="1944.65" r="5.05167" stroke-width="0.5" stroke="red" fill="red"/>
   </g>
   <g id="cell75">
  <circle cx="225.499" cy="600.029" r="8.9283" stroke-width="0.5" stroke="black" fill="red"/>
  <circle cx="225.499" cy="600.029" r="5.4161" stroke-width="0.5" stroke="red" fill="red"/>
   </g>
   <g id="cell76">
  <circle cx="1623.7" cy="836.376" r="8.41271" stroke-width="0.5" stroke="black" fill="red"/>
  <circle cx="1623.7" cy="836.376" r="5.05167" stroke-width="0.5" stroke="red" fill="red"/>
   </g>
   <g id="cell77">
  <circle cx="1345.41" cy="1758.98" r="8.41271" stroke-width="0.5" stroke="black" fill="red"/>
  <circle cx="1345.41" cy="1758.98" r="5.05167" stroke-width="0.5" stroke="red" fill="red"/>
   </g>
   <g id="cell78">
  <circle cx="1170.12" cy="625.357" r="8.41271" stroke-width="0.5" stroke="black" fill="red"/>
  <circle cx="1170.12" cy="625.357" r="5.05167" stroke-width="0.5" stroke="red" fill="red"/>
   </g>
   <g id="cell79">
  <circle cx="1924.44" cy="1379.35" r="8.41271" stroke-width="0.5" stroke="black" fill="red"/>
  <circle cx="1924.44" cy="1379.35" r="5.05167" stroke-width="0.5" stroke="red" fill="red"/>
   </g>
   <g id="cell80">
  <circle cx="1449.03" cy="1311.65" r="8.41271" stroke-width="0.5" stroke="black" fill="red"/>
  <circle cx="1449.03" cy="1311.65" r="5.05167" stroke-width="0.5" stroke="red" fill="red"/>
   </g>
   <g id="cell81">
  <circle cx="1067.76" cy="1918.6" r="8.41271" stroke-width="0.5" stroke="black" fill="red"/>
  <circle cx="1067.76" cy="1918.6" r="5.05167" stroke-width="0.5" stroke="red" fill="red"/>
   </g>
   <g id="cell82">
  <circle cx="1294.38" cy="780.841" r="8.41271" stroke-width="0.5" stroke="black" fill="red"/>
  <circle cx="1294.38" cy="780.841" r="5.05167" stroke-width="0.5" stroke="red" fill="red"/>
   </g>
   <g id="cell83">
  <circle cx="1244.31" cy="1211.91" r="8.41271" stroke-width="0.5" stroke="black" fill="red"/>
  <circle cx="1244.31" cy="1211.91" r="5.05167" stroke-width="0.5" stroke="red" fill="red"/>
   </g>
   <g id="cell84">
  <circle cx="20.4444" cy="958.363" r="8.41271" stroke-width="0.5" stroke="black" fill="red"/>
  <circle cx="20.4444" cy="958.363" r="5.05167" stroke-width="0.5" stroke="red" fill="red"/>
   </g>
   <g id="cell85">
  <circle cx="1432.06" cy="1320.2" r="8.41271" stroke-width="0.5" stroke="black" fill="red"/>
  <circle cx="1432.06" cy="1320.2" r="5.05167" stroke-width="0.5" stroke="red" fill="red"/>
   </g>
   <g id="cell86">
  <circle cx="579.635" cy="754.483" r="8.41271" stroke-width="0.5" stroke="black" fill="red"/>
  <circle cx="579.635" cy="754.483" r="5.05167" stroke-width="0.5" stroke="red" fill="red"/>
   </g>
   <g id="cell87">
  <circle cx="1483.1" cy="851.662" r="8.72828" stroke-width="0.5" stroke="black" fill="red"/>
  <circle cx="1483.1" cy="851.662" r="5.28134" stroke-width="0.5" stroke="red" fill="red"/>
   </g>
   <g id="cell88">
  <circle cx="278.646" cy="184.027" r="8.41271" stroke-width="0.5" stroke="black" fill="red"/>
  <circle cx="278.646" cy="184.027" r="5.05167" stroke-width="0.5" stroke="red" fill="red"/>
   </g>
   <g id="cell89">
  <circle cx="197.562" cy="1153.04" r="8.41271" stroke-width="0.5" stroke="black" fill="red"/>
  <circle cx="197.562" cy="1153.04" r="5.05167" stroke-width="0.5" stroke="red" fill="red"/>
   </g>
   <g id="cell90">
  <circle cx="1194.87" cy="1102.08" r="8.41271" stroke-width="0.5" stroke="black" fill="red"/>
  <circle cx="1194.87" cy="1102.08" r="5.05167" stroke-width="0.5" stroke="red" fill="red"/>
   </g>
   <g id="cell91">
  <circle cx="59.1798" cy="1302.27" r="8.57856" stroke-width="0.5" stroke="black" fill="red"/>
  <circle cx="59.1798" cy="1302.27" r="5.17461" stroke-width="0.5" stroke="red" fill="red"/>
   </g>
   <g id="cell92">
  <circle cx="1294.35" cy="637.855" r="8.72828" stroke-width="0.5" stroke="black" fill="red"/>
  <circle cx="1294.35" cy="637.855" r="5.28134" stroke-width="0.5" stroke="red" fill="red"/>
   </g>
   <g id="cell93">
  <circle cx="443.206" cy="1803.6" r="8.96831" stroke-width="0.5" stroke="black" fill="red"/>
  <circle cx="443.206" cy="1803.6" r="5.44228" stroke-width="0.5" stroke="red" fill="red"/>
   </g>
   <g id="cell94">
  <circle cx="742.163" cy="197.443" r="8.96831" stroke-width="0.5" stroke="black" fill="red"/>
  <circle cx="742.163" cy="197.443" r="5.44228" stroke-width="0.5" stroke="red" fill="red"/>
   </g>
   <g id="cell95">
  <circle cx="1964.01" cy="1781.15" r="8.41271" stroke-width="0.5" stroke="black" fill="red"/>
  <circle cx="1964.01" cy="1781.15" r="5.05167" stroke-width="0.5" stroke="red" fill="red"/>
   </g>
   <g id="cell96">
  <circle cx="1611.93" cy="1082.12" r="8.9283" stroke-width="0.5" stroke="black" fill="red"/>
  <circle cx="1611.93" cy="1082.12" r="5.4161" stroke-width="0.5" stroke="red" fill="red"/>
   </g>
   <g id="cell97">
  <circle cx="879.391" cy="206.932" r="8.41271" stroke-width="0.5" stroke="black" fill="red"/>
  <circle cx="879.391" cy="206.932" r="5.05167" stroke-width="0.5" stroke="red" fill="red"/>
   </g>
   <g id="cell98">
  <circle cx="1835.85" cy="695.813" r="8.84788" stroke-width="0.5" stroke="black" fill="red"/>
  <circle cx="1835.85" cy="695.813" r="5.36278" stroke-width="0.5" stroke="red" fill="red"/>
   </g>
   <g id="cell99">
  <circle cx="926.584" cy="1992.08" r="8.41271" stroke-width="0.5" stroke="black" fill="red"/>
  <circle cx="926.584" cy="1992.08" r="5.05167" stroke-width="0.5" stroke="red" fill="red"/>
   </g>
  </g>
 </g>
  <rect x="1750" y="2070" width="200" height="20" stroke-width="4" stroke="rgb(255,255,255)" fill="rgb(0,0,0)"/>
  <text x="1762.5" y="2057.5"
   font-family="Arial" font-size="50" fill="black" >
   200 &#956;m
  </text>
  <text x="50" y="2090"
   font-family="Arial" font-size="37.5" fill="black" >
   0 days, 0 hours, 0 minutes, and 2.4597 seconds
  </text>
  <rect x="0" y="140" width="2000" height="2000" stroke-width="4" stroke="rgb(0,0,0)" fill="none"/>
</svg>
