<?xml version="1.0" encoding="UTF-8" standalone="no"?>
<!-- Created with PhysiCell (http://PhysiCell.MathCancer.org/) -->
<svg 
 xmlns:dc="http://purl.org/dc/elements/1.1/" 
 xmlns:cc="http://creativecommons.org/ns#" 
 xmlns:rdf="http://www.w3.org/1999/02/22-rdf-syntax-ns#" 
 xmlns:svg="http://www.w3.org/2000/svg" 
 xmlns="http://www.w3.org/2000/svg" 
 version="1.1" 
 width="2000" 
 height="2140" 
 id="svg2">
  <rect x="0" y="0" width="2000" height="2140" stroke-width="4" stroke="white" fill="white"/>
  <text x="25" y="60"
   font-family="Arial" font-size="50" fill="black" >
   Current time: 0 days, 19 hours, and 0.00 minutes, z = 0.00 &#956;m
  </text>
  <text x="25" y="115"
   font-family="Arial" font-size="47.5" fill="black" >
   154 agents
  </text>
 <g id="tissue" 
    transform="translate(0,2140) scale(1,-1)">
  <g id="ECM">
  </g>
  <g id="cells">
   <g id="cell104">
  <circle cx="769.677" cy="1658.71" r="8.403" stroke-width="0.5" stroke="black" fill="grey"/>
  <circle cx="769.677" cy="1658.71" r="5.04863" stroke-width="0.5" stroke="grey" fill="grey"/>
   </g>
   <g id="cell1">
  <circle cx="1724.5" cy="1232.81" r="10.5233" stroke-width="0.5" stroke="black" fill="grey"/>
  <circle cx="1724.5" cy="1232.81" r="6.33514" stroke-width="0.5" stroke="grey" fill="grey"/>
   </g>
   <g id="cell2">
  <circle cx="1100.62" cy="1676.32" r="10.4613" stroke-width="0.5" stroke="black" fill="grey"/>
  <circle cx="1100.62" cy="1676.32" r="6.30695" stroke-width="0.5" stroke="grey" fill="grey"/>
   </g>
   <g id="cell3">
  <circle cx="1282.57" cy="1306.24" r="9.43394" stroke-width="0.5" stroke="black" fill="grey"/>
  <circle cx="1282.57" cy="1306.24" r="5.73663" stroke-width="0.5" stroke="grey" fill="grey"/>
   </g>
   <g id="cell4">
  <circle cx="885.587" cy="549.866" r="10.5039" stroke-width="0.5" stroke="black" fill="grey"/>
  <circle cx="885.587" cy="549.866" r="6.32657" stroke-width="0.5" stroke="grey" fill="grey"/>
   </g>
   <g id="cell5">
  <circle cx="100.087" cy="1931.42" r="10.1634" stroke-width="0.5" stroke="black" fill="grey"/>
  <circle cx="100.087" cy="1931.42" r="6.1549" stroke-width="0.5" stroke="grey" fill="grey"/>
   </g>
   <g id="cell6">
  <circle cx="693.805" cy="979.098" r="8.40244" stroke-width="0.5" stroke="black" fill="grey"/>
  <circle cx="693.805" cy="979.098" r="5.04843" stroke-width="0.5" stroke="grey" fill="grey"/>
   </g>
   <g id="cell7">
  <circle cx="1616.63" cy="1032.88" r="8.6789" stroke-width="0.5" stroke="black" fill="grey"/>
  <circle cx="1616.63" cy="1032.88" r="5.25069" stroke-width="0.5" stroke="grey" fill="grey"/>
   </g>
   <g id="cell8">
  <circle cx="1136.44" cy="777.81" r="8.94852" stroke-width="0.5" stroke="black" fill="grey"/>
  <circle cx="1136.44" cy="777.81" r="5.43508" stroke-width="0.5" stroke="grey" fill="grey"/>
   </g>
   <g id="cell9">
  <circle cx="1669.63" cy="156.037" r="10.5275" stroke-width="0.5" stroke="black" fill="grey"/>
  <circle cx="1669.63" cy="156.037" r="6.33696" stroke-width="0.5" stroke="grey" fill="grey"/>
   </g>
   <g id="cell10">
  <circle cx="193.442" cy="1294.78" r="10.4726" stroke-width="0.5" stroke="black" fill="grey"/>
  <circle cx="193.442" cy="1294.78" r="6.31223" stroke-width="0.5" stroke="grey" fill="grey"/>
   </g>
   <g id="cell11">
  <circle cx="744.722" cy="1676.61" r="9.58644" stroke-width="0.5" stroke="black" fill="grey"/>
  <circle cx="744.722" cy="1676.61" r="5.82794" stroke-width="0.5" stroke="grey" fill="grey"/>
   </g>
   <g id="cell12">
  <circle cx="1546.64" cy="303.756" r="10.5275" stroke-width="0.5" stroke="black" fill="grey"/>
  <circle cx="1546.64" cy="303.756" r="6.33696" stroke-width="0.5" stroke="grey" fill="grey"/>
   </g>
   <g id="cell13">
  <circle cx="1752.29" cy="1958.53" r="8.39473" stroke-width="0.5" stroke="black" fill="grey"/>
  <circle cx="1752.29" cy="1958.53" r="5.04562" stroke-width="0.5" stroke="grey" fill="grey"/>
   </g>
   <g id="cell14">
  <circle cx="1527.01" cy="1560.89" r="10.5189" stroke-width="0.5" stroke="black" fill="grey"/>
  <circle cx="1527.01" cy="1560.89" r="6.3332" stroke-width="0.5" stroke="grey" fill="grey"/>
   </g>
   <g id="cell15">
  <circle cx="1036.59" cy="1524.61" r="10.3933" stroke-width="0.5" stroke="black" fill="grey"/>
  <circle cx="1036.59" cy="1524.61" r="6.27417" stroke-width="0.5" stroke="grey" fill="grey"/>
   </g>
   <g id="cell16">
  <circle cx="213.433" cy="1469" r="8.95532" stroke-width="0.5" stroke="black" fill="grey"/>
  <circle cx="213.433" cy="1469" r="5.43774" stroke-width="0.5" stroke="grey" fill="grey"/>
   </g>
   <g id="cell17">
  <circle cx="1126.6" cy="314.708" r="10.5142" stroke-width="0.5" stroke="black" fill="grey"/>
  <circle cx="1126.6" cy="314.708" r="6.33113" stroke-width="0.5" stroke="grey" fill="grey"/>
   </g>
   <g id="cell18">
  <circle cx="1856.97" cy="1525.6" r="9.9566" stroke-width="0.5" stroke="black" fill="grey"/>
  <circle cx="1856.97" cy="1525.6" r="6.04251" stroke-width="0.5" stroke="grey" fill="grey"/>
   </g>
   <g id="cell19">
  <circle cx="203.154" cy="850.237" r="10.5117" stroke-width="0.5" stroke="black" fill="grey"/>
  <circle cx="203.154" cy="850.237" r="6.33005" stroke-width="0.5" stroke="grey" fill="grey"/>
   </g>
   <g id="cell20">
  <circle cx="524.241" cy="408.642" r="8.38118" stroke-width="0.5" stroke="black" fill="grey"/>
  <circle cx="524.241" cy="408.642" r="5.04034" stroke-width="0.5" stroke="grey" fill="grey"/>
   </g>
   <g id="cell21">
  <circle cx="1454.36" cy="919.805" r="8.38972" stroke-width="0.5" stroke="black" fill="grey"/>
  <circle cx="1454.36" cy="919.805" r="5.04957" stroke-width="0.5" stroke="grey" fill="grey"/>
   </g>
   <g id="cell22">
  <circle cx="1093" cy="233.859" r="8.44531" stroke-width="0.5" stroke="black" fill="grey"/>
  <circle cx="1093" cy="233.859" r="5.07954" stroke-width="0.5" stroke="grey" fill="grey"/>
   </g>
   <g id="cell23">
  <circle cx="650.369" cy="1232.18" r="8.49288" stroke-width="0.5" stroke="black" fill="grey"/>
  <circle cx="650.369" cy="1232.18" r="5.11876" stroke-width="0.5" stroke="grey" fill="grey"/>
   </g>
   <g id="cell24">
  <circle cx="1229.8" cy="429.17" r="8.38532" stroke-width="0.5" stroke="black" fill="grey"/>
  <circle cx="1229.8" cy="429.17" r="5.04199" stroke-width="0.5" stroke="grey" fill="grey"/>
   </g>
   <g id="cell25">
  <circle cx="710.656" cy="1898.48" r="10.4955" stroke-width="0.5" stroke="black" fill="grey"/>
  <circle cx="710.656" cy="1898.48" r="6.32275" stroke-width="0.5" stroke="grey" fill="grey"/>
   </g>
   <g id="cell26">
  <circle cx="1347.93" cy="902.515" r="8.3926" stroke-width="0.5" stroke="black" fill="grey"/>
  <circle cx="1347.93" cy="902.515" r="5.04482" stroke-width="0.5" stroke="grey" fill="grey"/>
   </g>
   <g id="cell27">
  <circle cx="1193.83" cy="869.631" r="10.3325" stroke-width="0.5" stroke="black" fill="grey"/>
  <circle cx="1193.83" cy="869.631" r="6.24369" stroke-width="0.5" stroke="grey" fill="grey"/>
   </g>
   <g id="cell28">
  <circle cx="1363.14" cy="183.647" r="9.07185" stroke-width="0.5" stroke="black" fill="grey"/>
  <circle cx="1363.14" cy="183.647" r="5.5132" stroke-width="0.5" stroke="grey" fill="grey"/>
   </g>
   <g id="cell29">
  <circle cx="1912.45" cy="1300.58" r="8.83627" stroke-width="0.5" stroke="black" fill="grey"/>
  <circle cx="1912.45" cy="1300.58" r="5.3588" stroke-width="0.5" stroke="grey" fill="grey"/>
   </g>
   <g id="cell30">
  <circle cx="1381.57" cy="348.17" r="8.38028" stroke-width="0.5" stroke="black" fill="grey"/>
  <circle cx="1381.57" cy="348.17" r="5.03997" stroke-width="0.5" stroke="grey" fill="grey"/>
   </g>
   <g id="cell31">
  <circle cx="731.944" cy="293.555" r="8.39083" stroke-width="0.5" stroke="black" fill="grey"/>
  <circle cx="731.944" cy="293.555" r="5.04414" stroke-width="0.5" stroke="grey" fill="grey"/>
   </g>
   <g id="cell32">
  <circle cx="651.706" cy="1139.25" r="10.4955" stroke-width="0.5" stroke="black" fill="grey"/>
  <circle cx="651.706" cy="1139.25" r="6.32275" stroke-width="0.5" stroke="grey" fill="grey"/>
   </g>
   <g id="cell33">
  <circle cx="657.999" cy="1194.38" r="9.89897" stroke-width="0.5" stroke="black" fill="grey"/>
  <circle cx="657.999" cy="1194.38" r="6.00992" stroke-width="0.5" stroke="grey" fill="grey"/>
   </g>
   <g id="cell34">
  <circle cx="901.336" cy="1256.81" r="9.66735" stroke-width="0.5" stroke="black" fill="grey"/>
  <circle cx="901.336" cy="1256.81" r="5.87608" stroke-width="0.5" stroke="grey" fill="grey"/>
   </g>
   <g id="cell35">
  <circle cx="1893.76" cy="193.715" r="8.36722" stroke-width="0.5" stroke="black" fill="grey"/>
  <circle cx="1893.76" cy="193.715" r="5.03458" stroke-width="0.5" stroke="grey" fill="grey"/>
   </g>
   <g id="cell36">
  <circle cx="433.403" cy="1245.17" r="9.91933" stroke-width="0.5" stroke="black" fill="grey"/>
  <circle cx="433.403" cy="1245.17" r="6.02135" stroke-width="0.5" stroke="grey" fill="grey"/>
   </g>
   <g id="cell37">
  <circle cx="1948.18" cy="1313.8" r="10.2433" stroke-width="0.5" stroke="black" fill="grey"/>
  <circle cx="1948.18" cy="1313.8" r="6.19748" stroke-width="0.5" stroke="grey" fill="grey"/>
   </g>
   <g id="cell38">
  <circle cx="525.538" cy="840.402" r="8.39913" stroke-width="0.5" stroke="black" fill="grey"/>
  <circle cx="525.538" cy="840.402" r="5.04725" stroke-width="0.5" stroke="grey" fill="grey"/>
   </g>
   <g id="cell39">
  <circle cx="949.548" cy="463.649" r="8.39913" stroke-width="0.5" stroke="black" fill="grey"/>
  <circle cx="949.548" cy="463.649" r="5.04725" stroke-width="0.5" stroke="grey" fill="grey"/>
   </g>
   <g id="cell40">
  <circle cx="341.243" cy="645.885" r="8.36849" stroke-width="0.5" stroke="black" fill="grey"/>
  <circle cx="341.243" cy="645.885" r="5.03512" stroke-width="0.5" stroke="grey" fill="grey"/>
   </g>
   <g id="cell41">
  <circle cx="1371.31" cy="1316.51" r="10.4258" stroke-width="0.5" stroke="black" fill="grey"/>
  <circle cx="1371.31" cy="1316.51" r="6.29005" stroke-width="0.5" stroke="grey" fill="grey"/>
   </g>
   <g id="cell42">
  <circle cx="254.294" cy="1564.56" r="8.50221" stroke-width="0.5" stroke="black" fill="grey"/>
  <circle cx="254.294" cy="1564.56" r="5.12222" stroke-width="0.5" stroke="grey" fill="grey"/>
   </g>
   <g id="cell43">
  <circle cx="1842.16" cy="701.377" r="10.5233" stroke-width="0.5" stroke="black" fill="grey"/>
  <circle cx="1842.16" cy="701.377" r="6.33514" stroke-width="0.5" stroke="grey" fill="grey"/>
   </g>
   <g id="cell44">
  <circle cx="1607.79" cy="7.65294" r="8.41271" stroke-width="0.5" stroke="black" fill="grey"/>
  <circle cx="1607.79" cy="7.65294" r="5.05167" stroke-width="0.5" stroke="grey" fill="grey"/>
   </g>
   <g id="cell45">
  <circle cx="1232.77" cy="1728.01" r="8.38532" stroke-width="0.5" stroke="black" fill="grey"/>
  <circle cx="1232.77" cy="1728.01" r="5.04199" stroke-width="0.5" stroke="grey" fill="grey"/>
   </g>
   <g id="cell46">
  <circle cx="193.636" cy="1973.01" r="8.38028" stroke-width="0.5" stroke="black" fill="grey"/>
  <circle cx="193.636" cy="1973.01" r="5.03997" stroke-width="0.5" stroke="grey" fill="grey"/>
   </g>
   <g id="cell47">
  <circle cx="1714.93" cy="956.393" r="10.5166" stroke-width="0.5" stroke="black" fill="grey"/>
  <circle cx="1714.93" cy="956.393" r="6.33218" stroke-width="0.5" stroke="grey" fill="grey"/>
   </g>
   <g id="cell48">
  <circle cx="1949" cy="167.247" r="8.38206" stroke-width="0.5" stroke="black" fill="grey"/>
  <circle cx="1949" cy="167.247" r="5.04069" stroke-width="0.5" stroke="grey" fill="grey"/>
   </g>
   <g id="cell49">
  <circle cx="912.076" cy="1441.01" r="8.41271" stroke-width="0.5" stroke="black" fill="grey"/>
  <circle cx="912.076" cy="1441.01" r="5.05167" stroke-width="0.5" stroke="grey" fill="grey"/>
   </g>
   <g id="cell50">
  <circle cx="59.9152" cy="839.106" r="8.95012" stroke-width="0.5" stroke="black" fill="red"/>
  <circle cx="59.9152" cy="839.106" r="5.43571" stroke-width="0.5" stroke="red" fill="red"/>
   </g>
   <g id="cell51">
  <circle cx="1964.68" cy="235.22" r="8.38532" stroke-width="0.5" stroke="black" fill="red"/>
  <circle cx="1964.68" cy="235.22" r="5.04199" stroke-width="0.5" stroke="red" fill="red"/>
   </g>
   <g id="cell52">
  <circle cx="577.966" cy="935.832" r="9.61132" stroke-width="0.5" stroke="black" fill="red"/>
  <circle cx="577.966" cy="935.832" r="5.84342" stroke-width="0.5" stroke="red" fill="red"/>
   </g>
   <g id="cell53">
  <circle cx="1352.25" cy="639.514" r="8.40123" stroke-width="0.5" stroke="black" fill="red"/>
  <circle cx="1352.25" cy="639.514" r="5.048" stroke-width="0.5" stroke="red" fill="red"/>
   </g>
   <g id="cell99">
  <circle cx="1003.97" cy="1977.72" r="8.38891" stroke-width="0.5" stroke="black" fill="red"/>
  <circle cx="1003.97" cy="1977.72" r="5.0434" stroke-width="0.5" stroke="red" fill="red"/>
   </g>
   <g id="cell55">
  <circle cx="360.309" cy="1333.71" r="10.3545" stroke-width="0.5" stroke="black" fill="red"/>
  <circle cx="360.309" cy="1333.71" r="6.25485" stroke-width="0.5" stroke="red" fill="red"/>
   </g>
   <g id="cell56">
  <circle cx="1110.28" cy="1659.32" r="10.4651" stroke-width="0.5" stroke="black" fill="red"/>
  <circle cx="1110.28" cy="1659.32" r="6.30877" stroke-width="0.5" stroke="red" fill="red"/>
   </g>
   <g id="cell57">
  <circle cx="957.009" cy="1070.1" r="8.36592" stroke-width="0.5" stroke="black" fill="red"/>
  <circle cx="957.009" cy="1070.1" r="5.03403" stroke-width="0.5" stroke="red" fill="red"/>
   </g>
   <g id="cell58">
  <circle cx="170.859" cy="1838.94" r="2.86619" stroke-width="0.5" stroke="black" fill="red"/>
  <circle cx="170.859" cy="1838.94" r="2.62034" stroke-width="0.5" stroke="black" fill="black"/>
   </g>
   <g id="cell59">
  <circle cx="144.358" cy="1844.98" r="10.0806" stroke-width="0.5" stroke="black" fill="red"/>
  <circle cx="144.358" cy="1844.98" r="6.10985" stroke-width="0.5" stroke="red" fill="red"/>
   </g>
   <g id="cell60">
  <circle cx="604.402" cy="53.3857" r="10.5275" stroke-width="0.5" stroke="black" fill="red"/>
  <circle cx="604.402" cy="53.3857" r="6.33696" stroke-width="0.5" stroke="red" fill="red"/>
   </g>
   <g id="cell61">
  <circle cx="1661.32" cy="214.123" r="8.3937" stroke-width="0.5" stroke="black" fill="red"/>
  <circle cx="1661.32" cy="214.123" r="5.04523" stroke-width="0.5" stroke="red" fill="red"/>
   </g>
   <g id="cell62">
  <circle cx="1433.56" cy="1711.36" r="10.3474" stroke-width="0.5" stroke="black" fill="red"/>
  <circle cx="1433.56" cy="1711.36" r="6.25125" stroke-width="0.5" stroke="red" fill="red"/>
   </g>
   <g id="cell63">
  <circle cx="546.207" cy="350.467" r="8.45948" stroke-width="0.5" stroke="black" fill="red"/>
  <circle cx="546.207" cy="350.467" r="5.095" stroke-width="0.5" stroke="red" fill="red"/>
   </g>
   <g id="cell64">
  <circle cx="1174.28" cy="1044.84" r="8.39913" stroke-width="0.5" stroke="black" fill="red"/>
  <circle cx="1174.28" cy="1044.84" r="5.04725" stroke-width="0.5" stroke="red" fill="red"/>
   </g>
   <g id="cell65">
  <circle cx="334.835" cy="1599.69" r="10.5012" stroke-width="0.5" stroke="black" fill="red"/>
  <circle cx="334.835" cy="1599.69" r="6.32534" stroke-width="0.5" stroke="red" fill="red"/>
   </g>
   <g id="cell66">
  <circle cx="49.3397" cy="259.072" r="10.3325" stroke-width="0.5" stroke="black" fill="red"/>
  <circle cx="49.3397" cy="259.072" r="6.24369" stroke-width="0.5" stroke="red" fill="red"/>
   </g>
   <g id="cell67">
  <circle cx="1096.94" cy="565.457" r="8.62061" stroke-width="0.5" stroke="black" fill="red"/>
  <circle cx="1096.94" cy="565.457" r="5.21587" stroke-width="0.5" stroke="red" fill="red"/>
   </g>
   <g id="cell68">
  <circle cx="1467.89" cy="569.729" r="8.91094" stroke-width="0.5" stroke="black" fill="red"/>
  <circle cx="1467.89" cy="569.729" r="5.40988" stroke-width="0.5" stroke="red" fill="red"/>
   </g>
   <g id="cell69">
  <circle cx="889.468" cy="505.987" r="10.5142" stroke-width="0.5" stroke="black" fill="red"/>
  <circle cx="889.468" cy="505.987" r="6.33113" stroke-width="0.5" stroke="red" fill="red"/>
   </g>
   <g id="cell70">
  <circle cx="1160.31" cy="777.049" r="10.4796" stroke-width="0.5" stroke="black" fill="red"/>
  <circle cx="1160.31" cy="777.049" r="6.31548" stroke-width="0.5" stroke="red" fill="red"/>
   </g>
   <g id="cell71">
  <circle cx="1783.81" cy="1165.83" r="9.32616" stroke-width="0.5" stroke="black" fill="red"/>
  <circle cx="1783.81" cy="1165.83" r="5.67269" stroke-width="0.5" stroke="red" fill="red"/>
   </g>
   <g id="cell72">
  <circle cx="494.482" cy="1806.38" r="8.403" stroke-width="0.5" stroke="black" fill="red"/>
  <circle cx="494.482" cy="1806.38" r="5.04863" stroke-width="0.5" stroke="red" fill="red"/>
   </g>
   <g id="cell73">
  <circle cx="1350.53" cy="852.783" r="8.45882" stroke-width="0.5" stroke="black" fill="red"/>
  <circle cx="1350.53" cy="852.783" r="5.09474" stroke-width="0.5" stroke="red" fill="red"/>
   </g>
   <g id="cell74">
  <circle cx="1708.76" cy="1936.52" r="9.87774" stroke-width="0.5" stroke="black" fill="red"/>
  <circle cx="1708.76" cy="1936.52" r="5.99802" stroke-width="0.5" stroke="red" fill="red"/>
   </g>
   <g id="cell75">
  <circle cx="269.703" cy="570.451" r="3.91492" stroke-width="0.5" stroke="black" fill="red"/>
  <circle cx="269.703" cy="570.451" r="3.1663" stroke-width="0.5" stroke="black" fill="black"/>
   </g>
   <g id="cell76">
  <circle cx="1650.74" cy="859.065" r="9.2549" stroke-width="0.5" stroke="black" fill="red"/>
  <circle cx="1650.74" cy="859.065" r="5.629" stroke-width="0.5" stroke="red" fill="red"/>
   </g>
   <g id="cell77">
  <circle cx="1325.59" cy="1774.59" r="8.39834" stroke-width="0.5" stroke="black" fill="red"/>
  <circle cx="1325.59" cy="1774.59" r="5.04696" stroke-width="0.5" stroke="red" fill="red"/>
   </g>
   <g id="cell78">
  <circle cx="1113.47" cy="580.761" r="8.37935" stroke-width="0.5" stroke="black" fill="red"/>
  <circle cx="1113.47" cy="580.761" r="5.0396" stroke-width="0.5" stroke="red" fill="red"/>
   </g>
   <g id="cell79">
  <circle cx="1962.18" cy="1389.61" r="8.39422" stroke-width="0.5" stroke="black" fill="red"/>
  <circle cx="1962.18" cy="1389.61" r="5.04543" stroke-width="0.5" stroke="red" fill="red"/>
   </g>
   <g id="cell80">
  <circle cx="1411.5" cy="1322.23" r="10.5275" stroke-width="0.5" stroke="black" fill="red"/>
  <circle cx="1411.5" cy="1322.23" r="6.33696" stroke-width="0.5" stroke="red" fill="red"/>
   </g>
   <g id="cell81">
  <circle cx="1031.9" cy="1894.54" r="10.5142" stroke-width="0.5" stroke="black" fill="red"/>
  <circle cx="1031.9" cy="1894.54" r="6.33113" stroke-width="0.5" stroke="red" fill="red"/>
   </g>
   <g id="cell82">
  <circle cx="1303.66" cy="776.362" r="8.83335" stroke-width="0.5" stroke="black" fill="red"/>
  <circle cx="1303.66" cy="776.362" r="5.35769" stroke-width="0.5" stroke="red" fill="red"/>
   </g>
   <g id="cell83">
  <circle cx="1289.91" cy="1210.71" r="8.38028" stroke-width="0.5" stroke="black" fill="red"/>
  <circle cx="1289.91" cy="1210.71" r="5.03997" stroke-width="0.5" stroke="red" fill="red"/>
   </g>
   <g id="cell84">
  <circle cx="40.715" cy="928.307" r="8.36722" stroke-width="0.5" stroke="black" fill="red"/>
  <circle cx="40.715" cy="928.307" r="5.03458" stroke-width="0.5" stroke="red" fill="red"/>
   </g>
   <g id="cell85">
  <circle cx="1400.72" cy="1340.69" r="8.37935" stroke-width="0.5" stroke="black" fill="red"/>
  <circle cx="1400.72" cy="1340.69" r="5.0396" stroke-width="0.5" stroke="red" fill="red"/>
   </g>
   <g id="cell86">
  <circle cx="605.953" cy="745.54" r="8.403" stroke-width="0.5" stroke="black" fill="red"/>
  <circle cx="605.953" cy="745.54" r="5.04863" stroke-width="0.5" stroke="red" fill="red"/>
   </g>
   <g id="cell87">
  <circle cx="1535.24" cy="871.835" r="10.0169" stroke-width="0.5" stroke="black" fill="red"/>
  <circle cx="1535.24" cy="871.835" r="6.07458" stroke-width="0.5" stroke="red" fill="red"/>
   </g>
   <g id="cell88">
  <circle cx="192.366" cy="182.726" r="8.38891" stroke-width="0.5" stroke="black" fill="red"/>
  <circle cx="192.366" cy="182.726" r="5.0434" stroke-width="0.5" stroke="red" fill="red"/>
   </g>
   <g id="cell89">
  <circle cx="198.781" cy="1062.21" r="9.52663" stroke-width="0.5" stroke="black" fill="red"/>
  <circle cx="198.781" cy="1062.21" r="5.79257" stroke-width="0.5" stroke="red" fill="red"/>
   </g>
   <g id="cell134">
  <circle cx="1805.5" cy="1149.8" r="8.39203" stroke-width="0.5" stroke="black" fill="red"/>
  <circle cx="1805.5" cy="1149.8" r="5.0446" stroke-width="0.5" stroke="red" fill="red"/>
   </g>
   <g id="cell91">
  <circle cx="28.833" cy="1306.32" r="2.01831" stroke-width="0.5" stroke="black" fill="red"/>
  <circle cx="28.833" cy="1306.32" r="1.90974" stroke-width="0.5" stroke="black" fill="black"/>
   </g>
   <g id="cell92">
  <circle cx="1313.86" cy="616.118" r="2.07793" stroke-width="0.5" stroke="black" fill="red"/>
  <circle cx="1313.86" cy="616.118" r="2.03322" stroke-width="0.5" stroke="black" fill="black"/>
   </g>
   <g id="cell93">
  <circle cx="408.678" cy="1756.94" r="9.39922" stroke-width="0.5" stroke="black" fill="red"/>
  <circle cx="408.678" cy="1756.94" r="5.71605" stroke-width="0.5" stroke="red" fill="red"/>
   </g>
   <g id="cell94">
  <circle cx="778.094" cy="173.346" r="10.5295" stroke-width="0.5" stroke="black" fill="red"/>
  <circle cx="778.094" cy="173.346" r="6.33783" stroke-width="0.5" stroke="red" fill="red"/>
   </g>
   <g id="cell95">
  <circle cx="1988.19" cy="1740.51" r="8.39708" stroke-width="0.5" stroke="black" fill="red"/>
  <circle cx="1988.19" cy="1740.51" r="5.0465" stroke-width="0.5" stroke="red" fill="red"/>
   </g>
   <g id="cell96">
  <circle cx="1593.02" cy="1074.96" r="3.7369" stroke-width="0.5" stroke="black" fill="red"/>
  <circle cx="1593.02" cy="1074.96" r="3.0869" stroke-width="0.5" stroke="black" fill="black"/>
   </g>
   <g id="cell97">
  <circle cx="874.41" cy="196.756" r="8.9283" stroke-width="0.5" stroke="black" fill="red"/>
  <circle cx="874.41" cy="196.756" r="5.4161" stroke-width="0.5" stroke="red" fill="red"/>
   </g>
   <g id="cell98">
  <circle cx="1868.86" cy="684.318" r="10.4446" stroke-width="0.5" stroke="black" fill="red"/>
  <circle cx="1868.86" cy="684.318" r="6.29905" stroke-width="0.5" stroke="red" fill="red"/>
   </g>
   <g id="cell101">
  <circle cx="450.829" cy="1278.67" r="9.36905" stroke-width="0.5" stroke="black" fill="grey"/>
  <circle cx="450.829" cy="1278.67" r="5.69692" stroke-width="0.5" stroke="grey" fill="grey"/>
   </g>
   <g id="cell102">
  <circle cx="595.622" cy="733.294" r="9.76869" stroke-width="0.5" stroke="black" fill="red"/>
  <circle cx="595.622" cy="733.294" r="5.93498" stroke-width="0.5" stroke="red" fill="red"/>
   </g>
   <g id="cell103">
  <circle cx="465.447" cy="1811.91" r="9.11664" stroke-width="0.5" stroke="black" fill="red"/>
  <circle cx="465.447" cy="1811.91" r="5.54004" stroke-width="0.5" stroke="red" fill="red"/>
   </g>
   <g id="cell105">
  <circle cx="722.567" cy="992.307" r="9.9568" stroke-width="0.5" stroke="black" fill="grey"/>
  <circle cx="722.567" cy="992.307" r="6.04258" stroke-width="0.5" stroke="grey" fill="grey"/>
   </g>
   <g id="cell106">
  <circle cx="270.426" cy="1547.44" r="8.75808" stroke-width="0.5" stroke="black" fill="grey"/>
  <circle cx="270.426" cy="1547.44" r="5.30533" stroke-width="0.5" stroke="grey" fill="grey"/>
   </g>
   <g id="cell107">
  <circle cx="1841.52" cy="1492.5" r="9.79142" stroke-width="0.5" stroke="black" fill="grey"/>
  <circle cx="1841.52" cy="1492.5" r="5.94827" stroke-width="0.5" stroke="grey" fill="grey"/>
   </g>
   <g id="cell108">
  <circle cx="623.238" cy="1189.81" r="9.85774" stroke-width="0.5" stroke="black" fill="grey"/>
  <circle cx="623.238" cy="1189.81" r="5.98641" stroke-width="0.5" stroke="grey" fill="grey"/>
   </g>
   <g id="cell109">
  <circle cx="1157.23" cy="239.192" r="8.40185" stroke-width="0.5" stroke="black" fill="grey"/>
  <circle cx="1157.23" cy="239.192" r="5.04822" stroke-width="0.5" stroke="grey" fill="grey"/>
   </g>
   <g id="cell110">
  <circle cx="1303.75" cy="1353.66" r="8.40185" stroke-width="0.5" stroke="black" fill="grey"/>
  <circle cx="1303.75" cy="1353.66" r="5.04822" stroke-width="0.5" stroke="grey" fill="grey"/>
   </g>
   <g id="cell111">
  <circle cx="1635.98" cy="1076.78" r="9.8137" stroke-width="0.5" stroke="black" fill="grey"/>
  <circle cx="1635.98" cy="1076.78" r="5.96122" stroke-width="0.5" stroke="grey" fill="grey"/>
   </g>
   <g id="cell112">
  <circle cx="203.946" cy="1103.73" r="8.95821" stroke-width="0.5" stroke="black" fill="red"/>
  <circle cx="203.946" cy="1103.73" r="5.43884" stroke-width="0.5" stroke="red" fill="red"/>
   </g>
   <g id="cell113">
  <circle cx="1331.72" cy="614.078" r="8.9181" stroke-width="0.5" stroke="black" fill="red"/>
  <circle cx="1331.72" cy="614.078" r="5.41263" stroke-width="0.5" stroke="red" fill="red"/>
   </g>
   <g id="cell114">
  <circle cx="886.109" cy="1241.86" r="8.64041" stroke-width="0.5" stroke="black" fill="grey"/>
  <circle cx="886.109" cy="1241.86" r="5.22361" stroke-width="0.5" stroke="grey" fill="grey"/>
   </g>
   <g id="cell115">
  <circle cx="1719.9" cy="1952.03" r="8.4009" stroke-width="0.5" stroke="black" fill="red"/>
  <circle cx="1719.9" cy="1952.03" r="5.04788" stroke-width="0.5" stroke="red" fill="red"/>
   </g>
   <g id="cell116">
  <circle cx="1901.97" cy="1353.33" r="9.61218" stroke-width="0.5" stroke="black" fill="grey"/>
  <circle cx="1901.97" cy="1353.33" r="5.84375" stroke-width="0.5" stroke="grey" fill="grey"/>
   </g>
   <g id="cell117">
  <circle cx="493.186" cy="843.399" r="8.39913" stroke-width="0.5" stroke="black" fill="grey"/>
  <circle cx="493.186" cy="843.399" r="5.04725" stroke-width="0.5" stroke="grey" fill="grey"/>
   </g>
   <g id="cell118">
  <circle cx="961.145" cy="449.362" r="8.39913" stroke-width="0.5" stroke="black" fill="grey"/>
  <circle cx="961.145" cy="449.362" r="5.04725" stroke-width="0.5" stroke="grey" fill="grey"/>
   </g>
   <g id="cell119">
  <circle cx="1142.46" cy="1041.99" r="8.39913" stroke-width="0.5" stroke="black" fill="red"/>
  <circle cx="1142.46" cy="1041.99" r="5.04725" stroke-width="0.5" stroke="red" fill="red"/>
   </g>
   <g id="cell120">
  <circle cx="434.514" cy="1805.16" r="8.95636" stroke-width="0.5" stroke="black" fill="red"/>
  <circle cx="434.514" cy="1805.16" r="5.43814" stroke-width="0.5" stroke="red" fill="red"/>
   </g>
   <g id="cell121">
  <circle cx="580.778" cy="920.884" r="8.39874" stroke-width="0.5" stroke="black" fill="red"/>
  <circle cx="580.778" cy="920.884" r="5.04711" stroke-width="0.5" stroke="red" fill="red"/>
   </g>
   <g id="cell122">
  <circle cx="1334.49" cy="1743.88" r="2.97176" stroke-width="0.5" stroke="black" fill="red"/>
  <circle cx="1334.49" cy="1743.88" r="2.45348" stroke-width="0.5" stroke="black" fill="black"/>
   </g>
   <g id="cell123">
  <circle cx="170.475" cy="1447.47" r="9.03468" stroke-width="0.5" stroke="black" fill="grey"/>
  <circle cx="170.475" cy="1447.47" r="5.48898" stroke-width="0.5" stroke="grey" fill="grey"/>
   </g>
   <g id="cell124">
  <circle cx="1956.38" cy="1719.87" r="9.2955" stroke-width="0.5" stroke="black" fill="red"/>
  <circle cx="1956.38" cy="1719.87" r="5.65292" stroke-width="0.5" stroke="red" fill="red"/>
   </g>
   <g id="cell125">
  <circle cx="1269.94" cy="769.832" r="8.39664" stroke-width="0.5" stroke="black" fill="red"/>
  <circle cx="1269.94" cy="769.832" r="5.04633" stroke-width="0.5" stroke="red" fill="red"/>
   </g>
   <g id="cell126">
  <circle cx="1378.06" cy="191.479" r="3.77857" stroke-width="0.5" stroke="black" fill="grey"/>
  <circle cx="1378.06" cy="191.479" r="2.79748" stroke-width="0.5" stroke="black" fill="black"/>
   </g>
   <g id="cell127">
  <circle cx="1797.07" cy="1975.57" r="8.39473" stroke-width="0.5" stroke="black" fill="grey"/>
  <circle cx="1797.07" cy="1975.57" r="5.04562" stroke-width="0.5" stroke="grey" fill="grey"/>
   </g>
   <g id="cell128">
  <circle cx="1941.65" cy="1383.64" r="8.39422" stroke-width="0.5" stroke="black" fill="red"/>
  <circle cx="1941.65" cy="1383.64" r="5.04543" stroke-width="0.5" stroke="red" fill="red"/>
   </g>
   <g id="cell129">
  <circle cx="1675.61" cy="208.194" r="3.11206" stroke-width="0.5" stroke="black" fill="red"/>
  <circle cx="1675.61" cy="208.194" r="2.51583" stroke-width="0.5" stroke="black" fill="black"/>
   </g>
   <g id="cell130">
  <circle cx="1457.86" cy="593.529" r="9.14634" stroke-width="0.5" stroke="black" fill="red"/>
  <circle cx="1457.86" cy="593.529" r="5.56084" stroke-width="0.5" stroke="red" fill="red"/>
   </g>
   <g id="cell131">
  <circle cx="633.657" cy="1218.38" r="8.3926" stroke-width="0.5" stroke="black" fill="grey"/>
  <circle cx="633.657" cy="1218.38" r="5.04482" stroke-width="0.5" stroke="grey" fill="grey"/>
   </g>
   <g id="cell132">
  <circle cx="1363.92" cy="880.743" r="8.67052" stroke-width="0.5" stroke="black" fill="grey"/>
  <circle cx="1363.92" cy="880.743" r="5.24752" stroke-width="0.5" stroke="grey" fill="grey"/>
   </g>
   <g id="cell133">
  <circle cx="103.851" cy="836.507" r="8.39203" stroke-width="0.5" stroke="black" fill="red"/>
  <circle cx="103.851" cy="836.507" r="5.0446" stroke-width="0.5" stroke="red" fill="red"/>
   </g>
   <g id="cell135">
  <circle cx="708.787" cy="300.762" r="8.39083" stroke-width="0.5" stroke="black" fill="grey"/>
  <circle cx="708.787" cy="300.762" r="5.04414" stroke-width="0.5" stroke="grey" fill="grey"/>
   </g>
   <g id="cell136">
  <circle cx="1668.94" cy="860.413" r="8.39083" stroke-width="0.5" stroke="black" fill="red"/>
  <circle cx="1668.94" cy="860.413" r="5.04414" stroke-width="0.5" stroke="red" fill="red"/>
   </g>
   <g id="cell137">
  <circle cx="1146.99" cy="798.202" r="8.70739" stroke-width="0.5" stroke="black" fill="grey"/>
  <circle cx="1146.99" cy="798.202" r="5.27385" stroke-width="0.5" stroke="grey" fill="grey"/>
   </g>
   <g id="cell138">
  <circle cx="972.749" cy="1971.98" r="8.94738" stroke-width="0.5" stroke="black" fill="red"/>
  <circle cx="972.749" cy="1971.98" r="5.43462" stroke-width="0.5" stroke="red" fill="red"/>
   </g>
   <g id="cell139">
  <circle cx="576.619" cy="354.983" r="8.38891" stroke-width="0.5" stroke="black" fill="red"/>
  <circle cx="576.619" cy="354.983" r="5.0434" stroke-width="0.5" stroke="red" fill="red"/>
   </g>
   <g id="cell140">
  <circle cx="206.82" cy="176.111" r="8.38891" stroke-width="0.5" stroke="black" fill="red"/>
  <circle cx="206.82" cy="176.111" r="5.0434" stroke-width="0.5" stroke="red" fill="red"/>
   </g>
   <g id="cell141">
  <circle cx="1333.7" cy="856.624" r="8.38823" stroke-width="0.5" stroke="black" fill="red"/>
  <circle cx="1333.7" cy="856.624" r="5.04313" stroke-width="0.5" stroke="red" fill="red"/>
   </g>
   <g id="cell142">
  <circle cx="1977.45" cy="212.35" r="6.97903" stroke-width="0.5" stroke="black" fill="red"/>
  <circle cx="1977.45" cy="212.35" r="4.26797" stroke-width="0.5" stroke="black" fill="black"/>
   </g>
   <g id="cell143">
  <circle cx="1204.53" cy="413.984" r="8.74259" stroke-width="0.5" stroke="black" fill="grey"/>
  <circle cx="1204.53" cy="413.984" r="5.29931" stroke-width="0.5" stroke="grey" fill="grey"/>
   </g>
   <g id="cell144">
  <circle cx="1246.31" cy="1719.06" r="8.38532" stroke-width="0.5" stroke="black" fill="grey"/>
  <circle cx="1246.31" cy="1719.06" r="5.04199" stroke-width="0.5" stroke="grey" fill="grey"/>
   </g>
   <g id="cell145">
  <circle cx="1915.86" cy="140.999" r="8.38206" stroke-width="0.5" stroke="black" fill="grey"/>
  <circle cx="1915.86" cy="140.999" r="5.04069" stroke-width="0.5" stroke="grey" fill="grey"/>
   </g>
   <g id="cell146">
  <circle cx="554.72" cy="430.609" r="8.38118" stroke-width="0.5" stroke="black" fill="grey"/>
  <circle cx="554.72" cy="430.609" r="5.04034" stroke-width="0.5" stroke="grey" fill="grey"/>
   </g>
   <g id="cell147">
  <circle cx="1403.56" cy="367.258" r="8.38028" stroke-width="0.5" stroke="black" fill="grey"/>
  <circle cx="1403.56" cy="367.258" r="5.03997" stroke-width="0.5" stroke="grey" fill="grey"/>
   </g>
   <g id="cell148">
  <circle cx="1305.38" cy="1206.34" r="8.65898" stroke-width="0.5" stroke="black" fill="red"/>
  <circle cx="1305.38" cy="1206.34" r="5.24289" stroke-width="0.5" stroke="red" fill="red"/>
   </g>
   <g id="cell149">
  <circle cx="223.935" cy="1976.09" r="8.38028" stroke-width="0.5" stroke="black" fill="grey"/>
  <circle cx="223.935" cy="1976.09" r="5.03997" stroke-width="0.5" stroke="grey" fill="grey"/>
   </g>
   <g id="cell150">
  <circle cx="1105.39" cy="550.388" r="8.38028" stroke-width="0.5" stroke="black" fill="red"/>
  <circle cx="1105.39" cy="550.388" r="5.03997" stroke-width="0.5" stroke="red" fill="red"/>
   </g>
   <g id="cell151">
  <circle cx="1123.72" cy="564.859" r="8.37935" stroke-width="0.5" stroke="black" fill="red"/>
  <circle cx="1123.72" cy="564.859" r="5.0396" stroke-width="0.5" stroke="red" fill="red"/>
   </g>
   <g id="cell152">
  <circle cx="1400.29" cy="1355.01" r="8.37935" stroke-width="0.5" stroke="black" fill="red"/>
  <circle cx="1400.29" cy="1355.01" r="5.0396" stroke-width="0.5" stroke="red" fill="red"/>
   </g>
   <g id="cell153">
  <circle cx="1482.21" cy="917.107" r="8.36972" stroke-width="0.5" stroke="black" fill="grey"/>
  <circle cx="1482.21" cy="917.107" r="5.03563" stroke-width="0.5" stroke="grey" fill="grey"/>
   </g>
   <g id="cell154">
  <circle cx="339.436" cy="628.841" r="8.36849" stroke-width="0.5" stroke="black" fill="grey"/>
  <circle cx="339.436" cy="628.841" r="5.03512" stroke-width="0.5" stroke="grey" fill="grey"/>
   </g>
   <g id="cell155">
  <circle cx="1885.71" cy="204.963" r="8.36722" stroke-width="0.5" stroke="black" fill="grey"/>
  <circle cx="1885.71" cy="204.963" r="5.03458" stroke-width="0.5" stroke="grey" fill="grey"/>
   </g>
   <g id="cell156">
  <circle cx="24.6726" cy="931.268" r="8.36722" stroke-width="0.5" stroke="black" fill="red"/>
  <circle cx="24.6726" cy="931.268" r="5.03458" stroke-width="0.5" stroke="red" fill="red"/>
   </g>
   <g id="cell157">
  <circle cx="965.101" cy="1081.22" r="8.36592" stroke-width="0.5" stroke="black" fill="red"/>
  <circle cx="965.101" cy="1081.22" r="5.03403" stroke-width="0.5" stroke="red" fill="red"/>
   </g>
  </g>
 </g>
  <rect x="1750" y="2070" width="200" height="20" stroke-width="4" stroke="rgb(255,255,255)" fill="rgb(0,0,0)"/>
  <text x="1762.5" y="2057.5"
   font-family="Arial" font-size="50" fill="black" >
   200 &#956;m
  </text>
  <text x="50" y="2090"
   font-family="Arial" font-size="37.5" fill="black" >
   0 days, 0 hours, 0 minutes, and 28.5253 seconds
  </text>
  <rect x="0" y="140" width="2000" height="2000" stroke-width="4" stroke="rgb(0,0,0)" fill="none"/>
</svg>
