<?xml version="1.0" encoding="UTF-8" standalone="no"?>
<!-- Created with PhysiCell (http://PhysiCell.MathCancer.org/) -->
<svg 
 xmlns:dc="http://purl.org/dc/elements/1.1/" 
 xmlns:cc="http://creativecommons.org/ns#" 
 xmlns:rdf="http://www.w3.org/1999/02/22-rdf-syntax-ns#" 
 xmlns:svg="http://www.w3.org/2000/svg" 
 xmlns="http://www.w3.org/2000/svg" 
 version="1.1" 
 width="2000" 
 height="2140" 
 id="svg2">
  <rect x="0" y="0" width="2000" height="2140" stroke-width="4" stroke="white" fill="white"/>
  <text x="25" y="60"
   font-family="Arial" font-size="50" fill="black" >
   Current time: 0 days, 5 hours, and 0.00 minutes, z = 0.00 &#956;m
  </text>
  <text x="25" y="115"
   font-family="Arial" font-size="47.5" fill="black" >
   100 agents
  </text>
 <g id="tissue" 
    transform="translate(0,2140) scale(1,-1)">
  <g id="ECM">
  </g>
  <g id="cells">
   <g id="cell0">
  <circle cx="1081.73" cy="1151.07" r="8.45606" stroke-width="0.5" stroke="black" fill="grey"/>
  <circle cx="1081.73" cy="1151.07" r="5.08296" stroke-width="0.5" stroke="grey" fill="grey"/>
   </g>
   <g id="cell1">
  <circle cx="1697.24" cy="1202.93" r="9.4743" stroke-width="0.5" stroke="black" fill="grey"/>
  <circle cx="1697.24" cy="1202.93" r="5.75875" stroke-width="0.5" stroke="grey" fill="grey"/>
   </g>
   <g id="cell2">
  <circle cx="1087.76" cy="1700.32" r="9.92631" stroke-width="0.5" stroke="black" fill="grey"/>
  <circle cx="1087.76" cy="1700.32" r="6.02363" stroke-width="0.5" stroke="grey" fill="grey"/>
   </g>
   <g id="cell3">
  <circle cx="1240.02" cy="1261.54" r="8.72828" stroke-width="0.5" stroke="black" fill="grey"/>
  <circle cx="1240.02" cy="1261.54" r="5.28134" stroke-width="0.5" stroke="grey" fill="grey"/>
   </g>
   <g id="cell4">
  <circle cx="894.194" cy="591.366" r="8.41271" stroke-width="0.5" stroke="black" fill="grey"/>
  <circle cx="894.194" cy="591.366" r="5.05167" stroke-width="0.5" stroke="grey" fill="grey"/>
   </g>
   <g id="cell5">
  <circle cx="78.6873" cy="1909.41" r="8.41271" stroke-width="0.5" stroke="black" fill="grey"/>
  <circle cx="78.6873" cy="1909.41" r="5.05167" stroke-width="0.5" stroke="grey" fill="grey"/>
   </g>
   <g id="cell6">
  <circle cx="751.132" cy="940.992" r="8.41271" stroke-width="0.5" stroke="black" fill="grey"/>
  <circle cx="751.132" cy="940.992" r="5.05167" stroke-width="0.5" stroke="grey" fill="grey"/>
   </g>
   <g id="cell7">
  <circle cx="1603.19" cy="1059.72" r="9.20015" stroke-width="0.5" stroke="black" fill="grey"/>
  <circle cx="1603.19" cy="1059.72" r="5.59022" stroke-width="0.5" stroke="grey" fill="grey"/>
   </g>
   <g id="cell8">
  <circle cx="1134.91" cy="801.681" r="9.90658" stroke-width="0.5" stroke="black" fill="grey"/>
  <circle cx="1134.91" cy="801.681" r="6.01243" stroke-width="0.5" stroke="grey" fill="grey"/>
   </g>
   <g id="cell9">
  <circle cx="1658.74" cy="158.949" r="8.41271" stroke-width="0.5" stroke="black" fill="grey"/>
  <circle cx="1658.74" cy="158.949" r="5.05167" stroke-width="0.5" stroke="grey" fill="grey"/>
   </g>
   <g id="cell10">
  <circle cx="185.232" cy="1303.4" r="8.41271" stroke-width="0.5" stroke="black" fill="grey"/>
  <circle cx="185.232" cy="1303.4" r="5.05167" stroke-width="0.5" stroke="grey" fill="grey"/>
   </g>
   <g id="cell11">
  <circle cx="753.903" cy="1631.74" r="9.70201" stroke-width="0.5" stroke="black" fill="grey"/>
  <circle cx="753.903" cy="1631.74" r="5.89426" stroke-width="0.5" stroke="grey" fill="grey"/>
   </g>
   <g id="cell12">
  <circle cx="1583.86" cy="269.793" r="8.41271" stroke-width="0.5" stroke="black" fill="grey"/>
  <circle cx="1583.86" cy="269.793" r="5.05167" stroke-width="0.5" stroke="grey" fill="grey"/>
   </g>
   <g id="cell13">
  <circle cx="1744.97" cy="1928.35" r="9.75192" stroke-width="0.5" stroke="black" fill="grey"/>
  <circle cx="1744.97" cy="1928.35" r="5.92342" stroke-width="0.5" stroke="grey" fill="grey"/>
   </g>
   <g id="cell14">
  <circle cx="1574.5" cy="1606.74" r="8.41271" stroke-width="0.5" stroke="black" fill="grey"/>
  <circle cx="1574.5" cy="1606.74" r="5.05167" stroke-width="0.5" stroke="grey" fill="grey"/>
   </g>
   <g id="cell15">
  <circle cx="1044.49" cy="1562.38" r="8.80772" stroke-width="0.5" stroke="black" fill="grey"/>
  <circle cx="1044.49" cy="1562.38" r="5.33574" stroke-width="0.5" stroke="grey" fill="grey"/>
   </g>
   <g id="cell16">
  <circle cx="250.421" cy="1408.14" r="9.37686" stroke-width="0.5" stroke="black" fill="grey"/>
  <circle cx="250.421" cy="1408.14" r="5.69955" stroke-width="0.5" stroke="grey" fill="grey"/>
   </g>
   <g id="cell17">
  <circle cx="1199.24" cy="295.9" r="9.12489" stroke-width="0.5" stroke="black" fill="grey"/>
  <circle cx="1199.24" cy="295.9" r="5.54282" stroke-width="0.5" stroke="grey" fill="grey"/>
   </g>
   <g id="cell18">
  <circle cx="1867.37" cy="1521.22" r="9.7273" stroke-width="0.5" stroke="black" fill="grey"/>
  <circle cx="1867.37" cy="1521.22" r="5.90906" stroke-width="0.5" stroke="grey" fill="grey"/>
   </g>
   <g id="cell19">
  <circle cx="240.868" cy="829.512" r="8.41271" stroke-width="0.5" stroke="black" fill="grey"/>
  <circle cx="240.868" cy="829.512" r="5.05167" stroke-width="0.5" stroke="grey" fill="grey"/>
   </g>
   <g id="cell20">
  <circle cx="551.702" cy="374.642" r="8.41271" stroke-width="0.5" stroke="black" fill="grey"/>
  <circle cx="551.702" cy="374.642" r="5.05167" stroke-width="0.5" stroke="grey" fill="grey"/>
   </g>
   <g id="cell21">
  <circle cx="1427.37" cy="904.657" r="8.41271" stroke-width="0.5" stroke="black" fill="grey"/>
  <circle cx="1427.37" cy="904.657" r="5.05167" stroke-width="0.5" stroke="grey" fill="grey"/>
   </g>
   <g id="cell22">
  <circle cx="1138.57" cy="251.94" r="8.41271" stroke-width="0.5" stroke="black" fill="grey"/>
  <circle cx="1138.57" cy="251.94" r="5.05167" stroke-width="0.5" stroke="grey" fill="grey"/>
   </g>
   <g id="cell23">
  <circle cx="666.115" cy="1233.19" r="9.82189" stroke-width="0.5" stroke="black" fill="grey"/>
  <circle cx="666.115" cy="1233.19" r="5.96395" stroke-width="0.5" stroke="grey" fill="grey"/>
   </g>
   <g id="cell24">
  <circle cx="1263.78" cy="430.084" r="8.41271" stroke-width="0.5" stroke="black" fill="grey"/>
  <circle cx="1263.78" cy="430.084" r="5.05167" stroke-width="0.5" stroke="grey" fill="grey"/>
   </g>
   <g id="cell25">
  <circle cx="783.931" cy="1870.57" r="9.90658" stroke-width="0.5" stroke="black" fill="grey"/>
  <circle cx="783.931" cy="1870.57" r="6.01243" stroke-width="0.5" stroke="grey" fill="grey"/>
   </g>
   <g id="cell26">
  <circle cx="1384.15" cy="893.748" r="8.41271" stroke-width="0.5" stroke="black" fill="grey"/>
  <circle cx="1384.15" cy="893.748" r="5.05167" stroke-width="0.5" stroke="grey" fill="grey"/>
   </g>
   <g id="cell27">
  <circle cx="1213.82" cy="885.945" r="9.00806" stroke-width="0.5" stroke="black" fill="grey"/>
  <circle cx="1213.82" cy="885.945" r="5.46807" stroke-width="0.5" stroke="grey" fill="grey"/>
   </g>
   <g id="cell28">
  <circle cx="1389.29" cy="205.949" r="9.34292" stroke-width="0.5" stroke="black" fill="grey"/>
  <circle cx="1389.29" cy="205.949" r="5.67875" stroke-width="0.5" stroke="grey" fill="grey"/>
   </g>
   <g id="cell29">
  <circle cx="1956.71" cy="1328.64" r="8.68937" stroke-width="0.5" stroke="black" fill="grey"/>
  <circle cx="1956.71" cy="1328.64" r="5.25417" stroke-width="0.5" stroke="grey" fill="grey"/>
   </g>
   <g id="cell30">
  <circle cx="1346.35" cy="316.014" r="8.41271" stroke-width="0.5" stroke="black" fill="grey"/>
  <circle cx="1346.35" cy="316.014" r="5.05167" stroke-width="0.5" stroke="grey" fill="grey"/>
   </g>
   <g id="cell31">
  <circle cx="709.588" cy="240.772" r="9.77588" stroke-width="0.5" stroke="black" fill="grey"/>
  <circle cx="709.588" cy="240.772" r="5.93735" stroke-width="0.5" stroke="grey" fill="grey"/>
   </g>
   <g id="cell32">
  <circle cx="601.459" cy="1209.91" r="9.75192" stroke-width="0.5" stroke="black" fill="grey"/>
  <circle cx="601.459" cy="1209.91" r="5.92342" stroke-width="0.5" stroke="grey" fill="grey"/>
   </g>
   <g id="cell33">
  <circle cx="659.859" cy="1134.16" r="8.41271" stroke-width="0.5" stroke="black" fill="grey"/>
  <circle cx="659.859" cy="1134.16" r="5.05167" stroke-width="0.5" stroke="grey" fill="grey"/>
   </g>
   <g id="cell34">
  <circle cx="910.522" cy="1262.15" r="9.88629" stroke-width="0.5" stroke="black" fill="grey"/>
  <circle cx="910.522" cy="1262.15" r="6.00088" stroke-width="0.5" stroke="grey" fill="grey"/>
   </g>
   <g id="cell35">
  <circle cx="1890.38" cy="205.698" r="9.64936" stroke-width="0.5" stroke="black" fill="grey"/>
  <circle cx="1890.38" cy="205.698" r="5.86329" stroke-width="0.5" stroke="grey" fill="grey"/>
   </g>
   <g id="cell36">
  <circle cx="396.98" cy="1262.98" r="9.5053" stroke-width="0.5" stroke="black" fill="grey"/>
  <circle cx="396.98" cy="1262.98" r="5.77744" stroke-width="0.5" stroke="grey" fill="grey"/>
   </g>
   <g id="cell37">
  <circle cx="1979.29" cy="1299.44" r="8.41271" stroke-width="0.5" stroke="black" fill="grey"/>
  <circle cx="1979.29" cy="1299.44" r="5.05167" stroke-width="0.5" stroke="grey" fill="grey"/>
   </g>
   <g id="cell38">
  <circle cx="497.056" cy="857.698" r="9.67603" stroke-width="0.5" stroke="black" fill="grey"/>
  <circle cx="497.056" cy="857.698" r="5.87901" stroke-width="0.5" stroke="grey" fill="grey"/>
   </g>
   <g id="cell39">
  <circle cx="919.224" cy="482.853" r="8.41271" stroke-width="0.5" stroke="black" fill="grey"/>
  <circle cx="919.224" cy="482.853" r="5.05167" stroke-width="0.5" stroke="grey" fill="grey"/>
   </g>
   <g id="cell40">
  <circle cx="289.856" cy="665.428" r="9.7273" stroke-width="0.5" stroke="black" fill="grey"/>
  <circle cx="289.856" cy="665.428" r="5.90906" stroke-width="0.5" stroke="grey" fill="grey"/>
   </g>
   <g id="cell41">
  <circle cx="1350.29" cy="1288.69" r="9.94548" stroke-width="0.5" stroke="black" fill="grey"/>
  <circle cx="1350.29" cy="1288.69" r="6.03448" stroke-width="0.5" stroke="grey" fill="grey"/>
   </g>
   <g id="cell42">
  <circle cx="278.98" cy="1569.07" r="9.12489" stroke-width="0.5" stroke="black" fill="grey"/>
  <circle cx="278.98" cy="1569.07" r="5.54282" stroke-width="0.5" stroke="grey" fill="grey"/>
   </g>
   <g id="cell43">
  <circle cx="1899.25" cy="759.947" r="9.37686" stroke-width="0.5" stroke="black" fill="grey"/>
  <circle cx="1899.25" cy="759.947" r="5.69955" stroke-width="0.5" stroke="grey" fill="grey"/>
   </g>
   <g id="cell44">
  <circle cx="1642.09" cy="55.3935" r="9.20015" stroke-width="0.5" stroke="black" fill="grey"/>
  <circle cx="1642.09" cy="55.3935" r="5.59022" stroke-width="0.5" stroke="grey" fill="grey"/>
   </g>
   <g id="cell45">
  <circle cx="1245.36" cy="1699.67" r="8.88811" stroke-width="0.5" stroke="black" fill="grey"/>
  <circle cx="1245.36" cy="1699.67" r="5.38958" stroke-width="0.5" stroke="grey" fill="grey"/>
   </g>
   <g id="cell46">
  <circle cx="179.375" cy="1951.37" r="9.34292" stroke-width="0.5" stroke="black" fill="grey"/>
  <circle cx="179.375" cy="1951.37" r="5.67875" stroke-width="0.5" stroke="grey" fill="grey"/>
   </g>
   <g id="cell47">
  <circle cx="1751.25" cy="909.578" r="9.86542" stroke-width="0.5" stroke="black" fill="grey"/>
  <circle cx="1751.25" cy="909.578" r="5.98895" stroke-width="0.5" stroke="grey" fill="grey"/>
   </g>
   <g id="cell48">
  <circle cx="1940.16" cy="114.517" r="8.41271" stroke-width="0.5" stroke="black" fill="grey"/>
  <circle cx="1940.16" cy="114.517" r="5.05167" stroke-width="0.5" stroke="grey" fill="grey"/>
   </g>
   <g id="cell49">
  <circle cx="903.795" cy="1468.97" r="8.88811" stroke-width="0.5" stroke="black" fill="grey"/>
  <circle cx="903.795" cy="1468.97" r="5.38958" stroke-width="0.5" stroke="grey" fill="grey"/>
   </g>
   <g id="cell50">
  <circle cx="114.429" cy="898.206" r="8.84788" stroke-width="0.5" stroke="black" fill="red"/>
  <circle cx="114.429" cy="898.206" r="5.36278" stroke-width="0.5" stroke="red" fill="red"/>
   </g>
   <g id="cell51">
  <circle cx="1968.15" cy="267.789" r="8.41271" stroke-width="0.5" stroke="black" fill="red"/>
  <circle cx="1968.15" cy="267.789" r="5.05167" stroke-width="0.5" stroke="red" fill="red"/>
   </g>
   <g id="cell52">
  <circle cx="610.113" cy="942.731" r="9.12489" stroke-width="0.5" stroke="black" fill="red"/>
  <circle cx="610.113" cy="942.731" r="5.54282" stroke-width="0.5" stroke="red" fill="red"/>
   </g>
   <g id="cell53">
  <circle cx="1383.88" cy="662.381" r="8.41271" stroke-width="0.5" stroke="black" fill="red"/>
  <circle cx="1383.88" cy="662.381" r="5.05167" stroke-width="0.5" stroke="red" fill="red"/>
   </g>
   <g id="cell54">
  <circle cx="821.36" cy="1823.32" r="9.30826" stroke-width="0.5" stroke="black" fill="red"/>
  <circle cx="821.36" cy="1823.32" r="5.65742" stroke-width="0.5" stroke="red" fill="red"/>
   </g>
   <g id="cell55">
  <circle cx="422.867" cy="1382.13" r="8.41271" stroke-width="0.5" stroke="black" fill="red"/>
  <circle cx="422.867" cy="1382.13" r="5.05167" stroke-width="0.5" stroke="red" fill="red"/>
   </g>
   <g id="cell56">
  <circle cx="1156.74" cy="1721.77" r="8.41271" stroke-width="0.5" stroke="black" fill="red"/>
  <circle cx="1156.74" cy="1721.77" r="5.05167" stroke-width="0.5" stroke="red" fill="red"/>
   </g>
   <g id="cell57">
  <circle cx="1016.24" cy="1072.68" r="9.7992" stroke-width="0.5" stroke="black" fill="red"/>
  <circle cx="1016.24" cy="1072.68" r="5.95086" stroke-width="0.5" stroke="red" fill="red"/>
   </g>
   <g id="cell58">
  <circle cx="175.287" cy="1811.97" r="8.41271" stroke-width="0.5" stroke="black" fill="red"/>
  <circle cx="175.287" cy="1811.97" r="5.05167" stroke-width="0.5" stroke="red" fill="red"/>
   </g>
   <g id="cell59">
  <circle cx="166.225" cy="1858.59" r="1.84616" stroke-width="0.5" stroke="black" fill="red"/>
  <circle cx="166.225" cy="1858.59" r="1.7784" stroke-width="0.5" stroke="black" fill="black"/>
   </g>
   <g id="cell60">
  <circle cx="650.125" cy="25.4195" r="8.96831" stroke-width="0.5" stroke="black" fill="red"/>
  <circle cx="650.125" cy="25.4195" r="5.44228" stroke-width="0.5" stroke="red" fill="red"/>
   </g>
   <g id="cell61">
  <circle cx="1663.78" cy="255.006" r="9.44256" stroke-width="0.5" stroke="black" fill="red"/>
  <circle cx="1663.78" cy="255.006" r="5.73955" stroke-width="0.5" stroke="red" fill="red"/>
   </g>
   <g id="cell62">
  <circle cx="1424.08" cy="1694.27" r="9.2729" stroke-width="0.5" stroke="black" fill="red"/>
  <circle cx="1424.08" cy="1694.27" r="5.63555" stroke-width="0.5" stroke="red" fill="red"/>
   </g>
   <g id="cell63">
  <circle cx="568.839" cy="372.316" r="8.41271" stroke-width="0.5" stroke="black" fill="red"/>
  <circle cx="568.839" cy="372.316" r="5.05167" stroke-width="0.5" stroke="red" fill="red"/>
   </g>
   <g id="cell64">
  <circle cx="1182.5" cy="1118.99" r="8.96831" stroke-width="0.5" stroke="black" fill="red"/>
  <circle cx="1182.5" cy="1118.99" r="5.44228" stroke-width="0.5" stroke="red" fill="red"/>
   </g>
   <g id="cell65">
  <circle cx="311.733" cy="1655.62" r="9.30826" stroke-width="0.5" stroke="black" fill="red"/>
  <circle cx="311.733" cy="1655.62" r="5.65742" stroke-width="0.5" stroke="red" fill="red"/>
   </g>
   <g id="cell66">
  <circle cx="16.4514" cy="288.063" r="8.65127" stroke-width="0.5" stroke="black" fill="red"/>
  <circle cx="16.4514" cy="288.063" r="5.2272" stroke-width="0.5" stroke="red" fill="red"/>
   </g>
   <g id="cell67">
  <circle cx="1162.4" cy="534.308" r="8.41271" stroke-width="0.5" stroke="black" fill="red"/>
  <circle cx="1162.4" cy="534.308" r="5.05167" stroke-width="0.5" stroke="red" fill="red"/>
   </g>
   <g id="cell68">
  <circle cx="1449.5" cy="601.812" r="9.16281" stroke-width="0.5" stroke="black" fill="red"/>
  <circle cx="1449.5" cy="601.812" r="5.56677" stroke-width="0.5" stroke="red" fill="red"/>
   </g>
   <g id="cell69">
  <circle cx="859.306" cy="516.49" r="8.41271" stroke-width="0.5" stroke="black" fill="red"/>
  <circle cx="859.306" cy="516.49" r="5.05167" stroke-width="0.5" stroke="red" fill="red"/>
   </g>
   <g id="cell70">
  <circle cx="1174.71" cy="803.397" r="9.5053" stroke-width="0.5" stroke="black" fill="red"/>
  <circle cx="1174.71" cy="803.397" r="5.77744" stroke-width="0.5" stroke="red" fill="red"/>
   </g>
   <g id="cell71">
  <circle cx="1784" cy="1168.64" r="9.84395" stroke-width="0.5" stroke="black" fill="red"/>
  <circle cx="1784" cy="1168.64" r="5.97665" stroke-width="0.5" stroke="red" fill="red"/>
   </g>
   <g id="cell72">
  <circle cx="440.626" cy="1770.27" r="8.41271" stroke-width="0.5" stroke="black" fill="red"/>
  <circle cx="440.626" cy="1770.27" r="5.05167" stroke-width="0.5" stroke="red" fill="red"/>
   </g>
   <g id="cell73">
  <circle cx="1359.36" cy="863.805" r="9.7273" stroke-width="0.5" stroke="black" fill="red"/>
  <circle cx="1359.36" cy="863.805" r="5.90906" stroke-width="0.5" stroke="red" fill="red"/>
   </g>
   <g id="cell74">
  <circle cx="1692.08" cy="1930.53" r="9.34292" stroke-width="0.5" stroke="black" fill="red"/>
  <circle cx="1692.08" cy="1930.53" r="5.67875" stroke-width="0.5" stroke="red" fill="red"/>
   </g>
   <g id="cell75">
  <circle cx="221.974" cy="595.323" r="8.41271" stroke-width="0.5" stroke="black" fill="red"/>
  <circle cx="221.974" cy="595.323" r="5.05167" stroke-width="0.5" stroke="red" fill="red"/>
   </g>
   <g id="cell76">
  <circle cx="1637.7" cy="794.169" r="8.45606" stroke-width="0.5" stroke="black" fill="red"/>
  <circle cx="1637.7" cy="794.169" r="5.08296" stroke-width="0.5" stroke="red" fill="red"/>
   </g>
   <g id="cell77">
  <circle cx="1356.73" cy="1787.86" r="9.59391" stroke-width="0.5" stroke="black" fill="red"/>
  <circle cx="1356.73" cy="1787.86" r="5.83043" stroke-width="0.5" stroke="red" fill="red"/>
   </g>
   <g id="cell78">
  <circle cx="1142.62" cy="632.644" r="8.41271" stroke-width="0.5" stroke="black" fill="red"/>
  <circle cx="1142.62" cy="632.644" r="5.05167" stroke-width="0.5" stroke="red" fill="red"/>
   </g>
   <g id="cell79">
  <circle cx="1955.45" cy="1420.2" r="8.51252" stroke-width="0.5" stroke="black" fill="red"/>
  <circle cx="1955.45" cy="1420.2" r="5.12552" stroke-width="0.5" stroke="red" fill="red"/>
   </g>
   <g id="cell80">
  <circle cx="1458.56" cy="1306.91" r="9.53557" stroke-width="0.5" stroke="black" fill="red"/>
  <circle cx="1458.56" cy="1306.91" r="5.79561" stroke-width="0.5" stroke="red" fill="red"/>
   </g>
   <g id="cell81">
  <circle cx="1077.91" cy="1913.59" r="9.00806" stroke-width="0.5" stroke="black" fill="red"/>
  <circle cx="1077.91" cy="1913.59" r="5.46807" stroke-width="0.5" stroke="red" fill="red"/>
   </g>
   <g id="cell82">
  <circle cx="1283.01" cy="802.479" r="9.70201" stroke-width="0.5" stroke="black" fill="red"/>
  <circle cx="1283.01" cy="802.479" r="5.89426" stroke-width="0.5" stroke="red" fill="red"/>
   </g>
   <g id="cell83">
  <circle cx="1204.05" cy="1218.03" r="9.90658" stroke-width="0.5" stroke="black" fill="red"/>
  <circle cx="1204.05" cy="1218.03" r="6.01243" stroke-width="0.5" stroke="red" fill="red"/>
   </g>
   <g id="cell84">
  <circle cx="31.5514" cy="920.722" r="8.41271" stroke-width="0.5" stroke="black" fill="red"/>
  <circle cx="31.5514" cy="920.722" r="5.05167" stroke-width="0.5" stroke="red" fill="red"/>
   </g>
   <g id="cell85">
  <circle cx="1449.33" cy="1331.69" r="8.41271" stroke-width="0.5" stroke="black" fill="red"/>
  <circle cx="1449.33" cy="1331.69" r="5.05167" stroke-width="0.5" stroke="red" fill="red"/>
   </g>
   <g id="cell86">
  <circle cx="562.941" cy="780.419" r="8.80772" stroke-width="0.5" stroke="black" fill="red"/>
  <circle cx="562.941" cy="780.419" r="5.33574" stroke-width="0.5" stroke="red" fill="red"/>
   </g>
   <g id="cell87">
  <circle cx="1492.21" cy="869.478" r="8.41271" stroke-width="0.5" stroke="black" fill="red"/>
  <circle cx="1492.21" cy="869.478" r="5.05167" stroke-width="0.5" stroke="red" fill="red"/>
   </g>
   <g id="cell88">
  <circle cx="260.35" cy="216.852" r="9.34292" stroke-width="0.5" stroke="black" fill="red"/>
  <circle cx="260.35" cy="216.852" r="5.67875" stroke-width="0.5" stroke="red" fill="red"/>
   </g>
   <g id="cell89">
  <circle cx="190.503" cy="1130.33" r="9.44256" stroke-width="0.5" stroke="black" fill="red"/>
  <circle cx="190.503" cy="1130.33" r="5.73955" stroke-width="0.5" stroke="red" fill="red"/>
   </g>
   <g id="cell90">
  <circle cx="1196.36" cy="1095.35" r="8.41271" stroke-width="0.5" stroke="black" fill="red"/>
  <circle cx="1196.36" cy="1095.35" r="5.05167" stroke-width="0.5" stroke="red" fill="red"/>
   </g>
   <g id="cell91">
  <circle cx="65.1685" cy="1284.29" r="9.59391" stroke-width="0.5" stroke="black" fill="red"/>
  <circle cx="65.1685" cy="1284.29" r="5.83043" stroke-width="0.5" stroke="red" fill="red"/>
   </g>
   <g id="cell92">
  <circle cx="1304.21" cy="641.994" r="1.84616" stroke-width="0.5" stroke="black" fill="red"/>
  <circle cx="1304.21" cy="641.994" r="1.7784" stroke-width="0.5" stroke="black" fill="black"/>
   </g>
   <g id="cell93">
  <circle cx="433.46" cy="1802.57" r="9.88629" stroke-width="0.5" stroke="black" fill="red"/>
  <circle cx="433.46" cy="1802.57" r="6.00088" stroke-width="0.5" stroke="red" fill="red"/>
   </g>
   <g id="cell94">
  <circle cx="732.718" cy="195.391" r="9.04745" stroke-width="0.5" stroke="black" fill="red"/>
  <circle cx="732.718" cy="195.391" r="5.49345" stroke-width="0.5" stroke="red" fill="red"/>
   </g>
   <g id="cell95">
  <circle cx="1949.39" cy="1784.15" r="9.7992" stroke-width="0.5" stroke="black" fill="red"/>
  <circle cx="1949.39" cy="1784.15" r="5.95086" stroke-width="0.5" stroke="red" fill="red"/>
   </g>
   <g id="cell96">
  <circle cx="1630.06" cy="1064.56" r="8.41271" stroke-width="0.5" stroke="black" fill="red"/>
  <circle cx="1630.06" cy="1064.56" r="5.05167" stroke-width="0.5" stroke="red" fill="red"/>
   </g>
   <g id="cell97">
  <circle cx="937.008" cy="178.393" r="8.96831" stroke-width="0.5" stroke="black" fill="red"/>
  <circle cx="937.008" cy="178.393" r="5.44228" stroke-width="0.5" stroke="red" fill="red"/>
   </g>
   <g id="cell98">
  <circle cx="1813" cy="704.235" r="8.48289" stroke-width="0.5" stroke="black" fill="red"/>
  <circle cx="1813" cy="704.235" r="5.10317" stroke-width="0.5" stroke="red" fill="red"/>
   </g>
   <g id="cell99">
  <circle cx="942.98" cy="1990.82" r="9.82189" stroke-width="0.5" stroke="black" fill="red"/>
  <circle cx="942.98" cy="1990.82" r="5.96395" stroke-width="0.5" stroke="red" fill="red"/>
   </g>
  </g>
 </g>
  <rect x="1750" y="2070" width="200" height="20" stroke-width="4" stroke="rgb(255,255,255)" fill="rgb(0,0,0)"/>
  <text x="1762.5" y="2057.5"
   font-family="Arial" font-size="50" fill="black" >
   200 &#956;m
  </text>
  <text x="50" y="2090"
   font-family="Arial" font-size="37.5" fill="black" >
   0 days, 0 hours, 0 minutes, and 7.4236 seconds
  </text>
  <rect x="0" y="140" width="2000" height="2000" stroke-width="4" stroke="rgb(0,0,0)" fill="none"/>
</svg>
