<?xml version="1.0" encoding="UTF-8" standalone="no"?>
<!-- Created with PhysiCell (http://PhysiCell.MathCancer.org/) -->
<svg 
 xmlns:dc="http://purl.org/dc/elements/1.1/" 
 xmlns:cc="http://creativecommons.org/ns#" 
 xmlns:rdf="http://www.w3.org/1999/02/22-rdf-syntax-ns#" 
 xmlns:svg="http://www.w3.org/2000/svg" 
 xmlns="http://www.w3.org/2000/svg" 
 version="1.1" 
 width="2000" 
 height="2140" 
 id="svg2">
  <rect x="0" y="0" width="2000" height="2140" stroke-width="4" stroke="white" fill="white"/>
  <text x="25" y="60"
   font-family="Arial" font-size="50" fill="black" >
   Current time: 0 days, 6 hours, and 0.00 minutes, z = 0.00 &#956;m
  </text>
  <text x="25" y="115"
   font-family="Arial" font-size="47.5" fill="black" >
   100 agents
  </text>
 <g id="tissue" 
    transform="translate(0,2140) scale(1,-1)">
  <g id="ECM">
  </g>
  <g id="cells">
   <g id="cell0">
  <circle cx="1117.87" cy="1167.17" r="9.08642" stroke-width="0.5" stroke="black" fill="grey"/>
  <circle cx="1117.87" cy="1167.17" r="5.51837" stroke-width="0.5" stroke="grey" fill="grey"/>
   </g>
   <g id="cell1">
  <circle cx="1688.19" cy="1165.72" r="8.54454" stroke-width="0.5" stroke="black" fill="grey"/>
  <circle cx="1688.19" cy="1165.72" r="5.14947" stroke-width="0.5" stroke="grey" fill="grey"/>
   </g>
   <g id="cell2">
  <circle cx="1112" cy="1726.59" r="9.5651" stroke-width="0.5" stroke="black" fill="grey"/>
  <circle cx="1112" cy="1726.59" r="5.81327" stroke-width="0.5" stroke="grey" fill="grey"/>
   </g>
   <g id="cell3">
  <circle cx="1240.65" cy="1282.48" r="10.0336" stroke-width="0.5" stroke="black" fill="grey"/>
  <circle cx="1240.65" cy="1282.48" r="6.08382" stroke-width="0.5" stroke="grey" fill="grey"/>
   </g>
   <g id="cell4">
  <circle cx="849.197" cy="631.924" r="9.7273" stroke-width="0.5" stroke="black" fill="grey"/>
  <circle cx="849.197" cy="631.924" r="5.90906" stroke-width="0.5" stroke="grey" fill="grey"/>
   </g>
   <g id="cell5">
  <circle cx="96.3362" cy="1950.2" r="8.41271" stroke-width="0.5" stroke="black" fill="grey"/>
  <circle cx="96.3362" cy="1950.2" r="5.05167" stroke-width="0.5" stroke="grey" fill="grey"/>
   </g>
   <g id="cell6">
  <circle cx="788.326" cy="947.924" r="9.30826" stroke-width="0.5" stroke="black" fill="grey"/>
  <circle cx="788.326" cy="947.924" r="5.65742" stroke-width="0.5" stroke="grey" fill="grey"/>
   </g>
   <g id="cell7">
  <circle cx="1630.47" cy="1058.63" r="9.70201" stroke-width="0.5" stroke="black" fill="grey"/>
  <circle cx="1630.47" cy="1058.63" r="5.89426" stroke-width="0.5" stroke="grey" fill="grey"/>
   </g>
   <g id="cell8">
  <circle cx="1123.11" cy="771.585" r="9.34292" stroke-width="0.5" stroke="black" fill="grey"/>
  <circle cx="1123.11" cy="771.585" r="5.67875" stroke-width="0.5" stroke="grey" fill="grey"/>
   </g>
   <g id="cell9">
  <circle cx="1702.31" cy="136.77" r="8.41271" stroke-width="0.5" stroke="black" fill="grey"/>
  <circle cx="1702.31" cy="136.77" r="5.05167" stroke-width="0.5" stroke="grey" fill="grey"/>
   </g>
   <g id="cell10">
  <circle cx="167.832" cy="1287.62" r="9.98223" stroke-width="0.5" stroke="black" fill="grey"/>
  <circle cx="167.832" cy="1287.62" r="6.05517" stroke-width="0.5" stroke="grey" fill="grey"/>
   </g>
   <g id="cell11">
  <circle cx="722.416" cy="1675.96" r="9.12489" stroke-width="0.5" stroke="black" fill="grey"/>
  <circle cx="722.416" cy="1675.96" r="5.54282" stroke-width="0.5" stroke="grey" fill="grey"/>
   </g>
   <g id="cell12">
  <circle cx="1544.58" cy="324.331" r="9.59391" stroke-width="0.5" stroke="black" fill="grey"/>
  <circle cx="1544.58" cy="324.331" r="5.83043" stroke-width="0.5" stroke="grey" fill="grey"/>
   </g>
   <g id="cell13">
  <circle cx="1755.64" cy="1940.85" r="8.41271" stroke-width="0.5" stroke="black" fill="grey"/>
  <circle cx="1755.64" cy="1940.85" r="5.05167" stroke-width="0.5" stroke="grey" fill="grey"/>
   </g>
   <g id="cell14">
  <circle cx="1596.57" cy="1571.83" r="9.00806" stroke-width="0.5" stroke="black" fill="grey"/>
  <circle cx="1596.57" cy="1571.83" r="5.46807" stroke-width="0.5" stroke="grey" fill="grey"/>
   </g>
   <g id="cell15">
  <circle cx="1015.44" cy="1571.42" r="9.96412" stroke-width="0.5" stroke="black" fill="grey"/>
  <circle cx="1015.44" cy="1571.42" r="6.04499" stroke-width="0.5" stroke="grey" fill="grey"/>
   </g>
   <g id="cell16">
  <circle cx="222.986" cy="1449.75" r="9.96412" stroke-width="0.5" stroke="black" fill="grey"/>
  <circle cx="222.986" cy="1449.75" r="6.04499" stroke-width="0.5" stroke="grey" fill="grey"/>
   </g>
   <g id="cell17">
  <circle cx="1181.01" cy="293.901" r="9.96412" stroke-width="0.5" stroke="black" fill="grey"/>
  <circle cx="1181.01" cy="293.901" r="6.04499" stroke-width="0.5" stroke="grey" fill="grey"/>
   </g>
   <g id="cell18">
  <circle cx="1882.93" cy="1540.21" r="8.41271" stroke-width="0.5" stroke="black" fill="grey"/>
  <circle cx="1882.93" cy="1540.21" r="5.05167" stroke-width="0.5" stroke="grey" fill="grey"/>
   </g>
   <g id="cell19">
  <circle cx="188.479" cy="835.045" r="8.41271" stroke-width="0.5" stroke="black" fill="grey"/>
  <circle cx="188.479" cy="835.045" r="5.05167" stroke-width="0.5" stroke="grey" fill="grey"/>
   </g>
   <g id="cell20">
  <circle cx="564.646" cy="373.432" r="9.82189" stroke-width="0.5" stroke="black" fill="grey"/>
  <circle cx="564.646" cy="373.432" r="5.96395" stroke-width="0.5" stroke="grey" fill="grey"/>
   </g>
   <g id="cell21">
  <circle cx="1460.46" cy="925.276" r="9.30826" stroke-width="0.5" stroke="black" fill="grey"/>
  <circle cx="1460.46" cy="925.276" r="5.65742" stroke-width="0.5" stroke="grey" fill="grey"/>
   </g>
   <g id="cell22">
  <circle cx="1160.05" cy="222.88" r="9.92631" stroke-width="0.5" stroke="black" fill="grey"/>
  <circle cx="1160.05" cy="222.88" r="6.02363" stroke-width="0.5" stroke="grey" fill="grey"/>
   </g>
   <g id="cell23">
  <circle cx="655.199" cy="1219.87" r="9.84395" stroke-width="0.5" stroke="black" fill="grey"/>
  <circle cx="655.199" cy="1219.87" r="5.97665" stroke-width="0.5" stroke="grey" fill="grey"/>
   </g>
   <g id="cell24">
  <circle cx="1233.49" cy="441.016" r="3.04602" stroke-width="0.5" stroke="black" fill="grey"/>
  <circle cx="1233.49" cy="441.016" r="2.48703" stroke-width="0.5" stroke="black" fill="black"/>
   </g>
   <g id="cell25">
  <circle cx="766.065" cy="1896.77" r="9.86542" stroke-width="0.5" stroke="black" fill="grey"/>
  <circle cx="766.065" cy="1896.77" r="5.98895" stroke-width="0.5" stroke="grey" fill="grey"/>
   </g>
   <g id="cell26">
  <circle cx="1382.58" cy="919.396" r="8.41271" stroke-width="0.5" stroke="black" fill="grey"/>
  <circle cx="1382.58" cy="919.396" r="5.05167" stroke-width="0.5" stroke="grey" fill="grey"/>
   </g>
   <g id="cell27">
  <circle cx="1222.02" cy="845.792" r="9.70201" stroke-width="0.5" stroke="black" fill="grey"/>
  <circle cx="1222.02" cy="845.792" r="5.89426" stroke-width="0.5" stroke="grey" fill="grey"/>
   </g>
   <g id="cell28">
  <circle cx="1401.29" cy="210.379" r="10.0169" stroke-width="0.5" stroke="black" fill="grey"/>
  <circle cx="1401.29" cy="210.379" r="6.07458" stroke-width="0.5" stroke="grey" fill="grey"/>
   </g>
   <g id="cell29">
  <circle cx="1919.46" cy="1338.77" r="10.0169" stroke-width="0.5" stroke="black" fill="grey"/>
  <circle cx="1919.46" cy="1338.77" r="6.07458" stroke-width="0.5" stroke="grey" fill="grey"/>
   </g>
   <g id="cell30">
  <circle cx="1355.01" cy="337.661" r="8.41271" stroke-width="0.5" stroke="black" fill="grey"/>
  <circle cx="1355.01" cy="337.661" r="5.05167" stroke-width="0.5" stroke="grey" fill="grey"/>
   </g>
   <g id="cell31">
  <circle cx="699.067" cy="285.645" r="8.96831" stroke-width="0.5" stroke="black" fill="grey"/>
  <circle cx="699.067" cy="285.645" r="5.44228" stroke-width="0.5" stroke="grey" fill="grey"/>
   </g>
   <g id="cell32">
  <circle cx="655.916" cy="1203.34" r="10.1098" stroke-width="0.5" stroke="black" fill="grey"/>
  <circle cx="655.916" cy="1203.34" r="6.12585" stroke-width="0.5" stroke="grey" fill="grey"/>
   </g>
   <g id="cell33">
  <circle cx="645.74" cy="1152.32" r="8.41271" stroke-width="0.5" stroke="black" fill="grey"/>
  <circle cx="645.74" cy="1152.32" r="5.05167" stroke-width="0.5" stroke="grey" fill="grey"/>
   </g>
   <g id="cell34">
  <circle cx="867.662" cy="1284.23" r="9.16281" stroke-width="0.5" stroke="black" fill="grey"/>
  <circle cx="867.662" cy="1284.23" r="5.56677" stroke-width="0.5" stroke="grey" fill="grey"/>
   </g>
   <g id="cell35">
  <circle cx="1923.3" cy="193.698" r="8.41271" stroke-width="0.5" stroke="black" fill="grey"/>
  <circle cx="1923.3" cy="193.698" r="5.05167" stroke-width="0.5" stroke="grey" fill="grey"/>
   </g>
   <g id="cell36">
  <circle cx="418.042" cy="1253.11" r="9.84395" stroke-width="0.5" stroke="black" fill="grey"/>
  <circle cx="418.042" cy="1253.11" r="5.97665" stroke-width="0.5" stroke="grey" fill="grey"/>
   </g>
   <g id="cell37">
  <circle cx="1980.14" cy="1355.53" r="9.5053" stroke-width="0.5" stroke="black" fill="grey"/>
  <circle cx="1980.14" cy="1355.53" r="5.77744" stroke-width="0.5" stroke="grey" fill="grey"/>
   </g>
   <g id="cell38">
  <circle cx="508.689" cy="847.491" r="8.41271" stroke-width="0.5" stroke="black" fill="grey"/>
  <circle cx="508.689" cy="847.491" r="5.05167" stroke-width="0.5" stroke="grey" fill="grey"/>
   </g>
   <g id="cell39">
  <circle cx="952.68" cy="475.72" r="9.59391" stroke-width="0.5" stroke="black" fill="grey"/>
  <circle cx="952.68" cy="475.72" r="5.83043" stroke-width="0.5" stroke="grey" fill="grey"/>
   </g>
   <g id="cell40">
  <circle cx="320.093" cy="660.447" r="9.5651" stroke-width="0.5" stroke="black" fill="grey"/>
  <circle cx="320.093" cy="660.447" r="5.81327" stroke-width="0.5" stroke="grey" fill="grey"/>
   </g>
   <g id="cell41">
  <circle cx="1323.53" cy="1316.4" r="8.80772" stroke-width="0.5" stroke="black" fill="grey"/>
  <circle cx="1323.53" cy="1316.4" r="5.33574" stroke-width="0.5" stroke="grey" fill="grey"/>
   </g>
   <g id="cell42">
  <circle cx="243.301" cy="1552.4" r="8.41271" stroke-width="0.5" stroke="black" fill="grey"/>
  <circle cx="243.301" cy="1552.4" r="5.05167" stroke-width="0.5" stroke="grey" fill="grey"/>
   </g>
   <g id="cell43">
  <circle cx="1886.33" cy="722.275" r="8.41271" stroke-width="0.5" stroke="black" fill="grey"/>
  <circle cx="1886.33" cy="722.275" r="5.05167" stroke-width="0.5" stroke="grey" fill="grey"/>
   </g>
   <g id="cell44">
  <circle cx="1637.48" cy="52.7731" r="9.41008" stroke-width="0.5" stroke="black" fill="grey"/>
  <circle cx="1637.48" cy="52.7731" r="5.71981" stroke-width="0.5" stroke="grey" fill="grey"/>
   </g>
   <g id="cell45">
  <circle cx="1223.83" cy="1641.18" r="8.41271" stroke-width="0.5" stroke="black" fill="grey"/>
  <circle cx="1223.83" cy="1641.18" r="5.05167" stroke-width="0.5" stroke="grey" fill="grey"/>
   </g>
   <g id="cell46">
  <circle cx="202.826" cy="1918.29" r="8.41271" stroke-width="0.5" stroke="black" fill="grey"/>
  <circle cx="202.826" cy="1918.29" r="5.05167" stroke-width="0.5" stroke="grey" fill="grey"/>
   </g>
   <g id="cell47">
  <circle cx="1762.93" cy="968.615" r="9.86542" stroke-width="0.5" stroke="black" fill="grey"/>
  <circle cx="1762.93" cy="968.615" r="5.98895" stroke-width="0.5" stroke="grey" fill="grey"/>
   </g>
   <g id="cell48">
  <circle cx="1969" cy="94.938" r="9.92631" stroke-width="0.5" stroke="black" fill="grey"/>
  <circle cx="1969" cy="94.938" r="6.02363" stroke-width="0.5" stroke="grey" fill="grey"/>
   </g>
   <g id="cell49">
  <circle cx="881.309" cy="1446.32" r="10.0654" stroke-width="0.5" stroke="black" fill="grey"/>
  <circle cx="881.309" cy="1446.32" r="6.10145" stroke-width="0.5" stroke="grey" fill="grey"/>
   </g>
   <g id="cell50">
  <circle cx="76.9103" cy="884.756" r="10.1098" stroke-width="0.5" stroke="black" fill="red"/>
  <circle cx="76.9103" cy="884.756" r="6.12585" stroke-width="0.5" stroke="red" fill="red"/>
   </g>
   <g id="cell51">
  <circle cx="1975.2" cy="244.122" r="8.41271" stroke-width="0.5" stroke="black" fill="red"/>
  <circle cx="1975.2" cy="244.122" r="5.05167" stroke-width="0.5" stroke="red" fill="red"/>
   </g>
   <g id="cell52">
  <circle cx="592.36" cy="974.98" r="9.44256" stroke-width="0.5" stroke="black" fill="red"/>
  <circle cx="592.36" cy="974.98" r="5.73955" stroke-width="0.5" stroke="red" fill="red"/>
   </g>
   <g id="cell53">
  <circle cx="1332.19" cy="636.091" r="10.0497" stroke-width="0.5" stroke="black" fill="red"/>
  <circle cx="1332.19" cy="636.091" r="6.09278" stroke-width="0.5" stroke="red" fill="red"/>
   </g>
   <g id="cell54">
  <circle cx="794.885" cy="1817.99" r="10.1098" stroke-width="0.5" stroke="black" fill="red"/>
  <circle cx="794.885" cy="1817.99" r="6.12585" stroke-width="0.5" stroke="red" fill="red"/>
   </g>
   <g id="cell55">
  <circle cx="418.367" cy="1376.84" r="9.84395" stroke-width="0.5" stroke="black" fill="red"/>
  <circle cx="418.367" cy="1376.84" r="5.97665" stroke-width="0.5" stroke="red" fill="red"/>
   </g>
   <g id="cell56">
  <circle cx="1173.03" cy="1711.13" r="8.41271" stroke-width="0.5" stroke="black" fill="red"/>
  <circle cx="1173.03" cy="1711.13" r="5.05167" stroke-width="0.5" stroke="red" fill="red"/>
   </g>
   <g id="cell57">
  <circle cx="1022.14" cy="1045.67" r="8.41271" stroke-width="0.5" stroke="black" fill="red"/>
  <circle cx="1022.14" cy="1045.67" r="5.05167" stroke-width="0.5" stroke="red" fill="red"/>
   </g>
   <g id="cell58">
  <circle cx="169.102" cy="1823.46" r="9.7992" stroke-width="0.5" stroke="black" fill="red"/>
  <circle cx="169.102" cy="1823.46" r="5.95086" stroke-width="0.5" stroke="red" fill="red"/>
   </g>
   <g id="cell59">
  <circle cx="171.722" cy="1844.99" r="3.42531" stroke-width="0.5" stroke="black" fill="red"/>
  <circle cx="171.722" cy="1844.99" r="2.81584" stroke-width="0.5" stroke="black" fill="black"/>
   </g>
   <g id="cell60">
  <circle cx="654.576" cy="37.0137" r="10.0169" stroke-width="0.5" stroke="black" fill="red"/>
  <circle cx="654.576" cy="37.0137" r="6.07458" stroke-width="0.5" stroke="red" fill="red"/>
   </g>
   <g id="cell61">
  <circle cx="1671.78" cy="285.087" r="9.30826" stroke-width="0.5" stroke="black" fill="red"/>
  <circle cx="1671.78" cy="285.087" r="5.65742" stroke-width="0.5" stroke="red" fill="red"/>
   </g>
   <g id="cell62">
  <circle cx="1432.39" cy="1668.47" r="8.48289" stroke-width="0.5" stroke="black" fill="red"/>
  <circle cx="1432.39" cy="1668.47" r="5.10317" stroke-width="0.5" stroke="red" fill="red"/>
   </g>
   <g id="cell63">
  <circle cx="537.637" cy="339.934" r="8.41271" stroke-width="0.5" stroke="black" fill="red"/>
  <circle cx="537.637" cy="339.934" r="5.05167" stroke-width="0.5" stroke="red" fill="red"/>
   </g>
   <g id="cell64">
  <circle cx="1149.49" cy="1111.58" r="8.51252" stroke-width="0.5" stroke="black" fill="red"/>
  <circle cx="1149.49" cy="1111.58" r="5.12552" stroke-width="0.5" stroke="red" fill="red"/>
   </g>
   <g id="cell65">
  <circle cx="363.703" cy="1649.17" r="9.84395" stroke-width="0.5" stroke="black" fill="red"/>
  <circle cx="363.703" cy="1649.17" r="5.97665" stroke-width="0.5" stroke="red" fill="red"/>
   </g>
   <g id="cell66">
  <circle cx="30.2147" cy="309.133" r="9.30826" stroke-width="0.5" stroke="black" fill="red"/>
  <circle cx="30.2147" cy="309.133" r="5.65742" stroke-width="0.5" stroke="red" fill="red"/>
   </g>
   <g id="cell67">
  <circle cx="1084.13" cy="547.599" r="8.96831" stroke-width="0.5" stroke="black" fill="red"/>
  <circle cx="1084.13" cy="547.599" r="5.44228" stroke-width="0.5" stroke="red" fill="red"/>
   </g>
   <g id="cell68">
  <circle cx="1462.09" cy="584.226" r="9.82189" stroke-width="0.5" stroke="black" fill="red"/>
  <circle cx="1462.09" cy="584.226" r="5.96395" stroke-width="0.5" stroke="red" fill="red"/>
   </g>
   <g id="cell69">
  <circle cx="881.5" cy="508.77" r="8.41271" stroke-width="0.5" stroke="black" fill="red"/>
  <circle cx="881.5" cy="508.77" r="5.05167" stroke-width="0.5" stroke="red" fill="red"/>
   </g>
   <g id="cell70">
  <circle cx="1165.59" cy="819.308" r="9.62199" stroke-width="0.5" stroke="black" fill="red"/>
  <circle cx="1165.59" cy="819.308" r="5.8471" stroke-width="0.5" stroke="red" fill="red"/>
   </g>
   <g id="cell71">
  <circle cx="1783.88" cy="1123.85" r="9.41008" stroke-width="0.5" stroke="black" fill="red"/>
  <circle cx="1783.88" cy="1123.85" r="5.71981" stroke-width="0.5" stroke="red" fill="red"/>
   </g>
   <g id="cell72">
  <circle cx="457.798" cy="1807.96" r="8.41271" stroke-width="0.5" stroke="black" fill="red"/>
  <circle cx="457.798" cy="1807.96" r="5.05167" stroke-width="0.5" stroke="red" fill="red"/>
   </g>
   <g id="cell73">
  <circle cx="1405.65" cy="893.067" r="9.90658" stroke-width="0.5" stroke="black" fill="red"/>
  <circle cx="1405.65" cy="893.067" r="6.01243" stroke-width="0.5" stroke="red" fill="red"/>
   </g>
   <g id="cell74">
  <circle cx="1690.19" cy="1934.31" r="9.88629" stroke-width="0.5" stroke="black" fill="red"/>
  <circle cx="1690.19" cy="1934.31" r="6.00088" stroke-width="0.5" stroke="red" fill="red"/>
   </g>
   <g id="cell75">
  <circle cx="214.428" cy="598.112" r="8.41271" stroke-width="0.5" stroke="black" fill="red"/>
  <circle cx="214.428" cy="598.112" r="5.05167" stroke-width="0.5" stroke="red" fill="red"/>
   </g>
   <g id="cell76">
  <circle cx="1606.38" cy="824.577" r="8.96831" stroke-width="0.5" stroke="black" fill="red"/>
  <circle cx="1606.38" cy="824.577" r="5.44228" stroke-width="0.5" stroke="red" fill="red"/>
   </g>
   <g id="cell77">
  <circle cx="1369.02" cy="1750.98" r="8.57856" stroke-width="0.5" stroke="black" fill="red"/>
  <circle cx="1369.02" cy="1750.98" r="5.17461" stroke-width="0.5" stroke="red" fill="red"/>
   </g>
   <g id="cell78">
  <circle cx="1200.31" cy="649.578" r="8.57856" stroke-width="0.5" stroke="black" fill="red"/>
  <circle cx="1200.31" cy="649.578" r="5.17461" stroke-width="0.5" stroke="red" fill="red"/>
   </g>
   <g id="cell79">
  <circle cx="1915.34" cy="1383.13" r="8.41271" stroke-width="0.5" stroke="black" fill="red"/>
  <circle cx="1915.34" cy="1383.13" r="5.05167" stroke-width="0.5" stroke="red" fill="red"/>
   </g>
   <g id="cell80">
  <circle cx="1449.18" cy="1299.85" r="9.41008" stroke-width="0.5" stroke="black" fill="red"/>
  <circle cx="1449.18" cy="1299.85" r="5.71981" stroke-width="0.5" stroke="red" fill="red"/>
   </g>
   <g id="cell81">
  <circle cx="1073.97" cy="1890.12" r="3.67057" stroke-width="0.5" stroke="black" fill="red"/>
  <circle cx="1073.97" cy="1890.12" r="2.88253" stroke-width="0.5" stroke="black" fill="black"/>
   </g>
   <g id="cell82">
  <circle cx="1270.14" cy="789.307" r="9.5053" stroke-width="0.5" stroke="black" fill="red"/>
  <circle cx="1270.14" cy="789.307" r="5.77744" stroke-width="0.5" stroke="red" fill="red"/>
   </g>
   <g id="cell83">
  <circle cx="1260.25" cy="1239.38" r="8.45606" stroke-width="0.5" stroke="black" fill="red"/>
  <circle cx="1260.25" cy="1239.38" r="5.08296" stroke-width="0.5" stroke="red" fill="red"/>
   </g>
   <g id="cell84">
  <circle cx="22.3421" cy="947.219" r="9.99984" stroke-width="0.5" stroke="black" fill="red"/>
  <circle cx="22.3421" cy="947.219" r="6.06503" stroke-width="0.5" stroke="red" fill="red"/>
   </g>
   <g id="cell85">
  <circle cx="1402.97" cy="1306.3" r="8.41271" stroke-width="0.5" stroke="black" fill="red"/>
  <circle cx="1402.97" cy="1306.3" r="5.05167" stroke-width="0.5" stroke="red" fill="red"/>
   </g>
   <g id="cell86">
  <circle cx="579.229" cy="786.527" r="8.41271" stroke-width="0.5" stroke="black" fill="red"/>
  <circle cx="579.229" cy="786.527" r="5.05167" stroke-width="0.5" stroke="red" fill="red"/>
   </g>
   <g id="cell87">
  <circle cx="1479.89" cy="864.735" r="9.30826" stroke-width="0.5" stroke="black" fill="red"/>
  <circle cx="1479.89" cy="864.735" r="5.65742" stroke-width="0.5" stroke="red" fill="red"/>
   </g>
   <g id="cell88">
  <circle cx="294.058" cy="178.599" r="9.41008" stroke-width="0.5" stroke="black" fill="red"/>
  <circle cx="294.058" cy="178.599" r="5.71981" stroke-width="0.5" stroke="red" fill="red"/>
   </g>
   <g id="cell89">
  <circle cx="185.104" cy="1152.51" r="8.41271" stroke-width="0.5" stroke="black" fill="red"/>
  <circle cx="185.104" cy="1152.51" r="5.05167" stroke-width="0.5" stroke="red" fill="red"/>
   </g>
   <g id="cell90">
  <circle cx="1166.68" cy="1103.24" r="8.41271" stroke-width="0.5" stroke="black" fill="red"/>
  <circle cx="1166.68" cy="1103.24" r="5.05167" stroke-width="0.5" stroke="red" fill="red"/>
   </g>
   <g id="cell91">
  <circle cx="48.2538" cy="1288.55" r="8.41271" stroke-width="0.5" stroke="black" fill="red"/>
  <circle cx="48.2538" cy="1288.55" r="5.05167" stroke-width="0.5" stroke="red" fill="red"/>
   </g>
   <g id="cell92">
  <circle cx="1265.24" cy="656.292" r="10.1098" stroke-width="0.5" stroke="black" fill="red"/>
  <circle cx="1265.24" cy="656.292" r="6.12585" stroke-width="0.5" stroke="red" fill="red"/>
   </g>
   <g id="cell93">
  <circle cx="440.883" cy="1803.59" r="8.72828" stroke-width="0.5" stroke="black" fill="red"/>
  <circle cx="440.883" cy="1803.59" r="5.28134" stroke-width="0.5" stroke="red" fill="red"/>
   </g>
   <g id="cell94">
  <circle cx="753.564" cy="198.1" r="9.67603" stroke-width="0.5" stroke="black" fill="red"/>
  <circle cx="753.564" cy="198.1" r="5.87901" stroke-width="0.5" stroke="red" fill="red"/>
   </g>
   <g id="cell95">
  <circle cx="1981.24" cy="1759.45" r="9.5651" stroke-width="0.5" stroke="black" fill="red"/>
  <circle cx="1981.24" cy="1759.45" r="5.81327" stroke-width="0.5" stroke="red" fill="red"/>
   </g>
   <g id="cell96">
  <circle cx="1615.3" cy="1074.5" r="9.7992" stroke-width="0.5" stroke="black" fill="red"/>
  <circle cx="1615.3" cy="1074.5" r="5.95086" stroke-width="0.5" stroke="red" fill="red"/>
   </g>
   <g id="cell97">
  <circle cx="880.256" cy="200.042" r="10.0336" stroke-width="0.5" stroke="black" fill="red"/>
  <circle cx="880.256" cy="200.042" r="6.08382" stroke-width="0.5" stroke="red" fill="red"/>
   </g>
   <g id="cell98">
  <circle cx="1811.15" cy="705.371" r="10.0806" stroke-width="0.5" stroke="black" fill="red"/>
  <circle cx="1811.15" cy="705.371" r="6.10985" stroke-width="0.5" stroke="red" fill="red"/>
   </g>
   <g id="cell99">
  <circle cx="922.409" cy="1965.63" r="10.0955" stroke-width="0.5" stroke="black" fill="red"/>
  <circle cx="922.409" cy="1965.63" r="6.11797" stroke-width="0.5" stroke="red" fill="red"/>
   </g>
  </g>
 </g>
  <rect x="1750" y="2070" width="200" height="20" stroke-width="4" stroke="rgb(255,255,255)" fill="rgb(0,0,0)"/>
  <text x="1762.5" y="2057.5"
   font-family="Arial" font-size="50" fill="black" >
   200 &#956;m
  </text>
  <text x="50" y="2090"
   font-family="Arial" font-size="37.5" fill="black" >
   0 days, 0 hours, 0 minutes, and 8.9688 seconds
  </text>
  <rect x="0" y="140" width="2000" height="2000" stroke-width="4" stroke="rgb(0,0,0)" fill="none"/>
</svg>
