<?xml version="1.0" encoding="UTF-8" standalone="no"?>
<!-- Created with PhysiCell (http://PhysiCell.MathCancer.org/) -->
<svg 
 xmlns:dc="http://purl.org/dc/elements/1.1/" 
 xmlns:cc="http://creativecommons.org/ns#" 
 xmlns:rdf="http://www.w3.org/1999/02/22-rdf-syntax-ns#" 
 xmlns:svg="http://www.w3.org/2000/svg" 
 xmlns="http://www.w3.org/2000/svg" 
 version="1.1" 
 width="2000" 
 height="2140" 
 id="svg2">
  <rect x="0" y="0" width="2000" height="2140" stroke-width="4" stroke="white" fill="white"/>
  <text x="25" y="60"
   font-family="Arial" font-size="50" fill="black" >
   Current time: 3 days, 0 hours, and 0.00 minutes, z = 0.00 &#956;m
  </text>
  <text x="25" y="115"
   font-family="Arial" font-size="47.5" fill="black" >
   100 agents
  </text>
 <g id="tissue" 
    transform="translate(0,2140) scale(1,-1)">
  <g id="ECM">
  </g>
  <g id="cells">
   <g id="cell0">
  <circle cx="1132.98" cy="1232.61" r="9.81632" stroke-width="0.5" stroke="black" fill="grey"/>
  <circle cx="1132.98" cy="1232.61" r="5.96216" stroke-width="0.5" stroke="grey" fill="grey"/>
   </g>
   <g id="cell1">
  <circle cx="1707.7" cy="1245.57" r="10.461" stroke-width="0.5" stroke="black" fill="grey"/>
  <circle cx="1707.7" cy="1245.57" r="6.30688" stroke-width="0.5" stroke="grey" fill="grey"/>
   </g>
   <g id="cell2">
  <circle cx="1175.73" cy="1744.31" r="8.40115" stroke-width="0.5" stroke="black" fill="grey"/>
  <circle cx="1175.73" cy="1744.31" r="5.04798" stroke-width="0.5" stroke="grey" fill="grey"/>
   </g>
   <g id="cell3">
  <circle cx="1263.35" cy="1322.52" r="9.69488" stroke-width="0.5" stroke="black" fill="grey"/>
  <circle cx="1263.35" cy="1322.52" r="5.89191" stroke-width="0.5" stroke="grey" fill="grey"/>
   </g>
   <g id="cell4">
  <circle cx="826.204" cy="549.245" r="8.40485" stroke-width="0.5" stroke="black" fill="grey"/>
  <circle cx="826.204" cy="549.245" r="5.04927" stroke-width="0.5" stroke="grey" fill="grey"/>
   </g>
   <g id="cell5">
  <circle cx="117.303" cy="1939.37" r="9.04103" stroke-width="0.5" stroke="black" fill="red"/>
  <circle cx="117.303" cy="1939.37" r="5.49135" stroke-width="0.5" stroke="red" fill="red"/>
   </g>
   <g id="cell6">
  <circle cx="869.417" cy="895.696" r="8.39571" stroke-width="0.5" stroke="black" fill="red"/>
  <circle cx="869.417" cy="895.696" r="5.04599" stroke-width="0.5" stroke="red" fill="red"/>
   </g>
   <g id="cell19">
  <circle cx="1712.44" cy="1341.33" r="9.45929" stroke-width="0.5" stroke="black" fill="grey"/>
  <circle cx="1712.44" cy="1341.33" r="5.75339" stroke-width="0.5" stroke="grey" fill="grey"/>
   </g>
   <g id="cell18">
  <circle cx="1632.68" cy="292.567" r="9.98175" stroke-width="0.5" stroke="black" fill="red"/>
  <circle cx="1632.68" cy="292.567" r="6.05504" stroke-width="0.5" stroke="red" fill="red"/>
   </g>
   <g id="cell9">
  <circle cx="1691.37" cy="164.507" r="9.26813" stroke-width="0.5" stroke="black" fill="red"/>
  <circle cx="1691.37" cy="164.507" r="5.63402" stroke-width="0.5" stroke="red" fill="red"/>
   </g>
   <g id="cell11">
  <circle cx="1576.25" cy="1099.53" r="9.33526" stroke-width="0.5" stroke="black" fill="red"/>
  <circle cx="1576.25" cy="1099.53" r="5.67618" stroke-width="0.5" stroke="red" fill="red"/>
   </g>
   <g id="cell20">
  <circle cx="799.764" cy="1028.77" r="10.4196" stroke-width="0.5" stroke="black" fill="red"/>
  <circle cx="799.764" cy="1028.77" r="6.28732" stroke-width="0.5" stroke="red" fill="red"/>
   </g>
   <g id="cell13">
  <circle cx="866.811" cy="640.492" r="10.3472" stroke-width="0.5" stroke="black" fill="grey"/>
  <circle cx="866.811" cy="640.492" r="6.25122" stroke-width="0.5" stroke="grey" fill="grey"/>
   </g>
   <g id="cell14">
  <circle cx="1139.2" cy="1320.87" r="8.38598" stroke-width="0.5" stroke="black" fill="grey"/>
  <circle cx="1139.2" cy="1320.87" r="5.04227" stroke-width="0.5" stroke="grey" fill="grey"/>
   </g>
   <g id="cell15">
  <circle cx="1140.96" cy="1212.75" r="8.3936" stroke-width="0.5" stroke="black" fill="grey"/>
  <circle cx="1140.96" cy="1212.75" r="5.04521" stroke-width="0.5" stroke="grey" fill="grey"/>
   </g>
   <g id="cell16">
  <circle cx="1105.49" cy="1675.3" r="9.64129" stroke-width="0.5" stroke="black" fill="grey"/>
  <circle cx="1105.49" cy="1675.3" r="5.86059" stroke-width="0.5" stroke="grey" fill="grey"/>
   </g>
   <g id="cell90">
  <circle cx="827.18" cy="833.83" r="8.67343" stroke-width="0.5" stroke="black" fill="red"/>
  <circle cx="827.18" cy="833.83" r="5.24865" stroke-width="0.5" stroke="red" fill="red"/>
   </g>
   <g id="cell86">
  <circle cx="1565.4" cy="1000.36" r="8.60048" stroke-width="0.5" stroke="black" fill="red"/>
  <circle cx="1565.4" cy="1000.36" r="5.19598" stroke-width="0.5" stroke="red" fill="red"/>
   </g>
   <g id="cell22">
  <circle cx="1125.25" cy="1691.6" r="10.5251" stroke-width="0.5" stroke="black" fill="grey"/>
  <circle cx="1125.25" cy="1691.6" r="6.33598" stroke-width="0.5" stroke="grey" fill="grey"/>
   </g>
   <g id="cell23">
  <circle cx="1257.04" cy="1291.57" r="10.5032" stroke-width="0.5" stroke="black" fill="grey"/>
  <circle cx="1257.04" cy="1291.57" r="6.32639" stroke-width="0.5" stroke="grey" fill="grey"/>
   </g>
   <g id="cell24">
  <circle cx="1176.22" cy="1244.14" r="8.40811" stroke-width="0.5" stroke="black" fill="grey"/>
  <circle cx="1176.22" cy="1244.14" r="5.05034" stroke-width="0.5" stroke="grey" fill="grey"/>
   </g>
   <g id="cell25">
  <circle cx="1174.71" cy="708.858" r="9.50219" stroke-width="0.5" stroke="black" fill="red"/>
  <circle cx="1174.71" cy="708.858" r="5.77648" stroke-width="0.5" stroke="red" fill="red"/>
   </g>
   <g id="cell26">
  <circle cx="1684.16" cy="1204.94" r="9.08199" stroke-width="0.5" stroke="black" fill="grey"/>
  <circle cx="1684.16" cy="1204.94" r="5.51697" stroke-width="0.5" stroke="grey" fill="grey"/>
   </g>
   <g id="cell27">
  <circle cx="873.321" cy="539.702" r="10.3387" stroke-width="0.5" stroke="black" fill="grey"/>
  <circle cx="873.321" cy="539.702" r="6.24716" stroke-width="0.5" stroke="grey" fill="grey"/>
   </g>
   <g id="cell28">
  <circle cx="49.5467" cy="1964.71" r="8.61582" stroke-width="0.5" stroke="black" fill="red"/>
  <circle cx="49.5467" cy="1964.71" r="5.21391" stroke-width="0.5" stroke="red" fill="red"/>
   </g>
   <g id="cell29">
  <circle cx="1065.43" cy="1076.42" r="10.0143" stroke-width="0.5" stroke="black" fill="grey"/>
  <circle cx="1065.43" cy="1076.42" r="6.07378" stroke-width="0.5" stroke="grey" fill="grey"/>
   </g>
   <g id="cell30">
  <circle cx="941.941" cy="538.15" r="9.81125" stroke-width="0.5" stroke="black" fill="grey"/>
  <circle cx="941.941" cy="538.15" r="5.96032" stroke-width="0.5" stroke="grey" fill="grey"/>
   </g>
   <g id="cell31">
  <circle cx="1203.11" cy="1341.29" r="10.5164" stroke-width="0.5" stroke="black" fill="grey"/>
  <circle cx="1203.11" cy="1341.29" r="6.33215" stroke-width="0.5" stroke="grey" fill="grey"/>
   </g>
   <g id="cell32">
  <circle cx="1660.81" cy="204.935" r="1.59105" stroke-width="0.5" stroke="black" fill="red"/>
  <circle cx="1660.81" cy="204.935" r="1.58245" stroke-width="0.5" stroke="black" fill="black"/>
   </g>
   <g id="cell33">
  <circle cx="1676.89" cy="1151.68" r="8.36274" stroke-width="0.5" stroke="black" fill="grey"/>
  <circle cx="1676.89" cy="1151.68" r="5.03276" stroke-width="0.5" stroke="grey" fill="grey"/>
   </g>
   <g id="cell34">
  <circle cx="1136.11" cy="1660.29" r="10.0493" stroke-width="0.5" stroke="black" fill="grey"/>
  <circle cx="1136.11" cy="1660.29" r="6.09266" stroke-width="0.5" stroke="grey" fill="grey"/>
   </g>
   <g id="cell35">
  <circle cx="756.271" cy="899.277" r="10.4529" stroke-width="0.5" stroke="black" fill="red"/>
  <circle cx="756.271" cy="899.277" r="6.30306" stroke-width="0.5" stroke="red" fill="red"/>
   </g>
   <g id="cell36">
  <circle cx="1739.38" cy="242.724" r="8.3955" stroke-width="0.5" stroke="black" fill="red"/>
  <circle cx="1739.38" cy="242.724" r="5.04594" stroke-width="0.5" stroke="red" fill="red"/>
   </g>
   <g id="cell37">
  <circle cx="819.931" cy="888.31" r="8.36397" stroke-width="0.5" stroke="black" fill="red"/>
  <circle cx="819.931" cy="888.31" r="5.03331" stroke-width="0.5" stroke="red" fill="red"/>
   </g>
   <g id="cell38">
  <circle cx="1603.9" cy="1042.04" r="9.70084" stroke-width="0.5" stroke="black" fill="red"/>
  <circle cx="1603.9" cy="1042.04" r="5.89393" stroke-width="0.5" stroke="red" fill="red"/>
   </g>
   <g id="cell39">
  <circle cx="1113.01" cy="1188.7" r="8.36175" stroke-width="0.5" stroke="black" fill="grey"/>
  <circle cx="1113.01" cy="1188.7" r="5.03227" stroke-width="0.5" stroke="grey" fill="grey"/>
   </g>
   <g id="cell40">
  <circle cx="1771.62" cy="1298.5" r="9.40812" stroke-width="0.5" stroke="black" fill="grey"/>
  <circle cx="1771.62" cy="1298.5" r="5.71923" stroke-width="0.5" stroke="grey" fill="grey"/>
   </g>
   <g id="cell41">
  <circle cx="1234.34" cy="1432.66" r="10.5039" stroke-width="0.5" stroke="black" fill="grey"/>
  <circle cx="1234.34" cy="1432.66" r="6.32657" stroke-width="0.5" stroke="grey" fill="grey"/>
   </g>
   <g id="cell42">
  <circle cx="1110.93" cy="1131.39" r="9.90307" stroke-width="0.5" stroke="black" fill="grey"/>
  <circle cx="1110.93" cy="1131.39" r="6.01136" stroke-width="0.5" stroke="grey" fill="grey"/>
   </g>
   <g id="cell43">
  <circle cx="1083.75" cy="1089.37" r="10.4258" stroke-width="0.5" stroke="black" fill="grey"/>
  <circle cx="1083.75" cy="1089.37" r="6.29004" stroke-width="0.5" stroke="grey" fill="grey"/>
   </g>
   <g id="cell44">
  <circle cx="1676.05" cy="1187.84" r="8.39659" stroke-width="0.5" stroke="black" fill="grey"/>
  <circle cx="1676.05" cy="1187.84" r="5.04632" stroke-width="0.5" stroke="grey" fill="grey"/>
   </g>
   <g id="cell45">
  <circle cx="1554.01" cy="1049.46" r="8.39828" stroke-width="0.5" stroke="black" fill="red"/>
  <circle cx="1554.01" cy="1049.46" r="5.04695" stroke-width="0.5" stroke="red" fill="red"/>
   </g>
   <g id="cell101">
  <circle cx="1659.07" cy="270.664" r="8.37187" stroke-width="0.5" stroke="black" fill="red"/>
  <circle cx="1659.07" cy="270.664" r="5.03657" stroke-width="0.5" stroke="red" fill="red"/>
   </g>
   <g id="cell47">
  <circle cx="1598.72" cy="139.623" r="8.37735" stroke-width="0.5" stroke="black" fill="red"/>
  <circle cx="1598.72" cy="139.623" r="5.0388" stroke-width="0.5" stroke="red" fill="red"/>
   </g>
   <g id="cell48">
  <circle cx="1193.34" cy="1796.87" r="8.45806" stroke-width="0.5" stroke="black" fill="grey"/>
  <circle cx="1193.34" cy="1796.87" r="5.09446" stroke-width="0.5" stroke="grey" fill="grey"/>
   </g>
   <g id="cell49">
  <circle cx="87.1167" cy="1962.98" r="8.36714" stroke-width="0.5" stroke="black" fill="red"/>
  <circle cx="87.1167" cy="1962.98" r="5.03456" stroke-width="0.5" stroke="red" fill="red"/>
   </g>
   <g id="cell50">
  <circle cx="1156.4" cy="1158.13" r="8.36169" stroke-width="0.5" stroke="black" fill="grey"/>
  <circle cx="1156.4" cy="1158.13" r="5.03225" stroke-width="0.5" stroke="grey" fill="grey"/>
   </g>
   <g id="cell51">
  <circle cx="1154.64" cy="1279.08" r="10.1704" stroke-width="0.5" stroke="black" fill="grey"/>
  <circle cx="1154.64" cy="1279.08" r="6.1599" stroke-width="0.5" stroke="grey" fill="grey"/>
   </g>
   <g id="cell52">
  <circle cx="841.284" cy="618.773" r="9.06958" stroke-width="0.5" stroke="black" fill="grey"/>
  <circle cx="841.284" cy="618.773" r="5.51232" stroke-width="0.5" stroke="grey" fill="grey"/>
   </g>
   <g id="cell87">
  <circle cx="901.49" cy="610.344" r="9.83337" stroke-width="0.5" stroke="black" fill="grey"/>
  <circle cx="901.49" cy="610.344" r="5.97303" stroke-width="0.5" stroke="grey" fill="grey"/>
   </g>
   <g id="cell54">
  <circle cx="827.852" cy="530.745" r="8.59078" stroke-width="0.5" stroke="black" fill="grey"/>
  <circle cx="827.852" cy="530.745" r="5.19226" stroke-width="0.5" stroke="grey" fill="grey"/>
   </g>
   <g id="cell55">
  <circle cx="872.536" cy="577.3" r="9.93783" stroke-width="0.5" stroke="black" fill="grey"/>
  <circle cx="872.536" cy="577.3" r="6.03196" stroke-width="0.5" stroke="grey" fill="grey"/>
   </g>
   <g id="cell56">
  <circle cx="165.098" cy="1898.04" r="8.38274" stroke-width="0.5" stroke="black" fill="red"/>
  <circle cx="165.098" cy="1898.04" r="5.04099" stroke-width="0.5" stroke="red" fill="red"/>
   </g>
   <g id="cell57">
  <circle cx="1685.23" cy="282.892" r="8.37187" stroke-width="0.5" stroke="black" fill="red"/>
  <circle cx="1685.23" cy="282.892" r="5.03657" stroke-width="0.5" stroke="red" fill="red"/>
   </g>
   <g id="cell58">
  <circle cx="701.763" cy="856.149" r="9.88598" stroke-width="0.5" stroke="black" fill="red"/>
  <circle cx="701.763" cy="856.149" r="6.0008" stroke-width="0.5" stroke="red" fill="red"/>
   </g>
   <g id="cell59">
  <circle cx="1710.54" cy="309.238" r="10.5009" stroke-width="0.5" stroke="black" fill="red"/>
  <circle cx="1710.54" cy="309.238" r="6.32528" stroke-width="0.5" stroke="red" fill="red"/>
   </g>
   <g id="cell60">
  <circle cx="1729.69" cy="1172.9" r="8.36701" stroke-width="0.5" stroke="black" fill="grey"/>
  <circle cx="1729.69" cy="1172.9" r="5.03453" stroke-width="0.5" stroke="grey" fill="grey"/>
   </g>
   <g id="cell61">
  <circle cx="1132.66" cy="1780.85" r="10.3396" stroke-width="0.5" stroke="black" fill="grey"/>
  <circle cx="1132.66" cy="1780.85" r="6.24744" stroke-width="0.5" stroke="grey" fill="grey"/>
   </g>
   <g id="cell62">
  <circle cx="1149.15" cy="1645.73" r="10.3743" stroke-width="0.5" stroke="black" fill="grey"/>
  <circle cx="1149.15" cy="1645.73" r="6.26488" stroke-width="0.5" stroke="grey" fill="grey"/>
   </g>
   <g id="cell63">
  <circle cx="1671.62" cy="324.334" r="9.2151" stroke-width="0.5" stroke="black" fill="red"/>
  <circle cx="1671.62" cy="324.334" r="5.60512" stroke-width="0.5" stroke="red" fill="red"/>
   </g>
   <g id="cell64">
  <circle cx="1700.53" cy="1155.68" r="9.72661" stroke-width="0.5" stroke="black" fill="grey"/>
  <circle cx="1700.53" cy="1155.68" r="5.90888" stroke-width="0.5" stroke="grey" fill="grey"/>
   </g>
   <g id="cell65">
  <circle cx="1325.47" cy="1276.97" r="1.8085" stroke-width="0.5" stroke="black" fill="grey"/>
  <circle cx="1325.47" cy="1276.97" r="1.77988" stroke-width="0.5" stroke="black" fill="black"/>
   </g>
   <g id="cell66">
  <circle cx="782.187" cy="943.363" r="10.5225" stroke-width="0.5" stroke="black" fill="red"/>
  <circle cx="782.187" cy="943.363" r="6.33495" stroke-width="0.5" stroke="red" fill="red"/>
   </g>
   <g id="cell67">
  <circle cx="1579.27" cy="1035.53" r="10.5156" stroke-width="0.5" stroke="black" fill="red"/>
  <circle cx="1579.27" cy="1035.53" r="6.33193" stroke-width="0.5" stroke="red" fill="red"/>
   </g>
   <g id="cell68">
  <circle cx="821.711" cy="1056.46" r="9.50394" stroke-width="0.5" stroke="black" fill="red"/>
  <circle cx="821.711" cy="1056.46" r="5.77705" stroke-width="0.5" stroke="red" fill="red"/>
   </g>
   <g id="cell69">
  <circle cx="851.25" cy="563.491" r="10.4912" stroke-width="0.5" stroke="black" fill="grey"/>
  <circle cx="851.25" cy="563.491" r="6.32103" stroke-width="0.5" stroke="grey" fill="grey"/>
   </g>
   <g id="cell70">
  <circle cx="1681.09" cy="1236.85" r="10.4673" stroke-width="0.5" stroke="black" fill="grey"/>
  <circle cx="1681.09" cy="1236.85" r="6.3101" stroke-width="0.5" stroke="grey" fill="grey"/>
   </g>
   <g id="cell71">
  <circle cx="1002.3" cy="1080.82" r="10.3221" stroke-width="0.5" stroke="black" fill="grey"/>
  <circle cx="1002.3" cy="1080.82" r="6.23898" stroke-width="0.5" stroke="grey" fill="grey"/>
   </g>
   <g id="cell72">
  <circle cx="1118.7" cy="723.181" r="10.2972" stroke-width="0.5" stroke="black" fill="red"/>
  <circle cx="1118.7" cy="723.181" r="6.22621" stroke-width="0.5" stroke="red" fill="red"/>
   </g>
   <g id="cell73">
  <circle cx="1179" cy="1225.42" r="10.3584" stroke-width="0.5" stroke="black" fill="grey"/>
  <circle cx="1179" cy="1225.42" r="6.25745" stroke-width="0.5" stroke="grey" fill="grey"/>
   </g>
   <g id="cell74">
  <circle cx="1111.86" cy="1081.81" r="9.92281" stroke-width="0.5" stroke="black" fill="grey"/>
  <circle cx="1111.86" cy="1081.81" r="6.02256" stroke-width="0.5" stroke="grey" fill="grey"/>
   </g>
   <g id="cell75">
  <circle cx="1694.1" cy="1189.97" r="10.2877" stroke-width="0.5" stroke="black" fill="grey"/>
  <circle cx="1694.1" cy="1189.97" r="6.22143" stroke-width="0.5" stroke="grey" fill="grey"/>
   </g>
   <g id="cell76">
  <circle cx="1664.16" cy="242.616" r="9.83973" stroke-width="0.5" stroke="black" fill="red"/>
  <circle cx="1664.16" cy="242.616" r="5.97533" stroke-width="0.5" stroke="red" fill="red"/>
   </g>
   <g id="cell77">
  <circle cx="68.5812" cy="1917.93" r="10.1583" stroke-width="0.5" stroke="black" fill="red"/>
  <circle cx="68.5812" cy="1917.93" r="6.15331" stroke-width="0.5" stroke="red" fill="red"/>
   </g>
   <g id="cell78">
  <circle cx="1115.85" cy="1240.05" r="2.51862" stroke-width="0.5" stroke="black" fill="grey"/>
  <circle cx="1115.85" cy="1240.05" r="2.22767" stroke-width="0.5" stroke="black" fill="black"/>
   </g>
   <g id="cell79">
  <circle cx="1199.81" cy="1253.83" r="8.40485" stroke-width="0.5" stroke="black" fill="grey"/>
  <circle cx="1199.81" cy="1253.83" r="5.04927" stroke-width="0.5" stroke="grey" fill="grey"/>
   </g>
   <g id="cell80">
  <circle cx="808.69" cy="525.658" r="8.40485" stroke-width="0.5" stroke="black" fill="grey"/>
  <circle cx="808.69" cy="525.658" r="5.04927" stroke-width="0.5" stroke="grey" fill="grey"/>
   </g>
   <g id="cell81">
  <circle cx="1211.93" cy="1272.94" r="8.50327" stroke-width="0.5" stroke="black" fill="grey"/>
  <circle cx="1211.93" cy="1272.94" r="5.1226" stroke-width="0.5" stroke="grey" fill="grey"/>
   </g>
   <g id="cell82">
  <circle cx="1634.28" cy="1098.84" r="9.33526" stroke-width="0.5" stroke="black" fill="red"/>
  <circle cx="1634.28" cy="1098.84" r="5.67618" stroke-width="0.5" stroke="red" fill="red"/>
   </g>
   <g id="cell83">
  <circle cx="886.939" cy="553.575" r="8.40201" stroke-width="0.5" stroke="black" fill="grey"/>
  <circle cx="886.939" cy="553.575" r="5.0483" stroke-width="0.5" stroke="grey" fill="grey"/>
   </g>
   <g id="cell84">
  <circle cx="1111.22" cy="1635.43" r="8.40208" stroke-width="0.5" stroke="black" fill="grey"/>
  <circle cx="1111.22" cy="1635.43" r="5.04831" stroke-width="0.5" stroke="grey" fill="grey"/>
   </g>
   <g id="cell85">
  <circle cx="1162.17" cy="1718.79" r="9.81341" stroke-width="0.5" stroke="black" fill="grey"/>
  <circle cx="1162.17" cy="1718.79" r="5.96112" stroke-width="0.5" stroke="grey" fill="grey"/>
   </g>
   <g id="cell88">
  <circle cx="1668.69" cy="1170.93" r="8.39659" stroke-width="0.5" stroke="black" fill="grey"/>
  <circle cx="1668.69" cy="1170.93" r="5.04632" stroke-width="0.5" stroke="grey" fill="grey"/>
   </g>
   <g id="cell89">
  <circle cx="1786.75" cy="284.787" r="8.3955" stroke-width="0.5" stroke="black" fill="red"/>
  <circle cx="1786.75" cy="284.787" r="5.04594" stroke-width="0.5" stroke="red" fill="red"/>
   </g>
   <g id="cell91">
  <circle cx="1159.76" cy="1218.9" r="8.3936" stroke-width="0.5" stroke="black" fill="grey"/>
  <circle cx="1159.76" cy="1218.9" r="5.04521" stroke-width="0.5" stroke="grey" fill="grey"/>
   </g>
   <g id="cell92">
  <circle cx="1683.04" cy="1347.74" r="8.39367" stroke-width="0.5" stroke="black" fill="grey"/>
  <circle cx="1683.04" cy="1347.74" r="5.04523" stroke-width="0.5" stroke="grey" fill="grey"/>
   </g>
   <g id="cell93">
  <circle cx="843.985" cy="599.942" r="8.39306" stroke-width="0.5" stroke="black" fill="grey"/>
  <circle cx="843.985" cy="599.942" r="5.04501" stroke-width="0.5" stroke="grey" fill="grey"/>
   </g>
   <g id="cell94">
  <circle cx="865.52" cy="561.405" r="8.38811" stroke-width="0.5" stroke="black" fill="grey"/>
  <circle cx="865.52" cy="561.405" r="5.0431" stroke-width="0.5" stroke="grey" fill="grey"/>
   </g>
   <g id="cell95">
  <circle cx="1177.43" cy="1771.92" r="8.55428" stroke-width="0.5" stroke="black" fill="grey"/>
  <circle cx="1177.43" cy="1771.92" r="5.16597" stroke-width="0.5" stroke="grey" fill="grey"/>
   </g>
   <g id="cell96">
  <circle cx="1677.84" cy="299.865" r="8.94524" stroke-width="0.5" stroke="black" fill="red"/>
  <circle cx="1677.84" cy="299.865" r="5.43379" stroke-width="0.5" stroke="red" fill="red"/>
   </g>
   <g id="cell97">
  <circle cx="1155.37" cy="1341.17" r="8.38598" stroke-width="0.5" stroke="black" fill="grey"/>
  <circle cx="1155.37" cy="1341.17" r="5.04227" stroke-width="0.5" stroke="grey" fill="grey"/>
   </g>
   <g id="cell98">
  <circle cx="145.606" cy="1946.62" r="8.38274" stroke-width="0.5" stroke="black" fill="red"/>
  <circle cx="145.606" cy="1946.62" r="5.04099" stroke-width="0.5" stroke="red" fill="red"/>
   </g>
   <g id="cell99">
  <circle cx="1633.45" cy="136.592" r="8.37735" stroke-width="0.5" stroke="black" fill="red"/>
  <circle cx="1633.45" cy="136.592" r="5.0388" stroke-width="0.5" stroke="red" fill="red"/>
   </g>
   <g id="cell100">
  <circle cx="58.9701" cy="1956.64" r="8.44601" stroke-width="0.5" stroke="black" fill="red"/>
  <circle cx="58.9701" cy="1956.64" r="5.08963" stroke-width="0.5" stroke="red" fill="red"/>
   </g>
   <g id="cell102">
  <circle cx="1715.64" cy="1153.41" r="8.36701" stroke-width="0.5" stroke="black" fill="grey"/>
  <circle cx="1715.64" cy="1153.41" r="5.03453" stroke-width="0.5" stroke="grey" fill="grey"/>
   </g>
   <g id="cell103">
  <circle cx="77.2545" cy="1980.05" r="8.38715" stroke-width="0.5" stroke="black" fill="red"/>
  <circle cx="77.2545" cy="1980.05" r="5.04851" stroke-width="0.5" stroke="red" fill="red"/>
   </g>
   <g id="cell104">
  <circle cx="800.625" cy="895.713" r="8.36397" stroke-width="0.5" stroke="black" fill="red"/>
  <circle cx="800.625" cy="895.713" r="5.03331" stroke-width="0.5" stroke="red" fill="red"/>
   </g>
   <g id="cell105">
  <circle cx="1666.38" cy="1142.62" r="8.36274" stroke-width="0.5" stroke="black" fill="grey"/>
  <circle cx="1666.38" cy="1142.62" r="5.03276" stroke-width="0.5" stroke="grey" fill="grey"/>
   </g>
   <g id="cell106">
  <circle cx="1122.66" cy="1204.28" r="8.36175" stroke-width="0.5" stroke="black" fill="grey"/>
  <circle cx="1122.66" cy="1204.28" r="5.03227" stroke-width="0.5" stroke="grey" fill="grey"/>
   </g>
   <g id="cell107">
  <circle cx="1155.48" cy="1142.75" r="8.36169" stroke-width="0.5" stroke="black" fill="grey"/>
  <circle cx="1155.48" cy="1142.75" r="5.03225" stroke-width="0.5" stroke="grey" fill="grey"/>
   </g>
  </g>
 </g>
  <rect x="1750" y="2070" width="200" height="20" stroke-width="4" stroke="rgb(255,255,255)" fill="rgb(0,0,0)"/>
  <text x="1762.5" y="2057.5"
   font-family="Arial" font-size="50" fill="black" >
   200 &#956;m
  </text>
  <text x="50" y="2090"
   font-family="Arial" font-size="37.5" fill="black" >
   0 days, 0 hours, 1 minutes, and 34.4742 seconds
  </text>
  <rect x="0" y="140" width="2000" height="2000" stroke-width="4" stroke="rgb(0,0,0)" fill="none"/>
</svg>
