<?xml version="1.0" encoding="UTF-8" standalone="no"?>
<!-- Created with PhysiCell (http://PhysiCell.MathCancer.org/) -->
<svg 
 xmlns:dc="http://purl.org/dc/elements/1.1/" 
 xmlns:cc="http://creativecommons.org/ns#" 
 xmlns:rdf="http://www.w3.org/1999/02/22-rdf-syntax-ns#" 
 xmlns:svg="http://www.w3.org/2000/svg" 
 xmlns="http://www.w3.org/2000/svg" 
 version="1.1" 
 width="2000" 
 height="2140" 
 id="svg2">
  <rect x="0" y="0" width="2000" height="2140" stroke-width="4" stroke="white" fill="white"/>
  <text x="25" y="60"
   font-family="Arial" font-size="50" fill="black" >
   Current time: 0 days, 8 hours, and 0.00 minutes, z = 0.00 &#956;m
  </text>
  <text x="25" y="115"
   font-family="Arial" font-size="47.5" fill="black" >
   100 agents
  </text>
 <g id="tissue" 
    transform="translate(0,2140) scale(1,-1)">
  <g id="ECM">
  </g>
  <g id="cells">
   <g id="cell0">
  <circle cx="1114.07" cy="1161.43" r="9.7273" stroke-width="0.5" stroke="black" fill="grey"/>
  <circle cx="1114.07" cy="1161.43" r="5.90906" stroke-width="0.5" stroke="grey" fill="grey"/>
   </g>
   <g id="cell1">
  <circle cx="1684.29" cy="1172.42" r="9.30826" stroke-width="0.5" stroke="black" fill="grey"/>
  <circle cx="1684.29" cy="1172.42" r="5.65742" stroke-width="0.5" stroke="grey" fill="grey"/>
   </g>
   <g id="cell2">
  <circle cx="1126.15" cy="1714.51" r="10.0169" stroke-width="0.5" stroke="black" fill="grey"/>
  <circle cx="1126.15" cy="1714.51" r="6.07458" stroke-width="0.5" stroke="grey" fill="grey"/>
   </g>
   <g id="cell3">
  <circle cx="1242.37" cy="1281.09" r="10.2821" stroke-width="0.5" stroke="black" fill="grey"/>
  <circle cx="1242.37" cy="1281.09" r="6.21778" stroke-width="0.5" stroke="grey" fill="grey"/>
   </g>
   <g id="cell4">
  <circle cx="846.248" cy="613.437" r="10.1098" stroke-width="0.5" stroke="black" fill="grey"/>
  <circle cx="846.248" cy="613.437" r="6.12585" stroke-width="0.5" stroke="grey" fill="grey"/>
   </g>
   <g id="cell5">
  <circle cx="105.373" cy="1963.85" r="8.41271" stroke-width="0.5" stroke="black" fill="grey"/>
  <circle cx="105.373" cy="1963.85" r="5.05167" stroke-width="0.5" stroke="grey" fill="grey"/>
   </g>
   <g id="cell6">
  <circle cx="783.302" cy="926.521" r="9.86542" stroke-width="0.5" stroke="black" fill="grey"/>
  <circle cx="783.302" cy="926.521" r="5.98895" stroke-width="0.5" stroke="grey" fill="grey"/>
   </g>
   <g id="cell7">
  <circle cx="1632.72" cy="1060.24" r="10.0955" stroke-width="0.5" stroke="black" fill="grey"/>
  <circle cx="1632.72" cy="1060.24" r="6.11797" stroke-width="0.5" stroke="grey" fill="grey"/>
   </g>
   <g id="cell8">
  <circle cx="1123.91" cy="783.45" r="9.88629" stroke-width="0.5" stroke="black" fill="grey"/>
  <circle cx="1123.91" cy="783.45" r="6.00088" stroke-width="0.5" stroke="grey" fill="grey"/>
   </g>
   <g id="cell9">
  <circle cx="1694.64" cy="141.034" r="8.9283" stroke-width="0.5" stroke="black" fill="grey"/>
  <circle cx="1694.64" cy="141.034" r="5.4161" stroke-width="0.5" stroke="grey" fill="grey"/>
   </g>
   <g id="cell10">
  <circle cx="161.93" cy="1283.63" r="10.2534" stroke-width="0.5" stroke="black" fill="grey"/>
  <circle cx="161.93" cy="1283.63" r="6.2028" stroke-width="0.5" stroke="grey" fill="grey"/>
   </g>
   <g id="cell11">
  <circle cx="710.735" cy="1684.46" r="9.75192" stroke-width="0.5" stroke="black" fill="grey"/>
  <circle cx="710.735" cy="1684.46" r="5.92342" stroke-width="0.5" stroke="grey" fill="grey"/>
   </g>
   <g id="cell12">
  <circle cx="1545.65" cy="339.021" r="10.0336" stroke-width="0.5" stroke="black" fill="grey"/>
  <circle cx="1545.65" cy="339.021" r="6.08382" stroke-width="0.5" stroke="grey" fill="grey"/>
   </g>
   <g id="cell13">
  <circle cx="1766.18" cy="1954.85" r="8.54454" stroke-width="0.5" stroke="black" fill="grey"/>
  <circle cx="1766.18" cy="1954.85" r="5.14947" stroke-width="0.5" stroke="grey" fill="grey"/>
   </g>
   <g id="cell14">
  <circle cx="1583.85" cy="1575.56" r="9.67603" stroke-width="0.5" stroke="black" fill="grey"/>
  <circle cx="1583.85" cy="1575.56" r="5.87901" stroke-width="0.5" stroke="grey" fill="grey"/>
   </g>
   <g id="cell15">
  <circle cx="1029.05" cy="1600.59" r="10.2433" stroke-width="0.5" stroke="black" fill="grey"/>
  <circle cx="1029.05" cy="1600.59" r="6.19748" stroke-width="0.5" stroke="grey" fill="grey"/>
   </g>
   <g id="cell16">
  <circle cx="227.741" cy="1449.6" r="10.2433" stroke-width="0.5" stroke="black" fill="grey"/>
  <circle cx="227.741" cy="1449.6" r="6.19748" stroke-width="0.5" stroke="grey" fill="grey"/>
   </g>
   <g id="cell17">
  <circle cx="1182.68" cy="298.52" r="10.2433" stroke-width="0.5" stroke="black" fill="grey"/>
  <circle cx="1182.68" cy="298.52" r="6.19748" stroke-width="0.5" stroke="grey" fill="grey"/>
   </g>
   <g id="cell18">
  <circle cx="1868.86" cy="1537.1" r="8.41271" stroke-width="0.5" stroke="black" fill="grey"/>
  <circle cx="1868.86" cy="1537.1" r="5.05167" stroke-width="0.5" stroke="grey" fill="grey"/>
   </g>
   <g id="cell19">
  <circle cx="193.229" cy="847.208" r="8.41271" stroke-width="0.5" stroke="black" fill="grey"/>
  <circle cx="193.229" cy="847.208" r="5.05167" stroke-width="0.5" stroke="grey" fill="grey"/>
   </g>
   <g id="cell20">
  <circle cx="549.091" cy="365.459" r="10.1634" stroke-width="0.5" stroke="black" fill="grey"/>
  <circle cx="549.091" cy="365.459" r="6.1549" stroke-width="0.5" stroke="grey" fill="grey"/>
   </g>
   <g id="cell21">
  <circle cx="1450.11" cy="924.279" r="9.86542" stroke-width="0.5" stroke="black" fill="grey"/>
  <circle cx="1450.11" cy="924.279" r="5.98895" stroke-width="0.5" stroke="grey" fill="grey"/>
   </g>
   <g id="cell22">
  <circle cx="1173.24" cy="237.609" r="10.2221" stroke-width="0.5" stroke="black" fill="grey"/>
  <circle cx="1173.24" cy="237.609" r="6.18628" stroke-width="0.5" stroke="grey" fill="grey"/>
   </g>
   <g id="cell23">
  <circle cx="634.544" cy="1220.87" r="10.1758" stroke-width="0.5" stroke="black" fill="grey"/>
  <circle cx="634.544" cy="1220.87" r="6.16159" stroke-width="0.5" stroke="grey" fill="grey"/>
   </g>
   <g id="cell24">
  <circle cx="1233.49" cy="441.016" r="2.08246" stroke-width="0.5" stroke="black" fill="grey"/>
  <circle cx="1233.49" cy="441.016" r="1.95565" stroke-width="0.5" stroke="black" fill="black"/>
   </g>
   <g id="cell25">
  <circle cx="744.474" cy="1900.08" r="10.1879" stroke-width="0.5" stroke="black" fill="grey"/>
  <circle cx="744.474" cy="1900.08" r="6.16807" stroke-width="0.5" stroke="grey" fill="grey"/>
   </g>
   <g id="cell26">
  <circle cx="1387.52" cy="913.454" r="8.41271" stroke-width="0.5" stroke="black" fill="grey"/>
  <circle cx="1387.52" cy="913.454" r="5.05167" stroke-width="0.5" stroke="grey" fill="grey"/>
   </g>
   <g id="cell27">
  <circle cx="1221.7" cy="833.823" r="10.0955" stroke-width="0.5" stroke="black" fill="grey"/>
  <circle cx="1221.7" cy="833.823" r="6.11797" stroke-width="0.5" stroke="grey" fill="grey"/>
   </g>
   <g id="cell28">
  <circle cx="1397.7" cy="200.997" r="10.2728" stroke-width="0.5" stroke="black" fill="grey"/>
  <circle cx="1397.7" cy="200.997" r="6.21295" stroke-width="0.5" stroke="grey" fill="grey"/>
   </g>
   <g id="cell29">
  <circle cx="1927.11" cy="1344.43" r="10.2728" stroke-width="0.5" stroke="black" fill="grey"/>
  <circle cx="1927.11" cy="1344.43" r="6.21295" stroke-width="0.5" stroke="grey" fill="grey"/>
   </g>
   <g id="cell30">
  <circle cx="1354" cy="357.75" r="8.65127" stroke-width="0.5" stroke="black" fill="grey"/>
  <circle cx="1354" cy="357.75" r="5.2272" stroke-width="0.5" stroke="grey" fill="grey"/>
   </g>
   <g id="cell31">
  <circle cx="711.002" cy="280.013" r="9.64936" stroke-width="0.5" stroke="black" fill="grey"/>
  <circle cx="711.002" cy="280.013" r="5.86329" stroke-width="0.5" stroke="grey" fill="grey"/>
   </g>
   <g id="cell32">
  <circle cx="669.64" cy="1202.99" r="10.3247" stroke-width="0.5" stroke="black" fill="grey"/>
  <circle cx="669.64" cy="1202.99" r="6.23971" stroke-width="0.5" stroke="grey" fill="grey"/>
   </g>
   <g id="cell33">
  <circle cx="639.939" cy="1132.6" r="8.9283" stroke-width="0.5" stroke="black" fill="grey"/>
  <circle cx="639.939" cy="1132.6" r="5.4161" stroke-width="0.5" stroke="grey" fill="grey"/>
   </g>
   <g id="cell34">
  <circle cx="879.607" cy="1285.92" r="9.77588" stroke-width="0.5" stroke="black" fill="grey"/>
  <circle cx="879.607" cy="1285.92" r="5.93735" stroke-width="0.5" stroke="grey" fill="grey"/>
   </g>
   <g id="cell35">
  <circle cx="1912.28" cy="178.01" r="9.04745" stroke-width="0.5" stroke="black" fill="grey"/>
  <circle cx="1912.28" cy="178.01" r="5.49345" stroke-width="0.5" stroke="grey" fill="grey"/>
   </g>
   <g id="cell36">
  <circle cx="405.135" cy="1251.91" r="10.1758" stroke-width="0.5" stroke="black" fill="grey"/>
  <circle cx="405.135" cy="1251.91" r="6.16159" stroke-width="0.5" stroke="grey" fill="grey"/>
   </g>
   <g id="cell37">
  <circle cx="1976.17" cy="1362.49" r="9.98223" stroke-width="0.5" stroke="black" fill="grey"/>
  <circle cx="1976.17" cy="1362.49" r="6.05517" stroke-width="0.5" stroke="grey" fill="grey"/>
   </g>
   <g id="cell38">
  <circle cx="522.2" cy="860.141" r="8.41271" stroke-width="0.5" stroke="black" fill="grey"/>
  <circle cx="522.2" cy="860.141" r="5.05167" stroke-width="0.5" stroke="grey" fill="grey"/>
   </g>
   <g id="cell39">
  <circle cx="938.062" cy="481.478" r="10.0336" stroke-width="0.5" stroke="black" fill="grey"/>
  <circle cx="938.062" cy="481.478" r="6.08382" stroke-width="0.5" stroke="grey" fill="grey"/>
   </g>
   <g id="cell40">
  <circle cx="335.552" cy="657.907" r="10.0169" stroke-width="0.5" stroke="black" fill="grey"/>
  <circle cx="335.552" cy="657.907" r="6.07458" stroke-width="0.5" stroke="grey" fill="grey"/>
   </g>
   <g id="cell41">
  <circle cx="1330.98" cy="1320.03" r="9.53557" stroke-width="0.5" stroke="black" fill="grey"/>
  <circle cx="1330.98" cy="1320.03" r="5.79561" stroke-width="0.5" stroke="grey" fill="grey"/>
   </g>
   <g id="cell42">
  <circle cx="243.752" cy="1558.47" r="8.41271" stroke-width="0.5" stroke="black" fill="grey"/>
  <circle cx="243.752" cy="1558.47" r="5.05167" stroke-width="0.5" stroke="grey" fill="grey"/>
   </g>
   <g id="cell43">
  <circle cx="1874.66" cy="738.96" r="8.41271" stroke-width="0.5" stroke="black" fill="grey"/>
  <circle cx="1874.66" cy="738.96" r="5.05167" stroke-width="0.5" stroke="grey" fill="grey"/>
   </g>
   <g id="cell44">
  <circle cx="1626.76" cy="44.1334" r="9.92631" stroke-width="0.5" stroke="black" fill="grey"/>
  <circle cx="1626.76" cy="44.1334" r="6.02363" stroke-width="0.5" stroke="grey" fill="grey"/>
   </g>
   <g id="cell45">
  <circle cx="1227.49" cy="1656.05" r="8.41271" stroke-width="0.5" stroke="black" fill="grey"/>
  <circle cx="1227.49" cy="1656.05" r="5.05167" stroke-width="0.5" stroke="grey" fill="grey"/>
   </g>
   <g id="cell46">
  <circle cx="175.753" cy="1897.53" r="8.9283" stroke-width="0.5" stroke="black" fill="grey"/>
  <circle cx="175.753" cy="1897.53" r="5.4161" stroke-width="0.5" stroke="grey" fill="grey"/>
   </g>
   <g id="cell47">
  <circle cx="1760.38" cy="967.643" r="10.1879" stroke-width="0.5" stroke="black" fill="grey"/>
  <circle cx="1760.38" cy="967.643" r="6.16807" stroke-width="0.5" stroke="grey" fill="grey"/>
   </g>
   <g id="cell48">
  <circle cx="1963.12" cy="98.1155" r="10.2221" stroke-width="0.5" stroke="black" fill="grey"/>
  <circle cx="1963.12" cy="98.1155" r="6.18628" stroke-width="0.5" stroke="grey" fill="grey"/>
   </g>
   <g id="cell49">
  <circle cx="864.083" cy="1451.31" r="10.2999" stroke-width="0.5" stroke="black" fill="grey"/>
  <circle cx="864.083" cy="1451.31" r="6.22699" stroke-width="0.5" stroke="grey" fill="grey"/>
   </g>
   <g id="cell50">
  <circle cx="69.7137" cy="893.932" r="10.3247" stroke-width="0.5" stroke="black" fill="red"/>
  <circle cx="69.7137" cy="893.932" r="6.23971" stroke-width="0.5" stroke="red" fill="red"/>
   </g>
   <g id="cell51">
  <circle cx="1963.49" cy="247.588" r="8.61424" stroke-width="0.5" stroke="black" fill="red"/>
  <circle cx="1963.49" cy="247.588" r="5.20061" stroke-width="0.5" stroke="red" fill="red"/>
   </g>
   <g id="cell52">
  <circle cx="589.691" cy="985.386" r="9.94548" stroke-width="0.5" stroke="black" fill="red"/>
  <circle cx="589.691" cy="985.386" r="6.03448" stroke-width="0.5" stroke="red" fill="red"/>
   </g>
   <g id="cell53">
  <circle cx="1340.68" cy="610.08" r="10.2911" stroke-width="0.5" stroke="black" fill="red"/>
  <circle cx="1340.68" cy="610.08" r="6.22246" stroke-width="0.5" stroke="red" fill="red"/>
   </g>
   <g id="cell54">
  <circle cx="781.294" cy="1826.72" r="10.3247" stroke-width="0.5" stroke="black" fill="red"/>
  <circle cx="781.294" cy="1826.72" r="6.23971" stroke-width="0.5" stroke="red" fill="red"/>
   </g>
   <g id="cell55">
  <circle cx="417.383" cy="1379.42" r="10.1758" stroke-width="0.5" stroke="black" fill="red"/>
  <circle cx="417.383" cy="1379.42" r="6.16159" stroke-width="0.5" stroke="red" fill="red"/>
   </g>
   <g id="cell56">
  <circle cx="1156.29" cy="1710.87" r="8.41271" stroke-width="0.5" stroke="black" fill="red"/>
  <circle cx="1156.29" cy="1710.87" r="5.05167" stroke-width="0.5" stroke="red" fill="red"/>
   </g>
   <g id="cell57">
  <circle cx="1017.22" cy="1037.58" r="8.41271" stroke-width="0.5" stroke="black" fill="red"/>
  <circle cx="1017.22" cy="1037.58" r="5.05167" stroke-width="0.5" stroke="red" fill="red"/>
   </g>
   <g id="cell58">
  <circle cx="173.66" cy="1806.58" r="10.1506" stroke-width="0.5" stroke="black" fill="red"/>
  <circle cx="173.66" cy="1806.58" r="6.14798" stroke-width="0.5" stroke="red" fill="red"/>
   </g>
   <g id="cell59">
  <circle cx="171.722" cy="1844.99" r="2.35288" stroke-width="0.5" stroke="black" fill="red"/>
  <circle cx="171.722" cy="1844.99" r="2.21523" stroke-width="0.5" stroke="black" fill="black"/>
   </g>
   <g id="cell60">
  <circle cx="663.037" cy="47.2987" r="10.2728" stroke-width="0.5" stroke="black" fill="red"/>
  <circle cx="663.037" cy="47.2987" r="6.21295" stroke-width="0.5" stroke="red" fill="red"/>
   </g>
   <g id="cell61">
  <circle cx="1676.02" cy="292.466" r="9.86542" stroke-width="0.5" stroke="black" fill="red"/>
  <circle cx="1676.02" cy="292.466" r="5.98895" stroke-width="0.5" stroke="red" fill="red"/>
   </g>
   <g id="cell62">
  <circle cx="1438.55" cy="1672.84" r="9.23685" stroke-width="0.5" stroke="black" fill="red"/>
  <circle cx="1438.55" cy="1672.84" r="5.61315" stroke-width="0.5" stroke="red" fill="red"/>
   </g>
   <g id="cell63">
  <circle cx="521.599" cy="345.403" r="8.41271" stroke-width="0.5" stroke="black" fill="red"/>
  <circle cx="521.599" cy="345.403" r="5.05167" stroke-width="0.5" stroke="red" fill="red"/>
   </g>
   <g id="cell64">
  <circle cx="1159.64" cy="1114.73" r="9.2729" stroke-width="0.5" stroke="black" fill="red"/>
  <circle cx="1159.64" cy="1114.73" r="5.63555" stroke-width="0.5" stroke="red" fill="red"/>
   </g>
   <g id="cell65">
  <circle cx="367.033" cy="1640.11" r="10.1758" stroke-width="0.5" stroke="black" fill="red"/>
  <circle cx="367.033" cy="1640.11" r="6.16159" stroke-width="0.5" stroke="red" fill="red"/>
   </g>
   <g id="cell66">
  <circle cx="27.9328" cy="304.688" r="9.86542" stroke-width="0.5" stroke="black" fill="red"/>
  <circle cx="27.9328" cy="304.688" r="5.98895" stroke-width="0.5" stroke="red" fill="red"/>
   </g>
   <g id="cell67">
  <circle cx="1102.64" cy="550.157" r="9.64936" stroke-width="0.5" stroke="black" fill="red"/>
  <circle cx="1102.64" cy="550.157" r="5.86329" stroke-width="0.5" stroke="red" fill="red"/>
   </g>
   <g id="cell68">
  <circle cx="1461.19" cy="596.473" r="10.1634" stroke-width="0.5" stroke="black" fill="red"/>
  <circle cx="1461.19" cy="596.473" r="6.1549" stroke-width="0.5" stroke="red" fill="red"/>
   </g>
   <g id="cell69">
  <circle cx="889.063" cy="531.285" r="8.41271" stroke-width="0.5" stroke="black" fill="red"/>
  <circle cx="889.063" cy="531.285" r="5.05167" stroke-width="0.5" stroke="red" fill="red"/>
   </g>
   <g id="cell70">
  <circle cx="1175.94" cy="808.648" r="10.0497" stroke-width="0.5" stroke="black" fill="red"/>
  <circle cx="1175.94" cy="808.648" r="6.09278" stroke-width="0.5" stroke="red" fill="red"/>
   </g>
   <g id="cell71">
  <circle cx="1772.51" cy="1121.96" r="9.92631" stroke-width="0.5" stroke="black" fill="red"/>
  <circle cx="1772.51" cy="1121.96" r="6.02363" stroke-width="0.5" stroke="red" fill="red"/>
   </g>
   <g id="cell72">
  <circle cx="444.199" cy="1810.64" r="8.88811" stroke-width="0.5" stroke="black" fill="red"/>
  <circle cx="444.199" cy="1810.64" r="5.38958" stroke-width="0.5" stroke="red" fill="red"/>
   </g>
   <g id="cell73">
  <circle cx="1411.41" cy="891.392" r="10.211" stroke-width="0.5" stroke="black" fill="red"/>
  <circle cx="1411.41" cy="891.392" r="6.18041" stroke-width="0.5" stroke="red" fill="red"/>
   </g>
   <g id="cell74">
  <circle cx="1694.26" cy="1929.43" r="10.1996" stroke-width="0.5" stroke="black" fill="red"/>
  <circle cx="1694.26" cy="1929.43" r="6.17434" stroke-width="0.5" stroke="red" fill="red"/>
   </g>
   <g id="cell75">
  <circle cx="202.803" cy="601.586" r="8.41271" stroke-width="0.5" stroke="black" fill="red"/>
  <circle cx="202.803" cy="601.586" r="5.05167" stroke-width="0.5" stroke="red" fill="red"/>
   </g>
   <g id="cell76">
  <circle cx="1605.77" cy="832.786" r="9.64936" stroke-width="0.5" stroke="black" fill="red"/>
  <circle cx="1605.77" cy="832.786" r="5.86329" stroke-width="0.5" stroke="red" fill="red"/>
   </g>
   <g id="cell77">
  <circle cx="1370.46" cy="1759.16" r="9.34292" stroke-width="0.5" stroke="black" fill="red"/>
  <circle cx="1370.46" cy="1759.16" r="5.67875" stroke-width="0.5" stroke="red" fill="red"/>
   </g>
   <g id="cell78">
  <circle cx="1217.13" cy="637.07" r="9.34292" stroke-width="0.5" stroke="black" fill="red"/>
  <circle cx="1217.13" cy="637.07" r="5.67875" stroke-width="0.5" stroke="red" fill="red"/>
   </g>
   <g id="cell79">
  <circle cx="1925.1" cy="1381.93" r="8.41271" stroke-width="0.5" stroke="black" fill="red"/>
  <circle cx="1925.1" cy="1381.93" r="5.05167" stroke-width="0.5" stroke="red" fill="red"/>
   </g>
   <g id="cell80">
  <circle cx="1425.59" cy="1274.68" r="9.92631" stroke-width="0.5" stroke="black" fill="red"/>
  <circle cx="1425.59" cy="1274.68" r="6.02363" stroke-width="0.5" stroke="red" fill="red"/>
   </g>
   <g id="cell81">
  <circle cx="1073.97" cy="1890.12" r="2.43913" stroke-width="0.5" stroke="black" fill="red"/>
  <circle cx="1073.97" cy="1890.12" r="2.25617" stroke-width="0.5" stroke="black" fill="black"/>
   </g>
   <g id="cell82">
  <circle cx="1256.64" cy="777.73" r="9.98223" stroke-width="0.5" stroke="black" fill="red"/>
  <circle cx="1256.64" cy="777.73" r="6.05517" stroke-width="0.5" stroke="red" fill="red"/>
   </g>
   <g id="cell83">
  <circle cx="1259.97" cy="1238.72" r="9.20015" stroke-width="0.5" stroke="black" fill="red"/>
  <circle cx="1259.97" cy="1238.72" r="5.59022" stroke-width="0.5" stroke="red" fill="red"/>
   </g>
   <g id="cell84">
  <circle cx="27.3514" cy="948.451" r="10.2632" stroke-width="0.5" stroke="black" fill="red"/>
  <circle cx="27.3514" cy="948.451" r="6.20796" stroke-width="0.5" stroke="red" fill="red"/>
   </g>
   <g id="cell85">
  <circle cx="1423.64" cy="1291.03" r="8.54454" stroke-width="0.5" stroke="black" fill="red"/>
  <circle cx="1423.64" cy="1291.03" r="5.14947" stroke-width="0.5" stroke="red" fill="red"/>
   </g>
   <g id="cell86">
  <circle cx="587.239" cy="794.538" r="8.41271" stroke-width="0.5" stroke="black" fill="red"/>
  <circle cx="587.239" cy="794.538" r="5.05167" stroke-width="0.5" stroke="red" fill="red"/>
   </g>
   <g id="cell87">
  <circle cx="1486.4" cy="878.162" r="9.86542" stroke-width="0.5" stroke="black" fill="red"/>
  <circle cx="1486.4" cy="878.162" r="5.98895" stroke-width="0.5" stroke="red" fill="red"/>
   </g>
   <g id="cell88">
  <circle cx="287.998" cy="194.238" r="9.92631" stroke-width="0.5" stroke="black" fill="red"/>
  <circle cx="287.998" cy="194.238" r="6.02363" stroke-width="0.5" stroke="red" fill="red"/>
   </g>
   <g id="cell89">
  <circle cx="181.205" cy="1160.89" r="8.41271" stroke-width="0.5" stroke="black" fill="red"/>
  <circle cx="181.205" cy="1160.89" r="5.05167" stroke-width="0.5" stroke="red" fill="red"/>
   </g>
   <g id="cell90">
  <circle cx="1173.24" cy="1104.86" r="8.41271" stroke-width="0.5" stroke="black" fill="red"/>
  <circle cx="1173.24" cy="1104.86" r="5.05167" stroke-width="0.5" stroke="red" fill="red"/>
   </g>
   <g id="cell91">
  <circle cx="43.3273" cy="1289.21" r="8.41271" stroke-width="0.5" stroke="black" fill="red"/>
  <circle cx="43.3273" cy="1289.21" r="5.05167" stroke-width="0.5" stroke="red" fill="red"/>
   </g>
   <g id="cell92">
  <circle cx="1259.96" cy="649.081" r="10.3247" stroke-width="0.5" stroke="black" fill="red"/>
  <circle cx="1259.96" cy="649.081" r="6.23971" stroke-width="0.5" stroke="red" fill="red"/>
   </g>
   <g id="cell93">
  <circle cx="442.282" cy="1793.1" r="9.4743" stroke-width="0.5" stroke="black" fill="red"/>
  <circle cx="442.282" cy="1793.1" r="5.75875" stroke-width="0.5" stroke="red" fill="red"/>
   </g>
   <g id="cell94">
  <circle cx="757.244" cy="205.965" r="10.0806" stroke-width="0.5" stroke="black" fill="red"/>
  <circle cx="757.244" cy="205.965" r="6.10985" stroke-width="0.5" stroke="red" fill="red"/>
   </g>
   <g id="cell95">
  <circle cx="1982.57" cy="1754.04" r="10.0169" stroke-width="0.5" stroke="black" fill="red"/>
  <circle cx="1982.57" cy="1754.04" r="6.07458" stroke-width="0.5" stroke="red" fill="red"/>
   </g>
   <g id="cell96">
  <circle cx="1621.88" cy="1096.72" r="10.1506" stroke-width="0.5" stroke="black" fill="red"/>
  <circle cx="1621.88" cy="1096.72" r="6.14798" stroke-width="0.5" stroke="red" fill="red"/>
   </g>
   <g id="cell97">
  <circle cx="871.145" cy="203.614" r="10.2821" stroke-width="0.5" stroke="black" fill="red"/>
  <circle cx="871.145" cy="203.614" r="6.21778" stroke-width="0.5" stroke="red" fill="red"/>
   </g>
   <g id="cell98">
  <circle cx="1812.61" cy="687.314" r="10.3084" stroke-width="0.5" stroke="black" fill="red"/>
  <circle cx="1812.61" cy="687.314" r="6.23137" stroke-width="0.5" stroke="red" fill="red"/>
   </g>
   <g id="cell99">
  <circle cx="919.849" cy="1968.01" r="10.3166" stroke-width="0.5" stroke="black" fill="red"/>
  <circle cx="919.849" cy="1968.01" r="6.23561" stroke-width="0.5" stroke="red" fill="red"/>
   </g>
  </g>
 </g>
  <rect x="1750" y="2070" width="200" height="20" stroke-width="4" stroke="rgb(255,255,255)" fill="rgb(0,0,0)"/>
  <text x="1762.5" y="2057.5"
   font-family="Arial" font-size="50" fill="black" >
   200 &#956;m
  </text>
  <text x="50" y="2090"
   font-family="Arial" font-size="37.5" fill="black" >
   0 days, 0 hours, 0 minutes, and 11.9466 seconds
  </text>
  <rect x="0" y="140" width="2000" height="2000" stroke-width="4" stroke="rgb(0,0,0)" fill="none"/>
</svg>
