<?xml version="1.0" encoding="UTF-8" standalone="no"?>
<!-- Created with PhysiCell (http://PhysiCell.MathCancer.org/) -->
<svg 
 xmlns:dc="http://purl.org/dc/elements/1.1/" 
 xmlns:cc="http://creativecommons.org/ns#" 
 xmlns:rdf="http://www.w3.org/1999/02/22-rdf-syntax-ns#" 
 xmlns:svg="http://www.w3.org/2000/svg" 
 xmlns="http://www.w3.org/2000/svg" 
 version="1.1" 
 width="2000" 
 height="2140" 
 id="svg2">
  <rect x="0" y="0" width="2000" height="2140" stroke-width="4" stroke="white" fill="white"/>
  <text x="25" y="60"
   font-family="Arial" font-size="50" fill="black" >
   Current time: 0 days, 14 hours, and 10.00 minutes, z = 0.00 &#956;m
  </text>
  <text x="25" y="115"
   font-family="Arial" font-size="47.5" fill="black" >
   111 agents
  </text>
 <g id="tissue" 
    transform="translate(0,2140) scale(1,-1)">
  <g id="ECM">
  </g>
  <g id="cells">
   <g id="cell0">
  <circle cx="1091.26" cy="1177.09" r="10.4208" stroke-width="0.5" stroke="black" fill="grey"/>
  <circle cx="1091.26" cy="1177.09" r="6.28762" stroke-width="0.5" stroke="grey" fill="grey"/>
   </g>
   <g id="cell1">
  <circle cx="1673.86" cy="1205.74" r="10.5189" stroke-width="0.5" stroke="black" fill="grey"/>
  <circle cx="1673.86" cy="1205.74" r="6.3332" stroke-width="0.5" stroke="grey" fill="grey"/>
   </g>
   <g id="cell2">
  <circle cx="1100.41" cy="1742.73" r="8.37431" stroke-width="0.5" stroke="black" fill="grey"/>
  <circle cx="1100.41" cy="1742.73" r="5.03754" stroke-width="0.5" stroke="grey" fill="grey"/>
   </g>
   <g id="cell3">
  <circle cx="1250.79" cy="1286.82" r="10.4573" stroke-width="0.5" stroke="black" fill="grey"/>
  <circle cx="1250.79" cy="1286.82" r="6.30507" stroke-width="0.5" stroke="grey" fill="grey"/>
   </g>
   <g id="cell4">
  <circle cx="926.772" cy="570.194" r="9.77588" stroke-width="0.5" stroke="black" fill="grey"/>
  <circle cx="926.772" cy="570.194" r="5.93735" stroke-width="0.5" stroke="grey" fill="grey"/>
   </g>
   <g id="cell5">
  <circle cx="90.3022" cy="1913.87" r="10.3682" stroke-width="0.5" stroke="black" fill="grey"/>
  <circle cx="90.3022" cy="1913.87" r="6.26172" stroke-width="0.5" stroke="grey" fill="grey"/>
   </g>
   <g id="cell6">
  <circle cx="757.955" cy="891.202" r="10.2632" stroke-width="0.5" stroke="black" fill="grey"/>
  <circle cx="757.955" cy="891.202" r="6.20796" stroke-width="0.5" stroke="grey" fill="grey"/>
   </g>
   <g id="cell7">
  <circle cx="1573.85" cy="1047.84" r="10.4984" stroke-width="0.5" stroke="black" fill="grey"/>
  <circle cx="1573.85" cy="1047.84" r="6.32406" stroke-width="0.5" stroke="grey" fill="grey"/>
   </g>
   <g id="cell8">
  <circle cx="1117.55" cy="782.313" r="8.37321" stroke-width="0.5" stroke="black" fill="grey"/>
  <circle cx="1117.55" cy="782.313" r="5.03708" stroke-width="0.5" stroke="grey" fill="grey"/>
   </g>
   <g id="cell9">
  <circle cx="1617.74" cy="167.085" r="10.4102" stroke-width="0.5" stroke="black" fill="grey"/>
  <circle cx="1617.74" cy="167.085" r="6.2825" stroke-width="0.5" stroke="grey" fill="grey"/>
   </g>
   <g id="cell10">
  <circle cx="172.277" cy="1297.36" r="9.94548" stroke-width="0.5" stroke="black" fill="grey"/>
  <circle cx="172.277" cy="1297.36" r="6.03448" stroke-width="0.5" stroke="grey" fill="grey"/>
   </g>
   <g id="cell11">
  <circle cx="742.132" cy="1647.11" r="10.5352" stroke-width="0.5" stroke="black" fill="grey"/>
  <circle cx="742.132" cy="1647.11" r="6.34027" stroke-width="0.5" stroke="grey" fill="grey"/>
   </g>
   <g id="cell12">
  <circle cx="1598.78" cy="267.133" r="10.4048" stroke-width="0.5" stroke="black" fill="grey"/>
  <circle cx="1598.78" cy="267.133" r="6.27981" stroke-width="0.5" stroke="grey" fill="grey"/>
   </g>
   <g id="cell13">
  <circle cx="1733.68" cy="1895.78" r="10.5387" stroke-width="0.5" stroke="black" fill="grey"/>
  <circle cx="1733.68" cy="1895.78" r="6.34177" stroke-width="0.5" stroke="grey" fill="grey"/>
   </g>
   <g id="cell14">
  <circle cx="1564.79" cy="1633.69" r="8.84788" stroke-width="0.5" stroke="black" fill="grey"/>
  <circle cx="1564.79" cy="1633.69" r="5.36278" stroke-width="0.5" stroke="grey" fill="grey"/>
   </g>
   <g id="cell15">
  <circle cx="1051.35" cy="1530.58" r="10.4651" stroke-width="0.5" stroke="black" fill="grey"/>
  <circle cx="1051.35" cy="1530.58" r="6.30877" stroke-width="0.5" stroke="grey" fill="grey"/>
   </g>
   <g id="cell16">
  <circle cx="249.266" cy="1412.47" r="10.5117" stroke-width="0.5" stroke="black" fill="grey"/>
  <circle cx="249.266" cy="1412.47" r="6.33005" stroke-width="0.5" stroke="grey" fill="grey"/>
   </g>
   <g id="cell17">
  <circle cx="1193.7" cy="271.883" r="10.4925" stroke-width="0.5" stroke="black" fill="grey"/>
  <circle cx="1193.7" cy="271.883" r="6.32139" stroke-width="0.5" stroke="grey" fill="grey"/>
   </g>
   <g id="cell18">
  <circle cx="1872.03" cy="1540.85" r="10.537" stroke-width="0.5" stroke="black" fill="grey"/>
  <circle cx="1872.03" cy="1540.85" r="6.34103" stroke-width="0.5" stroke="grey" fill="grey"/>
   </g>
   <g id="cell19">
  <circle cx="234.268" cy="875.777" r="8.41271" stroke-width="0.5" stroke="black" fill="grey"/>
  <circle cx="234.268" cy="875.777" r="5.05167" stroke-width="0.5" stroke="grey" fill="grey"/>
   </g>
   <g id="cell20">
  <circle cx="545.629" cy="355.172" r="9.90658" stroke-width="0.5" stroke="black" fill="grey"/>
  <circle cx="545.629" cy="355.172" r="6.01243" stroke-width="0.5" stroke="grey" fill="grey"/>
   </g>
   <g id="cell21">
  <circle cx="1425.42" cy="901.083" r="10.2728" stroke-width="0.5" stroke="black" fill="grey"/>
  <circle cx="1425.42" cy="901.083" r="6.21295" stroke-width="0.5" stroke="grey" fill="grey"/>
   </g>
   <g id="cell22">
  <circle cx="1110.93" cy="256.205" r="9.12489" stroke-width="0.5" stroke="black" fill="grey"/>
  <circle cx="1110.93" cy="256.205" r="5.54282" stroke-width="0.5" stroke="grey" fill="grey"/>
   </g>
   <g id="cell23">
  <circle cx="641.8" cy="1243.18" r="3.72987" stroke-width="0.5" stroke="black" fill="grey"/>
  <circle cx="641.8" cy="1243.18" r="3.08248" stroke-width="0.5" stroke="black" fill="black"/>
   </g>
   <g id="cell24">
  <circle cx="1277.17" cy="413.022" r="9.70201" stroke-width="0.5" stroke="black" fill="grey"/>
  <circle cx="1277.17" cy="413.022" r="5.89426" stroke-width="0.5" stroke="grey" fill="grey"/>
   </g>
   <g id="cell25">
  <circle cx="789.844" cy="1889.78" r="8.37321" stroke-width="0.5" stroke="black" fill="grey"/>
  <circle cx="789.844" cy="1889.78" r="5.03708" stroke-width="0.5" stroke="grey" fill="grey"/>
   </g>
   <g id="cell26">
  <circle cx="1366.48" cy="883.245" r="10.0654" stroke-width="0.5" stroke="black" fill="grey"/>
  <circle cx="1366.48" cy="883.245" r="6.10145" stroke-width="0.5" stroke="grey" fill="grey"/>
   </g>
   <g id="cell27">
  <circle cx="1205.15" cy="881.259" r="10.483" stroke-width="0.5" stroke="black" fill="grey"/>
  <circle cx="1205.15" cy="881.259" r="6.31703" stroke-width="0.5" stroke="grey" fill="grey"/>
   </g>
   <g id="cell28">
  <circle cx="1338.55" cy="169.398" r="10.5092" stroke-width="0.5" stroke="black" fill="grey"/>
  <circle cx="1338.55" cy="169.398" r="6.32893" stroke-width="0.5" stroke="grey" fill="grey"/>
   </g>
   <g id="cell29">
  <circle cx="1954.82" cy="1297.16" r="10.4531" stroke-width="0.5" stroke="black" fill="grey"/>
  <circle cx="1954.82" cy="1297.16" r="6.30312" stroke-width="0.5" stroke="grey" fill="grey"/>
   </g>
   <g id="cell30">
  <circle cx="1343.68" cy="339.04" r="10.4048" stroke-width="0.5" stroke="black" fill="grey"/>
  <circle cx="1343.68" cy="339.04" r="6.27981" stroke-width="0.5" stroke="grey" fill="grey"/>
   </g>
   <g id="cell31">
  <circle cx="684.037" cy="227.91" r="8.36592" stroke-width="0.5" stroke="black" fill="grey"/>
  <circle cx="684.037" cy="227.91" r="5.03403" stroke-width="0.5" stroke="grey" fill="grey"/>
   </g>
   <g id="cell32">
  <circle cx="617.011" cy="1234.26" r="10.5387" stroke-width="0.5" stroke="black" fill="grey"/>
  <circle cx="617.011" cy="1234.26" r="6.34177" stroke-width="0.5" stroke="grey" fill="grey"/>
   </g>
   <g id="cell33">
  <circle cx="674.212" cy="1189.66" r="10.3873" stroke-width="0.5" stroke="black" fill="grey"/>
  <circle cx="674.212" cy="1189.66" r="6.2712" stroke-width="0.5" stroke="grey" fill="grey"/>
   </g>
   <g id="cell34">
  <circle cx="899.216" cy="1256.63" r="8.37208" stroke-width="0.5" stroke="black" fill="grey"/>
  <circle cx="899.216" cy="1256.63" r="5.03661" stroke-width="0.5" stroke="grey" fill="grey"/>
   </g>
   <g id="cell35">
  <circle cx="1899.76" cy="228.154" r="10.5314" stroke-width="0.5" stroke="black" fill="grey"/>
  <circle cx="1899.76" cy="228.154" r="6.33867" stroke-width="0.5" stroke="grey" fill="grey"/>
   </g>
   <g id="cell36">
  <circle cx="381.041" cy="1300.34" r="10.5211" stroke-width="0.5" stroke="black" fill="grey"/>
  <circle cx="381.041" cy="1300.34" r="6.33419" stroke-width="0.5" stroke="grey" fill="grey"/>
   </g>
   <g id="cell37">
  <circle cx="1974.82" cy="1302.75" r="8.84788" stroke-width="0.5" stroke="black" fill="grey"/>
  <circle cx="1974.82" cy="1302.75" r="5.36278" stroke-width="0.5" stroke="grey" fill="grey"/>
   </g>
   <g id="cell38">
  <circle cx="433.988" cy="853.168" r="10.5333" stroke-width="0.5" stroke="black" fill="grey"/>
  <circle cx="433.988" cy="853.168" r="6.33948" stroke-width="0.5" stroke="grey" fill="grey"/>
   </g>
   <g id="cell39">
  <circle cx="924.114" cy="488.959" r="9.86542" stroke-width="0.5" stroke="black" fill="grey"/>
  <circle cx="924.114" cy="488.959" r="5.98895" stroke-width="0.5" stroke="grey" fill="grey"/>
   </g>
   <g id="cell40">
  <circle cx="321.61" cy="656.081" r="10.537" stroke-width="0.5" stroke="black" fill="grey"/>
  <circle cx="321.61" cy="656.081" r="6.34103" stroke-width="0.5" stroke="grey" fill="grey"/>
   </g>
   <g id="cell41">
  <circle cx="1339.83" cy="1293.15" r="8.37537" stroke-width="0.5" stroke="black" fill="grey"/>
  <circle cx="1339.83" cy="1293.15" r="5.03798" stroke-width="0.5" stroke="grey" fill="grey"/>
   </g>
   <g id="cell42">
  <circle cx="287.486" cy="1560.71" r="10.4925" stroke-width="0.5" stroke="black" fill="grey"/>
  <circle cx="287.486" cy="1560.71" r="6.32139" stroke-width="0.5" stroke="grey" fill="grey"/>
   </g>
   <g id="cell43">
  <circle cx="1941.04" cy="790.736" r="10.5117" stroke-width="0.5" stroke="black" fill="grey"/>
  <circle cx="1941.04" cy="790.736" r="6.33005" stroke-width="0.5" stroke="grey" fill="grey"/>
   </g>
   <g id="cell44">
  <circle cx="1659.36" cy="53.2607" r="10.4984" stroke-width="0.5" stroke="black" fill="grey"/>
  <circle cx="1659.36" cy="53.2607" r="6.32406" stroke-width="0.5" stroke="grey" fill="grey"/>
   </g>
   <g id="cell45">
  <circle cx="1227.43" cy="1707.82" r="10.4726" stroke-width="0.5" stroke="black" fill="grey"/>
  <circle cx="1227.43" cy="1707.82" r="6.31223" stroke-width="0.5" stroke="grey" fill="grey"/>
   </g>
   <g id="cell46">
  <circle cx="169.491" cy="1968.32" r="10.5092" stroke-width="0.5" stroke="black" fill="grey"/>
  <circle cx="169.491" cy="1968.32" r="6.32893" stroke-width="0.5" stroke="grey" fill="grey"/>
   </g>
   <g id="cell47">
  <circle cx="1737.15" cy="941.206" r="8.37092" stroke-width="0.5" stroke="black" fill="grey"/>
  <circle cx="1737.15" cy="941.206" r="5.03613" stroke-width="0.5" stroke="grey" fill="grey"/>
   </g>
   <g id="cell48">
  <circle cx="1948.31" cy="78.7377" r="10.3873" stroke-width="0.5" stroke="black" fill="grey"/>
  <circle cx="1948.31" cy="78.7377" r="6.2712" stroke-width="0.5" stroke="grey" fill="grey"/>
   </g>
   <g id="cell49">
  <circle cx="919.98" cy="1475.72" r="10.4726" stroke-width="0.5" stroke="black" fill="grey"/>
  <circle cx="919.98" cy="1475.72" r="6.31223" stroke-width="0.5" stroke="grey" fill="grey"/>
   </g>
   <g id="cell50">
  <circle cx="153.344" cy="844.783" r="10.4689" stroke-width="0.5" stroke="black" fill="red"/>
  <circle cx="153.344" cy="844.783" r="6.31053" stroke-width="0.5" stroke="red" fill="red"/>
   </g>
   <g id="cell51">
  <circle cx="1962.48" cy="281.111" r="9.30826" stroke-width="0.5" stroke="black" fill="red"/>
  <circle cx="1962.48" cy="281.111" r="5.65742" stroke-width="0.5" stroke="red" fill="red"/>
   </g>
   <g id="cell52">
  <circle cx="630.287" cy="961.334" r="10.4925" stroke-width="0.5" stroke="black" fill="red"/>
  <circle cx="630.287" cy="961.334" r="6.32139" stroke-width="0.5" stroke="red" fill="red"/>
   </g>
   <g id="cell53">
  <circle cx="1392.22" cy="651.328" r="8.72828" stroke-width="0.5" stroke="black" fill="red"/>
  <circle cx="1392.22" cy="651.328" r="5.28134" stroke-width="0.5" stroke="red" fill="red"/>
   </g>
   <g id="cell54">
  <circle cx="799.34" cy="1828.96" r="10.5066" stroke-width="0.5" stroke="black" fill="red"/>
  <circle cx="799.34" cy="1828.96" r="6.32777" stroke-width="0.5" stroke="red" fill="red"/>
   </g>
   <g id="cell55">
  <circle cx="432.685" cy="1346.54" r="8.54454" stroke-width="0.5" stroke="black" fill="red"/>
  <circle cx="432.685" cy="1346.54" r="5.14947" stroke-width="0.5" stroke="red" fill="red"/>
   </g>
   <g id="cell56">
  <circle cx="1131.78" cy="1700.12" r="9.7273" stroke-width="0.5" stroke="black" fill="red"/>
  <circle cx="1131.78" cy="1700.12" r="5.90906" stroke-width="0.5" stroke="red" fill="red"/>
   </g>
   <g id="cell57">
  <circle cx="989.832" cy="1075.59" r="8.36722" stroke-width="0.5" stroke="black" fill="red"/>
  <circle cx="989.832" cy="1075.59" r="5.03458" stroke-width="0.5" stroke="red" fill="red"/>
   </g>
   <g id="cell58">
  <circle cx="126.448" cy="1812.51" r="10.34" stroke-width="0.5" stroke="black" fill="red"/>
  <circle cx="126.448" cy="1812.51" r="6.24753" stroke-width="0.5" stroke="red" fill="red"/>
   </g>
   <g id="cell98">
  <circle cx="1822.75" cy="701.816" r="10.4258" stroke-width="0.5" stroke="black" fill="red"/>
  <circle cx="1822.75" cy="701.816" r="6.29005" stroke-width="0.5" stroke="red" fill="red"/>
   </g>
   <g id="cell60">
  <circle cx="660.125" cy="35.3493" r="10.4796" stroke-width="0.5" stroke="black" fill="red"/>
  <circle cx="660.125" cy="35.3493" r="6.31548" stroke-width="0.5" stroke="red" fill="red"/>
   </g>
   <g id="cell61">
  <circle cx="1657.95" cy="268.493" r="10.5166" stroke-width="0.5" stroke="black" fill="red"/>
  <circle cx="1657.95" cy="268.493" r="6.33218" stroke-width="0.5" stroke="red" fill="red"/>
   </g>
   <g id="cell62">
  <circle cx="1423.01" cy="1685.56" r="10.5039" stroke-width="0.5" stroke="black" fill="red"/>
  <circle cx="1423.01" cy="1685.56" r="6.32657" stroke-width="0.5" stroke="red" fill="red"/>
   </g>
   <g id="cell63">
  <circle cx="574.711" cy="368.819" r="10.3084" stroke-width="0.5" stroke="black" fill="red"/>
  <circle cx="574.711" cy="368.819" r="6.23137" stroke-width="0.5" stroke="red" fill="red"/>
   </g>
   <g id="cell64">
  <circle cx="1197.22" cy="1093.28" r="10.4796" stroke-width="0.5" stroke="black" fill="red"/>
  <circle cx="1197.22" cy="1093.28" r="6.31548" stroke-width="0.5" stroke="red" fill="red"/>
   </g>
   <g id="cell65">
  <circle cx="294.228" cy="1649.68" r="10.5066" stroke-width="0.5" stroke="black" fill="red"/>
  <circle cx="294.228" cy="1649.68" r="6.32777" stroke-width="0.5" stroke="red" fill="red"/>
   </g>
   <g id="cell66">
  <circle cx="14.0153" cy="268.832" r="10.4489" stroke-width="0.5" stroke="black" fill="red"/>
  <circle cx="14.0153" cy="268.832" r="6.30112" stroke-width="0.5" stroke="red" fill="red"/>
   </g>
   <g id="cell67">
  <circle cx="1139.57" cy="566.101" r="10.2221" stroke-width="0.5" stroke="black" fill="red"/>
  <circle cx="1139.57" cy="566.101" r="6.18628" stroke-width="0.5" stroke="red" fill="red"/>
   </g>
   <g id="cell68">
  <circle cx="1441.32" cy="600.065" r="10.4955" stroke-width="0.5" stroke="black" fill="red"/>
  <circle cx="1441.32" cy="600.065" r="6.32275" stroke-width="0.5" stroke="red" fill="red"/>
   </g>
   <g id="cell69">
  <circle cx="818.118" cy="508.044" r="10.4102" stroke-width="0.5" stroke="black" fill="red"/>
  <circle cx="818.118" cy="508.044" r="6.2825" stroke-width="0.5" stroke="red" fill="red"/>
   </g>
   <g id="cell70">
  <circle cx="1158.54" cy="781.091" r="10.5211" stroke-width="0.5" stroke="black" fill="red"/>
  <circle cx="1158.54" cy="781.091" r="6.33419" stroke-width="0.5" stroke="red" fill="red"/>
   </g>
   <g id="cell71">
  <circle cx="1730.82" cy="1172.5" r="8.36972" stroke-width="0.5" stroke="black" fill="red"/>
  <circle cx="1730.82" cy="1172.5" r="5.03563" stroke-width="0.5" stroke="red" fill="red"/>
   </g>
   <g id="cell72">
  <circle cx="424.147" cy="1765.68" r="8.41271" stroke-width="0.5" stroke="black" fill="red"/>
  <circle cx="424.147" cy="1765.68" r="5.05167" stroke-width="0.5" stroke="red" fill="red"/>
   </g>
   <g id="cell73">
  <circle cx="1357.09" cy="863.401" r="10.537" stroke-width="0.5" stroke="black" fill="red"/>
  <circle cx="1357.09" cy="863.401" r="6.34103" stroke-width="0.5" stroke="red" fill="red"/>
   </g>
   <g id="cell74">
  <circle cx="1703.63" cy="1889.06" r="10.5092" stroke-width="0.5" stroke="black" fill="red"/>
  <circle cx="1703.63" cy="1889.06" r="6.32893" stroke-width="0.5" stroke="red" fill="red"/>
   </g>
   <g id="cell75">
  <circle cx="241.897" cy="582.647" r="8.41271" stroke-width="0.5" stroke="black" fill="red"/>
  <circle cx="241.897" cy="582.647" r="5.05167" stroke-width="0.5" stroke="red" fill="red"/>
   </g>
   <g id="cell76">
  <circle cx="1629.37" cy="756.582" r="10.4208" stroke-width="0.5" stroke="black" fill="red"/>
  <circle cx="1629.37" cy="756.582" r="6.28762" stroke-width="0.5" stroke="red" fill="red"/>
   </g>
   <g id="cell77">
  <circle cx="1409.13" cy="1819.3" r="10.5275" stroke-width="0.5" stroke="black" fill="red"/>
  <circle cx="1409.13" cy="1819.3" r="6.33696" stroke-width="0.5" stroke="red" fill="red"/>
   </g>
   <g id="cell78">
  <circle cx="1155.07" cy="612.498" r="9.98223" stroke-width="0.5" stroke="black" fill="red"/>
  <circle cx="1155.07" cy="612.498" r="6.05517" stroke-width="0.5" stroke="red" fill="red"/>
   </g>
   <g id="cell79">
  <circle cx="1985.28" cy="1430.53" r="10.4307" stroke-width="0.5" stroke="black" fill="red"/>
  <circle cx="1985.28" cy="1430.53" r="6.29241" stroke-width="0.5" stroke="red" fill="red"/>
   </g>
   <g id="cell80">
  <circle cx="1470.63" cy="1300.02" r="10.5233" stroke-width="0.5" stroke="black" fill="red"/>
  <circle cx="1470.63" cy="1300.02" r="6.33514" stroke-width="0.5" stroke="red" fill="red"/>
   </g>
   <g id="cell81">
  <circle cx="1114.43" cy="1909.91" r="10.483" stroke-width="0.5" stroke="black" fill="red"/>
  <circle cx="1114.43" cy="1909.91" r="6.31703" stroke-width="0.5" stroke="red" fill="red"/>
   </g>
   <g id="cell82">
  <circle cx="1273.97" cy="824.42" r="10.5352" stroke-width="0.5" stroke="black" fill="red"/>
  <circle cx="1273.97" cy="824.42" r="6.34027" stroke-width="0.5" stroke="red" fill="red"/>
   </g>
   <g id="cell83">
  <circle cx="1232.55" cy="1230.51" r="8.37321" stroke-width="0.5" stroke="black" fill="red"/>
  <circle cx="1232.55" cy="1230.51" r="5.03708" stroke-width="0.5" stroke="red" fill="red"/>
   </g>
   <g id="cell84">
  <circle cx="32.3219" cy="910.102" r="8.9283" stroke-width="0.5" stroke="black" fill="red"/>
  <circle cx="32.3219" cy="910.102" r="5.4161" stroke-width="0.5" stroke="red" fill="red"/>
   </g>
   <g id="cell85">
  <circle cx="1427.73" cy="1290.05" r="10.0806" stroke-width="0.5" stroke="black" fill="red"/>
  <circle cx="1427.73" cy="1290.05" r="6.10985" stroke-width="0.5" stroke="red" fill="red"/>
   </g>
   <g id="cell86">
  <circle cx="579.031" cy="792.859" r="10.4651" stroke-width="0.5" stroke="black" fill="red"/>
  <circle cx="579.031" cy="792.859" r="6.30877" stroke-width="0.5" stroke="red" fill="red"/>
   </g>
   <g id="cell87">
  <circle cx="1472.84" cy="897.874" r="10.0654" stroke-width="0.5" stroke="black" fill="red"/>
  <circle cx="1472.84" cy="897.874" r="6.10145" stroke-width="0.5" stroke="red" fill="red"/>
   </g>
   <g id="cell88">
  <circle cx="262.235" cy="208.359" r="10.5092" stroke-width="0.5" stroke="black" fill="red"/>
  <circle cx="262.235" cy="208.359" r="6.32893" stroke-width="0.5" stroke="red" fill="red"/>
   </g>
   <g id="cell89">
  <circle cx="187.607" cy="1191.66" r="10.5166" stroke-width="0.5" stroke="black" fill="red"/>
  <circle cx="187.607" cy="1191.66" r="6.33218" stroke-width="0.5" stroke="red" fill="red"/>
   </g>
   <g id="cell90">
  <circle cx="1176.61" cy="1101.61" r="10.3615" stroke-width="0.5" stroke="black" fill="red"/>
  <circle cx="1176.61" cy="1101.61" r="6.25834" stroke-width="0.5" stroke="red" fill="red"/>
   </g>
   <g id="cell91">
  <circle cx="62.9565" cy="1265.12" r="10.5275" stroke-width="0.5" stroke="black" fill="red"/>
  <circle cx="62.9565" cy="1265.12" r="6.33696" stroke-width="0.5" stroke="red" fill="red"/>
   </g>
   <g id="cell99">
  <circle cx="950.835" cy="1991.56" r="8.38849" stroke-width="0.5" stroke="black" fill="red"/>
  <circle cx="950.835" cy="1991.56" r="5.04906" stroke-width="0.5" stroke="red" fill="red"/>
   </g>
   <g id="cell93">
  <circle cx="416.269" cy="1790.12" r="8.37208" stroke-width="0.5" stroke="black" fill="red"/>
  <circle cx="416.269" cy="1790.12" r="5.03661" stroke-width="0.5" stroke="red" fill="red"/>
   </g>
   <g id="cell94">
  <circle cx="756.228" cy="187.676" r="10.4862" stroke-width="0.5" stroke="black" fill="red"/>
  <circle cx="756.228" cy="187.676" r="6.31853" stroke-width="0.5" stroke="red" fill="red"/>
   </g>
   <g id="cell95">
  <circle cx="1985.97" cy="1763.39" r="8.36722" stroke-width="0.5" stroke="black" fill="red"/>
  <circle cx="1985.97" cy="1763.39" r="5.03458" stroke-width="0.5" stroke="red" fill="red"/>
   </g>
   <g id="cell96">
  <circle cx="1680.09" cy="1072.69" r="9.90658" stroke-width="0.5" stroke="black" fill="red"/>
  <circle cx="1680.09" cy="1072.69" r="6.01243" stroke-width="0.5" stroke="red" fill="red"/>
   </g>
   <g id="cell97">
  <circle cx="942.837" cy="176.36" r="10.4796" stroke-width="0.5" stroke="black" fill="red"/>
  <circle cx="942.837" cy="176.36" r="6.31548" stroke-width="0.5" stroke="red" fill="red"/>
   </g>
   <g id="cell101">
  <circle cx="1334.4" cy="1266.96" r="8.37537" stroke-width="0.5" stroke="black" fill="grey"/>
  <circle cx="1334.4" cy="1266.96" r="5.03798" stroke-width="0.5" stroke="grey" fill="grey"/>
   </g>
   <g id="cell102">
  <circle cx="1090.53" cy="1768.06" r="8.37431" stroke-width="0.5" stroke="black" fill="grey"/>
  <circle cx="1090.53" cy="1768.06" r="5.03754" stroke-width="0.5" stroke="grey" fill="grey"/>
   </g>
   <g id="cell103">
  <circle cx="1210.7" cy="1241.26" r="8.37321" stroke-width="0.5" stroke="black" fill="red"/>
  <circle cx="1210.7" cy="1241.26" r="5.03708" stroke-width="0.5" stroke="red" fill="red"/>
   </g>
   <g id="cell104">
  <circle cx="776.175" cy="1882.6" r="8.44404" stroke-width="0.5" stroke="black" fill="grey"/>
  <circle cx="776.175" cy="1882.6" r="5.08878" stroke-width="0.5" stroke="grey" fill="grey"/>
   </g>
   <g id="cell105">
  <circle cx="1136.89" cy="792.354" r="8.44404" stroke-width="0.5" stroke="black" fill="grey"/>
  <circle cx="1136.89" cy="792.354" r="5.08878" stroke-width="0.5" stroke="grey" fill="grey"/>
   </g>
   <g id="cell106">
  <circle cx="438.354" cy="1783.91" r="8.37208" stroke-width="0.5" stroke="black" fill="red"/>
  <circle cx="438.354" cy="1783.91" r="5.03661" stroke-width="0.5" stroke="red" fill="red"/>
   </g>
   <g id="cell107">
  <circle cx="919.591" cy="1243.97" r="8.37208" stroke-width="0.5" stroke="black" fill="grey"/>
  <circle cx="919.591" cy="1243.97" r="5.03661" stroke-width="0.5" stroke="grey" fill="grey"/>
   </g>
   <g id="cell108">
  <circle cx="1754.83" cy="933.658" r="8.37092" stroke-width="0.5" stroke="black" fill="grey"/>
  <circle cx="1754.83" cy="933.658" r="5.03613" stroke-width="0.5" stroke="grey" fill="grey"/>
   </g>
   <g id="cell109">
  <circle cx="1745.27" cy="1178.42" r="8.36972" stroke-width="0.5" stroke="black" fill="red"/>
  <circle cx="1745.27" cy="1178.42" r="5.03563" stroke-width="0.5" stroke="red" fill="red"/>
   </g>
   <g id="cell110">
  <circle cx="956.99" cy="1975.39" r="8.36849" stroke-width="0.5" stroke="black" fill="red"/>
  <circle cx="956.99" cy="1975.39" r="5.03512" stroke-width="0.5" stroke="red" fill="red"/>
   </g>
   <g id="cell111">
  <circle cx="1967.21" cy="1751.45" r="8.36722" stroke-width="0.5" stroke="black" fill="red"/>
  <circle cx="1967.21" cy="1751.45" r="5.03458" stroke-width="0.5" stroke="red" fill="red"/>
   </g>
   <g id="cell112">
  <circle cx="1003.01" cy="1070.4" r="8.36722" stroke-width="0.5" stroke="black" fill="red"/>
  <circle cx="1003.01" cy="1070.4" r="5.03458" stroke-width="0.5" stroke="red" fill="red"/>
   </g>
   <g id="cell113">
  <circle cx="679.57" cy="213.234" r="8.36592" stroke-width="0.5" stroke="black" fill="grey"/>
  <circle cx="679.57" cy="213.234" r="5.03403" stroke-width="0.5" stroke="grey" fill="grey"/>
   </g>
  </g>
 </g>
  <rect x="1750" y="2070" width="200" height="20" stroke-width="4" stroke="rgb(255,255,255)" fill="rgb(0,0,0)"/>
  <text x="1762.5" y="2057.5"
   font-family="Arial" font-size="50" fill="black" >
   200 &#956;m
  </text>
  <text x="50" y="2090"
   font-family="Arial" font-size="37.5" fill="black" >
   0 days, 0 hours, 0 minutes, and 20.9421 seconds
  </text>
  <rect x="0" y="140" width="2000" height="2000" stroke-width="4" stroke="rgb(0,0,0)" fill="none"/>
</svg>
