<?xml version="1.0" encoding="UTF-8" standalone="no"?>
<!-- Created with PhysiCell (http://PhysiCell.MathCancer.org/) -->
<svg 
 xmlns:dc="http://purl.org/dc/elements/1.1/" 
 xmlns:cc="http://creativecommons.org/ns#" 
 xmlns:rdf="http://www.w3.org/1999/02/22-rdf-syntax-ns#" 
 xmlns:svg="http://www.w3.org/2000/svg" 
 xmlns="http://www.w3.org/2000/svg" 
 version="1.1" 
 width="2000" 
 height="2140" 
 id="svg2">
  <rect x="0" y="0" width="2000" height="2140" stroke-width="4" stroke="white" fill="white"/>
  <text x="25" y="60"
   font-family="Arial" font-size="50" fill="black" >
   Current time: 2 days, 2 hours, and 0.00 minutes, z = 0.00 &#956;m
  </text>
  <text x="25" y="115"
   font-family="Arial" font-size="47.5" fill="black" >
   41 agents
  </text>
 <g id="tissue" 
    transform="translate(0,2140) scale(1,-1)">
  <g id="ECM">
  </g>
  <g id="cells">
   <g id="cell0">
  <circle cx="1124.43" cy="1191.23" r="8.38357" stroke-width="0.5" stroke="black" fill="grey"/>
  <circle cx="1124.43" cy="1191.23" r="5.04132" stroke-width="0.5" stroke="grey" fill="grey"/>
   </g>
   <g id="cell1">
  <circle cx="1696.5" cy="1205" r="10.3466" stroke-width="0.5" stroke="black" fill="grey"/>
  <circle cx="1696.5" cy="1205" r="6.25104" stroke-width="0.5" stroke="grey" fill="grey"/>
   </g>
   <g id="cell2">
  <circle cx="1167.38" cy="1754.14" r="10.514" stroke-width="0.5" stroke="black" fill="grey"/>
  <circle cx="1167.38" cy="1754.14" r="6.33109" stroke-width="0.5" stroke="grey" fill="grey"/>
   </g>
   <g id="cell3">
  <circle cx="1268.92" cy="1316.5" r="8.38518" stroke-width="0.5" stroke="black" fill="grey"/>
  <circle cx="1268.92" cy="1316.5" r="5.04196" stroke-width="0.5" stroke="grey" fill="grey"/>
   </g>
   <g id="cell4">
  <circle cx="848.592" cy="570.652" r="10.489" stroke-width="0.5" stroke="black" fill="grey"/>
  <circle cx="848.592" cy="570.652" r="6.31989" stroke-width="0.5" stroke="grey" fill="grey"/>
   </g>
   <g id="cell5">
  <circle cx="85.5852" cy="1988.09" r="10.5035" stroke-width="0.5" stroke="black" fill="red"/>
  <circle cx="85.5852" cy="1988.09" r="6.32646" stroke-width="0.5" stroke="red" fill="red"/>
   </g>
   <g id="cell6">
  <circle cx="814.897" cy="866.528" r="8.41097" stroke-width="0.5" stroke="black" fill="red"/>
  <circle cx="814.897" cy="866.528" r="5.05122" stroke-width="0.5" stroke="red" fill="red"/>
   </g>
   <g id="cell19">
  <circle cx="1717.06" cy="1301.27" r="8.38505" stroke-width="0.5" stroke="black" fill="grey"/>
  <circle cx="1717.06" cy="1301.27" r="5.04192" stroke-width="0.5" stroke="grey" fill="grey"/>
   </g>
   <g id="cell18">
  <circle cx="1652.39" cy="326.737" r="10.1856" stroke-width="0.5" stroke="black" fill="red"/>
  <circle cx="1652.39" cy="326.737" r="6.1674" stroke-width="0.5" stroke="red" fill="red"/>
   </g>
   <g id="cell9">
  <circle cx="1649.78" cy="181.689" r="10.5134" stroke-width="0.5" stroke="black" fill="red"/>
  <circle cx="1649.78" cy="181.689" r="6.33094" stroke-width="0.5" stroke="red" fill="red"/>
   </g>
   <g id="cell11">
  <circle cx="1587.27" cy="1101.29" r="8.40528" stroke-width="0.5" stroke="black" fill="red"/>
  <circle cx="1587.27" cy="1101.29" r="5.04942" stroke-width="0.5" stroke="red" fill="red"/>
   </g>
   <g id="cell20">
  <circle cx="814.588" cy="991.215" r="9.50094" stroke-width="0.5" stroke="black" fill="red"/>
  <circle cx="814.588" cy="991.215" r="5.77605" stroke-width="0.5" stroke="red" fill="red"/>
   </g>
   <g id="cell13">
  <circle cx="872.781" cy="584.117" r="10.4566" stroke-width="0.5" stroke="black" fill="grey"/>
  <circle cx="872.781" cy="584.117" r="6.30491" stroke-width="0.5" stroke="grey" fill="grey"/>
   </g>
   <g id="cell14">
  <circle cx="1195.14" cy="1298.7" r="10.4887" stroke-width="0.5" stroke="black" fill="grey"/>
  <circle cx="1195.14" cy="1298.7" r="6.3198" stroke-width="0.5" stroke="grey" fill="grey"/>
   </g>
   <g id="cell15">
  <circle cx="1140.03" cy="1137.61" r="10.4919" stroke-width="0.5" stroke="black" fill="grey"/>
  <circle cx="1140.03" cy="1137.61" r="6.32124" stroke-width="0.5" stroke="grey" fill="grey"/>
   </g>
   <g id="cell16">
  <circle cx="1171.02" cy="1704.07" r="10.5223" stroke-width="0.5" stroke="black" fill="grey"/>
  <circle cx="1171.02" cy="1704.07" r="6.33489" stroke-width="0.5" stroke="grey" fill="grey"/>
   </g>
   <g id="cell17">
  <circle cx="1091.32" cy="683.866" r="9.40977" stroke-width="0.5" stroke="black" fill="red"/>
  <circle cx="1091.32" cy="683.866" r="5.71973" stroke-width="0.5" stroke="red" fill="red"/>
   </g>
   <g id="cell21">
  <circle cx="1572.91" cy="1028.82" r="10.5253" stroke-width="0.5" stroke="black" fill="red"/>
  <circle cx="1572.91" cy="1028.82" r="6.33604" stroke-width="0.5" stroke="red" fill="red"/>
   </g>
   <g id="cell22">
  <circle cx="1193.67" cy="1723.39" r="10.2431" stroke-width="0.5" stroke="black" fill="grey"/>
  <circle cx="1193.67" cy="1723.39" r="6.19743" stroke-width="0.5" stroke="grey" fill="grey"/>
   </g>
   <g id="cell23">
  <circle cx="1283.33" cy="1298.83" r="9.88608" stroke-width="0.5" stroke="black" fill="grey"/>
  <circle cx="1283.33" cy="1298.83" r="6.00083" stroke-width="0.5" stroke="grey" fill="grey"/>
   </g>
   <g id="cell24">
  <circle cx="1154.95" cy="1229.75" r="8.38875" stroke-width="0.5" stroke="black" fill="grey"/>
  <circle cx="1154.95" cy="1229.75" r="5.04336" stroke-width="0.5" stroke="grey" fill="grey"/>
   </g>
   <g id="cell25">
  <circle cx="1141.17" cy="700.298" r="8.43213" stroke-width="0.5" stroke="black" fill="red"/>
  <circle cx="1141.17" cy="700.298" r="5.06544" stroke-width="0.5" stroke="red" fill="red"/>
   </g>
   <g id="cell26">
  <circle cx="1672.68" cy="1213.5" r="8.36945" stroke-width="0.5" stroke="black" fill="grey"/>
  <circle cx="1672.68" cy="1213.5" r="5.03557" stroke-width="0.5" stroke="grey" fill="grey"/>
   </g>
   <g id="cell27">
  <circle cx="888.932" cy="576.668" r="9.30778" stroke-width="0.5" stroke="black" fill="grey"/>
  <circle cx="888.932" cy="576.668" r="5.65729" stroke-width="0.5" stroke="grey" fill="grey"/>
   </g>
   <g id="cell28">
  <circle cx="86.151" cy="1958.85" r="10.4043" stroke-width="0.5" stroke="black" fill="red"/>
  <circle cx="86.151" cy="1958.85" r="6.2797" stroke-width="0.5" stroke="red" fill="red"/>
   </g>
   <g id="cell29">
  <circle cx="1098.5" cy="1092.49" r="8.44466" stroke-width="0.5" stroke="black" fill="grey"/>
  <circle cx="1098.5" cy="1092.49" r="5.08911" stroke-width="0.5" stroke="grey" fill="grey"/>
   </g>
   <g id="cell30">
  <circle cx="904.405" cy="629.76" r="10.4348" stroke-width="0.5" stroke="black" fill="grey"/>
  <circle cx="904.405" cy="629.76" r="6.29454" stroke-width="0.5" stroke="grey" fill="grey"/>
   </g>
   <g id="cell31">
  <circle cx="1176.39" cy="1288.97" r="10.4719" stroke-width="0.5" stroke="black" fill="grey"/>
  <circle cx="1176.39" cy="1288.97" r="6.31205" stroke-width="0.5" stroke="grey" fill="grey"/>
   </g>
   <g id="cell32">
  <circle cx="1629.8" cy="232.931" r="10.3537" stroke-width="0.5" stroke="black" fill="red"/>
  <circle cx="1629.8" cy="232.931" r="6.25465" stroke-width="0.5" stroke="red" fill="red"/>
   </g>
   <g id="cell33">
  <circle cx="1670.21" cy="1168.37" r="10.0327" stroke-width="0.5" stroke="black" fill="grey"/>
  <circle cx="1670.21" cy="1168.37" r="6.08359" stroke-width="0.5" stroke="grey" fill="grey"/>
   </g>
   <g id="cell34">
  <circle cx="1166.16" cy="1659.62" r="10.1986" stroke-width="0.5" stroke="black" fill="grey"/>
  <circle cx="1166.16" cy="1659.62" r="6.17406" stroke-width="0.5" stroke="grey" fill="grey"/>
   </g>
   <g id="cell35">
  <circle cx="758.382" cy="872.769" r="10.3462" stroke-width="0.5" stroke="black" fill="red"/>
  <circle cx="758.382" cy="872.769" r="6.25094" stroke-width="0.5" stroke="red" fill="red"/>
   </g>
   <g id="cell36">
  <circle cx="1693.59" cy="307.6" r="10.3452" stroke-width="0.5" stroke="black" fill="red"/>
  <circle cx="1693.59" cy="307.6" r="6.25062" stroke-width="0.5" stroke="red" fill="red"/>
   </g>
   <g id="cell37">
  <circle cx="815.692" cy="938.081" r="9.83988" stroke-width="0.5" stroke="black" fill="red"/>
  <circle cx="815.692" cy="938.081" r="5.97538" stroke-width="0.5" stroke="red" fill="red"/>
   </g>
   <g id="cell38">
  <circle cx="1598.63" cy="1063.6" r="9.61631" stroke-width="0.5" stroke="black" fill="red"/>
  <circle cx="1598.63" cy="1063.6" r="5.84527" stroke-width="0.5" stroke="red" fill="red"/>
   </g>
   <g id="cell39">
  <circle cx="1153.19" cy="1191.07" r="8.38875" stroke-width="0.5" stroke="black" fill="grey"/>
  <circle cx="1153.19" cy="1191.07" r="5.04336" stroke-width="0.5" stroke="grey" fill="grey"/>
   </g>
   <g id="cell40">
  <circle cx="1708.45" cy="1268.14" r="9.06272" stroke-width="0.5" stroke="black" fill="grey"/>
  <circle cx="1708.45" cy="1268.14" r="5.50957" stroke-width="0.5" stroke="grey" fill="grey"/>
   </g>
   <g id="cell41">
  <circle cx="1267.54" cy="1351.42" r="8.38518" stroke-width="0.5" stroke="black" fill="grey"/>
  <circle cx="1267.54" cy="1351.42" r="5.04196" stroke-width="0.5" stroke="grey" fill="grey"/>
   </g>
   <g id="cell42">
  <circle cx="1127.9" cy="1155.27" r="8.38357" stroke-width="0.5" stroke="black" fill="grey"/>
  <circle cx="1127.9" cy="1155.27" r="5.04132" stroke-width="0.5" stroke="grey" fill="grey"/>
   </g>
   <g id="cell43">
  <circle cx="1118.95" cy="1100.1" r="8.37383" stroke-width="0.5" stroke="black" fill="grey"/>
  <circle cx="1118.95" cy="1100.1" r="5.03742" stroke-width="0.5" stroke="grey" fill="grey"/>
   </g>
   <g id="cell44">
  <circle cx="1657.3" cy="1204.71" r="8.36945" stroke-width="0.5" stroke="black" fill="grey"/>
  <circle cx="1657.3" cy="1204.71" r="5.03557" stroke-width="0.5" stroke="grey" fill="grey"/>
   </g>
  </g>
 </g>
  <rect x="1750" y="2070" width="200" height="20" stroke-width="4" stroke="rgb(255,255,255)" fill="rgb(0,0,0)"/>
  <text x="1762.5" y="2057.5"
   font-family="Arial" font-size="50" fill="black" >
   200 &#956;m
  </text>
  <text x="50" y="2090"
   font-family="Arial" font-size="37.5" fill="black" >
   0 days, 0 hours, 1 minutes, and 5.0693 seconds
  </text>
  <rect x="0" y="140" width="2000" height="2000" stroke-width="4" stroke="rgb(0,0,0)" fill="none"/>
</svg>
