<?xml version="1.0" encoding="UTF-8" standalone="no"?>
<!-- Created with PhysiCell (http://PhysiCell.MathCancer.org/) -->
<svg 
 xmlns:dc="http://purl.org/dc/elements/1.1/" 
 xmlns:cc="http://creativecommons.org/ns#" 
 xmlns:rdf="http://www.w3.org/1999/02/22-rdf-syntax-ns#" 
 xmlns:svg="http://www.w3.org/2000/svg" 
 xmlns="http://www.w3.org/2000/svg" 
 version="1.1" 
 width="2000" 
 height="2140" 
 id="svg2">
  <rect x="0" y="0" width="2000" height="2140" stroke-width="4" stroke="white" fill="white"/>
  <text x="25" y="60"
   font-family="Arial" font-size="50" fill="black" >
   Current time: 0 days, 2 hours, and 30.00 minutes, z = 0.00 &#956;m
  </text>
  <text x="25" y="115"
   font-family="Arial" font-size="47.5" fill="black" >
   100 agents
  </text>
 <g id="tissue" 
    transform="translate(0,2140) scale(1,-1)">
  <g id="ECM">
  </g>
  <g id="cells">
   <g id="cell0">
  <circle cx="1080.47" cy="1166.4" r="8.41271" stroke-width="0.5" stroke="black" fill="grey"/>
  <circle cx="1080.47" cy="1166.4" r="5.05167" stroke-width="0.5" stroke="grey" fill="grey"/>
   </g>
   <g id="cell1">
  <circle cx="1700.86" cy="1200.96" r="8.54454" stroke-width="0.5" stroke="black" fill="grey"/>
  <circle cx="1700.86" cy="1200.96" r="5.14947" stroke-width="0.5" stroke="grey" fill="grey"/>
   </g>
   <g id="cell2">
  <circle cx="1099.27" cy="1707.65" r="9.23685" stroke-width="0.5" stroke="black" fill="grey"/>
  <circle cx="1099.27" cy="1707.65" r="5.61315" stroke-width="0.5" stroke="grey" fill="grey"/>
   </g>
   <g id="cell3">
  <circle cx="1249.11" cy="1280.2" r="8.41271" stroke-width="0.5" stroke="black" fill="grey"/>
  <circle cx="1249.11" cy="1280.2" r="5.05167" stroke-width="0.5" stroke="grey" fill="grey"/>
   </g>
   <g id="cell4">
  <circle cx="878.015" cy="586.403" r="8.41271" stroke-width="0.5" stroke="black" fill="grey"/>
  <circle cx="878.015" cy="586.403" r="5.05167" stroke-width="0.5" stroke="grey" fill="grey"/>
   </g>
   <g id="cell5">
  <circle cx="98.3447" cy="1911.74" r="8.41271" stroke-width="0.5" stroke="black" fill="grey"/>
  <circle cx="98.3447" cy="1911.74" r="5.05167" stroke-width="0.5" stroke="grey" fill="grey"/>
   </g>
   <g id="cell6">
  <circle cx="751.286" cy="934.731" r="8.41271" stroke-width="0.5" stroke="black" fill="grey"/>
  <circle cx="751.286" cy="934.731" r="5.05167" stroke-width="0.5" stroke="grey" fill="grey"/>
   </g>
   <g id="cell7">
  <circle cx="1605.96" cy="1055.31" r="8.41271" stroke-width="0.5" stroke="black" fill="grey"/>
  <circle cx="1605.96" cy="1055.31" r="5.05167" stroke-width="0.5" stroke="grey" fill="grey"/>
   </g>
   <g id="cell8">
  <circle cx="1147.06" cy="792.659" r="9.20015" stroke-width="0.5" stroke="black" fill="grey"/>
  <circle cx="1147.06" cy="792.659" r="5.59022" stroke-width="0.5" stroke="grey" fill="grey"/>
   </g>
   <g id="cell9">
  <circle cx="1651.17" cy="153.062" r="8.41271" stroke-width="0.5" stroke="black" fill="grey"/>
  <circle cx="1651.17" cy="153.062" r="5.05167" stroke-width="0.5" stroke="grey" fill="grey"/>
   </g>
   <g id="cell10">
  <circle cx="183.09" cy="1302.12" r="8.41271" stroke-width="0.5" stroke="black" fill="grey"/>
  <circle cx="183.09" cy="1302.12" r="5.05167" stroke-width="0.5" stroke="grey" fill="grey"/>
   </g>
   <g id="cell11">
  <circle cx="744.666" cy="1648.41" r="8.84788" stroke-width="0.5" stroke="black" fill="grey"/>
  <circle cx="744.666" cy="1648.41" r="5.36278" stroke-width="0.5" stroke="grey" fill="grey"/>
   </g>
   <g id="cell12">
  <circle cx="1584.62" cy="259.044" r="8.41271" stroke-width="0.5" stroke="black" fill="grey"/>
  <circle cx="1584.62" cy="259.044" r="5.05167" stroke-width="0.5" stroke="grey" fill="grey"/>
   </g>
   <g id="cell13">
  <circle cx="1740.93" cy="1954.92" r="8.9283" stroke-width="0.5" stroke="black" fill="grey"/>
  <circle cx="1740.93" cy="1954.92" r="5.4161" stroke-width="0.5" stroke="grey" fill="grey"/>
   </g>
   <g id="cell14">
  <circle cx="1592.64" cy="1600.58" r="8.41271" stroke-width="0.5" stroke="black" fill="grey"/>
  <circle cx="1592.64" cy="1600.58" r="5.05167" stroke-width="0.5" stroke="grey" fill="grey"/>
   </g>
   <g id="cell15">
  <circle cx="1036.6" cy="1579.13" r="8.41271" stroke-width="0.5" stroke="black" fill="grey"/>
  <circle cx="1036.6" cy="1579.13" r="5.05167" stroke-width="0.5" stroke="grey" fill="grey"/>
   </g>
   <g id="cell16">
  <circle cx="236.972" cy="1403.5" r="8.45606" stroke-width="0.5" stroke="black" fill="grey"/>
  <circle cx="236.972" cy="1403.5" r="5.08296" stroke-width="0.5" stroke="grey" fill="grey"/>
   </g>
   <g id="cell17">
  <circle cx="1164.17" cy="298.69" r="8.41271" stroke-width="0.5" stroke="black" fill="grey"/>
  <circle cx="1164.17" cy="298.69" r="5.05167" stroke-width="0.5" stroke="grey" fill="grey"/>
   </g>
   <g id="cell18">
  <circle cx="1881.32" cy="1526.45" r="8.88811" stroke-width="0.5" stroke="black" fill="grey"/>
  <circle cx="1881.32" cy="1526.45" r="5.38958" stroke-width="0.5" stroke="grey" fill="grey"/>
   </g>
   <g id="cell19">
  <circle cx="222.25" cy="823.603" r="8.41271" stroke-width="0.5" stroke="black" fill="grey"/>
  <circle cx="222.25" cy="823.603" r="5.05167" stroke-width="0.5" stroke="grey" fill="grey"/>
   </g>
   <g id="cell20">
  <circle cx="530.583" cy="362.986" r="8.41271" stroke-width="0.5" stroke="black" fill="grey"/>
  <circle cx="530.583" cy="362.986" r="5.05167" stroke-width="0.5" stroke="grey" fill="grey"/>
   </g>
   <g id="cell21">
  <circle cx="1443.58" cy="902.258" r="8.41271" stroke-width="0.5" stroke="black" fill="grey"/>
  <circle cx="1443.58" cy="902.258" r="5.05167" stroke-width="0.5" stroke="grey" fill="grey"/>
   </g>
   <g id="cell22">
  <circle cx="1121.79" cy="252.647" r="8.41271" stroke-width="0.5" stroke="black" fill="grey"/>
  <circle cx="1121.79" cy="252.647" r="5.05167" stroke-width="0.5" stroke="grey" fill="grey"/>
   </g>
   <g id="cell23">
  <circle cx="652.664" cy="1254.88" r="9.04745" stroke-width="0.5" stroke="black" fill="grey"/>
  <circle cx="652.664" cy="1254.88" r="5.49345" stroke-width="0.5" stroke="grey" fill="grey"/>
   </g>
   <g id="cell24">
  <circle cx="1249.74" cy="445.76" r="8.41271" stroke-width="0.5" stroke="black" fill="grey"/>
  <circle cx="1249.74" cy="445.76" r="5.05167" stroke-width="0.5" stroke="grey" fill="grey"/>
   </g>
   <g id="cell25">
  <circle cx="791.077" cy="1874.58" r="9.20015" stroke-width="0.5" stroke="black" fill="grey"/>
  <circle cx="791.077" cy="1874.58" r="5.59022" stroke-width="0.5" stroke="grey" fill="grey"/>
   </g>
   <g id="cell26">
  <circle cx="1378.45" cy="909.592" r="8.41271" stroke-width="0.5" stroke="black" fill="grey"/>
  <circle cx="1378.45" cy="909.592" r="5.05167" stroke-width="0.5" stroke="grey" fill="grey"/>
   </g>
   <g id="cell27">
  <circle cx="1227.44" cy="871.277" r="8.41271" stroke-width="0.5" stroke="black" fill="grey"/>
  <circle cx="1227.44" cy="871.277" r="5.05167" stroke-width="0.5" stroke="grey" fill="grey"/>
   </g>
   <g id="cell28">
  <circle cx="1391.9" cy="201.333" r="8.4325" stroke-width="0.5" stroke="black" fill="grey"/>
  <circle cx="1391.9" cy="201.333" r="5.06552" stroke-width="0.5" stroke="grey" fill="grey"/>
   </g>
   <g id="cell29">
  <circle cx="1939.28" cy="1339.89" r="8.41271" stroke-width="0.5" stroke="black" fill="grey"/>
  <circle cx="1939.28" cy="1339.89" r="5.05167" stroke-width="0.5" stroke="grey" fill="grey"/>
   </g>
   <g id="cell30">
  <circle cx="1347.34" cy="332.877" r="8.41271" stroke-width="0.5" stroke="black" fill="grey"/>
  <circle cx="1347.34" cy="332.877" r="5.05167" stroke-width="0.5" stroke="grey" fill="grey"/>
   </g>
   <g id="cell31">
  <circle cx="710.264" cy="252.609" r="8.96831" stroke-width="0.5" stroke="black" fill="grey"/>
  <circle cx="710.264" cy="252.609" r="5.44228" stroke-width="0.5" stroke="grey" fill="grey"/>
   </g>
   <g id="cell32">
  <circle cx="619.255" cy="1221.82" r="8.9283" stroke-width="0.5" stroke="black" fill="grey"/>
  <circle cx="619.255" cy="1221.82" r="5.4161" stroke-width="0.5" stroke="grey" fill="grey"/>
   </g>
   <g id="cell33">
  <circle cx="654.368" cy="1135.34" r="8.41271" stroke-width="0.5" stroke="black" fill="grey"/>
  <circle cx="654.368" cy="1135.34" r="5.05167" stroke-width="0.5" stroke="grey" fill="grey"/>
   </g>
   <g id="cell34">
  <circle cx="899.823" cy="1255.49" r="9.16281" stroke-width="0.5" stroke="black" fill="grey"/>
  <circle cx="899.823" cy="1255.49" r="5.56677" stroke-width="0.5" stroke="grey" fill="grey"/>
   </g>
   <g id="cell35">
  <circle cx="1914.44" cy="206.307" r="8.7678" stroke-width="0.5" stroke="black" fill="grey"/>
  <circle cx="1914.44" cy="206.307" r="5.30857" stroke-width="0.5" stroke="grey" fill="grey"/>
   </g>
   <g id="cell36">
  <circle cx="417.148" cy="1269.34" r="8.57856" stroke-width="0.5" stroke="black" fill="grey"/>
  <circle cx="417.148" cy="1269.34" r="5.17461" stroke-width="0.5" stroke="grey" fill="grey"/>
   </g>
   <g id="cell37">
  <circle cx="1980.98" cy="1295.42" r="8.41271" stroke-width="0.5" stroke="black" fill="grey"/>
  <circle cx="1980.98" cy="1295.42" r="5.05167" stroke-width="0.5" stroke="grey" fill="grey"/>
   </g>
   <g id="cell38">
  <circle cx="509.426" cy="855.98" r="8.80772" stroke-width="0.5" stroke="black" fill="grey"/>
  <circle cx="509.426" cy="855.98" r="5.33574" stroke-width="0.5" stroke="grey" fill="grey"/>
   </g>
   <g id="cell39">
  <circle cx="922.45" cy="489.704" r="8.41271" stroke-width="0.5" stroke="black" fill="grey"/>
  <circle cx="922.45" cy="489.704" r="5.05167" stroke-width="0.5" stroke="grey" fill="grey"/>
   </g>
   <g id="cell40">
  <circle cx="302.201" cy="653.332" r="8.88811" stroke-width="0.5" stroke="black" fill="grey"/>
  <circle cx="302.201" cy="653.332" r="5.38958" stroke-width="0.5" stroke="grey" fill="grey"/>
   </g>
   <g id="cell41">
  <circle cx="1338.97" cy="1291.48" r="9.2729" stroke-width="0.5" stroke="black" fill="grey"/>
  <circle cx="1338.97" cy="1291.48" r="5.63555" stroke-width="0.5" stroke="grey" fill="grey"/>
   </g>
   <g id="cell42">
  <circle cx="278.416" cy="1554.65" r="8.41271" stroke-width="0.5" stroke="black" fill="grey"/>
  <circle cx="278.416" cy="1554.65" r="5.05167" stroke-width="0.5" stroke="grey" fill="grey"/>
   </g>
   <g id="cell43">
  <circle cx="1887.49" cy="748.058" r="8.45606" stroke-width="0.5" stroke="black" fill="grey"/>
  <circle cx="1887.49" cy="748.058" r="5.08296" stroke-width="0.5" stroke="grey" fill="grey"/>
   </g>
   <g id="cell44">
  <circle cx="1639.74" cy="46.5413" r="8.41271" stroke-width="0.5" stroke="black" fill="grey"/>
  <circle cx="1639.74" cy="46.5413" r="5.05167" stroke-width="0.5" stroke="grey" fill="grey"/>
   </g>
   <g id="cell45">
  <circle cx="1254.81" cy="1675.58" r="8.41271" stroke-width="0.5" stroke="black" fill="grey"/>
  <circle cx="1254.81" cy="1675.58" r="5.05167" stroke-width="0.5" stroke="grey" fill="grey"/>
   </g>
   <g id="cell46">
  <circle cx="180.189" cy="1933.6" r="8.4325" stroke-width="0.5" stroke="black" fill="grey"/>
  <circle cx="180.189" cy="1933.6" r="5.06552" stroke-width="0.5" stroke="grey" fill="grey"/>
   </g>
   <g id="cell47">
  <circle cx="1765.77" cy="936.149" r="9.12489" stroke-width="0.5" stroke="black" fill="grey"/>
  <circle cx="1765.77" cy="936.149" r="5.54282" stroke-width="0.5" stroke="grey" fill="grey"/>
   </g>
   <g id="cell48">
  <circle cx="1941.38" cy="115.522" r="8.41271" stroke-width="0.5" stroke="black" fill="grey"/>
  <circle cx="1941.38" cy="115.522" r="5.05167" stroke-width="0.5" stroke="grey" fill="grey"/>
   </g>
   <g id="cell49">
  <circle cx="898.917" cy="1475.25" r="8.41271" stroke-width="0.5" stroke="black" fill="grey"/>
  <circle cx="898.917" cy="1475.25" r="5.05167" stroke-width="0.5" stroke="grey" fill="grey"/>
   </g>
   <g id="cell50">
  <circle cx="95.93" cy="893.863" r="8.41271" stroke-width="0.5" stroke="black" fill="red"/>
  <circle cx="95.93" cy="893.863" r="5.05167" stroke-width="0.5" stroke="red" fill="red"/>
   </g>
   <g id="cell51">
  <circle cx="1966.19" cy="254.008" r="8.41271" stroke-width="0.5" stroke="black" fill="red"/>
  <circle cx="1966.19" cy="254.008" r="5.05167" stroke-width="0.5" stroke="red" fill="red"/>
   </g>
   <g id="cell52">
  <circle cx="601.461" cy="946.329" r="8.41271" stroke-width="0.5" stroke="black" fill="red"/>
  <circle cx="601.461" cy="946.329" r="5.05167" stroke-width="0.5" stroke="red" fill="red"/>
   </g>
   <g id="cell53">
  <circle cx="1384.36" cy="643.902" r="8.41271" stroke-width="0.5" stroke="black" fill="red"/>
  <circle cx="1384.36" cy="643.902" r="5.05167" stroke-width="0.5" stroke="red" fill="red"/>
   </g>
   <g id="cell54">
  <circle cx="829.22" cy="1829.14" r="8.41271" stroke-width="0.5" stroke="black" fill="red"/>
  <circle cx="829.22" cy="1829.14" r="5.05167" stroke-width="0.5" stroke="red" fill="red"/>
   </g>
   <g id="cell55">
  <circle cx="421.734" cy="1401.87" r="8.41271" stroke-width="0.5" stroke="black" fill="red"/>
  <circle cx="421.734" cy="1401.87" r="5.05167" stroke-width="0.5" stroke="red" fill="red"/>
   </g>
   <g id="cell56">
  <circle cx="1146.34" cy="1723.37" r="8.41271" stroke-width="0.5" stroke="black" fill="red"/>
  <circle cx="1146.34" cy="1723.37" r="5.05167" stroke-width="0.5" stroke="red" fill="red"/>
   </g>
   <g id="cell57">
  <circle cx="1018.53" cy="1060.83" r="9.00806" stroke-width="0.5" stroke="black" fill="red"/>
  <circle cx="1018.53" cy="1060.83" r="5.46807" stroke-width="0.5" stroke="red" fill="red"/>
   </g>
   <g id="cell58">
  <circle cx="182.415" cy="1822.42" r="8.41271" stroke-width="0.5" stroke="black" fill="red"/>
  <circle cx="182.415" cy="1822.42" r="5.05167" stroke-width="0.5" stroke="red" fill="red"/>
   </g>
   <g id="cell59">
  <circle cx="166.225" cy="1858.59" r="2.84772" stroke-width="0.5" stroke="black" fill="red"/>
  <circle cx="166.225" cy="1858.59" r="2.39601" stroke-width="0.5" stroke="black" fill="black"/>
   </g>
   <g id="cell60">
  <circle cx="649.669" cy="22.65" r="8.41271" stroke-width="0.5" stroke="black" fill="red"/>
  <circle cx="649.669" cy="22.65" r="5.05167" stroke-width="0.5" stroke="red" fill="red"/>
   </g>
   <g id="cell61">
  <circle cx="1670.73" cy="258.465" r="8.51252" stroke-width="0.5" stroke="black" fill="red"/>
  <circle cx="1670.73" cy="258.465" r="5.12552" stroke-width="0.5" stroke="red" fill="red"/>
   </g>
   <g id="cell62">
  <circle cx="1425.46" cy="1690.55" r="8.41271" stroke-width="0.5" stroke="black" fill="red"/>
  <circle cx="1425.46" cy="1690.55" r="5.05167" stroke-width="0.5" stroke="red" fill="red"/>
   </g>
   <g id="cell63">
  <circle cx="560.319" cy="364.674" r="8.41271" stroke-width="0.5" stroke="black" fill="red"/>
  <circle cx="560.319" cy="364.674" r="5.05167" stroke-width="0.5" stroke="red" fill="red"/>
   </g>
   <g id="cell64">
  <circle cx="1175.78" cy="1105.67" r="8.41271" stroke-width="0.5" stroke="black" fill="red"/>
  <circle cx="1175.78" cy="1105.67" r="5.05167" stroke-width="0.5" stroke="red" fill="red"/>
   </g>
   <g id="cell65">
  <circle cx="321.644" cy="1659.92" r="8.41271" stroke-width="0.5" stroke="black" fill="red"/>
  <circle cx="321.644" cy="1659.92" r="5.05167" stroke-width="0.5" stroke="red" fill="red"/>
   </g>
   <g id="cell66">
  <circle cx="17.1257" cy="289.978" r="8.41271" stroke-width="0.5" stroke="black" fill="red"/>
  <circle cx="17.1257" cy="289.978" r="5.05167" stroke-width="0.5" stroke="red" fill="red"/>
   </g>
   <g id="cell67">
  <circle cx="1157.41" cy="536.705" r="8.41271" stroke-width="0.5" stroke="black" fill="red"/>
  <circle cx="1157.41" cy="536.705" r="5.05167" stroke-width="0.5" stroke="red" fill="red"/>
   </g>
   <g id="cell68">
  <circle cx="1455.68" cy="591.277" r="8.41271" stroke-width="0.5" stroke="black" fill="red"/>
  <circle cx="1455.68" cy="591.277" r="5.05167" stroke-width="0.5" stroke="red" fill="red"/>
   </g>
   <g id="cell69">
  <circle cx="876.197" cy="503.817" r="8.41271" stroke-width="0.5" stroke="black" fill="red"/>
  <circle cx="876.197" cy="503.817" r="5.05167" stroke-width="0.5" stroke="red" fill="red"/>
   </g>
   <g id="cell70">
  <circle cx="1164.61" cy="788.677" r="8.57856" stroke-width="0.5" stroke="black" fill="red"/>
  <circle cx="1164.61" cy="788.677" r="5.17461" stroke-width="0.5" stroke="red" fill="red"/>
   </g>
   <g id="cell71">
  <circle cx="1772.19" cy="1132.62" r="9.08642" stroke-width="0.5" stroke="black" fill="red"/>
  <circle cx="1772.19" cy="1132.62" r="5.51837" stroke-width="0.5" stroke="red" fill="red"/>
   </g>
   <g id="cell72">
  <circle cx="431.817" cy="1772.1" r="8.41271" stroke-width="0.5" stroke="black" fill="red"/>
  <circle cx="431.817" cy="1772.1" r="5.05167" stroke-width="0.5" stroke="red" fill="red"/>
   </g>
   <g id="cell73">
  <circle cx="1359.64" cy="880.368" r="8.88811" stroke-width="0.5" stroke="black" fill="red"/>
  <circle cx="1359.64" cy="880.368" r="5.38958" stroke-width="0.5" stroke="red" fill="red"/>
   </g>
   <g id="cell74">
  <circle cx="1700.1" cy="1946.42" r="8.4325" stroke-width="0.5" stroke="black" fill="red"/>
  <circle cx="1700.1" cy="1946.42" r="5.06552" stroke-width="0.5" stroke="red" fill="red"/>
   </g>
   <g id="cell75">
  <circle cx="221.51" cy="587.704" r="8.41271" stroke-width="0.5" stroke="black" fill="red"/>
  <circle cx="221.51" cy="587.704" r="5.05167" stroke-width="0.5" stroke="red" fill="red"/>
   </g>
   <g id="cell76">
  <circle cx="1647.4" cy="818.068" r="8.41271" stroke-width="0.5" stroke="black" fill="red"/>
  <circle cx="1647.4" cy="818.068" r="5.05167" stroke-width="0.5" stroke="red" fill="red"/>
   </g>
   <g id="cell77">
  <circle cx="1349.38" cy="1774.16" r="8.68937" stroke-width="0.5" stroke="black" fill="red"/>
  <circle cx="1349.38" cy="1774.16" r="5.25417" stroke-width="0.5" stroke="red" fill="red"/>
   </g>
   <g id="cell78">
  <circle cx="1150.24" cy="624.759" r="8.41271" stroke-width="0.5" stroke="black" fill="red"/>
  <circle cx="1150.24" cy="624.759" r="5.05167" stroke-width="0.5" stroke="red" fill="red"/>
   </g>
   <g id="cell79">
  <circle cx="1934.09" cy="1401.8" r="8.41271" stroke-width="0.5" stroke="black" fill="red"/>
  <circle cx="1934.09" cy="1401.8" r="5.05167" stroke-width="0.5" stroke="red" fill="red"/>
   </g>
   <g id="cell80">
  <circle cx="1441.95" cy="1323.75" r="8.61424" stroke-width="0.5" stroke="black" fill="red"/>
  <circle cx="1441.95" cy="1323.75" r="5.20061" stroke-width="0.5" stroke="red" fill="red"/>
   </g>
   <g id="cell81">
  <circle cx="1076.05" cy="1907.55" r="8.41271" stroke-width="0.5" stroke="black" fill="red"/>
  <circle cx="1076.05" cy="1907.55" r="5.05167" stroke-width="0.5" stroke="red" fill="red"/>
   </g>
   <g id="cell82">
  <circle cx="1282.92" cy="802.114" r="8.84788" stroke-width="0.5" stroke="black" fill="red"/>
  <circle cx="1282.92" cy="802.114" r="5.36278" stroke-width="0.5" stroke="red" fill="red"/>
   </g>
   <g id="cell83">
  <circle cx="1215" cy="1204.46" r="9.20015" stroke-width="0.5" stroke="black" fill="red"/>
  <circle cx="1215" cy="1204.46" r="5.59022" stroke-width="0.5" stroke="red" fill="red"/>
   </g>
   <g id="cell84">
  <circle cx="38.9283" cy="944.196" r="8.41271" stroke-width="0.5" stroke="black" fill="red"/>
  <circle cx="38.9283" cy="944.196" r="5.05167" stroke-width="0.5" stroke="red" fill="red"/>
   </g>
   <g id="cell85">
  <circle cx="1427.03" cy="1325.45" r="8.41271" stroke-width="0.5" stroke="black" fill="red"/>
  <circle cx="1427.03" cy="1325.45" r="5.05167" stroke-width="0.5" stroke="red" fill="red"/>
   </g>
   <g id="cell86">
  <circle cx="573.037" cy="783.094" r="8.41271" stroke-width="0.5" stroke="black" fill="red"/>
  <circle cx="573.037" cy="783.094" r="5.05167" stroke-width="0.5" stroke="red" fill="red"/>
   </g>
   <g id="cell87">
  <circle cx="1492.69" cy="874.983" r="8.41271" stroke-width="0.5" stroke="black" fill="red"/>
  <circle cx="1492.69" cy="874.983" r="5.05167" stroke-width="0.5" stroke="red" fill="red"/>
   </g>
   <g id="cell88">
  <circle cx="276.864" cy="218.096" r="8.4325" stroke-width="0.5" stroke="black" fill="red"/>
  <circle cx="276.864" cy="218.096" r="5.06552" stroke-width="0.5" stroke="red" fill="red"/>
   </g>
   <g id="cell89">
  <circle cx="180.975" cy="1134.93" r="8.51252" stroke-width="0.5" stroke="black" fill="red"/>
  <circle cx="180.975" cy="1134.93" r="5.12552" stroke-width="0.5" stroke="red" fill="red"/>
   </g>
   <g id="cell90">
  <circle cx="1194.07" cy="1094.61" r="8.41271" stroke-width="0.5" stroke="black" fill="red"/>
  <circle cx="1194.07" cy="1094.61" r="5.05167" stroke-width="0.5" stroke="red" fill="red"/>
   </g>
   <g id="cell91">
  <circle cx="58.0814" cy="1295.73" r="8.68937" stroke-width="0.5" stroke="black" fill="red"/>
  <circle cx="58.0814" cy="1295.73" r="5.25417" stroke-width="0.5" stroke="red" fill="red"/>
   </g>
   <g id="cell92">
  <circle cx="1304.21" cy="641.994" r="2.84772" stroke-width="0.5" stroke="black" fill="red"/>
  <circle cx="1304.21" cy="641.994" r="2.39601" stroke-width="0.5" stroke="black" fill="black"/>
   </g>
   <g id="cell93">
  <circle cx="452.542" cy="1802.56" r="9.16281" stroke-width="0.5" stroke="black" fill="red"/>
  <circle cx="452.542" cy="1802.56" r="5.56677" stroke-width="0.5" stroke="red" fill="red"/>
   </g>
   <g id="cell94">
  <circle cx="732.021" cy="187.913" r="8.41271" stroke-width="0.5" stroke="black" fill="red"/>
  <circle cx="732.021" cy="187.913" r="5.05167" stroke-width="0.5" stroke="red" fill="red"/>
   </g>
   <g id="cell95">
  <circle cx="1957.55" cy="1766.53" r="9.00806" stroke-width="0.5" stroke="black" fill="red"/>
  <circle cx="1957.55" cy="1766.53" r="5.46807" stroke-width="0.5" stroke="red" fill="red"/>
   </g>
   <g id="cell96">
  <circle cx="1622.58" cy="1070.24" r="8.41271" stroke-width="0.5" stroke="black" fill="red"/>
  <circle cx="1622.58" cy="1070.24" r="5.05167" stroke-width="0.5" stroke="red" fill="red"/>
   </g>
   <g id="cell97">
  <circle cx="914.497" cy="194.698" r="8.41271" stroke-width="0.5" stroke="black" fill="red"/>
  <circle cx="914.497" cy="194.698" r="5.05167" stroke-width="0.5" stroke="red" fill="red"/>
   </g>
   <g id="cell98">
  <circle cx="1821.91" cy="719.878" r="8.41271" stroke-width="0.5" stroke="black" fill="red"/>
  <circle cx="1821.91" cy="719.878" r="5.05167" stroke-width="0.5" stroke="red" fill="red"/>
   </g>
   <g id="cell99">
  <circle cx="944.906" cy="1981.1" r="9.04745" stroke-width="0.5" stroke="black" fill="red"/>
  <circle cx="944.906" cy="1981.1" r="5.49345" stroke-width="0.5" stroke="red" fill="red"/>
   </g>
  </g>
 </g>
  <rect x="1750" y="2070" width="200" height="20" stroke-width="4" stroke="rgb(255,255,255)" fill="rgb(0,0,0)"/>
  <text x="1762.5" y="2057.5"
   font-family="Arial" font-size="50" fill="black" >
   200 &#956;m
  </text>
  <text x="50" y="2090"
   font-family="Arial" font-size="37.5" fill="black" >
   0 days, 0 hours, 0 minutes, and 3.7228 seconds
  </text>
  <rect x="0" y="140" width="2000" height="2000" stroke-width="4" stroke="rgb(0,0,0)" fill="none"/>
</svg>
