<?xml version="1.0" encoding="UTF-8" standalone="no"?>
<!-- Created with PhysiCell (http://PhysiCell.MathCancer.org/) -->
<svg 
 xmlns:dc="http://purl.org/dc/elements/1.1/" 
 xmlns:cc="http://creativecommons.org/ns#" 
 xmlns:rdf="http://www.w3.org/1999/02/22-rdf-syntax-ns#" 
 xmlns:svg="http://www.w3.org/2000/svg" 
 xmlns="http://www.w3.org/2000/svg" 
 version="1.1" 
 width="2000" 
 height="2140" 
 id="svg2">
  <rect x="0" y="0" width="2000" height="2140" stroke-width="4" stroke="white" fill="white"/>
  <text x="25" y="60"
   font-family="Arial" font-size="50" fill="black" >
   Current time: 0 days, 11 hours, and 40.00 minutes, z = 0.00 &#956;m
  </text>
  <text x="25" y="115"
   font-family="Arial" font-size="47.5" fill="black" >
   98 agents
  </text>
 <g id="tissue" 
    transform="translate(0,2140) scale(1,-1)">
  <g id="ECM">
  </g>
  <g id="cells">
   <g id="cell0">
  <circle cx="1084.98" cy="1179.72" r="10.2328" stroke-width="0.5" stroke="black" fill="grey"/>
  <circle cx="1084.98" cy="1179.72" r="6.19197" stroke-width="0.5" stroke="grey" fill="grey"/>
   </g>
   <g id="cell1">
  <circle cx="1677.85" cy="1204.97" r="10.4355" stroke-width="0.5" stroke="black" fill="grey"/>
  <circle cx="1677.85" cy="1204.97" r="6.2947" stroke-width="0.5" stroke="grey" fill="grey"/>
   </g>
   <g id="cell2">
  <circle cx="1096.36" cy="1725.84" r="10.5012" stroke-width="0.5" stroke="black" fill="grey"/>
  <circle cx="1096.36" cy="1725.84" r="6.32534" stroke-width="0.5" stroke="grey" fill="grey"/>
   </g>
   <g id="cell3">
  <circle cx="1244.46" cy="1287.96" r="10.3084" stroke-width="0.5" stroke="black" fill="grey"/>
  <circle cx="1244.46" cy="1287.96" r="6.23137" stroke-width="0.5" stroke="grey" fill="grey"/>
   </g>
   <g id="cell4">
  <circle cx="919.658" cy="578.588" r="8.96831" stroke-width="0.5" stroke="black" fill="grey"/>
  <circle cx="919.658" cy="578.588" r="5.44228" stroke-width="0.5" stroke="grey" fill="grey"/>
   </g>
   <g id="cell5">
  <circle cx="80.6983" cy="1933.26" r="10.1238" stroke-width="0.5" stroke="black" fill="grey"/>
  <circle cx="80.6983" cy="1933.26" r="6.13347" stroke-width="0.5" stroke="grey" fill="grey"/>
   </g>
   <g id="cell6">
  <circle cx="761.196" cy="915.564" r="9.90658" stroke-width="0.5" stroke="black" fill="grey"/>
  <circle cx="761.196" cy="915.564" r="6.01243" stroke-width="0.5" stroke="grey" fill="grey"/>
   </g>
   <g id="cell7">
  <circle cx="1586.63" cy="1038.09" r="10.3933" stroke-width="0.5" stroke="black" fill="grey"/>
  <circle cx="1586.63" cy="1038.09" r="6.27417" stroke-width="0.5" stroke="grey" fill="grey"/>
   </g>
   <g id="cell8">
  <circle cx="1132.28" cy="789.398" r="10.4984" stroke-width="0.5" stroke="black" fill="grey"/>
  <circle cx="1132.28" cy="789.398" r="6.32406" stroke-width="0.5" stroke="grey" fill="grey"/>
   </g>
   <g id="cell9">
  <circle cx="1633.4" cy="171.643" r="10.211" stroke-width="0.5" stroke="black" fill="grey"/>
  <circle cx="1633.4" cy="171.643" r="6.18041" stroke-width="0.5" stroke="grey" fill="grey"/>
   </g>
   <g id="cell10">
  <circle cx="191.318" cy="1294.95" r="9.2729" stroke-width="0.5" stroke="black" fill="grey"/>
  <circle cx="191.318" cy="1294.95" r="5.63555" stroke-width="0.5" stroke="grey" fill="grey"/>
   </g>
   <g id="cell11">
  <circle cx="748.743" cy="1624.04" r="10.4689" stroke-width="0.5" stroke="black" fill="grey"/>
  <circle cx="748.743" cy="1624.04" r="6.31053" stroke-width="0.5" stroke="grey" fill="grey"/>
   </g>
   <g id="cell12">
  <circle cx="1601.66" cy="288.068" r="10.1996" stroke-width="0.5" stroke="black" fill="grey"/>
  <circle cx="1601.66" cy="288.068" r="6.17434" stroke-width="0.5" stroke="grey" fill="grey"/>
   </g>
   <g id="cell13">
  <circle cx="1728.68" cy="1889.71" r="10.4761" stroke-width="0.5" stroke="black" fill="grey"/>
  <circle cx="1728.68" cy="1889.71" r="6.31388" stroke-width="0.5" stroke="grey" fill="grey"/>
   </g>
   <g id="cell14">
  <circle cx="1555.27" cy="1646.96" r="8.41271" stroke-width="0.5" stroke="black" fill="grey"/>
  <circle cx="1555.27" cy="1646.96" r="5.05167" stroke-width="0.5" stroke="grey" fill="grey"/>
   </g>
   <g id="cell15">
  <circle cx="1038.53" cy="1532.3" r="10.3247" stroke-width="0.5" stroke="black" fill="grey"/>
  <circle cx="1038.53" cy="1532.3" r="6.23971" stroke-width="0.5" stroke="grey" fill="grey"/>
   </g>
   <g id="cell16">
  <circle cx="265.125" cy="1387.71" r="10.4208" stroke-width="0.5" stroke="black" fill="grey"/>
  <circle cx="265.125" cy="1387.71" r="6.28762" stroke-width="0.5" stroke="grey" fill="grey"/>
   </g>
   <g id="cell17">
  <circle cx="1174.71" cy="267.388" r="10.3811" stroke-width="0.5" stroke="black" fill="grey"/>
  <circle cx="1174.71" cy="267.388" r="6.26814" stroke-width="0.5" stroke="grey" fill="grey"/>
   </g>
   <g id="cell18">
  <circle cx="1878.62" cy="1520.89" r="10.4726" stroke-width="0.5" stroke="black" fill="grey"/>
  <circle cx="1878.62" cy="1520.89" r="6.31223" stroke-width="0.5" stroke="grey" fill="grey"/>
   </g>
   <g id="cell19">
  <circle cx="220.923" cy="882.209" r="8.41271" stroke-width="0.5" stroke="black" fill="grey"/>
  <circle cx="220.923" cy="882.209" r="5.05167" stroke-width="0.5" stroke="grey" fill="grey"/>
   </g>
   <g id="cell20">
  <circle cx="536.988" cy="362.878" r="9.20015" stroke-width="0.5" stroke="black" fill="grey"/>
  <circle cx="536.988" cy="362.878" r="5.59022" stroke-width="0.5" stroke="grey" fill="grey"/>
   </g>
   <g id="cell21">
  <circle cx="1429.57" cy="902.28" r="9.92631" stroke-width="0.5" stroke="black" fill="grey"/>
  <circle cx="1429.57" cy="902.28" r="6.02363" stroke-width="0.5" stroke="grey" fill="grey"/>
   </g>
   <g id="cell22">
  <circle cx="1136.89" cy="253.63" r="8.41271" stroke-width="0.5" stroke="black" fill="grey"/>
  <circle cx="1136.89" cy="253.63" r="5.05167" stroke-width="0.5" stroke="grey" fill="grey"/>
   </g>
   <g id="cell23">
  <circle cx="645.903" cy="1243.13" r="10.4862" stroke-width="0.5" stroke="black" fill="grey"/>
  <circle cx="645.903" cy="1243.13" r="6.31853" stroke-width="0.5" stroke="grey" fill="grey"/>
   </g>
   <g id="cell24">
  <circle cx="1293.12" cy="424.366" r="8.84788" stroke-width="0.5" stroke="black" fill="grey"/>
  <circle cx="1293.12" cy="424.366" r="5.36278" stroke-width="0.5" stroke="grey" fill="grey"/>
   </g>
   <g id="cell25">
  <circle cx="789.549" cy="1892.63" r="10.4984" stroke-width="0.5" stroke="black" fill="grey"/>
  <circle cx="789.549" cy="1892.63" r="6.32406" stroke-width="0.5" stroke="grey" fill="grey"/>
   </g>
   <g id="cell26">
  <circle cx="1364.39" cy="913.022" r="9.5053" stroke-width="0.5" stroke="black" fill="grey"/>
  <circle cx="1364.39" cy="913.022" r="5.77744" stroke-width="0.5" stroke="grey" fill="grey"/>
   </g>
   <g id="cell27">
  <circle cx="1222.59" cy="885.175" r="10.3615" stroke-width="0.5" stroke="black" fill="grey"/>
  <circle cx="1222.59" cy="885.175" r="6.25834" stroke-width="0.5" stroke="grey" fill="grey"/>
   </g>
   <g id="cell28">
  <circle cx="1351.94" cy="178.423" r="10.4156" stroke-width="0.5" stroke="black" fill="grey"/>
  <circle cx="1351.94" cy="178.423" r="6.2851" stroke-width="0.5" stroke="grey" fill="grey"/>
   </g>
   <g id="cell29">
  <circle cx="1950.69" cy="1320.56" r="10.2999" stroke-width="0.5" stroke="black" fill="grey"/>
  <circle cx="1950.69" cy="1320.56" r="6.22699" stroke-width="0.5" stroke="grey" fill="grey"/>
   </g>
   <g id="cell30">
  <circle cx="1327.09" cy="337.797" r="10.1996" stroke-width="0.5" stroke="black" fill="grey"/>
  <circle cx="1327.09" cy="337.797" r="6.17434" stroke-width="0.5" stroke="grey" fill="grey"/>
   </g>
   <g id="cell31">
  <circle cx="689.676" cy="246.622" r="10.4796" stroke-width="0.5" stroke="black" fill="grey"/>
  <circle cx="689.676" cy="246.622" r="6.31548" stroke-width="0.5" stroke="grey" fill="grey"/>
   </g>
   <g id="cell32">
  <circle cx="605.116" cy="1221.17" r="10.4761" stroke-width="0.5" stroke="black" fill="grey"/>
  <circle cx="605.116" cy="1221.17" r="6.31388" stroke-width="0.5" stroke="grey" fill="grey"/>
   </g>
   <g id="cell33">
  <circle cx="671.562" cy="1160.22" r="10.1634" stroke-width="0.5" stroke="black" fill="grey"/>
  <circle cx="671.562" cy="1160.22" r="6.1549" stroke-width="0.5" stroke="grey" fill="grey"/>
   </g>
   <g id="cell34">
  <circle cx="915.954" cy="1247.41" r="10.4955" stroke-width="0.5" stroke="black" fill="grey"/>
  <circle cx="915.954" cy="1247.41" r="6.32275" stroke-width="0.5" stroke="grey" fill="grey"/>
   </g>
   <g id="cell35">
  <circle cx="1875.54" cy="203.779" r="10.4613" stroke-width="0.5" stroke="black" fill="grey"/>
  <circle cx="1875.54" cy="203.779" r="6.30695" stroke-width="0.5" stroke="grey" fill="grey"/>
   </g>
   <g id="cell36">
  <circle cx="398.59" cy="1280.43" r="10.4401" stroke-width="0.5" stroke="black" fill="grey"/>
  <circle cx="398.59" cy="1280.43" r="6.29691" stroke-width="0.5" stroke="grey" fill="grey"/>
   </g>
   <g id="cell37">
  <circle cx="1970.63" cy="1308.75" r="8.41271" stroke-width="0.5" stroke="black" fill="grey"/>
  <circle cx="1970.63" cy="1308.75" r="5.05167" stroke-width="0.5" stroke="grey" fill="grey"/>
   </g>
   <g id="cell38">
  <circle cx="436.381" cy="858.884" r="10.4651" stroke-width="0.5" stroke="black" fill="grey"/>
  <circle cx="436.381" cy="858.884" r="6.30877" stroke-width="0.5" stroke="grey" fill="grey"/>
   </g>
   <g id="cell39">
  <circle cx="931.107" cy="473.625" r="9.12489" stroke-width="0.5" stroke="black" fill="grey"/>
  <circle cx="931.107" cy="473.625" r="5.54282" stroke-width="0.5" stroke="grey" fill="grey"/>
   </g>
   <g id="cell40">
  <circle cx="306.215" cy="664.723" r="10.4726" stroke-width="0.5" stroke="black" fill="grey"/>
  <circle cx="306.215" cy="664.723" r="6.31223" stroke-width="0.5" stroke="grey" fill="grey"/>
   </g>
   <g id="cell41">
  <circle cx="1344.64" cy="1282.78" r="10.5039" stroke-width="0.5" stroke="black" fill="grey"/>
  <circle cx="1344.64" cy="1282.78" r="6.32657" stroke-width="0.5" stroke="grey" fill="grey"/>
   </g>
   <g id="cell42">
  <circle cx="280.51" cy="1549.4" r="10.3811" stroke-width="0.5" stroke="black" fill="grey"/>
  <circle cx="280.51" cy="1549.4" r="6.26814" stroke-width="0.5" stroke="grey" fill="grey"/>
   </g>
   <g id="cell43">
  <circle cx="1928.01" cy="772.348" r="10.4208" stroke-width="0.5" stroke="black" fill="grey"/>
  <circle cx="1928.01" cy="772.348" r="6.28762" stroke-width="0.5" stroke="grey" fill="grey"/>
   </g>
   <g id="cell44">
  <circle cx="1664.63" cy="35.8893" r="10.3933" stroke-width="0.5" stroke="black" fill="grey"/>
  <circle cx="1664.63" cy="35.8893" r="6.27417" stroke-width="0.5" stroke="grey" fill="grey"/>
   </g>
   <g id="cell45">
  <circle cx="1213.92" cy="1712.65" r="10.34" stroke-width="0.5" stroke="black" fill="grey"/>
  <circle cx="1213.92" cy="1712.65" r="6.24753" stroke-width="0.5" stroke="grey" fill="grey"/>
   </g>
   <g id="cell46">
  <circle cx="178.333" cy="1966.18" r="10.4156" stroke-width="0.5" stroke="black" fill="grey"/>
  <circle cx="178.333" cy="1966.18" r="6.2851" stroke-width="0.5" stroke="grey" fill="grey"/>
   </g>
   <g id="cell47">
  <circle cx="1743.12" cy="940.915" r="10.4925" stroke-width="0.5" stroke="black" fill="grey"/>
  <circle cx="1743.12" cy="940.915" r="6.32139" stroke-width="0.5" stroke="grey" fill="grey"/>
   </g>
   <g id="cell48">
  <circle cx="1939.49" cy="101.439" r="10.1634" stroke-width="0.5" stroke="black" fill="grey"/>
  <circle cx="1939.49" cy="101.439" r="6.1549" stroke-width="0.5" stroke="grey" fill="grey"/>
   </g>
   <g id="cell49">
  <circle cx="928.486" cy="1478.8" r="10.34" stroke-width="0.5" stroke="black" fill="grey"/>
  <circle cx="928.486" cy="1478.8" r="6.24753" stroke-width="0.5" stroke="grey" fill="grey"/>
   </g>
   <g id="cell50">
  <circle cx="147.885" cy="869.179" r="10.3325" stroke-width="0.5" stroke="black" fill="red"/>
  <circle cx="147.885" cy="869.179" r="6.24369" stroke-width="0.5" stroke="red" fill="red"/>
   </g>
   <g id="cell51">
  <circle cx="1964.26" cy="289.882" r="8.41271" stroke-width="0.5" stroke="black" fill="red"/>
  <circle cx="1964.26" cy="289.882" r="5.05167" stroke-width="0.5" stroke="red" fill="red"/>
   </g>
   <g id="cell52">
  <circle cx="628.108" cy="984.119" r="10.3811" stroke-width="0.5" stroke="black" fill="red"/>
  <circle cx="628.108" cy="984.119" r="6.26814" stroke-width="0.5" stroke="red" fill="red"/>
   </g>
   <g id="cell53">
  <circle cx="1393.14" cy="657.138" r="8.41271" stroke-width="0.5" stroke="black" fill="red"/>
  <circle cx="1393.14" cy="657.138" r="5.05167" stroke-width="0.5" stroke="red" fill="red"/>
   </g>
   <g id="cell54">
  <circle cx="799.904" cy="1826.32" r="10.4102" stroke-width="0.5" stroke="black" fill="red"/>
  <circle cx="799.904" cy="1826.32" r="6.2825" stroke-width="0.5" stroke="red" fill="red"/>
   </g>
   <g id="cell55">
  <circle cx="418.495" cy="1362.09" r="8.41271" stroke-width="0.5" stroke="black" fill="red"/>
  <circle cx="418.495" cy="1362.09" r="5.05167" stroke-width="0.5" stroke="red" fill="red"/>
   </g>
   <g id="cell56">
  <circle cx="1126.51" cy="1694.9" r="8.88811" stroke-width="0.5" stroke="black" fill="red"/>
  <circle cx="1126.51" cy="1694.9" r="5.38958" stroke-width="0.5" stroke="red" fill="red"/>
   </g>
   <g id="cell57">
  <circle cx="1008.06" cy="1062.96" r="10.483" stroke-width="0.5" stroke="black" fill="red"/>
  <circle cx="1008.06" cy="1062.96" r="6.31703" stroke-width="0.5" stroke="red" fill="red"/>
   </g>
   <g id="cell58">
  <circle cx="146.61" cy="1808.06" r="10.0654" stroke-width="0.5" stroke="black" fill="red"/>
  <circle cx="146.61" cy="1808.06" r="6.10145" stroke-width="0.5" stroke="red" fill="red"/>
   </g>
   <g id="cell98">
  <circle cx="1814.98" cy="705.116" r="10.2433" stroke-width="0.5" stroke="black" fill="red"/>
  <circle cx="1814.98" cy="705.116" r="6.19748" stroke-width="0.5" stroke="red" fill="red"/>
   </g>
   <g id="cell60">
  <circle cx="646.76" cy="31.5304" r="10.3545" stroke-width="0.5" stroke="black" fill="red"/>
  <circle cx="646.76" cy="31.5304" r="6.25485" stroke-width="0.5" stroke="red" fill="red"/>
   </g>
   <g id="cell61">
  <circle cx="1663.28" cy="271.711" r="10.4307" stroke-width="0.5" stroke="black" fill="red"/>
  <circle cx="1663.28" cy="271.711" r="6.29241" stroke-width="0.5" stroke="red" fill="red"/>
   </g>
   <g id="cell62">
  <circle cx="1415.74" cy="1684.45" r="10.4048" stroke-width="0.5" stroke="black" fill="red"/>
  <circle cx="1415.74" cy="1684.45" r="6.27981" stroke-width="0.5" stroke="red" fill="red"/>
   </g>
   <g id="cell63">
  <circle cx="553.643" cy="356.725" r="9.99984" stroke-width="0.5" stroke="black" fill="red"/>
  <circle cx="553.643" cy="356.725" r="6.06503" stroke-width="0.5" stroke="red" fill="red"/>
   </g>
   <g id="cell64">
  <circle cx="1191.42" cy="1104.6" r="10.3545" stroke-width="0.5" stroke="black" fill="red"/>
  <circle cx="1191.42" cy="1104.6" r="6.25485" stroke-width="0.5" stroke="red" fill="red"/>
   </g>
   <g id="cell65">
  <circle cx="300.683" cy="1643.32" r="10.4102" stroke-width="0.5" stroke="black" fill="red"/>
  <circle cx="300.683" cy="1643.32" r="6.2825" stroke-width="0.5" stroke="red" fill="red"/>
   </g>
   <g id="cell66">
  <circle cx="27.4321" cy="271.049" r="10.2911" stroke-width="0.5" stroke="black" fill="red"/>
  <circle cx="27.4321" cy="271.049" r="6.22246" stroke-width="0.5" stroke="red" fill="red"/>
   </g>
   <g id="cell67">
  <circle cx="1159.7" cy="562.854" r="9.82189" stroke-width="0.5" stroke="black" fill="red"/>
  <circle cx="1159.7" cy="562.854" r="5.96395" stroke-width="0.5" stroke="red" fill="red"/>
   </g>
   <g id="cell68">
  <circle cx="1454.02" cy="612.931" r="10.3873" stroke-width="0.5" stroke="black" fill="red"/>
  <circle cx="1454.02" cy="612.931" r="6.2712" stroke-width="0.5" stroke="red" fill="red"/>
   </g>
   <g id="cell69">
  <circle cx="846.091" cy="503.861" r="10.211" stroke-width="0.5" stroke="black" fill="red"/>
  <circle cx="846.091" cy="503.861" r="6.18041" stroke-width="0.5" stroke="red" fill="red"/>
   </g>
   <g id="cell70">
  <circle cx="1149.17" cy="779.828" r="10.4401" stroke-width="0.5" stroke="black" fill="red"/>
  <circle cx="1149.17" cy="779.828" r="6.29691" stroke-width="0.5" stroke="red" fill="red"/>
   </g>
   <g id="cell71">
  <circle cx="1744.26" cy="1177.76" r="10.4894" stroke-width="0.5" stroke="black" fill="red"/>
  <circle cx="1744.26" cy="1177.76" r="6.31998" stroke-width="0.5" stroke="red" fill="red"/>
   </g>
   <g id="cell72">
  <circle cx="414.174" cy="1756.52" r="8.41271" stroke-width="0.5" stroke="black" fill="red"/>
  <circle cx="414.174" cy="1756.52" r="5.05167" stroke-width="0.5" stroke="red" fill="red"/>
   </g>
   <g id="cell73">
  <circle cx="1362.26" cy="867.338" r="10.4726" stroke-width="0.5" stroke="black" fill="red"/>
  <circle cx="1362.26" cy="867.338" r="6.31223" stroke-width="0.5" stroke="red" fill="red"/>
   </g>
   <g id="cell74">
  <circle cx="1687.15" cy="1888.31" r="10.4156" stroke-width="0.5" stroke="black" fill="red"/>
  <circle cx="1687.15" cy="1888.31" r="6.2851" stroke-width="0.5" stroke="red" fill="red"/>
   </g>
   <g id="cell75">
  <circle cx="228.306" cy="580.136" r="8.41271" stroke-width="0.5" stroke="black" fill="red"/>
  <circle cx="228.306" cy="580.136" r="5.05167" stroke-width="0.5" stroke="red" fill="red"/>
   </g>
   <g id="cell76">
  <circle cx="1628.96" cy="766.266" r="10.2328" stroke-width="0.5" stroke="black" fill="red"/>
  <circle cx="1628.96" cy="766.266" r="6.19197" stroke-width="0.5" stroke="red" fill="red"/>
   </g>
   <g id="cell77">
  <circle cx="1394.18" cy="1808.92" r="10.4531" stroke-width="0.5" stroke="black" fill="red"/>
  <circle cx="1394.18" cy="1808.92" r="6.30312" stroke-width="0.5" stroke="red" fill="red"/>
   </g>
   <g id="cell78">
  <circle cx="1142.75" cy="622.654" r="9.34292" stroke-width="0.5" stroke="black" fill="red"/>
  <circle cx="1142.75" cy="622.654" r="5.67875" stroke-width="0.5" stroke="red" fill="red"/>
   </g>
   <g id="cell79">
  <circle cx="1990.31" cy="1432.32" r="10.2534" stroke-width="0.5" stroke="black" fill="red"/>
  <circle cx="1990.31" cy="1432.32" r="6.2028" stroke-width="0.5" stroke="red" fill="red"/>
   </g>
   <g id="cell80">
  <circle cx="1475.89" cy="1311.2" r="10.4446" stroke-width="0.5" stroke="black" fill="red"/>
  <circle cx="1475.89" cy="1311.2" r="6.29905" stroke-width="0.5" stroke="red" fill="red"/>
   </g>
   <g id="cell81">
  <circle cx="1100.95" cy="1916.63" r="10.3615" stroke-width="0.5" stroke="black" fill="red"/>
  <circle cx="1100.95" cy="1916.63" r="6.25834" stroke-width="0.5" stroke="red" fill="red"/>
   </g>
   <g id="cell82">
  <circle cx="1280.61" cy="809.369" r="10.4689" stroke-width="0.5" stroke="black" fill="red"/>
  <circle cx="1280.61" cy="809.369" r="6.31053" stroke-width="0.5" stroke="red" fill="red"/>
   </g>
   <g id="cell83">
  <circle cx="1227.26" cy="1238.68" r="10.4984" stroke-width="0.5" stroke="black" fill="red"/>
  <circle cx="1227.26" cy="1238.68" r="6.32406" stroke-width="0.5" stroke="red" fill="red"/>
   </g>
   <g id="cell84">
  <circle cx="41.272" cy="931.379" r="8.41271" stroke-width="0.5" stroke="black" fill="red"/>
  <circle cx="41.272" cy="931.379" r="5.05167" stroke-width="0.5" stroke="red" fill="red"/>
   </g>
   <g id="cell85">
  <circle cx="1450.27" cy="1312.4" r="9.53557" stroke-width="0.5" stroke="black" fill="red"/>
  <circle cx="1450.27" cy="1312.4" r="5.79561" stroke-width="0.5" stroke="red" fill="red"/>
   </g>
   <g id="cell86">
  <circle cx="576.943" cy="795.758" r="10.3247" stroke-width="0.5" stroke="black" fill="red"/>
  <circle cx="576.943" cy="795.758" r="6.23971" stroke-width="0.5" stroke="red" fill="red"/>
   </g>
   <g id="cell87">
  <circle cx="1479.11" cy="888.987" r="9.5053" stroke-width="0.5" stroke="black" fill="red"/>
  <circle cx="1479.11" cy="888.987" r="5.77744" stroke-width="0.5" stroke="red" fill="red"/>
   </g>
   <g id="cell88">
  <circle cx="276.034" cy="207.398" r="10.4156" stroke-width="0.5" stroke="black" fill="red"/>
  <circle cx="276.034" cy="207.398" r="6.2851" stroke-width="0.5" stroke="red" fill="red"/>
   </g>
   <g id="cell89">
  <circle cx="181.922" cy="1169.77" r="10.4307" stroke-width="0.5" stroke="black" fill="red"/>
  <circle cx="181.922" cy="1169.77" r="6.29241" stroke-width="0.5" stroke="red" fill="red"/>
   </g>
   <g id="cell90">
  <circle cx="1153.81" cy="1075.09" r="10.1098" stroke-width="0.5" stroke="black" fill="red"/>
  <circle cx="1153.81" cy="1075.09" r="6.12585" stroke-width="0.5" stroke="red" fill="red"/>
   </g>
   <g id="cell91">
  <circle cx="47.8779" cy="1266.3" r="10.4531" stroke-width="0.5" stroke="black" fill="red"/>
  <circle cx="47.8779" cy="1266.3" r="6.30312" stroke-width="0.5" stroke="red" fill="red"/>
   </g>
   <g id="cell99">
  <circle cx="964.887" cy="1986.04" r="10.4862" stroke-width="0.5" stroke="black" fill="red"/>
  <circle cx="964.887" cy="1986.04" r="6.31853" stroke-width="0.5" stroke="red" fill="red"/>
   </g>
   <g id="cell93">
  <circle cx="410.988" cy="1781.26" r="10.4955" stroke-width="0.5" stroke="black" fill="red"/>
  <circle cx="410.988" cy="1781.26" r="6.32275" stroke-width="0.5" stroke="red" fill="red"/>
   </g>
   <g id="cell94">
  <circle cx="760.949" cy="190.365" r="10.3682" stroke-width="0.5" stroke="black" fill="red"/>
  <circle cx="760.949" cy="190.365" r="6.26172" stroke-width="0.5" stroke="red" fill="red"/>
   </g>
   <g id="cell95">
  <circle cx="1966.98" cy="1764.07" r="10.483" stroke-width="0.5" stroke="black" fill="red"/>
  <circle cx="1966.98" cy="1764.07" r="6.31703" stroke-width="0.5" stroke="red" fill="red"/>
   </g>
   <g id="cell96">
  <circle cx="1667.26" cy="1086.27" r="9.20015" stroke-width="0.5" stroke="black" fill="red"/>
  <circle cx="1667.26" cy="1086.27" r="5.59022" stroke-width="0.5" stroke="red" fill="red"/>
   </g>
   <g id="cell97">
  <circle cx="943.037" cy="177.343" r="10.3545" stroke-width="0.5" stroke="black" fill="red"/>
  <circle cx="943.037" cy="177.343" r="6.25485" stroke-width="0.5" stroke="red" fill="red"/>
   </g>
  </g>
 </g>
  <rect x="1750" y="2070" width="200" height="20" stroke-width="4" stroke="rgb(255,255,255)" fill="rgb(0,0,0)"/>
  <text x="1762.5" y="2057.5"
   font-family="Arial" font-size="50" fill="black" >
   200 &#956;m
  </text>
  <text x="50" y="2090"
   font-family="Arial" font-size="37.5" fill="black" >
   0 days, 0 hours, 0 minutes, and 17.2762 seconds
  </text>
  <rect x="0" y="140" width="2000" height="2000" stroke-width="4" stroke="rgb(0,0,0)" fill="none"/>
</svg>
