<?xml version="1.0" encoding="UTF-8" standalone="no"?>
<!-- Created with PhysiCell (http://PhysiCell.MathCancer.org/) -->
<svg 
 xmlns:dc="http://purl.org/dc/elements/1.1/" 
 xmlns:cc="http://creativecommons.org/ns#" 
 xmlns:rdf="http://www.w3.org/1999/02/22-rdf-syntax-ns#" 
 xmlns:svg="http://www.w3.org/2000/svg" 
 xmlns="http://www.w3.org/2000/svg" 
 version="1.1" 
 width="2000" 
 height="2140" 
 id="svg2">
  <rect x="0" y="0" width="2000" height="2140" stroke-width="4" stroke="white" fill="white"/>
  <text x="25" y="60"
   font-family="Arial" font-size="50" fill="black" >
   Current time: 1 days, 16 hours, and 0.00 minutes, z = 0.00 &#956;m
  </text>
  <text x="25" y="115"
   font-family="Arial" font-size="47.5" fill="black" >
   32 agents
  </text>
 <g id="tissue" 
    transform="translate(0,2140) scale(1,-1)">
  <g id="ECM">
  </g>
  <g id="cells">
   <g id="cell0">
  <circle cx="1104.08" cy="1171.38" r="9.96045" stroke-width="0.5" stroke="black" fill="grey"/>
  <circle cx="1104.08" cy="1171.38" r="6.04386" stroke-width="0.5" stroke="grey" fill="grey"/>
   </g>
   <g id="cell1">
  <circle cx="1693.45" cy="1224.22" r="8.39306" stroke-width="0.5" stroke="black" fill="grey"/>
  <circle cx="1693.45" cy="1224.22" r="5.04501" stroke-width="0.5" stroke="grey" fill="grey"/>
   </g>
   <g id="cell2">
  <circle cx="1168.53" cy="1717.06" r="9.12117" stroke-width="0.5" stroke="black" fill="grey"/>
  <circle cx="1168.53" cy="1717.06" r="5.54166" stroke-width="0.5" stroke="grey" fill="grey"/>
   </g>
   <g id="cell3">
  <circle cx="1278.33" cy="1312.95" r="9.99667" stroke-width="0.5" stroke="black" fill="grey"/>
  <circle cx="1278.33" cy="1312.95" r="6.06407" stroke-width="0.5" stroke="grey" fill="grey"/>
   </g>
   <g id="cell4">
  <circle cx="878.466" cy="549.049" r="8.75908" stroke-width="0.5" stroke="black" fill="grey"/>
  <circle cx="878.466" cy="549.049" r="5.30569" stroke-width="0.5" stroke="grey" fill="grey"/>
   </g>
   <g id="cell5">
  <circle cx="118.202" cy="1967.38" r="8.95819" stroke-width="0.5" stroke="black" fill="red"/>
  <circle cx="118.202" cy="1967.38" r="5.43883" stroke-width="0.5" stroke="red" fill="red"/>
   </g>
   <g id="cell6">
  <circle cx="811.393" cy="881.872" r="8.38427" stroke-width="0.5" stroke="black" fill="red"/>
  <circle cx="811.393" cy="881.872" r="5.04161" stroke-width="0.5" stroke="red" fill="red"/>
   </g>
   <g id="cell19">
  <circle cx="1695.97" cy="1274.91" r="9.99379" stroke-width="0.5" stroke="black" fill="grey"/>
  <circle cx="1695.97" cy="1274.91" r="6.06309" stroke-width="0.5" stroke="grey" fill="grey"/>
   </g>
   <g id="cell18">
  <circle cx="1650.28" cy="276.88" r="10.5294" stroke-width="0.5" stroke="black" fill="red"/>
  <circle cx="1650.28" cy="276.88" r="6.33781" stroke-width="0.5" stroke="red" fill="red"/>
   </g>
   <g id="cell9">
  <circle cx="1683.82" cy="216.118" r="9.10821" stroke-width="0.5" stroke="black" fill="red"/>
  <circle cx="1683.82" cy="216.118" r="5.53682" stroke-width="0.5" stroke="red" fill="red"/>
   </g>
   <g id="cell11">
  <circle cx="1592.41" cy="1043.55" r="10.4427" stroke-width="0.5" stroke="black" fill="red"/>
  <circle cx="1592.41" cy="1043.55" r="6.29854" stroke-width="0.5" stroke="red" fill="red"/>
   </g>
   <g id="cell20">
  <circle cx="828.505" cy="953.675" r="10.4826" stroke-width="0.5" stroke="black" fill="red"/>
  <circle cx="828.505" cy="953.675" r="6.31695" stroke-width="0.5" stroke="red" fill="red"/>
   </g>
   <g id="cell13">
  <circle cx="835.482" cy="570.233" r="8.44057" stroke-width="0.5" stroke="black" fill="grey"/>
  <circle cx="835.482" cy="570.233" r="5.07783" stroke-width="0.5" stroke="grey" fill="grey"/>
   </g>
   <g id="cell14">
  <circle cx="1204.92" cy="1297.8" r="8.75122" stroke-width="0.5" stroke="black" fill="grey"/>
  <circle cx="1204.92" cy="1297.8" r="5.30274" stroke-width="0.5" stroke="grey" fill="grey"/>
   </g>
   <g id="cell15">
  <circle cx="1135.99" cy="1165.16" r="8.79384" stroke-width="0.5" stroke="black" fill="grey"/>
  <circle cx="1135.99" cy="1165.16" r="5.33093" stroke-width="0.5" stroke="grey" fill="grey"/>
   </g>
   <g id="cell16">
  <circle cx="1181.7" cy="1704.68" r="9.25273" stroke-width="0.5" stroke="black" fill="grey"/>
  <circle cx="1181.7" cy="1704.68" r="5.62813" stroke-width="0.5" stroke="grey" fill="grey"/>
   </g>
   <g id="cell17">
  <circle cx="1090.9" cy="704.037" r="8.40662" stroke-width="0.5" stroke="black" fill="red"/>
  <circle cx="1090.9" cy="704.037" r="5.04986" stroke-width="0.5" stroke="red" fill="red"/>
   </g>
   <g id="cell21">
  <circle cx="1562.28" cy="1045.12" r="9.30598" stroke-width="0.5" stroke="black" fill="red"/>
  <circle cx="1562.28" cy="1045.12" r="5.65673" stroke-width="0.5" stroke="red" fill="red"/>
   </g>
   <g id="cell22">
  <circle cx="1161.59" cy="1745.92" r="8.40834" stroke-width="0.5" stroke="black" fill="grey"/>
  <circle cx="1161.59" cy="1745.92" r="5.05042" stroke-width="0.5" stroke="grey" fill="grey"/>
   </g>
   <g id="cell23">
  <circle cx="1264.13" cy="1297.23" r="8.40823" stroke-width="0.5" stroke="black" fill="grey"/>
  <circle cx="1264.13" cy="1297.23" r="5.05038" stroke-width="0.5" stroke="grey" fill="grey"/>
   </g>
   <g id="cell24">
  <circle cx="1152.69" cy="1211.1" r="10.0771" stroke-width="0.5" stroke="black" fill="grey"/>
  <circle cx="1152.69" cy="1211.1" r="6.10876" stroke-width="0.5" stroke="grey" fill="grey"/>
   </g>
   <g id="cell25">
  <circle cx="1111.82" cy="699.261" r="8.40662" stroke-width="0.5" stroke="black" fill="red"/>
  <circle cx="1111.82" cy="699.261" r="5.04986" stroke-width="0.5" stroke="red" fill="red"/>
   </g>
   <g id="cell26">
  <circle cx="1665.62" cy="1245.88" r="9.64287" stroke-width="0.5" stroke="black" fill="grey"/>
  <circle cx="1665.62" cy="1245.88" r="5.86117" stroke-width="0.5" stroke="grey" fill="grey"/>
   </g>
   <g id="cell27">
  <circle cx="907.325" cy="563.689" r="8.40324" stroke-width="0.5" stroke="black" fill="grey"/>
  <circle cx="907.325" cy="563.689" r="5.04871" stroke-width="0.5" stroke="grey" fill="grey"/>
   </g>
   <g id="cell28">
  <circle cx="95.9374" cy="1972.16" r="8.4012" stroke-width="0.5" stroke="black" fill="red"/>
  <circle cx="95.9374" cy="1972.16" r="5.048" stroke-width="0.5" stroke="red" fill="red"/>
   </g>
   <g id="cell29">
  <circle cx="1103.35" cy="1134.94" r="9.74059" stroke-width="0.5" stroke="black" fill="grey"/>
  <circle cx="1103.35" cy="1134.94" r="5.91951" stroke-width="0.5" stroke="grey" fill="grey"/>
   </g>
   <g id="cell30">
  <circle cx="860.916" cy="591.898" r="8.39706" stroke-width="0.5" stroke="black" fill="grey"/>
  <circle cx="860.916" cy="591.898" r="5.04649" stroke-width="0.5" stroke="grey" fill="grey"/>
   </g>
   <g id="cell31">
  <circle cx="1170.45" cy="1288.98" r="8.56124" stroke-width="0.5" stroke="black" fill="grey"/>
  <circle cx="1170.45" cy="1288.98" r="5.16867" stroke-width="0.5" stroke="grey" fill="grey"/>
   </g>
   <g id="cell32">
  <circle cx="1648.13" cy="232.198" r="8.39308" stroke-width="0.5" stroke="black" fill="red"/>
  <circle cx="1648.13" cy="232.198" r="5.04501" stroke-width="0.5" stroke="red" fill="red"/>
   </g>
   <g id="cell33">
  <circle cx="1677.91" cy="1188.82" r="8.39306" stroke-width="0.5" stroke="black" fill="grey"/>
  <circle cx="1677.91" cy="1188.82" r="5.04501" stroke-width="0.5" stroke="grey" fill="grey"/>
   </g>
   <g id="cell34">
  <circle cx="1183.23" cy="1684.84" r="8.38819" stroke-width="0.5" stroke="black" fill="grey"/>
  <circle cx="1183.23" cy="1684.84" r="5.04312" stroke-width="0.5" stroke="grey" fill="grey"/>
   </g>
   <g id="cell35">
  <circle cx="766.83" cy="873.522" r="8.38427" stroke-width="0.5" stroke="black" fill="red"/>
  <circle cx="766.83" cy="873.522" r="5.04161" stroke-width="0.5" stroke="red" fill="red"/>
   </g>
  </g>
 </g>
  <rect x="1750" y="2070" width="200" height="20" stroke-width="4" stroke="rgb(255,255,255)" fill="rgb(0,0,0)"/>
  <text x="1762.5" y="2057.5"
   font-family="Arial" font-size="50" fill="black" >
   200 &#956;m
  </text>
  <text x="50" y="2090"
   font-family="Arial" font-size="37.5" fill="black" >
   0 days, 0 hours, 0 minutes, and 51.8736 seconds
  </text>
  <rect x="0" y="140" width="2000" height="2000" stroke-width="4" stroke="rgb(0,0,0)" fill="none"/>
</svg>
