<?xml version="1.0" encoding="UTF-8" standalone="no"?>
<!-- Created with PhysiCell (http://PhysiCell.MathCancer.org/) -->
<svg 
 xmlns:dc="http://purl.org/dc/elements/1.1/" 
 xmlns:cc="http://creativecommons.org/ns#" 
 xmlns:rdf="http://www.w3.org/1999/02/22-rdf-syntax-ns#" 
 xmlns:svg="http://www.w3.org/2000/svg" 
 xmlns="http://www.w3.org/2000/svg" 
 version="1.1" 
 width="2000" 
 height="2140" 
 id="svg2">
  <rect x="0" y="0" width="2000" height="2140" stroke-width="4" stroke="white" fill="white"/>
  <text x="25" y="60"
   font-family="Arial" font-size="50" fill="black" >
   Current time: 2 days, 14 hours, and 0.00 minutes, z = 0.00 &#956;m
  </text>
  <text x="25" y="115"
   font-family="Arial" font-size="47.5" fill="black" >
   67 agents
  </text>
 <g id="tissue" 
    transform="translate(0,2140) scale(1,-1)">
  <g id="ECM">
  </g>
  <g id="cells">
   <g id="cell0">
  <circle cx="1112.68" cy="1191.67" r="10.4394" stroke-width="0.5" stroke="black" fill="grey"/>
  <circle cx="1112.68" cy="1191.67" r="6.29674" stroke-width="0.5" stroke="grey" fill="grey"/>
   </g>
   <g id="cell1">
  <circle cx="1647.39" cy="1222.7" r="8.47622" stroke-width="0.5" stroke="black" fill="grey"/>
  <circle cx="1647.39" cy="1222.7" r="5.10115" stroke-width="0.5" stroke="grey" fill="grey"/>
   </g>
   <g id="cell2">
  <circle cx="1130.58" cy="1749.15" r="10.353" stroke-width="0.5" stroke="black" fill="grey"/>
  <circle cx="1130.58" cy="1749.15" r="6.25443" stroke-width="0.5" stroke="grey" fill="grey"/>
   </g>
   <g id="cell3">
  <circle cx="1252.26" cy="1317.88" r="10.3985" stroke-width="0.5" stroke="black" fill="grey"/>
  <circle cx="1252.26" cy="1317.88" r="6.27687" stroke-width="0.5" stroke="grey" fill="grey"/>
   </g>
   <g id="cell4">
  <circle cx="817.132" cy="531.962" r="10.4335" stroke-width="0.5" stroke="black" fill="grey"/>
  <circle cx="817.132" cy="531.962" r="6.29415" stroke-width="0.5" stroke="grey" fill="grey"/>
   </g>
   <g id="cell5">
  <circle cx="95.1113" cy="1956.31" r="10.4428" stroke-width="0.5" stroke="black" fill="red"/>
  <circle cx="95.1113" cy="1956.31" r="6.29858" stroke-width="0.5" stroke="red" fill="red"/>
   </g>
   <g id="cell6">
  <circle cx="834.7" cy="878.491" r="10.2328" stroke-width="0.5" stroke="black" fill="red"/>
  <circle cx="834.7" cy="878.491" r="6.19196" stroke-width="0.5" stroke="red" fill="red"/>
   </g>
   <g id="cell19">
  <circle cx="1719.64" cy="1319.18" r="10.1872" stroke-width="0.5" stroke="black" fill="grey"/>
  <circle cx="1719.64" cy="1319.18" r="6.1679" stroke-width="0.5" stroke="grey" fill="grey"/>
   </g>
   <g id="cell18">
  <circle cx="1644.86" cy="289.828" r="8.40179" stroke-width="0.5" stroke="black" fill="red"/>
  <circle cx="1644.86" cy="289.828" r="5.04821" stroke-width="0.5" stroke="red" fill="red"/>
   </g>
   <g id="cell9">
  <circle cx="1655.02" cy="151.009" r="10.4781" stroke-width="0.5" stroke="black" fill="red"/>
  <circle cx="1655.02" cy="151.009" r="6.31507" stroke-width="0.5" stroke="red" fill="red"/>
   </g>
   <g id="cell11">
  <circle cx="1615.59" cy="1090.05" r="10.3989" stroke-width="0.5" stroke="black" fill="red"/>
  <circle cx="1615.59" cy="1090.05" r="6.277" stroke-width="0.5" stroke="red" fill="red"/>
   </g>
   <g id="cell20">
  <circle cx="788.028" cy="1039.9" r="8.38444" stroke-width="0.5" stroke="black" fill="red"/>
  <circle cx="788.028" cy="1039.9" r="5.04166" stroke-width="0.5" stroke="red" fill="red"/>
   </g>
   <g id="cell13">
  <circle cx="888.13" cy="609.386" r="8.40882" stroke-width="0.5" stroke="black" fill="grey"/>
  <circle cx="888.13" cy="609.386" r="5.05057" stroke-width="0.5" stroke="grey" fill="grey"/>
   </g>
   <g id="cell14">
  <circle cx="1190.42" cy="1320.91" r="10.0148" stroke-width="0.5" stroke="black" fill="grey"/>
  <circle cx="1190.42" cy="1320.91" r="6.07395" stroke-width="0.5" stroke="grey" fill="grey"/>
   </g>
   <g id="cell15">
  <circle cx="1133.89" cy="1185.27" r="10.1859" stroke-width="0.5" stroke="black" fill="grey"/>
  <circle cx="1133.89" cy="1185.27" r="6.16749" stroke-width="0.5" stroke="grey" fill="grey"/>
   </g>
   <g id="cell16">
  <circle cx="1123.22" cy="1689.04" r="10.3733" stroke-width="0.5" stroke="black" fill="grey"/>
  <circle cx="1123.22" cy="1689.04" r="6.2646" stroke-width="0.5" stroke="grey" fill="grey"/>
   </g>
   <g id="cell17">
  <circle cx="1055.23" cy="669.423" r="3.57412" stroke-width="0.5" stroke="black" fill="red"/>
  <circle cx="1055.23" cy="669.423" r="3.01088" stroke-width="0.5" stroke="black" fill="black"/>
   </g>
   <g id="cell21">
  <circle cx="1568.8" cy="1030.58" r="2.94754" stroke-width="0.5" stroke="black" fill="red"/>
  <circle cx="1568.8" cy="1030.58" r="2.61873" stroke-width="0.5" stroke="black" fill="black"/>
   </g>
   <g id="cell22">
  <circle cx="1148.11" cy="1675.37" r="9.30054" stroke-width="0.5" stroke="black" fill="grey"/>
  <circle cx="1148.11" cy="1675.37" r="5.65483" stroke-width="0.5" stroke="grey" fill="grey"/>
   </g>
   <g id="cell23">
  <circle cx="1273.97" cy="1300.76" r="8.95205" stroke-width="0.5" stroke="black" fill="grey"/>
  <circle cx="1273.97" cy="1300.76" r="5.43647" stroke-width="0.5" stroke="grey" fill="grey"/>
   </g>
   <g id="cell24">
  <circle cx="1154.3" cy="1236.39" r="10.5034" stroke-width="0.5" stroke="black" fill="grey"/>
  <circle cx="1154.3" cy="1236.39" r="6.32644" stroke-width="0.5" stroke="grey" fill="grey"/>
   </g>
   <g id="cell25">
  <circle cx="1138.14" cy="709.528" r="10.5166" stroke-width="0.5" stroke="black" fill="red"/>
  <circle cx="1138.14" cy="709.528" r="6.33218" stroke-width="0.5" stroke="red" fill="red"/>
   </g>
   <g id="cell26">
  <circle cx="1706.58" cy="1207.65" r="10.4915" stroke-width="0.5" stroke="black" fill="grey"/>
  <circle cx="1706.58" cy="1207.65" r="6.32113" stroke-width="0.5" stroke="grey" fill="grey"/>
   </g>
   <g id="cell27">
  <circle cx="876.407" cy="567.936" r="8.37934" stroke-width="0.5" stroke="black" fill="grey"/>
  <circle cx="876.407" cy="567.936" r="5.0396" stroke-width="0.5" stroke="grey" fill="grey"/>
   </g>
   <g id="cell28">
  <circle cx="57.7271" cy="1990.5" r="9.77198" stroke-width="0.5" stroke="black" fill="red"/>
  <circle cx="57.7271" cy="1990.5" r="5.93613" stroke-width="0.5" stroke="red" fill="red"/>
   </g>
   <g id="cell29">
  <circle cx="1047.72" cy="1076.2" r="10.5203" stroke-width="0.5" stroke="black" fill="grey"/>
  <circle cx="1047.72" cy="1076.2" r="6.33396" stroke-width="0.5" stroke="grey" fill="grey"/>
   </g>
   <g id="cell30">
  <circle cx="918.295" cy="611.055" r="10.2881" stroke-width="0.5" stroke="black" fill="grey"/>
  <circle cx="918.295" cy="611.055" r="6.22158" stroke-width="0.5" stroke="grey" fill="grey"/>
   </g>
   <g id="cell31">
  <circle cx="1227.94" cy="1320.6" r="9.15988" stroke-width="0.5" stroke="black" fill="grey"/>
  <circle cx="1227.94" cy="1320.6" r="5.56587" stroke-width="0.5" stroke="grey" fill="grey"/>
   </g>
   <g id="cell32">
  <circle cx="1664.19" cy="204.546" r="9.94077" stroke-width="0.5" stroke="black" fill="red"/>
  <circle cx="1664.19" cy="204.546" r="6.033" stroke-width="0.5" stroke="red" fill="red"/>
   </g>
   <g id="cell33">
  <circle cx="1658.43" cy="1136.58" r="9.49372" stroke-width="0.5" stroke="black" fill="grey"/>
  <circle cx="1658.43" cy="1136.58" r="5.7734" stroke-width="0.5" stroke="grey" fill="grey"/>
   </g>
   <g id="cell34">
  <circle cx="1130.11" cy="1647.07" r="8.40212" stroke-width="0.5" stroke="black" fill="grey"/>
  <circle cx="1130.11" cy="1647.07" r="5.04832" stroke-width="0.5" stroke="grey" fill="grey"/>
   </g>
   <g id="cell35">
  <circle cx="755.69" cy="882.624" r="8.42575" stroke-width="0.5" stroke="black" fill="red"/>
  <circle cx="755.69" cy="882.624" r="5.06349" stroke-width="0.5" stroke="red" fill="red"/>
   </g>
   <g id="cell36">
  <circle cx="1752.18" cy="285.413" r="10.2282" stroke-width="0.5" stroke="black" fill="red"/>
  <circle cx="1752.18" cy="285.413" r="6.19055" stroke-width="0.5" stroke="red" fill="red"/>
   </g>
   <g id="cell37">
  <circle cx="806.298" cy="919.141" r="9.52028" stroke-width="0.5" stroke="black" fill="red"/>
  <circle cx="806.298" cy="919.141" r="5.79015" stroke-width="0.5" stroke="red" fill="red"/>
   </g>
   <g id="cell38">
  <circle cx="1600.76" cy="1063.82" r="8.3874" stroke-width="0.5" stroke="black" fill="red"/>
  <circle cx="1600.76" cy="1063.82" r="5.04283" stroke-width="0.5" stroke="red" fill="red"/>
   </g>
   <g id="cell39">
  <circle cx="1154.89" cy="1181.47" r="9.47363" stroke-width="0.5" stroke="black" fill="grey"/>
  <circle cx="1154.89" cy="1181.47" r="5.75857" stroke-width="0.5" stroke="grey" fill="grey"/>
   </g>
   <g id="cell40">
  <circle cx="1728.21" cy="1286.29" r="8.37272" stroke-width="0.5" stroke="black" fill="grey"/>
  <circle cx="1728.21" cy="1286.29" r="5.03696" stroke-width="0.5" stroke="grey" fill="grey"/>
   </g>
   <g id="cell41">
  <circle cx="1229" cy="1392.79" r="8.96746" stroke-width="0.5" stroke="black" fill="grey"/>
  <circle cx="1229" cy="1392.79" r="5.44205" stroke-width="0.5" stroke="grey" fill="grey"/>
   </g>
   <g id="cell42">
  <circle cx="1115.53" cy="1120.72" r="10.4977" stroke-width="0.5" stroke="black" fill="grey"/>
  <circle cx="1115.53" cy="1120.72" r="6.3239" stroke-width="0.5" stroke="grey" fill="grey"/>
   </g>
   <g id="cell43">
  <circle cx="1089.14" cy="1094.78" r="8.41135" stroke-width="0.5" stroke="black" fill="grey"/>
  <circle cx="1089.14" cy="1094.78" r="5.05132" stroke-width="0.5" stroke="grey" fill="grey"/>
   </g>
   <g id="cell44">
  <circle cx="1629.73" cy="1165.32" r="10.2524" stroke-width="0.5" stroke="black" fill="grey"/>
  <circle cx="1629.73" cy="1165.32" r="6.20253" stroke-width="0.5" stroke="grey" fill="grey"/>
   </g>
   <g id="cell45">
  <circle cx="1537.65" cy="1023.63" r="10.2897" stroke-width="0.5" stroke="black" fill="red"/>
  <circle cx="1537.65" cy="1023.63" r="6.22209" stroke-width="0.5" stroke="red" fill="red"/>
   </g>
   <g id="cell46">
  <circle cx="1200.47" cy="1681.9" r="10.2618" stroke-width="0.5" stroke="black" fill="grey"/>
  <circle cx="1200.47" cy="1681.9" r="6.20757" stroke-width="0.5" stroke="grey" fill="grey"/>
   </g>
   <g id="cell47">
  <circle cx="1629.34" cy="169.836" r="9.82015" stroke-width="0.5" stroke="black" fill="red"/>
  <circle cx="1629.34" cy="169.836" r="5.96345" stroke-width="0.5" stroke="red" fill="red"/>
   </g>
   <g id="cell48">
  <circle cx="1169.65" cy="1776.85" r="10.0481" stroke-width="0.5" stroke="black" fill="grey"/>
  <circle cx="1169.65" cy="1776.85" r="6.09231" stroke-width="0.5" stroke="grey" fill="grey"/>
   </g>
   <g id="cell49">
  <circle cx="73.3917" cy="1991.26" r="9.59188" stroke-width="0.5" stroke="black" fill="red"/>
  <circle cx="73.3917" cy="1991.26" r="5.82983" stroke-width="0.5" stroke="red" fill="red"/>
   </g>
   <g id="cell50">
  <circle cx="1139.93" cy="1141.65" r="9.47198" stroke-width="0.5" stroke="black" fill="grey"/>
  <circle cx="1139.93" cy="1141.65" r="5.75805" stroke-width="0.5" stroke="grey" fill="grey"/>
   </g>
   <g id="cell51">
  <circle cx="1166.06" cy="1276.62" r="10.4335" stroke-width="0.5" stroke="black" fill="grey"/>
  <circle cx="1166.06" cy="1276.62" r="6.29414" stroke-width="0.5" stroke="grey" fill="grey"/>
   </g>
   <g id="cell52">
  <circle cx="868.746" cy="586.774" r="10.1737" stroke-width="0.5" stroke="black" fill="grey"/>
  <circle cx="868.746" cy="586.774" r="6.161" stroke-width="0.5" stroke="grey" fill="grey"/>
   </g>
   <g id="cell53">
  <circle cx="1187.44" cy="1270.08" r="3.0275" stroke-width="0.5" stroke="black" fill="grey"/>
  <circle cx="1187.44" cy="1270.08" r="2.68861" stroke-width="0.5" stroke="black" fill="black"/>
   </g>
   <g id="cell54">
  <circle cx="877.368" cy="536.121" r="10.0627" stroke-width="0.5" stroke="black" fill="grey"/>
  <circle cx="877.368" cy="536.121" r="6.10065" stroke-width="0.5" stroke="grey" fill="grey"/>
   </g>
   <g id="cell55">
  <circle cx="913.094" cy="583.315" r="10.3718" stroke-width="0.5" stroke="black" fill="grey"/>
  <circle cx="913.094" cy="583.315" r="6.26412" stroke-width="0.5" stroke="grey" fill="grey"/>
   </g>
   <g id="cell56">
  <circle cx="119.228" cy="1917.71" r="9.94171" stroke-width="0.5" stroke="black" fill="red"/>
  <circle cx="119.228" cy="1917.71" r="6.03332" stroke-width="0.5" stroke="red" fill="red"/>
   </g>
   <g id="cell57">
  <circle cx="1646.82" cy="267.882" r="9.69705" stroke-width="0.5" stroke="black" fill="red"/>
  <circle cx="1646.82" cy="267.882" r="5.89268" stroke-width="0.5" stroke="red" fill="red"/>
   </g>
   <g id="cell58">
  <circle cx="721.703" cy="870.901" r="8.40592" stroke-width="0.5" stroke="black" fill="red"/>
  <circle cx="721.703" cy="870.901" r="5.04963" stroke-width="0.5" stroke="red" fill="red"/>
   </g>
   <g id="cell59">
  <circle cx="1712.64" cy="302.863" r="8.92225" stroke-width="0.5" stroke="black" fill="red"/>
  <circle cx="1712.64" cy="302.863" r="5.41415" stroke-width="0.5" stroke="red" fill="red"/>
   </g>
   <g id="cell60">
  <circle cx="1689.2" cy="1185.66" r="9.5887" stroke-width="0.5" stroke="black" fill="grey"/>
  <circle cx="1689.2" cy="1185.66" r="5.82875" stroke-width="0.5" stroke="grey" fill="grey"/>
   </g>
   <g id="cell61">
  <circle cx="1150.89" cy="1749.82" r="8.40326" stroke-width="0.5" stroke="black" fill="grey"/>
  <circle cx="1150.89" cy="1749.82" r="5.04872" stroke-width="0.5" stroke="grey" fill="grey"/>
   </g>
   <g id="cell62">
  <circle cx="1138.47" cy="1666.44" r="8.40212" stroke-width="0.5" stroke="black" fill="grey"/>
  <circle cx="1138.47" cy="1666.44" r="5.04832" stroke-width="0.5" stroke="grey" fill="grey"/>
   </g>
   <g id="cell63">
  <circle cx="1636.13" cy="316.965" r="10.0259" stroke-width="0.5" stroke="black" fill="red"/>
  <circle cx="1636.13" cy="316.965" r="6.0813" stroke-width="0.5" stroke="red" fill="red"/>
   </g>
   <g id="cell64">
  <circle cx="1685.08" cy="1159.05" r="8.39791" stroke-width="0.5" stroke="black" fill="grey"/>
  <circle cx="1685.08" cy="1159.05" r="5.04681" stroke-width="0.5" stroke="grey" fill="grey"/>
   </g>
   <g id="cell65">
  <circle cx="1291.08" cy="1271.6" r="8.39422" stroke-width="0.5" stroke="black" fill="grey"/>
  <circle cx="1291.08" cy="1271.6" r="5.04543" stroke-width="0.5" stroke="grey" fill="grey"/>
   </g>
   <g id="cell66">
  <circle cx="802.691" cy="902.183" r="9.25673" stroke-width="0.5" stroke="black" fill="red"/>
  <circle cx="802.691" cy="902.183" r="5.62973" stroke-width="0.5" stroke="red" fill="red"/>
   </g>
   <g id="cell67">
  <circle cx="1615.47" cy="1046.66" r="9.14149" stroke-width="0.5" stroke="black" fill="red"/>
  <circle cx="1615.47" cy="1046.66" r="5.55891" stroke-width="0.5" stroke="red" fill="red"/>
   </g>
   <g id="cell68">
  <circle cx="809.084" cy="1029.38" r="8.38444" stroke-width="0.5" stroke="black" fill="red"/>
  <circle cx="809.084" cy="1029.38" r="5.04166" stroke-width="0.5" stroke="red" fill="red"/>
   </g>
   <g id="cell69">
  <circle cx="849.926" cy="569.436" r="8.7773" stroke-width="0.5" stroke="black" fill="grey"/>
  <circle cx="849.926" cy="569.436" r="5.3243" stroke-width="0.5" stroke="grey" fill="grey"/>
   </g>
   <g id="cell70">
  <circle cx="1706.87" cy="1280.11" r="8.50578" stroke-width="0.5" stroke="black" fill="grey"/>
  <circle cx="1706.87" cy="1280.11" r="5.13506" stroke-width="0.5" stroke="grey" fill="grey"/>
   </g>
  </g>
 </g>
  <rect x="1750" y="2070" width="200" height="20" stroke-width="4" stroke="rgb(255,255,255)" fill="rgb(0,0,0)"/>
  <text x="1762.5" y="2057.5"
   font-family="Arial" font-size="50" fill="black" >
   200 &#956;m
  </text>
  <text x="50" y="2090"
   font-family="Arial" font-size="37.5" fill="black" >
   0 days, 0 hours, 1 minutes, and 21.0557 seconds
  </text>
  <rect x="0" y="140" width="2000" height="2000" stroke-width="4" stroke="rgb(0,0,0)" fill="none"/>
</svg>
