<?xml version="1.0" encoding="UTF-8" standalone="no"?>
<!-- Created with PhysiCell (http://PhysiCell.MathCancer.org/) -->
<svg 
 xmlns:dc="http://purl.org/dc/elements/1.1/" 
 xmlns:cc="http://creativecommons.org/ns#" 
 xmlns:rdf="http://www.w3.org/1999/02/22-rdf-syntax-ns#" 
 xmlns:svg="http://www.w3.org/2000/svg" 
 xmlns="http://www.w3.org/2000/svg" 
 version="1.1" 
 width="2000" 
 height="2140" 
 id="svg2">
  <rect x="0" y="0" width="2000" height="2140" stroke-width="4" stroke="white" fill="white"/>
  <text x="25" y="60"
   font-family="Arial" font-size="50" fill="black" >
   Current time: 2 days, 10 hours, and 0.00 minutes, z = 0.00 &#956;m
  </text>
  <text x="25" y="115"
   font-family="Arial" font-size="47.5" fill="black" >
   61 agents
  </text>
 <g id="tissue" 
    transform="translate(0,2140) scale(1,-1)">
  <g id="ECM">
  </g>
  <g id="cells">
   <g id="cell0">
  <circle cx="1115.53" cy="1189.45" r="10.0933" stroke-width="0.5" stroke="black" fill="grey"/>
  <circle cx="1115.53" cy="1189.45" r="6.11735" stroke-width="0.5" stroke="grey" fill="grey"/>
   </g>
   <g id="cell1">
  <circle cx="1670.82" cy="1216.02" r="8.39196" stroke-width="0.5" stroke="black" fill="grey"/>
  <circle cx="1670.82" cy="1216.02" r="5.04458" stroke-width="0.5" stroke="grey" fill="grey"/>
   </g>
   <g id="cell2">
  <circle cx="1152.44" cy="1738.5" r="9.81664" stroke-width="0.5" stroke="black" fill="grey"/>
  <circle cx="1152.44" cy="1738.5" r="5.96227" stroke-width="0.5" stroke="grey" fill="grey"/>
   </g>
   <g id="cell3">
  <circle cx="1252.21" cy="1315.74" r="9.96202" stroke-width="0.5" stroke="black" fill="grey"/>
  <circle cx="1252.21" cy="1315.74" r="6.04438" stroke-width="0.5" stroke="grey" fill="grey"/>
   </g>
   <g id="cell4">
  <circle cx="836.911" cy="538.447" r="10.0742" stroke-width="0.5" stroke="black" fill="grey"/>
  <circle cx="836.911" cy="538.447" r="6.10778" stroke-width="0.5" stroke="grey" fill="grey"/>
   </g>
   <g id="cell5">
  <circle cx="97.9833" cy="1948.09" r="10.1043" stroke-width="0.5" stroke="black" fill="red"/>
  <circle cx="97.9833" cy="1948.09" r="6.12409" stroke-width="0.5" stroke="red" fill="red"/>
   </g>
   <g id="cell6">
  <circle cx="817.145" cy="864.621" r="9.44241" stroke-width="0.5" stroke="black" fill="red"/>
  <circle cx="817.145" cy="864.621" r="5.73951" stroke-width="0.5" stroke="red" fill="red"/>
   </g>
   <g id="cell19">
  <circle cx="1718.64" cy="1321.54" r="9.30584" stroke-width="0.5" stroke="black" fill="grey"/>
  <circle cx="1718.64" cy="1321.54" r="5.65669" stroke-width="0.5" stroke="grey" fill="grey"/>
   </g>
   <g id="cell18">
  <circle cx="1643.11" cy="306.843" r="8.37917" stroke-width="0.5" stroke="black" fill="red"/>
  <circle cx="1643.11" cy="306.843" r="5.03956" stroke-width="0.5" stroke="red" fill="red"/>
   </g>
   <g id="cell9">
  <circle cx="1650.85" cy="188.216" r="10.2172" stroke-width="0.5" stroke="black" fill="red"/>
  <circle cx="1650.85" cy="188.216" r="6.18477" stroke-width="0.5" stroke="red" fill="red"/>
   </g>
   <g id="cell11">
  <circle cx="1618.02" cy="1075.77" r="9.96355" stroke-width="0.5" stroke="black" fill="red"/>
  <circle cx="1618.02" cy="1075.77" r="6.04484" stroke-width="0.5" stroke="red" fill="red"/>
   </g>
   <g id="cell20">
  <circle cx="810.268" cy="1006.7" r="10.489" stroke-width="0.5" stroke="black" fill="red"/>
  <circle cx="810.268" cy="1006.7" r="6.31989" stroke-width="0.5" stroke="red" fill="red"/>
   </g>
   <g id="cell13">
  <circle cx="888.931" cy="595.314" r="8.40085" stroke-width="0.5" stroke="black" fill="grey"/>
  <circle cx="888.931" cy="595.314" r="5.04787" stroke-width="0.5" stroke="grey" fill="grey"/>
   </g>
   <g id="cell14">
  <circle cx="1201.71" cy="1306.52" r="8.83952" stroke-width="0.5" stroke="black" fill="grey"/>
  <circle cx="1201.71" cy="1306.52" r="5.36001" stroke-width="0.5" stroke="grey" fill="grey"/>
   </g>
   <g id="cell15">
  <circle cx="1145.66" cy="1166.87" r="9.30092" stroke-width="0.5" stroke="black" fill="grey"/>
  <circle cx="1145.66" cy="1166.87" r="5.65497" stroke-width="0.5" stroke="grey" fill="grey"/>
   </g>
   <g id="cell16">
  <circle cx="1119.14" cy="1672.36" r="9.8816" stroke-width="0.5" stroke="black" fill="grey"/>
  <circle cx="1119.14" cy="1672.36" r="5.99941" stroke-width="0.5" stroke="grey" fill="grey"/>
   </g>
   <g id="cell17">
  <circle cx="1073.83" cy="661.518" r="10.4796" stroke-width="0.5" stroke="black" fill="red"/>
  <circle cx="1073.83" cy="661.518" r="6.31548" stroke-width="0.5" stroke="red" fill="red"/>
   </g>
   <g id="cell21">
  <circle cx="1573.03" cy="1037.04" r="9.08108" stroke-width="0.5" stroke="black" fill="red"/>
  <circle cx="1573.03" cy="1037.04" r="5.51665" stroke-width="0.5" stroke="red" fill="red"/>
   </g>
   <g id="cell22">
  <circle cx="1160.32" cy="1722.01" r="8.38372" stroke-width="0.5" stroke="black" fill="grey"/>
  <circle cx="1160.32" cy="1722.01" r="5.04136" stroke-width="0.5" stroke="grey" fill="grey"/>
   </g>
   <g id="cell23">
  <circle cx="1282.94" cy="1290.26" r="10.5275" stroke-width="0.5" stroke="black" fill="grey"/>
  <circle cx="1282.94" cy="1290.26" r="6.33696" stroke-width="0.5" stroke="grey" fill="grey"/>
   </g>
   <g id="cell24">
  <circle cx="1127.66" cy="1225.42" r="10.2982" stroke-width="0.5" stroke="black" fill="grey"/>
  <circle cx="1127.66" cy="1225.42" r="6.22651" stroke-width="0.5" stroke="grey" fill="grey"/>
   </g>
   <g id="cell25">
  <circle cx="1132.16" cy="716.228" r="10.34" stroke-width="0.5" stroke="black" fill="red"/>
  <circle cx="1132.16" cy="716.228" r="6.24752" stroke-width="0.5" stroke="red" fill="red"/>
   </g>
   <g id="cell26">
  <circle cx="1704.3" cy="1187.37" r="10.2602" stroke-width="0.5" stroke="black" fill="grey"/>
  <circle cx="1704.3" cy="1187.37" r="6.20705" stroke-width="0.5" stroke="grey" fill="grey"/>
   </g>
   <g id="cell27">
  <circle cx="878.625" cy="565.611" r="10.4689" stroke-width="0.5" stroke="black" fill="grey"/>
  <circle cx="878.625" cy="565.611" r="6.31052" stroke-width="0.5" stroke="grey" fill="grey"/>
   </g>
   <g id="cell28">
  <circle cx="50.8226" cy="1980.25" r="8.41647" stroke-width="0.5" stroke="black" fill="red"/>
  <circle cx="50.8226" cy="1980.25" r="5.06021" stroke-width="0.5" stroke="red" fill="red"/>
   </g>
   <g id="cell29">
  <circle cx="1067.31" cy="1074.51" r="10.3518" stroke-width="0.5" stroke="black" fill="grey"/>
  <circle cx="1067.31" cy="1074.51" r="6.25406" stroke-width="0.5" stroke="grey" fill="grey"/>
   </g>
   <g id="cell30">
  <circle cx="915.308" cy="635.183" r="9.61157" stroke-width="0.5" stroke="black" fill="grey"/>
  <circle cx="915.308" cy="635.183" r="5.84352" stroke-width="0.5" stroke="grey" fill="grey"/>
   </g>
   <g id="cell31">
  <circle cx="1229.02" cy="1308.26" r="8.40209" stroke-width="0.5" stroke="black" fill="grey"/>
  <circle cx="1229.02" cy="1308.26" r="5.04831" stroke-width="0.5" stroke="grey" fill="grey"/>
   </g>
   <g id="cell32">
  <circle cx="1649.4" cy="214.035" r="8.67046" stroke-width="0.5" stroke="black" fill="red"/>
  <circle cx="1649.4" cy="214.035" r="5.24751" stroke-width="0.5" stroke="red" fill="red"/>
   </g>
   <g id="cell33">
  <circle cx="1678.38" cy="1158.82" r="8.36715" stroke-width="0.5" stroke="black" fill="grey"/>
  <circle cx="1678.38" cy="1158.82" r="5.03457" stroke-width="0.5" stroke="grey" fill="grey"/>
   </g>
   <g id="cell34">
  <circle cx="1149.6" cy="1649.04" r="8.3802" stroke-width="0.5" stroke="black" fill="grey"/>
  <circle cx="1149.6" cy="1649.04" r="5.03996" stroke-width="0.5" stroke="grey" fill="grey"/>
   </g>
   <g id="cell35">
  <circle cx="732.846" cy="881.064" r="8.39193" stroke-width="0.5" stroke="black" fill="red"/>
  <circle cx="732.846" cy="881.064" r="5.04458" stroke-width="0.5" stroke="red" fill="red"/>
   </g>
   <g id="cell36">
  <circle cx="1738.22" cy="310.793" r="9.426" stroke-width="0.5" stroke="black" fill="red"/>
  <circle cx="1738.22" cy="310.793" r="5.73359" stroke-width="0.5" stroke="red" fill="red"/>
   </g>
   <g id="cell37">
  <circle cx="807.392" cy="908.468" r="10.5229" stroke-width="0.5" stroke="black" fill="red"/>
  <circle cx="807.392" cy="908.468" r="6.33505" stroke-width="0.5" stroke="red" fill="red"/>
   </g>
   <g id="cell38">
  <circle cx="1608.31" cy="1059.14" r="10.5007" stroke-width="0.5" stroke="black" fill="red"/>
  <circle cx="1608.31" cy="1059.14" r="6.32521" stroke-width="0.5" stroke="red" fill="red"/>
   </g>
   <g id="cell39">
  <circle cx="1168.93" cy="1202.22" r="8.41014" stroke-width="0.5" stroke="black" fill="grey"/>
  <circle cx="1168.93" cy="1202.22" r="5.05097" stroke-width="0.5" stroke="grey" fill="grey"/>
   </g>
   <g id="cell40">
  <circle cx="1701.05" cy="1282.29" r="10.4426" stroke-width="0.5" stroke="black" fill="grey"/>
  <circle cx="1701.05" cy="1282.29" r="6.29851" stroke-width="0.5" stroke="grey" fill="grey"/>
   </g>
   <g id="cell41">
  <circle cx="1232.73" cy="1383.37" r="8.40977" stroke-width="0.5" stroke="black" fill="grey"/>
  <circle cx="1232.73" cy="1383.37" r="5.05086" stroke-width="0.5" stroke="grey" fill="grey"/>
   </g>
   <g id="cell42">
  <circle cx="1098.88" cy="1123.23" r="10.28" stroke-width="0.5" stroke="black" fill="grey"/>
  <circle cx="1098.88" cy="1123.23" r="6.21719" stroke-width="0.5" stroke="grey" fill="grey"/>
   </g>
   <g id="cell43">
  <circle cx="1100.77" cy="1074.29" r="8.40857" stroke-width="0.5" stroke="black" fill="grey"/>
  <circle cx="1100.77" cy="1074.29" r="5.05049" stroke-width="0.5" stroke="grey" fill="grey"/>
   </g>
   <g id="cell44">
  <circle cx="1665.88" cy="1193.62" r="9.5017" stroke-width="0.5" stroke="black" fill="grey"/>
  <circle cx="1665.88" cy="1193.62" r="5.77631" stroke-width="0.5" stroke="grey" fill="grey"/>
   </g>
   <g id="cell45">
  <circle cx="1544.67" cy="1039.99" r="9.61724" stroke-width="0.5" stroke="black" fill="red"/>
  <circle cx="1544.67" cy="1039.99" r="5.84558" stroke-width="0.5" stroke="red" fill="red"/>
   </g>
   <g id="cell46">
  <circle cx="1201.84" cy="1692.01" r="9.53053" stroke-width="0.5" stroke="black" fill="grey"/>
  <circle cx="1201.84" cy="1692.01" r="5.79399" stroke-width="0.5" stroke="grey" fill="grey"/>
   </g>
   <g id="cell47">
  <circle cx="1631.63" cy="193.619" r="8.4758" stroke-width="0.5" stroke="black" fill="red"/>
  <circle cx="1631.63" cy="193.619" r="5.10102" stroke-width="0.5" stroke="red" fill="red"/>
   </g>
   <g id="cell48">
  <circle cx="1149.11" cy="1761.55" r="8.92194" stroke-width="0.5" stroke="black" fill="grey"/>
  <circle cx="1149.11" cy="1761.55" r="5.41404" stroke-width="0.5" stroke="grey" fill="grey"/>
   </g>
   <g id="cell49">
  <circle cx="75.1629" cy="1981.47" r="8.40468" stroke-width="0.5" stroke="black" fill="red"/>
  <circle cx="75.1629" cy="1981.47" r="5.04921" stroke-width="0.5" stroke="red" fill="red"/>
   </g>
   <g id="cell50">
  <circle cx="1126.84" cy="1153.59" r="8.40373" stroke-width="0.5" stroke="black" fill="grey"/>
  <circle cx="1126.84" cy="1153.59" r="5.04889" stroke-width="0.5" stroke="grey" fill="grey"/>
   </g>
   <g id="cell51">
  <circle cx="1166.48" cy="1292.2" r="10.0742" stroke-width="0.5" stroke="black" fill="grey"/>
  <circle cx="1166.48" cy="1292.2" r="6.10778" stroke-width="0.5" stroke="grey" fill="grey"/>
   </g>
   <g id="cell52">
  <circle cx="864.318" cy="593.169" r="9.26531" stroke-width="0.5" stroke="black" fill="grey"/>
  <circle cx="864.318" cy="593.169" r="5.63301" stroke-width="0.5" stroke="grey" fill="grey"/>
   </g>
   <g id="cell53">
  <circle cx="1181.37" cy="1274.5" r="9.52731" stroke-width="0.5" stroke="black" fill="grey"/>
  <circle cx="1181.37" cy="1274.5" r="5.79283" stroke-width="0.5" stroke="grey" fill="grey"/>
   </g>
   <g id="cell54">
  <circle cx="862.105" cy="550.259" r="8.95788" stroke-width="0.5" stroke="black" fill="grey"/>
  <circle cx="862.105" cy="550.259" r="5.43872" stroke-width="0.5" stroke="grey" fill="grey"/>
   </g>
   <g id="cell55">
  <circle cx="902.648" cy="583.46" r="9.87642" stroke-width="0.5" stroke="black" fill="grey"/>
  <circle cx="902.648" cy="583.46" r="5.99753" stroke-width="0.5" stroke="grey" fill="grey"/>
   </g>
   <g id="cell56">
  <circle cx="76.9431" cy="1944.71" r="8.67427" stroke-width="0.5" stroke="black" fill="red"/>
  <circle cx="76.9431" cy="1944.71" r="5.24897" stroke-width="0.5" stroke="red" fill="red"/>
   </g>
   <g id="cell57">
  <circle cx="1630.38" cy="255.054" r="8.39253" stroke-width="0.5" stroke="black" fill="red"/>
  <circle cx="1630.38" cy="255.054" r="5.0448" stroke-width="0.5" stroke="red" fill="red"/>
   </g>
   <g id="cell58">
  <circle cx="744.675" cy="843.212" r="8.39193" stroke-width="0.5" stroke="black" fill="red"/>
  <circle cx="744.675" cy="843.212" r="5.04458" stroke-width="0.5" stroke="red" fill="red"/>
   </g>
   <g id="cell59">
  <circle cx="1722.4" cy="301.1" r="8.39184" stroke-width="0.5" stroke="black" fill="red"/>
  <circle cx="1722.4" cy="301.1" r="5.04456" stroke-width="0.5" stroke="red" fill="red"/>
   </g>
   <g id="cell60">
  <circle cx="1700.06" cy="1202.41" r="8.39196" stroke-width="0.5" stroke="black" fill="grey"/>
  <circle cx="1700.06" cy="1202.41" r="5.04458" stroke-width="0.5" stroke="grey" fill="grey"/>
   </g>
   <g id="cell61">
  <circle cx="1177.64" cy="1752.59" r="8.38372" stroke-width="0.5" stroke="black" fill="grey"/>
  <circle cx="1177.64" cy="1752.59" r="5.04136" stroke-width="0.5" stroke="grey" fill="grey"/>
   </g>
   <g id="cell62">
  <circle cx="1135.45" cy="1663.23" r="8.3802" stroke-width="0.5" stroke="black" fill="grey"/>
  <circle cx="1135.45" cy="1663.23" r="5.03996" stroke-width="0.5" stroke="grey" fill="grey"/>
   </g>
   <g id="cell63">
  <circle cx="1645.59" cy="331.844" r="8.85808" stroke-width="0.5" stroke="black" fill="red"/>
  <circle cx="1645.59" cy="331.844" r="5.37826" stroke-width="0.5" stroke="red" fill="red"/>
   </g>
   <g id="cell64">
  <circle cx="1689.43" cy="1165.5" r="8.36715" stroke-width="0.5" stroke="black" fill="grey"/>
  <circle cx="1689.43" cy="1165.5" r="5.03457" stroke-width="0.5" stroke="grey" fill="grey"/>
   </g>
  </g>
 </g>
  <rect x="1750" y="2070" width="200" height="20" stroke-width="4" stroke="rgb(255,255,255)" fill="rgb(0,0,0)"/>
  <text x="1762.5" y="2057.5"
   font-family="Arial" font-size="50" fill="black" >
   200 &#956;m
  </text>
  <text x="50" y="2090"
   font-family="Arial" font-size="37.5" fill="black" >
   0 days, 0 hours, 1 minutes, and 15.6932 seconds
  </text>
  <rect x="0" y="140" width="2000" height="2000" stroke-width="4" stroke="rgb(0,0,0)" fill="none"/>
</svg>
