<?xml version="1.0" encoding="UTF-8" standalone="no"?>
<!-- Created with PhysiCell (http://PhysiCell.MathCancer.org/) -->
<svg 
 xmlns:dc="http://purl.org/dc/elements/1.1/" 
 xmlns:cc="http://creativecommons.org/ns#" 
 xmlns:rdf="http://www.w3.org/1999/02/22-rdf-syntax-ns#" 
 xmlns:svg="http://www.w3.org/2000/svg" 
 xmlns="http://www.w3.org/2000/svg" 
 version="1.1" 
 width="2000" 
 height="2140" 
 id="svg2">
  <rect x="0" y="0" width="2000" height="2140" stroke-width="4" stroke="white" fill="white"/>
  <text x="25" y="60"
   font-family="Arial" font-size="50" fill="black" >
   Current time: 3 days, 4 hours, and 0.00 minutes, z = 0.00 &#956;m
  </text>
  <text x="25" y="115"
   font-family="Arial" font-size="47.5" fill="black" >
   111 agents
  </text>
 <g id="tissue" 
    transform="translate(0,2140) scale(1,-1)">
  <g id="ECM">
  </g>
  <g id="cells">
   <g id="cell0">
  <circle cx="1116.78" cy="1235.79" r="10.3529" stroke-width="0.5" stroke="black" fill="grey"/>
  <circle cx="1116.78" cy="1235.79" r="6.2544" stroke-width="0.5" stroke="grey" fill="grey"/>
   </g>
   <g id="cell1">
  <circle cx="1696.21" cy="1251.32" r="8.37735" stroke-width="0.5" stroke="black" fill="grey"/>
  <circle cx="1696.21" cy="1251.32" r="5.0388" stroke-width="0.5" stroke="grey" fill="grey"/>
   </g>
   <g id="cell2">
  <circle cx="1179.76" cy="1762.3" r="9.53262" stroke-width="0.5" stroke="black" fill="grey"/>
  <circle cx="1179.76" cy="1762.3" r="5.7947" stroke-width="0.5" stroke="grey" fill="grey"/>
   </g>
   <g id="cell3">
  <circle cx="1267.5" cy="1329.18" r="10.3146" stroke-width="0.5" stroke="black" fill="grey"/>
  <circle cx="1267.5" cy="1329.18" r="6.23502" stroke-width="0.5" stroke="grey" fill="grey"/>
   </g>
   <g id="cell4">
  <circle cx="828.124" cy="518.361" r="9.16064" stroke-width="0.5" stroke="black" fill="grey"/>
  <circle cx="828.124" cy="518.361" r="5.56612" stroke-width="0.5" stroke="grey" fill="grey"/>
   </g>
   <g id="cell5">
  <circle cx="73.6761" cy="1945.11" r="10.0938" stroke-width="0.5" stroke="black" fill="red"/>
  <circle cx="73.6761" cy="1945.11" r="6.1175" stroke-width="0.5" stroke="red" fill="red"/>
   </g>
   <g id="cell6">
  <circle cx="888.638" cy="914.426" r="9.72314" stroke-width="0.5" stroke="black" fill="red"/>
  <circle cx="888.638" cy="914.426" r="5.90776" stroke-width="0.5" stroke="red" fill="red"/>
   </g>
   <g id="cell19">
  <circle cx="1712.73" cy="1355.93" r="10.2391" stroke-width="0.5" stroke="black" fill="grey"/>
  <circle cx="1712.73" cy="1355.93" r="6.19619" stroke-width="0.5" stroke="grey" fill="grey"/>
   </g>
   <g id="cell18">
  <circle cx="1619.22" cy="308.437" r="10.4046" stroke-width="0.5" stroke="black" fill="red"/>
  <circle cx="1619.22" cy="308.437" r="6.27978" stroke-width="0.5" stroke="red" fill="red"/>
   </g>
   <g id="cell9">
  <circle cx="1689.47" cy="163.895" r="10.1745" stroke-width="0.5" stroke="black" fill="red"/>
  <circle cx="1689.47" cy="163.895" r="6.16123" stroke-width="0.5" stroke="red" fill="red"/>
   </g>
   <g id="cell11">
  <circle cx="1552.18" cy="1108.2" r="10.1975" stroke-width="0.5" stroke="black" fill="red"/>
  <circle cx="1552.18" cy="1108.2" r="6.17373" stroke-width="0.5" stroke="red" fill="red"/>
   </g>
   <g id="cell20">
  <circle cx="794.949" cy="1028.76" r="8.38694" stroke-width="0.5" stroke="black" fill="red"/>
  <circle cx="794.949" cy="1028.76" r="5.04846" stroke-width="0.5" stroke="red" fill="red"/>
   </g>
   <g id="cell13">
  <circle cx="856.15" cy="627.431" r="10.5188" stroke-width="0.5" stroke="black" fill="grey"/>
  <circle cx="856.15" cy="627.431" r="6.33319" stroke-width="0.5" stroke="grey" fill="grey"/>
   </g>
   <g id="cell14">
  <circle cx="1144.04" cy="1314.91" r="8.40399" stroke-width="0.5" stroke="black" fill="grey"/>
  <circle cx="1144.04" cy="1314.91" r="5.04897" stroke-width="0.5" stroke="grey" fill="grey"/>
   </g>
   <g id="cell15">
  <circle cx="1137.77" cy="1213.71" r="9.11958" stroke-width="0.5" stroke="black" fill="grey"/>
  <circle cx="1137.77" cy="1213.71" r="5.5411" stroke-width="0.5" stroke="grey" fill="grey"/>
   </g>
   <g id="cell16">
  <circle cx="1112.7" cy="1685.46" r="10.2976" stroke-width="0.5" stroke="black" fill="grey"/>
  <circle cx="1112.7" cy="1685.46" r="6.22632" stroke-width="0.5" stroke="grey" fill="grey"/>
   </g>
   <g id="cell90">
  <circle cx="810.269" cy="836.085" r="9.94151" stroke-width="0.5" stroke="black" fill="red"/>
  <circle cx="810.269" cy="836.085" r="6.03325" stroke-width="0.5" stroke="red" fill="red"/>
   </g>
   <g id="cell86">
  <circle cx="1553.58" cy="991.208" r="9.90317" stroke-width="0.5" stroke="black" fill="red"/>
  <circle cx="1553.58" cy="991.208" r="6.01139" stroke-width="0.5" stroke="red" fill="red"/>
   </g>
   <g id="cell22">
  <circle cx="1118.02" cy="1707.72" r="9.18417" stroke-width="0.5" stroke="black" fill="grey"/>
  <circle cx="1118.02" cy="1707.72" r="5.58449" stroke-width="0.5" stroke="grey" fill="grey"/>
   </g>
   <g id="cell23">
  <circle cx="1234.47" cy="1326.15" r="8.38804" stroke-width="0.5" stroke="black" fill="grey"/>
  <circle cx="1234.47" cy="1326.15" r="5.04309" stroke-width="0.5" stroke="grey" fill="grey"/>
   </g>
   <g id="cell24">
  <circle cx="1167.34" cy="1257.77" r="9.56393" stroke-width="0.5" stroke="black" fill="grey"/>
  <circle cx="1167.34" cy="1257.77" r="5.81294" stroke-width="0.5" stroke="grey" fill="grey"/>
   </g>
   <g id="cell25">
  <circle cx="1149.7" cy="705.494" r="10.2525" stroke-width="0.5" stroke="black" fill="red"/>
  <circle cx="1149.7" cy="705.494" r="6.20257" stroke-width="0.5" stroke="red" fill="red"/>
   </g>
   <g id="cell26">
  <circle cx="1697.42" cy="1211.71" r="10.1087" stroke-width="0.5" stroke="black" fill="grey"/>
  <circle cx="1697.42" cy="1211.71" r="6.12552" stroke-width="0.5" stroke="grey" fill="grey"/>
   </g>
   <g id="cell27">
  <circle cx="904.546" cy="547.053" r="10.5161" stroke-width="0.5" stroke="black" fill="grey"/>
  <circle cx="904.546" cy="547.053" r="6.33208" stroke-width="0.5" stroke="grey" fill="grey"/>
   </g>
   <g id="cell28">
  <circle cx="58.2153" cy="1975.58" r="9.91755" stroke-width="0.5" stroke="black" fill="red"/>
  <circle cx="58.2153" cy="1975.58" r="6.0207" stroke-width="0.5" stroke="red" fill="red"/>
   </g>
   <g id="cell29">
  <circle cx="1063.48" cy="1079.42" r="10.4148" stroke-width="0.5" stroke="black" fill="grey"/>
  <circle cx="1063.48" cy="1079.42" r="6.28489" stroke-width="0.5" stroke="grey" fill="grey"/>
   </g>
   <g id="cell30">
  <circle cx="961.486" cy="531.439" r="10.3514" stroke-width="0.5" stroke="black" fill="grey"/>
  <circle cx="961.486" cy="531.439" r="6.25393" stroke-width="0.5" stroke="grey" fill="grey"/>
   </g>
   <g id="cell31">
  <circle cx="1186.07" cy="1350.8" r="8.3914" stroke-width="0.5" stroke="black" fill="grey"/>
  <circle cx="1186.07" cy="1350.8" r="5.04436" stroke-width="0.5" stroke="grey" fill="grey"/>
   </g>
   <g id="cell109">
  <circle cx="773.677" cy="939.641" r="9.42689" stroke-width="0.5" stroke="black" fill="red"/>
  <circle cx="773.677" cy="939.641" r="5.73394" stroke-width="0.5" stroke="red" fill="red"/>
   </g>
   <g id="cell33">
  <circle cx="1682.95" cy="1162.06" r="9.2234" stroke-width="0.5" stroke="black" fill="grey"/>
  <circle cx="1682.95" cy="1162.06" r="5.60841" stroke-width="0.5" stroke="grey" fill="grey"/>
   </g>
   <g id="cell34">
  <circle cx="1126.63" cy="1666.93" r="10.4257" stroke-width="0.5" stroke="black" fill="grey"/>
  <circle cx="1126.63" cy="1666.93" r="6.29002" stroke-width="0.5" stroke="grey" fill="grey"/>
   </g>
   <g id="cell35">
  <circle cx="740.05" cy="896.953" r="8.3753" stroke-width="0.5" stroke="black" fill="red"/>
  <circle cx="740.05" cy="896.953" r="5.03796" stroke-width="0.5" stroke="red" fill="red"/>
   </g>
   <g id="cell36">
  <circle cx="1753.74" cy="250.01" r="8.47735" stroke-width="0.5" stroke="black" fill="red"/>
  <circle cx="1753.74" cy="250.01" r="5.10154" stroke-width="0.5" stroke="red" fill="red"/>
   </g>
   <g id="cell37">
  <circle cx="832.607" cy="879.786" r="9.43" stroke-width="0.5" stroke="black" fill="red"/>
  <circle cx="832.607" cy="879.786" r="5.73515" stroke-width="0.5" stroke="red" fill="red"/>
   </g>
   <g id="cell38">
  <circle cx="1607.75" cy="1036.32" r="10.3163" stroke-width="0.5" stroke="black" fill="red"/>
  <circle cx="1607.75" cy="1036.32" r="6.23553" stroke-width="0.5" stroke="red" fill="red"/>
   </g>
   <g id="cell39">
  <circle cx="1131.87" cy="1195.14" r="9.14888" stroke-width="0.5" stroke="black" fill="grey"/>
  <circle cx="1131.87" cy="1195.14" r="5.56183" stroke-width="0.5" stroke="grey" fill="grey"/>
   </g>
   <g id="cell40">
  <circle cx="1762.07" cy="1302.72" r="10.2215" stroke-width="0.5" stroke="black" fill="grey"/>
  <circle cx="1762.07" cy="1302.72" r="6.18615" stroke-width="0.5" stroke="grey" fill="grey"/>
   </g>
   <g id="cell41">
  <circle cx="1206.14" cy="1457.21" r="8.38822" stroke-width="0.5" stroke="black" fill="grey"/>
  <circle cx="1206.14" cy="1457.21" r="5.04313" stroke-width="0.5" stroke="grey" fill="grey"/>
   </g>
   <g id="cell42">
  <circle cx="1114.9" cy="1142.49" r="10.38" stroke-width="0.5" stroke="black" fill="grey"/>
  <circle cx="1114.9" cy="1142.49" r="6.26787" stroke-width="0.5" stroke="grey" fill="grey"/>
   </g>
   <g id="cell43">
  <circle cx="1069.39" cy="1097.76" r="8.36847" stroke-width="0.5" stroke="black" fill="grey"/>
  <circle cx="1069.39" cy="1097.76" r="5.03511" stroke-width="0.5" stroke="grey" fill="grey"/>
   </g>
   <g id="cell44">
  <circle cx="1676.62" cy="1198.76" r="9.26856" stroke-width="0.5" stroke="black" fill="grey"/>
  <circle cx="1676.62" cy="1198.76" r="5.63417" stroke-width="0.5" stroke="grey" fill="grey"/>
   </g>
   <g id="cell45">
  <circle cx="1536.24" cy="1051.44" r="9.53189" stroke-width="0.5" stroke="black" fill="red"/>
  <circle cx="1536.24" cy="1051.44" r="5.79446" stroke-width="0.5" stroke="red" fill="red"/>
   </g>
   <g id="cell101">
  <circle cx="1656.71" cy="282.921" r="8.39943" stroke-width="0.5" stroke="black" fill="red"/>
  <circle cx="1656.71" cy="282.921" r="5.04737" stroke-width="0.5" stroke="red" fill="red"/>
   </g>
   <g id="cell47">
  <circle cx="1624.02" cy="150.27" r="9.52662" stroke-width="0.5" stroke="black" fill="red"/>
  <circle cx="1624.02" cy="150.27" r="5.79257" stroke-width="0.5" stroke="red" fill="red"/>
   </g>
   <g id="cell48">
  <circle cx="1192.43" cy="1783.71" r="9.81585" stroke-width="0.5" stroke="black" fill="grey"/>
  <circle cx="1192.43" cy="1783.71" r="5.962" stroke-width="0.5" stroke="grey" fill="grey"/>
   </g>
   <g id="cell49">
  <circle cx="99.4337" cy="1957.96" r="9.66485" stroke-width="0.5" stroke="black" fill="red"/>
  <circle cx="99.4337" cy="1957.96" r="5.87514" stroke-width="0.5" stroke="red" fill="red"/>
   </g>
   <g id="cell50">
  <circle cx="1145.44" cy="1163.11" r="9.68956" stroke-width="0.5" stroke="black" fill="grey"/>
  <circle cx="1145.44" cy="1163.11" r="5.88992" stroke-width="0.5" stroke="grey" fill="grey"/>
   </g>
   <g id="cell51">
  <circle cx="1137.75" cy="1294.41" r="10.4635" stroke-width="0.5" stroke="black" fill="grey"/>
  <circle cx="1137.75" cy="1294.41" r="6.30831" stroke-width="0.5" stroke="grey" fill="grey"/>
   </g>
   <g id="cell52">
  <circle cx="865.646" cy="610.096" r="10.1054" stroke-width="0.5" stroke="black" fill="grey"/>
  <circle cx="865.646" cy="610.096" r="6.12447" stroke-width="0.5" stroke="grey" fill="grey"/>
   </g>
   <g id="cell87">
  <circle cx="893.211" cy="622.006" r="10.3583" stroke-width="0.5" stroke="black" fill="grey"/>
  <circle cx="893.211" cy="622.006" r="6.25742" stroke-width="0.5" stroke="grey" fill="grey"/>
   </g>
   <g id="cell54">
  <circle cx="837.916" cy="534.209" r="9.90079" stroke-width="0.5" stroke="black" fill="grey"/>
  <circle cx="837.916" cy="534.209" r="6.01058" stroke-width="0.5" stroke="grey" fill="grey"/>
   </g>
   <g id="cell55">
  <circle cx="870.101" cy="586.503" r="10.391" stroke-width="0.5" stroke="black" fill="grey"/>
  <circle cx="870.101" cy="586.503" r="6.27351" stroke-width="0.5" stroke="grey" fill="grey"/>
   </g>
   <g id="cell56">
  <circle cx="144.318" cy="1897.71" r="8.40294" stroke-width="0.5" stroke="black" fill="red"/>
  <circle cx="144.318" cy="1897.71" r="5.04861" stroke-width="0.5" stroke="red" fill="red"/>
   </g>
   <g id="cell57">
  <circle cx="1673.28" cy="270.223" r="9.33216" stroke-width="0.5" stroke="black" fill="red"/>
  <circle cx="1673.28" cy="270.223" r="5.67503" stroke-width="0.5" stroke="red" fill="red"/>
   </g>
   <g id="cell58">
  <circle cx="693.073" cy="869.704" r="10.3747" stroke-width="0.5" stroke="black" fill="red"/>
  <circle cx="693.073" cy="869.704" r="6.26496" stroke-width="0.5" stroke="red" fill="red"/>
   </g>
   <g id="cell59">
  <circle cx="1724.33" cy="323.97" r="8.74456" stroke-width="0.5" stroke="black" fill="red"/>
  <circle cx="1724.33" cy="323.97" r="5.30012" stroke-width="0.5" stroke="red" fill="red"/>
   </g>
   <g id="cell60">
  <circle cx="1722.87" cy="1188.22" r="8.83446" stroke-width="0.5" stroke="black" fill="grey"/>
  <circle cx="1722.87" cy="1188.22" r="5.35813" stroke-width="0.5" stroke="grey" fill="grey"/>
   </g>
   <g id="cell61">
  <circle cx="1122.98" cy="1772.63" r="10.5164" stroke-width="0.5" stroke="black" fill="grey"/>
  <circle cx="1122.98" cy="1772.63" r="6.33216" stroke-width="0.5" stroke="grey" fill="grey"/>
   </g>
   <g id="cell62">
  <circle cx="1152.38" cy="1642.13" r="10.5274" stroke-width="0.5" stroke="black" fill="grey"/>
  <circle cx="1152.38" cy="1642.13" r="6.33693" stroke-width="0.5" stroke="grey" fill="grey"/>
   </g>
   <g id="cell63">
  <circle cx="1653.52" cy="335.832" r="10.1575" stroke-width="0.5" stroke="black" fill="red"/>
  <circle cx="1653.52" cy="335.832" r="6.15304" stroke-width="0.5" stroke="red" fill="red"/>
   </g>
   <g id="cell64">
  <circle cx="1725.4" cy="1161.36" r="10.3245" stroke-width="0.5" stroke="black" fill="grey"/>
  <circle cx="1725.4" cy="1161.36" r="6.23967" stroke-width="0.5" stroke="grey" fill="grey"/>
   </g>
   <g id="cell115">
  <circle cx="848.95" cy="555.847" r="8.38498" stroke-width="0.5" stroke="black" fill="grey"/>
  <circle cx="848.95" cy="555.847" r="5.04191" stroke-width="0.5" stroke="grey" fill="grey"/>
   </g>
   <g id="cell66">
  <circle cx="783.195" cy="951.685" r="8.39295" stroke-width="0.5" stroke="black" fill="red"/>
  <circle cx="783.195" cy="951.685" r="5.04498" stroke-width="0.5" stroke="red" fill="red"/>
   </g>
   <g id="cell67">
  <circle cx="1582.49" cy="1046.23" r="8.39118" stroke-width="0.5" stroke="black" fill="red"/>
  <circle cx="1582.49" cy="1046.23" r="5.04431" stroke-width="0.5" stroke="red" fill="red"/>
   </g>
   <g id="cell68">
  <circle cx="820.685" cy="1080.71" r="10.253" stroke-width="0.5" stroke="black" fill="red"/>
  <circle cx="820.685" cy="1080.71" r="6.20271" stroke-width="0.5" stroke="red" fill="red"/>
   </g>
   <g id="cell69">
  <circle cx="827.377" cy="570.111" r="8.38498" stroke-width="0.5" stroke="black" fill="grey"/>
  <circle cx="827.377" cy="570.111" r="5.04191" stroke-width="0.5" stroke="grey" fill="grey"/>
   </g>
   <g id="cell70">
  <circle cx="1670.31" cy="1231.42" r="8.37895" stroke-width="0.5" stroke="black" fill="grey"/>
  <circle cx="1670.31" cy="1231.42" r="5.0395" stroke-width="0.5" stroke="grey" fill="grey"/>
   </g>
   <g id="cell71">
  <circle cx="1014.74" cy="1063.38" r="10.5109" stroke-width="0.5" stroke="black" fill="grey"/>
  <circle cx="1014.74" cy="1063.38" r="6.32984" stroke-width="0.5" stroke="grey" fill="grey"/>
   </g>
   <g id="cell72">
  <circle cx="1131.09" cy="727.619" r="10.5031" stroke-width="0.5" stroke="black" fill="red"/>
  <circle cx="1131.09" cy="727.619" r="6.32636" stroke-width="0.5" stroke="red" fill="red"/>
   </g>
   <g id="cell73">
  <circle cx="1180.77" cy="1209.9" r="10.5223" stroke-width="0.5" stroke="black" fill="grey"/>
  <circle cx="1180.77" cy="1209.9" r="6.33489" stroke-width="0.5" stroke="grey" fill="grey"/>
   </g>
   <g id="cell74">
  <circle cx="1102.89" cy="1080.27" r="10.3862" stroke-width="0.5" stroke="black" fill="grey"/>
  <circle cx="1102.89" cy="1080.27" r="6.27093" stroke-width="0.5" stroke="grey" fill="grey"/>
   </g>
   <g id="cell75">
  <circle cx="1698.11" cy="1191.86" r="10.5001" stroke-width="0.5" stroke="black" fill="grey"/>
  <circle cx="1698.11" cy="1191.86" r="6.32505" stroke-width="0.5" stroke="grey" fill="grey"/>
   </g>
   <g id="cell76">
  <circle cx="1637.09" cy="254.607" r="10.3602" stroke-width="0.5" stroke="black" fill="red"/>
  <circle cx="1637.09" cy="254.607" r="6.258" stroke-width="0.5" stroke="red" fill="red"/>
   </g>
   <g id="cell77">
  <circle cx="58.7533" cy="1907.5" r="10.4597" stroke-width="0.5" stroke="black" fill="red"/>
  <circle cx="58.7533" cy="1907.5" r="6.30652" stroke-width="0.5" stroke="red" fill="red"/>
   </g>
   <g id="cell78">
  <circle cx="1110.49" cy="1244.69" r="1.39755" stroke-width="0.5" stroke="black" fill="grey"/>
  <circle cx="1110.49" cy="1244.69" r="1.38504" stroke-width="0.5" stroke="black" fill="black"/>
   </g>
   <g id="cell79">
  <circle cx="1195.41" cy="1262.58" r="8.41013" stroke-width="0.5" stroke="black" fill="grey"/>
  <circle cx="1195.41" cy="1262.58" r="5.05097" stroke-width="0.5" stroke="grey" fill="grey"/>
   </g>
   <g id="cell80">
  <circle cx="791.912" cy="515.011" r="8.92601" stroke-width="0.5" stroke="black" fill="grey"/>
  <circle cx="791.912" cy="515.011" r="5.41542" stroke-width="0.5" stroke="grey" fill="grey"/>
   </g>
   <g id="cell81">
  <circle cx="1217.37" cy="1251.1" r="9.84169" stroke-width="0.5" stroke="black" fill="grey"/>
  <circle cx="1217.37" cy="1251.1" r="5.97598" stroke-width="0.5" stroke="grey" fill="grey"/>
   </g>
   <g id="cell82">
  <circle cx="1607.15" cy="1104.75" r="10.1975" stroke-width="0.5" stroke="black" fill="red"/>
  <circle cx="1607.15" cy="1104.75" r="6.17373" stroke-width="0.5" stroke="red" fill="red"/>
   </g>
   <g id="cell83">
  <circle cx="908.454" cy="577.712" r="9.34007" stroke-width="0.5" stroke="black" fill="grey"/>
  <circle cx="908.454" cy="577.712" r="5.67788" stroke-width="0.5" stroke="grey" fill="grey"/>
   </g>
   <g id="cell84">
  <circle cx="1123.19" cy="1649.67" r="8.40923" stroke-width="0.5" stroke="black" fill="grey"/>
  <circle cx="1123.19" cy="1649.67" r="5.0507" stroke-width="0.5" stroke="grey" fill="grey"/>
   </g>
   <g id="cell85">
  <circle cx="1163.71" cy="1709.74" r="10.352" stroke-width="0.5" stroke="black" fill="grey"/>
  <circle cx="1163.71" cy="1709.74" r="6.25413" stroke-width="0.5" stroke="grey" fill="grey"/>
   </g>
   <g id="cell88">
  <circle cx="1686.71" cy="1178.71" r="8.40744" stroke-width="0.5" stroke="black" fill="grey"/>
  <circle cx="1686.71" cy="1178.71" r="5.05013" stroke-width="0.5" stroke="grey" fill="grey"/>
   </g>
   <g id="cell89">
  <circle cx="1812.58" cy="279.386" r="8.40708" stroke-width="0.5" stroke="black" fill="red"/>
  <circle cx="1812.58" cy="279.386" r="5.05002" stroke-width="0.5" stroke="red" fill="red"/>
   </g>
   <g id="cell91">
  <circle cx="1156.39" cy="1222.78" r="8.40647" stroke-width="0.5" stroke="black" fill="grey"/>
  <circle cx="1156.39" cy="1222.78" r="5.04981" stroke-width="0.5" stroke="grey" fill="grey"/>
   </g>
   <g id="cell92">
  <circle cx="1681.9" cy="1350.63" r="8.40649" stroke-width="0.5" stroke="black" fill="grey"/>
  <circle cx="1681.9" cy="1350.63" r="5.04981" stroke-width="0.5" stroke="grey" fill="grey"/>
   </g>
   <g id="cell93">
  <circle cx="850.983" cy="591.243" r="8.40629" stroke-width="0.5" stroke="black" fill="grey"/>
  <circle cx="850.983" cy="591.243" r="5.04975" stroke-width="0.5" stroke="grey" fill="grey"/>
   </g>
   <g id="cell94">
  <circle cx="862.188" cy="539.898" r="9.11807" stroke-width="0.5" stroke="black" fill="grey"/>
  <circle cx="862.188" cy="539.898" r="5.54056" stroke-width="0.5" stroke="grey" fill="grey"/>
   </g>
   <g id="cell95">
  <circle cx="1152.02" cy="1776.57" r="9.88032" stroke-width="0.5" stroke="black" fill="grey"/>
  <circle cx="1152.02" cy="1776.57" r="5.99895" stroke-width="0.5" stroke="grey" fill="grey"/>
   </g>
   <g id="cell96">
  <circle cx="1680.41" cy="302.792" r="10.0594" stroke-width="0.5" stroke="black" fill="red"/>
  <circle cx="1680.41" cy="302.792" r="6.09954" stroke-width="0.5" stroke="red" fill="red"/>
   </g>
   <g id="cell97">
  <circle cx="1167.89" cy="1330.4" r="9.15547" stroke-width="0.5" stroke="black" fill="grey"/>
  <circle cx="1167.89" cy="1330.4" r="5.56432" stroke-width="0.5" stroke="grey" fill="grey"/>
   </g>
   <g id="cell98">
  <circle cx="132.295" cy="1924.84" r="8.99954" stroke-width="0.5" stroke="black" fill="red"/>
  <circle cx="132.295" cy="1924.84" r="5.46522" stroke-width="0.5" stroke="red" fill="red"/>
   </g>
   <g id="cell99">
  <circle cx="1669.85" cy="148.226" r="8.4012" stroke-width="0.5" stroke="black" fill="red"/>
  <circle cx="1669.85" cy="148.226" r="5.048" stroke-width="0.5" stroke="red" fill="red"/>
   </g>
   <g id="cell100">
  <circle cx="38.7887" cy="1951.35" r="9.81294" stroke-width="0.5" stroke="black" fill="red"/>
  <circle cx="38.7887" cy="1951.35" r="5.96094" stroke-width="0.5" stroke="red" fill="red"/>
   </g>
   <g id="cell102">
  <circle cx="1743.46" cy="1141.95" r="8.39787" stroke-width="0.5" stroke="black" fill="grey"/>
  <circle cx="1743.46" cy="1141.95" r="5.0468" stroke-width="0.5" stroke="grey" fill="grey"/>
   </g>
   <g id="cell103">
  <circle cx="79.6403" cy="1972.09" r="9.76493" stroke-width="0.5" stroke="black" fill="red"/>
  <circle cx="79.6403" cy="1972.09" r="5.93358" stroke-width="0.5" stroke="red" fill="red"/>
   </g>
   <g id="cell104">
  <circle cx="802.686" cy="906.43" r="8.39688" stroke-width="0.5" stroke="black" fill="red"/>
  <circle cx="802.686" cy="906.43" r="5.04645" stroke-width="0.5" stroke="red" fill="red"/>
   </g>
   <g id="cell105">
  <circle cx="1668.4" cy="1145.33" r="9.4926" stroke-width="0.5" stroke="black" fill="grey"/>
  <circle cx="1668.4" cy="1145.33" r="5.77299" stroke-width="0.5" stroke="grey" fill="grey"/>
   </g>
   <g id="cell106">
  <circle cx="1148.63" cy="1202.66" r="8.39617" stroke-width="0.5" stroke="black" fill="grey"/>
  <circle cx="1148.63" cy="1202.66" r="5.04616" stroke-width="0.5" stroke="grey" fill="grey"/>
   </g>
   <g id="cell107">
  <circle cx="1155.52" cy="1140.84" r="8.39615" stroke-width="0.5" stroke="black" fill="grey"/>
  <circle cx="1155.52" cy="1140.84" r="5.04616" stroke-width="0.5" stroke="grey" fill="grey"/>
   </g>
   <g id="cell108">
  <circle cx="1129.9" cy="1682.07" r="8.3936" stroke-width="0.5" stroke="black" fill="grey"/>
  <circle cx="1129.9" cy="1682.07" r="5.04521" stroke-width="0.5" stroke="grey" fill="grey"/>
   </g>
   <g id="cell110">
  <circle cx="1554.6" cy="1041.28" r="8.39118" stroke-width="0.5" stroke="black" fill="red"/>
  <circle cx="1554.6" cy="1041.28" r="5.04431" stroke-width="0.5" stroke="red" fill="red"/>
   </g>
   <g id="cell111">
  <circle cx="1230.24" cy="1367.08" r="8.55807" stroke-width="0.5" stroke="black" fill="grey"/>
  <circle cx="1230.24" cy="1367.08" r="5.16745" stroke-width="0.5" stroke="grey" fill="grey"/>
   </g>
   <g id="cell112">
  <circle cx="1229.25" cy="1288.49" r="9.02614" stroke-width="0.5" stroke="black" fill="grey"/>
  <circle cx="1229.25" cy="1288.49" r="5.48562" stroke-width="0.5" stroke="grey" fill="grey"/>
   </g>
   <g id="cell113">
  <circle cx="1227.01" cy="1432.35" r="9.17968" stroke-width="0.5" stroke="black" fill="grey"/>
  <circle cx="1227.01" cy="1432.35" r="5.58268" stroke-width="0.5" stroke="grey" fill="grey"/>
   </g>
   <g id="cell114">
  <circle cx="1717.54" cy="338.585" r="8.59017" stroke-width="0.5" stroke="black" fill="red"/>
  <circle cx="1717.54" cy="338.585" r="5.192" stroke-width="0.5" stroke="red" fill="red"/>
   </g>
   <g id="cell116">
  <circle cx="1651.87" cy="1213.66" r="8.37895" stroke-width="0.5" stroke="black" fill="grey"/>
  <circle cx="1651.87" cy="1213.66" r="5.0395" stroke-width="0.5" stroke="grey" fill="grey"/>
   </g>
   <g id="cell117">
  <circle cx="1692.87" cy="1236.64" r="8.37735" stroke-width="0.5" stroke="black" fill="grey"/>
  <circle cx="1692.87" cy="1236.64" r="5.0388" stroke-width="0.5" stroke="grey" fill="grey"/>
   </g>
   <g id="cell118">
  <circle cx="732.86" cy="913.679" r="8.3753" stroke-width="0.5" stroke="black" fill="red"/>
  <circle cx="732.86" cy="913.679" r="5.03796" stroke-width="0.5" stroke="red" fill="red"/>
   </g>
   <g id="cell119">
  <circle cx="1064.53" cy="1119.16" r="8.36847" stroke-width="0.5" stroke="black" fill="grey"/>
  <circle cx="1064.53" cy="1119.16" r="5.03511" stroke-width="0.5" stroke="grey" fill="grey"/>
   </g>
   <g id="cell120">
  <circle cx="787.383" cy="1040.41" r="8.36693" stroke-width="0.5" stroke="black" fill="red"/>
  <circle cx="787.383" cy="1040.41" r="5.03451" stroke-width="0.5" stroke="red" fill="red"/>
   </g>
  </g>
 </g>
  <rect x="1750" y="2070" width="200" height="20" stroke-width="4" stroke="rgb(255,255,255)" fill="rgb(0,0,0)"/>
  <text x="1762.5" y="2057.5"
   font-family="Arial" font-size="50" fill="black" >
   200 &#956;m
  </text>
  <text x="50" y="2090"
   font-family="Arial" font-size="37.5" fill="black" >
   0 days, 0 hours, 1 minutes, and 39.9151 seconds
  </text>
  <rect x="0" y="140" width="2000" height="2000" stroke-width="4" stroke="rgb(0,0,0)" fill="none"/>
</svg>
