<?xml version="1.0" encoding="UTF-8" standalone="no"?>
<!-- Created with PhysiCell (http://PhysiCell.MathCancer.org/) -->
<svg 
 xmlns:dc="http://purl.org/dc/elements/1.1/" 
 xmlns:cc="http://creativecommons.org/ns#" 
 xmlns:rdf="http://www.w3.org/1999/02/22-rdf-syntax-ns#" 
 xmlns:svg="http://www.w3.org/2000/svg" 
 xmlns="http://www.w3.org/2000/svg" 
 version="1.1" 
 width="2000" 
 height="2140" 
 id="svg2">
  <rect x="0" y="0" width="2000" height="2140" stroke-width="4" stroke="white" fill="white"/>
  <text x="25" y="60"
   font-family="Arial" font-size="50" fill="black" >
   Current time: 3 days, 20 hours, and 0.00 minutes, z = 0.00 &#956;m
  </text>
  <text x="25" y="115"
   font-family="Arial" font-size="47.5" fill="black" >
   206 agents
  </text>
 <g id="tissue" 
    transform="translate(0,2140) scale(1,-1)">
  <g id="ECM">
  </g>
  <g id="cells">
   <g id="cell0">
  <circle cx="1056.97" cy="1162.85" r="10.36" stroke-width="0.5" stroke="black" fill="grey"/>
  <circle cx="1056.97" cy="1162.85" r="6.25795" stroke-width="0.5" stroke="grey" fill="grey"/>
   </g>
   <g id="cell1">
  <circle cx="1693.22" cy="1267.58" r="8.38936" stroke-width="0.5" stroke="black" fill="grey"/>
  <circle cx="1693.22" cy="1267.58" r="5.0436" stroke-width="0.5" stroke="grey" fill="grey"/>
   </g>
   <g id="cell2">
  <circle cx="1225.05" cy="1769.92" r="8.40376" stroke-width="0.5" stroke="black" fill="grey"/>
  <circle cx="1225.05" cy="1769.92" r="5.04889" stroke-width="0.5" stroke="grey" fill="grey"/>
   </g>
   <g id="cell3">
  <circle cx="1280.4" cy="1345.45" r="10.048" stroke-width="0.5" stroke="black" fill="grey"/>
  <circle cx="1280.4" cy="1345.45" r="6.09228" stroke-width="0.5" stroke="grey" fill="grey"/>
   </g>
   <g id="cell4">
  <circle cx="793.148" cy="502.102" r="8.40055" stroke-width="0.5" stroke="black" fill="grey"/>
  <circle cx="793.148" cy="502.102" r="5.04776" stroke-width="0.5" stroke="grey" fill="grey"/>
   </g>
   <g id="cell5">
  <circle cx="67.8909" cy="1902.17" r="8.40837" stroke-width="0.5" stroke="black" fill="red"/>
  <circle cx="67.8909" cy="1902.17" r="5.05043" stroke-width="0.5" stroke="red" fill="red"/>
   </g>
   <g id="cell6">
  <circle cx="852.542" cy="919.408" r="10.0755" stroke-width="0.5" stroke="black" fill="red"/>
  <circle cx="852.542" cy="919.408" r="6.10823" stroke-width="0.5" stroke="red" fill="red"/>
   </g>
   <g id="cell19">
  <circle cx="1709.36" cy="1426.81" r="9.74959" stroke-width="0.5" stroke="black" fill="grey"/>
  <circle cx="1709.36" cy="1426.81" r="5.92273" stroke-width="0.5" stroke="grey" fill="grey"/>
   </g>
   <g id="cell18">
  <circle cx="1606.63" cy="313.232" r="10.4036" stroke-width="0.5" stroke="black" fill="red"/>
  <circle cx="1606.63" cy="313.232" r="6.27951" stroke-width="0.5" stroke="red" fill="red"/>
   </g>
   <g id="cell9">
  <circle cx="1746.83" cy="183.237" r="10.2303" stroke-width="0.5" stroke="black" fill="red"/>
  <circle cx="1746.83" cy="183.237" r="6.19125" stroke-width="0.5" stroke="red" fill="red"/>
   </g>
   <g id="cell11">
  <circle cx="1537.64" cy="1129.08" r="10.2976" stroke-width="0.5" stroke="black" fill="red"/>
  <circle cx="1537.64" cy="1129.08" r="6.22632" stroke-width="0.5" stroke="red" fill="red"/>
   </g>
   <g id="cell20">
  <circle cx="806.241" cy="1011.55" r="8.52366" stroke-width="0.5" stroke="black" fill="red"/>
  <circle cx="806.241" cy="1011.55" r="5.14224" stroke-width="0.5" stroke="red" fill="red"/>
   </g>
   <g id="cell13">
  <circle cx="837.775" cy="626.847" r="10.2723" stroke-width="0.5" stroke="black" fill="grey"/>
  <circle cx="837.775" cy="626.847" r="6.21283" stroke-width="0.5" stroke="grey" fill="grey"/>
   </g>
   <g id="cell14">
  <circle cx="1121.12" cy="1309.63" r="8.94791" stroke-width="0.5" stroke="black" fill="grey"/>
  <circle cx="1121.12" cy="1309.63" r="5.43484" stroke-width="0.5" stroke="grey" fill="grey"/>
   </g>
   <g id="cell15">
  <circle cx="1088.68" cy="1202.66" r="8.99714" stroke-width="0.5" stroke="black" fill="grey"/>
  <circle cx="1088.68" cy="1202.66" r="5.46432" stroke-width="0.5" stroke="grey" fill="grey"/>
   </g>
   <g id="cell16">
  <circle cx="1101.82" cy="1680.9" r="10.4085" stroke-width="0.5" stroke="black" fill="grey"/>
  <circle cx="1101.82" cy="1680.9" r="6.28202" stroke-width="0.5" stroke="grey" fill="grey"/>
   </g>
   <g id="cell90">
  <circle cx="830.935" cy="859.144" r="10.2784" stroke-width="0.5" stroke="black" fill="red"/>
  <circle cx="830.935" cy="859.144" r="6.21666" stroke-width="0.5" stroke="red" fill="red"/>
   </g>
   <g id="cell86">
  <circle cx="1530.72" cy="992.961" r="10.2959" stroke-width="0.5" stroke="black" fill="red"/>
  <circle cx="1530.72" cy="992.961" r="6.2258" stroke-width="0.5" stroke="red" fill="red"/>
   </g>
   <g id="cell22">
  <circle cx="1091.1" cy="1734.28" r="8.40079" stroke-width="0.5" stroke="black" fill="grey"/>
  <circle cx="1091.1" cy="1734.28" r="5.04786" stroke-width="0.5" stroke="grey" fill="grey"/>
   </g>
   <g id="cell23">
  <circle cx="1205.76" cy="1319.88" r="8.37627" stroke-width="0.5" stroke="black" fill="grey"/>
  <circle cx="1205.76" cy="1319.88" r="5.03837" stroke-width="0.5" stroke="grey" fill="grey"/>
   </g>
   <g id="cell24">
  <circle cx="1152.2" cy="1250.44" r="9.69547" stroke-width="0.5" stroke="black" fill="grey"/>
  <circle cx="1152.2" cy="1250.44" r="5.89212" stroke-width="0.5" stroke="grey" fill="grey"/>
   </g>
   <g id="cell25">
  <circle cx="1163.06" cy="723.126" r="9.44016" stroke-width="0.5" stroke="black" fill="red"/>
  <circle cx="1163.06" cy="723.126" r="5.73882" stroke-width="0.5" stroke="red" fill="red"/>
   </g>
   <g id="cell26">
  <circle cx="1719.98" cy="1213.05" r="9.81879" stroke-width="0.5" stroke="black" fill="grey"/>
  <circle cx="1719.98" cy="1213.05" r="5.96301" stroke-width="0.5" stroke="grey" fill="grey"/>
   </g>
   <g id="cell27">
  <circle cx="903.722" cy="548.418" r="10.5228" stroke-width="0.5" stroke="black" fill="grey"/>
  <circle cx="903.722" cy="548.418" r="6.33503" stroke-width="0.5" stroke="grey" fill="grey"/>
   </g>
   <g id="cell28">
  <circle cx="54.3735" cy="1992.26" r="8.40692" stroke-width="0.5" stroke="black" fill="red"/>
  <circle cx="54.3735" cy="1992.26" r="5.04997" stroke-width="0.5" stroke="red" fill="red"/>
   </g>
   <g id="cell29">
  <circle cx="1111.53" cy="1085.02" r="10.3236" stroke-width="0.5" stroke="black" fill="grey"/>
  <circle cx="1111.53" cy="1085.02" r="6.23942" stroke-width="0.5" stroke="grey" fill="grey"/>
   </g>
   <g id="cell30">
  <circle cx="960.918" cy="486.802" r="10.4244" stroke-width="0.5" stroke="black" fill="grey"/>
  <circle cx="960.918" cy="486.802" r="6.28967" stroke-width="0.5" stroke="grey" fill="grey"/>
   </g>
   <g id="cell31">
  <circle cx="1151.23" cy="1370.33" r="8.37079" stroke-width="0.5" stroke="black" fill="grey"/>
  <circle cx="1151.23" cy="1370.33" r="5.0361" stroke-width="0.5" stroke="grey" fill="grey"/>
   </g>
   <g id="cell109">
  <circle cx="778.378" cy="973.097" r="9.79196" stroke-width="0.5" stroke="black" fill="red"/>
  <circle cx="778.378" cy="973.097" r="5.94848" stroke-width="0.5" stroke="red" fill="red"/>
   </g>
   <g id="cell33">
  <circle cx="1653.16" cy="1177.16" r="9.40082" stroke-width="0.5" stroke="black" fill="grey"/>
  <circle cx="1653.16" cy="1177.16" r="5.71666" stroke-width="0.5" stroke="grey" fill="grey"/>
   </g>
   <g id="cell34">
  <circle cx="1077.49" cy="1624.26" r="9.82075" stroke-width="0.5" stroke="black" fill="grey"/>
  <circle cx="1077.49" cy="1624.26" r="5.96363" stroke-width="0.5" stroke="grey" fill="grey"/>
   </g>
   <g id="cell35">
  <circle cx="747.332" cy="962.917" r="10.5089" stroke-width="0.5" stroke="black" fill="red"/>
  <circle cx="747.332" cy="962.917" r="6.32886" stroke-width="0.5" stroke="red" fill="red"/>
   </g>
   <g id="cell36">
  <circle cx="1760.98" cy="274.765" r="8.95059" stroke-width="0.5" stroke="black" fill="red"/>
  <circle cx="1760.98" cy="274.765" r="5.4359" stroke-width="0.5" stroke="red" fill="red"/>
   </g>
   <g id="cell37">
  <circle cx="836.904" cy="927.643" r="10.01" stroke-width="0.5" stroke="black" fill="red"/>
  <circle cx="836.904" cy="927.643" r="6.07233" stroke-width="0.5" stroke="red" fill="red"/>
   </g>
   <g id="cell38">
  <circle cx="1589.44" cy="1081.54" r="10.4635" stroke-width="0.5" stroke="black" fill="red"/>
  <circle cx="1589.44" cy="1081.54" r="6.30833" stroke-width="0.5" stroke="red" fill="red"/>
   </g>
   <g id="cell39">
  <circle cx="1129.21" cy="1195.16" r="9.89775" stroke-width="0.5" stroke="black" fill="grey"/>
  <circle cx="1129.21" cy="1195.16" r="6.00948" stroke-width="0.5" stroke="grey" fill="grey"/>
   </g>
   <g id="cell40">
  <circle cx="1764.83" cy="1264.53" r="10.3911" stroke-width="0.5" stroke="black" fill="grey"/>
  <circle cx="1764.83" cy="1264.53" r="6.27356" stroke-width="0.5" stroke="grey" fill="grey"/>
   </g>
   <g id="cell41">
  <circle cx="1211.2" cy="1470.78" r="10.5273" stroke-width="0.5" stroke="black" fill="grey"/>
  <circle cx="1211.2" cy="1470.78" r="6.33692" stroke-width="0.5" stroke="grey" fill="grey"/>
   </g>
   <g id="cell42">
  <circle cx="1110.21" cy="1106.05" r="10.162" stroke-width="0.5" stroke="black" fill="grey"/>
  <circle cx="1110.21" cy="1106.05" r="6.15453" stroke-width="0.5" stroke="grey" fill="grey"/>
   </g>
   <g id="cell43">
  <circle cx="1033.62" cy="1108.25" r="4.44609" stroke-width="0.5" stroke="black" fill="grey"/>
  <circle cx="1033.62" cy="1108.25" r="3.31896" stroke-width="0.5" stroke="black" fill="black"/>
   </g>
   <g id="cell44">
  <circle cx="1681.4" cy="1185.66" r="8.40151" stroke-width="0.5" stroke="black" fill="grey"/>
  <circle cx="1681.4" cy="1185.66" r="5.04811" stroke-width="0.5" stroke="grey" fill="grey"/>
   </g>
   <g id="cell45">
  <circle cx="1534.57" cy="1057.91" r="9.00025" stroke-width="0.5" stroke="black" fill="red"/>
  <circle cx="1534.57" cy="1057.91" r="5.46547" stroke-width="0.5" stroke="red" fill="red"/>
   </g>
   <g id="cell101">
  <circle cx="1692.79" cy="224.315" r="8.37313" stroke-width="0.5" stroke="black" fill="red"/>
  <circle cx="1692.79" cy="224.315" r="5.03707" stroke-width="0.5" stroke="red" fill="red"/>
   </g>
   <g id="cell47">
  <circle cx="1652.92" cy="126.651" r="9.66923" stroke-width="0.5" stroke="black" fill="red"/>
  <circle cx="1652.92" cy="126.651" r="5.87677" stroke-width="0.5" stroke="red" fill="red"/>
   </g>
   <g id="cell48">
  <circle cx="1152.5" cy="1800.53" r="9.8815" stroke-width="0.5" stroke="black" fill="grey"/>
  <circle cx="1152.5" cy="1800.53" r="5.99937" stroke-width="0.5" stroke="grey" fill="grey"/>
   </g>
   <g id="cell49">
  <circle cx="98.4625" cy="1987.97" r="9.95852" stroke-width="0.5" stroke="black" fill="red"/>
  <circle cx="98.4625" cy="1987.97" r="6.0432" stroke-width="0.5" stroke="red" fill="red"/>
   </g>
   <g id="cell50">
  <circle cx="1141.34" cy="1108.17" r="8.5712" stroke-width="0.5" stroke="black" fill="grey"/>
  <circle cx="1141.34" cy="1108.17" r="5.17232" stroke-width="0.5" stroke="grey" fill="grey"/>
   </g>
   <g id="cell51">
  <circle cx="1122.39" cy="1269.3" r="10.4438" stroke-width="0.5" stroke="black" fill="grey"/>
  <circle cx="1122.39" cy="1269.3" r="6.29884" stroke-width="0.5" stroke="grey" fill="grey"/>
   </g>
   <g id="cell52">
  <circle cx="879.977" cy="616.323" r="10.1069" stroke-width="0.5" stroke="black" fill="grey"/>
  <circle cx="879.977" cy="616.323" r="6.12497" stroke-width="0.5" stroke="grey" fill="grey"/>
   </g>
   <g id="cell87">
  <circle cx="930.605" cy="614.79" r="10.4599" stroke-width="0.5" stroke="black" fill="grey"/>
  <circle cx="930.605" cy="614.79" r="6.30658" stroke-width="0.5" stroke="grey" fill="grey"/>
   </g>
   <g id="cell54">
  <circle cx="924.915" cy="520.883" r="9.69755" stroke-width="0.5" stroke="black" fill="grey"/>
  <circle cx="924.915" cy="520.883" r="5.89286" stroke-width="0.5" stroke="grey" fill="grey"/>
   </g>
   <g id="cell55">
  <circle cx="888.063" cy="536.019" r="10.4818" stroke-width="0.5" stroke="black" fill="grey"/>
  <circle cx="888.063" cy="536.019" r="6.31672" stroke-width="0.5" stroke="grey" fill="grey"/>
   </g>
   <g id="cell56">
  <circle cx="145.059" cy="1852.52" r="8.38448" stroke-width="0.5" stroke="black" fill="red"/>
  <circle cx="145.059" cy="1852.52" r="5.04167" stroke-width="0.5" stroke="red" fill="red"/>
   </g>
   <g id="cell57">
  <circle cx="1685.49" cy="294.416" r="10.0094" stroke-width="0.5" stroke="black" fill="red"/>
  <circle cx="1685.49" cy="294.416" r="6.07212" stroke-width="0.5" stroke="red" fill="red"/>
   </g>
   <g id="cell205">
  <circle cx="1182.24" cy="1292.92" r="8.38452" stroke-width="0.5" stroke="black" fill="grey"/>
  <circle cx="1182.24" cy="1292.92" r="5.04168" stroke-width="0.5" stroke="grey" fill="grey"/>
   </g>
   <g id="cell59">
  <circle cx="1741.6" cy="277.479" r="8.39649" stroke-width="0.5" stroke="black" fill="red"/>
  <circle cx="1741.6" cy="277.479" r="5.0463" stroke-width="0.5" stroke="red" fill="red"/>
   </g>
   <g id="cell60">
  <circle cx="1755.93" cy="1211.3" r="9.63775" stroke-width="0.5" stroke="black" fill="grey"/>
  <circle cx="1755.93" cy="1211.3" r="5.85927" stroke-width="0.5" stroke="grey" fill="grey"/>
   </g>
   <g id="cell61">
  <circle cx="1121.51" cy="1754.05" r="8.37603" stroke-width="0.5" stroke="black" fill="grey"/>
  <circle cx="1121.51" cy="1754.05" r="5.03831" stroke-width="0.5" stroke="grey" fill="grey"/>
   </g>
   <g id="cell62">
  <circle cx="1198.66" cy="1654.07" r="10.3928" stroke-width="0.5" stroke="black" fill="grey"/>
  <circle cx="1198.66" cy="1654.07" r="6.27406" stroke-width="0.5" stroke="grey" fill="grey"/>
   </g>
   <g id="cell63">
  <circle cx="1628.61" cy="356.745" r="10.359" stroke-width="0.5" stroke="black" fill="red"/>
  <circle cx="1628.61" cy="356.745" r="6.25762" stroke-width="0.5" stroke="red" fill="red"/>
   </g>
   <g id="cell64">
  <circle cx="1698.77" cy="1149.28" r="10.2712" stroke-width="0.5" stroke="black" fill="grey"/>
  <circle cx="1698.77" cy="1149.28" r="6.2125" stroke-width="0.5" stroke="grey" fill="grey"/>
   </g>
   <g id="cell115">
  <circle cx="850.863" cy="557.389" r="8.59008" stroke-width="0.5" stroke="black" fill="grey"/>
  <circle cx="850.863" cy="557.389" r="5.19198" stroke-width="0.5" stroke="grey" fill="grey"/>
   </g>
   <g id="cell202">
  <circle cx="1107.51" cy="1290.23" r="8.38952" stroke-width="0.5" stroke="black" fill="grey"/>
  <circle cx="1107.51" cy="1290.23" r="5.04364" stroke-width="0.5" stroke="grey" fill="grey"/>
   </g>
   <g id="cell67">
  <circle cx="1558.8" cy="1090.67" r="10.4611" stroke-width="0.5" stroke="black" fill="red"/>
  <circle cx="1558.8" cy="1090.67" r="6.30691" stroke-width="0.5" stroke="red" fill="red"/>
   </g>
   <g id="cell68">
  <circle cx="830.794" cy="1040.14" r="10.1613" stroke-width="0.5" stroke="black" fill="red"/>
  <circle cx="830.794" cy="1040.14" r="6.1543" stroke-width="0.5" stroke="red" fill="red"/>
   </g>
   <g id="cell69">
  <circle cx="805.458" cy="547.627" r="10.3398" stroke-width="0.5" stroke="black" fill="grey"/>
  <circle cx="805.458" cy="547.627" r="6.24748" stroke-width="0.5" stroke="grey" fill="grey"/>
   </g>
   <g id="cell70">
  <circle cx="1639.85" cy="1247.89" r="8.37722" stroke-width="0.5" stroke="black" fill="grey"/>
  <circle cx="1639.85" cy="1247.89" r="5.03877" stroke-width="0.5" stroke="grey" fill="grey"/>
   </g>
   <g id="cell71">
  <circle cx="1023.85" cy="1069.88" r="10.529" stroke-width="0.5" stroke="black" fill="grey"/>
  <circle cx="1023.85" cy="1069.88" r="6.3377" stroke-width="0.5" stroke="grey" fill="grey"/>
   </g>
   <g id="cell72">
  <circle cx="1197.09" cy="771.663" r="10.3609" stroke-width="0.5" stroke="black" fill="red"/>
  <circle cx="1197.09" cy="771.663" r="6.2582" stroke-width="0.5" stroke="red" fill="red"/>
   </g>
   <g id="cell73">
  <circle cx="1212.95" cy="1204.13" r="4.7501" stroke-width="0.5" stroke="black" fill="grey"/>
  <circle cx="1212.95" cy="1204.13" r="3.51951" stroke-width="0.5" stroke="black" fill="black"/>
   </g>
   <g id="cell74">
  <circle cx="1090.61" cy="1088.66" r="10.4144" stroke-width="0.5" stroke="black" fill="grey"/>
  <circle cx="1090.61" cy="1088.66" r="6.28477" stroke-width="0.5" stroke="grey" fill="grey"/>
   </g>
   <g id="cell75">
  <circle cx="1718.96" cy="1124.43" r="10.5034" stroke-width="0.5" stroke="black" fill="grey"/>
  <circle cx="1718.96" cy="1124.43" r="6.32643" stroke-width="0.5" stroke="grey" fill="grey"/>
   </g>
   <g id="cell76">
  <circle cx="1630.56" cy="216.857" r="9.62038" stroke-width="0.5" stroke="black" fill="red"/>
  <circle cx="1630.56" cy="216.857" r="5.84663" stroke-width="0.5" stroke="red" fill="red"/>
   </g>
   <g id="cell77">
  <circle cx="47.4286" cy="1943.02" r="10.4604" stroke-width="0.5" stroke="black" fill="red"/>
  <circle cx="47.4286" cy="1943.02" r="6.30674" stroke-width="0.5" stroke="red" fill="red"/>
   </g>
   <g id="cell128">
  <circle cx="1719.91" cy="1176.94" r="10.506" stroke-width="0.5" stroke="black" fill="grey"/>
  <circle cx="1719.91" cy="1176.94" r="6.32763" stroke-width="0.5" stroke="grey" fill="grey"/>
   </g>
   <g id="cell79">
  <circle cx="1213.43" cy="1286.08" r="8.38452" stroke-width="0.5" stroke="black" fill="grey"/>
  <circle cx="1213.43" cy="1286.08" r="5.04168" stroke-width="0.5" stroke="grey" fill="grey"/>
   </g>
   <g id="cell80">
  <circle cx="816.542" cy="461.268" r="8.39833" stroke-width="0.5" stroke="black" fill="grey"/>
  <circle cx="816.542" cy="461.268" r="5.04696" stroke-width="0.5" stroke="grey" fill="grey"/>
   </g>
   <g id="cell81">
  <circle cx="1216.91" cy="1268.57" r="9.81719" stroke-width="0.5" stroke="black" fill="grey"/>
  <circle cx="1216.91" cy="1268.57" r="5.96247" stroke-width="0.5" stroke="grey" fill="grey"/>
   </g>
   <g id="cell82">
  <circle cx="1683.76" cy="1166.76" r="10.4185" stroke-width="0.5" stroke="black" fill="red"/>
  <circle cx="1683.76" cy="1166.76" r="6.28697" stroke-width="0.5" stroke="red" fill="red"/>
   </g>
   <g id="cell83">
  <circle cx="949.618" cy="620.176" r="8.40213" stroke-width="0.5" stroke="black" fill="grey"/>
  <circle cx="949.618" cy="620.176" r="5.04832" stroke-width="0.5" stroke="grey" fill="grey"/>
   </g>
   <g id="cell84">
  <circle cx="1189.06" cy="1629.58" r="8.37429" stroke-width="0.5" stroke="black" fill="grey"/>
  <circle cx="1189.06" cy="1629.58" r="5.03753" stroke-width="0.5" stroke="grey" fill="grey"/>
   </g>
   <g id="cell85">
  <circle cx="1155.36" cy="1659.83" r="10.4675" stroke-width="0.5" stroke="black" fill="grey"/>
  <circle cx="1155.36" cy="1659.83" r="6.31015" stroke-width="0.5" stroke="grey" fill="grey"/>
   </g>
   <g id="cell88">
  <circle cx="1661.55" cy="1193.69" r="10.34" stroke-width="0.5" stroke="black" fill="grey"/>
  <circle cx="1661.55" cy="1193.69" r="6.24752" stroke-width="0.5" stroke="grey" fill="grey"/>
   </g>
   <g id="cell89">
  <circle cx="1777.23" cy="286.867" r="8.36454" stroke-width="0.5" stroke="black" fill="red"/>
  <circle cx="1777.23" cy="286.867" r="5.03346" stroke-width="0.5" stroke="red" fill="red"/>
   </g>
   <g id="cell91">
  <circle cx="1193.08" cy="1236.62" r="8.38953" stroke-width="0.5" stroke="black" fill="grey"/>
  <circle cx="1193.08" cy="1236.62" r="5.04364" stroke-width="0.5" stroke="grey" fill="grey"/>
   </g>
   <g id="cell92">
  <circle cx="1678.05" cy="1343.26" r="8.98415" stroke-width="0.5" stroke="black" fill="grey"/>
  <circle cx="1678.05" cy="1343.26" r="5.45919" stroke-width="0.5" stroke="grey" fill="grey"/>
   </g>
   <g id="cell93">
  <circle cx="812.369" cy="600.924" r="8.37836" stroke-width="0.5" stroke="black" fill="grey"/>
  <circle cx="812.369" cy="600.924" r="5.0392" stroke-width="0.5" stroke="grey" fill="grey"/>
   </g>
   <g id="cell94">
  <circle cx="870.578" cy="540.487" r="9.78997" stroke-width="0.5" stroke="black" fill="grey"/>
  <circle cx="870.578" cy="540.487" r="5.94774" stroke-width="0.5" stroke="grey" fill="grey"/>
   </g>
   <g id="cell95">
  <circle cx="1145.53" cy="1781.61" r="8.68366" stroke-width="0.5" stroke="black" fill="grey"/>
  <circle cx="1145.53" cy="1781.61" r="5.25239" stroke-width="0.5" stroke="grey" fill="grey"/>
   </g>
   <g id="cell96">
  <circle cx="1672.97" cy="304.993" r="8.68503" stroke-width="0.5" stroke="black" fill="red"/>
  <circle cx="1672.97" cy="304.993" r="5.25285" stroke-width="0.5" stroke="red" fill="red"/>
   </g>
   <g id="cell97">
  <circle cx="1163.67" cy="1342.15" r="8.40051" stroke-width="0.5" stroke="black" fill="grey"/>
  <circle cx="1163.67" cy="1342.15" r="5.04775" stroke-width="0.5" stroke="grey" fill="grey"/>
   </g>
   <g id="cell98">
  <circle cx="140.348" cy="1893.55" r="9.81189" stroke-width="0.5" stroke="black" fill="red"/>
  <circle cx="140.348" cy="1893.55" r="5.96055" stroke-width="0.5" stroke="red" fill="red"/>
   </g>
   <g id="cell99">
  <circle cx="1721.8" cy="151.524" r="10.5314" stroke-width="0.5" stroke="black" fill="red"/>
  <circle cx="1721.8" cy="151.524" r="6.33865" stroke-width="0.5" stroke="red" fill="red"/>
   </g>
   <g id="cell100">
  <circle cx="68.4172" cy="1954.65" r="9.11924" stroke-width="0.5" stroke="black" fill="red"/>
  <circle cx="68.4172" cy="1954.65" r="5.54099" stroke-width="0.5" stroke="red" fill="red"/>
   </g>
   <g id="cell102">
  <circle cx="1755.45" cy="1162.16" r="9.82176" stroke-width="0.5" stroke="black" fill="grey"/>
  <circle cx="1755.45" cy="1162.16" r="5.96392" stroke-width="0.5" stroke="grey" fill="grey"/>
   </g>
   <g id="cell103">
  <circle cx="116.378" cy="1960.8" r="8.40568" stroke-width="0.5" stroke="black" fill="red"/>
  <circle cx="116.378" cy="1960.8" r="5.04955" stroke-width="0.5" stroke="red" fill="red"/>
   </g>
   <g id="cell104">
  <circle cx="769.766" cy="902.095" r="8.44999" stroke-width="0.5" stroke="black" fill="red"/>
  <circle cx="769.766" cy="902.095" r="5.09124" stroke-width="0.5" stroke="red" fill="red"/>
   </g>
   <g id="cell105">
  <circle cx="1677.64" cy="1131.92" r="9.40266" stroke-width="0.5" stroke="black" fill="grey"/>
  <circle cx="1677.64" cy="1131.92" r="5.71734" stroke-width="0.5" stroke="grey" fill="grey"/>
   </g>
   <g id="cell106">
  <circle cx="1146.54" cy="1167.86" r="10.0805" stroke-width="0.5" stroke="black" fill="grey"/>
  <circle cx="1146.54" cy="1167.86" r="6.10981" stroke-width="0.5" stroke="grey" fill="grey"/>
   </g>
   <g id="cell107">
  <circle cx="1163.51" cy="1146.26" r="8.36712" stroke-width="0.5" stroke="black" fill="grey"/>
  <circle cx="1163.51" cy="1146.26" r="5.03456" stroke-width="0.5" stroke="grey" fill="grey"/>
   </g>
   <g id="cell108">
  <circle cx="1122.7" cy="1703.34" r="8.3901" stroke-width="0.5" stroke="black" fill="grey"/>
  <circle cx="1122.7" cy="1703.34" r="5.04387" stroke-width="0.5" stroke="grey" fill="grey"/>
   </g>
   <g id="cell110">
  <circle cx="1568.93" cy="1011.86" r="8.36959" stroke-width="0.5" stroke="black" fill="red"/>
  <circle cx="1568.93" cy="1011.86" r="5.0356" stroke-width="0.5" stroke="red" fill="red"/>
   </g>
   <g id="cell111">
  <circle cx="1219.68" cy="1354.52" r="8.79075" stroke-width="0.5" stroke="black" fill="grey"/>
  <circle cx="1219.68" cy="1354.52" r="5.32975" stroke-width="0.5" stroke="grey" fill="grey"/>
   </g>
   <g id="cell112">
  <circle cx="1260.11" cy="1301.93" r="9.03591" stroke-width="0.5" stroke="black" fill="grey"/>
  <circle cx="1260.11" cy="1301.93" r="5.48946" stroke-width="0.5" stroke="grey" fill="grey"/>
   </g>
   <g id="cell113">
  <circle cx="1248.12" cy="1450.49" r="8.40076" stroke-width="0.5" stroke="black" fill="grey"/>
  <circle cx="1248.12" cy="1450.49" r="5.04785" stroke-width="0.5" stroke="grey" fill="grey"/>
   </g>
   <g id="cell114">
  <circle cx="1705.21" cy="392.228" r="8.52697" stroke-width="0.5" stroke="black" fill="red"/>
  <circle cx="1705.21" cy="392.228" r="5.14349" stroke-width="0.5" stroke="red" fill="red"/>
   </g>
   <g id="cell116">
  <circle cx="1695.85" cy="1208.65" r="8.38937" stroke-width="0.5" stroke="black" fill="grey"/>
  <circle cx="1695.85" cy="1208.65" r="5.04361" stroke-width="0.5" stroke="grey" fill="grey"/>
   </g>
   <g id="cell117">
  <circle cx="1707.7" cy="1253.9" r="10.4255" stroke-width="0.5" stroke="black" fill="grey"/>
  <circle cx="1707.7" cy="1253.9" r="6.28999" stroke-width="0.5" stroke="grey" fill="grey"/>
   </g>
   <g id="cell118">
  <circle cx="695.303" cy="976.752" r="10.4859" stroke-width="0.5" stroke="black" fill="red"/>
  <circle cx="695.303" cy="976.752" r="6.31847" stroke-width="0.5" stroke="red" fill="red"/>
   </g>
   <g id="cell119">
  <circle cx="1064.29" cy="1121.34" r="10.4397" stroke-width="0.5" stroke="black" fill="grey"/>
  <circle cx="1064.29" cy="1121.34" r="6.29683" stroke-width="0.5" stroke="grey" fill="grey"/>
   </g>
   <g id="cell120">
  <circle cx="761.009" cy="1049.57" r="10.4859" stroke-width="0.5" stroke="black" fill="red"/>
  <circle cx="761.009" cy="1049.57" r="6.31845" stroke-width="0.5" stroke="red" fill="red"/>
   </g>
   <g id="cell121">
  <circle cx="1168.02" cy="1577.21" r="9.82141" stroke-width="0.5" stroke="black" fill="grey"/>
  <circle cx="1168.02" cy="1577.21" r="5.96382" stroke-width="0.5" stroke="grey" fill="grey"/>
   </g>
   <g id="cell122">
  <circle cx="1189.04" cy="1152.67" r="10.4302" stroke-width="0.5" stroke="black" fill="grey"/>
  <circle cx="1189.04" cy="1152.67" r="6.2923" stroke-width="0.5" stroke="grey" fill="grey"/>
   </g>
   <g id="cell123">
  <circle cx="854.107" cy="616.384" r="10.3743" stroke-width="0.5" stroke="black" fill="grey"/>
  <circle cx="854.107" cy="616.384" r="6.26486" stroke-width="0.5" stroke="grey" fill="grey"/>
   </g>
   <g id="cell124">
  <circle cx="1119.71" cy="1808.44" r="8.36811" stroke-width="0.5" stroke="black" fill="grey"/>
  <circle cx="1119.71" cy="1808.44" r="5.03502" stroke-width="0.5" stroke="grey" fill="grey"/>
   </g>
   <g id="cell125">
  <circle cx="975" cy="494.517" r="8.38167" stroke-width="0.5" stroke="black" fill="grey"/>
  <circle cx="975" cy="494.517" r="5.0406" stroke-width="0.5" stroke="grey" fill="grey"/>
   </g>
   <g id="cell126">
  <circle cx="1058.43" cy="1102.66" r="10.3806" stroke-width="0.5" stroke="black" fill="grey"/>
  <circle cx="1058.43" cy="1102.66" r="6.26801" stroke-width="0.5" stroke="grey" fill="grey"/>
   </g>
   <g id="cell127">
  <circle cx="1141.7" cy="737.662" r="9.9635" stroke-width="0.5" stroke="black" fill="red"/>
  <circle cx="1141.7" cy="737.662" r="6.04482" stroke-width="0.5" stroke="red" fill="red"/>
   </g>
   <g id="cell206">
  <circle cx="176.028" cy="1866.1" r="8.38448" stroke-width="0.5" stroke="black" fill="red"/>
  <circle cx="176.028" cy="1866.1" r="5.04167" stroke-width="0.5" stroke="red" fill="red"/>
   </g>
   <g id="cell130">
  <circle cx="36.2271" cy="1923.28" r="10.5225" stroke-width="0.5" stroke="black" fill="red"/>
  <circle cx="36.2271" cy="1923.28" r="6.33494" stroke-width="0.5" stroke="red" fill="red"/>
   </g>
   <g id="cell131">
  <circle cx="1123.35" cy="1645.34" r="9.56391" stroke-width="0.5" stroke="black" fill="grey"/>
  <circle cx="1123.35" cy="1645.34" r="5.81293" stroke-width="0.5" stroke="grey" fill="grey"/>
   </g>
   <g id="cell132">
  <circle cx="1068.79" cy="996.887" r="10.5155" stroke-width="0.5" stroke="black" fill="grey"/>
  <circle cx="1068.79" cy="996.887" r="6.33191" stroke-width="0.5" stroke="grey" fill="grey"/>
   </g>
   <g id="cell133">
  <circle cx="1628.18" cy="280.783" r="10.3313" stroke-width="0.5" stroke="black" fill="red"/>
  <circle cx="1628.18" cy="280.783" r="6.24338" stroke-width="0.5" stroke="red" fill="red"/>
   </g>
   <g id="cell134">
  <circle cx="864.197" cy="575.964" r="8.54275" stroke-width="0.5" stroke="black" fill="grey"/>
  <circle cx="864.197" cy="575.964" r="5.14899" stroke-width="0.5" stroke="grey" fill="grey"/>
   </g>
   <g id="cell135">
  <circle cx="1123.97" cy="1097.38" r="8.41082" stroke-width="0.5" stroke="black" fill="grey"/>
  <circle cx="1123.97" cy="1097.38" r="5.05117" stroke-width="0.5" stroke="grey" fill="grey"/>
   </g>
   <g id="cell136">
  <circle cx="1122.27" cy="1151.96" r="9.90518" stroke-width="0.5" stroke="black" fill="grey"/>
  <circle cx="1122.27" cy="1151.96" r="6.01204" stroke-width="0.5" stroke="grey" fill="grey"/>
   </g>
   <g id="cell137">
  <circle cx="664.697" cy="867.312" r="10.2097" stroke-width="0.5" stroke="black" fill="red"/>
  <circle cx="664.697" cy="867.312" r="6.18004" stroke-width="0.5" stroke="red" fill="red"/>
   </g>
   <g id="cell138">
  <circle cx="1610.17" cy="251.616" r="10.1224" stroke-width="0.5" stroke="black" fill="red"/>
  <circle cx="1610.17" cy="251.616" r="6.13306" stroke-width="0.5" stroke="red" fill="red"/>
   </g>
   <g id="cell139">
  <circle cx="962.367" cy="642.928" r="10.0639" stroke-width="0.5" stroke="black" fill="grey"/>
  <circle cx="962.367" cy="642.928" r="6.10103" stroke-width="0.5" stroke="grey" fill="grey"/>
   </g>
   <g id="cell140">
  <circle cx="934.941" cy="538.58" r="10.0791" stroke-width="0.5" stroke="black" fill="grey"/>
  <circle cx="934.941" cy="538.58" r="6.10942" stroke-width="0.5" stroke="grey" fill="grey"/>
   </g>
   <g id="cell141">
  <circle cx="1076.92" cy="1215.04" r="10.4194" stroke-width="0.5" stroke="black" fill="grey"/>
  <circle cx="1076.92" cy="1215.04" r="6.28723" stroke-width="0.5" stroke="grey" fill="grey"/>
   </g>
   <g id="cell142">
  <circle cx="1221.99" cy="1706.2" r="8.41053" stroke-width="0.5" stroke="black" fill="grey"/>
  <circle cx="1221.99" cy="1706.2" r="5.05109" stroke-width="0.5" stroke="grey" fill="grey"/>
   </g>
   <g id="cell143">
  <circle cx="1722.74" cy="1153.04" r="9.53369" stroke-width="0.5" stroke="black" fill="grey"/>
  <circle cx="1722.74" cy="1153.04" r="5.79505" stroke-width="0.5" stroke="grey" fill="grey"/>
   </g>
   <g id="cell144">
  <circle cx="1611.78" cy="998.903" r="8.41023" stroke-width="0.5" stroke="black" fill="red"/>
  <circle cx="1611.78" cy="998.903" r="5.051" stroke-width="0.5" stroke="red" fill="red"/>
   </g>
   <g id="cell145">
  <circle cx="1279.69" cy="1331.19" r="8.41021" stroke-width="0.5" stroke="black" fill="grey"/>
  <circle cx="1279.69" cy="1331.19" r="5.05099" stroke-width="0.5" stroke="grey" fill="grey"/>
   </g>
   <g id="cell146">
  <circle cx="1105.07" cy="1721.85" r="8.41007" stroke-width="0.5" stroke="black" fill="grey"/>
  <circle cx="1105.07" cy="1721.85" r="5.05095" stroke-width="0.5" stroke="grey" fill="grey"/>
   </g>
   <g id="cell147">
  <circle cx="803.143" cy="1072.36" r="8.40969" stroke-width="0.5" stroke="black" fill="red"/>
  <circle cx="803.143" cy="1072.36" r="5.05084" stroke-width="0.5" stroke="red" fill="red"/>
   </g>
   <g id="cell148">
  <circle cx="1204.33" cy="736.504" r="10.4083" stroke-width="0.5" stroke="black" fill="red"/>
  <circle cx="1204.33" cy="736.504" r="6.28194" stroke-width="0.5" stroke="red" fill="red"/>
   </g>
   <g id="cell149">
  <circle cx="1696.19" cy="1352.84" r="10.2307" stroke-width="0.5" stroke="black" fill="grey"/>
  <circle cx="1696.19" cy="1352.84" r="6.19137" stroke-width="0.5" stroke="grey" fill="grey"/>
   </g>
   <g id="cell150">
  <circle cx="1731.55" cy="1269.27" r="10.3726" stroke-width="0.5" stroke="black" fill="grey"/>
  <circle cx="1731.55" cy="1269.27" r="6.26437" stroke-width="0.5" stroke="grey" fill="grey"/>
   </g>
   <g id="cell151">
  <circle cx="1635.75" cy="1132.06" r="10.4025" stroke-width="0.5" stroke="black" fill="red"/>
  <circle cx="1635.75" cy="1132.06" r="6.27916" stroke-width="0.5" stroke="red" fill="red"/>
   </g>
   <g id="cell152">
  <circle cx="1528.43" cy="1074.86" r="10.4025" stroke-width="0.5" stroke="black" fill="red"/>
  <circle cx="1528.43" cy="1074.86" r="6.27916" stroke-width="0.5" stroke="red" fill="red"/>
   </g>
   <g id="cell153">
  <circle cx="1693.74" cy="148.404" r="9.67326" stroke-width="0.5" stroke="black" fill="red"/>
  <circle cx="1693.74" cy="148.404" r="5.87817" stroke-width="0.5" stroke="red" fill="red"/>
   </g>
   <g id="cell154">
  <circle cx="1677.38" cy="382.73" r="8.4089" stroke-width="0.5" stroke="black" fill="red"/>
  <circle cx="1677.38" cy="382.73" r="5.0506" stroke-width="0.5" stroke="red" fill="red"/>
   </g>
   <g id="cell155">
  <circle cx="878.238" cy="639.638" r="8.40847" stroke-width="0.5" stroke="black" fill="grey"/>
  <circle cx="878.238" cy="639.638" r="5.05046" stroke-width="0.5" stroke="grey" fill="grey"/>
   </g>
   <g id="cell156">
  <circle cx="1747.38" cy="1252.86" r="9.43921" stroke-width="0.5" stroke="black" fill="grey"/>
  <circle cx="1747.38" cy="1252.86" r="5.73851" stroke-width="0.5" stroke="grey" fill="grey"/>
   </g>
   <g id="cell157">
  <circle cx="85.6919" cy="1963.38" r="10.3719" stroke-width="0.5" stroke="black" fill="red"/>
  <circle cx="85.6919" cy="1963.38" r="6.26415" stroke-width="0.5" stroke="red" fill="red"/>
   </g>
   <g id="cell158">
  <circle cx="1644.67" cy="266.994" r="8.4279" stroke-width="0.5" stroke="black" fill="red"/>
  <circle cx="1644.67" cy="266.994" r="5.0642" stroke-width="0.5" stroke="red" fill="red"/>
   </g>
   <g id="cell159">
  <circle cx="823.037" cy="875.159" r="9.88224" stroke-width="0.5" stroke="black" fill="red"/>
  <circle cx="823.037" cy="875.159" r="5.99962" stroke-width="0.5" stroke="red" fill="red"/>
   </g>
   <g id="cell160">
  <circle cx="45.9488" cy="1959.45" r="8.40692" stroke-width="0.5" stroke="black" fill="red"/>
  <circle cx="45.9488" cy="1959.45" r="5.04997" stroke-width="0.5" stroke="red" fill="red"/>
   </g>
   <g id="cell161">
  <circle cx="891.708" cy="518.843" r="9.46963" stroke-width="0.5" stroke="black" fill="grey"/>
  <circle cx="891.708" cy="518.843" r="5.75726" stroke-width="0.5" stroke="grey" fill="grey"/>
   </g>
   <g id="cell162">
  <circle cx="1512.06" cy="1043.02" r="10.1956" stroke-width="0.5" stroke="black" fill="red"/>
  <circle cx="1512.06" cy="1043.02" r="6.17311" stroke-width="0.5" stroke="red" fill="red"/>
   </g>
   <g id="cell163">
  <circle cx="1171.07" cy="1776.48" r="10.1716" stroke-width="0.5" stroke="black" fill="grey"/>
  <circle cx="1171.07" cy="1776.48" r="6.16032" stroke-width="0.5" stroke="grey" fill="grey"/>
   </g>
   <g id="cell164">
  <circle cx="1233.64" cy="1226.01" r="10.159" stroke-width="0.5" stroke="black" fill="grey"/>
  <circle cx="1233.64" cy="1226.01" r="6.15354" stroke-width="0.5" stroke="grey" fill="grey"/>
   </g>
   <g id="cell165">
  <circle cx="47.6326" cy="1977.48" r="10.0123" stroke-width="0.5" stroke="black" fill="red"/>
  <circle cx="47.6326" cy="1977.48" r="6.07311" stroke-width="0.5" stroke="red" fill="red"/>
   </g>
   <g id="cell166">
  <circle cx="1200.35" cy="1802.9" r="9.00229" stroke-width="0.5" stroke="black" fill="grey"/>
  <circle cx="1200.35" cy="1802.9" r="5.46621" stroke-width="0.5" stroke="grey" fill="grey"/>
   </g>
   <g id="cell167">
  <circle cx="137.982" cy="1971.79" r="8.40568" stroke-width="0.5" stroke="black" fill="red"/>
  <circle cx="137.982" cy="1971.79" r="5.04955" stroke-width="0.5" stroke="red" fill="red"/>
   </g>
   <g id="cell168">
  <circle cx="881.763" cy="890.609" r="8.40533" stroke-width="0.5" stroke="black" fill="red"/>
  <circle cx="881.763" cy="890.609" r="5.04943" stroke-width="0.5" stroke="red" fill="red"/>
   </g>
   <g id="cell169">
  <circle cx="1114.02" cy="1182.02" r="9.61615" stroke-width="0.5" stroke="black" fill="grey"/>
  <circle cx="1114.02" cy="1182.02" r="5.84521" stroke-width="0.5" stroke="grey" fill="grey"/>
   </g>
   <g id="cell170">
  <circle cx="74.1288" cy="1988.57" r="9.79341" stroke-width="0.5" stroke="black" fill="red"/>
  <circle cx="74.1288" cy="1988.57" r="5.94899" stroke-width="0.5" stroke="red" fill="red"/>
   </g>
   <g id="cell171">
  <circle cx="1187.12" cy="1306.17" r="9.81551" stroke-width="0.5" stroke="black" fill="grey"/>
  <circle cx="1187.12" cy="1306.17" r="5.96187" stroke-width="0.5" stroke="grey" fill="grey"/>
   </g>
   <g id="cell172">
  <circle cx="1214.46" cy="1746.25" r="8.40376" stroke-width="0.5" stroke="black" fill="grey"/>
  <circle cx="1214.46" cy="1746.25" r="5.04889" stroke-width="0.5" stroke="grey" fill="grey"/>
   </g>
   <g id="cell173">
  <circle cx="1507.23" cy="1076.96" r="8.40375" stroke-width="0.5" stroke="black" fill="red"/>
  <circle cx="1507.23" cy="1076.96" r="5.04889" stroke-width="0.5" stroke="red" fill="red"/>
   </g>
   <g id="cell174">
  <circle cx="1639.66" cy="154.619" r="10.1176" stroke-width="0.5" stroke="black" fill="red"/>
  <circle cx="1639.66" cy="154.619" r="6.13148" stroke-width="0.5" stroke="red" fill="red"/>
   </g>
   <g id="cell175">
  <circle cx="1654.27" cy="1149.15" r="8.40343" stroke-width="0.5" stroke="black" fill="grey"/>
  <circle cx="1654.27" cy="1149.15" r="5.04879" stroke-width="0.5" stroke="grey" fill="grey"/>
   </g>
   <g id="cell176">
  <circle cx="803.183" cy="968.016" r="8.40288" stroke-width="0.5" stroke="black" fill="red"/>
  <circle cx="803.183" cy="968.016" r="5.0486" stroke-width="0.5" stroke="red" fill="red"/>
   </g>
   <g id="cell177">
  <circle cx="797.068" cy="878.484" r="10.01" stroke-width="0.5" stroke="black" fill="red"/>
  <circle cx="797.068" cy="878.484" r="6.07233" stroke-width="0.5" stroke="red" fill="red"/>
   </g>
   <g id="cell178">
  <circle cx="913.874" cy="618.31" r="9.89895" stroke-width="0.5" stroke="black" fill="grey"/>
  <circle cx="913.874" cy="618.31" r="6.00991" stroke-width="0.5" stroke="grey" fill="grey"/>
   </g>
   <g id="cell179">
  <circle cx="1660.88" cy="276.355" r="9.22803" stroke-width="0.5" stroke="black" fill="red"/>
  <circle cx="1660.88" cy="276.355" r="5.61016" stroke-width="0.5" stroke="red" fill="red"/>
   </g>
   <g id="cell180">
  <circle cx="1702.54" cy="1164" r="8.40151" stroke-width="0.5" stroke="black" fill="grey"/>
  <circle cx="1702.54" cy="1164" r="5.04811" stroke-width="0.5" stroke="grey" fill="grey"/>
   </g>
   <g id="cell181">
  <circle cx="1675.07" cy="1200.13" r="8.40113" stroke-width="0.5" stroke="black" fill="grey"/>
  <circle cx="1675.07" cy="1200.13" r="5.04798" stroke-width="0.5" stroke="grey" fill="grey"/>
   </g>
   <g id="cell182">
  <circle cx="1233.83" cy="1472.63" r="9.40053" stroke-width="0.5" stroke="black" fill="grey"/>
  <circle cx="1233.83" cy="1472.63" r="5.71656" stroke-width="0.5" stroke="grey" fill="grey"/>
   </g>
   <g id="cell183">
  <circle cx="1119.23" cy="1738.2" r="8.40079" stroke-width="0.5" stroke="black" fill="grey"/>
  <circle cx="1119.23" cy="1738.2" r="5.04786" stroke-width="0.5" stroke="grey" fill="grey"/>
   </g>
   <g id="cell184">
  <circle cx="1131.81" cy="1179.68" r="9.40029" stroke-width="0.5" stroke="black" fill="grey"/>
  <circle cx="1131.81" cy="1179.68" r="5.71647" stroke-width="0.5" stroke="grey" fill="grey"/>
   </g>
   <g id="cell185">
  <circle cx="1218.39" cy="1330.8" r="9.85655" stroke-width="0.5" stroke="black" fill="grey"/>
  <circle cx="1218.39" cy="1330.8" r="5.98598" stroke-width="0.5" stroke="grey" fill="grey"/>
   </g>
   <g id="cell186">
  <circle cx="783.553" cy="530.094" r="8.40055" stroke-width="0.5" stroke="black" fill="grey"/>
  <circle cx="783.553" cy="530.094" r="5.04776" stroke-width="0.5" stroke="grey" fill="grey"/>
   </g>
   <g id="cell187">
  <circle cx="1135.65" cy="1210.17" r="8.7963" stroke-width="0.5" stroke="black" fill="grey"/>
  <circle cx="1135.65" cy="1210.17" r="5.33186" stroke-width="0.5" stroke="grey" fill="grey"/>
   </g>
   <g id="cell188">
  <circle cx="866.525" cy="519.656" r="8.99713" stroke-width="0.5" stroke="black" fill="grey"/>
  <circle cx="866.525" cy="519.656" r="5.46432" stroke-width="0.5" stroke="grey" fill="grey"/>
   </g>
   <g id="cell189">
  <circle cx="1295.28" cy="1289.91" r="9.43196" stroke-width="0.5" stroke="black" fill="grey"/>
  <circle cx="1295.28" cy="1289.91" r="5.7359" stroke-width="0.5" stroke="grey" fill="grey"/>
   </g>
   <g id="cell190">
  <circle cx="181.693" cy="1937.44" r="8.39907" stroke-width="0.5" stroke="black" fill="red"/>
  <circle cx="181.693" cy="1937.44" r="5.04723" stroke-width="0.5" stroke="red" fill="red"/>
   </g>
   <g id="cell191">
  <circle cx="800.738" cy="425.699" r="9.63844" stroke-width="0.5" stroke="black" fill="grey"/>
  <circle cx="800.738" cy="425.699" r="5.85952" stroke-width="0.5" stroke="grey" fill="grey"/>
   </g>
   <g id="cell192">
  <circle cx="1750.1" cy="1194.79" r="9.26032" stroke-width="0.5" stroke="black" fill="grey"/>
  <circle cx="1750.1" cy="1194.79" r="5.63114" stroke-width="0.5" stroke="grey" fill="grey"/>
   </g>
   <g id="cell193">
  <circle cx="1752.02" cy="323.403" r="8.39649" stroke-width="0.5" stroke="black" fill="red"/>
  <circle cx="1752.02" cy="323.403" r="5.0463" stroke-width="0.5" stroke="red" fill="red"/>
   </g>
   <g id="cell194">
  <circle cx="1704.12" cy="377.286" r="9.22182" stroke-width="0.5" stroke="black" fill="red"/>
  <circle cx="1704.12" cy="377.286" r="5.60779" stroke-width="0.5" stroke="red" fill="red"/>
   </g>
   <g id="cell195">
  <circle cx="1203.34" cy="1365.85" r="8.3941" stroke-width="0.5" stroke="black" fill="grey"/>
  <circle cx="1203.34" cy="1365.85" r="5.0454" stroke-width="0.5" stroke="grey" fill="grey"/>
   </g>
   <g id="cell196">
  <circle cx="1724.39" cy="267.234" r="8.39257" stroke-width="0.5" stroke="black" fill="red"/>
  <circle cx="1724.39" cy="267.234" r="5.04481" stroke-width="0.5" stroke="red" fill="red"/>
   </g>
   <g id="cell197">
  <circle cx="780.072" cy="1012.44" r="8.39117" stroke-width="0.5" stroke="black" fill="red"/>
  <circle cx="780.072" cy="1012.44" r="5.04431" stroke-width="0.5" stroke="red" fill="red"/>
   </g>
   <g id="cell198">
  <circle cx="1153.3" cy="1701.12" r="9.06704" stroke-width="0.5" stroke="black" fill="grey"/>
  <circle cx="1153.3" cy="1701.12" r="5.51131" stroke-width="0.5" stroke="grey" fill="grey"/>
   </g>
   <g id="cell199">
  <circle cx="1706.71" cy="1223.22" r="8.59199" stroke-width="0.5" stroke="black" fill="grey"/>
  <circle cx="1706.71" cy="1223.22" r="5.19274" stroke-width="0.5" stroke="grey" fill="grey"/>
   </g>
   <g id="cell200">
  <circle cx="1694.67" cy="1237.03" r="8.38936" stroke-width="0.5" stroke="black" fill="grey"/>
  <circle cx="1694.67" cy="1237.03" r="5.0436" stroke-width="0.5" stroke="grey" fill="grey"/>
   </g>
   <g id="cell201">
  <circle cx="1184.68" cy="1252.37" r="8.98785" stroke-width="0.5" stroke="black" fill="grey"/>
  <circle cx="1184.68" cy="1252.37" r="5.46069" stroke-width="0.5" stroke="grey" fill="grey"/>
   </g>
   <g id="cell203">
  <circle cx="883.91" cy="571.022" r="8.38737" stroke-width="0.5" stroke="black" fill="grey"/>
  <circle cx="883.91" cy="571.022" r="5.04282" stroke-width="0.5" stroke="grey" fill="grey"/>
   </g>
   <g id="cell204">
  <circle cx="1682.63" cy="1362.01" r="8.38528" stroke-width="0.5" stroke="black" fill="grey"/>
  <circle cx="1682.63" cy="1362.01" r="5.04198" stroke-width="0.5" stroke="grey" fill="grey"/>
   </g>
   <g id="cell207">
  <circle cx="970.319" cy="515.698" r="8.38167" stroke-width="0.5" stroke="black" fill="grey"/>
  <circle cx="970.319" cy="515.698" r="5.0406" stroke-width="0.5" stroke="grey" fill="grey"/>
   </g>
   <g id="cell208">
  <circle cx="778.875" cy="882.055" r="8.37926" stroke-width="0.5" stroke="black" fill="red"/>
  <circle cx="778.875" cy="882.055" r="5.03958" stroke-width="0.5" stroke="red" fill="red"/>
   </g>
   <g id="cell209">
  <circle cx="826.123" cy="604.879" r="8.37836" stroke-width="0.5" stroke="black" fill="grey"/>
  <circle cx="826.123" cy="604.879" r="5.0392" stroke-width="0.5" stroke="grey" fill="grey"/>
   </g>
   <g id="cell210">
  <circle cx="1655.07" cy="1255.88" r="8.37722" stroke-width="0.5" stroke="black" fill="grey"/>
  <circle cx="1655.07" cy="1255.88" r="5.03877" stroke-width="0.5" stroke="grey" fill="grey"/>
   </g>
   <g id="cell211">
  <circle cx="1116.71" cy="1776.61" r="8.37603" stroke-width="0.5" stroke="black" fill="grey"/>
  <circle cx="1116.71" cy="1776.61" r="5.03831" stroke-width="0.5" stroke="grey" fill="grey"/>
   </g>
   <g id="cell212">
  <circle cx="1216.06" cy="1307.7" r="8.37627" stroke-width="0.5" stroke="black" fill="grey"/>
  <circle cx="1216.06" cy="1307.7" r="5.03837" stroke-width="0.5" stroke="grey" fill="grey"/>
   </g>
   <g id="cell213">
  <circle cx="1203.21" cy="1613.25" r="8.37429" stroke-width="0.5" stroke="black" fill="grey"/>
  <circle cx="1203.21" cy="1613.25" r="5.03753" stroke-width="0.5" stroke="grey" fill="grey"/>
   </g>
   <g id="cell214">
  <circle cx="1703.38" cy="234.844" r="8.37313" stroke-width="0.5" stroke="black" fill="red"/>
  <circle cx="1703.38" cy="234.844" r="5.03707" stroke-width="0.5" stroke="red" fill="red"/>
   </g>
   <g id="cell215">
  <circle cx="1180.66" cy="1359.28" r="8.37079" stroke-width="0.5" stroke="black" fill="grey"/>
  <circle cx="1180.66" cy="1359.28" r="5.0361" stroke-width="0.5" stroke="grey" fill="grey"/>
   </g>
   <g id="cell216">
  <circle cx="1563.09" cy="1024.46" r="8.36959" stroke-width="0.5" stroke="black" fill="red"/>
  <circle cx="1563.09" cy="1024.46" r="5.0356" stroke-width="0.5" stroke="red" fill="red"/>
   </g>
   <g id="cell217">
  <circle cx="1136.57" cy="1811.05" r="8.36811" stroke-width="0.5" stroke="black" fill="grey"/>
  <circle cx="1136.57" cy="1811.05" r="5.03502" stroke-width="0.5" stroke="grey" fill="grey"/>
   </g>
   <g id="cell218">
  <circle cx="1152.24" cy="1140.25" r="8.36712" stroke-width="0.5" stroke="black" fill="grey"/>
  <circle cx="1152.24" cy="1140.25" r="5.03456" stroke-width="0.5" stroke="grey" fill="grey"/>
   </g>
   <g id="cell219">
  <circle cx="1790.7" cy="273.308" r="8.36454" stroke-width="0.5" stroke="black" fill="red"/>
  <circle cx="1790.7" cy="273.308" r="5.03346" stroke-width="0.5" stroke="red" fill="red"/>
   </g>
  </g>
 </g>
  <rect x="1750" y="2070" width="200" height="20" stroke-width="4" stroke="rgb(255,255,255)" fill="rgb(0,0,0)"/>
  <text x="1762.5" y="2057.5"
   font-family="Arial" font-size="50" fill="black" >
   200 &#956;m
  </text>
  <text x="50" y="2090"
   font-family="Arial" font-size="37.5" fill="black" >
   0 days, 0 hours, 2 minutes, and 2.1408 seconds
  </text>
  <rect x="0" y="140" width="2000" height="2000" stroke-width="4" stroke="rgb(0,0,0)" fill="none"/>
</svg>
