<?xml version="1.0" encoding="UTF-8" standalone="no"?>
<!-- Created with PhysiCell (http://PhysiCell.MathCancer.org/) -->
<svg 
 xmlns:dc="http://purl.org/dc/elements/1.1/" 
 xmlns:cc="http://creativecommons.org/ns#" 
 xmlns:rdf="http://www.w3.org/1999/02/22-rdf-syntax-ns#" 
 xmlns:svg="http://www.w3.org/2000/svg" 
 xmlns="http://www.w3.org/2000/svg" 
 version="1.1" 
 width="2000" 
 height="2140" 
 id="svg2">
  <rect x="0" y="0" width="2000" height="2140" stroke-width="4" stroke="white" fill="white"/>
  <text x="25" y="60"
   font-family="Arial" font-size="50" fill="black" >
   Current time: 0 days, 20 hours, and 0.00 minutes, z = 0.00 &#956;m
  </text>
  <text x="25" y="115"
   font-family="Arial" font-size="47.5" fill="black" >
   18 agents
  </text>
 <g id="tissue" 
    transform="translate(0,2140) scale(1,-1)">
  <g id="ECM">
  </g>
  <g id="cells">
   <g id="cell0">
  <circle cx="1127.99" cy="1212.92" r="8.79265" stroke-width="0.5" stroke="black" fill="grey"/>
  <circle cx="1127.99" cy="1212.92" r="5.33047" stroke-width="0.5" stroke="grey" fill="grey"/>
   </g>
   <g id="cell1">
  <circle cx="1684.87" cy="1232.88" r="10.5333" stroke-width="0.5" stroke="black" fill="grey"/>
  <circle cx="1684.87" cy="1232.88" r="6.33948" stroke-width="0.5" stroke="grey" fill="grey"/>
   </g>
   <g id="cell2">
  <circle cx="1163.44" cy="1691.57" r="9.02801" stroke-width="0.5" stroke="black" fill="grey"/>
  <circle cx="1163.44" cy="1691.57" r="5.48635" stroke-width="0.5" stroke="grey" fill="grey"/>
   </g>
   <g id="cell3">
  <circle cx="1258.59" cy="1290.68" r="8.99365" stroke-width="0.5" stroke="black" fill="grey"/>
  <circle cx="1258.59" cy="1290.68" r="5.46298" stroke-width="0.5" stroke="grey" fill="grey"/>
   </g>
   <g id="cell4">
  <circle cx="860.439" cy="555.663" r="8.39874" stroke-width="0.5" stroke="black" fill="grey"/>
  <circle cx="860.439" cy="555.663" r="5.04711" stroke-width="0.5" stroke="grey" fill="grey"/>
   </g>
   <g id="cell5">
  <circle cx="119.218" cy="1928.9" r="8.4009" stroke-width="0.5" stroke="black" fill="red"/>
  <circle cx="119.218" cy="1928.9" r="5.04788" stroke-width="0.5" stroke="red" fill="red"/>
   </g>
   <g id="cell6">
  <circle cx="770.296" cy="921.308" r="10.4156" stroke-width="0.5" stroke="black" fill="red"/>
  <circle cx="770.296" cy="921.308" r="6.2851" stroke-width="0.5" stroke="red" fill="red"/>
   </g>
   <g id="cell7">
  <circle cx="1585.71" cy="1016.5" r="4.67235" stroke-width="0.5" stroke="black" fill="red"/>
  <circle cx="1585.71" cy="1016.5" r="3.39142" stroke-width="0.5" stroke="black" fill="black"/>
   </g>
   <g id="cell8">
  <circle cx="1127.68" cy="746.859" r="7.49402" stroke-width="0.5" stroke="black" fill="red"/>
  <circle cx="1127.68" cy="746.859" r="4.63883" stroke-width="0.5" stroke="black" fill="black"/>
   </g>
   <g id="cell9">
  <circle cx="1688.98" cy="187.516" r="8.37208" stroke-width="0.5" stroke="black" fill="red"/>
  <circle cx="1688.98" cy="187.516" r="5.03661" stroke-width="0.5" stroke="red" fill="red"/>
   </g>
   <g id="cell11">
  <circle cx="1567.1" cy="1036.77" r="9.58533" stroke-width="0.5" stroke="black" fill="red"/>
  <circle cx="1567.1" cy="1036.77" r="5.82753" stroke-width="0.5" stroke="red" fill="red"/>
   </g>
   <g id="cell12">
  <circle cx="111.452" cy="1950.57" r="1.92482" stroke-width="0.5" stroke="black" fill="red"/>
  <circle cx="111.452" cy="1950.57" r="1.83969" stroke-width="0.5" stroke="black" fill="black"/>
   </g>
   <g id="cell13">
  <circle cx="838.766" cy="572.372" r="8.39874" stroke-width="0.5" stroke="black" fill="grey"/>
  <circle cx="838.766" cy="572.372" r="5.04711" stroke-width="0.5" stroke="grey" fill="grey"/>
   </g>
   <g id="cell14">
  <circle cx="1230.32" cy="1291.16" r="8.39618" stroke-width="0.5" stroke="black" fill="grey"/>
  <circle cx="1230.32" cy="1291.16" r="5.04616" stroke-width="0.5" stroke="grey" fill="grey"/>
   </g>
   <g id="cell15">
  <circle cx="1109.29" cy="1199.16" r="8.39618" stroke-width="0.5" stroke="black" fill="grey"/>
  <circle cx="1109.29" cy="1199.16" r="5.04616" stroke-width="0.5" stroke="grey" fill="grey"/>
   </g>
   <g id="cell16">
  <circle cx="1165.14" cy="1721.03" r="8.39021" stroke-width="0.5" stroke="black" fill="grey"/>
  <circle cx="1165.14" cy="1721.03" r="5.0439" stroke-width="0.5" stroke="grey" fill="grey"/>
   </g>
   <g id="cell17">
  <circle cx="1111.82" cy="763.571" r="8.55295" stroke-width="0.5" stroke="black" fill="red"/>
  <circle cx="1111.82" cy="763.571" r="5.16543" stroke-width="0.5" stroke="red" fill="red"/>
   </g>
   <g id="cell18">
  <circle cx="1672.25" cy="186.225" r="8.37208" stroke-width="0.5" stroke="black" fill="red"/>
  <circle cx="1672.25" cy="186.225" r="5.03661" stroke-width="0.5" stroke="red" fill="red"/>
   </g>
  </g>
 </g>
  <rect x="1750" y="2070" width="200" height="20" stroke-width="4" stroke="rgb(255,255,255)" fill="rgb(0,0,0)"/>
  <text x="1762.5" y="2057.5"
   font-family="Arial" font-size="50" fill="black" >
   200 &#956;m
  </text>
  <text x="50" y="2090"
   font-family="Arial" font-size="37.5" fill="black" >
   0 days, 0 hours, 0 minutes, and 25.6977 seconds
  </text>
  <rect x="0" y="140" width="2000" height="2000" stroke-width="4" stroke="rgb(0,0,0)" fill="none"/>
</svg>
