<?xml version="1.0" encoding="UTF-8" standalone="no"?>
<!-- Created with PhysiCell (http://PhysiCell.MathCancer.org/) -->
<svg 
 xmlns:dc="http://purl.org/dc/elements/1.1/" 
 xmlns:cc="http://creativecommons.org/ns#" 
 xmlns:rdf="http://www.w3.org/1999/02/22-rdf-syntax-ns#" 
 xmlns:svg="http://www.w3.org/2000/svg" 
 xmlns="http://www.w3.org/2000/svg" 
 version="1.1" 
 width="2000" 
 height="2140" 
 id="svg2">
  <rect x="0" y="0" width="2000" height="2140" stroke-width="4" stroke="white" fill="white"/>
  <text x="25" y="60"
   font-family="Arial" font-size="50" fill="black" >
   Current time: 0 days, 8 hours, and 30.00 minutes, z = 0.00 &#956;m
  </text>
  <text x="25" y="115"
   font-family="Arial" font-size="47.5" fill="black" >
   100 agents
  </text>
 <g id="tissue" 
    transform="translate(0,2140) scale(1,-1)">
  <g id="ECM">
  </g>
  <g id="cells">
   <g id="cell0">
  <circle cx="1126.88" cy="1166.19" r="9.84395" stroke-width="0.5" stroke="black" fill="grey"/>
  <circle cx="1126.88" cy="1166.19" r="5.97665" stroke-width="0.5" stroke="grey" fill="grey"/>
   </g>
   <g id="cell1">
  <circle cx="1687.92" cy="1165.83" r="9.4743" stroke-width="0.5" stroke="black" fill="grey"/>
  <circle cx="1687.92" cy="1165.83" r="5.75875" stroke-width="0.5" stroke="grey" fill="grey"/>
   </g>
   <g id="cell2">
  <circle cx="1127.91" cy="1707" r="10.0955" stroke-width="0.5" stroke="black" fill="grey"/>
  <circle cx="1127.91" cy="1707" r="6.11797" stroke-width="0.5" stroke="grey" fill="grey"/>
   </g>
   <g id="cell3">
  <circle cx="1235.02" cy="1275.45" r="10.3247" stroke-width="0.5" stroke="black" fill="grey"/>
  <circle cx="1235.02" cy="1275.45" r="6.23971" stroke-width="0.5" stroke="grey" fill="grey"/>
   </g>
   <g id="cell4">
  <circle cx="839.772" cy="615.896" r="10.1758" stroke-width="0.5" stroke="black" fill="grey"/>
  <circle cx="839.772" cy="615.896" r="6.16159" stroke-width="0.5" stroke="grey" fill="grey"/>
   </g>
   <g id="cell5">
  <circle cx="103.132" cy="1961.61" r="8.41271" stroke-width="0.5" stroke="black" fill="grey"/>
  <circle cx="103.132" cy="1961.61" r="5.05167" stroke-width="0.5" stroke="grey" fill="grey"/>
   </g>
   <g id="cell6">
  <circle cx="782.112" cy="920.039" r="9.96412" stroke-width="0.5" stroke="black" fill="grey"/>
  <circle cx="782.112" cy="920.039" r="6.04499" stroke-width="0.5" stroke="grey" fill="grey"/>
   </g>
   <g id="cell7">
  <circle cx="1637.87" cy="1064.67" r="10.1634" stroke-width="0.5" stroke="black" fill="grey"/>
  <circle cx="1637.87" cy="1064.67" r="6.1549" stroke-width="0.5" stroke="grey" fill="grey"/>
   </g>
   <g id="cell8">
  <circle cx="1122.94" cy="785.567" r="9.98223" stroke-width="0.5" stroke="black" fill="grey"/>
  <circle cx="1122.94" cy="785.567" r="6.05517" stroke-width="0.5" stroke="grey" fill="grey"/>
   </g>
   <g id="cell9">
  <circle cx="1700" cy="132.418" r="9.12489" stroke-width="0.5" stroke="black" fill="grey"/>
  <circle cx="1700" cy="132.418" r="5.54282" stroke-width="0.5" stroke="grey" fill="grey"/>
   </g>
   <g id="cell10">
  <circle cx="163.611" cy="1283.57" r="10.2999" stroke-width="0.5" stroke="black" fill="grey"/>
  <circle cx="163.611" cy="1283.57" r="6.22699" stroke-width="0.5" stroke="grey" fill="grey"/>
   </g>
   <g id="cell11">
  <circle cx="707.04" cy="1691.59" r="9.86542" stroke-width="0.5" stroke="black" fill="grey"/>
  <circle cx="707.04" cy="1691.59" r="5.98895" stroke-width="0.5" stroke="grey" fill="grey"/>
   </g>
   <g id="cell12">
  <circle cx="1543.43" cy="344.44" r="10.1098" stroke-width="0.5" stroke="black" fill="grey"/>
  <circle cx="1543.43" cy="344.44" r="6.12585" stroke-width="0.5" stroke="grey" fill="grey"/>
   </g>
   <g id="cell13">
  <circle cx="1765.63" cy="1956.62" r="8.72828" stroke-width="0.5" stroke="black" fill="grey"/>
  <circle cx="1765.63" cy="1956.62" r="5.28134" stroke-width="0.5" stroke="grey" fill="grey"/>
   </g>
   <g id="cell14">
  <circle cx="1585.59" cy="1578.96" r="9.7992" stroke-width="0.5" stroke="black" fill="grey"/>
  <circle cx="1585.59" cy="1578.96" r="5.95086" stroke-width="0.5" stroke="grey" fill="grey"/>
   </g>
   <g id="cell15">
  <circle cx="1027.4" cy="1599.07" r="10.2911" stroke-width="0.5" stroke="black" fill="grey"/>
  <circle cx="1027.4" cy="1599.07" r="6.22246" stroke-width="0.5" stroke="grey" fill="grey"/>
   </g>
   <g id="cell16">
  <circle cx="240.859" cy="1456.03" r="10.2911" stroke-width="0.5" stroke="black" fill="grey"/>
  <circle cx="240.859" cy="1456.03" r="6.22246" stroke-width="0.5" stroke="grey" fill="grey"/>
   </g>
   <g id="cell17">
  <circle cx="1179.66" cy="300.391" r="10.2911" stroke-width="0.5" stroke="black" fill="grey"/>
  <circle cx="1179.66" cy="300.391" r="6.22246" stroke-width="0.5" stroke="grey" fill="grey"/>
   </g>
   <g id="cell18">
  <circle cx="1871.7" cy="1531.11" r="8.41271" stroke-width="0.5" stroke="black" fill="grey"/>
  <circle cx="1871.7" cy="1531.11" r="5.05167" stroke-width="0.5" stroke="grey" fill="grey"/>
   </g>
   <g id="cell19">
  <circle cx="194.801" cy="849.591" r="8.41271" stroke-width="0.5" stroke="black" fill="grey"/>
  <circle cx="194.801" cy="849.591" r="5.05167" stroke-width="0.5" stroke="grey" fill="grey"/>
   </g>
   <g id="cell20">
  <circle cx="547.023" cy="362.292" r="10.2221" stroke-width="0.5" stroke="black" fill="grey"/>
  <circle cx="547.023" cy="362.292" r="6.18628" stroke-width="0.5" stroke="grey" fill="grey"/>
   </g>
   <g id="cell21">
  <circle cx="1454.85" cy="917.964" r="9.96412" stroke-width="0.5" stroke="black" fill="grey"/>
  <circle cx="1454.85" cy="917.964" r="6.04499" stroke-width="0.5" stroke="grey" fill="grey"/>
   </g>
   <g id="cell22">
  <circle cx="1168.08" cy="238.435" r="10.2728" stroke-width="0.5" stroke="black" fill="grey"/>
  <circle cx="1168.08" cy="238.435" r="6.21295" stroke-width="0.5" stroke="grey" fill="grey"/>
   </g>
   <g id="cell23">
  <circle cx="633.287" cy="1214.42" r="10.2328" stroke-width="0.5" stroke="black" fill="grey"/>
  <circle cx="633.287" cy="1214.42" r="6.19197" stroke-width="0.5" stroke="grey" fill="grey"/>
   </g>
   <g id="cell24">
  <circle cx="1233.49" cy="441.016" r="1.92875" stroke-width="0.5" stroke="black" fill="grey"/>
  <circle cx="1233.49" cy="441.016" r="1.8429" stroke-width="0.5" stroke="black" fill="black"/>
   </g>
   <g id="cell25">
  <circle cx="744.978" cy="1902.63" r="10.2433" stroke-width="0.5" stroke="black" fill="grey"/>
  <circle cx="744.978" cy="1902.63" r="6.19748" stroke-width="0.5" stroke="grey" fill="grey"/>
   </g>
   <g id="cell26">
  <circle cx="1392.03" cy="911.78" r="8.48289" stroke-width="0.5" stroke="black" fill="grey"/>
  <circle cx="1392.03" cy="911.78" r="5.10317" stroke-width="0.5" stroke="grey" fill="grey"/>
   </g>
   <g id="cell27">
  <circle cx="1222.18" cy="833.806" r="10.1634" stroke-width="0.5" stroke="black" fill="grey"/>
  <circle cx="1222.18" cy="833.806" r="6.1549" stroke-width="0.5" stroke="grey" fill="grey"/>
   </g>
   <g id="cell28">
  <circle cx="1399.62" cy="208.269" r="10.3166" stroke-width="0.5" stroke="black" fill="grey"/>
  <circle cx="1399.62" cy="208.269" r="6.23561" stroke-width="0.5" stroke="grey" fill="grey"/>
   </g>
   <g id="cell29">
  <circle cx="1931.27" cy="1331.12" r="10.3166" stroke-width="0.5" stroke="black" fill="grey"/>
  <circle cx="1931.27" cy="1331.12" r="6.23561" stroke-width="0.5" stroke="grey" fill="grey"/>
   </g>
   <g id="cell30">
  <circle cx="1356.36" cy="357.516" r="8.84788" stroke-width="0.5" stroke="black" fill="grey"/>
  <circle cx="1356.36" cy="357.516" r="5.36278" stroke-width="0.5" stroke="grey" fill="grey"/>
   </g>
   <g id="cell31">
  <circle cx="704.768" cy="278.588" r="9.77588" stroke-width="0.5" stroke="black" fill="grey"/>
  <circle cx="704.768" cy="278.588" r="5.93735" stroke-width="0.5" stroke="grey" fill="grey"/>
   </g>
   <g id="cell32">
  <circle cx="673.387" cy="1210.76" r="10.3615" stroke-width="0.5" stroke="black" fill="grey"/>
  <circle cx="673.387" cy="1210.76" r="6.25834" stroke-width="0.5" stroke="grey" fill="grey"/>
   </g>
   <g id="cell33">
  <circle cx="632.147" cy="1134.28" r="9.12489" stroke-width="0.5" stroke="black" fill="grey"/>
  <circle cx="632.147" cy="1134.28" r="5.54282" stroke-width="0.5" stroke="grey" fill="grey"/>
   </g>
   <g id="cell34">
  <circle cx="876.615" cy="1285.65" r="9.88629" stroke-width="0.5" stroke="black" fill="grey"/>
  <circle cx="876.615" cy="1285.65" r="6.00088" stroke-width="0.5" stroke="grey" fill="grey"/>
   </g>
   <g id="cell35">
  <circle cx="1919.92" cy="184.009" r="9.23685" stroke-width="0.5" stroke="black" fill="grey"/>
  <circle cx="1919.92" cy="184.009" r="5.61315" stroke-width="0.5" stroke="grey" fill="grey"/>
   </g>
   <g id="cell36">
  <circle cx="406.279" cy="1255.68" r="10.2328" stroke-width="0.5" stroke="black" fill="grey"/>
  <circle cx="406.279" cy="1255.68" r="6.19197" stroke-width="0.5" stroke="grey" fill="grey"/>
   </g>
   <g id="cell37">
  <circle cx="1981.96" cy="1364.22" r="10.0654" stroke-width="0.5" stroke="black" fill="grey"/>
  <circle cx="1981.96" cy="1364.22" r="6.10145" stroke-width="0.5" stroke="grey" fill="grey"/>
   </g>
   <g id="cell38">
  <circle cx="515.108" cy="858.707" r="8.41271" stroke-width="0.5" stroke="black" fill="grey"/>
  <circle cx="515.108" cy="858.707" r="5.05167" stroke-width="0.5" stroke="grey" fill="grey"/>
   </g>
   <g id="cell39">
  <circle cx="947.84" cy="490.398" r="10.1098" stroke-width="0.5" stroke="black" fill="grey"/>
  <circle cx="947.84" cy="490.398" r="6.12585" stroke-width="0.5" stroke="grey" fill="grey"/>
   </g>
   <g id="cell40">
  <circle cx="342.359" cy="666.199" r="10.0955" stroke-width="0.5" stroke="black" fill="grey"/>
  <circle cx="342.359" cy="666.199" r="6.11797" stroke-width="0.5" stroke="grey" fill="grey"/>
   </g>
   <g id="cell41">
  <circle cx="1326.3" cy="1321.87" r="9.67603" stroke-width="0.5" stroke="black" fill="grey"/>
  <circle cx="1326.3" cy="1321.87" r="5.87901" stroke-width="0.5" stroke="grey" fill="grey"/>
   </g>
   <g id="cell42">
  <circle cx="240.824" cy="1554.78" r="8.41271" stroke-width="0.5" stroke="black" fill="grey"/>
  <circle cx="240.824" cy="1554.78" r="5.05167" stroke-width="0.5" stroke="grey" fill="grey"/>
   </g>
   <g id="cell43">
  <circle cx="1878.27" cy="738.583" r="8.41271" stroke-width="0.5" stroke="black" fill="grey"/>
  <circle cx="1878.27" cy="738.583" r="5.05167" stroke-width="0.5" stroke="grey" fill="grey"/>
   </g>
   <g id="cell44">
  <circle cx="1636.39" cy="39.1565" r="10.0169" stroke-width="0.5" stroke="black" fill="grey"/>
  <circle cx="1636.39" cy="39.1565" r="6.07458" stroke-width="0.5" stroke="grey" fill="grey"/>
   </g>
   <g id="cell45">
  <circle cx="1220.87" cy="1655.15" r="8.41271" stroke-width="0.5" stroke="black" fill="grey"/>
  <circle cx="1220.87" cy="1655.15" r="5.05167" stroke-width="0.5" stroke="grey" fill="grey"/>
   </g>
   <g id="cell46">
  <circle cx="178.177" cy="1890.1" r="9.12489" stroke-width="0.5" stroke="black" fill="grey"/>
  <circle cx="178.177" cy="1890.1" r="5.54282" stroke-width="0.5" stroke="grey" fill="grey"/>
   </g>
   <g id="cell47">
  <circle cx="1764.51" cy="965.845" r="10.2433" stroke-width="0.5" stroke="black" fill="grey"/>
  <circle cx="1764.51" cy="965.845" r="6.19748" stroke-width="0.5" stroke="grey" fill="grey"/>
   </g>
   <g id="cell48">
  <circle cx="1973.12" cy="98.8065" r="10.2728" stroke-width="0.5" stroke="black" fill="grey"/>
  <circle cx="1973.12" cy="98.8065" r="6.21295" stroke-width="0.5" stroke="grey" fill="grey"/>
   </g>
   <g id="cell49">
  <circle cx="851.609" cy="1457.49" r="10.34" stroke-width="0.5" stroke="black" fill="grey"/>
  <circle cx="851.609" cy="1457.49" r="6.24753" stroke-width="0.5" stroke="grey" fill="grey"/>
   </g>
   <g id="cell50">
  <circle cx="81.0355" cy="901.398" r="10.3615" stroke-width="0.5" stroke="black" fill="red"/>
  <circle cx="81.0355" cy="901.398" r="6.25834" stroke-width="0.5" stroke="red" fill="red"/>
   </g>
   <g id="cell51">
  <circle cx="1959.08" cy="248.665" r="8.80772" stroke-width="0.5" stroke="black" fill="red"/>
  <circle cx="1959.08" cy="248.665" r="5.33574" stroke-width="0.5" stroke="red" fill="red"/>
   </g>
   <g id="cell52">
  <circle cx="592.508" cy="993.904" r="10.0336" stroke-width="0.5" stroke="black" fill="red"/>
  <circle cx="592.508" cy="993.904" r="6.08382" stroke-width="0.5" stroke="red" fill="red"/>
   </g>
   <g id="cell53">
  <circle cx="1340.29" cy="607.524" r="10.3325" stroke-width="0.5" stroke="black" fill="red"/>
  <circle cx="1340.29" cy="607.524" r="6.24369" stroke-width="0.5" stroke="red" fill="red"/>
   </g>
   <g id="cell54">
  <circle cx="782.046" cy="1829.68" r="10.3615" stroke-width="0.5" stroke="black" fill="red"/>
  <circle cx="782.046" cy="1829.68" r="6.25834" stroke-width="0.5" stroke="red" fill="red"/>
   </g>
   <g id="cell55">
  <circle cx="415.424" cy="1386.62" r="10.2328" stroke-width="0.5" stroke="black" fill="red"/>
  <circle cx="415.424" cy="1386.62" r="6.19197" stroke-width="0.5" stroke="red" fill="red"/>
   </g>
   <g id="cell56">
  <circle cx="1157.04" cy="1708.12" r="8.41271" stroke-width="0.5" stroke="black" fill="red"/>
  <circle cx="1157.04" cy="1708.12" r="5.05167" stroke-width="0.5" stroke="red" fill="red"/>
   </g>
   <g id="cell57">
  <circle cx="1024.4" cy="1036.95" r="8.41271" stroke-width="0.5" stroke="black" fill="red"/>
  <circle cx="1024.4" cy="1036.95" r="5.05167" stroke-width="0.5" stroke="red" fill="red"/>
   </g>
   <g id="cell58">
  <circle cx="164.068" cy="1805.95" r="10.211" stroke-width="0.5" stroke="black" fill="red"/>
  <circle cx="164.068" cy="1805.95" r="6.18041" stroke-width="0.5" stroke="red" fill="red"/>
   </g>
   <g id="cell59">
  <circle cx="171.722" cy="1844.99" r="2.18063" stroke-width="0.5" stroke="black" fill="red"/>
  <circle cx="171.722" cy="1844.99" r="2.08751" stroke-width="0.5" stroke="black" fill="black"/>
   </g>
   <g id="cell60">
  <circle cx="669.136" cy="53.5474" r="10.3166" stroke-width="0.5" stroke="black" fill="red"/>
  <circle cx="669.136" cy="53.5474" r="6.23561" stroke-width="0.5" stroke="red" fill="red"/>
   </g>
   <g id="cell61">
  <circle cx="1667.36" cy="295.471" r="9.96412" stroke-width="0.5" stroke="black" fill="red"/>
  <circle cx="1667.36" cy="295.471" r="6.04499" stroke-width="0.5" stroke="red" fill="red"/>
   </g>
   <g id="cell62">
  <circle cx="1434.52" cy="1674.65" r="9.41008" stroke-width="0.5" stroke="black" fill="red"/>
  <circle cx="1434.52" cy="1674.65" r="5.71981" stroke-width="0.5" stroke="red" fill="red"/>
   </g>
   <g id="cell63">
  <circle cx="525.636" cy="340.007" r="8.48289" stroke-width="0.5" stroke="black" fill="red"/>
  <circle cx="525.636" cy="340.007" r="5.10317" stroke-width="0.5" stroke="red" fill="red"/>
   </g>
   <g id="cell64">
  <circle cx="1163.77" cy="1107.97" r="9.44256" stroke-width="0.5" stroke="black" fill="red"/>
  <circle cx="1163.77" cy="1107.97" r="5.73955" stroke-width="0.5" stroke="red" fill="red"/>
   </g>
   <g id="cell65">
  <circle cx="363.827" cy="1633.42" r="10.2328" stroke-width="0.5" stroke="black" fill="red"/>
  <circle cx="363.827" cy="1633.42" r="6.19197" stroke-width="0.5" stroke="red" fill="red"/>
   </g>
   <g id="cell66">
  <circle cx="22.5623" cy="303.461" r="9.96412" stroke-width="0.5" stroke="black" fill="red"/>
  <circle cx="22.5623" cy="303.461" r="6.04499" stroke-width="0.5" stroke="red" fill="red"/>
   </g>
   <g id="cell67">
  <circle cx="1100.2" cy="559.881" r="9.77588" stroke-width="0.5" stroke="black" fill="red"/>
  <circle cx="1100.2" cy="559.881" r="5.93735" stroke-width="0.5" stroke="red" fill="red"/>
   </g>
   <g id="cell68">
  <circle cx="1457.75" cy="593.525" r="10.2221" stroke-width="0.5" stroke="black" fill="red"/>
  <circle cx="1457.75" cy="593.525" r="6.18628" stroke-width="0.5" stroke="red" fill="red"/>
   </g>
   <g id="cell69">
  <circle cx="884.277" cy="530.591" r="8.41271" stroke-width="0.5" stroke="black" fill="red"/>
  <circle cx="884.277" cy="530.591" r="5.05167" stroke-width="0.5" stroke="red" fill="red"/>
   </g>
   <g id="cell70">
  <circle cx="1178.23" cy="809.147" r="10.1238" stroke-width="0.5" stroke="black" fill="red"/>
  <circle cx="1178.23" cy="809.147" r="6.13347" stroke-width="0.5" stroke="red" fill="red"/>
   </g>
   <g id="cell71">
  <circle cx="1771.6" cy="1118.38" r="10.0169" stroke-width="0.5" stroke="black" fill="red"/>
  <circle cx="1771.6" cy="1118.38" r="6.07458" stroke-width="0.5" stroke="red" fill="red"/>
   </g>
   <g id="cell72">
  <circle cx="446.271" cy="1811" r="9.08642" stroke-width="0.5" stroke="black" fill="red"/>
  <circle cx="446.271" cy="1811" r="5.51837" stroke-width="0.5" stroke="red" fill="red"/>
   </g>
   <g id="cell73">
  <circle cx="1413.98" cy="889.242" r="10.2632" stroke-width="0.5" stroke="black" fill="red"/>
  <circle cx="1413.98" cy="889.242" r="6.20796" stroke-width="0.5" stroke="red" fill="red"/>
   </g>
   <g id="cell74">
  <circle cx="1688.87" cy="1936.8" r="10.2534" stroke-width="0.5" stroke="black" fill="red"/>
  <circle cx="1688.87" cy="1936.8" r="6.2028" stroke-width="0.5" stroke="red" fill="red"/>
   </g>
   <g id="cell75">
  <circle cx="201.065" cy="599.583" r="8.41271" stroke-width="0.5" stroke="black" fill="red"/>
  <circle cx="201.065" cy="599.583" r="5.05167" stroke-width="0.5" stroke="red" fill="red"/>
   </g>
   <g id="cell76">
  <circle cx="1602.86" cy="834.142" r="9.77588" stroke-width="0.5" stroke="black" fill="red"/>
  <circle cx="1602.86" cy="834.142" r="5.93735" stroke-width="0.5" stroke="red" fill="red"/>
   </g>
   <g id="cell77">
  <circle cx="1385.79" cy="1751.39" r="9.5053" stroke-width="0.5" stroke="black" fill="red"/>
  <circle cx="1385.79" cy="1751.39" r="5.77744" stroke-width="0.5" stroke="red" fill="red"/>
   </g>
   <g id="cell78">
  <circle cx="1220.17" cy="638.081" r="9.5053" stroke-width="0.5" stroke="black" fill="red"/>
  <circle cx="1220.17" cy="638.081" r="5.77744" stroke-width="0.5" stroke="red" fill="red"/>
   </g>
   <g id="cell79">
  <circle cx="1934.79" cy="1384.68" r="8.41271" stroke-width="0.5" stroke="black" fill="red"/>
  <circle cx="1934.79" cy="1384.68" r="5.05167" stroke-width="0.5" stroke="red" fill="red"/>
   </g>
   <g id="cell80">
  <circle cx="1414.63" cy="1275.58" r="10.0169" stroke-width="0.5" stroke="black" fill="red"/>
  <circle cx="1414.63" cy="1275.58" r="6.07458" stroke-width="0.5" stroke="red" fill="red"/>
   </g>
   <g id="cell81">
  <circle cx="1073.97" cy="1890.12" r="2.25044" stroke-width="0.5" stroke="black" fill="red"/>
  <circle cx="1073.97" cy="1890.12" r="2.12607" stroke-width="0.5" stroke="black" fill="black"/>
   </g>
   <g id="cell82">
  <circle cx="1255.45" cy="784.402" r="10.0654" stroke-width="0.5" stroke="black" fill="red"/>
  <circle cx="1255.45" cy="784.402" r="6.10145" stroke-width="0.5" stroke="red" fill="red"/>
   </g>
   <g id="cell83">
  <circle cx="1260.77" cy="1234.93" r="9.37686" stroke-width="0.5" stroke="black" fill="red"/>
  <circle cx="1260.77" cy="1234.93" r="5.69955" stroke-width="0.5" stroke="red" fill="red"/>
   </g>
   <g id="cell84">
  <circle cx="33.7811" cy="952.462" r="10.3084" stroke-width="0.5" stroke="black" fill="red"/>
  <circle cx="33.7811" cy="952.462" r="6.23137" stroke-width="0.5" stroke="red" fill="red"/>
   </g>
   <g id="cell85">
  <circle cx="1420.13" cy="1294.38" r="8.72828" stroke-width="0.5" stroke="black" fill="red"/>
  <circle cx="1420.13" cy="1294.38" r="5.28134" stroke-width="0.5" stroke="red" fill="red"/>
   </g>
   <g id="cell86">
  <circle cx="592.352" cy="793.823" r="8.41271" stroke-width="0.5" stroke="black" fill="red"/>
  <circle cx="592.352" cy="793.823" r="5.05167" stroke-width="0.5" stroke="red" fill="red"/>
   </g>
   <g id="cell87">
  <circle cx="1481.87" cy="873.907" r="9.96412" stroke-width="0.5" stroke="black" fill="red"/>
  <circle cx="1481.87" cy="873.907" r="6.04499" stroke-width="0.5" stroke="red" fill="red"/>
   </g>
   <g id="cell88">
  <circle cx="285.43" cy="190.894" r="10.0169" stroke-width="0.5" stroke="black" fill="red"/>
  <circle cx="285.43" cy="190.894" r="6.07458" stroke-width="0.5" stroke="red" fill="red"/>
   </g>
   <g id="cell89">
  <circle cx="185.186" cy="1165.29" r="8.41271" stroke-width="0.5" stroke="black" fill="red"/>
  <circle cx="185.186" cy="1165.29" r="5.05167" stroke-width="0.5" stroke="red" fill="red"/>
   </g>
   <g id="cell90">
  <circle cx="1177.96" cy="1103.48" r="8.41271" stroke-width="0.5" stroke="black" fill="red"/>
  <circle cx="1177.96" cy="1103.48" r="5.05167" stroke-width="0.5" stroke="red" fill="red"/>
   </g>
   <g id="cell91">
  <circle cx="46.2167" cy="1285.4" r="8.41271" stroke-width="0.5" stroke="black" fill="red"/>
  <circle cx="46.2167" cy="1285.4" r="5.05167" stroke-width="0.5" stroke="red" fill="red"/>
   </g>
   <g id="cell92">
  <circle cx="1258.42" cy="642.222" r="10.3615" stroke-width="0.5" stroke="black" fill="red"/>
  <circle cx="1258.42" cy="642.222" r="6.25834" stroke-width="0.5" stroke="red" fill="red"/>
   </g>
   <g id="cell93">
  <circle cx="442.055" cy="1797" r="9.62199" stroke-width="0.5" stroke="black" fill="red"/>
  <circle cx="442.055" cy="1797" r="5.8471" stroke-width="0.5" stroke="red" fill="red"/>
   </g>
   <g id="cell94">
  <circle cx="752.185" cy="217.418" r="10.1506" stroke-width="0.5" stroke="black" fill="red"/>
  <circle cx="752.185" cy="217.418" r="6.14798" stroke-width="0.5" stroke="red" fill="red"/>
   </g>
   <g id="cell95">
  <circle cx="1989.26" cy="1755.42" r="10.0955" stroke-width="0.5" stroke="black" fill="red"/>
  <circle cx="1989.26" cy="1755.42" r="6.11797" stroke-width="0.5" stroke="red" fill="red"/>
   </g>
   <g id="cell96">
  <circle cx="1616.62" cy="1096.63" r="10.211" stroke-width="0.5" stroke="black" fill="red"/>
  <circle cx="1616.62" cy="1096.63" r="6.18041" stroke-width="0.5" stroke="red" fill="red"/>
   </g>
   <g id="cell97">
  <circle cx="870.18" cy="206.245" r="10.3247" stroke-width="0.5" stroke="black" fill="red"/>
  <circle cx="870.18" cy="206.245" r="6.23971" stroke-width="0.5" stroke="red" fill="red"/>
   </g>
   <g id="cell98">
  <circle cx="1816.43" cy="695.152" r="10.3474" stroke-width="0.5" stroke="black" fill="red"/>
  <circle cx="1816.43" cy="695.152" r="6.25125" stroke-width="0.5" stroke="red" fill="red"/>
   </g>
   <g id="cell99">
  <circle cx="914.169" cy="1974.58" r="10.3545" stroke-width="0.5" stroke="black" fill="red"/>
  <circle cx="914.169" cy="1974.58" r="6.25485" stroke-width="0.5" stroke="red" fill="red"/>
   </g>
  </g>
 </g>
  <rect x="1750" y="2070" width="200" height="20" stroke-width="4" stroke="rgb(255,255,255)" fill="rgb(0,0,0)"/>
  <text x="1762.5" y="2057.5"
   font-family="Arial" font-size="50" fill="black" >
   200 &#956;m
  </text>
  <text x="50" y="2090"
   font-family="Arial" font-size="37.5" fill="black" >
   0 days, 0 hours, 0 minutes, and 12.7165 seconds
  </text>
  <rect x="0" y="140" width="2000" height="2000" stroke-width="4" stroke="rgb(0,0,0)" fill="none"/>
</svg>
