<?xml version="1.0" encoding="UTF-8" standalone="no"?>
<!-- Created with PhysiCell (http://PhysiCell.MathCancer.org/) -->
<svg 
 xmlns:dc="http://purl.org/dc/elements/1.1/" 
 xmlns:cc="http://creativecommons.org/ns#" 
 xmlns:rdf="http://www.w3.org/1999/02/22-rdf-syntax-ns#" 
 xmlns:svg="http://www.w3.org/2000/svg" 
 xmlns="http://www.w3.org/2000/svg" 
 version="1.1" 
 width="2000" 
 height="2140" 
 id="svg2">
  <rect x="0" y="0" width="2000" height="2140" stroke-width="4" stroke="white" fill="white"/>
  <text x="25" y="60"
   font-family="Arial" font-size="50" fill="black" >
   Current time: 3 days, 1 hours, and 0.00 minutes, z = 0.00 &#956;m
  </text>
  <text x="25" y="115"
   font-family="Arial" font-size="47.5" fill="black" >
   103 agents
  </text>
 <g id="tissue" 
    transform="translate(0,2140) scale(1,-1)">
  <g id="ECM">
  </g>
  <g id="cells">
   <g id="cell0">
  <circle cx="1127.24" cy="1222.76" r="10.0129" stroke-width="0.5" stroke="black" fill="grey"/>
  <circle cx="1127.24" cy="1222.76" r="6.07333" stroke-width="0.5" stroke="grey" fill="grey"/>
   </g>
   <g id="cell1">
  <circle cx="1707.47" cy="1233.95" r="10.4953" stroke-width="0.5" stroke="black" fill="grey"/>
  <circle cx="1707.47" cy="1233.95" r="6.3227" stroke-width="0.5" stroke="grey" fill="grey"/>
   </g>
   <g id="cell2">
  <circle cx="1188.35" cy="1747.07" r="8.44741" stroke-width="0.5" stroke="black" fill="grey"/>
  <circle cx="1188.35" cy="1747.07" r="5.08028" stroke-width="0.5" stroke="grey" fill="grey"/>
   </g>
   <g id="cell3">
  <circle cx="1262.88" cy="1320.07" r="9.92116" stroke-width="0.5" stroke="black" fill="grey"/>
  <circle cx="1262.88" cy="1320.07" r="6.022" stroke-width="0.5" stroke="grey" fill="grey"/>
   </g>
   <g id="cell4">
  <circle cx="825.123" cy="549.148" r="8.40676" stroke-width="0.5" stroke="black" fill="grey"/>
  <circle cx="825.123" cy="549.148" r="5.04991" stroke-width="0.5" stroke="grey" fill="grey"/>
   </g>
   <g id="cell5">
  <circle cx="89.6277" cy="1936.94" r="9.40558" stroke-width="0.5" stroke="black" fill="red"/>
  <circle cx="89.6277" cy="1936.94" r="5.71838" stroke-width="0.5" stroke="red" fill="red"/>
   </g>
   <g id="cell6">
  <circle cx="867.619" cy="901.096" r="8.67733" stroke-width="0.5" stroke="black" fill="red"/>
  <circle cx="867.619" cy="901.096" r="5.25011" stroke-width="0.5" stroke="red" fill="red"/>
   </g>
   <g id="cell19">
  <circle cx="1718.75" cy="1335.9" r="9.74122" stroke-width="0.5" stroke="black" fill="grey"/>
  <circle cx="1718.75" cy="1335.9" r="5.91975" stroke-width="0.5" stroke="grey" fill="grey"/>
   </g>
   <g id="cell18">
  <circle cx="1634.27" cy="309.528" r="10.137" stroke-width="0.5" stroke="black" fill="red"/>
  <circle cx="1634.27" cy="309.528" r="6.14076" stroke-width="0.5" stroke="red" fill="red"/>
   </g>
   <g id="cell9">
  <circle cx="1689.24" cy="169.934" r="9.59054" stroke-width="0.5" stroke="black" fill="red"/>
  <circle cx="1689.24" cy="169.934" r="5.82939" stroke-width="0.5" stroke="red" fill="red"/>
   </g>
   <g id="cell11">
  <circle cx="1574.33" cy="1099.81" r="9.64393" stroke-width="0.5" stroke="black" fill="red"/>
  <circle cx="1574.33" cy="1099.81" r="5.86154" stroke-width="0.5" stroke="red" fill="red"/>
   </g>
   <g id="cell20">
  <circle cx="792.683" cy="1036.89" r="10.4643" stroke-width="0.5" stroke="black" fill="red"/>
  <circle cx="792.683" cy="1036.89" r="6.30855" stroke-width="0.5" stroke="red" fill="red"/>
   </g>
   <g id="cell13">
  <circle cx="853.548" cy="633.722" r="10.4101" stroke-width="0.5" stroke="black" fill="grey"/>
  <circle cx="853.548" cy="633.722" r="6.28247" stroke-width="0.5" stroke="grey" fill="grey"/>
   </g>
   <g id="cell14">
  <circle cx="1134.86" cy="1310.86" r="8.39253" stroke-width="0.5" stroke="black" fill="grey"/>
  <circle cx="1134.86" cy="1310.86" r="5.0448" stroke-width="0.5" stroke="grey" fill="grey"/>
   </g>
   <g id="cell15">
  <circle cx="1144.6" cy="1226.17" r="8.39827" stroke-width="0.5" stroke="black" fill="grey"/>
  <circle cx="1144.6" cy="1226.17" r="5.04695" stroke-width="0.5" stroke="grey" fill="grey"/>
   </g>
   <g id="cell16">
  <circle cx="1101.82" cy="1685.54" r="9.88047" stroke-width="0.5" stroke="black" fill="grey"/>
  <circle cx="1101.82" cy="1685.54" r="5.99901" stroke-width="0.5" stroke="grey" fill="grey"/>
   </g>
   <g id="cell90">
  <circle cx="834.29" cy="836.114" r="9.07541" stroke-width="0.5" stroke="black" fill="red"/>
  <circle cx="834.29" cy="836.114" r="5.51456" stroke-width="0.5" stroke="red" fill="red"/>
   </g>
   <g id="cell86">
  <circle cx="1569.08" cy="1005.95" r="8.99855" stroke-width="0.5" stroke="black" fill="red"/>
  <circle cx="1569.08" cy="1005.95" r="5.46485" stroke-width="0.5" stroke="red" fill="red"/>
   </g>
   <g id="cell22">
  <circle cx="1136.18" cy="1699.17" r="8.36826" stroke-width="0.5" stroke="black" fill="grey"/>
  <circle cx="1136.18" cy="1699.17" r="5.03506" stroke-width="0.5" stroke="grey" fill="grey"/>
   </g>
   <g id="cell23">
  <circle cx="1259.2" cy="1304.46" r="10.5269" stroke-width="0.5" stroke="black" fill="grey"/>
  <circle cx="1259.2" cy="1304.46" r="6.33683" stroke-width="0.5" stroke="grey" fill="grey"/>
   </g>
   <g id="cell24">
  <circle cx="1167.65" cy="1242.71" r="8.47947" stroke-width="0.5" stroke="black" fill="grey"/>
  <circle cx="1167.65" cy="1242.71" r="5.10221" stroke-width="0.5" stroke="grey" fill="grey"/>
   </g>
   <g id="cell25">
  <circle cx="1164.32" cy="705.185" r="9.77365" stroke-width="0.5" stroke="black" fill="red"/>
  <circle cx="1164.32" cy="705.185" r="5.93669" stroke-width="0.5" stroke="red" fill="red"/>
   </g>
   <g id="cell26">
  <circle cx="1681.26" cy="1204.51" r="9.43946" stroke-width="0.5" stroke="black" fill="grey"/>
  <circle cx="1681.26" cy="1204.51" r="5.73859" stroke-width="0.5" stroke="grey" fill="grey"/>
   </g>
   <g id="cell27">
  <circle cx="889.584" cy="544.356" r="10.4037" stroke-width="0.5" stroke="black" fill="grey"/>
  <circle cx="889.584" cy="544.356" r="6.27954" stroke-width="0.5" stroke="grey" fill="grey"/>
   </g>
   <g id="cell28">
  <circle cx="46.2124" cy="1965.5" r="9.023" stroke-width="0.5" stroke="black" fill="red"/>
  <circle cx="46.2124" cy="1965.5" r="5.48433" stroke-width="0.5" stroke="red" fill="red"/>
   </g>
   <g id="cell29">
  <circle cx="1061.18" cy="1071.14" r="10.1614" stroke-width="0.5" stroke="black" fill="grey"/>
  <circle cx="1061.18" cy="1071.14" r="6.15434" stroke-width="0.5" stroke="grey" fill="grey"/>
   </g>
   <g id="cell30">
  <circle cx="942.344" cy="535.371" r="10.0092" stroke-width="0.5" stroke="black" fill="grey"/>
  <circle cx="942.344" cy="535.371" r="6.07204" stroke-width="0.5" stroke="grey" fill="grey"/>
   </g>
   <g id="cell31">
  <circle cx="1184.63" cy="1341.24" r="8.36311" stroke-width="0.5" stroke="black" fill="grey"/>
  <circle cx="1184.63" cy="1341.24" r="5.03286" stroke-width="0.5" stroke="grey" fill="grey"/>
   </g>
   <g id="cell109">
  <circle cx="783.994" cy="937.387" r="8.36676" stroke-width="0.5" stroke="black" fill="red"/>
  <circle cx="783.994" cy="937.387" r="5.03447" stroke-width="0.5" stroke="red" fill="red"/>
   </g>
   <g id="cell33">
  <circle cx="1684.48" cy="1162.37" r="8.37502" stroke-width="0.5" stroke="black" fill="grey"/>
  <circle cx="1684.48" cy="1162.37" r="5.03789" stroke-width="0.5" stroke="grey" fill="grey"/>
   </g>
   <g id="cell34">
  <circle cx="1131.55" cy="1665.5" r="10.1875" stroke-width="0.5" stroke="black" fill="grey"/>
  <circle cx="1131.55" cy="1665.5" r="6.16798" stroke-width="0.5" stroke="grey" fill="grey"/>
   </g>
   <g id="cell35">
  <circle cx="751.28" cy="894.677" r="10.4892" stroke-width="0.5" stroke="black" fill="red"/>
  <circle cx="751.28" cy="894.677" r="6.31993" stroke-width="0.5" stroke="red" fill="red"/>
   </g>
   <g id="cell36">
  <circle cx="1748.84" cy="248.38" r="8.3997" stroke-width="0.5" stroke="black" fill="red"/>
  <circle cx="1748.84" cy="248.38" r="5.04748" stroke-width="0.5" stroke="red" fill="red"/>
   </g>
   <g id="cell37">
  <circle cx="820.986" cy="900.334" r="8.37595" stroke-width="0.5" stroke="black" fill="red"/>
  <circle cx="820.986" cy="900.334" r="5.03829" stroke-width="0.5" stroke="red" fill="red"/>
   </g>
   <g id="cell38">
  <circle cx="1612.56" cy="1046.43" r="9.92546" stroke-width="0.5" stroke="black" fill="red"/>
  <circle cx="1612.56" cy="1046.43" r="6.0234" stroke-width="0.5" stroke="red" fill="red"/>
   </g>
   <g id="cell39">
  <circle cx="1113.73" cy="1194.29" r="8.37429" stroke-width="0.5" stroke="black" fill="grey"/>
  <circle cx="1113.73" cy="1194.29" r="5.03753" stroke-width="0.5" stroke="grey" fill="grey"/>
   </g>
   <g id="cell40">
  <circle cx="1774.34" cy="1296.07" r="9.70061" stroke-width="0.5" stroke="black" fill="grey"/>
  <circle cx="1774.34" cy="1296.07" r="5.89386" stroke-width="0.5" stroke="grey" fill="grey"/>
   </g>
   <g id="cell41">
  <circle cx="1230.11" cy="1437.66" r="10.5275" stroke-width="0.5" stroke="black" fill="grey"/>
  <circle cx="1230.11" cy="1437.66" r="6.33696" stroke-width="0.5" stroke="grey" fill="grey"/>
   </g>
   <g id="cell42">
  <circle cx="1123.51" cy="1124.6" r="10.0781" stroke-width="0.5" stroke="black" fill="grey"/>
  <circle cx="1123.51" cy="1124.6" r="6.10909" stroke-width="0.5" stroke="grey" fill="grey"/>
   </g>
   <g id="cell43">
  <circle cx="1076.34" cy="1095.5" r="10.4689" stroke-width="0.5" stroke="black" fill="grey"/>
  <circle cx="1076.34" cy="1095.5" r="6.31052" stroke-width="0.5" stroke="grey" fill="grey"/>
   </g>
   <g id="cell44">
  <circle cx="1677.71" cy="1189.86" r="8.40053" stroke-width="0.5" stroke="black" fill="grey"/>
  <circle cx="1677.71" cy="1189.86" r="5.04776" stroke-width="0.5" stroke="grey" fill="grey"/>
   </g>
   <g id="cell45">
  <circle cx="1551.14" cy="1049.05" r="8.44527" stroke-width="0.5" stroke="black" fill="red"/>
  <circle cx="1551.14" cy="1049.05" r="5.07953" stroke-width="0.5" stroke="red" fill="red"/>
   </g>
   <g id="cell101">
  <circle cx="1659.5" cy="278.151" r="8.3819" stroke-width="0.5" stroke="black" fill="red"/>
  <circle cx="1659.5" cy="278.151" r="5.04065" stroke-width="0.5" stroke="red" fill="red"/>
   </g>
   <g id="cell47">
  <circle cx="1609.4" cy="136.189" r="8.42965" stroke-width="0.5" stroke="black" fill="red"/>
  <circle cx="1609.4" cy="136.189" r="5.07365" stroke-width="0.5" stroke="red" fill="red"/>
   </g>
   <g id="cell48">
  <circle cx="1190.78" cy="1798.46" r="8.83064" stroke-width="0.5" stroke="black" fill="grey"/>
  <circle cx="1190.78" cy="1798.46" r="5.35665" stroke-width="0.5" stroke="grey" fill="grey"/>
   </g>
   <g id="cell49">
  <circle cx="89.4931" cy="1957.54" r="8.58147" stroke-width="0.5" stroke="black" fill="red"/>
  <circle cx="89.4931" cy="1957.54" r="5.18848" stroke-width="0.5" stroke="red" fill="red"/>
   </g>
   <g id="cell50">
  <circle cx="1153.78" cy="1157.62" r="8.6149" stroke-width="0.5" stroke="black" fill="grey"/>
  <circle cx="1153.78" cy="1157.62" r="5.21351" stroke-width="0.5" stroke="grey" fill="grey"/>
   </g>
   <g id="cell51">
  <circle cx="1162.96" cy="1286.21" r="10.2781" stroke-width="0.5" stroke="black" fill="grey"/>
  <circle cx="1162.96" cy="1286.21" r="6.21658" stroke-width="0.5" stroke="grey" fill="grey"/>
   </g>
   <g id="cell52">
  <circle cx="848.296" cy="616.747" r="9.43078" stroke-width="0.5" stroke="black" fill="grey"/>
  <circle cx="848.296" cy="616.747" r="5.73544" stroke-width="0.5" stroke="grey" fill="grey"/>
   </g>
   <g id="cell87">
  <circle cx="909.123" cy="620.841" r="10.0259" stroke-width="0.5" stroke="black" fill="grey"/>
  <circle cx="909.123" cy="620.841" r="6.0813" stroke-width="0.5" stroke="grey" fill="grey"/>
   </g>
   <g id="cell54">
  <circle cx="837.354" cy="538.287" r="8.99186" stroke-width="0.5" stroke="black" fill="grey"/>
  <circle cx="837.354" cy="538.287" r="5.46229" stroke-width="0.5" stroke="grey" fill="grey"/>
   </g>
   <g id="cell55">
  <circle cx="879.581" cy="578.001" r="10.1042" stroke-width="0.5" stroke="black" fill="grey"/>
  <circle cx="879.581" cy="578.001" r="6.12408" stroke-width="0.5" stroke="grey" fill="grey"/>
   </g>
   <g id="cell56">
  <circle cx="168.817" cy="1899.17" r="8.39008" stroke-width="0.5" stroke="black" fill="red"/>
  <circle cx="168.817" cy="1899.17" r="5.04387" stroke-width="0.5" stroke="red" fill="red"/>
   </g>
   <g id="cell57">
  <circle cx="1679.69" cy="268.366" r="8.3819" stroke-width="0.5" stroke="black" fill="red"/>
  <circle cx="1679.69" cy="268.366" r="5.04065" stroke-width="0.5" stroke="red" fill="red"/>
   </g>
   <g id="cell58">
  <circle cx="699.223" cy="853.809" r="10.0652" stroke-width="0.5" stroke="black" fill="red"/>
  <circle cx="699.223" cy="853.809" r="6.1014" stroke-width="0.5" stroke="red" fill="red"/>
   </g>
   <g id="cell59">
  <circle cx="1709.43" cy="322.02" r="10.5252" stroke-width="0.5" stroke="black" fill="red"/>
  <circle cx="1709.43" cy="322.02" r="6.33602" stroke-width="0.5" stroke="red" fill="red"/>
   </g>
   <g id="cell60">
  <circle cx="1731.49" cy="1170.14" r="8.37824" stroke-width="0.5" stroke="black" fill="grey"/>
  <circle cx="1731.49" cy="1170.14" r="5.03918" stroke-width="0.5" stroke="grey" fill="grey"/>
   </g>
   <g id="cell61">
  <circle cx="1128.45" cy="1776.24" r="10.4045" stroke-width="0.5" stroke="black" fill="grey"/>
  <circle cx="1128.45" cy="1776.24" r="6.27974" stroke-width="0.5" stroke="grey" fill="grey"/>
   </g>
   <g id="cell62">
  <circle cx="1156.18" cy="1635.09" r="10.4304" stroke-width="0.5" stroke="black" fill="grey"/>
  <circle cx="1156.18" cy="1635.09" r="6.29233" stroke-width="0.5" stroke="grey" fill="grey"/>
   </g>
   <g id="cell63">
  <circle cx="1670.42" cy="320.256" r="9.54979" stroke-width="0.5" stroke="black" fill="red"/>
  <circle cx="1670.42" cy="320.256" r="5.80781" stroke-width="0.5" stroke="red" fill="red"/>
   </g>
   <g id="cell64">
  <circle cx="1706.78" cy="1156.2" r="9.94499" stroke-width="0.5" stroke="black" fill="grey"/>
  <circle cx="1706.78" cy="1156.2" r="6.03435" stroke-width="0.5" stroke="grey" fill="grey"/>
   </g>
   <g id="cell65">
  <circle cx="1325.47" cy="1276.97" r="1.59333" stroke-width="0.5" stroke="black" fill="grey"/>
  <circle cx="1325.47" cy="1276.97" r="1.58058" stroke-width="0.5" stroke="black" fill="black"/>
   </g>
   <g id="cell66">
  <circle cx="787.732" cy="950.617" r="8.36676" stroke-width="0.5" stroke="black" fill="red"/>
  <circle cx="787.732" cy="950.617" r="5.03447" stroke-width="0.5" stroke="red" fill="red"/>
   </g>
   <g id="cell67">
  <circle cx="1578.98" cy="1027.19" r="8.3626" stroke-width="0.5" stroke="black" fill="red"/>
  <circle cx="1578.98" cy="1027.19" r="5.03273" stroke-width="0.5" stroke="red" fill="red"/>
   </g>
   <g id="cell68">
  <circle cx="820.912" cy="1068.26" r="9.77491" stroke-width="0.5" stroke="black" fill="red"/>
  <circle cx="820.912" cy="1068.26" r="5.93708" stroke-width="0.5" stroke="red" fill="red"/>
   </g>
   <g id="cell69">
  <circle cx="846.936" cy="563.556" r="10.5179" stroke-width="0.5" stroke="black" fill="grey"/>
  <circle cx="846.936" cy="563.556" r="6.33294" stroke-width="0.5" stroke="grey" fill="grey"/>
   </g>
   <g id="cell70">
  <circle cx="1681.1" cy="1233.16" r="10.5" stroke-width="0.5" stroke="black" fill="grey"/>
  <circle cx="1681.1" cy="1233.16" r="6.32502" stroke-width="0.5" stroke="grey" fill="grey"/>
   </g>
   <g id="cell71">
  <circle cx="1006.85" cy="1073.23" r="10.3914" stroke-width="0.5" stroke="black" fill="grey"/>
  <circle cx="1006.85" cy="1073.23" r="6.27364" stroke-width="0.5" stroke="grey" fill="grey"/>
   </g>
   <g id="cell72">
  <circle cx="1131.26" cy="717.25" r="10.3728" stroke-width="0.5" stroke="black" fill="red"/>
  <circle cx="1131.26" cy="717.25" r="6.26442" stroke-width="0.5" stroke="red" fill="red"/>
   </g>
   <g id="cell73">
  <circle cx="1179.98" cy="1210.79" r="10.4185" stroke-width="0.5" stroke="black" fill="grey"/>
  <circle cx="1179.98" cy="1210.79" r="6.28697" stroke-width="0.5" stroke="grey" fill="grey"/>
   </g>
   <g id="cell74">
  <circle cx="1097.42" cy="1079.05" r="10.0929" stroke-width="0.5" stroke="black" fill="grey"/>
  <circle cx="1097.42" cy="1079.05" r="6.11722" stroke-width="0.5" stroke="grey" fill="grey"/>
   </g>
   <g id="cell75">
  <circle cx="1696.67" cy="1183.24" r="10.3656" stroke-width="0.5" stroke="black" fill="grey"/>
  <circle cx="1696.67" cy="1183.24" r="6.26097" stroke-width="0.5" stroke="grey" fill="grey"/>
   </g>
   <g id="cell76">
  <circle cx="1673.62" cy="251.224" r="10.0305" stroke-width="0.5" stroke="black" fill="red"/>
  <circle cx="1673.62" cy="251.224" r="6.0829" stroke-width="0.5" stroke="red" fill="red"/>
   </g>
   <g id="cell77">
  <circle cx="66.1456" cy="1919.6" r="10.269" stroke-width="0.5" stroke="black" fill="red"/>
  <circle cx="66.1456" cy="1919.6" r="6.21182" stroke-width="0.5" stroke="red" fill="red"/>
   </g>
   <g id="cell78">
  <circle cx="1115.87" cy="1240.03" r="2.11435" stroke-width="0.5" stroke="black" fill="grey"/>
  <circle cx="1115.87" cy="1240.03" r="1.97784" stroke-width="0.5" stroke="black" fill="black"/>
   </g>
   <g id="cell79">
  <circle cx="1194.86" cy="1263.35" r="8.40676" stroke-width="0.5" stroke="black" fill="grey"/>
  <circle cx="1194.86" cy="1263.35" r="5.04991" stroke-width="0.5" stroke="grey" fill="grey"/>
   </g>
   <g id="cell80">
  <circle cx="812.336" cy="522.17" r="8.40676" stroke-width="0.5" stroke="black" fill="grey"/>
  <circle cx="812.336" cy="522.17" r="5.04991" stroke-width="0.5" stroke="grey" fill="grey"/>
   </g>
   <g id="cell81">
  <circle cx="1205.1" cy="1279.39" r="8.88169" stroke-width="0.5" stroke="black" fill="grey"/>
  <circle cx="1205.1" cy="1279.39" r="5.3875" stroke-width="0.5" stroke="grey" fill="grey"/>
   </g>
   <g id="cell82">
  <circle cx="1624.58" cy="1095.78" r="9.64393" stroke-width="0.5" stroke="black" fill="red"/>
  <circle cx="1624.58" cy="1095.78" r="5.86154" stroke-width="0.5" stroke="red" fill="red"/>
   </g>
   <g id="cell83">
  <circle cx="893.374" cy="569.611" r="8.40462" stroke-width="0.5" stroke="black" fill="grey"/>
  <circle cx="893.374" cy="569.611" r="5.0492" stroke-width="0.5" stroke="grey" fill="grey"/>
   </g>
   <g id="cell84">
  <circle cx="1103.78" cy="1634.32" r="8.40467" stroke-width="0.5" stroke="black" fill="grey"/>
  <circle cx="1103.78" cy="1634.32" r="5.04921" stroke-width="0.5" stroke="grey" fill="grey"/>
   </g>
   <g id="cell85">
  <circle cx="1159.96" cy="1718.65" r="10.0108" stroke-width="0.5" stroke="black" fill="grey"/>
  <circle cx="1159.96" cy="1718.65" r="6.0726" stroke-width="0.5" stroke="grey" fill="grey"/>
   </g>
   <g id="cell88">
  <circle cx="1667.8" cy="1165.47" r="8.40053" stroke-width="0.5" stroke="black" fill="grey"/>
  <circle cx="1667.8" cy="1165.47" r="5.04776" stroke-width="0.5" stroke="grey" fill="grey"/>
   </g>
   <g id="cell89">
  <circle cx="1792.48" cy="282.785" r="8.3997" stroke-width="0.5" stroke="black" fill="red"/>
  <circle cx="1792.48" cy="282.785" r="5.04748" stroke-width="0.5" stroke="red" fill="red"/>
   </g>
   <g id="cell91">
  <circle cx="1163.42" cy="1218.91" r="8.39827" stroke-width="0.5" stroke="black" fill="grey"/>
  <circle cx="1163.42" cy="1218.91" r="5.04695" stroke-width="0.5" stroke="grey" fill="grey"/>
   </g>
   <g id="cell92">
  <circle cx="1684.41" cy="1349.76" r="8.39832" stroke-width="0.5" stroke="black" fill="grey"/>
  <circle cx="1684.41" cy="1349.76" r="5.04696" stroke-width="0.5" stroke="grey" fill="grey"/>
   </g>
   <g id="cell93">
  <circle cx="841.469" cy="595.588" r="8.39786" stroke-width="0.5" stroke="black" fill="grey"/>
  <circle cx="841.469" cy="595.588" r="5.0468" stroke-width="0.5" stroke="grey" fill="grey"/>
   </g>
   <g id="cell94">
  <circle cx="874.115" cy="562.279" r="8.39413" stroke-width="0.5" stroke="black" fill="grey"/>
  <circle cx="874.115" cy="562.279" r="5.04541" stroke-width="0.5" stroke="grey" fill="grey"/>
   </g>
   <g id="cell95">
  <circle cx="1172.47" cy="1775.91" r="8.95154" stroke-width="0.5" stroke="black" fill="grey"/>
  <circle cx="1172.47" cy="1775.91" r="5.43628" stroke-width="0.5" stroke="grey" fill="grey"/>
   </g>
   <g id="cell96">
  <circle cx="1674.12" cy="297.662" r="9.32686" stroke-width="0.5" stroke="black" fill="red"/>
  <circle cx="1674.12" cy="297.662" r="5.673" stroke-width="0.5" stroke="red" fill="red"/>
   </g>
   <g id="cell97">
  <circle cx="1165.98" cy="1343.18" r="8.39253" stroke-width="0.5" stroke="black" fill="grey"/>
  <circle cx="1165.98" cy="1343.18" r="5.0448" stroke-width="0.5" stroke="grey" fill="grey"/>
   </g>
   <g id="cell98">
  <circle cx="149.204" cy="1925.13" r="8.39008" stroke-width="0.5" stroke="black" fill="red"/>
  <circle cx="149.204" cy="1925.13" r="5.04387" stroke-width="0.5" stroke="red" fill="red"/>
   </g>
   <g id="cell99">
  <circle cx="1640.92" cy="137.972" r="8.38602" stroke-width="0.5" stroke="black" fill="red"/>
  <circle cx="1640.92" cy="137.972" r="5.04228" stroke-width="0.5" stroke="red" fill="red"/>
   </g>
   <g id="cell100">
  <circle cx="61.2419" cy="1951.89" r="8.82231" stroke-width="0.5" stroke="black" fill="red"/>
  <circle cx="61.2419" cy="1951.89" r="5.35332" stroke-width="0.5" stroke="red" fill="red"/>
   </g>
   <g id="cell102">
  <circle cx="1721.41" cy="1156" r="8.37824" stroke-width="0.5" stroke="black" fill="grey"/>
  <circle cx="1721.41" cy="1156" r="5.03918" stroke-width="0.5" stroke="grey" fill="grey"/>
   </g>
   <g id="cell103">
  <circle cx="77.3261" cy="1977.92" r="8.73617" stroke-width="0.5" stroke="black" fill="red"/>
  <circle cx="77.3261" cy="1977.92" r="5.29668" stroke-width="0.5" stroke="red" fill="red"/>
   </g>
   <g id="cell104">
  <circle cx="796.459" cy="884.331" r="8.37595" stroke-width="0.5" stroke="black" fill="red"/>
  <circle cx="796.459" cy="884.331" r="5.03829" stroke-width="0.5" stroke="red" fill="red"/>
   </g>
   <g id="cell105">
  <circle cx="1672.84" cy="1152.05" r="8.395" stroke-width="0.5" stroke="black" fill="grey"/>
  <circle cx="1672.84" cy="1152.05" r="5.05182" stroke-width="0.5" stroke="grey" fill="grey"/>
   </g>
   <g id="cell106">
  <circle cx="1127.92" cy="1207.79" r="8.37429" stroke-width="0.5" stroke="black" fill="grey"/>
  <circle cx="1127.92" cy="1207.79" r="5.03753" stroke-width="0.5" stroke="grey" fill="grey"/>
   </g>
   <g id="cell107">
  <circle cx="1137.13" cy="1149.77" r="8.37424" stroke-width="0.5" stroke="black" fill="grey"/>
  <circle cx="1137.13" cy="1149.77" r="5.03752" stroke-width="0.5" stroke="grey" fill="grey"/>
   </g>
   <g id="cell108">
  <circle cx="1117.9" cy="1699.62" r="8.36826" stroke-width="0.5" stroke="black" fill="grey"/>
  <circle cx="1117.9" cy="1699.62" r="5.03506" stroke-width="0.5" stroke="grey" fill="grey"/>
   </g>
   <g id="cell110">
  <circle cx="1568.01" cy="1050.59" r="8.3626" stroke-width="0.5" stroke="black" fill="red"/>
  <circle cx="1568.01" cy="1050.59" r="5.03273" stroke-width="0.5" stroke="red" fill="red"/>
   </g>
   <g id="cell111">
  <circle cx="1202.58" cy="1342.27" r="8.36311" stroke-width="0.5" stroke="black" fill="grey"/>
  <circle cx="1202.58" cy="1342.27" r="5.03286" stroke-width="0.5" stroke="grey" fill="grey"/>
   </g>
  </g>
 </g>
  <rect x="1750" y="2070" width="200" height="20" stroke-width="4" stroke="rgb(255,255,255)" fill="rgb(0,0,0)"/>
  <text x="1762.5" y="2057.5"
   font-family="Arial" font-size="50" fill="black" >
   200 &#956;m
  </text>
  <text x="50" y="2090"
   font-family="Arial" font-size="37.5" fill="black" >
   0 days, 0 hours, 1 minutes, and 35.8355 seconds
  </text>
  <rect x="0" y="140" width="2000" height="2000" stroke-width="4" stroke="rgb(0,0,0)" fill="none"/>
</svg>
