<?xml version="1.0" encoding="UTF-8" standalone="no"?>
<!-- Created with PhysiCell (http://PhysiCell.MathCancer.org/) -->
<svg 
 xmlns:dc="http://purl.org/dc/elements/1.1/" 
 xmlns:cc="http://creativecommons.org/ns#" 
 xmlns:rdf="http://www.w3.org/1999/02/22-rdf-syntax-ns#" 
 xmlns:svg="http://www.w3.org/2000/svg" 
 xmlns="http://www.w3.org/2000/svg" 
 version="1.1" 
 width="2000" 
 height="2140" 
 id="svg2">
  <rect x="0" y="0" width="2000" height="2140" stroke-width="4" stroke="white" fill="white"/>
  <text x="25" y="60"
   font-family="Arial" font-size="50" fill="black" >
   Current time: 1 days, 18 hours, and 0.00 minutes, z = 0.00 &#956;m
  </text>
  <text x="25" y="115"
   font-family="Arial" font-size="47.5" fill="black" >
   33 agents
  </text>
 <g id="tissue" 
    transform="translate(0,2140) scale(1,-1)">
  <g id="ECM">
  </g>
  <g id="cells">
   <g id="cell0">
  <circle cx="1105.76" cy="1177.36" r="10.2413" stroke-width="0.5" stroke="black" fill="grey"/>
  <circle cx="1105.76" cy="1177.36" r="6.19691" stroke-width="0.5" stroke="grey" fill="grey"/>
   </g>
   <g id="cell1">
  <circle cx="1690.66" cy="1212.69" r="8.44495" stroke-width="0.5" stroke="black" fill="grey"/>
  <circle cx="1690.66" cy="1212.69" r="5.07942" stroke-width="0.5" stroke="grey" fill="grey"/>
   </g>
   <g id="cell2">
  <circle cx="1175.38" cy="1727.27" r="9.75006" stroke-width="0.5" stroke="black" fill="grey"/>
  <circle cx="1175.38" cy="1727.27" r="5.92288" stroke-width="0.5" stroke="grey" fill="grey"/>
   </g>
   <g id="cell3">
  <circle cx="1282.68" cy="1331.22" r="10.2615" stroke-width="0.5" stroke="black" fill="grey"/>
  <circle cx="1282.68" cy="1331.22" r="6.20748" stroke-width="0.5" stroke="grey" fill="grey"/>
   </g>
   <g id="cell4">
  <circle cx="871.933" cy="544.964" r="9.50106" stroke-width="0.5" stroke="black" fill="grey"/>
  <circle cx="871.933" cy="544.964" r="5.77609" stroke-width="0.5" stroke="grey" fill="grey"/>
   </g>
   <g id="cell5">
  <circle cx="106.358" cy="1974.2" r="9.64436" stroke-width="0.5" stroke="black" fill="red"/>
  <circle cx="106.358" cy="1974.2" r="5.86169" stroke-width="0.5" stroke="red" fill="red"/>
   </g>
   <g id="cell6">
  <circle cx="805.154" cy="880.442" r="8.39648" stroke-width="0.5" stroke="black" fill="red"/>
  <circle cx="805.154" cy="880.442" r="5.0463" stroke-width="0.5" stroke="red" fill="red"/>
   </g>
   <g id="cell19">
  <circle cx="1692.02" cy="1283.37" r="10.26" stroke-width="0.5" stroke="black" fill="grey"/>
  <circle cx="1692.02" cy="1283.37" r="6.20698" stroke-width="0.5" stroke="grey" fill="grey"/>
   </g>
   <g id="cell18">
  <circle cx="1654.02" cy="276.684" r="8.38114" stroke-width="0.5" stroke="black" fill="red"/>
  <circle cx="1654.02" cy="276.684" r="5.04033" stroke-width="0.5" stroke="red" fill="red"/>
   </g>
   <g id="cell9">
  <circle cx="1701.91" cy="211.643" r="9.74358" stroke-width="0.5" stroke="black" fill="red"/>
  <circle cx="1701.91" cy="211.643" r="5.92063" stroke-width="0.5" stroke="red" fill="red"/>
   </g>
   <g id="cell11">
  <circle cx="1574.92" cy="1063.82" r="10.5107" stroke-width="0.5" stroke="black" fill="red"/>
  <circle cx="1574.92" cy="1063.82" r="6.32978" stroke-width="0.5" stroke="red" fill="red"/>
   </g>
   <g id="cell20">
  <circle cx="822.737" cy="958.786" r="10.5331" stroke-width="0.5" stroke="black" fill="red"/>
  <circle cx="822.737" cy="958.786" r="6.33944" stroke-width="0.5" stroke="red" fill="red"/>
   </g>
   <g id="cell13">
  <circle cx="832.207" cy="597.113" r="9.19267" stroke-width="0.5" stroke="black" fill="grey"/>
  <circle cx="832.207" cy="597.113" r="5.58772" stroke-width="0.5" stroke="grey" fill="grey"/>
   </g>
   <g id="cell14">
  <circle cx="1193.11" cy="1308.08" r="9.49725" stroke-width="0.5" stroke="black" fill="grey"/>
  <circle cx="1193.11" cy="1308.08" r="5.77473" stroke-width="0.5" stroke="grey" fill="grey"/>
   </g>
   <g id="cell15">
  <circle cx="1151.75" cy="1163.66" r="9.5288" stroke-width="0.5" stroke="black" fill="grey"/>
  <circle cx="1151.75" cy="1163.66" r="5.79337" stroke-width="0.5" stroke="grey" fill="grey"/>
   </g>
   <g id="cell16">
  <circle cx="1189.95" cy="1708.67" r="9.83374" stroke-width="0.5" stroke="black" fill="grey"/>
  <circle cx="1189.95" cy="1708.67" r="5.97316" stroke-width="0.5" stroke="grey" fill="grey"/>
   </g>
   <g id="cell17">
  <circle cx="1104.83" cy="699.118" r="8.40922" stroke-width="0.5" stroke="black" fill="red"/>
  <circle cx="1104.83" cy="699.118" r="5.05069" stroke-width="0.5" stroke="red" fill="red"/>
   </g>
   <g id="cell21">
  <circle cx="1544.64" cy="1038.42" r="9.86425" stroke-width="0.5" stroke="black" fill="red"/>
  <circle cx="1544.64" cy="1038.42" r="5.98863" stroke-width="0.5" stroke="red" fill="red"/>
   </g>
   <g id="cell22">
  <circle cx="1173.49" cy="1753.42" r="8.41021" stroke-width="0.5" stroke="black" fill="grey"/>
  <circle cx="1173.49" cy="1753.42" r="5.05099" stroke-width="0.5" stroke="grey" fill="grey"/>
   </g>
   <g id="cell23">
  <circle cx="1251.53" cy="1300.1" r="8.41014" stroke-width="0.5" stroke="black" fill="grey"/>
  <circle cx="1251.53" cy="1300.1" r="5.05097" stroke-width="0.5" stroke="grey" fill="grey"/>
   </g>
   <g id="cell24">
  <circle cx="1156.81" cy="1206.56" r="10.3064" stroke-width="0.5" stroke="black" fill="grey"/>
  <circle cx="1156.81" cy="1206.56" r="6.23081" stroke-width="0.5" stroke="grey" fill="grey"/>
   </g>
   <g id="cell25">
  <circle cx="1120.37" cy="719.737" r="8.40922" stroke-width="0.5" stroke="black" fill="red"/>
  <circle cx="1120.37" cy="719.737" r="5.05069" stroke-width="0.5" stroke="red" fill="red"/>
   </g>
   <g id="cell26">
  <circle cx="1670.71" cy="1236.45" r="10.062" stroke-width="0.5" stroke="black" fill="grey"/>
  <circle cx="1670.71" cy="1236.45" r="6.10042" stroke-width="0.5" stroke="grey" fill="grey"/>
   </g>
   <g id="cell27">
  <circle cx="911.993" cy="552.168" r="8.40729" stroke-width="0.5" stroke="black" fill="grey"/>
  <circle cx="911.993" cy="552.168" r="5.05008" stroke-width="0.5" stroke="grey" fill="grey"/>
   </g>
   <g id="cell28">
  <circle cx="94.1531" cy="1965.52" r="8.76174" stroke-width="0.5" stroke="black" fill="red"/>
  <circle cx="94.1531" cy="1965.52" r="5.30664" stroke-width="0.5" stroke="red" fill="red"/>
   </g>
   <g id="cell29">
  <circle cx="1105.01" cy="1124.65" r="10.1178" stroke-width="0.5" stroke="black" fill="grey"/>
  <circle cx="1105.01" cy="1124.65" r="6.13155" stroke-width="0.5" stroke="grey" fill="grey"/>
   </g>
   <g id="cell30">
  <circle cx="892.71" cy="596.467" r="9.00026" stroke-width="0.5" stroke="black" fill="grey"/>
  <circle cx="892.71" cy="596.467" r="5.46547" stroke-width="0.5" stroke="grey" fill="grey"/>
   </g>
   <g id="cell31">
  <circle cx="1155.13" cy="1298.26" r="9.33458" stroke-width="0.5" stroke="black" fill="grey"/>
  <circle cx="1155.13" cy="1298.26" r="5.67593" stroke-width="0.5" stroke="grey" fill="grey"/>
   </g>
   <g id="cell32">
  <circle cx="1648.03" cy="222.001" r="8.47186" stroke-width="0.5" stroke="black" fill="red"/>
  <circle cx="1648.03" cy="222.001" r="5.09965" stroke-width="0.5" stroke="red" fill="red"/>
   </g>
   <g id="cell33">
  <circle cx="1688.67" cy="1200.14" r="8.40148" stroke-width="0.5" stroke="black" fill="grey"/>
  <circle cx="1688.67" cy="1200.14" r="5.0481" stroke-width="0.5" stroke="grey" fill="grey"/>
   </g>
   <g id="cell34">
  <circle cx="1179.24" cy="1689.65" r="8.39872" stroke-width="0.5" stroke="black" fill="grey"/>
  <circle cx="1179.24" cy="1689.65" r="5.0471" stroke-width="0.5" stroke="grey" fill="grey"/>
   </g>
   <g id="cell35">
  <circle cx="784.269" cy="855.272" r="8.44" stroke-width="0.5" stroke="black" fill="red"/>
  <circle cx="784.269" cy="855.272" r="5.07764" stroke-width="0.5" stroke="red" fill="red"/>
   </g>
   <g id="cell36">
  <circle cx="1661.55" cy="291.577" r="8.42481" stroke-width="0.5" stroke="black" fill="red"/>
  <circle cx="1661.55" cy="291.577" r="5.07173" stroke-width="0.5" stroke="red" fill="red"/>
   </g>
  </g>
 </g>
  <rect x="1750" y="2070" width="200" height="20" stroke-width="4" stroke="rgb(255,255,255)" fill="rgb(0,0,0)"/>
  <text x="1762.5" y="2057.5"
   font-family="Arial" font-size="50" fill="black" >
   200 &#956;m
  </text>
  <text x="50" y="2090"
   font-family="Arial" font-size="37.5" fill="black" >
   0 days, 0 hours, 0 minutes, and 54.5198 seconds
  </text>
  <rect x="0" y="140" width="2000" height="2000" stroke-width="4" stroke="rgb(0,0,0)" fill="none"/>
</svg>
