<?xml version="1.0" encoding="UTF-8" standalone="no"?>
<!-- Created with PhysiCell (http://PhysiCell.MathCancer.org/) -->
<svg 
 xmlns:dc="http://purl.org/dc/elements/1.1/" 
 xmlns:cc="http://creativecommons.org/ns#" 
 xmlns:rdf="http://www.w3.org/1999/02/22-rdf-syntax-ns#" 
 xmlns:svg="http://www.w3.org/2000/svg" 
 xmlns="http://www.w3.org/2000/svg" 
 version="1.1" 
 width="2000" 
 height="2140" 
 id="svg2">
  <rect x="0" y="0" width="2000" height="2140" stroke-width="4" stroke="white" fill="white"/>
  <text x="25" y="60"
   font-family="Arial" font-size="50" fill="black" >
   Current time: 0 days, 19 hours, and 10.00 minutes, z = 0.00 &#956;m
  </text>
  <text x="25" y="115"
   font-family="Arial" font-size="47.5" fill="black" >
   169 agents
  </text>
 <g id="tissue" 
    transform="translate(0,2140) scale(1,-1)">
  <g id="ECM">
  </g>
  <g id="cells">
   <g id="cell0">
  <circle cx="1078.59" cy="1186.11" r="8.3784" stroke-width="0.5" stroke="black" fill="grey"/>
  <circle cx="1078.59" cy="1186.11" r="5.03921" stroke-width="0.5" stroke="grey" fill="grey"/>
   </g>
   <g id="cell1">
  <circle cx="1681.27" cy="1185.51" r="8.39708" stroke-width="0.5" stroke="black" fill="grey"/>
  <circle cx="1681.27" cy="1185.51" r="5.0465" stroke-width="0.5" stroke="grey" fill="grey"/>
   </g>
   <g id="cell2">
  <circle cx="1102.91" cy="1742.81" r="9.36926" stroke-width="0.5" stroke="black" fill="grey"/>
  <circle cx="1102.91" cy="1742.81" r="5.697" stroke-width="0.5" stroke="grey" fill="grey"/>
   </g>
   <g id="cell3">
  <circle cx="1234.83" cy="1318.02" r="8.38532" stroke-width="0.5" stroke="black" fill="grey"/>
  <circle cx="1234.83" cy="1318.02" r="5.04199" stroke-width="0.5" stroke="grey" fill="grey"/>
   </g>
   <g id="cell4">
  <circle cx="918.534" cy="549.712" r="10.4048" stroke-width="0.5" stroke="black" fill="grey"/>
  <circle cx="918.534" cy="549.712" r="6.27981" stroke-width="0.5" stroke="grey" fill="grey"/>
   </g>
   <g id="cell5">
  <circle cx="79.7395" cy="1917.84" r="8.38849" stroke-width="0.5" stroke="black" fill="grey"/>
  <circle cx="79.7395" cy="1917.84" r="5.04906" stroke-width="0.5" stroke="grey" fill="grey"/>
   </g>
   <g id="cell6">
  <circle cx="730.381" cy="892.387" r="10.5189" stroke-width="0.5" stroke="black" fill="grey"/>
  <circle cx="730.381" cy="892.387" r="6.3332" stroke-width="0.5" stroke="grey" fill="grey"/>
   </g>
   <g id="cell7">
  <circle cx="1567.36" cy="1076.17" r="8.39316" stroke-width="0.5" stroke="black" fill="grey"/>
  <circle cx="1567.36" cy="1076.17" r="5.04503" stroke-width="0.5" stroke="grey" fill="grey"/>
   </g>
   <g id="cell8">
  <circle cx="1129.16" cy="809.521" r="8.56922" stroke-width="0.5" stroke="black" fill="grey"/>
  <circle cx="1129.16" cy="809.521" r="5.17161" stroke-width="0.5" stroke="grey" fill="grey"/>
   </g>
   <g id="cell9">
  <circle cx="1621.94" cy="166.356" r="8.37641" stroke-width="0.5" stroke="black" fill="grey"/>
  <circle cx="1621.94" cy="166.356" r="5.0384" stroke-width="0.5" stroke="grey" fill="grey"/>
   </g>
   <g id="cell10">
  <circle cx="183.408" cy="1285.07" r="10.4446" stroke-width="0.5" stroke="black" fill="grey"/>
  <circle cx="183.408" cy="1285.07" r="6.29905" stroke-width="0.5" stroke="grey" fill="grey"/>
   </g>
   <g id="cell11">
  <circle cx="748.751" cy="1647.71" r="8.40022" stroke-width="0.5" stroke="black" fill="grey"/>
  <circle cx="748.751" cy="1647.71" r="5.04764" stroke-width="0.5" stroke="grey" fill="grey"/>
   </g>
   <g id="cell12">
  <circle cx="1618.45" cy="275.009" r="8.37537" stroke-width="0.5" stroke="black" fill="grey"/>
  <circle cx="1618.45" cy="275.009" r="5.03798" stroke-width="0.5" stroke="grey" fill="grey"/>
   </g>
   <g id="cell13">
  <circle cx="1761.93" cy="1886.62" r="8.60298" stroke-width="0.5" stroke="black" fill="grey"/>
  <circle cx="1761.93" cy="1886.62" r="5.1969" stroke-width="0.5" stroke="grey" fill="grey"/>
   </g>
   <g id="cell14">
  <circle cx="1574.87" cy="1652.06" r="10.1634" stroke-width="0.5" stroke="black" fill="grey"/>
  <circle cx="1574.87" cy="1652.06" r="6.1549" stroke-width="0.5" stroke="grey" fill="grey"/>
   </g>
   <g id="cell15">
  <circle cx="1039.04" cy="1539.8" r="8.38682" stroke-width="0.5" stroke="black" fill="grey"/>
  <circle cx="1039.04" cy="1539.8" r="5.04258" stroke-width="0.5" stroke="grey" fill="grey"/>
   </g>
   <g id="cell16">
  <circle cx="256.391" cy="1419.03" r="8.83252" stroke-width="0.5" stroke="black" fill="grey"/>
  <circle cx="256.391" cy="1419.03" r="5.35737" stroke-width="0.5" stroke="grey" fill="grey"/>
   </g>
   <g id="cell17">
  <circle cx="1177.81" cy="251.454" r="8.39203" stroke-width="0.5" stroke="black" fill="grey"/>
  <circle cx="1177.81" cy="251.454" r="5.0446" stroke-width="0.5" stroke="grey" fill="grey"/>
   </g>
   <g id="cell18">
  <circle cx="1874.47" cy="1538.6" r="8.40056" stroke-width="0.5" stroke="black" fill="grey"/>
  <circle cx="1874.47" cy="1538.6" r="5.04776" stroke-width="0.5" stroke="grey" fill="grey"/>
   </g>
   <g id="cell19">
  <circle cx="224.127" cy="885.972" r="9.34292" stroke-width="0.5" stroke="black" fill="grey"/>
  <circle cx="224.127" cy="885.972" r="5.67875" stroke-width="0.5" stroke="grey" fill="grey"/>
   </g>
   <g id="cell20">
  <circle cx="558.917" cy="346.599" r="10.4355" stroke-width="0.5" stroke="black" fill="grey"/>
  <circle cx="558.917" cy="346.599" r="6.2947" stroke-width="0.5" stroke="grey" fill="grey"/>
   </g>
   <g id="cell21">
  <circle cx="1467.67" cy="914.031" r="10.5211" stroke-width="0.5" stroke="black" fill="grey"/>
  <circle cx="1467.67" cy="914.031" r="6.33419" stroke-width="0.5" stroke="grey" fill="grey"/>
   </g>
   <g id="cell22">
  <circle cx="1114.33" cy="247.871" r="10.2433" stroke-width="0.5" stroke="black" fill="grey"/>
  <circle cx="1114.33" cy="247.871" r="6.19748" stroke-width="0.5" stroke="grey" fill="grey"/>
   </g>
   <g id="cell23">
  <circle cx="641.8" cy="1243.18" r="1.71192" stroke-width="0.5" stroke="black" fill="grey"/>
  <circle cx="641.8" cy="1243.18" r="1.69866" stroke-width="0.5" stroke="black" fill="black"/>
   </g>
   <g id="cell24">
  <circle cx="1292.45" cy="414.312" r="10.3873" stroke-width="0.5" stroke="black" fill="grey"/>
  <circle cx="1292.45" cy="414.312" r="6.2712" stroke-width="0.5" stroke="grey" fill="grey"/>
   </g>
   <g id="cell25">
  <circle cx="796.35" cy="1878.56" r="9.30033" stroke-width="0.5" stroke="black" fill="grey"/>
  <circle cx="796.35" cy="1878.56" r="5.65475" stroke-width="0.5" stroke="grey" fill="grey"/>
   </g>
   <g id="cell26">
  <circle cx="1360.75" cy="885.282" r="10.4726" stroke-width="0.5" stroke="black" fill="grey"/>
  <circle cx="1360.75" cy="885.282" r="6.31223" stroke-width="0.5" stroke="grey" fill="grey"/>
   </g>
   <g id="cell27">
  <circle cx="1188.56" cy="890.048" r="9.18134" stroke-width="0.5" stroke="black" fill="grey"/>
  <circle cx="1188.56" cy="890.048" r="5.58335" stroke-width="0.5" stroke="grey" fill="grey"/>
   </g>
   <g id="cell28">
  <circle cx="1327.44" cy="160.413" r="8.4657" stroke-width="0.5" stroke="black" fill="grey"/>
  <circle cx="1327.44" cy="160.413" r="5.09738" stroke-width="0.5" stroke="grey" fill="grey"/>
   </g>
   <g id="cell29">
  <circle cx="1973.75" cy="1286.57" r="8.38454" stroke-width="0.5" stroke="black" fill="grey"/>
  <circle cx="1973.75" cy="1286.57" r="5.04168" stroke-width="0.5" stroke="grey" fill="grey"/>
   </g>
   <g id="cell30">
  <circle cx="1365.08" cy="374.665" r="8.37537" stroke-width="0.5" stroke="black" fill="grey"/>
  <circle cx="1365.08" cy="374.665" r="5.03798" stroke-width="0.5" stroke="grey" fill="grey"/>
   </g>
   <g id="cell31">
  <circle cx="689.88" cy="254.156" r="8.40123" stroke-width="0.5" stroke="black" fill="grey"/>
  <circle cx="689.88" cy="254.156" r="5.048" stroke-width="0.5" stroke="grey" fill="grey"/>
   </g>
   <g id="cell32">
  <circle cx="609.984" cy="1222.94" r="9.36736" stroke-width="0.5" stroke="black" fill="grey"/>
  <circle cx="609.984" cy="1222.94" r="5.6963" stroke-width="0.5" stroke="grey" fill="grey"/>
   </g>
   <g id="cell33">
  <circle cx="679.636" cy="1179.33" r="8.37208" stroke-width="0.5" stroke="black" fill="grey"/>
  <circle cx="679.636" cy="1179.33" r="5.03661" stroke-width="0.5" stroke="grey" fill="grey"/>
   </g>
   <g id="cell34">
  <circle cx="891.788" cy="1245.46" r="9.46643" stroke-width="0.5" stroke="black" fill="grey"/>
  <circle cx="891.788" cy="1245.46" r="5.75611" stroke-width="0.5" stroke="grey" fill="grey"/>
   </g>
   <g id="cell35">
  <circle cx="1929.44" cy="210.515" r="9.69208" stroke-width="0.5" stroke="black" fill="grey"/>
  <circle cx="1929.44" cy="210.515" r="5.89087" stroke-width="0.5" stroke="grey" fill="grey"/>
   </g>
   <g id="cell36">
  <circle cx="373.338" cy="1285.41" r="8.39752" stroke-width="0.5" stroke="black" fill="grey"/>
  <circle cx="373.338" cy="1285.41" r="5.04666" stroke-width="0.5" stroke="grey" fill="grey"/>
   </g>
   <g id="cell37">
  <circle cx="1952.52" cy="1321.21" r="10.1634" stroke-width="0.5" stroke="black" fill="grey"/>
  <circle cx="1952.52" cy="1321.21" r="6.1549" stroke-width="0.5" stroke="grey" fill="grey"/>
   </g>
   <g id="cell38">
  <circle cx="458.74" cy="841.544" r="9.71769" stroke-width="0.5" stroke="black" fill="grey"/>
  <circle cx="458.74" cy="841.544" r="5.9058" stroke-width="0.5" stroke="grey" fill="grey"/>
   </g>
   <g id="cell39">
  <circle cx="921.298" cy="507.666" r="10.4258" stroke-width="0.5" stroke="black" fill="grey"/>
  <circle cx="921.298" cy="507.666" r="6.29005" stroke-width="0.5" stroke="grey" fill="grey"/>
   </g>
   <g id="cell40">
  <circle cx="296.62" cy="640.805" r="8.40056" stroke-width="0.5" stroke="black" fill="grey"/>
  <circle cx="296.62" cy="640.805" r="5.04776" stroke-width="0.5" stroke="grey" fill="grey"/>
   </g>
   <g id="cell41">
  <circle cx="1327.39" cy="1298.71" r="8.40353" stroke-width="0.5" stroke="black" fill="grey"/>
  <circle cx="1327.39" cy="1298.71" r="5.04881" stroke-width="0.5" stroke="grey" fill="grey"/>
   </g>
   <g id="cell42">
  <circle cx="294.101" cy="1585.06" r="9.39356" stroke-width="0.5" stroke="black" fill="grey"/>
  <circle cx="294.101" cy="1585.06" r="5.71385" stroke-width="0.5" stroke="grey" fill="grey"/>
   </g>
   <g id="cell43">
  <circle cx="1943.91" cy="780.998" r="9.22276" stroke-width="0.5" stroke="black" fill="grey"/>
  <circle cx="1943.91" cy="780.998" r="5.60814" stroke-width="0.5" stroke="grey" fill="grey"/>
   </g>
   <g id="cell44">
  <circle cx="1656.44" cy="63.4547" r="8.39316" stroke-width="0.5" stroke="black" fill="grey"/>
  <circle cx="1656.44" cy="63.4547" r="5.04503" stroke-width="0.5" stroke="grey" fill="grey"/>
   </g>
   <g id="cell45">
  <circle cx="1253.81" cy="1710.5" r="8.38823" stroke-width="0.5" stroke="black" fill="grey"/>
  <circle cx="1253.81" cy="1710.5" r="5.04313" stroke-width="0.5" stroke="grey" fill="grey"/>
   </g>
   <g id="cell46">
  <circle cx="201.288" cy="1990.08" r="8.39523" stroke-width="0.5" stroke="black" fill="grey"/>
  <circle cx="201.288" cy="1990.08" r="5.04581" stroke-width="0.5" stroke="grey" fill="grey"/>
   </g>
   <g id="cell47">
  <circle cx="1731.52" cy="915.865" r="9.87885" stroke-width="0.5" stroke="black" fill="grey"/>
  <circle cx="1731.52" cy="915.865" r="5.99842" stroke-width="0.5" stroke="grey" fill="grey"/>
   </g>
   <g id="cell48">
  <circle cx="1947.29" cy="78.9932" r="8.37208" stroke-width="0.5" stroke="black" fill="grey"/>
  <circle cx="1947.29" cy="78.9932" r="5.03661" stroke-width="0.5" stroke="grey" fill="grey"/>
   </g>
   <g id="cell49">
  <circle cx="943.549" cy="1486.04" r="8.55502" stroke-width="0.5" stroke="black" fill="grey"/>
  <circle cx="943.549" cy="1486.04" r="5.16625" stroke-width="0.5" stroke="grey" fill="grey"/>
   </g>
   <g id="cell50">
  <circle cx="155.908" cy="843.868" r="8.94617" stroke-width="0.5" stroke="black" fill="red"/>
  <circle cx="155.908" cy="843.868" r="5.43413" stroke-width="0.5" stroke="red" fill="red"/>
   </g>
   <g id="cell51">
  <circle cx="1978.77" cy="270.382" r="10.2911" stroke-width="0.5" stroke="black" fill="red"/>
  <circle cx="1978.77" cy="270.382" r="6.22246" stroke-width="0.5" stroke="red" fill="red"/>
   </g>
   <g id="cell52">
  <circle cx="637.053" cy="988.781" r="9.25588" stroke-width="0.5" stroke="black" fill="red"/>
  <circle cx="637.053" cy="988.781" r="5.62939" stroke-width="0.5" stroke="red" fill="red"/>
   </g>
   <g id="cell53">
  <circle cx="1382.87" cy="642.072" r="10.1238" stroke-width="0.5" stroke="black" fill="red"/>
  <circle cx="1382.87" cy="642.072" r="6.13347" stroke-width="0.5" stroke="red" fill="red"/>
   </g>
   <g id="cell54">
  <circle cx="799.573" cy="1803.57" r="8.43827" stroke-width="0.5" stroke="black" fill="red"/>
  <circle cx="799.573" cy="1803.57" r="5.07697" stroke-width="0.5" stroke="red" fill="red"/>
   </g>
   <g id="cell55">
  <circle cx="432.88" cy="1322.58" r="10.0497" stroke-width="0.5" stroke="black" fill="red"/>
  <circle cx="432.88" cy="1322.58" r="6.09278" stroke-width="0.5" stroke="red" fill="red"/>
   </g>
   <g id="cell56">
  <circle cx="1166.16" cy="1687.75" r="10.3933" stroke-width="0.5" stroke="black" fill="red"/>
  <circle cx="1166.16" cy="1687.75" r="6.27417" stroke-width="0.5" stroke="red" fill="red"/>
   </g>
   <g id="cell57">
  <circle cx="965.077" cy="1089.35" r="9.91829" stroke-width="0.5" stroke="black" fill="red"/>
  <circle cx="965.077" cy="1089.35" r="6.02097" stroke-width="0.5" stroke="red" fill="red"/>
   </g>
   <g id="cell58">
  <circle cx="123.002" cy="1824.22" r="10.537" stroke-width="0.5" stroke="black" fill="red"/>
  <circle cx="123.002" cy="1824.22" r="6.34103" stroke-width="0.5" stroke="red" fill="red"/>
   </g>
   <g id="cell98">
  <circle cx="1817.71" cy="684.587" r="8.37935" stroke-width="0.5" stroke="black" fill="red"/>
  <circle cx="1817.71" cy="684.587" r="5.0396" stroke-width="0.5" stroke="red" fill="red"/>
   </g>
   <g id="cell60">
  <circle cx="666.021" cy="25.353" r="8.38957" stroke-width="0.5" stroke="black" fill="red"/>
  <circle cx="666.021" cy="25.353" r="5.04365" stroke-width="0.5" stroke="red" fill="red"/>
   </g>
   <g id="cell61">
  <circle cx="1653.82" cy="277.374" r="8.39664" stroke-width="0.5" stroke="black" fill="red"/>
  <circle cx="1653.82" cy="277.374" r="5.04633" stroke-width="0.5" stroke="red" fill="red"/>
   </g>
   <g id="cell62">
  <circle cx="1419.5" cy="1712.48" r="9.29317" stroke-width="0.5" stroke="black" fill="red"/>
  <circle cx="1419.5" cy="1712.48" r="5.65201" stroke-width="0.5" stroke="red" fill="red"/>
   </g>
   <g id="cell63">
  <circle cx="561.608" cy="385.815" r="10.5295" stroke-width="0.5" stroke="black" fill="red"/>
  <circle cx="561.608" cy="385.815" r="6.33783" stroke-width="0.5" stroke="red" fill="red"/>
   </g>
   <g id="cell64">
  <circle cx="1205.18" cy="1106.61" r="8.38957" stroke-width="0.5" stroke="black" fill="red"/>
  <circle cx="1205.18" cy="1106.61" r="5.04365" stroke-width="0.5" stroke="red" fill="red"/>
   </g>
   <g id="cell65">
  <circle cx="307.487" cy="1648.23" r="8.39473" stroke-width="0.5" stroke="black" fill="red"/>
  <circle cx="307.487" cy="1648.23" r="5.04562" stroke-width="0.5" stroke="red" fill="red"/>
   </g>
   <g id="cell66">
  <circle cx="28.6387" cy="301.08" r="8.38373" stroke-width="0.5" stroke="black" fill="red"/>
  <circle cx="28.6387" cy="301.08" r="5.04136" stroke-width="0.5" stroke="red" fill="red"/>
   </g>
   <g id="cell67">
  <circle cx="1131.44" cy="549.139" r="10.5092" stroke-width="0.5" stroke="black" fill="red"/>
  <circle cx="1131.44" cy="549.139" r="6.32893" stroke-width="0.5" stroke="red" fill="red"/>
   </g>
   <g id="cell68">
  <circle cx="1409.51" cy="604.65" r="8.3926" stroke-width="0.5" stroke="black" fill="red"/>
  <circle cx="1409.51" cy="604.65" r="5.04482" stroke-width="0.5" stroke="red" fill="red"/>
   </g>
   <g id="cell69">
  <circle cx="805.501" cy="504.561" r="8.37641" stroke-width="0.5" stroke="black" fill="red"/>
  <circle cx="805.501" cy="504.561" r="5.0384" stroke-width="0.5" stroke="red" fill="red"/>
   </g>
   <g id="cell70">
  <circle cx="1121.82" cy="788.951" r="9.52375" stroke-width="0.5" stroke="black" fill="red"/>
  <circle cx="1121.82" cy="788.951" r="5.79148" stroke-width="0.5" stroke="red" fill="red"/>
   </g>
   <g id="cell71">
  <circle cx="1738.2" cy="1185.65" r="8.40215" stroke-width="0.5" stroke="black" fill="red"/>
  <circle cx="1738.2" cy="1185.65" r="5.04833" stroke-width="0.5" stroke="red" fill="red"/>
   </g>
   <g id="cell72">
  <circle cx="452.926" cy="1775.16" r="8.41271" stroke-width="0.5" stroke="black" fill="red"/>
  <circle cx="452.926" cy="1775.16" r="5.05167" stroke-width="0.5" stroke="red" fill="red"/>
   </g>
   <g id="cell73">
  <circle cx="1364.69" cy="863.963" r="9.61271" stroke-width="0.5" stroke="black" fill="red"/>
  <circle cx="1364.69" cy="863.963" r="5.84395" stroke-width="0.5" stroke="red" fill="red"/>
   </g>
   <g id="cell74">
  <circle cx="1729.24" cy="1868.72" r="8.39523" stroke-width="0.5" stroke="black" fill="red"/>
  <circle cx="1729.24" cy="1868.72" r="5.04581" stroke-width="0.5" stroke="red" fill="red"/>
   </g>
   <g id="cell75">
  <circle cx="270.092" cy="559.768" r="9.70201" stroke-width="0.5" stroke="black" fill="red"/>
  <circle cx="270.092" cy="559.768" r="5.89426" stroke-width="0.5" stroke="red" fill="red"/>
   </g>
   <g id="cell76">
  <circle cx="1630" cy="773.589" r="8.3784" stroke-width="0.5" stroke="black" fill="red"/>
  <circle cx="1630" cy="773.589" r="5.03921" stroke-width="0.5" stroke="red" fill="red"/>
   </g>
   <g id="cell77">
  <circle cx="1405.36" cy="1805.71" r="9.2614" stroke-width="0.5" stroke="black" fill="red"/>
  <circle cx="1405.36" cy="1805.71" r="5.63154" stroke-width="0.5" stroke="red" fill="red"/>
   </g>
   <g id="cell78">
  <circle cx="1168.53" cy="588.649" r="10.4531" stroke-width="0.5" stroke="black" fill="red"/>
  <circle cx="1168.53" cy="588.649" r="6.30312" stroke-width="0.5" stroke="red" fill="red"/>
   </g>
   <g id="cell79">
  <circle cx="1975.07" cy="1435.51" r="8.38028" stroke-width="0.5" stroke="black" fill="red"/>
  <circle cx="1975.07" cy="1435.51" r="5.03997" stroke-width="0.5" stroke="red" fill="red"/>
   </g>
   <g id="cell80">
  <circle cx="1432.29" cy="1294.59" r="8.39794" stroke-width="0.5" stroke="black" fill="red"/>
  <circle cx="1432.29" cy="1294.59" r="5.04681" stroke-width="0.5" stroke="red" fill="red"/>
   </g>
   <g id="cell81">
  <circle cx="1128.43" cy="1915.44" r="8.39021" stroke-width="0.5" stroke="black" fill="red"/>
  <circle cx="1128.43" cy="1915.44" r="5.0439" stroke-width="0.5" stroke="red" fill="red"/>
   </g>
   <g id="cell82">
  <circle cx="1253.83" cy="810.056" r="8.4437" stroke-width="0.5" stroke="black" fill="red"/>
  <circle cx="1253.83" cy="810.056" r="5.07897" stroke-width="0.5" stroke="red" fill="red"/>
   </g>
   <g id="cell83">
  <circle cx="1233.45" cy="1208.67" r="8.403" stroke-width="0.5" stroke="black" fill="red"/>
  <circle cx="1233.45" cy="1208.67" r="5.04863" stroke-width="0.5" stroke="red" fill="red"/>
   </g>
   <g id="cell84">
  <circle cx="19.4011" cy="921.182" r="10.1879" stroke-width="0.5" stroke="black" fill="red"/>
  <circle cx="19.4011" cy="921.182" r="6.16807" stroke-width="0.5" stroke="red" fill="red"/>
   </g>
   <g id="cell85">
  <circle cx="1418.75" cy="1280.03" r="10.4761" stroke-width="0.5" stroke="black" fill="red"/>
  <circle cx="1418.75" cy="1280.03" r="6.31388" stroke-width="0.5" stroke="red" fill="red"/>
   </g>
   <g id="cell86">
  <circle cx="598.132" cy="814.554" r="8.38682" stroke-width="0.5" stroke="black" fill="red"/>
  <circle cx="598.132" cy="814.554" r="5.04258" stroke-width="0.5" stroke="red" fill="red"/>
   </g>
   <g id="cell87">
  <circle cx="1450.96" cy="891.276" r="10.4726" stroke-width="0.5" stroke="black" fill="red"/>
  <circle cx="1450.96" cy="891.276" r="6.31223" stroke-width="0.5" stroke="red" fill="red"/>
   </g>
   <g id="cell88">
  <circle cx="254.348" cy="224.567" r="8.39523" stroke-width="0.5" stroke="black" fill="red"/>
  <circle cx="254.348" cy="224.567" r="5.04581" stroke-width="0.5" stroke="red" fill="red"/>
   </g>
   <g id="cell89">
  <circle cx="199.503" cy="1161.1" r="8.39664" stroke-width="0.5" stroke="black" fill="red"/>
  <circle cx="199.503" cy="1161.1" r="5.04633" stroke-width="0.5" stroke="red" fill="red"/>
   </g>
   <g id="cell90">
  <circle cx="1169.02" cy="1116.51" r="8.36722" stroke-width="0.5" stroke="black" fill="red"/>
  <circle cx="1169.02" cy="1116.51" r="5.03458" stroke-width="0.5" stroke="red" fill="red"/>
   </g>
   <g id="cell91">
  <circle cx="63.0839" cy="1267.85" r="8.56513" stroke-width="0.5" stroke="black" fill="red"/>
  <circle cx="63.0839" cy="1267.85" r="5.17013" stroke-width="0.5" stroke="red" fill="red"/>
   </g>
   <g id="cell99">
  <circle cx="950.118" cy="1986.53" r="9.97452" stroke-width="0.5" stroke="black" fill="red"/>
  <circle cx="950.118" cy="1986.53" r="6.05262" stroke-width="0.5" stroke="red" fill="red"/>
   </g>
   <g id="cell93">
  <circle cx="406.153" cy="1763.28" r="9.1164" stroke-width="0.5" stroke="black" fill="red"/>
  <circle cx="406.153" cy="1763.28" r="5.53995" stroke-width="0.5" stroke="red" fill="red"/>
   </g>
   <g id="cell94">
  <circle cx="777.247" cy="210.625" r="8.90888" stroke-width="0.5" stroke="black" fill="red"/>
  <circle cx="777.247" cy="210.625" r="5.40906" stroke-width="0.5" stroke="red" fill="red"/>
   </g>
   <g id="cell95">
  <circle cx="1976.55" cy="1773.37" r="9.4337" stroke-width="0.5" stroke="black" fill="red"/>
  <circle cx="1976.55" cy="1773.37" r="5.73653" stroke-width="0.5" stroke="red" fill="red"/>
   </g>
   <g id="cell96">
  <circle cx="1702.87" cy="1083.17" r="10.4355" stroke-width="0.5" stroke="black" fill="red"/>
  <circle cx="1702.87" cy="1083.17" r="6.2947" stroke-width="0.5" stroke="red" fill="red"/>
   </g>
   <g id="cell97">
  <circle cx="924.207" cy="178.968" r="9.14332" stroke-width="0.5" stroke="black" fill="red"/>
  <circle cx="924.207" cy="178.968" r="5.55963" stroke-width="0.5" stroke="red" fill="red"/>
   </g>
   <g id="cell101">
  <circle cx="1322.27" cy="1256.03" r="9.93891" stroke-width="0.5" stroke="black" fill="grey"/>
  <circle cx="1322.27" cy="1256.03" r="6.03234" stroke-width="0.5" stroke="grey" fill="grey"/>
   </g>
   <g id="cell102">
  <circle cx="1075.12" cy="1789.75" r="8.71951" stroke-width="0.5" stroke="black" fill="grey"/>
  <circle cx="1075.12" cy="1789.75" r="5.27846" stroke-width="0.5" stroke="grey" fill="grey"/>
   </g>
   <g id="cell103">
  <circle cx="1222.22" cy="1268.71" r="9.83687" stroke-width="0.5" stroke="black" fill="red"/>
  <circle cx="1222.22" cy="1268.71" r="5.97431" stroke-width="0.5" stroke="red" fill="red"/>
   </g>
   <g id="cell104">
  <circle cx="777.509" cy="1871.28" r="10.0101" stroke-width="0.5" stroke="black" fill="grey"/>
  <circle cx="777.509" cy="1871.28" r="6.07235" stroke-width="0.5" stroke="grey" fill="grey"/>
   </g>
   <g id="cell105">
  <circle cx="1152.29" cy="807.959" r="10.0101" stroke-width="0.5" stroke="black" fill="grey"/>
  <circle cx="1152.29" cy="807.959" r="6.07235" stroke-width="0.5" stroke="grey" fill="grey"/>
   </g>
   <g id="cell106">
  <circle cx="434.645" cy="1777.32" r="9.71983" stroke-width="0.5" stroke="black" fill="red"/>
  <circle cx="434.645" cy="1777.32" r="5.90658" stroke-width="0.5" stroke="red" fill="red"/>
   </g>
   <g id="cell107">
  <circle cx="923.949" cy="1244.19" r="8.40272" stroke-width="0.5" stroke="black" fill="grey"/>
  <circle cx="923.949" cy="1244.19" r="5.04853" stroke-width="0.5" stroke="grey" fill="grey"/>
   </g>
   <g id="cell108">
  <circle cx="1755.65" cy="937.29" r="9.46621" stroke-width="0.5" stroke="black" fill="grey"/>
  <circle cx="1755.65" cy="937.29" r="5.75603" stroke-width="0.5" stroke="grey" fill="grey"/>
   </g>
   <g id="cell109">
  <circle cx="1732.93" cy="1205.84" r="8.40215" stroke-width="0.5" stroke="black" fill="red"/>
  <circle cx="1732.93" cy="1205.84" r="5.04833" stroke-width="0.5" stroke="red" fill="red"/>
   </g>
   <g id="cell110">
  <circle cx="985.712" cy="1974.39" r="8.40185" stroke-width="0.5" stroke="black" fill="red"/>
  <circle cx="985.712" cy="1974.39" r="5.04822" stroke-width="0.5" stroke="red" fill="red"/>
   </g>
   <g id="cell111">
  <circle cx="1959.49" cy="1736.84" r="8.40154" stroke-width="0.5" stroke="black" fill="red"/>
  <circle cx="1959.49" cy="1736.84" r="5.04811" stroke-width="0.5" stroke="red" fill="red"/>
   </g>
   <g id="cell112">
  <circle cx="1008.95" cy="1063.74" r="9.69361" stroke-width="0.5" stroke="black" fill="red"/>
  <circle cx="1008.95" cy="1063.74" r="5.89144" stroke-width="0.5" stroke="red" fill="red"/>
   </g>
   <g id="cell113">
  <circle cx="690.063" cy="181.322" r="9.29888" stroke-width="0.5" stroke="black" fill="grey"/>
  <circle cx="690.063" cy="181.322" r="5.65421" stroke-width="0.5" stroke="grey" fill="grey"/>
   </g>
   <g id="cell114">
  <circle cx="624.463" cy="1238.56" r="8.4009" stroke-width="0.5" stroke="black" fill="grey"/>
  <circle cx="624.463" cy="1238.56" r="5.04788" stroke-width="0.5" stroke="grey" fill="grey"/>
   </g>
   <g id="cell115">
  <circle cx="1746.03" cy="1922.57" r="9.03724" stroke-width="0.5" stroke="black" fill="grey"/>
  <circle cx="1746.03" cy="1922.57" r="5.48995" stroke-width="0.5" stroke="grey" fill="grey"/>
   </g>
   <g id="cell116">
  <circle cx="321.135" cy="686.666" r="8.40056" stroke-width="0.5" stroke="black" fill="grey"/>
  <circle cx="321.135" cy="686.666" r="5.04776" stroke-width="0.5" stroke="grey" fill="grey"/>
   </g>
   <g id="cell117">
  <circle cx="1892.63" cy="1545" r="9.46473" stroke-width="0.5" stroke="black" fill="grey"/>
  <circle cx="1892.63" cy="1545" r="5.75548" stroke-width="0.5" stroke="grey" fill="grey"/>
   </g>
   <g id="cell118">
  <circle cx="1331.89" cy="870.467" r="8.40056" stroke-width="0.5" stroke="black" fill="red"/>
  <circle cx="1331.89" cy="870.467" r="5.04776" stroke-width="0.5" stroke="red" fill="red"/>
   </g>
   <g id="cell119">
  <circle cx="1269.09" cy="826.763" r="8.67766" stroke-width="0.5" stroke="black" fill="red"/>
  <circle cx="1269.09" cy="826.763" r="5.25024" stroke-width="0.5" stroke="red" fill="red"/>
   </g>
   <g id="cell120">
  <circle cx="732.137" cy="1671.49" r="8.95733" stroke-width="0.5" stroke="black" fill="grey"/>
  <circle cx="732.137" cy="1671.49" r="5.4385" stroke-width="0.5" stroke="grey" fill="grey"/>
   </g>
   <g id="cell121">
  <circle cx="441.469" cy="885.364" r="9.36653" stroke-width="0.5" stroke="black" fill="grey"/>
  <circle cx="441.469" cy="885.364" r="5.69598" stroke-width="0.5" stroke="grey" fill="grey"/>
   </g>
   <g id="cell122">
  <circle cx="1919.41" cy="247.838" r="8.83594" stroke-width="0.5" stroke="black" fill="grey"/>
  <circle cx="1919.41" cy="247.838" r="5.35868" stroke-width="0.5" stroke="grey" fill="grey"/>
   </g>
   <g id="cell123">
  <circle cx="85.3177" cy="1247.21" r="9.43147" stroke-width="0.5" stroke="black" fill="red"/>
  <circle cx="85.3177" cy="1247.21" r="5.7357" stroke-width="0.5" stroke="red" fill="red"/>
   </g>
   <g id="cell124">
  <circle cx="1398.4" cy="1822.93" r="9.58317" stroke-width="0.5" stroke="black" fill="red"/>
  <circle cx="1398.4" cy="1822.93" r="5.82672" stroke-width="0.5" stroke="red" fill="red"/>
   </g>
   <g id="cell125">
  <circle cx="1444.09" cy="1313.36" r="8.6373" stroke-width="0.5" stroke="black" fill="red"/>
  <circle cx="1444.09" cy="1313.36" r="5.22246" stroke-width="0.5" stroke="red" fill="red"/>
   </g>
   <g id="cell126">
  <circle cx="1175.18" cy="796.517" r="8.99481" stroke-width="0.5" stroke="black" fill="red"/>
  <circle cx="1175.18" cy="796.517" r="5.46343" stroke-width="0.5" stroke="red" fill="red"/>
   </g>
   <g id="cell127">
  <circle cx="397.735" cy="1278.59" r="8.39752" stroke-width="0.5" stroke="black" fill="grey"/>
  <circle cx="397.735" cy="1278.59" r="5.04666" stroke-width="0.5" stroke="grey" fill="grey"/>
   </g>
   <g id="cell128">
  <circle cx="1666.51" cy="1221.85" r="8.39708" stroke-width="0.5" stroke="black" fill="grey"/>
  <circle cx="1666.51" cy="1221.85" r="5.0465" stroke-width="0.5" stroke="grey" fill="grey"/>
   </g>
   <g id="cell129">
  <circle cx="1672.36" cy="292.374" r="9.58156" stroke-width="0.5" stroke="black" fill="red"/>
  <circle cx="1672.36" cy="292.374" r="5.82611" stroke-width="0.5" stroke="red" fill="red"/>
   </g>
   <g id="cell130">
  <circle cx="226.797" cy="1178.79" r="9.25968" stroke-width="0.5" stroke="black" fill="red"/>
  <circle cx="226.797" cy="1178.79" r="5.63088" stroke-width="0.5" stroke="red" fill="red"/>
   </g>
   <g id="cell131">
  <circle cx="257.852" cy="1456.22" r="8.56222" stroke-width="0.5" stroke="black" fill="grey"/>
  <circle cx="257.852" cy="1456.22" r="5.16904" stroke-width="0.5" stroke="grey" fill="grey"/>
   </g>
   <g id="cell132">
  <circle cx="1961.13" cy="778.207" r="9.32915" stroke-width="0.5" stroke="black" fill="grey"/>
  <circle cx="1961.13" cy="778.207" r="5.67386" stroke-width="0.5" stroke="grey" fill="grey"/>
   </g>
   <g id="cell133">
  <circle cx="251.177" cy="200.495" r="8.5276" stroke-width="0.5" stroke="black" fill="red"/>
  <circle cx="251.177" cy="200.495" r="5.1437" stroke-width="0.5" stroke="red" fill="red"/>
   </g>
   <g id="cell134">
  <circle cx="1362.04" cy="166.047" r="9.52197" stroke-width="0.5" stroke="black" fill="grey"/>
  <circle cx="1362.04" cy="166.047" r="5.7908" stroke-width="0.5" stroke="grey" fill="grey"/>
   </g>
   <g id="cell135">
  <circle cx="167.31" cy="1964.11" r="8.95294" stroke-width="0.5" stroke="black" fill="grey"/>
  <circle cx="167.31" cy="1964.11" r="5.43682" stroke-width="0.5" stroke="grey" fill="grey"/>
   </g>
   <g id="cell136">
  <circle cx="1702.31" cy="1897.82" r="8.39523" stroke-width="0.5" stroke="black" fill="red"/>
  <circle cx="1702.31" cy="1897.82" r="5.04581" stroke-width="0.5" stroke="red" fill="red"/>
   </g>
   <g id="cell137">
  <circle cx="772.25" cy="1835.8" r="9.14767" stroke-width="0.5" stroke="black" fill="red"/>
  <circle cx="772.25" cy="1835.8" r="5.56136" stroke-width="0.5" stroke="red" fill="red"/>
   </g>
   <g id="cell138">
  <circle cx="316.718" cy="1620.8" r="8.39473" stroke-width="0.5" stroke="black" fill="red"/>
  <circle cx="316.718" cy="1620.8" r="5.04562" stroke-width="0.5" stroke="red" fill="red"/>
   </g>
   <g id="cell139">
  <circle cx="1417.44" cy="1667.12" r="9.42789" stroke-width="0.5" stroke="black" fill="red"/>
  <circle cx="1417.44" cy="1667.12" r="5.73431" stroke-width="0.5" stroke="red" fill="red"/>
   </g>
   <g id="cell140">
  <circle cx="1583.78" cy="1023.74" r="8.83021" stroke-width="0.5" stroke="black" fill="grey"/>
  <circle cx="1583.78" cy="1023.74" r="5.35647" stroke-width="0.5" stroke="grey" fill="grey"/>
   </g>
   <g id="cell141">
  <circle cx="1664.05" cy="37.7859" r="8.78989" stroke-width="0.5" stroke="black" fill="grey"/>
  <circle cx="1664.05" cy="37.7859" r="5.3294" stroke-width="0.5" stroke="grey" fill="grey"/>
   </g>
   <g id="cell142">
  <circle cx="1441.79" cy="629.08" r="8.41249" stroke-width="0.5" stroke="black" fill="red"/>
  <circle cx="1441.79" cy="629.08" r="5.05871" stroke-width="0.5" stroke="red" fill="red"/>
   </g>
   <g id="cell143">
  <circle cx="617.292" cy="949.422" r="8.90994" stroke-width="0.5" stroke="black" fill="red"/>
  <circle cx="617.292" cy="949.422" r="5.40949" stroke-width="0.5" stroke="red" fill="red"/>
   </g>
   <g id="cell144">
  <circle cx="1189.86" cy="266.633" r="8.39203" stroke-width="0.5" stroke="black" fill="grey"/>
  <circle cx="1189.86" cy="266.633" r="5.0446" stroke-width="0.5" stroke="grey" fill="grey"/>
   </g>
   <g id="cell145">
  <circle cx="264.494" cy="1539.92" r="8.46255" stroke-width="0.5" stroke="black" fill="grey"/>
  <circle cx="264.494" cy="1539.92" r="5.09619" stroke-width="0.5" stroke="grey" fill="grey"/>
   </g>
   <g id="cell146">
  <circle cx="746.812" cy="170.101" r="8.39083" stroke-width="0.5" stroke="black" fill="red"/>
  <circle cx="746.812" cy="170.101" r="5.04414" stroke-width="0.5" stroke="red" fill="red"/>
   </g>
   <g id="cell147">
  <circle cx="1129.39" cy="1886.8" r="8.39021" stroke-width="0.5" stroke="black" fill="red"/>
  <circle cx="1129.39" cy="1886.8" r="5.0439" stroke-width="0.5" stroke="red" fill="red"/>
   </g>
   <g id="cell148">
  <circle cx="1196.23" cy="918.229" r="8.39021" stroke-width="0.5" stroke="black" fill="grey"/>
  <circle cx="1196.23" cy="918.229" r="5.0439" stroke-width="0.5" stroke="grey" fill="grey"/>
   </g>
   <g id="cell149">
  <circle cx="660.932" cy="49.8487" r="9.02746" stroke-width="0.5" stroke="black" fill="red"/>
  <circle cx="660.932" cy="49.8487" r="5.48613" stroke-width="0.5" stroke="red" fill="red"/>
   </g>
   <g id="cell150">
  <circle cx="1192.18" cy="1086.72" r="8.62939" stroke-width="0.5" stroke="black" fill="red"/>
  <circle cx="1192.18" cy="1086.72" r="5.2194" stroke-width="0.5" stroke="red" fill="red"/>
   </g>
   <g id="cell151">
  <circle cx="947.228" cy="185.239" r="8.38957" stroke-width="0.5" stroke="black" fill="red"/>
  <circle cx="947.228" cy="185.239" r="5.04365" stroke-width="0.5" stroke="red" fill="red"/>
   </g>
   <g id="cell152">
  <circle cx="1221.94" cy="1707.1" r="8.38823" stroke-width="0.5" stroke="black" fill="grey"/>
  <circle cx="1221.94" cy="1707.1" r="5.04313" stroke-width="0.5" stroke="grey" fill="grey"/>
   </g>
   <g id="cell153">
  <circle cx="918.93" cy="1489.04" r="8.38823" stroke-width="0.5" stroke="black" fill="grey"/>
  <circle cx="918.93" cy="1489.04" r="5.04313" stroke-width="0.5" stroke="grey" fill="grey"/>
   </g>
   <g id="cell154">
  <circle cx="165.058" cy="830.549" r="8.38753" stroke-width="0.5" stroke="black" fill="red"/>
  <circle cx="165.058" cy="830.549" r="5.04286" stroke-width="0.5" stroke="red" fill="red"/>
   </g>
   <g id="cell155">
  <circle cx="559.842" cy="805.143" r="8.55366" stroke-width="0.5" stroke="black" fill="red"/>
  <circle cx="559.842" cy="805.143" r="5.16572" stroke-width="0.5" stroke="red" fill="red"/>
   </g>
   <g id="cell156">
  <circle cx="1054.54" cy="1528.01" r="3.77477" stroke-width="0.5" stroke="black" fill="grey"/>
  <circle cx="1054.54" cy="1528.01" r="2.79569" stroke-width="0.5" stroke="black" fill="black"/>
   </g>
   <g id="cell157">
  <circle cx="1249.83" cy="1289.11" r="8.62537" stroke-width="0.5" stroke="black" fill="grey"/>
  <circle cx="1249.83" cy="1289.11" r="5.2178" stroke-width="0.5" stroke="grey" fill="grey"/>
   </g>
   <g id="cell158">
  <circle cx="1931.67" cy="1322.3" r="8.38454" stroke-width="0.5" stroke="black" fill="grey"/>
  <circle cx="1931.67" cy="1322.3" r="5.04168" stroke-width="0.5" stroke="grey" fill="grey"/>
   </g>
   <g id="cell159">
  <circle cx="51.9593" cy="245.636" r="8.5507" stroke-width="0.5" stroke="black" fill="red"/>
  <circle cx="51.9593" cy="245.636" r="5.16453" stroke-width="0.5" stroke="red" fill="red"/>
   </g>
   <g id="cell160">
  <circle cx="1985.25" cy="1447.21" r="8.38028" stroke-width="0.5" stroke="black" fill="red"/>
  <circle cx="1985.25" cy="1447.21" r="5.03997" stroke-width="0.5" stroke="red" fill="red"/>
   </g>
   <g id="cell161">
  <circle cx="1802.19" cy="664.736" r="8.37935" stroke-width="0.5" stroke="black" fill="red"/>
  <circle cx="1802.19" cy="664.736" r="5.0396" stroke-width="0.5" stroke="red" fill="red"/>
   </g>
   <g id="cell162">
  <circle cx="1624.21" cy="758.832" r="8.3784" stroke-width="0.5" stroke="black" fill="red"/>
  <circle cx="1624.21" cy="758.832" r="5.03921" stroke-width="0.5" stroke="red" fill="red"/>
   </g>
   <g id="cell163">
  <circle cx="1092.86" cy="1200.02" r="5.58715" stroke-width="0.5" stroke="black" fill="grey"/>
  <circle cx="1092.86" cy="1200.02" r="3.62463" stroke-width="0.5" stroke="black" fill="black"/>
   </g>
   <g id="cell164">
  <circle cx="825.457" cy="506.205" r="8.37641" stroke-width="0.5" stroke="black" fill="red"/>
  <circle cx="825.457" cy="506.205" r="5.0384" stroke-width="0.5" stroke="red" fill="red"/>
   </g>
   <g id="cell165">
  <circle cx="1595.09" cy="178.771" r="8.37641" stroke-width="0.5" stroke="black" fill="grey"/>
  <circle cx="1595.09" cy="178.771" r="5.0384" stroke-width="0.5" stroke="grey" fill="grey"/>
   </g>
   <g id="cell166">
  <circle cx="1360.06" cy="354.831" r="8.37537" stroke-width="0.5" stroke="black" fill="grey"/>
  <circle cx="1360.06" cy="354.831" r="5.03798" stroke-width="0.5" stroke="grey" fill="grey"/>
   </g>
   <g id="cell167">
  <circle cx="1632.68" cy="271.081" r="8.37537" stroke-width="0.5" stroke="black" fill="grey"/>
  <circle cx="1632.68" cy="271.081" r="5.03798" stroke-width="0.5" stroke="grey" fill="grey"/>
   </g>
   <g id="cell168">
  <circle cx="686.335" cy="1192.45" r="8.37208" stroke-width="0.5" stroke="black" fill="grey"/>
  <circle cx="686.335" cy="1192.45" r="5.03661" stroke-width="0.5" stroke="grey" fill="grey"/>
   </g>
   <g id="cell169">
  <circle cx="1954.22" cy="92.7193" r="8.37208" stroke-width="0.5" stroke="black" fill="grey"/>
  <circle cx="1954.22" cy="92.7193" r="5.03661" stroke-width="0.5" stroke="grey" fill="grey"/>
   </g>
   <g id="cell170">
  <circle cx="90.5594" cy="1907.23" r="8.36849" stroke-width="0.5" stroke="black" fill="grey"/>
  <circle cx="90.5594" cy="1907.23" r="5.03512" stroke-width="0.5" stroke="grey" fill="grey"/>
   </g>
   <g id="cell171">
  <circle cx="1158.85" cy="1097.28" r="8.36722" stroke-width="0.5" stroke="black" fill="red"/>
  <circle cx="1158.85" cy="1097.28" r="5.03458" stroke-width="0.5" stroke="red" fill="red"/>
   </g>
  </g>
 </g>
  <rect x="1750" y="2070" width="200" height="20" stroke-width="4" stroke="rgb(255,255,255)" fill="rgb(0,0,0)"/>
  <text x="1762.5" y="2057.5"
   font-family="Arial" font-size="50" fill="black" >
   200 &#956;m
  </text>
  <text x="50" y="2090"
   font-family="Arial" font-size="37.5" fill="black" >
   0 days, 0 hours, 0 minutes, and 28.4448 seconds
  </text>
  <rect x="0" y="140" width="2000" height="2000" stroke-width="4" stroke="rgb(0,0,0)" fill="none"/>
</svg>
