<?xml version="1.0" encoding="UTF-8" standalone="no"?>
<!-- Created with PhysiCell (http://PhysiCell.MathCancer.org/) -->
<svg 
 xmlns:dc="http://purl.org/dc/elements/1.1/" 
 xmlns:cc="http://creativecommons.org/ns#" 
 xmlns:rdf="http://www.w3.org/1999/02/22-rdf-syntax-ns#" 
 xmlns:svg="http://www.w3.org/2000/svg" 
 xmlns="http://www.w3.org/2000/svg" 
 version="1.1" 
 width="2000" 
 height="2140" 
 id="svg2">
  <rect x="0" y="0" width="2000" height="2140" stroke-width="4" stroke="white" fill="white"/>
  <text x="25" y="60"
   font-family="Arial" font-size="50" fill="black" >
   Current time: 0 days, 9 hours, and 40.00 minutes, z = 0.00 &#956;m
  </text>
  <text x="25" y="115"
   font-family="Arial" font-size="47.5" fill="black" >
   100 agents
  </text>
 <g id="tissue" 
    transform="translate(0,2140) scale(1,-1)">
  <g id="ECM">
  </g>
  <g id="cells">
   <g id="cell0">
  <circle cx="1121.47" cy="1157.65" r="10.0654" stroke-width="0.5" stroke="black" fill="grey"/>
  <circle cx="1121.47" cy="1157.65" r="6.10145" stroke-width="0.5" stroke="grey" fill="grey"/>
   </g>
   <g id="cell1">
  <circle cx="1693.75" cy="1167.05" r="9.7992" stroke-width="0.5" stroke="black" fill="grey"/>
  <circle cx="1693.75" cy="1167.05" r="5.95086" stroke-width="0.5" stroke="grey" fill="grey"/>
   </g>
   <g id="cell2">
  <circle cx="1137.62" cy="1705.83" r="10.2433" stroke-width="0.5" stroke="black" fill="grey"/>
  <circle cx="1137.62" cy="1705.83" r="6.19748" stroke-width="0.5" stroke="grey" fill="grey"/>
   </g>
   <g id="cell3">
  <circle cx="1230.76" cy="1284.3" r="10.4048" stroke-width="0.5" stroke="black" fill="grey"/>
  <circle cx="1230.76" cy="1284.3" r="6.27981" stroke-width="0.5" stroke="grey" fill="grey"/>
   </g>
   <g id="cell4">
  <circle cx="851.474" cy="618.233" r="10.2999" stroke-width="0.5" stroke="black" fill="grey"/>
  <circle cx="851.474" cy="618.233" r="6.22699" stroke-width="0.5" stroke="grey" fill="grey"/>
   </g>
   <g id="cell5">
  <circle cx="97.1548" cy="1958.9" r="8.7678" stroke-width="0.5" stroke="black" fill="grey"/>
  <circle cx="97.1548" cy="1958.9" r="5.30857" stroke-width="0.5" stroke="grey" fill="grey"/>
   </g>
   <g id="cell6">
  <circle cx="779.593" cy="918.199" r="10.1506" stroke-width="0.5" stroke="black" fill="grey"/>
  <circle cx="779.593" cy="918.199" r="6.14798" stroke-width="0.5" stroke="grey" fill="grey"/>
   </g>
   <g id="cell7">
  <circle cx="1640.84" cy="1070.61" r="10.2911" stroke-width="0.5" stroke="black" fill="grey"/>
  <circle cx="1640.84" cy="1070.61" r="6.22246" stroke-width="0.5" stroke="grey" fill="grey"/>
   </g>
   <g id="cell8">
  <circle cx="1123.75" cy="779.269" r="10.1634" stroke-width="0.5" stroke="black" fill="grey"/>
  <circle cx="1123.75" cy="779.269" r="6.1549" stroke-width="0.5" stroke="grey" fill="grey"/>
   </g>
   <g id="cell9">
  <circle cx="1706.03" cy="135.229" r="9.53557" stroke-width="0.5" stroke="black" fill="grey"/>
  <circle cx="1706.03" cy="135.229" r="5.79561" stroke-width="0.5" stroke="grey" fill="grey"/>
   </g>
   <g id="cell10">
  <circle cx="170.642" cy="1282.53" r="10.3873" stroke-width="0.5" stroke="black" fill="grey"/>
  <circle cx="170.642" cy="1282.53" r="6.2712" stroke-width="0.5" stroke="grey" fill="grey"/>
   </g>
   <g id="cell11">
  <circle cx="701.451" cy="1686.89" r="10.0806" stroke-width="0.5" stroke="black" fill="grey"/>
  <circle cx="701.451" cy="1686.89" r="6.10985" stroke-width="0.5" stroke="grey" fill="grey"/>
   </g>
   <g id="cell12">
  <circle cx="1535.67" cy="338.702" r="10.2534" stroke-width="0.5" stroke="black" fill="grey"/>
  <circle cx="1535.67" cy="338.702" r="6.2028" stroke-width="0.5" stroke="grey" fill="grey"/>
   </g>
   <g id="cell13">
  <circle cx="1757.89" cy="1959.61" r="9.20015" stroke-width="0.5" stroke="black" fill="grey"/>
  <circle cx="1757.89" cy="1959.61" r="5.59022" stroke-width="0.5" stroke="grey" fill="grey"/>
   </g>
   <g id="cell14">
  <circle cx="1580.49" cy="1579.08" r="10.0336" stroke-width="0.5" stroke="black" fill="grey"/>
  <circle cx="1580.49" cy="1579.08" r="6.08382" stroke-width="0.5" stroke="grey" fill="grey"/>
   </g>
   <g id="cell15">
  <circle cx="1033.49" cy="1593.31" r="10.3811" stroke-width="0.5" stroke="black" fill="grey"/>
  <circle cx="1033.49" cy="1593.31" r="6.26814" stroke-width="0.5" stroke="grey" fill="grey"/>
   </g>
   <g id="cell16">
  <circle cx="239.333" cy="1461.32" r="10.3811" stroke-width="0.5" stroke="black" fill="grey"/>
  <circle cx="239.333" cy="1461.32" r="6.26814" stroke-width="0.5" stroke="grey" fill="grey"/>
   </g>
   <g id="cell17">
  <circle cx="1161.41" cy="310.022" r="10.3811" stroke-width="0.5" stroke="black" fill="grey"/>
  <circle cx="1161.41" cy="310.022" r="6.26814" stroke-width="0.5" stroke="grey" fill="grey"/>
   </g>
   <g id="cell18">
  <circle cx="1878.29" cy="1542.02" r="8.41271" stroke-width="0.5" stroke="black" fill="grey"/>
  <circle cx="1878.29" cy="1542.02" r="5.05167" stroke-width="0.5" stroke="grey" fill="grey"/>
   </g>
   <g id="cell19">
  <circle cx="207.76" cy="849.512" r="8.41271" stroke-width="0.5" stroke="black" fill="grey"/>
  <circle cx="207.76" cy="849.512" r="5.05167" stroke-width="0.5" stroke="grey" fill="grey"/>
   </g>
   <g id="cell20">
  <circle cx="550.471" cy="357.6" r="10.3325" stroke-width="0.5" stroke="black" fill="grey"/>
  <circle cx="550.471" cy="357.6" r="6.24369" stroke-width="0.5" stroke="grey" fill="grey"/>
   </g>
   <g id="cell21">
  <circle cx="1452.72" cy="912.927" r="10.1506" stroke-width="0.5" stroke="black" fill="grey"/>
  <circle cx="1452.72" cy="912.927" r="6.14798" stroke-width="0.5" stroke="grey" fill="grey"/>
   </g>
   <g id="cell22">
  <circle cx="1174.41" cy="238.118" r="10.3682" stroke-width="0.5" stroke="black" fill="grey"/>
  <circle cx="1174.41" cy="238.118" r="6.26172" stroke-width="0.5" stroke="grey" fill="grey"/>
   </g>
   <g id="cell23">
  <circle cx="644.639" cy="1212.78" r="10.34" stroke-width="0.5" stroke="black" fill="grey"/>
  <circle cx="644.639" cy="1212.78" r="6.24753" stroke-width="0.5" stroke="grey" fill="grey"/>
   </g>
   <g id="cell24">
  <circle cx="1233.49" cy="441.016" r="1.6312" stroke-width="0.5" stroke="black" fill="grey"/>
  <circle cx="1233.49" cy="441.016" r="1.59812" stroke-width="0.5" stroke="black" fill="black"/>
   </g>
   <g id="cell25">
  <circle cx="746.744" cy="1907.49" r="10.3474" stroke-width="0.5" stroke="black" fill="grey"/>
  <circle cx="746.744" cy="1907.49" r="6.25125" stroke-width="0.5" stroke="grey" fill="grey"/>
   </g>
   <g id="cell26">
  <circle cx="1390.88" cy="916.473" r="8.9283" stroke-width="0.5" stroke="black" fill="grey"/>
  <circle cx="1390.88" cy="916.473" r="5.4161" stroke-width="0.5" stroke="grey" fill="grey"/>
   </g>
   <g id="cell27">
  <circle cx="1226.81" cy="837.922" r="10.2911" stroke-width="0.5" stroke="black" fill="grey"/>
  <circle cx="1226.81" cy="837.922" r="6.22246" stroke-width="0.5" stroke="grey" fill="grey"/>
   </g>
   <g id="cell28">
  <circle cx="1393.91" cy="202.998" r="10.3991" stroke-width="0.5" stroke="black" fill="grey"/>
  <circle cx="1393.91" cy="202.998" r="6.27703" stroke-width="0.5" stroke="grey" fill="grey"/>
   </g>
   <g id="cell29">
  <circle cx="1933.73" cy="1328.61" r="10.3991" stroke-width="0.5" stroke="black" fill="grey"/>
  <circle cx="1933.73" cy="1328.61" r="6.27703" stroke-width="0.5" stroke="grey" fill="grey"/>
   </g>
   <g id="cell30">
  <circle cx="1358.92" cy="368.578" r="9.30826" stroke-width="0.5" stroke="black" fill="grey"/>
  <circle cx="1358.92" cy="368.578" r="5.65742" stroke-width="0.5" stroke="grey" fill="grey"/>
   </g>
   <g id="cell31">
  <circle cx="723.898" cy="277.451" r="10.0169" stroke-width="0.5" stroke="black" fill="grey"/>
  <circle cx="723.898" cy="277.451" r="6.07458" stroke-width="0.5" stroke="grey" fill="grey"/>
   </g>
   <g id="cell32">
  <circle cx="687.099" cy="1204.69" r="10.4307" stroke-width="0.5" stroke="black" fill="grey"/>
  <circle cx="687.099" cy="1204.69" r="6.29241" stroke-width="0.5" stroke="grey" fill="grey"/>
   </g>
   <g id="cell33">
  <circle cx="629.772" cy="1151.21" r="9.53557" stroke-width="0.5" stroke="black" fill="grey"/>
  <circle cx="629.772" cy="1151.21" r="5.79561" stroke-width="0.5" stroke="grey" fill="grey"/>
   </g>
   <g id="cell34">
  <circle cx="863.262" cy="1299.99" r="10.0955" stroke-width="0.5" stroke="black" fill="grey"/>
  <circle cx="863.262" cy="1299.99" r="6.11797" stroke-width="0.5" stroke="grey" fill="grey"/>
   </g>
   <g id="cell35">
  <circle cx="1915.19" cy="181.507" r="9.62199" stroke-width="0.5" stroke="black" fill="grey"/>
  <circle cx="1915.19" cy="181.507" r="5.8471" stroke-width="0.5" stroke="grey" fill="grey"/>
   </g>
   <g id="cell36">
  <circle cx="413.57" cy="1259.62" r="10.34" stroke-width="0.5" stroke="black" fill="grey"/>
  <circle cx="413.57" cy="1259.62" r="6.24753" stroke-width="0.5" stroke="grey" fill="grey"/>
   </g>
   <g id="cell37">
  <circle cx="1976.52" cy="1372.34" r="10.2221" stroke-width="0.5" stroke="black" fill="grey"/>
  <circle cx="1976.52" cy="1372.34" r="6.18628" stroke-width="0.5" stroke="grey" fill="grey"/>
   </g>
   <g id="cell38">
  <circle cx="513.584" cy="862.918" r="8.41271" stroke-width="0.5" stroke="black" fill="grey"/>
  <circle cx="513.584" cy="862.918" r="5.05167" stroke-width="0.5" stroke="grey" fill="grey"/>
   </g>
   <g id="cell39">
  <circle cx="916.632" cy="486.29" r="10.2534" stroke-width="0.5" stroke="black" fill="grey"/>
  <circle cx="916.632" cy="486.29" r="6.2028" stroke-width="0.5" stroke="grey" fill="grey"/>
   </g>
   <g id="cell40">
  <circle cx="329.974" cy="670.127" r="10.2433" stroke-width="0.5" stroke="black" fill="grey"/>
  <circle cx="329.974" cy="670.127" r="6.19748" stroke-width="0.5" stroke="grey" fill="grey"/>
   </g>
   <g id="cell41">
  <circle cx="1333.69" cy="1317.23" r="9.94548" stroke-width="0.5" stroke="black" fill="grey"/>
  <circle cx="1333.69" cy="1317.23" r="6.03448" stroke-width="0.5" stroke="grey" fill="grey"/>
   </g>
   <g id="cell42">
  <circle cx="234.013" cy="1565.14" r="8.41271" stroke-width="0.5" stroke="black" fill="grey"/>
  <circle cx="234.013" cy="1565.14" r="5.05167" stroke-width="0.5" stroke="grey" fill="grey"/>
   </g>
   <g id="cell43">
  <circle cx="1877.15" cy="729.824" r="8.41271" stroke-width="0.5" stroke="black" fill="grey"/>
  <circle cx="1877.15" cy="729.824" r="5.05167" stroke-width="0.5" stroke="grey" fill="grey"/>
   </g>
   <g id="cell44">
  <circle cx="1639.53" cy="51.5791" r="10.1879" stroke-width="0.5" stroke="black" fill="grey"/>
  <circle cx="1639.53" cy="51.5791" r="6.16807" stroke-width="0.5" stroke="grey" fill="grey"/>
   </g>
   <g id="cell45">
  <circle cx="1212.01" cy="1655.16" r="8.41271" stroke-width="0.5" stroke="black" fill="grey"/>
  <circle cx="1212.01" cy="1655.16" r="5.05167" stroke-width="0.5" stroke="grey" fill="grey"/>
   </g>
   <g id="cell46">
  <circle cx="180.714" cy="1884.06" r="9.53557" stroke-width="0.5" stroke="black" fill="grey"/>
  <circle cx="180.714" cy="1884.06" r="5.79561" stroke-width="0.5" stroke="grey" fill="grey"/>
   </g>
   <g id="cell47">
  <circle cx="1761.35" cy="972.638" r="10.3474" stroke-width="0.5" stroke="black" fill="grey"/>
  <circle cx="1761.35" cy="972.638" r="6.25125" stroke-width="0.5" stroke="grey" fill="grey"/>
   </g>
   <g id="cell48">
  <circle cx="1975.86" cy="103.082" r="10.3682" stroke-width="0.5" stroke="black" fill="grey"/>
  <circle cx="1975.86" cy="103.082" r="6.26172" stroke-width="0.5" stroke="grey" fill="grey"/>
   </g>
   <g id="cell49">
  <circle cx="844.482" cy="1474.07" r="10.4156" stroke-width="0.5" stroke="black" fill="grey"/>
  <circle cx="844.482" cy="1474.07" r="6.2851" stroke-width="0.5" stroke="grey" fill="grey"/>
   </g>
   <g id="cell50">
  <circle cx="81.5013" cy="904.5" r="10.4307" stroke-width="0.5" stroke="black" fill="red"/>
  <circle cx="81.5013" cy="904.5" r="6.29241" stroke-width="0.5" stroke="red" fill="red"/>
   </g>
   <g id="cell51">
  <circle cx="1957.95" cy="254.41" r="9.2729" stroke-width="0.5" stroke="black" fill="red"/>
  <circle cx="1957.95" cy="254.41" r="5.63555" stroke-width="0.5" stroke="red" fill="red"/>
   </g>
   <g id="cell52">
  <circle cx="595.799" cy="992.318" r="10.1996" stroke-width="0.5" stroke="black" fill="red"/>
  <circle cx="595.799" cy="992.318" r="6.17434" stroke-width="0.5" stroke="red" fill="red"/>
   </g>
   <g id="cell53">
  <circle cx="1340.49" cy="590.185" r="10.4102" stroke-width="0.5" stroke="black" fill="red"/>
  <circle cx="1340.49" cy="590.185" r="6.2825" stroke-width="0.5" stroke="red" fill="red"/>
   </g>
   <g id="cell54">
  <circle cx="786.994" cy="1838.45" r="10.4307" stroke-width="0.5" stroke="black" fill="red"/>
  <circle cx="786.994" cy="1838.45" r="6.29241" stroke-width="0.5" stroke="red" fill="red"/>
   </g>
   <g id="cell55">
  <circle cx="424.572" cy="1393.83" r="10.34" stroke-width="0.5" stroke="black" fill="red"/>
  <circle cx="424.572" cy="1393.83" r="6.24753" stroke-width="0.5" stroke="red" fill="red"/>
   </g>
   <g id="cell56">
  <circle cx="1154.45" cy="1690.17" r="8.80772" stroke-width="0.5" stroke="black" fill="red"/>
  <circle cx="1154.45" cy="1690.17" r="5.33574" stroke-width="0.5" stroke="red" fill="red"/>
   </g>
   <g id="cell57">
  <circle cx="1021" cy="1039.54" r="8.41271" stroke-width="0.5" stroke="black" fill="red"/>
  <circle cx="1021" cy="1039.54" r="5.05167" stroke-width="0.5" stroke="red" fill="red"/>
   </g>
   <g id="cell58">
  <circle cx="171.722" cy="1798.13" r="10.3247" stroke-width="0.5" stroke="black" fill="red"/>
  <circle cx="171.722" cy="1798.13" r="6.23971" stroke-width="0.5" stroke="red" fill="red"/>
   </g>
   <g id="cell59">
  <circle cx="171.722" cy="1844.99" r="1.84609" stroke-width="0.5" stroke="black" fill="red"/>
  <circle cx="171.722" cy="1844.99" r="1.81025" stroke-width="0.5" stroke="black" fill="black"/>
   </g>
   <g id="cell60">
  <circle cx="671.285" cy="44.4289" r="10.3991" stroke-width="0.5" stroke="black" fill="red"/>
  <circle cx="671.285" cy="44.4289" r="6.27703" stroke-width="0.5" stroke="red" fill="red"/>
   </g>
   <g id="cell61">
  <circle cx="1659.9" cy="282.383" r="10.1506" stroke-width="0.5" stroke="black" fill="red"/>
  <circle cx="1659.9" cy="282.383" r="6.14798" stroke-width="0.5" stroke="red" fill="red"/>
   </g>
   <g id="cell62">
  <circle cx="1424.61" cy="1665.66" r="9.75192" stroke-width="0.5" stroke="black" fill="red"/>
  <circle cx="1424.61" cy="1665.66" r="5.92342" stroke-width="0.5" stroke="red" fill="red"/>
   </g>
   <g id="cell63">
  <circle cx="515.92" cy="349.86" r="8.9283" stroke-width="0.5" stroke="black" fill="red"/>
  <circle cx="515.92" cy="349.86" r="5.4161" stroke-width="0.5" stroke="red" fill="red"/>
   </g>
   <g id="cell64">
  <circle cx="1155.09" cy="1112.3" r="9.77588" stroke-width="0.5" stroke="black" fill="red"/>
  <circle cx="1155.09" cy="1112.3" r="5.93735" stroke-width="0.5" stroke="red" fill="red"/>
   </g>
   <g id="cell65">
  <circle cx="373.626" cy="1629.33" r="10.34" stroke-width="0.5" stroke="black" fill="red"/>
  <circle cx="373.626" cy="1629.33" r="6.24753" stroke-width="0.5" stroke="red" fill="red"/>
   </g>
   <g id="cell66">
  <circle cx="26.0597" cy="318.071" r="10.1506" stroke-width="0.5" stroke="black" fill="red"/>
  <circle cx="26.0597" cy="318.071" r="6.14798" stroke-width="0.5" stroke="red" fill="red"/>
   </g>
   <g id="cell67">
  <circle cx="1107.7" cy="558.231" r="10.0169" stroke-width="0.5" stroke="black" fill="red"/>
  <circle cx="1107.7" cy="558.231" r="6.07458" stroke-width="0.5" stroke="red" fill="red"/>
   </g>
   <g id="cell68">
  <circle cx="1469.05" cy="593.473" r="10.3325" stroke-width="0.5" stroke="black" fill="red"/>
  <circle cx="1469.05" cy="593.473" r="6.24369" stroke-width="0.5" stroke="red" fill="red"/>
   </g>
   <g id="cell69">
  <circle cx="883.18" cy="538.945" r="8.41271" stroke-width="0.5" stroke="black" fill="red"/>
  <circle cx="883.18" cy="538.945" r="5.05167" stroke-width="0.5" stroke="red" fill="red"/>
   </g>
   <g id="cell70">
  <circle cx="1172.82" cy="802.63" r="10.2632" stroke-width="0.5" stroke="black" fill="red"/>
  <circle cx="1172.82" cy="802.63" r="6.20796" stroke-width="0.5" stroke="red" fill="red"/>
   </g>
   <g id="cell71">
  <circle cx="1758" cy="1125.71" r="10.1879" stroke-width="0.5" stroke="black" fill="red"/>
  <circle cx="1758" cy="1125.71" r="6.16807" stroke-width="0.5" stroke="red" fill="red"/>
   </g>
   <g id="cell72">
  <circle cx="441.847" cy="1823.38" r="9.5053" stroke-width="0.5" stroke="black" fill="red"/>
  <circle cx="441.847" cy="1823.38" r="5.77744" stroke-width="0.5" stroke="red" fill="red"/>
   </g>
   <g id="cell73">
  <circle cx="1411.87" cy="887.917" r="10.3615" stroke-width="0.5" stroke="black" fill="red"/>
  <circle cx="1411.87" cy="887.917" r="6.25834" stroke-width="0.5" stroke="red" fill="red"/>
   </g>
   <g id="cell74">
  <circle cx="1687.18" cy="1947.45" r="10.3545" stroke-width="0.5" stroke="black" fill="red"/>
  <circle cx="1687.18" cy="1947.45" r="6.25485" stroke-width="0.5" stroke="red" fill="red"/>
   </g>
   <g id="cell75">
  <circle cx="199.012" cy="601.528" r="8.61424" stroke-width="0.5" stroke="black" fill="red"/>
  <circle cx="199.012" cy="601.528" r="5.20061" stroke-width="0.5" stroke="red" fill="red"/>
   </g>
   <g id="cell76">
  <circle cx="1610.88" cy="841.382" r="10.0169" stroke-width="0.5" stroke="black" fill="red"/>
  <circle cx="1610.88" cy="841.382" r="6.07458" stroke-width="0.5" stroke="red" fill="red"/>
   </g>
   <g id="cell77">
  <circle cx="1394.56" cy="1761.7" r="9.82189" stroke-width="0.5" stroke="black" fill="red"/>
  <circle cx="1394.56" cy="1761.7" r="5.96395" stroke-width="0.5" stroke="red" fill="red"/>
   </g>
   <g id="cell78">
  <circle cx="1222.73" cy="645.543" r="9.82189" stroke-width="0.5" stroke="black" fill="red"/>
  <circle cx="1222.73" cy="645.543" r="5.96395" stroke-width="0.5" stroke="red" fill="red"/>
   </g>
   <g id="cell79">
  <circle cx="1922" cy="1394.36" r="8.41271" stroke-width="0.5" stroke="black" fill="red"/>
  <circle cx="1922" cy="1394.36" r="5.05167" stroke-width="0.5" stroke="red" fill="red"/>
   </g>
   <g id="cell80">
  <circle cx="1413.27" cy="1274.63" r="10.1879" stroke-width="0.5" stroke="black" fill="red"/>
  <circle cx="1413.27" cy="1274.63" r="6.16807" stroke-width="0.5" stroke="red" fill="red"/>
   </g>
   <g id="cell81">
  <circle cx="1073.97" cy="1890.12" r="1.8919" stroke-width="0.5" stroke="black" fill="red"/>
  <circle cx="1073.97" cy="1890.12" r="1.84368" stroke-width="0.5" stroke="black" fill="black"/>
   </g>
   <g id="cell82">
  <circle cx="1251.35" cy="780.161" r="10.2221" stroke-width="0.5" stroke="black" fill="red"/>
  <circle cx="1251.35" cy="780.161" r="6.18628" stroke-width="0.5" stroke="red" fill="red"/>
   </g>
   <g id="cell83">
  <circle cx="1262.99" cy="1241.51" r="9.7273" stroke-width="0.5" stroke="black" fill="red"/>
  <circle cx="1262.99" cy="1241.51" r="5.90906" stroke-width="0.5" stroke="red" fill="red"/>
   </g>
   <g id="cell84">
  <circle cx="21.9836" cy="957.737" r="10.3933" stroke-width="0.5" stroke="black" fill="red"/>
  <circle cx="21.9836" cy="957.737" r="6.27417" stroke-width="0.5" stroke="red" fill="red"/>
   </g>
   <g id="cell85">
  <circle cx="1418.3" cy="1295.52" r="9.20015" stroke-width="0.5" stroke="black" fill="red"/>
  <circle cx="1418.3" cy="1295.52" r="5.59022" stroke-width="0.5" stroke="red" fill="red"/>
   </g>
   <g id="cell86">
  <circle cx="597.459" cy="786.369" r="8.41271" stroke-width="0.5" stroke="black" fill="red"/>
  <circle cx="597.459" cy="786.369" r="5.05167" stroke-width="0.5" stroke="red" fill="red"/>
   </g>
   <g id="cell87">
  <circle cx="1481.15" cy="871.13" r="10.1506" stroke-width="0.5" stroke="black" fill="red"/>
  <circle cx="1481.15" cy="871.13" r="6.14798" stroke-width="0.5" stroke="red" fill="red"/>
   </g>
   <g id="cell88">
  <circle cx="293.984" cy="184.245" r="10.1879" stroke-width="0.5" stroke="black" fill="red"/>
  <circle cx="293.984" cy="184.245" r="6.16807" stroke-width="0.5" stroke="red" fill="red"/>
   </g>
   <g id="cell89">
  <circle cx="181.554" cy="1156.69" r="8.41271" stroke-width="0.5" stroke="black" fill="red"/>
  <circle cx="181.554" cy="1156.69" r="5.05167" stroke-width="0.5" stroke="red" fill="red"/>
   </g>
   <g id="cell90">
  <circle cx="1172.48" cy="1095.53" r="8.57856" stroke-width="0.5" stroke="black" fill="red"/>
  <circle cx="1172.48" cy="1095.53" r="5.17461" stroke-width="0.5" stroke="red" fill="red"/>
   </g>
   <g id="cell91">
  <circle cx="42.8404" cy="1281.28" r="8.7678" stroke-width="0.5" stroke="black" fill="red"/>
  <circle cx="42.8404" cy="1281.28" r="5.30857" stroke-width="0.5" stroke="red" fill="red"/>
   </g>
   <g id="cell92">
  <circle cx="1261.82" cy="636.103" r="10.4307" stroke-width="0.5" stroke="black" fill="red"/>
  <circle cx="1261.82" cy="636.103" r="6.29241" stroke-width="0.5" stroke="red" fill="red"/>
   </g>
   <g id="cell93">
  <circle cx="447.646" cy="1791.48" r="9.90658" stroke-width="0.5" stroke="black" fill="red"/>
  <circle cx="447.646" cy="1791.48" r="6.01243" stroke-width="0.5" stroke="red" fill="red"/>
   </g>
   <g id="cell94">
  <circle cx="748.242" cy="223.654" r="10.2821" stroke-width="0.5" stroke="black" fill="red"/>
  <circle cx="748.242" cy="223.654" r="6.21778" stroke-width="0.5" stroke="red" fill="red"/>
   </g>
   <g id="cell95">
  <circle cx="1990.22" cy="1765.84" r="10.2433" stroke-width="0.5" stroke="black" fill="red"/>
  <circle cx="1990.22" cy="1765.84" r="6.19748" stroke-width="0.5" stroke="red" fill="red"/>
   </g>
   <g id="cell96">
  <circle cx="1624.38" cy="1100.5" r="10.3247" stroke-width="0.5" stroke="black" fill="red"/>
  <circle cx="1624.38" cy="1100.5" r="6.23971" stroke-width="0.5" stroke="red" fill="red"/>
   </g>
   <g id="cell97">
  <circle cx="870.35" cy="213.807" r="10.4048" stroke-width="0.5" stroke="black" fill="red"/>
  <circle cx="870.35" cy="213.807" r="6.27981" stroke-width="0.5" stroke="red" fill="red"/>
   </g>
   <g id="cell98">
  <circle cx="1808.67" cy="693.544" r="10.4208" stroke-width="0.5" stroke="black" fill="red"/>
  <circle cx="1808.67" cy="693.544" r="6.28762" stroke-width="0.5" stroke="red" fill="red"/>
   </g>
   <g id="cell99">
  <circle cx="920.397" cy="1983.09" r="10.4258" stroke-width="0.5" stroke="black" fill="red"/>
  <circle cx="920.397" cy="1983.09" r="6.29005" stroke-width="0.5" stroke="red" fill="red"/>
   </g>
  </g>
 </g>
  <rect x="1750" y="2070" width="200" height="20" stroke-width="4" stroke="rgb(255,255,255)" fill="rgb(0,0,0)"/>
  <text x="1762.5" y="2057.5"
   font-family="Arial" font-size="50" fill="black" >
   200 &#956;m
  </text>
  <text x="50" y="2090"
   font-family="Arial" font-size="37.5" fill="black" >
   0 days, 0 hours, 0 minutes, and 14.4242 seconds
  </text>
  <rect x="0" y="140" width="2000" height="2000" stroke-width="4" stroke="rgb(0,0,0)" fill="none"/>
</svg>
