<?xml version="1.0" encoding="UTF-8" standalone="no"?>
<!-- Created with PhysiCell (http://PhysiCell.MathCancer.org/) -->
<svg 
 xmlns:dc="http://purl.org/dc/elements/1.1/" 
 xmlns:cc="http://creativecommons.org/ns#" 
 xmlns:rdf="http://www.w3.org/1999/02/22-rdf-syntax-ns#" 
 xmlns:svg="http://www.w3.org/2000/svg" 
 xmlns="http://www.w3.org/2000/svg" 
 version="1.1" 
 width="2000" 
 height="2140" 
 id="svg2">
  <rect x="0" y="0" width="2000" height="2140" stroke-width="4" stroke="white" fill="white"/>
  <text x="25" y="60"
   font-family="Arial" font-size="50" fill="black" >
   Current time: 0 days, 20 hours, and 0.00 minutes, z = 0.00 &#956;m
  </text>
  <text x="25" y="115"
   font-family="Arial" font-size="47.5" fill="black" >
   118 agents
  </text>
 <g id="tissue" 
    transform="translate(0,2140) scale(1,-1)">
  <g id="ECM">
  </g>
  <g id="cells">
   <g id="cell0">
  <circle cx="1076.48" cy="1168.55" r="8.37935" stroke-width="0.5" stroke="black" fill="grey"/>
  <circle cx="1076.48" cy="1168.55" r="5.0396" stroke-width="0.5" stroke="grey" fill="grey"/>
   </g>
   <g id="cell141">
  <circle cx="41.4976" cy="324.399" r="8.38206" stroke-width="0.5" stroke="black" fill="red"/>
  <circle cx="41.4976" cy="324.399" r="5.04069" stroke-width="0.5" stroke="red" fill="red"/>
   </g>
   <g id="cell2">
  <circle cx="1085.17" cy="1722.26" r="1.40559" stroke-width="0.5" stroke="black" fill="grey"/>
  <circle cx="1085.17" cy="1722.26" r="1.40098" stroke-width="0.5" stroke="black" fill="black"/>
   </g>
   <g id="cell3">
  <circle cx="1232.26" cy="1304.07" r="9.43116" stroke-width="0.5" stroke="black" fill="grey"/>
  <circle cx="1232.26" cy="1304.07" r="5.73558" stroke-width="0.5" stroke="grey" fill="grey"/>
   </g>
   <g id="cell92">
  <circle cx="1269.71" cy="576.809" r="9.74546" stroke-width="0.5" stroke="black" fill="red"/>
  <circle cx="1269.71" cy="576.809" r="5.92131" stroke-width="0.5" stroke="red" fill="red"/>
   </g>
   <g id="cell5">
  <circle cx="112.368" cy="1979.14" r="10.0497" stroke-width="0.5" stroke="black" fill="grey"/>
  <circle cx="112.368" cy="1979.14" r="6.09278" stroke-width="0.5" stroke="grey" fill="grey"/>
   </g>
   <g id="cell6">
  <circle cx="756.497" cy="967.274" r="8.65127" stroke-width="0.5" stroke="black" fill="grey"/>
  <circle cx="756.497" cy="967.274" r="5.2272" stroke-width="0.5" stroke="grey" fill="grey"/>
   </g>
   <g id="cell7">
  <circle cx="1634.12" cy="1064.24" r="2.40261" stroke-width="0.5" stroke="black" fill="grey"/>
  <circle cx="1634.12" cy="1064.24" r="2.2707" stroke-width="0.5" stroke="black" fill="black"/>
   </g>
   <g id="cell8">
  <circle cx="1140.89" cy="799.13" r="8.40378" stroke-width="0.5" stroke="black" fill="grey"/>
  <circle cx="1140.89" cy="799.13" r="5.0489" stroke-width="0.5" stroke="grey" fill="grey"/>
   </g>
   <g id="cell121">
  <circle cx="299.854" cy="1670.11" r="8.83525" stroke-width="0.5" stroke="black" fill="red"/>
  <circle cx="299.854" cy="1670.11" r="5.35842" stroke-width="0.5" stroke="red" fill="red"/>
   </g>
   <g id="cell124">
  <circle cx="556.549" cy="381.111" r="9.61005" stroke-width="0.5" stroke="black" fill="red"/>
  <circle cx="556.549" cy="381.111" r="5.84294" stroke-width="0.5" stroke="red" fill="red"/>
   </g>
   <g id="cell11">
  <circle cx="777.291" cy="1671.47" r="8.41271" stroke-width="0.5" stroke="black" fill="grey"/>
  <circle cx="777.291" cy="1671.47" r="5.05167" stroke-width="0.5" stroke="grey" fill="grey"/>
   </g>
   <g id="cell12">
  <circle cx="1568.9" cy="193.26" r="1.77762" stroke-width="0.5" stroke="black" fill="grey"/>
  <circle cx="1568.9" cy="193.26" r="1.7607" stroke-width="0.5" stroke="black" fill="black"/>
   </g>
   <g id="cell96">
  <circle cx="1527.1" cy="1088.53" r="9.83844" stroke-width="0.5" stroke="black" fill="red"/>
  <circle cx="1527.1" cy="1088.53" r="5.97488" stroke-width="0.5" stroke="red" fill="red"/>
   </g>
   <g id="cell14">
  <circle cx="1521.72" cy="1624.53" r="10.3474" stroke-width="0.5" stroke="black" fill="grey"/>
  <circle cx="1521.72" cy="1624.53" r="6.25125" stroke-width="0.5" stroke="grey" fill="grey"/>
   </g>
   <g id="cell98">
  <circle cx="1870.45" cy="712.701" r="9.79332" stroke-width="0.5" stroke="black" fill="red"/>
  <circle cx="1870.45" cy="712.701" r="5.94895" stroke-width="0.5" stroke="red" fill="red"/>
   </g>
   <g id="cell95">
  <circle cx="1976.15" cy="1818.6" r="8.39203" stroke-width="0.5" stroke="black" fill="red"/>
  <circle cx="1976.15" cy="1818.6" r="5.0446" stroke-width="0.5" stroke="red" fill="red"/>
   </g>
   <g id="cell94">
  <circle cx="713.066" cy="236.866" r="9.11865" stroke-width="0.5" stroke="black" fill="red"/>
  <circle cx="713.066" cy="236.866" r="5.54077" stroke-width="0.5" stroke="red" fill="red"/>
   </g>
   <g id="cell122">
  <circle cx="1254.26" cy="1316.71" r="9.29653" stroke-width="0.5" stroke="black" fill="grey"/>
  <circle cx="1254.26" cy="1316.71" r="5.65332" stroke-width="0.5" stroke="grey" fill="grey"/>
   </g>
   <g id="cell19">
  <circle cx="182.183" cy="794.499" r="2.15065" stroke-width="0.5" stroke="black" fill="grey"/>
  <circle cx="182.183" cy="794.499" r="2.00267" stroke-width="0.5" stroke="black" fill="black"/>
   </g>
   <g id="cell133">
  <circle cx="209.656" cy="1150.9" r="8.48992" stroke-width="0.5" stroke="black" fill="red"/>
  <circle cx="209.656" cy="1150.9" r="5.11762" stroke-width="0.5" stroke="red" fill="red"/>
   </g>
   <g id="cell123">
  <circle cx="1329.75" cy="953.604" r="9.58255" stroke-width="0.5" stroke="black" fill="red"/>
  <circle cx="1329.75" cy="953.604" r="5.82649" stroke-width="0.5" stroke="red" fill="red"/>
   </g>
   <g id="cell22">
  <circle cx="1142.7" cy="295.776" r="1.20653" stroke-width="0.5" stroke="black" fill="grey"/>
  <circle cx="1142.7" cy="295.776" r="1.20179" stroke-width="0.5" stroke="black" fill="black"/>
   </g>
   <g id="cell90">
  <circle cx="1186.99" cy="1068.32" r="10.5066" stroke-width="0.5" stroke="black" fill="red"/>
  <circle cx="1186.99" cy="1068.32" r="6.32777" stroke-width="0.5" stroke="red" fill="red"/>
   </g>
   <g id="cell140">
  <circle cx="29.671" cy="973.841" r="8.38291" stroke-width="0.5" stroke="black" fill="red"/>
  <circle cx="29.671" cy="973.841" r="5.04103" stroke-width="0.5" stroke="red" fill="red"/>
   </g>
   <g id="cell25">
  <circle cx="760.298" cy="1866.55" r="8.40494" stroke-width="0.5" stroke="black" fill="grey"/>
  <circle cx="760.298" cy="1866.55" r="5.04929" stroke-width="0.5" stroke="grey" fill="grey"/>
   </g>
   <g id="cell93">
  <circle cx="462.683" cy="1798.76" r="9.30226" stroke-width="0.5" stroke="black" fill="red"/>
  <circle cx="462.683" cy="1798.76" r="5.65545" stroke-width="0.5" stroke="red" fill="red"/>
   </g>
   <g id="cell108">
  <circle cx="1917.38" cy="683.428" r="8.40472" stroke-width="0.5" stroke="black" fill="red"/>
  <circle cx="1917.38" cy="683.428" r="5.04922" stroke-width="0.5" stroke="red" fill="red"/>
   </g>
   <g id="cell89">
  <circle cx="212.432" cy="1134.22" r="8.43316" stroke-width="0.5" stroke="black" fill="red"/>
  <circle cx="212.432" cy="1134.22" r="5.07502" stroke-width="0.5" stroke="red" fill="red"/>
   </g>
   <g id="cell29">
  <circle cx="1910.4" cy="1319.5" r="10.5275" stroke-width="0.5" stroke="black" fill="grey"/>
  <circle cx="1910.4" cy="1319.5" r="6.33696" stroke-width="0.5" stroke="grey" fill="grey"/>
   </g>
   <g id="cell30">
  <circle cx="1366.18" cy="314.534" r="1.7049" stroke-width="0.5" stroke="black" fill="grey"/>
  <circle cx="1366.18" cy="314.534" r="1.68916" stroke-width="0.5" stroke="black" fill="black"/>
   </g>
   <g id="cell31">
  <circle cx="762.532" cy="277.097" r="9.66735" stroke-width="0.5" stroke="black" fill="grey"/>
  <circle cx="762.532" cy="277.097" r="5.87608" stroke-width="0.5" stroke="grey" fill="grey"/>
   </g>
   <g id="cell86">
  <circle cx="559.268" cy="811.004" r="10.4048" stroke-width="0.5" stroke="black" fill="red"/>
  <circle cx="559.268" cy="811.004" r="6.27981" stroke-width="0.5" stroke="red" fill="red"/>
   </g>
   <g id="cell88">
  <circle cx="265.46" cy="215.213" r="8.39203" stroke-width="0.5" stroke="black" fill="red"/>
  <circle cx="265.46" cy="215.213" r="5.0446" stroke-width="0.5" stroke="red" fill="red"/>
   </g>
   <g id="cell119">
  <circle cx="1625.3" cy="871.373" r="9.64014" stroke-width="0.5" stroke="black" fill="red"/>
  <circle cx="1625.3" cy="871.373" r="5.86016" stroke-width="0.5" stroke="red" fill="red"/>
   </g>
   <g id="cell91">
  <circle cx="106.674" cy="1288.23" r="10.0101" stroke-width="0.5" stroke="black" fill="red"/>
  <circle cx="106.674" cy="1288.23" r="6.07235" stroke-width="0.5" stroke="red" fill="red"/>
   </g>
   <g id="cell87">
  <circle cx="1446.8" cy="817.434" r="8.40403" stroke-width="0.5" stroke="black" fill="red"/>
  <circle cx="1446.8" cy="817.434" r="5.04898" stroke-width="0.5" stroke="red" fill="red"/>
   </g>
   <g id="cell37">
  <circle cx="1962.83" cy="1304.61" r="3.68236" stroke-width="0.5" stroke="black" fill="grey"/>
  <circle cx="1962.83" cy="1304.61" r="2.85261" stroke-width="0.5" stroke="black" fill="black"/>
   </g>
   <g id="cell138">
  <circle cx="1117.51" cy="750.246" r="8.38373" stroke-width="0.5" stroke="black" fill="red"/>
  <circle cx="1117.51" cy="750.246" r="5.04136" stroke-width="0.5" stroke="red" fill="red"/>
   </g>
   <g id="cell39">
  <circle cx="948.941" cy="490.615" r="7.90309" stroke-width="0.5" stroke="black" fill="grey"/>
  <circle cx="948.941" cy="490.615" r="4.93814" stroke-width="0.5" stroke="black" fill="black"/>
   </g>
   <g id="cell40">
  <circle cx="329.458" cy="687.875" r="2.16032" stroke-width="0.5" stroke="black" fill="grey"/>
  <circle cx="329.458" cy="687.875" r="2.10376" stroke-width="0.5" stroke="black" fill="black"/>
   </g>
   <g id="cell134">
  <circle cx="1162.97" cy="1140.11" r="8.59154" stroke-width="0.5" stroke="black" fill="red"/>
  <circle cx="1162.97" cy="1140.11" r="5.19254" stroke-width="0.5" stroke="red" fill="red"/>
   </g>
   <g id="cell42">
  <circle cx="302.177" cy="1559.02" r="1.54917" stroke-width="0.5" stroke="black" fill="grey"/>
  <circle cx="302.177" cy="1559.02" r="1.53835" stroke-width="0.5" stroke="black" fill="black"/>
   </g>
   <g id="cell84">
  <circle cx="32.4865" cy="957.453" r="8.38291" stroke-width="0.5" stroke="black" fill="red"/>
  <circle cx="32.4865" cy="957.453" r="5.04103" stroke-width="0.5" stroke="red" fill="red"/>
   </g>
   <g id="cell85">
  <circle cx="1399.24" cy="1288.93" r="8.39021" stroke-width="0.5" stroke="black" fill="red"/>
  <circle cx="1399.24" cy="1288.93" r="5.0439" stroke-width="0.5" stroke="red" fill="red"/>
   </g>
   <g id="cell114">
  <circle cx="106.512" cy="1316.51" r="9.19203" stroke-width="0.5" stroke="black" fill="red"/>
  <circle cx="106.512" cy="1316.51" r="5.58748" stroke-width="0.5" stroke="red" fill="red"/>
   </g>
   <g id="cell46">
  <circle cx="175.455" cy="1919.1" r="2.11603" stroke-width="0.5" stroke="black" fill="grey"/>
  <circle cx="175.455" cy="1919.1" r="1.97902" stroke-width="0.5" stroke="black" fill="black"/>
   </g>
   <g id="cell47">
  <circle cx="1755.36" cy="919.933" r="10.1374" stroke-width="0.5" stroke="black" fill="grey"/>
  <circle cx="1755.36" cy="919.933" r="6.14084" stroke-width="0.5" stroke="grey" fill="grey"/>
   </g>
   <g id="cell97">
  <circle cx="916.06" cy="225.744" r="8.38028" stroke-width="0.5" stroke="black" fill="red"/>
  <circle cx="916.06" cy="225.744" r="5.03997" stroke-width="0.5" stroke="red" fill="red"/>
   </g>
   <g id="cell112">
  <circle cx="1156.72" cy="778.603" r="9.79262" stroke-width="0.5" stroke="black" fill="grey"/>
  <circle cx="1156.72" cy="778.603" r="5.9487" stroke-width="0.5" stroke="grey" fill="grey"/>
   </g>
   <g id="cell50">
  <circle cx="64.1868" cy="831.429" r="8.40494" stroke-width="0.5" stroke="black" fill="red"/>
  <circle cx="64.1868" cy="831.429" r="5.04929" stroke-width="0.5" stroke="red" fill="red"/>
   </g>
   <g id="cell51">
  <circle cx="1922.97" cy="239.692" r="3.331" stroke-width="0.5" stroke="black" fill="red"/>
  <circle cx="1922.97" cy="239.692" r="2.82089" stroke-width="0.5" stroke="black" fill="black"/>
   </g>
   <g id="cell52">
  <circle cx="545.455" cy="962.899" r="9.66735" stroke-width="0.5" stroke="black" fill="red"/>
  <circle cx="545.455" cy="962.899" r="5.87608" stroke-width="0.5" stroke="red" fill="red"/>
   </g>
   <g id="cell53">
  <circle cx="1308.14" cy="655.497" r="8.38028" stroke-width="0.5" stroke="black" fill="red"/>
  <circle cx="1308.14" cy="655.497" r="5.03997" stroke-width="0.5" stroke="red" fill="red"/>
   </g>
   <g id="cell54">
  <circle cx="805.838" cy="1882.97" r="9.33361" stroke-width="0.5" stroke="black" fill="red"/>
  <circle cx="805.838" cy="1882.97" r="5.67557" stroke-width="0.5" stroke="red" fill="red"/>
   </g>
   <g id="cell55">
  <circle cx="461.749" cy="1374.33" r="8.40494" stroke-width="0.5" stroke="black" fill="red"/>
  <circle cx="461.749" cy="1374.33" r="5.04929" stroke-width="0.5" stroke="red" fill="red"/>
   </g>
   <g id="cell56">
  <circle cx="1115.75" cy="1727.8" r="8.38608" stroke-width="0.5" stroke="black" fill="red"/>
  <circle cx="1115.75" cy="1727.8" r="5.04229" stroke-width="0.5" stroke="red" fill="red"/>
   </g>
   <g id="cell57">
  <circle cx="1045.17" cy="1079.31" r="8.6435" stroke-width="0.5" stroke="black" fill="red"/>
  <circle cx="1045.17" cy="1079.31" r="5.22472" stroke-width="0.5" stroke="red" fill="red"/>
   </g>
   <g id="cell99">
  <circle cx="916.521" cy="1939.22" r="8.55222" stroke-width="0.5" stroke="black" fill="red"/>
  <circle cx="916.521" cy="1939.22" r="5.16514" stroke-width="0.5" stroke="red" fill="red"/>
   </g>
   <g id="cell59">
  <circle cx="161.99" cy="1851.51" r="8.38957" stroke-width="0.5" stroke="black" fill="red"/>
  <circle cx="161.99" cy="1851.51" r="5.04365" stroke-width="0.5" stroke="red" fill="red"/>
   </g>
   <g id="cell60">
  <circle cx="677.924" cy="27.9917" r="8.38532" stroke-width="0.5" stroke="black" fill="red"/>
  <circle cx="677.924" cy="27.9917" r="5.04199" stroke-width="0.5" stroke="red" fill="red"/>
   </g>
   <g id="cell61">
  <circle cx="1691.52" cy="293.122" r="8.37935" stroke-width="0.5" stroke="black" fill="red"/>
  <circle cx="1691.52" cy="293.122" r="5.0396" stroke-width="0.5" stroke="red" fill="red"/>
   </g>
   <g id="cell62">
  <circle cx="1412.2" cy="1708.4" r="8.3784" stroke-width="0.5" stroke="black" fill="red"/>
  <circle cx="1412.2" cy="1708.4" r="5.03921" stroke-width="0.5" stroke="red" fill="red"/>
   </g>
   <g id="cell63">
  <circle cx="571.257" cy="338.559" r="8.39708" stroke-width="0.5" stroke="black" fill="red"/>
  <circle cx="571.257" cy="338.559" r="5.0465" stroke-width="0.5" stroke="red" fill="red"/>
   </g>
   <g id="cell64">
  <circle cx="1194.63" cy="1158.2" r="8.38891" stroke-width="0.5" stroke="black" fill="red"/>
  <circle cx="1194.63" cy="1158.2" r="5.0434" stroke-width="0.5" stroke="red" fill="red"/>
   </g>
   <g id="cell65">
  <circle cx="306.957" cy="1635.5" r="8.39874" stroke-width="0.5" stroke="black" fill="red"/>
  <circle cx="306.957" cy="1635.5" r="5.04711" stroke-width="0.5" stroke="red" fill="red"/>
   </g>
   <g id="cell66">
  <circle cx="26.6032" cy="319.481" r="8.38206" stroke-width="0.5" stroke="black" fill="red"/>
  <circle cx="26.6032" cy="319.481" r="5.04069" stroke-width="0.5" stroke="red" fill="red"/>
   </g>
   <g id="cell67">
  <circle cx="1118.92" cy="553.2" r="10.3873" stroke-width="0.5" stroke="black" fill="red"/>
  <circle cx="1118.92" cy="553.2" r="6.2712" stroke-width="0.5" stroke="red" fill="red"/>
   </g>
   <g id="cell68">
  <circle cx="1421.77" cy="600.132" r="9.61271" stroke-width="0.5" stroke="black" fill="red"/>
  <circle cx="1421.77" cy="600.132" r="5.84395" stroke-width="0.5" stroke="red" fill="red"/>
   </g>
   <g id="cell69">
  <circle cx="849.224" cy="482.281" r="8.38957" stroke-width="0.5" stroke="black" fill="red"/>
  <circle cx="849.224" cy="482.281" r="5.04365" stroke-width="0.5" stroke="red" fill="red"/>
   </g>
   <g id="cell70">
  <circle cx="1093.84" cy="716.676" r="8.38373" stroke-width="0.5" stroke="black" fill="red"/>
  <circle cx="1093.84" cy="716.676" r="5.04136" stroke-width="0.5" stroke="red" fill="red"/>
   </g>
   <g id="cell71">
  <circle cx="1745.27" cy="1109.07" r="8.38957" stroke-width="0.5" stroke="black" fill="red"/>
  <circle cx="1745.27" cy="1109.07" r="5.04365" stroke-width="0.5" stroke="red" fill="red"/>
   </g>
   <g id="cell72">
  <circle cx="438.744" cy="1710.7" r="8.41271" stroke-width="0.5" stroke="black" fill="red"/>
  <circle cx="438.744" cy="1710.7" r="5.05167" stroke-width="0.5" stroke="red" fill="red"/>
   </g>
   <g id="cell73">
  <circle cx="1325.97" cy="891.254" r="8.39794" stroke-width="0.5" stroke="black" fill="red"/>
  <circle cx="1325.97" cy="891.254" r="5.04681" stroke-width="0.5" stroke="red" fill="red"/>
   </g>
   <g id="cell74">
  <circle cx="1759.97" cy="1959.37" r="8.87595" stroke-width="0.5" stroke="black" fill="red"/>
  <circle cx="1759.97" cy="1959.37" r="5.38538" stroke-width="0.5" stroke="red" fill="red"/>
   </g>
   <g id="cell75">
  <circle cx="196.843" cy="599" r="8.5713" stroke-width="0.5" stroke="black" fill="red"/>
  <circle cx="196.843" cy="599" r="5.17234" stroke-width="0.5" stroke="red" fill="red"/>
   </g>
   <g id="cell76">
  <circle cx="1621.88" cy="907.292" r="8.91752" stroke-width="0.5" stroke="black" fill="red"/>
  <circle cx="1621.88" cy="907.292" r="5.41241" stroke-width="0.5" stroke="red" fill="red"/>
   </g>
   <g id="cell77">
  <circle cx="1328.6" cy="1736.66" r="10.3247" stroke-width="0.5" stroke="black" fill="red"/>
  <circle cx="1328.6" cy="1736.66" r="6.23971" stroke-width="0.5" stroke="red" fill="red"/>
   </g>
   <g id="cell78">
  <circle cx="1139.66" cy="638.519" r="8.3926" stroke-width="0.5" stroke="black" fill="red"/>
  <circle cx="1139.66" cy="638.519" r="5.04482" stroke-width="0.5" stroke="red" fill="red"/>
   </g>
   <g id="cell79">
  <circle cx="1943.81" cy="1433.81" r="8.3784" stroke-width="0.5" stroke="black" fill="red"/>
  <circle cx="1943.81" cy="1433.81" r="5.03921" stroke-width="0.5" stroke="red" fill="red"/>
   </g>
   <g id="cell80">
  <circle cx="1493.14" cy="1360.34" r="8.38291" stroke-width="0.5" stroke="black" fill="red"/>
  <circle cx="1493.14" cy="1360.34" r="5.04103" stroke-width="0.5" stroke="red" fill="red"/>
   </g>
   <g id="cell81">
  <circle cx="1049.03" cy="1893.83" r="8.39316" stroke-width="0.5" stroke="black" fill="red"/>
  <circle cx="1049.03" cy="1893.83" r="5.04503" stroke-width="0.5" stroke="red" fill="red"/>
   </g>
   <g id="cell82">
  <circle cx="1269.1" cy="760.06" r="8.37208" stroke-width="0.5" stroke="black" fill="red"/>
  <circle cx="1269.1" cy="760.06" r="5.03661" stroke-width="0.5" stroke="red" fill="red"/>
   </g>
   <g id="cell113">
  <circle cx="1886.78" cy="229.742" r="9.97571" stroke-width="0.5" stroke="black" fill="red"/>
  <circle cx="1886.78" cy="229.742" r="6.05305" stroke-width="0.5" stroke="red" fill="red"/>
   </g>
   <g id="cell101">
  <circle cx="764.056" cy="223.759" r="10.1829" stroke-width="0.5" stroke="black" fill="red"/>
  <circle cx="764.056" cy="223.759" r="6.1665" stroke-width="0.5" stroke="red" fill="red"/>
   </g>
   <g id="cell102">
  <circle cx="440.003" cy="1793.23" r="9.7218" stroke-width="0.5" stroke="black" fill="red"/>
  <circle cx="440.003" cy="1793.23" r="5.90729" stroke-width="0.5" stroke="red" fill="red"/>
   </g>
   <g id="cell103">
  <circle cx="245.465" cy="593.564" r="8.40516" stroke-width="0.5" stroke="black" fill="red"/>
  <circle cx="245.465" cy="593.564" r="5.04937" stroke-width="0.5" stroke="red" fill="red"/>
   </g>
   <g id="cell104">
  <circle cx="1590.18" cy="1059.16" r="9.49939" stroke-width="0.5" stroke="black" fill="red"/>
  <circle cx="1590.18" cy="1059.16" r="5.7755" stroke-width="0.5" stroke="red" fill="red"/>
   </g>
   <g id="cell105">
  <circle cx="70.3764" cy="774.208" r="10.0281" stroke-width="0.5" stroke="black" fill="red"/>
  <circle cx="70.3764" cy="774.208" r="6.08209" stroke-width="0.5" stroke="red" fill="red"/>
   </g>
   <g id="cell106">
  <circle cx="793.45" cy="1849.49" r="8.40494" stroke-width="0.5" stroke="black" fill="grey"/>
  <circle cx="793.45" cy="1849.49" r="5.04929" stroke-width="0.5" stroke="grey" fill="grey"/>
   </g>
   <g id="cell107">
  <circle cx="439.849" cy="1376.86" r="9.92073" stroke-width="0.5" stroke="black" fill="red"/>
  <circle cx="439.849" cy="1376.86" r="6.02184" stroke-width="0.5" stroke="red" fill="red"/>
   </g>
   <g id="cell109">
  <circle cx="1009.43" cy="1104.54" r="8.47481" stroke-width="0.5" stroke="black" fill="red"/>
  <circle cx="1009.43" cy="1104.54" r="5.10067" stroke-width="0.5" stroke="red" fill="red"/>
   </g>
   <g id="cell110">
  <circle cx="1481.56" cy="827.286" r="9.11751" stroke-width="0.5" stroke="black" fill="red"/>
  <circle cx="1481.56" cy="827.286" r="5.54036" stroke-width="0.5" stroke="red" fill="red"/>
   </g>
   <g id="cell111">
  <circle cx="1315.72" cy="587.534" r="10.0275" stroke-width="0.5" stroke="black" fill="red"/>
  <circle cx="1315.72" cy="587.534" r="6.08186" stroke-width="0.5" stroke="red" fill="red"/>
   </g>
   <g id="cell115">
  <circle cx="582.977" cy="926.971" r="9.71871" stroke-width="0.5" stroke="black" fill="red"/>
  <circle cx="582.977" cy="926.971" r="5.90617" stroke-width="0.5" stroke="red" fill="red"/>
   </g>
   <g id="cell116">
  <circle cx="790.097" cy="1871.54" r="8.40123" stroke-width="0.5" stroke="black" fill="red"/>
  <circle cx="790.097" cy="1871.54" r="5.048" stroke-width="0.5" stroke="red" fill="red"/>
   </g>
   <g id="cell117">
  <circle cx="774.806" cy="241.89" r="8.40123" stroke-width="0.5" stroke="black" fill="grey"/>
  <circle cx="774.806" cy="241.89" r="5.048" stroke-width="0.5" stroke="grey" fill="grey"/>
   </g>
   <g id="cell118">
  <circle cx="1491.79" cy="607.48" r="9.2629" stroke-width="0.5" stroke="black" fill="red"/>
  <circle cx="1491.79" cy="607.48" r="5.63211" stroke-width="0.5" stroke="red" fill="red"/>
   </g>
   <g id="cell120">
  <circle cx="1723.23" cy="1959.75" r="9.61161" stroke-width="0.5" stroke="black" fill="red"/>
  <circle cx="1723.23" cy="1959.75" r="5.84353" stroke-width="0.5" stroke="red" fill="red"/>
   </g>
   <g id="cell125">
  <circle cx="1050.33" cy="1938.26" r="8.39316" stroke-width="0.5" stroke="black" fill="red"/>
  <circle cx="1050.33" cy="1938.26" r="5.04503" stroke-width="0.5" stroke="red" fill="red"/>
   </g>
   <g id="cell126">
  <circle cx="1147.34" cy="613.264" r="8.3926" stroke-width="0.5" stroke="black" fill="red"/>
  <circle cx="1147.34" cy="613.264" r="5.04482" stroke-width="0.5" stroke="red" fill="red"/>
   </g>
   <g id="cell127">
  <circle cx="244.698" cy="220.578" r="9.39356" stroke-width="0.5" stroke="black" fill="red"/>
  <circle cx="244.698" cy="220.578" r="5.71385" stroke-width="0.5" stroke="red" fill="red"/>
   </g>
   <g id="cell128">
  <circle cx="1988.64" cy="1881.19" r="9.18286" stroke-width="0.5" stroke="black" fill="red"/>
  <circle cx="1988.64" cy="1881.19" r="5.58396" stroke-width="0.5" stroke="red" fill="red"/>
   </g>
   <g id="cell129">
  <circle cx="1414.1" cy="1289.09" r="8.86796" stroke-width="0.5" stroke="black" fill="red"/>
  <circle cx="1414.1" cy="1289.09" r="5.38227" stroke-width="0.5" stroke="red" fill="red"/>
   </g>
   <g id="cell130">
  <circle cx="1778.56" cy="1118.83" r="9.18081" stroke-width="0.5" stroke="black" fill="red"/>
  <circle cx="1778.56" cy="1118.83" r="5.58314" stroke-width="0.5" stroke="red" fill="red"/>
   </g>
   <g id="cell131">
  <circle cx="109.552" cy="1865.04" r="8.52211" stroke-width="0.5" stroke="black" fill="red"/>
  <circle cx="109.552" cy="1865.04" r="5.14159" stroke-width="0.5" stroke="red" fill="red"/>
   </g>
   <g id="cell132">
  <circle cx="861.119" cy="506.647" r="8.38957" stroke-width="0.5" stroke="black" fill="red"/>
  <circle cx="861.119" cy="506.647" r="5.04365" stroke-width="0.5" stroke="red" fill="red"/>
   </g>
   <g id="cell135">
  <circle cx="1127.58" cy="1706.82" r="8.70355" stroke-width="0.5" stroke="black" fill="red"/>
  <circle cx="1127.58" cy="1706.82" r="5.27231" stroke-width="0.5" stroke="red" fill="red"/>
   </g>
   <g id="cell136">
  <circle cx="923.478" cy="1924.05" r="8.38532" stroke-width="0.5" stroke="black" fill="red"/>
  <circle cx="923.478" cy="1924.05" r="5.04199" stroke-width="0.5" stroke="red" fill="red"/>
   </g>
   <g id="cell137">
  <circle cx="660.56" cy="24.0215" r="8.38532" stroke-width="0.5" stroke="black" fill="red"/>
  <circle cx="660.56" cy="24.0215" r="5.04199" stroke-width="0.5" stroke="red" fill="red"/>
   </g>
   <g id="cell139">
  <circle cx="1529.43" cy="1335.69" r="8.86143" stroke-width="0.5" stroke="black" fill="red"/>
  <circle cx="1529.43" cy="1335.69" r="5.37962" stroke-width="0.5" stroke="red" fill="red"/>
   </g>
   <g id="cell142">
  <circle cx="925.409" cy="207.308" r="8.38028" stroke-width="0.5" stroke="black" fill="red"/>
  <circle cx="925.409" cy="207.308" r="5.03997" stroke-width="0.5" stroke="red" fill="red"/>
   </g>
   <g id="cell143">
  <circle cx="1324.46" cy="611.888" r="8.38028" stroke-width="0.5" stroke="black" fill="red"/>
  <circle cx="1324.46" cy="611.888" r="5.03997" stroke-width="0.5" stroke="red" fill="red"/>
   </g>
   <g id="cell144">
  <circle cx="1699.35" cy="310.029" r="8.37935" stroke-width="0.5" stroke="black" fill="red"/>
  <circle cx="1699.35" cy="310.029" r="5.0396" stroke-width="0.5" stroke="red" fill="red"/>
   </g>
   <g id="cell145">
  <circle cx="1099.36" cy="1183.2" r="8.37935" stroke-width="0.5" stroke="black" fill="grey"/>
  <circle cx="1099.36" cy="1183.2" r="5.0396" stroke-width="0.5" stroke="grey" fill="grey"/>
   </g>
   <g id="cell146">
  <circle cx="1928.64" cy="1423.7" r="8.3784" stroke-width="0.5" stroke="black" fill="red"/>
  <circle cx="1928.64" cy="1423.7" r="5.03921" stroke-width="0.5" stroke="red" fill="red"/>
   </g>
   <g id="cell147">
  <circle cx="1409.83" cy="1738.71" r="8.3784" stroke-width="0.5" stroke="black" fill="red"/>
  <circle cx="1409.83" cy="1738.71" r="5.03921" stroke-width="0.5" stroke="red" fill="red"/>
   </g>
   <g id="cell148">
  <circle cx="1270.02" cy="748.117" r="8.37208" stroke-width="0.5" stroke="black" fill="red"/>
  <circle cx="1270.02" cy="748.117" r="5.03661" stroke-width="0.5" stroke="red" fill="red"/>
   </g>
  </g>
 </g>
  <rect x="1750" y="2070" width="200" height="20" stroke-width="4" stroke="rgb(255,255,255)" fill="rgb(0,0,0)"/>
  <text x="1762.5" y="2057.5"
   font-family="Arial" font-size="50" fill="black" >
   200 &#956;m
  </text>
  <text x="50" y="2090"
   font-family="Arial" font-size="37.5" fill="black" >
   0 days, 0 hours, 0 minutes, and 29.4649 seconds
  </text>
  <rect x="0" y="140" width="2000" height="2000" stroke-width="4" stroke="rgb(0,0,0)" fill="none"/>
</svg>
