<?xml version="1.0" encoding="UTF-8" standalone="no"?>
<!-- Created with PhysiCell (http://PhysiCell.MathCancer.org/) -->
<svg 
 xmlns:dc="http://purl.org/dc/elements/1.1/" 
 xmlns:cc="http://creativecommons.org/ns#" 
 xmlns:rdf="http://www.w3.org/1999/02/22-rdf-syntax-ns#" 
 xmlns:svg="http://www.w3.org/2000/svg" 
 xmlns="http://www.w3.org/2000/svg" 
 version="1.1" 
 width="2000" 
 height="2140" 
 id="svg2">
  <rect x="0" y="0" width="2000" height="2140" stroke-width="4" stroke="white" fill="white"/>
  <text x="25" y="60"
   font-family="Arial" font-size="50" fill="black" >
   Current time: 2 days, 5 hours, and 0.00 minutes, z = 0.00 &#956;m
  </text>
  <text x="25" y="115"
   font-family="Arial" font-size="47.5" fill="black" >
   51 agents
  </text>
 <g id="tissue" 
    transform="translate(0,2140) scale(1,-1)">
  <g id="ECM">
  </g>
  <g id="cells">
   <g id="cell0">
  <circle cx="1144.95" cy="1170.25" r="8.63939" stroke-width="0.5" stroke="black" fill="grey"/>
  <circle cx="1144.95" cy="1170.25" r="5.22324" stroke-width="0.5" stroke="grey" fill="grey"/>
   </g>
   <g id="cell1">
  <circle cx="1691.91" cy="1213.82" r="10.4921" stroke-width="0.5" stroke="black" fill="grey"/>
  <circle cx="1691.91" cy="1213.82" r="6.32131" stroke-width="0.5" stroke="grey" fill="grey"/>
   </g>
   <g id="cell2">
  <circle cx="1150.08" cy="1737" r="8.38367" stroke-width="0.5" stroke="black" fill="grey"/>
  <circle cx="1150.08" cy="1737" r="5.04135" stroke-width="0.5" stroke="grey" fill="grey"/>
   </g>
   <g id="cell3">
  <circle cx="1264.35" cy="1317.16" r="8.40084" stroke-width="0.5" stroke="black" fill="grey"/>
  <circle cx="1264.35" cy="1317.16" r="5.04787" stroke-width="0.5" stroke="grey" fill="grey"/>
   </g>
   <g id="cell4">
  <circle cx="866.263" cy="561.32" r="8.57852" stroke-width="0.5" stroke="black" fill="grey"/>
  <circle cx="866.263" cy="561.32" r="5.18727" stroke-width="0.5" stroke="grey" fill="grey"/>
   </g>
   <g id="cell5">
  <circle cx="82.0338" cy="1969.38" r="8.65883" stroke-width="0.5" stroke="black" fill="red"/>
  <circle cx="82.0338" cy="1969.38" r="5.24285" stroke-width="0.5" stroke="red" fill="red"/>
   </g>
   <g id="cell6">
  <circle cx="804.845" cy="862.953" r="8.41195" stroke-width="0.5" stroke="black" fill="red"/>
  <circle cx="804.845" cy="862.953" r="5.05149" stroke-width="0.5" stroke="red" fill="red"/>
   </g>
   <g id="cell19">
  <circle cx="1720.66" cy="1294.02" r="8.40078" stroke-width="0.5" stroke="black" fill="grey"/>
  <circle cx="1720.66" cy="1294.02" r="5.04786" stroke-width="0.5" stroke="grey" fill="grey"/>
   </g>
   <g id="cell18">
  <circle cx="1640.23" cy="325.289" r="10.4249" stroke-width="0.5" stroke="black" fill="red"/>
  <circle cx="1640.23" cy="325.289" r="6.2898" stroke-width="0.5" stroke="red" fill="red"/>
   </g>
   <g id="cell9">
  <circle cx="1659.71" cy="177.437" r="9.02219" stroke-width="0.5" stroke="black" fill="red"/>
  <circle cx="1659.71" cy="177.437" r="5.48402" stroke-width="0.5" stroke="red" fill="red"/>
   </g>
   <g id="cell11">
  <circle cx="1594.63" cy="1080.82" r="8.40949" stroke-width="0.5" stroke="black" fill="red"/>
  <circle cx="1594.63" cy="1080.82" r="5.05078" stroke-width="0.5" stroke="red" fill="red"/>
   </g>
   <g id="cell20">
  <circle cx="824.433" cy="993.305" r="10.1357" stroke-width="0.5" stroke="black" fill="red"/>
  <circle cx="824.433" cy="993.305" r="6.14037" stroke-width="0.5" stroke="red" fill="red"/>
   </g>
   <g id="cell13">
  <circle cx="874.417" cy="586.286" r="8.36437" stroke-width="0.5" stroke="black" fill="grey"/>
  <circle cx="874.417" cy="586.286" r="5.03342" stroke-width="0.5" stroke="grey" fill="grey"/>
   </g>
   <g id="cell14">
  <circle cx="1206.72" cy="1309.12" r="8.37513" stroke-width="0.5" stroke="black" fill="grey"/>
  <circle cx="1206.72" cy="1309.12" r="5.03792" stroke-width="0.5" stroke="grey" fill="grey"/>
   </g>
   <g id="cell15">
  <circle cx="1152.39" cy="1156.47" r="8.37621" stroke-width="0.5" stroke="black" fill="grey"/>
  <circle cx="1152.39" cy="1156.47" r="5.03835" stroke-width="0.5" stroke="grey" fill="grey"/>
   </g>
   <g id="cell16">
  <circle cx="1145.07" cy="1686.26" r="8.38649" stroke-width="0.5" stroke="black" fill="grey"/>
  <circle cx="1145.07" cy="1686.26" r="5.0425" stroke-width="0.5" stroke="grey" fill="grey"/>
   </g>
   <g id="cell17">
  <circle cx="1082.68" cy="665.813" r="10.0953" stroke-width="0.5" stroke="black" fill="red"/>
  <circle cx="1082.68" cy="665.813" r="6.11795" stroke-width="0.5" stroke="red" fill="red"/>
   </g>
   <g id="cell21">
  <circle cx="1575.94" cy="1022.55" r="8.38749" stroke-width="0.5" stroke="black" fill="red"/>
  <circle cx="1575.94" cy="1022.55" r="5.04285" stroke-width="0.5" stroke="red" fill="red"/>
   </g>
   <g id="cell22">
  <circle cx="1180.98" cy="1718.82" r="10.4488" stroke-width="0.5" stroke="black" fill="grey"/>
  <circle cx="1180.98" cy="1718.82" r="6.3011" stroke-width="0.5" stroke="grey" fill="grey"/>
   </g>
   <g id="cell23">
  <circle cx="1285.66" cy="1292.65" r="10.2998" stroke-width="0.5" stroke="black" fill="grey"/>
  <circle cx="1285.66" cy="1292.65" r="6.22697" stroke-width="0.5" stroke="grey" fill="grey"/>
   </g>
   <g id="cell24">
  <circle cx="1155.33" cy="1218.74" r="9.33454" stroke-width="0.5" stroke="black" fill="grey"/>
  <circle cx="1155.33" cy="1218.74" r="5.67592" stroke-width="0.5" stroke="grey" fill="grey"/>
   </g>
   <g id="cell25">
  <circle cx="1151.88" cy="690.142" r="9.50517" stroke-width="0.5" stroke="black" fill="red"/>
  <circle cx="1151.88" cy="690.142" r="5.7774" stroke-width="0.5" stroke="red" fill="red"/>
   </g>
   <g id="cell26">
  <circle cx="1693.26" cy="1197.66" r="9.1846" stroke-width="0.5" stroke="black" fill="grey"/>
  <circle cx="1693.26" cy="1197.66" r="5.58466" stroke-width="0.5" stroke="grey" fill="grey"/>
   </g>
   <g id="cell27">
  <circle cx="896.92" cy="557.448" r="10.0495" stroke-width="0.5" stroke="black" fill="grey"/>
  <circle cx="896.92" cy="557.448" r="6.09274" stroke-width="0.5" stroke="grey" fill="grey"/>
   </g>
   <g id="cell28">
  <circle cx="77.1732" cy="1953.78" r="10.5164" stroke-width="0.5" stroke="black" fill="red"/>
  <circle cx="77.1732" cy="1953.78" r="6.33214" stroke-width="0.5" stroke="red" fill="red"/>
   </g>
   <g id="cell29">
  <circle cx="1082.66" cy="1081.11" r="9.55217" stroke-width="0.5" stroke="black" fill="grey"/>
  <circle cx="1082.66" cy="1081.11" r="5.80874" stroke-width="0.5" stroke="grey" fill="grey"/>
   </g>
   <g id="cell30">
  <circle cx="903.917" cy="622.809" r="10.5292" stroke-width="0.5" stroke="black" fill="grey"/>
  <circle cx="903.917" cy="622.809" r="6.33777" stroke-width="0.5" stroke="grey" fill="grey"/>
   </g>
   <g id="cell31">
  <circle cx="1199.65" cy="1292.23" r="8.36947" stroke-width="0.5" stroke="black" fill="grey"/>
  <circle cx="1199.65" cy="1292.23" r="5.03557" stroke-width="0.5" stroke="grey" fill="grey"/>
   </g>
   <g id="cell32">
  <circle cx="1633.6" cy="224.283" r="10.4951" stroke-width="0.5" stroke="black" fill="red"/>
  <circle cx="1633.6" cy="224.283" r="6.32267" stroke-width="0.5" stroke="red" fill="red"/>
   </g>
   <g id="cell33">
  <circle cx="1675.73" cy="1162.49" r="10.3611" stroke-width="0.5" stroke="black" fill="grey"/>
  <circle cx="1675.73" cy="1162.49" r="6.25826" stroke-width="0.5" stroke="grey" fill="grey"/>
   </g>
   <g id="cell34">
  <circle cx="1148.45" cy="1660.47" r="10.4303" stroke-width="0.5" stroke="black" fill="grey"/>
  <circle cx="1148.45" cy="1660.47" r="6.29231" stroke-width="0.5" stroke="grey" fill="grey"/>
   </g>
   <g id="cell35">
  <circle cx="755.803" cy="869.924" r="10.492" stroke-width="0.5" stroke="black" fill="red"/>
  <circle cx="755.803" cy="869.924" r="6.32127" stroke-width="0.5" stroke="red" fill="red"/>
   </g>
   <g id="cell36">
  <circle cx="1703.94" cy="311.833" r="10.4915" stroke-width="0.5" stroke="black" fill="red"/>
  <circle cx="1703.94" cy="311.833" r="6.32114" stroke-width="0.5" stroke="red" fill="red"/>
   </g>
   <g id="cell37">
  <circle cx="817.424" cy="933.53" r="10.2805" stroke-width="0.5" stroke="black" fill="red"/>
  <circle cx="817.424" cy="933.53" r="6.21733" stroke-width="0.5" stroke="red" fill="red"/>
   </g>
   <g id="cell38">
  <circle cx="1580.92" cy="1073.37" r="10.1857" stroke-width="0.5" stroke="black" fill="red"/>
  <circle cx="1580.92" cy="1073.37" r="6.16744" stroke-width="0.5" stroke="red" fill="red"/>
   </g>
   <g id="cell39">
  <circle cx="1163.5" cy="1201.81" r="8.40237" stroke-width="0.5" stroke="black" fill="grey"/>
  <circle cx="1163.5" cy="1201.81" r="5.04842" stroke-width="0.5" stroke="grey" fill="grey"/>
   </g>
   <g id="cell40">
  <circle cx="1723.06" cy="1272.72" r="9.93695" stroke-width="0.5" stroke="black" fill="grey"/>
  <circle cx="1723.06" cy="1272.72" r="6.03164" stroke-width="0.5" stroke="grey" fill="grey"/>
   </g>
   <g id="cell41">
  <circle cx="1249.99" cy="1362.25" r="8.40084" stroke-width="0.5" stroke="black" fill="grey"/>
  <circle cx="1249.99" cy="1362.25" r="5.04787" stroke-width="0.5" stroke="grey" fill="grey"/>
   </g>
   <g id="cell42">
  <circle cx="1119.34" cy="1141.73" r="9.26256" stroke-width="0.5" stroke="black" fill="grey"/>
  <circle cx="1119.34" cy="1141.73" r="5.63199" stroke-width="0.5" stroke="grey" fill="grey"/>
   </g>
   <g id="cell43">
  <circle cx="1117.67" cy="1087.9" r="8.39598" stroke-width="0.5" stroke="black" fill="grey"/>
  <circle cx="1117.67" cy="1087.9" r="5.04612" stroke-width="0.5" stroke="grey" fill="grey"/>
   </g>
   <g id="cell44">
  <circle cx="1661.91" cy="1189.66" r="8.39411" stroke-width="0.5" stroke="black" fill="grey"/>
  <circle cx="1661.91" cy="1189.66" r="5.0454" stroke-width="0.5" stroke="grey" fill="grey"/>
   </g>
   <g id="cell45">
  <circle cx="1596.44" cy="1034.42" r="8.38749" stroke-width="0.5" stroke="black" fill="red"/>
  <circle cx="1596.44" cy="1034.42" r="5.04285" stroke-width="0.5" stroke="red" fill="red"/>
   </g>
   <g id="cell46">
  <circle cx="1171.25" cy="1703.28" r="8.38649" stroke-width="0.5" stroke="black" fill="grey"/>
  <circle cx="1171.25" cy="1703.28" r="5.0425" stroke-width="0.5" stroke="grey" fill="grey"/>
   </g>
   <g id="cell47">
  <circle cx="1644.24" cy="180.193" r="8.38347" stroke-width="0.5" stroke="black" fill="red"/>
  <circle cx="1644.24" cy="180.193" r="5.0413" stroke-width="0.5" stroke="red" fill="red"/>
   </g>
   <g id="cell48">
  <circle cx="1147.62" cy="1766.76" r="8.38367" stroke-width="0.5" stroke="black" fill="grey"/>
  <circle cx="1147.62" cy="1766.76" r="5.04135" stroke-width="0.5" stroke="grey" fill="grey"/>
   </g>
   <g id="cell49">
  <circle cx="71.4673" cy="1989.63" r="8.38012" stroke-width="0.5" stroke="black" fill="red"/>
  <circle cx="71.4673" cy="1989.63" r="5.03994" stroke-width="0.5" stroke="red" fill="red"/>
   </g>
   <g id="cell50">
  <circle cx="1125.4" cy="1157.33" r="8.37621" stroke-width="0.5" stroke="black" fill="grey"/>
  <circle cx="1125.4" cy="1157.33" r="5.03835" stroke-width="0.5" stroke="grey" fill="grey"/>
   </g>
   <g id="cell51">
  <circle cx="1177.35" cy="1297.13" r="8.57841" stroke-width="0.5" stroke="black" fill="grey"/>
  <circle cx="1177.35" cy="1297.13" r="5.18724" stroke-width="0.5" stroke="grey" fill="grey"/>
   </g>
   <g id="cell52">
  <circle cx="851.855" cy="560.562" r="8.37524" stroke-width="0.5" stroke="black" fill="grey"/>
  <circle cx="851.855" cy="560.562" r="5.03795" stroke-width="0.5" stroke="grey" fill="grey"/>
   </g>
   <g id="cell53">
  <circle cx="1188.54" cy="1276.36" r="8.36947" stroke-width="0.5" stroke="black" fill="grey"/>
  <circle cx="1188.54" cy="1276.36" r="5.03557" stroke-width="0.5" stroke="grey" fill="grey"/>
   </g>
   <g id="cell54">
  <circle cx="878.137" cy="568.922" r="8.36437" stroke-width="0.5" stroke="black" fill="grey"/>
  <circle cx="878.137" cy="568.922" r="5.03342" stroke-width="0.5" stroke="grey" fill="grey"/>
   </g>
  </g>
 </g>
  <rect x="1750" y="2070" width="200" height="20" stroke-width="4" stroke="rgb(255,255,255)" fill="rgb(0,0,0)"/>
  <text x="1762.5" y="2057.5"
   font-family="Arial" font-size="50" fill="black" >
   200 &#956;m
  </text>
  <text x="50" y="2090"
   font-family="Arial" font-size="37.5" fill="black" >
   0 days, 0 hours, 1 minutes, and 9.0371 seconds
  </text>
  <rect x="0" y="140" width="2000" height="2000" stroke-width="4" stroke="rgb(0,0,0)" fill="none"/>
</svg>
