<?xml version="1.0" encoding="UTF-8" standalone="no"?>
<!-- Created with PhysiCell (http://PhysiCell.MathCancer.org/) -->
<svg 
 xmlns:dc="http://purl.org/dc/elements/1.1/" 
 xmlns:cc="http://creativecommons.org/ns#" 
 xmlns:rdf="http://www.w3.org/1999/02/22-rdf-syntax-ns#" 
 xmlns:svg="http://www.w3.org/2000/svg" 
 xmlns="http://www.w3.org/2000/svg" 
 version="1.1" 
 width="2000" 
 height="2140" 
 id="svg2">
  <rect x="0" y="0" width="2000" height="2140" stroke-width="4" stroke="white" fill="white"/>
  <text x="25" y="60"
   font-family="Arial" font-size="50" fill="black" >
   Current time: 1 days, 3 hours, and 30.00 minutes, z = 0.00 &#956;m
  </text>
  <text x="25" y="115"
   font-family="Arial" font-size="47.5" fill="black" >
   192 agents
  </text>
 <g id="tissue" 
    transform="translate(0,2140) scale(1,-1)">
  <g id="ECM">
  </g>
  <g id="cells">
   <g id="cell0">
  <circle cx="1086.89" cy="1183.34" r="10.1735" stroke-width="0.5" stroke="black" fill="grey"/>
  <circle cx="1086.89" cy="1183.34" r="6.16092" stroke-width="0.5" stroke="grey" fill="grey"/>
   </g>
   <g id="cell1">
  <circle cx="1680.25" cy="1188.51" r="10.3156" stroke-width="0.5" stroke="black" fill="grey"/>
  <circle cx="1680.25" cy="1188.51" r="6.23533" stroke-width="0.5" stroke="grey" fill="grey"/>
   </g>
   <g id="cell2">
  <circle cx="1110.09" cy="1733.6" r="10.4856" stroke-width="0.5" stroke="black" fill="grey"/>
  <circle cx="1110.09" cy="1733.6" r="6.31838" stroke-width="0.5" stroke="grey" fill="grey"/>
   </g>
   <g id="cell3">
  <circle cx="1251.47" cy="1341.31" r="9.53347" stroke-width="0.5" stroke="black" fill="grey"/>
  <circle cx="1251.47" cy="1341.31" r="5.79498" stroke-width="0.5" stroke="grey" fill="grey"/>
   </g>
   <g id="cell4">
  <circle cx="889.418" cy="506.507" r="5.04638" stroke-width="0.5" stroke="black" fill="grey"/>
  <circle cx="889.418" cy="506.507" r="3.55122" stroke-width="0.5" stroke="black" fill="black"/>
   </g>
   <g id="cell5">
  <circle cx="101.231" cy="1930.05" r="10.3586" stroke-width="0.5" stroke="black" fill="grey"/>
  <circle cx="101.231" cy="1930.05" r="6.25751" stroke-width="0.5" stroke="grey" fill="grey"/>
   </g>
   <g id="cell6">
  <circle cx="747.174" cy="906.332" r="10.1055" stroke-width="0.5" stroke="black" fill="grey"/>
  <circle cx="747.174" cy="906.332" r="6.12452" stroke-width="0.5" stroke="grey" fill="grey"/>
   </g>
   <g id="cell7">
  <circle cx="1579.14" cy="1127.8" r="10.3154" stroke-width="0.5" stroke="black" fill="grey"/>
  <circle cx="1579.14" cy="1127.8" r="6.23526" stroke-width="0.5" stroke="grey" fill="grey"/>
   </g>
   <g id="cell8">
  <circle cx="1163.23" cy="802.289" r="10.3926" stroke-width="0.5" stroke="black" fill="grey"/>
  <circle cx="1163.23" cy="802.289" r="6.27401" stroke-width="0.5" stroke="grey" fill="grey"/>
   </g>
   <g id="cell9">
  <circle cx="1604.27" cy="201.06" r="10.251" stroke-width="0.5" stroke="black" fill="grey"/>
  <circle cx="1604.27" cy="201.06" r="6.20211" stroke-width="0.5" stroke="grey" fill="grey"/>
   </g>
   <g id="cell10">
  <circle cx="184.709" cy="1280.94" r="8.4009" stroke-width="0.5" stroke="black" fill="grey"/>
  <circle cx="184.709" cy="1280.94" r="5.04788" stroke-width="0.5" stroke="grey" fill="grey"/>
   </g>
   <g id="cell11">
  <circle cx="743.992" cy="1606.96" r="10.3537" stroke-width="0.5" stroke="black" fill="grey"/>
  <circle cx="743.992" cy="1606.96" r="6.25464" stroke-width="0.5" stroke="grey" fill="grey"/>
   </g>
   <g id="cell12">
  <circle cx="1601.17" cy="266.364" r="10.3376" stroke-width="0.5" stroke="black" fill="grey"/>
  <circle cx="1601.17" cy="266.364" r="6.24683" stroke-width="0.5" stroke="grey" fill="grey"/>
   </g>
   <g id="cell13">
  <circle cx="1759.91" cy="1868.09" r="10.3983" stroke-width="0.5" stroke="black" fill="grey"/>
  <circle cx="1759.91" cy="1868.09" r="6.27684" stroke-width="0.5" stroke="grey" fill="grey"/>
   </g>
   <g id="cell14">
  <circle cx="1550.6" cy="1670.04" r="8.451" stroke-width="0.5" stroke="black" fill="grey"/>
  <circle cx="1550.6" cy="1670.04" r="5.09163" stroke-width="0.5" stroke="grey" fill="grey"/>
   </g>
   <g id="cell15">
  <circle cx="1056.15" cy="1539.75" r="8.41016" stroke-width="0.5" stroke="black" fill="grey"/>
  <circle cx="1056.15" cy="1539.75" r="5.05098" stroke-width="0.5" stroke="grey" fill="grey"/>
   </g>
   <g id="cell16">
  <circle cx="257.819" cy="1397.62" r="10.4296" stroke-width="0.5" stroke="black" fill="grey"/>
  <circle cx="257.819" cy="1397.62" r="6.29212" stroke-width="0.5" stroke="grey" fill="grey"/>
   </g>
   <g id="cell17">
  <circle cx="1213.9" cy="236.184" r="10.162" stroke-width="0.5" stroke="black" fill="grey"/>
  <circle cx="1213.9" cy="236.184" r="6.15451" stroke-width="0.5" stroke="grey" fill="grey"/>
   </g>
   <g id="cell18">
  <circle cx="1891.78" cy="1567.77" r="10.2991" stroke-width="0.5" stroke="black" fill="grey"/>
  <circle cx="1891.78" cy="1567.77" r="6.22678" stroke-width="0.5" stroke="grey" fill="grey"/>
   </g>
   <g id="cell19">
  <circle cx="239.266" cy="919.729" r="10.483" stroke-width="0.5" stroke="black" fill="grey"/>
  <circle cx="239.266" cy="919.729" r="6.31703" stroke-width="0.5" stroke="grey" fill="grey"/>
   </g>
   <g id="cell20">
  <circle cx="547.542" cy="344.097" r="9.15229" stroke-width="0.5" stroke="black" fill="grey"/>
  <circle cx="547.542" cy="344.097" r="5.56314" stroke-width="0.5" stroke="grey" fill="grey"/>
   </g>
   <g id="cell21">
  <circle cx="1462.16" cy="922.042" r="10.0293" stroke-width="0.5" stroke="black" fill="grey"/>
  <circle cx="1462.16" cy="922.042" r="6.08251" stroke-width="0.5" stroke="grey" fill="grey"/>
   </g>
   <g id="cell22">
  <circle cx="1114.9" cy="265.229" r="8.38608" stroke-width="0.5" stroke="black" fill="grey"/>
  <circle cx="1114.9" cy="265.229" r="5.04229" stroke-width="0.5" stroke="grey" fill="grey"/>
   </g>
   <g id="cell175">
  <circle cx="749.954" cy="889.523" r="8.4065" stroke-width="0.5" stroke="black" fill="grey"/>
  <circle cx="749.954" cy="889.523" r="5.04982" stroke-width="0.5" stroke="grey" fill="grey"/>
   </g>
   <g id="cell24">
  <circle cx="1292.04" cy="397.302" r="9.63716" stroke-width="0.5" stroke="black" fill="grey"/>
  <circle cx="1292.04" cy="397.302" r="5.85903" stroke-width="0.5" stroke="grey" fill="grey"/>
   </g>
   <g id="cell25">
  <circle cx="792.623" cy="1922.28" r="10.479" stroke-width="0.5" stroke="black" fill="grey"/>
  <circle cx="792.623" cy="1922.28" r="6.31533" stroke-width="0.5" stroke="grey" fill="grey"/>
   </g>
   <g id="cell26">
  <circle cx="1337.48" cy="880.939" r="8.91968" stroke-width="0.5" stroke="black" fill="grey"/>
  <circle cx="1337.48" cy="880.939" r="5.41322" stroke-width="0.5" stroke="grey" fill="grey"/>
   </g>
   <g id="cell27">
  <circle cx="1171.67" cy="879.133" r="10.4675" stroke-width="0.5" stroke="black" fill="grey"/>
  <circle cx="1171.67" cy="879.133" r="6.31014" stroke-width="0.5" stroke="grey" fill="grey"/>
   </g>
   <g id="cell28">
  <circle cx="1326.29" cy="109.609" r="10.3736" stroke-width="0.5" stroke="black" fill="grey"/>
  <circle cx="1326.29" cy="109.609" r="6.26468" stroke-width="0.5" stroke="grey" fill="grey"/>
   </g>
   <g id="cell29">
  <circle cx="1968.36" cy="1310.52" r="10.2802" stroke-width="0.5" stroke="black" fill="grey"/>
  <circle cx="1968.36" cy="1310.52" r="6.21726" stroke-width="0.5" stroke="grey" fill="grey"/>
   </g>
   <g id="cell30">
  <circle cx="1338.1" cy="353.044" r="8.40905" stroke-width="0.5" stroke="black" fill="grey"/>
  <circle cx="1338.1" cy="353.044" r="5.05064" stroke-width="0.5" stroke="grey" fill="grey"/>
   </g>
   <g id="cell31">
  <circle cx="703.883" cy="244.656" r="10.0328" stroke-width="0.5" stroke="black" fill="grey"/>
  <circle cx="703.883" cy="244.656" r="6.08361" stroke-width="0.5" stroke="grey" fill="grey"/>
   </g>
   <g id="cell32">
  <circle cx="621.85" cy="1189.06" r="10.4855" stroke-width="0.5" stroke="black" fill="grey"/>
  <circle cx="621.85" cy="1189.06" r="6.31834" stroke-width="0.5" stroke="grey" fill="grey"/>
   </g>
   <g id="cell33">
  <circle cx="662.273" cy="1128.7" r="10.314" stroke-width="0.5" stroke="black" fill="grey"/>
  <circle cx="662.273" cy="1128.7" r="6.23484" stroke-width="0.5" stroke="grey" fill="grey"/>
   </g>
   <g id="cell34">
  <circle cx="898.568" cy="1233.68" r="10.4948" stroke-width="0.5" stroke="black" fill="grey"/>
  <circle cx="898.568" cy="1233.68" r="6.32259" stroke-width="0.5" stroke="grey" fill="grey"/>
   </g>
   <g id="cell35">
  <circle cx="1922.01" cy="208.574" r="10.5157" stroke-width="0.5" stroke="black" fill="grey"/>
  <circle cx="1922.01" cy="208.574" r="6.33197" stroke-width="0.5" stroke="grey" fill="grey"/>
   </g>
   <g id="cell36">
  <circle cx="368.371" cy="1293.41" r="10.0644" stroke-width="0.5" stroke="black" fill="grey"/>
  <circle cx="368.371" cy="1293.41" r="6.10116" stroke-width="0.5" stroke="grey" fill="grey"/>
   </g>
   <g id="cell37">
  <circle cx="1976.04" cy="1338.18" r="8.38028" stroke-width="0.5" stroke="black" fill="grey"/>
  <circle cx="1976.04" cy="1338.18" r="5.03997" stroke-width="0.5" stroke="grey" fill="grey"/>
   </g>
   <g id="cell38">
  <circle cx="463.597" cy="833.2" r="10.5181" stroke-width="0.5" stroke="black" fill="grey"/>
  <circle cx="463.597" cy="833.2" r="6.33299" stroke-width="0.5" stroke="grey" fill="grey"/>
   </g>
   <g id="cell39">
  <circle cx="926.166" cy="514.573" r="8.3995" stroke-width="0.5" stroke="black" fill="grey"/>
  <circle cx="926.166" cy="514.573" r="5.04738" stroke-width="0.5" stroke="grey" fill="grey"/>
   </g>
   <g id="cell40">
  <circle cx="275.21" cy="645.776" r="10.2102" stroke-width="0.5" stroke="black" fill="grey"/>
  <circle cx="275.21" cy="645.776" r="6.18019" stroke-width="0.5" stroke="grey" fill="grey"/>
   </g>
   <g id="cell41">
  <circle cx="1377.79" cy="1290.96" r="8.68851" stroke-width="0.5" stroke="black" fill="grey"/>
  <circle cx="1377.79" cy="1290.96" r="5.25394" stroke-width="0.5" stroke="grey" fill="grey"/>
   </g>
   <g id="cell42">
  <circle cx="260.834" cy="1586.13" r="10.4881" stroke-width="0.5" stroke="black" fill="grey"/>
  <circle cx="260.834" cy="1586.13" r="6.31963" stroke-width="0.5" stroke="grey" fill="grey"/>
   </g>
   <g id="cell43">
  <circle cx="1922.43" cy="734.819" r="10.4715" stroke-width="0.5" stroke="black" fill="grey"/>
  <circle cx="1922.43" cy="734.819" r="6.31195" stroke-width="0.5" stroke="grey" fill="grey"/>
   </g>
   <g id="cell44">
  <circle cx="1700.8" cy="64.2782" r="10.2715" stroke-width="0.5" stroke="black" fill="grey"/>
  <circle cx="1700.8" cy="64.2782" r="6.2126" stroke-width="0.5" stroke="grey" fill="grey"/>
   </g>
   <g id="cell45">
  <circle cx="1261.93" cy="1714.73" r="8.4103" stroke-width="0.5" stroke="black" fill="grey"/>
  <circle cx="1261.93" cy="1714.73" r="5.05102" stroke-width="0.5" stroke="grey" fill="grey"/>
   </g>
   <g id="cell46">
  <circle cx="186.419" cy="1973.98" r="10.3462" stroke-width="0.5" stroke="black" fill="grey"/>
  <circle cx="186.419" cy="1973.98" r="6.25095" stroke-width="0.5" stroke="grey" fill="grey"/>
   </g>
   <g id="cell47">
  <circle cx="1741.77" cy="945.478" r="10.5327" stroke-width="0.5" stroke="black" fill="grey"/>
  <circle cx="1741.77" cy="945.478" r="6.33932" stroke-width="0.5" stroke="grey" fill="grey"/>
   </g>
   <g id="cell48">
  <circle cx="1956.27" cy="73.4889" r="3.63624" stroke-width="0.5" stroke="black" fill="grey"/>
  <circle cx="1956.27" cy="73.4889" r="3.01534" stroke-width="0.5" stroke="black" fill="black"/>
   </g>
   <g id="cell49">
  <circle cx="943.591" cy="1479.37" r="2.6158" stroke-width="0.5" stroke="black" fill="grey"/>
  <circle cx="943.591" cy="1479.37" r="2.4418" stroke-width="0.5" stroke="black" fill="black"/>
   </g>
   <g id="cell50">
  <circle cx="142.936" cy="828.882" r="10.4429" stroke-width="0.5" stroke="black" fill="red"/>
  <circle cx="142.936" cy="828.882" r="6.2986" stroke-width="0.5" stroke="red" fill="red"/>
   </g>
   <g id="cell51">
  <circle cx="1975.42" cy="269.138" r="8.38957" stroke-width="0.5" stroke="black" fill="red"/>
  <circle cx="1975.42" cy="269.138" r="5.04365" stroke-width="0.5" stroke="red" fill="red"/>
   </g>
   <g id="cell52">
  <circle cx="655.848" cy="1005.23" r="10.4748" stroke-width="0.5" stroke="black" fill="red"/>
  <circle cx="655.848" cy="1005.23" r="6.31353" stroke-width="0.5" stroke="red" fill="red"/>
   </g>
   <g id="cell53">
  <circle cx="1370.43" cy="668.682" r="8.37742" stroke-width="0.5" stroke="black" fill="red"/>
  <circle cx="1370.43" cy="668.682" r="5.03881" stroke-width="0.5" stroke="red" fill="red"/>
   </g>
   <g id="cell54">
  <circle cx="806.655" cy="1777.02" r="10.367" stroke-width="0.5" stroke="black" fill="red"/>
  <circle cx="806.655" cy="1777.02" r="6.2614" stroke-width="0.5" stroke="red" fill="red"/>
   </g>
   <g id="cell55">
  <circle cx="455.708" cy="1337.64" r="8.37208" stroke-width="0.5" stroke="black" fill="red"/>
  <circle cx="455.708" cy="1337.64" r="5.03661" stroke-width="0.5" stroke="red" fill="red"/>
   </g>
   <g id="cell56">
  <circle cx="1148.82" cy="1689.65" r="8.49726" stroke-width="0.5" stroke="black" fill="red"/>
  <circle cx="1148.82" cy="1689.65" r="5.12042" stroke-width="0.5" stroke="red" fill="red"/>
   </g>
   <g id="cell57">
  <circle cx="1016.86" cy="1100.95" r="10.5363" stroke-width="0.5" stroke="black" fill="red"/>
  <circle cx="1016.86" cy="1100.95" r="6.34085" stroke-width="0.5" stroke="red" fill="red"/>
   </g>
   <g id="cell58">
  <circle cx="116.483" cy="1801.08" r="9.8619" stroke-width="0.5" stroke="black" fill="red"/>
  <circle cx="116.483" cy="1801.08" r="5.98787" stroke-width="0.5" stroke="red" fill="red"/>
   </g>
   <g id="cell98">
  <circle cx="1823.07" cy="649.383" r="8.40944" stroke-width="0.5" stroke="black" fill="red"/>
  <circle cx="1823.07" cy="649.383" r="5.05076" stroke-width="0.5" stroke="red" fill="red"/>
   </g>
   <g id="cell60">
  <circle cx="683.557" cy="23.0364" r="10.2984" stroke-width="0.5" stroke="black" fill="red"/>
  <circle cx="683.557" cy="23.0364" r="6.22657" stroke-width="0.5" stroke="red" fill="red"/>
   </g>
   <g id="cell61">
  <circle cx="1677.01" cy="258.939" r="9.88514" stroke-width="0.5" stroke="black" fill="red"/>
  <circle cx="1677.01" cy="258.939" r="6.00056" stroke-width="0.5" stroke="red" fill="red"/>
   </g>
   <g id="cell62">
  <circle cx="1421.12" cy="1722.74" r="10.4784" stroke-width="0.5" stroke="black" fill="red"/>
  <circle cx="1421.12" cy="1722.74" r="6.31517" stroke-width="0.5" stroke="red" fill="red"/>
   </g>
   <g id="cell63">
  <circle cx="576.517" cy="365.784" r="10.0131" stroke-width="0.5" stroke="black" fill="red"/>
  <circle cx="576.517" cy="365.784" r="6.0734" stroke-width="0.5" stroke="red" fill="red"/>
   </g>
   <g id="cell64">
  <circle cx="1227.86" cy="1128.06" r="10.1863" stroke-width="0.5" stroke="black" fill="red"/>
  <circle cx="1227.86" cy="1128.06" r="6.16763" stroke-width="0.5" stroke="red" fill="red"/>
   </g>
   <g id="cell65">
  <circle cx="327.567" cy="1635.61" r="10.2316" stroke-width="0.5" stroke="black" fill="red"/>
  <circle cx="327.567" cy="1635.61" r="6.19164" stroke-width="0.5" stroke="red" fill="red"/>
   </g>
   <g id="cell66">
  <circle cx="28.5433" cy="315.225" r="10.1859" stroke-width="0.5" stroke="black" fill="red"/>
  <circle cx="28.5433" cy="315.225" r="6.16751" stroke-width="0.5" stroke="red" fill="red"/>
   </g>
   <g id="cell67">
  <circle cx="1096.72" cy="541.004" r="10.0758" stroke-width="0.5" stroke="black" fill="red"/>
  <circle cx="1096.72" cy="541.004" r="6.10833" stroke-width="0.5" stroke="red" fill="red"/>
   </g>
   <g id="cell68">
  <circle cx="1414.2" cy="582.811" r="10.3234" stroke-width="0.5" stroke="black" fill="red"/>
  <circle cx="1414.2" cy="582.811" r="6.23935" stroke-width="0.5" stroke="red" fill="red"/>
   </g>
   <g id="cell69">
  <circle cx="785.532" cy="489.301" r="9.2339" stroke-width="0.5" stroke="black" fill="red"/>
  <circle cx="785.532" cy="489.301" r="5.61224" stroke-width="0.5" stroke="red" fill="red"/>
   </g>
   <g id="cell70">
  <circle cx="1082.79" cy="764.781" r="10.5002" stroke-width="0.5" stroke="black" fill="red"/>
  <circle cx="1082.79" cy="764.781" r="6.32509" stroke-width="0.5" stroke="red" fill="red"/>
   </g>
   <g id="cell71">
  <circle cx="1716.41" cy="1182.22" r="10.2814" stroke-width="0.5" stroke="black" fill="red"/>
  <circle cx="1716.41" cy="1182.22" r="6.2176" stroke-width="0.5" stroke="red" fill="red"/>
   </g>
   <g id="cell72">
  <circle cx="455.481" cy="1762.94" r="9.00806" stroke-width="0.5" stroke="black" fill="red"/>
  <circle cx="455.481" cy="1762.94" r="5.46807" stroke-width="0.5" stroke="red" fill="red"/>
   </g>
   <g id="cell73">
  <circle cx="1351.57" cy="820.063" r="10.5084" stroke-width="0.5" stroke="black" fill="red"/>
  <circle cx="1351.57" cy="820.063" r="6.32873" stroke-width="0.5" stroke="red" fill="red"/>
   </g>
   <g id="cell74">
  <circle cx="1749.4" cy="1844.05" r="8.41098" stroke-width="0.5" stroke="black" fill="red"/>
  <circle cx="1749.4" cy="1844.05" r="5.05122" stroke-width="0.5" stroke="red" fill="red"/>
   </g>
   <g id="cell75">
  <circle cx="307.425" cy="538.444" r="10.5166" stroke-width="0.5" stroke="black" fill="red"/>
  <circle cx="307.425" cy="538.444" r="6.33218" stroke-width="0.5" stroke="red" fill="red"/>
   </g>
   <g id="cell76">
  <circle cx="1594.77" cy="802.602" r="8.40934" stroke-width="0.5" stroke="black" fill="red"/>
  <circle cx="1594.77" cy="802.602" r="5.05073" stroke-width="0.5" stroke="red" fill="red"/>
   </g>
   <g id="cell77">
  <circle cx="1420.55" cy="1810.43" r="10.4752" stroke-width="0.5" stroke="black" fill="red"/>
  <circle cx="1420.55" cy="1810.43" r="6.31365" stroke-width="0.5" stroke="red" fill="red"/>
   </g>
   <g id="cell78">
  <circle cx="1151.81" cy="596.553" r="9.95616" stroke-width="0.5" stroke="black" fill="red"/>
  <circle cx="1151.81" cy="596.553" r="6.04235" stroke-width="0.5" stroke="red" fill="red"/>
   </g>
   <g id="cell79">
  <circle cx="1951.99" cy="1406.36" r="10.2513" stroke-width="0.5" stroke="black" fill="red"/>
  <circle cx="1951.99" cy="1406.36" r="6.20219" stroke-width="0.5" stroke="red" fill="red"/>
   </g>
   <g id="cell80">
  <circle cx="1442.17" cy="1275.33" r="10.3536" stroke-width="0.5" stroke="black" fill="red"/>
  <circle cx="1442.17" cy="1275.33" r="6.2546" stroke-width="0.5" stroke="red" fill="red"/>
   </g>
   <g id="cell81">
  <circle cx="1133.98" cy="1881.82" r="9.96254" stroke-width="0.5" stroke="black" fill="red"/>
  <circle cx="1133.98" cy="1881.82" r="6.04454" stroke-width="0.5" stroke="red" fill="red"/>
   </g>
   <g id="cell82">
  <circle cx="1217.93" cy="813.259" r="10.3674" stroke-width="0.5" stroke="black" fill="red"/>
  <circle cx="1217.93" cy="813.259" r="6.2615" stroke-width="0.5" stroke="red" fill="red"/>
   </g>
   <g id="cell83">
  <circle cx="1228.67" cy="1204.33" r="10.0647" stroke-width="0.5" stroke="black" fill="red"/>
  <circle cx="1228.67" cy="1204.33" r="6.10127" stroke-width="0.5" stroke="red" fill="red"/>
   </g>
   <g id="cell84">
  <circle cx="61.5326" cy="965.902" r="8.38206" stroke-width="0.5" stroke="black" fill="red"/>
  <circle cx="61.5326" cy="965.902" r="5.04069" stroke-width="0.5" stroke="red" fill="red"/>
   </g>
   <g id="cell85">
  <circle cx="1380.28" cy="1276.23" r="9.61478" stroke-width="0.5" stroke="black" fill="red"/>
  <circle cx="1380.28" cy="1276.23" r="5.84471" stroke-width="0.5" stroke="red" fill="red"/>
   </g>
   <g id="cell86">
  <circle cx="582.448" cy="825.842" r="10.1979" stroke-width="0.5" stroke="black" fill="red"/>
  <circle cx="582.448" cy="825.842" r="6.17385" stroke-width="0.5" stroke="red" fill="red"/>
   </g>
   <g id="cell87">
  <circle cx="1478.42" cy="873.491" r="8.403" stroke-width="0.5" stroke="black" fill="red"/>
  <circle cx="1478.42" cy="873.491" r="5.04863" stroke-width="0.5" stroke="red" fill="red"/>
   </g>
   <g id="cell88">
  <circle cx="260.02" cy="241.95" r="9.16136" stroke-width="0.5" stroke="black" fill="red"/>
  <circle cx="260.02" cy="241.95" r="5.56635" stroke-width="0.5" stroke="red" fill="red"/>
   </g>
   <g id="cell89">
  <circle cx="214.209" cy="1191.01" r="9.47305" stroke-width="0.5" stroke="black" fill="red"/>
  <circle cx="214.209" cy="1191.01" r="5.75839" stroke-width="0.5" stroke="red" fill="red"/>
   </g>
   <g id="cell90">
  <circle cx="1165.21" cy="1118.31" r="9.92311" stroke-width="0.5" stroke="black" fill="red"/>
  <circle cx="1165.21" cy="1118.31" r="6.02266" stroke-width="0.5" stroke="red" fill="red"/>
   </g>
   <g id="cell91">
  <circle cx="46.2451" cy="1292.08" r="10.3924" stroke-width="0.5" stroke="black" fill="red"/>
  <circle cx="46.2451" cy="1292.08" r="6.27393" stroke-width="0.5" stroke="red" fill="red"/>
   </g>
   <g id="cell99">
  <circle cx="933.072" cy="1968.88" r="8.36668" stroke-width="0.5" stroke="black" fill="red"/>
  <circle cx="933.072" cy="1968.88" r="5.03445" stroke-width="0.5" stroke="red" fill="red"/>
   </g>
   <g id="cell93">
  <circle cx="405.673" cy="1762.39" r="10.4606" stroke-width="0.5" stroke="black" fill="red"/>
  <circle cx="405.673" cy="1762.39" r="6.30678" stroke-width="0.5" stroke="red" fill="red"/>
   </g>
   <g id="cell94">
  <circle cx="785.704" cy="219.547" r="10.4387" stroke-width="0.5" stroke="black" fill="red"/>
  <circle cx="785.704" cy="219.547" r="6.29653" stroke-width="0.5" stroke="red" fill="red"/>
   </g>
   <g id="cell95">
  <circle cx="1943.97" cy="1776.41" r="10.4918" stroke-width="0.5" stroke="black" fill="red"/>
  <circle cx="1943.97" cy="1776.41" r="6.32121" stroke-width="0.5" stroke="red" fill="red"/>
   </g>
   <g id="cell96">
  <circle cx="1697.11" cy="1056.43" r="8.91721" stroke-width="0.5" stroke="black" fill="red"/>
  <circle cx="1697.11" cy="1056.43" r="5.4123" stroke-width="0.5" stroke="red" fill="red"/>
   </g>
   <g id="cell97">
  <circle cx="899.695" cy="181.888" r="10.4637" stroke-width="0.5" stroke="black" fill="red"/>
  <circle cx="899.695" cy="181.888" r="6.30836" stroke-width="0.5" stroke="red" fill="red"/>
   </g>
   <g id="cell101">
  <circle cx="1340.89" cy="1267.48" r="10.5381" stroke-width="0.5" stroke="black" fill="grey"/>
  <circle cx="1340.89" cy="1267.48" r="6.34162" stroke-width="0.5" stroke="grey" fill="grey"/>
   </g>
   <g id="cell102">
  <circle cx="1055.81" cy="1763.94" r="10.415" stroke-width="0.5" stroke="black" fill="grey"/>
  <circle cx="1055.81" cy="1763.94" r="6.28494" stroke-width="0.5" stroke="grey" fill="grey"/>
   </g>
   <g id="cell103">
  <circle cx="1261.78" cy="1259.81" r="10.5289" stroke-width="0.5" stroke="black" fill="red"/>
  <circle cx="1261.78" cy="1259.81" r="6.33768" stroke-width="0.5" stroke="red" fill="red"/>
   </g>
   <g id="cell104">
  <circle cx="800.696" cy="1868.79" r="8.36923" stroke-width="0.5" stroke="black" fill="grey"/>
  <circle cx="800.696" cy="1868.79" r="5.03551" stroke-width="0.5" stroke="grey" fill="grey"/>
   </g>
   <g id="cell105">
  <circle cx="1154.74" cy="771.072" r="8.36923" stroke-width="0.5" stroke="black" fill="grey"/>
  <circle cx="1154.74" cy="771.072" r="5.03551" stroke-width="0.5" stroke="grey" fill="grey"/>
   </g>
   <g id="cell106">
  <circle cx="438.783" cy="1750.81" r="10.5182" stroke-width="0.5" stroke="black" fill="red"/>
  <circle cx="438.783" cy="1750.81" r="6.33304" stroke-width="0.5" stroke="red" fill="red"/>
   </g>
   <g id="cell107">
  <circle cx="917.189" cy="1250.12" r="10.324" stroke-width="0.5" stroke="black" fill="grey"/>
  <circle cx="917.189" cy="1250.12" r="6.23954" stroke-width="0.5" stroke="grey" fill="grey"/>
   </g>
   <g id="cell108">
  <circle cx="1773.84" cy="969.533" r="10.4948" stroke-width="0.5" stroke="black" fill="grey"/>
  <circle cx="1773.84" cy="969.533" r="6.32258" stroke-width="0.5" stroke="grey" fill="grey"/>
   </g>
   <g id="cell109">
  <circle cx="1757.48" cy="1175.55" r="10.2426" stroke-width="0.5" stroke="black" fill="red"/>
  <circle cx="1757.48" cy="1175.55" r="6.19729" stroke-width="0.5" stroke="red" fill="red"/>
   </g>
   <g id="cell110">
  <circle cx="990.515" cy="1977.9" r="10.2814" stroke-width="0.5" stroke="black" fill="red"/>
  <circle cx="990.515" cy="1977.9" r="6.2176" stroke-width="0.5" stroke="red" fill="red"/>
   </g>
   <g id="cell111">
  <circle cx="1938.2" cy="1755.72" r="9.16188" stroke-width="0.5" stroke="black" fill="red"/>
  <circle cx="1938.2" cy="1755.72" r="5.56651" stroke-width="0.5" stroke="red" fill="red"/>
   </g>
   <g id="cell112">
  <circle cx="985.662" cy="1076.49" r="10.5159" stroke-width="0.5" stroke="black" fill="red"/>
  <circle cx="985.662" cy="1076.49" r="6.33201" stroke-width="0.5" stroke="red" fill="red"/>
   </g>
   <g id="cell113">
  <circle cx="684.269" cy="223.09" r="10.4789" stroke-width="0.5" stroke="black" fill="grey"/>
  <circle cx="684.269" cy="223.09" r="6.3153" stroke-width="0.5" stroke="grey" fill="grey"/>
   </g>
   <g id="cell114">
  <circle cx="620.975" cy="1233.66" r="8.41154" stroke-width="0.5" stroke="black" fill="grey"/>
  <circle cx="620.975" cy="1233.66" r="5.05138" stroke-width="0.5" stroke="grey" fill="grey"/>
   </g>
   <g id="cell115">
  <circle cx="1722.37" cy="1932.97" r="10.4524" stroke-width="0.5" stroke="black" fill="grey"/>
  <circle cx="1722.37" cy="1932.97" r="6.30293" stroke-width="0.5" stroke="grey" fill="grey"/>
   </g>
   <g id="cell116">
  <circle cx="295.131" cy="687.093" r="9.79831" stroke-width="0.5" stroke="black" fill="grey"/>
  <circle cx="295.131" cy="687.093" r="5.95061" stroke-width="0.5" stroke="grey" fill="grey"/>
   </g>
   <g id="cell117">
  <circle cx="1906.78" cy="1572.69" r="10.4947" stroke-width="0.5" stroke="black" fill="grey"/>
  <circle cx="1906.78" cy="1572.69" r="6.32255" stroke-width="0.5" stroke="grey" fill="grey"/>
   </g>
   <g id="cell118">
  <circle cx="1323.19" cy="860.14" r="9.99898" stroke-width="0.5" stroke="black" fill="red"/>
  <circle cx="1323.19" cy="860.14" r="6.0648" stroke-width="0.5" stroke="red" fill="red"/>
   </g>
   <g id="cell119">
  <circle cx="1274.26" cy="829.068" r="10.4094" stroke-width="0.5" stroke="black" fill="red"/>
  <circle cx="1274.26" cy="829.068" r="6.28229" stroke-width="0.5" stroke="red" fill="red"/>
   </g>
   <g id="cell120">
  <circle cx="732.532" cy="1669.15" r="10.4438" stroke-width="0.5" stroke="black" fill="grey"/>
  <circle cx="732.532" cy="1669.15" r="6.29884" stroke-width="0.5" stroke="grey" fill="grey"/>
   </g>
   <g id="cell121">
  <circle cx="467.925" cy="888.288" r="10.4854" stroke-width="0.5" stroke="black" fill="grey"/>
  <circle cx="467.925" cy="888.288" r="6.31832" stroke-width="0.5" stroke="grey" fill="grey"/>
   </g>
   <g id="cell122">
  <circle cx="1920.97" cy="259.747" r="10.4298" stroke-width="0.5" stroke="black" fill="grey"/>
  <circle cx="1920.97" cy="259.747" r="6.29219" stroke-width="0.5" stroke="grey" fill="grey"/>
   </g>
   <g id="cell123">
  <circle cx="73.9149" cy="1231.17" r="10.4916" stroke-width="0.5" stroke="black" fill="red"/>
  <circle cx="73.9149" cy="1231.17" r="6.32116" stroke-width="0.5" stroke="red" fill="red"/>
   </g>
   <g id="cell124">
  <circle cx="1395.92" cy="1788.96" r="10.5057" stroke-width="0.5" stroke="black" fill="red"/>
  <circle cx="1395.92" cy="1788.96" r="6.32754" stroke-width="0.5" stroke="red" fill="red"/>
   </g>
   <g id="cell125">
  <circle cx="1451.3" cy="1358.83" r="10.4038" stroke-width="0.5" stroke="black" fill="red"/>
  <circle cx="1451.3" cy="1358.83" r="6.27956" stroke-width="0.5" stroke="red" fill="red"/>
   </g>
   <g id="cell126">
  <circle cx="1200.19" cy="805.45" r="10.4479" stroke-width="0.5" stroke="black" fill="red"/>
  <circle cx="1200.19" cy="805.45" r="6.30086" stroke-width="0.5" stroke="red" fill="red"/>
   </g>
   <g id="cell127">
  <circle cx="386.272" cy="1271.78" r="9.50413" stroke-width="0.5" stroke="black" fill="grey"/>
  <circle cx="386.272" cy="1271.78" r="5.7771" stroke-width="0.5" stroke="grey" fill="grey"/>
   </g>
   <g id="cell128">
  <circle cx="1733.92" cy="1215.87" r="9.82075" stroke-width="0.5" stroke="black" fill="grey"/>
  <circle cx="1733.92" cy="1215.87" r="5.96363" stroke-width="0.5" stroke="grey" fill="grey"/>
   </g>
   <g id="cell129">
  <circle cx="1664" cy="315.629" r="10.5056" stroke-width="0.5" stroke="black" fill="red"/>
  <circle cx="1664" cy="315.629" r="6.3275" stroke-width="0.5" stroke="red" fill="red"/>
   </g>
   <g id="cell130">
  <circle cx="251.258" cy="1101.02" r="10.4751" stroke-width="0.5" stroke="black" fill="red"/>
  <circle cx="251.258" cy="1101.02" r="6.31362" stroke-width="0.5" stroke="red" fill="red"/>
   </g>
   <g id="cell131">
  <circle cx="226.413" cy="1452.32" r="10.3922" stroke-width="0.5" stroke="black" fill="grey"/>
  <circle cx="226.413" cy="1452.32" r="6.27387" stroke-width="0.5" stroke="grey" fill="grey"/>
   </g>
   <g id="cell132">
  <circle cx="1970.86" cy="813.142" r="10.4819" stroke-width="0.5" stroke="black" fill="grey"/>
  <circle cx="1970.86" cy="813.142" r="6.31675" stroke-width="0.5" stroke="grey" fill="grey"/>
   </g>
   <g id="cell133">
  <circle cx="279.22" cy="173.212" r="10.3861" stroke-width="0.5" stroke="black" fill="red"/>
  <circle cx="279.22" cy="173.212" r="6.2709" stroke-width="0.5" stroke="red" fill="red"/>
   </g>
   <g id="cell134">
  <circle cx="1358.63" cy="171.213" r="10.5001" stroke-width="0.5" stroke="black" fill="grey"/>
  <circle cx="1358.63" cy="171.213" r="6.32505" stroke-width="0.5" stroke="grey" fill="grey"/>
   </g>
   <g id="cell135">
  <circle cx="191.194" cy="1952.46" r="10.4434" stroke-width="0.5" stroke="black" fill="grey"/>
  <circle cx="191.194" cy="1952.46" r="6.29875" stroke-width="0.5" stroke="grey" fill="grey"/>
   </g>
   <g id="cell136">
  <circle cx="1672.54" cy="1907.7" r="10.2098" stroke-width="0.5" stroke="black" fill="red"/>
  <circle cx="1672.54" cy="1907.7" r="6.18009" stroke-width="0.5" stroke="red" fill="red"/>
   </g>
   <g id="cell137">
  <circle cx="760.802" cy="1795.23" r="10.464" stroke-width="0.5" stroke="black" fill="red"/>
  <circle cx="760.802" cy="1795.23" r="6.30846" stroke-width="0.5" stroke="red" fill="red"/>
   </g>
   <g id="cell138">
  <circle cx="280.366" cy="1608.13" r="10.0157" stroke-width="0.5" stroke="black" fill="red"/>
  <circle cx="280.366" cy="1608.13" r="6.07423" stroke-width="0.5" stroke="red" fill="red"/>
   </g>
   <g id="cell139">
  <circle cx="1412.65" cy="1687.31" r="10.4913" stroke-width="0.5" stroke="black" fill="red"/>
  <circle cx="1412.65" cy="1687.31" r="6.32107" stroke-width="0.5" stroke="red" fill="red"/>
   </g>
   <g id="cell140">
  <circle cx="1578.52" cy="1017.64" r="10.4294" stroke-width="0.5" stroke="black" fill="grey"/>
  <circle cx="1578.52" cy="1017.64" r="6.29207" stroke-width="0.5" stroke="grey" fill="grey"/>
   </g>
   <g id="cell141">
  <circle cx="1683.56" cy="41.0151" r="10.4245" stroke-width="0.5" stroke="black" fill="grey"/>
  <circle cx="1683.56" cy="41.0151" r="6.28971" stroke-width="0.5" stroke="grey" fill="grey"/>
   </g>
   <g id="cell142">
  <circle cx="1432.77" cy="616.77" r="10.3602" stroke-width="0.5" stroke="black" fill="red"/>
  <circle cx="1432.77" cy="616.77" r="6.25799" stroke-width="0.5" stroke="red" fill="red"/>
   </g>
   <g id="cell143">
  <circle cx="649.339" cy="954.33" r="10.4387" stroke-width="0.5" stroke="black" fill="red"/>
  <circle cx="649.339" cy="954.33" r="6.29655" stroke-width="0.5" stroke="red" fill="red"/>
   </g>
   <g id="cell144">
  <circle cx="1222.68" cy="261.233" r="8.41067" stroke-width="0.5" stroke="black" fill="grey"/>
  <circle cx="1222.68" cy="261.233" r="5.05113" stroke-width="0.5" stroke="grey" fill="grey"/>
   </g>
   <g id="cell145">
  <circle cx="260.079" cy="1537.55" r="10.3734" stroke-width="0.5" stroke="black" fill="grey"/>
  <circle cx="260.079" cy="1537.55" r="6.26462" stroke-width="0.5" stroke="grey" fill="grey"/>
   </g>
   <g id="cell146">
  <circle cx="733.212" cy="191.465" r="9.96258" stroke-width="0.5" stroke="black" fill="red"/>
  <circle cx="733.212" cy="191.465" r="6.04455" stroke-width="0.5" stroke="red" fill="red"/>
   </g>
   <g id="cell147">
  <circle cx="1157.15" cy="1896.89" r="10.2206" stroke-width="0.5" stroke="black" fill="red"/>
  <circle cx="1157.15" cy="1896.89" r="6.18587" stroke-width="0.5" stroke="red" fill="red"/>
   </g>
   <g id="cell148">
  <circle cx="1168.22" cy="921.804" r="9.88468" stroke-width="0.5" stroke="black" fill="grey"/>
  <circle cx="1168.22" cy="921.804" r="6.00042" stroke-width="0.5" stroke="grey" fill="grey"/>
   </g>
   <g id="cell149">
  <circle cx="657.342" cy="68.2311" r="10.4517" stroke-width="0.5" stroke="black" fill="red"/>
  <circle cx="657.342" cy="68.2311" r="6.30272" stroke-width="0.5" stroke="red" fill="red"/>
   </g>
   <g id="cell150">
  <circle cx="1196.28" cy="1080.94" r="10.4033" stroke-width="0.5" stroke="black" fill="red"/>
  <circle cx="1196.28" cy="1080.94" r="6.2794" stroke-width="0.5" stroke="red" fill="red"/>
   </g>
   <g id="cell151">
  <circle cx="971.353" cy="213.292" r="8.84582" stroke-width="0.5" stroke="black" fill="red"/>
  <circle cx="971.353" cy="213.292" r="5.36217" stroke-width="0.5" stroke="red" fill="red"/>
   </g>
   <g id="cell152">
  <circle cx="1201.76" cy="1695.62" r="9.79742" stroke-width="0.5" stroke="black" fill="grey"/>
  <circle cx="1201.76" cy="1695.62" r="5.95034" stroke-width="0.5" stroke="grey" fill="grey"/>
   </g>
   <g id="cell153">
  <circle cx="931.496" cy="1485.36" r="10.2983" stroke-width="0.5" stroke="black" fill="grey"/>
  <circle cx="931.496" cy="1485.36" r="6.22654" stroke-width="0.5" stroke="grey" fill="grey"/>
   </g>
   <g id="cell154">
  <circle cx="176.045" cy="834.268" r="5.40582" stroke-width="0.5" stroke="black" fill="red"/>
  <circle cx="176.045" cy="834.268" r="3.7872" stroke-width="0.5" stroke="black" fill="black"/>
   </g>
   <g id="cell155">
  <circle cx="590.547" cy="803.515" r="10.3916" stroke-width="0.5" stroke="black" fill="red"/>
  <circle cx="590.547" cy="803.515" r="6.2737" stroke-width="0.5" stroke="red" fill="red"/>
   </g>
   <g id="cell193">
  <circle cx="1389.75" cy="688.075" r="8.47806" stroke-width="0.5" stroke="black" fill="red"/>
  <circle cx="1389.75" cy="688.075" r="5.11288" stroke-width="0.5" stroke="red" fill="red"/>
   </g>
   <g id="cell157">
  <circle cx="1241.77" cy="1280.85" r="10.403" stroke-width="0.5" stroke="black" fill="grey"/>
  <circle cx="1241.77" cy="1280.85" r="6.27932" stroke-width="0.5" stroke="grey" fill="grey"/>
   </g>
   <g id="cell158">
  <circle cx="1941.2" cy="1318.55" r="9.44036" stroke-width="0.5" stroke="black" fill="grey"/>
  <circle cx="1941.2" cy="1318.55" r="5.73889" stroke-width="0.5" stroke="grey" fill="grey"/>
   </g>
   <g id="cell159">
  <circle cx="61.0108" cy="278.664" r="10.3914" stroke-width="0.5" stroke="black" fill="red"/>
  <circle cx="61.0108" cy="278.664" r="6.27364" stroke-width="0.5" stroke="red" fill="red"/>
   </g>
   <g id="cell160">
  <circle cx="1965.85" cy="1487.61" r="10.2088" stroke-width="0.5" stroke="black" fill="red"/>
  <circle cx="1965.85" cy="1487.61" r="6.17979" stroke-width="0.5" stroke="red" fill="red"/>
   </g>
   <g id="cell161">
  <circle cx="1816.7" cy="667.511" r="10.3225" stroke-width="0.5" stroke="black" fill="red"/>
  <circle cx="1816.7" cy="667.511" r="6.23909" stroke-width="0.5" stroke="red" fill="red"/>
   </g>
   <g id="cell162">
  <circle cx="1644.29" cy="749.821" r="8.40934" stroke-width="0.5" stroke="black" fill="red"/>
  <circle cx="1644.29" cy="749.821" r="5.05073" stroke-width="0.5" stroke="red" fill="red"/>
   </g>
   <g id="cell196">
  <circle cx="1177.46" cy="768.676" r="8.36923" stroke-width="0.5" stroke="black" fill="grey"/>
  <circle cx="1177.46" cy="768.676" r="5.03551" stroke-width="0.5" stroke="grey" fill="grey"/>
   </g>
   <g id="cell164">
  <circle cx="832.15" cy="516.705" r="10.2887" stroke-width="0.5" stroke="black" fill="red"/>
  <circle cx="832.15" cy="516.705" r="6.22177" stroke-width="0.5" stroke="red" fill="red"/>
   </g>
   <g id="cell165">
  <circle cx="1599.02" cy="151.584" r="9.81928" stroke-width="0.5" stroke="black" fill="grey"/>
  <circle cx="1599.02" cy="151.584" r="5.96317" stroke-width="0.5" stroke="grey" fill="grey"/>
   </g>
   <g id="cell166">
  <circle cx="1392.17" cy="370.45" r="10.3222" stroke-width="0.5" stroke="black" fill="grey"/>
  <circle cx="1392.17" cy="370.45" r="6.23901" stroke-width="0.5" stroke="grey" fill="grey"/>
   </g>
   <g id="cell167">
  <circle cx="1663.79" cy="270.377" r="9.40715" stroke-width="0.5" stroke="black" fill="grey"/>
  <circle cx="1663.79" cy="270.377" r="5.71891" stroke-width="0.5" stroke="grey" fill="grey"/>
   </g>
   <g id="cell168">
  <circle cx="695.858" cy="1215.25" r="8.40873" stroke-width="0.5" stroke="black" fill="grey"/>
  <circle cx="695.858" cy="1215.25" r="5.05054" stroke-width="0.5" stroke="grey" fill="grey"/>
   </g>
   <g id="cell169">
  <circle cx="1955.59" cy="111.955" r="10.2301" stroke-width="0.5" stroke="black" fill="grey"/>
  <circle cx="1955.59" cy="111.955" r="6.19118" stroke-width="0.5" stroke="grey" fill="grey"/>
   </g>
   <g id="cell170">
  <circle cx="96.2474" cy="1885.92" r="8.92446" stroke-width="0.5" stroke="black" fill="grey"/>
  <circle cx="96.2474" cy="1885.92" r="5.41491" stroke-width="0.5" stroke="grey" fill="grey"/>
   </g>
   <g id="cell171">
  <circle cx="1144.44" cy="1097.94" r="10.0775" stroke-width="0.5" stroke="black" fill="red"/>
  <circle cx="1144.44" cy="1097.94" r="6.10892" stroke-width="0.5" stroke="red" fill="red"/>
   </g>
   <g id="cell172">
  <circle cx="155.272" cy="1832.63" r="9.79564" stroke-width="0.5" stroke="black" fill="red"/>
  <circle cx="155.272" cy="1832.63" r="5.94976" stroke-width="0.5" stroke="red" fill="red"/>
   </g>
   <g id="cell173">
  <circle cx="535.043" cy="350.968" r="8.40731" stroke-width="0.5" stroke="black" fill="red"/>
  <circle cx="535.043" cy="350.968" r="5.05008" stroke-width="0.5" stroke="red" fill="red"/>
   </g>
   <g id="cell174">
  <circle cx="1454.24" cy="945.976" r="8.6837" stroke-width="0.5" stroke="black" fill="grey"/>
  <circle cx="1454.24" cy="945.976" r="5.2524" stroke-width="0.5" stroke="grey" fill="grey"/>
   </g>
   <g id="cell176">
  <circle cx="1138.08" cy="553.362" r="8.40576" stroke-width="0.5" stroke="black" fill="red"/>
  <circle cx="1138.08" cy="553.362" r="5.04957" stroke-width="0.5" stroke="red" fill="red"/>
   </g>
   <g id="cell177">
  <circle cx="1412.11" cy="1293.12" r="9.87945" stroke-width="0.5" stroke="black" fill="red"/>
  <circle cx="1412.11" cy="1293.12" r="5.99864" stroke-width="0.5" stroke="red" fill="red"/>
   </g>
   <g id="cell178">
  <circle cx="1498.2" cy="883.135" r="8.403" stroke-width="0.5" stroke="black" fill="red"/>
  <circle cx="1498.2" cy="883.135" r="5.04863" stroke-width="0.5" stroke="red" fill="red"/>
   </g>
   <g id="cell179">
  <circle cx="1377.56" cy="890.569" r="9.91933" stroke-width="0.5" stroke="black" fill="grey"/>
  <circle cx="1377.56" cy="890.569" r="6.02135" stroke-width="0.5" stroke="grey" fill="grey"/>
   </g>
   <g id="cell180">
  <circle cx="1158.86" cy="569.689" r="8.40154" stroke-width="0.5" stroke="black" fill="red"/>
  <circle cx="1158.86" cy="569.689" r="5.04811" stroke-width="0.5" stroke="red" fill="red"/>
   </g>
   <g id="cell181">
  <circle cx="203.878" cy="1259" r="9.83533" stroke-width="0.5" stroke="black" fill="grey"/>
  <circle cx="203.878" cy="1259" r="5.97375" stroke-width="0.5" stroke="grey" fill="grey"/>
   </g>
   <g id="cell182">
  <circle cx="1658.6" cy="1075.15" r="8.40022" stroke-width="0.5" stroke="black" fill="red"/>
  <circle cx="1658.6" cy="1075.15" r="5.04764" stroke-width="0.5" stroke="red" fill="red"/>
   </g>
   <g id="cell183">
  <circle cx="586.624" cy="323.298" r="8.40022" stroke-width="0.5" stroke="black" fill="grey"/>
  <circle cx="586.624" cy="323.298" r="5.04764" stroke-width="0.5" stroke="grey" fill="grey"/>
   </g>
   <g id="cell184">
  <circle cx="938.528" cy="525.954" r="9.39952" stroke-width="0.5" stroke="black" fill="grey"/>
  <circle cx="938.528" cy="525.954" r="5.71617" stroke-width="0.5" stroke="grey" fill="grey"/>
   </g>
   <g id="cell185">
  <circle cx="905.08" cy="567.462" r="8.83452" stroke-width="0.5" stroke="black" fill="grey"/>
  <circle cx="905.08" cy="567.462" r="5.35814" stroke-width="0.5" stroke="grey" fill="grey"/>
   </g>
   <g id="cell186">
  <circle cx="1144.62" cy="1722.14" r="8.91443" stroke-width="0.5" stroke="black" fill="red"/>
  <circle cx="1144.62" cy="1722.14" r="5.41124" stroke-width="0.5" stroke="red" fill="red"/>
   </g>
   <g id="cell187">
  <circle cx="1302.78" cy="414.859" r="9.55268" stroke-width="0.5" stroke="black" fill="grey"/>
  <circle cx="1302.78" cy="414.859" r="5.80891" stroke-width="0.5" stroke="grey" fill="grey"/>
   </g>
   <g id="cell188">
  <circle cx="1984.02" cy="253.492" r="8.48992" stroke-width="0.5" stroke="black" fill="red"/>
  <circle cx="1984.02" cy="253.492" r="5.11762" stroke-width="0.5" stroke="red" fill="red"/>
   </g>
   <g id="cell189">
  <circle cx="1109.3" cy="281.593" r="8.38608" stroke-width="0.5" stroke="black" fill="grey"/>
  <circle cx="1109.3" cy="281.593" r="5.04229" stroke-width="0.5" stroke="grey" fill="grey"/>
   </g>
   <g id="cell190">
  <circle cx="28.3671" cy="968.771" r="8.38206" stroke-width="0.5" stroke="black" fill="red"/>
  <circle cx="28.3671" cy="968.771" r="5.04069" stroke-width="0.5" stroke="red" fill="red"/>
   </g>
   <g id="cell191">
  <circle cx="1535.16" cy="1683.82" r="8.38028" stroke-width="0.5" stroke="black" fill="grey"/>
  <circle cx="1535.16" cy="1683.82" r="5.03997" stroke-width="0.5" stroke="grey" fill="grey"/>
   </g>
   <g id="cell192">
  <circle cx="1969.79" cy="1325.29" r="8.38028" stroke-width="0.5" stroke="black" fill="grey"/>
  <circle cx="1969.79" cy="1325.29" r="5.03997" stroke-width="0.5" stroke="grey" fill="grey"/>
   </g>
   <g id="cell194">
  <circle cx="453.96" cy="1360.43" r="8.37208" stroke-width="0.5" stroke="black" fill="red"/>
  <circle cx="453.96" cy="1360.43" r="5.03661" stroke-width="0.5" stroke="red" fill="red"/>
   </g>
   <g id="cell195">
  <circle cx="787.303" cy="1869.85" r="8.38923" stroke-width="0.5" stroke="black" fill="grey"/>
  <circle cx="787.303" cy="1869.85" r="5.04945" stroke-width="0.5" stroke="grey" fill="grey"/>
   </g>
   <g id="cell197">
  <circle cx="925.938" cy="1981.23" r="8.36668" stroke-width="0.5" stroke="black" fill="red"/>
  <circle cx="925.938" cy="1981.23" r="5.03445" stroke-width="0.5" stroke="red" fill="red"/>
   </g>
  </g>
 </g>
  <rect x="1750" y="2070" width="200" height="20" stroke-width="4" stroke="rgb(255,255,255)" fill="rgb(0,0,0)"/>
  <text x="1762.5" y="2057.5"
   font-family="Arial" font-size="50" fill="black" >
   200 &#956;m
  </text>
  <text x="50" y="2090"
   font-family="Arial" font-size="37.5" fill="black" >
   0 days, 0 hours, 0 minutes, and 41.1552 seconds
  </text>
  <rect x="0" y="140" width="2000" height="2000" stroke-width="4" stroke="rgb(0,0,0)" fill="none"/>
</svg>
