<?xml version="1.0" encoding="UTF-8" standalone="no"?>
<!-- Created with PhysiCell (http://PhysiCell.MathCancer.org/) -->
<svg 
 xmlns:dc="http://purl.org/dc/elements/1.1/" 
 xmlns:cc="http://creativecommons.org/ns#" 
 xmlns:rdf="http://www.w3.org/1999/02/22-rdf-syntax-ns#" 
 xmlns:svg="http://www.w3.org/2000/svg" 
 xmlns="http://www.w3.org/2000/svg" 
 version="1.1" 
 width="2000" 
 height="2140" 
 id="svg2">
  <rect x="0" y="0" width="2000" height="2140" stroke-width="4" stroke="white" fill="white"/>
  <text x="25" y="60"
   font-family="Arial" font-size="50" fill="black" >
   Current time: 0 days, 6 hours, and 20.00 minutes, z = 0.00 &#956;m
  </text>
  <text x="25" y="115"
   font-family="Arial" font-size="47.5" fill="black" >
   100 agents
  </text>
 <g id="tissue" 
    transform="translate(0,2140) scale(1,-1)">
  <g id="ECM">
  </g>
  <g id="cells">
   <g id="cell0">
  <circle cx="1112.45" cy="1171.35" r="9.23685" stroke-width="0.5" stroke="black" fill="grey"/>
  <circle cx="1112.45" cy="1171.35" r="5.61315" stroke-width="0.5" stroke="grey" fill="grey"/>
   </g>
   <g id="cell1">
  <circle cx="1690.44" cy="1170.01" r="8.68937" stroke-width="0.5" stroke="black" fill="grey"/>
  <circle cx="1690.44" cy="1170.01" r="5.25417" stroke-width="0.5" stroke="grey" fill="grey"/>
   </g>
   <g id="cell2">
  <circle cx="1115.7" cy="1728.12" r="9.67603" stroke-width="0.5" stroke="black" fill="grey"/>
  <circle cx="1115.7" cy="1728.12" r="5.87901" stroke-width="0.5" stroke="grey" fill="grey"/>
   </g>
   <g id="cell3">
  <circle cx="1242.54" cy="1277.88" r="10.0955" stroke-width="0.5" stroke="black" fill="grey"/>
  <circle cx="1242.54" cy="1277.88" r="6.11797" stroke-width="0.5" stroke="grey" fill="grey"/>
   </g>
   <g id="cell4">
  <circle cx="851.106" cy="630.349" r="9.82189" stroke-width="0.5" stroke="black" fill="grey"/>
  <circle cx="851.106" cy="630.349" r="5.96395" stroke-width="0.5" stroke="grey" fill="grey"/>
   </g>
   <g id="cell5">
  <circle cx="102.297" cy="1953.38" r="8.41271" stroke-width="0.5" stroke="black" fill="grey"/>
  <circle cx="102.297" cy="1953.38" r="5.05167" stroke-width="0.5" stroke="grey" fill="grey"/>
   </g>
   <g id="cell6">
  <circle cx="786.292" cy="940.292" r="9.44256" stroke-width="0.5" stroke="black" fill="grey"/>
  <circle cx="786.292" cy="940.292" r="5.73955" stroke-width="0.5" stroke="grey" fill="grey"/>
   </g>
   <g id="cell7">
  <circle cx="1631.33" cy="1068.83" r="9.7992" stroke-width="0.5" stroke="black" fill="grey"/>
  <circle cx="1631.33" cy="1068.83" r="5.95086" stroke-width="0.5" stroke="grey" fill="grey"/>
   </g>
   <g id="cell8">
  <circle cx="1124.72" cy="771.426" r="9.4743" stroke-width="0.5" stroke="black" fill="grey"/>
  <circle cx="1124.72" cy="771.426" r="5.75875" stroke-width="0.5" stroke="grey" fill="grey"/>
   </g>
   <g id="cell9">
  <circle cx="1705.02" cy="139.245" r="8.41271" stroke-width="0.5" stroke="black" fill="grey"/>
  <circle cx="1705.02" cy="139.245" r="5.05167" stroke-width="0.5" stroke="grey" fill="grey"/>
   </g>
   <g id="cell10">
  <circle cx="165.39" cy="1293.56" r="10.0497" stroke-width="0.5" stroke="black" fill="grey"/>
  <circle cx="165.39" cy="1293.56" r="6.09278" stroke-width="0.5" stroke="grey" fill="grey"/>
   </g>
   <g id="cell11">
  <circle cx="720.043" cy="1672.13" r="9.2729" stroke-width="0.5" stroke="black" fill="grey"/>
  <circle cx="720.043" cy="1672.13" r="5.63555" stroke-width="0.5" stroke="grey" fill="grey"/>
   </g>
   <g id="cell12">
  <circle cx="1538.26" cy="330.025" r="9.70201" stroke-width="0.5" stroke="black" fill="grey"/>
  <circle cx="1538.26" cy="330.025" r="5.89426" stroke-width="0.5" stroke="grey" fill="grey"/>
   </g>
   <g id="cell13">
  <circle cx="1756.29" cy="1944.52" r="8.41271" stroke-width="0.5" stroke="black" fill="grey"/>
  <circle cx="1756.29" cy="1944.52" r="5.05167" stroke-width="0.5" stroke="grey" fill="grey"/>
   </g>
   <g id="cell14">
  <circle cx="1594.11" cy="1571.11" r="9.16281" stroke-width="0.5" stroke="black" fill="grey"/>
  <circle cx="1594.11" cy="1571.11" r="5.56677" stroke-width="0.5" stroke="grey" fill="grey"/>
   </g>
   <g id="cell15">
  <circle cx="1015.68" cy="1572.05" r="10.0336" stroke-width="0.5" stroke="black" fill="grey"/>
  <circle cx="1015.68" cy="1572.05" r="6.08382" stroke-width="0.5" stroke="grey" fill="grey"/>
   </g>
   <g id="cell16">
  <circle cx="233.824" cy="1449.14" r="10.0336" stroke-width="0.5" stroke="black" fill="grey"/>
  <circle cx="233.824" cy="1449.14" r="6.08382" stroke-width="0.5" stroke="grey" fill="grey"/>
   </g>
   <g id="cell17">
  <circle cx="1182.73" cy="298.112" r="10.0336" stroke-width="0.5" stroke="black" fill="grey"/>
  <circle cx="1182.73" cy="298.112" r="6.08382" stroke-width="0.5" stroke="grey" fill="grey"/>
   </g>
   <g id="cell18">
  <circle cx="1876.33" cy="1543.79" r="8.41271" stroke-width="0.5" stroke="black" fill="grey"/>
  <circle cx="1876.33" cy="1543.79" r="5.05167" stroke-width="0.5" stroke="grey" fill="grey"/>
   </g>
   <g id="cell19">
  <circle cx="192.083" cy="834.091" r="8.41271" stroke-width="0.5" stroke="black" fill="grey"/>
  <circle cx="192.083" cy="834.091" r="5.05167" stroke-width="0.5" stroke="grey" fill="grey"/>
   </g>
   <g id="cell20">
  <circle cx="562.437" cy="370.968" r="9.90658" stroke-width="0.5" stroke="black" fill="grey"/>
  <circle cx="562.437" cy="370.968" r="6.01243" stroke-width="0.5" stroke="grey" fill="grey"/>
   </g>
   <g id="cell21">
  <circle cx="1450.39" cy="922.094" r="9.44256" stroke-width="0.5" stroke="black" fill="grey"/>
  <circle cx="1450.39" cy="922.094" r="5.73955" stroke-width="0.5" stroke="grey" fill="grey"/>
   </g>
   <g id="cell22">
  <circle cx="1162.67" cy="229.258" r="9.99984" stroke-width="0.5" stroke="black" fill="grey"/>
  <circle cx="1162.67" cy="229.258" r="6.06503" stroke-width="0.5" stroke="grey" fill="grey"/>
   </g>
   <g id="cell23">
  <circle cx="657.36" cy="1219.8" r="9.92631" stroke-width="0.5" stroke="black" fill="grey"/>
  <circle cx="657.36" cy="1219.8" r="6.02363" stroke-width="0.5" stroke="grey" fill="grey"/>
   </g>
   <g id="cell24">
  <circle cx="1233.49" cy="441.016" r="2.78744" stroke-width="0.5" stroke="black" fill="grey"/>
  <circle cx="1233.49" cy="441.016" r="2.36701" stroke-width="0.5" stroke="black" fill="black"/>
   </g>
   <g id="cell25">
  <circle cx="753.429" cy="1891.72" r="9.94548" stroke-width="0.5" stroke="black" fill="grey"/>
  <circle cx="753.429" cy="1891.72" r="6.03448" stroke-width="0.5" stroke="grey" fill="grey"/>
   </g>
   <g id="cell26">
  <circle cx="1387.88" cy="916.724" r="8.41271" stroke-width="0.5" stroke="black" fill="grey"/>
  <circle cx="1387.88" cy="916.724" r="5.05167" stroke-width="0.5" stroke="grey" fill="grey"/>
   </g>
   <g id="cell27">
  <circle cx="1219.17" cy="845.616" r="9.7992" stroke-width="0.5" stroke="black" fill="grey"/>
  <circle cx="1219.17" cy="845.616" r="5.95086" stroke-width="0.5" stroke="grey" fill="grey"/>
   </g>
   <g id="cell28">
  <circle cx="1401.4" cy="212.298" r="10.0806" stroke-width="0.5" stroke="black" fill="grey"/>
  <circle cx="1401.4" cy="212.298" r="6.10985" stroke-width="0.5" stroke="grey" fill="grey"/>
   </g>
   <g id="cell29">
  <circle cx="1922.36" cy="1336.46" r="10.0806" stroke-width="0.5" stroke="black" fill="grey"/>
  <circle cx="1922.36" cy="1336.46" r="6.10985" stroke-width="0.5" stroke="grey" fill="grey"/>
   </g>
   <g id="cell30">
  <circle cx="1354.8" cy="335.775" r="8.41271" stroke-width="0.5" stroke="black" fill="grey"/>
  <circle cx="1354.8" cy="335.775" r="5.05167" stroke-width="0.5" stroke="grey" fill="grey"/>
   </g>
   <g id="cell31">
  <circle cx="701.68" cy="288.914" r="9.12489" stroke-width="0.5" stroke="black" fill="grey"/>
  <circle cx="701.68" cy="288.914" r="5.54282" stroke-width="0.5" stroke="grey" fill="grey"/>
   </g>
   <g id="cell32">
  <circle cx="661.993" cy="1199.14" r="10.1634" stroke-width="0.5" stroke="black" fill="grey"/>
  <circle cx="661.993" cy="1199.14" r="6.1549" stroke-width="0.5" stroke="grey" fill="grey"/>
   </g>
   <g id="cell33">
  <circle cx="637.111" cy="1142.21" r="8.41271" stroke-width="0.5" stroke="black" fill="grey"/>
  <circle cx="637.111" cy="1142.21" r="5.05167" stroke-width="0.5" stroke="grey" fill="grey"/>
   </g>
   <g id="cell34">
  <circle cx="869.278" cy="1285.61" r="9.30826" stroke-width="0.5" stroke="black" fill="grey"/>
  <circle cx="869.278" cy="1285.61" r="5.65742" stroke-width="0.5" stroke="grey" fill="grey"/>
   </g>
   <g id="cell35">
  <circle cx="1922.11" cy="190.233" r="8.45606" stroke-width="0.5" stroke="black" fill="grey"/>
  <circle cx="1922.11" cy="190.233" r="5.08296" stroke-width="0.5" stroke="grey" fill="grey"/>
   </g>
   <g id="cell36">
  <circle cx="419.259" cy="1253.55" r="9.92631" stroke-width="0.5" stroke="black" fill="grey"/>
  <circle cx="419.259" cy="1253.55" r="6.02363" stroke-width="0.5" stroke="grey" fill="grey"/>
   </g>
   <g id="cell37">
  <circle cx="1974.66" cy="1355.37" r="9.62199" stroke-width="0.5" stroke="black" fill="grey"/>
  <circle cx="1974.66" cy="1355.37" r="5.8471" stroke-width="0.5" stroke="grey" fill="grey"/>
   </g>
   <g id="cell38">
  <circle cx="509.958" cy="854.485" r="8.41271" stroke-width="0.5" stroke="black" fill="grey"/>
  <circle cx="509.958" cy="854.485" r="5.05167" stroke-width="0.5" stroke="grey" fill="grey"/>
   </g>
   <g id="cell39">
  <circle cx="948.236" cy="470.627" r="9.70201" stroke-width="0.5" stroke="black" fill="grey"/>
  <circle cx="948.236" cy="470.627" r="5.89426" stroke-width="0.5" stroke="grey" fill="grey"/>
   </g>
   <g id="cell40">
  <circle cx="323.864" cy="662.909" r="9.67603" stroke-width="0.5" stroke="black" fill="grey"/>
  <circle cx="323.864" cy="662.909" r="5.87901" stroke-width="0.5" stroke="grey" fill="grey"/>
   </g>
   <g id="cell41">
  <circle cx="1322.95" cy="1319.27" r="8.96831" stroke-width="0.5" stroke="black" fill="grey"/>
  <circle cx="1322.95" cy="1319.27" r="5.44228" stroke-width="0.5" stroke="grey" fill="grey"/>
   </g>
   <g id="cell42">
  <circle cx="246.858" cy="1553.04" r="8.41271" stroke-width="0.5" stroke="black" fill="grey"/>
  <circle cx="246.858" cy="1553.04" r="5.05167" stroke-width="0.5" stroke="grey" fill="grey"/>
   </g>
   <g id="cell43">
  <circle cx="1887.89" cy="721.593" r="8.41271" stroke-width="0.5" stroke="black" fill="grey"/>
  <circle cx="1887.89" cy="721.593" r="5.05167" stroke-width="0.5" stroke="grey" fill="grey"/>
   </g>
   <g id="cell44">
  <circle cx="1633.76" cy="50.1993" r="9.53557" stroke-width="0.5" stroke="black" fill="grey"/>
  <circle cx="1633.76" cy="50.1993" r="5.79561" stroke-width="0.5" stroke="grey" fill="grey"/>
   </g>
   <g id="cell45">
  <circle cx="1224.42" cy="1639.87" r="8.41271" stroke-width="0.5" stroke="black" fill="grey"/>
  <circle cx="1224.42" cy="1639.87" r="5.05167" stroke-width="0.5" stroke="grey" fill="grey"/>
   </g>
   <g id="cell46">
  <circle cx="201.338" cy="1912.16" r="8.41271" stroke-width="0.5" stroke="black" fill="grey"/>
  <circle cx="201.338" cy="1912.16" r="5.05167" stroke-width="0.5" stroke="grey" fill="grey"/>
   </g>
   <g id="cell47">
  <circle cx="1763.6" cy="973.401" r="9.94548" stroke-width="0.5" stroke="black" fill="grey"/>
  <circle cx="1763.6" cy="973.401" r="6.03448" stroke-width="0.5" stroke="grey" fill="grey"/>
   </g>
   <g id="cell48">
  <circle cx="1972.5" cy="92.2477" r="9.99984" stroke-width="0.5" stroke="black" fill="grey"/>
  <circle cx="1972.5" cy="92.2477" r="6.06503" stroke-width="0.5" stroke="grey" fill="grey"/>
   </g>
   <g id="cell49">
  <circle cx="875.166" cy="1444.16" r="10.1238" stroke-width="0.5" stroke="black" fill="grey"/>
  <circle cx="875.166" cy="1444.16" r="6.13347" stroke-width="0.5" stroke="grey" fill="grey"/>
   </g>
   <g id="cell50">
  <circle cx="72.676" cy="888.709" r="10.1634" stroke-width="0.5" stroke="black" fill="red"/>
  <circle cx="72.676" cy="888.709" r="6.1549" stroke-width="0.5" stroke="red" fill="red"/>
   </g>
   <g id="cell51">
  <circle cx="1974.49" cy="250.323" r="8.41271" stroke-width="0.5" stroke="black" fill="red"/>
  <circle cx="1974.49" cy="250.323" r="5.05167" stroke-width="0.5" stroke="red" fill="red"/>
   </g>
   <g id="cell52">
  <circle cx="593.266" cy="981.612" r="9.5651" stroke-width="0.5" stroke="black" fill="red"/>
  <circle cx="593.266" cy="981.612" r="5.81327" stroke-width="0.5" stroke="red" fill="red"/>
   </g>
   <g id="cell53">
  <circle cx="1332.99" cy="636.556" r="10.1098" stroke-width="0.5" stroke="black" fill="red"/>
  <circle cx="1332.99" cy="636.556" r="6.12585" stroke-width="0.5" stroke="red" fill="red"/>
   </g>
   <g id="cell54">
  <circle cx="796.537" cy="1817.92" r="10.1634" stroke-width="0.5" stroke="black" fill="red"/>
  <circle cx="796.537" cy="1817.92" r="6.1549" stroke-width="0.5" stroke="red" fill="red"/>
   </g>
   <g id="cell55">
  <circle cx="413.679" cy="1377.31" r="9.92631" stroke-width="0.5" stroke="black" fill="red"/>
  <circle cx="413.679" cy="1377.31" r="6.02363" stroke-width="0.5" stroke="red" fill="red"/>
   </g>
   <g id="cell56">
  <circle cx="1162.19" cy="1706.32" r="8.41271" stroke-width="0.5" stroke="black" fill="red"/>
  <circle cx="1162.19" cy="1706.32" r="5.05167" stroke-width="0.5" stroke="red" fill="red"/>
   </g>
   <g id="cell57">
  <circle cx="1020.5" cy="1047.87" r="8.41271" stroke-width="0.5" stroke="black" fill="red"/>
  <circle cx="1020.5" cy="1047.87" r="5.05167" stroke-width="0.5" stroke="red" fill="red"/>
   </g>
   <g id="cell58">
  <circle cx="175.007" cy="1818.79" r="9.88629" stroke-width="0.5" stroke="black" fill="red"/>
  <circle cx="175.007" cy="1818.79" r="6.00088" stroke-width="0.5" stroke="red" fill="red"/>
   </g>
   <g id="cell59">
  <circle cx="171.722" cy="1844.99" r="3.13877" stroke-width="0.5" stroke="black" fill="red"/>
  <circle cx="171.722" cy="1844.99" r="2.68079" stroke-width="0.5" stroke="black" fill="black"/>
   </g>
   <g id="cell60">
  <circle cx="657.501" cy="41.1199" r="10.0806" stroke-width="0.5" stroke="black" fill="red"/>
  <circle cx="657.501" cy="41.1199" r="6.10985" stroke-width="0.5" stroke="red" fill="red"/>
   </g>
   <g id="cell61">
  <circle cx="1675.33" cy="282.302" r="9.44256" stroke-width="0.5" stroke="black" fill="red"/>
  <circle cx="1675.33" cy="282.302" r="5.73955" stroke-width="0.5" stroke="red" fill="red"/>
   </g>
   <g id="cell62">
  <circle cx="1434.97" cy="1665.61" r="8.61424" stroke-width="0.5" stroke="black" fill="red"/>
  <circle cx="1434.97" cy="1665.61" r="5.20061" stroke-width="0.5" stroke="red" fill="red"/>
   </g>
   <g id="cell63">
  <circle cx="533.211" cy="337.372" r="8.41271" stroke-width="0.5" stroke="black" fill="red"/>
  <circle cx="533.211" cy="337.372" r="5.05167" stroke-width="0.5" stroke="red" fill="red"/>
   </g>
   <g id="cell64">
  <circle cx="1153.64" cy="1114.46" r="8.65127" stroke-width="0.5" stroke="black" fill="red"/>
  <circle cx="1153.64" cy="1114.46" r="5.2272" stroke-width="0.5" stroke="red" fill="red"/>
   </g>
   <g id="cell65">
  <circle cx="363.14" cy="1646.64" r="9.92631" stroke-width="0.5" stroke="black" fill="red"/>
  <circle cx="363.14" cy="1646.64" r="6.02363" stroke-width="0.5" stroke="red" fill="red"/>
   </g>
   <g id="cell66">
  <circle cx="21.4065" cy="319.335" r="9.44256" stroke-width="0.5" stroke="black" fill="red"/>
  <circle cx="21.4065" cy="319.335" r="5.73955" stroke-width="0.5" stroke="red" fill="red"/>
   </g>
   <g id="cell67">
  <circle cx="1086.61" cy="540.03" r="9.12489" stroke-width="0.5" stroke="black" fill="red"/>
  <circle cx="1086.61" cy="540.03" r="5.54282" stroke-width="0.5" stroke="red" fill="red"/>
   </g>
   <g id="cell68">
  <circle cx="1461.88" cy="587.073" r="9.90658" stroke-width="0.5" stroke="black" fill="red"/>
  <circle cx="1461.88" cy="587.073" r="6.01243" stroke-width="0.5" stroke="red" fill="red"/>
   </g>
   <g id="cell69">
  <circle cx="874.942" cy="505.778" r="8.41271" stroke-width="0.5" stroke="black" fill="red"/>
  <circle cx="874.942" cy="505.778" r="5.05167" stroke-width="0.5" stroke="red" fill="red"/>
   </g>
   <g id="cell70">
  <circle cx="1169.76" cy="816.236" r="9.7273" stroke-width="0.5" stroke="black" fill="red"/>
  <circle cx="1169.76" cy="816.236" r="5.90906" stroke-width="0.5" stroke="red" fill="red"/>
   </g>
   <g id="cell71">
  <circle cx="1781.47" cy="1121.75" r="9.53557" stroke-width="0.5" stroke="black" fill="red"/>
  <circle cx="1781.47" cy="1121.75" r="5.79561" stroke-width="0.5" stroke="red" fill="red"/>
   </g>
   <g id="cell72">
  <circle cx="453.289" cy="1807.72" r="8.41271" stroke-width="0.5" stroke="black" fill="red"/>
  <circle cx="453.289" cy="1807.72" r="5.05167" stroke-width="0.5" stroke="red" fill="red"/>
   </g>
   <g id="cell73">
  <circle cx="1410.97" cy="888.902" r="9.98223" stroke-width="0.5" stroke="black" fill="red"/>
  <circle cx="1410.97" cy="888.902" r="6.05517" stroke-width="0.5" stroke="red" fill="red"/>
   </g>
   <g id="cell74">
  <circle cx="1691.14" cy="1929.98" r="9.96412" stroke-width="0.5" stroke="black" fill="red"/>
  <circle cx="1691.14" cy="1929.98" r="6.04499" stroke-width="0.5" stroke="red" fill="red"/>
   </g>
   <g id="cell75">
  <circle cx="212.108" cy="598.66" r="8.41271" stroke-width="0.5" stroke="black" fill="red"/>
  <circle cx="212.108" cy="598.66" r="5.05167" stroke-width="0.5" stroke="red" fill="red"/>
   </g>
   <g id="cell76">
  <circle cx="1608.48" cy="830.512" r="9.12489" stroke-width="0.5" stroke="black" fill="red"/>
  <circle cx="1608.48" cy="830.512" r="5.54282" stroke-width="0.5" stroke="red" fill="red"/>
   </g>
   <g id="cell77">
  <circle cx="1368.74" cy="1748.45" r="8.72828" stroke-width="0.5" stroke="black" fill="red"/>
  <circle cx="1368.74" cy="1748.45" r="5.28134" stroke-width="0.5" stroke="red" fill="red"/>
   </g>
   <g id="cell78">
  <circle cx="1201.06" cy="648.423" r="8.72828" stroke-width="0.5" stroke="black" fill="red"/>
  <circle cx="1201.06" cy="648.423" r="5.28134" stroke-width="0.5" stroke="red" fill="red"/>
   </g>
   <g id="cell79">
  <circle cx="1919.27" cy="1380.68" r="8.41271" stroke-width="0.5" stroke="black" fill="red"/>
  <circle cx="1919.27" cy="1380.68" r="5.05167" stroke-width="0.5" stroke="red" fill="red"/>
   </g>
   <g id="cell80">
  <circle cx="1440.79" cy="1294.53" r="9.53557" stroke-width="0.5" stroke="black" fill="red"/>
  <circle cx="1440.79" cy="1294.53" r="5.79561" stroke-width="0.5" stroke="red" fill="red"/>
   </g>
   <g id="cell81">
  <circle cx="1073.97" cy="1890.12" r="3.32965" stroke-width="0.5" stroke="black" fill="red"/>
  <circle cx="1073.97" cy="1890.12" r="2.73483" stroke-width="0.5" stroke="black" fill="black"/>
   </g>
   <g id="cell82">
  <circle cx="1262.23" cy="795.987" r="9.62199" stroke-width="0.5" stroke="black" fill="red"/>
  <circle cx="1262.23" cy="795.987" r="5.8471" stroke-width="0.5" stroke="red" fill="red"/>
   </g>
   <g id="cell83">
  <circle cx="1257.87" cy="1241.62" r="8.57856" stroke-width="0.5" stroke="black" fill="red"/>
  <circle cx="1257.87" cy="1241.62" r="5.17461" stroke-width="0.5" stroke="red" fill="red"/>
   </g>
   <g id="cell84">
  <circle cx="20.4819" cy="947.102" r="10.0654" stroke-width="0.5" stroke="black" fill="red"/>
  <circle cx="20.4819" cy="947.102" r="6.10145" stroke-width="0.5" stroke="red" fill="red"/>
   </g>
   <g id="cell85">
  <circle cx="1401.03" cy="1309.37" r="8.41271" stroke-width="0.5" stroke="black" fill="red"/>
  <circle cx="1401.03" cy="1309.37" r="5.05167" stroke-width="0.5" stroke="red" fill="red"/>
   </g>
   <g id="cell86">
  <circle cx="576.631" cy="789.67" r="8.41271" stroke-width="0.5" stroke="black" fill="red"/>
  <circle cx="576.631" cy="789.67" r="5.05167" stroke-width="0.5" stroke="red" fill="red"/>
   </g>
   <g id="cell87">
  <circle cx="1482.65" cy="864.288" r="9.44256" stroke-width="0.5" stroke="black" fill="red"/>
  <circle cx="1482.65" cy="864.288" r="5.73955" stroke-width="0.5" stroke="red" fill="red"/>
   </g>
   <g id="cell88">
  <circle cx="287.355" cy="179.39" r="9.53557" stroke-width="0.5" stroke="black" fill="red"/>
  <circle cx="287.355" cy="179.39" r="5.79561" stroke-width="0.5" stroke="red" fill="red"/>
   </g>
   <g id="cell89">
  <circle cx="185.924" cy="1150.58" r="8.41271" stroke-width="0.5" stroke="black" fill="red"/>
  <circle cx="185.924" cy="1150.58" r="5.05167" stroke-width="0.5" stroke="red" fill="red"/>
   </g>
   <g id="cell90">
  <circle cx="1172.15" cy="1104.1" r="8.41271" stroke-width="0.5" stroke="black" fill="red"/>
  <circle cx="1172.15" cy="1104.1" r="5.05167" stroke-width="0.5" stroke="red" fill="red"/>
   </g>
   <g id="cell91">
  <circle cx="47.8916" cy="1283.01" r="8.41271" stroke-width="0.5" stroke="black" fill="red"/>
  <circle cx="47.8916" cy="1283.01" r="5.05167" stroke-width="0.5" stroke="red" fill="red"/>
   </g>
   <g id="cell92">
  <circle cx="1261.22" cy="655.141" r="10.1634" stroke-width="0.5" stroke="black" fill="red"/>
  <circle cx="1261.22" cy="655.141" r="6.1549" stroke-width="0.5" stroke="red" fill="red"/>
   </g>
   <g id="cell93">
  <circle cx="439.75" cy="1812.12" r="8.88811" stroke-width="0.5" stroke="black" fill="red"/>
  <circle cx="439.75" cy="1812.12" r="5.38958" stroke-width="0.5" stroke="red" fill="red"/>
   </g>
   <g id="cell94">
  <circle cx="756.532" cy="199.474" r="9.77588" stroke-width="0.5" stroke="black" fill="red"/>
  <circle cx="756.532" cy="199.474" r="5.93735" stroke-width="0.5" stroke="red" fill="red"/>
   </g>
   <g id="cell95">
  <circle cx="1985.35" cy="1763.22" r="9.67603" stroke-width="0.5" stroke="black" fill="red"/>
  <circle cx="1985.35" cy="1763.22" r="5.87901" stroke-width="0.5" stroke="red" fill="red"/>
   </g>
   <g id="cell96">
  <circle cx="1621.01" cy="1079.93" r="9.88629" stroke-width="0.5" stroke="black" fill="red"/>
  <circle cx="1621.01" cy="1079.93" r="6.00088" stroke-width="0.5" stroke="red" fill="red"/>
   </g>
   <g id="cell97">
  <circle cx="873.177" cy="195.831" r="10.0955" stroke-width="0.5" stroke="black" fill="red"/>
  <circle cx="873.177" cy="195.831" r="6.11797" stroke-width="0.5" stroke="red" fill="red"/>
   </g>
   <g id="cell98">
  <circle cx="1805.79" cy="701.647" r="10.1374" stroke-width="0.5" stroke="black" fill="red"/>
  <circle cx="1805.79" cy="701.647" r="6.14084" stroke-width="0.5" stroke="red" fill="red"/>
   </g>
   <g id="cell99">
  <circle cx="919.808" cy="1964.74" r="10.1506" stroke-width="0.5" stroke="black" fill="red"/>
  <circle cx="919.808" cy="1964.74" r="6.14798" stroke-width="0.5" stroke="red" fill="red"/>
   </g>
  </g>
 </g>
  <rect x="1750" y="2070" width="200" height="20" stroke-width="4" stroke="rgb(255,255,255)" fill="rgb(0,0,0)"/>
  <text x="1762.5" y="2057.5"
   font-family="Arial" font-size="50" fill="black" >
   200 &#956;m
  </text>
  <text x="50" y="2090"
   font-family="Arial" font-size="37.5" fill="black" >
   0 days, 0 hours, 0 minutes, and 9.5000 seconds
  </text>
  <rect x="0" y="140" width="2000" height="2000" stroke-width="4" stroke="rgb(0,0,0)" fill="none"/>
</svg>
