<?xml version="1.0" encoding="UTF-8" standalone="no"?>
<!-- Created with PhysiCell (http://PhysiCell.MathCancer.org/) -->
<svg 
 xmlns:dc="http://purl.org/dc/elements/1.1/" 
 xmlns:cc="http://creativecommons.org/ns#" 
 xmlns:rdf="http://www.w3.org/1999/02/22-rdf-syntax-ns#" 
 xmlns:svg="http://www.w3.org/2000/svg" 
 xmlns="http://www.w3.org/2000/svg" 
 version="1.1" 
 width="2000" 
 height="2140" 
 id="svg2">
  <rect x="0" y="0" width="2000" height="2140" stroke-width="4" stroke="white" fill="white"/>
  <text x="25" y="60"
   font-family="Arial" font-size="50" fill="black" >
   Current time: 0 days, 3 hours, and 20.00 minutes, z = 0.00 &#956;m
  </text>
  <text x="25" y="115"
   font-family="Arial" font-size="47.5" fill="black" >
   100 agents
  </text>
 <g id="tissue" 
    transform="translate(0,2140) scale(1,-1)">
  <g id="ECM">
  </g>
  <g id="cells">
   <g id="cell0">
  <circle cx="1094.22" cy="1186.84" r="8.41271" stroke-width="0.5" stroke="black" fill="grey"/>
  <circle cx="1094.22" cy="1186.84" r="5.05167" stroke-width="0.5" stroke="grey" fill="grey"/>
   </g>
   <g id="cell1">
  <circle cx="1689.3" cy="1197" r="9.41008" stroke-width="0.5" stroke="black" fill="grey"/>
  <circle cx="1689.3" cy="1197" r="5.71981" stroke-width="0.5" stroke="grey" fill="grey"/>
   </g>
   <g id="cell2">
  <circle cx="1091.36" cy="1708.13" r="4.86577" stroke-width="0.5" stroke="black" fill="grey"/>
  <circle cx="1091.36" cy="1708.13" r="3.42014" stroke-width="0.5" stroke="black" fill="black"/>
   </g>
   <g id="cell3">
  <circle cx="1251.93" cy="1298.33" r="8.68937" stroke-width="0.5" stroke="black" fill="grey"/>
  <circle cx="1251.93" cy="1298.33" r="5.25417" stroke-width="0.5" stroke="grey" fill="grey"/>
   </g>
   <g id="cell4">
  <circle cx="888.838" cy="576.725" r="3.45715" stroke-width="0.5" stroke="black" fill="grey"/>
  <circle cx="888.838" cy="576.725" r="2.66266" stroke-width="0.5" stroke="black" fill="black"/>
   </g>
   <g id="cell5">
  <circle cx="131.89" cy="1934.33" r="8.41271" stroke-width="0.5" stroke="black" fill="grey"/>
  <circle cx="131.89" cy="1934.33" r="5.05167" stroke-width="0.5" stroke="grey" fill="grey"/>
   </g>
   <g id="cell6">
  <circle cx="731.911" cy="969.535" r="8.41271" stroke-width="0.5" stroke="black" fill="grey"/>
  <circle cx="731.911" cy="969.535" r="5.05167" stroke-width="0.5" stroke="grey" fill="grey"/>
   </g>
   <g id="cell7">
  <circle cx="1624.31" cy="1069.57" r="3.3642" stroke-width="0.5" stroke="black" fill="grey"/>
  <circle cx="1624.31" cy="1069.57" r="2.62376" stroke-width="0.5" stroke="black" fill="black"/>
   </g>
   <g id="cell8">
  <circle cx="1134.45" cy="769.427" r="9.34292" stroke-width="0.5" stroke="black" fill="grey"/>
  <circle cx="1134.45" cy="769.427" r="5.67875" stroke-width="0.5" stroke="grey" fill="grey"/>
   </g>
   <g id="cell9">
  <circle cx="1665.18" cy="148.612" r="8.41271" stroke-width="0.5" stroke="black" fill="grey"/>
  <circle cx="1665.18" cy="148.612" r="5.05167" stroke-width="0.5" stroke="grey" fill="grey"/>
   </g>
   <g id="cell10">
  <circle cx="143.125" cy="1287.88" r="4.45062" stroke-width="0.5" stroke="black" fill="grey"/>
  <circle cx="143.125" cy="1287.88" r="3.22589" stroke-width="0.5" stroke="black" fill="black"/>
   </g>
   <g id="cell11">
  <circle cx="761.945" cy="1661.89" r="8.41271" stroke-width="0.5" stroke="black" fill="grey"/>
  <circle cx="761.945" cy="1661.89" r="5.05167" stroke-width="0.5" stroke="grey" fill="grey"/>
   </g>
   <g id="cell12">
  <circle cx="1545.75" cy="257.472" r="9.04745" stroke-width="0.5" stroke="black" fill="grey"/>
  <circle cx="1545.75" cy="257.472" r="5.49345" stroke-width="0.5" stroke="grey" fill="grey"/>
   </g>
   <g id="cell13">
  <circle cx="1738.91" cy="1953.97" r="2.72971" stroke-width="0.5" stroke="black" fill="grey"/>
  <circle cx="1738.91" cy="1953.97" r="2.33853" stroke-width="0.5" stroke="black" fill="black"/>
   </g>
   <g id="cell14">
  <circle cx="1597.78" cy="1614.14" r="8.41271" stroke-width="0.5" stroke="black" fill="grey"/>
  <circle cx="1597.78" cy="1614.14" r="5.05167" stroke-width="0.5" stroke="grey" fill="grey"/>
   </g>
   <g id="cell15">
  <circle cx="1043.38" cy="1562.39" r="2.42814" stroke-width="0.5" stroke="black" fill="grey"/>
  <circle cx="1043.38" cy="1562.39" r="2.17648" stroke-width="0.5" stroke="black" fill="black"/>
   </g>
   <g id="cell16">
  <circle cx="218.08" cy="1429.96" r="2.84772" stroke-width="0.5" stroke="black" fill="grey"/>
  <circle cx="218.08" cy="1429.96" r="2.39601" stroke-width="0.5" stroke="black" fill="black"/>
   </g>
   <g id="cell17">
  <circle cx="1167.46" cy="288.104" r="2.84772" stroke-width="0.5" stroke="black" fill="grey"/>
  <circle cx="1167.46" cy="288.104" r="2.39601" stroke-width="0.5" stroke="black" fill="black"/>
   </g>
   <g id="cell18">
  <circle cx="1896.46" cy="1532.33" r="9.44256" stroke-width="0.5" stroke="black" fill="grey"/>
  <circle cx="1896.46" cy="1532.33" r="5.73955" stroke-width="0.5" stroke="grey" fill="grey"/>
   </g>
   <g id="cell19">
  <circle cx="203.581" cy="824.849" r="8.41271" stroke-width="0.5" stroke="black" fill="grey"/>
  <circle cx="203.581" cy="824.849" r="5.05167" stroke-width="0.5" stroke="grey" fill="grey"/>
   </g>
   <g id="cell20">
  <circle cx="515.813" cy="386.651" r="8.41271" stroke-width="0.5" stroke="black" fill="grey"/>
  <circle cx="515.813" cy="386.651" r="5.05167" stroke-width="0.5" stroke="grey" fill="grey"/>
   </g>
   <g id="cell21">
  <circle cx="1467.31" cy="924.696" r="9.53557" stroke-width="0.5" stroke="black" fill="grey"/>
  <circle cx="1467.31" cy="924.696" r="5.79561" stroke-width="0.5" stroke="grey" fill="grey"/>
   </g>
   <g id="cell22">
  <circle cx="1143.19" cy="274.484" r="8.41271" stroke-width="0.5" stroke="black" fill="grey"/>
  <circle cx="1143.19" cy="274.484" r="5.05167" stroke-width="0.5" stroke="grey" fill="grey"/>
   </g>
   <g id="cell23">
  <circle cx="671.545" cy="1250.24" r="3.66624" stroke-width="0.5" stroke="black" fill="grey"/>
  <circle cx="671.545" cy="1250.24" r="2.75003" stroke-width="0.5" stroke="black" fill="black"/>
   </g>
   <g id="cell24">
  <circle cx="1232.54" cy="448.618" r="8.41271" stroke-width="0.5" stroke="black" fill="grey"/>
  <circle cx="1232.54" cy="448.618" r="5.05167" stroke-width="0.5" stroke="grey" fill="grey"/>
   </g>
   <g id="cell25">
  <circle cx="753.708" cy="1872.05" r="9.5053" stroke-width="0.5" stroke="black" fill="grey"/>
  <circle cx="753.708" cy="1872.05" r="5.77744" stroke-width="0.5" stroke="grey" fill="grey"/>
   </g>
   <g id="cell26">
  <circle cx="1365.4" cy="903.371" r="2.84772" stroke-width="0.5" stroke="black" fill="grey"/>
  <circle cx="1365.4" cy="903.371" r="2.39601" stroke-width="0.5" stroke="black" fill="black"/>
   </g>
   <g id="cell27">
  <circle cx="1231.25" cy="856.943" r="9.5651" stroke-width="0.5" stroke="black" fill="grey"/>
  <circle cx="1231.25" cy="856.943" r="5.81327" stroke-width="0.5" stroke="grey" fill="grey"/>
   </g>
   <g id="cell28">
  <circle cx="1376.73" cy="196.361" r="3.78562" stroke-width="0.5" stroke="black" fill="grey"/>
  <circle cx="1376.73" cy="196.361" r="2.80027" stroke-width="0.5" stroke="black" fill="black"/>
   </g>
   <g id="cell29">
  <circle cx="1917.95" cy="1333.89" r="8.41271" stroke-width="0.5" stroke="black" fill="grey"/>
  <circle cx="1917.95" cy="1333.89" r="5.05167" stroke-width="0.5" stroke="grey" fill="grey"/>
   </g>
   <g id="cell30">
  <circle cx="1352.84" cy="342.943" r="8.41271" stroke-width="0.5" stroke="black" fill="grey"/>
  <circle cx="1352.84" cy="342.943" r="5.05167" stroke-width="0.5" stroke="grey" fill="grey"/>
   </g>
   <g id="cell31">
  <circle cx="734.244" cy="259" r="9.00806" stroke-width="0.5" stroke="black" fill="grey"/>
  <circle cx="734.244" cy="259" r="5.46807" stroke-width="0.5" stroke="grey" fill="grey"/>
   </g>
   <g id="cell32">
  <circle cx="623.63" cy="1222.91" r="8.41271" stroke-width="0.5" stroke="black" fill="grey"/>
  <circle cx="623.63" cy="1222.91" r="5.05167" stroke-width="0.5" stroke="grey" fill="grey"/>
   </g>
   <g id="cell33">
  <circle cx="643.263" cy="1147.51" r="5.95973" stroke-width="0.5" stroke="black" fill="grey"/>
  <circle cx="643.263" cy="1147.51" r="3.76978" stroke-width="0.5" stroke="black" fill="black"/>
   </g>
   <g id="cell34">
  <circle cx="893.944" cy="1277.41" r="8.68937" stroke-width="0.5" stroke="black" fill="grey"/>
  <circle cx="893.944" cy="1277.41" r="5.25417" stroke-width="0.5" stroke="grey" fill="grey"/>
   </g>
   <g id="cell35">
  <circle cx="1917.06" cy="219.87" r="3.55736" stroke-width="0.5" stroke="black" fill="grey"/>
  <circle cx="1917.06" cy="219.87" r="2.70449" stroke-width="0.5" stroke="black" fill="black"/>
   </g>
   <g id="cell36">
  <circle cx="396.868" cy="1261.9" r="7.00193" stroke-width="0.5" stroke="black" fill="grey"/>
  <circle cx="396.868" cy="1261.9" r="4.27611" stroke-width="0.5" stroke="black" fill="black"/>
   </g>
   <g id="cell37">
  <circle cx="1981.8" cy="1327" r="8.96831" stroke-width="0.5" stroke="black" fill="grey"/>
  <circle cx="1981.8" cy="1327" r="5.44228" stroke-width="0.5" stroke="grey" fill="grey"/>
   </g>
   <g id="cell38">
  <circle cx="500.076" cy="830.182" r="8.41271" stroke-width="0.5" stroke="black" fill="grey"/>
  <circle cx="500.076" cy="830.182" r="5.05167" stroke-width="0.5" stroke="grey" fill="grey"/>
   </g>
   <g id="cell39">
  <circle cx="958.358" cy="493.069" r="8.41271" stroke-width="0.5" stroke="black" fill="grey"/>
  <circle cx="958.358" cy="493.069" r="5.05167" stroke-width="0.5" stroke="grey" fill="grey"/>
   </g>
   <g id="cell40">
  <circle cx="318.479" cy="681.225" r="8.45606" stroke-width="0.5" stroke="black" fill="grey"/>
  <circle cx="318.479" cy="681.225" r="5.08296" stroke-width="0.5" stroke="grey" fill="grey"/>
   </g>
   <g id="cell41">
  <circle cx="1337.35" cy="1316.6" r="9.23685" stroke-width="0.5" stroke="black" fill="grey"/>
  <circle cx="1337.35" cy="1316.6" r="5.61315" stroke-width="0.5" stroke="grey" fill="grey"/>
   </g>
   <g id="cell42">
  <circle cx="285.449" cy="1559.1" r="2.54687" stroke-width="0.5" stroke="black" fill="grey"/>
  <circle cx="285.449" cy="1559.1" r="2.25324" stroke-width="0.5" stroke="black" fill="black"/>
   </g>
   <g id="cell43">
  <circle cx="1879.27" cy="737.237" r="8.41271" stroke-width="0.5" stroke="black" fill="grey"/>
  <circle cx="1879.27" cy="737.237" r="5.05167" stroke-width="0.5" stroke="grey" fill="grey"/>
   </g>
   <g id="cell44">
  <circle cx="1629.65" cy="36.2792" r="8.41271" stroke-width="0.5" stroke="black" fill="grey"/>
  <circle cx="1629.65" cy="36.2792" r="5.05167" stroke-width="0.5" stroke="grey" fill="grey"/>
   </g>
   <g id="cell45">
  <circle cx="1252.39" cy="1671.26" r="8.41271" stroke-width="0.5" stroke="black" fill="grey"/>
  <circle cx="1252.39" cy="1671.26" r="5.05167" stroke-width="0.5" stroke="grey" fill="grey"/>
   </g>
   <g id="cell46">
  <circle cx="173.932" cy="1915.32" r="4.08653" stroke-width="0.5" stroke="black" fill="grey"/>
  <circle cx="173.932" cy="1915.32" r="3.09196" stroke-width="0.5" stroke="black" fill="black"/>
   </g>
   <g id="cell47">
  <circle cx="1762.91" cy="919.536" r="9.12489" stroke-width="0.5" stroke="black" fill="grey"/>
  <circle cx="1762.91" cy="919.536" r="5.54282" stroke-width="0.5" stroke="grey" fill="grey"/>
   </g>
   <g id="cell48">
  <circle cx="1956.03" cy="100.739" r="2.72971" stroke-width="0.5" stroke="black" fill="grey"/>
  <circle cx="1956.03" cy="100.739" r="2.33853" stroke-width="0.5" stroke="black" fill="black"/>
   </g>
   <g id="cell49">
  <circle cx="895.093" cy="1479.51" r="9.5651" stroke-width="0.5" stroke="black" fill="grey"/>
  <circle cx="895.093" cy="1479.51" r="5.81327" stroke-width="0.5" stroke="grey" fill="grey"/>
   </g>
   <g id="cell50">
  <circle cx="76.3333" cy="888.711" r="9.5053" stroke-width="0.5" stroke="black" fill="red"/>
  <circle cx="76.3333" cy="888.711" r="5.77744" stroke-width="0.5" stroke="red" fill="red"/>
   </g>
   <g id="cell51">
  <circle cx="1958.27" cy="238.585" r="9.30826" stroke-width="0.5" stroke="black" fill="red"/>
  <circle cx="1958.27" cy="238.585" r="5.65742" stroke-width="0.5" stroke="red" fill="red"/>
   </g>
   <g id="cell52">
  <circle cx="591.682" cy="978.34" r="9.00806" stroke-width="0.5" stroke="black" fill="red"/>
  <circle cx="591.682" cy="978.34" r="5.46807" stroke-width="0.5" stroke="red" fill="red"/>
   </g>
   <g id="cell53">
  <circle cx="1377.03" cy="644.255" r="8.41271" stroke-width="0.5" stroke="black" fill="red"/>
  <circle cx="1377.03" cy="644.255" r="5.05167" stroke-width="0.5" stroke="red" fill="red"/>
   </g>
   <g id="cell54">
  <circle cx="829.172" cy="1854.46" r="9.00806" stroke-width="0.5" stroke="black" fill="red"/>
  <circle cx="829.172" cy="1854.46" r="5.46807" stroke-width="0.5" stroke="red" fill="red"/>
   </g>
   <g id="cell55">
  <circle cx="438.24" cy="1383.04" r="9.5053" stroke-width="0.5" stroke="black" fill="red"/>
  <circle cx="438.24" cy="1383.04" r="5.77744" stroke-width="0.5" stroke="red" fill="red"/>
   </g>
   <g id="cell56">
  <circle cx="1123.37" cy="1733.3" r="8.41271" stroke-width="0.5" stroke="black" fill="red"/>
  <circle cx="1123.37" cy="1733.3" r="5.05167" stroke-width="0.5" stroke="red" fill="red"/>
   </g>
   <g id="cell57">
  <circle cx="1014.42" cy="1048.03" r="9.44256" stroke-width="0.5" stroke="black" fill="red"/>
  <circle cx="1014.42" cy="1048.03" r="5.73955" stroke-width="0.5" stroke="red" fill="red"/>
   </g>
   <g id="cell58">
  <circle cx="187.881" cy="1842.32" r="2.38423" stroke-width="0.5" stroke="black" fill="red"/>
  <circle cx="187.881" cy="1842.32" r="2.15073" stroke-width="0.5" stroke="black" fill="black"/>
   </g>
   <g id="cell59">
  <circle cx="155.316" cy="1872.91" r="8.41271" stroke-width="0.5" stroke="black" fill="red"/>
  <circle cx="155.316" cy="1872.91" r="5.05167" stroke-width="0.5" stroke="red" fill="red"/>
   </g>
   <g id="cell60">
  <circle cx="655.877" cy="14.612" r="8.41271" stroke-width="0.5" stroke="black" fill="red"/>
  <circle cx="655.877" cy="14.612" r="5.05167" stroke-width="0.5" stroke="red" fill="red"/>
   </g>
   <g id="cell61">
  <circle cx="1684.4" cy="287.696" r="8.41271" stroke-width="0.5" stroke="black" fill="red"/>
  <circle cx="1684.4" cy="287.696" r="5.05167" stroke-width="0.5" stroke="red" fill="red"/>
   </g>
   <g id="cell62">
  <circle cx="1442.42" cy="1685.12" r="8.41271" stroke-width="0.5" stroke="black" fill="red"/>
  <circle cx="1442.42" cy="1685.12" r="5.05167" stroke-width="0.5" stroke="red" fill="red"/>
   </g>
   <g id="cell63">
  <circle cx="535.765" cy="352.196" r="8.57856" stroke-width="0.5" stroke="black" fill="red"/>
  <circle cx="535.765" cy="352.196" r="5.17461" stroke-width="0.5" stroke="red" fill="red"/>
   </g>
   <g id="cell64">
  <circle cx="1158.46" cy="1122.93" r="8.41271" stroke-width="0.5" stroke="black" fill="red"/>
  <circle cx="1158.46" cy="1122.93" r="5.05167" stroke-width="0.5" stroke="red" fill="red"/>
   </g>
   <g id="cell65">
  <circle cx="342.994" cy="1656.02" r="8.72828" stroke-width="0.5" stroke="black" fill="red"/>
  <circle cx="342.994" cy="1656.02" r="5.28134" stroke-width="0.5" stroke="red" fill="red"/>
   </g>
   <g id="cell66">
  <circle cx="25.5408" cy="310.733" r="8.41271" stroke-width="0.5" stroke="black" fill="red"/>
  <circle cx="25.5408" cy="310.733" r="5.05167" stroke-width="0.5" stroke="red" fill="red"/>
   </g>
   <g id="cell67">
  <circle cx="1127.6" cy="554.241" r="8.41271" stroke-width="0.5" stroke="black" fill="red"/>
  <circle cx="1127.6" cy="554.241" r="5.05167" stroke-width="0.5" stroke="red" fill="red"/>
   </g>
   <g id="cell68">
  <circle cx="1451.36" cy="582.328" r="8.9283" stroke-width="0.5" stroke="black" fill="red"/>
  <circle cx="1451.36" cy="582.328" r="5.4161" stroke-width="0.5" stroke="red" fill="red"/>
   </g>
   <g id="cell69">
  <circle cx="845.957" cy="511.771" r="8.41271" stroke-width="0.5" stroke="black" fill="red"/>
  <circle cx="845.957" cy="511.771" r="5.05167" stroke-width="0.5" stroke="red" fill="red"/>
   </g>
   <g id="cell70">
  <circle cx="1151.89" cy="802.218" r="8.41271" stroke-width="0.5" stroke="black" fill="red"/>
  <circle cx="1151.89" cy="802.218" r="5.05167" stroke-width="0.5" stroke="red" fill="red"/>
   </g>
   <g id="cell71">
  <circle cx="1770.85" cy="1120.95" r="8.41271" stroke-width="0.5" stroke="black" fill="red"/>
  <circle cx="1770.85" cy="1120.95" r="5.05167" stroke-width="0.5" stroke="red" fill="red"/>
   </g>
   <g id="cell72">
  <circle cx="436.418" cy="1771.63" r="8.41271" stroke-width="0.5" stroke="black" fill="red"/>
  <circle cx="436.418" cy="1771.63" r="5.05167" stroke-width="0.5" stroke="red" fill="red"/>
   </g>
   <g id="cell73">
  <circle cx="1354.17" cy="882.95" r="8.65127" stroke-width="0.5" stroke="black" fill="red"/>
  <circle cx="1354.17" cy="882.95" r="5.2272" stroke-width="0.5" stroke="red" fill="red"/>
   </g>
   <g id="cell74">
  <circle cx="1704.51" cy="1946.12" r="8.7678" stroke-width="0.5" stroke="black" fill="red"/>
  <circle cx="1704.51" cy="1946.12" r="5.30857" stroke-width="0.5" stroke="red" fill="red"/>
   </g>
   <g id="cell75">
  <circle cx="215.679" cy="595.618" r="9.53557" stroke-width="0.5" stroke="black" fill="red"/>
  <circle cx="215.679" cy="595.618" r="5.79561" stroke-width="0.5" stroke="red" fill="red"/>
   </g>
   <g id="cell76">
  <circle cx="1629.82" cy="832.018" r="8.9283" stroke-width="0.5" stroke="black" fill="red"/>
  <circle cx="1629.82" cy="832.018" r="5.4161" stroke-width="0.5" stroke="red" fill="red"/>
   </g>
   <g id="cell77">
  <circle cx="1348.53" cy="1763.87" r="8.41271" stroke-width="0.5" stroke="black" fill="red"/>
  <circle cx="1348.53" cy="1763.87" r="5.05167" stroke-width="0.5" stroke="red" fill="red"/>
   </g>
   <g id="cell78">
  <circle cx="1161.5" cy="620.736" r="8.41271" stroke-width="0.5" stroke="black" fill="red"/>
  <circle cx="1161.5" cy="620.736" r="5.05167" stroke-width="0.5" stroke="red" fill="red"/>
   </g>
   <g id="cell79">
  <circle cx="1914.83" cy="1379.18" r="8.41271" stroke-width="0.5" stroke="black" fill="red"/>
  <circle cx="1914.83" cy="1379.18" r="5.05167" stroke-width="0.5" stroke="red" fill="red"/>
   </g>
   <g id="cell80">
  <circle cx="1461.56" cy="1318.64" r="8.41271" stroke-width="0.5" stroke="black" fill="red"/>
  <circle cx="1461.56" cy="1318.64" r="5.05167" stroke-width="0.5" stroke="red" fill="red"/>
   </g>
   <g id="cell81">
  <circle cx="1065.13" cy="1931.56" r="8.41271" stroke-width="0.5" stroke="black" fill="red"/>
  <circle cx="1065.13" cy="1931.56" r="5.05167" stroke-width="0.5" stroke="red" fill="red"/>
   </g>
   <g id="cell82">
  <circle cx="1304.66" cy="769.161" r="8.41271" stroke-width="0.5" stroke="black" fill="red"/>
  <circle cx="1304.66" cy="769.161" r="5.05167" stroke-width="0.5" stroke="red" fill="red"/>
   </g>
   <g id="cell83">
  <circle cx="1254.12" cy="1219.12" r="8.41271" stroke-width="0.5" stroke="black" fill="red"/>
  <circle cx="1254.12" cy="1219.12" r="5.05167" stroke-width="0.5" stroke="red" fill="red"/>
   </g>
   <g id="cell84">
  <circle cx="20.4315" cy="965.159" r="8.41271" stroke-width="0.5" stroke="black" fill="red"/>
  <circle cx="20.4315" cy="965.159" r="5.05167" stroke-width="0.5" stroke="red" fill="red"/>
   </g>
   <g id="cell85">
  <circle cx="1428.84" cy="1314.6" r="8.41271" stroke-width="0.5" stroke="black" fill="red"/>
  <circle cx="1428.84" cy="1314.6" r="5.05167" stroke-width="0.5" stroke="red" fill="red"/>
   </g>
   <g id="cell86">
  <circle cx="579.644" cy="766.361" r="8.41271" stroke-width="0.5" stroke="black" fill="red"/>
  <circle cx="579.644" cy="766.361" r="5.05167" stroke-width="0.5" stroke="red" fill="red"/>
   </g>
   <g id="cell87">
  <circle cx="1477.01" cy="862.282" r="9.37686" stroke-width="0.5" stroke="black" fill="red"/>
  <circle cx="1477.01" cy="862.282" r="5.69955" stroke-width="0.5" stroke="red" fill="red"/>
   </g>
   <g id="cell88">
  <circle cx="278.072" cy="188.444" r="8.41271" stroke-width="0.5" stroke="black" fill="red"/>
  <circle cx="278.072" cy="188.444" r="5.05167" stroke-width="0.5" stroke="red" fill="red"/>
   </g>
   <g id="cell89">
  <circle cx="200.335" cy="1147.76" r="8.41271" stroke-width="0.5" stroke="black" fill="red"/>
  <circle cx="200.335" cy="1147.76" r="5.05167" stroke-width="0.5" stroke="red" fill="red"/>
   </g>
   <g id="cell90">
  <circle cx="1192.12" cy="1098.19" r="8.41271" stroke-width="0.5" stroke="black" fill="red"/>
  <circle cx="1192.12" cy="1098.19" r="5.05167" stroke-width="0.5" stroke="red" fill="red"/>
   </g>
   <g id="cell91">
  <circle cx="46.5679" cy="1303.66" r="9.23685" stroke-width="0.5" stroke="black" fill="red"/>
  <circle cx="46.5679" cy="1303.66" r="5.61315" stroke-width="0.5" stroke="red" fill="red"/>
   </g>
   <g id="cell92">
  <circle cx="1302.28" cy="641.245" r="9.37686" stroke-width="0.5" stroke="black" fill="red"/>
  <circle cx="1302.28" cy="641.245" r="5.69955" stroke-width="0.5" stroke="red" fill="red"/>
   </g>
   <g id="cell93">
  <circle cx="432.173" cy="1810.74" r="9.5651" stroke-width="0.5" stroke="black" fill="red"/>
  <circle cx="432.173" cy="1810.74" r="5.81327" stroke-width="0.5" stroke="red" fill="red"/>
   </g>
   <g id="cell94">
  <circle cx="751.54" cy="203.09" r="9.5651" stroke-width="0.5" stroke="black" fill="red"/>
  <circle cx="751.54" cy="203.09" r="5.81327" stroke-width="0.5" stroke="red" fill="red"/>
   </g>
   <g id="cell95">
  <circle cx="1978.13" cy="1800.3" r="8.41271" stroke-width="0.5" stroke="black" fill="red"/>
  <circle cx="1978.13" cy="1800.3" r="5.05167" stroke-width="0.5" stroke="red" fill="red"/>
   </g>
   <g id="cell96">
  <circle cx="1608.16" cy="1080.76" r="9.53557" stroke-width="0.5" stroke="black" fill="red"/>
  <circle cx="1608.16" cy="1080.76" r="5.79561" stroke-width="0.5" stroke="red" fill="red"/>
   </g>
   <g id="cell97">
  <circle cx="875.041" cy="212.889" r="8.41271" stroke-width="0.5" stroke="black" fill="red"/>
  <circle cx="875.041" cy="212.889" r="5.05167" stroke-width="0.5" stroke="red" fill="red"/>
   </g>
   <g id="cell98">
  <circle cx="1824.03" cy="694.046" r="9.4743" stroke-width="0.5" stroke="black" fill="red"/>
  <circle cx="1824.03" cy="694.046" r="5.75875" stroke-width="0.5" stroke="red" fill="red"/>
   </g>
   <g id="cell99">
  <circle cx="927.705" cy="1983.66" r="8.41271" stroke-width="0.5" stroke="black" fill="red"/>
  <circle cx="927.705" cy="1983.66" r="5.05167" stroke-width="0.5" stroke="red" fill="red"/>
   </g>
  </g>
 </g>
  <rect x="1750" y="2070" width="200" height="20" stroke-width="4" stroke="rgb(255,255,255)" fill="rgb(0,0,0)"/>
  <text x="1762.5" y="2057.5"
   font-family="Arial" font-size="50" fill="black" >
   200 &#956;m
  </text>
  <text x="50" y="2090"
   font-family="Arial" font-size="37.5" fill="black" >
   0 days, 0 hours, 0 minutes, and 4.8674 seconds
  </text>
  <rect x="0" y="140" width="2000" height="2000" stroke-width="4" stroke="rgb(0,0,0)" fill="none"/>
</svg>
