<?xml version="1.0" encoding="UTF-8" standalone="no"?>
<!-- Created with PhysiCell (http://PhysiCell.MathCancer.org/) -->
<svg 
 xmlns:dc="http://purl.org/dc/elements/1.1/" 
 xmlns:cc="http://creativecommons.org/ns#" 
 xmlns:rdf="http://www.w3.org/1999/02/22-rdf-syntax-ns#" 
 xmlns:svg="http://www.w3.org/2000/svg" 
 xmlns="http://www.w3.org/2000/svg" 
 version="1.1" 
 width="2000" 
 height="2140" 
 id="svg2">
  <rect x="0" y="0" width="2000" height="2140" stroke-width="4" stroke="white" fill="white"/>
  <text x="25" y="60"
   font-family="Arial" font-size="50" fill="black" >
   Current time: 2 days, 0 hours, and 0.00 minutes, z = 0.00 &#956;m
  </text>
  <text x="25" y="115"
   font-family="Arial" font-size="47.5" fill="black" >
   39 agents
  </text>
 <g id="tissue" 
    transform="translate(0,2140) scale(1,-1)">
  <g id="ECM">
  </g>
  <g id="cells">
   <g id="cell0">
  <circle cx="1122.62" cy="1172.86" r="8.3615" stroke-width="0.5" stroke="black" fill="grey"/>
  <circle cx="1122.62" cy="1172.86" r="5.03221" stroke-width="0.5" stroke="grey" fill="grey"/>
   </g>
   <g id="cell1">
  <circle cx="1699.31" cy="1207.94" r="10.1491" stroke-width="0.5" stroke="black" fill="grey"/>
  <circle cx="1699.31" cy="1207.94" r="6.14758" stroke-width="0.5" stroke="grey" fill="grey"/>
   </g>
   <g id="cell2">
  <circle cx="1163.22" cy="1740.28" r="10.4486" stroke-width="0.5" stroke="black" fill="grey"/>
  <circle cx="1163.22" cy="1740.28" r="6.30105" stroke-width="0.5" stroke="grey" fill="grey"/>
   </g>
   <g id="cell3">
  <circle cx="1283.62" cy="1340.19" r="8.36433" stroke-width="0.5" stroke="black" fill="grey"/>
  <circle cx="1283.62" cy="1340.19" r="5.03341" stroke-width="0.5" stroke="grey" fill="grey"/>
   </g>
   <g id="cell4">
  <circle cx="852.355" cy="568.987" r="10.4041" stroke-width="0.5" stroke="black" fill="grey"/>
  <circle cx="852.355" cy="568.987" r="6.27964" stroke-width="0.5" stroke="grey" fill="grey"/>
   </g>
   <g id="cell5">
  <circle cx="95.2119" cy="1989.92" r="10.4299" stroke-width="0.5" stroke="black" fill="red"/>
  <circle cx="95.2119" cy="1989.92" r="6.2922" stroke-width="0.5" stroke="red" fill="red"/>
   </g>
   <g id="cell6">
  <circle cx="800.881" cy="877.14" r="8.40967" stroke-width="0.5" stroke="black" fill="red"/>
  <circle cx="800.881" cy="877.14" r="5.05083" stroke-width="0.5" stroke="red" fill="red"/>
   </g>
   <g id="cell19">
  <circle cx="1728.24" cy="1290.85" r="8.36411" stroke-width="0.5" stroke="black" fill="grey"/>
  <circle cx="1728.24" cy="1290.85" r="5.03335" stroke-width="0.5" stroke="grey" fill="grey"/>
   </g>
   <g id="cell18">
  <circle cx="1668.05" cy="312.406" r="9.86114" stroke-width="0.5" stroke="black" fill="red"/>
  <circle cx="1668.05" cy="312.406" r="5.98761" stroke-width="0.5" stroke="red" fill="red"/>
   </g>
   <g id="cell9">
  <circle cx="1675.06" cy="189.076" r="10.4475" stroke-width="0.5" stroke="black" fill="red"/>
  <circle cx="1675.06" cy="189.076" r="6.30075" stroke-width="0.5" stroke="red" fill="red"/>
   </g>
   <g id="cell11">
  <circle cx="1571.1" cy="1101.19" r="8.39971" stroke-width="0.5" stroke="black" fill="red"/>
  <circle cx="1571.1" cy="1101.19" r="5.04748" stroke-width="0.5" stroke="red" fill="red"/>
   </g>
   <g id="cell20">
  <circle cx="834.89" cy="981.547" r="8.75883" stroke-width="0.5" stroke="black" fill="red"/>
  <circle cx="834.89" cy="981.547" r="5.3056" stroke-width="0.5" stroke="red" fill="red"/>
   </g>
   <g id="cell13">
  <circle cx="875.51" cy="582.214" r="10.3463" stroke-width="0.5" stroke="black" fill="grey"/>
  <circle cx="875.51" cy="582.214" r="6.25095" stroke-width="0.5" stroke="grey" fill="grey"/>
   </g>
   <g id="cell14">
  <circle cx="1192.87" cy="1298.77" r="10.4035" stroke-width="0.5" stroke="black" fill="grey"/>
  <circle cx="1192.87" cy="1298.77" r="6.27947" stroke-width="0.5" stroke="grey" fill="grey"/>
   </g>
   <g id="cell15">
  <circle cx="1133.92" cy="1140.48" r="10.4092" stroke-width="0.5" stroke="black" fill="grey"/>
  <circle cx="1133.92" cy="1140.48" r="6.28221" stroke-width="0.5" stroke="grey" fill="grey"/>
   </g>
   <g id="cell16">
  <circle cx="1171.03" cy="1702.99" r="10.4634" stroke-width="0.5" stroke="black" fill="grey"/>
  <circle cx="1171.03" cy="1702.99" r="6.3083" stroke-width="0.5" stroke="grey" fill="grey"/>
   </g>
   <g id="cell17">
  <circle cx="1091.94" cy="684.824" r="8.65064" stroke-width="0.5" stroke="black" fill="red"/>
  <circle cx="1091.94" cy="684.824" r="5.22704" stroke-width="0.5" stroke="red" fill="red"/>
   </g>
   <g id="cell21">
  <circle cx="1564.04" cy="1039.02" r="10.4687" stroke-width="0.5" stroke="black" fill="red"/>
  <circle cx="1564.04" cy="1039.02" r="6.31048" stroke-width="0.5" stroke="red" fill="red"/>
   </g>
   <g id="cell22">
  <circle cx="1187.29" cy="1727.45" r="9.96378" stroke-width="0.5" stroke="black" fill="grey"/>
  <circle cx="1187.29" cy="1727.45" r="6.0449" stroke-width="0.5" stroke="grey" fill="grey"/>
   </g>
   <g id="cell23">
  <circle cx="1276.44" cy="1310.51" r="9.34252" stroke-width="0.5" stroke="black" fill="grey"/>
  <circle cx="1276.44" cy="1310.51" r="5.67865" stroke-width="0.5" stroke="grey" fill="grey"/>
   </g>
   <g id="cell24">
  <circle cx="1143.28" cy="1199.94" r="8.37063" stroke-width="0.5" stroke="black" fill="grey"/>
  <circle cx="1143.28" cy="1199.94" r="5.03606" stroke-width="0.5" stroke="grey" fill="grey"/>
   </g>
   <g id="cell25">
  <circle cx="1108.35" cy="715.544" r="8.41205" stroke-width="0.5" stroke="black" fill="red"/>
  <circle cx="1108.35" cy="715.544" r="5.05151" stroke-width="0.5" stroke="red" fill="red"/>
   </g>
   <g id="cell26">
  <circle cx="1676.69" cy="1218.6" r="10.5034" stroke-width="0.5" stroke="black" fill="grey"/>
  <circle cx="1676.69" cy="1218.6" r="6.32643" stroke-width="0.5" stroke="grey" fill="grey"/>
   </g>
   <g id="cell27">
  <circle cx="891.228" cy="581.496" r="8.54355" stroke-width="0.5" stroke="black" fill="grey"/>
  <circle cx="891.228" cy="581.496" r="5.14922" stroke-width="0.5" stroke="grey" fill="grey"/>
   </g>
   <g id="cell28">
  <circle cx="84.7456" cy="1952.38" r="10.2526" stroke-width="0.5" stroke="black" fill="red"/>
  <circle cx="84.7456" cy="1952.38" r="6.20258" stroke-width="0.5" stroke="red" fill="red"/>
   </g>
   <g id="cell29">
  <circle cx="1117.59" cy="1104.03" r="10.5131" stroke-width="0.5" stroke="black" fill="grey"/>
  <circle cx="1117.59" cy="1104.03" r="6.33086" stroke-width="0.5" stroke="grey" fill="grey"/>
   </g>
   <g id="cell30">
  <circle cx="900.138" cy="624.104" r="10.3073" stroke-width="0.5" stroke="black" fill="grey"/>
  <circle cx="900.138" cy="624.104" r="6.23107" stroke-width="0.5" stroke="grey" fill="grey"/>
   </g>
   <g id="cell31">
  <circle cx="1170.73" cy="1297.43" r="10.3735" stroke-width="0.5" stroke="black" fill="grey"/>
  <circle cx="1170.73" cy="1297.43" r="6.26464" stroke-width="0.5" stroke="grey" fill="grey"/>
   </g>
   <g id="cell32">
  <circle cx="1643.72" cy="231.583" r="10.1619" stroke-width="0.5" stroke="black" fill="red"/>
  <circle cx="1643.72" cy="231.583" r="6.1545" stroke-width="0.5" stroke="red" fill="red"/>
   </g>
   <g id="cell33">
  <circle cx="1674.36" cy="1180.08" r="9.59229" stroke-width="0.5" stroke="black" fill="grey"/>
  <circle cx="1674.36" cy="1180.08" r="5.82996" stroke-width="0.5" stroke="grey" fill="grey"/>
   </g>
   <g id="cell34">
  <circle cx="1175.39" cy="1672.24" r="9.88439" stroke-width="0.5" stroke="black" fill="grey"/>
  <circle cx="1175.39" cy="1672.24" r="6.00032" stroke-width="0.5" stroke="grey" fill="grey"/>
   </g>
   <g id="cell35">
  <circle cx="774.373" cy="856.122" r="10.1485" stroke-width="0.5" stroke="black" fill="red"/>
  <circle cx="774.373" cy="856.122" r="6.14739" stroke-width="0.5" stroke="red" fill="red"/>
   </g>
   <g id="cell36">
  <circle cx="1687.46" cy="293.244" r="10.1465" stroke-width="0.5" stroke="black" fill="red"/>
  <circle cx="1687.46" cy="293.244" r="6.14675" stroke-width="0.5" stroke="red" fill="red"/>
   </g>
   <g id="cell37">
  <circle cx="843.193" cy="937.576" r="9.26488" stroke-width="0.5" stroke="black" fill="red"/>
  <circle cx="843.193" cy="937.576" r="5.63285" stroke-width="0.5" stroke="red" fill="red"/>
   </g>
   <g id="cell38">
  <circle cx="1596.52" cy="1060.52" r="8.91676" stroke-width="0.5" stroke="black" fill="red"/>
  <circle cx="1596.52" cy="1060.52" r="5.41215" stroke-width="0.5" stroke="red" fill="red"/>
   </g>
   <g id="cell39">
  <circle cx="1148.21" cy="1214.36" r="8.37063" stroke-width="0.5" stroke="black" fill="grey"/>
  <circle cx="1148.21" cy="1214.36" r="5.03606" stroke-width="0.5" stroke="grey" fill="grey"/>
   </g>
   <g id="cell40">
  <circle cx="1708.22" cy="1282.77" r="8.36411" stroke-width="0.5" stroke="black" fill="grey"/>
  <circle cx="1708.22" cy="1282.77" r="5.03335" stroke-width="0.5" stroke="grey" fill="grey"/>
   </g>
   <g id="cell41">
  <circle cx="1273.46" cy="1353.15" r="8.36433" stroke-width="0.5" stroke="black" fill="grey"/>
  <circle cx="1273.46" cy="1353.15" r="5.03341" stroke-width="0.5" stroke="grey" fill="grey"/>
   </g>
   <g id="cell42">
  <circle cx="1125.14" cy="1154.42" r="8.3615" stroke-width="0.5" stroke="black" fill="grey"/>
  <circle cx="1125.14" cy="1154.42" r="5.03221" stroke-width="0.5" stroke="grey" fill="grey"/>
   </g>
  </g>
 </g>
  <rect x="1750" y="2070" width="200" height="20" stroke-width="4" stroke="rgb(255,255,255)" fill="rgb(0,0,0)"/>
  <text x="1762.5" y="2057.5"
   font-family="Arial" font-size="50" fill="black" >
   200 &#956;m
  </text>
  <text x="50" y="2090"
   font-family="Arial" font-size="37.5" fill="black" >
   0 days, 0 hours, 1 minutes, and 2.4272 seconds
  </text>
  <rect x="0" y="140" width="2000" height="2000" stroke-width="4" stroke="rgb(0,0,0)" fill="none"/>
</svg>
