<?xml version="1.0" encoding="UTF-8" standalone="no"?>
<!-- Created with PhysiCell (http://PhysiCell.MathCancer.org/) -->
<svg 
 xmlns:dc="http://purl.org/dc/elements/1.1/" 
 xmlns:cc="http://creativecommons.org/ns#" 
 xmlns:rdf="http://www.w3.org/1999/02/22-rdf-syntax-ns#" 
 xmlns:svg="http://www.w3.org/2000/svg" 
 xmlns="http://www.w3.org/2000/svg" 
 version="1.1" 
 width="2000" 
 height="2140" 
 id="svg2">
  <rect x="0" y="0" width="2000" height="2140" stroke-width="4" stroke="white" fill="white"/>
  <text x="25" y="60"
   font-family="Arial" font-size="50" fill="black" >
   Current time: 3 days, 23 hours, and 0.00 minutes, z = 0.00 &#956;m
  </text>
  <text x="25" y="115"
   font-family="Arial" font-size="47.5" fill="black" >
   223 agents
  </text>
 <g id="tissue" 
    transform="translate(0,2140) scale(1,-1)">
  <g id="ECM">
  </g>
  <g id="cells">
   <g id="cell0">
  <circle cx="1052.28" cy="1183.09" r="10.4978" stroke-width="0.5" stroke="black" fill="grey"/>
  <circle cx="1052.28" cy="1183.09" r="6.32391" stroke-width="0.5" stroke="grey" fill="grey"/>
   </g>
   <g id="cell1">
  <circle cx="1697.13" cy="1280.31" r="8.40263" stroke-width="0.5" stroke="black" fill="grey"/>
  <circle cx="1697.13" cy="1280.31" r="5.04851" stroke-width="0.5" stroke="grey" fill="grey"/>
   </g>
   <g id="cell2">
  <circle cx="1205.58" cy="1787.4" r="8.40883" stroke-width="0.5" stroke="black" fill="grey"/>
  <circle cx="1205.58" cy="1787.4" r="5.05057" stroke-width="0.5" stroke="grey" fill="grey"/>
   </g>
   <g id="cell3">
  <circle cx="1300.03" cy="1356.02" r="10.3675" stroke-width="0.5" stroke="black" fill="grey"/>
  <circle cx="1300.03" cy="1356.02" r="6.26153" stroke-width="0.5" stroke="grey" fill="grey"/>
   </g>
   <g id="cell4">
  <circle cx="794.951" cy="515.892" r="9.23249" stroke-width="0.5" stroke="black" fill="grey"/>
  <circle cx="794.951" cy="515.892" r="5.61176" stroke-width="0.5" stroke="grey" fill="grey"/>
   </g>
   <g id="cell5">
  <circle cx="50.5458" cy="1907.63" r="8.41083" stroke-width="0.5" stroke="black" fill="red"/>
  <circle cx="50.5458" cy="1907.63" r="5.05117" stroke-width="0.5" stroke="red" fill="red"/>
   </g>
   <g id="cell6">
  <circle cx="860.854" cy="906.737" r="3.57821" stroke-width="0.5" stroke="black" fill="red"/>
  <circle cx="860.854" cy="906.737" r="2.99486" stroke-width="0.5" stroke="black" fill="black"/>
   </g>
   <g id="cell19">
  <circle cx="1705.19" cy="1440.48" r="10.2423" stroke-width="0.5" stroke="black" fill="grey"/>
  <circle cx="1705.19" cy="1440.48" r="6.19723" stroke-width="0.5" stroke="grey" fill="grey"/>
   </g>
   <g id="cell18">
  <circle cx="1601.16" cy="323.21" r="10.5161" stroke-width="0.5" stroke="black" fill="red"/>
  <circle cx="1601.16" cy="323.21" r="6.33207" stroke-width="0.5" stroke="red" fill="red"/>
   </g>
   <g id="cell9">
  <circle cx="1756.55" cy="190.404" r="10.4435" stroke-width="0.5" stroke="black" fill="red"/>
  <circle cx="1756.55" cy="190.404" r="6.29877" stroke-width="0.5" stroke="red" fill="red"/>
   </g>
   <g id="cell11">
  <circle cx="1544.27" cy="1121.43" r="10.4716" stroke-width="0.5" stroke="black" fill="red"/>
  <circle cx="1544.27" cy="1121.43" r="6.31198" stroke-width="0.5" stroke="red" fill="red"/>
   </g>
   <g id="cell20">
  <circle cx="828.07" cy="996.925" r="9.61489" stroke-width="0.5" stroke="black" fill="red"/>
  <circle cx="828.07" cy="996.925" r="5.84476" stroke-width="0.5" stroke="red" fill="red"/>
   </g>
   <g id="cell13">
  <circle cx="829.342" cy="629.973" r="10.461" stroke-width="0.5" stroke="black" fill="grey"/>
  <circle cx="829.342" cy="629.973" r="6.3069" stroke-width="0.5" stroke="grey" fill="grey"/>
   </g>
   <g id="cell14">
  <circle cx="1143.36" cy="1294.23" r="9.87904" stroke-width="0.5" stroke="black" fill="grey"/>
  <circle cx="1143.36" cy="1294.23" r="5.99849" stroke-width="0.5" stroke="grey" fill="grey"/>
   </g>
   <g id="cell15">
  <circle cx="1077.86" cy="1177.55" r="9.90267" stroke-width="0.5" stroke="black" fill="grey"/>
  <circle cx="1077.86" cy="1177.55" r="6.01122" stroke-width="0.5" stroke="grey" fill="grey"/>
   </g>
   <g id="cell16">
  <circle cx="1099.81" cy="1675.81" r="10.5181" stroke-width="0.5" stroke="black" fill="grey"/>
  <circle cx="1099.81" cy="1675.81" r="6.33302" stroke-width="0.5" stroke="grey" fill="grey"/>
   </g>
   <g id="cell90">
  <circle cx="799.345" cy="871.274" r="10.4636" stroke-width="0.5" stroke="black" fill="red"/>
  <circle cx="799.345" cy="871.274" r="6.30834" stroke-width="0.5" stroke="red" fill="red"/>
   </g>
   <g id="cell86">
  <circle cx="1531.57" cy="991.164" r="10.4709" stroke-width="0.5" stroke="black" fill="red"/>
  <circle cx="1531.57" cy="991.164" r="6.31178" stroke-width="0.5" stroke="red" fill="red"/>
   </g>
   <g id="cell22">
  <circle cx="1088.87" cy="1743.21" r="8.40755" stroke-width="0.5" stroke="black" fill="grey"/>
  <circle cx="1088.87" cy="1743.21" r="5.05017" stroke-width="0.5" stroke="grey" fill="grey"/>
   </g>
   <g id="cell23">
  <circle cx="1203.84" cy="1305.44" r="9.3302" stroke-width="0.5" stroke="black" fill="grey"/>
  <circle cx="1203.84" cy="1305.44" r="5.67428" stroke-width="0.5" stroke="grey" fill="grey"/>
   </g>
   <g id="cell24">
  <circle cx="1156.81" cy="1260.38" r="10.2195" stroke-width="0.5" stroke="black" fill="grey"/>
  <circle cx="1156.81" cy="1260.38" r="6.18554" stroke-width="0.5" stroke="grey" fill="grey"/>
   </g>
   <g id="cell25">
  <circle cx="1165.62" cy="705.083" r="10.1089" stroke-width="0.5" stroke="black" fill="red"/>
  <circle cx="1165.62" cy="705.083" r="6.1256" stroke-width="0.5" stroke="red" fill="red"/>
   </g>
   <g id="cell26">
  <circle cx="1712.49" cy="1196.43" r="10.2716" stroke-width="0.5" stroke="black" fill="grey"/>
  <circle cx="1712.49" cy="1196.43" r="6.21262" stroke-width="0.5" stroke="grey" fill="grey"/>
   </g>
   <g id="cell27">
  <circle cx="915.546" cy="556.175" r="8.38665" stroke-width="0.5" stroke="black" fill="grey"/>
  <circle cx="915.546" cy="556.175" r="5.04254" stroke-width="0.5" stroke="grey" fill="grey"/>
   </g>
   <g id="cell28">
  <circle cx="44.8683" cy="1985.76" r="8.88586" stroke-width="0.5" stroke="black" fill="red"/>
  <circle cx="44.8683" cy="1985.76" r="5.38892" stroke-width="0.5" stroke="red" fill="red"/>
   </g>
   <g id="cell29">
  <circle cx="1120.89" cy="1073.37" r="10.4825" stroke-width="0.5" stroke="black" fill="grey"/>
  <circle cx="1120.89" cy="1073.37" r="6.31692" stroke-width="0.5" stroke="grey" fill="grey"/>
   </g>
   <g id="cell30">
  <circle cx="944.319" cy="494.071" r="10.5248" stroke-width="0.5" stroke="black" fill="grey"/>
  <circle cx="944.319" cy="494.071" r="6.33592" stroke-width="0.5" stroke="grey" fill="grey"/>
   </g>
   <g id="cell31">
  <circle cx="1169.68" cy="1368.68" r="9.29354" stroke-width="0.5" stroke="black" fill="grey"/>
  <circle cx="1169.68" cy="1368.68" r="5.65217" stroke-width="0.5" stroke="grey" fill="grey"/>
   </g>
   <g id="cell109">
  <circle cx="801.016" cy="975.923" r="10.2604" stroke-width="0.5" stroke="black" fill="red"/>
  <circle cx="801.016" cy="975.923" r="6.20712" stroke-width="0.5" stroke="red" fill="red"/>
   </g>
   <g id="cell33">
  <circle cx="1659.93" cy="1186.72" r="10.092" stroke-width="0.5" stroke="black" fill="grey"/>
  <circle cx="1659.93" cy="1186.72" r="6.11692" stroke-width="0.5" stroke="grey" fill="grey"/>
   </g>
   <g id="cell34">
  <circle cx="1060.73" cy="1632.29" r="10.2724" stroke-width="0.5" stroke="black" fill="grey"/>
  <circle cx="1060.73" cy="1632.29" r="6.21284" stroke-width="0.5" stroke="grey" fill="grey"/>
   </g>
   <g id="cell35">
  <circle cx="752.404" cy="959.916" r="8.69973" stroke-width="0.5" stroke="black" fill="red"/>
  <circle cx="752.404" cy="959.916" r="5.27077" stroke-width="0.5" stroke="red" fill="red"/>
   </g>
   <g id="cell36">
  <circle cx="1762.26" cy="268.548" r="9.87999" stroke-width="0.5" stroke="black" fill="red"/>
  <circle cx="1762.26" cy="268.548" r="5.99883" stroke-width="0.5" stroke="red" fill="red"/>
   </g>
   <g id="cell37">
  <circle cx="819.334" cy="930.693" r="10.3517" stroke-width="0.5" stroke="black" fill="red"/>
  <circle cx="819.334" cy="930.693" r="6.25404" stroke-width="0.5" stroke="red" fill="red"/>
   </g>
   <g id="cell38">
  <circle cx="1608.6" cy="1080.59" r="8.36668" stroke-width="0.5" stroke="black" fill="red"/>
  <circle cx="1608.6" cy="1080.59" r="5.03445" stroke-width="0.5" stroke="red" fill="red"/>
   </g>
   <g id="cell39">
  <circle cx="1120" cy="1220.68" r="10.3049" stroke-width="0.5" stroke="black" fill="grey"/>
  <circle cx="1120" cy="1220.68" r="6.23031" stroke-width="0.5" stroke="grey" fill="grey"/>
   </g>
   <g id="cell40">
  <circle cx="1759.53" cy="1274.91" r="10.5108" stroke-width="0.5" stroke="black" fill="grey"/>
  <circle cx="1759.53" cy="1274.91" r="6.32981" stroke-width="0.5" stroke="grey" fill="grey"/>
   </g>
   <g id="cell41">
  <circle cx="1188.88" cy="1493.15" r="8.38817" stroke-width="0.5" stroke="black" fill="grey"/>
  <circle cx="1188.88" cy="1493.15" r="5.04312" stroke-width="0.5" stroke="grey" fill="grey"/>
   </g>
   <g id="cell42">
  <circle cx="1105.8" cy="1107.7" r="10.415" stroke-width="0.5" stroke="black" fill="grey"/>
  <circle cx="1105.8" cy="1107.7" r="6.28496" stroke-width="0.5" stroke="grey" fill="grey"/>
   </g>
   <g id="cell43">
  <circle cx="1032.73" cy="1108.34" r="2.39407" stroke-width="0.5" stroke="black" fill="grey"/>
  <circle cx="1032.73" cy="1108.34" r="2.27047" stroke-width="0.5" stroke="black" fill="black"/>
   </g>
   <g id="cell44">
  <circle cx="1674.33" cy="1168.54" r="9.15873" stroke-width="0.5" stroke="black" fill="grey"/>
  <circle cx="1674.33" cy="1168.54" r="5.56548" stroke-width="0.5" stroke="grey" fill="grey"/>
   </g>
   <g id="cell45">
  <circle cx="1523.67" cy="1054.6" r="9.90378" stroke-width="0.5" stroke="black" fill="red"/>
  <circle cx="1523.67" cy="1054.6" r="6.01159" stroke-width="0.5" stroke="red" fill="red"/>
   </g>
   <g id="cell101">
  <circle cx="1693.02" cy="215.181" r="8.39568" stroke-width="0.5" stroke="black" fill="red"/>
  <circle cx="1693.02" cy="215.181" r="5.04598" stroke-width="0.5" stroke="red" fill="red"/>
   </g>
   <g id="cell47">
  <circle cx="1649.86" cy="139.662" r="10.2084" stroke-width="0.5" stroke="black" fill="red"/>
  <circle cx="1649.86" cy="139.662" r="6.17964" stroke-width="0.5" stroke="red" fill="red"/>
   </g>
   <g id="cell48">
  <circle cx="1158.18" cy="1791.71" r="10.298" stroke-width="0.5" stroke="black" fill="grey"/>
  <circle cx="1158.18" cy="1791.71" r="6.22645" stroke-width="0.5" stroke="grey" fill="grey"/>
   </g>
   <g id="cell49">
  <circle cx="100.131" cy="1982.71" r="10.3302" stroke-width="0.5" stroke="black" fill="red"/>
  <circle cx="100.131" cy="1982.71" r="6.24304" stroke-width="0.5" stroke="red" fill="red"/>
   </g>
   <g id="cell50">
  <circle cx="1124.43" cy="1124.99" r="9.64684" stroke-width="0.5" stroke="black" fill="grey"/>
  <circle cx="1124.43" cy="1124.99" r="5.86253" stroke-width="0.5" stroke="grey" fill="grey"/>
   </g>
   <g id="cell51">
  <circle cx="1120.51" cy="1252.72" r="10.533" stroke-width="0.5" stroke="black" fill="grey"/>
  <circle cx="1120.51" cy="1252.72" r="6.3394" stroke-width="0.5" stroke="grey" fill="grey"/>
   </g>
   <g id="cell52">
  <circle cx="877.961" cy="617.967" r="10.3921" stroke-width="0.5" stroke="black" fill="grey"/>
  <circle cx="877.961" cy="617.967" r="6.27384" stroke-width="0.5" stroke="grey" fill="grey"/>
   </g>
   <g id="cell87">
  <circle cx="927.31" cy="635.838" r="8.36545" stroke-width="0.5" stroke="black" fill="grey"/>
  <circle cx="927.31" cy="635.838" r="5.03392" stroke-width="0.5" stroke="grey" fill="grey"/>
   </g>
   <g id="cell54">
  <circle cx="932.917" cy="516.585" r="3.50601" stroke-width="0.5" stroke="black" fill="grey"/>
  <circle cx="932.917" cy="516.585" r="2.93848" stroke-width="0.5" stroke="black" fill="black"/>
   </g>
   <g id="cell55">
  <circle cx="899.062" cy="557.607" r="8.3728" stroke-width="0.5" stroke="black" fill="grey"/>
  <circle cx="899.062" cy="557.607" r="5.03698" stroke-width="0.5" stroke="grey" fill="grey"/>
   </g>
   <g id="cell56">
  <circle cx="152.621" cy="1856.25" r="8.99745" stroke-width="0.5" stroke="black" fill="red"/>
  <circle cx="152.621" cy="1856.25" r="5.46443" stroke-width="0.5" stroke="red" fill="red"/>
   </g>
   <g id="cell57">
  <circle cx="1697.26" cy="291.696" r="10.3515" stroke-width="0.5" stroke="black" fill="red"/>
  <circle cx="1697.26" cy="291.696" r="6.25396" stroke-width="0.5" stroke="red" fill="red"/>
   </g>
   <g id="cell205">
  <circle cx="1193.64" cy="1280.55" r="9.2629" stroke-width="0.5" stroke="black" fill="grey"/>
  <circle cx="1193.64" cy="1280.55" r="5.63211" stroke-width="0.5" stroke="grey" fill="grey"/>
   </g>
   <g id="cell59">
  <circle cx="1729.96" cy="275.606" r="8.4057" stroke-width="0.5" stroke="black" fill="red"/>
  <circle cx="1729.96" cy="275.606" r="5.04956" stroke-width="0.5" stroke="red" fill="red"/>
   </g>
   <g id="cell60">
  <circle cx="1726.12" cy="1212" r="10.1951" stroke-width="0.5" stroke="black" fill="grey"/>
  <circle cx="1726.12" cy="1212" r="6.17295" stroke-width="0.5" stroke="grey" fill="grey"/>
   </g>
   <g id="cell61">
  <circle cx="1134.6" cy="1767.07" r="8.39692" stroke-width="0.5" stroke="black" fill="grey"/>
  <circle cx="1134.6" cy="1767.07" r="5.04646" stroke-width="0.5" stroke="grey" fill="grey"/>
   </g>
   <g id="cell62">
  <circle cx="1236.65" cy="1655.28" r="10.5116" stroke-width="0.5" stroke="black" fill="grey"/>
  <circle cx="1236.65" cy="1655.28" r="6.33001" stroke-width="0.5" stroke="grey" fill="grey"/>
   </g>
   <g id="cell63">
  <circle cx="1626.97" cy="345.768" r="10.4973" stroke-width="0.5" stroke="black" fill="red"/>
  <circle cx="1626.97" cy="345.768" r="6.32379" stroke-width="0.5" stroke="red" fill="red"/>
   </g>
   <g id="cell64">
  <circle cx="1699.68" cy="1129.73" r="10.4606" stroke-width="0.5" stroke="black" fill="grey"/>
  <circle cx="1699.68" cy="1129.73" r="6.30677" stroke-width="0.5" stroke="grey" fill="grey"/>
   </g>
   <g id="cell115">
  <circle cx="849.248" cy="581.452" r="9.66777" stroke-width="0.5" stroke="black" fill="grey"/>
  <circle cx="849.248" cy="581.452" r="5.87624" stroke-width="0.5" stroke="grey" fill="grey"/>
   </g>
   <g id="cell202">
  <circle cx="1116.51" cy="1302.42" r="8.4027" stroke-width="0.5" stroke="black" fill="grey"/>
  <circle cx="1116.51" cy="1302.42" r="5.04852" stroke-width="0.5" stroke="grey" fill="grey"/>
   </g>
   <g id="cell67">
  <circle cx="1564.24" cy="1091.08" r="8.36586" stroke-width="0.5" stroke="black" fill="red"/>
  <circle cx="1564.24" cy="1091.08" r="5.03402" stroke-width="0.5" stroke="red" fill="red"/>
   </g>
   <g id="cell68">
  <circle cx="828.088" cy="1054.86" r="10.4147" stroke-width="0.5" stroke="black" fill="red"/>
  <circle cx="828.088" cy="1054.86" r="6.28488" stroke-width="0.5" stroke="red" fill="red"/>
   </g>
   <g id="cell69">
  <circle cx="808.847" cy="530.819" r="10.4893" stroke-width="0.5" stroke="black" fill="grey"/>
  <circle cx="808.847" cy="530.819" r="6.31996" stroke-width="0.5" stroke="grey" fill="grey"/>
   </g>
   <g id="cell70">
  <circle cx="1638.22" cy="1228.36" r="9.07332" stroke-width="0.5" stroke="black" fill="grey"/>
  <circle cx="1638.22" cy="1228.36" r="5.51378" stroke-width="0.5" stroke="grey" fill="grey"/>
   </g>
   <g id="cell71">
  <circle cx="1031.14" cy="1096.83" r="8.38873" stroke-width="0.5" stroke="black" fill="grey"/>
  <circle cx="1031.14" cy="1096.83" r="5.04336" stroke-width="0.5" stroke="grey" fill="grey"/>
   </g>
   <g id="cell72">
  <circle cx="1196.52" cy="773.164" r="10.4981" stroke-width="0.5" stroke="black" fill="red"/>
  <circle cx="1196.52" cy="773.164" r="6.32401" stroke-width="0.5" stroke="red" fill="red"/>
   </g>
   <g id="cell73">
  <circle cx="1212.95" cy="1204.13" r="2.53622" stroke-width="0.5" stroke="black" fill="grey"/>
  <circle cx="1212.95" cy="1204.13" r="2.4008" stroke-width="0.5" stroke="black" fill="black"/>
   </g>
   <g id="cell74">
  <circle cx="1084.26" cy="1088.93" r="10.5206" stroke-width="0.5" stroke="black" fill="grey"/>
  <circle cx="1084.26" cy="1088.93" r="6.33406" stroke-width="0.5" stroke="grey" fill="grey"/>
   </g>
   <g id="cell75">
  <circle cx="1727.6" cy="1136.2" r="8.38008" stroke-width="0.5" stroke="black" fill="grey"/>
  <circle cx="1727.6" cy="1136.2" r="5.03993" stroke-width="0.5" stroke="grey" fill="grey"/>
   </g>
   <g id="cell76">
  <circle cx="1629.02" cy="207.94" r="10.1873" stroke-width="0.5" stroke="black" fill="red"/>
  <circle cx="1629.02" cy="207.94" r="6.16791" stroke-width="0.5" stroke="red" fill="red"/>
   </g>
   <g id="cell77">
  <circle cx="27.6351" cy="1932.51" r="8.36564" stroke-width="0.5" stroke="black" fill="red"/>
  <circle cx="27.6351" cy="1932.51" r="5.03397" stroke-width="0.5" stroke="red" fill="red"/>
   </g>
   <g id="cell128">
  <circle cx="1738.52" cy="1182.06" r="8.65964" stroke-width="0.5" stroke="black" fill="grey"/>
  <circle cx="1738.52" cy="1182.06" r="5.24319" stroke-width="0.5" stroke="grey" fill="grey"/>
   </g>
   <g id="cell79">
  <circle cx="1209.52" cy="1280.33" r="8.42041" stroke-width="0.5" stroke="black" fill="grey"/>
  <circle cx="1209.52" cy="1280.33" r="5.06164" stroke-width="0.5" stroke="grey" fill="grey"/>
   </g>
   <g id="cell80">
  <circle cx="821.082" cy="480.093" r="9.15757" stroke-width="0.5" stroke="black" fill="grey"/>
  <circle cx="821.082" cy="480.093" r="5.56508" stroke-width="0.5" stroke="grey" fill="grey"/>
   </g>
   <g id="cell81">
  <circle cx="1231.68" cy="1267.36" r="10.2709" stroke-width="0.5" stroke="black" fill="grey"/>
  <circle cx="1231.68" cy="1267.36" r="6.21243" stroke-width="0.5" stroke="grey" fill="grey"/>
   </g>
   <g id="cell82">
  <circle cx="1690.59" cy="1153.03" r="10.5223" stroke-width="0.5" stroke="black" fill="red"/>
  <circle cx="1690.59" cy="1153.03" r="6.33489" stroke-width="0.5" stroke="red" fill="red"/>
   </g>
   <g id="cell83">
  <circle cx="958.897" cy="623.396" r="9.37317" stroke-width="0.5" stroke="black" fill="grey"/>
  <circle cx="958.897" cy="623.396" r="5.69839" stroke-width="0.5" stroke="grey" fill="grey"/>
   </g>
   <g id="cell84">
  <circle cx="1168.67" cy="1623.18" r="8.41604" stroke-width="0.5" stroke="black" fill="grey"/>
  <circle cx="1168.67" cy="1623.18" r="5.06005" stroke-width="0.5" stroke="grey" fill="grey"/>
   </g>
   <g id="cell85">
  <circle cx="1170.8" cy="1678.93" r="8.36801" stroke-width="0.5" stroke="black" fill="grey"/>
  <circle cx="1170.8" cy="1678.93" r="5.035" stroke-width="0.5" stroke="grey" fill="grey"/>
   </g>
   <g id="cell88">
  <circle cx="1661.82" cy="1206.55" r="10.4894" stroke-width="0.5" stroke="black" fill="grey"/>
  <circle cx="1661.82" cy="1206.55" r="6.31998" stroke-width="0.5" stroke="grey" fill="grey"/>
   </g>
   <g id="cell89">
  <circle cx="1773.6" cy="297.725" r="9.45799" stroke-width="0.5" stroke="black" fill="red"/>
  <circle cx="1773.6" cy="297.725" r="5.75288" stroke-width="0.5" stroke="red" fill="red"/>
   </g>
   <g id="cell91">
  <circle cx="1206.76" cy="1264.67" r="9.15438" stroke-width="0.5" stroke="black" fill="grey"/>
  <circle cx="1206.76" cy="1264.67" r="5.56393" stroke-width="0.5" stroke="grey" fill="grey"/>
   </g>
   <g id="cell92">
  <circle cx="1693.12" cy="1320.88" r="9.89805" stroke-width="0.5" stroke="black" fill="grey"/>
  <circle cx="1693.12" cy="1320.88" r="6.00959" stroke-width="0.5" stroke="grey" fill="grey"/>
   </g>
   <g id="cell93">
  <circle cx="823.815" cy="603.298" r="9.46264" stroke-width="0.5" stroke="black" fill="grey"/>
  <circle cx="823.815" cy="603.298" r="5.75469" stroke-width="0.5" stroke="grey" fill="grey"/>
   </g>
   <g id="cell94">
  <circle cx="870.475" cy="546.933" r="10.2596" stroke-width="0.5" stroke="black" fill="grey"/>
  <circle cx="870.475" cy="546.933" r="6.20686" stroke-width="0.5" stroke="grey" fill="grey"/>
   </g>
   <g id="cell95">
  <circle cx="1155.06" cy="1754.73" r="9.72532" stroke-width="0.5" stroke="black" fill="grey"/>
  <circle cx="1155.06" cy="1754.73" r="5.90848" stroke-width="0.5" stroke="grey" fill="grey"/>
   </g>
   <g id="cell96">
  <circle cx="1661.86" cy="283.851" r="9.7258" stroke-width="0.5" stroke="black" fill="red"/>
  <circle cx="1661.86" cy="283.851" r="5.90863" stroke-width="0.5" stroke="red" fill="red"/>
   </g>
   <g id="cell97">
  <circle cx="1173.09" cy="1317.01" r="9.47014" stroke-width="0.5" stroke="black" fill="grey"/>
  <circle cx="1173.09" cy="1317.01" r="5.75744" stroke-width="0.5" stroke="grey" fill="grey"/>
   </g>
   <g id="cell98">
  <circle cx="111.875" cy="1889.69" r="10.2689" stroke-width="0.5" stroke="black" fill="red"/>
  <circle cx="111.875" cy="1889.69" r="6.21175" stroke-width="0.5" stroke="red" fill="red"/>
   </g>
   <g id="cell99">
  <circle cx="1740.59" cy="142.936" r="8.78659" stroke-width="0.5" stroke="black" fill="red"/>
  <circle cx="1740.59" cy="142.936" r="5.3281" stroke-width="0.5" stroke="red" fill="red"/>
   </g>
   <g id="cell100">
  <circle cx="81.8575" cy="1959.49" r="9.96207" stroke-width="0.5" stroke="black" fill="red"/>
  <circle cx="81.8575" cy="1959.49" r="6.04439" stroke-width="0.5" stroke="red" fill="red"/>
   </g>
   <g id="cell102">
  <circle cx="1746.89" cy="1167.66" r="10.2728" stroke-width="0.5" stroke="black" fill="grey"/>
  <circle cx="1746.89" cy="1167.66" r="6.21294" stroke-width="0.5" stroke="grey" fill="grey"/>
   </g>
   <g id="cell103">
  <circle cx="117.291" cy="1967.46" r="8.40966" stroke-width="0.5" stroke="black" fill="red"/>
  <circle cx="117.291" cy="1967.46" r="5.05083" stroke-width="0.5" stroke="red" fill="red"/>
   </g>
   <g id="cell104">
  <circle cx="779.805" cy="879.192" r="9.55396" stroke-width="0.5" stroke="black" fill="red"/>
  <circle cx="779.805" cy="879.192" r="5.80941" stroke-width="0.5" stroke="red" fill="red"/>
   </g>
   <g id="cell105">
  <circle cx="1685.47" cy="1134.63" r="4.87928" stroke-width="0.5" stroke="black" fill="grey"/>
  <circle cx="1685.47" cy="1134.63" r="3.53479" stroke-width="0.5" stroke="black" fill="black"/>
   </g>
   <g id="cell106">
  <circle cx="1157.73" cy="1167.25" r="10.381" stroke-width="0.5" stroke="black" fill="grey"/>
  <circle cx="1157.73" cy="1167.25" r="6.26813" stroke-width="0.5" stroke="grey" fill="grey"/>
   </g>
   <g id="cell107">
  <circle cx="1158.71" cy="1145.38" r="9.2206" stroke-width="0.5" stroke="black" fill="grey"/>
  <circle cx="1158.71" cy="1145.38" r="5.6073" stroke-width="0.5" stroke="grey" fill="grey"/>
   </g>
   <g id="cell108">
  <circle cx="1148.63" cy="1721.42" r="8.40295" stroke-width="0.5" stroke="black" fill="grey"/>
  <circle cx="1148.63" cy="1721.42" r="5.04862" stroke-width="0.5" stroke="grey" fill="grey"/>
   </g>
   <g id="cell110">
  <circle cx="1588.99" cy="1019.58" r="8.52657" stroke-width="0.5" stroke="black" fill="red"/>
  <circle cx="1588.99" cy="1019.58" r="5.14332" stroke-width="0.5" stroke="red" fill="red"/>
   </g>
   <g id="cell111">
  <circle cx="1230.59" cy="1334.38" r="9.79328" stroke-width="0.5" stroke="black" fill="grey"/>
  <circle cx="1230.59" cy="1334.38" r="5.94894" stroke-width="0.5" stroke="grey" fill="grey"/>
   </g>
   <g id="cell112">
  <circle cx="1263.63" cy="1283.63" r="9.92216" stroke-width="0.5" stroke="black" fill="grey"/>
  <circle cx="1263.63" cy="1283.63" r="6.02234" stroke-width="0.5" stroke="grey" fill="grey"/>
   </g>
   <g id="cell113">
  <circle cx="1265.49" cy="1448.11" r="8.803" stroke-width="0.5" stroke="black" fill="grey"/>
  <circle cx="1265.49" cy="1448.11" r="5.33427" stroke-width="0.5" stroke="grey" fill="grey"/>
   </g>
   <g id="cell114">
  <circle cx="1690.38" cy="374.093" r="9.61601" stroke-width="0.5" stroke="black" fill="red"/>
  <circle cx="1690.38" cy="374.093" r="5.84516" stroke-width="0.5" stroke="red" fill="red"/>
   </g>
   <g id="cell116">
  <circle cx="1692.71" cy="1206.99" r="8.40264" stroke-width="0.5" stroke="black" fill="grey"/>
  <circle cx="1692.71" cy="1206.99" r="5.04851" stroke-width="0.5" stroke="grey" fill="grey"/>
   </g>
   <g id="cell117">
  <circle cx="1681.5" cy="1273.6" r="10.5253" stroke-width="0.5" stroke="black" fill="grey"/>
  <circle cx="1681.5" cy="1273.6" r="6.33604" stroke-width="0.5" stroke="grey" fill="grey"/>
   </g>
   <g id="cell118">
  <circle cx="700.321" cy="959.32" r="8.37421" stroke-width="0.5" stroke="black" fill="red"/>
  <circle cx="700.321" cy="959.32" r="5.03752" stroke-width="0.5" stroke="red" fill="red"/>
   </g>
   <g id="cell119">
  <circle cx="1044.42" cy="1123.62" r="10.5313" stroke-width="0.5" stroke="black" fill="grey"/>
  <circle cx="1044.42" cy="1123.62" r="6.33864" stroke-width="0.5" stroke="grey" fill="grey"/>
   </g>
   <g id="cell120">
  <circle cx="759.464" cy="1054.35" r="8.37419" stroke-width="0.5" stroke="black" fill="red"/>
  <circle cx="759.464" cy="1054.35" r="5.03751" stroke-width="0.5" stroke="red" fill="red"/>
   </g>
   <g id="cell121">
  <circle cx="1169.34" cy="1578.96" r="10.2726" stroke-width="0.5" stroke="black" fill="grey"/>
  <circle cx="1169.34" cy="1578.96" r="6.21291" stroke-width="0.5" stroke="grey" fill="grey"/>
   </g>
   <g id="cell122">
  <circle cx="1187.81" cy="1169.97" r="10.5273" stroke-width="0.5" stroke="black" fill="grey"/>
  <circle cx="1187.81" cy="1169.97" r="6.33692" stroke-width="0.5" stroke="grey" fill="grey"/>
   </g>
   <g id="cell123">
  <circle cx="840.422" cy="607.83" r="10.5037" stroke-width="0.5" stroke="black" fill="grey"/>
  <circle cx="840.422" cy="607.83" r="6.32653" stroke-width="0.5" stroke="grey" fill="grey"/>
   </g>
   <g id="cell124">
  <circle cx="1102.22" cy="1819.35" r="8.39353" stroke-width="0.5" stroke="black" fill="grey"/>
  <circle cx="1102.22" cy="1819.35" r="5.04519" stroke-width="0.5" stroke="grey" fill="grey"/>
   </g>
   <g id="cell125">
  <circle cx="981.368" cy="496.594" r="8.39934" stroke-width="0.5" stroke="black" fill="grey"/>
  <circle cx="981.368" cy="496.594" r="5.04734" stroke-width="0.5" stroke="grey" fill="grey"/>
   </g>
   <g id="cell126">
  <circle cx="1051.75" cy="1096.25" r="10.5064" stroke-width="0.5" stroke="black" fill="grey"/>
  <circle cx="1051.75" cy="1096.25" r="6.32772" stroke-width="0.5" stroke="grey" fill="grey"/>
   </g>
   <g id="cell127">
  <circle cx="1154.46" cy="736.116" r="10.3322" stroke-width="0.5" stroke="black" fill="red"/>
  <circle cx="1154.46" cy="736.116" r="6.24363" stroke-width="0.5" stroke="red" fill="red"/>
   </g>
   <g id="cell206">
  <circle cx="172.396" cy="1870.59" r="8.40054" stroke-width="0.5" stroke="black" fill="red"/>
  <circle cx="172.396" cy="1870.59" r="5.04776" stroke-width="0.5" stroke="red" fill="red"/>
   </g>
   <g id="cell130">
  <circle cx="59.5586" cy="1921.39" r="8.38654" stroke-width="0.5" stroke="black" fill="red"/>
  <circle cx="59.5586" cy="1921.39" r="5.04251" stroke-width="0.5" stroke="red" fill="red"/>
   </g>
   <g id="cell131">
  <circle cx="1101.32" cy="1649.6" r="10.1629" stroke-width="0.5" stroke="black" fill="grey"/>
  <circle cx="1101.32" cy="1649.6" r="6.15478" stroke-width="0.5" stroke="grey" fill="grey"/>
   </g>
   <g id="cell132">
  <circle cx="1086.52" cy="970.275" r="8.38418" stroke-width="0.5" stroke="black" fill="grey"/>
  <circle cx="1086.52" cy="970.275" r="5.04159" stroke-width="0.5" stroke="grey" fill="grey"/>
   </g>
   <g id="cell133">
  <circle cx="1640.41" cy="276.003" r="10.4857" stroke-width="0.5" stroke="black" fill="red"/>
  <circle cx="1640.41" cy="276.003" r="6.31841" stroke-width="0.5" stroke="red" fill="red"/>
   </g>
   <g id="cell134">
  <circle cx="867.298" cy="565.714" r="9.62138" stroke-width="0.5" stroke="black" fill="grey"/>
  <circle cx="867.298" cy="565.714" r="5.84694" stroke-width="0.5" stroke="grey" fill="grey"/>
   </g>
   <g id="cell135">
  <circle cx="1140.8" cy="1084.73" r="9.30759" stroke-width="0.5" stroke="black" fill="grey"/>
  <circle cx="1140.8" cy="1084.73" r="5.65723" stroke-width="0.5" stroke="grey" fill="grey"/>
   </g>
   <g id="cell136">
  <circle cx="1120.48" cy="1141.78" r="10.3078" stroke-width="0.5" stroke="black" fill="grey"/>
  <circle cx="1120.48" cy="1141.78" r="6.23123" stroke-width="0.5" stroke="grey" fill="grey"/>
   </g>
   <g id="cell137">
  <circle cx="643.534" cy="856.078" r="10.4349" stroke-width="0.5" stroke="black" fill="red"/>
  <circle cx="643.534" cy="856.078" r="6.29456" stroke-width="0.5" stroke="red" fill="red"/>
   </g>
   <g id="cell138">
  <circle cx="1614.55" cy="271.59" r="10.3985" stroke-width="0.5" stroke="black" fill="red"/>
  <circle cx="1614.55" cy="271.59" r="6.27688" stroke-width="0.5" stroke="red" fill="red"/>
   </g>
   <g id="cell139">
  <circle cx="972.688" cy="662.339" r="10.3741" stroke-width="0.5" stroke="black" fill="grey"/>
  <circle cx="972.688" cy="662.339" r="6.26483" stroke-width="0.5" stroke="grey" fill="grey"/>
   </g>
   <g id="cell140">
  <circle cx="937.599" cy="531.724" r="10.3805" stroke-width="0.5" stroke="black" fill="grey"/>
  <circle cx="937.599" cy="531.724" r="6.26799" stroke-width="0.5" stroke="grey" fill="grey"/>
   </g>
   <g id="cell141">
  <circle cx="1078.36" cy="1207.07" r="10.5227" stroke-width="0.5" stroke="black" fill="grey"/>
  <circle cx="1078.36" cy="1207.07" r="6.33499" stroke-width="0.5" stroke="grey" fill="grey"/>
   </g>
   <g id="cell142">
  <circle cx="1205.92" cy="1690.49" r="8.41176" stroke-width="0.5" stroke="black" fill="grey"/>
  <circle cx="1205.92" cy="1690.49" r="5.05144" stroke-width="0.5" stroke="grey" fill="grey"/>
   </g>
   <g id="cell143">
  <circle cx="1728.99" cy="1157.88" r="10.1498" stroke-width="0.5" stroke="black" fill="grey"/>
  <circle cx="1728.99" cy="1157.88" r="6.1478" stroke-width="0.5" stroke="grey" fill="grey"/>
   </g>
   <g id="cell144">
  <circle cx="1597.39" cy="994.172" r="9.47345" stroke-width="0.5" stroke="black" fill="red"/>
  <circle cx="1597.39" cy="994.172" r="5.75852" stroke-width="0.5" stroke="red" fill="red"/>
   </g>
   <g id="cell145">
  <circle cx="1277.37" cy="1327.84" r="8.72727" stroke-width="0.5" stroke="black" fill="grey"/>
  <circle cx="1277.37" cy="1327.84" r="5.28106" stroke-width="0.5" stroke="grey" fill="grey"/>
   </g>
   <g id="cell146">
  <circle cx="1091.76" cy="1723.82" r="8.61315" stroke-width="0.5" stroke="black" fill="grey"/>
  <circle cx="1091.76" cy="1723.82" r="5.20032" stroke-width="0.5" stroke="grey" fill="grey"/>
   </g>
   <g id="cell147">
  <circle cx="810.352" cy="1067.62" r="8.92713" stroke-width="0.5" stroke="black" fill="red"/>
  <circle cx="810.352" cy="1067.62" r="5.41577" stroke-width="0.5" stroke="red" fill="red"/>
   </g>
   <g id="cell148">
  <circle cx="1216.09" cy="723.702" r="10.518" stroke-width="0.5" stroke="black" fill="red"/>
  <circle cx="1216.09" cy="723.702" r="6.33299" stroke-width="0.5" stroke="red" fill="red"/>
   </g>
   <g id="cell149">
  <circle cx="1700.9" cy="1336.32" r="10.4437" stroke-width="0.5" stroke="black" fill="grey"/>
  <circle cx="1700.9" cy="1336.32" r="6.29882" stroke-width="0.5" stroke="grey" fill="grey"/>
   </g>
   <g id="cell150">
  <circle cx="1747.68" cy="1298.07" r="10.503" stroke-width="0.5" stroke="black" fill="grey"/>
  <circle cx="1747.68" cy="1298.07" r="6.32634" stroke-width="0.5" stroke="grey" fill="grey"/>
   </g>
   <g id="cell151">
  <circle cx="1633.2" cy="1149.72" r="10.5156" stroke-width="0.5" stroke="black" fill="red"/>
  <circle cx="1633.2" cy="1149.72" r="6.33193" stroke-width="0.5" stroke="red" fill="red"/>
   </g>
   <g id="cell152">
  <circle cx="1538.56" cy="1064.59" r="10.5156" stroke-width="0.5" stroke="black" fill="red"/>
  <circle cx="1538.56" cy="1064.59" r="6.33193" stroke-width="0.5" stroke="red" fill="red"/>
   </g>
   <g id="cell153">
  <circle cx="1695.29" cy="129.019" r="10.2099" stroke-width="0.5" stroke="black" fill="red"/>
  <circle cx="1695.29" cy="129.019" r="6.18012" stroke-width="0.5" stroke="red" fill="red"/>
   </g>
   <g id="cell154">
  <circle cx="1677.74" cy="387.648" r="9.04602" stroke-width="0.5" stroke="black" fill="red"/>
  <circle cx="1677.74" cy="387.648" r="5.49303" stroke-width="0.5" stroke="red" fill="red"/>
   </g>
   <g id="cell155">
  <circle cx="881.83" cy="643.103" r="8.41087" stroke-width="0.5" stroke="black" fill="grey"/>
  <circle cx="881.83" cy="643.103" r="5.05119" stroke-width="0.5" stroke="grey" fill="grey"/>
   </g>
   <g id="cell156">
  <circle cx="1728.02" cy="1244.52" r="10.1086" stroke-width="0.5" stroke="black" fill="grey"/>
  <circle cx="1728.02" cy="1244.52" r="6.1255" stroke-width="0.5" stroke="grey" fill="grey"/>
   </g>
   <g id="cell157">
  <circle cx="117.231" cy="1941.39" r="10.5027" stroke-width="0.5" stroke="black" fill="red"/>
  <circle cx="117.231" cy="1941.39" r="6.32625" stroke-width="0.5" stroke="red" fill="red"/>
   </g>
   <g id="cell158">
  <circle cx="1639.55" cy="248.449" r="9.50373" stroke-width="0.5" stroke="black" fill="red"/>
  <circle cx="1639.55" cy="248.449" r="5.77698" stroke-width="0.5" stroke="red" fill="red"/>
   </g>
   <g id="cell159">
  <circle cx="823.908" cy="873.031" r="10.2983" stroke-width="0.5" stroke="black" fill="red"/>
  <circle cx="823.908" cy="873.031" r="6.22654" stroke-width="0.5" stroke="red" fill="red"/>
   </g>
   <g id="cell160">
  <circle cx="55.7283" cy="1948.54" r="9.04528" stroke-width="0.5" stroke="black" fill="red"/>
  <circle cx="55.7283" cy="1948.54" r="5.4928" stroke-width="0.5" stroke="red" fill="red"/>
   </g>
   <g id="cell161">
  <circle cx="899.173" cy="518.361" r="10.122" stroke-width="0.5" stroke="black" fill="grey"/>
  <circle cx="899.173" cy="518.361" r="6.13296" stroke-width="0.5" stroke="grey" fill="grey"/>
   </g>
   <g id="cell162">
  <circle cx="1512.21" cy="1032.21" r="10.429" stroke-width="0.5" stroke="black" fill="red"/>
  <circle cx="1512.21" cy="1032.21" r="6.29195" stroke-width="0.5" stroke="red" fill="red"/>
   </g>
   <g id="cell163">
  <circle cx="1186.59" cy="1784.68" r="10.419" stroke-width="0.5" stroke="black" fill="grey"/>
  <circle cx="1186.59" cy="1784.68" r="6.28714" stroke-width="0.5" stroke="grey" fill="grey"/>
   </g>
   <g id="cell164">
  <circle cx="1209.79" cy="1230.17" r="10.4138" stroke-width="0.5" stroke="black" fill="grey"/>
  <circle cx="1209.79" cy="1230.17" r="6.28459" stroke-width="0.5" stroke="grey" fill="grey"/>
   </g>
   <g id="cell165">
  <circle cx="29.6398" cy="1975.06" r="10.3526" stroke-width="0.5" stroke="black" fill="red"/>
  <circle cx="29.6398" cy="1975.06" r="6.25432" stroke-width="0.5" stroke="red" fill="red"/>
   </g>
   <g id="cell166">
  <circle cx="1193.92" cy="1804.25" r="9.90451" stroke-width="0.5" stroke="black" fill="grey"/>
  <circle cx="1193.92" cy="1804.25" r="6.01183" stroke-width="0.5" stroke="grey" fill="grey"/>
   </g>
   <g id="cell167">
  <circle cx="150.002" cy="1962.89" r="8.40966" stroke-width="0.5" stroke="black" fill="red"/>
  <circle cx="150.002" cy="1962.89" r="5.05083" stroke-width="0.5" stroke="red" fill="red"/>
   </g>
   <g id="cell168">
  <circle cx="874.311" cy="885.151" r="8.40951" stroke-width="0.5" stroke="black" fill="red"/>
  <circle cx="874.311" cy="885.151" r="5.05078" stroke-width="0.5" stroke="red" fill="red"/>
   </g>
   <g id="cell169">
  <circle cx="1096.09" cy="1201.07" r="10.1856" stroke-width="0.5" stroke="black" fill="grey"/>
  <circle cx="1096.09" cy="1201.07" r="6.16742" stroke-width="0.5" stroke="grey" fill="grey"/>
   </g>
   <g id="cell170">
  <circle cx="97.8256" cy="1964.98" r="10.261" stroke-width="0.5" stroke="black" fill="red"/>
  <circle cx="97.8256" cy="1964.98" r="6.20731" stroke-width="0.5" stroke="red" fill="red"/>
   </g>
   <g id="cell171">
  <circle cx="1163.94" cy="1290.23" r="10.2703" stroke-width="0.5" stroke="black" fill="grey"/>
  <circle cx="1163.94" cy="1290.23" r="6.21222" stroke-width="0.5" stroke="grey" fill="grey"/>
   </g>
   <g id="cell172">
  <circle cx="1203.01" cy="1751.18" r="8.40883" stroke-width="0.5" stroke="black" fill="grey"/>
  <circle cx="1203.01" cy="1751.18" r="5.05057" stroke-width="0.5" stroke="grey" fill="grey"/>
   </g>
   <g id="cell173">
  <circle cx="1491.25" cy="1076.11" r="8.92485" stroke-width="0.5" stroke="black" fill="red"/>
  <circle cx="1491.25" cy="1076.11" r="5.41504" stroke-width="0.5" stroke="red" fill="red"/>
   </g>
   <g id="cell174">
  <circle cx="1637.31" cy="154.209" r="10.3965" stroke-width="0.5" stroke="black" fill="red"/>
  <circle cx="1637.31" cy="154.209" r="6.2763" stroke-width="0.5" stroke="red" fill="red"/>
   </g>
   <g id="cell175">
  <circle cx="1649.45" cy="1165.29" r="8.40869" stroke-width="0.5" stroke="black" fill="grey"/>
  <circle cx="1649.45" cy="1165.29" r="5.05053" stroke-width="0.5" stroke="grey" fill="grey"/>
   </g>
   <g id="cell176">
  <circle cx="823.096" cy="963.13" r="8.40845" stroke-width="0.5" stroke="black" fill="red"/>
  <circle cx="823.096" cy="963.13" r="5.05046" stroke-width="0.5" stroke="red" fill="red"/>
   </g>
   <g id="cell177">
  <circle cx="793.635" cy="890.891" r="10.3517" stroke-width="0.5" stroke="black" fill="red"/>
  <circle cx="793.635" cy="890.891" r="6.25404" stroke-width="0.5" stroke="red" fill="red"/>
   </g>
   <g id="cell178">
  <circle cx="905.507" cy="602.95" r="10.3053" stroke-width="0.5" stroke="black" fill="grey"/>
  <circle cx="905.507" cy="602.95" r="6.23047" stroke-width="0.5" stroke="grey" fill="grey"/>
   </g>
   <g id="cell179">
  <circle cx="1671.53" cy="264.898" r="10.0137" stroke-width="0.5" stroke="black" fill="red"/>
  <circle cx="1671.53" cy="264.898" r="6.0736" stroke-width="0.5" stroke="red" fill="red"/>
   </g>
   <g id="cell180">
  <circle cx="1704.54" cy="1165.82" r="8.40786" stroke-width="0.5" stroke="black" fill="grey"/>
  <circle cx="1704.54" cy="1165.82" r="5.05026" stroke-width="0.5" stroke="grey" fill="grey"/>
   </g>
   <g id="cell181">
  <circle cx="1680.9" cy="1220.09" r="8.4077" stroke-width="0.5" stroke="black" fill="grey"/>
  <circle cx="1680.9" cy="1220.09" r="5.05021" stroke-width="0.5" stroke="grey" fill="grey"/>
   </g>
   <g id="cell182">
  <circle cx="1217.43" cy="1477.01" r="10.0919" stroke-width="0.5" stroke="black" fill="grey"/>
  <circle cx="1217.43" cy="1477.01" r="6.11689" stroke-width="0.5" stroke="grey" fill="grey"/>
   </g>
   <g id="cell183">
  <circle cx="1119.29" cy="1734.22" r="2.56854" stroke-width="0.5" stroke="black" fill="grey"/>
  <circle cx="1119.29" cy="1734.22" r="2.25498" stroke-width="0.5" stroke="black" fill="black"/>
   </g>
   <g id="cell184">
  <circle cx="1134.36" cy="1195.53" r="10.0918" stroke-width="0.5" stroke="black" fill="grey"/>
  <circle cx="1134.36" cy="1195.53" r="6.11686" stroke-width="0.5" stroke="grey" fill="grey"/>
   </g>
   <g id="cell185">
  <circle cx="1205.15" cy="1334.54" r="10.2876" stroke-width="0.5" stroke="black" fill="grey"/>
  <circle cx="1205.15" cy="1334.54" r="6.2214" stroke-width="0.5" stroke="grey" fill="grey"/>
   </g>
   <g id="cell186">
  <circle cx="790.325" cy="535.183" r="9.08191" stroke-width="0.5" stroke="black" fill="grey"/>
  <circle cx="790.325" cy="535.183" r="5.51693" stroke-width="0.5" stroke="grey" fill="grey"/>
   </g>
   <g id="cell187">
  <circle cx="1133.74" cy="1228.72" r="9.79521" stroke-width="0.5" stroke="black" fill="grey"/>
  <circle cx="1133.74" cy="1228.72" r="5.94961" stroke-width="0.5" stroke="grey" fill="grey"/>
   </g>
   <g id="cell188">
  <circle cx="862.603" cy="483.857" r="9.90267" stroke-width="0.5" stroke="black" fill="grey"/>
  <circle cx="862.603" cy="483.857" r="6.01122" stroke-width="0.5" stroke="grey" fill="grey"/>
   </g>
   <g id="cell189">
  <circle cx="1297.05" cy="1256.51" r="10.1058" stroke-width="0.5" stroke="black" fill="grey"/>
  <circle cx="1297.05" cy="1256.51" r="6.12462" stroke-width="0.5" stroke="grey" fill="grey"/>
   </g>
   <g id="cell190">
  <circle cx="181.699" cy="1937.67" r="8.40681" stroke-width="0.5" stroke="black" fill="red"/>
  <circle cx="181.699" cy="1937.67" r="5.04992" stroke-width="0.5" stroke="red" fill="red"/>
   </g>
   <g id="cell191">
  <circle cx="790.455" cy="433.614" r="10.1954" stroke-width="0.5" stroke="black" fill="grey"/>
  <circle cx="790.455" cy="433.614" r="6.17304" stroke-width="0.5" stroke="grey" fill="grey"/>
   </g>
   <g id="cell192">
  <circle cx="1753.34" cy="1187.67" r="10.0289" stroke-width="0.5" stroke="black" fill="grey"/>
  <circle cx="1753.34" cy="1187.67" r="6.08237" stroke-width="0.5" stroke="grey" fill="grey"/>
   </g>
   <g id="cell193">
  <circle cx="1751.47" cy="326.474" r="8.4057" stroke-width="0.5" stroke="black" fill="red"/>
  <circle cx="1751.47" cy="326.474" r="5.04956" stroke-width="0.5" stroke="red" fill="red"/>
   </g>
   <g id="cell194">
  <circle cx="1721.52" cy="380.921" r="10.0114" stroke-width="0.5" stroke="black" fill="red"/>
  <circle cx="1721.52" cy="380.921" r="6.07282" stroke-width="0.5" stroke="red" fill="red"/>
   </g>
   <g id="cell195">
  <circle cx="1194.61" cy="1353.44" r="8.40467" stroke-width="0.5" stroke="black" fill="grey"/>
  <circle cx="1194.61" cy="1353.44" r="5.04921" stroke-width="0.5" stroke="grey" fill="grey"/>
   </g>
   <g id="cell196">
  <circle cx="1731.19" cy="254.351" r="8.50403" stroke-width="0.5" stroke="black" fill="red"/>
  <circle cx="1731.19" cy="254.351" r="5.12286" stroke-width="0.5" stroke="red" fill="red"/>
   </g>
   <g id="cell197">
  <circle cx="775.912" cy="1027.25" r="8.53553" stroke-width="0.5" stroke="black" fill="red"/>
  <circle cx="775.912" cy="1027.25" r="5.14662" stroke-width="0.5" stroke="red" fill="red"/>
   </g>
   <g id="cell198">
  <circle cx="1159.56" cy="1695.42" r="9.9385" stroke-width="0.5" stroke="black" fill="grey"/>
  <circle cx="1159.56" cy="1695.42" r="6.0322" stroke-width="0.5" stroke="grey" fill="grey"/>
   </g>
   <g id="cell199">
  <circle cx="1697.63" cy="1223.92" r="9.66842" stroke-width="0.5" stroke="black" fill="grey"/>
  <circle cx="1697.63" cy="1223.92" r="5.87648" stroke-width="0.5" stroke="grey" fill="grey"/>
   </g>
   <g id="cell200">
  <circle cx="1700.17" cy="1249.31" r="9.43456" stroke-width="0.5" stroke="black" fill="grey"/>
  <circle cx="1700.17" cy="1249.31" r="5.73686" stroke-width="0.5" stroke="grey" fill="grey"/>
   </g>
   <g id="cell201">
  <circle cx="1165.38" cy="1243.93" r="9.89937" stroke-width="0.5" stroke="black" fill="grey"/>
  <circle cx="1165.38" cy="1243.93" r="6.01006" stroke-width="0.5" stroke="grey" fill="grey"/>
   </g>
   <g id="cell203">
  <circle cx="889.749" cy="581.405" r="8.42162" stroke-width="0.5" stroke="black" fill="grey"/>
  <circle cx="889.749" cy="581.405" r="5.06208" stroke-width="0.5" stroke="grey" fill="grey"/>
   </g>
   <g id="cell204">
  <circle cx="1693.48" cy="1366.76" r="8.75691" stroke-width="0.5" stroke="black" fill="grey"/>
  <circle cx="1693.48" cy="1366.76" r="5.3049" stroke-width="0.5" stroke="grey" fill="grey"/>
   </g>
   <g id="cell207">
  <circle cx="957.073" cy="510.841" r="8.39934" stroke-width="0.5" stroke="black" fill="grey"/>
  <circle cx="957.073" cy="510.841" r="5.04734" stroke-width="0.5" stroke="grey" fill="grey"/>
   </g>
   <g id="cell208">
  <circle cx="780.404" cy="860.876" r="9.33124" stroke-width="0.5" stroke="black" fill="red"/>
  <circle cx="780.404" cy="860.876" r="5.67468" stroke-width="0.5" stroke="red" fill="red"/>
   </g>
   <g id="cell209">
  <circle cx="826.036" cy="576.841" r="8.39792" stroke-width="0.5" stroke="black" fill="grey"/>
  <circle cx="826.036" cy="576.841" r="5.04681" stroke-width="0.5" stroke="grey" fill="grey"/>
   </g>
   <g id="cell210">
  <circle cx="1668.14" cy="1239.04" r="9.07332" stroke-width="0.5" stroke="black" fill="grey"/>
  <circle cx="1668.14" cy="1239.04" r="5.51378" stroke-width="0.5" stroke="grey" fill="grey"/>
   </g>
   <g id="cell211">
  <circle cx="1118.58" cy="1785.04" r="8.99429" stroke-width="0.5" stroke="black" fill="grey"/>
  <circle cx="1118.58" cy="1785.04" r="5.46325" stroke-width="0.5" stroke="grey" fill="grey"/>
   </g>
   <g id="cell212">
  <circle cx="1220.01" cy="1296.97" r="8.39702" stroke-width="0.5" stroke="black" fill="grey"/>
  <circle cx="1220.01" cy="1296.97" r="5.04649" stroke-width="0.5" stroke="grey" fill="grey"/>
   </g>
   <g id="cell213">
  <circle cx="1203.26" cy="1605.21" r="8.39617" stroke-width="0.5" stroke="black" fill="grey"/>
  <circle cx="1203.26" cy="1605.21" r="5.04616" stroke-width="0.5" stroke="grey" fill="grey"/>
   </g>
   <g id="cell214">
  <circle cx="1733.36" cy="237.525" r="8.91318" stroke-width="0.5" stroke="black" fill="red"/>
  <circle cx="1733.36" cy="237.525" r="5.41076" stroke-width="0.5" stroke="red" fill="red"/>
   </g>
   <g id="cell215">
  <circle cx="1177.96" cy="1355.23" r="8.39468" stroke-width="0.5" stroke="black" fill="grey"/>
  <circle cx="1177.96" cy="1355.23" r="5.04561" stroke-width="0.5" stroke="grey" fill="grey"/>
   </g>
   <g id="cell216">
  <circle cx="1543.63" cy="1027.46" r="8.39417" stroke-width="0.5" stroke="black" fill="red"/>
  <circle cx="1543.63" cy="1027.46" r="5.04542" stroke-width="0.5" stroke="red" fill="red"/>
   </g>
   <g id="cell217">
  <circle cx="1133.03" cy="1815.84" r="8.39353" stroke-width="0.5" stroke="black" fill="grey"/>
  <circle cx="1133.03" cy="1815.84" r="5.04519" stroke-width="0.5" stroke="grey" fill="grey"/>
   </g>
   <g id="cell218">
  <circle cx="1150.79" cy="1133.3" r="8.39311" stroke-width="0.5" stroke="black" fill="grey"/>
  <circle cx="1150.79" cy="1133.3" r="5.04502" stroke-width="0.5" stroke="grey" fill="grey"/>
   </g>
   <g id="cell219">
  <circle cx="1777.5" cy="278.323" r="8.39201" stroke-width="0.5" stroke="black" fill="red"/>
  <circle cx="1777.5" cy="278.323" r="5.04459" stroke-width="0.5" stroke="red" fill="red"/>
   </g>
   <g id="cell220">
  <circle cx="1713.09" cy="124.325" r="8.38954" stroke-width="0.5" stroke="black" fill="red"/>
  <circle cx="1713.09" cy="124.325" r="5.04365" stroke-width="0.5" stroke="red" fill="red"/>
   </g>
   <g id="cell221">
  <circle cx="1008.94" cy="1071.47" r="9.25318" stroke-width="0.5" stroke="black" fill="grey"/>
  <circle cx="1008.94" cy="1071.47" r="5.62832" stroke-width="0.5" stroke="grey" fill="grey"/>
   </g>
   <g id="cell222">
  <circle cx="1209.87" cy="1496.85" r="9.21651" stroke-width="0.5" stroke="black" fill="grey"/>
  <circle cx="1209.87" cy="1496.85" r="5.60566" stroke-width="0.5" stroke="grey" fill="grey"/>
   </g>
   <g id="cell223">
  <circle cx="26.4518" cy="1912.32" r="8.38654" stroke-width="0.5" stroke="black" fill="red"/>
  <circle cx="26.4518" cy="1912.32" r="5.04251" stroke-width="0.5" stroke="red" fill="red"/>
   </g>
   <g id="cell224">
  <circle cx="911.019" cy="570.132" r="8.38665" stroke-width="0.5" stroke="black" fill="grey"/>
  <circle cx="911.019" cy="570.132" r="5.04254" stroke-width="0.5" stroke="grey" fill="grey"/>
   </g>
   <g id="cell225">
  <circle cx="1060.2" cy="1013.7" r="8.38418" stroke-width="0.5" stroke="black" fill="grey"/>
  <circle cx="1060.2" cy="1013.7" r="5.04159" stroke-width="0.5" stroke="grey" fill="grey"/>
   </g>
   <g id="cell226">
  <circle cx="729.804" cy="973.411" r="8.38196" stroke-width="0.5" stroke="black" fill="red"/>
  <circle cx="729.804" cy="973.411" r="5.04067" stroke-width="0.5" stroke="red" fill="red"/>
   </g>
   <g id="cell227">
  <circle cx="1717.33" cy="1173.35" r="8.38098" stroke-width="0.5" stroke="black" fill="grey"/>
  <circle cx="1717.33" cy="1173.35" r="5.04029" stroke-width="0.5" stroke="grey" fill="grey"/>
   </g>
   <g id="cell228">
  <circle cx="1752.41" cy="1145.5" r="8.8184" stroke-width="0.5" stroke="black" fill="grey"/>
  <circle cx="1752.41" cy="1145.5" r="5.35172" stroke-width="0.5" stroke="grey" fill="grey"/>
   </g>
   <g id="cell229">
  <circle cx="712.001" cy="980.89" r="8.37421" stroke-width="0.5" stroke="black" fill="red"/>
  <circle cx="712.001" cy="980.89" r="5.03752" stroke-width="0.5" stroke="red" fill="red"/>
   </g>
   <g id="cell230">
  <circle cx="779.801" cy="1060.53" r="8.37419" stroke-width="0.5" stroke="black" fill="red"/>
  <circle cx="779.801" cy="1060.53" r="5.03751" stroke-width="0.5" stroke="red" fill="red"/>
   </g>
   <g id="cell231">
  <circle cx="888.165" cy="549.305" r="8.3728" stroke-width="0.5" stroke="black" fill="grey"/>
  <circle cx="888.165" cy="549.305" r="5.03698" stroke-width="0.5" stroke="grey" fill="grey"/>
   </g>
   <g id="cell232">
  <circle cx="1150.39" cy="1676.24" r="8.36801" stroke-width="0.5" stroke="black" fill="grey"/>
  <circle cx="1150.39" cy="1676.24" r="5.035" stroke-width="0.5" stroke="grey" fill="grey"/>
   </g>
   <g id="cell233">
  <circle cx="1602.6" cy="1069.13" r="8.36668" stroke-width="0.5" stroke="black" fill="red"/>
  <circle cx="1602.6" cy="1069.13" r="5.03445" stroke-width="0.5" stroke="red" fill="red"/>
   </g>
   <g id="cell234">
  <circle cx="915.134" cy="630.39" r="8.36545" stroke-width="0.5" stroke="black" fill="grey"/>
  <circle cx="915.134" cy="630.39" r="5.03392" stroke-width="0.5" stroke="grey" fill="grey"/>
   </g>
   <g id="cell235">
  <circle cx="1547.64" cy="1098.1" r="8.36586" stroke-width="0.5" stroke="black" fill="red"/>
  <circle cx="1547.64" cy="1098.1" r="5.03402" stroke-width="0.5" stroke="red" fill="red"/>
   </g>
   <g id="cell236">
  <circle cx="43.4897" cy="1939.24" r="8.36564" stroke-width="0.5" stroke="black" fill="red"/>
  <circle cx="43.4897" cy="1939.24" r="5.03397" stroke-width="0.5" stroke="red" fill="red"/>
   </g>
  </g>
 </g>
  <rect x="1750" y="2070" width="200" height="20" stroke-width="4" stroke="rgb(255,255,255)" fill="rgb(0,0,0)"/>
  <text x="1762.5" y="2057.5"
   font-family="Arial" font-size="50" fill="black" >
   200 &#956;m
  </text>
  <text x="50" y="2090"
   font-family="Arial" font-size="37.5" fill="black" >
   0 days, 0 hours, 2 minutes, and 6.3293 seconds
  </text>
  <rect x="0" y="140" width="2000" height="2000" stroke-width="4" stroke="rgb(0,0,0)" fill="none"/>
</svg>
