<?xml version="1.0" encoding="UTF-8" standalone="no"?>
<!-- Created with PhysiCell (http://PhysiCell.MathCancer.org/) -->
<svg 
 xmlns:dc="http://purl.org/dc/elements/1.1/" 
 xmlns:cc="http://creativecommons.org/ns#" 
 xmlns:rdf="http://www.w3.org/1999/02/22-rdf-syntax-ns#" 
 xmlns:svg="http://www.w3.org/2000/svg" 
 xmlns="http://www.w3.org/2000/svg" 
 version="1.1" 
 width="2000" 
 height="2140" 
 id="svg2">
  <rect x="0" y="0" width="2000" height="2140" stroke-width="4" stroke="white" fill="white"/>
  <text x="25" y="60"
   font-family="Arial" font-size="50" fill="black" >
   Current time: 3 days, 13 hours, and 0.00 minutes, z = 0.00 &#956;m
  </text>
  <text x="25" y="115"
   font-family="Arial" font-size="47.5" fill="black" >
   157 agents
  </text>
 <g id="tissue" 
    transform="translate(0,2140) scale(1,-1)">
  <g id="ECM">
  </g>
  <g id="cells">
   <g id="cell0">
  <circle cx="1078.3" cy="1183.07" r="8.87441" stroke-width="0.5" stroke="black" fill="grey"/>
  <circle cx="1078.3" cy="1183.07" r="5.38481" stroke-width="0.5" stroke="grey" fill="grey"/>
   </g>
   <g id="cell1">
  <circle cx="1687.18" cy="1247.4" r="10.3854" stroke-width="0.5" stroke="black" fill="grey"/>
  <circle cx="1687.18" cy="1247.4" r="6.27068" stroke-width="0.5" stroke="grey" fill="grey"/>
   </g>
   <g id="cell2">
  <circle cx="1221.14" cy="1760.09" r="10.5187" stroke-width="0.5" stroke="black" fill="grey"/>
  <circle cx="1221.14" cy="1760.09" r="6.33316" stroke-width="0.5" stroke="grey" fill="grey"/>
   </g>
   <g id="cell3">
  <circle cx="1268.09" cy="1345.86" r="8.3951" stroke-width="0.5" stroke="black" fill="grey"/>
  <circle cx="1268.09" cy="1345.86" r="5.04578" stroke-width="0.5" stroke="grey" fill="grey"/>
   </g>
   <g id="cell4">
  <circle cx="805.776" cy="527.136" r="10.4893" stroke-width="0.5" stroke="black" fill="grey"/>
  <circle cx="805.776" cy="527.136" r="6.31995" stroke-width="0.5" stroke="grey" fill="grey"/>
   </g>
   <g id="cell5">
  <circle cx="71.0947" cy="1935.45" r="8.38195" stroke-width="0.5" stroke="black" fill="red"/>
  <circle cx="71.0947" cy="1935.45" r="5.04067" stroke-width="0.5" stroke="red" fill="red"/>
   </g>
   <g id="cell6">
  <circle cx="874.584" cy="908.612" r="10.533" stroke-width="0.5" stroke="black" fill="red"/>
  <circle cx="874.584" cy="908.612" r="6.33941" stroke-width="0.5" stroke="red" fill="red"/>
   </g>
   <g id="cell19">
  <circle cx="1694.8" cy="1395.77" r="8.39058" stroke-width="0.5" stroke="black" fill="grey"/>
  <circle cx="1694.8" cy="1395.77" r="5.04408" stroke-width="0.5" stroke="grey" fill="grey"/>
   </g>
   <g id="cell18">
  <circle cx="1619.37" cy="282.852" r="9.15257" stroke-width="0.5" stroke="black" fill="red"/>
  <circle cx="1619.37" cy="282.852" r="5.56325" stroke-width="0.5" stroke="red" fill="red"/>
   </g>
   <g id="cell9">
  <circle cx="1737.1" cy="150.12" r="8.38674" stroke-width="0.5" stroke="black" fill="red"/>
  <circle cx="1737.1" cy="150.12" r="5.04256" stroke-width="0.5" stroke="red" fill="red"/>
   </g>
   <g id="cell11">
  <circle cx="1543.6" cy="1129.79" r="8.5549" stroke-width="0.5" stroke="black" fill="red"/>
  <circle cx="1543.6" cy="1129.79" r="5.16623" stroke-width="0.5" stroke="red" fill="red"/>
   </g>
   <g id="cell20">
  <circle cx="785.186" cy="1016.15" r="10.4023" stroke-width="0.5" stroke="black" fill="red"/>
  <circle cx="785.186" cy="1016.15" r="6.27912" stroke-width="0.5" stroke="red" fill="red"/>
   </g>
   <g id="cell13">
  <circle cx="861.196" cy="634.895" r="8.47786" stroke-width="0.5" stroke="black" fill="grey"/>
  <circle cx="861.196" cy="634.895" r="5.10169" stroke-width="0.5" stroke="grey" fill="grey"/>
   </g>
   <g id="cell14">
  <circle cx="1141.75" cy="1308.46" r="10.3868" stroke-width="0.5" stroke="black" fill="grey"/>
  <circle cx="1141.75" cy="1308.46" r="6.27109" stroke-width="0.5" stroke="grey" fill="grey"/>
   </g>
   <g id="cell15">
  <circle cx="1139.98" cy="1210.41" r="10.4859" stroke-width="0.5" stroke="black" fill="grey"/>
  <circle cx="1139.98" cy="1210.41" r="6.31845" stroke-width="0.5" stroke="grey" fill="grey"/>
   </g>
   <g id="cell16">
  <circle cx="1108.28" cy="1672.27" r="9.18457" stroke-width="0.5" stroke="black" fill="grey"/>
  <circle cx="1108.28" cy="1672.27" r="5.58465" stroke-width="0.5" stroke="grey" fill="grey"/>
   </g>
   <g id="cell90">
  <circle cx="840.694" cy="838.198" r="8.47372" stroke-width="0.5" stroke="black" fill="red"/>
  <circle cx="840.694" cy="838.198" r="5.11113" stroke-width="0.5" stroke="red" fill="red"/>
   </g>
   <g id="cell86">
  <circle cx="1552.91" cy="1016.39" r="8.53819" stroke-width="0.5" stroke="black" fill="red"/>
  <circle cx="1552.91" cy="1016.39" r="5.15941" stroke-width="0.5" stroke="red" fill="red"/>
   </g>
   <g id="cell22">
  <circle cx="1083.61" cy="1731.9" r="10.4915" stroke-width="0.5" stroke="black" fill="grey"/>
  <circle cx="1083.61" cy="1731.9" r="6.32113" stroke-width="0.5" stroke="grey" fill="grey"/>
   </g>
   <g id="cell23">
  <circle cx="1220.03" cy="1328.34" r="10.2619" stroke-width="0.5" stroke="black" fill="grey"/>
  <circle cx="1220.03" cy="1328.34" r="6.20759" stroke-width="0.5" stroke="grey" fill="grey"/>
   </g>
   <g id="cell24">
  <circle cx="1179.33" cy="1269.28" r="10.521" stroke-width="0.5" stroke="black" fill="grey"/>
  <circle cx="1179.33" cy="1269.28" r="6.33417" stroke-width="0.5" stroke="grey" fill="grey"/>
   </g>
   <g id="cell25">
  <circle cx="1179.31" cy="747.459" r="8.39138" stroke-width="0.5" stroke="black" fill="red"/>
  <circle cx="1179.31" cy="747.459" r="5.04436" stroke-width="0.5" stroke="red" fill="red"/>
   </g>
   <g id="cell26">
  <circle cx="1725.47" cy="1216.31" r="8.38284" stroke-width="0.5" stroke="black" fill="grey"/>
  <circle cx="1725.47" cy="1216.31" r="5.04101" stroke-width="0.5" stroke="grey" fill="grey"/>
   </g>
   <g id="cell27">
  <circle cx="906.049" cy="562.498" r="10.0299" stroke-width="0.5" stroke="black" fill="grey"/>
  <circle cx="906.049" cy="562.498" r="6.08269" stroke-width="0.5" stroke="grey" fill="grey"/>
   </g>
   <g id="cell28">
  <circle cx="60.8353" cy="1988.57" r="8.37157" stroke-width="0.5" stroke="black" fill="red"/>
  <circle cx="60.8353" cy="1988.57" r="5.03649" stroke-width="0.5" stroke="red" fill="red"/>
   </g>
   <g id="cell29">
  <circle cx="1074.44" cy="1063.41" r="8.67855" stroke-width="0.5" stroke="black" fill="grey"/>
  <circle cx="1074.44" cy="1063.41" r="5.25057" stroke-width="0.5" stroke="grey" fill="grey"/>
   </g>
   <g id="cell30">
  <circle cx="942.898" cy="486.834" r="9.29569" stroke-width="0.5" stroke="black" fill="grey"/>
  <circle cx="942.898" cy="486.834" r="5.65302" stroke-width="0.5" stroke="grey" fill="grey"/>
   </g>
   <g id="cell31">
  <circle cx="1189.56" cy="1368.84" r="10.2098" stroke-width="0.5" stroke="black" fill="grey"/>
  <circle cx="1189.56" cy="1368.84" r="6.18009" stroke-width="0.5" stroke="grey" fill="grey"/>
   </g>
   <g id="cell109">
  <circle cx="780.551" cy="954.409" r="10.5107" stroke-width="0.5" stroke="black" fill="red"/>
  <circle cx="780.551" cy="954.409" r="6.32978" stroke-width="0.5" stroke="red" fill="red"/>
   </g>
   <g id="cell33">
  <circle cx="1672.52" cy="1171.93" r="10.4946" stroke-width="0.5" stroke="black" fill="grey"/>
  <circle cx="1672.52" cy="1171.93" r="6.32253" stroke-width="0.5" stroke="grey" fill="grey"/>
   </g>
   <g id="cell34">
  <circle cx="1109.92" cy="1632.19" r="8.40184" stroke-width="0.5" stroke="black" fill="grey"/>
  <circle cx="1109.92" cy="1632.19" r="5.04822" stroke-width="0.5" stroke="grey" fill="grey"/>
   </g>
   <g id="cell35">
  <circle cx="750.226" cy="935.514" r="9.92414" stroke-width="0.5" stroke="black" fill="red"/>
  <circle cx="750.226" cy="935.514" r="6.023" stroke-width="0.5" stroke="red" fill="red"/>
   </g>
   <g id="cell36">
  <circle cx="1729.56" cy="234.325" r="10.4153" stroke-width="0.5" stroke="black" fill="red"/>
  <circle cx="1729.56" cy="234.325" r="6.28503" stroke-width="0.5" stroke="red" fill="red"/>
   </g>
   <g id="cell37">
  <circle cx="825.706" cy="912.447" r="10.5109" stroke-width="0.5" stroke="black" fill="red"/>
  <circle cx="825.706" cy="912.447" r="6.32984" stroke-width="0.5" stroke="red" fill="red"/>
   </g>
   <g id="cell38">
  <circle cx="1596.33" cy="1066.12" r="9.58046" stroke-width="0.5" stroke="black" fill="red"/>
  <circle cx="1596.33" cy="1066.12" r="5.82569" stroke-width="0.5" stroke="red" fill="red"/>
   </g>
   <g id="cell39">
  <circle cx="1124.38" cy="1185.43" r="10.4885" stroke-width="0.5" stroke="black" fill="grey"/>
  <circle cx="1124.38" cy="1185.43" r="6.31976" stroke-width="0.5" stroke="grey" fill="grey"/>
   </g>
   <g id="cell40">
  <circle cx="1762.81" cy="1256.45" r="9.06656" stroke-width="0.5" stroke="black" fill="grey"/>
  <circle cx="1762.81" cy="1256.45" r="5.5111" stroke-width="0.5" stroke="grey" fill="grey"/>
   </g>
   <g id="cell41">
  <circle cx="1182.99" cy="1458.24" r="10.064" stroke-width="0.5" stroke="black" fill="grey"/>
  <circle cx="1182.99" cy="1458.24" r="6.10106" stroke-width="0.5" stroke="grey" fill="grey"/>
   </g>
   <g id="cell42">
  <circle cx="1099.65" cy="1123.98" r="8.39906" stroke-width="0.5" stroke="black" fill="grey"/>
  <circle cx="1099.65" cy="1123.98" r="5.04723" stroke-width="0.5" stroke="grey" fill="grey"/>
   </g>
   <g id="cell43">
  <circle cx="1049.61" cy="1104.69" r="8.40915" stroke-width="0.5" stroke="black" fill="grey"/>
  <circle cx="1049.61" cy="1104.69" r="5.05067" stroke-width="0.5" stroke="grey" fill="grey"/>
   </g>
   <g id="cell44">
  <circle cx="1702.71" cy="1185.03" r="10.4981" stroke-width="0.5" stroke="black" fill="grey"/>
  <circle cx="1702.71" cy="1185.03" r="6.324" stroke-width="0.5" stroke="grey" fill="grey"/>
   </g>
   <g id="cell45">
  <circle cx="1525.51" cy="1055.95" r="10.5186" stroke-width="0.5" stroke="black" fill="red"/>
  <circle cx="1525.51" cy="1055.95" r="6.33315" stroke-width="0.5" stroke="red" fill="red"/>
   </g>
   <g id="cell101">
  <circle cx="1683.48" cy="238.955" r="10.2321" stroke-width="0.5" stroke="black" fill="red"/>
  <circle cx="1683.48" cy="238.955" r="6.19178" stroke-width="0.5" stroke="red" fill="red"/>
   </g>
   <g id="cell47">
  <circle cx="1633.14" cy="145.462" r="10.5183" stroke-width="0.5" stroke="black" fill="red"/>
  <circle cx="1633.14" cy="145.462" r="6.33305" stroke-width="0.5" stroke="red" fill="red"/>
   </g>
   <g id="cell48">
  <circle cx="1172.15" cy="1797.39" r="8.36558" stroke-width="0.5" stroke="black" fill="grey"/>
  <circle cx="1172.15" cy="1797.39" r="5.03395" stroke-width="0.5" stroke="grey" fill="grey"/>
   </g>
   <g id="cell49">
  <circle cx="83.4807" cy="1973.22" r="10.5287" stroke-width="0.5" stroke="black" fill="red"/>
  <circle cx="83.4807" cy="1973.22" r="6.33763" stroke-width="0.5" stroke="red" fill="red"/>
   </g>
   <g id="cell50">
  <circle cx="1133.12" cy="1145.43" r="10.5306" stroke-width="0.5" stroke="black" fill="grey"/>
  <circle cx="1133.12" cy="1145.43" r="6.33845" stroke-width="0.5" stroke="grey" fill="grey"/>
   </g>
   <g id="cell51">
  <circle cx="1113.54" cy="1276.82" r="9.43577" stroke-width="0.5" stroke="black" fill="grey"/>
  <circle cx="1113.54" cy="1276.82" r="5.73731" stroke-width="0.5" stroke="grey" fill="grey"/>
   </g>
   <g id="cell52">
  <circle cx="865.649" cy="598.052" r="8.38264" stroke-width="0.5" stroke="black" fill="grey"/>
  <circle cx="865.649" cy="598.052" r="5.04097" stroke-width="0.5" stroke="grey" fill="grey"/>
   </g>
   <g id="cell87">
  <circle cx="923.124" cy="625.659" r="9.55353" stroke-width="0.5" stroke="black" fill="grey"/>
  <circle cx="923.124" cy="625.659" r="5.80926" stroke-width="0.5" stroke="grey" fill="grey"/>
   </g>
   <g id="cell54">
  <circle cx="901.622" cy="533.699" r="8.37058" stroke-width="0.5" stroke="black" fill="grey"/>
  <circle cx="901.622" cy="533.699" r="5.03605" stroke-width="0.5" stroke="grey" fill="grey"/>
   </g>
   <g id="cell55">
  <circle cx="872.629" cy="534.862" r="9.71759" stroke-width="0.5" stroke="black" fill="grey"/>
  <circle cx="872.629" cy="534.862" r="5.90577" stroke-width="0.5" stroke="grey" fill="grey"/>
   </g>
   <g id="cell56">
  <circle cx="178.469" cy="1892.34" r="10.3395" stroke-width="0.5" stroke="black" fill="red"/>
  <circle cx="178.469" cy="1892.34" r="6.2474" stroke-width="0.5" stroke="red" fill="red"/>
   </g>
   <g id="cell57">
  <circle cx="1672.85" cy="273.172" r="10.5033" stroke-width="0.5" stroke="black" fill="red"/>
  <circle cx="1672.85" cy="273.172" r="6.3264" stroke-width="0.5" stroke="red" fill="red"/>
   </g>
   <g id="cell58">
  <circle cx="703.109" cy="845.716" r="2.25698" stroke-width="0.5" stroke="black" fill="red"/>
  <circle cx="703.109" cy="845.716" r="2.07219" stroke-width="0.5" stroke="black" fill="black"/>
   </g>
   <g id="cell59">
  <circle cx="1728.6" cy="333.066" r="10.4518" stroke-width="0.5" stroke="black" fill="red"/>
  <circle cx="1728.6" cy="333.066" r="6.30277" stroke-width="0.5" stroke="red" fill="red"/>
   </g>
   <g id="cell60">
  <circle cx="1754.16" cy="1194.37" r="10.4605" stroke-width="0.5" stroke="black" fill="grey"/>
  <circle cx="1754.16" cy="1194.37" r="6.30675" stroke-width="0.5" stroke="grey" fill="grey"/>
   </g>
   <g id="cell61">
  <circle cx="1104.44" cy="1791.12" r="10.2597" stroke-width="0.5" stroke="black" fill="grey"/>
  <circle cx="1104.44" cy="1791.12" r="6.2069" stroke-width="0.5" stroke="grey" fill="grey"/>
   </g>
   <g id="cell62">
  <circle cx="1204.94" cy="1633.24" r="9.08249" stroke-width="0.5" stroke="black" fill="grey"/>
  <circle cx="1204.94" cy="1633.24" r="5.51713" stroke-width="0.5" stroke="grey" fill="grey"/>
   </g>
   <g id="cell63">
  <circle cx="1644.83" cy="359.875" r="8.86395" stroke-width="0.5" stroke="black" fill="red"/>
  <circle cx="1644.83" cy="359.875" r="5.3807" stroke-width="0.5" stroke="red" fill="red"/>
   </g>
   <g id="cell64">
  <circle cx="1673.89" cy="1148.64" r="8.46616" stroke-width="0.5" stroke="black" fill="grey"/>
  <circle cx="1673.89" cy="1148.64" r="5.09756" stroke-width="0.5" stroke="grey" fill="grey"/>
   </g>
   <g id="cell115">
  <circle cx="843.637" cy="567.925" r="10.3667" stroke-width="0.5" stroke="black" fill="grey"/>
  <circle cx="843.637" cy="567.925" r="6.26131" stroke-width="0.5" stroke="grey" fill="grey"/>
   </g>
   <g id="cell66">
  <circle cx="797.662" cy="956.471" r="2.04951" stroke-width="0.5" stroke="black" fill="red"/>
  <circle cx="797.662" cy="956.471" r="1.9323" stroke-width="0.5" stroke="black" fill="black"/>
   </g>
   <g id="cell67">
  <circle cx="1554.6" cy="1064.71" r="9.56375" stroke-width="0.5" stroke="black" fill="red"/>
  <circle cx="1554.6" cy="1064.71" r="5.81288" stroke-width="0.5" stroke="red" fill="red"/>
   </g>
   <g id="cell68">
  <circle cx="825.699" cy="1048.26" r="8.39141" stroke-width="0.5" stroke="black" fill="red"/>
  <circle cx="825.699" cy="1048.26" r="5.04437" stroke-width="0.5" stroke="red" fill="red"/>
   </g>
   <g id="cell69">
  <circle cx="821.277" cy="556.258" r="8.76573" stroke-width="0.5" stroke="black" fill="grey"/>
  <circle cx="821.277" cy="556.258" r="5.30797" stroke-width="0.5" stroke="grey" fill="grey"/>
   </g>
   <g id="cell70">
  <circle cx="1662.2" cy="1238.28" r="10.271" stroke-width="0.5" stroke="black" fill="grey"/>
  <circle cx="1662.2" cy="1238.28" r="6.21244" stroke-width="0.5" stroke="grey" fill="grey"/>
   </g>
   <g id="cell71">
  <circle cx="1027.09" cy="1059.71" r="10.0767" stroke-width="0.5" stroke="black" fill="grey"/>
  <circle cx="1027.09" cy="1059.71" r="6.10865" stroke-width="0.5" stroke="grey" fill="grey"/>
   </g>
   <g id="cell72">
  <circle cx="1143.61" cy="744.874" r="8.88265" stroke-width="0.5" stroke="black" fill="red"/>
  <circle cx="1143.61" cy="744.874" r="5.38784" stroke-width="0.5" stroke="red" fill="red"/>
   </g>
   <g id="cell73">
  <circle cx="1217.77" cy="1210.95" r="10.26" stroke-width="0.5" stroke="black" fill="grey"/>
  <circle cx="1217.77" cy="1210.95" r="6.20698" stroke-width="0.5" stroke="grey" fill="grey"/>
   </g>
   <g id="cell74">
  <circle cx="1097.46" cy="1104.65" r="9.22584" stroke-width="0.5" stroke="black" fill="grey"/>
  <circle cx="1097.46" cy="1104.65" r="5.60933" stroke-width="0.5" stroke="grey" fill="grey"/>
   </g>
   <g id="cell75">
  <circle cx="1698.76" cy="1149.63" r="9.88174" stroke-width="0.5" stroke="black" fill="grey"/>
  <circle cx="1698.76" cy="1149.63" r="5.99945" stroke-width="0.5" stroke="grey" fill="grey"/>
   </g>
   <g id="cell76">
  <circle cx="1631.17" cy="221.62" r="8.39786" stroke-width="0.5" stroke="black" fill="red"/>
  <circle cx="1631.17" cy="221.62" r="5.04679" stroke-width="0.5" stroke="red" fill="red"/>
   </g>
   <g id="cell77">
  <circle cx="34.8465" cy="1931.7" r="9.55831" stroke-width="0.5" stroke="black" fill="red"/>
  <circle cx="34.8465" cy="1931.7" r="5.81103" stroke-width="0.5" stroke="red" fill="red"/>
   </g>
   <g id="cell128">
  <circle cx="1722.3" cy="1196.39" r="9.90205" stroke-width="0.5" stroke="black" fill="grey"/>
  <circle cx="1722.3" cy="1196.39" r="6.01102" stroke-width="0.5" stroke="grey" fill="grey"/>
   </g>
   <g id="cell79">
  <circle cx="1196.3" cy="1280.29" r="10.3399" stroke-width="0.5" stroke="black" fill="grey"/>
  <circle cx="1196.3" cy="1280.29" r="6.2475" stroke-width="0.5" stroke="grey" fill="grey"/>
   </g>
   <g id="cell80">
  <circle cx="815.01" cy="478.729" r="10.4688" stroke-width="0.5" stroke="black" fill="grey"/>
  <circle cx="815.01" cy="478.729" r="6.3105" stroke-width="0.5" stroke="grey" fill="grey"/>
   </g>
   <g id="cell81">
  <circle cx="1234.5" cy="1258.06" r="8.36709" stroke-width="0.5" stroke="black" fill="grey"/>
  <circle cx="1234.5" cy="1258.06" r="5.03455" stroke-width="0.5" stroke="grey" fill="grey"/>
   </g>
   <g id="cell82">
  <circle cx="1624.73" cy="1129.28" r="9.25266" stroke-width="0.5" stroke="black" fill="red"/>
  <circle cx="1624.73" cy="1129.28" r="5.62811" stroke-width="0.5" stroke="red" fill="red"/>
   </g>
   <g id="cell83">
  <circle cx="928.948" cy="580.086" r="10.5038" stroke-width="0.5" stroke="black" fill="grey"/>
  <circle cx="928.948" cy="580.086" r="6.32653" stroke-width="0.5" stroke="grey" fill="grey"/>
   </g>
   <g id="cell84">
  <circle cx="1150.33" cy="1624.15" r="10.2431" stroke-width="0.5" stroke="black" fill="grey"/>
  <circle cx="1150.33" cy="1624.15" r="6.19743" stroke-width="0.5" stroke="grey" fill="grey"/>
   </g>
   <g id="cell85">
  <circle cx="1176.29" cy="1679.64" r="9.61026" stroke-width="0.5" stroke="black" fill="grey"/>
  <circle cx="1176.29" cy="1679.64" r="5.84304" stroke-width="0.5" stroke="grey" fill="grey"/>
   </g>
   <g id="cell88">
  <circle cx="1668.35" cy="1195.06" r="8.7674" stroke-width="0.5" stroke="black" fill="grey"/>
  <circle cx="1668.35" cy="1195.06" r="5.30847" stroke-width="0.5" stroke="grey" fill="grey"/>
   </g>
   <g id="cell89">
  <circle cx="1800.89" cy="281.302" r="10.1502" stroke-width="0.5" stroke="black" fill="red"/>
  <circle cx="1800.89" cy="281.302" r="6.14791" stroke-width="0.5" stroke="red" fill="red"/>
   </g>
   <g id="cell91">
  <circle cx="1180.14" cy="1250.31" r="10.3869" stroke-width="0.5" stroke="black" fill="grey"/>
  <circle cx="1180.14" cy="1250.31" r="6.27112" stroke-width="0.5" stroke="grey" fill="grey"/>
   </g>
   <g id="cell92">
  <circle cx="1690.07" cy="1364.44" r="10.347" stroke-width="0.5" stroke="black" fill="grey"/>
  <circle cx="1690.07" cy="1364.44" r="6.25117" stroke-width="0.5" stroke="grey" fill="grey"/>
   </g>
   <g id="cell93">
  <circle cx="836.053" cy="587.249" r="10.2817" stroke-width="0.5" stroke="black" fill="grey"/>
  <circle cx="836.053" cy="587.249" r="6.2177" stroke-width="0.5" stroke="grey" fill="grey"/>
   </g>
   <g id="cell94">
  <circle cx="843.934" cy="529.698" r="10.4858" stroke-width="0.5" stroke="black" fill="grey"/>
  <circle cx="843.934" cy="529.698" r="6.31843" stroke-width="0.5" stroke="grey" fill="grey"/>
   </g>
   <g id="cell95">
  <circle cx="1141.32" cy="1779.97" r="8.36938" stroke-width="0.5" stroke="black" fill="grey"/>
  <circle cx="1141.32" cy="1779.97" r="5.03555" stroke-width="0.5" stroke="grey" fill="grey"/>
   </g>
   <g id="cell96">
  <circle cx="1648" cy="287.081" r="8.37993" stroke-width="0.5" stroke="black" fill="red"/>
  <circle cx="1648" cy="287.081" r="5.03989" stroke-width="0.5" stroke="red" fill="red"/>
   </g>
   <g id="cell97">
  <circle cx="1178.02" cy="1342.07" r="10.4889" stroke-width="0.5" stroke="black" fill="grey"/>
  <circle cx="1178.02" cy="1342.07" r="6.31987" stroke-width="0.5" stroke="grey" fill="grey"/>
   </g>
   <g id="cell98">
  <circle cx="123.225" cy="1920.46" r="10.4756" stroke-width="0.5" stroke="black" fill="red"/>
  <circle cx="123.225" cy="1920.46" r="6.31376" stroke-width="0.5" stroke="red" fill="red"/>
   </g>
   <g id="cell99">
  <circle cx="1701.53" cy="156.848" r="10.0948" stroke-width="0.5" stroke="black" fill="red"/>
  <circle cx="1701.53" cy="156.848" r="6.1178" stroke-width="0.5" stroke="red" fill="red"/>
   </g>
   <g id="cell100">
  <circle cx="48.8671" cy="1952.73" r="8.36541" stroke-width="0.5" stroke="black" fill="red"/>
  <circle cx="48.8671" cy="1952.73" r="5.03391" stroke-width="0.5" stroke="red" fill="red"/>
   </g>
   <g id="cell102">
  <circle cx="1720.75" cy="1172.15" r="8.4115" stroke-width="0.5" stroke="black" fill="grey"/>
  <circle cx="1720.75" cy="1172.15" r="5.05137" stroke-width="0.5" stroke="grey" fill="grey"/>
   </g>
   <g id="cell103">
  <circle cx="119.409" cy="1981.54" r="8.36259" stroke-width="0.5" stroke="black" fill="red"/>
  <circle cx="119.409" cy="1981.54" r="5.03272" stroke-width="0.5" stroke="red" fill="red"/>
   </g>
   <g id="cell104">
  <circle cx="784.592" cy="911.049" r="10.2903" stroke-width="0.5" stroke="black" fill="red"/>
  <circle cx="784.592" cy="911.049" r="6.22224" stroke-width="0.5" stroke="red" fill="red"/>
   </g>
   <g id="cell105">
  <circle cx="1655.64" cy="1133.98" r="10.5157" stroke-width="0.5" stroke="black" fill="grey"/>
  <circle cx="1655.64" cy="1133.98" r="6.33197" stroke-width="0.5" stroke="grey" fill="grey"/>
   </g>
   <g id="cell106">
  <circle cx="1134.64" cy="1167.16" r="8.41136" stroke-width="0.5" stroke="black" fill="grey"/>
  <circle cx="1134.64" cy="1167.16" r="5.05133" stroke-width="0.5" stroke="grey" fill="grey"/>
   </g>
   <g id="cell107">
  <circle cx="1146.93" cy="1132.48" r="10.1749" stroke-width="0.5" stroke="black" fill="grey"/>
  <circle cx="1146.93" cy="1132.48" r="6.16134" stroke-width="0.5" stroke="grey" fill="grey"/>
   </g>
   <g id="cell108">
  <circle cx="1131.96" cy="1688.5" r="10.3923" stroke-width="0.5" stroke="black" fill="grey"/>
  <circle cx="1131.96" cy="1688.5" r="6.2739" stroke-width="0.5" stroke="grey" fill="grey"/>
   </g>
   <g id="cell110">
  <circle cx="1588.71" cy="1024.75" r="10.1984" stroke-width="0.5" stroke="black" fill="red"/>
  <circle cx="1588.71" cy="1024.75" r="6.17402" stroke-width="0.5" stroke="red" fill="red"/>
   </g>
   <g id="cell111">
  <circle cx="1198.72" cy="1353.21" r="10.4296" stroke-width="0.5" stroke="black" fill="grey"/>
  <circle cx="1198.72" cy="1353.21" r="6.29211" stroke-width="0.5" stroke="grey" fill="grey"/>
   </g>
   <g id="cell112">
  <circle cx="1260.52" cy="1293.94" r="10.4783" stroke-width="0.5" stroke="black" fill="grey"/>
  <circle cx="1260.52" cy="1293.94" r="6.31514" stroke-width="0.5" stroke="grey" fill="grey"/>
   </g>
   <g id="cell113">
  <circle cx="1265.16" cy="1434.89" r="10.4912" stroke-width="0.5" stroke="black" fill="grey"/>
  <circle cx="1265.16" cy="1434.89" r="6.32104" stroke-width="0.5" stroke="grey" fill="grey"/>
   </g>
   <g id="cell114">
  <circle cx="1706.81" cy="379.693" r="10.4341" stroke-width="0.5" stroke="black" fill="red"/>
  <circle cx="1706.81" cy="379.693" r="6.29434" stroke-width="0.5" stroke="red" fill="red"/>
   </g>
   <g id="cell116">
  <circle cx="1706.22" cy="1214.9" r="10.3855" stroke-width="0.5" stroke="black" fill="grey"/>
  <circle cx="1706.22" cy="1214.9" r="6.27071" stroke-width="0.5" stroke="grey" fill="grey"/>
   </g>
   <g id="cell117">
  <circle cx="1690.2" cy="1264.95" r="9.30593" stroke-width="0.5" stroke="black" fill="grey"/>
  <circle cx="1690.2" cy="1264.95" r="5.65671" stroke-width="0.5" stroke="grey" fill="grey"/>
   </g>
   <g id="cell118">
  <circle cx="746.522" cy="952.861" r="9.74967" stroke-width="0.5" stroke="black" fill="red"/>
  <circle cx="746.522" cy="952.861" r="5.92276" stroke-width="0.5" stroke="red" fill="red"/>
   </g>
   <g id="cell119">
  <circle cx="1075.2" cy="1132.03" r="9.40723" stroke-width="0.5" stroke="black" fill="grey"/>
  <circle cx="1075.2" cy="1132.03" r="5.71894" stroke-width="0.5" stroke="grey" fill="grey"/>
   </g>
   <g id="cell120">
  <circle cx="765.731" cy="1073.75" r="9.74918" stroke-width="0.5" stroke="black" fill="red"/>
  <circle cx="765.731" cy="1073.75" r="5.9226" stroke-width="0.5" stroke="red" fill="red"/>
   </g>
   <g id="cell121">
  <circle cx="1163.06" cy="1609.67" r="8.40813" stroke-width="0.5" stroke="black" fill="grey"/>
  <circle cx="1163.06" cy="1609.67" r="5.05035" stroke-width="0.5" stroke="grey" fill="grey"/>
   </g>
   <g id="cell122">
  <circle cx="1167.04" cy="1160.32" r="9.33895" stroke-width="0.5" stroke="black" fill="grey"/>
  <circle cx="1167.04" cy="1160.32" r="5.6775" stroke-width="0.5" stroke="grey" fill="grey"/>
   </g>
   <g id="cell123">
  <circle cx="880.516" cy="640.452" r="8.96381" stroke-width="0.5" stroke="black" fill="grey"/>
  <circle cx="880.516" cy="640.452" r="5.44086" stroke-width="0.5" stroke="grey" fill="grey"/>
   </g>
   <g id="cell124">
  <circle cx="1127.58" cy="1816.63" r="10.1843" stroke-width="0.5" stroke="black" fill="grey"/>
  <circle cx="1127.58" cy="1816.63" r="6.16698" stroke-width="0.5" stroke="grey" fill="grey"/>
   </g>
   <g id="cell125">
  <circle cx="929.076" cy="510.471" r="10.3131" stroke-width="0.5" stroke="black" fill="grey"/>
  <circle cx="929.076" cy="510.471" r="6.23456" stroke-width="0.5" stroke="grey" fill="grey"/>
   </g>
   <g id="cell126">
  <circle cx="1059.98" cy="1089.96" r="9.00317" stroke-width="0.5" stroke="black" fill="grey"/>
  <circle cx="1059.98" cy="1089.96" r="5.46652" stroke-width="0.5" stroke="grey" fill="grey"/>
   </g>
   <g id="cell127">
  <circle cx="1102.25" cy="733.409" r="8.40661" stroke-width="0.5" stroke="black" fill="red"/>
  <circle cx="1102.25" cy="733.409" r="5.04986" stroke-width="0.5" stroke="red" fill="red"/>
   </g>
   <g id="cell129">
  <circle cx="1152.93" cy="1279.81" r="2.25889" stroke-width="0.5" stroke="black" fill="grey"/>
  <circle cx="1152.93" cy="1279.81" r="2.07361" stroke-width="0.5" stroke="black" fill="black"/>
   </g>
   <g id="cell130">
  <circle cx="30.9247" cy="1912.64" r="10.0274" stroke-width="0.5" stroke="black" fill="red"/>
  <circle cx="30.9247" cy="1912.64" r="6.08184" stroke-width="0.5" stroke="red" fill="red"/>
   </g>
   <g id="cell131">
  <circle cx="1110.47" cy="1655.14" r="8.40184" stroke-width="0.5" stroke="black" fill="grey"/>
  <circle cx="1110.47" cy="1655.14" r="5.04822" stroke-width="0.5" stroke="grey" fill="grey"/>
   </g>
   <g id="cell132">
  <circle cx="1086.77" cy="1033.73" r="9.97404" stroke-width="0.5" stroke="black" fill="grey"/>
  <circle cx="1086.77" cy="1033.73" r="6.05245" stroke-width="0.5" stroke="grey" fill="grey"/>
   </g>
   <g id="cell133">
  <circle cx="1625.33" cy="261.173" r="8.71699" stroke-width="0.5" stroke="black" fill="red"/>
  <circle cx="1625.33" cy="261.173" r="5.27754" stroke-width="0.5" stroke="red" fill="red"/>
   </g>
   <g id="cell134">
  <circle cx="864.115" cy="585.861" r="8.39972" stroke-width="0.5" stroke="black" fill="grey"/>
  <circle cx="864.115" cy="585.861" r="5.04748" stroke-width="0.5" stroke="grey" fill="grey"/>
   </g>
   <g id="cell135">
  <circle cx="1100.66" cy="1087.02" r="8.39943" stroke-width="0.5" stroke="black" fill="grey"/>
  <circle cx="1100.66" cy="1087.02" r="5.04737" stroke-width="0.5" stroke="grey" fill="grey"/>
   </g>
   <g id="cell136">
  <circle cx="1111.61" cy="1143.54" r="8.39906" stroke-width="0.5" stroke="black" fill="grey"/>
  <circle cx="1111.61" cy="1143.54" r="5.04723" stroke-width="0.5" stroke="grey" fill="grey"/>
   </g>
   <g id="cell137">
  <circle cx="668.37" cy="897.139" r="8.39873" stroke-width="0.5" stroke="black" fill="red"/>
  <circle cx="668.37" cy="897.139" r="5.0471" stroke-width="0.5" stroke="red" fill="red"/>
   </g>
   <g id="cell138">
  <circle cx="1613.15" cy="249.399" r="8.39786" stroke-width="0.5" stroke="black" fill="red"/>
  <circle cx="1613.15" cy="249.399" r="5.04679" stroke-width="0.5" stroke="red" fill="red"/>
   </g>
   <g id="cell139">
  <circle cx="939.5" cy="623.934" r="8.39774" stroke-width="0.5" stroke="black" fill="grey"/>
  <circle cx="939.5" cy="623.934" r="5.04677" stroke-width="0.5" stroke="grey" fill="grey"/>
   </g>
   <g id="cell140">
  <circle cx="929.711" cy="532.34" r="8.39732" stroke-width="0.5" stroke="black" fill="grey"/>
  <circle cx="929.711" cy="532.34" r="5.04661" stroke-width="0.5" stroke="grey" fill="grey"/>
   </g>
   <g id="cell141">
  <circle cx="1077.37" cy="1202.3" r="9.26031" stroke-width="0.5" stroke="black" fill="grey"/>
  <circle cx="1077.37" cy="1202.3" r="5.63113" stroke-width="0.5" stroke="grey" fill="grey"/>
   </g>
   <g id="cell142">
  <circle cx="1194.55" cy="1745.36" r="8.39736" stroke-width="0.5" stroke="black" fill="grey"/>
  <circle cx="1194.55" cy="1745.36" r="5.04662" stroke-width="0.5" stroke="grey" fill="grey"/>
   </g>
   <g id="cell143">
  <circle cx="1718.42" cy="1141.62" r="8.3957" stroke-width="0.5" stroke="black" fill="grey"/>
  <circle cx="1718.42" cy="1141.62" r="5.04599" stroke-width="0.5" stroke="grey" fill="grey"/>
   </g>
   <g id="cell144">
  <circle cx="1615.42" cy="1027.52" r="8.39521" stroke-width="0.5" stroke="black" fill="red"/>
  <circle cx="1615.42" cy="1027.52" r="5.0458" stroke-width="0.5" stroke="red" fill="red"/>
   </g>
   <g id="cell145">
  <circle cx="1283.97" cy="1331.18" r="8.3951" stroke-width="0.5" stroke="black" fill="grey"/>
  <circle cx="1283.97" cy="1331.18" r="5.04578" stroke-width="0.5" stroke="grey" fill="grey"/>
   </g>
   <g id="cell146">
  <circle cx="1119.87" cy="1710.33" r="8.39408" stroke-width="0.5" stroke="black" fill="grey"/>
  <circle cx="1119.87" cy="1710.33" r="5.0454" stroke-width="0.5" stroke="grey" fill="grey"/>
   </g>
   <g id="cell147">
  <circle cx="809.392" cy="1053.9" r="8.39141" stroke-width="0.5" stroke="black" fill="red"/>
  <circle cx="809.392" cy="1053.9" r="5.04437" stroke-width="0.5" stroke="red" fill="red"/>
   </g>
   <g id="cell148">
  <circle cx="1178.18" cy="726.092" r="9.18232" stroke-width="0.5" stroke="black" fill="red"/>
  <circle cx="1178.18" cy="726.092" r="5.58375" stroke-width="0.5" stroke="red" fill="red"/>
   </g>
   <g id="cell149">
  <circle cx="1710.44" cy="1359.22" r="8.39058" stroke-width="0.5" stroke="black" fill="grey"/>
  <circle cx="1710.44" cy="1359.22" r="5.04408" stroke-width="0.5" stroke="grey" fill="grey"/>
   </g>
   <g id="cell150">
  <circle cx="1741.29" cy="1277.55" r="8.94793" stroke-width="0.5" stroke="black" fill="grey"/>
  <circle cx="1741.29" cy="1277.55" r="5.43484" stroke-width="0.5" stroke="grey" fill="grey"/>
   </g>
   <g id="cell151">
  <circle cx="1633.92" cy="1101.72" r="9.14208" stroke-width="0.5" stroke="black" fill="red"/>
  <circle cx="1633.92" cy="1101.72" r="5.55915" stroke-width="0.5" stroke="red" fill="red"/>
   </g>
   <g id="cell152">
  <circle cx="1551.44" cy="1097.52" r="9.14208" stroke-width="0.5" stroke="black" fill="red"/>
  <circle cx="1551.44" cy="1097.52" r="5.55915" stroke-width="0.5" stroke="red" fill="red"/>
   </g>
   <g id="cell153">
  <circle cx="1717.17" cy="140.588" r="8.38674" stroke-width="0.5" stroke="black" fill="red"/>
  <circle cx="1717.17" cy="140.588" r="5.04256" stroke-width="0.5" stroke="red" fill="red"/>
   </g>
   <g id="cell154">
  <circle cx="1673.91" cy="387.886" r="8.38572" stroke-width="0.5" stroke="black" fill="red"/>
  <circle cx="1673.91" cy="387.886" r="5.0422" stroke-width="0.5" stroke="red" fill="red"/>
   </g>
   <g id="cell155">
  <circle cx="900.126" cy="638.115" r="8.38264" stroke-width="0.5" stroke="black" fill="grey"/>
  <circle cx="900.126" cy="638.115" r="5.04097" stroke-width="0.5" stroke="grey" fill="grey"/>
   </g>
   <g id="cell156">
  <circle cx="1723.82" cy="1237.05" r="8.38284" stroke-width="0.5" stroke="black" fill="grey"/>
  <circle cx="1723.82" cy="1237.05" r="5.04101" stroke-width="0.5" stroke="grey" fill="grey"/>
   </g>
   <g id="cell157">
  <circle cx="66.4734" cy="1949.28" r="8.94127" stroke-width="0.5" stroke="black" fill="red"/>
  <circle cx="66.4734" cy="1949.28" r="5.43213" stroke-width="0.5" stroke="red" fill="red"/>
   </g>
   <g id="cell158">
  <circle cx="1645.64" cy="266.094" r="8.37993" stroke-width="0.5" stroke="black" fill="red"/>
  <circle cx="1645.64" cy="266.094" r="5.03989" stroke-width="0.5" stroke="red" fill="red"/>
   </g>
   <g id="cell159">
  <circle cx="812.182" cy="841.82" r="8.37298" stroke-width="0.5" stroke="black" fill="red"/>
  <circle cx="812.182" cy="841.82" r="5.03703" stroke-width="0.5" stroke="red" fill="red"/>
   </g>
   <g id="cell160">
  <circle cx="52.4039" cy="1969.65" r="8.37157" stroke-width="0.5" stroke="black" fill="red"/>
  <circle cx="52.4039" cy="1969.65" r="5.03649" stroke-width="0.5" stroke="red" fill="red"/>
   </g>
   <g id="cell161">
  <circle cx="885.247" cy="544.551" r="8.37058" stroke-width="0.5" stroke="black" fill="grey"/>
  <circle cx="885.247" cy="544.551" r="5.03605" stroke-width="0.5" stroke="grey" fill="grey"/>
   </g>
   <g id="cell162">
  <circle cx="1532.8" cy="1033.27" r="8.37072" stroke-width="0.5" stroke="black" fill="red"/>
  <circle cx="1532.8" cy="1033.27" r="5.03608" stroke-width="0.5" stroke="red" fill="red"/>
   </g>
   <g id="cell163">
  <circle cx="1155.67" cy="1784.9" r="8.36938" stroke-width="0.5" stroke="black" fill="grey"/>
  <circle cx="1155.67" cy="1784.9" r="5.03555" stroke-width="0.5" stroke="grey" fill="grey"/>
   </g>
   <g id="cell164">
  <circle cx="1240.81" cy="1234" r="8.36709" stroke-width="0.5" stroke="black" fill="grey"/>
  <circle cx="1240.81" cy="1234" r="5.03455" stroke-width="0.5" stroke="grey" fill="grey"/>
   </g>
   <g id="cell165">
  <circle cx="63.7034" cy="1974.56" r="8.36541" stroke-width="0.5" stroke="black" fill="red"/>
  <circle cx="63.7034" cy="1974.56" r="5.03391" stroke-width="0.5" stroke="red" fill="red"/>
   </g>
   <g id="cell166">
  <circle cx="1192.07" cy="1804.87" r="8.36558" stroke-width="0.5" stroke="black" fill="grey"/>
  <circle cx="1192.07" cy="1804.87" r="5.03395" stroke-width="0.5" stroke="grey" fill="grey"/>
   </g>
   <g id="cell167">
  <circle cx="130.241" cy="1989.79" r="8.36259" stroke-width="0.5" stroke="black" fill="red"/>
  <circle cx="130.241" cy="1989.79" r="5.03272" stroke-width="0.5" stroke="red" fill="red"/>
   </g>
  </g>
 </g>
  <rect x="1750" y="2070" width="200" height="20" stroke-width="4" stroke="rgb(255,255,255)" fill="rgb(0,0,0)"/>
  <text x="1762.5" y="2057.5"
   font-family="Arial" font-size="50" fill="black" >
   200 &#956;m
  </text>
  <text x="50" y="2090"
   font-family="Arial" font-size="37.5" fill="black" >
   0 days, 0 hours, 1 minutes, and 52.3941 seconds
  </text>
  <rect x="0" y="140" width="2000" height="2000" stroke-width="4" stroke="rgb(0,0,0)" fill="none"/>
</svg>
