<?xml version="1.0" encoding="UTF-8" standalone="no"?>
<!-- Created with PhysiCell (http://PhysiCell.MathCancer.org/) -->
<svg 
 xmlns:dc="http://purl.org/dc/elements/1.1/" 
 xmlns:cc="http://creativecommons.org/ns#" 
 xmlns:rdf="http://www.w3.org/1999/02/22-rdf-syntax-ns#" 
 xmlns:svg="http://www.w3.org/2000/svg" 
 xmlns="http://www.w3.org/2000/svg" 
 version="1.1" 
 width="2000" 
 height="2140" 
 id="svg2">
  <rect x="0" y="0" width="2000" height="2140" stroke-width="4" stroke="white" fill="white"/>
  <text x="25" y="60"
   font-family="Arial" font-size="50" fill="black" >
   Current time: 0 days, 21 hours, and 40.00 minutes, z = 0.00 &#956;m
  </text>
  <text x="25" y="115"
   font-family="Arial" font-size="47.5" fill="black" >
   173 agents
  </text>
 <g id="tissue" 
    transform="translate(0,2140) scale(1,-1)">
  <g id="ECM">
  </g>
  <g id="cells">
   <g id="cell0">
  <circle cx="1079.6" cy="1173.01" r="8.56222" stroke-width="0.5" stroke="black" fill="grey"/>
  <circle cx="1079.6" cy="1173.01" r="5.16904" stroke-width="0.5" stroke="grey" fill="grey"/>
   </g>
   <g id="cell1">
  <circle cx="1675.66" cy="1182.67" r="9.11829" stroke-width="0.5" stroke="black" fill="grey"/>
  <circle cx="1675.66" cy="1182.67" r="5.54064" stroke-width="0.5" stroke="grey" fill="grey"/>
   </g>
   <g id="cell2">
  <circle cx="1109.43" cy="1736.88" r="9.99651" stroke-width="0.5" stroke="black" fill="grey"/>
  <circle cx="1109.43" cy="1736.88" r="6.06402" stroke-width="0.5" stroke="grey" fill="grey"/>
   </g>
   <g id="cell3">
  <circle cx="1229.66" cy="1318.64" r="8.39913" stroke-width="0.5" stroke="black" fill="grey"/>
  <circle cx="1229.66" cy="1318.64" r="5.04725" stroke-width="0.5" stroke="grey" fill="grey"/>
   </g>
   <g id="cell4">
  <circle cx="902.898" cy="539.21" r="10.5039" stroke-width="0.5" stroke="black" fill="grey"/>
  <circle cx="902.898" cy="539.21" r="6.32657" stroke-width="0.5" stroke="grey" fill="grey"/>
   </g>
   <g id="cell5">
  <circle cx="88.9147" cy="1921.62" r="9.32519" stroke-width="0.5" stroke="black" fill="grey"/>
  <circle cx="88.9147" cy="1921.62" r="5.6723" stroke-width="0.5" stroke="grey" fill="grey"/>
   </g>
   <g id="cell6">
  <circle cx="725.253" cy="900.225" r="8.40112" stroke-width="0.5" stroke="black" fill="grey"/>
  <circle cx="725.253" cy="900.225" r="5.05425" stroke-width="0.5" stroke="grey" fill="grey"/>
   </g>
   <g id="cell7">
  <circle cx="1566.74" cy="1085.46" r="9.11664" stroke-width="0.5" stroke="black" fill="grey"/>
  <circle cx="1566.74" cy="1085.46" r="5.54004" stroke-width="0.5" stroke="grey" fill="grey"/>
   </g>
   <g id="cell8">
  <circle cx="1131.46" cy="820.173" r="9.50152" stroke-width="0.5" stroke="black" fill="grey"/>
  <circle cx="1131.46" cy="820.173" r="5.77625" stroke-width="0.5" stroke="grey" fill="grey"/>
   </g>
   <g id="cell9">
  <circle cx="1640.94" cy="164.637" r="8.83163" stroke-width="0.5" stroke="black" fill="grey"/>
  <circle cx="1640.94" cy="164.637" r="5.35703" stroke-width="0.5" stroke="grey" fill="grey"/>
   </g>
   <g id="cell10">
  <circle cx="176.258" cy="1270.69" r="10.5233" stroke-width="0.5" stroke="black" fill="grey"/>
  <circle cx="176.258" cy="1270.69" r="6.33514" stroke-width="0.5" stroke="grey" fill="grey"/>
   </g>
   <g id="cell11">
  <circle cx="756.28" cy="1642.26" r="9.30318" stroke-width="0.5" stroke="black" fill="grey"/>
  <circle cx="756.28" cy="1642.26" r="5.65578" stroke-width="0.5" stroke="grey" fill="grey"/>
   </g>
   <g id="cell12">
  <circle cx="1611.91" cy="288.836" r="9.22152" stroke-width="0.5" stroke="black" fill="grey"/>
  <circle cx="1611.91" cy="288.836" r="5.60766" stroke-width="0.5" stroke="grey" fill="grey"/>
   </g>
   <g id="cell13">
  <circle cx="1757.18" cy="1885.69" r="9.531" stroke-width="0.5" stroke="black" fill="grey"/>
  <circle cx="1757.18" cy="1885.69" r="5.79415" stroke-width="0.5" stroke="grey" fill="grey"/>
   </g>
   <g id="cell14">
  <circle cx="1574.68" cy="1646.09" r="10.3873" stroke-width="0.5" stroke="black" fill="grey"/>
  <circle cx="1574.68" cy="1646.09" r="6.2712" stroke-width="0.5" stroke="grey" fill="grey"/>
   </g>
   <g id="cell15">
  <circle cx="1033.8" cy="1520.12" r="8.39987" stroke-width="0.5" stroke="black" fill="grey"/>
  <circle cx="1033.8" cy="1520.12" r="5.04751" stroke-width="0.5" stroke="grey" fill="grey"/>
   </g>
   <g id="cell16">
  <circle cx="267.619" cy="1415.14" r="9.69566" stroke-width="0.5" stroke="black" fill="grey"/>
  <circle cx="267.619" cy="1415.14" r="5.89218" stroke-width="0.5" stroke="grey" fill="grey"/>
   </g>
   <g id="cell17">
  <circle cx="1178.46" cy="246.518" r="8.53459" stroke-width="0.5" stroke="black" fill="grey"/>
  <circle cx="1178.46" cy="246.518" r="5.14627" stroke-width="0.5" stroke="grey" fill="grey"/>
   </g>
   <g id="cell18">
  <circle cx="1877.13" cy="1542.43" r="9.04223" stroke-width="0.5" stroke="black" fill="grey"/>
  <circle cx="1877.13" cy="1542.43" r="5.49176" stroke-width="0.5" stroke="grey" fill="grey"/>
   </g>
   <g id="cell19">
  <circle cx="216.504" cy="895.595" r="9.98223" stroke-width="0.5" stroke="black" fill="grey"/>
  <circle cx="216.504" cy="895.595" r="6.05517" stroke-width="0.5" stroke="grey" fill="grey"/>
   </g>
   <g id="cell20">
  <circle cx="576.44" cy="347.911" r="10.5189" stroke-width="0.5" stroke="black" fill="grey"/>
  <circle cx="576.44" cy="347.911" r="6.3332" stroke-width="0.5" stroke="grey" fill="grey"/>
   </g>
   <g id="cell21">
  <circle cx="1449.23" cy="918.832" r="8.38206" stroke-width="0.5" stroke="black" fill="grey"/>
  <circle cx="1449.23" cy="918.832" r="5.04069" stroke-width="0.5" stroke="grey" fill="grey"/>
   </g>
   <g id="cell22">
  <circle cx="1088.03" cy="250.324" r="10.4258" stroke-width="0.5" stroke="black" fill="grey"/>
  <circle cx="1088.03" cy="250.324" r="6.29005" stroke-width="0.5" stroke="grey" fill="grey"/>
   </g>
   <g id="cell175">
  <circle cx="742.953" cy="869.027" r="8.38118" stroke-width="0.5" stroke="black" fill="grey"/>
  <circle cx="742.953" cy="869.027" r="5.04034" stroke-width="0.5" stroke="grey" fill="grey"/>
   </g>
   <g id="cell24">
  <circle cx="1286.11" cy="408.547" r="10.4955" stroke-width="0.5" stroke="black" fill="grey"/>
  <circle cx="1286.11" cy="408.547" r="6.32275" stroke-width="0.5" stroke="grey" fill="grey"/>
   </g>
   <g id="cell25">
  <circle cx="791.848" cy="1896.22" r="9.96067" stroke-width="0.5" stroke="black" fill="grey"/>
  <circle cx="791.848" cy="1896.22" r="6.04394" stroke-width="0.5" stroke="grey" fill="grey"/>
   </g>
   <g id="cell26">
  <circle cx="1368.57" cy="886.97" r="10.537" stroke-width="0.5" stroke="black" fill="grey"/>
  <circle cx="1368.57" cy="886.97" r="6.34103" stroke-width="0.5" stroke="grey" fill="grey"/>
   </g>
   <g id="cell27">
  <circle cx="1196.74" cy="890.197" r="9.89853" stroke-width="0.5" stroke="black" fill="grey"/>
  <circle cx="1196.74" cy="890.197" r="6.00976" stroke-width="0.5" stroke="grey" fill="grey"/>
   </g>
   <g id="cell28">
  <circle cx="1331.07" cy="130.312" r="9.40314" stroke-width="0.5" stroke="black" fill="grey"/>
  <circle cx="1331.07" cy="130.312" r="5.71751" stroke-width="0.5" stroke="grey" fill="grey"/>
   </g>
   <g id="cell29">
  <circle cx="1980.56" cy="1292.17" r="8.95602" stroke-width="0.5" stroke="black" fill="grey"/>
  <circle cx="1980.56" cy="1292.17" r="5.43801" stroke-width="0.5" stroke="grey" fill="grey"/>
   </g>
   <g id="cell30">
  <circle cx="1360.56" cy="367.755" r="8.39422" stroke-width="0.5" stroke="black" fill="grey"/>
  <circle cx="1360.56" cy="367.755" r="5.04543" stroke-width="0.5" stroke="grey" fill="grey"/>
   </g>
   <g id="cell31">
  <circle cx="691.572" cy="250.379" r="8.407" stroke-width="0.5" stroke="black" fill="grey"/>
  <circle cx="691.572" cy="250.379" r="5.04998" stroke-width="0.5" stroke="grey" fill="grey"/>
   </g>
   <g id="cell32">
  <circle cx="623.677" cy="1221.83" r="9.99568" stroke-width="0.5" stroke="black" fill="grey"/>
  <circle cx="623.677" cy="1221.83" r="6.06374" stroke-width="0.5" stroke="grey" fill="grey"/>
   </g>
   <g id="cell33">
  <circle cx="675.95" cy="1157.93" r="9.1078" stroke-width="0.5" stroke="black" fill="grey"/>
  <circle cx="675.95" cy="1157.93" r="5.53665" stroke-width="0.5" stroke="grey" fill="grey"/>
   </g>
   <g id="cell34">
  <circle cx="901.929" cy="1231.15" r="10.0462" stroke-width="0.5" stroke="black" fill="grey"/>
  <circle cx="901.929" cy="1231.15" r="6.09172" stroke-width="0.5" stroke="grey" fill="grey"/>
   </g>
   <g id="cell35">
  <circle cx="1938.77" cy="216.683" r="10.1589" stroke-width="0.5" stroke="black" fill="grey"/>
  <circle cx="1938.77" cy="216.683" r="6.1535" stroke-width="0.5" stroke="grey" fill="grey"/>
   </g>
   <g id="cell36">
  <circle cx="361.302" cy="1287.44" r="8.40516" stroke-width="0.5" stroke="black" fill="grey"/>
  <circle cx="361.302" cy="1287.44" r="5.04937" stroke-width="0.5" stroke="grey" fill="grey"/>
   </g>
   <g id="cell37">
  <circle cx="1947.09" cy="1323.67" r="10.3873" stroke-width="0.5" stroke="black" fill="grey"/>
  <circle cx="1947.09" cy="1323.67" r="6.2712" stroke-width="0.5" stroke="grey" fill="grey"/>
   </g>
   <g id="cell38">
  <circle cx="466.994" cy="836.303" r="10.1714" stroke-width="0.5" stroke="black" fill="grey"/>
  <circle cx="466.994" cy="836.303" r="6.16024" stroke-width="0.5" stroke="grey" fill="grey"/>
   </g>
   <g id="cell39">
  <circle cx="918.035" cy="513.862" r="10.5142" stroke-width="0.5" stroke="black" fill="grey"/>
  <circle cx="918.035" cy="513.862" r="6.33113" stroke-width="0.5" stroke="grey" fill="grey"/>
   </g>
   <g id="cell40">
  <circle cx="293.202" cy="640.138" r="8.6837" stroke-width="0.5" stroke="black" fill="grey"/>
  <circle cx="293.202" cy="640.138" r="5.2524" stroke-width="0.5" stroke="grey" fill="grey"/>
   </g>
   <g id="cell41">
  <circle cx="1328.68" cy="1293.28" r="8.40814" stroke-width="0.5" stroke="black" fill="grey"/>
  <circle cx="1328.68" cy="1293.28" r="5.05035" stroke-width="0.5" stroke="grey" fill="grey"/>
   </g>
   <g id="cell42">
  <circle cx="306.944" cy="1610.92" r="10.0097" stroke-width="0.5" stroke="black" fill="grey"/>
  <circle cx="306.944" cy="1610.92" r="6.07221" stroke-width="0.5" stroke="grey" fill="grey"/>
   </g>
   <g id="cell43">
  <circle cx="1943.67" cy="760.434" r="9.92024" stroke-width="0.5" stroke="black" fill="grey"/>
  <circle cx="1943.67" cy="760.434" r="6.02167" stroke-width="0.5" stroke="grey" fill="grey"/>
   </g>
   <g id="cell44">
  <circle cx="1687.48" cy="76.7115" r="8.91968" stroke-width="0.5" stroke="black" fill="grey"/>
  <circle cx="1687.48" cy="76.7115" r="5.41322" stroke-width="0.5" stroke="grey" fill="grey"/>
   </g>
   <g id="cell45">
  <circle cx="1260.23" cy="1718.8" r="8.40056" stroke-width="0.5" stroke="black" fill="grey"/>
  <circle cx="1260.23" cy="1718.8" r="5.04776" stroke-width="0.5" stroke="grey" fill="grey"/>
   </g>
   <g id="cell46">
  <circle cx="199.784" cy="1989.87" r="9.26575" stroke-width="0.5" stroke="black" fill="grey"/>
  <circle cx="199.784" cy="1989.87" r="5.63317" stroke-width="0.5" stroke="grey" fill="grey"/>
   </g>
   <g id="cell47">
  <circle cx="1746.55" cy="905.066" r="10.25" stroke-width="0.5" stroke="black" fill="grey"/>
  <circle cx="1746.55" cy="905.066" r="6.20177" stroke-width="0.5" stroke="grey" fill="grey"/>
   </g>
   <g id="cell48">
  <circle cx="1954.63" cy="71.3501" r="9.14587" stroke-width="0.5" stroke="black" fill="grey"/>
  <circle cx="1954.63" cy="71.3501" r="5.56065" stroke-width="0.5" stroke="grey" fill="grey"/>
   </g>
   <g id="cell49">
  <circle cx="945.592" cy="1483.32" r="9.49579" stroke-width="0.5" stroke="black" fill="grey"/>
  <circle cx="945.592" cy="1483.32" r="5.77419" stroke-width="0.5" stroke="grey" fill="grey"/>
   </g>
   <g id="cell50">
  <circle cx="153.475" cy="846.501" r="9.76664" stroke-width="0.5" stroke="black" fill="red"/>
  <circle cx="153.475" cy="846.501" r="5.93422" stroke-width="0.5" stroke="red" fill="red"/>
   </g>
   <g id="cell51">
  <circle cx="1971.15" cy="278.727" r="10.4489" stroke-width="0.5" stroke="black" fill="red"/>
  <circle cx="1971.15" cy="278.727" r="6.30112" stroke-width="0.5" stroke="red" fill="red"/>
   </g>
   <g id="cell52">
  <circle cx="648.358" cy="1004.97" r="9.93814" stroke-width="0.5" stroke="black" fill="red"/>
  <circle cx="648.358" cy="1004.97" r="6.03206" stroke-width="0.5" stroke="red" fill="red"/>
   </g>
   <g id="cell53">
  <circle cx="1391.1" cy="645.692" r="10.3682" stroke-width="0.5" stroke="black" fill="red"/>
  <circle cx="1391.1" cy="645.692" r="6.26172" stroke-width="0.5" stroke="red" fill="red"/>
   </g>
   <g id="cell54">
  <circle cx="808.194" cy="1804.91" r="9.36967" stroke-width="0.5" stroke="black" fill="red"/>
  <circle cx="808.194" cy="1804.91" r="5.69715" stroke-width="0.5" stroke="red" fill="red"/>
   </g>
   <g id="cell55">
  <circle cx="434.318" cy="1322.56" r="10.3325" stroke-width="0.5" stroke="black" fill="red"/>
  <circle cx="434.318" cy="1322.56" r="6.24369" stroke-width="0.5" stroke="red" fill="red"/>
   </g>
   <g id="cell56">
  <circle cx="1158.85" cy="1709.48" r="10.4984" stroke-width="0.5" stroke="black" fill="red"/>
  <circle cx="1158.85" cy="1709.48" r="6.32406" stroke-width="0.5" stroke="red" fill="red"/>
   </g>
   <g id="cell57">
  <circle cx="977.3" cy="1107.64" r="10.2691" stroke-width="0.5" stroke="black" fill="red"/>
  <circle cx="977.3" cy="1107.64" r="6.21183" stroke-width="0.5" stroke="red" fill="red"/>
   </g>
   <g id="cell58">
  <circle cx="132.469" cy="1809.57" r="8.38823" stroke-width="0.5" stroke="black" fill="red"/>
  <circle cx="132.469" cy="1809.57" r="5.04313" stroke-width="0.5" stroke="red" fill="red"/>
   </g>
   <g id="cell98">
  <circle cx="1817.07" cy="675.409" r="8.39618" stroke-width="0.5" stroke="black" fill="red"/>
  <circle cx="1817.07" cy="675.409" r="5.04616" stroke-width="0.5" stroke="red" fill="red"/>
   </g>
   <g id="cell60">
  <circle cx="666.615" cy="24.0686" r="9.03753" stroke-width="0.5" stroke="black" fill="red"/>
  <circle cx="666.615" cy="24.0686" r="5.49005" stroke-width="0.5" stroke="red" fill="red"/>
   </g>
   <g id="cell61">
  <circle cx="1663.54" cy="287.943" r="8.40472" stroke-width="0.5" stroke="black" fill="red"/>
  <circle cx="1663.54" cy="287.943" r="5.04922" stroke-width="0.5" stroke="red" fill="red"/>
   </g>
   <g id="cell62">
  <circle cx="1433.84" cy="1712.1" r="9.95758" stroke-width="0.5" stroke="black" fill="red"/>
  <circle cx="1433.84" cy="1712.1" r="6.04286" stroke-width="0.5" stroke="red" fill="red"/>
   </g>
   <g id="cell63">
  <circle cx="565.909" cy="362.338" r="8.38532" stroke-width="0.5" stroke="black" fill="red"/>
  <circle cx="565.909" cy="362.338" r="5.04199" stroke-width="0.5" stroke="red" fill="red"/>
   </g>
   <g id="cell64">
  <circle cx="1206.57" cy="1110.51" r="8.60329" stroke-width="0.5" stroke="black" fill="red"/>
  <circle cx="1206.57" cy="1110.51" r="5.19701" stroke-width="0.5" stroke="red" fill="red"/>
   </g>
   <g id="cell65">
  <circle cx="307.357" cy="1638.68" r="8.75958" stroke-width="0.5" stroke="black" fill="red"/>
  <circle cx="307.357" cy="1638.68" r="5.30587" stroke-width="0.5" stroke="red" fill="red"/>
   </g>
   <g id="cell66">
  <circle cx="24.4135" cy="302.921" r="8.60054" stroke-width="0.5" stroke="black" fill="red"/>
  <circle cx="24.4135" cy="302.921" r="5.196" stroke-width="0.5" stroke="red" fill="red"/>
   </g>
   <g id="cell67">
  <circle cx="1103.11" cy="555.215" r="8.37742" stroke-width="0.5" stroke="black" fill="red"/>
  <circle cx="1103.11" cy="555.215" r="5.03881" stroke-width="0.5" stroke="red" fill="red"/>
   </g>
   <g id="cell68">
  <circle cx="1430.47" cy="602.789" r="9.1544" stroke-width="0.5" stroke="black" fill="red"/>
  <circle cx="1430.47" cy="602.789" r="5.56393" stroke-width="0.5" stroke="red" fill="red"/>
   </g>
   <g id="cell69">
  <circle cx="799.592" cy="492.277" r="8.39473" stroke-width="0.5" stroke="black" fill="red"/>
  <circle cx="799.592" cy="492.277" r="5.04562" stroke-width="0.5" stroke="red" fill="red"/>
   </g>
   <g id="cell70">
  <circle cx="1106.23" cy="776.106" r="10.0754" stroke-width="0.5" stroke="black" fill="red"/>
  <circle cx="1106.23" cy="776.106" r="6.10818" stroke-width="0.5" stroke="red" fill="red"/>
   </g>
   <g id="cell71">
  <circle cx="1714.9" cy="1187.36" r="8.96369" stroke-width="0.5" stroke="black" fill="red"/>
  <circle cx="1714.9" cy="1187.36" r="5.44081" stroke-width="0.5" stroke="red" fill="red"/>
   </g>
   <g id="cell72">
  <circle cx="459.666" cy="1765.59" r="8.41271" stroke-width="0.5" stroke="black" fill="red"/>
  <circle cx="459.666" cy="1765.59" r="5.05167" stroke-width="0.5" stroke="red" fill="red"/>
   </g>
   <g id="cell73">
  <circle cx="1362.03" cy="857.746" r="10.1196" stroke-width="0.5" stroke="black" fill="red"/>
  <circle cx="1362.03" cy="857.746" r="6.13218" stroke-width="0.5" stroke="red" fill="red"/>
   </g>
   <g id="cell74">
  <circle cx="1731.28" cy="1849.28" r="8.40403" stroke-width="0.5" stroke="black" fill="red"/>
  <circle cx="1731.28" cy="1849.28" r="5.04898" stroke-width="0.5" stroke="red" fill="red"/>
   </g>
   <g id="cell75">
  <circle cx="272.9" cy="551.519" r="10.1634" stroke-width="0.5" stroke="black" fill="red"/>
  <circle cx="272.9" cy="551.519" r="6.1549" stroke-width="0.5" stroke="red" fill="red"/>
   </g>
   <g id="cell76">
  <circle cx="1613.26" cy="789.149" r="8.39571" stroke-width="0.5" stroke="black" fill="red"/>
  <circle cx="1613.26" cy="789.149" r="5.04599" stroke-width="0.5" stroke="red" fill="red"/>
   </g>
   <g id="cell77">
  <circle cx="1399.38" cy="1803.54" r="9.94051" stroke-width="0.5" stroke="black" fill="red"/>
  <circle cx="1399.38" cy="1803.54" r="6.03291" stroke-width="0.5" stroke="red" fill="red"/>
   </g>
   <g id="cell78">
  <circle cx="1156.73" cy="589.165" r="10.5275" stroke-width="0.5" stroke="black" fill="red"/>
  <circle cx="1156.73" cy="589.165" r="6.33696" stroke-width="0.5" stroke="red" fill="red"/>
   </g>
   <g id="cell79">
  <circle cx="1968" cy="1439.81" r="8.83335" stroke-width="0.5" stroke="black" fill="red"/>
  <circle cx="1968" cy="1439.81" r="5.35769" stroke-width="0.5" stroke="red" fill="red"/>
   </g>
   <g id="cell80">
  <circle cx="1423.11" cy="1287.68" r="9.30226" stroke-width="0.5" stroke="black" fill="red"/>
  <circle cx="1423.11" cy="1287.68" r="5.65545" stroke-width="0.5" stroke="red" fill="red"/>
   </g>
   <g id="cell81">
  <circle cx="1123.52" cy="1926.77" r="8.40154" stroke-width="0.5" stroke="black" fill="red"/>
  <circle cx="1123.52" cy="1926.77" r="5.04811" stroke-width="0.5" stroke="red" fill="red"/>
   </g>
   <g id="cell82">
  <circle cx="1254.77" cy="810.109" r="9.37186" stroke-width="0.5" stroke="black" fill="red"/>
  <circle cx="1254.77" cy="810.109" r="5.69794" stroke-width="0.5" stroke="red" fill="red"/>
   </g>
   <g id="cell83">
  <circle cx="1249.65" cy="1214.72" r="8.40788" stroke-width="0.5" stroke="black" fill="red"/>
  <circle cx="1249.65" cy="1214.72" r="5.05027" stroke-width="0.5" stroke="red" fill="red"/>
   </g>
   <g id="cell84">
  <circle cx="20.9154" cy="924.412" r="10.3991" stroke-width="0.5" stroke="black" fill="red"/>
  <circle cx="20.9154" cy="924.412" r="6.27703" stroke-width="0.5" stroke="red" fill="red"/>
   </g>
   <g id="cell85">
  <circle cx="1390.52" cy="1265.34" r="10.5387" stroke-width="0.5" stroke="black" fill="red"/>
  <circle cx="1390.52" cy="1265.34" r="6.34177" stroke-width="0.5" stroke="red" fill="red"/>
   </g>
   <g id="cell86">
  <circle cx="579.906" cy="825.658" r="8.63912" stroke-width="0.5" stroke="black" fill="red"/>
  <circle cx="579.906" cy="825.658" r="5.22314" stroke-width="0.5" stroke="red" fill="red"/>
   </g>
   <g id="cell87">
  <circle cx="1470" cy="887.051" r="10.537" stroke-width="0.5" stroke="black" fill="red"/>
  <circle cx="1470" cy="887.051" r="6.34103" stroke-width="0.5" stroke="red" fill="red"/>
   </g>
   <g id="cell88">
  <circle cx="250.896" cy="231.245" r="8.40403" stroke-width="0.5" stroke="black" fill="red"/>
  <circle cx="250.896" cy="231.245" r="5.04898" stroke-width="0.5" stroke="red" fill="red"/>
   </g>
   <g id="cell89">
  <circle cx="188.191" cy="1161.47" r="8.40472" stroke-width="0.5" stroke="black" fill="red"/>
  <circle cx="188.191" cy="1161.47" r="5.04922" stroke-width="0.5" stroke="red" fill="red"/>
   </g>
   <g id="cell90">
  <circle cx="1173.3" cy="1119.98" r="8.39021" stroke-width="0.5" stroke="black" fill="red"/>
  <circle cx="1173.3" cy="1119.98" r="5.0439" stroke-width="0.5" stroke="red" fill="red"/>
   </g>
   <g id="cell91">
  <circle cx="68.2752" cy="1262.71" r="9.49986" stroke-width="0.5" stroke="black" fill="red"/>
  <circle cx="68.2752" cy="1262.71" r="5.77567" stroke-width="0.5" stroke="red" fill="red"/>
   </g>
   <g id="cell99">
  <circle cx="949.08" cy="1987.94" r="10.2963" stroke-width="0.5" stroke="black" fill="red"/>
  <circle cx="949.08" cy="1987.94" r="6.2259" stroke-width="0.5" stroke="red" fill="red"/>
   </g>
   <g id="cell93">
  <circle cx="393.672" cy="1762.84" r="9.8618" stroke-width="0.5" stroke="black" fill="red"/>
  <circle cx="393.672" cy="1762.84" r="5.98784" stroke-width="0.5" stroke="red" fill="red"/>
   </g>
   <g id="cell94">
  <circle cx="786.127" cy="221.341" r="9.74384" stroke-width="0.5" stroke="black" fill="red"/>
  <circle cx="786.127" cy="221.341" r="5.92072" stroke-width="0.5" stroke="red" fill="red"/>
   </g>
   <g id="cell95">
  <circle cx="1963.16" cy="1778.24" r="10.0297" stroke-width="0.5" stroke="black" fill="red"/>
  <circle cx="1963.16" cy="1778.24" r="6.08262" stroke-width="0.5" stroke="red" fill="red"/>
   </g>
   <g id="cell96">
  <circle cx="1680.74" cy="1079.22" r="10.5189" stroke-width="0.5" stroke="black" fill="red"/>
  <circle cx="1680.74" cy="1079.22" r="6.3332" stroke-width="0.5" stroke="red" fill="red"/>
   </g>
   <g id="cell97">
  <circle cx="933.214" cy="173.712" r="9.87797" stroke-width="0.5" stroke="black" fill="red"/>
  <circle cx="933.214" cy="173.712" r="5.9981" stroke-width="0.5" stroke="red" fill="red"/>
   </g>
   <g id="cell101">
  <circle cx="1316.45" cy="1257.82" r="10.279" stroke-width="0.5" stroke="black" fill="grey"/>
  <circle cx="1316.45" cy="1257.82" r="6.21688" stroke-width="0.5" stroke="grey" fill="grey"/>
   </g>
   <g id="cell102">
  <circle cx="1066.65" cy="1783.18" r="9.6184" stroke-width="0.5" stroke="black" fill="grey"/>
  <circle cx="1066.65" cy="1783.18" r="5.84598" stroke-width="0.5" stroke="grey" fill="grey"/>
   </g>
   <g id="cell103">
  <circle cx="1235.38" cy="1252.12" r="10.2296" stroke-width="0.5" stroke="black" fill="red"/>
  <circle cx="1235.38" cy="1252.12" r="6.191" stroke-width="0.5" stroke="red" fill="red"/>
   </g>
   <g id="cell104">
  <circle cx="790.289" cy="1872.12" r="10.3134" stroke-width="0.5" stroke="black" fill="grey"/>
  <circle cx="790.289" cy="1872.12" r="6.23465" stroke-width="0.5" stroke="grey" fill="grey"/>
   </g>
   <g id="cell105">
  <circle cx="1154.43" cy="802.377" r="10.3134" stroke-width="0.5" stroke="black" fill="grey"/>
  <circle cx="1154.43" cy="802.377" r="6.23465" stroke-width="0.5" stroke="grey" fill="grey"/>
   </g>
   <g id="cell106">
  <circle cx="447.562" cy="1778.91" r="10.1724" stroke-width="0.5" stroke="black" fill="red"/>
  <circle cx="447.562" cy="1778.91" r="6.16057" stroke-width="0.5" stroke="red" fill="red"/>
   </g>
   <g id="cell107">
  <circle cx="926.081" cy="1244.68" r="9.15862" stroke-width="0.5" stroke="black" fill="grey"/>
  <circle cx="926.081" cy="1244.68" r="5.56544" stroke-width="0.5" stroke="grey" fill="grey"/>
   </g>
   <g id="cell108">
  <circle cx="1771.3" cy="953.82" r="10.0461" stroke-width="0.5" stroke="black" fill="grey"/>
  <circle cx="1771.3" cy="953.82" r="6.09169" stroke-width="0.5" stroke="grey" fill="grey"/>
   </g>
   <g id="cell109">
  <circle cx="1738.29" cy="1197.7" r="8.80293" stroke-width="0.5" stroke="black" fill="red"/>
  <circle cx="1738.29" cy="1197.7" r="5.33424" stroke-width="0.5" stroke="red" fill="red"/>
   </g>
   <g id="cell110">
  <circle cx="996.076" cy="1973.33" r="8.96356" stroke-width="0.5" stroke="black" fill="red"/>
  <circle cx="996.076" cy="1973.33" r="5.44077" stroke-width="0.5" stroke="red" fill="red"/>
   </g>
   <g id="cell111">
  <circle cx="1958.19" cy="1758.92" r="8.40715" stroke-width="0.5" stroke="black" fill="red"/>
  <circle cx="1958.19" cy="1758.92" r="5.05003" stroke-width="0.5" stroke="red" fill="red"/>
   </g>
   <g id="cell112">
  <circle cx="1007.56" cy="1070.26" r="10.1596" stroke-width="0.5" stroke="black" fill="red"/>
  <circle cx="1007.56" cy="1070.26" r="6.15374" stroke-width="0.5" stroke="red" fill="red"/>
   </g>
   <g id="cell113">
  <circle cx="695.017" cy="193.699" r="9.96005" stroke-width="0.5" stroke="black" fill="grey"/>
  <circle cx="695.017" cy="193.699" r="6.04372" stroke-width="0.5" stroke="grey" fill="grey"/>
   </g>
   <g id="cell114">
  <circle cx="639.976" cy="1208.44" r="8.40683" stroke-width="0.5" stroke="black" fill="grey"/>
  <circle cx="639.976" cy="1208.44" r="5.04993" stroke-width="0.5" stroke="grey" fill="grey"/>
   </g>
   <g id="cell115">
  <circle cx="1742.44" cy="1938.64" r="9.81758" stroke-width="0.5" stroke="black" fill="grey"/>
  <circle cx="1742.44" cy="1938.64" r="5.9626" stroke-width="0.5" stroke="grey" fill="grey"/>
   </g>
   <g id="cell116">
  <circle cx="308.682" cy="684.549" r="8.40667" stroke-width="0.5" stroke="black" fill="grey"/>
  <circle cx="308.682" cy="684.549" r="5.04987" stroke-width="0.5" stroke="grey" fill="grey"/>
   </g>
   <g id="cell117">
  <circle cx="1889.49" cy="1561.39" r="10.0455" stroke-width="0.5" stroke="black" fill="grey"/>
  <circle cx="1889.49" cy="1561.39" r="6.09147" stroke-width="0.5" stroke="grey" fill="grey"/>
   </g>
   <g id="cell118">
  <circle cx="1321.62" cy="851.726" r="8.40667" stroke-width="0.5" stroke="black" fill="red"/>
  <circle cx="1321.62" cy="851.726" r="5.04987" stroke-width="0.5" stroke="red" fill="red"/>
   </g>
   <g id="cell119">
  <circle cx="1274.68" cy="827.495" r="9.58913" stroke-width="0.5" stroke="black" fill="red"/>
  <circle cx="1274.68" cy="827.495" r="5.8289" stroke-width="0.5" stroke="red" fill="red"/>
   </g>
   <g id="cell120">
  <circle cx="733.944" cy="1671.17" r="9.77128" stroke-width="0.5" stroke="black" fill="grey"/>
  <circle cx="733.944" cy="1671.17" r="5.93589" stroke-width="0.5" stroke="grey" fill="grey"/>
   </g>
   <g id="cell121">
  <circle cx="443.566" cy="877.418" r="9.99532" stroke-width="0.5" stroke="black" fill="grey"/>
  <circle cx="443.566" cy="877.418" r="6.06361" stroke-width="0.5" stroke="grey" fill="grey"/>
   </g>
   <g id="cell122">
  <circle cx="1928.22" cy="257.635" r="9.69707" stroke-width="0.5" stroke="black" fill="grey"/>
  <circle cx="1928.22" cy="257.635" r="5.89268" stroke-width="0.5" stroke="grey" fill="grey"/>
   </g>
   <g id="cell123">
  <circle cx="77.8836" cy="1248.65" r="10.0287" stroke-width="0.5" stroke="black" fill="red"/>
  <circle cx="77.8836" cy="1248.65" r="6.08229" stroke-width="0.5" stroke="red" fill="red"/>
   </g>
   <g id="cell124">
  <circle cx="1378.22" cy="1806.96" r="10.105" stroke-width="0.5" stroke="black" fill="red"/>
  <circle cx="1378.22" cy="1806.96" r="6.12434" stroke-width="0.5" stroke="red" fill="red"/>
   </g>
   <g id="cell125">
  <circle cx="1451.79" cy="1331.67" r="9.55942" stroke-width="0.5" stroke="black" fill="red"/>
  <circle cx="1451.79" cy="1331.67" r="5.81142" stroke-width="0.5" stroke="red" fill="red"/>
   </g>
   <g id="cell126">
  <circle cx="1179.84" cy="784.956" r="9.79364" stroke-width="0.5" stroke="black" fill="red"/>
  <circle cx="1179.84" cy="784.956" r="5.94906" stroke-width="0.5" stroke="red" fill="red"/>
   </g>
   <g id="cell127">
  <circle cx="397.959" cy="1293.39" r="8.40516" stroke-width="0.5" stroke="black" fill="grey"/>
  <circle cx="397.959" cy="1293.39" r="5.04937" stroke-width="0.5" stroke="grey" fill="grey"/>
   </g>
   <g id="cell128">
  <circle cx="1684.98" cy="1225.52" r="8.40494" stroke-width="0.5" stroke="black" fill="grey"/>
  <circle cx="1684.98" cy="1225.52" r="5.04929" stroke-width="0.5" stroke="grey" fill="grey"/>
   </g>
   <g id="cell129">
  <circle cx="1662.53" cy="315.885" r="10.1043" stroke-width="0.5" stroke="black" fill="red"/>
  <circle cx="1662.53" cy="315.885" r="6.12409" stroke-width="0.5" stroke="red" fill="red"/>
   </g>
   <g id="cell130">
  <circle cx="233.871" cy="1154.16" r="9.93977" stroke-width="0.5" stroke="black" fill="red"/>
  <circle cx="233.871" cy="1154.16" r="6.03265" stroke-width="0.5" stroke="red" fill="red"/>
   </g>
   <g id="cell131">
  <circle cx="236.15" cy="1459.34" r="9.49869" stroke-width="0.5" stroke="black" fill="grey"/>
  <circle cx="236.15" cy="1459.34" r="5.77525" stroke-width="0.5" stroke="grey" fill="grey"/>
   </g>
   <g id="cell132">
  <circle cx="1968.15" cy="798.512" r="9.97624" stroke-width="0.5" stroke="black" fill="grey"/>
  <circle cx="1968.15" cy="798.512" r="6.05324" stroke-width="0.5" stroke="grey" fill="grey"/>
   </g>
   <g id="cell133">
  <circle cx="268.612" cy="190.45" r="9.46745" stroke-width="0.5" stroke="black" fill="red"/>
  <circle cx="268.612" cy="190.45" r="5.75648" stroke-width="0.5" stroke="red" fill="red"/>
   </g>
   <g id="cell134">
  <circle cx="1367.87" cy="169.729" r="10.0746" stroke-width="0.5" stroke="black" fill="grey"/>
  <circle cx="1367.87" cy="169.729" r="6.10791" stroke-width="0.5" stroke="grey" fill="grey"/>
   </g>
   <g id="cell135">
  <circle cx="171.424" cy="1957.58" r="9.76945" stroke-width="0.5" stroke="black" fill="grey"/>
  <circle cx="171.424" cy="1957.58" r="5.93525" stroke-width="0.5" stroke="grey" fill="grey"/>
   </g>
   <g id="cell136">
  <circle cx="1697.94" cy="1894.67" r="8.68123" stroke-width="0.5" stroke="black" fill="red"/>
  <circle cx="1697.94" cy="1894.67" r="5.25153" stroke-width="0.5" stroke="red" fill="red"/>
   </g>
   <g id="cell137">
  <circle cx="774.093" cy="1812.12" r="9.87982" stroke-width="0.5" stroke="black" fill="red"/>
  <circle cx="774.093" cy="1812.12" r="5.99877" stroke-width="0.5" stroke="red" fill="red"/>
   </g>
   <g id="cell138">
  <circle cx="299.538" cy="1623.75" r="8.40378" stroke-width="0.5" stroke="black" fill="red"/>
  <circle cx="299.538" cy="1623.75" r="5.0489" stroke-width="0.5" stroke="red" fill="red"/>
   </g>
   <g id="cell139">
  <circle cx="1407.29" cy="1673.03" r="10.0271" stroke-width="0.5" stroke="black" fill="red"/>
  <circle cx="1407.29" cy="1673.03" r="6.08174" stroke-width="0.5" stroke="red" fill="red"/>
   </g>
   <g id="cell140">
  <circle cx="1581.73" cy="1024.68" r="9.69471" stroke-width="0.5" stroke="black" fill="grey"/>
  <circle cx="1581.73" cy="1024.68" r="5.89184" stroke-width="0.5" stroke="grey" fill="grey"/>
   </g>
   <g id="cell141">
  <circle cx="1664.03" cy="26.4685" r="9.66869" stroke-width="0.5" stroke="black" fill="grey"/>
  <circle cx="1664.03" cy="26.4685" r="5.87657" stroke-width="0.5" stroke="grey" fill="grey"/>
   </g>
   <g id="cell142">
  <circle cx="1432.06" cy="619.495" r="9.33482" stroke-width="0.5" stroke="black" fill="red"/>
  <circle cx="1432.06" cy="619.495" r="5.67602" stroke-width="0.5" stroke="red" fill="red"/>
   </g>
   <g id="cell143">
  <circle cx="620.808" cy="940.358" r="9.74428" stroke-width="0.5" stroke="black" fill="red"/>
  <circle cx="620.808" cy="940.358" r="5.92088" stroke-width="0.5" stroke="red" fill="red"/>
   </g>
   <g id="cell144">
  <circle cx="1206.41" cy="248.346" r="8.40244" stroke-width="0.5" stroke="black" fill="grey"/>
  <circle cx="1206.41" cy="248.346" r="5.04843" stroke-width="0.5" stroke="grey" fill="grey"/>
   </g>
   <g id="cell145">
  <circle cx="274.091" cy="1535.6" r="9.40187" stroke-width="0.5" stroke="black" fill="grey"/>
  <circle cx="274.091" cy="1535.6" r="5.71704" stroke-width="0.5" stroke="grey" fill="grey"/>
   </g>
   <g id="cell146">
  <circle cx="741.368" cy="176.326" r="8.40185" stroke-width="0.5" stroke="black" fill="red"/>
  <circle cx="741.368" cy="176.326" r="5.04822" stroke-width="0.5" stroke="red" fill="red"/>
   </g>
   <g id="cell147">
  <circle cx="1132.91" cy="1884.42" r="8.71791" stroke-width="0.5" stroke="black" fill="red"/>
  <circle cx="1132.91" cy="1884.42" r="5.27787" stroke-width="0.5" stroke="red" fill="red"/>
   </g>
   <g id="cell148">
  <circle cx="1206.2" cy="906.529" r="8.40154" stroke-width="0.5" stroke="black" fill="grey"/>
  <circle cx="1206.2" cy="906.529" r="5.04811" stroke-width="0.5" stroke="grey" fill="grey"/>
   </g>
   <g id="cell149">
  <circle cx="667.924" cy="48.0565" r="9.81347" stroke-width="0.5" stroke="black" fill="red"/>
  <circle cx="667.924" cy="48.0565" r="5.96113" stroke-width="0.5" stroke="red" fill="red"/>
   </g>
   <g id="cell150">
  <circle cx="1194.63" cy="1077.47" r="9.55622" stroke-width="0.5" stroke="black" fill="red"/>
  <circle cx="1194.63" cy="1077.47" r="5.81026" stroke-width="0.5" stroke="red" fill="red"/>
   </g>
   <g id="cell151">
  <circle cx="943.61" cy="203.445" r="8.40123" stroke-width="0.5" stroke="black" fill="red"/>
  <circle cx="943.61" cy="203.445" r="5.048" stroke-width="0.5" stroke="red" fill="red"/>
   </g>
   <g id="cell152">
  <circle cx="1217.99" cy="1714.7" r="8.40056" stroke-width="0.5" stroke="black" fill="grey"/>
  <circle cx="1217.99" cy="1714.7" r="5.04776" stroke-width="0.5" stroke="grey" fill="grey"/>
   </g>
   <g id="cell153">
  <circle cx="927.887" cy="1496.14" r="9.03696" stroke-width="0.5" stroke="black" fill="grey"/>
  <circle cx="927.887" cy="1496.14" r="5.48984" stroke-width="0.5" stroke="grey" fill="grey"/>
   </g>
   <g id="cell154">
  <circle cx="165.742" cy="832.984" r="8.91721" stroke-width="0.5" stroke="black" fill="red"/>
  <circle cx="165.742" cy="832.984" r="5.4123" stroke-width="0.5" stroke="red" fill="red"/>
   </g>
   <g id="cell155">
  <circle cx="571.044" cy="807.716" r="9.49525" stroke-width="0.5" stroke="black" fill="red"/>
  <circle cx="571.044" cy="807.716" r="5.77398" stroke-width="0.5" stroke="red" fill="red"/>
   </g>
   <g id="cell156">
  <circle cx="1054.42" cy="1528.03" r="2.18227" stroke-width="0.5" stroke="black" fill="grey"/>
  <circle cx="1054.42" cy="1528.03" r="2.02362" stroke-width="0.5" stroke="black" fill="black"/>
   </g>
   <g id="cell157">
  <circle cx="1240.99" cy="1295.5" r="9.5546" stroke-width="0.5" stroke="black" fill="grey"/>
  <circle cx="1240.99" cy="1295.5" r="5.80965" stroke-width="0.5" stroke="grey" fill="grey"/>
   </g>
   <g id="cell158">
  <circle cx="1931.87" cy="1310.49" r="8.39874" stroke-width="0.5" stroke="black" fill="grey"/>
  <circle cx="1931.87" cy="1310.49" r="5.04711" stroke-width="0.5" stroke="grey" fill="grey"/>
   </g>
   <g id="cell159">
  <circle cx="75.1359" cy="253.702" r="9.49406" stroke-width="0.5" stroke="black" fill="red"/>
  <circle cx="75.1359" cy="253.702" r="5.77353" stroke-width="0.5" stroke="red" fill="red"/>
   </g>
   <g id="cell160">
  <circle cx="1987.85" cy="1459.43" r="8.6743" stroke-width="0.5" stroke="black" fill="red"/>
  <circle cx="1987.85" cy="1459.43" r="5.24898" stroke-width="0.5" stroke="red" fill="red"/>
   </g>
   <g id="cell161">
  <circle cx="1786.99" cy="651.891" r="9.14889" stroke-width="0.5" stroke="black" fill="red"/>
  <circle cx="1786.99" cy="651.891" r="5.56184" stroke-width="0.5" stroke="red" fill="red"/>
   </g>
   <g id="cell162">
  <circle cx="1628.09" cy="742.506" r="8.39571" stroke-width="0.5" stroke="black" fill="red"/>
  <circle cx="1628.09" cy="742.506" r="5.04599" stroke-width="0.5" stroke="red" fill="red"/>
   </g>
   <g id="cell163">
  <circle cx="1092.86" cy="1200.02" r="2.56603" stroke-width="0.5" stroke="black" fill="grey"/>
  <circle cx="1092.86" cy="1200.02" r="2.27283" stroke-width="0.5" stroke="black" fill="black"/>
   </g>
   <g id="cell164">
  <circle cx="824.341" cy="519.227" r="8.99239" stroke-width="0.5" stroke="black" fill="red"/>
  <circle cx="824.341" cy="519.227" r="5.46249" stroke-width="0.5" stroke="red" fill="red"/>
   </g>
   <g id="cell165">
  <circle cx="1598.7" cy="177.924" r="8.39473" stroke-width="0.5" stroke="black" fill="grey"/>
  <circle cx="1598.7" cy="177.924" r="5.04562" stroke-width="0.5" stroke="grey" fill="grey"/>
   </g>
   <g id="cell166">
  <circle cx="1372.97" cy="351.34" r="9.14724" stroke-width="0.5" stroke="black" fill="grey"/>
  <circle cx="1372.97" cy="351.34" r="5.56119" stroke-width="0.5" stroke="grey" fill="grey"/>
   </g>
   <g id="cell167">
  <circle cx="1641.83" cy="277.425" r="8.39422" stroke-width="0.5" stroke="black" fill="grey"/>
  <circle cx="1641.83" cy="277.425" r="5.04543" stroke-width="0.5" stroke="grey" fill="grey"/>
   </g>
   <g id="cell168">
  <circle cx="712.619" cy="1219.9" r="8.3926" stroke-width="0.5" stroke="black" fill="grey"/>
  <circle cx="712.619" cy="1219.9" r="5.04482" stroke-width="0.5" stroke="grey" fill="grey"/>
   </g>
   <g id="cell169">
  <circle cx="1945.28" cy="104.287" r="8.74929" stroke-width="0.5" stroke="black" fill="grey"/>
  <circle cx="1945.28" cy="104.287" r="5.30198" stroke-width="0.5" stroke="grey" fill="grey"/>
   </g>
   <g id="cell170">
  <circle cx="92.9437" cy="1897.13" r="8.39083" stroke-width="0.5" stroke="black" fill="grey"/>
  <circle cx="92.9437" cy="1897.13" r="5.04414" stroke-width="0.5" stroke="grey" fill="grey"/>
   </g>
   <g id="cell171">
  <circle cx="1160.81" cy="1114.4" r="8.39021" stroke-width="0.5" stroke="black" fill="red"/>
  <circle cx="1160.81" cy="1114.4" r="5.0439" stroke-width="0.5" stroke="red" fill="red"/>
   </g>
   <g id="cell172">
  <circle cx="136.827" cy="1842.47" r="8.38823" stroke-width="0.5" stroke="black" fill="red"/>
  <circle cx="136.827" cy="1842.47" r="5.04313" stroke-width="0.5" stroke="red" fill="red"/>
   </g>
   <g id="cell173">
  <circle cx="545.658" cy="360.905" r="8.38532" stroke-width="0.5" stroke="black" fill="red"/>
  <circle cx="545.658" cy="360.905" r="5.04199" stroke-width="0.5" stroke="red" fill="red"/>
   </g>
   <g id="cell174">
  <circle cx="1450.12" cy="937.426" r="8.38206" stroke-width="0.5" stroke="black" fill="grey"/>
  <circle cx="1450.12" cy="937.426" r="5.04069" stroke-width="0.5" stroke="grey" fill="grey"/>
   </g>
   <g id="cell176">
  <circle cx="1139.06" cy="550.345" r="8.37742" stroke-width="0.5" stroke="black" fill="red"/>
  <circle cx="1139.06" cy="550.345" r="5.03881" stroke-width="0.5" stroke="red" fill="red"/>
   </g>
  </g>
 </g>
  <rect x="1750" y="2070" width="200" height="20" stroke-width="4" stroke="rgb(255,255,255)" fill="rgb(0,0,0)"/>
  <text x="1762.5" y="2057.5"
   font-family="Arial" font-size="50" fill="black" >
   200 &#956;m
  </text>
  <text x="50" y="2090"
   font-family="Arial" font-size="37.5" fill="black" >
   0 days, 0 hours, 0 minutes, and 32.2207 seconds
  </text>
  <rect x="0" y="140" width="2000" height="2000" stroke-width="4" stroke="rgb(0,0,0)" fill="none"/>
</svg>
