<?xml version="1.0" encoding="UTF-8" standalone="no"?>
<!-- Created with PhysiCell (http://PhysiCell.MathCancer.org/) -->
<svg 
 xmlns:dc="http://purl.org/dc/elements/1.1/" 
 xmlns:cc="http://creativecommons.org/ns#" 
 xmlns:rdf="http://www.w3.org/1999/02/22-rdf-syntax-ns#" 
 xmlns:svg="http://www.w3.org/2000/svg" 
 xmlns="http://www.w3.org/2000/svg" 
 version="1.1" 
 width="2000" 
 height="2140" 
 id="svg2">
  <rect x="0" y="0" width="2000" height="2140" stroke-width="4" stroke="white" fill="white"/>
  <text x="25" y="60"
   font-family="Arial" font-size="50" fill="black" >
   Current time: 1 days, 1 hours, and 0.00 minutes, z = 0.00 &#956;m
  </text>
  <text x="25" y="115"
   font-family="Arial" font-size="47.5" fill="black" >
   19 agents
  </text>
 <g id="tissue" 
    transform="translate(0,2140) scale(1,-1)">
  <g id="ECM">
  </g>
  <g id="cells">
   <g id="cell0">
  <circle cx="1144.67" cy="1195.81" r="10.1478" stroke-width="0.5" stroke="black" fill="grey"/>
  <circle cx="1144.67" cy="1195.81" r="6.14715" stroke-width="0.5" stroke="grey" fill="grey"/>
   </g>
   <g id="cell1">
  <circle cx="1690.78" cy="1209.27" r="8.87661" stroke-width="0.5" stroke="black" fill="grey"/>
  <circle cx="1690.78" cy="1209.27" r="5.38563" stroke-width="0.5" stroke="grey" fill="grey"/>
   </g>
   <g id="cell2">
  <circle cx="1175.95" cy="1705.05" r="10.2183" stroke-width="0.5" stroke="black" fill="grey"/>
  <circle cx="1175.95" cy="1705.05" r="6.18514" stroke-width="0.5" stroke="grey" fill="grey"/>
   </g>
   <g id="cell3">
  <circle cx="1271.32" cy="1279.41" r="10.2082" stroke-width="0.5" stroke="black" fill="grey"/>
  <circle cx="1271.32" cy="1279.41" r="6.17959" stroke-width="0.5" stroke="grey" fill="grey"/>
   </g>
   <g id="cell4">
  <circle cx="917.266" cy="568.788" r="9.74934" stroke-width="0.5" stroke="black" fill="grey"/>
  <circle cx="917.266" cy="568.788" r="5.92265" stroke-width="0.5" stroke="grey" fill="grey"/>
   </g>
   <g id="cell5">
  <circle cx="114.658" cy="1943.97" r="9.56284" stroke-width="0.5" stroke="black" fill="red"/>
  <circle cx="114.658" cy="1943.97" r="5.81259" stroke-width="0.5" stroke="red" fill="red"/>
   </g>
   <g id="cell6">
  <circle cx="809.302" cy="902.577" r="8.39738" stroke-width="0.5" stroke="black" fill="red"/>
  <circle cx="809.302" cy="902.577" r="5.05274" stroke-width="0.5" stroke="red" fill="red"/>
   </g>
   <g id="cell7">
  <circle cx="1586.22" cy="1013.69" r="1.83057" stroke-width="0.5" stroke="black" fill="red"/>
  <circle cx="1586.22" cy="1013.69" r="1.80164" stroke-width="0.5" stroke="black" fill="black"/>
   </g>
   <g id="cell8">
  <circle cx="1127.68" cy="746.859" r="1.98267" stroke-width="0.5" stroke="black" fill="red"/>
  <circle cx="1127.68" cy="746.859" r="1.92544" stroke-width="0.5" stroke="black" fill="black"/>
   </g>
   <g id="cell9">
  <circle cx="1672.45" cy="173.58" r="8.87917" stroke-width="0.5" stroke="black" fill="red"/>
  <circle cx="1672.45" cy="173.58" r="5.38659" stroke-width="0.5" stroke="red" fill="red"/>
   </g>
   <g id="cell11">
  <circle cx="1582.36" cy="1054.32" r="10.3596" stroke-width="0.5" stroke="black" fill="red"/>
  <circle cx="1582.36" cy="1054.32" r="6.25783" stroke-width="0.5" stroke="red" fill="red"/>
   </g>
   <g id="cell20">
  <circle cx="820.852" cy="920.32" r="8.37742" stroke-width="0.5" stroke="black" fill="red"/>
  <circle cx="820.852" cy="920.32" r="5.03881" stroke-width="0.5" stroke="red" fill="red"/>
   </g>
   <g id="cell13">
  <circle cx="819.067" cy="570.446" r="9.19725" stroke-width="0.5" stroke="black" fill="grey"/>
  <circle cx="819.067" cy="570.446" r="5.58933" stroke-width="0.5" stroke="grey" fill="grey"/>
   </g>
   <g id="cell14">
  <circle cx="1218.72" cy="1295.68" r="9.00449" stroke-width="0.5" stroke="black" fill="grey"/>
  <circle cx="1218.72" cy="1295.68" r="5.46697" stroke-width="0.5" stroke="grey" fill="grey"/>
   </g>
   <g id="cell15">
  <circle cx="1116.47" cy="1179.43" r="9.23346" stroke-width="0.5" stroke="black" fill="grey"/>
  <circle cx="1116.47" cy="1179.43" r="5.61209" stroke-width="0.5" stroke="grey" fill="grey"/>
   </g>
   <g id="cell16">
  <circle cx="1168.69" cy="1687.97" r="8.57322" stroke-width="0.5" stroke="black" fill="grey"/>
  <circle cx="1168.69" cy="1687.97" r="5.17299" stroke-width="0.5" stroke="grey" fill="grey"/>
   </g>
   <g id="cell17">
  <circle cx="1100.86" cy="741.553" r="10.0608" stroke-width="0.5" stroke="black" fill="red"/>
  <circle cx="1100.86" cy="741.553" r="6.10002" stroke-width="0.5" stroke="red" fill="red"/>
   </g>
   <g id="cell18">
  <circle cx="1675.66" cy="209.197" r="8.40272" stroke-width="0.5" stroke="black" fill="red"/>
  <circle cx="1675.66" cy="209.197" r="5.04853" stroke-width="0.5" stroke="red" fill="red"/>
   </g>
   <g id="cell19">
  <circle cx="1638.13" cy="1233.22" r="9.83458" stroke-width="0.5" stroke="black" fill="grey"/>
  <circle cx="1638.13" cy="1233.22" r="5.97347" stroke-width="0.5" stroke="grey" fill="grey"/>
   </g>
  </g>
 </g>
  <rect x="1750" y="2070" width="200" height="20" stroke-width="4" stroke="rgb(255,255,255)" fill="rgb(0,0,0)"/>
  <text x="1762.5" y="2057.5"
   font-family="Arial" font-size="50" fill="black" >
   200 &#956;m
  </text>
  <text x="50" y="2090"
   font-family="Arial" font-size="37.5" fill="black" >
   0 days, 0 hours, 0 minutes, and 32.2245 seconds
  </text>
  <rect x="0" y="140" width="2000" height="2000" stroke-width="4" stroke="rgb(0,0,0)" fill="none"/>
</svg>
