<?xml version="1.0" encoding="UTF-8" standalone="no"?>
<!-- Created with PhysiCell (http://PhysiCell.MathCancer.org/) -->
<svg 
 xmlns:dc="http://purl.org/dc/elements/1.1/" 
 xmlns:cc="http://creativecommons.org/ns#" 
 xmlns:rdf="http://www.w3.org/1999/02/22-rdf-syntax-ns#" 
 xmlns:svg="http://www.w3.org/2000/svg" 
 xmlns="http://www.w3.org/2000/svg" 
 version="1.1" 
 width="2000" 
 height="2140" 
 id="svg2">
  <rect x="0" y="0" width="2000" height="2140" stroke-width="4" stroke="white" fill="white"/>
  <text x="25" y="60"
   font-family="Arial" font-size="50" fill="black" >
   Current time: 1 days, 22 hours, and 0.00 minutes, z = 0.00 &#956;m
  </text>
  <text x="25" y="115"
   font-family="Arial" font-size="47.5" fill="black" >
   35 agents
  </text>
 <g id="tissue" 
    transform="translate(0,2140) scale(1,-1)">
  <g id="ECM">
  </g>
  <g id="cells">
   <g id="cell0">
  <circle cx="1115.21" cy="1166.57" r="10.4856" stroke-width="0.5" stroke="black" fill="grey"/>
  <circle cx="1115.21" cy="1166.57" r="6.31837" stroke-width="0.5" stroke="grey" fill="grey"/>
   </g>
   <g id="cell1">
  <circle cx="1686.72" cy="1208.27" r="9.79649" stroke-width="0.5" stroke="black" fill="grey"/>
  <circle cx="1686.72" cy="1208.27" r="5.95004" stroke-width="0.5" stroke="grey" fill="grey"/>
   </g>
   <g id="cell2">
  <circle cx="1164.89" cy="1728.82" r="10.3319" stroke-width="0.5" stroke="black" fill="grey"/>
  <circle cx="1164.89" cy="1728.82" r="6.24355" stroke-width="0.5" stroke="grey" fill="grey"/>
   </g>
   <g id="cell3">
  <circle cx="1264.61" cy="1343.3" r="10.4919" stroke-width="0.5" stroke="black" fill="grey"/>
  <circle cx="1264.61" cy="1343.3" r="6.32125" stroke-width="0.5" stroke="grey" fill="grey"/>
   </g>
   <g id="cell4">
  <circle cx="876.828" cy="557.083" r="10.2522" stroke-width="0.5" stroke="black" fill="grey"/>
  <circle cx="876.828" cy="557.083" r="6.20248" stroke-width="0.5" stroke="grey" fill="grey"/>
   </g>
   <g id="cell5">
  <circle cx="97.5936" cy="1989.67" r="10.2984" stroke-width="0.5" stroke="black" fill="red"/>
  <circle cx="97.5936" cy="1989.67" r="6.22659" stroke-width="0.5" stroke="red" fill="red"/>
   </g>
   <g id="cell6">
  <circle cx="801.177" cy="874.09" r="8.4074" stroke-width="0.5" stroke="black" fill="red"/>
  <circle cx="801.177" cy="874.09" r="5.05012" stroke-width="0.5" stroke="red" fill="red"/>
   </g>
   <g id="cell19">
  <circle cx="1713.65" cy="1287.6" r="10.4914" stroke-width="0.5" stroke="black" fill="grey"/>
  <circle cx="1713.65" cy="1287.6" r="6.32112" stroke-width="0.5" stroke="grey" fill="grey"/>
   </g>
   <g id="cell18">
  <circle cx="1657.49" cy="311.392" r="9.29986" stroke-width="0.5" stroke="black" fill="red"/>
  <circle cx="1657.49" cy="311.392" r="5.65458" stroke-width="0.5" stroke="red" fill="red"/>
   </g>
   <g id="cell9">
  <circle cx="1664.98" cy="192.927" r="10.33" stroke-width="0.5" stroke="black" fill="red"/>
  <circle cx="1664.98" cy="192.927" r="6.24298" stroke-width="0.5" stroke="red" fill="red"/>
   </g>
   <g id="cell11">
  <circle cx="1575.24" cy="1077.36" r="8.38994" stroke-width="0.5" stroke="black" fill="red"/>
  <circle cx="1575.24" cy="1077.36" r="5.04384" stroke-width="0.5" stroke="red" fill="red"/>
   </g>
   <g id="cell20">
  <circle cx="852.857" cy="980.584" r="8.39566" stroke-width="0.5" stroke="black" fill="red"/>
  <circle cx="852.857" cy="980.584" r="5.04598" stroke-width="0.5" stroke="red" fill="red"/>
   </g>
   <g id="cell13">
  <circle cx="856.074" cy="596.727" r="10.1485" stroke-width="0.5" stroke="black" fill="grey"/>
  <circle cx="856.074" cy="596.727" r="6.14741" stroke-width="0.5" stroke="grey" fill="grey"/>
   </g>
   <g id="cell14">
  <circle cx="1184" cy="1295.26" r="10.2511" stroke-width="0.5" stroke="black" fill="grey"/>
  <circle cx="1184" cy="1295.26" r="6.20215" stroke-width="0.5" stroke="grey" fill="grey"/>
   </g>
   <g id="cell15">
  <circle cx="1137.64" cy="1143.59" r="10.2613" stroke-width="0.5" stroke="black" fill="grey"/>
  <circle cx="1137.64" cy="1143.59" r="6.20742" stroke-width="0.5" stroke="grey" fill="grey"/>
   </g>
   <g id="cell16">
  <circle cx="1182.9" cy="1700.49" r="10.3584" stroke-width="0.5" stroke="black" fill="grey"/>
  <circle cx="1182.9" cy="1700.49" r="6.25745" stroke-width="0.5" stroke="grey" fill="grey"/>
   </g>
   <g id="cell17">
  <circle cx="1090.43" cy="691.91" r="8.41156" stroke-width="0.5" stroke="black" fill="red"/>
  <circle cx="1090.43" cy="691.91" r="5.05138" stroke-width="0.5" stroke="red" fill="red"/>
   </g>
   <g id="cell21">
  <circle cx="1553.47" cy="1018.35" r="10.3679" stroke-width="0.5" stroke="black" fill="red"/>
  <circle cx="1553.47" cy="1018.35" r="6.26163" stroke-width="0.5" stroke="red" fill="red"/>
   </g>
   <g id="cell22">
  <circle cx="1190.63" cy="1750.11" r="9.47365" stroke-width="0.5" stroke="black" fill="grey"/>
  <circle cx="1190.63" cy="1750.11" r="5.75857" stroke-width="0.5" stroke="grey" fill="grey"/>
   </g>
   <g id="cell23">
  <circle cx="1250.9" cy="1327.11" r="8.57775" stroke-width="0.5" stroke="black" fill="grey"/>
  <circle cx="1250.9" cy="1327.11" r="5.17441" stroke-width="0.5" stroke="grey" fill="grey"/>
   </g>
   <g id="cell24">
  <circle cx="1141.5" cy="1205.12" r="10.506" stroke-width="0.5" stroke="black" fill="grey"/>
  <circle cx="1141.5" cy="1205.12" r="6.32761" stroke-width="0.5" stroke="grey" fill="grey"/>
   </g>
   <g id="cell25">
  <circle cx="1107.51" cy="717.517" r="8.41156" stroke-width="0.5" stroke="black" fill="red"/>
  <circle cx="1107.51" cy="717.517" r="5.05138" stroke-width="0.5" stroke="red" fill="red"/>
   </g>
   <g id="cell26">
  <circle cx="1665.41" cy="1222.34" r="10.4297" stroke-width="0.5" stroke="black" fill="grey"/>
  <circle cx="1665.41" cy="1222.34" r="6.29214" stroke-width="0.5" stroke="grey" fill="grey"/>
   </g>
   <g id="cell27">
  <circle cx="911.748" cy="563.266" r="8.41093" stroke-width="0.5" stroke="black" fill="grey"/>
  <circle cx="911.748" cy="563.266" r="5.0512" stroke-width="0.5" stroke="grey" fill="grey"/>
   </g>
   <g id="cell28">
  <circle cx="96.5084" cy="1957.08" r="9.9807" stroke-width="0.5" stroke="black" fill="red"/>
  <circle cx="96.5084" cy="1957.08" r="6.05473" stroke-width="0.5" stroke="red" fill="red"/>
   </g>
   <g id="cell29">
  <circle cx="1115.81" cy="1107.54" r="10.4471" stroke-width="0.5" stroke="black" fill="grey"/>
  <circle cx="1115.81" cy="1107.54" r="6.3006" stroke-width="0.5" stroke="grey" fill="grey"/>
   </g>
   <g id="cell30">
  <circle cx="903.115" cy="608.134" r="10.0786" stroke-width="0.5" stroke="black" fill="grey"/>
  <circle cx="903.115" cy="608.134" r="6.10926" stroke-width="0.5" stroke="grey" fill="grey"/>
   </g>
   <g id="cell31">
  <circle cx="1160.09" cy="1299.85" r="10.1973" stroke-width="0.5" stroke="black" fill="grey"/>
  <circle cx="1160.09" cy="1299.85" r="6.17368" stroke-width="0.5" stroke="grey" fill="grey"/>
   </g>
   <g id="cell32">
  <circle cx="1650.79" cy="220.18" r="9.81919" stroke-width="0.5" stroke="black" fill="red"/>
  <circle cx="1650.79" cy="220.18" r="5.96314" stroke-width="0.5" stroke="red" fill="red"/>
   </g>
   <g id="cell33">
  <circle cx="1670.4" cy="1185.79" r="8.88482" stroke-width="0.5" stroke="black" fill="grey"/>
  <circle cx="1670.4" cy="1185.79" r="5.38858" stroke-width="0.5" stroke="grey" fill="grey"/>
   </g>
   <g id="cell34">
  <circle cx="1182.43" cy="1682.29" r="9.3392" stroke-width="0.5" stroke="black" fill="grey"/>
  <circle cx="1182.43" cy="1682.29" r="5.67758" stroke-width="0.5" stroke="grey" fill="grey"/>
   </g>
   <g id="cell35">
  <circle cx="775.292" cy="874.88" r="9.79529" stroke-width="0.5" stroke="black" fill="red"/>
  <circle cx="775.292" cy="874.88" r="5.94964" stroke-width="0.5" stroke="red" fill="red"/>
   </g>
   <g id="cell36">
  <circle cx="1675.64" cy="284.221" r="9.79162" stroke-width="0.5" stroke="black" fill="red"/>
  <circle cx="1675.64" cy="284.221" r="5.94834" stroke-width="0.5" stroke="red" fill="red"/>
   </g>
   <g id="cell37">
  <circle cx="821.949" cy="941.914" r="8.49587" stroke-width="0.5" stroke="black" fill="red"/>
  <circle cx="821.949" cy="941.914" r="5.11991" stroke-width="0.5" stroke="red" fill="red"/>
   </g>
   <g id="cell38">
  <circle cx="1593.23" cy="1058.79" r="8.38994" stroke-width="0.5" stroke="black" fill="red"/>
  <circle cx="1593.23" cy="1058.79" r="5.04384" stroke-width="0.5" stroke="red" fill="red"/>
   </g>
  </g>
 </g>
  <rect x="1750" y="2070" width="200" height="20" stroke-width="4" stroke="rgb(255,255,255)" fill="rgb(0,0,0)"/>
  <text x="1762.5" y="2057.5"
   font-family="Arial" font-size="50" fill="black" >
   200 &#956;m
  </text>
  <text x="50" y="2090"
   font-family="Arial" font-size="37.5" fill="black" >
   0 days, 0 hours, 0 minutes, and 59.7879 seconds
  </text>
  <rect x="0" y="140" width="2000" height="2000" stroke-width="4" stroke="rgb(0,0,0)" fill="none"/>
</svg>
