<?xml version="1.0" encoding="UTF-8" standalone="no"?>
<!-- Created with PhysiCell (http://PhysiCell.MathCancer.org/) -->
<svg 
 xmlns:dc="http://purl.org/dc/elements/1.1/" 
 xmlns:cc="http://creativecommons.org/ns#" 
 xmlns:rdf="http://www.w3.org/1999/02/22-rdf-syntax-ns#" 
 xmlns:svg="http://www.w3.org/2000/svg" 
 xmlns="http://www.w3.org/2000/svg" 
 version="1.1" 
 width="2000" 
 height="2140" 
 id="svg2">
  <rect x="0" y="0" width="2000" height="2140" stroke-width="4" stroke="white" fill="white"/>
  <text x="25" y="60"
   font-family="Arial" font-size="50" fill="black" >
   Current time: 0 days, 5 hours, and 20.00 minutes, z = 0.00 &#956;m
  </text>
  <text x="25" y="115"
   font-family="Arial" font-size="47.5" fill="black" >
   100 agents
  </text>
 <g id="tissue" 
    transform="translate(0,2140) scale(1,-1)">
  <g id="ECM">
  </g>
  <g id="cells">
   <g id="cell0">
  <circle cx="1125.22" cy="1160.51" r="8.84788" stroke-width="0.5" stroke="black" fill="grey"/>
  <circle cx="1125.22" cy="1160.51" r="5.36278" stroke-width="0.5" stroke="grey" fill="grey"/>
   </g>
   <g id="cell1">
  <circle cx="1686.43" cy="1171.88" r="8.41271" stroke-width="0.5" stroke="black" fill="grey"/>
  <circle cx="1686.43" cy="1171.88" r="5.05167" stroke-width="0.5" stroke="grey" fill="grey"/>
   </g>
   <g id="cell2">
  <circle cx="1110.8" cy="1711.53" r="9.37686" stroke-width="0.5" stroke="black" fill="grey"/>
  <circle cx="1110.8" cy="1711.53" r="5.69955" stroke-width="0.5" stroke="grey" fill="grey"/>
   </g>
   <g id="cell3">
  <circle cx="1237.86" cy="1284.01" r="9.92631" stroke-width="0.5" stroke="black" fill="grey"/>
  <circle cx="1237.86" cy="1284.01" r="6.02363" stroke-width="0.5" stroke="grey" fill="grey"/>
   </g>
   <g id="cell4">
  <circle cx="851.721" cy="622.903" r="9.5651" stroke-width="0.5" stroke="black" fill="grey"/>
  <circle cx="851.721" cy="622.903" r="5.81327" stroke-width="0.5" stroke="grey" fill="grey"/>
   </g>
   <g id="cell5">
  <circle cx="105.83" cy="1952.72" r="8.41271" stroke-width="0.5" stroke="black" fill="grey"/>
  <circle cx="105.83" cy="1952.72" r="5.05167" stroke-width="0.5" stroke="grey" fill="grey"/>
   </g>
   <g id="cell6">
  <circle cx="773.713" cy="945.016" r="9.08642" stroke-width="0.5" stroke="black" fill="grey"/>
  <circle cx="773.713" cy="945.016" r="5.51837" stroke-width="0.5" stroke="grey" fill="grey"/>
   </g>
   <g id="cell7">
  <circle cx="1632.61" cy="1058.78" r="9.53557" stroke-width="0.5" stroke="black" fill="grey"/>
  <circle cx="1632.61" cy="1058.78" r="5.79561" stroke-width="0.5" stroke="grey" fill="grey"/>
   </g>
   <g id="cell8">
  <circle cx="1133.18" cy="769.942" r="9.12489" stroke-width="0.5" stroke="black" fill="grey"/>
  <circle cx="1133.18" cy="769.942" r="5.54282" stroke-width="0.5" stroke="grey" fill="grey"/>
   </g>
   <g id="cell9">
  <circle cx="1693.43" cy="146.998" r="8.41271" stroke-width="0.5" stroke="black" fill="grey"/>
  <circle cx="1693.43" cy="146.998" r="5.05167" stroke-width="0.5" stroke="grey" fill="grey"/>
   </g>
   <g id="cell10">
  <circle cx="174.064" cy="1299.21" r="9.86542" stroke-width="0.5" stroke="black" fill="grey"/>
  <circle cx="174.064" cy="1299.21" r="5.98895" stroke-width="0.5" stroke="grey" fill="grey"/>
   </g>
   <g id="cell11">
  <circle cx="724.615" cy="1663.18" r="8.88811" stroke-width="0.5" stroke="black" fill="grey"/>
  <circle cx="724.615" cy="1663.18" r="5.38958" stroke-width="0.5" stroke="grey" fill="grey"/>
   </g>
   <g id="cell12">
  <circle cx="1545.9" cy="317.342" r="9.41008" stroke-width="0.5" stroke="black" fill="grey"/>
  <circle cx="1545.9" cy="317.342" r="5.71981" stroke-width="0.5" stroke="grey" fill="grey"/>
   </g>
   <g id="cell13">
  <circle cx="1759.72" cy="1955.58" r="8.41271" stroke-width="0.5" stroke="black" fill="grey"/>
  <circle cx="1759.72" cy="1955.58" r="5.05167" stroke-width="0.5" stroke="grey" fill="grey"/>
   </g>
   <g id="cell14">
  <circle cx="1595.73" cy="1576.48" r="8.7678" stroke-width="0.5" stroke="black" fill="grey"/>
  <circle cx="1595.73" cy="1576.48" r="5.30857" stroke-width="0.5" stroke="grey" fill="grey"/>
   </g>
   <g id="cell15">
  <circle cx="1017.64" cy="1555.06" r="9.84395" stroke-width="0.5" stroke="black" fill="grey"/>
  <circle cx="1017.64" cy="1555.06" r="5.97665" stroke-width="0.5" stroke="grey" fill="grey"/>
   </g>
   <g id="cell16">
  <circle cx="224.092" cy="1446.1" r="9.84395" stroke-width="0.5" stroke="black" fill="grey"/>
  <circle cx="224.092" cy="1446.1" r="5.97665" stroke-width="0.5" stroke="grey" fill="grey"/>
   </g>
   <g id="cell17">
  <circle cx="1184.1" cy="281.863" r="9.84395" stroke-width="0.5" stroke="black" fill="grey"/>
  <circle cx="1184.1" cy="281.863" r="5.97665" stroke-width="0.5" stroke="grey" fill="grey"/>
   </g>
   <g id="cell18">
  <circle cx="1887.04" cy="1540.21" r="8.41271" stroke-width="0.5" stroke="black" fill="grey"/>
  <circle cx="1887.04" cy="1540.21" r="5.05167" stroke-width="0.5" stroke="grey" fill="grey"/>
   </g>
   <g id="cell19">
  <circle cx="182.636" cy="830.11" r="8.41271" stroke-width="0.5" stroke="black" fill="grey"/>
  <circle cx="182.636" cy="830.11" r="5.05167" stroke-width="0.5" stroke="grey" fill="grey"/>
   </g>
   <g id="cell20">
  <circle cx="561.778" cy="372.285" r="9.67603" stroke-width="0.5" stroke="black" fill="grey"/>
  <circle cx="561.778" cy="372.285" r="5.87901" stroke-width="0.5" stroke="grey" fill="grey"/>
   </g>
   <g id="cell21">
  <circle cx="1468.08" cy="925.598" r="9.08642" stroke-width="0.5" stroke="black" fill="grey"/>
  <circle cx="1468.08" cy="925.598" r="5.51837" stroke-width="0.5" stroke="grey" fill="grey"/>
   </g>
   <g id="cell22">
  <circle cx="1152.81" cy="229.259" r="9.7992" stroke-width="0.5" stroke="black" fill="grey"/>
  <circle cx="1152.81" cy="229.259" r="5.95086" stroke-width="0.5" stroke="grey" fill="grey"/>
   </g>
   <g id="cell23">
  <circle cx="653.403" cy="1217.64" r="9.70201" stroke-width="0.5" stroke="black" fill="grey"/>
  <circle cx="653.403" cy="1217.64" r="5.89426" stroke-width="0.5" stroke="grey" fill="grey"/>
   </g>
   <g id="cell24">
  <circle cx="1233.49" cy="441.016" r="3.55736" stroke-width="0.5" stroke="black" fill="grey"/>
  <circle cx="1233.49" cy="441.016" r="2.70449" stroke-width="0.5" stroke="black" fill="black"/>
   </g>
   <g id="cell25">
  <circle cx="768.989" cy="1892.42" r="9.7273" stroke-width="0.5" stroke="black" fill="grey"/>
  <circle cx="768.989" cy="1892.42" r="5.90906" stroke-width="0.5" stroke="grey" fill="grey"/>
   </g>
   <g id="cell26">
  <circle cx="1387.39" cy="916.544" r="8.41271" stroke-width="0.5" stroke="black" fill="grey"/>
  <circle cx="1387.39" cy="916.544" r="5.05167" stroke-width="0.5" stroke="grey" fill="grey"/>
   </g>
   <g id="cell27">
  <circle cx="1229.7" cy="845.042" r="9.53557" stroke-width="0.5" stroke="black" fill="grey"/>
  <circle cx="1229.7" cy="845.042" r="5.79561" stroke-width="0.5" stroke="grey" fill="grey"/>
   </g>
   <g id="cell28">
  <circle cx="1399.67" cy="210.066" r="9.90658" stroke-width="0.5" stroke="black" fill="grey"/>
  <circle cx="1399.67" cy="210.066" r="6.01243" stroke-width="0.5" stroke="grey" fill="grey"/>
   </g>
   <g id="cell29">
  <circle cx="1924.42" cy="1339.79" r="9.90658" stroke-width="0.5" stroke="black" fill="grey"/>
  <circle cx="1924.42" cy="1339.79" r="6.01243" stroke-width="0.5" stroke="grey" fill="grey"/>
   </g>
   <g id="cell30">
  <circle cx="1358.41" cy="334.909" r="8.41271" stroke-width="0.5" stroke="black" fill="grey"/>
  <circle cx="1358.41" cy="334.909" r="5.05167" stroke-width="0.5" stroke="grey" fill="grey"/>
   </g>
   <g id="cell31">
  <circle cx="708.211" cy="286.163" r="8.72828" stroke-width="0.5" stroke="black" fill="grey"/>
  <circle cx="708.211" cy="286.163" r="5.28134" stroke-width="0.5" stroke="grey" fill="grey"/>
   </g>
   <g id="cell32">
  <circle cx="657.872" cy="1198.91" r="10.0169" stroke-width="0.5" stroke="black" fill="grey"/>
  <circle cx="657.872" cy="1198.91" r="6.07458" stroke-width="0.5" stroke="grey" fill="grey"/>
   </g>
   <g id="cell33">
  <circle cx="644.292" cy="1142.94" r="8.41271" stroke-width="0.5" stroke="black" fill="grey"/>
  <circle cx="644.292" cy="1142.94" r="5.05167" stroke-width="0.5" stroke="grey" fill="grey"/>
   </g>
   <g id="cell34">
  <circle cx="875.045" cy="1278.85" r="8.9283" stroke-width="0.5" stroke="black" fill="grey"/>
  <circle cx="875.045" cy="1278.85" r="5.4161" stroke-width="0.5" stroke="grey" fill="grey"/>
   </g>
   <g id="cell35">
  <circle cx="1930.81" cy="201.576" r="8.41271" stroke-width="0.5" stroke="black" fill="grey"/>
  <circle cx="1930.81" cy="201.576" r="5.05167" stroke-width="0.5" stroke="grey" fill="grey"/>
   </g>
   <g id="cell36">
  <circle cx="426.654" cy="1256.37" r="9.70201" stroke-width="0.5" stroke="black" fill="grey"/>
  <circle cx="426.654" cy="1256.37" r="5.89426" stroke-width="0.5" stroke="grey" fill="grey"/>
   </g>
   <g id="cell37">
  <circle cx="1986.07" cy="1343.92" r="9.30826" stroke-width="0.5" stroke="black" fill="grey"/>
  <circle cx="1986.07" cy="1343.92" r="5.65742" stroke-width="0.5" stroke="grey" fill="grey"/>
   </g>
   <g id="cell38">
  <circle cx="512.439" cy="844.46" r="8.41271" stroke-width="0.5" stroke="black" fill="grey"/>
  <circle cx="512.439" cy="844.46" r="5.05167" stroke-width="0.5" stroke="grey" fill="grey"/>
   </g>
   <g id="cell39">
  <circle cx="967.278" cy="473.873" r="9.41008" stroke-width="0.5" stroke="black" fill="grey"/>
  <circle cx="967.278" cy="473.873" r="5.71981" stroke-width="0.5" stroke="grey" fill="grey"/>
   </g>
   <g id="cell40">
  <circle cx="328.433" cy="662.323" r="9.37686" stroke-width="0.5" stroke="black" fill="grey"/>
  <circle cx="328.433" cy="662.323" r="5.69955" stroke-width="0.5" stroke="grey" fill="grey"/>
   </g>
   <g id="cell41">
  <circle cx="1334.27" cy="1318.11" r="8.57856" stroke-width="0.5" stroke="black" fill="grey"/>
  <circle cx="1334.27" cy="1318.11" r="5.17461" stroke-width="0.5" stroke="grey" fill="grey"/>
   </g>
   <g id="cell42">
  <circle cx="246.995" cy="1555.5" r="8.41271" stroke-width="0.5" stroke="black" fill="grey"/>
  <circle cx="246.995" cy="1555.5" r="5.05167" stroke-width="0.5" stroke="grey" fill="grey"/>
   </g>
   <g id="cell43">
  <circle cx="1890.52" cy="730.425" r="8.41271" stroke-width="0.5" stroke="black" fill="grey"/>
  <circle cx="1890.52" cy="730.425" r="5.05167" stroke-width="0.5" stroke="grey" fill="grey"/>
   </g>
   <g id="cell44">
  <circle cx="1642.31" cy="57.0204" r="9.20015" stroke-width="0.5" stroke="black" fill="grey"/>
  <circle cx="1642.31" cy="57.0204" r="5.59022" stroke-width="0.5" stroke="grey" fill="grey"/>
   </g>
   <g id="cell45">
  <circle cx="1212.99" cy="1633.86" r="8.41271" stroke-width="0.5" stroke="black" fill="grey"/>
  <circle cx="1212.99" cy="1633.86" r="5.05167" stroke-width="0.5" stroke="grey" fill="grey"/>
   </g>
   <g id="cell46">
  <circle cx="209.637" cy="1913.63" r="8.41271" stroke-width="0.5" stroke="black" fill="grey"/>
  <circle cx="209.637" cy="1913.63" r="5.05167" stroke-width="0.5" stroke="grey" fill="grey"/>
   </g>
   <g id="cell47">
  <circle cx="1756.82" cy="969.93" r="9.7273" stroke-width="0.5" stroke="black" fill="grey"/>
  <circle cx="1756.82" cy="969.93" r="5.90906" stroke-width="0.5" stroke="grey" fill="grey"/>
   </g>
   <g id="cell48">
  <circle cx="1966.89" cy="114.132" r="9.7992" stroke-width="0.5" stroke="black" fill="grey"/>
  <circle cx="1966.89" cy="114.132" r="5.95086" stroke-width="0.5" stroke="grey" fill="grey"/>
   </g>
   <g id="cell49">
  <circle cx="884.913" cy="1444.17" r="9.96412" stroke-width="0.5" stroke="black" fill="grey"/>
  <circle cx="884.913" cy="1444.17" r="6.04499" stroke-width="0.5" stroke="grey" fill="grey"/>
   </g>
   <g id="cell50">
  <circle cx="85.3353" cy="885.232" r="10.0169" stroke-width="0.5" stroke="black" fill="red"/>
  <circle cx="85.3353" cy="885.232" r="6.07458" stroke-width="0.5" stroke="red" fill="red"/>
   </g>
   <g id="cell51">
  <circle cx="1969.92" cy="242.923" r="8.41271" stroke-width="0.5" stroke="black" fill="red"/>
  <circle cx="1969.92" cy="242.923" r="5.05167" stroke-width="0.5" stroke="red" fill="red"/>
   </g>
   <g id="cell52">
  <circle cx="600.612" cy="979.648" r="9.23685" stroke-width="0.5" stroke="black" fill="red"/>
  <circle cx="600.612" cy="979.648" r="5.61315" stroke-width="0.5" stroke="red" fill="red"/>
   </g>
   <g id="cell53">
  <circle cx="1333.88" cy="641.251" r="9.94548" stroke-width="0.5" stroke="black" fill="red"/>
  <circle cx="1333.88" cy="641.251" r="6.03448" stroke-width="0.5" stroke="red" fill="red"/>
   </g>
   <g id="cell54">
  <circle cx="787.172" cy="1819.37" r="10.0169" stroke-width="0.5" stroke="black" fill="red"/>
  <circle cx="787.172" cy="1819.37" r="6.07458" stroke-width="0.5" stroke="red" fill="red"/>
   </g>
   <g id="cell55">
  <circle cx="426.293" cy="1378.71" r="9.70201" stroke-width="0.5" stroke="black" fill="red"/>
  <circle cx="426.293" cy="1378.71" r="5.89426" stroke-width="0.5" stroke="red" fill="red"/>
   </g>
   <g id="cell56">
  <circle cx="1169.49" cy="1714.67" r="8.41271" stroke-width="0.5" stroke="black" fill="red"/>
  <circle cx="1169.49" cy="1714.67" r="5.05167" stroke-width="0.5" stroke="red" fill="red"/>
   </g>
   <g id="cell57">
  <circle cx="1021.98" cy="1048.08" r="8.41271" stroke-width="0.5" stroke="black" fill="red"/>
  <circle cx="1021.98" cy="1048.08" r="5.05167" stroke-width="0.5" stroke="red" fill="red"/>
   </g>
   <g id="cell58">
  <circle cx="178.461" cy="1823.2" r="9.64936" stroke-width="0.5" stroke="black" fill="red"/>
  <circle cx="178.461" cy="1823.2" r="5.86329" stroke-width="0.5" stroke="red" fill="red"/>
   </g>
   <g id="cell59">
  <circle cx="171.722" cy="1844.99" r="3.98591" stroke-width="0.5" stroke="black" fill="red"/>
  <circle cx="171.722" cy="1844.99" r="3.05611" stroke-width="0.5" stroke="black" fill="black"/>
   </g>
   <g id="cell60">
  <circle cx="645.376" cy="35.5416" r="9.90658" stroke-width="0.5" stroke="black" fill="red"/>
  <circle cx="645.376" cy="35.5416" r="6.01243" stroke-width="0.5" stroke="red" fill="red"/>
   </g>
   <g id="cell61">
  <circle cx="1666.03" cy="281.959" r="9.08642" stroke-width="0.5" stroke="black" fill="red"/>
  <circle cx="1666.03" cy="281.959" r="5.51837" stroke-width="0.5" stroke="red" fill="red"/>
   </g>
   <g id="cell62">
  <circle cx="1438.91" cy="1667.11" r="8.41271" stroke-width="0.5" stroke="black" fill="red"/>
  <circle cx="1438.91" cy="1667.11" r="5.05167" stroke-width="0.5" stroke="red" fill="red"/>
   </g>
   <g id="cell63">
  <circle cx="536.488" cy="347.294" r="8.41271" stroke-width="0.5" stroke="black" fill="red"/>
  <circle cx="536.488" cy="347.294" r="5.05167" stroke-width="0.5" stroke="red" fill="red"/>
   </g>
   <g id="cell64">
  <circle cx="1147.4" cy="1106.15" r="8.41271" stroke-width="0.5" stroke="black" fill="red"/>
  <circle cx="1147.4" cy="1106.15" r="5.05167" stroke-width="0.5" stroke="red" fill="red"/>
   </g>
   <g id="cell65">
  <circle cx="355.979" cy="1653.18" r="9.70201" stroke-width="0.5" stroke="black" fill="red"/>
  <circle cx="355.979" cy="1653.18" r="5.89426" stroke-width="0.5" stroke="red" fill="red"/>
   </g>
   <g id="cell66">
  <circle cx="25.3454" cy="301.769" r="9.08642" stroke-width="0.5" stroke="black" fill="red"/>
  <circle cx="25.3454" cy="301.769" r="5.51837" stroke-width="0.5" stroke="red" fill="red"/>
   </g>
   <g id="cell67">
  <circle cx="1089.4" cy="553.625" r="8.72828" stroke-width="0.5" stroke="black" fill="red"/>
  <circle cx="1089.4" cy="553.625" r="5.28134" stroke-width="0.5" stroke="red" fill="red"/>
   </g>
   <g id="cell68">
  <circle cx="1469.13" cy="589.173" r="9.67603" stroke-width="0.5" stroke="black" fill="red"/>
  <circle cx="1469.13" cy="589.173" r="5.87901" stroke-width="0.5" stroke="red" fill="red"/>
   </g>
   <g id="cell69">
  <circle cx="871.232" cy="499.967" r="8.41271" stroke-width="0.5" stroke="black" fill="red"/>
  <circle cx="871.232" cy="499.967" r="5.05167" stroke-width="0.5" stroke="red" fill="red"/>
   </g>
   <g id="cell70">
  <circle cx="1171.51" cy="812.82" r="9.44256" stroke-width="0.5" stroke="black" fill="red"/>
  <circle cx="1171.51" cy="812.82" r="5.73955" stroke-width="0.5" stroke="red" fill="red"/>
   </g>
   <g id="cell71">
  <circle cx="1779.69" cy="1125.27" r="9.20015" stroke-width="0.5" stroke="black" fill="red"/>
  <circle cx="1779.69" cy="1125.27" r="5.59022" stroke-width="0.5" stroke="red" fill="red"/>
   </g>
   <g id="cell72">
  <circle cx="459.868" cy="1799.38" r="8.41271" stroke-width="0.5" stroke="black" fill="red"/>
  <circle cx="459.868" cy="1799.38" r="5.05167" stroke-width="0.5" stroke="red" fill="red"/>
   </g>
   <g id="cell73">
  <circle cx="1391.12" cy="895.883" r="9.77588" stroke-width="0.5" stroke="black" fill="red"/>
  <circle cx="1391.12" cy="895.883" r="5.93735" stroke-width="0.5" stroke="red" fill="red"/>
   </g>
   <g id="cell74">
  <circle cx="1678.72" cy="1937.14" r="9.75192" stroke-width="0.5" stroke="black" fill="red"/>
  <circle cx="1678.72" cy="1937.14" r="5.92342" stroke-width="0.5" stroke="red" fill="red"/>
   </g>
   <g id="cell75">
  <circle cx="204.678" cy="610.702" r="8.41271" stroke-width="0.5" stroke="black" fill="red"/>
  <circle cx="204.678" cy="610.702" r="5.05167" stroke-width="0.5" stroke="red" fill="red"/>
   </g>
   <g id="cell76">
  <circle cx="1606.01" cy="815.781" r="8.72828" stroke-width="0.5" stroke="black" fill="red"/>
  <circle cx="1606.01" cy="815.781" r="5.28134" stroke-width="0.5" stroke="red" fill="red"/>
   </g>
   <g id="cell77">
  <circle cx="1365.07" cy="1748.28" r="8.41271" stroke-width="0.5" stroke="black" fill="red"/>
  <circle cx="1365.07" cy="1748.28" r="5.05167" stroke-width="0.5" stroke="red" fill="red"/>
   </g>
   <g id="cell78">
  <circle cx="1187.92" cy="645.569" r="8.41271" stroke-width="0.5" stroke="black" fill="red"/>
  <circle cx="1187.92" cy="645.569" r="5.05167" stroke-width="0.5" stroke="red" fill="red"/>
   </g>
   <g id="cell79">
  <circle cx="1921.05" cy="1379.1" r="8.41271" stroke-width="0.5" stroke="black" fill="red"/>
  <circle cx="1921.05" cy="1379.1" r="5.05167" stroke-width="0.5" stroke="red" fill="red"/>
   </g>
   <g id="cell80">
  <circle cx="1451.55" cy="1310.42" r="9.20015" stroke-width="0.5" stroke="black" fill="red"/>
  <circle cx="1451.55" cy="1310.42" r="5.59022" stroke-width="0.5" stroke="red" fill="red"/>
   </g>
   <g id="cell81">
  <circle cx="1073.97" cy="1890.12" r="4.40632" stroke-width="0.5" stroke="black" fill="red"/>
  <circle cx="1073.97" cy="1890.12" r="3.19208" stroke-width="0.5" stroke="black" fill="black"/>
   </g>
   <g id="cell82">
  <circle cx="1264.19" cy="789.199" r="9.30826" stroke-width="0.5" stroke="black" fill="red"/>
  <circle cx="1264.19" cy="789.199" r="5.65742" stroke-width="0.5" stroke="red" fill="red"/>
   </g>
   <g id="cell83">
  <circle cx="1263.01" cy="1239.74" r="8.41271" stroke-width="0.5" stroke="black" fill="red"/>
  <circle cx="1263.01" cy="1239.74" r="5.05167" stroke-width="0.5" stroke="red" fill="red"/>
   </g>
   <g id="cell84">
  <circle cx="31.708" cy="950.074" r="9.88629" stroke-width="0.5" stroke="black" fill="red"/>
  <circle cx="31.708" cy="950.074" r="6.00088" stroke-width="0.5" stroke="red" fill="red"/>
   </g>
   <g id="cell85">
  <circle cx="1411.4" cy="1322.65" r="8.41271" stroke-width="0.5" stroke="black" fill="red"/>
  <circle cx="1411.4" cy="1322.65" r="5.05167" stroke-width="0.5" stroke="red" fill="red"/>
   </g>
   <g id="cell86">
  <circle cx="574.92" cy="785.342" r="8.41271" stroke-width="0.5" stroke="black" fill="red"/>
  <circle cx="574.92" cy="785.342" r="5.05167" stroke-width="0.5" stroke="red" fill="red"/>
   </g>
   <g id="cell87">
  <circle cx="1477.36" cy="867.991" r="9.08642" stroke-width="0.5" stroke="black" fill="red"/>
  <circle cx="1477.36" cy="867.991" r="5.51837" stroke-width="0.5" stroke="red" fill="red"/>
   </g>
   <g id="cell88">
  <circle cx="305.796" cy="167.893" r="9.20015" stroke-width="0.5" stroke="black" fill="red"/>
  <circle cx="305.796" cy="167.893" r="5.59022" stroke-width="0.5" stroke="red" fill="red"/>
   </g>
   <g id="cell89">
  <circle cx="189.68" cy="1141.75" r="8.41271" stroke-width="0.5" stroke="black" fill="red"/>
  <circle cx="189.68" cy="1141.75" r="5.05167" stroke-width="0.5" stroke="red" fill="red"/>
   </g>
   <g id="cell90">
  <circle cx="1162.93" cy="1099.51" r="8.41271" stroke-width="0.5" stroke="black" fill="red"/>
  <circle cx="1162.93" cy="1099.51" r="5.05167" stroke-width="0.5" stroke="red" fill="red"/>
   </g>
   <g id="cell91">
  <circle cx="46.7443" cy="1283.59" r="8.41271" stroke-width="0.5" stroke="black" fill="red"/>
  <circle cx="46.7443" cy="1283.59" r="5.05167" stroke-width="0.5" stroke="red" fill="red"/>
   </g>
   <g id="cell92">
  <circle cx="1268.78" cy="647.749" r="10.0169" stroke-width="0.5" stroke="black" fill="red"/>
  <circle cx="1268.78" cy="647.749" r="6.07458" stroke-width="0.5" stroke="red" fill="red"/>
   </g>
   <g id="cell93">
  <circle cx="441.014" cy="1797.4" r="8.51252" stroke-width="0.5" stroke="black" fill="red"/>
  <circle cx="441.014" cy="1797.4" r="5.12552" stroke-width="0.5" stroke="red" fill="red"/>
   </g>
   <g id="cell94">
  <circle cx="755.819" cy="201.864" r="9.5053" stroke-width="0.5" stroke="black" fill="red"/>
  <circle cx="755.819" cy="201.864" r="5.77744" stroke-width="0.5" stroke="red" fill="red"/>
   </g>
   <g id="cell95">
  <circle cx="1981.87" cy="1764.41" r="9.37686" stroke-width="0.5" stroke="black" fill="red"/>
  <circle cx="1981.87" cy="1764.41" r="5.69955" stroke-width="0.5" stroke="red" fill="red"/>
   </g>
   <g id="cell96">
  <circle cx="1619.47" cy="1075.4" r="9.64936" stroke-width="0.5" stroke="black" fill="red"/>
  <circle cx="1619.47" cy="1075.4" r="5.86329" stroke-width="0.5" stroke="red" fill="red"/>
   </g>
   <g id="cell97">
  <circle cx="883.569" cy="194.122" r="9.92631" stroke-width="0.5" stroke="black" fill="red"/>
  <circle cx="883.569" cy="194.122" r="6.02363" stroke-width="0.5" stroke="red" fill="red"/>
   </g>
   <g id="cell98">
  <circle cx="1818.84" cy="711.138" r="9.98223" stroke-width="0.5" stroke="black" fill="red"/>
  <circle cx="1818.84" cy="711.138" r="6.05517" stroke-width="0.5" stroke="red" fill="red"/>
   </g>
   <g id="cell99">
  <circle cx="931.97" cy="1969.84" r="9.99984" stroke-width="0.5" stroke="black" fill="red"/>
  <circle cx="931.97" cy="1969.84" r="6.06503" stroke-width="0.5" stroke="red" fill="red"/>
   </g>
  </g>
 </g>
  <rect x="1750" y="2070" width="200" height="20" stroke-width="4" stroke="rgb(255,255,255)" fill="rgb(0,0,0)"/>
  <text x="1762.5" y="2057.5"
   font-family="Arial" font-size="50" fill="black" >
   200 &#956;m
  </text>
  <text x="50" y="2090"
   font-family="Arial" font-size="37.5" fill="black" >
   0 days, 0 hours, 0 minutes, and 7.9727 seconds
  </text>
  <rect x="0" y="140" width="2000" height="2000" stroke-width="4" stroke="rgb(0,0,0)" fill="none"/>
</svg>
