<?xml version="1.0" encoding="UTF-8" standalone="no"?>
<!-- Created with PhysiCell (http://PhysiCell.MathCancer.org/) -->
<svg 
 xmlns:dc="http://purl.org/dc/elements/1.1/" 
 xmlns:cc="http://creativecommons.org/ns#" 
 xmlns:rdf="http://www.w3.org/1999/02/22-rdf-syntax-ns#" 
 xmlns:svg="http://www.w3.org/2000/svg" 
 xmlns="http://www.w3.org/2000/svg" 
 version="1.1" 
 width="2000" 
 height="2140" 
 id="svg2">
  <rect x="0" y="0" width="2000" height="2140" stroke-width="4" stroke="white" fill="white"/>
  <text x="25" y="60"
   font-family="Arial" font-size="50" fill="black" >
   Current time: 0 days, 0 hours, and 50.00 minutes, z = 0.00 &#956;m
  </text>
  <text x="25" y="115"
   font-family="Arial" font-size="47.5" fill="black" >
   100 agents
  </text>
 <g id="tissue" 
    transform="translate(0,2140) scale(1,-1)">
  <g id="ECM">
  </g>
  <g id="cells">
   <g id="cell0">
  <circle cx="1093.38" cy="1185.76" r="8.41271" stroke-width="0.5" stroke="black" fill="grey"/>
  <circle cx="1093.38" cy="1185.76" r="5.05167" stroke-width="0.5" stroke="grey" fill="grey"/>
   </g>
   <g id="cell1">
  <circle cx="1688.64" cy="1197.99" r="8.41271" stroke-width="0.5" stroke="black" fill="grey"/>
  <circle cx="1688.64" cy="1197.99" r="5.05167" stroke-width="0.5" stroke="grey" fill="grey"/>
   </g>
   <g id="cell2">
  <circle cx="1100.39" cy="1694.98" r="8.61424" stroke-width="0.5" stroke="black" fill="grey"/>
  <circle cx="1100.39" cy="1694.98" r="5.20061" stroke-width="0.5" stroke="grey" fill="grey"/>
   </g>
   <g id="cell3">
  <circle cx="1244.71" cy="1276.49" r="8.41271" stroke-width="0.5" stroke="black" fill="grey"/>
  <circle cx="1244.71" cy="1276.49" r="5.05167" stroke-width="0.5" stroke="grey" fill="grey"/>
   </g>
   <g id="cell4">
  <circle cx="877.273" cy="591.263" r="8.41271" stroke-width="0.5" stroke="black" fill="grey"/>
  <circle cx="877.273" cy="591.263" r="5.05167" stroke-width="0.5" stroke="grey" fill="grey"/>
   </g>
   <g id="cell5">
  <circle cx="116.78" cy="1916.47" r="8.41271" stroke-width="0.5" stroke="black" fill="grey"/>
  <circle cx="116.78" cy="1916.47" r="5.05167" stroke-width="0.5" stroke="grey" fill="grey"/>
   </g>
   <g id="cell6">
  <circle cx="768.746" cy="941.708" r="8.41271" stroke-width="0.5" stroke="black" fill="grey"/>
  <circle cx="768.746" cy="941.708" r="5.05167" stroke-width="0.5" stroke="grey" fill="grey"/>
   </g>
   <g id="cell7">
  <circle cx="1615.34" cy="1052.4" r="8.41271" stroke-width="0.5" stroke="black" fill="grey"/>
  <circle cx="1615.34" cy="1052.4" r="5.05167" stroke-width="0.5" stroke="grey" fill="grey"/>
   </g>
   <g id="cell8">
  <circle cx="1135.55" cy="783.743" r="8.57856" stroke-width="0.5" stroke="black" fill="grey"/>
  <circle cx="1135.55" cy="783.743" r="5.17461" stroke-width="0.5" stroke="grey" fill="grey"/>
   </g>
   <g id="cell9">
  <circle cx="1670.03" cy="145.123" r="8.41271" stroke-width="0.5" stroke="black" fill="grey"/>
  <circle cx="1670.03" cy="145.123" r="5.05167" stroke-width="0.5" stroke="grey" fill="grey"/>
   </g>
   <g id="cell10">
  <circle cx="176.091" cy="1293.93" r="8.41271" stroke-width="0.5" stroke="black" fill="grey"/>
  <circle cx="176.091" cy="1293.93" r="5.05167" stroke-width="0.5" stroke="grey" fill="grey"/>
   </g>
   <g id="cell11">
  <circle cx="733.659" cy="1653.1" r="8.41271" stroke-width="0.5" stroke="black" fill="grey"/>
  <circle cx="733.659" cy="1653.1" r="5.05167" stroke-width="0.5" stroke="grey" fill="grey"/>
   </g>
   <g id="cell12">
  <circle cx="1566.76" cy="274.591" r="8.41271" stroke-width="0.5" stroke="black" fill="grey"/>
  <circle cx="1566.76" cy="274.591" r="5.05167" stroke-width="0.5" stroke="grey" fill="grey"/>
   </g>
   <g id="cell13">
  <circle cx="1743.81" cy="1952.62" r="8.41271" stroke-width="0.5" stroke="black" fill="grey"/>
  <circle cx="1743.81" cy="1952.62" r="5.05167" stroke-width="0.5" stroke="grey" fill="grey"/>
   </g>
   <g id="cell14">
  <circle cx="1599.45" cy="1595.14" r="8.41271" stroke-width="0.5" stroke="black" fill="grey"/>
  <circle cx="1599.45" cy="1595.14" r="5.05167" stroke-width="0.5" stroke="grey" fill="grey"/>
   </g>
   <g id="cell15">
  <circle cx="1047.07" cy="1570.17" r="8.41271" stroke-width="0.5" stroke="black" fill="grey"/>
  <circle cx="1047.07" cy="1570.17" r="5.05167" stroke-width="0.5" stroke="grey" fill="grey"/>
   </g>
   <g id="cell16">
  <circle cx="225.724" cy="1433.24" r="8.41271" stroke-width="0.5" stroke="black" fill="grey"/>
  <circle cx="225.724" cy="1433.24" r="5.05167" stroke-width="0.5" stroke="grey" fill="grey"/>
   </g>
   <g id="cell17">
  <circle cx="1152.54" cy="286.329" r="8.41271" stroke-width="0.5" stroke="black" fill="grey"/>
  <circle cx="1152.54" cy="286.329" r="5.05167" stroke-width="0.5" stroke="grey" fill="grey"/>
   </g>
   <g id="cell18">
  <circle cx="1886.67" cy="1511.79" r="8.41271" stroke-width="0.5" stroke="black" fill="grey"/>
  <circle cx="1886.67" cy="1511.79" r="5.05167" stroke-width="0.5" stroke="grey" fill="grey"/>
   </g>
   <g id="cell19">
  <circle cx="213.304" cy="833.219" r="8.41271" stroke-width="0.5" stroke="black" fill="grey"/>
  <circle cx="213.304" cy="833.219" r="5.05167" stroke-width="0.5" stroke="grey" fill="grey"/>
   </g>
   <g id="cell20">
  <circle cx="530.632" cy="370.777" r="8.41271" stroke-width="0.5" stroke="black" fill="grey"/>
  <circle cx="530.632" cy="370.777" r="5.05167" stroke-width="0.5" stroke="grey" fill="grey"/>
   </g>
   <g id="cell21">
  <circle cx="1460.27" cy="912.608" r="8.41271" stroke-width="0.5" stroke="black" fill="grey"/>
  <circle cx="1460.27" cy="912.608" r="5.05167" stroke-width="0.5" stroke="grey" fill="grey"/>
   </g>
   <g id="cell22">
  <circle cx="1142.78" cy="266.749" r="8.41271" stroke-width="0.5" stroke="black" fill="grey"/>
  <circle cx="1142.78" cy="266.749" r="5.05167" stroke-width="0.5" stroke="grey" fill="grey"/>
   </g>
   <g id="cell23">
  <circle cx="650.447" cy="1243.05" r="8.45606" stroke-width="0.5" stroke="black" fill="grey"/>
  <circle cx="650.447" cy="1243.05" r="5.08296" stroke-width="0.5" stroke="grey" fill="grey"/>
   </g>
   <g id="cell24">
  <circle cx="1241.74" cy="434.297" r="8.41271" stroke-width="0.5" stroke="black" fill="grey"/>
  <circle cx="1241.74" cy="434.297" r="5.05167" stroke-width="0.5" stroke="grey" fill="grey"/>
   </g>
   <g id="cell25">
  <circle cx="790.914" cy="1877.26" r="8.57856" stroke-width="0.5" stroke="black" fill="grey"/>
  <circle cx="790.914" cy="1877.26" r="5.17461" stroke-width="0.5" stroke="grey" fill="grey"/>
   </g>
   <g id="cell26">
  <circle cx="1366.04" cy="904.632" r="8.41271" stroke-width="0.5" stroke="black" fill="grey"/>
  <circle cx="1366.04" cy="904.632" r="5.05167" stroke-width="0.5" stroke="grey" fill="grey"/>
   </g>
   <g id="cell27">
  <circle cx="1220.5" cy="875.611" r="8.41271" stroke-width="0.5" stroke="black" fill="grey"/>
  <circle cx="1220.5" cy="875.611" r="5.05167" stroke-width="0.5" stroke="grey" fill="grey"/>
   </g>
   <g id="cell28">
  <circle cx="1392.64" cy="205.745" r="8.41271" stroke-width="0.5" stroke="black" fill="grey"/>
  <circle cx="1392.64" cy="205.745" r="5.05167" stroke-width="0.5" stroke="grey" fill="grey"/>
   </g>
   <g id="cell29">
  <circle cx="1945.09" cy="1334.07" r="8.41271" stroke-width="0.5" stroke="black" fill="grey"/>
  <circle cx="1945.09" cy="1334.07" r="5.05167" stroke-width="0.5" stroke="grey" fill="grey"/>
   </g>
   <g id="cell30">
  <circle cx="1349.66" cy="331.729" r="8.41271" stroke-width="0.5" stroke="black" fill="grey"/>
  <circle cx="1349.66" cy="331.729" r="5.05167" stroke-width="0.5" stroke="grey" fill="grey"/>
   </g>
   <g id="cell31">
  <circle cx="704.705" cy="254.522" r="8.41271" stroke-width="0.5" stroke="black" fill="grey"/>
  <circle cx="704.705" cy="254.522" r="5.05167" stroke-width="0.5" stroke="grey" fill="grey"/>
   </g>
   <g id="cell32">
  <circle cx="625.057" cy="1210.34" r="8.41271" stroke-width="0.5" stroke="black" fill="grey"/>
  <circle cx="625.057" cy="1210.34" r="5.05167" stroke-width="0.5" stroke="grey" fill="grey"/>
   </g>
   <g id="cell33">
  <circle cx="647.085" cy="1147.39" r="8.41271" stroke-width="0.5" stroke="black" fill="grey"/>
  <circle cx="647.085" cy="1147.39" r="5.05167" stroke-width="0.5" stroke="grey" fill="grey"/>
   </g>
   <g id="cell34">
  <circle cx="878.984" cy="1256.82" r="8.54454" stroke-width="0.5" stroke="black" fill="grey"/>
  <circle cx="878.984" cy="1256.82" r="5.14947" stroke-width="0.5" stroke="grey" fill="grey"/>
   </g>
   <g id="cell35">
  <circle cx="1915.49" cy="203.631" r="8.41271" stroke-width="0.5" stroke="black" fill="grey"/>
  <circle cx="1915.49" cy="203.631" r="5.05167" stroke-width="0.5" stroke="grey" fill="grey"/>
   </g>
   <g id="cell36">
  <circle cx="423.125" cy="1269.83" r="8.41271" stroke-width="0.5" stroke="black" fill="grey"/>
  <circle cx="423.125" cy="1269.83" r="5.05167" stroke-width="0.5" stroke="grey" fill="grey"/>
   </g>
   <g id="cell37">
  <circle cx="1990.01" cy="1299.98" r="8.41271" stroke-width="0.5" stroke="black" fill="grey"/>
  <circle cx="1990.01" cy="1299.98" r="5.05167" stroke-width="0.5" stroke="grey" fill="grey"/>
   </g>
   <g id="cell38">
  <circle cx="511.392" cy="834.165" r="8.41271" stroke-width="0.5" stroke="black" fill="grey"/>
  <circle cx="511.392" cy="834.165" r="5.05167" stroke-width="0.5" stroke="grey" fill="grey"/>
   </g>
   <g id="cell39">
  <circle cx="947.83" cy="478.934" r="8.41271" stroke-width="0.5" stroke="black" fill="grey"/>
  <circle cx="947.83" cy="478.934" r="5.05167" stroke-width="0.5" stroke="grey" fill="grey"/>
   </g>
   <g id="cell40">
  <circle cx="316.033" cy="667.521" r="8.41271" stroke-width="0.5" stroke="black" fill="grey"/>
  <circle cx="316.033" cy="667.521" r="5.05167" stroke-width="0.5" stroke="grey" fill="grey"/>
   </g>
   <g id="cell41">
  <circle cx="1343.77" cy="1303.75" r="8.65127" stroke-width="0.5" stroke="black" fill="grey"/>
  <circle cx="1343.77" cy="1303.75" r="5.2272" stroke-width="0.5" stroke="grey" fill="grey"/>
   </g>
   <g id="cell42">
  <circle cx="276.878" cy="1559.39" r="8.41271" stroke-width="0.5" stroke="black" fill="grey"/>
  <circle cx="276.878" cy="1559.39" r="5.05167" stroke-width="0.5" stroke="grey" fill="grey"/>
   </g>
   <g id="cell43">
  <circle cx="1904.28" cy="734.487" r="8.41271" stroke-width="0.5" stroke="black" fill="grey"/>
  <circle cx="1904.28" cy="734.487" r="5.05167" stroke-width="0.5" stroke="grey" fill="grey"/>
   </g>
   <g id="cell44">
  <circle cx="1639.4" cy="37.195" r="8.41271" stroke-width="0.5" stroke="black" fill="grey"/>
  <circle cx="1639.4" cy="37.195" r="5.05167" stroke-width="0.5" stroke="grey" fill="grey"/>
   </g>
   <g id="cell45">
  <circle cx="1256.57" cy="1687.08" r="8.41271" stroke-width="0.5" stroke="black" fill="grey"/>
  <circle cx="1256.57" cy="1687.08" r="5.05167" stroke-width="0.5" stroke="grey" fill="grey"/>
   </g>
   <g id="cell46">
  <circle cx="181.736" cy="1946.27" r="8.41271" stroke-width="0.5" stroke="black" fill="grey"/>
  <circle cx="181.736" cy="1946.27" r="5.05167" stroke-width="0.5" stroke="grey" fill="grey"/>
   </g>
   <g id="cell47">
  <circle cx="1757.18" cy="938.674" r="8.51252" stroke-width="0.5" stroke="black" fill="grey"/>
  <circle cx="1757.18" cy="938.674" r="5.12552" stroke-width="0.5" stroke="grey" fill="grey"/>
   </g>
   <g id="cell48">
  <circle cx="1950.22" cy="126.247" r="8.41271" stroke-width="0.5" stroke="black" fill="grey"/>
  <circle cx="1950.22" cy="126.247" r="5.05167" stroke-width="0.5" stroke="grey" fill="grey"/>
   </g>
   <g id="cell49">
  <circle cx="908.981" cy="1471.59" r="8.41271" stroke-width="0.5" stroke="black" fill="grey"/>
  <circle cx="908.981" cy="1471.59" r="5.05167" stroke-width="0.5" stroke="grey" fill="grey"/>
   </g>
   <g id="cell50">
  <circle cx="79.2189" cy="886.878" r="8.41271" stroke-width="0.5" stroke="black" fill="red"/>
  <circle cx="79.2189" cy="886.878" r="5.05167" stroke-width="0.5" stroke="red" fill="red"/>
   </g>
   <g id="cell51">
  <circle cx="1959.19" cy="247.217" r="8.41271" stroke-width="0.5" stroke="black" fill="red"/>
  <circle cx="1959.19" cy="247.217" r="5.05167" stroke-width="0.5" stroke="red" fill="red"/>
   </g>
   <g id="cell52">
  <circle cx="591.098" cy="955.923" r="8.41271" stroke-width="0.5" stroke="black" fill="red"/>
  <circle cx="591.098" cy="955.923" r="5.05167" stroke-width="0.5" stroke="red" fill="red"/>
   </g>
   <g id="cell53">
  <circle cx="1381.31" cy="636.962" r="8.41271" stroke-width="0.5" stroke="black" fill="red"/>
  <circle cx="1381.31" cy="636.962" r="5.05167" stroke-width="0.5" stroke="red" fill="red"/>
   </g>
   <g id="cell54">
  <circle cx="824.167" cy="1832.01" r="8.41271" stroke-width="0.5" stroke="black" fill="red"/>
  <circle cx="824.167" cy="1832.01" r="5.05167" stroke-width="0.5" stroke="red" fill="red"/>
   </g>
   <g id="cell55">
  <circle cx="438.977" cy="1387.14" r="8.41271" stroke-width="0.5" stroke="black" fill="red"/>
  <circle cx="438.977" cy="1387.14" r="5.05167" stroke-width="0.5" stroke="red" fill="red"/>
   </g>
   <g id="cell56">
  <circle cx="1136.17" cy="1719.9" r="8.41271" stroke-width="0.5" stroke="black" fill="red"/>
  <circle cx="1136.17" cy="1719.9" r="5.05167" stroke-width="0.5" stroke="red" fill="red"/>
   </g>
   <g id="cell57">
  <circle cx="1018.39" cy="1050.61" r="8.4325" stroke-width="0.5" stroke="black" fill="red"/>
  <circle cx="1018.39" cy="1050.61" r="5.06552" stroke-width="0.5" stroke="red" fill="red"/>
   </g>
   <g id="cell58">
  <circle cx="187.722" cy="1838.04" r="8.41271" stroke-width="0.5" stroke="black" fill="red"/>
  <circle cx="187.722" cy="1838.04" r="5.05167" stroke-width="0.5" stroke="red" fill="red"/>
   </g>
   <g id="cell59">
  <circle cx="166.225" cy="1858.59" r="4.64437" stroke-width="0.5" stroke="black" fill="red"/>
  <circle cx="166.225" cy="1858.59" r="3.17578" stroke-width="0.5" stroke="black" fill="black"/>
   </g>
   <g id="cell60">
  <circle cx="643.611" cy="21.9182" r="8.41271" stroke-width="0.5" stroke="black" fill="red"/>
  <circle cx="643.611" cy="21.9182" r="5.05167" stroke-width="0.5" stroke="red" fill="red"/>
   </g>
   <g id="cell61">
  <circle cx="1681.99" cy="261.663" r="8.41271" stroke-width="0.5" stroke="black" fill="red"/>
  <circle cx="1681.99" cy="261.663" r="5.05167" stroke-width="0.5" stroke="red" fill="red"/>
   </g>
   <g id="cell62">
  <circle cx="1431.79" cy="1689.86" r="8.41271" stroke-width="0.5" stroke="black" fill="red"/>
  <circle cx="1431.79" cy="1689.86" r="5.05167" stroke-width="0.5" stroke="red" fill="red"/>
   </g>
   <g id="cell63">
  <circle cx="544.541" cy="356.222" r="8.41271" stroke-width="0.5" stroke="black" fill="red"/>
  <circle cx="544.541" cy="356.222" r="5.05167" stroke-width="0.5" stroke="red" fill="red"/>
   </g>
   <g id="cell64">
  <circle cx="1177.71" cy="1109.46" r="8.41271" stroke-width="0.5" stroke="black" fill="red"/>
  <circle cx="1177.71" cy="1109.46" r="5.05167" stroke-width="0.5" stroke="red" fill="red"/>
   </g>
   <g id="cell65">
  <circle cx="327.088" cy="1657.27" r="8.41271" stroke-width="0.5" stroke="black" fill="red"/>
  <circle cx="327.088" cy="1657.27" r="5.05167" stroke-width="0.5" stroke="red" fill="red"/>
   </g>
   <g id="cell66">
  <circle cx="9.35923" cy="293.871" r="8.41271" stroke-width="0.5" stroke="black" fill="red"/>
  <circle cx="9.35923" cy="293.871" r="5.05167" stroke-width="0.5" stroke="red" fill="red"/>
   </g>
   <g id="cell67">
  <circle cx="1146.45" cy="529.67" r="8.41271" stroke-width="0.5" stroke="black" fill="red"/>
  <circle cx="1146.45" cy="529.67" r="5.05167" stroke-width="0.5" stroke="red" fill="red"/>
   </g>
   <g id="cell68">
  <circle cx="1460.77" cy="577.198" r="8.41271" stroke-width="0.5" stroke="black" fill="red"/>
  <circle cx="1460.77" cy="577.198" r="5.05167" stroke-width="0.5" stroke="red" fill="red"/>
   </g>
   <g id="cell69">
  <circle cx="869.5" cy="506.553" r="8.41271" stroke-width="0.5" stroke="black" fill="red"/>
  <circle cx="869.5" cy="506.553" r="5.05167" stroke-width="0.5" stroke="red" fill="red"/>
   </g>
   <g id="cell70">
  <circle cx="1159.61" cy="798.629" r="8.41271" stroke-width="0.5" stroke="black" fill="red"/>
  <circle cx="1159.61" cy="798.629" r="5.05167" stroke-width="0.5" stroke="red" fill="red"/>
   </g>
   <g id="cell71">
  <circle cx="1785.84" cy="1146.36" r="8.48289" stroke-width="0.5" stroke="black" fill="red"/>
  <circle cx="1785.84" cy="1146.36" r="5.10317" stroke-width="0.5" stroke="red" fill="red"/>
   </g>
   <g id="cell72">
  <circle cx="435.694" cy="1777.22" r="8.41271" stroke-width="0.5" stroke="black" fill="red"/>
  <circle cx="435.694" cy="1777.22" r="5.05167" stroke-width="0.5" stroke="red" fill="red"/>
   </g>
   <g id="cell73">
  <circle cx="1352.97" cy="888.319" r="8.41271" stroke-width="0.5" stroke="black" fill="red"/>
  <circle cx="1352.97" cy="888.319" r="5.05167" stroke-width="0.5" stroke="red" fill="red"/>
   </g>
   <g id="cell74">
  <circle cx="1685.62" cy="1954.78" r="8.41271" stroke-width="0.5" stroke="black" fill="red"/>
  <circle cx="1685.62" cy="1954.78" r="5.05167" stroke-width="0.5" stroke="red" fill="red"/>
   </g>
   <g id="cell75">
  <circle cx="222.749" cy="591.416" r="8.41271" stroke-width="0.5" stroke="black" fill="red"/>
  <circle cx="222.749" cy="591.416" r="5.05167" stroke-width="0.5" stroke="red" fill="red"/>
   </g>
   <g id="cell76">
  <circle cx="1634.36" cy="820.719" r="8.41271" stroke-width="0.5" stroke="black" fill="red"/>
  <circle cx="1634.36" cy="820.719" r="5.05167" stroke-width="0.5" stroke="red" fill="red"/>
   </g>
   <g id="cell77">
  <circle cx="1347.4" cy="1757.13" r="8.41271" stroke-width="0.5" stroke="black" fill="red"/>
  <circle cx="1347.4" cy="1757.13" r="5.05167" stroke-width="0.5" stroke="red" fill="red"/>
   </g>
   <g id="cell78">
  <circle cx="1165.04" cy="623.224" r="8.41271" stroke-width="0.5" stroke="black" fill="red"/>
  <circle cx="1165.04" cy="623.224" r="5.05167" stroke-width="0.5" stroke="red" fill="red"/>
   </g>
   <g id="cell79">
  <circle cx="1939.7" cy="1392.48" r="8.41271" stroke-width="0.5" stroke="black" fill="red"/>
  <circle cx="1939.7" cy="1392.48" r="5.05167" stroke-width="0.5" stroke="red" fill="red"/>
   </g>
   <g id="cell80">
  <circle cx="1447.74" cy="1328.42" r="8.41271" stroke-width="0.5" stroke="black" fill="red"/>
  <circle cx="1447.74" cy="1328.42" r="5.05167" stroke-width="0.5" stroke="red" fill="red"/>
   </g>
   <g id="cell81">
  <circle cx="1063.51" cy="1907.36" r="8.41271" stroke-width="0.5" stroke="black" fill="red"/>
  <circle cx="1063.51" cy="1907.36" r="5.05167" stroke-width="0.5" stroke="red" fill="red"/>
   </g>
   <g id="cell82">
  <circle cx="1295.41" cy="795.421" r="8.41271" stroke-width="0.5" stroke="black" fill="red"/>
  <circle cx="1295.41" cy="795.421" r="5.05167" stroke-width="0.5" stroke="red" fill="red"/>
   </g>
   <g id="cell83">
  <circle cx="1236" cy="1221.42" r="8.57856" stroke-width="0.5" stroke="black" fill="red"/>
  <circle cx="1236" cy="1221.42" r="5.17461" stroke-width="0.5" stroke="red" fill="red"/>
   </g>
   <g id="cell84">
  <circle cx="38.4347" cy="943.775" r="8.41271" stroke-width="0.5" stroke="black" fill="red"/>
  <circle cx="38.4347" cy="943.775" r="5.05167" stroke-width="0.5" stroke="red" fill="red"/>
   </g>
   <g id="cell85">
  <circle cx="1432.31" cy="1327.16" r="8.41271" stroke-width="0.5" stroke="black" fill="red"/>
  <circle cx="1432.31" cy="1327.16" r="5.05167" stroke-width="0.5" stroke="red" fill="red"/>
   </g>
   <g id="cell86">
  <circle cx="580.721" cy="777.244" r="8.41271" stroke-width="0.5" stroke="black" fill="red"/>
  <circle cx="580.721" cy="777.244" r="5.05167" stroke-width="0.5" stroke="red" fill="red"/>
   </g>
   <g id="cell87">
  <circle cx="1504.34" cy="860.423" r="8.41271" stroke-width="0.5" stroke="black" fill="red"/>
  <circle cx="1504.34" cy="860.423" r="5.05167" stroke-width="0.5" stroke="red" fill="red"/>
   </g>
   <g id="cell88">
  <circle cx="270.541" cy="213.706" r="8.41271" stroke-width="0.5" stroke="black" fill="red"/>
  <circle cx="270.541" cy="213.706" r="5.05167" stroke-width="0.5" stroke="red" fill="red"/>
   </g>
   <g id="cell89">
  <circle cx="191.78" cy="1137.17" r="8.41271" stroke-width="0.5" stroke="black" fill="red"/>
  <circle cx="191.78" cy="1137.17" r="5.05167" stroke-width="0.5" stroke="red" fill="red"/>
   </g>
   <g id="cell90">
  <circle cx="1183.93" cy="1095.73" r="8.41271" stroke-width="0.5" stroke="black" fill="red"/>
  <circle cx="1183.93" cy="1095.73" r="5.05167" stroke-width="0.5" stroke="red" fill="red"/>
   </g>
   <g id="cell91">
  <circle cx="54.5211" cy="1301.1" r="8.41271" stroke-width="0.5" stroke="black" fill="red"/>
  <circle cx="54.5211" cy="1301.1" r="5.05167" stroke-width="0.5" stroke="red" fill="red"/>
   </g>
   <g id="cell92">
  <circle cx="1304.21" cy="641.994" r="4.64437" stroke-width="0.5" stroke="black" fill="red"/>
  <circle cx="1304.21" cy="641.994" r="3.17578" stroke-width="0.5" stroke="black" fill="black"/>
   </g>
   <g id="cell93">
  <circle cx="442.403" cy="1799.12" r="8.54454" stroke-width="0.5" stroke="black" fill="red"/>
  <circle cx="442.403" cy="1799.12" r="5.14947" stroke-width="0.5" stroke="red" fill="red"/>
   </g>
   <g id="cell94">
  <circle cx="734.732" cy="193.41" r="8.41271" stroke-width="0.5" stroke="black" fill="red"/>
  <circle cx="734.732" cy="193.41" r="5.05167" stroke-width="0.5" stroke="red" fill="red"/>
   </g>
   <g id="cell95">
  <circle cx="1973.15" cy="1779.93" r="8.4325" stroke-width="0.5" stroke="black" fill="red"/>
  <circle cx="1973.15" cy="1779.93" r="5.06552" stroke-width="0.5" stroke="red" fill="red"/>
   </g>
   <g id="cell96">
  <circle cx="1618.18" cy="1074.18" r="8.41271" stroke-width="0.5" stroke="black" fill="red"/>
  <circle cx="1618.18" cy="1074.18" r="5.05167" stroke-width="0.5" stroke="red" fill="red"/>
   </g>
   <g id="cell97">
  <circle cx="908.328" cy="194.613" r="8.41271" stroke-width="0.5" stroke="black" fill="red"/>
  <circle cx="908.328" cy="194.613" r="5.05167" stroke-width="0.5" stroke="red" fill="red"/>
   </g>
   <g id="cell98">
  <circle cx="1834.36" cy="714.423" r="8.41271" stroke-width="0.5" stroke="black" fill="red"/>
  <circle cx="1834.36" cy="714.423" r="5.05167" stroke-width="0.5" stroke="red" fill="red"/>
   </g>
   <g id="cell99">
  <circle cx="943.986" cy="1989.33" r="8.45606" stroke-width="0.5" stroke="black" fill="red"/>
  <circle cx="943.986" cy="1989.33" r="5.08296" stroke-width="0.5" stroke="red" fill="red"/>
   </g>
  </g>
 </g>
  <rect x="1750" y="2070" width="200" height="20" stroke-width="4" stroke="rgb(255,255,255)" fill="rgb(0,0,0)"/>
  <text x="1762.5" y="2057.5"
   font-family="Arial" font-size="50" fill="black" >
   200 &#956;m
  </text>
  <text x="50" y="2090"
   font-family="Arial" font-size="37.5" fill="black" >
   0 days, 0 hours, 0 minutes, and 1.2240 seconds
  </text>
  <rect x="0" y="140" width="2000" height="2000" stroke-width="4" stroke="rgb(0,0,0)" fill="none"/>
</svg>
