<?xml version="1.0" encoding="UTF-8" standalone="no"?>
<!-- Created with PhysiCell (http://PhysiCell.MathCancer.org/) -->
<svg 
 xmlns:dc="http://purl.org/dc/elements/1.1/" 
 xmlns:cc="http://creativecommons.org/ns#" 
 xmlns:rdf="http://www.w3.org/1999/02/22-rdf-syntax-ns#" 
 xmlns:svg="http://www.w3.org/2000/svg" 
 xmlns="http://www.w3.org/2000/svg" 
 version="1.1" 
 width="2000" 
 height="2140" 
 id="svg2">
  <rect x="0" y="0" width="2000" height="2140" stroke-width="4" stroke="white" fill="white"/>
  <text x="25" y="60"
   font-family="Arial" font-size="50" fill="black" >
   Current time: 0 days, 10 hours, and 0.00 minutes, z = 0.00 &#956;m
  </text>
  <text x="25" y="115"
   font-family="Arial" font-size="47.5" fill="black" >
   100 agents
  </text>
 <g id="tissue" 
    transform="translate(0,2140) scale(1,-1)">
  <g id="ECM">
  </g>
  <g id="cells">
   <g id="cell0">
  <circle cx="1117.81" cy="1154.32" r="10.1098" stroke-width="0.5" stroke="black" fill="grey"/>
  <circle cx="1117.81" cy="1154.32" r="6.12585" stroke-width="0.5" stroke="grey" fill="grey"/>
   </g>
   <g id="cell1">
  <circle cx="1699.61" cy="1162.74" r="9.86542" stroke-width="0.5" stroke="black" fill="grey"/>
  <circle cx="1699.61" cy="1162.74" r="5.98895" stroke-width="0.5" stroke="grey" fill="grey"/>
   </g>
   <g id="cell2">
  <circle cx="1142.82" cy="1702.96" r="10.2728" stroke-width="0.5" stroke="black" fill="grey"/>
  <circle cx="1142.82" cy="1702.96" r="6.21295" stroke-width="0.5" stroke="grey" fill="grey"/>
   </g>
   <g id="cell3">
  <circle cx="1229.49" cy="1284.59" r="10.4208" stroke-width="0.5" stroke="black" fill="grey"/>
  <circle cx="1229.49" cy="1284.59" r="6.28762" stroke-width="0.5" stroke="grey" fill="grey"/>
   </g>
   <g id="cell4">
  <circle cx="843.025" cy="616.262" r="10.3247" stroke-width="0.5" stroke="black" fill="grey"/>
  <circle cx="843.025" cy="616.262" r="6.23971" stroke-width="0.5" stroke="grey" fill="grey"/>
   </g>
   <g id="cell5">
  <circle cx="93.4175" cy="1956.56" r="8.88811" stroke-width="0.5" stroke="black" fill="grey"/>
  <circle cx="93.4175" cy="1956.56" r="5.38958" stroke-width="0.5" stroke="grey" fill="grey"/>
   </g>
   <g id="cell6">
  <circle cx="784.724" cy="911.216" r="10.1879" stroke-width="0.5" stroke="black" fill="grey"/>
  <circle cx="784.724" cy="911.216" r="6.16807" stroke-width="0.5" stroke="grey" fill="grey"/>
   </g>
   <g id="cell7">
  <circle cx="1641.74" cy="1071.55" r="10.3166" stroke-width="0.5" stroke="black" fill="grey"/>
  <circle cx="1641.74" cy="1071.55" r="6.23561" stroke-width="0.5" stroke="grey" fill="grey"/>
   </g>
   <g id="cell8">
  <circle cx="1126.89" cy="783.481" r="10.1996" stroke-width="0.5" stroke="black" fill="grey"/>
  <circle cx="1126.89" cy="783.481" r="6.17434" stroke-width="0.5" stroke="grey" fill="grey"/>
   </g>
   <g id="cell9">
  <circle cx="1711.48" cy="134.794" r="9.62199" stroke-width="0.5" stroke="black" fill="grey"/>
  <circle cx="1711.48" cy="134.794" r="5.8471" stroke-width="0.5" stroke="grey" fill="grey"/>
   </g>
   <g id="cell10">
  <circle cx="168.263" cy="1282.64" r="10.4048" stroke-width="0.5" stroke="black" fill="grey"/>
  <circle cx="168.263" cy="1282.64" r="6.27981" stroke-width="0.5" stroke="grey" fill="grey"/>
   </g>
   <g id="cell11">
  <circle cx="701.359" cy="1689.87" r="10.1238" stroke-width="0.5" stroke="black" fill="grey"/>
  <circle cx="701.359" cy="1689.87" r="6.13347" stroke-width="0.5" stroke="grey" fill="grey"/>
   </g>
   <g id="cell12">
  <circle cx="1535.01" cy="336.256" r="10.2821" stroke-width="0.5" stroke="black" fill="grey"/>
  <circle cx="1535.01" cy="336.256" r="6.21778" stroke-width="0.5" stroke="grey" fill="grey"/>
   </g>
   <g id="cell13">
  <circle cx="1756.95" cy="1961.81" r="9.30826" stroke-width="0.5" stroke="black" fill="grey"/>
  <circle cx="1756.95" cy="1961.81" r="5.65742" stroke-width="0.5" stroke="grey" fill="grey"/>
   </g>
   <g id="cell14">
  <circle cx="1578.08" cy="1580.85" r="10.0806" stroke-width="0.5" stroke="black" fill="grey"/>
  <circle cx="1578.08" cy="1580.85" r="6.10985" stroke-width="0.5" stroke="grey" fill="grey"/>
   </g>
   <g id="cell15">
  <circle cx="1037.38" cy="1594.33" r="10.3991" stroke-width="0.5" stroke="black" fill="grey"/>
  <circle cx="1037.38" cy="1594.33" r="6.27703" stroke-width="0.5" stroke="grey" fill="grey"/>
   </g>
   <g id="cell16">
  <circle cx="243.026" cy="1463.25" r="10.3991" stroke-width="0.5" stroke="black" fill="grey"/>
  <circle cx="243.026" cy="1463.25" r="6.27703" stroke-width="0.5" stroke="grey" fill="grey"/>
   </g>
   <g id="cell17">
  <circle cx="1158.16" cy="303.296" r="10.3991" stroke-width="0.5" stroke="black" fill="grey"/>
  <circle cx="1158.16" cy="303.296" r="6.27703" stroke-width="0.5" stroke="grey" fill="grey"/>
   </g>
   <g id="cell18">
  <circle cx="1870.26" cy="1543.95" r="8.41271" stroke-width="0.5" stroke="black" fill="grey"/>
  <circle cx="1870.26" cy="1543.95" r="5.05167" stroke-width="0.5" stroke="grey" fill="grey"/>
   </g>
   <g id="cell19">
  <circle cx="210.333" cy="851.544" r="8.41271" stroke-width="0.5" stroke="black" fill="grey"/>
  <circle cx="210.333" cy="851.544" r="5.05167" stroke-width="0.5" stroke="grey" fill="grey"/>
   </g>
   <g id="cell20">
  <circle cx="550.477" cy="355.623" r="10.3545" stroke-width="0.5" stroke="black" fill="grey"/>
  <circle cx="550.477" cy="355.623" r="6.25485" stroke-width="0.5" stroke="grey" fill="grey"/>
   </g>
   <g id="cell21">
  <circle cx="1452.39" cy="911.203" r="10.1879" stroke-width="0.5" stroke="black" fill="grey"/>
  <circle cx="1452.39" cy="911.203" r="6.16807" stroke-width="0.5" stroke="grey" fill="grey"/>
   </g>
   <g id="cell22">
  <circle cx="1171.86" cy="241.383" r="10.3873" stroke-width="0.5" stroke="black" fill="grey"/>
  <circle cx="1171.86" cy="241.383" r="6.2712" stroke-width="0.5" stroke="grey" fill="grey"/>
   </g>
   <g id="cell23">
  <circle cx="641.918" cy="1210.46" r="10.3615" stroke-width="0.5" stroke="black" fill="grey"/>
  <circle cx="641.918" cy="1210.46" r="6.25834" stroke-width="0.5" stroke="grey" fill="grey"/>
   </g>
   <g id="cell24">
  <circle cx="1233.49" cy="441.016" r="1.56818" stroke-width="0.5" stroke="black" fill="grey"/>
  <circle cx="1233.49" cy="441.016" r="1.54219" stroke-width="0.5" stroke="black" fill="black"/>
   </g>
   <g id="cell25">
  <circle cx="743.684" cy="1901.19" r="10.3682" stroke-width="0.5" stroke="black" fill="grey"/>
  <circle cx="743.684" cy="1901.19" r="6.26172" stroke-width="0.5" stroke="grey" fill="grey"/>
   </g>
   <g id="cell26">
  <circle cx="1383.69" cy="916.37" r="9.04745" stroke-width="0.5" stroke="black" fill="grey"/>
  <circle cx="1383.69" cy="916.37" r="5.49345" stroke-width="0.5" stroke="grey" fill="grey"/>
   </g>
   <g id="cell27">
  <circle cx="1233.3" cy="837.656" r="10.3166" stroke-width="0.5" stroke="black" fill="grey"/>
  <circle cx="1233.3" cy="837.656" r="6.23561" stroke-width="0.5" stroke="grey" fill="grey"/>
   </g>
   <g id="cell28">
  <circle cx="1392.16" cy="204.125" r="10.4156" stroke-width="0.5" stroke="black" fill="grey"/>
  <circle cx="1392.16" cy="204.125" r="6.2851" stroke-width="0.5" stroke="grey" fill="grey"/>
   </g>
   <g id="cell29">
  <circle cx="1926.35" cy="1330.87" r="10.4156" stroke-width="0.5" stroke="black" fill="grey"/>
  <circle cx="1926.35" cy="1330.87" r="6.2851" stroke-width="0.5" stroke="grey" fill="grey"/>
   </g>
   <g id="cell30">
  <circle cx="1355.71" cy="365.99" r="9.41008" stroke-width="0.5" stroke="black" fill="grey"/>
  <circle cx="1355.71" cy="365.99" r="5.71981" stroke-width="0.5" stroke="grey" fill="grey"/>
   </g>
   <g id="cell31">
  <circle cx="723.186" cy="284.514" r="10.0654" stroke-width="0.5" stroke="black" fill="grey"/>
  <circle cx="723.186" cy="284.514" r="6.10145" stroke-width="0.5" stroke="grey" fill="grey"/>
   </g>
   <g id="cell32">
  <circle cx="687.346" cy="1201.69" r="10.4446" stroke-width="0.5" stroke="black" fill="grey"/>
  <circle cx="687.346" cy="1201.69" r="6.29905" stroke-width="0.5" stroke="grey" fill="grey"/>
   </g>
   <g id="cell33">
  <circle cx="632.557" cy="1151.13" r="9.62199" stroke-width="0.5" stroke="black" fill="grey"/>
  <circle cx="632.557" cy="1151.13" r="5.8471" stroke-width="0.5" stroke="grey" fill="grey"/>
   </g>
   <g id="cell34">
  <circle cx="852.459" cy="1296.82" r="10.1374" stroke-width="0.5" stroke="black" fill="grey"/>
  <circle cx="852.459" cy="1296.82" r="6.14084" stroke-width="0.5" stroke="grey" fill="grey"/>
   </g>
   <g id="cell35">
  <circle cx="1907.19" cy="179.132" r="9.70201" stroke-width="0.5" stroke="black" fill="grey"/>
  <circle cx="1907.19" cy="179.132" r="5.89426" stroke-width="0.5" stroke="grey" fill="grey"/>
   </g>
   <g id="cell36">
  <circle cx="415.602" cy="1258.61" r="10.3615" stroke-width="0.5" stroke="black" fill="grey"/>
  <circle cx="415.602" cy="1258.61" r="6.25834" stroke-width="0.5" stroke="grey" fill="grey"/>
   </g>
   <g id="cell37">
  <circle cx="1977.8" cy="1379.64" r="10.2534" stroke-width="0.5" stroke="black" fill="grey"/>
  <circle cx="1977.8" cy="1379.64" r="6.2028" stroke-width="0.5" stroke="grey" fill="grey"/>
   </g>
   <g id="cell38">
  <circle cx="515.825" cy="859.188" r="8.41271" stroke-width="0.5" stroke="black" fill="grey"/>
  <circle cx="515.825" cy="859.188" r="5.05167" stroke-width="0.5" stroke="grey" fill="grey"/>
   </g>
   <g id="cell39">
  <circle cx="907.356" cy="488.297" r="10.2821" stroke-width="0.5" stroke="black" fill="grey"/>
  <circle cx="907.356" cy="488.297" r="6.21778" stroke-width="0.5" stroke="grey" fill="grey"/>
   </g>
   <g id="cell40">
  <circle cx="330.235" cy="671.216" r="10.2728" stroke-width="0.5" stroke="black" fill="grey"/>
  <circle cx="330.235" cy="671.216" r="6.21295" stroke-width="0.5" stroke="grey" fill="grey"/>
   </g>
   <g id="cell41">
  <circle cx="1339.15" cy="1316.77" r="9.99984" stroke-width="0.5" stroke="black" fill="grey"/>
  <circle cx="1339.15" cy="1316.77" r="6.06503" stroke-width="0.5" stroke="grey" fill="grey"/>
   </g>
   <g id="cell42">
  <circle cx="234.99" cy="1569.69" r="8.41271" stroke-width="0.5" stroke="black" fill="grey"/>
  <circle cx="234.99" cy="1569.69" r="5.05167" stroke-width="0.5" stroke="grey" fill="grey"/>
   </g>
   <g id="cell43">
  <circle cx="1875.37" cy="730.069" r="8.41271" stroke-width="0.5" stroke="black" fill="grey"/>
  <circle cx="1875.37" cy="730.069" r="5.05167" stroke-width="0.5" stroke="grey" fill="grey"/>
   </g>
   <g id="cell44">
  <circle cx="1647.11" cy="55.9426" r="10.2221" stroke-width="0.5" stroke="black" fill="grey"/>
  <circle cx="1647.11" cy="55.9426" r="6.18628" stroke-width="0.5" stroke="grey" fill="grey"/>
   </g>
   <g id="cell45">
  <circle cx="1212.03" cy="1659.59" r="8.41271" stroke-width="0.5" stroke="black" fill="grey"/>
  <circle cx="1212.03" cy="1659.59" r="5.05167" stroke-width="0.5" stroke="grey" fill="grey"/>
   </g>
   <g id="cell46">
  <circle cx="181.204" cy="1884.48" r="9.62199" stroke-width="0.5" stroke="black" fill="grey"/>
  <circle cx="181.204" cy="1884.48" r="5.8471" stroke-width="0.5" stroke="grey" fill="grey"/>
   </g>
   <g id="cell47">
  <circle cx="1761.48" cy="966.375" r="10.3682" stroke-width="0.5" stroke="black" fill="grey"/>
  <circle cx="1761.48" cy="966.375" r="6.26172" stroke-width="0.5" stroke="grey" fill="grey"/>
   </g>
   <g id="cell48">
  <circle cx="1972.33" cy="102.798" r="10.3873" stroke-width="0.5" stroke="black" fill="grey"/>
  <circle cx="1972.33" cy="102.798" r="6.2712" stroke-width="0.5" stroke="grey" fill="grey"/>
   </g>
   <g id="cell49">
  <circle cx="846.603" cy="1480.02" r="10.4307" stroke-width="0.5" stroke="black" fill="grey"/>
  <circle cx="846.603" cy="1480.02" r="6.29241" stroke-width="0.5" stroke="grey" fill="grey"/>
   </g>
   <g id="cell50">
  <circle cx="83.926" cy="904.865" r="10.4446" stroke-width="0.5" stroke="black" fill="red"/>
  <circle cx="83.926" cy="904.865" r="6.29905" stroke-width="0.5" stroke="red" fill="red"/>
   </g>
   <g id="cell51">
  <circle cx="1962.1" cy="254.962" r="9.37686" stroke-width="0.5" stroke="black" fill="red"/>
  <circle cx="1962.1" cy="254.962" r="5.69955" stroke-width="0.5" stroke="red" fill="red"/>
   </g>
   <g id="cell52">
  <circle cx="592.18" cy="993.429" r="10.2328" stroke-width="0.5" stroke="black" fill="red"/>
  <circle cx="592.18" cy="993.429" r="6.19197" stroke-width="0.5" stroke="red" fill="red"/>
   </g>
   <g id="cell53">
  <circle cx="1343.93" cy="594.21" r="10.4258" stroke-width="0.5" stroke="black" fill="red"/>
  <circle cx="1343.93" cy="594.21" r="6.29005" stroke-width="0.5" stroke="red" fill="red"/>
   </g>
   <g id="cell54">
  <circle cx="782.7" cy="1834.94" r="10.4446" stroke-width="0.5" stroke="black" fill="red"/>
  <circle cx="782.7" cy="1834.94" r="6.29905" stroke-width="0.5" stroke="red" fill="red"/>
   </g>
   <g id="cell55">
  <circle cx="421.07" cy="1393.62" r="10.3615" stroke-width="0.5" stroke="black" fill="red"/>
  <circle cx="421.07" cy="1393.62" r="6.25834" stroke-width="0.5" stroke="red" fill="red"/>
   </g>
   <g id="cell56">
  <circle cx="1158.67" cy="1686.62" r="8.9283" stroke-width="0.5" stroke="black" fill="red"/>
  <circle cx="1158.67" cy="1686.62" r="5.4161" stroke-width="0.5" stroke="red" fill="red"/>
   </g>
   <g id="cell57">
  <circle cx="1021.66" cy="1041.12" r="8.41271" stroke-width="0.5" stroke="black" fill="red"/>
  <circle cx="1021.66" cy="1041.12" r="5.05167" stroke-width="0.5" stroke="red" fill="red"/>
   </g>
   <g id="cell58">
  <circle cx="177.706" cy="1800.14" r="10.3474" stroke-width="0.5" stroke="black" fill="red"/>
  <circle cx="177.706" cy="1800.14" r="6.25125" stroke-width="0.5" stroke="red" fill="red"/>
   </g>
   <g id="cell59">
  <circle cx="171.722" cy="1844.99" r="1.77505" stroke-width="0.5" stroke="black" fill="red"/>
  <circle cx="171.722" cy="1844.99" r="1.74689" stroke-width="0.5" stroke="black" fill="black"/>
   </g>
   <g id="cell60">
  <circle cx="677.154" cy="43.9497" r="10.4156" stroke-width="0.5" stroke="black" fill="red"/>
  <circle cx="677.154" cy="43.9497" r="6.2851" stroke-width="0.5" stroke="red" fill="red"/>
   </g>
   <g id="cell61">
  <circle cx="1665.13" cy="281.566" r="10.1879" stroke-width="0.5" stroke="black" fill="red"/>
  <circle cx="1665.13" cy="281.566" r="6.16807" stroke-width="0.5" stroke="red" fill="red"/>
   </g>
   <g id="cell62">
  <circle cx="1427.32" cy="1665.4" r="9.82189" stroke-width="0.5" stroke="black" fill="red"/>
  <circle cx="1427.32" cy="1665.4" r="5.96395" stroke-width="0.5" stroke="red" fill="red"/>
   </g>
   <g id="cell63">
  <circle cx="515.903" cy="354.226" r="9.04745" stroke-width="0.5" stroke="black" fill="red"/>
  <circle cx="515.903" cy="354.226" r="5.49345" stroke-width="0.5" stroke="red" fill="red"/>
   </g>
   <g id="cell64">
  <circle cx="1166.81" cy="1110.97" r="9.84395" stroke-width="0.5" stroke="black" fill="red"/>
  <circle cx="1166.81" cy="1110.97" r="5.97665" stroke-width="0.5" stroke="red" fill="red"/>
   </g>
   <g id="cell65">
  <circle cx="365.954" cy="1635.71" r="10.3615" stroke-width="0.5" stroke="black" fill="red"/>
  <circle cx="365.954" cy="1635.71" r="6.25834" stroke-width="0.5" stroke="red" fill="red"/>
   </g>
   <g id="cell66">
  <circle cx="27.8463" cy="318.242" r="10.1879" stroke-width="0.5" stroke="black" fill="red"/>
  <circle cx="27.8463" cy="318.242" r="6.16807" stroke-width="0.5" stroke="red" fill="red"/>
   </g>
   <g id="cell67">
  <circle cx="1101.32" cy="563.536" r="10.0654" stroke-width="0.5" stroke="black" fill="red"/>
  <circle cx="1101.32" cy="563.536" r="6.10145" stroke-width="0.5" stroke="red" fill="red"/>
   </g>
   <g id="cell68">
  <circle cx="1470.99" cy="602.512" r="10.3545" stroke-width="0.5" stroke="black" fill="red"/>
  <circle cx="1470.99" cy="602.512" r="6.25485" stroke-width="0.5" stroke="red" fill="red"/>
   </g>
   <g id="cell69">
  <circle cx="888.497" cy="543.405" r="8.41271" stroke-width="0.5" stroke="black" fill="red"/>
  <circle cx="888.497" cy="543.405" r="5.05167" stroke-width="0.5" stroke="red" fill="red"/>
   </g>
   <g id="cell70">
  <circle cx="1161.11" cy="804.698" r="10.2911" stroke-width="0.5" stroke="black" fill="red"/>
  <circle cx="1161.11" cy="804.698" r="6.22246" stroke-width="0.5" stroke="red" fill="red"/>
   </g>
   <g id="cell71">
  <circle cx="1764.31" cy="1120.12" r="10.2221" stroke-width="0.5" stroke="black" fill="red"/>
  <circle cx="1764.31" cy="1120.12" r="6.18628" stroke-width="0.5" stroke="red" fill="red"/>
   </g>
   <g id="cell72">
  <circle cx="440.505" cy="1820.86" r="9.59391" stroke-width="0.5" stroke="black" fill="red"/>
  <circle cx="440.505" cy="1820.86" r="5.83043" stroke-width="0.5" stroke="red" fill="red"/>
   </g>
   <g id="cell73">
  <circle cx="1417" cy="891.576" r="10.3811" stroke-width="0.5" stroke="black" fill="red"/>
  <circle cx="1417" cy="891.576" r="6.26814" stroke-width="0.5" stroke="red" fill="red"/>
   </g>
   <g id="cell74">
  <circle cx="1686.47" cy="1950.1" r="10.3747" stroke-width="0.5" stroke="black" fill="red"/>
  <circle cx="1686.47" cy="1950.1" r="6.26498" stroke-width="0.5" stroke="red" fill="red"/>
   </g>
   <g id="cell75">
  <circle cx="197.736" cy="604.103" r="8.72828" stroke-width="0.5" stroke="black" fill="red"/>
  <circle cx="197.736" cy="604.103" r="5.28134" stroke-width="0.5" stroke="red" fill="red"/>
   </g>
   <g id="cell76">
  <circle cx="1612.86" cy="849.053" r="10.0654" stroke-width="0.5" stroke="black" fill="red"/>
  <circle cx="1612.86" cy="849.053" r="6.10145" stroke-width="0.5" stroke="red" fill="red"/>
   </g>
   <g id="cell77">
  <circle cx="1399.17" cy="1763.3" r="9.88629" stroke-width="0.5" stroke="black" fill="red"/>
  <circle cx="1399.17" cy="1763.3" r="6.00088" stroke-width="0.5" stroke="red" fill="red"/>
   </g>
   <g id="cell78">
  <circle cx="1227.21" cy="640.869" r="9.88629" stroke-width="0.5" stroke="black" fill="red"/>
  <circle cx="1227.21" cy="640.869" r="6.00088" stroke-width="0.5" stroke="red" fill="red"/>
   </g>
   <g id="cell79">
  <circle cx="1927.99" cy="1401.17" r="8.41271" stroke-width="0.5" stroke="black" fill="red"/>
  <circle cx="1927.99" cy="1401.17" r="5.05167" stroke-width="0.5" stroke="red" fill="red"/>
   </g>
   <g id="cell80">
  <circle cx="1409.86" cy="1276.89" r="10.2221" stroke-width="0.5" stroke="black" fill="red"/>
  <circle cx="1409.86" cy="1276.89" r="6.18628" stroke-width="0.5" stroke="red" fill="red"/>
   </g>
   <g id="cell81">
  <circle cx="1073.97" cy="1890.12" r="1.81708" stroke-width="0.5" stroke="black" fill="red"/>
  <circle cx="1073.97" cy="1890.12" r="1.77915" stroke-width="0.5" stroke="black" fill="black"/>
   </g>
   <g id="cell82">
  <circle cx="1248.51" cy="778.429" r="10.2534" stroke-width="0.5" stroke="black" fill="red"/>
  <circle cx="1248.51" cy="778.429" r="6.2028" stroke-width="0.5" stroke="red" fill="red"/>
   </g>
   <g id="cell83">
  <circle cx="1265.91" cy="1243.19" r="9.7992" stroke-width="0.5" stroke="black" fill="red"/>
  <circle cx="1265.91" cy="1243.19" r="5.95086" stroke-width="0.5" stroke="red" fill="red"/>
   </g>
   <g id="cell84">
  <circle cx="18.6438" cy="957.869" r="10.4102" stroke-width="0.5" stroke="black" fill="red"/>
  <circle cx="18.6438" cy="957.869" r="6.2825" stroke-width="0.5" stroke="red" fill="red"/>
   </g>
   <g id="cell85">
  <circle cx="1417.89" cy="1298.08" r="9.30826" stroke-width="0.5" stroke="black" fill="red"/>
  <circle cx="1417.89" cy="1298.08" r="5.65742" stroke-width="0.5" stroke="red" fill="red"/>
   </g>
   <g id="cell86">
  <circle cx="602.269" cy="789.003" r="8.41271" stroke-width="0.5" stroke="black" fill="red"/>
  <circle cx="602.269" cy="789.003" r="5.05167" stroke-width="0.5" stroke="red" fill="red"/>
   </g>
   <g id="cell87">
  <circle cx="1482.52" cy="874.122" r="10.1879" stroke-width="0.5" stroke="black" fill="red"/>
  <circle cx="1482.52" cy="874.122" r="6.16807" stroke-width="0.5" stroke="red" fill="red"/>
   </g>
   <g id="cell88">
  <circle cx="291.226" cy="186.69" r="10.2221" stroke-width="0.5" stroke="black" fill="red"/>
  <circle cx="291.226" cy="186.69" r="6.18628" stroke-width="0.5" stroke="red" fill="red"/>
   </g>
   <g id="cell89">
  <circle cx="180.946" cy="1157.44" r="8.41271" stroke-width="0.5" stroke="black" fill="red"/>
  <circle cx="180.946" cy="1157.44" r="5.05167" stroke-width="0.5" stroke="red" fill="red"/>
   </g>
   <g id="cell90">
  <circle cx="1169.39" cy="1096.64" r="8.68937" stroke-width="0.5" stroke="black" fill="red"/>
  <circle cx="1169.39" cy="1096.64" r="5.25417" stroke-width="0.5" stroke="red" fill="red"/>
   </g>
   <g id="cell91">
  <circle cx="45.2332" cy="1282.69" r="8.88811" stroke-width="0.5" stroke="black" fill="red"/>
  <circle cx="45.2332" cy="1282.69" r="5.38958" stroke-width="0.5" stroke="red" fill="red"/>
   </g>
   <g id="cell92">
  <circle cx="1261.82" cy="638.601" r="10.4446" stroke-width="0.5" stroke="black" fill="red"/>
  <circle cx="1261.82" cy="638.601" r="6.29905" stroke-width="0.5" stroke="red" fill="red"/>
   </g>
   <g id="cell93">
  <circle cx="441.726" cy="1792.45" r="9.96412" stroke-width="0.5" stroke="black" fill="red"/>
  <circle cx="441.726" cy="1792.45" r="6.04499" stroke-width="0.5" stroke="red" fill="red"/>
   </g>
   <g id="cell94">
  <circle cx="746.258" cy="228.011" r="10.3084" stroke-width="0.5" stroke="black" fill="red"/>
  <circle cx="746.258" cy="228.011" r="6.23137" stroke-width="0.5" stroke="red" fill="red"/>
   </g>
   <g id="cell95">
  <circle cx="1986.52" cy="1757.34" r="10.2728" stroke-width="0.5" stroke="black" fill="red"/>
  <circle cx="1986.52" cy="1757.34" r="6.21295" stroke-width="0.5" stroke="red" fill="red"/>
   </g>
   <g id="cell96">
  <circle cx="1622.22" cy="1092.71" r="10.3474" stroke-width="0.5" stroke="black" fill="red"/>
  <circle cx="1622.22" cy="1092.71" r="6.25125" stroke-width="0.5" stroke="red" fill="red"/>
   </g>
   <g id="cell97">
  <circle cx="872.069" cy="214.685" r="10.4208" stroke-width="0.5" stroke="black" fill="red"/>
  <circle cx="872.069" cy="214.685" r="6.28762" stroke-width="0.5" stroke="red" fill="red"/>
   </g>
   <g id="cell98">
  <circle cx="1819.85" cy="693.185" r="10.4355" stroke-width="0.5" stroke="black" fill="red"/>
  <circle cx="1819.85" cy="693.185" r="6.2947" stroke-width="0.5" stroke="red" fill="red"/>
   </g>
   <g id="cell99">
  <circle cx="921.8" cy="1980.11" r="10.4401" stroke-width="0.5" stroke="black" fill="red"/>
  <circle cx="921.8" cy="1980.11" r="6.29691" stroke-width="0.5" stroke="red" fill="red"/>
   </g>
  </g>
 </g>
  <rect x="1750" y="2070" width="200" height="20" stroke-width="4" stroke="rgb(255,255,255)" fill="rgb(0,0,0)"/>
  <text x="1762.5" y="2057.5"
   font-family="Arial" font-size="50" fill="black" >
   200 &#956;m
  </text>
  <text x="50" y="2090"
   font-family="Arial" font-size="37.5" fill="black" >
   0 days, 0 hours, 0 minutes, and 14.9099 seconds
  </text>
  <rect x="0" y="140" width="2000" height="2000" stroke-width="4" stroke="rgb(0,0,0)" fill="none"/>
</svg>
