<?xml version="1.0" encoding="UTF-8" standalone="no"?>
<!-- Created with PhysiCell (http://PhysiCell.MathCancer.org/) -->
<svg 
 xmlns:dc="http://purl.org/dc/elements/1.1/" 
 xmlns:cc="http://creativecommons.org/ns#" 
 xmlns:rdf="http://www.w3.org/1999/02/22-rdf-syntax-ns#" 
 xmlns:svg="http://www.w3.org/2000/svg" 
 xmlns="http://www.w3.org/2000/svg" 
 version="1.1" 
 width="2000" 
 height="2140" 
 id="svg2">
  <rect x="0" y="0" width="2000" height="2140" stroke-width="4" stroke="white" fill="white"/>
  <text x="25" y="60"
   font-family="Arial" font-size="50" fill="black" >
   Current time: 2 days, 23 hours, and 0.00 minutes, z = 0.00 &#956;m
  </text>
  <text x="25" y="115"
   font-family="Arial" font-size="47.5" fill="black" >
   94 agents
  </text>
 <g id="tissue" 
    transform="translate(0,2140) scale(1,-1)">
  <g id="ECM">
  </g>
  <g id="cells">
   <g id="cell0">
  <circle cx="1135.55" cy="1230.53" r="9.55735" stroke-width="0.5" stroke="black" fill="grey"/>
  <circle cx="1135.55" cy="1230.53" r="5.81068" stroke-width="0.5" stroke="grey" fill="grey"/>
   </g>
   <g id="cell1">
  <circle cx="1705.8" cy="1229.91" r="10.4152" stroke-width="0.5" stroke="black" fill="grey"/>
  <circle cx="1705.8" cy="1229.91" r="6.28501" stroke-width="0.5" stroke="grey" fill="grey"/>
   </g>
   <g id="cell2">
  <circle cx="1173.28" cy="1751.57" r="8.39742" stroke-width="0.5" stroke="black" fill="grey"/>
  <circle cx="1173.28" cy="1751.57" r="5.04664" stroke-width="0.5" stroke="grey" fill="grey"/>
   </g>
   <g id="cell3">
  <circle cx="1260.86" cy="1318.19" r="9.40007" stroke-width="0.5" stroke="black" fill="grey"/>
  <circle cx="1260.86" cy="1318.19" r="5.71637" stroke-width="0.5" stroke="grey" fill="grey"/>
   </g>
   <g id="cell4">
  <circle cx="835.862" cy="548.228" r="8.40232" stroke-width="0.5" stroke="black" fill="grey"/>
  <circle cx="835.862" cy="548.228" r="5.0484" stroke-width="0.5" stroke="grey" fill="grey"/>
   </g>
   <g id="cell5">
  <circle cx="115.454" cy="1940.52" r="8.64198" stroke-width="0.5" stroke="black" fill="red"/>
  <circle cx="115.454" cy="1940.52" r="5.22419" stroke-width="0.5" stroke="red" fill="red"/>
   </g>
   <g id="cell6">
  <circle cx="858.864" cy="889.053" r="8.39021" stroke-width="0.5" stroke="black" fill="red"/>
  <circle cx="858.864" cy="889.053" r="5.0439" stroke-width="0.5" stroke="red" fill="red"/>
   </g>
   <g id="cell19">
  <circle cx="1715.47" cy="1339.42" r="9.10347" stroke-width="0.5" stroke="black" fill="grey"/>
  <circle cx="1715.47" cy="1339.42" r="5.53491" stroke-width="0.5" stroke="grey" fill="grey"/>
   </g>
   <g id="cell18">
  <circle cx="1633.89" cy="303.682" r="9.77522" stroke-width="0.5" stroke="black" fill="red"/>
  <circle cx="1633.89" cy="303.682" r="5.93717" stroke-width="0.5" stroke="red" fill="red"/>
   </g>
   <g id="cell9">
  <circle cx="1673.6" cy="160.025" r="8.88126" stroke-width="0.5" stroke="black" fill="red"/>
  <circle cx="1673.6" cy="160.025" r="5.38735" stroke-width="0.5" stroke="red" fill="red"/>
   </g>
   <g id="cell11">
  <circle cx="1581.12" cy="1101.48" r="8.95732" stroke-width="0.5" stroke="black" fill="red"/>
  <circle cx="1581.12" cy="1101.48" r="5.4385" stroke-width="0.5" stroke="red" fill="red"/>
   </g>
   <g id="cell20">
  <circle cx="795.701" cy="1037.96" r="10.36" stroke-width="0.5" stroke="black" fill="red"/>
  <circle cx="795.701" cy="1037.96" r="6.25793" stroke-width="0.5" stroke="red" fill="red"/>
   </g>
   <g id="cell13">
  <circle cx="856.393" cy="630.375" r="10.263" stroke-width="0.5" stroke="black" fill="grey"/>
  <circle cx="856.393" cy="630.375" r="6.20791" stroke-width="0.5" stroke="grey" fill="grey"/>
   </g>
   <g id="cell14">
  <circle cx="1146.71" cy="1332.21" r="8.37729" stroke-width="0.5" stroke="black" fill="grey"/>
  <circle cx="1146.71" cy="1332.21" r="5.03879" stroke-width="0.5" stroke="grey" fill="grey"/>
   </g>
   <g id="cell15">
  <circle cx="1142.16" cy="1206.53" r="8.38741" stroke-width="0.5" stroke="black" fill="grey"/>
  <circle cx="1142.16" cy="1206.53" r="5.04283" stroke-width="0.5" stroke="grey" fill="grey"/>
   </g>
   <g id="cell16">
  <circle cx="1105.24" cy="1688.94" r="9.33153" stroke-width="0.5" stroke="black" fill="grey"/>
  <circle cx="1105.24" cy="1688.94" r="5.67479" stroke-width="0.5" stroke="grey" fill="grey"/>
   </g>
   <g id="cell90">
  <circle cx="833.529" cy="831.924" r="8.39021" stroke-width="0.5" stroke="black" fill="red"/>
  <circle cx="833.529" cy="831.924" r="5.0439" stroke-width="0.5" stroke="red" fill="red"/>
   </g>
   <g id="cell86">
  <circle cx="1556.1" cy="995.111" r="8.39361" stroke-width="0.5" stroke="black" fill="red"/>
  <circle cx="1556.1" cy="995.111" r="5.04521" stroke-width="0.5" stroke="red" fill="red"/>
   </g>
   <g id="cell22">
  <circle cx="1125.37" cy="1687.29" r="10.5007" stroke-width="0.5" stroke="black" fill="grey"/>
  <circle cx="1125.37" cy="1687.29" r="6.32522" stroke-width="0.5" stroke="grey" fill="grey"/>
   </g>
   <g id="cell23">
  <circle cx="1248.03" cy="1305.9" r="10.4716" stroke-width="0.5" stroke="black" fill="grey"/>
  <circle cx="1248.03" cy="1305.9" r="6.31198" stroke-width="0.5" stroke="grey" fill="grey"/>
   </g>
   <g id="cell24">
  <circle cx="1167.21" cy="1247.64" r="8.40663" stroke-width="0.5" stroke="black" fill="grey"/>
  <circle cx="1167.21" cy="1247.64" r="5.04987" stroke-width="0.5" stroke="grey" fill="grey"/>
   </g>
   <g id="cell25">
  <circle cx="1171.57" cy="702.014" r="9.15838" stroke-width="0.5" stroke="black" fill="red"/>
  <circle cx="1171.57" cy="702.014" r="5.56536" stroke-width="0.5" stroke="red" fill="red"/>
   </g>
   <g id="cell26">
  <circle cx="1689.77" cy="1214.51" r="8.68297" stroke-width="0.5" stroke="black" fill="grey"/>
  <circle cx="1689.77" cy="1214.51" r="5.25215" stroke-width="0.5" stroke="grey" fill="grey"/>
   </g>
   <g id="cell27">
  <circle cx="873.789" cy="538.721" r="10.2516" stroke-width="0.5" stroke="black" fill="grey"/>
  <circle cx="873.789" cy="538.721" r="6.20229" stroke-width="0.5" stroke="grey" fill="grey"/>
   </g>
   <g id="cell28">
  <circle cx="44.9262" cy="1958.58" r="8.36298" stroke-width="0.5" stroke="black" fill="red"/>
  <circle cx="44.9262" cy="1958.58" r="5.03283" stroke-width="0.5" stroke="red" fill="red"/>
   </g>
   <g id="cell29">
  <circle cx="1061.35" cy="1077.09" r="9.8182" stroke-width="0.5" stroke="black" fill="grey"/>
  <circle cx="1061.35" cy="1077.09" r="5.96281" stroke-width="0.5" stroke="grey" fill="grey"/>
   </g>
   <g id="cell30">
  <circle cx="932.281" cy="531.226" r="9.55026" stroke-width="0.5" stroke="black" fill="grey"/>
  <circle cx="932.281" cy="531.226" r="5.80799" stroke-width="0.5" stroke="grey" fill="grey"/>
   </g>
   <g id="cell31">
  <circle cx="1211.93" cy="1351.35" r="10.4892" stroke-width="0.5" stroke="black" fill="grey"/>
  <circle cx="1211.93" cy="1351.35" r="6.31994" stroke-width="0.5" stroke="grey" fill="grey"/>
   </g>
   <g id="cell32">
  <circle cx="1660.81" cy="204.935" r="1.80135" stroke-width="0.5" stroke="black" fill="red"/>
  <circle cx="1660.81" cy="204.935" r="1.78199" stroke-width="0.5" stroke="black" fill="black"/>
   </g>
   <g id="cell33">
  <circle cx="1674.74" cy="1139.86" r="10.5158" stroke-width="0.5" stroke="black" fill="grey"/>
  <circle cx="1674.74" cy="1139.86" r="6.33199" stroke-width="0.5" stroke="grey" fill="grey"/>
   </g>
   <g id="cell34">
  <circle cx="1124.92" cy="1651.42" r="9.86479" stroke-width="0.5" stroke="black" fill="grey"/>
  <circle cx="1124.92" cy="1651.42" r="5.98878" stroke-width="0.5" stroke="grey" fill="grey"/>
   </g>
   <g id="cell35">
  <circle cx="754.698" cy="915.105" r="10.4044" stroke-width="0.5" stroke="black" fill="red"/>
  <circle cx="754.698" cy="915.105" r="6.27972" stroke-width="0.5" stroke="red" fill="red"/>
   </g>
   <g id="cell36">
  <circle cx="1749.94" cy="248.372" r="8.38993" stroke-width="0.5" stroke="black" fill="red"/>
  <circle cx="1749.94" cy="248.372" r="5.04383" stroke-width="0.5" stroke="red" fill="red"/>
   </g>
   <g id="cell37">
  <circle cx="801.612" cy="892.029" r="10.5179" stroke-width="0.5" stroke="black" fill="red"/>
  <circle cx="801.612" cy="892.029" r="6.33294" stroke-width="0.5" stroke="red" fill="red"/>
   </g>
   <g id="cell38">
  <circle cx="1592.38" cy="1048.14" r="9.40844" stroke-width="0.5" stroke="black" fill="red"/>
  <circle cx="1592.38" cy="1048.14" r="5.71933" stroke-width="0.5" stroke="red" fill="red"/>
   </g>
   <g id="cell39">
  <circle cx="1127.85" cy="1189.67" r="10.5141" stroke-width="0.5" stroke="black" fill="grey"/>
  <circle cx="1127.85" cy="1189.67" r="6.33112" stroke-width="0.5" stroke="grey" fill="grey"/>
   </g>
   <g id="cell40">
  <circle cx="1780.46" cy="1302.03" r="9.04467" stroke-width="0.5" stroke="black" fill="grey"/>
  <circle cx="1780.46" cy="1302.03" r="5.4926" stroke-width="0.5" stroke="grey" fill="grey"/>
   </g>
   <g id="cell41">
  <circle cx="1251.3" cy="1426.11" r="10.4725" stroke-width="0.5" stroke="black" fill="grey"/>
  <circle cx="1251.3" cy="1426.11" r="6.31222" stroke-width="0.5" stroke="grey" fill="grey"/>
   </g>
   <g id="cell42">
  <circle cx="1117.88" cy="1130.69" r="9.67117" stroke-width="0.5" stroke="black" fill="grey"/>
  <circle cx="1117.88" cy="1130.69" r="5.87746" stroke-width="0.5" stroke="grey" fill="grey"/>
   </g>
   <g id="cell43">
  <circle cx="1075.12" cy="1107.1" r="10.3681" stroke-width="0.5" stroke="black" fill="grey"/>
  <circle cx="1075.12" cy="1107.1" r="6.2617" stroke-width="0.5" stroke="grey" fill="grey"/>
   </g>
   <g id="cell44">
  <circle cx="1675.99" cy="1189.14" r="8.39137" stroke-width="0.5" stroke="black" fill="grey"/>
  <circle cx="1675.99" cy="1189.14" r="5.04436" stroke-width="0.5" stroke="grey" fill="grey"/>
   </g>
   <g id="cell45">
  <circle cx="1549.63" cy="1037.77" r="8.39361" stroke-width="0.5" stroke="black" fill="red"/>
  <circle cx="1549.63" cy="1037.77" r="5.04521" stroke-width="0.5" stroke="red" fill="red"/>
   </g>
   <g id="cell46">
  <circle cx="1209.1" cy="1690.67" r="1.48376" stroke-width="0.5" stroke="black" fill="grey"/>
  <circle cx="1209.1" cy="1690.67" r="1.47844" stroke-width="0.5" stroke="black" fill="black"/>
   </g>
   <g id="cell47">
  <circle cx="1602.71" cy="144.728" r="8.36582" stroke-width="0.5" stroke="black" fill="red"/>
  <circle cx="1602.71" cy="144.728" r="5.03401" stroke-width="0.5" stroke="red" fill="red"/>
   </g>
   <g id="cell48">
  <circle cx="1182.7" cy="1791.73" r="8.37926" stroke-width="0.5" stroke="black" fill="grey"/>
  <circle cx="1182.7" cy="1791.73" r="5.03958" stroke-width="0.5" stroke="grey" fill="grey"/>
   </g>
   <g id="cell49">
  <circle cx="85.7771" cy="1968.09" r="10.5232" stroke-width="0.5" stroke="black" fill="red"/>
  <circle cx="85.7771" cy="1968.09" r="6.33511" stroke-width="0.5" stroke="red" fill="red"/>
   </g>
   <g id="cell50">
  <circle cx="1160.87" cy="1165.27" r="10.514" stroke-width="0.5" stroke="black" fill="grey"/>
  <circle cx="1160.87" cy="1165.27" r="6.3311" stroke-width="0.5" stroke="grey" fill="grey"/>
   </g>
   <g id="cell51">
  <circle cx="1156.78" cy="1272.84" r="10.0263" stroke-width="0.5" stroke="black" fill="grey"/>
  <circle cx="1156.78" cy="1272.84" r="6.08144" stroke-width="0.5" stroke="grey" fill="grey"/>
   </g>
   <g id="cell52">
  <circle cx="833.425" cy="627.275" r="8.66498" stroke-width="0.5" stroke="black" fill="grey"/>
  <circle cx="833.425" cy="627.275" r="5.24535" stroke-width="0.5" stroke="grey" fill="grey"/>
   </g>
   <g id="cell87">
  <circle cx="909.195" cy="593.367" r="9.57916" stroke-width="0.5" stroke="black" fill="grey"/>
  <circle cx="909.195" cy="593.367" r="5.82519" stroke-width="0.5" stroke="grey" fill="grey"/>
   </g>
   <g id="cell54">
  <circle cx="845.211" cy="536.045" r="8.38012" stroke-width="0.5" stroke="black" fill="grey"/>
  <circle cx="845.211" cy="536.045" r="5.03994" stroke-width="0.5" stroke="grey" fill="grey"/>
   </g>
   <g id="cell55">
  <circle cx="876.704" cy="577.209" r="9.71672" stroke-width="0.5" stroke="black" fill="grey"/>
  <circle cx="876.704" cy="577.209" r="5.90544" stroke-width="0.5" stroke="grey" fill="grey"/>
   </g>
   <g id="cell56">
  <circle cx="153.313" cy="1902.62" r="8.37299" stroke-width="0.5" stroke="black" fill="red"/>
  <circle cx="153.313" cy="1902.62" r="5.03703" stroke-width="0.5" stroke="red" fill="red"/>
   </g>
   <g id="cell57">
  <circle cx="1668.69" cy="285.297" r="10.5311" stroke-width="0.5" stroke="black" fill="red"/>
  <circle cx="1668.69" cy="285.297" r="6.33859" stroke-width="0.5" stroke="red" fill="red"/>
   </g>
   <g id="cell58">
  <circle cx="709.963" cy="853.033" r="9.64894" stroke-width="0.5" stroke="black" fill="red"/>
  <circle cx="709.963" cy="853.033" r="5.86318" stroke-width="0.5" stroke="red" fill="red"/>
   </g>
   <g id="cell59">
  <circle cx="1715.39" cy="328.297" r="10.4685" stroke-width="0.5" stroke="black" fill="red"/>
  <circle cx="1715.39" cy="328.297" r="6.31044" stroke-width="0.5" stroke="red" fill="red"/>
   </g>
   <g id="cell60">
  <circle cx="1724.91" cy="1175.28" r="10.523" stroke-width="0.5" stroke="black" fill="grey"/>
  <circle cx="1724.91" cy="1175.28" r="6.33506" stroke-width="0.5" stroke="grey" fill="grey"/>
   </g>
   <g id="cell61">
  <circle cx="1138.63" cy="1777.5" r="10.2529" stroke-width="0.5" stroke="black" fill="grey"/>
  <circle cx="1138.63" cy="1777.5" r="6.20267" stroke-width="0.5" stroke="grey" fill="grey"/>
   </g>
   <g id="cell62">
  <circle cx="1158.04" cy="1652.89" r="10.2993" stroke-width="0.5" stroke="black" fill="grey"/>
  <circle cx="1158.04" cy="1652.89" r="6.22684" stroke-width="0.5" stroke="grey" fill="grey"/>
   </g>
   <g id="cell63">
  <circle cx="1665.03" cy="322.047" r="8.81647" stroke-width="0.5" stroke="black" fill="red"/>
  <circle cx="1665.03" cy="322.047" r="5.35094" stroke-width="0.5" stroke="red" fill="red"/>
   </g>
   <g id="cell64">
  <circle cx="1698.06" cy="1150.56" r="9.4416" stroke-width="0.5" stroke="black" fill="grey"/>
  <circle cx="1698.06" cy="1150.56" r="5.73928" stroke-width="0.5" stroke="grey" fill="grey"/>
   </g>
   <g id="cell65">
  <circle cx="1325.47" cy="1276.97" r="2.06804" stroke-width="0.5" stroke="black" fill="grey"/>
  <circle cx="1325.47" cy="1276.97" r="2.00432" stroke-width="0.5" stroke="black" fill="black"/>
   </g>
   <g id="cell66">
  <circle cx="776.297" cy="942.914" r="10.4973" stroke-width="0.5" stroke="black" fill="red"/>
  <circle cx="776.297" cy="942.914" r="6.3238" stroke-width="0.5" stroke="red" fill="red"/>
   </g>
   <g id="cell67">
  <circle cx="1577.46" cy="1027.74" r="10.4881" stroke-width="0.5" stroke="black" fill="red"/>
  <circle cx="1577.46" cy="1027.74" r="6.31963" stroke-width="0.5" stroke="red" fill="red"/>
   </g>
   <g id="cell68">
  <circle cx="813.357" cy="1052.76" r="9.16088" stroke-width="0.5" stroke="black" fill="red"/>
  <circle cx="813.357" cy="1052.76" r="5.5662" stroke-width="0.5" stroke="red" fill="red"/>
   </g>
   <g id="cell69">
  <circle cx="839.293" cy="567.508" r="10.4555" stroke-width="0.5" stroke="black" fill="grey"/>
  <circle cx="839.293" cy="567.508" r="6.30458" stroke-width="0.5" stroke="grey" fill="grey"/>
   </g>
   <g id="cell70">
  <circle cx="1681.69" cy="1234.22" r="10.4237" stroke-width="0.5" stroke="black" fill="grey"/>
  <circle cx="1681.69" cy="1234.22" r="6.28946" stroke-width="0.5" stroke="grey" fill="grey"/>
   </g>
   <g id="cell71">
  <circle cx="1004.71" cy="1077.99" r="10.2294" stroke-width="0.5" stroke="black" fill="grey"/>
  <circle cx="1004.71" cy="1077.99" r="6.19096" stroke-width="0.5" stroke="grey" fill="grey"/>
   </g>
   <g id="cell72">
  <circle cx="1119.88" cy="717.607" r="10.196" stroke-width="0.5" stroke="black" fill="red"/>
  <circle cx="1119.88" cy="717.607" r="6.17326" stroke-width="0.5" stroke="red" fill="red"/>
   </g>
   <g id="cell73">
  <circle cx="1174.76" cy="1230.69" r="10.278" stroke-width="0.5" stroke="black" fill="grey"/>
  <circle cx="1174.76" cy="1230.69" r="6.21655" stroke-width="0.5" stroke="grey" fill="grey"/>
   </g>
   <g id="cell74">
  <circle cx="1121.19" cy="1089.14" r="9.69717" stroke-width="0.5" stroke="black" fill="grey"/>
  <circle cx="1121.19" cy="1089.14" r="5.89272" stroke-width="0.5" stroke="grey" fill="grey"/>
   </g>
   <g id="cell75">
  <circle cx="1694.4" cy="1190.28" r="10.1832" stroke-width="0.5" stroke="black" fill="grey"/>
  <circle cx="1694.4" cy="1190.28" r="6.16663" stroke-width="0.5" stroke="grey" fill="grey"/>
   </g>
   <g id="cell76">
  <circle cx="1671.08" cy="229.242" r="9.58803" stroke-width="0.5" stroke="black" fill="red"/>
  <circle cx="1671.08" cy="229.242" r="5.82852" stroke-width="0.5" stroke="red" fill="red"/>
   </g>
   <g id="cell77">
  <circle cx="68.8966" cy="1916.09" r="10.01" stroke-width="0.5" stroke="black" fill="red"/>
  <circle cx="68.8966" cy="1916.09" r="6.07233" stroke-width="0.5" stroke="red" fill="red"/>
   </g>
   <g id="cell78">
  <circle cx="1115.77" cy="1240.07" r="3.1154" stroke-width="0.5" stroke="black" fill="grey"/>
  <circle cx="1115.77" cy="1240.07" r="2.5176" stroke-width="0.5" stroke="black" fill="black"/>
   </g>
   <g id="cell79">
  <circle cx="1202.43" cy="1241.42" r="8.40232" stroke-width="0.5" stroke="black" fill="grey"/>
  <circle cx="1202.43" cy="1241.42" r="5.0484" stroke-width="0.5" stroke="grey" fill="grey"/>
   </g>
   <g id="cell80">
  <circle cx="809.438" cy="525.372" r="8.40232" stroke-width="0.5" stroke="black" fill="grey"/>
  <circle cx="809.438" cy="525.372" r="5.0484" stroke-width="0.5" stroke="grey" fill="grey"/>
   </g>
   <g id="cell81">
  <circle cx="1220.12" cy="1269.4" r="8.40018" stroke-width="0.5" stroke="black" fill="grey"/>
  <circle cx="1220.12" cy="1269.4" r="5.04763" stroke-width="0.5" stroke="grey" fill="grey"/>
   </g>
   <g id="cell82">
  <circle cx="1631.14" cy="1092.05" r="8.95732" stroke-width="0.5" stroke="black" fill="red"/>
  <circle cx="1631.14" cy="1092.05" r="5.4385" stroke-width="0.5" stroke="red" fill="red"/>
   </g>
   <g id="cell83">
  <circle cx="901.154" cy="569.311" r="8.39856" stroke-width="0.5" stroke="black" fill="grey"/>
  <circle cx="901.154" cy="569.311" r="5.04706" stroke-width="0.5" stroke="grey" fill="grey"/>
   </g>
   <g id="cell84">
  <circle cx="1107.85" cy="1636.4" r="8.39865" stroke-width="0.5" stroke="black" fill="grey"/>
  <circle cx="1107.85" cy="1636.4" r="5.04709" stroke-width="0.5" stroke="grey" fill="grey"/>
   </g>
   <g id="cell85">
  <circle cx="1155.24" cy="1702.18" r="9.55328" stroke-width="0.5" stroke="black" fill="grey"/>
  <circle cx="1155.24" cy="1702.18" r="5.80916" stroke-width="0.5" stroke="grey" fill="grey"/>
   </g>
   <g id="cell88">
  <circle cx="1665.7" cy="1171.34" r="8.39137" stroke-width="0.5" stroke="black" fill="grey"/>
  <circle cx="1665.7" cy="1171.34" r="5.04436" stroke-width="0.5" stroke="grey" fill="grey"/>
   </g>
   <g id="cell89">
  <circle cx="1767.2" cy="296.726" r="8.38993" stroke-width="0.5" stroke="black" fill="red"/>
  <circle cx="1767.2" cy="296.726" r="5.04383" stroke-width="0.5" stroke="red" fill="red"/>
   </g>
   <g id="cell91">
  <circle cx="1153.65" cy="1222.49" r="8.38741" stroke-width="0.5" stroke="black" fill="grey"/>
  <circle cx="1153.65" cy="1222.49" r="5.04283" stroke-width="0.5" stroke="grey" fill="grey"/>
   </g>
   <g id="cell92">
  <circle cx="1685.23" cy="1360.37" r="8.38749" stroke-width="0.5" stroke="black" fill="grey"/>
  <circle cx="1685.23" cy="1360.37" r="5.04285" stroke-width="0.5" stroke="grey" fill="grey"/>
   </g>
   <g id="cell93">
  <circle cx="849.878" cy="603.293" r="8.38669" stroke-width="0.5" stroke="black" fill="grey"/>
  <circle cx="849.878" cy="603.293" r="5.04255" stroke-width="0.5" stroke="grey" fill="grey"/>
   </g>
   <g id="cell94">
  <circle cx="869.383" cy="557.169" r="8.38012" stroke-width="0.5" stroke="black" fill="grey"/>
  <circle cx="869.383" cy="557.169" r="5.03994" stroke-width="0.5" stroke="grey" fill="grey"/>
   </g>
   <g id="cell95">
  <circle cx="1175" cy="1766.12" r="8.37926" stroke-width="0.5" stroke="black" fill="grey"/>
  <circle cx="1175" cy="1766.12" r="5.03958" stroke-width="0.5" stroke="grey" fill="grey"/>
   </g>
   <g id="cell96">
  <circle cx="1664.65" cy="304.525" r="8.54514" stroke-width="0.5" stroke="black" fill="red"/>
  <circle cx="1664.65" cy="304.525" r="5.16234" stroke-width="0.5" stroke="red" fill="red"/>
   </g>
   <g id="cell97">
  <circle cx="1150.08" cy="1347.43" r="8.37729" stroke-width="0.5" stroke="black" fill="grey"/>
  <circle cx="1150.08" cy="1347.43" r="5.03879" stroke-width="0.5" stroke="grey" fill="grey"/>
   </g>
   <g id="cell98">
  <circle cx="147.191" cy="1932.21" r="8.37299" stroke-width="0.5" stroke="black" fill="red"/>
  <circle cx="147.191" cy="1932.21" r="5.03703" stroke-width="0.5" stroke="red" fill="red"/>
   </g>
   <g id="cell99">
  <circle cx="1622.66" cy="130.295" r="8.36582" stroke-width="0.5" stroke="black" fill="red"/>
  <circle cx="1622.66" cy="130.295" r="5.03401" stroke-width="0.5" stroke="red" fill="red"/>
   </g>
   <g id="cell100">
  <circle cx="58.6009" cy="1957.62" r="8.36298" stroke-width="0.5" stroke="black" fill="red"/>
  <circle cx="58.6009" cy="1957.62" r="5.03283" stroke-width="0.5" stroke="red" fill="red"/>
   </g>
  </g>
 </g>
  <rect x="1750" y="2070" width="200" height="20" stroke-width="4" stroke="rgb(255,255,255)" fill="rgb(0,0,0)"/>
  <text x="1762.5" y="2057.5"
   font-family="Arial" font-size="50" fill="black" >
   200 &#956;m
  </text>
  <text x="50" y="2090"
   font-family="Arial" font-size="37.5" fill="black" >
   0 days, 0 hours, 1 minutes, and 33.1186 seconds
  </text>
  <rect x="0" y="140" width="2000" height="2000" stroke-width="4" stroke="rgb(0,0,0)" fill="none"/>
</svg>
