<?xml version="1.0" encoding="UTF-8" standalone="no"?>
<!-- Created with PhysiCell (http://PhysiCell.MathCancer.org/) -->
<svg 
 xmlns:dc="http://purl.org/dc/elements/1.1/" 
 xmlns:cc="http://creativecommons.org/ns#" 
 xmlns:rdf="http://www.w3.org/1999/02/22-rdf-syntax-ns#" 
 xmlns:svg="http://www.w3.org/2000/svg" 
 xmlns="http://www.w3.org/2000/svg" 
 version="1.1" 
 width="2000" 
 height="2140" 
 id="svg2">
  <rect x="0" y="0" width="2000" height="2140" stroke-width="4" stroke="white" fill="white"/>
  <text x="25" y="60"
   font-family="Arial" font-size="50" fill="black" >
   Current time: 3 days, 17 hours, and 0.00 minutes, z = 0.00 &#956;m
  </text>
  <text x="25" y="115"
   font-family="Arial" font-size="47.5" fill="black" >
   187 agents
  </text>
 <g id="tissue" 
    transform="translate(0,2140) scale(1,-1)">
  <g id="ECM">
  </g>
  <g id="cells">
   <g id="cell0">
  <circle cx="1061.22" cy="1168.97" r="10.03" stroke-width="0.5" stroke="black" fill="grey"/>
  <circle cx="1061.22" cy="1168.97" r="6.08275" stroke-width="0.5" stroke="grey" fill="grey"/>
   </g>
   <g id="cell1">
  <circle cx="1690.17" cy="1236.74" r="10.5308" stroke-width="0.5" stroke="black" fill="grey"/>
  <circle cx="1690.17" cy="1236.74" r="6.33852" stroke-width="0.5" stroke="grey" fill="grey"/>
   </g>
   <g id="cell2">
  <circle cx="1242" cy="1773.22" r="8.39197" stroke-width="0.5" stroke="black" fill="grey"/>
  <circle cx="1242" cy="1773.22" r="5.04459" stroke-width="0.5" stroke="grey" fill="grey"/>
   </g>
   <g id="cell3">
  <circle cx="1269.42" cy="1345.83" r="9.30356" stroke-width="0.5" stroke="black" fill="grey"/>
  <circle cx="1269.42" cy="1345.83" r="5.65591" stroke-width="0.5" stroke="grey" fill="grey"/>
   </g>
   <g id="cell4">
  <circle cx="790.48" cy="500.535" r="8.3845" stroke-width="0.5" stroke="black" fill="grey"/>
  <circle cx="790.48" cy="500.535" r="5.04167" stroke-width="0.5" stroke="grey" fill="grey"/>
   </g>
   <g id="cell5">
  <circle cx="72.8721" cy="1921.7" r="8.40269" stroke-width="0.5" stroke="black" fill="red"/>
  <circle cx="72.8721" cy="1921.7" r="5.04852" stroke-width="0.5" stroke="red" fill="red"/>
   </g>
   <g id="cell6">
  <circle cx="876.38" cy="909.277" r="9.36313" stroke-width="0.5" stroke="black" fill="red"/>
  <circle cx="876.38" cy="909.277" r="5.69469" stroke-width="0.5" stroke="red" fill="red"/>
   </g>
   <g id="cell19">
  <circle cx="1691.75" cy="1402.82" r="8.72157" stroke-width="0.5" stroke="black" fill="grey"/>
  <circle cx="1691.75" cy="1402.82" r="5.2792" stroke-width="0.5" stroke="grey" fill="grey"/>
   </g>
   <g id="cell18">
  <circle cx="1618.78" cy="332.401" r="10.1346" stroke-width="0.5" stroke="black" fill="red"/>
  <circle cx="1618.78" cy="332.401" r="6.14003" stroke-width="0.5" stroke="red" fill="red"/>
   </g>
   <g id="cell9">
  <circle cx="1731.77" cy="172.628" r="9.72096" stroke-width="0.5" stroke="black" fill="red"/>
  <circle cx="1731.77" cy="172.628" r="5.907" stroke-width="0.5" stroke="red" fill="red"/>
   </g>
   <g id="cell11">
  <circle cx="1536.62" cy="1132.46" r="9.88047" stroke-width="0.5" stroke="black" fill="red"/>
  <circle cx="1536.62" cy="1132.46" r="5.99901" stroke-width="0.5" stroke="red" fill="red"/>
   </g>
   <g id="cell20">
  <circle cx="796.667" cy="1022.1" r="8.36259" stroke-width="0.5" stroke="black" fill="red"/>
  <circle cx="796.667" cy="1022.1" r="5.03272" stroke-width="0.5" stroke="red" fill="red"/>
   </g>
   <g id="cell13">
  <circle cx="840.684" cy="629.188" r="9.82065" stroke-width="0.5" stroke="black" fill="grey"/>
  <circle cx="840.684" cy="629.188" r="5.9636" stroke-width="0.5" stroke="grey" fill="grey"/>
   </g>
   <g id="cell14">
  <circle cx="1117.8" cy="1307.1" r="10.5313" stroke-width="0.5" stroke="black" fill="grey"/>
  <circle cx="1117.8" cy="1307.1" r="6.33863" stroke-width="0.5" stroke="grey" fill="grey"/>
   </g>
   <g id="cell15">
  <circle cx="1108.98" cy="1198.51" r="8.38365" stroke-width="0.5" stroke="black" fill="grey"/>
  <circle cx="1108.98" cy="1198.51" r="5.04134" stroke-width="0.5" stroke="grey" fill="grey"/>
   </g>
   <g id="cell16">
  <circle cx="1099.08" cy="1681.42" r="10.1464" stroke-width="0.5" stroke="black" fill="grey"/>
  <circle cx="1099.08" cy="1681.42" r="6.1467" stroke-width="0.5" stroke="grey" fill="grey"/>
   </g>
   <g id="cell90">
  <circle cx="845.533" cy="853.147" r="9.83452" stroke-width="0.5" stroke="black" fill="red"/>
  <circle cx="845.533" cy="853.147" r="5.97346" stroke-width="0.5" stroke="red" fill="red"/>
   </g>
   <g id="cell86">
  <circle cx="1547.09" cy="1001.61" r="9.87641" stroke-width="0.5" stroke="black" fill="red"/>
  <circle cx="1547.09" cy="1001.61" r="5.99753" stroke-width="0.5" stroke="red" fill="red"/>
   </g>
   <g id="cell22">
  <circle cx="1076.01" cy="1732.54" r="8.38506" stroke-width="0.5" stroke="black" fill="grey"/>
  <circle cx="1076.01" cy="1732.54" r="5.04193" stroke-width="0.5" stroke="grey" fill="grey"/>
   </g>
   <g id="cell23">
  <circle cx="1204.8" cy="1312.23" r="10.492" stroke-width="0.5" stroke="black" fill="grey"/>
  <circle cx="1204.8" cy="1312.23" r="6.32128" stroke-width="0.5" stroke="grey" fill="grey"/>
   </g>
   <g id="cell24">
  <circle cx="1168.93" cy="1261.05" r="8.63223" stroke-width="0.5" stroke="black" fill="grey"/>
  <circle cx="1168.93" cy="1261.05" r="5.22052" stroke-width="0.5" stroke="grey" fill="grey"/>
   </g>
   <g id="cell25">
  <circle cx="1161.97" cy="730.592" r="8.40575" stroke-width="0.5" stroke="black" fill="red"/>
  <circle cx="1161.97" cy="730.592" r="5.04957" stroke-width="0.5" stroke="red" fill="red"/>
   </g>
   <g id="cell26">
  <circle cx="1725.26" cy="1215.56" r="8.83908" stroke-width="0.5" stroke="black" fill="grey"/>
  <circle cx="1725.26" cy="1215.56" r="5.35985" stroke-width="0.5" stroke="grey" fill="grey"/>
   </g>
   <g id="cell27">
  <circle cx="919.659" cy="560.081" r="10.4196" stroke-width="0.5" stroke="black" fill="grey"/>
  <circle cx="919.659" cy="560.081" r="6.28731" stroke-width="0.5" stroke="grey" fill="grey"/>
   </g>
   <g id="cell28">
  <circle cx="42.1528" cy="1988.23" r="8.39934" stroke-width="0.5" stroke="black" fill="red"/>
  <circle cx="42.1528" cy="1988.23" r="5.04734" stroke-width="0.5" stroke="red" fill="red"/>
   </g>
   <g id="cell29">
  <circle cx="1092.92" cy="1071.68" r="9.94278" stroke-width="0.5" stroke="black" fill="grey"/>
  <circle cx="1092.92" cy="1071.68" r="6.03367" stroke-width="0.5" stroke="grey" fill="grey"/>
   </g>
   <g id="cell30">
  <circle cx="940.017" cy="492.89" r="10.1844" stroke-width="0.5" stroke="black" fill="grey"/>
  <circle cx="940.017" cy="492.89" r="6.16704" stroke-width="0.5" stroke="grey" fill="grey"/>
   </g>
   <g id="cell31">
  <circle cx="1172.35" cy="1360.88" r="10.4758" stroke-width="0.5" stroke="black" fill="grey"/>
  <circle cx="1172.35" cy="1360.88" r="6.3138" stroke-width="0.5" stroke="grey" fill="grey"/>
   </g>
   <g id="cell109">
  <circle cx="783.531" cy="978.913" r="8.78696" stroke-width="0.5" stroke="black" fill="red"/>
  <circle cx="783.531" cy="978.913" r="5.32827" stroke-width="0.5" stroke="red" fill="red"/>
   </g>
   <g id="cell33">
  <circle cx="1655.28" cy="1179.87" r="8.38586" stroke-width="0.5" stroke="black" fill="grey"/>
  <circle cx="1655.28" cy="1179.87" r="5.04224" stroke-width="0.5" stroke="grey" fill="grey"/>
   </g>
   <g id="cell34">
  <circle cx="1084.97" cy="1625.38" r="8.84466" stroke-width="0.5" stroke="black" fill="grey"/>
  <circle cx="1084.97" cy="1625.38" r="5.3618" stroke-width="0.5" stroke="grey" fill="grey"/>
   </g>
   <g id="cell35">
  <circle cx="758.92" cy="955.472" r="10.3866" stroke-width="0.5" stroke="black" fill="red"/>
  <circle cx="758.92" cy="955.472" r="6.27104" stroke-width="0.5" stroke="red" fill="red"/>
   </g>
   <g id="cell36">
  <circle cx="1749.13" cy="268.683" r="8.36584" stroke-width="0.5" stroke="black" fill="red"/>
  <circle cx="1749.13" cy="268.683" r="5.03402" stroke-width="0.5" stroke="red" fill="red"/>
   </g>
   <g id="cell37">
  <circle cx="827.947" cy="928.171" r="9.21802" stroke-width="0.5" stroke="black" fill="red"/>
  <circle cx="827.947" cy="928.171" r="5.60629" stroke-width="0.5" stroke="red" fill="red"/>
   </g>
   <g id="cell38">
  <circle cx="1574.36" cy="1081.13" r="10.2783" stroke-width="0.5" stroke="black" fill="red"/>
  <circle cx="1574.36" cy="1081.13" r="6.21663" stroke-width="0.5" stroke="red" fill="red"/>
   </g>
   <g id="cell39">
  <circle cx="1125.46" cy="1177.97" r="8.98331" stroke-width="0.5" stroke="black" fill="grey"/>
  <circle cx="1125.46" cy="1177.97" r="5.45887" stroke-width="0.5" stroke="grey" fill="grey"/>
   </g>
   <g id="cell40">
  <circle cx="1764.62" cy="1265.3" r="10.1046" stroke-width="0.5" stroke="black" fill="grey"/>
  <circle cx="1764.62" cy="1265.3" r="6.1242" stroke-width="0.5" stroke="grey" fill="grey"/>
   </g>
   <g id="cell41">
  <circle cx="1190.46" cy="1471.7" r="10.4303" stroke-width="0.5" stroke="black" fill="grey"/>
  <circle cx="1190.46" cy="1471.7" r="6.29231" stroke-width="0.5" stroke="grey" fill="grey"/>
   </g>
   <g id="cell42">
  <circle cx="1109.62" cy="1117.66" r="9.56165" stroke-width="0.5" stroke="black" fill="grey"/>
  <circle cx="1109.62" cy="1117.66" r="5.8122" stroke-width="0.5" stroke="grey" fill="grey"/>
   </g>
   <g id="cell43">
  <circle cx="1030.63" cy="1117.71" r="9.00704" stroke-width="0.5" stroke="black" fill="grey"/>
  <circle cx="1030.63" cy="1117.71" r="5.46779" stroke-width="0.5" stroke="grey" fill="grey"/>
   </g>
   <g id="cell44">
  <circle cx="1689.69" cy="1181.57" r="8.38674" stroke-width="0.5" stroke="black" fill="grey"/>
  <circle cx="1689.69" cy="1181.57" r="5.04256" stroke-width="0.5" stroke="grey" fill="grey"/>
   </g>
   <g id="cell45">
  <circle cx="1524.77" cy="1055.4" r="8.39196" stroke-width="0.5" stroke="black" fill="red"/>
  <circle cx="1524.77" cy="1055.4" r="5.04458" stroke-width="0.5" stroke="red" fill="red"/>
   </g>
   <g id="cell101">
  <circle cx="1682.35" cy="223.067" r="10.4827" stroke-width="0.5" stroke="black" fill="red"/>
  <circle cx="1682.35" cy="223.067" r="6.31698" stroke-width="0.5" stroke="red" fill="red"/>
   </g>
   <g id="cell47">
  <circle cx="1631.32" cy="124.963" r="8.59437" stroke-width="0.5" stroke="black" fill="red"/>
  <circle cx="1631.32" cy="124.963" r="5.19367" stroke-width="0.5" stroke="red" fill="red"/>
   </g>
   <g id="cell48">
  <circle cx="1147.84" cy="1808.43" r="8.95485" stroke-width="0.5" stroke="black" fill="grey"/>
  <circle cx="1147.84" cy="1808.43" r="5.43757" stroke-width="0.5" stroke="grey" fill="grey"/>
   </g>
   <g id="cell49">
  <circle cx="84.9954" cy="1966.71" r="9.10944" stroke-width="0.5" stroke="black" fill="red"/>
  <circle cx="84.9954" cy="1966.71" r="5.53732" stroke-width="0.5" stroke="red" fill="red"/>
   </g>
   <g id="cell50">
  <circle cx="1117.02" cy="1136.76" r="8.39501" stroke-width="0.5" stroke="black" fill="grey"/>
  <circle cx="1117.02" cy="1136.76" r="5.04576" stroke-width="0.5" stroke="grey" fill="grey"/>
   </g>
   <g id="cell51">
  <circle cx="1113.71" cy="1257.9" r="10.2309" stroke-width="0.5" stroke="black" fill="grey"/>
  <circle cx="1113.71" cy="1257.9" r="6.19144" stroke-width="0.5" stroke="grey" fill="grey"/>
   </g>
   <g id="cell52">
  <circle cx="881.238" cy="611.344" r="9.43478" stroke-width="0.5" stroke="black" fill="grey"/>
  <circle cx="881.238" cy="611.344" r="5.73694" stroke-width="0.5" stroke="grey" fill="grey"/>
   </g>
   <g id="cell87">
  <circle cx="928.377" cy="614.924" r="10.2695" stroke-width="0.5" stroke="black" fill="grey"/>
  <circle cx="928.377" cy="614.924" r="6.21198" stroke-width="0.5" stroke="grey" fill="grey"/>
   </g>
   <g id="cell54">
  <circle cx="906.944" cy="527.956" r="8.63832" stroke-width="0.5" stroke="black" fill="grey"/>
  <circle cx="906.944" cy="527.956" r="5.22285" stroke-width="0.5" stroke="grey" fill="grey"/>
   </g>
   <g id="cell55">
  <circle cx="871.543" cy="546.374" r="10.3218" stroke-width="0.5" stroke="black" fill="grey"/>
  <circle cx="871.543" cy="546.374" r="6.23889" stroke-width="0.5" stroke="grey" fill="grey"/>
   </g>
   <g id="cell56">
  <circle cx="176.844" cy="1865.3" r="10.5164" stroke-width="0.5" stroke="black" fill="red"/>
  <circle cx="176.844" cy="1865.3" r="6.33215" stroke-width="0.5" stroke="red" fill="red"/>
   </g>
   <g id="cell57">
  <circle cx="1679.17" cy="267.85" r="9.21641" stroke-width="0.5" stroke="black" fill="red"/>
  <circle cx="1679.17" cy="267.85" r="5.60563" stroke-width="0.5" stroke="red" fill="red"/>
   </g>
   <g id="cell58">
  <circle cx="703.109" cy="845.716" r="1.29625" stroke-width="0.5" stroke="black" fill="red"/>
  <circle cx="703.109" cy="845.716" r="1.28858" stroke-width="0.5" stroke="black" fill="black"/>
   </g>
   <g id="cell59">
  <circle cx="1746.48" cy="314.465" r="8.37503" stroke-width="0.5" stroke="black" fill="red"/>
  <circle cx="1746.48" cy="314.465" r="5.03789" stroke-width="0.5" stroke="red" fill="red"/>
   </g>
   <g id="cell60">
  <circle cx="1741.45" cy="1212.33" r="8.54444" stroke-width="0.5" stroke="black" fill="grey"/>
  <circle cx="1741.45" cy="1212.33" r="5.16201" stroke-width="0.5" stroke="grey" fill="grey"/>
   </g>
   <g id="cell61">
  <circle cx="1120.61" cy="1773" r="10.4914" stroke-width="0.5" stroke="black" fill="grey"/>
  <circle cx="1120.61" cy="1773" r="6.32109" stroke-width="0.5" stroke="grey" fill="grey"/>
   </g>
   <g id="cell62">
  <circle cx="1204.91" cy="1640.28" r="10.1088" stroke-width="0.5" stroke="black" fill="grey"/>
  <circle cx="1204.91" cy="1640.28" r="6.12556" stroke-width="0.5" stroke="grey" fill="grey"/>
   </g>
   <g id="cell63">
  <circle cx="1648.27" cy="352.319" r="10.0274" stroke-width="0.5" stroke="black" fill="red"/>
  <circle cx="1648.27" cy="352.319" r="6.08184" stroke-width="0.5" stroke="red" fill="red"/>
   </g>
   <g id="cell64">
  <circle cx="1683" cy="1135.95" r="9.81781" stroke-width="0.5" stroke="black" fill="grey"/>
  <circle cx="1683" cy="1135.95" r="5.96268" stroke-width="0.5" stroke="grey" fill="grey"/>
   </g>
   <g id="cell115">
  <circle cx="865.661" cy="566.007" r="10.525" stroke-width="0.5" stroke="black" fill="grey"/>
  <circle cx="865.661" cy="566.007" r="6.33595" stroke-width="0.5" stroke="grey" fill="grey"/>
   </g>
   <g id="cell66">
  <circle cx="799.97" cy="953.644" r="1.20636" stroke-width="0.5" stroke="black" fill="red"/>
  <circle cx="799.97" cy="953.644" r="1.20163" stroke-width="0.5" stroke="black" fill="black"/>
   </g>
   <g id="cell67">
  <circle cx="1556.41" cy="1068.89" r="10.2724" stroke-width="0.5" stroke="black" fill="red"/>
  <circle cx="1556.41" cy="1068.89" r="6.21286" stroke-width="0.5" stroke="red" fill="red"/>
   </g>
   <g id="cell68">
  <circle cx="839.922" cy="1035.17" r="9.55973" stroke-width="0.5" stroke="black" fill="red"/>
  <circle cx="839.922" cy="1035.17" r="5.81153" stroke-width="0.5" stroke="red" fill="red"/>
   </g>
   <g id="cell69">
  <circle cx="813.665" cy="549.713" r="9.98171" stroke-width="0.5" stroke="black" fill="grey"/>
  <circle cx="813.665" cy="549.713" r="6.05503" stroke-width="0.5" stroke="grey" fill="grey"/>
   </g>
   <g id="cell70">
  <circle cx="1652.65" cy="1257.89" r="10.4949" stroke-width="0.5" stroke="black" fill="grey"/>
  <circle cx="1652.65" cy="1257.89" r="6.3226" stroke-width="0.5" stroke="grey" fill="grey"/>
   </g>
   <g id="cell71">
  <circle cx="1035.56" cy="1063.91" r="10.4343" stroke-width="0.5" stroke="black" fill="grey"/>
  <circle cx="1035.56" cy="1063.91" r="6.29438" stroke-width="0.5" stroke="grey" fill="grey"/>
   </g>
   <g id="cell72">
  <circle cx="1173.36" cy="765.878" r="10.0322" stroke-width="0.5" stroke="black" fill="red"/>
  <circle cx="1173.36" cy="765.878" r="6.08343" stroke-width="0.5" stroke="red" fill="red"/>
   </g>
   <g id="cell73">
  <circle cx="1227.62" cy="1201.34" r="10.4914" stroke-width="0.5" stroke="black" fill="grey"/>
  <circle cx="1227.62" cy="1201.34" r="6.32112" stroke-width="0.5" stroke="grey" fill="grey"/>
   </g>
   <g id="cell74">
  <circle cx="1082.8" cy="1090.45" r="10.1604" stroke-width="0.5" stroke="black" fill="grey"/>
  <circle cx="1082.8" cy="1090.45" r="6.15401" stroke-width="0.5" stroke="grey" fill="grey"/>
   </g>
   <g id="cell75">
  <circle cx="1707.54" cy="1140.77" r="10.3734" stroke-width="0.5" stroke="black" fill="grey"/>
  <circle cx="1707.54" cy="1140.77" r="6.26461" stroke-width="0.5" stroke="grey" fill="grey"/>
   </g>
   <g id="cell76">
  <circle cx="1623.26" cy="210.424" r="8.53983" stroke-width="0.5" stroke="black" fill="red"/>
  <circle cx="1623.26" cy="210.424" r="5.14807" stroke-width="0.5" stroke="red" fill="red"/>
   </g>
   <g id="cell77">
  <circle cx="46.7763" cy="1929.42" r="10.2709" stroke-width="0.5" stroke="black" fill="red"/>
  <circle cx="46.7763" cy="1929.42" r="6.21241" stroke-width="0.5" stroke="red" fill="red"/>
   </g>
   <g id="cell128">
  <circle cx="1721.47" cy="1187.69" r="10.3797" stroke-width="0.5" stroke="black" fill="grey"/>
  <circle cx="1721.47" cy="1187.69" r="6.26778" stroke-width="0.5" stroke="grey" fill="grey"/>
   </g>
   <g id="cell79">
  <circle cx="1199.35" cy="1295.24" r="10.5165" stroke-width="0.5" stroke="black" fill="grey"/>
  <circle cx="1199.35" cy="1295.24" r="6.33218" stroke-width="0.5" stroke="grey" fill="grey"/>
   </g>
   <g id="cell80">
  <circle cx="815.201" cy="459.58" r="8.37932" stroke-width="0.5" stroke="black" fill="grey"/>
  <circle cx="815.201" cy="459.58" r="5.03959" stroke-width="0.5" stroke="grey" fill="grey"/>
   </g>
   <g id="cell81">
  <circle cx="1209.91" cy="1269.3" r="8.83449" stroke-width="0.5" stroke="black" fill="grey"/>
  <circle cx="1209.91" cy="1269.3" r="5.35813" stroke-width="0.5" stroke="grey" fill="grey"/>
   </g>
   <g id="cell82">
  <circle cx="1656.41" cy="1160.08" r="10.1703" stroke-width="0.5" stroke="black" fill="red"/>
  <circle cx="1656.41" cy="1160.08" r="6.15986" stroke-width="0.5" stroke="red" fill="red"/>
   </g>
   <g id="cell83">
  <circle cx="939.932" cy="604.905" r="8.38818" stroke-width="0.5" stroke="black" fill="grey"/>
  <circle cx="939.932" cy="604.905" r="5.04312" stroke-width="0.5" stroke="grey" fill="grey"/>
   </g>
   <g id="cell84">
  <circle cx="1189.31" cy="1630.81" r="10.4862" stroke-width="0.5" stroke="black" fill="grey"/>
  <circle cx="1189.31" cy="1630.81" r="6.31852" stroke-width="0.5" stroke="grey" fill="grey"/>
   </g>
   <g id="cell85">
  <circle cx="1170.31" cy="1673.42" r="10.2878" stroke-width="0.5" stroke="black" fill="grey"/>
  <circle cx="1170.31" cy="1673.42" r="6.22146" stroke-width="0.5" stroke="grey" fill="grey"/>
   </g>
   <g id="cell88">
  <circle cx="1645.54" cy="1204.68" r="9.98213" stroke-width="0.5" stroke="black" fill="grey"/>
  <circle cx="1645.54" cy="1204.68" r="6.05514" stroke-width="0.5" stroke="grey" fill="grey"/>
   </g>
   <g id="cell89">
  <circle cx="1791.41" cy="280.764" r="10.4572" stroke-width="0.5" stroke="black" fill="red"/>
  <circle cx="1791.41" cy="280.764" r="6.30504" stroke-width="0.5" stroke="red" fill="red"/>
   </g>
   <g id="cell91">
  <circle cx="1189.84" cy="1245.71" r="10.5313" stroke-width="0.5" stroke="black" fill="grey"/>
  <circle cx="1189.84" cy="1245.71" r="6.33864" stroke-width="0.5" stroke="grey" fill="grey"/>
   </g>
   <g id="cell92">
  <circle cx="1676.26" cy="1358.75" r="10.5188" stroke-width="0.5" stroke="black" fill="grey"/>
  <circle cx="1676.26" cy="1358.75" r="6.33318" stroke-width="0.5" stroke="grey" fill="grey"/>
   </g>
   <g id="cell93">
  <circle cx="822.739" cy="600.929" r="10.4983" stroke-width="0.5" stroke="black" fill="grey"/>
  <circle cx="822.739" cy="600.929" r="6.32404" stroke-width="0.5" stroke="grey" fill="grey"/>
   </g>
   <g id="cell94">
  <circle cx="862.439" cy="532.428" r="8.7812" stroke-width="0.5" stroke="black" fill="grey"/>
  <circle cx="862.439" cy="532.428" r="5.32593" stroke-width="0.5" stroke="grey" fill="grey"/>
   </g>
   <g id="cell95">
  <circle cx="1151.77" cy="1779.39" r="8.39863" stroke-width="0.5" stroke="black" fill="grey"/>
  <circle cx="1151.77" cy="1779.39" r="5.04708" stroke-width="0.5" stroke="grey" fill="grey"/>
   </g>
   <g id="cell96">
  <circle cx="1671.69" cy="296.638" r="8.40203" stroke-width="0.5" stroke="black" fill="red"/>
  <circle cx="1671.69" cy="296.638" r="5.0483" stroke-width="0.5" stroke="red" fill="red"/>
   </g>
   <g id="cell97">
  <circle cx="1190.1" cy="1341.08" r="8.38442" stroke-width="0.5" stroke="black" fill="grey"/>
  <circle cx="1190.1" cy="1341.08" r="5.04165" stroke-width="0.5" stroke="grey" fill="grey"/>
   </g>
   <g id="cell98">
  <circle cx="155.86" cy="1903.07" r="8.81927" stroke-width="0.5" stroke="black" fill="red"/>
  <circle cx="155.86" cy="1903.07" r="5.35207" stroke-width="0.5" stroke="red" fill="red"/>
   </g>
   <g id="cell99">
  <circle cx="1719.05" cy="154.91" r="10.4399" stroke-width="0.5" stroke="black" fill="red"/>
  <circle cx="1719.05" cy="154.91" r="6.29686" stroke-width="0.5" stroke="red" fill="red"/>
   </g>
   <g id="cell100">
  <circle cx="53.7899" cy="1946.05" r="8.39735" stroke-width="0.5" stroke="black" fill="red"/>
  <circle cx="53.7899" cy="1946.05" r="5.04662" stroke-width="0.5" stroke="red" fill="red"/>
   </g>
   <g id="cell102">
  <circle cx="1729.36" cy="1157.67" r="8.84752" stroke-width="0.5" stroke="black" fill="grey"/>
  <circle cx="1729.36" cy="1157.67" r="5.36268" stroke-width="0.5" stroke="grey" fill="grey"/>
   </g>
   <g id="cell103">
  <circle cx="125.872" cy="1958" r="8.39644" stroke-width="0.5" stroke="black" fill="red"/>
  <circle cx="125.872" cy="1958" r="5.04629" stroke-width="0.5" stroke="red" fill="red"/>
   </g>
   <g id="cell104">
  <circle cx="790.909" cy="905.024" r="10.5009" stroke-width="0.5" stroke="black" fill="red"/>
  <circle cx="790.909" cy="905.024" r="6.32528" stroke-width="0.5" stroke="red" fill="red"/>
   </g>
   <g id="cell105">
  <circle cx="1656.51" cy="1133.01" r="8.39122" stroke-width="0.5" stroke="black" fill="grey"/>
  <circle cx="1656.51" cy="1133.01" r="5.04432" stroke-width="0.5" stroke="grey" fill="grey"/>
   </g>
   <g id="cell106">
  <circle cx="1139.77" cy="1163.4" r="9.3765" stroke-width="0.5" stroke="black" fill="grey"/>
  <circle cx="1139.77" cy="1163.4" r="5.69945" stroke-width="0.5" stroke="grey" fill="grey"/>
   </g>
   <g id="cell107">
  <circle cx="1155.95" cy="1148.84" r="10.4648" stroke-width="0.5" stroke="black" fill="grey"/>
  <circle cx="1155.95" cy="1148.84" r="6.3087" stroke-width="0.5" stroke="grey" fill="grey"/>
   </g>
   <g id="cell108">
  <circle cx="1131.48" cy="1690.16" r="10.533" stroke-width="0.5" stroke="black" fill="grey"/>
  <circle cx="1131.48" cy="1690.16" r="6.3394" stroke-width="0.5" stroke="grey" fill="grey"/>
   </g>
   <g id="cell110">
  <circle cx="1578.73" cy="1007.99" r="10.4722" stroke-width="0.5" stroke="black" fill="red"/>
  <circle cx="1578.73" cy="1007.99" r="6.31214" stroke-width="0.5" stroke="red" fill="red"/>
   </g>
   <g id="cell111">
  <circle cx="1208.82" cy="1351.85" r="8.36943" stroke-width="0.5" stroke="black" fill="grey"/>
  <circle cx="1208.82" cy="1351.85" r="5.03556" stroke-width="0.5" stroke="grey" fill="grey"/>
   </g>
   <g id="cell112">
  <circle cx="1274.45" cy="1295.39" r="8.38172" stroke-width="0.5" stroke="black" fill="grey"/>
  <circle cx="1274.45" cy="1295.39" r="5.04061" stroke-width="0.5" stroke="grey" fill="grey"/>
   </g>
   <g id="cell113">
  <circle cx="1245.11" cy="1440.66" r="8.38499" stroke-width="0.5" stroke="black" fill="grey"/>
  <circle cx="1245.11" cy="1440.66" r="5.04191" stroke-width="0.5" stroke="grey" fill="grey"/>
   </g>
   <g id="cell114">
  <circle cx="1726.71" cy="399.45" r="8.37057" stroke-width="0.5" stroke="black" fill="red"/>
  <circle cx="1726.71" cy="399.45" r="5.03605" stroke-width="0.5" stroke="red" fill="red"/>
   </g>
   <g id="cell116">
  <circle cx="1703.23" cy="1223.97" r="10.5309" stroke-width="0.5" stroke="black" fill="grey"/>
  <circle cx="1703.23" cy="1223.97" r="6.33853" stroke-width="0.5" stroke="grey" fill="grey"/>
   </g>
   <g id="cell117">
  <circle cx="1709.13" cy="1256.51" r="10.1872" stroke-width="0.5" stroke="black" fill="grey"/>
  <circle cx="1709.13" cy="1256.51" r="6.1679" stroke-width="0.5" stroke="grey" fill="grey"/>
   </g>
   <g id="cell118">
  <circle cx="705.714" cy="964.967" r="10.3318" stroke-width="0.5" stroke="black" fill="red"/>
  <circle cx="705.714" cy="964.967" r="6.24352" stroke-width="0.5" stroke="red" fill="red"/>
   </g>
   <g id="cell119">
  <circle cx="1081.28" cy="1127.88" r="10.2213" stroke-width="0.5" stroke="black" fill="grey"/>
  <circle cx="1081.28" cy="1127.88" r="6.18608" stroke-width="0.5" stroke="grey" fill="grey"/>
   </g>
   <g id="cell120">
  <circle cx="765.649" cy="1060.15" r="10.3317" stroke-width="0.5" stroke="black" fill="red"/>
  <circle cx="765.649" cy="1060.15" r="6.24348" stroke-width="0.5" stroke="red" fill="red"/>
   </g>
   <g id="cell121">
  <circle cx="1158.29" cy="1590.05" r="8.84652" stroke-width="0.5" stroke="black" fill="grey"/>
  <circle cx="1158.29" cy="1590.05" r="5.36239" stroke-width="0.5" stroke="grey" fill="grey"/>
   </g>
   <g id="cell122">
  <circle cx="1182.05" cy="1175.86" r="10.1985" stroke-width="0.5" stroke="black" fill="grey"/>
  <circle cx="1182.05" cy="1175.86" r="6.17404" stroke-width="0.5" stroke="grey" fill="grey"/>
   </g>
   <g id="cell123">
  <circle cx="862.886" cy="627.976" r="10.0642" stroke-width="0.5" stroke="black" fill="grey"/>
  <circle cx="862.886" cy="627.976" r="6.10113" stroke-width="0.5" stroke="grey" fill="grey"/>
   </g>
   <g id="cell124">
  <circle cx="1121.26" cy="1812.59" r="10.4678" stroke-width="0.5" stroke="black" fill="grey"/>
  <circle cx="1121.26" cy="1812.59" r="6.31023" stroke-width="0.5" stroke="grey" fill="grey"/>
   </g>
   <g id="cell125">
  <circle cx="967.391" cy="512.866" r="10.5081" stroke-width="0.5" stroke="black" fill="grey"/>
  <circle cx="967.391" cy="512.866" r="6.32863" stroke-width="0.5" stroke="grey" fill="grey"/>
   </g>
   <g id="cell126">
  <circle cx="1055.13" cy="1099.57" r="10.0794" stroke-width="0.5" stroke="black" fill="grey"/>
  <circle cx="1055.13" cy="1099.57" r="6.10949" stroke-width="0.5" stroke="grey" fill="grey"/>
   </g>
   <g id="cell127">
  <circle cx="1133.49" cy="724.051" r="9.12319" stroke-width="0.5" stroke="black" fill="red"/>
  <circle cx="1133.49" cy="724.051" r="5.54232" stroke-width="0.5" stroke="red" fill="red"/>
   </g>
   <g id="cell129">
  <circle cx="1152.93" cy="1279.81" r="1.29716" stroke-width="0.5" stroke="black" fill="grey"/>
  <circle cx="1152.93" cy="1279.81" r="1.28947" stroke-width="0.5" stroke="black" fill="black"/>
   </g>
   <g id="cell130">
  <circle cx="29.1692" cy="1881.56" r="10.4189" stroke-width="0.5" stroke="black" fill="red"/>
  <circle cx="29.1692" cy="1881.56" r="6.28709" stroke-width="0.5" stroke="red" fill="red"/>
   </g>
   <g id="cell131">
  <circle cx="1125.8" cy="1640.99" r="8.47939" stroke-width="0.5" stroke="black" fill="grey"/>
  <circle cx="1125.8" cy="1640.99" r="5.10218" stroke-width="0.5" stroke="grey" fill="grey"/>
   </g>
   <g id="cell132">
  <circle cx="1076.79" cy="999.662" r="10.4023" stroke-width="0.5" stroke="black" fill="grey"/>
  <circle cx="1076.79" cy="999.662" r="6.2791" stroke-width="0.5" stroke="grey" fill="grey"/>
   </g>
   <g id="cell133">
  <circle cx="1625.89" cy="293.832" r="9.96128" stroke-width="0.5" stroke="black" fill="red"/>
  <circle cx="1625.89" cy="293.832" r="6.04414" stroke-width="0.5" stroke="red" fill="red"/>
   </g>
   <g id="cell134">
  <circle cx="852.38" cy="588.798" r="8.40846" stroke-width="0.5" stroke="black" fill="grey"/>
  <circle cx="852.38" cy="588.798" r="5.05046" stroke-width="0.5" stroke="grey" fill="grey"/>
   </g>
   <g id="cell135">
  <circle cx="1130.51" cy="1083.17" r="8.40836" stroke-width="0.5" stroke="black" fill="grey"/>
  <circle cx="1130.51" cy="1083.17" r="5.05042" stroke-width="0.5" stroke="grey" fill="grey"/>
   </g>
   <g id="cell136">
  <circle cx="1103.29" cy="1149.27" r="9.00416" stroke-width="0.5" stroke="black" fill="grey"/>
  <circle cx="1103.29" cy="1149.27" r="5.46686" stroke-width="0.5" stroke="grey" fill="grey"/>
   </g>
   <g id="cell137">
  <circle cx="669.152" cy="878.273" r="9.67257" stroke-width="0.5" stroke="black" fill="red"/>
  <circle cx="669.152" cy="878.273" r="5.87794" stroke-width="0.5" stroke="red" fill="red"/>
   </g>
   <g id="cell138">
  <circle cx="1597.98" cy="254.053" r="9.47047" stroke-width="0.5" stroke="black" fill="red"/>
  <circle cx="1597.98" cy="254.053" r="5.75755" stroke-width="0.5" stroke="red" fill="red"/>
   </g>
   <g id="cell139">
  <circle cx="952.033" cy="648.012" r="9.33895" stroke-width="0.5" stroke="black" fill="grey"/>
  <circle cx="952.033" cy="648.012" r="5.6775" stroke-width="0.5" stroke="grey" fill="grey"/>
   </g>
   <g id="cell140">
  <circle cx="932.42" cy="536.174" r="9.37281" stroke-width="0.5" stroke="black" fill="grey"/>
  <circle cx="932.42" cy="536.174" r="5.69827" stroke-width="0.5" stroke="grey" fill="grey"/>
   </g>
   <g id="cell141">
  <circle cx="1069.29" cy="1212.51" r="10.1724" stroke-width="0.5" stroke="black" fill="grey"/>
  <circle cx="1069.29" cy="1212.51" r="6.16056" stroke-width="0.5" stroke="grey" fill="grey"/>
   </g>
   <g id="cell142">
  <circle cx="1206.83" cy="1715.93" r="8.40769" stroke-width="0.5" stroke="black" fill="grey"/>
  <circle cx="1206.83" cy="1715.93" r="5.05021" stroke-width="0.5" stroke="grey" fill="grey"/>
   </g>
   <g id="cell143">
  <circle cx="1740.57" cy="1141.4" r="8.45056" stroke-width="0.5" stroke="black" fill="grey"/>
  <circle cx="1740.57" cy="1141.4" r="5.08133" stroke-width="0.5" stroke="grey" fill="grey"/>
   </g>
   <g id="cell144">
  <circle cx="1607.74" cy="1026.79" r="8.40699" stroke-width="0.5" stroke="black" fill="red"/>
  <circle cx="1607.74" cy="1026.79" r="5.04998" stroke-width="0.5" stroke="red" fill="red"/>
   </g>
   <g id="cell145">
  <circle cx="1283.48" cy="1321.97" r="8.40695" stroke-width="0.5" stroke="black" fill="grey"/>
  <circle cx="1283.48" cy="1321.97" r="5.04997" stroke-width="0.5" stroke="grey" fill="grey"/>
   </g>
   <g id="cell146">
  <circle cx="1107.14" cy="1720.41" r="8.40662" stroke-width="0.5" stroke="black" fill="grey"/>
  <circle cx="1107.14" cy="1720.41" r="5.04986" stroke-width="0.5" stroke="grey" fill="grey"/>
   </g>
   <g id="cell147">
  <circle cx="791.454" cy="1049.66" r="8.40576" stroke-width="0.5" stroke="black" fill="red"/>
  <circle cx="791.454" cy="1049.66" r="5.04957" stroke-width="0.5" stroke="red" fill="red"/>
   </g>
   <g id="cell148">
  <circle cx="1183.74" cy="748.098" r="10.1458" stroke-width="0.5" stroke="black" fill="red"/>
  <circle cx="1183.74" cy="748.098" r="6.14649" stroke-width="0.5" stroke="red" fill="red"/>
   </g>
   <g id="cell149">
  <circle cx="1705.54" cy="1368.9" r="9.72189" stroke-width="0.5" stroke="black" fill="grey"/>
  <circle cx="1705.54" cy="1368.9" r="5.90733" stroke-width="0.5" stroke="grey" fill="grey"/>
   </g>
   <g id="cell150">
  <circle cx="1730.63" cy="1261.58" r="10.0601" stroke-width="0.5" stroke="black" fill="grey"/>
  <circle cx="1730.63" cy="1261.58" r="6.09978" stroke-width="0.5" stroke="grey" fill="grey"/>
   </g>
   <g id="cell151">
  <circle cx="1631.66" cy="1115.9" r="10.1319" stroke-width="0.5" stroke="black" fill="red"/>
  <circle cx="1631.66" cy="1115.9" r="6.1391" stroke-width="0.5" stroke="red" fill="red"/>
   </g>
   <g id="cell152">
  <circle cx="1534.76" cy="1083.09" r="10.1319" stroke-width="0.5" stroke="black" fill="red"/>
  <circle cx="1534.76" cy="1083.09" r="6.1391" stroke-width="0.5" stroke="red" fill="red"/>
   </g>
   <g id="cell153">
  <circle cx="1708.29" cy="131.689" r="8.60616" stroke-width="0.5" stroke="black" fill="red"/>
  <circle cx="1708.29" cy="131.689" r="5.19804" stroke-width="0.5" stroke="red" fill="red"/>
   </g>
   <g id="cell154">
  <circle cx="1675.86" cy="380.081" r="8.40391" stroke-width="0.5" stroke="black" fill="red"/>
  <circle cx="1675.86" cy="380.081" r="5.04896" stroke-width="0.5" stroke="red" fill="red"/>
   </g>
   <g id="cell155">
  <circle cx="898.641" cy="639.457" r="8.40291" stroke-width="0.5" stroke="black" fill="grey"/>
  <circle cx="898.641" cy="639.457" r="5.04861" stroke-width="0.5" stroke="grey" fill="grey"/>
   </g>
   <g id="cell156">
  <circle cx="1721.71" cy="1242.45" r="8.40298" stroke-width="0.5" stroke="black" fill="grey"/>
  <circle cx="1721.71" cy="1242.45" r="5.04862" stroke-width="0.5" stroke="grey" fill="grey"/>
   </g>
   <g id="cell157">
  <circle cx="69.1514" cy="1953.03" r="10.0584" stroke-width="0.5" stroke="black" fill="red"/>
  <circle cx="69.1514" cy="1953.03" r="6.09918" stroke-width="0.5" stroke="red" fill="red"/>
   </g>
   <g id="cell158">
  <circle cx="1658.3" cy="247.289" r="8.40203" stroke-width="0.5" stroke="black" fill="red"/>
  <circle cx="1658.3" cy="247.289" r="5.0483" stroke-width="0.5" stroke="red" fill="red"/>
   </g>
   <g id="cell159">
  <circle cx="829.937" cy="859.422" r="8.95695" stroke-width="0.5" stroke="black" fill="red"/>
  <circle cx="829.937" cy="859.422" r="5.43837" stroke-width="0.5" stroke="red" fill="red"/>
   </g>
   <g id="cell160">
  <circle cx="32.4605" cy="1967.64" r="8.39934" stroke-width="0.5" stroke="black" fill="red"/>
  <circle cx="32.4605" cy="1967.64" r="5.04734" stroke-width="0.5" stroke="red" fill="red"/>
   </g>
   <g id="cell161">
  <circle cx="891.694" cy="508.662" r="8.39902" stroke-width="0.5" stroke="black" fill="grey"/>
  <circle cx="891.694" cy="508.662" r="5.04722" stroke-width="0.5" stroke="grey" fill="grey"/>
   </g>
   <g id="cell162">
  <circle cx="1528.28" cy="1020.41" r="9.63899" stroke-width="0.5" stroke="black" fill="red"/>
  <circle cx="1528.28" cy="1020.41" r="5.85973" stroke-width="0.5" stroke="red" fill="red"/>
   </g>
   <g id="cell163">
  <circle cx="1176.52" cy="1762.63" r="9.58309" stroke-width="0.5" stroke="black" fill="grey"/>
  <circle cx="1176.52" cy="1762.63" r="5.8267" stroke-width="0.5" stroke="grey" fill="grey"/>
   </g>
   <g id="cell164">
  <circle cx="1240.64" cy="1222.77" r="9.55365" stroke-width="0.5" stroke="black" fill="grey"/>
  <circle cx="1240.64" cy="1222.77" r="5.80929" stroke-width="0.5" stroke="grey" fill="grey"/>
   </g>
   <g id="cell165">
  <circle cx="50.4359" cy="1969.39" r="9.22412" stroke-width="0.5" stroke="black" fill="red"/>
  <circle cx="50.4359" cy="1969.39" r="5.60868" stroke-width="0.5" stroke="red" fill="red"/>
   </g>
   <g id="cell166">
  <circle cx="1191.23" cy="1803.66" r="8.3974" stroke-width="0.5" stroke="black" fill="grey"/>
  <circle cx="1191.23" cy="1803.66" r="5.04663" stroke-width="0.5" stroke="grey" fill="grey"/>
   </g>
   <g id="cell167">
  <circle cx="132.721" cy="1990.89" r="8.39644" stroke-width="0.5" stroke="black" fill="red"/>
  <circle cx="132.721" cy="1990.89" r="5.04629" stroke-width="0.5" stroke="red" fill="red"/>
   </g>
   <g id="cell168">
  <circle cx="879.653" cy="873.109" r="8.39564" stroke-width="0.5" stroke="black" fill="red"/>
  <circle cx="879.653" cy="873.109" r="5.04597" stroke-width="0.5" stroke="red" fill="red"/>
   </g>
   <g id="cell169">
  <circle cx="1109.45" cy="1162.11" r="8.52738" stroke-width="0.5" stroke="black" fill="grey"/>
  <circle cx="1109.45" cy="1162.11" r="5.14365" stroke-width="0.5" stroke="grey" fill="grey"/>
   </g>
   <g id="cell170">
  <circle cx="73.5245" cy="1989.82" r="8.79114" stroke-width="0.5" stroke="black" fill="red"/>
  <circle cx="73.5245" cy="1989.82" r="5.32991" stroke-width="0.5" stroke="red" fill="red"/>
   </g>
   <g id="cell171">
  <circle cx="1173.26" cy="1310.66" r="8.82968" stroke-width="0.5" stroke="black" fill="grey"/>
  <circle cx="1173.26" cy="1310.66" r="5.35627" stroke-width="0.5" stroke="grey" fill="grey"/>
   </g>
   <g id="cell172">
  <circle cx="1196.12" cy="1758.57" r="8.39197" stroke-width="0.5" stroke="black" fill="grey"/>
  <circle cx="1196.12" cy="1758.57" r="5.04459" stroke-width="0.5" stroke="grey" fill="grey"/>
   </g>
   <g id="cell173">
  <circle cx="1499.8" cy="1084.71" r="8.39196" stroke-width="0.5" stroke="black" fill="red"/>
  <circle cx="1499.8" cy="1084.71" r="5.04458" stroke-width="0.5" stroke="red" fill="red"/>
   </g>
   <g id="cell174">
  <circle cx="1647.04" cy="158.628" r="9.45788" stroke-width="0.5" stroke="black" fill="red"/>
  <circle cx="1647.04" cy="158.628" r="5.75285" stroke-width="0.5" stroke="red" fill="red"/>
   </g>
   <g id="cell175">
  <circle cx="1634.15" cy="1141.42" r="8.39122" stroke-width="0.5" stroke="black" fill="grey"/>
  <circle cx="1634.15" cy="1141.42" r="5.04432" stroke-width="0.5" stroke="grey" fill="grey"/>
   </g>
   <g id="cell176">
  <circle cx="798.693" cy="973.548" r="8.38994" stroke-width="0.5" stroke="black" fill="red"/>
  <circle cx="798.693" cy="973.548" r="5.04384" stroke-width="0.5" stroke="red" fill="red"/>
   </g>
   <g id="cell177">
  <circle cx="809.345" cy="909.89" r="9.21802" stroke-width="0.5" stroke="black" fill="red"/>
  <circle cx="809.345" cy="909.89" r="5.60629" stroke-width="0.5" stroke="red" fill="red"/>
   </g>
   <g id="cell178">
  <circle cx="891.996" cy="598.69" r="8.98668" stroke-width="0.5" stroke="black" fill="grey"/>
  <circle cx="891.996" cy="598.69" r="5.46022" stroke-width="0.5" stroke="grey" fill="grey"/>
   </g>
   <g id="cell179">
  <circle cx="1671.57" cy="256.275" r="8.38805" stroke-width="0.5" stroke="black" fill="red"/>
  <circle cx="1671.57" cy="256.275" r="5.04309" stroke-width="0.5" stroke="red" fill="red"/>
   </g>
   <g id="cell180">
  <circle cx="1713.63" cy="1161.82" r="8.38674" stroke-width="0.5" stroke="black" fill="grey"/>
  <circle cx="1713.63" cy="1161.82" r="5.04256" stroke-width="0.5" stroke="grey" fill="grey"/>
   </g>
   <g id="cell181">
  <circle cx="1677.31" cy="1185.82" r="8.38586" stroke-width="0.5" stroke="black" fill="grey"/>
  <circle cx="1677.31" cy="1185.82" r="5.04224" stroke-width="0.5" stroke="grey" fill="grey"/>
   </g>
   <g id="cell182">
  <circle cx="1233.77" cy="1462.89" r="8.38499" stroke-width="0.5" stroke="black" fill="grey"/>
  <circle cx="1233.77" cy="1462.89" r="5.04191" stroke-width="0.5" stroke="grey" fill="grey"/>
   </g>
   <g id="cell183">
  <circle cx="1111.09" cy="1738.09" r="8.38506" stroke-width="0.5" stroke="black" fill="grey"/>
  <circle cx="1111.09" cy="1738.09" r="5.04193" stroke-width="0.5" stroke="grey" fill="grey"/>
   </g>
   <g id="cell184">
  <circle cx="1140.02" cy="1185.47" r="8.38431" stroke-width="0.5" stroke="black" fill="grey"/>
  <circle cx="1140.02" cy="1185.47" r="5.04163" stroke-width="0.5" stroke="grey" fill="grey"/>
   </g>
   <g id="cell185">
  <circle cx="1198.81" cy="1328.26" r="8.90319" stroke-width="0.5" stroke="black" fill="grey"/>
  <circle cx="1198.81" cy="1328.26" r="5.40678" stroke-width="0.5" stroke="grey" fill="grey"/>
   </g>
   <g id="cell186">
  <circle cx="780.38" cy="530.353" r="8.3845" stroke-width="0.5" stroke="black" fill="grey"/>
  <circle cx="780.38" cy="530.353" r="5.04167" stroke-width="0.5" stroke="grey" fill="grey"/>
   </g>
   <g id="cell187">
  <circle cx="1139.05" cy="1203.78" r="8.38365" stroke-width="0.5" stroke="black" fill="grey"/>
  <circle cx="1139.05" cy="1203.78" r="5.04134" stroke-width="0.5" stroke="grey" fill="grey"/>
   </g>
   <g id="cell188">
  <circle cx="873.66" cy="522.307" r="8.38362" stroke-width="0.5" stroke="black" fill="grey"/>
  <circle cx="873.66" cy="522.307" r="5.04133" stroke-width="0.5" stroke="grey" fill="grey"/>
   </g>
   <g id="cell189">
  <circle cx="1288.63" cy="1300.36" r="8.38172" stroke-width="0.5" stroke="black" fill="grey"/>
  <circle cx="1288.63" cy="1300.36" r="5.04061" stroke-width="0.5" stroke="grey" fill="grey"/>
   </g>
   <g id="cell190">
  <circle cx="167.105" cy="1915.89" r="8.38105" stroke-width="0.5" stroke="black" fill="red"/>
  <circle cx="167.105" cy="1915.89" r="5.04031" stroke-width="0.5" stroke="red" fill="red"/>
   </g>
   <g id="cell191">
  <circle cx="804.919" cy="450.724" r="8.54645" stroke-width="0.5" stroke="black" fill="grey"/>
  <circle cx="804.919" cy="450.724" r="5.16281" stroke-width="0.5" stroke="grey" fill="grey"/>
   </g>
   <g id="cell192">
  <circle cx="1750.93" cy="1186.73" r="8.37722" stroke-width="0.5" stroke="black" fill="grey"/>
  <circle cx="1750.93" cy="1186.73" r="5.03877" stroke-width="0.5" stroke="grey" fill="grey"/>
   </g>
   <g id="cell193">
  <circle cx="1730.94" cy="322.446" r="8.37503" stroke-width="0.5" stroke="black" fill="red"/>
  <circle cx="1730.94" cy="322.446" r="5.03789" stroke-width="0.5" stroke="red" fill="red"/>
   </g>
   <g id="cell194">
  <circle cx="1721.35" cy="367.697" r="8.37057" stroke-width="0.5" stroke="black" fill="red"/>
  <circle cx="1721.35" cy="367.697" r="5.03605" stroke-width="0.5" stroke="red" fill="red"/>
   </g>
   <g id="cell195">
  <circle cx="1190.57" cy="1355.05" r="8.36943" stroke-width="0.5" stroke="black" fill="grey"/>
  <circle cx="1190.57" cy="1355.05" r="5.03556" stroke-width="0.5" stroke="grey" fill="grey"/>
   </g>
   <g id="cell196">
  <circle cx="1739.46" cy="281.52" r="8.36584" stroke-width="0.5" stroke="black" fill="red"/>
  <circle cx="1739.46" cy="281.52" r="5.03402" stroke-width="0.5" stroke="red" fill="red"/>
   </g>
   <g id="cell197">
  <circle cx="781.704" cy="1016.55" r="8.36259" stroke-width="0.5" stroke="black" fill="red"/>
  <circle cx="781.704" cy="1016.55" r="5.03272" stroke-width="0.5" stroke="red" fill="red"/>
   </g>
  </g>
 </g>
  <rect x="1750" y="2070" width="200" height="20" stroke-width="4" stroke="rgb(255,255,255)" fill="rgb(0,0,0)"/>
  <text x="1762.5" y="2057.5"
   font-family="Arial" font-size="50" fill="black" >
   200 &#956;m
  </text>
  <text x="50" y="2090"
   font-family="Arial" font-size="37.5" fill="black" >
   0 days, 0 hours, 1 minutes, and 57.9789 seconds
  </text>
  <rect x="0" y="140" width="2000" height="2000" stroke-width="4" stroke="rgb(0,0,0)" fill="none"/>
</svg>
