<?xml version="1.0" encoding="UTF-8" standalone="no"?>
<!-- Created with PhysiCell (http://PhysiCell.MathCancer.org/) -->
<svg 
 xmlns:dc="http://purl.org/dc/elements/1.1/" 
 xmlns:cc="http://creativecommons.org/ns#" 
 xmlns:rdf="http://www.w3.org/1999/02/22-rdf-syntax-ns#" 
 xmlns:svg="http://www.w3.org/2000/svg" 
 xmlns="http://www.w3.org/2000/svg" 
 version="1.1" 
 width="2000" 
 height="2140" 
 id="svg2">
  <rect x="0" y="0" width="2000" height="2140" stroke-width="4" stroke="white" fill="white"/>
  <text x="25" y="60"
   font-family="Arial" font-size="50" fill="black" >
   Current time: 0 days, 20 hours, and 0.00 minutes, z = 0.00 &#956;m
  </text>
  <text x="25" y="115"
   font-family="Arial" font-size="47.5" fill="black" >
   179 agents
  </text>
 <g id="tissue" 
    transform="translate(0,2140) scale(1,-1)">
  <g id="ECM">
  </g>
  <g id="cells">
   <g id="cell0">
  <circle cx="1158.12" cy="1248.99" r="8.36849" stroke-width="0.5" stroke="black" fill="grey"/>
  <circle cx="1158.12" cy="1248.99" r="5.03512" stroke-width="0.5" stroke="grey" fill="grey"/>
   </g>
   <g id="cell1">
  <circle cx="1688.67" cy="1284.79" r="8.63329" stroke-width="0.5" stroke="black" fill="grey"/>
  <circle cx="1688.67" cy="1284.79" r="5.22093" stroke-width="0.5" stroke="grey" fill="grey"/>
   </g>
   <g id="cell2">
  <circle cx="1059.86" cy="1717.99" r="8.39473" stroke-width="0.5" stroke="black" fill="grey"/>
  <circle cx="1059.86" cy="1717.99" r="5.04562" stroke-width="0.5" stroke="grey" fill="grey"/>
   </g>
   <g id="cell3">
  <circle cx="1220.77" cy="1274.59" r="8.39708" stroke-width="0.5" stroke="black" fill="grey"/>
  <circle cx="1220.77" cy="1274.59" r="5.0465" stroke-width="0.5" stroke="grey" fill="grey"/>
   </g>
   <g id="cell4">
  <circle cx="919.987" cy="623.631" r="9.33505" stroke-width="0.5" stroke="black" fill="grey"/>
  <circle cx="919.987" cy="623.631" r="5.6761" stroke-width="0.5" stroke="grey" fill="grey"/>
   </g>
   <g id="cell5">
  <circle cx="114.018" cy="1924.39" r="10.2999" stroke-width="0.5" stroke="black" fill="grey"/>
  <circle cx="114.018" cy="1924.39" r="6.22699" stroke-width="0.5" stroke="grey" fill="grey"/>
   </g>
   <g id="cell6">
  <circle cx="868.057" cy="946.768" r="8.38753" stroke-width="0.5" stroke="black" fill="grey"/>
  <circle cx="868.057" cy="946.768" r="5.04286" stroke-width="0.5" stroke="grey" fill="grey"/>
   </g>
   <g id="cell7">
  <circle cx="1530.3" cy="1039.9" r="8.37537" stroke-width="0.5" stroke="black" fill="grey"/>
  <circle cx="1530.3" cy="1039.9" r="5.03798" stroke-width="0.5" stroke="grey" fill="grey"/>
   </g>
   <g id="cell166">
  <circle cx="664.233" cy="990.056" r="8.38608" stroke-width="0.5" stroke="black" fill="red"/>
  <circle cx="664.233" cy="990.056" r="5.04229" stroke-width="0.5" stroke="red" fill="red"/>
   </g>
   <g id="cell9">
  <circle cx="1654.97" cy="217.602" r="10.3615" stroke-width="0.5" stroke="black" fill="grey"/>
  <circle cx="1654.97" cy="217.602" r="6.25834" stroke-width="0.5" stroke="grey" fill="grey"/>
   </g>
   <g id="cell10">
  <circle cx="184.849" cy="1280.69" r="8.39794" stroke-width="0.5" stroke="black" fill="grey"/>
  <circle cx="184.849" cy="1280.69" r="5.04681" stroke-width="0.5" stroke="grey" fill="grey"/>
   </g>
   <g id="cell11">
  <circle cx="800.459" cy="1680.84" r="9.23059" stroke-width="0.5" stroke="black" fill="grey"/>
  <circle cx="800.459" cy="1680.84" r="5.61108" stroke-width="0.5" stroke="grey" fill="grey"/>
   </g>
   <g id="cell12">
  <circle cx="1509.99" cy="286.571" r="8.90833" stroke-width="0.5" stroke="black" fill="grey"/>
  <circle cx="1509.99" cy="286.571" r="5.40884" stroke-width="0.5" stroke="grey" fill="grey"/>
   </g>
   <g id="cell13">
  <circle cx="1715.53" cy="1946.22" r="8.39987" stroke-width="0.5" stroke="black" fill="grey"/>
  <circle cx="1715.53" cy="1946.22" r="5.04751" stroke-width="0.5" stroke="grey" fill="grey"/>
   </g>
   <g id="cell14">
  <circle cx="1628.98" cy="1608.44" r="8.62813" stroke-width="0.5" stroke="black" fill="grey"/>
  <circle cx="1628.98" cy="1608.44" r="5.2189" stroke-width="0.5" stroke="grey" fill="grey"/>
   </g>
   <g id="cell15">
  <circle cx="1019.24" cy="1576.07" r="8.38454" stroke-width="0.5" stroke="black" fill="grey"/>
  <circle cx="1019.24" cy="1576.07" r="5.04168" stroke-width="0.5" stroke="grey" fill="grey"/>
   </g>
   <g id="cell16">
  <circle cx="226.635" cy="1392.91" r="2.15491" stroke-width="0.5" stroke="black" fill="grey"/>
  <circle cx="226.635" cy="1392.91" r="2.0957" stroke-width="0.5" stroke="black" fill="black"/>
   </g>
   <g id="cell17">
  <circle cx="1129.56" cy="291.483" r="9.22559" stroke-width="0.5" stroke="black" fill="grey"/>
  <circle cx="1129.56" cy="291.483" r="5.60923" stroke-width="0.5" stroke="grey" fill="grey"/>
   </g>
   <g id="cell18">
  <circle cx="1888.37" cy="1548.05" r="8.39708" stroke-width="0.5" stroke="black" fill="grey"/>
  <circle cx="1888.37" cy="1548.05" r="5.0465" stroke-width="0.5" stroke="grey" fill="grey"/>
   </g>
   <g id="cell19">
  <circle cx="205.968" cy="848.334" r="8.38118" stroke-width="0.5" stroke="black" fill="grey"/>
  <circle cx="205.968" cy="848.334" r="5.04034" stroke-width="0.5" stroke="grey" fill="grey"/>
   </g>
   <g id="cell20">
  <circle cx="535.677" cy="388.154" r="10.5295" stroke-width="0.5" stroke="black" fill="grey"/>
  <circle cx="535.677" cy="388.154" r="6.33783" stroke-width="0.5" stroke="grey" fill="grey"/>
   </g>
   <g id="cell21">
  <circle cx="1495.99" cy="822.795" r="8.40272" stroke-width="0.5" stroke="black" fill="grey"/>
  <circle cx="1495.99" cy="822.795" r="5.04853" stroke-width="0.5" stroke="grey" fill="grey"/>
   </g>
   <g id="cell22">
  <circle cx="1160.91" cy="294.569" r="9.72149" stroke-width="0.5" stroke="black" fill="grey"/>
  <circle cx="1160.91" cy="294.569" r="5.90718" stroke-width="0.5" stroke="grey" fill="grey"/>
   </g>
   <g id="cell23">
  <circle cx="624.262" cy="1266.17" r="9.61497" stroke-width="0.5" stroke="black" fill="grey"/>
  <circle cx="624.262" cy="1266.17" r="5.84478" stroke-width="0.5" stroke="grey" fill="grey"/>
   </g>
   <g id="cell24">
  <circle cx="1204.32" cy="428.565" r="8.38118" stroke-width="0.5" stroke="black" fill="grey"/>
  <circle cx="1204.32" cy="428.565" r="5.04034" stroke-width="0.5" stroke="grey" fill="grey"/>
   </g>
   <g id="cell25">
  <circle cx="730.511" cy="1842.46" r="10.5039" stroke-width="0.5" stroke="black" fill="grey"/>
  <circle cx="730.511" cy="1842.46" r="6.32657" stroke-width="0.5" stroke="grey" fill="grey"/>
   </g>
   <g id="cell26">
  <circle cx="1298.06" cy="955.045" r="9.58347" stroke-width="0.5" stroke="black" fill="grey"/>
  <circle cx="1298.06" cy="955.045" r="5.82684" stroke-width="0.5" stroke="grey" fill="grey"/>
   </g>
   <g id="cell27">
  <circle cx="1195.35" cy="911.297" r="8.38028" stroke-width="0.5" stroke="black" fill="grey"/>
  <circle cx="1195.35" cy="911.297" r="5.03997" stroke-width="0.5" stroke="grey" fill="grey"/>
   </g>
   <g id="cell28">
  <circle cx="1408.78" cy="157.81" r="8.67552" stroke-width="0.5" stroke="black" fill="grey"/>
  <circle cx="1408.78" cy="157.81" r="5.24944" stroke-width="0.5" stroke="grey" fill="grey"/>
   </g>
   <g id="cell29">
  <circle cx="1890.82" cy="1349.54" r="8.37742" stroke-width="0.5" stroke="black" fill="grey"/>
  <circle cx="1890.82" cy="1349.54" r="5.03881" stroke-width="0.5" stroke="grey" fill="grey"/>
   </g>
   <g id="cell30">
  <circle cx="1383.35" cy="326.818" r="8.40272" stroke-width="0.5" stroke="black" fill="grey"/>
  <circle cx="1383.35" cy="326.818" r="5.04853" stroke-width="0.5" stroke="grey" fill="grey"/>
   </g>
   <g id="cell31">
  <circle cx="683.414" cy="302.767" r="2.11131" stroke-width="0.5" stroke="black" fill="grey"/>
  <circle cx="683.414" cy="302.767" r="1.97546" stroke-width="0.5" stroke="black" fill="black"/>
   </g>
   <g id="cell32">
  <circle cx="668.732" cy="1252.32" r="9.64134" stroke-width="0.5" stroke="black" fill="grey"/>
  <circle cx="668.732" cy="1252.32" r="5.8606" stroke-width="0.5" stroke="grey" fill="grey"/>
   </g>
   <g id="cell33">
  <circle cx="668.166" cy="1126.87" r="8.39473" stroke-width="0.5" stroke="black" fill="grey"/>
  <circle cx="668.166" cy="1126.87" r="5.04562" stroke-width="0.5" stroke="grey" fill="grey"/>
   </g>
   <g id="cell34">
  <circle cx="903.024" cy="1218.37" r="8.61884" stroke-width="0.5" stroke="black" fill="grey"/>
  <circle cx="903.024" cy="1218.37" r="5.21514" stroke-width="0.5" stroke="grey" fill="grey"/>
   </g>
   <g id="cell35">
  <circle cx="1917.64" cy="189.051" r="10.3474" stroke-width="0.5" stroke="black" fill="grey"/>
  <circle cx="1917.64" cy="189.051" r="6.25125" stroke-width="0.5" stroke="grey" fill="grey"/>
   </g>
   <g id="cell36">
  <circle cx="454.799" cy="1243.11" r="10.2328" stroke-width="0.5" stroke="black" fill="grey"/>
  <circle cx="454.799" cy="1243.11" r="6.19197" stroke-width="0.5" stroke="grey" fill="grey"/>
   </g>
   <g id="cell37">
  <circle cx="1946.63" cy="1286.54" r="10.1879" stroke-width="0.5" stroke="black" fill="grey"/>
  <circle cx="1946.63" cy="1286.54" r="6.16807" stroke-width="0.5" stroke="grey" fill="grey"/>
   </g>
   <g id="cell38">
  <circle cx="492.102" cy="810.76" r="9.26318" stroke-width="0.5" stroke="black" fill="grey"/>
  <circle cx="492.102" cy="810.76" r="5.63221" stroke-width="0.5" stroke="grey" fill="grey"/>
   </g>
   <g id="cell39">
  <circle cx="917.455" cy="476.519" r="8.99194" stroke-width="0.5" stroke="black" fill="grey"/>
  <circle cx="917.455" cy="476.519" r="5.46231" stroke-width="0.5" stroke="grey" fill="grey"/>
   </g>
   <g id="cell40">
  <circle cx="303.242" cy="713.49" r="8.38891" stroke-width="0.5" stroke="black" fill="grey"/>
  <circle cx="303.242" cy="713.49" r="5.0434" stroke-width="0.5" stroke="grey" fill="grey"/>
   </g>
   <g id="cell41">
  <circle cx="1420.35" cy="1287.02" r="10.5166" stroke-width="0.5" stroke="black" fill="grey"/>
  <circle cx="1420.35" cy="1287.02" r="6.33218" stroke-width="0.5" stroke="grey" fill="grey"/>
   </g>
   <g id="cell42">
  <circle cx="253.835" cy="1535.14" r="9.03635" stroke-width="0.5" stroke="black" fill="grey"/>
  <circle cx="253.835" cy="1535.14" r="5.48961" stroke-width="0.5" stroke="grey" fill="grey"/>
   </g>
   <g id="cell43">
  <circle cx="1877.33" cy="743.052" r="9.83725" stroke-width="0.5" stroke="black" fill="grey"/>
  <circle cx="1877.33" cy="743.052" r="5.97445" stroke-width="0.5" stroke="grey" fill="grey"/>
   </g>
   <g id="cell44">
  <circle cx="1655.89" cy="13.1898" r="9.83666" stroke-width="0.5" stroke="black" fill="grey"/>
  <circle cx="1655.89" cy="13.1898" r="5.97424" stroke-width="0.5" stroke="grey" fill="grey"/>
   </g>
   <g id="cell45">
  <circle cx="1228.26" cy="1657.77" r="9.49341" stroke-width="0.5" stroke="black" fill="grey"/>
  <circle cx="1228.26" cy="1657.77" r="5.77328" stroke-width="0.5" stroke="grey" fill="grey"/>
   </g>
   <g id="cell46">
  <circle cx="179.126" cy="1956.66" r="8.39794" stroke-width="0.5" stroke="black" fill="grey"/>
  <circle cx="179.126" cy="1956.66" r="5.04681" stroke-width="0.5" stroke="grey" fill="grey"/>
   </g>
   <g id="cell47">
  <circle cx="1746.13" cy="923.273" r="10.4726" stroke-width="0.5" stroke="black" fill="grey"/>
  <circle cx="1746.13" cy="923.273" r="6.31223" stroke-width="0.5" stroke="grey" fill="grey"/>
   </g>
   <g id="cell48">
  <circle cx="1919.46" cy="102.688" r="8.39794" stroke-width="0.5" stroke="black" fill="grey"/>
  <circle cx="1919.46" cy="102.688" r="5.04681" stroke-width="0.5" stroke="grey" fill="grey"/>
   </g>
   <g id="cell49">
  <circle cx="895.459" cy="1434.9" r="10.4651" stroke-width="0.5" stroke="black" fill="grey"/>
  <circle cx="895.459" cy="1434.9" r="6.30877" stroke-width="0.5" stroke="grey" fill="grey"/>
   </g>
   <g id="cell50">
  <circle cx="92.6088" cy="905.91" r="8.38753" stroke-width="0.5" stroke="black" fill="red"/>
  <circle cx="92.6088" cy="905.91" r="5.04286" stroke-width="0.5" stroke="red" fill="red"/>
   </g>
   <g id="cell51">
  <circle cx="1954.75" cy="250.16" r="8.94852" stroke-width="0.5" stroke="black" fill="red"/>
  <circle cx="1954.75" cy="250.16" r="5.43508" stroke-width="0.5" stroke="red" fill="red"/>
   </g>
   <g id="cell52">
  <circle cx="614.1" cy="963.763" r="9.02444" stroke-width="0.5" stroke="black" fill="red"/>
  <circle cx="614.1" cy="963.763" r="5.48491" stroke-width="0.5" stroke="red" fill="red"/>
   </g>
   <g id="cell53">
  <circle cx="1338.53" cy="643.49" r="8.38028" stroke-width="0.5" stroke="black" fill="red"/>
  <circle cx="1338.53" cy="643.49" r="5.03997" stroke-width="0.5" stroke="red" fill="red"/>
   </g>
   <g id="cell54">
  <circle cx="882.121" cy="1892.35" r="9.11457" stroke-width="0.5" stroke="black" fill="red"/>
  <circle cx="882.121" cy="1892.35" r="5.53927" stroke-width="0.5" stroke="red" fill="red"/>
   </g>
   <g id="cell55">
  <circle cx="438.879" cy="1414.62" r="10.2911" stroke-width="0.5" stroke="black" fill="red"/>
  <circle cx="438.879" cy="1414.62" r="6.22246" stroke-width="0.5" stroke="red" fill="red"/>
   </g>
   <g id="cell56">
  <circle cx="1173.46" cy="1711.11" r="8.37321" stroke-width="0.5" stroke="black" fill="red"/>
  <circle cx="1173.46" cy="1711.11" r="5.03708" stroke-width="0.5" stroke="red" fill="red"/>
   </g>
   <g id="cell57">
  <circle cx="1001.69" cy="1077.31" r="8.38373" stroke-width="0.5" stroke="black" fill="red"/>
  <circle cx="1001.69" cy="1077.31" r="5.04136" stroke-width="0.5" stroke="red" fill="red"/>
   </g>
   <g id="cell58">
  <circle cx="194.983" cy="1868.82" r="8.99805" stroke-width="0.5" stroke="black" fill="red"/>
  <circle cx="194.983" cy="1868.82" r="5.46465" stroke-width="0.5" stroke="red" fill="red"/>
   </g>
   <g id="cell59">
  <circle cx="184.959" cy="1814.78" r="9.89875" stroke-width="0.5" stroke="black" fill="red"/>
  <circle cx="184.959" cy="1814.78" r="6.00984" stroke-width="0.5" stroke="red" fill="red"/>
   </g>
   <g id="cell60">
  <circle cx="627.867" cy="68.4756" r="9.64134" stroke-width="0.5" stroke="black" fill="red"/>
  <circle cx="627.867" cy="68.4756" r="5.8606" stroke-width="0.5" stroke="red" fill="red"/>
   </g>
   <g id="cell61">
  <circle cx="1688.96" cy="226.264" r="8.41271" stroke-width="0.5" stroke="black" fill="red"/>
  <circle cx="1688.96" cy="226.264" r="5.05167" stroke-width="0.5" stroke="red" fill="red"/>
   </g>
   <g id="cell62">
  <circle cx="1428.84" cy="1679.79" r="8.4045" stroke-width="0.5" stroke="black" fill="red"/>
  <circle cx="1428.84" cy="1679.79" r="5.04914" stroke-width="0.5" stroke="red" fill="red"/>
   </g>
   <g id="cell63">
  <circle cx="487.693" cy="379.239" r="9.49631" stroke-width="0.5" stroke="black" fill="red"/>
  <circle cx="487.693" cy="379.239" r="5.77438" stroke-width="0.5" stroke="red" fill="red"/>
   </g>
   <g id="cell64">
  <circle cx="1178.77" cy="1096.08" r="9.93993" stroke-width="0.5" stroke="black" fill="red"/>
  <circle cx="1178.77" cy="1096.08" r="6.0327" stroke-width="0.5" stroke="red" fill="red"/>
   </g>
   <g id="cell65">
  <circle cx="346.743" cy="1658.85" r="10.3474" stroke-width="0.5" stroke="black" fill="red"/>
  <circle cx="346.743" cy="1658.85" r="6.25125" stroke-width="0.5" stroke="red" fill="red"/>
   </g>
   <g id="cell66">
  <circle cx="26.9276" cy="322.852" r="8.79836" stroke-width="0.5" stroke="black" fill="red"/>
  <circle cx="26.9276" cy="322.852" r="5.33262" stroke-width="0.5" stroke="red" fill="red"/>
   </g>
   <g id="cell67">
  <circle cx="1205.69" cy="547.449" r="8.41461" stroke-width="0.5" stroke="black" fill="red"/>
  <circle cx="1205.69" cy="547.449" r="5.05951" stroke-width="0.5" stroke="red" fill="red"/>
   </g>
   <g id="cell68">
  <circle cx="1439.23" cy="591.467" r="8.39834" stroke-width="0.5" stroke="black" fill="red"/>
  <circle cx="1439.23" cy="591.467" r="5.04696" stroke-width="0.5" stroke="red" fill="red"/>
   </g>
   <g id="cell69">
  <circle cx="898.423" cy="478.179" r="9.99257" stroke-width="0.5" stroke="black" fill="red"/>
  <circle cx="898.423" cy="478.179" r="6.06265" stroke-width="0.5" stroke="red" fill="red"/>
   </g>
   <g id="cell70">
  <circle cx="1151.96" cy="737.818" r="8.40378" stroke-width="0.5" stroke="black" fill="red"/>
  <circle cx="1151.96" cy="737.818" r="5.0489" stroke-width="0.5" stroke="red" fill="red"/>
   </g>
   <g id="cell71">
  <circle cx="1777.27" cy="1142.82" r="8.40403" stroke-width="0.5" stroke="black" fill="red"/>
  <circle cx="1777.27" cy="1142.82" r="5.04898" stroke-width="0.5" stroke="red" fill="red"/>
   </g>
   <g id="cell72">
  <circle cx="461.385" cy="1734.91" r="9.11233" stroke-width="0.5" stroke="black" fill="red"/>
  <circle cx="461.385" cy="1734.91" r="5.53842" stroke-width="0.5" stroke="red" fill="red"/>
   </g>
   <g id="cell73">
  <circle cx="1399.08" cy="851.206" r="8.40244" stroke-width="0.5" stroke="black" fill="red"/>
  <circle cx="1399.08" cy="851.206" r="5.04843" stroke-width="0.5" stroke="red" fill="red"/>
   </g>
   <g id="cell74">
  <circle cx="1675.3" cy="1991.89" r="8.39144" stroke-width="0.5" stroke="black" fill="red"/>
  <circle cx="1675.3" cy="1991.89" r="5.04437" stroke-width="0.5" stroke="red" fill="red"/>
   </g>
   <g id="cell75">
  <circle cx="241.863" cy="625.875" r="8.39987" stroke-width="0.5" stroke="black" fill="red"/>
  <circle cx="241.863" cy="625.875" r="5.04751" stroke-width="0.5" stroke="red" fill="red"/>
   </g>
   <g id="cell76">
  <circle cx="1670.63" cy="773.776" r="8.3784" stroke-width="0.5" stroke="black" fill="red"/>
  <circle cx="1670.63" cy="773.776" r="5.03921" stroke-width="0.5" stroke="red" fill="red"/>
   </g>
   <g id="cell77">
  <circle cx="1334.37" cy="1792.59" r="8.37537" stroke-width="0.5" stroke="black" fill="red"/>
  <circle cx="1334.37" cy="1792.59" r="5.03798" stroke-width="0.5" stroke="red" fill="red"/>
   </g>
   <g id="cell78">
  <circle cx="1106.6" cy="655.477" r="8.39987" stroke-width="0.5" stroke="black" fill="red"/>
  <circle cx="1106.6" cy="655.477" r="5.04751" stroke-width="0.5" stroke="red" fill="red"/>
   </g>
   <g id="cell79">
  <circle cx="1909.62" cy="1330.47" r="9.77045" stroke-width="0.5" stroke="black" fill="red"/>
  <circle cx="1909.62" cy="1330.47" r="5.9356" stroke-width="0.5" stroke="red" fill="red"/>
   </g>
   <g id="cell80">
  <circle cx="1437.47" cy="1355.27" r="8.40123" stroke-width="0.5" stroke="black" fill="red"/>
  <circle cx="1437.47" cy="1355.27" r="5.048" stroke-width="0.5" stroke="red" fill="red"/>
   </g>
   <g id="cell81">
  <circle cx="1095.33" cy="1930.99" r="10.5275" stroke-width="0.5" stroke="black" fill="red"/>
  <circle cx="1095.33" cy="1930.99" r="6.33696" stroke-width="0.5" stroke="red" fill="red"/>
   </g>
   <g id="cell82">
  <circle cx="1192.2" cy="762.33" r="9.11591" stroke-width="0.5" stroke="black" fill="red"/>
  <circle cx="1192.2" cy="762.33" r="5.53977" stroke-width="0.5" stroke="red" fill="red"/>
   </g>
   <g id="cell83">
  <circle cx="1242.13" cy="1209.94" r="10.4726" stroke-width="0.5" stroke="black" fill="red"/>
  <circle cx="1242.13" cy="1209.94" r="6.31223" stroke-width="0.5" stroke="red" fill="red"/>
   </g>
   <g id="cell84">
  <circle cx="38.2008" cy="952.982" r="8.39083" stroke-width="0.5" stroke="black" fill="red"/>
  <circle cx="38.2008" cy="952.982" r="5.04414" stroke-width="0.5" stroke="red" fill="red"/>
   </g>
   <g id="cell85">
  <circle cx="1438.66" cy="1302.95" r="9.19401" stroke-width="0.5" stroke="black" fill="red"/>
  <circle cx="1438.66" cy="1302.95" r="5.5882" stroke-width="0.5" stroke="red" fill="red"/>
   </g>
   <g id="cell86">
  <circle cx="550.924" cy="725.582" r="9.63845" stroke-width="0.5" stroke="black" fill="red"/>
  <circle cx="550.924" cy="725.582" r="5.85952" stroke-width="0.5" stroke="red" fill="red"/>
   </g>
   <g id="cell87">
  <circle cx="1485.4" cy="875.633" r="8.4045" stroke-width="0.5" stroke="black" fill="red"/>
  <circle cx="1485.4" cy="875.633" r="5.04914" stroke-width="0.5" stroke="red" fill="red"/>
   </g>
   <g id="cell88">
  <circle cx="295.439" cy="226.271" r="8.38206" stroke-width="0.5" stroke="black" fill="red"/>
  <circle cx="295.439" cy="226.271" r="5.04069" stroke-width="0.5" stroke="red" fill="red"/>
   </g>
   <g id="cell89">
  <circle cx="212.266" cy="1134.73" r="8.40494" stroke-width="0.5" stroke="black" fill="red"/>
  <circle cx="212.266" cy="1134.73" r="5.04929" stroke-width="0.5" stroke="red" fill="red"/>
   </g>
   <g id="cell90">
  <circle cx="1123.45" cy="1146.51" r="10.3615" stroke-width="0.5" stroke="black" fill="red"/>
  <circle cx="1123.45" cy="1146.51" r="6.25834" stroke-width="0.5" stroke="red" fill="red"/>
   </g>
   <g id="cell91">
  <circle cx="30.7815" cy="1321.1" r="8.39834" stroke-width="0.5" stroke="black" fill="red"/>
  <circle cx="30.7815" cy="1321.1" r="5.04696" stroke-width="0.5" stroke="red" fill="red"/>
   </g>
   <g id="cell92">
  <circle cx="1267.99" cy="685.322" r="10.5117" stroke-width="0.5" stroke="black" fill="red"/>
  <circle cx="1267.99" cy="685.322" r="6.33005" stroke-width="0.5" stroke="red" fill="red"/>
   </g>
   <g id="cell93">
  <circle cx="443.524" cy="1791.33" r="9.08012" stroke-width="0.5" stroke="black" fill="red"/>
  <circle cx="443.524" cy="1791.33" r="5.5163" stroke-width="0.5" stroke="red" fill="red"/>
   </g>
   <g id="cell94">
  <circle cx="724.435" cy="219.882" r="9.61297" stroke-width="0.5" stroke="black" fill="red"/>
  <circle cx="724.435" cy="219.882" r="5.84404" stroke-width="0.5" stroke="red" fill="red"/>
   </g>
   <g id="cell95">
  <circle cx="1949.32" cy="1809.24" r="8.41133" stroke-width="0.5" stroke="black" fill="red"/>
  <circle cx="1949.32" cy="1809.24" r="5.05827" stroke-width="0.5" stroke="red" fill="red"/>
   </g>
   <g id="cell96">
  <circle cx="1613.43" cy="1025.67" r="1.51085" stroke-width="0.5" stroke="black" fill="red"/>
  <circle cx="1613.43" cy="1025.67" r="1.505" stroke-width="0.5" stroke="black" fill="black"/>
   </g>
   <g id="cell97">
  <circle cx="920.482" cy="251.952" r="8.39523" stroke-width="0.5" stroke="black" fill="red"/>
  <circle cx="920.482" cy="251.952" r="5.04581" stroke-width="0.5" stroke="red" fill="red"/>
   </g>
   <g id="cell98">
  <circle cx="1778.43" cy="686.546" r="9.19081" stroke-width="0.5" stroke="black" fill="red"/>
  <circle cx="1778.43" cy="686.546" r="5.58703" stroke-width="0.5" stroke="red" fill="red"/>
   </g>
   <g id="cell99">
  <circle cx="929.407" cy="1978.84" r="8.39473" stroke-width="0.5" stroke="black" fill="red"/>
  <circle cx="929.407" cy="1978.84" r="5.04562" stroke-width="0.5" stroke="red" fill="red"/>
   </g>
   <g id="cell101">
  <circle cx="1398.32" cy="1345.19" r="9.08012" stroke-width="0.5" stroke="black" fill="red"/>
  <circle cx="1398.32" cy="1345.19" r="5.5163" stroke-width="0.5" stroke="red" fill="red"/>
   </g>
   <g id="cell102">
  <circle cx="464.61" cy="1795.32" r="8.40537" stroke-width="0.5" stroke="black" fill="red"/>
  <circle cx="464.61" cy="1795.32" r="5.04944" stroke-width="0.5" stroke="red" fill="red"/>
   </g>
   <g id="cell103">
  <circle cx="1901.68" cy="1357.98" r="1.8982" stroke-width="0.5" stroke="black" fill="red"/>
  <circle cx="1901.68" cy="1357.98" r="1.81929" stroke-width="0.5" stroke="black" fill="black"/>
   </g>
   <g id="cell104">
  <circle cx="790.927" cy="1663.52" r="8.40516" stroke-width="0.5" stroke="black" fill="grey"/>
  <circle cx="790.927" cy="1663.52" r="5.04937" stroke-width="0.5" stroke="grey" fill="grey"/>
   </g>
   <g id="cell105">
  <circle cx="263.985" cy="1153.53" r="9.49922" stroke-width="0.5" stroke="black" fill="red"/>
  <circle cx="263.985" cy="1153.53" r="5.77544" stroke-width="0.5" stroke="red" fill="red"/>
   </g>
   <g id="cell106">
  <circle cx="1160.97" cy="1150.74" r="9.43639" stroke-width="0.5" stroke="black" fill="red"/>
  <circle cx="1160.97" cy="1150.74" r="5.73752" stroke-width="0.5" stroke="red" fill="red"/>
   </g>
   <g id="cell107">
  <circle cx="1164.21" cy="239.971" r="9.93993" stroke-width="0.5" stroke="black" fill="grey"/>
  <circle cx="1164.21" cy="239.971" r="6.0327" stroke-width="0.5" stroke="grey" fill="grey"/>
   </g>
   <g id="cell108">
  <circle cx="1397.9" cy="1691.49" r="9.37025" stroke-width="0.5" stroke="black" fill="red"/>
  <circle cx="1397.9" cy="1691.49" r="5.69736" stroke-width="0.5" stroke="red" fill="red"/>
   </g>
   <g id="cell109">
  <circle cx="1490.92" cy="912.247" r="8.4045" stroke-width="0.5" stroke="black" fill="red"/>
  <circle cx="1490.92" cy="912.247" r="5.04914" stroke-width="0.5" stroke="red" fill="red"/>
   </g>
   <g id="cell110">
  <circle cx="1781.18" cy="1093.64" r="8.64306" stroke-width="0.5" stroke="black" fill="red"/>
  <circle cx="1781.18" cy="1093.64" r="5.22456" stroke-width="0.5" stroke="red" fill="red"/>
   </g>
   <g id="cell111">
  <circle cx="1147.9" cy="812.862" r="8.40378" stroke-width="0.5" stroke="black" fill="red"/>
  <circle cx="1147.9" cy="812.862" r="5.0489" stroke-width="0.5" stroke="red" fill="red"/>
   </g>
   <g id="cell112">
  <circle cx="582.19" cy="1237.61" r="9.93891" stroke-width="0.5" stroke="black" fill="grey"/>
  <circle cx="582.19" cy="1237.61" r="6.03234" stroke-width="0.5" stroke="grey" fill="grey"/>
   </g>
   <g id="cell113">
  <circle cx="1885.91" cy="760.748" r="10.059" stroke-width="0.5" stroke="black" fill="grey"/>
  <circle cx="1885.91" cy="760.748" r="6.09938" stroke-width="0.5" stroke="grey" fill="grey"/>
   </g>
   <g id="cell114">
  <circle cx="957.283" cy="603.838" r="8.56922" stroke-width="0.5" stroke="black" fill="grey"/>
  <circle cx="957.283" cy="603.838" r="5.17161" stroke-width="0.5" stroke="grey" fill="grey"/>
   </g>
   <g id="cell115">
  <circle cx="1482.17" cy="824.735" r="8.40272" stroke-width="0.5" stroke="black" fill="grey"/>
  <circle cx="1482.17" cy="824.735" r="5.04853" stroke-width="0.5" stroke="grey" fill="grey"/>
   </g>
   <g id="cell116">
  <circle cx="1659.22" cy="38.2388" r="9.64178" stroke-width="0.5" stroke="black" fill="grey"/>
  <circle cx="1659.22" cy="38.2388" r="5.86076" stroke-width="0.5" stroke="grey" fill="grey"/>
   </g>
   <g id="cell117">
  <circle cx="1333.08" cy="387.486" r="8.40272" stroke-width="0.5" stroke="black" fill="grey"/>
  <circle cx="1333.08" cy="387.486" r="5.04853" stroke-width="0.5" stroke="grey" fill="grey"/>
   </g>
   <g id="cell118">
  <circle cx="34.8243" cy="306.253" r="9.76828" stroke-width="0.5" stroke="black" fill="red"/>
  <circle cx="34.8243" cy="306.253" r="5.93483" stroke-width="0.5" stroke="red" fill="red"/>
   </g>
   <g id="cell119">
  <circle cx="872.606" cy="480.11" r="8.40244" stroke-width="0.5" stroke="black" fill="red"/>
  <circle cx="872.606" cy="480.11" r="5.04843" stroke-width="0.5" stroke="red" fill="red"/>
   </g>
   <g id="cell120">
  <circle cx="1394.75" cy="886.517" r="8.99911" stroke-width="0.5" stroke="black" fill="red"/>
  <circle cx="1394.75" cy="886.517" r="5.46505" stroke-width="0.5" stroke="red" fill="red"/>
   </g>
   <g id="cell121">
  <circle cx="1176.57" cy="775.936" r="9.89897" stroke-width="0.5" stroke="black" fill="red"/>
  <circle cx="1176.57" cy="775.936" r="6.00992" stroke-width="0.5" stroke="red" fill="red"/>
   </g>
   <g id="cell122">
  <circle cx="628.653" cy="20.4003" r="9.29964" stroke-width="0.5" stroke="black" fill="red"/>
  <circle cx="628.653" cy="20.4003" r="5.65449" stroke-width="0.5" stroke="red" fill="red"/>
   </g>
   <g id="cell123">
  <circle cx="706.457" cy="1280.63" r="9.93793" stroke-width="0.5" stroke="black" fill="grey"/>
  <circle cx="706.457" cy="1280.63" r="6.03199" stroke-width="0.5" stroke="grey" fill="grey"/>
   </g>
   <g id="cell124">
  <circle cx="204.145" cy="1821.3" r="8.40185" stroke-width="0.5" stroke="black" fill="red"/>
  <circle cx="204.145" cy="1821.3" r="5.04822" stroke-width="0.5" stroke="red" fill="red"/>
   </g>
   <g id="cell125">
  <circle cx="1768.39" cy="670.437" r="8.75752" stroke-width="0.5" stroke="black" fill="red"/>
  <circle cx="1768.39" cy="670.437" r="5.30512" stroke-width="0.5" stroke="red" fill="red"/>
   </g>
   <g id="cell126">
  <circle cx="467.786" cy="423.333" r="8.40123" stroke-width="0.5" stroke="black" fill="red"/>
  <circle cx="467.786" cy="423.333" r="5.048" stroke-width="0.5" stroke="red" fill="red"/>
   </g>
   <g id="cell127">
  <circle cx="211.783" cy="1797.33" r="8.40123" stroke-width="0.5" stroke="black" fill="red"/>
  <circle cx="211.783" cy="1797.33" r="5.048" stroke-width="0.5" stroke="red" fill="red"/>
   </g>
   <g id="cell128">
  <circle cx="1477.74" cy="1324.27" r="9.29888" stroke-width="0.5" stroke="black" fill="red"/>
  <circle cx="1477.74" cy="1324.27" r="5.65421" stroke-width="0.5" stroke="red" fill="red"/>
   </g>
   <g id="cell129">
  <circle cx="736.751" cy="199.821" r="8.4009" stroke-width="0.5" stroke="black" fill="red"/>
  <circle cx="736.751" cy="199.821" r="5.04788" stroke-width="0.5" stroke="red" fill="red"/>
   </g>
   <g id="cell130">
  <circle cx="500.865" cy="847.472" r="8.4009" stroke-width="0.5" stroke="black" fill="grey"/>
  <circle cx="500.865" cy="847.472" r="5.04788" stroke-width="0.5" stroke="grey" fill="grey"/>
   </g>
   <g id="cell131">
  <circle cx="818.864" cy="1840.56" r="8.40056" stroke-width="0.5" stroke="black" fill="red"/>
  <circle cx="818.864" cy="1840.56" r="5.04776" stroke-width="0.5" stroke="red" fill="red"/>
   </g>
   <g id="cell132">
  <circle cx="215.37" cy="682.979" r="8.39987" stroke-width="0.5" stroke="black" fill="red"/>
  <circle cx="215.37" cy="682.979" r="5.04751" stroke-width="0.5" stroke="red" fill="red"/>
   </g>
   <g id="cell133">
  <circle cx="1141.2" cy="646.038" r="8.39987" stroke-width="0.5" stroke="black" fill="red"/>
  <circle cx="1141.2" cy="646.038" r="5.04751" stroke-width="0.5" stroke="red" fill="red"/>
   </g>
   <g id="cell134">
  <circle cx="1735.23" cy="1935.32" r="8.39987" stroke-width="0.5" stroke="black" fill="grey"/>
  <circle cx="1735.23" cy="1935.32" r="5.04751" stroke-width="0.5" stroke="grey" fill="grey"/>
   </g>
   <g id="cell135">
  <circle cx="249.236" cy="1559.28" r="8.39987" stroke-width="0.5" stroke="black" fill="grey"/>
  <circle cx="249.236" cy="1559.28" r="5.04751" stroke-width="0.5" stroke="grey" fill="grey"/>
   </g>
   <g id="cell136">
  <circle cx="1343.3" cy="918.75" r="8.39913" stroke-width="0.5" stroke="black" fill="grey"/>
  <circle cx="1343.3" cy="918.75" r="5.04725" stroke-width="0.5" stroke="grey" fill="grey"/>
   </g>
   <g id="cell137">
  <circle cx="1116.88" cy="306.661" r="9.07478" stroke-width="0.5" stroke="black" fill="grey"/>
  <circle cx="1116.88" cy="306.661" r="5.51432" stroke-width="0.5" stroke="grey" fill="grey"/>
   </g>
   <g id="cell138">
  <circle cx="1478.23" cy="570.046" r="8.39834" stroke-width="0.5" stroke="black" fill="red"/>
  <circle cx="1478.23" cy="570.046" r="5.04696" stroke-width="0.5" stroke="red" fill="red"/>
   </g>
   <g id="cell139">
  <circle cx="553.216" cy="772.483" r="9.43116" stroke-width="0.5" stroke="black" fill="red"/>
  <circle cx="553.216" cy="772.483" r="5.73558" stroke-width="0.5" stroke="red" fill="red"/>
   </g>
   <g id="cell140">
  <circle cx="706.632" cy="294.412" r="8.39834" stroke-width="0.5" stroke="black" fill="grey"/>
  <circle cx="706.632" cy="294.412" r="5.04696" stroke-width="0.5" stroke="grey" fill="grey"/>
   </g>
   <g id="cell141">
  <circle cx="71.2543" cy="1329.74" r="8.39834" stroke-width="0.5" stroke="black" fill="red"/>
  <circle cx="71.2543" cy="1329.74" r="5.04696" stroke-width="0.5" stroke="red" fill="red"/>
   </g>
   <g id="cell142">
  <circle cx="449.177" cy="1759.57" r="8.71456" stroke-width="0.5" stroke="black" fill="red"/>
  <circle cx="449.177" cy="1759.57" r="5.27663" stroke-width="0.5" stroke="red" fill="red"/>
   </g>
   <g id="cell143">
  <circle cx="1426.07" cy="118.794" r="8.39794" stroke-width="0.5" stroke="black" fill="grey"/>
  <circle cx="1426.07" cy="118.794" r="5.04681" stroke-width="0.5" stroke="grey" fill="grey"/>
   </g>
   <g id="cell144">
  <circle cx="1896.33" cy="101.466" r="8.39794" stroke-width="0.5" stroke="black" fill="grey"/>
  <circle cx="1896.33" cy="101.466" r="5.04681" stroke-width="0.5" stroke="grey" fill="grey"/>
   </g>
   <g id="cell145">
  <circle cx="228.075" cy="1283.16" r="8.39794" stroke-width="0.5" stroke="black" fill="grey"/>
  <circle cx="228.075" cy="1283.16" r="5.04681" stroke-width="0.5" stroke="grey" fill="grey"/>
   </g>
   <g id="cell146">
  <circle cx="193.131" cy="1942.29" r="8.39794" stroke-width="0.5" stroke="black" fill="grey"/>
  <circle cx="193.131" cy="1942.29" r="5.04681" stroke-width="0.5" stroke="grey" fill="grey"/>
   </g>
   <g id="cell147">
  <circle cx="1236.63" cy="1619.75" r="9.69059" stroke-width="0.5" stroke="black" fill="grey"/>
  <circle cx="1236.63" cy="1619.75" r="5.89031" stroke-width="0.5" stroke="grey" fill="grey"/>
   </g>
   <g id="cell148">
  <circle cx="1244.22" cy="1250.32" r="9.36429" stroke-width="0.5" stroke="black" fill="grey"/>
  <circle cx="1244.22" cy="1250.32" r="5.69513" stroke-width="0.5" stroke="grey" fill="grey"/>
   </g>
   <g id="cell149">
  <circle cx="1901.41" cy="1571.38" r="8.39708" stroke-width="0.5" stroke="black" fill="grey"/>
  <circle cx="1901.41" cy="1571.38" r="5.0465" stroke-width="0.5" stroke="grey" fill="grey"/>
   </g>
   <g id="cell150">
  <circle cx="921.397" cy="271.681" r="9.46053" stroke-width="0.5" stroke="black" fill="red"/>
  <circle cx="921.397" cy="271.681" r="5.75387" stroke-width="0.5" stroke="red" fill="red"/>
   </g>
   <g id="cell151">
  <circle cx="1100.45" cy="1697.91" r="8.39473" stroke-width="0.5" stroke="black" fill="grey"/>
  <circle cx="1100.45" cy="1697.91" r="5.04562" stroke-width="0.5" stroke="grey" fill="grey"/>
   </g>
   <g id="cell152">
  <circle cx="630.995" cy="1151.85" r="8.39473" stroke-width="0.5" stroke="black" fill="grey"/>
  <circle cx="630.995" cy="1151.85" r="5.04562" stroke-width="0.5" stroke="grey" fill="grey"/>
   </g>
   <g id="cell153">
  <circle cx="942.57" cy="1961.54" r="8.39473" stroke-width="0.5" stroke="black" fill="red"/>
  <circle cx="942.57" cy="1961.54" r="5.04562" stroke-width="0.5" stroke="red" fill="red"/>
   </g>
   <g id="cell154">
  <circle cx="1185.81" cy="550.126" r="8.39473" stroke-width="0.5" stroke="black" fill="red"/>
  <circle cx="1185.81" cy="550.126" r="5.04562" stroke-width="0.5" stroke="red" fill="red"/>
   </g>
   <g id="cell155">
  <circle cx="922.424" cy="513.475" r="8.99194" stroke-width="0.5" stroke="black" fill="grey"/>
  <circle cx="922.424" cy="513.475" r="5.46231" stroke-width="0.5" stroke="grey" fill="grey"/>
   </g>
   <g id="cell156">
  <circle cx="1707.19" cy="1273.31" r="8.3937" stroke-width="0.5" stroke="black" fill="grey"/>
  <circle cx="1707.19" cy="1273.31" r="5.04523" stroke-width="0.5" stroke="grey" fill="grey"/>
   </g>
   <g id="cell157">
  <circle cx="1921.09" cy="1804.81" r="9.21922" stroke-width="0.5" stroke="black" fill="red"/>
  <circle cx="1921.09" cy="1804.81" r="5.60674" stroke-width="0.5" stroke="red" fill="red"/>
   </g>
   <g id="cell158">
  <circle cx="1646.37" cy="1944.78" r="8.39144" stroke-width="0.5" stroke="black" fill="red"/>
  <circle cx="1646.37" cy="1944.78" r="5.04437" stroke-width="0.5" stroke="red" fill="red"/>
   </g>
   <g id="cell159">
  <circle cx="66.3117" cy="941.022" r="9.21871" stroke-width="0.5" stroke="black" fill="red"/>
  <circle cx="66.3117" cy="941.022" r="5.60654" stroke-width="0.5" stroke="red" fill="red"/>
   </g>
   <g id="cell160">
  <circle cx="1978.51" cy="234.728" r="8.94852" stroke-width="0.5" stroke="black" fill="red"/>
  <circle cx="1978.51" cy="234.728" r="5.43508" stroke-width="0.5" stroke="red" fill="red"/>
   </g>
   <g id="cell161">
  <circle cx="1524.18" cy="282.12" r="8.90833" stroke-width="0.5" stroke="black" fill="grey"/>
  <circle cx="1524.18" cy="282.12" r="5.40884" stroke-width="0.5" stroke="grey" fill="grey"/>
   </g>
   <g id="cell162">
  <circle cx="265.854" cy="716.16" r="8.38891" stroke-width="0.5" stroke="black" fill="grey"/>
  <circle cx="265.854" cy="716.16" r="5.0434" stroke-width="0.5" stroke="grey" fill="grey"/>
   </g>
   <g id="cell163">
  <circle cx="1600.75" cy="1582.13" r="8.38823" stroke-width="0.5" stroke="black" fill="grey"/>
  <circle cx="1600.75" cy="1582.13" r="5.04313" stroke-width="0.5" stroke="grey" fill="grey"/>
   </g>
   <g id="cell164">
  <circle cx="843.063" cy="933.499" r="8.38753" stroke-width="0.5" stroke="black" fill="grey"/>
  <circle cx="843.063" cy="933.499" r="5.04286" stroke-width="0.5" stroke="grey" fill="grey"/>
   </g>
   <g id="cell165">
  <circle cx="87.9408" cy="884.414" r="8.38753" stroke-width="0.5" stroke="black" fill="red"/>
  <circle cx="87.9408" cy="884.414" r="5.04286" stroke-width="0.5" stroke="red" fill="red"/>
   </g>
   <g id="cell167">
  <circle cx="1005.43" cy="1572.39" r="8.38454" stroke-width="0.5" stroke="black" fill="grey"/>
  <circle cx="1005.43" cy="1572.39" r="5.04168" stroke-width="0.5" stroke="grey" fill="grey"/>
   </g>
   <g id="cell168">
  <circle cx="988.615" cy="1056.07" r="8.38373" stroke-width="0.5" stroke="black" fill="red"/>
  <circle cx="988.615" cy="1056.07" r="5.04136" stroke-width="0.5" stroke="red" fill="red"/>
   </g>
   <g id="cell169">
  <circle cx="281.674" cy="227.725" r="8.38206" stroke-width="0.5" stroke="black" fill="red"/>
  <circle cx="281.674" cy="227.725" r="5.04069" stroke-width="0.5" stroke="red" fill="red"/>
   </g>
   <g id="cell170">
  <circle cx="204.823" cy="818.771" r="8.38118" stroke-width="0.5" stroke="black" fill="grey"/>
  <circle cx="204.823" cy="818.771" r="5.04034" stroke-width="0.5" stroke="grey" fill="grey"/>
   </g>
   <g id="cell171">
  <circle cx="1219.84" cy="424.324" r="8.38118" stroke-width="0.5" stroke="black" fill="grey"/>
  <circle cx="1219.84" cy="424.324" r="5.04034" stroke-width="0.5" stroke="grey" fill="grey"/>
   </g>
   <g id="cell172">
  <circle cx="1217.73" cy="910.979" r="8.38028" stroke-width="0.5" stroke="black" fill="grey"/>
  <circle cx="1217.73" cy="910.979" r="5.03997" stroke-width="0.5" stroke="grey" fill="grey"/>
   </g>
   <g id="cell173">
  <circle cx="1348.02" cy="655.31" r="8.58332" stroke-width="0.5" stroke="black" fill="red"/>
  <circle cx="1348.02" cy="655.31" r="5.18923" stroke-width="0.5" stroke="red" fill="red"/>
   </g>
   <g id="cell174">
  <circle cx="1659.13" cy="786.357" r="8.3784" stroke-width="0.5" stroke="black" fill="red"/>
  <circle cx="1659.13" cy="786.357" r="5.03921" stroke-width="0.5" stroke="red" fill="red"/>
   </g>
   <g id="cell175">
  <circle cx="889.33" cy="1225.42" r="8.54557" stroke-width="0.5" stroke="black" fill="grey"/>
  <circle cx="889.33" cy="1225.42" r="5.16245" stroke-width="0.5" stroke="grey" fill="grey"/>
   </g>
   <g id="cell176">
  <circle cx="1884.91" cy="1370.5" r="8.37742" stroke-width="0.5" stroke="black" fill="grey"/>
  <circle cx="1884.91" cy="1370.5" r="5.03881" stroke-width="0.5" stroke="grey" fill="grey"/>
   </g>
   <g id="cell177">
  <circle cx="1346.82" cy="1801.03" r="8.37537" stroke-width="0.5" stroke="black" fill="red"/>
  <circle cx="1346.82" cy="1801.03" r="5.03798" stroke-width="0.5" stroke="red" fill="red"/>
   </g>
   <g id="cell178">
  <circle cx="1538.85" cy="1023.69" r="8.37537" stroke-width="0.5" stroke="black" fill="grey"/>
  <circle cx="1538.85" cy="1023.69" r="5.03798" stroke-width="0.5" stroke="grey" fill="grey"/>
   </g>
   <g id="cell179">
  <circle cx="1148.73" cy="1700.14" r="8.37321" stroke-width="0.5" stroke="black" fill="red"/>
  <circle cx="1148.73" cy="1700.14" r="5.03708" stroke-width="0.5" stroke="red" fill="red"/>
   </g>
   <g id="cell180">
  <circle cx="1141.86" cy="1266.75" r="8.36849" stroke-width="0.5" stroke="black" fill="grey"/>
  <circle cx="1141.86" cy="1266.75" r="5.03512" stroke-width="0.5" stroke="grey" fill="grey"/>
   </g>
  </g>
 </g>
  <rect x="1750" y="2070" width="200" height="20" stroke-width="4" stroke="rgb(255,255,255)" fill="rgb(0,0,0)"/>
  <text x="1762.5" y="2057.5"
   font-family="Arial" font-size="50" fill="black" >
   200 &#956;m
  </text>
  <text x="50" y="2090"
   font-family="Arial" font-size="37.5" fill="black" >
   0 days, 0 hours, 0 minutes, and 29.7143 seconds
  </text>
  <rect x="0" y="140" width="2000" height="2000" stroke-width="4" stroke="rgb(0,0,0)" fill="none"/>
</svg>
