<?xml version="1.0" encoding="UTF-8" standalone="no"?>
<!-- Created with PhysiCell (http://PhysiCell.MathCancer.org/) -->
<svg 
 xmlns:dc="http://purl.org/dc/elements/1.1/" 
 xmlns:cc="http://creativecommons.org/ns#" 
 xmlns:rdf="http://www.w3.org/1999/02/22-rdf-syntax-ns#" 
 xmlns:svg="http://www.w3.org/2000/svg" 
 xmlns="http://www.w3.org/2000/svg" 
 version="1.1" 
 width="2000" 
 height="2140" 
 id="svg2">
  <rect x="0" y="0" width="2000" height="2140" stroke-width="4" stroke="white" fill="white"/>
  <text x="25" y="60"
   font-family="Arial" font-size="50" fill="black" >
   Current time: 0 days, 6 hours, and 40.00 minutes, z = 0.00 &#956;m
  </text>
  <text x="25" y="115"
   font-family="Arial" font-size="47.5" fill="black" >
   100 agents
  </text>
 <g id="tissue" 
    transform="translate(0,2140) scale(1,-1)">
  <g id="ECM">
  </g>
  <g id="cells">
   <g id="cell0">
  <circle cx="1121" cy="1214.48" r="8.45606" stroke-width="0.5" stroke="black" fill="grey"/>
  <circle cx="1121" cy="1214.48" r="5.08296" stroke-width="0.5" stroke="grey" fill="grey"/>
   </g>
   <g id="cell1">
  <circle cx="1698.26" cy="1225.72" r="9.53557" stroke-width="0.5" stroke="black" fill="grey"/>
  <circle cx="1698.26" cy="1225.72" r="5.79561" stroke-width="0.5" stroke="grey" fill="grey"/>
   </g>
   <g id="cell2">
  <circle cx="1071.14" cy="1710.74" r="9.59391" stroke-width="0.5" stroke="black" fill="grey"/>
  <circle cx="1071.14" cy="1710.74" r="5.83043" stroke-width="0.5" stroke="grey" fill="grey"/>
   </g>
   <g id="cell3">
  <circle cx="1234.96" cy="1281.58" r="9.7273" stroke-width="0.5" stroke="black" fill="grey"/>
  <circle cx="1234.96" cy="1281.58" r="5.90906" stroke-width="0.5" stroke="grey" fill="grey"/>
   </g>
   <g id="cell4">
  <circle cx="907.261" cy="604.142" r="10.0654" stroke-width="0.5" stroke="black" fill="grey"/>
  <circle cx="907.261" cy="604.142" r="6.10145" stroke-width="0.5" stroke="grey" fill="grey"/>
   </g>
   <g id="cell5">
  <circle cx="138.677" cy="1923.98" r="8.41271" stroke-width="0.5" stroke="black" fill="grey"/>
  <circle cx="138.677" cy="1923.98" r="5.05167" stroke-width="0.5" stroke="grey" fill="grey"/>
   </g>
   <g id="cell6">
  <circle cx="790.01" cy="978.822" r="9.20015" stroke-width="0.5" stroke="black" fill="grey"/>
  <circle cx="790.01" cy="978.822" r="5.59022" stroke-width="0.5" stroke="grey" fill="grey"/>
   </g>
   <g id="cell7">
  <circle cx="1596.79" cy="1049.64" r="8.65127" stroke-width="0.5" stroke="black" fill="grey"/>
  <circle cx="1596.79" cy="1049.64" r="5.2272" stroke-width="0.5" stroke="grey" fill="grey"/>
   </g>
   <g id="cell8">
  <circle cx="1130.19" cy="796.017" r="9.94548" stroke-width="0.5" stroke="black" fill="grey"/>
  <circle cx="1130.19" cy="796.017" r="6.03448" stroke-width="0.5" stroke="grey" fill="grey"/>
   </g>
   <g id="cell9">
  <circle cx="1640.97" cy="165.252" r="8.41271" stroke-width="0.5" stroke="black" fill="grey"/>
  <circle cx="1640.97" cy="165.252" r="5.05167" stroke-width="0.5" stroke="grey" fill="grey"/>
   </g>
   <g id="cell10">
  <circle cx="203.914" cy="1302.97" r="9.77588" stroke-width="0.5" stroke="black" fill="grey"/>
  <circle cx="203.914" cy="1302.97" r="5.93735" stroke-width="0.5" stroke="grey" fill="grey"/>
   </g>
   <g id="cell11">
  <circle cx="761.983" cy="1671.03" r="10.1879" stroke-width="0.5" stroke="black" fill="grey"/>
  <circle cx="761.983" cy="1671.03" r="6.16807" stroke-width="0.5" stroke="grey" fill="grey"/>
   </g>
   <g id="cell12">
  <circle cx="1569.56" cy="298.245" r="9.34292" stroke-width="0.5" stroke="black" fill="grey"/>
  <circle cx="1569.56" cy="298.245" r="5.67875" stroke-width="0.5" stroke="grey" fill="grey"/>
   </g>
   <g id="cell13">
  <circle cx="1740.52" cy="1921.99" r="9.88629" stroke-width="0.5" stroke="black" fill="grey"/>
  <circle cx="1740.52" cy="1921.99" r="6.00088" stroke-width="0.5" stroke="grey" fill="grey"/>
   </g>
   <g id="cell14">
  <circle cx="1600.67" cy="1625.88" r="9.23685" stroke-width="0.5" stroke="black" fill="grey"/>
  <circle cx="1600.67" cy="1625.88" r="5.61315" stroke-width="0.5" stroke="grey" fill="grey"/>
   </g>
   <g id="cell15">
  <circle cx="1040.84" cy="1556.55" r="9.04745" stroke-width="0.5" stroke="black" fill="grey"/>
  <circle cx="1040.84" cy="1556.55" r="5.49345" stroke-width="0.5" stroke="grey" fill="grey"/>
   </g>
   <g id="cell16">
  <circle cx="222.815" cy="1413.39" r="8.41271" stroke-width="0.5" stroke="black" fill="grey"/>
  <circle cx="222.815" cy="1413.39" r="5.05167" stroke-width="0.5" stroke="grey" fill="grey"/>
   </g>
   <g id="cell17">
  <circle cx="1124.11" cy="316.405" r="9.84395" stroke-width="0.5" stroke="black" fill="grey"/>
  <circle cx="1124.11" cy="316.405" r="5.97665" stroke-width="0.5" stroke="grey" fill="grey"/>
   </g>
   <g id="cell18">
  <circle cx="1897.47" cy="1530.24" r="9.7273" stroke-width="0.5" stroke="black" fill="grey"/>
  <circle cx="1897.47" cy="1530.24" r="5.90906" stroke-width="0.5" stroke="grey" fill="grey"/>
   </g>
   <g id="cell19">
  <circle cx="215.249" cy="859.164" r="8.88811" stroke-width="0.5" stroke="black" fill="grey"/>
  <circle cx="215.249" cy="859.164" r="5.38958" stroke-width="0.5" stroke="grey" fill="grey"/>
   </g>
   <g id="cell20">
  <circle cx="520.961" cy="414.761" r="8.41271" stroke-width="0.5" stroke="black" fill="grey"/>
  <circle cx="520.961" cy="414.761" r="5.05167" stroke-width="0.5" stroke="grey" fill="grey"/>
   </g>
   <g id="cell21">
  <circle cx="1483.46" cy="873.357" r="10.0497" stroke-width="0.5" stroke="black" fill="grey"/>
  <circle cx="1483.46" cy="873.357" r="6.09278" stroke-width="0.5" stroke="grey" fill="grey"/>
   </g>
   <g id="cell22">
  <circle cx="1138.77" cy="260.221" r="10.1758" stroke-width="0.5" stroke="black" fill="grey"/>
  <circle cx="1138.77" cy="260.221" r="6.16159" stroke-width="0.5" stroke="grey" fill="grey"/>
   </g>
   <g id="cell23">
  <circle cx="607.67" cy="1212.9" r="10.0955" stroke-width="0.5" stroke="black" fill="grey"/>
  <circle cx="607.67" cy="1212.9" r="6.11797" stroke-width="0.5" stroke="grey" fill="grey"/>
   </g>
   <g id="cell24">
  <circle cx="1232.42" cy="433.573" r="8.88811" stroke-width="0.5" stroke="black" fill="grey"/>
  <circle cx="1232.42" cy="433.573" r="5.38958" stroke-width="0.5" stroke="grey" fill="grey"/>
   </g>
   <g id="cell25">
  <circle cx="751.494" cy="1893.26" r="8.41271" stroke-width="0.5" stroke="black" fill="grey"/>
  <circle cx="751.494" cy="1893.26" r="5.05167" stroke-width="0.5" stroke="grey" fill="grey"/>
   </g>
   <g id="cell26">
  <circle cx="1338.41" cy="916.008" r="9.84395" stroke-width="0.5" stroke="black" fill="grey"/>
  <circle cx="1338.41" cy="916.008" r="5.97665" stroke-width="0.5" stroke="grey" fill="grey"/>
   </g>
   <g id="cell27">
  <circle cx="1208.78" cy="871.422" r="8.84788" stroke-width="0.5" stroke="black" fill="grey"/>
  <circle cx="1208.78" cy="871.422" r="5.36278" stroke-width="0.5" stroke="grey" fill="grey"/>
   </g>
   <g id="cell28">
  <circle cx="1387.45" cy="181.481" r="9.77588" stroke-width="0.5" stroke="black" fill="grey"/>
  <circle cx="1387.45" cy="181.481" r="5.93735" stroke-width="0.5" stroke="grey" fill="grey"/>
   </g>
   <g id="cell29">
  <circle cx="1919.94" cy="1341.46" r="8.72828" stroke-width="0.5" stroke="black" fill="grey"/>
  <circle cx="1919.94" cy="1341.46" r="5.28134" stroke-width="0.5" stroke="grey" fill="grey"/>
   </g>
   <g id="cell30">
  <circle cx="1365.46" cy="332.322" r="10.0497" stroke-width="0.5" stroke="black" fill="grey"/>
  <circle cx="1365.46" cy="332.322" r="6.09278" stroke-width="0.5" stroke="grey" fill="grey"/>
   </g>
   <g id="cell31">
  <circle cx="724.81" cy="291.819" r="9.7992" stroke-width="0.5" stroke="black" fill="grey"/>
  <circle cx="724.81" cy="291.819" r="5.95086" stroke-width="0.5" stroke="grey" fill="grey"/>
   </g>
   <g id="cell32">
  <circle cx="663.525" cy="1216.42" r="10.0169" stroke-width="0.5" stroke="black" fill="grey"/>
  <circle cx="663.525" cy="1216.42" r="6.07458" stroke-width="0.5" stroke="grey" fill="grey"/>
   </g>
   <g id="cell33">
  <circle cx="622.44" cy="1146.95" r="9.59391" stroke-width="0.5" stroke="black" fill="grey"/>
  <circle cx="622.44" cy="1146.95" r="5.83043" stroke-width="0.5" stroke="grey" fill="grey"/>
   </g>
   <g id="cell34">
  <circle cx="897.06" cy="1235.73" r="8.7678" stroke-width="0.5" stroke="black" fill="grey"/>
  <circle cx="897.06" cy="1235.73" r="5.30857" stroke-width="0.5" stroke="grey" fill="grey"/>
   </g>
   <g id="cell35">
  <circle cx="1907.7" cy="184.549" r="8.41271" stroke-width="0.5" stroke="black" fill="grey"/>
  <circle cx="1907.7" cy="184.549" r="5.05167" stroke-width="0.5" stroke="grey" fill="grey"/>
   </g>
   <g id="cell36">
  <circle cx="430.977" cy="1253.94" r="8.41271" stroke-width="0.5" stroke="black" fill="grey"/>
  <circle cx="430.977" cy="1253.94" r="5.05167" stroke-width="0.5" stroke="grey" fill="grey"/>
   </g>
   <g id="cell37">
  <circle cx="1982.26" cy="1281.2" r="8.41271" stroke-width="0.5" stroke="black" fill="grey"/>
  <circle cx="1982.26" cy="1281.2" r="5.05167" stroke-width="0.5" stroke="grey" fill="grey"/>
   </g>
   <g id="cell38">
  <circle cx="513.649" cy="824.989" r="9.94548" stroke-width="0.5" stroke="black" fill="grey"/>
  <circle cx="513.649" cy="824.989" r="6.03448" stroke-width="0.5" stroke="grey" fill="grey"/>
   </g>
   <g id="cell39">
  <circle cx="956.003" cy="482.67" r="9.5651" stroke-width="0.5" stroke="black" fill="grey"/>
  <circle cx="956.003" cy="482.67" r="5.81327" stroke-width="0.5" stroke="grey" fill="grey"/>
   </g>
   <g id="cell40">
  <circle cx="284.77" cy="671.649" r="9.2729" stroke-width="0.5" stroke="black" fill="grey"/>
  <circle cx="284.77" cy="671.649" r="5.63555" stroke-width="0.5" stroke="grey" fill="grey"/>
   </g>
   <g id="cell41">
  <circle cx="1368.32" cy="1308.86" r="8.41271" stroke-width="0.5" stroke="black" fill="grey"/>
  <circle cx="1368.32" cy="1308.86" r="5.05167" stroke-width="0.5" stroke="grey" fill="grey"/>
   </g>
   <g id="cell42">
  <circle cx="310.904" cy="1556.09" r="9.88629" stroke-width="0.5" stroke="black" fill="grey"/>
  <circle cx="310.904" cy="1556.09" r="6.00088" stroke-width="0.5" stroke="grey" fill="grey"/>
   </g>
   <g id="cell43">
  <circle cx="1871.74" cy="756.141" r="10.0955" stroke-width="0.5" stroke="black" fill="grey"/>
  <circle cx="1871.74" cy="756.141" r="6.11797" stroke-width="0.5" stroke="grey" fill="grey"/>
   </g>
   <g id="cell44">
  <circle cx="1670.84" cy="32.6193" r="10.0497" stroke-width="0.5" stroke="black" fill="grey"/>
  <circle cx="1670.84" cy="32.6193" r="6.09278" stroke-width="0.5" stroke="grey" fill="grey"/>
   </g>
   <g id="cell45">
  <circle cx="1261.83" cy="1649.55" r="9.75192" stroke-width="0.5" stroke="black" fill="grey"/>
  <circle cx="1261.83" cy="1649.55" r="5.92342" stroke-width="0.5" stroke="grey" fill="grey"/>
   </g>
   <g id="cell46">
  <circle cx="214.924" cy="1957.45" r="9.77588" stroke-width="0.5" stroke="black" fill="grey"/>
  <circle cx="214.924" cy="1957.45" r="5.93735" stroke-width="0.5" stroke="grey" fill="grey"/>
   </g>
   <g id="cell47">
  <circle cx="1754.63" cy="955.174" r="8.41271" stroke-width="0.5" stroke="black" fill="grey"/>
  <circle cx="1754.63" cy="955.174" r="5.05167" stroke-width="0.5" stroke="grey" fill="grey"/>
   </g>
   <g id="cell48">
  <circle cx="1939.71" cy="132.268" r="9.77588" stroke-width="0.5" stroke="black" fill="grey"/>
  <circle cx="1939.71" cy="132.268" r="5.93735" stroke-width="0.5" stroke="grey" fill="grey"/>
   </g>
   <g id="cell49">
  <circle cx="923.552" cy="1465.71" r="8.41271" stroke-width="0.5" stroke="black" fill="grey"/>
  <circle cx="923.552" cy="1465.71" r="5.05167" stroke-width="0.5" stroke="grey" fill="grey"/>
   </g>
   <g id="cell50">
  <circle cx="77.838" cy="854.633" r="9.20015" stroke-width="0.5" stroke="black" fill="red"/>
  <circle cx="77.838" cy="854.633" r="5.59022" stroke-width="0.5" stroke="red" fill="red"/>
   </g>
   <g id="cell51">
  <circle cx="1959.32" cy="223.233" r="9.34292" stroke-width="0.5" stroke="black" fill="red"/>
  <circle cx="1959.32" cy="223.233" r="5.67875" stroke-width="0.5" stroke="red" fill="red"/>
   </g>
   <g id="cell52">
  <circle cx="610.752" cy="971.186" r="9.12489" stroke-width="0.5" stroke="black" fill="red"/>
  <circle cx="610.752" cy="971.186" r="5.54282" stroke-width="0.5" stroke="red" fill="red"/>
   </g>
   <g id="cell53">
  <circle cx="1348.72" cy="631.849" r="8.84788" stroke-width="0.5" stroke="black" fill="red"/>
  <circle cx="1348.72" cy="631.849" r="5.36278" stroke-width="0.5" stroke="red" fill="red"/>
   </g>
   <g id="cell54">
  <circle cx="870.553" cy="1877.23" r="9.92631" stroke-width="0.5" stroke="black" fill="red"/>
  <circle cx="870.553" cy="1877.23" r="6.02363" stroke-width="0.5" stroke="red" fill="red"/>
   </g>
   <g id="cell55">
  <circle cx="436.058" cy="1399.57" r="8.41271" stroke-width="0.5" stroke="black" fill="red"/>
  <circle cx="436.058" cy="1399.57" r="5.05167" stroke-width="0.5" stroke="red" fill="red"/>
   </g>
   <g id="cell56">
  <circle cx="1166.09" cy="1741.87" r="8.57856" stroke-width="0.5" stroke="black" fill="red"/>
  <circle cx="1166.09" cy="1741.87" r="5.17461" stroke-width="0.5" stroke="red" fill="red"/>
   </g>
   <g id="cell57">
  <circle cx="1013.79" cy="1045.31" r="9.00806" stroke-width="0.5" stroke="black" fill="red"/>
  <circle cx="1013.79" cy="1045.31" r="5.46807" stroke-width="0.5" stroke="red" fill="red"/>
   </g>
   <g id="cell58">
  <circle cx="214.541" cy="1826.95" r="9.96412" stroke-width="0.5" stroke="black" fill="red"/>
  <circle cx="214.541" cy="1826.95" r="6.04499" stroke-width="0.5" stroke="red" fill="red"/>
   </g>
   <g id="cell59">
  <circle cx="182.221" cy="1822.76" r="9.99984" stroke-width="0.5" stroke="black" fill="red"/>
  <circle cx="182.221" cy="1822.76" r="6.06503" stroke-width="0.5" stroke="red" fill="red"/>
   </g>
   <g id="cell60">
  <circle cx="635.061" cy="22.1449" r="10.0169" stroke-width="0.5" stroke="black" fill="red"/>
  <circle cx="635.061" cy="22.1449" r="6.07458" stroke-width="0.5" stroke="red" fill="red"/>
   </g>
   <g id="cell61">
  <circle cx="1704.43" cy="263.511" r="8.41271" stroke-width="0.5" stroke="black" fill="red"/>
  <circle cx="1704.43" cy="263.511" r="5.05167" stroke-width="0.5" stroke="red" fill="red"/>
   </g>
   <g id="cell62">
  <circle cx="1430.79" cy="1709.41" r="10.1506" stroke-width="0.5" stroke="black" fill="red"/>
  <circle cx="1430.79" cy="1709.41" r="6.14798" stroke-width="0.5" stroke="red" fill="red"/>
   </g>
   <g id="cell63">
  <circle cx="512.838" cy="367.495" r="9.96412" stroke-width="0.5" stroke="black" fill="red"/>
  <circle cx="512.838" cy="367.495" r="6.04499" stroke-width="0.5" stroke="red" fill="red"/>
   </g>
   <g id="cell64">
  <circle cx="1159.61" cy="1114.92" r="10.1758" stroke-width="0.5" stroke="black" fill="red"/>
  <circle cx="1159.61" cy="1114.92" r="6.16159" stroke-width="0.5" stroke="red" fill="red"/>
   </g>
   <g id="cell65">
  <circle cx="330.404" cy="1657.11" r="8.41271" stroke-width="0.5" stroke="black" fill="red"/>
  <circle cx="330.404" cy="1657.11" r="5.05167" stroke-width="0.5" stroke="red" fill="red"/>
   </g>
   <g id="cell66">
  <circle cx="9.99937" cy="300.987" r="10.0336" stroke-width="0.5" stroke="black" fill="red"/>
  <circle cx="9.99937" cy="300.987" r="6.08382" stroke-width="0.5" stroke="red" fill="red"/>
   </g>
   <g id="cell67">
  <circle cx="1134.23" cy="534.607" r="9.59391" stroke-width="0.5" stroke="black" fill="red"/>
  <circle cx="1134.23" cy="534.607" r="5.83043" stroke-width="0.5" stroke="red" fill="red"/>
   </g>
   <g id="cell68">
  <circle cx="1476.08" cy="574.362" r="9.7992" stroke-width="0.5" stroke="black" fill="red"/>
  <circle cx="1476.08" cy="574.362" r="5.95086" stroke-width="0.5" stroke="red" fill="red"/>
   </g>
   <g id="cell69">
  <circle cx="896.927" cy="486.169" r="10.0336" stroke-width="0.5" stroke="black" fill="red"/>
  <circle cx="896.927" cy="486.169" r="6.08382" stroke-width="0.5" stroke="red" fill="red"/>
   </g>
   <g id="cell70">
  <circle cx="1147.89" cy="780.102" r="10.1098" stroke-width="0.5" stroke="black" fill="red"/>
  <circle cx="1147.89" cy="780.102" r="6.12585" stroke-width="0.5" stroke="red" fill="red"/>
   </g>
   <g id="cell71">
  <circle cx="1790.17" cy="1128.77" r="10.1238" stroke-width="0.5" stroke="black" fill="red"/>
  <circle cx="1790.17" cy="1128.77" r="6.13347" stroke-width="0.5" stroke="red" fill="red"/>
   </g>
   <g id="cell72">
  <circle cx="457.284" cy="1774.16" r="9.77588" stroke-width="0.5" stroke="black" fill="red"/>
  <circle cx="457.284" cy="1774.16" r="5.93735" stroke-width="0.5" stroke="red" fill="red"/>
   </g>
   <g id="cell73">
  <circle cx="1353.68" cy="883.725" r="10.0336" stroke-width="0.5" stroke="black" fill="red"/>
  <circle cx="1353.68" cy="883.725" r="6.08382" stroke-width="0.5" stroke="red" fill="red"/>
   </g>
   <g id="cell74">
  <circle cx="1675.2" cy="1988.1" r="9.41008" stroke-width="0.5" stroke="black" fill="red"/>
  <circle cx="1675.2" cy="1988.1" r="5.71981" stroke-width="0.5" stroke="red" fill="red"/>
   </g>
   <g id="cell75">
  <circle cx="224.274" cy="645.518" r="9.88629" stroke-width="0.5" stroke="black" fill="red"/>
  <circle cx="224.274" cy="645.518" r="6.00088" stroke-width="0.5" stroke="red" fill="red"/>
   </g>
   <g id="cell76">
  <circle cx="1612.42" cy="819.794" r="8.7678" stroke-width="0.5" stroke="black" fill="red"/>
  <circle cx="1612.42" cy="819.794" r="5.30857" stroke-width="0.5" stroke="red" fill="red"/>
   </g>
   <g id="cell77">
  <circle cx="1323.86" cy="1774.74" r="8.65127" stroke-width="0.5" stroke="black" fill="red"/>
  <circle cx="1323.86" cy="1774.74" r="5.2272" stroke-width="0.5" stroke="red" fill="red"/>
   </g>
   <g id="cell78">
  <circle cx="1162.37" cy="622.663" r="9.88629" stroke-width="0.5" stroke="black" fill="red"/>
  <circle cx="1162.37" cy="622.663" r="6.00088" stroke-width="0.5" stroke="red" fill="red"/>
   </g>
   <g id="cell79">
  <circle cx="1944.51" cy="1379.68" r="10.1996" stroke-width="0.5" stroke="black" fill="red"/>
  <circle cx="1944.51" cy="1379.68" r="6.17434" stroke-width="0.5" stroke="red" fill="red"/>
   </g>
   <g id="cell80">
  <circle cx="1457.92" cy="1334.5" r="9.96412" stroke-width="0.5" stroke="black" fill="red"/>
  <circle cx="1457.92" cy="1334.5" r="6.04499" stroke-width="0.5" stroke="red" fill="red"/>
   </g>
   <g id="cell81">
  <circle cx="1078.39" cy="1927.13" r="8.41271" stroke-width="0.5" stroke="black" fill="red"/>
  <circle cx="1078.39" cy="1927.13" r="5.05167" stroke-width="0.5" stroke="red" fill="red"/>
   </g>
   <g id="cell82">
  <circle cx="1233.99" cy="801.729" r="10.0169" stroke-width="0.5" stroke="black" fill="red"/>
  <circle cx="1233.99" cy="801.729" r="6.07458" stroke-width="0.5" stroke="red" fill="red"/>
   </g>
   <g id="cell83">
  <circle cx="1252.06" cy="1239.46" r="8.41271" stroke-width="0.5" stroke="black" fill="red"/>
  <circle cx="1252.06" cy="1239.46" r="5.05167" stroke-width="0.5" stroke="red" fill="red"/>
   </g>
   <g id="cell84">
  <circle cx="41.2774" cy="940.633" r="9.37686" stroke-width="0.5" stroke="black" fill="red"/>
  <circle cx="41.2774" cy="940.633" r="5.69955" stroke-width="0.5" stroke="red" fill="red"/>
   </g>
   <g id="cell85">
  <circle cx="1432.09" cy="1338.54" r="10.1996" stroke-width="0.5" stroke="black" fill="red"/>
  <circle cx="1432.09" cy="1338.54" r="6.17434" stroke-width="0.5" stroke="red" fill="red"/>
   </g>
   <g id="cell86">
  <circle cx="554.777" cy="784.102" r="9.7992" stroke-width="0.5" stroke="black" fill="red"/>
  <circle cx="554.777" cy="784.102" r="5.95086" stroke-width="0.5" stroke="red" fill="red"/>
   </g>
   <g id="cell87">
  <circle cx="1500.65" cy="868.328" r="10.1506" stroke-width="0.5" stroke="black" fill="red"/>
  <circle cx="1500.65" cy="868.328" r="6.14798" stroke-width="0.5" stroke="red" fill="red"/>
   </g>
   <g id="cell88">
  <circle cx="274.995" cy="192.654" r="8.9283" stroke-width="0.5" stroke="black" fill="red"/>
  <circle cx="274.995" cy="192.654" r="5.4161" stroke-width="0.5" stroke="red" fill="red"/>
   </g>
   <g id="cell89">
  <circle cx="200.638" cy="1141.8" r="10.1758" stroke-width="0.5" stroke="black" fill="red"/>
  <circle cx="200.638" cy="1141.8" r="6.16159" stroke-width="0.5" stroke="red" fill="red"/>
   </g>
   <g id="cell90">
  <circle cx="1189.97" cy="1085.11" r="8.41271" stroke-width="0.5" stroke="black" fill="red"/>
  <circle cx="1189.97" cy="1085.11" r="5.05167" stroke-width="0.5" stroke="red" fill="red"/>
   </g>
   <g id="cell91">
  <circle cx="55.911" cy="1278.82" r="9.7992" stroke-width="0.5" stroke="black" fill="red"/>
  <circle cx="55.911" cy="1278.82" r="5.95086" stroke-width="0.5" stroke="red" fill="red"/>
   </g>
   <g id="cell92">
  <circle cx="1282.16" cy="676.976" r="8.41271" stroke-width="0.5" stroke="black" fill="red"/>
  <circle cx="1282.16" cy="676.976" r="5.05167" stroke-width="0.5" stroke="red" fill="red"/>
   </g>
   <g id="cell93">
  <circle cx="456.231" cy="1798.18" r="10.1996" stroke-width="0.5" stroke="black" fill="red"/>
  <circle cx="456.231" cy="1798.18" r="6.17434" stroke-width="0.5" stroke="red" fill="red"/>
   </g>
   <g id="cell94">
  <circle cx="741.428" cy="198.193" r="9.94548" stroke-width="0.5" stroke="black" fill="red"/>
  <circle cx="741.428" cy="198.193" r="6.03448" stroke-width="0.5" stroke="red" fill="red"/>
   </g>
   <g id="cell95">
  <circle cx="1935.32" cy="1790.38" r="9.41008" stroke-width="0.5" stroke="black" fill="red"/>
  <circle cx="1935.32" cy="1790.38" r="5.71981" stroke-width="0.5" stroke="red" fill="red"/>
   </g>
   <g id="cell96">
  <circle cx="1615.23" cy="1035.15" r="9.92631" stroke-width="0.5" stroke="black" fill="red"/>
  <circle cx="1615.23" cy="1035.15" r="6.02363" stroke-width="0.5" stroke="red" fill="red"/>
   </g>
   <g id="cell97">
  <circle cx="916.619" cy="201.019" r="9.62199" stroke-width="0.5" stroke="black" fill="red"/>
  <circle cx="916.619" cy="201.019" r="5.8471" stroke-width="0.5" stroke="red" fill="red"/>
   </g>
   <g id="cell98">
  <circle cx="1812.21" cy="685.574" r="9.98223" stroke-width="0.5" stroke="black" fill="red"/>
  <circle cx="1812.21" cy="685.574" r="6.05517" stroke-width="0.5" stroke="red" fill="red"/>
   </g>
   <g id="cell99">
  <circle cx="906.769" cy="1966.06" r="9.59391" stroke-width="0.5" stroke="black" fill="red"/>
  <circle cx="906.769" cy="1966.06" r="5.83043" stroke-width="0.5" stroke="red" fill="red"/>
   </g>
  </g>
 </g>
  <rect x="1750" y="2070" width="200" height="20" stroke-width="4" stroke="rgb(255,255,255)" fill="rgb(0,0,0)"/>
  <text x="1762.5" y="2057.5"
   font-family="Arial" font-size="50" fill="black" >
   200 &#956;m
  </text>
  <text x="50" y="2090"
   font-family="Arial" font-size="37.5" fill="black" >
   0 days, 0 hours, 0 minutes, and 9.8852 seconds
  </text>
  <rect x="0" y="140" width="2000" height="2000" stroke-width="4" stroke="rgb(0,0,0)" fill="none"/>
</svg>
