<?xml version="1.0" encoding="UTF-8" standalone="no"?>
<!-- Created with PhysiCell (http://PhysiCell.MathCancer.org/) -->
<svg 
 xmlns:dc="http://purl.org/dc/elements/1.1/" 
 xmlns:cc="http://creativecommons.org/ns#" 
 xmlns:rdf="http://www.w3.org/1999/02/22-rdf-syntax-ns#" 
 xmlns:svg="http://www.w3.org/2000/svg" 
 xmlns="http://www.w3.org/2000/svg" 
 version="1.1" 
 width="2000" 
 height="2140" 
 id="svg2">
  <rect x="0" y="0" width="2000" height="2140" stroke-width="4" stroke="white" fill="white"/>
  <text x="25" y="60"
   font-family="Arial" font-size="50" fill="black" >
   Current time: 2 days, 21 hours, and 0.00 minutes, z = 0.00 &#956;m
  </text>
  <text x="25" y="115"
   font-family="Arial" font-size="47.5" fill="black" >
   87 agents
  </text>
 <g id="tissue" 
    transform="translate(0,2140) scale(1,-1)">
  <g id="ECM">
  </g>
  <g id="cells">
   <g id="cell0">
  <circle cx="1133.16" cy="1230.31" r="8.83201" stroke-width="0.5" stroke="black" fill="grey"/>
  <circle cx="1133.16" cy="1230.31" r="5.35718" stroke-width="0.5" stroke="grey" fill="grey"/>
   </g>
   <g id="cell1">
  <circle cx="1678.13" cy="1229.24" r="10.2722" stroke-width="0.5" stroke="black" fill="grey"/>
  <circle cx="1678.13" cy="1229.24" r="6.21279" stroke-width="0.5" stroke="grey" fill="grey"/>
   </g>
   <g id="cell2">
  <circle cx="1178.01" cy="1755.83" r="8.38591" stroke-width="0.5" stroke="black" fill="grey"/>
  <circle cx="1178.01" cy="1755.83" r="5.04225" stroke-width="0.5" stroke="grey" fill="grey"/>
   </g>
   <g id="cell3">
  <circle cx="1259.87" cy="1329.86" r="8.63052" stroke-width="0.5" stroke="black" fill="grey"/>
  <circle cx="1259.87" cy="1329.86" r="5.21986" stroke-width="0.5" stroke="grey" fill="grey"/>
   </g>
   <g id="cell4">
  <circle cx="846.573" cy="557.246" r="8.39452" stroke-width="0.5" stroke="black" fill="grey"/>
  <circle cx="846.573" cy="557.246" r="5.04557" stroke-width="0.5" stroke="grey" fill="grey"/>
   </g>
   <g id="cell5">
  <circle cx="103.883" cy="1962.63" r="8.39552" stroke-width="0.5" stroke="black" fill="red"/>
  <circle cx="103.883" cy="1962.63" r="5.04595" stroke-width="0.5" stroke="red" fill="red"/>
   </g>
   <g id="cell6">
  <circle cx="852.613" cy="886.498" r="8.3732" stroke-width="0.5" stroke="black" fill="red"/>
  <circle cx="852.613" cy="886.498" r="5.03708" stroke-width="0.5" stroke="red" fill="red"/>
   </g>
   <g id="cell19">
  <circle cx="1701.13" cy="1336.37" r="8.36842" stroke-width="0.5" stroke="black" fill="grey"/>
  <circle cx="1701.13" cy="1336.37" r="5.0351" stroke-width="0.5" stroke="grey" fill="grey"/>
   </g>
   <g id="cell18">
  <circle cx="1644.3" cy="289.092" r="9.1615" stroke-width="0.5" stroke="black" fill="red"/>
  <circle cx="1644.3" cy="289.092" r="5.56639" stroke-width="0.5" stroke="red" fill="red"/>
   </g>
   <g id="cell9">
  <circle cx="1682.57" cy="162.819" r="8.39933" stroke-width="0.5" stroke="black" fill="red"/>
  <circle cx="1682.57" cy="162.819" r="5.04734" stroke-width="0.5" stroke="red" fill="red"/>
   </g>
   <g id="cell11">
  <circle cx="1581.52" cy="1086.89" r="8.39081" stroke-width="0.5" stroke="black" fill="red"/>
  <circle cx="1581.52" cy="1086.89" r="5.04414" stroke-width="0.5" stroke="red" fill="red"/>
   </g>
   <g id="cell20">
  <circle cx="787.807" cy="1033.28" r="10.1731" stroke-width="0.5" stroke="black" fill="red"/>
  <circle cx="787.807" cy="1033.28" r="6.16079" stroke-width="0.5" stroke="red" fill="red"/>
   </g>
   <g id="cell13">
  <circle cx="855.828" cy="635.31" r="9.99944" stroke-width="0.5" stroke="black" fill="grey"/>
  <circle cx="855.828" cy="635.31" r="6.06493" stroke-width="0.5" stroke="grey" fill="grey"/>
   </g>
   <g id="cell14">
  <circle cx="1150.96" cy="1345.09" r="10.5208" stroke-width="0.5" stroke="black" fill="grey"/>
  <circle cx="1150.96" cy="1345.09" r="6.33412" stroke-width="0.5" stroke="grey" fill="grey"/>
   </g>
   <g id="cell15">
  <circle cx="1136.15" cy="1207.26" r="8.36827" stroke-width="0.5" stroke="black" fill="grey"/>
  <circle cx="1136.15" cy="1207.26" r="5.03507" stroke-width="0.5" stroke="grey" fill="grey"/>
   </g>
   <g id="cell16">
  <circle cx="1126.2" cy="1694.7" r="8.55488" stroke-width="0.5" stroke="black" fill="grey"/>
  <circle cx="1126.2" cy="1694.7" r="5.16622" stroke-width="0.5" stroke="grey" fill="grey"/>
   </g>
   <g id="cell90">
  <circle cx="847.691" cy="859.695" r="8.3732" stroke-width="0.5" stroke="black" fill="red"/>
  <circle cx="847.691" cy="859.695" r="5.03708" stroke-width="0.5" stroke="red" fill="red"/>
   </g>
   <g id="cell86">
  <circle cx="1548.53" cy="1010.01" r="8.37921" stroke-width="0.5" stroke="black" fill="red"/>
  <circle cx="1548.53" cy="1010.01" r="5.03957" stroke-width="0.5" stroke="red" fill="red"/>
   </g>
   <g id="cell22">
  <circle cx="1134.08" cy="1679.94" r="10.4249" stroke-width="0.5" stroke="black" fill="grey"/>
  <circle cx="1134.08" cy="1679.94" r="6.28982" stroke-width="0.5" stroke="grey" fill="grey"/>
   </g>
   <g id="cell23">
  <circle cx="1255.81" cy="1300.28" r="10.373" stroke-width="0.5" stroke="black" fill="grey"/>
  <circle cx="1255.81" cy="1300.28" r="6.2645" stroke-width="0.5" stroke="grey" fill="grey"/>
   </g>
   <g id="cell24">
  <circle cx="1163.87" cy="1257.59" r="8.40209" stroke-width="0.5" stroke="black" fill="grey"/>
  <circle cx="1163.87" cy="1257.59" r="5.04831" stroke-width="0.5" stroke="grey" fill="grey"/>
   </g>
   <g id="cell25">
  <circle cx="1170.51" cy="708.072" r="8.42336" stroke-width="0.5" stroke="black" fill="red"/>
  <circle cx="1170.51" cy="708.072" r="5.06268" stroke-width="0.5" stroke="red" fill="red"/>
   </g>
   <g id="cell26">
  <circle cx="1679.87" cy="1209.64" r="8.40079" stroke-width="0.5" stroke="black" fill="grey"/>
  <circle cx="1679.87" cy="1209.64" r="5.04786" stroke-width="0.5" stroke="grey" fill="grey"/>
   </g>
   <g id="cell27">
  <circle cx="881.797" cy="560.045" r="9.97889" stroke-width="0.5" stroke="black" fill="grey"/>
  <circle cx="881.797" cy="560.045" r="6.05415" stroke-width="0.5" stroke="grey" fill="grey"/>
   </g>
   <g id="cell28">
  <circle cx="46.0827" cy="1976.78" r="10.4889" stroke-width="0.5" stroke="black" fill="red"/>
  <circle cx="46.0827" cy="1976.78" r="6.31986" stroke-width="0.5" stroke="red" fill="red"/>
   </g>
   <g id="cell29">
  <circle cx="1049.37" cy="1081.67" r="9.22957" stroke-width="0.5" stroke="black" fill="grey"/>
  <circle cx="1049.37" cy="1081.67" r="5.61072" stroke-width="0.5" stroke="grey" fill="grey"/>
   </g>
   <g id="cell30">
  <circle cx="916.948" cy="552.449" r="8.81745" stroke-width="0.5" stroke="black" fill="grey"/>
  <circle cx="916.948" cy="552.449" r="5.35134" stroke-width="0.5" stroke="grey" fill="grey"/>
   </g>
   <g id="cell31">
  <circle cx="1217.43" cy="1341.93" r="10.4044" stroke-width="0.5" stroke="black" fill="grey"/>
  <circle cx="1217.43" cy="1341.93" r="6.27973" stroke-width="0.5" stroke="grey" fill="grey"/>
   </g>
   <g id="cell32">
  <circle cx="1660.81" cy="204.935" r="2.35568" stroke-width="0.5" stroke="black" fill="red"/>
  <circle cx="1660.81" cy="204.935" r="2.25973" stroke-width="0.5" stroke="black" fill="black"/>
   </g>
   <g id="cell33">
  <circle cx="1670.82" cy="1150.13" r="10.4518" stroke-width="0.5" stroke="black" fill="grey"/>
  <circle cx="1670.82" cy="1150.13" r="6.30276" stroke-width="0.5" stroke="grey" fill="grey"/>
   </g>
   <g id="cell34">
  <circle cx="1145" cy="1661.6" r="9.30703" stroke-width="0.5" stroke="black" fill="grey"/>
  <circle cx="1145" cy="1661.6" r="5.65706" stroke-width="0.5" stroke="grey" fill="grey"/>
   </g>
   <g id="cell35">
  <circle cx="752.908" cy="896.651" r="10.2527" stroke-width="0.5" stroke="black" fill="red"/>
  <circle cx="752.908" cy="896.651" r="6.20264" stroke-width="0.5" stroke="red" fill="red"/>
   </g>
   <g id="cell36">
  <circle cx="1745.66" cy="252.667" r="8.37272" stroke-width="0.5" stroke="black" fill="red"/>
  <circle cx="1745.66" cy="252.667" r="5.03696" stroke-width="0.5" stroke="red" fill="red"/>
   </g>
   <g id="cell37">
  <circle cx="794.569" cy="920.07" r="10.4555" stroke-width="0.5" stroke="black" fill="red"/>
  <circle cx="794.569" cy="920.07" r="6.30457" stroke-width="0.5" stroke="red" fill="red"/>
   </g>
   <g id="cell38">
  <circle cx="1589.73" cy="1061.1" r="8.64788" stroke-width="0.5" stroke="black" fill="red"/>
  <circle cx="1589.73" cy="1061.1" r="5.22621" stroke-width="0.5" stroke="red" fill="red"/>
   </g>
   <g id="cell39">
  <circle cx="1122.41" cy="1195.53" r="10.4488" stroke-width="0.5" stroke="black" fill="grey"/>
  <circle cx="1122.41" cy="1195.53" r="6.3011" stroke-width="0.5" stroke="grey" fill="grey"/>
   </g>
   <g id="cell40">
  <circle cx="1776.54" cy="1294.93" r="8.40708" stroke-width="0.5" stroke="black" fill="grey"/>
  <circle cx="1776.54" cy="1294.93" r="5.05002" stroke-width="0.5" stroke="grey" fill="grey"/>
   </g>
   <g id="cell41">
  <circle cx="1241.44" cy="1415.55" r="10.3747" stroke-width="0.5" stroke="black" fill="grey"/>
  <circle cx="1241.44" cy="1415.55" r="6.26496" stroke-width="0.5" stroke="grey" fill="grey"/>
   </g>
   <g id="cell42">
  <circle cx="1115.18" cy="1131.88" r="8.99826" stroke-width="0.5" stroke="black" fill="grey"/>
  <circle cx="1115.18" cy="1131.88" r="5.46474" stroke-width="0.5" stroke="grey" fill="grey"/>
   </g>
   <g id="cell43">
  <circle cx="1069.25" cy="1122.04" r="10.1877" stroke-width="0.5" stroke="black" fill="grey"/>
  <circle cx="1069.25" cy="1122.04" r="6.16804" stroke-width="0.5" stroke="grey" fill="grey"/>
   </g>
   <g id="cell44">
  <circle cx="1671.61" cy="1189.31" r="8.37526" stroke-width="0.5" stroke="black" fill="grey"/>
  <circle cx="1671.61" cy="1189.31" r="5.03795" stroke-width="0.5" stroke="grey" fill="grey"/>
   </g>
   <g id="cell45">
  <circle cx="1552.81" cy="1041.92" r="8.37921" stroke-width="0.5" stroke="black" fill="red"/>
  <circle cx="1552.81" cy="1041.92" r="5.03957" stroke-width="0.5" stroke="red" fill="red"/>
   </g>
   <g id="cell46">
  <circle cx="1209.1" cy="1690.67" r="1.90172" stroke-width="0.5" stroke="black" fill="grey"/>
  <circle cx="1209.1" cy="1690.67" r="1.8748" stroke-width="0.5" stroke="black" fill="black"/>
   </g>
   <g id="cell47">
  <circle cx="1604.55" cy="150.205" r="10.4952" stroke-width="0.5" stroke="black" fill="red"/>
  <circle cx="1604.55" cy="150.205" r="6.3227" stroke-width="0.5" stroke="red" fill="red"/>
   </g>
   <g id="cell48">
  <circle cx="1177.4" cy="1774.81" r="10.5252" stroke-width="0.5" stroke="black" fill="grey"/>
  <circle cx="1177.4" cy="1774.81" r="6.33602" stroke-width="0.5" stroke="grey" fill="grey"/>
   </g>
   <g id="cell49">
  <circle cx="80.9164" cy="1957.95" r="10.4649" stroke-width="0.5" stroke="black" fill="red"/>
  <circle cx="80.9164" cy="1957.95" r="6.30871" stroke-width="0.5" stroke="red" fill="red"/>
   </g>
   <g id="cell50">
  <circle cx="1167.08" cy="1146.32" r="10.4486" stroke-width="0.5" stroke="black" fill="grey"/>
  <circle cx="1167.08" cy="1146.32" r="6.30105" stroke-width="0.5" stroke="grey" fill="grey"/>
   </g>
   <g id="cell51">
  <circle cx="1174.25" cy="1289.19" r="9.57993" stroke-width="0.5" stroke="black" fill="grey"/>
  <circle cx="1174.25" cy="1289.19" r="5.8255" stroke-width="0.5" stroke="grey" fill="grey"/>
   </g>
   <g id="cell52">
  <circle cx="844.932" cy="621.28" r="8.367" stroke-width="0.5" stroke="black" fill="grey"/>
  <circle cx="844.932" cy="621.28" r="5.03453" stroke-width="0.5" stroke="grey" fill="grey"/>
   </g>
   <g id="cell87">
  <circle cx="912.305" cy="589.955" r="8.85796" stroke-width="0.5" stroke="black" fill="grey"/>
  <circle cx="912.305" cy="589.955" r="5.37822" stroke-width="0.5" stroke="grey" fill="grey"/>
   </g>
   <g id="cell54">
  <circle cx="866.688" cy="545.614" r="10.5271" stroke-width="0.5" stroke="black" fill="grey"/>
  <circle cx="866.688" cy="545.614" r="6.33688" stroke-width="0.5" stroke="grey" fill="grey"/>
   </g>
   <g id="cell55">
  <circle cx="888.899" cy="591.412" r="9.06517" stroke-width="0.5" stroke="black" fill="grey"/>
  <circle cx="888.899" cy="591.412" r="5.51057" stroke-width="0.5" stroke="grey" fill="grey"/>
   </g>
   <g id="cell56">
  <circle cx="137.339" cy="1920.06" r="10.5113" stroke-width="0.5" stroke="black" fill="red"/>
  <circle cx="137.339" cy="1920.06" r="6.32993" stroke-width="0.5" stroke="red" fill="red"/>
   </g>
   <g id="cell57">
  <circle cx="1674.56" cy="280.991" r="10.479" stroke-width="0.5" stroke="black" fill="red"/>
  <circle cx="1674.56" cy="280.991" r="6.31533" stroke-width="0.5" stroke="red" fill="red"/>
   </g>
   <g id="cell58">
  <circle cx="704.427" cy="853.796" r="8.96746" stroke-width="0.5" stroke="black" fill="red"/>
  <circle cx="704.427" cy="853.796" r="5.44205" stroke-width="0.5" stroke="red" fill="red"/>
   </g>
   <g id="cell59">
  <circle cx="1709.59" cy="321.541" r="10.3676" stroke-width="0.5" stroke="black" fill="red"/>
  <circle cx="1709.59" cy="321.541" r="6.26155" stroke-width="0.5" stroke="red" fill="red"/>
   </g>
   <g id="cell60">
  <circle cx="1733.38" cy="1173.79" r="10.4645" stroke-width="0.5" stroke="black" fill="grey"/>
  <circle cx="1733.38" cy="1173.79" r="6.30861" stroke-width="0.5" stroke="grey" fill="grey"/>
   </g>
   <g id="cell61">
  <circle cx="1138.64" cy="1778.08" r="9.98128" stroke-width="0.5" stroke="black" fill="grey"/>
  <circle cx="1138.64" cy="1778.08" r="6.05491" stroke-width="0.5" stroke="grey" fill="grey"/>
   </g>
   <g id="cell62">
  <circle cx="1143.57" cy="1641.15" r="10.0643" stroke-width="0.5" stroke="black" fill="grey"/>
  <circle cx="1143.57" cy="1641.15" r="6.10116" stroke-width="0.5" stroke="grey" fill="grey"/>
   </g>
   <g id="cell63">
  <circle cx="1672.78" cy="304.497" r="10.5223" stroke-width="0.5" stroke="black" fill="red"/>
  <circle cx="1672.78" cy="304.497" r="6.33488" stroke-width="0.5" stroke="red" fill="red"/>
   </g>
   <g id="cell64">
  <circle cx="1703.67" cy="1157.08" r="8.68739" stroke-width="0.5" stroke="black" fill="grey"/>
  <circle cx="1703.67" cy="1157.08" r="5.25361" stroke-width="0.5" stroke="grey" fill="grey"/>
   </g>
   <g id="cell65">
  <circle cx="1325.47" cy="1276.97" r="2.84172" stroke-width="0.5" stroke="black" fill="grey"/>
  <circle cx="1325.47" cy="1276.97" r="2.54198" stroke-width="0.5" stroke="black" fill="black"/>
   </g>
   <g id="cell66">
  <circle cx="776.545" cy="938.024" r="10.419" stroke-width="0.5" stroke="black" fill="red"/>
  <circle cx="776.545" cy="938.024" r="6.28711" stroke-width="0.5" stroke="red" fill="red"/>
   </g>
   <g id="cell67">
  <circle cx="1584.35" cy="1024.7" r="10.4024" stroke-width="0.5" stroke="black" fill="red"/>
  <circle cx="1584.35" cy="1024.7" r="6.27914" stroke-width="0.5" stroke="red" fill="red"/>
   </g>
   <g id="cell68">
  <circle cx="806.171" cy="1043.45" r="8.42853" stroke-width="0.5" stroke="black" fill="red"/>
  <circle cx="806.171" cy="1043.45" r="5.0644" stroke-width="0.5" stroke="red" fill="red"/>
   </g>
   <g id="cell69">
  <circle cx="864.922" cy="569.303" r="10.3443" stroke-width="0.5" stroke="black" fill="grey"/>
  <circle cx="864.922" cy="569.303" r="6.25033" stroke-width="0.5" stroke="grey" fill="grey"/>
   </g>
   <g id="cell70">
  <circle cx="1679.1" cy="1268.36" r="10.2874" stroke-width="0.5" stroke="black" fill="grey"/>
  <circle cx="1679.1" cy="1268.36" r="6.22133" stroke-width="0.5" stroke="grey" fill="grey"/>
   </g>
   <g id="cell71">
  <circle cx="1005.17" cy="1079.45" r="9.9392" stroke-width="0.5" stroke="black" fill="grey"/>
  <circle cx="1005.17" cy="1079.45" r="6.03245" stroke-width="0.5" stroke="grey" fill="grey"/>
   </g>
   <g id="cell72">
  <circle cx="1117.79" cy="709.584" r="9.87964" stroke-width="0.5" stroke="black" fill="red"/>
  <circle cx="1117.79" cy="709.584" r="5.99871" stroke-width="0.5" stroke="red" fill="red"/>
   </g>
   <g id="cell73">
  <circle cx="1170.65" cy="1231.13" r="10.0261" stroke-width="0.5" stroke="black" fill="grey"/>
  <circle cx="1170.65" cy="1231.13" r="6.08138" stroke-width="0.5" stroke="grey" fill="grey"/>
   </g>
   <g id="cell74">
  <circle cx="1137.1" cy="1097.25" r="9.03774" stroke-width="0.5" stroke="black" fill="grey"/>
  <circle cx="1137.1" cy="1097.25" r="5.49014" stroke-width="0.5" stroke="grey" fill="grey"/>
   </g>
   <g id="cell75">
  <circle cx="1691.67" cy="1185.99" r="9.85675" stroke-width="0.5" stroke="black" fill="grey"/>
  <circle cx="1691.67" cy="1185.99" r="5.98606" stroke-width="0.5" stroke="grey" fill="grey"/>
   </g>
   <g id="cell76">
  <circle cx="1682.12" cy="214.499" r="8.87613" stroke-width="0.5" stroke="black" fill="red"/>
  <circle cx="1682.12" cy="214.499" r="5.38547" stroke-width="0.5" stroke="red" fill="red"/>
   </g>
   <g id="cell77">
  <circle cx="67.2066" cy="1925.37" r="9.55182" stroke-width="0.5" stroke="black" fill="red"/>
  <circle cx="67.2066" cy="1925.37" r="5.8086" stroke-width="0.5" stroke="red" fill="red"/>
   </g>
   <g id="cell78">
  <circle cx="1116.68" cy="1237.15" r="8.39516" stroke-width="0.5" stroke="black" fill="grey"/>
  <circle cx="1116.68" cy="1237.15" r="5.04579" stroke-width="0.5" stroke="black" fill="black"/>
   </g>
   <g id="cell79">
  <circle cx="1195.8" cy="1243.35" r="8.39451" stroke-width="0.5" stroke="black" fill="grey"/>
  <circle cx="1195.8" cy="1243.35" r="5.04557" stroke-width="0.5" stroke="grey" fill="grey"/>
   </g>
   <g id="cell80">
  <circle cx="809.123" cy="523.668" r="8.39452" stroke-width="0.5" stroke="black" fill="grey"/>
  <circle cx="809.123" cy="523.668" r="5.04557" stroke-width="0.5" stroke="grey" fill="grey"/>
   </g>
   <g id="cell81">
  <circle cx="1224.67" cy="1277.39" r="8.39076" stroke-width="0.5" stroke="black" fill="grey"/>
  <circle cx="1224.67" cy="1277.39" r="5.04412" stroke-width="0.5" stroke="grey" fill="grey"/>
   </g>
   <g id="cell82">
  <circle cx="1638.26" cy="1091.18" r="8.39081" stroke-width="0.5" stroke="black" fill="red"/>
  <circle cx="1638.26" cy="1091.18" r="5.04414" stroke-width="0.5" stroke="red" fill="red"/>
   </g>
   <g id="cell83">
  <circle cx="891.614" cy="571.337" r="8.38791" stroke-width="0.5" stroke="black" fill="grey"/>
  <circle cx="891.614" cy="571.337" r="5.04305" stroke-width="0.5" stroke="grey" fill="grey"/>
   </g>
   <g id="cell84">
  <circle cx="1097.66" cy="1648.02" r="8.38808" stroke-width="0.5" stroke="black" fill="grey"/>
  <circle cx="1097.66" cy="1648.02" r="5.0431" stroke-width="0.5" stroke="grey" fill="grey"/>
   </g>
   <g id="cell85">
  <circle cx="1152.57" cy="1715.81" r="8.82366" stroke-width="0.5" stroke="black" fill="grey"/>
  <circle cx="1152.57" cy="1715.81" r="5.35387" stroke-width="0.5" stroke="grey" fill="grey"/>
   </g>
   <g id="cell88">
  <circle cx="1668.83" cy="1167" r="8.37526" stroke-width="0.5" stroke="black" fill="grey"/>
  <circle cx="1668.83" cy="1167" r="5.03795" stroke-width="0.5" stroke="grey" fill="grey"/>
   </g>
   <g id="cell89">
  <circle cx="1762.58" cy="276.667" r="8.37272" stroke-width="0.5" stroke="black" fill="red"/>
  <circle cx="1762.58" cy="276.667" r="5.03696" stroke-width="0.5" stroke="red" fill="red"/>
   </g>
   <g id="cell91">
  <circle cx="1150.37" cy="1224.75" r="8.36827" stroke-width="0.5" stroke="black" fill="grey"/>
  <circle cx="1150.37" cy="1224.75" r="5.03507" stroke-width="0.5" stroke="grey" fill="grey"/>
   </g>
   <g id="cell92">
  <circle cx="1698.74" cy="1358.15" r="8.36842" stroke-width="0.5" stroke="black" fill="grey"/>
  <circle cx="1698.74" cy="1358.15" r="5.0351" stroke-width="0.5" stroke="grey" fill="grey"/>
   </g>
   <g id="cell93">
  <circle cx="856.756" cy="605.301" r="8.367" stroke-width="0.5" stroke="black" fill="grey"/>
  <circle cx="856.756" cy="605.301" r="5.03453" stroke-width="0.5" stroke="grey" fill="grey"/>
   </g>
  </g>
 </g>
  <rect x="1750" y="2070" width="200" height="20" stroke-width="4" stroke="rgb(255,255,255)" fill="rgb(0,0,0)"/>
  <text x="1762.5" y="2057.5"
   font-family="Arial" font-size="50" fill="black" >
   200 &#956;m
  </text>
  <text x="50" y="2090"
   font-family="Arial" font-size="37.5" fill="black" >
   0 days, 0 hours, 1 minutes, and 30.4326 seconds
  </text>
  <rect x="0" y="140" width="2000" height="2000" stroke-width="4" stroke="rgb(0,0,0)" fill="none"/>
</svg>
