<?xml version="1.0" encoding="UTF-8" standalone="no"?>
<!-- Created with PhysiCell (http://PhysiCell.MathCancer.org/) -->
<svg 
 xmlns:dc="http://purl.org/dc/elements/1.1/" 
 xmlns:cc="http://creativecommons.org/ns#" 
 xmlns:rdf="http://www.w3.org/1999/02/22-rdf-syntax-ns#" 
 xmlns:svg="http://www.w3.org/2000/svg" 
 xmlns="http://www.w3.org/2000/svg" 
 version="1.1" 
 width="2000" 
 height="2140" 
 id="svg2">
  <rect x="0" y="0" width="2000" height="2140" stroke-width="4" stroke="white" fill="white"/>
  <text x="25" y="60"
   font-family="Arial" font-size="50" fill="black" >
   Current time: 1 days, 20 hours, and 0.00 minutes, z = 0.00 &#956;m
  </text>
  <text x="25" y="115"
   font-family="Arial" font-size="47.5" fill="black" >
   35 agents
  </text>
 <g id="tissue" 
    transform="translate(0,2140) scale(1,-1)">
  <g id="ECM">
  </g>
  <g id="cells">
   <g id="cell0">
  <circle cx="1111.15" cy="1179.27" r="10.398" stroke-width="0.5" stroke="black" fill="grey"/>
  <circle cx="1111.15" cy="1179.27" r="6.27674" stroke-width="0.5" stroke="grey" fill="grey"/>
   </g>
   <g id="cell1">
  <circle cx="1698.75" cy="1222.6" r="9.19478" stroke-width="0.5" stroke="black" fill="grey"/>
  <circle cx="1698.75" cy="1222.6" r="5.58848" stroke-width="0.5" stroke="grey" fill="grey"/>
   </g>
   <g id="cell2">
  <circle cx="1174.7" cy="1731.68" r="10.1228" stroke-width="0.5" stroke="black" fill="grey"/>
  <circle cx="1174.7" cy="1731.68" r="6.1332" stroke-width="0.5" stroke="grey" fill="grey"/>
   </g>
   <g id="cell3">
  <circle cx="1275.48" cy="1348.2" r="10.4093" stroke-width="0.5" stroke="black" fill="grey"/>
  <circle cx="1275.48" cy="1348.2" r="6.28225" stroke-width="0.5" stroke="grey" fill="grey"/>
   </g>
   <g id="cell4">
  <circle cx="873.696" cy="550.425" r="9.98003" stroke-width="0.5" stroke="black" fill="grey"/>
  <circle cx="873.696" cy="550.425" r="6.05452" stroke-width="0.5" stroke="grey" fill="grey"/>
   </g>
   <g id="cell5">
  <circle cx="110.175" cy="1985.62" r="10.0628" stroke-width="0.5" stroke="black" fill="red"/>
  <circle cx="110.175" cy="1985.62" r="6.10067" stroke-width="0.5" stroke="red" fill="red"/>
   </g>
   <g id="cell6">
  <circle cx="797.2" cy="859.692" r="8.40344" stroke-width="0.5" stroke="black" fill="red"/>
  <circle cx="797.2" cy="859.692" r="5.04879" stroke-width="0.5" stroke="red" fill="red"/>
   </g>
   <g id="cell19">
  <circle cx="1707.12" cy="1288.76" r="10.4084" stroke-width="0.5" stroke="black" fill="grey"/>
  <circle cx="1707.12" cy="1288.76" r="6.28199" stroke-width="0.5" stroke="grey" fill="grey"/>
   </g>
   <g id="cell18">
  <circle cx="1659.25" cy="295.09" r="8.52709" stroke-width="0.5" stroke="black" fill="red"/>
  <circle cx="1659.25" cy="295.09" r="5.14352" stroke-width="0.5" stroke="red" fill="red"/>
   </g>
   <g id="cell9">
  <circle cx="1677.75" cy="218.203" r="10.1194" stroke-width="0.5" stroke="black" fill="red"/>
  <circle cx="1677.75" cy="218.203" r="6.1321" stroke-width="0.5" stroke="red" fill="red"/>
   </g>
   <g id="cell11">
  <circle cx="1565.76" cy="1066.27" r="8.37274" stroke-width="0.5" stroke="black" fill="red"/>
  <circle cx="1565.76" cy="1066.27" r="5.03697" stroke-width="0.5" stroke="red" fill="red"/>
   </g>
   <g id="cell20">
  <circle cx="854.919" cy="961.125" r="8.38282" stroke-width="0.5" stroke="black" fill="red"/>
  <circle cx="854.919" cy="961.125" r="5.04101" stroke-width="0.5" stroke="red" fill="red"/>
   </g>
   <g id="cell13">
  <circle cx="851.971" cy="600.786" r="9.79543" stroke-width="0.5" stroke="black" fill="grey"/>
  <circle cx="851.971" cy="600.786" r="5.94969" stroke-width="0.5" stroke="grey" fill="grey"/>
   </g>
   <g id="cell14">
  <circle cx="1200.57" cy="1294.29" r="9.97805" stroke-width="0.5" stroke="black" fill="grey"/>
  <circle cx="1200.57" cy="1294.29" r="6.05387" stroke-width="0.5" stroke="grey" fill="grey"/>
   </g>
   <g id="cell15">
  <circle cx="1145.27" cy="1142.08" r="9.99631" stroke-width="0.5" stroke="black" fill="grey"/>
  <circle cx="1145.27" cy="1142.08" r="6.06395" stroke-width="0.5" stroke="grey" fill="grey"/>
   </g>
   <g id="cell16">
  <circle cx="1195.28" cy="1712.75" r="10.1703" stroke-width="0.5" stroke="black" fill="grey"/>
  <circle cx="1195.28" cy="1712.75" r="6.15987" stroke-width="0.5" stroke="grey" fill="grey"/>
   </g>
   <g id="cell17">
  <circle cx="1106.83" cy="698.141" r="8.41071" stroke-width="0.5" stroke="black" fill="red"/>
  <circle cx="1106.83" cy="698.141" r="5.05114" stroke-width="0.5" stroke="red" fill="red"/>
   </g>
   <g id="cell21">
  <circle cx="1550.29" cy="1017.92" r="10.1873" stroke-width="0.5" stroke="black" fill="red"/>
  <circle cx="1550.29" cy="1017.92" r="6.16791" stroke-width="0.5" stroke="red" fill="red"/>
   </g>
   <g id="cell22">
  <circle cx="1188.83" cy="1742.66" r="8.72695" stroke-width="0.5" stroke="black" fill="grey"/>
  <circle cx="1188.83" cy="1742.66" r="5.28097" stroke-width="0.5" stroke="grey" fill="grey"/>
   </g>
   <g id="cell23">
  <circle cx="1255.36" cy="1317.56" r="8.41124" stroke-width="0.5" stroke="black" fill="grey"/>
  <circle cx="1255.36" cy="1317.56" r="5.05129" stroke-width="0.5" stroke="grey" fill="grey"/>
   </g>
   <g id="cell24">
  <circle cx="1148.82" cy="1204.75" r="10.4344" stroke-width="0.5" stroke="black" fill="grey"/>
  <circle cx="1148.82" cy="1204.75" r="6.29441" stroke-width="0.5" stroke="grey" fill="grey"/>
   </g>
   <g id="cell25">
  <circle cx="1121.84" cy="722.042" r="8.41071" stroke-width="0.5" stroke="black" fill="red"/>
  <circle cx="1121.84" cy="722.042" r="5.05114" stroke-width="0.5" stroke="red" fill="red"/>
   </g>
   <g id="cell26">
  <circle cx="1673.88" cy="1229.67" r="10.298" stroke-width="0.5" stroke="black" fill="grey"/>
  <circle cx="1673.88" cy="1229.67" r="6.22646" stroke-width="0.5" stroke="grey" fill="grey"/>
   </g>
   <g id="cell27">
  <circle cx="907.458" cy="556.142" r="8.4096" stroke-width="0.5" stroke="black" fill="grey"/>
  <circle cx="907.458" cy="556.142" r="5.05081" stroke-width="0.5" stroke="grey" fill="grey"/>
   </g>
   <g id="cell28">
  <circle cx="100.693" cy="1962.36" r="9.50235" stroke-width="0.5" stroke="black" fill="red"/>
  <circle cx="100.693" cy="1962.36" r="5.77653" stroke-width="0.5" stroke="red" fill="red"/>
   </g>
   <g id="cell29">
  <circle cx="1113.19" cy="1124.23" r="10.3292" stroke-width="0.5" stroke="black" fill="grey"/>
  <circle cx="1113.19" cy="1124.23" r="6.2427" stroke-width="0.5" stroke="grey" fill="grey"/>
   </g>
   <g id="cell30">
  <circle cx="893.959" cy="606.22" r="9.67216" stroke-width="0.5" stroke="black" fill="grey"/>
  <circle cx="893.959" cy="606.22" r="5.8778" stroke-width="0.5" stroke="grey" fill="grey"/>
   </g>
   <g id="cell31">
  <circle cx="1157.97" cy="1297.61" r="9.88202" stroke-width="0.5" stroke="black" fill="grey"/>
  <circle cx="1157.97" cy="1297.61" r="5.99955" stroke-width="0.5" stroke="grey" fill="grey"/>
   </g>
   <g id="cell32">
  <circle cx="1649.31" cy="215.527" r="9.23153" stroke-width="0.5" stroke="black" fill="red"/>
  <circle cx="1649.31" cy="215.527" r="5.61142" stroke-width="0.5" stroke="red" fill="red"/>
   </g>
   <g id="cell33">
  <circle cx="1672.1" cy="1195.98" r="8.40629" stroke-width="0.5" stroke="black" fill="grey"/>
  <circle cx="1672.1" cy="1195.98" r="5.04975" stroke-width="0.5" stroke="grey" fill="grey"/>
   </g>
   <g id="cell34">
  <circle cx="1186.65" cy="1686.62" r="8.57087" stroke-width="0.5" stroke="black" fill="grey"/>
  <circle cx="1186.65" cy="1686.62" r="5.17219" stroke-width="0.5" stroke="grey" fill="grey"/>
   </g>
   <g id="cell35">
  <circle cx="781.823" cy="870.377" r="9.19239" stroke-width="0.5" stroke="black" fill="red"/>
  <circle cx="781.823" cy="870.377" r="5.58763" stroke-width="0.5" stroke="red" fill="red"/>
   </g>
   <g id="cell36">
  <circle cx="1680.52" cy="289.028" r="9.1851" stroke-width="0.5" stroke="black" fill="red"/>
  <circle cx="1680.52" cy="289.028" r="5.58485" stroke-width="0.5" stroke="red" fill="red"/>
   </g>
   <g id="cell37">
  <circle cx="825.828" cy="959.306" r="8.38282" stroke-width="0.5" stroke="black" fill="red"/>
  <circle cx="825.828" cy="959.306" r="5.04101" stroke-width="0.5" stroke="red" fill="red"/>
   </g>
   <g id="cell38">
  <circle cx="1593.49" cy="1050.2" r="8.37274" stroke-width="0.5" stroke="black" fill="red"/>
  <circle cx="1593.49" cy="1050.2" r="5.03697" stroke-width="0.5" stroke="red" fill="red"/>
   </g>
  </g>
 </g>
  <rect x="1750" y="2070" width="200" height="20" stroke-width="4" stroke="rgb(255,255,255)" fill="rgb(0,0,0)"/>
  <text x="1762.5" y="2057.5"
   font-family="Arial" font-size="50" fill="black" >
   200 &#956;m
  </text>
  <text x="50" y="2090"
   font-family="Arial" font-size="37.5" fill="black" >
   0 days, 0 hours, 0 minutes, and 57.1511 seconds
  </text>
  <rect x="0" y="140" width="2000" height="2000" stroke-width="4" stroke="rgb(0,0,0)" fill="none"/>
</svg>
