<?xml version="1.0" encoding="UTF-8" standalone="no"?>
<!-- Created with PhysiCell (http://PhysiCell.MathCancer.org/) -->
<svg 
 xmlns:dc="http://purl.org/dc/elements/1.1/" 
 xmlns:cc="http://creativecommons.org/ns#" 
 xmlns:rdf="http://www.w3.org/1999/02/22-rdf-syntax-ns#" 
 xmlns:svg="http://www.w3.org/2000/svg" 
 xmlns="http://www.w3.org/2000/svg" 
 version="1.1" 
 width="2000" 
 height="2140" 
 id="svg2">
  <rect x="0" y="0" width="2000" height="2140" stroke-width="4" stroke="white" fill="white"/>
  <text x="25" y="60"
   font-family="Arial" font-size="50" fill="black" >
   Current time: 1 days, 9 hours, and 0.00 minutes, z = 0.00 &#956;m
  </text>
  <text x="25" y="115"
   font-family="Arial" font-size="47.5" fill="black" >
   22 agents
  </text>
 <g id="tissue" 
    transform="translate(0,2140) scale(1,-1)">
  <g id="ECM">
  </g>
  <g id="cells">
   <g id="cell0">
  <circle cx="1129.98" cy="1165.43" r="8.37619" stroke-width="0.5" stroke="black" fill="grey"/>
  <circle cx="1129.98" cy="1165.43" r="5.03835" stroke-width="0.5" stroke="grey" fill="grey"/>
   </g>
   <g id="cell1">
  <circle cx="1701.13" cy="1206.32" r="10.4199" stroke-width="0.5" stroke="black" fill="grey"/>
  <circle cx="1701.13" cy="1206.32" r="6.28738" stroke-width="0.5" stroke="grey" fill="grey"/>
   </g>
   <g id="cell2">
  <circle cx="1166.14" cy="1702.84" r="8.38175" stroke-width="0.5" stroke="black" fill="grey"/>
  <circle cx="1166.14" cy="1702.84" r="5.04062" stroke-width="0.5" stroke="grey" fill="grey"/>
   </g>
   <g id="cell3">
  <circle cx="1269.74" cy="1296.55" r="8.38096" stroke-width="0.5" stroke="black" fill="grey"/>
  <circle cx="1269.74" cy="1296.55" r="5.04028" stroke-width="0.5" stroke="grey" fill="grey"/>
   </g>
   <g id="cell4">
  <circle cx="896.837" cy="556.869" r="10.5139" stroke-width="0.5" stroke="black" fill="grey"/>
  <circle cx="896.837" cy="556.869" r="6.33108" stroke-width="0.5" stroke="grey" fill="grey"/>
   </g>
   <g id="cell5">
  <circle cx="102.368" cy="1969.94" r="10.4953" stroke-width="0.5" stroke="black" fill="red"/>
  <circle cx="102.368" cy="1969.94" r="6.3227" stroke-width="0.5" stroke="red" fill="red"/>
   </g>
   <g id="cell6">
  <circle cx="805.65" cy="869.591" r="10.3375" stroke-width="0.5" stroke="black" fill="red"/>
  <circle cx="805.65" cy="869.591" r="6.24681" stroke-width="0.5" stroke="red" fill="red"/>
   </g>
   <g id="cell19">
  <circle cx="1680.03" cy="1246.05" r="10.5224" stroke-width="0.5" stroke="black" fill="grey"/>
  <circle cx="1680.03" cy="1246.05" r="6.33491" stroke-width="0.5" stroke="grey" fill="grey"/>
   </g>
   <g id="cell18">
  <circle cx="1656.26" cy="220.786" r="10.0799" stroke-width="0.5" stroke="black" fill="red"/>
  <circle cx="1656.26" cy="220.786" r="6.10965" stroke-width="0.5" stroke="red" fill="red"/>
   </g>
   <g id="cell9">
  <circle cx="1677.9" cy="221.518" r="10.4201" stroke-width="0.5" stroke="black" fill="red"/>
  <circle cx="1677.9" cy="221.518" r="6.28744" stroke-width="0.5" stroke="red" fill="red"/>
   </g>
   <g id="cell11">
  <circle cx="1591.07" cy="1062.34" r="9.42693" stroke-width="0.5" stroke="black" fill="red"/>
  <circle cx="1591.07" cy="1062.34" r="5.73395" stroke-width="0.5" stroke="red" fill="red"/>
   </g>
   <g id="cell20">
  <circle cx="838.006" cy="951.75" r="9.72448" stroke-width="0.5" stroke="black" fill="red"/>
  <circle cx="838.006" cy="951.75" r="5.90821" stroke-width="0.5" stroke="red" fill="red"/>
   </g>
   <g id="cell13">
  <circle cx="844.909" cy="554.363" r="10.457" stroke-width="0.5" stroke="black" fill="grey"/>
  <circle cx="844.909" cy="554.363" r="6.30501" stroke-width="0.5" stroke="grey" fill="grey"/>
   </g>
   <g id="cell14">
  <circle cx="1208.27" cy="1300.66" r="10.4352" stroke-width="0.5" stroke="black" fill="grey"/>
  <circle cx="1208.27" cy="1300.66" r="6.29463" stroke-width="0.5" stroke="grey" fill="grey"/>
   </g>
   <g id="cell15">
  <circle cx="1139.84" cy="1141.95" r="10.461" stroke-width="0.5" stroke="black" fill="grey"/>
  <circle cx="1139.84" cy="1141.95" r="6.30688" stroke-width="0.5" stroke="grey" fill="grey"/>
   </g>
   <g id="cell16">
  <circle cx="1174" cy="1676.12" r="10.3743" stroke-width="0.5" stroke="black" fill="grey"/>
  <circle cx="1174" cy="1676.12" r="6.26489" stroke-width="0.5" stroke="grey" fill="grey"/>
   </g>
   <g id="cell17">
  <circle cx="1089.06" cy="715.945" r="8.36936" stroke-width="0.5" stroke="black" fill="red"/>
  <circle cx="1089.06" cy="715.945" r="5.03554" stroke-width="0.5" stroke="red" fill="red"/>
   </g>
   <g id="cell21">
  <circle cx="1566.34" cy="1077.24" r="8.393" stroke-width="0.5" stroke="black" fill="red"/>
  <circle cx="1566.34" cy="1077.24" r="5.04499" stroke-width="0.5" stroke="red" fill="red"/>
   </g>
   <g id="cell22">
  <circle cx="1163.64" cy="1719.24" r="8.38175" stroke-width="0.5" stroke="black" fill="grey"/>
  <circle cx="1163.64" cy="1719.24" r="5.04062" stroke-width="0.5" stroke="grey" fill="grey"/>
   </g>
   <g id="cell23">
  <circle cx="1254.46" cy="1294.21" r="8.38096" stroke-width="0.5" stroke="black" fill="grey"/>
  <circle cx="1254.46" cy="1294.21" r="5.04028" stroke-width="0.5" stroke="grey" fill="grey"/>
   </g>
   <g id="cell24">
  <circle cx="1141.05" cy="1188.03" r="8.37619" stroke-width="0.5" stroke="black" fill="grey"/>
  <circle cx="1141.05" cy="1188.03" r="5.03835" stroke-width="0.5" stroke="grey" fill="grey"/>
   </g>
   <g id="cell25">
  <circle cx="1092.19" cy="698.179" r="8.36936" stroke-width="0.5" stroke="black" fill="red"/>
  <circle cx="1092.19" cy="698.179" r="5.03554" stroke-width="0.5" stroke="red" fill="red"/>
   </g>
  </g>
 </g>
  <rect x="1750" y="2070" width="200" height="20" stroke-width="4" stroke="rgb(255,255,255)" fill="rgb(0,0,0)"/>
  <text x="1762.5" y="2057.5"
   font-family="Arial" font-size="50" fill="black" >
   200 &#956;m
  </text>
  <text x="50" y="2090"
   font-family="Arial" font-size="37.5" fill="black" >
   0 days, 0 hours, 0 minutes, and 42.6769 seconds
  </text>
  <rect x="0" y="140" width="2000" height="2000" stroke-width="4" stroke="rgb(0,0,0)" fill="none"/>
</svg>
