<?xml version="1.0" encoding="UTF-8" standalone="no"?>
<!-- Created with PhysiCell (http://PhysiCell.MathCancer.org/) -->
<svg 
 xmlns:dc="http://purl.org/dc/elements/1.1/" 
 xmlns:cc="http://creativecommons.org/ns#" 
 xmlns:rdf="http://www.w3.org/1999/02/22-rdf-syntax-ns#" 
 xmlns:svg="http://www.w3.org/2000/svg" 
 xmlns="http://www.w3.org/2000/svg" 
 version="1.1" 
 width="2000" 
 height="2140" 
 id="svg2">
  <rect x="0" y="0" width="2000" height="2140" stroke-width="4" stroke="white" fill="white"/>
  <text x="25" y="60"
   font-family="Arial" font-size="50" fill="black" >
   Current time: 1 days, 13 hours, and 0.00 minutes, z = 0.00 &#956;m
  </text>
  <text x="25" y="115"
   font-family="Arial" font-size="47.5" fill="black" >
   30 agents
  </text>
 <g id="tissue" 
    transform="translate(0,2140) scale(1,-1)">
  <g id="ECM">
  </g>
  <g id="cells">
   <g id="cell0">
  <circle cx="1116.83" cy="1193.46" r="9.11479" stroke-width="0.5" stroke="black" fill="grey"/>
  <circle cx="1116.83" cy="1193.46" r="5.53936" stroke-width="0.5" stroke="grey" fill="grey"/>
   </g>
   <g id="cell1">
  <circle cx="1692.52" cy="1218.51" r="8.36699" stroke-width="0.5" stroke="black" fill="grey"/>
  <circle cx="1692.52" cy="1218.51" r="5.03453" stroke-width="0.5" stroke="grey" fill="grey"/>
   </g>
   <g id="cell2">
  <circle cx="1173.44" cy="1707.84" r="8.40262" stroke-width="0.5" stroke="black" fill="grey"/>
  <circle cx="1173.44" cy="1707.84" r="5.04851" stroke-width="0.5" stroke="grey" fill="grey"/>
   </g>
   <g id="cell3">
  <circle cx="1270.93" cy="1313.82" r="9.1915" stroke-width="0.5" stroke="black" fill="grey"/>
  <circle cx="1270.93" cy="1313.82" r="5.5873" stroke-width="0.5" stroke="grey" fill="grey"/>
   </g>
   <g id="cell4">
  <circle cx="879.892" cy="558.476" r="8.39077" stroke-width="0.5" stroke="black" fill="grey"/>
  <circle cx="879.892" cy="558.476" r="5.04413" stroke-width="0.5" stroke="grey" fill="grey"/>
   </g>
   <g id="cell5">
  <circle cx="108.797" cy="1986.54" r="8.38602" stroke-width="0.5" stroke="black" fill="red"/>
  <circle cx="108.797" cy="1986.54" r="5.04228" stroke-width="0.5" stroke="red" fill="red"/>
   </g>
   <g id="cell6">
  <circle cx="799.082" cy="882.684" r="10.5158" stroke-width="0.5" stroke="black" fill="red"/>
  <circle cx="799.082" cy="882.684" r="6.33198" stroke-width="0.5" stroke="red" fill="red"/>
   </g>
   <g id="cell19">
  <circle cx="1675.66" cy="1244.47" r="9.18361" stroke-width="0.5" stroke="black" fill="grey"/>
  <circle cx="1675.66" cy="1244.47" r="5.58428" stroke-width="0.5" stroke="grey" fill="grey"/>
   </g>
   <g id="cell18">
  <circle cx="1646.23" cy="225.746" r="10.4352" stroke-width="0.5" stroke="black" fill="red"/>
  <circle cx="1646.23" cy="225.746" r="6.29464" stroke-width="0.5" stroke="red" fill="red"/>
   </g>
   <g id="cell9">
  <circle cx="1684.3" cy="206.115" r="8.36704" stroke-width="0.5" stroke="black" fill="red"/>
  <circle cx="1684.3" cy="206.115" r="5.03454" stroke-width="0.5" stroke="red" fill="red"/>
   </g>
   <g id="cell11">
  <circle cx="1585.13" cy="1054.25" r="10.2285" stroke-width="0.5" stroke="black" fill="red"/>
  <circle cx="1585.13" cy="1054.25" r="6.19064" stroke-width="0.5" stroke="red" fill="red"/>
   </g>
   <g id="cell20">
  <circle cx="827.125" cy="968.402" r="10.3238" stroke-width="0.5" stroke="black" fill="red"/>
  <circle cx="827.125" cy="968.402" r="6.2395" stroke-width="0.5" stroke="red" fill="red"/>
   </g>
   <g id="cell13">
  <circle cx="858.898" cy="560.758" r="8.37635" stroke-width="0.5" stroke="black" fill="grey"/>
  <circle cx="858.898" cy="560.758" r="5.03839" stroke-width="0.5" stroke="grey" fill="grey"/>
   </g>
   <g id="cell14">
  <circle cx="1196.96" cy="1284.12" r="8.37084" stroke-width="0.5" stroke="black" fill="grey"/>
  <circle cx="1196.96" cy="1284.12" r="5.03611" stroke-width="0.5" stroke="grey" fill="grey"/>
   </g>
   <g id="cell15">
  <circle cx="1141.63" cy="1159.65" r="8.37735" stroke-width="0.5" stroke="black" fill="grey"/>
  <circle cx="1141.63" cy="1159.65" r="5.0388" stroke-width="0.5" stroke="grey" fill="grey"/>
   </g>
   <g id="cell16">
  <circle cx="1175.01" cy="1690.21" r="10.5274" stroke-width="0.5" stroke="black" fill="grey"/>
  <circle cx="1175.01" cy="1690.21" r="6.33693" stroke-width="0.5" stroke="grey" fill="grey"/>
   </g>
   <g id="cell17">
  <circle cx="1112.18" cy="709.546" r="8.39862" stroke-width="0.5" stroke="black" fill="red"/>
  <circle cx="1112.18" cy="709.546" r="5.04708" stroke-width="0.5" stroke="red" fill="red"/>
   </g>
   <g id="cell21">
  <circle cx="1570.73" cy="1061.6" r="8.40627" stroke-width="0.5" stroke="black" fill="red"/>
  <circle cx="1570.73" cy="1061.6" r="5.04975" stroke-width="0.5" stroke="red" fill="red"/>
   </g>
   <g id="cell22">
  <circle cx="1162.47" cy="1737.97" r="8.40262" stroke-width="0.5" stroke="black" fill="grey"/>
  <circle cx="1162.47" cy="1737.97" r="5.04851" stroke-width="0.5" stroke="grey" fill="grey"/>
   </g>
   <g id="cell23">
  <circle cx="1252.95" cy="1298.52" r="8.40237" stroke-width="0.5" stroke="black" fill="grey"/>
  <circle cx="1252.95" cy="1298.52" r="5.04841" stroke-width="0.5" stroke="grey" fill="grey"/>
   </g>
   <g id="cell24">
  <circle cx="1141.47" cy="1204.52" r="9.3673" stroke-width="0.5" stroke="black" fill="grey"/>
  <circle cx="1141.47" cy="1204.52" r="5.69628" stroke-width="0.5" stroke="grey" fill="grey"/>
   </g>
   <g id="cell25">
  <circle cx="1119.77" cy="688.515" r="8.39862" stroke-width="0.5" stroke="black" fill="red"/>
  <circle cx="1119.77" cy="688.515" r="5.04708" stroke-width="0.5" stroke="red" fill="red"/>
   </g>
   <g id="cell26">
  <circle cx="1665.96" cy="1231.96" r="8.55954" stroke-width="0.5" stroke="black" fill="grey"/>
  <circle cx="1665.96" cy="1231.96" r="5.16805" stroke-width="0.5" stroke="grey" fill="grey"/>
   </g>
   <g id="cell27">
  <circle cx="896.539" cy="577.957" r="8.39077" stroke-width="0.5" stroke="black" fill="grey"/>
  <circle cx="896.539" cy="577.957" r="5.04413" stroke-width="0.5" stroke="grey" fill="grey"/>
   </g>
   <g id="cell28">
  <circle cx="92.1072" cy="1971.57" r="8.38602" stroke-width="0.5" stroke="black" fill="red"/>
  <circle cx="92.1072" cy="1971.57" r="5.04228" stroke-width="0.5" stroke="red" fill="red"/>
   </g>
   <g id="cell29">
  <circle cx="1128.79" cy="1149.69" r="8.69544" stroke-width="0.5" stroke="black" fill="grey"/>
  <circle cx="1128.79" cy="1149.69" r="5.269" stroke-width="0.5" stroke="grey" fill="grey"/>
   </g>
   <g id="cell30">
  <circle cx="872.7" cy="572.947" r="8.37635" stroke-width="0.5" stroke="black" fill="grey"/>
  <circle cx="872.7" cy="572.947" r="5.03839" stroke-width="0.5" stroke="grey" fill="grey"/>
   </g>
   <g id="cell31">
  <circle cx="1182.29" cy="1290.06" r="8.37084" stroke-width="0.5" stroke="black" fill="grey"/>
  <circle cx="1182.29" cy="1290.06" r="5.03611" stroke-width="0.5" stroke="grey" fill="grey"/>
   </g>
   <g id="cell32">
  <circle cx="1664.92" cy="222.13" r="8.36704" stroke-width="0.5" stroke="black" fill="red"/>
  <circle cx="1664.92" cy="222.13" r="5.03454" stroke-width="0.5" stroke="red" fill="red"/>
   </g>
   <g id="cell33">
  <circle cx="1688.02" cy="1202.18" r="8.36699" stroke-width="0.5" stroke="black" fill="grey"/>
  <circle cx="1688.02" cy="1202.18" r="5.03453" stroke-width="0.5" stroke="grey" fill="grey"/>
   </g>
  </g>
 </g>
  <rect x="1750" y="2070" width="200" height="20" stroke-width="4" stroke="rgb(255,255,255)" fill="rgb(0,0,0)"/>
  <text x="1762.5" y="2057.5"
   font-family="Arial" font-size="50" fill="black" >
   200 &#956;m
  </text>
  <text x="50" y="2090"
   font-family="Arial" font-size="37.5" fill="black" >
   0 days, 0 hours, 0 minutes, and 47.9336 seconds
  </text>
  <rect x="0" y="140" width="2000" height="2000" stroke-width="4" stroke="rgb(0,0,0)" fill="none"/>
</svg>
