<?xml version="1.0" encoding="UTF-8" standalone="no"?>
<!-- Created with PhysiCell (http://PhysiCell.MathCancer.org/) -->
<svg 
 xmlns:dc="http://purl.org/dc/elements/1.1/" 
 xmlns:cc="http://creativecommons.org/ns#" 
 xmlns:rdf="http://www.w3.org/1999/02/22-rdf-syntax-ns#" 
 xmlns:svg="http://www.w3.org/2000/svg" 
 xmlns="http://www.w3.org/2000/svg" 
 version="1.1" 
 width="2000" 
 height="2140" 
 id="svg2">
  <rect x="0" y="0" width="2000" height="2140" stroke-width="4" stroke="white" fill="white"/>
  <text x="25" y="60"
   font-family="Arial" font-size="50" fill="black" >
   Current time: 3 days, 11 hours, and 0.00 minutes, z = 0.00 &#956;m
  </text>
  <text x="25" y="115"
   font-family="Arial" font-size="47.5" fill="black" >
   144 agents
  </text>
 <g id="tissue" 
    transform="translate(0,2140) scale(1,-1)">
  <g id="ECM">
  </g>
  <g id="cells">
   <g id="cell0">
  <circle cx="1080.22" cy="1207.26" r="8.3859" stroke-width="0.5" stroke="black" fill="grey"/>
  <circle cx="1080.22" cy="1207.26" r="5.04225" stroke-width="0.5" stroke="grey" fill="grey"/>
   </g>
   <g id="cell1">
  <circle cx="1675.87" cy="1242.12" r="10.2187" stroke-width="0.5" stroke="black" fill="grey"/>
  <circle cx="1675.87" cy="1242.12" r="6.18527" stroke-width="0.5" stroke="grey" fill="grey"/>
   </g>
   <g id="cell2">
  <circle cx="1205.82" cy="1740.3" r="10.4569" stroke-width="0.5" stroke="black" fill="grey"/>
  <circle cx="1205.82" cy="1740.3" r="6.30498" stroke-width="0.5" stroke="grey" fill="grey"/>
   </g>
   <g id="cell3">
  <circle cx="1258.69" cy="1321.09" r="8.38183" stroke-width="0.5" stroke="black" fill="grey"/>
  <circle cx="1258.69" cy="1321.09" r="5.04064" stroke-width="0.5" stroke="grey" fill="grey"/>
   </g>
   <g id="cell4">
  <circle cx="806.631" cy="532.654" r="10.4045" stroke-width="0.5" stroke="black" fill="grey"/>
  <circle cx="806.631" cy="532.654" r="6.27975" stroke-width="0.5" stroke="grey" fill="grey"/>
   </g>
   <g id="cell5">
  <circle cx="62.7106" cy="1936.32" r="10.5312" stroke-width="0.5" stroke="black" fill="red"/>
  <circle cx="62.7106" cy="1936.32" r="6.33862" stroke-width="0.5" stroke="red" fill="red"/>
   </g>
   <g id="cell6">
  <circle cx="886.259" cy="895.398" r="10.4824" stroke-width="0.5" stroke="black" fill="red"/>
  <circle cx="886.259" cy="895.398" r="6.31691" stroke-width="0.5" stroke="red" fill="red"/>
   </g>
   <g id="cell19">
  <circle cx="1714.46" cy="1375.06" r="8.37386" stroke-width="0.5" stroke="black" fill="grey"/>
  <circle cx="1714.46" cy="1375.06" r="5.03742" stroke-width="0.5" stroke="grey" fill="grey"/>
   </g>
   <g id="cell18">
  <circle cx="1605.55" cy="287.503" r="8.41131" stroke-width="0.5" stroke="black" fill="red"/>
  <circle cx="1605.55" cy="287.503" r="5.05826" stroke-width="0.5" stroke="red" fill="red"/>
   </g>
   <g id="cell9">
  <circle cx="1729.56" cy="137.713" r="8.36708" stroke-width="0.5" stroke="black" fill="red"/>
  <circle cx="1729.56" cy="137.713" r="5.03455" stroke-width="0.5" stroke="red" fill="red"/>
   </g>
   <g id="cell11">
  <circle cx="1551.07" cy="1132.54" r="8.36949" stroke-width="0.5" stroke="black" fill="red"/>
  <circle cx="1551.07" cy="1132.54" r="5.03558" stroke-width="0.5" stroke="red" fill="red"/>
   </g>
   <g id="cell20">
  <circle cx="795.356" cy="1026.87" r="10.2491" stroke-width="0.5" stroke="black" fill="red"/>
  <circle cx="795.356" cy="1026.87" r="6.20148" stroke-width="0.5" stroke="red" fill="red"/>
   </g>
   <g id="cell13">
  <circle cx="862.752" cy="626.635" r="8.40377" stroke-width="0.5" stroke="black" fill="grey"/>
  <circle cx="862.752" cy="626.635" r="5.0489" stroke-width="0.5" stroke="grey" fill="grey"/>
   </g>
   <g id="cell14">
  <circle cx="1143.95" cy="1301.72" r="10.2212" stroke-width="0.5" stroke="black" fill="grey"/>
  <circle cx="1143.95" cy="1301.72" r="6.18606" stroke-width="0.5" stroke="grey" fill="grey"/>
   </g>
   <g id="cell15">
  <circle cx="1138.62" cy="1209.96" r="10.3985" stroke-width="0.5" stroke="black" fill="grey"/>
  <circle cx="1138.62" cy="1209.96" r="6.27689" stroke-width="0.5" stroke="grey" fill="grey"/>
   </g>
   <g id="cell16">
  <circle cx="1107.48" cy="1680.81" r="8.42372" stroke-width="0.5" stroke="black" fill="grey"/>
  <circle cx="1107.48" cy="1680.81" r="5.07132" stroke-width="0.5" stroke="grey" fill="grey"/>
   </g>
   <g id="cell90">
  <circle cx="808.418" cy="848.103" r="10.5112" stroke-width="0.5" stroke="black" fill="red"/>
  <circle cx="808.418" cy="848.103" r="6.32992" stroke-width="0.5" stroke="red" fill="red"/>
   </g>
   <g id="cell86">
  <circle cx="1537.75" cy="1020.23" r="10.5062" stroke-width="0.5" stroke="black" fill="red"/>
  <circle cx="1537.75" cy="1020.23" r="6.32766" stroke-width="0.5" stroke="red" fill="red"/>
   </g>
   <g id="cell22">
  <circle cx="1100.61" cy="1705.66" r="10.4085" stroke-width="0.5" stroke="black" fill="grey"/>
  <circle cx="1100.61" cy="1705.66" r="6.28201" stroke-width="0.5" stroke="grey" fill="grey"/>
   </g>
   <g id="cell23">
  <circle cx="1211.24" cy="1322.67" r="9.99737" stroke-width="0.5" stroke="black" fill="grey"/>
  <circle cx="1211.24" cy="1322.67" r="6.0643" stroke-width="0.5" stroke="grey" fill="grey"/>
   </g>
   <g id="cell24">
  <circle cx="1166.85" cy="1270.27" r="10.4611" stroke-width="0.5" stroke="black" fill="grey"/>
  <circle cx="1166.85" cy="1270.27" r="6.30691" stroke-width="0.5" stroke="grey" fill="grey"/>
   </g>
   <g id="cell25">
  <circle cx="1177.07" cy="734.533" r="8.37528" stroke-width="0.5" stroke="black" fill="red"/>
  <circle cx="1177.07" cy="734.533" r="5.03795" stroke-width="0.5" stroke="red" fill="red"/>
   </g>
   <g id="cell26">
  <circle cx="1722.17" cy="1234.37" r="10.5332" stroke-width="0.5" stroke="black" fill="grey"/>
  <circle cx="1722.17" cy="1234.37" r="6.33945" stroke-width="0.5" stroke="grey" fill="grey"/>
   </g>
   <g id="cell27">
  <circle cx="898.704" cy="553.97" r="9.58681" stroke-width="0.5" stroke="black" fill="grey"/>
  <circle cx="898.704" cy="553.97" r="5.82808" stroke-width="0.5" stroke="grey" fill="grey"/>
   </g>
   <g id="cell28">
  <circle cx="46.5206" cy="1972.36" r="10.5081" stroke-width="0.5" stroke="black" fill="red"/>
  <circle cx="46.5206" cy="1972.36" r="6.32863" stroke-width="0.5" stroke="red" fill="red"/>
   </g>
   <g id="cell29">
  <circle cx="1068.49" cy="1058.68" r="8.39251" stroke-width="0.5" stroke="black" fill="grey"/>
  <circle cx="1068.49" cy="1058.68" r="5.0448" stroke-width="0.5" stroke="grey" fill="grey"/>
   </g>
   <g id="cell30">
  <circle cx="958.392" cy="491.379" r="8.51839" stroke-width="0.5" stroke="black" fill="grey"/>
  <circle cx="958.392" cy="491.379" r="5.14018" stroke-width="0.5" stroke="grey" fill="grey"/>
   </g>
   <g id="cell31">
  <circle cx="1182.73" cy="1362.44" r="9.9044" stroke-width="0.5" stroke="black" fill="grey"/>
  <circle cx="1182.73" cy="1362.44" r="6.01179" stroke-width="0.5" stroke="grey" fill="grey"/>
   </g>
   <g id="cell109">
  <circle cx="781.591" cy="957.023" r="10.4427" stroke-width="0.5" stroke="black" fill="red"/>
  <circle cx="781.591" cy="957.023" r="6.29854" stroke-width="0.5" stroke="red" fill="red"/>
   </g>
   <g id="cell33">
  <circle cx="1667.58" cy="1164.68" r="10.4141" stroke-width="0.5" stroke="black" fill="grey"/>
  <circle cx="1667.58" cy="1164.68" r="6.28469" stroke-width="0.5" stroke="grey" fill="grey"/>
   </g>
   <g id="cell34">
  <circle cx="1107.29" cy="1625.93" r="8.39368" stroke-width="0.5" stroke="black" fill="grey"/>
  <circle cx="1107.29" cy="1625.93" r="5.04523" stroke-width="0.5" stroke="grey" fill="grey"/>
   </g>
   <g id="cell35">
  <circle cx="745.598" cy="932.95" r="9.40587" stroke-width="0.5" stroke="black" fill="red"/>
  <circle cx="745.598" cy="932.95" r="5.71848" stroke-width="0.5" stroke="red" fill="red"/>
   </g>
   <g id="cell36">
  <circle cx="1736.5" cy="251.69" r="10.2723" stroke-width="0.5" stroke="black" fill="red"/>
  <circle cx="1736.5" cy="251.69" r="6.21282" stroke-width="0.5" stroke="red" fill="red"/>
   </g>
   <g id="cell37">
  <circle cx="816.161" cy="916.497" r="10.4431" stroke-width="0.5" stroke="black" fill="red"/>
  <circle cx="816.161" cy="916.497" r="6.29865" stroke-width="0.5" stroke="red" fill="red"/>
   </g>
   <g id="cell38">
  <circle cx="1597.18" cy="1068.03" r="8.86063" stroke-width="0.5" stroke="black" fill="red"/>
  <circle cx="1597.18" cy="1068.03" r="5.3793" stroke-width="0.5" stroke="red" fill="red"/>
   </g>
   <g id="cell39">
  <circle cx="1124.55" cy="1192.68" r="10.4032" stroke-width="0.5" stroke="black" fill="grey"/>
  <circle cx="1124.55" cy="1192.68" r="6.27939" stroke-width="0.5" stroke="grey" fill="grey"/>
   </g>
   <g id="cell40">
  <circle cx="1775.1" cy="1266.23" r="8.37202" stroke-width="0.5" stroke="black" fill="grey"/>
  <circle cx="1775.1" cy="1266.23" r="5.0366" stroke-width="0.5" stroke="grey" fill="grey"/>
   </g>
   <g id="cell41">
  <circle cx="1197" cy="1471.5" r="9.64673" stroke-width="0.5" stroke="black" fill="grey"/>
  <circle cx="1197" cy="1471.5" r="5.86249" stroke-width="0.5" stroke="grey" fill="grey"/>
   </g>
   <g id="cell42">
  <circle cx="1106.54" cy="1122.01" r="8.38879" stroke-width="0.5" stroke="black" fill="grey"/>
  <circle cx="1106.54" cy="1122.01" r="5.04337" stroke-width="0.5" stroke="grey" fill="grey"/>
   </g>
   <g id="cell43">
  <circle cx="1046.58" cy="1107.47" r="8.4065" stroke-width="0.5" stroke="black" fill="grey"/>
  <circle cx="1046.58" cy="1107.47" r="5.04982" stroke-width="0.5" stroke="grey" fill="grey"/>
   </g>
   <g id="cell44">
  <circle cx="1689.14" cy="1175.57" r="10.4203" stroke-width="0.5" stroke="black" fill="grey"/>
  <circle cx="1689.14" cy="1175.57" r="6.28749" stroke-width="0.5" stroke="grey" fill="grey"/>
   </g>
   <g id="cell45">
  <circle cx="1535.58" cy="1049.79" r="10.4568" stroke-width="0.5" stroke="black" fill="red"/>
  <circle cx="1535.58" cy="1049.79" r="6.30496" stroke-width="0.5" stroke="red" fill="red"/>
   </g>
   <g id="cell101">
  <circle cx="1686.57" cy="250.057" r="9.94413" stroke-width="0.5" stroke="black" fill="red"/>
  <circle cx="1686.57" cy="250.057" r="6.0341" stroke-width="0.5" stroke="red" fill="red"/>
   </g>
   <g id="cell47">
  <circle cx="1639.28" cy="154.049" r="10.4562" stroke-width="0.5" stroke="black" fill="red"/>
  <circle cx="1639.28" cy="154.049" r="6.30479" stroke-width="0.5" stroke="red" fill="red"/>
   </g>
   <g id="cell48">
  <circle cx="1179.93" cy="1798.42" r="10.4947" stroke-width="0.5" stroke="black" fill="grey"/>
  <circle cx="1179.93" cy="1798.42" r="6.32255" stroke-width="0.5" stroke="grey" fill="grey"/>
   </g>
   <g id="cell49">
  <circle cx="91.2389" cy="1957.14" r="10.4748" stroke-width="0.5" stroke="black" fill="red"/>
  <circle cx="91.2389" cy="1957.14" r="6.31352" stroke-width="0.5" stroke="red" fill="red"/>
   </g>
   <g id="cell50">
  <circle cx="1128.21" cy="1159.99" r="10.4781" stroke-width="0.5" stroke="black" fill="grey"/>
  <circle cx="1128.21" cy="1159.99" r="6.31507" stroke-width="0.5" stroke="grey" fill="grey"/>
   </g>
   <g id="cell51">
  <circle cx="1097.29" cy="1270.43" r="8.67534" stroke-width="0.5" stroke="black" fill="grey"/>
  <circle cx="1097.29" cy="1270.43" r="5.2494" stroke-width="0.5" stroke="grey" fill="grey"/>
   </g>
   <g id="cell52">
  <circle cx="881.602" cy="622.337" r="10.5328" stroke-width="0.5" stroke="black" fill="grey"/>
  <circle cx="881.602" cy="622.337" r="6.33934" stroke-width="0.5" stroke="grey" fill="grey"/>
   </g>
   <g id="cell87">
  <circle cx="895.515" cy="636.63" r="8.82417" stroke-width="0.5" stroke="black" fill="grey"/>
  <circle cx="895.515" cy="636.63" r="5.3541" stroke-width="0.5" stroke="grey" fill="grey"/>
   </g>
   <g id="cell54">
  <circle cx="883.46" cy="547.623" r="10.5059" stroke-width="0.5" stroke="black" fill="grey"/>
  <circle cx="883.46" cy="547.623" r="6.32758" stroke-width="0.5" stroke="grey" fill="grey"/>
   </g>
   <g id="cell55">
  <circle cx="878.942" cy="564.204" r="9.06692" stroke-width="0.5" stroke="black" fill="grey"/>
  <circle cx="878.942" cy="564.204" r="5.51127" stroke-width="0.5" stroke="grey" fill="grey"/>
   </g>
   <g id="cell56">
  <circle cx="173.798" cy="1904.19" r="10.1364" stroke-width="0.5" stroke="black" fill="red"/>
  <circle cx="173.798" cy="1904.19" r="6.14059" stroke-width="0.5" stroke="red" fill="red"/>
   </g>
   <g id="cell57">
  <circle cx="1671.63" cy="276.929" r="10.4295" stroke-width="0.5" stroke="black" fill="red"/>
  <circle cx="1671.63" cy="276.929" r="6.29208" stroke-width="0.5" stroke="red" fill="red"/>
   </g>
   <g id="cell58">
  <circle cx="703.109" cy="845.716" r="3.44766" stroke-width="0.5" stroke="black" fill="red"/>
  <circle cx="703.109" cy="845.716" r="2.6584" stroke-width="0.5" stroke="black" fill="black"/>
   </g>
   <g id="cell59">
  <circle cx="1728.02" cy="331.107" r="10.3377" stroke-width="0.5" stroke="black" fill="red"/>
  <circle cx="1728.02" cy="331.107" r="6.24685" stroke-width="0.5" stroke="red" fill="red"/>
   </g>
   <g id="cell60">
  <circle cx="1734.82" cy="1185.14" r="10.3531" stroke-width="0.5" stroke="black" fill="grey"/>
  <circle cx="1734.82" cy="1185.14" r="6.25447" stroke-width="0.5" stroke="grey" fill="grey"/>
   </g>
   <g id="cell61">
  <circle cx="1097.94" cy="1788.06" r="9.99333" stroke-width="0.5" stroke="black" fill="grey"/>
  <circle cx="1097.94" cy="1788.06" r="6.06292" stroke-width="0.5" stroke="grey" fill="grey"/>
   </g>
   <g id="cell62">
  <circle cx="1193.12" cy="1656.83" r="8.40471" stroke-width="0.5" stroke="black" fill="grey"/>
  <circle cx="1193.12" cy="1656.83" r="5.04922" stroke-width="0.5" stroke="grey" fill="grey"/>
   </g>
   <g id="cell63">
  <circle cx="1655.91" cy="367.653" r="8.3653" stroke-width="0.5" stroke="black" fill="red"/>
  <circle cx="1655.91" cy="367.653" r="5.03388" stroke-width="0.5" stroke="red" fill="red"/>
   </g>
   <g id="cell64">
  <circle cx="1696.18" cy="1155.97" r="8.38288" stroke-width="0.5" stroke="black" fill="grey"/>
  <circle cx="1696.18" cy="1155.97" r="5.04102" stroke-width="0.5" stroke="grey" fill="grey"/>
   </g>
   <g id="cell115">
  <circle cx="841.147" cy="564.196" r="10.1852" stroke-width="0.5" stroke="black" fill="grey"/>
  <circle cx="841.147" cy="564.196" r="6.16729" stroke-width="0.5" stroke="grey" fill="grey"/>
   </g>
   <g id="cell66">
  <circle cx="795.827" cy="956.909" r="2.97584" stroke-width="0.5" stroke="black" fill="red"/>
  <circle cx="795.827" cy="956.909" r="2.45558" stroke-width="0.5" stroke="black" fill="black"/>
   </g>
   <g id="cell67">
  <circle cx="1572.8" cy="1057.25" r="8.84512" stroke-width="0.5" stroke="black" fill="red"/>
  <circle cx="1572.8" cy="1057.25" r="5.36195" stroke-width="0.5" stroke="red" fill="red"/>
   </g>
   <g id="cell68">
  <circle cx="829.151" cy="1046.12" r="8.37533" stroke-width="0.5" stroke="black" fill="red"/>
  <circle cx="829.151" cy="1046.12" r="5.03797" stroke-width="0.5" stroke="red" fill="red"/>
   </g>
   <g id="cell69">
  <circle cx="813.695" cy="559.497" r="8.40879" stroke-width="0.5" stroke="black" fill="grey"/>
  <circle cx="813.695" cy="559.497" r="5.05056" stroke-width="0.5" stroke="grey" fill="grey"/>
   </g>
   <g id="cell70">
  <circle cx="1653.38" cy="1240.15" r="10.0136" stroke-width="0.5" stroke="black" fill="grey"/>
  <circle cx="1653.38" cy="1240.15" r="6.07356" stroke-width="0.5" stroke="grey" fill="grey"/>
   </g>
   <g id="cell71">
  <circle cx="1039.86" cy="1062.7" r="9.66862" stroke-width="0.5" stroke="black" fill="grey"/>
  <circle cx="1039.86" cy="1062.7" r="5.87655" stroke-width="0.5" stroke="grey" fill="grey"/>
   </g>
   <g id="cell72">
  <circle cx="1135.13" cy="754.497" r="8.40206" stroke-width="0.5" stroke="black" fill="red"/>
  <circle cx="1135.13" cy="754.497" r="5.04831" stroke-width="0.5" stroke="red" fill="red"/>
   </g>
   <g id="cell73">
  <circle cx="1216.27" cy="1208.02" r="9.99379" stroke-width="0.5" stroke="black" fill="grey"/>
  <circle cx="1216.27" cy="1208.02" r="6.06309" stroke-width="0.5" stroke="grey" fill="grey"/>
   </g>
   <g id="cell74">
  <circle cx="1087.19" cy="1077.85" r="8.46002" stroke-width="0.5" stroke="black" fill="grey"/>
  <circle cx="1087.19" cy="1077.85" r="5.09523" stroke-width="0.5" stroke="grey" fill="grey"/>
   </g>
   <g id="cell75">
  <circle cx="1710.36" cy="1171.53" r="9.33402" stroke-width="0.5" stroke="black" fill="grey"/>
  <circle cx="1710.36" cy="1171.53" r="5.67573" stroke-width="0.5" stroke="grey" fill="grey"/>
   </g>
   <g id="cell76">
  <circle cx="1625.09" cy="226.957" r="8.38668" stroke-width="0.5" stroke="black" fill="red"/>
  <circle cx="1625.09" cy="226.957" r="5.04255" stroke-width="0.5" stroke="red" fill="red"/>
   </g>
   <g id="cell77">
  <circle cx="43.7382" cy="1935.76" r="8.83399" stroke-width="0.5" stroke="black" fill="red"/>
  <circle cx="43.7382" cy="1935.76" r="5.35796" stroke-width="0.5" stroke="red" fill="red"/>
   </g>
   <g id="cell128">
  <circle cx="1706.11" cy="1197.29" r="9.36802" stroke-width="0.5" stroke="black" fill="grey"/>
  <circle cx="1706.11" cy="1197.29" r="5.69656" stroke-width="0.5" stroke="grey" fill="grey"/>
   </g>
   <g id="cell79">
  <circle cx="1200.97" cy="1290.72" r="10.1371" stroke-width="0.5" stroke="black" fill="grey"/>
  <circle cx="1200.97" cy="1290.72" r="6.14078" stroke-width="0.5" stroke="grey" fill="grey"/>
   </g>
   <g id="cell80">
  <circle cx="808.59" cy="503.62" r="10.368" stroke-width="0.5" stroke="black" fill="grey"/>
  <circle cx="808.59" cy="503.62" r="6.26166" stroke-width="0.5" stroke="grey" fill="grey"/>
   </g>
   <g id="cell81">
  <circle cx="1219.65" cy="1252.08" r="10.4981" stroke-width="0.5" stroke="black" fill="grey"/>
  <circle cx="1219.65" cy="1252.08" r="6.324" stroke-width="0.5" stroke="grey" fill="grey"/>
   </g>
   <g id="cell82">
  <circle cx="1620.82" cy="1125.67" r="8.47032" stroke-width="0.5" stroke="black" fill="red"/>
  <circle cx="1620.82" cy="1125.67" r="5.1097" stroke-width="0.5" stroke="red" fill="red"/>
   </g>
   <g id="cell83">
  <circle cx="930.258" cy="576.93" r="10.4304" stroke-width="0.5" stroke="black" fill="grey"/>
  <circle cx="930.258" cy="576.93" r="6.29233" stroke-width="0.5" stroke="grey" fill="grey"/>
   </g>
   <g id="cell84">
  <circle cx="1144.35" cy="1629.29" r="9.96376" stroke-width="0.5" stroke="black" fill="grey"/>
  <circle cx="1144.35" cy="1629.29" r="6.0449" stroke-width="0.5" stroke="grey" fill="grey"/>
   </g>
   <g id="cell85">
  <circle cx="1187.62" cy="1694.66" r="8.90442" stroke-width="0.5" stroke="black" fill="grey"/>
  <circle cx="1187.62" cy="1694.66" r="5.4073" stroke-width="0.5" stroke="grey" fill="grey"/>
   </g>
   <g id="cell88">
  <circle cx="1660.69" cy="1190.57" r="8.41196" stroke-width="0.5" stroke="black" fill="grey"/>
  <circle cx="1660.69" cy="1190.57" r="5.05149" stroke-width="0.5" stroke="grey" fill="grey"/>
   </g>
   <g id="cell89">
  <circle cx="1781.51" cy="285.105" r="9.79861" stroke-width="0.5" stroke="black" fill="red"/>
  <circle cx="1781.51" cy="285.105" r="5.9507" stroke-width="0.5" stroke="red" fill="red"/>
   </g>
   <g id="cell91">
  <circle cx="1184.49" cy="1242.42" r="10.2215" stroke-width="0.5" stroke="black" fill="grey"/>
  <circle cx="1184.49" cy="1242.42" r="6.18613" stroke-width="0.5" stroke="grey" fill="grey"/>
   </g>
   <g id="cell92">
  <circle cx="1694.96" cy="1378.75" r="10.15" stroke-width="0.5" stroke="black" fill="grey"/>
  <circle cx="1694.96" cy="1378.75" r="6.14783" stroke-width="0.5" stroke="grey" fill="grey"/>
   </g>
   <g id="cell93">
  <circle cx="853.439" cy="585.812" r="10.0329" stroke-width="0.5" stroke="black" fill="grey"/>
  <circle cx="853.439" cy="585.812" r="6.08365" stroke-width="0.5" stroke="grey" fill="grey"/>
   </g>
   <g id="cell94">
  <circle cx="848.117" cy="537.527" r="10.3983" stroke-width="0.5" stroke="black" fill="grey"/>
  <circle cx="848.117" cy="537.527" r="6.27684" stroke-width="0.5" stroke="grey" fill="grey"/>
   </g>
   <g id="cell95">
  <circle cx="1155.26" cy="1782.48" r="10.5032" stroke-width="0.5" stroke="black" fill="grey"/>
  <circle cx="1155.26" cy="1782.48" r="6.32638" stroke-width="0.5" stroke="grey" fill="grey"/>
   </g>
   <g id="cell96">
  <circle cx="1653.73" cy="285.188" r="10.5267" stroke-width="0.5" stroke="black" fill="red"/>
  <circle cx="1653.73" cy="285.188" r="6.33676" stroke-width="0.5" stroke="red" fill="red"/>
   </g>
   <g id="cell97">
  <circle cx="1174.81" cy="1331.76" r="10.4039" stroke-width="0.5" stroke="black" fill="grey"/>
  <circle cx="1174.81" cy="1331.76" r="6.2796" stroke-width="0.5" stroke="grey" fill="grey"/>
   </g>
   <g id="cell98">
  <circle cx="148.99" cy="1927.44" r="10.3802" stroke-width="0.5" stroke="black" fill="red"/>
  <circle cx="148.99" cy="1927.44" r="6.2679" stroke-width="0.5" stroke="red" fill="red"/>
   </g>
   <g id="cell99">
  <circle cx="1686.8" cy="144.198" r="9.70077" stroke-width="0.5" stroke="black" fill="red"/>
  <circle cx="1686.8" cy="144.198" r="5.89391" stroke-width="0.5" stroke="red" fill="red"/>
   </g>
   <g id="cell100">
  <circle cx="55.7173" cy="1954.31" r="10.4943" stroke-width="0.5" stroke="black" fill="red"/>
  <circle cx="55.7173" cy="1954.31" r="6.32245" stroke-width="0.5" stroke="red" fill="red"/>
   </g>
   <g id="cell102">
  <circle cx="1712.72" cy="1158.86" r="8.4106" stroke-width="0.5" stroke="black" fill="grey"/>
  <circle cx="1712.72" cy="1158.86" r="5.05111" stroke-width="0.5" stroke="grey" fill="grey"/>
   </g>
   <g id="cell103">
  <circle cx="94.3025" cy="1983.51" r="10.488" stroke-width="0.5" stroke="black" fill="red"/>
  <circle cx="94.3025" cy="1983.51" r="6.31962" stroke-width="0.5" stroke="red" fill="red"/>
   </g>
   <g id="cell104">
  <circle cx="771.826" cy="910.535" r="10.0481" stroke-width="0.5" stroke="black" fill="red"/>
  <circle cx="771.826" cy="910.535" r="6.09233" stroke-width="0.5" stroke="red" fill="red"/>
   </g>
   <g id="cell105">
  <circle cx="1649.39" cy="1136.69" r="10.4517" stroke-width="0.5" stroke="black" fill="grey"/>
  <circle cx="1649.39" cy="1136.69" r="6.30272" stroke-width="0.5" stroke="grey" fill="grey"/>
   </g>
   <g id="cell106">
  <circle cx="1143.1" cy="1174.17" r="8.41036" stroke-width="0.5" stroke="black" fill="grey"/>
  <circle cx="1143.1" cy="1174.17" r="5.05104" stroke-width="0.5" stroke="grey" fill="grey"/>
   </g>
   <g id="cell107">
  <circle cx="1151.55" cy="1146.84" r="9.84224" stroke-width="0.5" stroke="black" fill="grey"/>
  <circle cx="1151.55" cy="1146.84" r="5.97615" stroke-width="0.5" stroke="grey" fill="grey"/>
   </g>
   <g id="cell108">
  <circle cx="1136" cy="1702.54" r="10.231" stroke-width="0.5" stroke="black" fill="grey"/>
  <circle cx="1136" cy="1702.54" r="6.19145" stroke-width="0.5" stroke="grey" fill="grey"/>
   </g>
   <g id="cell110">
  <circle cx="1582.91" cy="1025.42" r="9.88408" stroke-width="0.5" stroke="black" fill="red"/>
  <circle cx="1582.91" cy="1025.42" r="6.00023" stroke-width="0.5" stroke="red" fill="red"/>
   </g>
   <g id="cell111">
  <circle cx="1216.47" cy="1351.52" r="10.2979" stroke-width="0.5" stroke="black" fill="grey"/>
  <circle cx="1216.47" cy="1351.52" r="6.22642" stroke-width="0.5" stroke="grey" fill="grey"/>
   </g>
   <g id="cell112">
  <circle cx="1240.58" cy="1289.26" r="10.385" stroke-width="0.5" stroke="black" fill="grey"/>
  <circle cx="1240.58" cy="1289.26" r="6.27055" stroke-width="0.5" stroke="grey" fill="grey"/>
   </g>
   <g id="cell113">
  <circle cx="1246.19" cy="1446.31" r="10.408" stroke-width="0.5" stroke="black" fill="grey"/>
  <circle cx="1246.19" cy="1446.31" r="6.28185" stroke-width="0.5" stroke="grey" fill="grey"/>
   </g>
   <g id="cell114">
  <circle cx="1707.15" cy="366.344" r="10.306" stroke-width="0.5" stroke="black" fill="red"/>
  <circle cx="1707.15" cy="366.344" r="6.23068" stroke-width="0.5" stroke="red" fill="red"/>
   </g>
   <g id="cell116">
  <circle cx="1689.9" cy="1204.51" r="10.2189" stroke-width="0.5" stroke="black" fill="grey"/>
  <circle cx="1689.9" cy="1204.51" r="6.18533" stroke-width="0.5" stroke="grey" fill="grey"/>
   </g>
   <g id="cell117">
  <circle cx="1707.82" cy="1250.78" r="8.53971" stroke-width="0.5" stroke="black" fill="grey"/>
  <circle cx="1707.82" cy="1250.78" r="5.14803" stroke-width="0.5" stroke="grey" fill="grey"/>
   </g>
   <g id="cell118">
  <circle cx="731.773" cy="951.606" r="9.12041" stroke-width="0.5" stroke="black" fill="red"/>
  <circle cx="731.773" cy="951.606" r="5.54139" stroke-width="0.5" stroke="red" fill="red"/>
   </g>
   <g id="cell119">
  <circle cx="1067.37" cy="1127.02" r="8.64539" stroke-width="0.5" stroke="black" fill="grey"/>
  <circle cx="1067.37" cy="1127.02" r="5.22537" stroke-width="0.5" stroke="grey" fill="grey"/>
   </g>
   <g id="cell120">
  <circle cx="774.819" cy="1063.68" r="9.11942" stroke-width="0.5" stroke="black" fill="red"/>
  <circle cx="774.819" cy="1063.68" r="5.54105" stroke-width="0.5" stroke="red" fill="red"/>
   </g>
   <g id="cell121">
  <circle cx="1159.92" cy="1620.53" r="8.40471" stroke-width="0.5" stroke="black" fill="grey"/>
  <circle cx="1159.92" cy="1620.53" r="5.04922" stroke-width="0.5" stroke="grey" fill="grey"/>
   </g>
   <g id="cell122">
  <circle cx="1183.42" cy="1176.63" r="8.57033" stroke-width="0.5" stroke="black" fill="grey"/>
  <circle cx="1183.42" cy="1176.63" r="5.17202" stroke-width="0.5" stroke="grey" fill="grey"/>
   </g>
   <g id="cell123">
  <circle cx="868.702" cy="640.939" r="8.40377" stroke-width="0.5" stroke="black" fill="grey"/>
  <circle cx="868.702" cy="640.939" r="5.0489" stroke-width="0.5" stroke="grey" fill="grey"/>
   </g>
   <g id="cell124">
  <circle cx="1122.96" cy="1801.27" r="9.85873" stroke-width="0.5" stroke="black" fill="grey"/>
  <circle cx="1122.96" cy="1801.27" r="5.98677" stroke-width="0.5" stroke="grey" fill="grey"/>
   </g>
   <g id="cell125">
  <circle cx="915.222" cy="519.677" r="10.089" stroke-width="0.5" stroke="black" fill="grey"/>
  <circle cx="915.222" cy="519.677" r="6.11592" stroke-width="0.5" stroke="grey" fill="grey"/>
   </g>
   <g id="cell126">
  <circle cx="1052.82" cy="1071.24" r="8.40291" stroke-width="0.5" stroke="black" fill="grey"/>
  <circle cx="1052.82" cy="1071.24" r="5.04861" stroke-width="0.5" stroke="grey" fill="grey"/>
   </g>
   <g id="cell127">
  <circle cx="1106.75" cy="728.154" r="8.40206" stroke-width="0.5" stroke="black" fill="red"/>
  <circle cx="1106.75" cy="728.154" r="5.04831" stroke-width="0.5" stroke="red" fill="red"/>
   </g>
   <g id="cell129">
  <circle cx="1152.91" cy="1279.82" r="3.45145" stroke-width="0.5" stroke="black" fill="grey"/>
  <circle cx="1152.91" cy="1279.82" r="2.66031" stroke-width="0.5" stroke="black" fill="black"/>
   </g>
   <g id="cell130">
  <circle cx="41.0176" cy="1920.01" r="9.5821" stroke-width="0.5" stroke="black" fill="red"/>
  <circle cx="41.0176" cy="1920.01" r="5.82633" stroke-width="0.5" stroke="red" fill="red"/>
   </g>
   <g id="cell131">
  <circle cx="1112.61" cy="1655.3" r="8.39368" stroke-width="0.5" stroke="black" fill="grey"/>
  <circle cx="1112.61" cy="1655.3" r="5.04523" stroke-width="0.5" stroke="grey" fill="grey"/>
   </g>
   <g id="cell132">
  <circle cx="1081.32" cy="1032.09" r="9.48949" stroke-width="0.5" stroke="black" fill="grey"/>
  <circle cx="1081.32" cy="1032.09" r="5.77177" stroke-width="0.5" stroke="grey" fill="grey"/>
   </g>
   <g id="cell133">
  <circle cx="1618.48" cy="281.521" r="8.39142" stroke-width="0.5" stroke="black" fill="red"/>
  <circle cx="1618.48" cy="281.521" r="5.04437" stroke-width="0.5" stroke="red" fill="red"/>
   </g>
   <g id="cell134">
  <circle cx="864.703" cy="559.254" r="8.38996" stroke-width="0.5" stroke="black" fill="grey"/>
  <circle cx="864.703" cy="559.254" r="5.04384" stroke-width="0.5" stroke="grey" fill="grey"/>
   </g>
   <g id="cell135">
  <circle cx="1111.1" cy="1067.38" r="8.38945" stroke-width="0.5" stroke="black" fill="grey"/>
  <circle cx="1111.1" cy="1067.38" r="5.04363" stroke-width="0.5" stroke="grey" fill="grey"/>
   </g>
   <g id="cell136">
  <circle cx="1103.52" cy="1148.5" r="8.38879" stroke-width="0.5" stroke="black" fill="grey"/>
  <circle cx="1103.52" cy="1148.5" r="5.04337" stroke-width="0.5" stroke="grey" fill="grey"/>
   </g>
   <g id="cell137">
  <circle cx="678.981" cy="857.2" r="8.38822" stroke-width="0.5" stroke="black" fill="red"/>
  <circle cx="678.981" cy="857.2" r="5.04313" stroke-width="0.5" stroke="red" fill="red"/>
   </g>
   <g id="cell138">
  <circle cx="1614.29" cy="246.298" r="8.38668" stroke-width="0.5" stroke="black" fill="red"/>
  <circle cx="1614.29" cy="246.298" r="5.04255" stroke-width="0.5" stroke="red" fill="red"/>
   </g>
   <g id="cell139">
  <circle cx="925.23" cy="636.511" r="8.38647" stroke-width="0.5" stroke="black" fill="grey"/>
  <circle cx="925.23" cy="636.511" r="5.0425" stroke-width="0.5" stroke="grey" fill="grey"/>
   </g>
   <g id="cell140">
  <circle cx="945.89" cy="526.243" r="8.38574" stroke-width="0.5" stroke="black" fill="grey"/>
  <circle cx="945.89" cy="526.243" r="5.04221" stroke-width="0.5" stroke="grey" fill="grey"/>
   </g>
   <g id="cell141">
  <circle cx="1099.97" cy="1214.25" r="8.48634" stroke-width="0.5" stroke="black" fill="grey"/>
  <circle cx="1099.97" cy="1214.25" r="5.11624" stroke-width="0.5" stroke="grey" fill="grey"/>
   </g>
   <g id="cell142">
  <circle cx="1180.98" cy="1737.37" r="8.3858" stroke-width="0.5" stroke="black" fill="grey"/>
  <circle cx="1180.98" cy="1737.37" r="5.04222" stroke-width="0.5" stroke="grey" fill="grey"/>
   </g>
   <g id="cell143">
  <circle cx="1708.55" cy="1145.31" r="8.38288" stroke-width="0.5" stroke="black" fill="grey"/>
  <circle cx="1708.55" cy="1145.31" r="5.04102" stroke-width="0.5" stroke="grey" fill="grey"/>
   </g>
   <g id="cell144">
  <circle cx="1594.14" cy="1041.19" r="8.38202" stroke-width="0.5" stroke="black" fill="red"/>
  <circle cx="1594.14" cy="1041.19" r="5.04068" stroke-width="0.5" stroke="red" fill="red"/>
   </g>
   <g id="cell145">
  <circle cx="1281.76" cy="1312.36" r="8.38183" stroke-width="0.5" stroke="black" fill="grey"/>
  <circle cx="1281.76" cy="1312.36" r="5.04064" stroke-width="0.5" stroke="grey" fill="grey"/>
   </g>
   <g id="cell146">
  <circle cx="1115.29" cy="1692.92" r="8.38003" stroke-width="0.5" stroke="black" fill="grey"/>
  <circle cx="1115.29" cy="1692.92" r="5.03991" stroke-width="0.5" stroke="grey" fill="grey"/>
   </g>
   <g id="cell147">
  <circle cx="822.366" cy="1060.43" r="8.37533" stroke-width="0.5" stroke="black" fill="red"/>
  <circle cx="822.366" cy="1060.43" r="5.03797" stroke-width="0.5" stroke="red" fill="red"/>
   </g>
   <g id="cell148">
  <circle cx="1191.62" cy="746.201" r="8.41902" stroke-width="0.5" stroke="black" fill="red"/>
  <circle cx="1191.62" cy="746.201" r="5.06938" stroke-width="0.5" stroke="red" fill="red"/>
   </g>
   <g id="cell149">
  <circle cx="1722.85" cy="1359.14" r="8.37386" stroke-width="0.5" stroke="black" fill="grey"/>
  <circle cx="1722.85" cy="1359.14" r="5.03742" stroke-width="0.5" stroke="grey" fill="grey"/>
   </g>
   <g id="cell150">
  <circle cx="1757.33" cy="1268.97" r="8.37202" stroke-width="0.5" stroke="black" fill="grey"/>
  <circle cx="1757.33" cy="1268.97" r="5.0366" stroke-width="0.5" stroke="grey" fill="grey"/>
   </g>
   <g id="cell151">
  <circle cx="1622.14" cy="1108.69" r="8.38949" stroke-width="0.5" stroke="black" fill="red"/>
  <circle cx="1622.14" cy="1108.69" r="5.04952" stroke-width="0.5" stroke="red" fill="red"/>
   </g>
   <g id="cell152">
  <circle cx="1553.46" cy="1102.88" r="8.38949" stroke-width="0.5" stroke="black" fill="red"/>
  <circle cx="1553.46" cy="1102.88" r="5.04952" stroke-width="0.5" stroke="red" fill="red"/>
   </g>
   <g id="cell153">
  <circle cx="1714.18" cy="119.335" r="8.36708" stroke-width="0.5" stroke="black" fill="red"/>
  <circle cx="1714.18" cy="119.335" r="5.03455" stroke-width="0.5" stroke="red" fill="red"/>
   </g>
   <g id="cell154">
  <circle cx="1671.23" cy="374.378" r="8.3653" stroke-width="0.5" stroke="black" fill="red"/>
  <circle cx="1671.23" cy="374.378" r="5.03388" stroke-width="0.5" stroke="red" fill="red"/>
   </g>
  </g>
 </g>
  <rect x="1750" y="2070" width="200" height="20" stroke-width="4" stroke="rgb(255,255,255)" fill="rgb(0,0,0)"/>
  <text x="1762.5" y="2057.5"
   font-family="Arial" font-size="50" fill="black" >
   200 &#956;m
  </text>
  <text x="50" y="2090"
   font-family="Arial" font-size="37.5" fill="black" >
   0 days, 0 hours, 1 minutes, and 49.5655 seconds
  </text>
  <rect x="0" y="140" width="2000" height="2000" stroke-width="4" stroke="rgb(0,0,0)" fill="none"/>
</svg>
