<?xml version="1.0" encoding="UTF-8" standalone="no"?>
<!-- Created with PhysiCell (http://PhysiCell.MathCancer.org/) -->
<svg 
 xmlns:dc="http://purl.org/dc/elements/1.1/" 
 xmlns:cc="http://creativecommons.org/ns#" 
 xmlns:rdf="http://www.w3.org/1999/02/22-rdf-syntax-ns#" 
 xmlns:svg="http://www.w3.org/2000/svg" 
 xmlns="http://www.w3.org/2000/svg" 
 version="1.1" 
 width="2000" 
 height="2140" 
 id="svg2">
  <rect x="0" y="0" width="2000" height="2140" stroke-width="4" stroke="white" fill="white"/>
  <text x="25" y="60"
   font-family="Arial" font-size="50" fill="black" >
   Current time: 3 days, 9 hours, and 0.00 minutes, z = 0.00 &#956;m
  </text>
  <text x="25" y="115"
   font-family="Arial" font-size="47.5" fill="black" >
   132 agents
  </text>
 <g id="tissue" 
    transform="translate(0,2140) scale(1,-1)">
  <g id="ECM">
  </g>
  <g id="cells">
   <g id="cell0">
  <circle cx="1087.48" cy="1204.85" r="8.3656" stroke-width="0.5" stroke="black" fill="grey"/>
  <circle cx="1087.48" cy="1204.85" r="5.03396" stroke-width="0.5" stroke="grey" fill="grey"/>
   </g>
   <g id="cell1">
  <circle cx="1693.2" cy="1254.47" r="9.92006" stroke-width="0.5" stroke="black" fill="grey"/>
  <circle cx="1693.2" cy="1254.47" r="6.02161" stroke-width="0.5" stroke="grey" fill="grey"/>
   </g>
   <g id="cell2">
  <circle cx="1212.14" cy="1739.19" r="10.3468" stroke-width="0.5" stroke="black" fill="grey"/>
  <circle cx="1212.14" cy="1739.19" r="6.25109" stroke-width="0.5" stroke="grey" fill="grey"/>
   </g>
   <g id="cell3">
  <circle cx="1270.6" cy="1315.26" r="10.531" stroke-width="0.5" stroke="black" fill="grey"/>
  <circle cx="1270.6" cy="1315.26" r="6.33855" stroke-width="0.5" stroke="grey" fill="grey"/>
   </g>
   <g id="cell4">
  <circle cx="797.492" cy="530.345" r="10.253" stroke-width="0.5" stroke="black" fill="grey"/>
  <circle cx="797.492" cy="530.345" r="6.2027" stroke-width="0.5" stroke="grey" fill="grey"/>
   </g>
   <g id="cell5">
  <circle cx="66.6139" cy="1938.73" r="10.4792" stroke-width="0.5" stroke="black" fill="red"/>
  <circle cx="66.6139" cy="1938.73" r="6.31539" stroke-width="0.5" stroke="red" fill="red"/>
   </g>
   <g id="cell6">
  <circle cx="883.765" cy="911.536" r="10.3924" stroke-width="0.5" stroke="black" fill="red"/>
  <circle cx="883.765" cy="911.536" r="6.27393" stroke-width="0.5" stroke="red" fill="red"/>
   </g>
   <g id="cell19">
  <circle cx="1695.47" cy="1361.6" r="10.5132" stroke-width="0.5" stroke="black" fill="grey"/>
  <circle cx="1695.47" cy="1361.6" r="6.33088" stroke-width="0.5" stroke="grey" fill="grey"/>
   </g>
   <g id="cell18">
  <circle cx="1616.03" cy="308.404" r="8.37535" stroke-width="0.5" stroke="black" fill="red"/>
  <circle cx="1616.03" cy="308.404" r="5.03797" stroke-width="0.5" stroke="red" fill="red"/>
   </g>
   <g id="cell9">
  <circle cx="1707.33" cy="129.156" r="10.4981" stroke-width="0.5" stroke="black" fill="red"/>
  <circle cx="1707.33" cy="129.156" r="6.32399" stroke-width="0.5" stroke="red" fill="red"/>
   </g>
   <g id="cell11">
  <circle cx="1554.16" cy="1108.82" r="10.5035" stroke-width="0.5" stroke="black" fill="red"/>
  <circle cx="1554.16" cy="1108.82" r="6.32645" stroke-width="0.5" stroke="red" fill="red"/>
   </g>
   <g id="cell20">
  <circle cx="796.907" cy="1021.91" r="9.97425" stroke-width="0.5" stroke="black" fill="red"/>
  <circle cx="796.907" cy="1021.91" r="6.05253" stroke-width="0.5" stroke="red" fill="red"/>
   </g>
   <g id="cell13">
  <circle cx="866.182" cy="638.445" r="8.39707" stroke-width="0.5" stroke="black" fill="grey"/>
  <circle cx="866.182" cy="638.445" r="5.0465" stroke-width="0.5" stroke="grey" fill="grey"/>
   </g>
   <g id="cell14">
  <circle cx="1129.76" cy="1301.98" r="9.92475" stroke-width="0.5" stroke="black" fill="grey"/>
  <circle cx="1129.76" cy="1301.98" r="6.02319" stroke-width="0.5" stroke="grey" fill="grey"/>
   </g>
   <g id="cell15">
  <circle cx="1142.77" cy="1208.86" r="10.2422" stroke-width="0.5" stroke="black" fill="grey"/>
  <circle cx="1142.77" cy="1208.86" r="6.1972" stroke-width="0.5" stroke="grey" fill="grey"/>
   </g>
   <g id="cell16">
  <circle cx="1112.78" cy="1680.1" r="10.5269" stroke-width="0.5" stroke="black" fill="grey"/>
  <circle cx="1112.78" cy="1680.1" r="6.33683" stroke-width="0.5" stroke="grey" fill="grey"/>
   </g>
   <g id="cell90">
  <circle cx="814.276" cy="857.933" r="10.4437" stroke-width="0.5" stroke="black" fill="red"/>
  <circle cx="814.276" cy="857.933" r="6.29881" stroke-width="0.5" stroke="red" fill="red"/>
   </g>
   <g id="cell86">
  <circle cx="1524.56" cy="1016.54" r="10.4347" stroke-width="0.5" stroke="black" fill="red"/>
  <circle cx="1524.56" cy="1016.54" r="6.2945" stroke-width="0.5" stroke="red" fill="red"/>
   </g>
   <g id="cell22">
  <circle cx="1111.72" cy="1706.23" r="10.2601" stroke-width="0.5" stroke="black" fill="grey"/>
  <circle cx="1111.72" cy="1706.23" r="6.20702" stroke-width="0.5" stroke="grey" fill="grey"/>
   </g>
   <g id="cell23">
  <circle cx="1224.35" cy="1330.48" r="9.53083" stroke-width="0.5" stroke="black" fill="grey"/>
  <circle cx="1224.35" cy="1330.48" r="5.79409" stroke-width="0.5" stroke="grey" fill="grey"/>
   </g>
   <g id="cell24">
  <circle cx="1156.28" cy="1262.8" r="10.3543" stroke-width="0.5" stroke="black" fill="grey"/>
  <circle cx="1156.28" cy="1262.8" r="6.2548" stroke-width="0.5" stroke="grey" fill="grey"/>
   </g>
   <g id="cell25">
  <circle cx="1173.88" cy="733.266" r="10.5164" stroke-width="0.5" stroke="black" fill="red"/>
  <circle cx="1173.88" cy="733.266" r="6.33214" stroke-width="0.5" stroke="red" fill="red"/>
   </g>
   <g id="cell26">
  <circle cx="1705.38" cy="1217.6" r="10.4827" stroke-width="0.5" stroke="black" fill="grey"/>
  <circle cx="1705.38" cy="1217.6" r="6.31697" stroke-width="0.5" stroke="grey" fill="grey"/>
   </g>
   <g id="cell27">
  <circle cx="905.105" cy="557.3" r="8.87365" stroke-width="0.5" stroke="black" fill="grey"/>
  <circle cx="905.105" cy="557.3" r="5.38452" stroke-width="0.5" stroke="grey" fill="grey"/>
   </g>
   <g id="cell28">
  <circle cx="56.7393" cy="1967.56" r="10.4381" stroke-width="0.5" stroke="black" fill="red"/>
  <circle cx="56.7393" cy="1967.56" r="6.29636" stroke-width="0.5" stroke="red" fill="red"/>
   </g>
   <g id="cell29">
  <circle cx="1064.13" cy="1062.91" r="8.37726" stroke-width="0.5" stroke="black" fill="grey"/>
  <circle cx="1064.13" cy="1062.91" r="5.03878" stroke-width="0.5" stroke="grey" fill="grey"/>
   </g>
   <g id="cell30">
  <circle cx="969.44" cy="512.216" r="8.36532" stroke-width="0.5" stroke="black" fill="grey"/>
  <circle cx="969.44" cy="512.216" r="5.03388" stroke-width="0.5" stroke="grey" fill="grey"/>
   </g>
   <g id="cell31">
  <circle cx="1180.4" cy="1362.45" r="9.37262" stroke-width="0.5" stroke="black" fill="grey"/>
  <circle cx="1180.4" cy="1362.45" r="5.6982" stroke-width="0.5" stroke="grey" fill="grey"/>
   </g>
   <g id="cell109">
  <circle cx="776.174" cy="942.048" r="10.3214" stroke-width="0.5" stroke="black" fill="red"/>
  <circle cx="776.174" cy="942.048" r="6.23875" stroke-width="0.5" stroke="red" fill="red"/>
   </g>
   <g id="cell33">
  <circle cx="1684.13" cy="1174.95" r="10.2701" stroke-width="0.5" stroke="black" fill="grey"/>
  <circle cx="1684.13" cy="1174.95" r="6.21217" stroke-width="0.5" stroke="grey" fill="grey"/>
   </g>
   <g id="cell34">
  <circle cx="1106.58" cy="1650.08" r="8.37933" stroke-width="0.5" stroke="black" fill="grey"/>
  <circle cx="1106.58" cy="1650.08" r="5.03959" stroke-width="0.5" stroke="grey" fill="grey"/>
   </g>
   <g id="cell35">
  <circle cx="729.238" cy="925.813" r="8.64257" stroke-width="0.5" stroke="black" fill="red"/>
  <circle cx="729.238" cy="925.813" r="5.22439" stroke-width="0.5" stroke="red" fill="red"/>
   </g>
   <g id="cell36">
  <circle cx="1746.72" cy="251.92" r="10.016" stroke-width="0.5" stroke="black" fill="red"/>
  <circle cx="1746.72" cy="251.92" r="6.07431" stroke-width="0.5" stroke="red" fill="red"/>
   </g>
   <g id="cell37">
  <circle cx="808.489" cy="909.7" r="10.3221" stroke-width="0.5" stroke="black" fill="red"/>
  <circle cx="808.489" cy="909.7" r="6.23896" stroke-width="0.5" stroke="red" fill="red"/>
   </g>
   <g id="cell38">
  <circle cx="1587.39" cy="1052.04" r="10.5314" stroke-width="0.5" stroke="black" fill="red"/>
  <circle cx="1587.39" cy="1052.04" r="6.33865" stroke-width="0.5" stroke="red" fill="red"/>
   </g>
   <g id="cell39">
  <circle cx="1119.31" cy="1181.54" r="10.2506" stroke-width="0.5" stroke="black" fill="grey"/>
  <circle cx="1119.31" cy="1181.54" r="6.202" stroke-width="0.5" stroke="grey" fill="grey"/>
   </g>
   <g id="cell40">
  <circle cx="1774.02" cy="1274.3" r="10.5091" stroke-width="0.5" stroke="black" fill="grey"/>
  <circle cx="1774.02" cy="1274.3" r="6.3289" stroke-width="0.5" stroke="grey" fill="grey"/>
   </g>
   <g id="cell41">
  <circle cx="1207.69" cy="1464.87" r="8.96299" stroke-width="0.5" stroke="black" fill="grey"/>
  <circle cx="1207.69" cy="1464.87" r="5.44057" stroke-width="0.5" stroke="grey" fill="grey"/>
   </g>
   <g id="cell42">
  <circle cx="1109.29" cy="1129.55" r="8.37071" stroke-width="0.5" stroke="black" fill="grey"/>
  <circle cx="1109.29" cy="1129.55" r="5.03608" stroke-width="0.5" stroke="grey" fill="grey"/>
   </g>
   <g id="cell43">
  <circle cx="1067.64" cy="1107.06" r="8.40185" stroke-width="0.5" stroke="black" fill="grey"/>
  <circle cx="1067.64" cy="1107.06" r="5.04822" stroke-width="0.5" stroke="grey" fill="grey"/>
   </g>
   <g id="cell44">
  <circle cx="1694" cy="1190.98" r="10.2812" stroke-width="0.5" stroke="black" fill="grey"/>
  <circle cx="1694" cy="1190.98" r="6.21755" stroke-width="0.5" stroke="grey" fill="grey"/>
   </g>
   <g id="cell45">
  <circle cx="1522.89" cy="1062.09" r="10.3466" stroke-width="0.5" stroke="black" fill="red"/>
  <circle cx="1522.89" cy="1062.09" r="6.25105" stroke-width="0.5" stroke="red" fill="red"/>
   </g>
   <g id="cell101">
  <circle cx="1662.97" cy="265.921" r="9.43994" stroke-width="0.5" stroke="black" fill="red"/>
  <circle cx="1662.97" cy="265.921" r="5.73875" stroke-width="0.5" stroke="red" fill="red"/>
   </g>
   <g id="cell47">
  <circle cx="1650.2" cy="152.335" r="10.3455" stroke-width="0.5" stroke="black" fill="red"/>
  <circle cx="1650.2" cy="152.335" r="6.25072" stroke-width="0.5" stroke="red" fill="red"/>
   </g>
   <g id="cell48">
  <circle cx="1185.8" cy="1786.01" r="10.4142" stroke-width="0.5" stroke="black" fill="grey"/>
  <circle cx="1185.8" cy="1786.01" r="6.28474" stroke-width="0.5" stroke="grey" fill="grey"/>
   </g>
   <g id="cell49">
  <circle cx="94.0083" cy="1956.59" r="10.3787" stroke-width="0.5" stroke="black" fill="red"/>
  <circle cx="94.0083" cy="1956.59" r="6.26745" stroke-width="0.5" stroke="red" fill="red"/>
   </g>
   <g id="cell50">
  <circle cx="1124.71" cy="1164.15" r="10.3846" stroke-width="0.5" stroke="black" fill="grey"/>
  <circle cx="1124.71" cy="1164.15" r="6.27042" stroke-width="0.5" stroke="grey" fill="grey"/>
   </g>
   <g id="cell51">
  <circle cx="1106.72" cy="1289.5" r="8.38649" stroke-width="0.5" stroke="black" fill="grey"/>
  <circle cx="1106.72" cy="1289.5" r="5.0425" stroke-width="0.5" stroke="grey" fill="grey"/>
   </g>
   <g id="cell52">
  <circle cx="888.353" cy="615.567" r="10.4819" stroke-width="0.5" stroke="black" fill="grey"/>
  <circle cx="888.353" cy="615.567" r="6.31676" stroke-width="0.5" stroke="grey" fill="grey"/>
   </g>
   <g id="cell87">
  <circle cx="906.253" cy="638.702" r="8.36662" stroke-width="0.5" stroke="black" fill="grey"/>
  <circle cx="906.253" cy="638.702" r="5.03443" stroke-width="0.5" stroke="grey" fill="grey"/>
   </g>
   <g id="cell54">
  <circle cx="890.612" cy="545.146" r="10.4342" stroke-width="0.5" stroke="black" fill="grey"/>
  <circle cx="890.612" cy="545.146" r="6.29435" stroke-width="0.5" stroke="grey" fill="grey"/>
   </g>
   <g id="cell55">
  <circle cx="882.867" cy="573.663" r="8.37277" stroke-width="0.5" stroke="black" fill="grey"/>
  <circle cx="882.867" cy="573.663" r="5.03697" stroke-width="0.5" stroke="grey" fill="grey"/>
   </g>
   <g id="cell56">
  <circle cx="175.534" cy="1906.95" r="9.77409" stroke-width="0.5" stroke="black" fill="red"/>
  <circle cx="175.534" cy="1906.95" r="5.93683" stroke-width="0.5" stroke="red" fill="red"/>
   </g>
   <g id="cell57">
  <circle cx="1674.86" cy="283.969" r="10.2977" stroke-width="0.5" stroke="black" fill="red"/>
  <circle cx="1674.86" cy="283.969" r="6.22636" stroke-width="0.5" stroke="red" fill="red"/>
   </g>
   <g id="cell58">
  <circle cx="702.564" cy="850.782" r="8.3697" stroke-width="0.5" stroke="black" fill="red"/>
  <circle cx="702.564" cy="850.782" r="5.03563" stroke-width="0.5" stroke="red" fill="red"/>
   </g>
   <g id="cell59">
  <circle cx="1730.4" cy="328.304" r="10.1331" stroke-width="0.5" stroke="black" fill="red"/>
  <circle cx="1730.4" cy="328.304" r="6.13952" stroke-width="0.5" stroke="red" fill="red"/>
   </g>
   <g id="cell60">
  <circle cx="1747.17" cy="1196.66" r="10.1608" stroke-width="0.5" stroke="black" fill="grey"/>
  <circle cx="1747.17" cy="1196.66" r="6.15416" stroke-width="0.5" stroke="grey" fill="grey"/>
   </g>
   <g id="cell61">
  <circle cx="1088.59" cy="1796.44" r="9.52305" stroke-width="0.5" stroke="black" fill="grey"/>
  <circle cx="1088.59" cy="1796.44" r="5.79122" stroke-width="0.5" stroke="grey" fill="grey"/>
   </g>
   <g id="cell62">
  <circle cx="1160.58" cy="1647" r="8.39871" stroke-width="0.5" stroke="black" fill="grey"/>
  <circle cx="1160.58" cy="1647" r="5.0471" stroke-width="0.5" stroke="grey" fill="grey"/>
   </g>
   <g id="cell63">
  <circle cx="1650.49" cy="348.346" r="10.4941" stroke-width="0.5" stroke="black" fill="red"/>
  <circle cx="1650.49" cy="348.346" r="6.32238" stroke-width="0.5" stroke="red" fill="red"/>
   </g>
   <g id="cell64">
  <circle cx="1711.75" cy="1149.03" r="10.5333" stroke-width="0.5" stroke="black" fill="grey"/>
  <circle cx="1711.75" cy="1149.03" r="6.33947" stroke-width="0.5" stroke="grey" fill="grey"/>
   </g>
   <g id="cell115">
  <circle cx="844.75" cy="553.875" r="9.86044" stroke-width="0.5" stroke="black" fill="grey"/>
  <circle cx="844.75" cy="553.875" r="5.98738" stroke-width="0.5" stroke="grey" fill="grey"/>
   </g>
   <g id="cell66">
  <circle cx="795.652" cy="956.897" r="6.99785" stroke-width="0.5" stroke="black" fill="red"/>
  <circle cx="795.652" cy="956.897" r="4.27492" stroke-width="0.5" stroke="black" fill="black"/>
   </g>
   <g id="cell67">
  <circle cx="1573.66" cy="1054.39" r="8.40739" stroke-width="0.5" stroke="black" fill="red"/>
  <circle cx="1573.66" cy="1054.39" r="5.05012" stroke-width="0.5" stroke="red" fill="red"/>
   </g>
   <g id="cell68">
  <circle cx="837.072" cy="1057.19" r="10.5165" stroke-width="0.5" stroke="black" fill="red"/>
  <circle cx="837.072" cy="1057.19" r="6.33217" stroke-width="0.5" stroke="red" fill="red"/>
   </g>
   <g id="cell69">
  <circle cx="825.675" cy="562.043" r="8.40587" stroke-width="0.5" stroke="black" fill="grey"/>
  <circle cx="825.675" cy="562.043" r="5.04962" stroke-width="0.5" stroke="grey" fill="grey"/>
   </g>
   <g id="cell70">
  <circle cx="1656.56" cy="1246.5" r="9.55867" stroke-width="0.5" stroke="black" fill="grey"/>
  <circle cx="1656.56" cy="1246.5" r="5.81116" stroke-width="0.5" stroke="grey" fill="grey"/>
   </g>
   <g id="cell71">
  <circle cx="1030.55" cy="1063.6" r="8.9931" stroke-width="0.5" stroke="black" fill="grey"/>
  <circle cx="1030.55" cy="1063.6" r="5.46278" stroke-width="0.5" stroke="grey" fill="grey"/>
   </g>
   <g id="cell72">
  <circle cx="1147.44" cy="736.409" r="8.39406" stroke-width="0.5" stroke="black" fill="red"/>
  <circle cx="1147.44" cy="736.409" r="5.04539" stroke-width="0.5" stroke="red" fill="red"/>
   </g>
   <g id="cell73">
  <circle cx="1193.92" cy="1205.78" r="9.52393" stroke-width="0.5" stroke="black" fill="grey"/>
  <circle cx="1193.92" cy="1205.78" r="5.79157" stroke-width="0.5" stroke="grey" fill="grey"/>
   </g>
   <g id="cell74">
  <circle cx="1101.27" cy="1071.06" r="8.37188" stroke-width="0.5" stroke="black" fill="grey"/>
  <circle cx="1101.27" cy="1071.06" r="5.03657" stroke-width="0.5" stroke="grey" fill="grey"/>
   </g>
   <g id="cell75">
  <circle cx="1707.89" cy="1184.44" r="8.56007" stroke-width="0.5" stroke="black" fill="grey"/>
  <circle cx="1707.89" cy="1184.44" r="5.16825" stroke-width="0.5" stroke="grey" fill="grey"/>
   </g>
   <g id="cell76">
  <circle cx="1645.7" cy="239.912" r="8.36698" stroke-width="0.5" stroke="black" fill="red"/>
  <circle cx="1645.7" cy="239.912" r="5.03453" stroke-width="0.5" stroke="red" fill="red"/>
   </g>
   <g id="cell77">
  <circle cx="45.4787" cy="1931.12" r="8.38577" stroke-width="0.5" stroke="black" fill="red"/>
  <circle cx="45.4787" cy="1931.12" r="5.04221" stroke-width="0.5" stroke="red" fill="red"/>
   </g>
   <g id="cell128">
  <circle cx="1713.21" cy="1202.22" r="8.59591" stroke-width="0.5" stroke="black" fill="grey"/>
  <circle cx="1713.21" cy="1202.22" r="5.19427" stroke-width="0.5" stroke="grey" fill="grey"/>
   </g>
   <g id="cell79">
  <circle cx="1188.77" cy="1294.97" r="9.77541" stroke-width="0.5" stroke="black" fill="grey"/>
  <circle cx="1188.77" cy="1294.97" r="5.93722" stroke-width="0.5" stroke="grey" fill="grey"/>
   </g>
   <g id="cell80">
  <circle cx="806.766" cy="506.533" r="10.1874" stroke-width="0.5" stroke="black" fill="grey"/>
  <circle cx="806.766" cy="506.533" r="6.16796" stroke-width="0.5" stroke="grey" fill="grey"/>
   </g>
   <g id="cell81">
  <circle cx="1213.67" cy="1260" r="10.4203" stroke-width="0.5" stroke="black" fill="grey"/>
  <circle cx="1213.67" cy="1260" r="6.28749" stroke-width="0.5" stroke="grey" fill="grey"/>
   </g>
   <g id="cell82">
  <circle cx="1613.89" cy="1121.91" r="10.5035" stroke-width="0.5" stroke="black" fill="red"/>
  <circle cx="1613.89" cy="1121.91" r="6.32645" stroke-width="0.5" stroke="red" fill="red"/>
   </g>
   <g id="cell83">
  <circle cx="920.934" cy="579.567" r="10.2993" stroke-width="0.5" stroke="black" fill="grey"/>
  <circle cx="920.934" cy="579.567" r="6.22684" stroke-width="0.5" stroke="grey" fill="grey"/>
   </g>
   <g id="cell84">
  <circle cx="1135.72" cy="1629.91" r="9.47361" stroke-width="0.5" stroke="black" fill="grey"/>
  <circle cx="1135.72" cy="1629.91" r="5.75856" stroke-width="0.5" stroke="grey" fill="grey"/>
   </g>
   <g id="cell85">
  <circle cx="1178.43" cy="1712.24" r="8.36544" stroke-width="0.5" stroke="black" fill="grey"/>
  <circle cx="1178.43" cy="1712.24" r="5.03391" stroke-width="0.5" stroke="grey" fill="grey"/>
   </g>
   <g id="cell88">
  <circle cx="1669.62" cy="1200.64" r="8.4114" stroke-width="0.5" stroke="black" fill="grey"/>
  <circle cx="1669.62" cy="1200.64" r="5.05134" stroke-width="0.5" stroke="grey" fill="grey"/>
   </g>
   <g id="cell89">
  <circle cx="1775.6" cy="288.051" r="9.19897" stroke-width="0.5" stroke="black" fill="red"/>
  <circle cx="1775.6" cy="288.051" r="5.58988" stroke-width="0.5" stroke="red" fill="red"/>
   </g>
   <g id="cell91">
  <circle cx="1162.59" cy="1238.29" r="9.92519" stroke-width="0.5" stroke="black" fill="grey"/>
  <circle cx="1162.59" cy="1238.29" r="6.02332" stroke-width="0.5" stroke="grey" fill="grey"/>
   </g>
   <g id="cell92">
  <circle cx="1685.21" cy="1375.65" r="9.79806" stroke-width="0.5" stroke="black" fill="grey"/>
  <circle cx="1685.21" cy="1375.65" r="5.95054" stroke-width="0.5" stroke="grey" fill="grey"/>
   </g>
   <g id="cell93">
  <circle cx="848.647" cy="596.37" r="9.59268" stroke-width="0.5" stroke="black" fill="grey"/>
  <circle cx="848.647" cy="596.37" r="5.83008" stroke-width="0.5" stroke="grey" fill="grey"/>
   </g>
   <g id="cell94">
  <circle cx="854.534" cy="531.303" r="10.2419" stroke-width="0.5" stroke="black" fill="grey"/>
  <circle cx="854.534" cy="531.303" r="6.19711" stroke-width="0.5" stroke="grey" fill="grey"/>
   </g>
   <g id="cell95">
  <circle cx="1158.85" cy="1780.33" r="10.4294" stroke-width="0.5" stroke="black" fill="grey"/>
  <circle cx="1158.85" cy="1780.33" r="6.29205" stroke-width="0.5" stroke="grey" fill="grey"/>
   </g>
   <g id="cell96">
  <circle cx="1652.81" cy="285.33" r="10.4712" stroke-width="0.5" stroke="black" fill="red"/>
  <circle cx="1652.81" cy="285.33" r="6.31186" stroke-width="0.5" stroke="red" fill="red"/>
   </g>
   <g id="cell97">
  <circle cx="1176.16" cy="1341.01" r="10.2519" stroke-width="0.5" stroke="black" fill="grey"/>
  <circle cx="1176.16" cy="1341.01" r="6.2024" stroke-width="0.5" stroke="grey" fill="grey"/>
   </g>
   <g id="cell98">
  <circle cx="154.101" cy="1922.53" r="10.2094" stroke-width="0.5" stroke="black" fill="red"/>
  <circle cx="154.101" cy="1922.53" r="6.17995" stroke-width="0.5" stroke="red" fill="red"/>
   </g>
   <g id="cell99">
  <circle cx="1683.05" cy="143.369" r="9.04498" stroke-width="0.5" stroke="black" fill="red"/>
  <circle cx="1683.05" cy="143.369" r="5.4927" stroke-width="0.5" stroke="red" fill="red"/>
   </g>
   <g id="cell100">
  <circle cx="39.1726" cy="1949.57" r="10.4136" stroke-width="0.5" stroke="black" fill="red"/>
  <circle cx="39.1726" cy="1949.57" r="6.28454" stroke-width="0.5" stroke="red" fill="red"/>
   </g>
   <g id="cell102">
  <circle cx="1736.31" cy="1145.59" r="8.40903" stroke-width="0.5" stroke="black" fill="grey"/>
  <circle cx="1736.31" cy="1145.59" r="5.05063" stroke-width="0.5" stroke="grey" fill="grey"/>
   </g>
   <g id="cell103">
  <circle cx="85.1927" cy="1988.24" r="10.4024" stroke-width="0.5" stroke="black" fill="red"/>
  <circle cx="85.1927" cy="1988.24" r="6.27912" stroke-width="0.5" stroke="red" fill="red"/>
   </g>
   <g id="cell104">
  <circle cx="780.83" cy="909.472" r="9.619" stroke-width="0.5" stroke="black" fill="red"/>
  <circle cx="780.83" cy="909.472" r="5.84619" stroke-width="0.5" stroke="red" fill="red"/>
   </g>
   <g id="cell105">
  <circle cx="1649.37" cy="1153.61" r="10.3374" stroke-width="0.5" stroke="black" fill="grey"/>
  <circle cx="1649.37" cy="1153.61" r="6.24676" stroke-width="0.5" stroke="grey" fill="grey"/>
   </g>
   <g id="cell106">
  <circle cx="1158.97" cy="1189.35" r="8.40862" stroke-width="0.5" stroke="black" fill="grey"/>
  <circle cx="1158.97" cy="1189.35" r="5.0505" stroke-width="0.5" stroke="grey" fill="grey"/>
   </g>
   <g id="cell107">
  <circle cx="1147.06" cy="1158.66" r="9.26952" stroke-width="0.5" stroke="black" fill="grey"/>
  <circle cx="1147.06" cy="1158.66" r="5.6345" stroke-width="0.5" stroke="grey" fill="grey"/>
   </g>
   <g id="cell108">
  <circle cx="1129.82" cy="1690.48" r="9.9421" stroke-width="0.5" stroke="black" fill="grey"/>
  <circle cx="1129.82" cy="1690.48" r="6.03345" stroke-width="0.5" stroke="grey" fill="grey"/>
   </g>
   <g id="cell110">
  <circle cx="1575.25" cy="1028.17" r="9.33861" stroke-width="0.5" stroke="black" fill="red"/>
  <circle cx="1575.25" cy="1028.17" r="5.67738" stroke-width="0.5" stroke="red" fill="red"/>
   </g>
   <g id="cell111">
  <circle cx="1207.28" cy="1360.93" r="10.0617" stroke-width="0.5" stroke="black" fill="grey"/>
  <circle cx="1207.28" cy="1360.93" r="6.10033" stroke-width="0.5" stroke="grey" fill="grey"/>
   </g>
   <g id="cell112">
  <circle cx="1231.95" cy="1305.48" r="10.218" stroke-width="0.5" stroke="black" fill="grey"/>
  <circle cx="1231.95" cy="1305.48" r="6.18503" stroke-width="0.5" stroke="grey" fill="grey"/>
   </g>
   <g id="cell113">
  <circle cx="1231.47" cy="1435.64" r="10.2592" stroke-width="0.5" stroke="black" fill="grey"/>
  <circle cx="1231.47" cy="1435.64" r="6.20672" stroke-width="0.5" stroke="grey" fill="grey"/>
   </g>
   <g id="cell114">
  <circle cx="1710.61" cy="379.36" r="10.0763" stroke-width="0.5" stroke="black" fill="red"/>
  <circle cx="1710.61" cy="379.36" r="6.1085" stroke-width="0.5" stroke="red" fill="red"/>
   </g>
   <g id="cell116">
  <circle cx="1672.32" cy="1214.36" r="9.92034" stroke-width="0.5" stroke="black" fill="grey"/>
  <circle cx="1672.32" cy="1214.36" r="6.02171" stroke-width="0.5" stroke="grey" fill="grey"/>
   </g>
   <g id="cell117">
  <circle cx="1705.86" cy="1241.35" r="8.40401" stroke-width="0.5" stroke="black" fill="grey"/>
  <circle cx="1705.86" cy="1241.35" r="5.04898" stroke-width="0.5" stroke="grey" fill="grey"/>
   </g>
   <g id="cell118">
  <circle cx="722.982" cy="939.062" r="8.40351" stroke-width="0.5" stroke="black" fill="red"/>
  <circle cx="722.982" cy="939.062" r="5.04881" stroke-width="0.5" stroke="red" fill="red"/>
   </g>
   <g id="cell119">
  <circle cx="1061.43" cy="1125.85" r="8.40185" stroke-width="0.5" stroke="black" fill="grey"/>
  <circle cx="1061.43" cy="1125.85" r="5.04822" stroke-width="0.5" stroke="grey" fill="grey"/>
   </g>
   <g id="cell120">
  <circle cx="769.42" cy="1049.18" r="8.40147" stroke-width="0.5" stroke="black" fill="red"/>
  <circle cx="769.42" cy="1049.18" r="5.0481" stroke-width="0.5" stroke="red" fill="red"/>
   </g>
   <g id="cell121">
  <circle cx="1155.73" cy="1620.88" r="8.39871" stroke-width="0.5" stroke="black" fill="grey"/>
  <circle cx="1155.73" cy="1620.88" r="5.0471" stroke-width="0.5" stroke="grey" fill="grey"/>
   </g>
   <g id="cell122">
  <circle cx="1185.86" cy="1181.89" r="8.39775" stroke-width="0.5" stroke="black" fill="grey"/>
  <circle cx="1185.86" cy="1181.89" r="5.04677" stroke-width="0.5" stroke="grey" fill="grey"/>
   </g>
   <g id="cell123">
  <circle cx="869.143" cy="652.006" r="8.39707" stroke-width="0.5" stroke="black" fill="grey"/>
  <circle cx="869.143" cy="652.006" r="5.0465" stroke-width="0.5" stroke="grey" fill="grey"/>
   </g>
   <g id="cell124">
  <circle cx="1127.58" cy="1794.44" r="9.29512" stroke-width="0.5" stroke="black" fill="grey"/>
  <circle cx="1127.58" cy="1794.44" r="5.65278" stroke-width="0.5" stroke="grey" fill="grey"/>
   </g>
   <g id="cell125">
  <circle cx="916.348" cy="530.889" r="9.68987" stroke-width="0.5" stroke="black" fill="grey"/>
  <circle cx="916.348" cy="530.889" r="5.89004" stroke-width="0.5" stroke="grey" fill="grey"/>
   </g>
   <g id="cell126">
  <circle cx="1048.81" cy="1089.98" r="8.39556" stroke-width="0.5" stroke="black" fill="grey"/>
  <circle cx="1048.81" cy="1089.98" r="5.04595" stroke-width="0.5" stroke="grey" fill="grey"/>
   </g>
   <g id="cell127">
  <circle cx="1101.91" cy="737.942" r="8.39406" stroke-width="0.5" stroke="black" fill="red"/>
  <circle cx="1101.91" cy="737.942" r="5.04539" stroke-width="0.5" stroke="red" fill="red"/>
   </g>
   <g id="cell129">
  <circle cx="1143.56" cy="1280.61" r="8.38649" stroke-width="0.5" stroke="black" fill="grey"/>
  <circle cx="1143.56" cy="1280.61" r="5.0425" stroke-width="0.5" stroke="grey" fill="grey"/>
   </g>
   <g id="cell130">
  <circle cx="30.5017" cy="1924.17" r="8.86399" stroke-width="0.5" stroke="black" fill="red"/>
  <circle cx="30.5017" cy="1924.17" r="5.38071" stroke-width="0.5" stroke="red" fill="red"/>
   </g>
   <g id="cell131">
  <circle cx="1123.52" cy="1666.78" r="8.37933" stroke-width="0.5" stroke="black" fill="grey"/>
  <circle cx="1123.52" cy="1666.78" r="5.03959" stroke-width="0.5" stroke="grey" fill="grey"/>
   </g>
   <g id="cell132">
  <circle cx="1068.02" cy="1042.44" r="8.73518" stroke-width="0.5" stroke="black" fill="grey"/>
  <circle cx="1068.02" cy="1042.44" r="5.29628" stroke-width="0.5" stroke="grey" fill="grey"/>
   </g>
   <g id="cell133">
  <circle cx="1622.33" cy="285.089" r="8.37535" stroke-width="0.5" stroke="black" fill="red"/>
  <circle cx="1622.33" cy="285.089" r="5.03797" stroke-width="0.5" stroke="red" fill="red"/>
   </g>
   <g id="cell134">
  <circle cx="870.548" cy="557.726" r="8.37277" stroke-width="0.5" stroke="black" fill="grey"/>
  <circle cx="870.548" cy="557.726" r="5.03697" stroke-width="0.5" stroke="grey" fill="grey"/>
   </g>
   <g id="cell135">
  <circle cx="1119.31" cy="1071.39" r="8.37188" stroke-width="0.5" stroke="black" fill="grey"/>
  <circle cx="1119.31" cy="1071.39" r="5.03657" stroke-width="0.5" stroke="grey" fill="grey"/>
   </g>
   <g id="cell136">
  <circle cx="1111.64" cy="1154.95" r="8.37071" stroke-width="0.5" stroke="black" fill="grey"/>
  <circle cx="1111.64" cy="1154.95" r="5.03608" stroke-width="0.5" stroke="grey" fill="grey"/>
   </g>
   <g id="cell137">
  <circle cx="680.34" cy="855.535" r="8.3697" stroke-width="0.5" stroke="black" fill="red"/>
  <circle cx="680.34" cy="855.535" r="5.03563" stroke-width="0.5" stroke="red" fill="red"/>
   </g>
   <g id="cell138">
  <circle cx="1620.71" cy="233.141" r="8.36698" stroke-width="0.5" stroke="black" fill="red"/>
  <circle cx="1620.71" cy="233.141" r="5.03453" stroke-width="0.5" stroke="red" fill="red"/>
   </g>
   <g id="cell139">
  <circle cx="917.404" cy="622.763" r="8.36662" stroke-width="0.5" stroke="black" fill="grey"/>
  <circle cx="917.404" cy="622.763" r="5.03443" stroke-width="0.5" stroke="grey" fill="grey"/>
   </g>
   <g id="cell140">
  <circle cx="955.212" cy="519.99" r="8.36532" stroke-width="0.5" stroke="black" fill="grey"/>
  <circle cx="955.212" cy="519.99" r="5.03388" stroke-width="0.5" stroke="grey" fill="grey"/>
   </g>
   <g id="cell141">
  <circle cx="1107.46" cy="1214.86" r="8.3656" stroke-width="0.5" stroke="black" fill="grey"/>
  <circle cx="1107.46" cy="1214.86" r="5.03396" stroke-width="0.5" stroke="grey" fill="grey"/>
   </g>
   <g id="cell142">
  <circle cx="1194.38" cy="1722.09" r="8.36544" stroke-width="0.5" stroke="black" fill="grey"/>
  <circle cx="1194.38" cy="1722.09" r="5.03391" stroke-width="0.5" stroke="grey" fill="grey"/>
   </g>
  </g>
 </g>
  <rect x="1750" y="2070" width="200" height="20" stroke-width="4" stroke="rgb(255,255,255)" fill="rgb(0,0,0)"/>
  <text x="1762.5" y="2057.5"
   font-family="Arial" font-size="50" fill="black" >
   200 &#956;m
  </text>
  <text x="50" y="2090"
   font-family="Arial" font-size="37.5" fill="black" >
   0 days, 0 hours, 1 minutes, and 46.7722 seconds
  </text>
  <rect x="0" y="140" width="2000" height="2000" stroke-width="4" stroke="rgb(0,0,0)" fill="none"/>
</svg>
