<?xml version="1.0" encoding="UTF-8" standalone="no"?>
<!-- Created with PhysiCell (http://PhysiCell.MathCancer.org/) -->
<svg 
 xmlns:dc="http://purl.org/dc/elements/1.1/" 
 xmlns:cc="http://creativecommons.org/ns#" 
 xmlns:rdf="http://www.w3.org/1999/02/22-rdf-syntax-ns#" 
 xmlns:svg="http://www.w3.org/2000/svg" 
 xmlns="http://www.w3.org/2000/svg" 
 version="1.1" 
 width="2000" 
 height="2140" 
 id="svg2">
  <rect x="0" y="0" width="2000" height="2140" stroke-width="4" stroke="white" fill="white"/>
  <text x="25" y="60"
   font-family="Arial" font-size="50" fill="black" >
   Current time: 0 days, 18 hours, and 20.00 minutes, z = 0.00 &#956;m
  </text>
  <text x="25" y="115"
   font-family="Arial" font-size="47.5" fill="black" >
   165 agents
  </text>
 <g id="tissue" 
    transform="translate(0,2140) scale(1,-1)">
  <g id="ECM">
  </g>
  <g id="cells">
   <g id="cell0">
  <circle cx="1082.6" cy="1187.41" r="8.36972" stroke-width="0.5" stroke="black" fill="grey"/>
  <circle cx="1082.6" cy="1187.41" r="5.03563" stroke-width="0.5" stroke="grey" fill="grey"/>
   </g>
   <g id="cell1">
  <circle cx="1672.49" cy="1193.7" r="8.39316" stroke-width="0.5" stroke="black" fill="grey"/>
  <circle cx="1672.49" cy="1193.7" r="5.04503" stroke-width="0.5" stroke="grey" fill="grey"/>
   </g>
   <g id="cell2">
  <circle cx="1102.01" cy="1738.79" r="9.0763" stroke-width="0.5" stroke="black" fill="grey"/>
  <circle cx="1102.01" cy="1738.79" r="5.5149" stroke-width="0.5" stroke="grey" fill="grey"/>
   </g>
   <g id="cell3">
  <circle cx="1245.59" cy="1310.77" r="8.3784" stroke-width="0.5" stroke="black" fill="grey"/>
  <circle cx="1245.59" cy="1310.77" r="5.03921" stroke-width="0.5" stroke="grey" fill="grey"/>
   </g>
   <g id="cell4">
  <circle cx="907.758" cy="546.291" r="10.3545" stroke-width="0.5" stroke="black" fill="grey"/>
  <circle cx="907.758" cy="546.291" r="6.25485" stroke-width="0.5" stroke="grey" fill="grey"/>
   </g>
   <g id="cell5">
  <circle cx="83.3875" cy="1908.76" r="10.5295" stroke-width="0.5" stroke="black" fill="grey"/>
  <circle cx="83.3875" cy="1908.76" r="6.33783" stroke-width="0.5" stroke="grey" fill="grey"/>
   </g>
   <g id="cell6">
  <circle cx="736.641" cy="893.842" r="10.4984" stroke-width="0.5" stroke="black" fill="grey"/>
  <circle cx="736.641" cy="893.842" r="6.32406" stroke-width="0.5" stroke="grey" fill="grey"/>
   </g>
   <g id="cell7">
  <circle cx="1557.66" cy="1060.15" r="8.38823" stroke-width="0.5" stroke="black" fill="grey"/>
  <circle cx="1557.66" cy="1060.15" r="5.04313" stroke-width="0.5" stroke="grey" fill="grey"/>
   </g>
   <g id="cell8">
  <circle cx="1124.1" cy="813.577" r="8.40056" stroke-width="0.5" stroke="black" fill="grey"/>
  <circle cx="1124.1" cy="813.577" r="5.04776" stroke-width="0.5" stroke="grey" fill="grey"/>
   </g>
   <g id="cell9">
  <circle cx="1619.57" cy="169.714" r="8.36722" stroke-width="0.5" stroke="black" fill="grey"/>
  <circle cx="1619.57" cy="169.714" r="5.03458" stroke-width="0.5" stroke="grey" fill="grey"/>
   </g>
   <g id="cell10">
  <circle cx="178.722" cy="1277.29" r="10.4048" stroke-width="0.5" stroke="black" fill="grey"/>
  <circle cx="178.722" cy="1277.29" r="6.27981" stroke-width="0.5" stroke="grey" fill="grey"/>
   </g>
   <g id="cell11">
  <circle cx="743.207" cy="1659.01" r="8.39708" stroke-width="0.5" stroke="black" fill="grey"/>
  <circle cx="743.207" cy="1659.01" r="5.0465" stroke-width="0.5" stroke="grey" fill="grey"/>
   </g>
   <g id="cell12">
  <circle cx="1620.07" cy="266.213" r="8.36592" stroke-width="0.5" stroke="black" fill="grey"/>
  <circle cx="1620.07" cy="266.213" r="5.03403" stroke-width="0.5" stroke="grey" fill="grey"/>
   </g>
   <g id="cell13">
  <circle cx="1756.49" cy="1889.86" r="8.39794" stroke-width="0.5" stroke="black" fill="grey"/>
  <circle cx="1756.49" cy="1889.86" r="5.04681" stroke-width="0.5" stroke="grey" fill="grey"/>
   </g>
   <g id="cell14">
  <circle cx="1588.34" cy="1646.77" r="10.0497" stroke-width="0.5" stroke="black" fill="grey"/>
  <circle cx="1588.34" cy="1646.77" r="6.09278" stroke-width="0.5" stroke="grey" fill="grey"/>
   </g>
   <g id="cell15">
  <circle cx="1035.04" cy="1536.78" r="8.38028" stroke-width="0.5" stroke="black" fill="grey"/>
  <circle cx="1035.04" cy="1536.78" r="5.03997" stroke-width="0.5" stroke="grey" fill="grey"/>
   </g>
   <g id="cell16">
  <circle cx="255.351" cy="1422.18" r="8.52392" stroke-width="0.5" stroke="black" fill="grey"/>
  <circle cx="255.351" cy="1422.18" r="5.1423" stroke-width="0.5" stroke="grey" fill="grey"/>
   </g>
   <g id="cell17">
  <circle cx="1185.32" cy="252.307" r="8.38682" stroke-width="0.5" stroke="black" fill="grey"/>
  <circle cx="1185.32" cy="252.307" r="5.04258" stroke-width="0.5" stroke="grey" fill="grey"/>
   </g>
   <g id="cell18">
  <circle cx="1874.82" cy="1539.55" r="8.39752" stroke-width="0.5" stroke="black" fill="grey"/>
  <circle cx="1874.82" cy="1539.55" r="5.04666" stroke-width="0.5" stroke="grey" fill="grey"/>
   </g>
   <g id="cell19">
  <circle cx="214.297" cy="880.646" r="9.04745" stroke-width="0.5" stroke="black" fill="grey"/>
  <circle cx="214.297" cy="880.646" r="5.49345" stroke-width="0.5" stroke="grey" fill="grey"/>
   </g>
   <g id="cell20">
  <circle cx="560.869" cy="342.312" r="10.3933" stroke-width="0.5" stroke="black" fill="grey"/>
  <circle cx="560.869" cy="342.312" r="6.27417" stroke-width="0.5" stroke="grey" fill="grey"/>
   </g>
   <g id="cell21">
  <circle cx="1458.25" cy="923.312" r="10.5012" stroke-width="0.5" stroke="black" fill="grey"/>
  <circle cx="1458.25" cy="923.312" r="6.32534" stroke-width="0.5" stroke="grey" fill="grey"/>
   </g>
   <g id="cell22">
  <circle cx="1120.89" cy="251.832" r="10.1506" stroke-width="0.5" stroke="black" fill="grey"/>
  <circle cx="1120.89" cy="251.832" r="6.14798" stroke-width="0.5" stroke="grey" fill="grey"/>
   </g>
   <g id="cell23">
  <circle cx="641.8" cy="1243.18" r="1.89328" stroke-width="0.5" stroke="black" fill="grey"/>
  <circle cx="641.8" cy="1243.18" r="1.86795" stroke-width="0.5" stroke="black" fill="black"/>
   </g>
   <g id="cell24">
  <circle cx="1290.64" cy="415.866" r="10.3325" stroke-width="0.5" stroke="black" fill="grey"/>
  <circle cx="1290.64" cy="415.866" r="6.24369" stroke-width="0.5" stroke="grey" fill="grey"/>
   </g>
   <g id="cell25">
  <circle cx="793.525" cy="1881.02" r="8.99747" stroke-width="0.5" stroke="black" fill="grey"/>
  <circle cx="793.525" cy="1881.02" r="5.46444" stroke-width="0.5" stroke="grey" fill="grey"/>
   </g>
   <g id="cell26">
  <circle cx="1359.42" cy="893.758" r="10.4401" stroke-width="0.5" stroke="black" fill="grey"/>
  <circle cx="1359.42" cy="893.758" r="6.29691" stroke-width="0.5" stroke="grey" fill="grey"/>
   </g>
   <g id="cell27">
  <circle cx="1190.01" cy="887.025" r="8.86289" stroke-width="0.5" stroke="black" fill="grey"/>
  <circle cx="1190.01" cy="887.025" r="5.38022" stroke-width="0.5" stroke="grey" fill="grey"/>
   </g>
   <g id="cell28">
  <circle cx="1328.06" cy="161.826" r="8.39083" stroke-width="0.5" stroke="black" fill="grey"/>
  <circle cx="1328.06" cy="161.826" r="5.04414" stroke-width="0.5" stroke="grey" fill="grey"/>
   </g>
   <g id="cell29">
  <circle cx="1976.1" cy="1291.63" r="8.37742" stroke-width="0.5" stroke="black" fill="grey"/>
  <circle cx="1976.1" cy="1291.63" r="5.03881" stroke-width="0.5" stroke="grey" fill="grey"/>
   </g>
   <g id="cell30">
  <circle cx="1364.57" cy="365.604" r="8.36592" stroke-width="0.5" stroke="black" fill="grey"/>
  <circle cx="1364.57" cy="365.604" r="5.03403" stroke-width="0.5" stroke="grey" fill="grey"/>
   </g>
   <g id="cell31">
  <circle cx="691.571" cy="246.28" r="8.39834" stroke-width="0.5" stroke="black" fill="grey"/>
  <circle cx="691.571" cy="246.28" r="5.04696" stroke-width="0.5" stroke="grey" fill="grey"/>
   </g>
   <g id="cell32">
  <circle cx="596.769" cy="1233.28" r="9.07376" stroke-width="0.5" stroke="black" fill="grey"/>
  <circle cx="596.769" cy="1233.28" r="5.51393" stroke-width="0.5" stroke="grey" fill="grey"/>
   </g>
   <g id="cell33">
  <circle cx="681.077" cy="1186.75" r="10.5352" stroke-width="0.5" stroke="black" fill="grey"/>
  <circle cx="681.077" cy="1186.75" r="6.34027" stroke-width="0.5" stroke="grey" fill="grey"/>
   </g>
   <g id="cell34">
  <circle cx="886.506" cy="1245.31" r="9.18971" stroke-width="0.5" stroke="black" fill="grey"/>
  <circle cx="886.506" cy="1245.31" r="5.58662" stroke-width="0.5" stroke="grey" fill="grey"/>
   </g>
   <g id="cell35">
  <circle cx="1927.52" cy="218.593" r="9.46128" stroke-width="0.5" stroke="black" fill="grey"/>
  <circle cx="1927.52" cy="218.593" r="5.75416" stroke-width="0.5" stroke="grey" fill="grey"/>
   </g>
   <g id="cell36">
  <circle cx="378.358" cy="1305.09" r="8.3937" stroke-width="0.5" stroke="black" fill="grey"/>
  <circle cx="378.358" cy="1305.09" r="5.04523" stroke-width="0.5" stroke="grey" fill="grey"/>
   </g>
   <g id="cell37">
  <circle cx="1961.16" cy="1323.48" r="10.0497" stroke-width="0.5" stroke="black" fill="grey"/>
  <circle cx="1961.16" cy="1323.48" r="6.09278" stroke-width="0.5" stroke="grey" fill="grey"/>
   </g>
   <g id="cell38">
  <circle cx="455.877" cy="850.661" r="9.49272" stroke-width="0.5" stroke="black" fill="grey"/>
  <circle cx="455.877" cy="850.661" r="5.77302" stroke-width="0.5" stroke="grey" fill="grey"/>
   </g>
   <g id="cell39">
  <circle cx="913.929" cy="503.824" r="10.3811" stroke-width="0.5" stroke="black" fill="grey"/>
  <circle cx="913.929" cy="503.824" r="6.26814" stroke-width="0.5" stroke="grey" fill="grey"/>
   </g>
   <g id="cell40">
  <circle cx="300.532" cy="642.178" r="8.39752" stroke-width="0.5" stroke="black" fill="grey"/>
  <circle cx="300.532" cy="642.178" r="5.04666" stroke-width="0.5" stroke="grey" fill="grey"/>
   </g>
   <g id="cell41">
  <circle cx="1324.73" cy="1301.44" r="8.40123" stroke-width="0.5" stroke="black" fill="grey"/>
  <circle cx="1324.73" cy="1301.44" r="5.048" stroke-width="0.5" stroke="grey" fill="grey"/>
   </g>
   <g id="cell42">
  <circle cx="288.204" cy="1576.35" r="9.10289" stroke-width="0.5" stroke="black" fill="grey"/>
  <circle cx="288.204" cy="1576.35" r="5.53467" stroke-width="0.5" stroke="grey" fill="grey"/>
   </g>
   <g id="cell43">
  <circle cx="1947.97" cy="782.395" r="8.90942" stroke-width="0.5" stroke="black" fill="grey"/>
  <circle cx="1947.97" cy="782.395" r="5.40928" stroke-width="0.5" stroke="grey" fill="grey"/>
   </g>
   <g id="cell44">
  <circle cx="1651.51" cy="60.8798" r="8.38823" stroke-width="0.5" stroke="black" fill="grey"/>
  <circle cx="1651.51" cy="60.8798" r="5.04313" stroke-width="0.5" stroke="grey" fill="grey"/>
   </g>
   <g id="cell45">
  <circle cx="1243.16" cy="1706.11" r="8.38206" stroke-width="0.5" stroke="black" fill="grey"/>
  <circle cx="1243.16" cy="1706.11" r="5.04069" stroke-width="0.5" stroke="grey" fill="grey"/>
   </g>
   <g id="cell46">
  <circle cx="190.905" cy="1984.17" r="8.39083" stroke-width="0.5" stroke="black" fill="grey"/>
  <circle cx="190.905" cy="1984.17" r="5.04414" stroke-width="0.5" stroke="grey" fill="grey"/>
   </g>
   <g id="cell47">
  <circle cx="1718.82" cy="913.898" r="9.69235" stroke-width="0.5" stroke="black" fill="grey"/>
  <circle cx="1718.82" cy="913.898" r="5.89097" stroke-width="0.5" stroke="grey" fill="grey"/>
   </g>
   <g id="cell48">
  <circle cx="1948.85" cy="81.8034" r="10.5352" stroke-width="0.5" stroke="black" fill="grey"/>
  <circle cx="1948.85" cy="81.8034" r="6.34027" stroke-width="0.5" stroke="grey" fill="grey"/>
   </g>
   <g id="cell49">
  <circle cx="942.261" cy="1500.39" r="8.38206" stroke-width="0.5" stroke="black" fill="grey"/>
  <circle cx="942.261" cy="1500.39" r="5.04069" stroke-width="0.5" stroke="grey" fill="grey"/>
   </g>
   <g id="cell50">
  <circle cx="158.557" cy="845.624" r="8.62146" stroke-width="0.5" stroke="black" fill="red"/>
  <circle cx="158.557" cy="845.624" r="5.21622" stroke-width="0.5" stroke="red" fill="red"/>
   </g>
   <g id="cell51">
  <circle cx="1977.86" cy="265.588" r="10.211" stroke-width="0.5" stroke="black" fill="red"/>
  <circle cx="1977.86" cy="265.588" r="6.18041" stroke-width="0.5" stroke="red" fill="red"/>
   </g>
   <g id="cell52">
  <circle cx="625.24" cy="980.703" r="8.94554" stroke-width="0.5" stroke="black" fill="red"/>
  <circle cx="625.24" cy="980.703" r="5.43387" stroke-width="0.5" stroke="red" fill="red"/>
   </g>
   <g id="cell53">
  <circle cx="1378" cy="651.551" r="9.99984" stroke-width="0.5" stroke="black" fill="red"/>
  <circle cx="1378" cy="651.551" r="6.06503" stroke-width="0.5" stroke="red" fill="red"/>
   </g>
   <g id="cell54">
  <circle cx="797.836" cy="1802.56" r="8.39021" stroke-width="0.5" stroke="black" fill="red"/>
  <circle cx="797.836" cy="1802.56" r="5.0439" stroke-width="0.5" stroke="red" fill="red"/>
   </g>
   <g id="cell55">
  <circle cx="426.633" cy="1327.32" r="9.90658" stroke-width="0.5" stroke="black" fill="red"/>
  <circle cx="426.633" cy="1327.32" r="6.01243" stroke-width="0.5" stroke="red" fill="red"/>
   </g>
   <g id="cell56">
  <circle cx="1158.47" cy="1680.62" r="10.34" stroke-width="0.5" stroke="black" fill="red"/>
  <circle cx="1158.47" cy="1680.62" r="6.24753" stroke-width="0.5" stroke="red" fill="red"/>
   </g>
   <g id="cell57">
  <circle cx="967.741" cy="1089.08" r="9.74153" stroke-width="0.5" stroke="black" fill="red"/>
  <circle cx="967.741" cy="1089.08" r="5.91986" stroke-width="0.5" stroke="red" fill="red"/>
   </g>
   <g id="cell58">
  <circle cx="112.406" cy="1839.85" r="10.5211" stroke-width="0.5" stroke="black" fill="red"/>
  <circle cx="112.406" cy="1839.85" r="6.33419" stroke-width="0.5" stroke="red" fill="red"/>
   </g>
   <g id="cell98">
  <circle cx="1813.27" cy="685.887" r="8.37092" stroke-width="0.5" stroke="black" fill="red"/>
  <circle cx="1813.27" cy="685.887" r="5.03613" stroke-width="0.5" stroke="red" fill="red"/>
   </g>
   <g id="cell60">
  <circle cx="674.193" cy="28.6683" r="8.38373" stroke-width="0.5" stroke="black" fill="red"/>
  <circle cx="674.193" cy="28.6683" r="5.04136" stroke-width="0.5" stroke="red" fill="red"/>
   </g>
   <g id="cell61">
  <circle cx="1657.23" cy="267.366" r="8.3926" stroke-width="0.5" stroke="black" fill="red"/>
  <circle cx="1657.23" cy="267.366" r="5.04482" stroke-width="0.5" stroke="red" fill="red"/>
   </g>
   <g id="cell62">
  <circle cx="1412.31" cy="1706.25" r="8.98789" stroke-width="0.5" stroke="black" fill="red"/>
  <circle cx="1412.31" cy="1706.25" r="5.4607" stroke-width="0.5" stroke="red" fill="red"/>
   </g>
   <g id="cell63">
  <circle cx="558.027" cy="384.384" r="10.5117" stroke-width="0.5" stroke="black" fill="red"/>
  <circle cx="558.027" cy="384.384" r="6.33005" stroke-width="0.5" stroke="red" fill="red"/>
   </g>
   <g id="cell64">
  <circle cx="1208.32" cy="1099.28" r="8.38373" stroke-width="0.5" stroke="black" fill="red"/>
  <circle cx="1208.32" cy="1099.28" r="5.04136" stroke-width="0.5" stroke="red" fill="red"/>
   </g>
   <g id="cell65">
  <circle cx="302.043" cy="1649.43" r="8.39021" stroke-width="0.5" stroke="black" fill="red"/>
  <circle cx="302.043" cy="1649.43" r="5.0439" stroke-width="0.5" stroke="red" fill="red"/>
   </g>
   <g id="cell66">
  <circle cx="30.2435" cy="297.505" r="8.37641" stroke-width="0.5" stroke="black" fill="red"/>
  <circle cx="30.2435" cy="297.505" r="5.0384" stroke-width="0.5" stroke="red" fill="red"/>
   </g>
   <g id="cell67">
  <circle cx="1125.87" cy="557.656" r="10.4862" stroke-width="0.5" stroke="black" fill="red"/>
  <circle cx="1125.87" cy="557.656" r="6.31853" stroke-width="0.5" stroke="red" fill="red"/>
   </g>
   <g id="cell68">
  <circle cx="1420.25" cy="598.722" r="8.38753" stroke-width="0.5" stroke="black" fill="red"/>
  <circle cx="1420.25" cy="598.722" r="5.04286" stroke-width="0.5" stroke="red" fill="red"/>
   </g>
   <g id="cell69">
  <circle cx="805.944" cy="506.331" r="8.36722" stroke-width="0.5" stroke="black" fill="red"/>
  <circle cx="805.944" cy="506.331" r="5.03458" stroke-width="0.5" stroke="red" fill="red"/>
   </g>
   <g id="cell70">
  <circle cx="1125.98" cy="792.647" r="9.25726" stroke-width="0.5" stroke="black" fill="red"/>
  <circle cx="1125.98" cy="792.647" r="5.62993" stroke-width="0.5" stroke="red" fill="red"/>
   </g>
   <g id="cell71">
  <circle cx="1739.97" cy="1182.21" r="8.3995" stroke-width="0.5" stroke="black" fill="red"/>
  <circle cx="1739.97" cy="1182.21" r="5.04738" stroke-width="0.5" stroke="red" fill="red"/>
   </g>
   <g id="cell72">
  <circle cx="458.986" cy="1771.96" r="8.41271" stroke-width="0.5" stroke="black" fill="red"/>
  <circle cx="458.986" cy="1771.96" r="5.05167" stroke-width="0.5" stroke="red" fill="red"/>
   </g>
   <g id="cell73">
  <circle cx="1366.25" cy="864.821" r="9.36464" stroke-width="0.5" stroke="black" fill="red"/>
  <circle cx="1366.25" cy="864.821" r="5.69526" stroke-width="0.5" stroke="red" fill="red"/>
   </g>
   <g id="cell74">
  <circle cx="1733.89" cy="1871.62" r="8.39083" stroke-width="0.5" stroke="black" fill="red"/>
  <circle cx="1733.89" cy="1871.62" r="5.04414" stroke-width="0.5" stroke="red" fill="red"/>
   </g>
   <g id="cell75">
  <circle cx="273.147" cy="562.804" r="9.4743" stroke-width="0.5" stroke="black" fill="red"/>
  <circle cx="273.147" cy="562.804" r="5.75875" stroke-width="0.5" stroke="red" fill="red"/>
   </g>
   <g id="cell76">
  <circle cx="1635.53" cy="767.802" r="8.36972" stroke-width="0.5" stroke="black" fill="red"/>
  <circle cx="1635.53" cy="767.802" r="5.03563" stroke-width="0.5" stroke="red" fill="red"/>
   </g>
   <g id="cell77">
  <circle cx="1407.72" cy="1801.13" r="8.95294" stroke-width="0.5" stroke="black" fill="red"/>
  <circle cx="1407.72" cy="1801.13" r="5.43682" stroke-width="0.5" stroke="red" fill="red"/>
   </g>
   <g id="cell78">
  <circle cx="1161.67" cy="589.963" r="10.4156" stroke-width="0.5" stroke="black" fill="red"/>
  <circle cx="1161.67" cy="589.963" r="6.2851" stroke-width="0.5" stroke="red" fill="red"/>
   </g>
   <g id="cell79">
  <circle cx="1979.14" cy="1437.78" r="8.37208" stroke-width="0.5" stroke="black" fill="red"/>
  <circle cx="1979.14" cy="1437.78" r="5.03661" stroke-width="0.5" stroke="red" fill="red"/>
   </g>
   <g id="cell80">
  <circle cx="1436.53" cy="1296.21" r="8.39422" stroke-width="0.5" stroke="black" fill="red"/>
  <circle cx="1436.53" cy="1296.21" r="5.04543" stroke-width="0.5" stroke="red" fill="red"/>
   </g>
   <g id="cell81">
  <circle cx="1128.09" cy="1913.1" r="8.38454" stroke-width="0.5" stroke="black" fill="red"/>
  <circle cx="1128.09" cy="1913.1" r="5.04168" stroke-width="0.5" stroke="red" fill="red"/>
   </g>
   <g id="cell82">
  <circle cx="1255.12" cy="813.068" r="8.39708" stroke-width="0.5" stroke="black" fill="red"/>
  <circle cx="1255.12" cy="813.068" r="5.0465" stroke-width="0.5" stroke="red" fill="red"/>
   </g>
   <g id="cell83">
  <circle cx="1230.5" cy="1220.39" r="8.40056" stroke-width="0.5" stroke="black" fill="red"/>
  <circle cx="1230.5" cy="1220.39" r="5.04776" stroke-width="0.5" stroke="red" fill="red"/>
   </g>
   <g id="cell84">
  <circle cx="16.9771" cy="908.219" r="10.0806" stroke-width="0.5" stroke="black" fill="red"/>
  <circle cx="16.9771" cy="908.219" r="6.10985" stroke-width="0.5" stroke="red" fill="red"/>
   </g>
   <g id="cell85">
  <circle cx="1424.1" cy="1282.84" r="10.4446" stroke-width="0.5" stroke="black" fill="red"/>
  <circle cx="1424.1" cy="1282.84" r="6.29905" stroke-width="0.5" stroke="red" fill="red"/>
   </g>
   <g id="cell86">
  <circle cx="593.332" cy="809.289" r="8.38028" stroke-width="0.5" stroke="black" fill="red"/>
  <circle cx="593.332" cy="809.289" r="5.03997" stroke-width="0.5" stroke="red" fill="red"/>
   </g>
   <g id="cell87">
  <circle cx="1446.97" cy="900.442" r="10.4401" stroke-width="0.5" stroke="black" fill="red"/>
  <circle cx="1446.97" cy="900.442" r="6.29691" stroke-width="0.5" stroke="red" fill="red"/>
   </g>
   <g id="cell88">
  <circle cx="256.098" cy="225.243" r="8.39083" stroke-width="0.5" stroke="black" fill="red"/>
  <circle cx="256.098" cy="225.243" r="5.04414" stroke-width="0.5" stroke="red" fill="red"/>
   </g>
   <g id="cell89">
  <circle cx="204.368" cy="1157.19" r="8.3926" stroke-width="0.5" stroke="black" fill="red"/>
  <circle cx="204.368" cy="1157.19" r="5.04482" stroke-width="0.5" stroke="red" fill="red"/>
   </g>
   <g id="cell90">
  <circle cx="1158.63" cy="1113.06" r="10.5275" stroke-width="0.5" stroke="black" fill="red"/>
  <circle cx="1158.63" cy="1113.06" r="6.33696" stroke-width="0.5" stroke="red" fill="red"/>
   </g>
   <g id="cell91">
  <circle cx="59.1306" cy="1258.97" r="8.39523" stroke-width="0.5" stroke="black" fill="red"/>
  <circle cx="59.1306" cy="1258.97" r="5.04581" stroke-width="0.5" stroke="red" fill="red"/>
   </g>
   <g id="cell99">
  <circle cx="950.536" cy="1980.04" r="9.81193" stroke-width="0.5" stroke="black" fill="red"/>
  <circle cx="950.536" cy="1980.04" r="5.96056" stroke-width="0.5" stroke="red" fill="red"/>
   </g>
   <g id="cell93">
  <circle cx="410.511" cy="1777.88" r="8.79633" stroke-width="0.5" stroke="black" fill="red"/>
  <circle cx="410.511" cy="1777.88" r="5.33187" stroke-width="0.5" stroke="red" fill="red"/>
   </g>
   <g id="cell94">
  <circle cx="775.501" cy="202.186" r="8.58812" stroke-width="0.5" stroke="black" fill="red"/>
  <circle cx="775.501" cy="202.186" r="5.19118" stroke-width="0.5" stroke="red" fill="red"/>
   </g>
   <g id="cell95">
  <circle cx="1980.78" cy="1768.39" r="9.15104" stroke-width="0.5" stroke="black" fill="red"/>
  <circle cx="1980.78" cy="1768.39" r="5.56267" stroke-width="0.5" stroke="red" fill="red"/>
   </g>
   <g id="cell96">
  <circle cx="1707.38" cy="1084.45" r="10.3933" stroke-width="0.5" stroke="black" fill="red"/>
  <circle cx="1707.38" cy="1084.45" r="6.27417" stroke-width="0.5" stroke="red" fill="red"/>
   </g>
   <g id="cell97">
  <circle cx="922.913" cy="184.013" r="8.82169" stroke-width="0.5" stroke="black" fill="red"/>
  <circle cx="922.913" cy="184.013" r="5.35305" stroke-width="0.5" stroke="red" fill="red"/>
   </g>
   <g id="cell101">
  <circle cx="1311.46" cy="1255.65" r="9.76738" stroke-width="0.5" stroke="black" fill="grey"/>
  <circle cx="1311.46" cy="1255.65" r="5.9345" stroke-width="0.5" stroke="grey" fill="grey"/>
   </g>
   <g id="cell102">
  <circle cx="1078.84" cy="1769" r="8.44437" stroke-width="0.5" stroke="black" fill="grey"/>
  <circle cx="1078.84" cy="1769" r="5.07921" stroke-width="0.5" stroke="grey" fill="grey"/>
   </g>
   <g id="cell103">
  <circle cx="1211.54" cy="1264.68" r="9.64014" stroke-width="0.5" stroke="black" fill="red"/>
  <circle cx="1211.54" cy="1264.68" r="5.86016" stroke-width="0.5" stroke="red" fill="red"/>
   </g>
   <g id="cell104">
  <circle cx="780.88" cy="1868.5" r="9.85659" stroke-width="0.5" stroke="black" fill="grey"/>
  <circle cx="780.88" cy="1868.5" r="5.98599" stroke-width="0.5" stroke="grey" fill="grey"/>
   </g>
   <g id="cell105">
  <circle cx="1156.78" cy="812.65" r="9.85659" stroke-width="0.5" stroke="black" fill="grey"/>
  <circle cx="1156.78" cy="812.65" r="5.98599" stroke-width="0.5" stroke="grey" fill="grey"/>
   </g>
   <g id="cell106">
  <circle cx="434.108" cy="1782.99" r="9.49552" stroke-width="0.5" stroke="black" fill="red"/>
  <circle cx="434.108" cy="1782.99" r="5.77409" stroke-width="0.5" stroke="red" fill="red"/>
   </g>
   <g id="cell107">
  <circle cx="928.876" cy="1239.7" r="8.40022" stroke-width="0.5" stroke="black" fill="grey"/>
  <circle cx="928.876" cy="1239.7" r="5.04764" stroke-width="0.5" stroke="grey" fill="grey"/>
   </g>
   <g id="cell108">
  <circle cx="1758.13" cy="950.296" r="9.18941" stroke-width="0.5" stroke="black" fill="grey"/>
  <circle cx="1758.13" cy="950.296" r="5.5865" stroke-width="0.5" stroke="grey" fill="grey"/>
   </g>
   <g id="cell109">
  <circle cx="1724.47" cy="1206.16" r="8.3995" stroke-width="0.5" stroke="black" fill="red"/>
  <circle cx="1724.47" cy="1206.16" r="5.04738" stroke-width="0.5" stroke="red" fill="red"/>
   </g>
   <g id="cell110">
  <circle cx="980.434" cy="1973.82" r="8.39913" stroke-width="0.5" stroke="black" fill="red"/>
  <circle cx="980.434" cy="1973.82" r="5.04725" stroke-width="0.5" stroke="red" fill="red"/>
   </g>
   <g id="cell111">
  <circle cx="1973.92" cy="1738.18" r="8.39874" stroke-width="0.5" stroke="black" fill="red"/>
  <circle cx="1973.92" cy="1738.18" r="5.04711" stroke-width="0.5" stroke="red" fill="red"/>
   </g>
   <g id="cell112">
  <circle cx="1006.47" cy="1069.63" r="9.46329" stroke-width="0.5" stroke="black" fill="red"/>
  <circle cx="1006.47" cy="1069.63" r="5.75493" stroke-width="0.5" stroke="red" fill="red"/>
   </g>
   <g id="cell113">
  <circle cx="678.871" cy="179.139" r="8.99553" stroke-width="0.5" stroke="black" fill="grey"/>
  <circle cx="678.871" cy="179.139" r="5.4637" stroke-width="0.5" stroke="grey" fill="grey"/>
   </g>
   <g id="cell114">
  <circle cx="610.839" cy="1240.81" r="8.39794" stroke-width="0.5" stroke="black" fill="grey"/>
  <circle cx="610.839" cy="1240.81" r="5.04681" stroke-width="0.5" stroke="grey" fill="grey"/>
   </g>
   <g id="cell115">
  <circle cx="1738.84" cy="1920.78" r="8.71456" stroke-width="0.5" stroke="black" fill="grey"/>
  <circle cx="1738.84" cy="1920.78" r="5.27663" stroke-width="0.5" stroke="grey" fill="grey"/>
   </g>
   <g id="cell116">
  <circle cx="327.131" cy="667.734" r="8.39752" stroke-width="0.5" stroke="black" fill="grey"/>
  <circle cx="327.131" cy="667.734" r="5.04666" stroke-width="0.5" stroke="grey" fill="grey"/>
   </g>
   <g id="cell117">
  <circle cx="1894.7" cy="1540.31" r="9.18745" stroke-width="0.5" stroke="black" fill="grey"/>
  <circle cx="1894.7" cy="1540.31" r="5.58575" stroke-width="0.5" stroke="grey" fill="grey"/>
   </g>
   <g id="cell118">
  <circle cx="1333.5" cy="873.698" r="8.39752" stroke-width="0.5" stroke="black" fill="red"/>
  <circle cx="1333.5" cy="873.698" r="5.04666" stroke-width="0.5" stroke="red" fill="red"/>
   </g>
   <g id="cell119">
  <circle cx="1260.64" cy="827.827" r="8.41695" stroke-width="0.5" stroke="black" fill="red"/>
  <circle cx="1260.64" cy="827.827" r="5.06038" stroke-width="0.5" stroke="red" fill="red"/>
   </g>
   <g id="cell120">
  <circle cx="735.465" cy="1675.25" r="8.63649" stroke-width="0.5" stroke="black" fill="grey"/>
  <circle cx="735.465" cy="1675.25" r="5.22215" stroke-width="0.5" stroke="grey" fill="grey"/>
   </g>
   <g id="cell121">
  <circle cx="433.985" cy="878.744" r="9.07265" stroke-width="0.5" stroke="black" fill="grey"/>
  <circle cx="433.985" cy="878.744" r="5.51351" stroke-width="0.5" stroke="grey" fill="grey"/>
   </g>
   <g id="cell122">
  <circle cx="1918.66" cy="246.783" r="8.52852" stroke-width="0.5" stroke="black" fill="grey"/>
  <circle cx="1918.66" cy="246.783" r="5.14405" stroke-width="0.5" stroke="grey" fill="grey"/>
   </g>
   <g id="cell123">
  <circle cx="81.0715" cy="1248.17" r="9.14808" stroke-width="0.5" stroke="black" fill="red"/>
  <circle cx="81.0715" cy="1248.17" r="5.56152" stroke-width="0.5" stroke="red" fill="red"/>
   </g>
   <g id="cell124">
  <circle cx="1395.09" cy="1829.66" r="9.32875" stroke-width="0.5" stroke="black" fill="red"/>
  <circle cx="1395.09" cy="1829.66" r="5.67371" stroke-width="0.5" stroke="red" fill="red"/>
   </g>
   <g id="cell125">
  <circle cx="1441.33" cy="1313.29" r="8.39422" stroke-width="0.5" stroke="black" fill="red"/>
  <circle cx="1441.33" cy="1313.29" r="5.04543" stroke-width="0.5" stroke="red" fill="red"/>
   </g>
   <g id="cell126">
  <circle cx="1169" cy="795.39" r="8.67155" stroke-width="0.5" stroke="black" fill="red"/>
  <circle cx="1169" cy="795.39" r="5.24792" stroke-width="0.5" stroke="red" fill="red"/>
   </g>
   <g id="cell127">
  <circle cx="395.005" cy="1272.31" r="8.3937" stroke-width="0.5" stroke="black" fill="grey"/>
  <circle cx="395.005" cy="1272.31" r="5.04523" stroke-width="0.5" stroke="grey" fill="grey"/>
   </g>
   <g id="cell128">
  <circle cx="1665.61" cy="1225.69" r="8.39316" stroke-width="0.5" stroke="black" fill="grey"/>
  <circle cx="1665.61" cy="1225.69" r="5.04503" stroke-width="0.5" stroke="grey" fill="grey"/>
   </g>
   <g id="cell129">
  <circle cx="1670.56" cy="297.144" r="9.32662" stroke-width="0.5" stroke="black" fill="red"/>
  <circle cx="1670.56" cy="297.144" r="5.67287" stroke-width="0.5" stroke="red" fill="red"/>
   </g>
   <g id="cell130">
  <circle cx="215.915" cy="1186.71" r="8.95062" stroke-width="0.5" stroke="black" fill="red"/>
  <circle cx="215.915" cy="1186.71" r="5.43591" stroke-width="0.5" stroke="red" fill="red"/>
   </g>
   <g id="cell131">
  <circle cx="247.979" cy="1455.85" r="8.39144" stroke-width="0.5" stroke="black" fill="grey"/>
  <circle cx="247.979" cy="1455.85" r="5.04437" stroke-width="0.5" stroke="grey" fill="grey"/>
   </g>
   <g id="cell132">
  <circle cx="1967.42" cy="776.505" r="9.02907" stroke-width="0.5" stroke="black" fill="grey"/>
  <circle cx="1967.42" cy="776.505" r="5.48678" stroke-width="0.5" stroke="grey" fill="grey"/>
   </g>
   <g id="cell133">
  <circle cx="248.058" cy="202.817" r="8.39083" stroke-width="0.5" stroke="black" fill="red"/>
  <circle cx="248.058" cy="202.817" r="5.04414" stroke-width="0.5" stroke="red" fill="red"/>
   </g>
   <g id="cell134">
  <circle cx="1358.98" cy="170.606" r="9.2549" stroke-width="0.5" stroke="black" fill="grey"/>
  <circle cx="1358.98" cy="170.606" r="5.629" stroke-width="0.5" stroke="grey" fill="grey"/>
   </g>
   <g id="cell135">
  <circle cx="171.842" cy="1969" r="8.63058" stroke-width="0.5" stroke="black" fill="grey"/>
  <circle cx="171.842" cy="1969" r="5.21988" stroke-width="0.5" stroke="grey" fill="grey"/>
   </g>
   <g id="cell136">
  <circle cx="1710.79" cy="1898.4" r="8.39083" stroke-width="0.5" stroke="black" fill="red"/>
  <circle cx="1710.79" cy="1898.4" r="5.04414" stroke-width="0.5" stroke="red" fill="red"/>
   </g>
   <g id="cell137">
  <circle cx="772.88" cy="1830.81" r="8.82754" stroke-width="0.5" stroke="black" fill="red"/>
  <circle cx="772.88" cy="1830.81" r="5.35542" stroke-width="0.5" stroke="red" fill="red"/>
   </g>
   <g id="cell138">
  <circle cx="322.713" cy="1625" r="8.39021" stroke-width="0.5" stroke="black" fill="red"/>
  <circle cx="322.713" cy="1625" r="5.0439" stroke-width="0.5" stroke="red" fill="red"/>
   </g>
   <g id="cell139">
  <circle cx="1421.66" cy="1667.63" r="9.14332" stroke-width="0.5" stroke="black" fill="red"/>
  <circle cx="1421.66" cy="1667.63" r="5.55963" stroke-width="0.5" stroke="red" fill="red"/>
   </g>
   <g id="cell140">
  <circle cx="1578.07" cy="1026.54" r="8.52081" stroke-width="0.5" stroke="black" fill="grey"/>
  <circle cx="1578.07" cy="1026.54" r="5.14109" stroke-width="0.5" stroke="grey" fill="grey"/>
   </g>
   <g id="cell141">
  <circle cx="1661.79" cy="49.1567" r="8.48862" stroke-width="0.5" stroke="black" fill="grey"/>
  <circle cx="1661.79" cy="49.1567" r="5.11711" stroke-width="0.5" stroke="grey" fill="grey"/>
   </g>
   <g id="cell142">
  <circle cx="1432.29" cy="620.379" r="8.38753" stroke-width="0.5" stroke="black" fill="red"/>
  <circle cx="1432.29" cy="620.379" r="5.04286" stroke-width="0.5" stroke="red" fill="red"/>
   </g>
   <g id="cell143">
  <circle cx="619.343" cy="961.568" r="8.58955" stroke-width="0.5" stroke="black" fill="red"/>
  <circle cx="619.343" cy="961.568" r="5.19175" stroke-width="0.5" stroke="red" fill="red"/>
   </g>
   <g id="cell144">
  <circle cx="1188.67" cy="270.448" r="8.38682" stroke-width="0.5" stroke="black" fill="grey"/>
  <circle cx="1188.67" cy="270.448" r="5.04258" stroke-width="0.5" stroke="grey" fill="grey"/>
   </g>
   <g id="cell145">
  <circle cx="277.245" cy="1547.44" r="8.38682" stroke-width="0.5" stroke="black" fill="grey"/>
  <circle cx="277.245" cy="1547.44" r="5.04258" stroke-width="0.5" stroke="grey" fill="grey"/>
   </g>
   <g id="cell146">
  <circle cx="750.859" cy="169.824" r="8.38532" stroke-width="0.5" stroke="black" fill="red"/>
  <circle cx="750.859" cy="169.824" r="5.04199" stroke-width="0.5" stroke="red" fill="red"/>
   </g>
   <g id="cell147">
  <circle cx="1115.29" cy="1894.97" r="8.38454" stroke-width="0.5" stroke="black" fill="red"/>
  <circle cx="1115.29" cy="1894.97" r="5.04168" stroke-width="0.5" stroke="red" fill="red"/>
   </g>
   <g id="cell148">
  <circle cx="1199.84" cy="917.103" r="8.38454" stroke-width="0.5" stroke="black" fill="grey"/>
  <circle cx="1199.84" cy="917.103" r="5.04168" stroke-width="0.5" stroke="grey" fill="grey"/>
   </g>
   <g id="cell149">
  <circle cx="654.263" cy="36.5552" r="8.70137" stroke-width="0.5" stroke="black" fill="red"/>
  <circle cx="654.263" cy="36.5552" r="5.27143" stroke-width="0.5" stroke="red" fill="red"/>
   </g>
   <g id="cell150">
  <circle cx="1191.47" cy="1093.25" r="8.38373" stroke-width="0.5" stroke="black" fill="red"/>
  <circle cx="1191.47" cy="1093.25" r="5.04136" stroke-width="0.5" stroke="red" fill="red"/>
   </g>
   <g id="cell151">
  <circle cx="941.712" cy="175.177" r="8.38373" stroke-width="0.5" stroke="black" fill="red"/>
  <circle cx="941.712" cy="175.177" r="5.04136" stroke-width="0.5" stroke="red" fill="red"/>
   </g>
   <g id="cell152">
  <circle cx="1231.17" cy="1712.35" r="8.38206" stroke-width="0.5" stroke="black" fill="grey"/>
  <circle cx="1231.17" cy="1712.35" r="5.04069" stroke-width="0.5" stroke="grey" fill="grey"/>
   </g>
   <g id="cell153">
  <circle cx="930.1" cy="1481.53" r="8.38206" stroke-width="0.5" stroke="black" fill="grey"/>
  <circle cx="930.1" cy="1481.53" r="5.04069" stroke-width="0.5" stroke="grey" fill="grey"/>
   </g>
   <g id="cell154">
  <circle cx="159.49" cy="829.876" r="8.38118" stroke-width="0.5" stroke="black" fill="red"/>
  <circle cx="159.49" cy="829.876" r="5.04034" stroke-width="0.5" stroke="red" fill="red"/>
   </g>
   <g id="cell155">
  <circle cx="557.737" cy="798.94" r="8.38028" stroke-width="0.5" stroke="black" fill="red"/>
  <circle cx="557.737" cy="798.94" r="5.03997" stroke-width="0.5" stroke="red" fill="red"/>
   </g>
   <g id="cell156">
  <circle cx="1054.32" cy="1528.19" r="5.52817" stroke-width="0.5" stroke="black" fill="grey"/>
  <circle cx="1054.32" cy="1528.19" r="3.57422" stroke-width="0.5" stroke="black" fill="black"/>
   </g>
   <g id="cell157">
  <circle cx="1246.58" cy="1286.11" r="8.3784" stroke-width="0.5" stroke="black" fill="grey"/>
  <circle cx="1246.58" cy="1286.11" r="5.03921" stroke-width="0.5" stroke="grey" fill="grey"/>
   </g>
   <g id="cell158">
  <circle cx="1942.39" cy="1318.5" r="8.37742" stroke-width="0.5" stroke="black" fill="grey"/>
  <circle cx="1942.39" cy="1318.5" r="5.03881" stroke-width="0.5" stroke="grey" fill="grey"/>
   </g>
   <g id="cell159">
  <circle cx="42.5956" cy="257.322" r="8.37641" stroke-width="0.5" stroke="black" fill="red"/>
  <circle cx="42.5956" cy="257.322" r="5.0384" stroke-width="0.5" stroke="red" fill="red"/>
   </g>
   <g id="cell160">
  <circle cx="1990.84" cy="1455.29" r="8.37208" stroke-width="0.5" stroke="black" fill="red"/>
  <circle cx="1990.84" cy="1455.29" r="5.03661" stroke-width="0.5" stroke="red" fill="red"/>
   </g>
   <g id="cell161">
  <circle cx="1798.9" cy="675.594" r="8.37092" stroke-width="0.5" stroke="black" fill="red"/>
  <circle cx="1798.9" cy="675.594" r="5.03613" stroke-width="0.5" stroke="red" fill="red"/>
   </g>
   <g id="cell162">
  <circle cx="1620.47" cy="759.756" r="8.36972" stroke-width="0.5" stroke="black" fill="red"/>
  <circle cx="1620.47" cy="759.756" r="5.03563" stroke-width="0.5" stroke="red" fill="red"/>
   </g>
   <g id="cell163">
  <circle cx="1089.59" cy="1203.37" r="8.36972" stroke-width="0.5" stroke="black" fill="grey"/>
  <circle cx="1089.59" cy="1203.37" r="5.03563" stroke-width="0.5" stroke="grey" fill="grey"/>
   </g>
   <g id="cell164">
  <circle cx="821.512" cy="513.303" r="8.36722" stroke-width="0.5" stroke="black" fill="red"/>
  <circle cx="821.512" cy="513.303" r="5.03458" stroke-width="0.5" stroke="red" fill="red"/>
   </g>
   <g id="cell165">
  <circle cx="1598.5" cy="174.609" r="8.36722" stroke-width="0.5" stroke="black" fill="grey"/>
  <circle cx="1598.5" cy="174.609" r="5.03458" stroke-width="0.5" stroke="grey" fill="grey"/>
   </g>
   <g id="cell166">
  <circle cx="1353.48" cy="357.935" r="8.36592" stroke-width="0.5" stroke="black" fill="grey"/>
  <circle cx="1353.48" cy="357.935" r="5.03403" stroke-width="0.5" stroke="grey" fill="grey"/>
   </g>
   <g id="cell167">
  <circle cx="1631.78" cy="267.058" r="8.36592" stroke-width="0.5" stroke="black" fill="grey"/>
  <circle cx="1631.78" cy="267.058" r="5.03403" stroke-width="0.5" stroke="grey" fill="grey"/>
   </g>
  </g>
 </g>
  <rect x="1750" y="2070" width="200" height="20" stroke-width="4" stroke="rgb(255,255,255)" fill="rgb(0,0,0)"/>
  <text x="1762.5" y="2057.5"
   font-family="Arial" font-size="50" fill="black" >
   200 &#956;m
  </text>
  <text x="50" y="2090"
   font-family="Arial" font-size="37.5" fill="black" >
   0 days, 0 hours, 0 minutes, and 27.1929 seconds
  </text>
  <rect x="0" y="140" width="2000" height="2000" stroke-width="4" stroke="rgb(0,0,0)" fill="none"/>
</svg>
