<?xml version="1.0" encoding="UTF-8" standalone="no"?>
<!-- Created with PhysiCell (http://PhysiCell.MathCancer.org/) -->
<svg 
 xmlns:dc="http://purl.org/dc/elements/1.1/" 
 xmlns:cc="http://creativecommons.org/ns#" 
 xmlns:rdf="http://www.w3.org/1999/02/22-rdf-syntax-ns#" 
 xmlns:svg="http://www.w3.org/2000/svg" 
 xmlns="http://www.w3.org/2000/svg" 
 version="1.1" 
 width="2000" 
 height="2140" 
 id="svg2">
  <rect x="0" y="0" width="2000" height="2140" stroke-width="4" stroke="white" fill="white"/>
  <text x="25" y="60"
   font-family="Arial" font-size="50" fill="black" >
   Current time: 0 days, 21 hours, and 0.00 minutes, z = 0.00 &#956;m
  </text>
  <text x="25" y="115"
   font-family="Arial" font-size="47.5" fill="black" >
   171 agents
  </text>
 <g id="tissue" 
    transform="translate(0,2140) scale(1,-1)">
  <g id="ECM">
  </g>
  <g id="cells">
   <g id="cell104">
  <circle cx="763.646" cy="1652.86" r="8.40715" stroke-width="0.5" stroke="black" fill="grey"/>
  <circle cx="763.646" cy="1652.86" r="5.05003" stroke-width="0.5" stroke="grey" fill="grey"/>
   </g>
   <g id="cell1">
  <circle cx="1724.44" cy="1236.21" r="8.3784" stroke-width="0.5" stroke="black" fill="grey"/>
  <circle cx="1724.44" cy="1236.21" r="5.03921" stroke-width="0.5" stroke="grey" fill="grey"/>
   </g>
   <g id="cell2">
  <circle cx="1095.59" cy="1680.18" r="10.5211" stroke-width="0.5" stroke="black" fill="grey"/>
  <circle cx="1095.59" cy="1680.18" r="6.33419" stroke-width="0.5" stroke="grey" fill="grey"/>
   </g>
   <g id="cell3">
  <circle cx="1292.05" cy="1302.95" r="9.94104" stroke-width="0.5" stroke="black" fill="grey"/>
  <circle cx="1292.05" cy="1302.95" r="6.03309" stroke-width="0.5" stroke="grey" fill="grey"/>
   </g>
   <g id="cell4">
  <circle cx="898.785" cy="543.065" r="8.36972" stroke-width="0.5" stroke="black" fill="grey"/>
  <circle cx="898.785" cy="543.065" r="5.03563" stroke-width="0.5" stroke="grey" fill="grey"/>
   </g>
   <g id="cell5">
  <circle cx="119.549" cy="1925.19" r="10.3545" stroke-width="0.5" stroke="black" fill="grey"/>
  <circle cx="119.549" cy="1925.19" r="6.25485" stroke-width="0.5" stroke="grey" fill="grey"/>
   </g>
   <g id="cell6">
  <circle cx="688.544" cy="977.27" r="9.08138" stroke-width="0.5" stroke="black" fill="grey"/>
  <circle cx="688.544" cy="977.27" r="5.51675" stroke-width="0.5" stroke="grey" fill="grey"/>
   </g>
   <g id="cell7">
  <circle cx="1607.66" cy="1025.76" r="9.43749" stroke-width="0.5" stroke="black" fill="grey"/>
  <circle cx="1607.66" cy="1025.76" r="5.73791" stroke-width="0.5" stroke="grey" fill="grey"/>
   </g>
   <g id="cell8">
  <circle cx="1144.89" cy="751.246" r="9.63961" stroke-width="0.5" stroke="black" fill="grey"/>
  <circle cx="1144.89" cy="751.246" r="5.85996" stroke-width="0.5" stroke="grey" fill="grey"/>
   </g>
   <g id="cell9">
  <circle cx="1688.89" cy="151.197" r="8.38028" stroke-width="0.5" stroke="black" fill="grey"/>
  <circle cx="1688.89" cy="151.197" r="5.03997" stroke-width="0.5" stroke="grey" fill="grey"/>
   </g>
   <g id="cell10">
  <circle cx="173.874" cy="1306.31" r="10.5275" stroke-width="0.5" stroke="black" fill="grey"/>
  <circle cx="173.874" cy="1306.31" r="6.33696" stroke-width="0.5" stroke="grey" fill="grey"/>
   </g>
   <g id="cell11">
  <circle cx="756.149" cy="1667.35" r="10.0297" stroke-width="0.5" stroke="black" fill="grey"/>
  <circle cx="756.149" cy="1667.35" r="6.08262" stroke-width="0.5" stroke="grey" fill="grey"/>
   </g>
   <g id="cell12">
  <circle cx="1528.91" cy="305.325" r="8.38028" stroke-width="0.5" stroke="black" fill="grey"/>
  <circle cx="1528.91" cy="305.325" r="5.03997" stroke-width="0.5" stroke="grey" fill="grey"/>
   </g>
   <g id="cell13">
  <circle cx="1743.06" cy="1942.39" r="8.40244" stroke-width="0.5" stroke="black" fill="grey"/>
  <circle cx="1743.06" cy="1942.39" r="5.04843" stroke-width="0.5" stroke="grey" fill="grey"/>
   </g>
   <g id="cell14">
  <circle cx="1525.66" cy="1575.85" r="8.37641" stroke-width="0.5" stroke="black" fill="grey"/>
  <circle cx="1525.66" cy="1575.85" r="5.0384" stroke-width="0.5" stroke="grey" fill="grey"/>
   </g>
   <g id="cell15">
  <circle cx="1032.02" cy="1511.28" r="10.483" stroke-width="0.5" stroke="black" fill="grey"/>
  <circle cx="1032.02" cy="1511.28" r="6.31703" stroke-width="0.5" stroke="grey" fill="grey"/>
   </g>
   <g id="cell16">
  <circle cx="205.797" cy="1461.06" r="9.64295" stroke-width="0.5" stroke="black" fill="grey"/>
  <circle cx="205.797" cy="1461.06" r="5.86119" stroke-width="0.5" stroke="grey" fill="grey"/>
   </g>
   <g id="cell17">
  <circle cx="1115.91" cy="316.058" r="8.37431" stroke-width="0.5" stroke="black" fill="grey"/>
  <circle cx="1115.91" cy="316.058" r="5.03754" stroke-width="0.5" stroke="grey" fill="grey"/>
   </g>
   <g id="cell18">
  <circle cx="1848.32" cy="1530.51" r="10.2392" stroke-width="0.5" stroke="black" fill="grey"/>
  <circle cx="1848.32" cy="1530.51" r="6.19623" stroke-width="0.5" stroke="grey" fill="grey"/>
   </g>
   <g id="cell19">
  <circle cx="199.184" cy="850.026" r="8.37321" stroke-width="0.5" stroke="black" fill="grey"/>
  <circle cx="199.184" cy="850.026" r="5.03708" stroke-width="0.5" stroke="grey" fill="grey"/>
   </g>
   <g id="cell20">
  <circle cx="534.822" cy="417.805" r="8.41461" stroke-width="0.5" stroke="black" fill="grey"/>
  <circle cx="534.822" cy="417.805" r="5.05951" stroke-width="0.5" stroke="grey" fill="grey"/>
   </g>
   <g id="cell21">
  <circle cx="1458.5" cy="915.767" r="9.14219" stroke-width="0.5" stroke="black" fill="grey"/>
  <circle cx="1458.5" cy="915.767" r="5.55918" stroke-width="0.5" stroke="grey" fill="grey"/>
   </g>
   <g id="cell22">
  <circle cx="1098.66" cy="218.373" r="9.19495" stroke-width="0.5" stroke="black" fill="grey"/>
  <circle cx="1098.66" cy="218.373" r="5.58854" stroke-width="0.5" stroke="grey" fill="grey"/>
   </g>
   <g id="cell23">
  <circle cx="663.582" cy="1250.63" r="9.26345" stroke-width="0.5" stroke="black" fill="grey"/>
  <circle cx="663.582" cy="1250.63" r="5.63231" stroke-width="0.5" stroke="grey" fill="grey"/>
   </g>
   <g id="cell24">
  <circle cx="1241.54" cy="457.158" r="8.39708" stroke-width="0.5" stroke="black" fill="grey"/>
  <circle cx="1241.54" cy="457.158" r="5.0465" stroke-width="0.5" stroke="grey" fill="grey"/>
   </g>
   <g id="cell25">
  <circle cx="728.662" cy="1873.96" r="8.36592" stroke-width="0.5" stroke="black" fill="grey"/>
  <circle cx="728.662" cy="1873.96" r="5.03403" stroke-width="0.5" stroke="grey" fill="grey"/>
   </g>
   <g id="cell26">
  <circle cx="1368.09" cy="894.635" r="8.40123" stroke-width="0.5" stroke="black" fill="grey"/>
  <circle cx="1368.09" cy="894.635" r="5.048" stroke-width="0.5" stroke="grey" fill="grey"/>
   </g>
   <g id="cell27">
  <circle cx="1208.16" cy="877.238" r="10.4489" stroke-width="0.5" stroke="black" fill="grey"/>
  <circle cx="1208.16" cy="877.238" r="6.30112" stroke-width="0.5" stroke="grey" fill="grey"/>
   </g>
   <g id="cell28">
  <circle cx="1373.12" cy="184.537" r="9.72004" stroke-width="0.5" stroke="black" fill="grey"/>
  <circle cx="1373.12" cy="184.537" r="5.90666" stroke-width="0.5" stroke="grey" fill="grey"/>
   </g>
   <g id="cell29">
  <circle cx="1906.27" cy="1283.67" r="9.55942" stroke-width="0.5" stroke="black" fill="grey"/>
  <circle cx="1906.27" cy="1283.67" r="5.81142" stroke-width="0.5" stroke="grey" fill="grey"/>
   </g>
   <g id="cell30">
  <circle cx="1385.07" cy="336.675" r="8.39422" stroke-width="0.5" stroke="black" fill="grey"/>
  <circle cx="1385.07" cy="336.675" r="5.04543" stroke-width="0.5" stroke="grey" fill="grey"/>
   </g>
   <g id="cell31">
  <circle cx="745.556" cy="294.289" r="8.40022" stroke-width="0.5" stroke="black" fill="grey"/>
  <circle cx="745.556" cy="294.289" r="5.04764" stroke-width="0.5" stroke="grey" fill="grey"/>
   </g>
   <g id="cell32">
  <circle cx="656.821" cy="1147.57" r="8.36592" stroke-width="0.5" stroke="black" fill="grey"/>
  <circle cx="656.821" cy="1147.57" r="5.03403" stroke-width="0.5" stroke="grey" fill="grey"/>
   </g>
   <g id="cell33">
  <circle cx="652.92" cy="1204" r="10.2069" stroke-width="0.5" stroke="black" fill="grey"/>
  <circle cx="652.92" cy="1204" r="6.17915" stroke-width="0.5" stroke="grey" fill="grey"/>
   </g>
   <g id="cell34">
  <circle cx="913.278" cy="1240.68" r="10.0761" stroke-width="0.5" stroke="black" fill="grey"/>
  <circle cx="913.278" cy="1240.68" r="6.10842" stroke-width="0.5" stroke="grey" fill="grey"/>
   </g>
   <g id="cell35">
  <circle cx="1872.26" cy="207.964" r="8.38682" stroke-width="0.5" stroke="black" fill="grey"/>
  <circle cx="1872.26" cy="207.964" r="5.04258" stroke-width="0.5" stroke="grey" fill="grey"/>
   </g>
   <g id="cell36">
  <circle cx="438.192" cy="1220.17" r="10.2183" stroke-width="0.5" stroke="black" fill="grey"/>
  <circle cx="438.192" cy="1220.17" r="6.18514" stroke-width="0.5" stroke="grey" fill="grey"/>
   </g>
   <g id="cell37">
  <circle cx="1955.78" cy="1310.7" r="10.3991" stroke-width="0.5" stroke="black" fill="grey"/>
  <circle cx="1955.78" cy="1310.7" r="6.27703" stroke-width="0.5" stroke="grey" fill="grey"/>
   </g>
   <g id="cell38">
  <circle cx="520.135" cy="839.573" r="8.68209" stroke-width="0.5" stroke="black" fill="grey"/>
  <circle cx="520.135" cy="839.573" r="5.25184" stroke-width="0.5" stroke="grey" fill="grey"/>
   </g>
   <g id="cell39">
  <circle cx="950.966" cy="461.488" r="8.40494" stroke-width="0.5" stroke="black" fill="grey"/>
  <circle cx="950.966" cy="461.488" r="5.04929" stroke-width="0.5" stroke="grey" fill="grey"/>
   </g>
   <g id="cell40">
  <circle cx="368.245" cy="628.919" r="8.38753" stroke-width="0.5" stroke="black" fill="grey"/>
  <circle cx="368.245" cy="628.919" r="5.04286" stroke-width="0.5" stroke="grey" fill="grey"/>
   </g>
   <g id="cell41">
  <circle cx="1373.29" cy="1324.03" r="10.5012" stroke-width="0.5" stroke="black" fill="grey"/>
  <circle cx="1373.29" cy="1324.03" r="6.32534" stroke-width="0.5" stroke="grey" fill="grey"/>
   </g>
   <g id="cell42">
  <circle cx="270.666" cy="1578.14" r="9.26792" stroke-width="0.5" stroke="black" fill="grey"/>
  <circle cx="270.666" cy="1578.14" r="5.63394" stroke-width="0.5" stroke="grey" fill="grey"/>
   </g>
   <g id="cell43">
  <circle cx="1843.48" cy="683.792" r="8.3784" stroke-width="0.5" stroke="black" fill="grey"/>
  <circle cx="1843.48" cy="683.792" r="5.03921" stroke-width="0.5" stroke="grey" fill="grey"/>
   </g>
   <g id="cell44">
  <circle cx="1589.04" cy="7.59217" r="8.41271" stroke-width="0.5" stroke="black" fill="grey"/>
  <circle cx="1589.04" cy="7.59217" r="5.05167" stroke-width="0.5" stroke="grey" fill="grey"/>
   </g>
   <g id="cell45">
  <circle cx="1216.81" cy="1715.41" r="8.39708" stroke-width="0.5" stroke="black" fill="grey"/>
  <circle cx="1216.81" cy="1715.41" r="5.0465" stroke-width="0.5" stroke="grey" fill="grey"/>
   </g>
   <g id="cell46">
  <circle cx="188.747" cy="1975.86" r="8.39422" stroke-width="0.5" stroke="black" fill="grey"/>
  <circle cx="188.747" cy="1975.86" r="5.04543" stroke-width="0.5" stroke="grey" fill="grey"/>
   </g>
   <g id="cell47">
  <circle cx="1719.78" cy="954.64" r="8.37537" stroke-width="0.5" stroke="black" fill="grey"/>
  <circle cx="1719.78" cy="954.64" r="5.03798" stroke-width="0.5" stroke="grey" fill="grey"/>
   </g>
   <g id="cell48">
  <circle cx="1955.24" cy="179.618" r="8.39523" stroke-width="0.5" stroke="black" fill="grey"/>
  <circle cx="1955.24" cy="179.618" r="5.04581" stroke-width="0.5" stroke="grey" fill="grey"/>
   </g>
   <g id="cell49">
  <circle cx="928.587" cy="1430.1" r="9.04745" stroke-width="0.5" stroke="black" fill="grey"/>
  <circle cx="928.587" cy="1430.1" r="5.49345" stroke-width="0.5" stroke="grey" fill="grey"/>
   </g>
   <g id="cell50">
  <circle cx="50.6321" cy="854.507" r="9.64039" stroke-width="0.5" stroke="black" fill="red"/>
  <circle cx="50.6321" cy="854.507" r="5.86025" stroke-width="0.5" stroke="red" fill="red"/>
   </g>
   <g id="cell51">
  <circle cx="1980.95" cy="245.427" r="8.49726" stroke-width="0.5" stroke="black" fill="red"/>
  <circle cx="1980.95" cy="245.427" r="5.12042" stroke-width="0.5" stroke="red" fill="red"/>
   </g>
   <g id="cell52">
  <circle cx="582.559" cy="933.32" r="10.0441" stroke-width="0.5" stroke="black" fill="red"/>
  <circle cx="582.559" cy="933.32" r="6.091" stroke-width="0.5" stroke="red" fill="red"/>
   </g>
   <g id="cell53">
  <circle cx="1359.86" cy="627.998" r="8.40614" stroke-width="0.5" stroke="black" fill="red"/>
  <circle cx="1359.86" cy="627.998" r="5.0497" stroke-width="0.5" stroke="red" fill="red"/>
   </g>
   <g id="cell99">
  <circle cx="1009.21" cy="1991.44" r="8.49926" stroke-width="0.5" stroke="black" fill="red"/>
  <circle cx="1009.21" cy="1991.44" r="5.12115" stroke-width="0.5" stroke="red" fill="red"/>
   </g>
   <g id="cell55">
  <circle cx="375.403" cy="1336.18" r="10.4613" stroke-width="0.5" stroke="black" fill="red"/>
  <circle cx="375.403" cy="1336.18" r="6.30695" stroke-width="0.5" stroke="red" fill="red"/>
   </g>
   <g id="cell56">
  <circle cx="1096.03" cy="1650.06" r="10.5233" stroke-width="0.5" stroke="black" fill="red"/>
  <circle cx="1096.03" cy="1650.06" r="6.33514" stroke-width="0.5" stroke="red" fill="red"/>
   </g>
   <g id="cell57">
  <circle cx="962.732" cy="1058.73" r="8.38608" stroke-width="0.5" stroke="black" fill="red"/>
  <circle cx="962.732" cy="1058.73" r="5.04229" stroke-width="0.5" stroke="red" fill="red"/>
   </g>
   <g id="cell58">
  <circle cx="170.859" cy="1838.94" r="2.11769" stroke-width="0.5" stroke="black" fill="red"/>
  <circle cx="170.859" cy="1838.94" r="2.06627" stroke-width="0.5" stroke="black" fill="black"/>
   </g>
   <g id="cell59">
  <circle cx="145.803" cy="1839.87" r="10.3084" stroke-width="0.5" stroke="black" fill="red"/>
  <circle cx="145.803" cy="1839.87" r="6.23137" stroke-width="0.5" stroke="red" fill="red"/>
   </g>
   <g id="cell60">
  <circle cx="612.649" cy="64.1137" r="8.38028" stroke-width="0.5" stroke="black" fill="red"/>
  <circle cx="612.649" cy="64.1137" r="5.03997" stroke-width="0.5" stroke="red" fill="red"/>
   </g>
   <g id="cell61">
  <circle cx="1645.24" cy="204.88" r="8.40185" stroke-width="0.5" stroke="black" fill="red"/>
  <circle cx="1645.24" cy="204.88" r="5.04822" stroke-width="0.5" stroke="red" fill="red"/>
   </g>
   <g id="cell62">
  <circle cx="1416.71" cy="1711.81" r="10.4573" stroke-width="0.5" stroke="black" fill="red"/>
  <circle cx="1416.71" cy="1711.81" r="6.30507" stroke-width="0.5" stroke="red" fill="red"/>
   </g>
   <g id="cell63">
  <circle cx="554.024" cy="348.315" r="9.22559" stroke-width="0.5" stroke="black" fill="red"/>
  <circle cx="554.024" cy="348.315" r="5.60923" stroke-width="0.5" stroke="red" fill="red"/>
   </g>
   <g id="cell64">
  <circle cx="1174.12" cy="1049.35" r="8.40494" stroke-width="0.5" stroke="black" fill="red"/>
  <circle cx="1174.12" cy="1049.35" r="5.04929" stroke-width="0.5" stroke="red" fill="red"/>
   </g>
   <g id="cell65">
  <circle cx="332.55" cy="1594.7" r="8.36849" stroke-width="0.5" stroke="black" fill="red"/>
  <circle cx="332.55" cy="1594.7" r="5.03512" stroke-width="0.5" stroke="red" fill="red"/>
   </g>
   <g id="cell66">
  <circle cx="63.7274" cy="242.476" r="10.4489" stroke-width="0.5" stroke="black" fill="red"/>
  <circle cx="63.7274" cy="242.476" r="6.30112" stroke-width="0.5" stroke="red" fill="red"/>
   </g>
   <g id="cell67">
  <circle cx="1098.79" cy="579.652" r="9.39531" stroke-width="0.5" stroke="black" fill="red"/>
  <circle cx="1098.79" cy="579.652" r="5.71454" stroke-width="0.5" stroke="red" fill="red"/>
   </g>
   <g id="cell68">
  <circle cx="1461.07" cy="558.953" r="9.61346" stroke-width="0.5" stroke="black" fill="red"/>
  <circle cx="1461.07" cy="558.953" r="5.84422" stroke-width="0.5" stroke="red" fill="red"/>
   </g>
   <g id="cell69">
  <circle cx="893.256" cy="516.214" r="8.37431" stroke-width="0.5" stroke="black" fill="red"/>
  <circle cx="893.256" cy="516.214" r="5.03754" stroke-width="0.5" stroke="red" fill="red"/>
   </g>
   <g id="cell70">
  <circle cx="1182.63" cy="792.954" r="10.5314" stroke-width="0.5" stroke="black" fill="red"/>
  <circle cx="1182.63" cy="792.954" r="6.33867" stroke-width="0.5" stroke="red" fill="red"/>
   </g>
   <g id="cell71">
  <circle cx="1790.71" cy="1152.18" r="9.87774" stroke-width="0.5" stroke="black" fill="red"/>
  <circle cx="1790.71" cy="1152.18" r="5.99802" stroke-width="0.5" stroke="red" fill="red"/>
   </g>
   <g id="cell72">
  <circle cx="516.036" cy="1802.15" r="8.40715" stroke-width="0.5" stroke="black" fill="red"/>
  <circle cx="516.036" cy="1802.15" r="5.05003" stroke-width="0.5" stroke="red" fill="red"/>
   </g>
   <g id="cell73">
  <circle cx="1363.11" cy="859.332" r="9.22527" stroke-width="0.5" stroke="black" fill="red"/>
  <circle cx="1363.11" cy="859.332" r="5.60911" stroke-width="0.5" stroke="red" fill="red"/>
   </g>
   <g id="cell74">
  <circle cx="1705.2" cy="1937.79" r="10.195" stroke-width="0.5" stroke="black" fill="red"/>
  <circle cx="1705.2" cy="1937.79" r="6.17292" stroke-width="0.5" stroke="red" fill="red"/>
   </g>
   <g id="cell75">
  <circle cx="269.703" cy="570.451" r="2.65838" stroke-width="0.5" stroke="black" fill="red"/>
  <circle cx="269.703" cy="570.451" r="2.48754" stroke-width="0.5" stroke="black" fill="black"/>
   </g>
   <g id="cell76">
  <circle cx="1655.5" cy="842.897" r="9.83484" stroke-width="0.5" stroke="black" fill="red"/>
  <circle cx="1655.5" cy="842.897" r="5.97357" stroke-width="0.5" stroke="red" fill="red"/>
   </g>
   <g id="cell77">
  <circle cx="1336.4" cy="1765.94" r="8.4045" stroke-width="0.5" stroke="black" fill="red"/>
  <circle cx="1336.4" cy="1765.94" r="5.04914" stroke-width="0.5" stroke="red" fill="red"/>
   </g>
   <g id="cell78">
  <circle cx="1102.28" cy="596.968" r="8.3937" stroke-width="0.5" stroke="black" fill="red"/>
  <circle cx="1102.28" cy="596.968" r="5.04523" stroke-width="0.5" stroke="red" fill="red"/>
   </g>
   <g id="cell79">
  <circle cx="1963.94" cy="1397.4" r="8.40215" stroke-width="0.5" stroke="black" fill="red"/>
  <circle cx="1963.94" cy="1397.4" r="5.04833" stroke-width="0.5" stroke="red" fill="red"/>
   </g>
   <g id="cell80">
  <circle cx="1438.86" cy="1329.04" r="8.38028" stroke-width="0.5" stroke="black" fill="red"/>
  <circle cx="1438.86" cy="1329.04" r="5.03997" stroke-width="0.5" stroke="red" fill="red"/>
   </g>
   <g id="cell81">
  <circle cx="1039.77" cy="1916.85" r="8.37431" stroke-width="0.5" stroke="black" fill="red"/>
  <circle cx="1039.77" cy="1916.85" r="5.03754" stroke-width="0.5" stroke="red" fill="red"/>
   </g>
   <g id="cell82">
  <circle cx="1316.26" cy="796.402" r="9.558" stroke-width="0.5" stroke="black" fill="red"/>
  <circle cx="1316.26" cy="796.402" r="5.81091" stroke-width="0.5" stroke="red" fill="red"/>
   </g>
   <g id="cell83">
  <circle cx="1274.21" cy="1200.19" r="8.59661" stroke-width="0.5" stroke="black" fill="red"/>
  <circle cx="1274.21" cy="1200.19" r="5.19451" stroke-width="0.5" stroke="red" fill="red"/>
   </g>
   <g id="cell84">
  <circle cx="48.2632" cy="913.251" r="8.38682" stroke-width="0.5" stroke="black" fill="red"/>
  <circle cx="48.2632" cy="913.251" r="5.04258" stroke-width="0.5" stroke="red" fill="red"/>
   </g>
   <g id="cell85">
  <circle cx="1401.1" cy="1342.12" r="8.3937" stroke-width="0.5" stroke="black" fill="red"/>
  <circle cx="1401.1" cy="1342.12" r="5.04523" stroke-width="0.5" stroke="red" fill="red"/>
   </g>
   <g id="cell86">
  <circle cx="616.636" cy="727.002" r="8.40715" stroke-width="0.5" stroke="black" fill="red"/>
  <circle cx="616.636" cy="727.002" r="5.05003" stroke-width="0.5" stroke="red" fill="red"/>
   </g>
   <g id="cell87">
  <circle cx="1525.76" cy="874.885" r="10.2728" stroke-width="0.5" stroke="black" fill="red"/>
  <circle cx="1525.76" cy="874.885" r="6.21295" stroke-width="0.5" stroke="red" fill="red"/>
   </g>
   <g id="cell88">
  <circle cx="184.035" cy="181.653" r="8.39913" stroke-width="0.5" stroke="black" fill="red"/>
  <circle cx="184.035" cy="181.653" r="5.04725" stroke-width="0.5" stroke="red" fill="red"/>
   </g>
   <g id="cell89">
  <circle cx="197.639" cy="1054.31" r="9.99519" stroke-width="0.5" stroke="black" fill="red"/>
  <circle cx="197.639" cy="1054.31" r="6.06357" stroke-width="0.5" stroke="red" fill="red"/>
   </g>
   <g id="cell134">
  <circle cx="1803.83" cy="1146.93" r="8.4009" stroke-width="0.5" stroke="black" fill="red"/>
  <circle cx="1803.83" cy="1146.93" r="5.04788" stroke-width="0.5" stroke="red" fill="red"/>
   </g>
   <g id="cell91">
  <circle cx="28.833" cy="1306.32" r="1.52812" stroke-width="0.5" stroke="black" fill="red"/>
  <circle cx="28.833" cy="1306.32" r="1.50599" stroke-width="0.5" stroke="black" fill="black"/>
   </g>
   <g id="cell92">
  <circle cx="1313.66" cy="616.996" r="1.61226" stroke-width="0.5" stroke="black" fill="red"/>
  <circle cx="1313.66" cy="616.996" r="1.60337" stroke-width="0.5" stroke="black" fill="black"/>
   </g>
   <g id="cell93">
  <circle cx="409.78" cy="1747.77" r="9.92073" stroke-width="0.5" stroke="black" fill="red"/>
  <circle cx="409.78" cy="1747.77" r="6.02184" stroke-width="0.5" stroke="red" fill="red"/>
   </g>
   <g id="cell94">
  <circle cx="781.433" cy="157.23" r="8.77897" stroke-width="0.5" stroke="black" fill="red"/>
  <circle cx="781.433" cy="157.23" r="5.325" stroke-width="0.5" stroke="red" fill="red"/>
   </g>
   <g id="cell95">
  <circle cx="1990.15" cy="1750.46" r="8.60572" stroke-width="0.5" stroke="black" fill="red"/>
  <circle cx="1990.15" cy="1750.46" r="5.19788" stroke-width="0.5" stroke="red" fill="red"/>
   </g>
   <g id="cell96">
  <circle cx="1593.02" cy="1074.96" r="2.57546" stroke-width="0.5" stroke="black" fill="red"/>
  <circle cx="1593.02" cy="1074.96" r="2.42914" stroke-width="0.5" stroke="black" fill="black"/>
   </g>
   <g id="cell97">
  <circle cx="871.003" cy="184.854" r="9.62199" stroke-width="0.5" stroke="black" fill="red"/>
  <circle cx="871.003" cy="184.854" r="5.8471" stroke-width="0.5" stroke="red" fill="red"/>
   </g>
   <g id="cell98">
  <circle cx="1877.29" cy="674.102" r="10.5117" stroke-width="0.5" stroke="black" fill="red"/>
  <circle cx="1877.29" cy="674.102" r="6.33005" stroke-width="0.5" stroke="red" fill="red"/>
   </g>
   <g id="cell101">
  <circle cx="437.9" cy="1282.35" r="9.90257" stroke-width="0.5" stroke="black" fill="grey"/>
  <circle cx="437.9" cy="1282.35" r="6.01119" stroke-width="0.5" stroke="grey" fill="grey"/>
   </g>
   <g id="cell102">
  <circle cx="602.532" cy="719.971" r="10.1336" stroke-width="0.5" stroke="black" fill="red"/>
  <circle cx="602.532" cy="719.971" r="6.13967" stroke-width="0.5" stroke="red" fill="red"/>
   </g>
   <g id="cell103">
  <circle cx="491.073" cy="1804.75" r="9.74778" stroke-width="0.5" stroke="black" fill="red"/>
  <circle cx="491.073" cy="1804.75" r="5.92212" stroke-width="0.5" stroke="red" fill="red"/>
   </g>
   <g id="cell105">
  <circle cx="726.05" cy="993.6" r="10.2393" stroke-width="0.5" stroke="black" fill="grey"/>
  <circle cx="726.05" cy="993.6" r="6.19627" stroke-width="0.5" stroke="grey" fill="grey"/>
   </g>
   <g id="cell106">
  <circle cx="258.45" cy="1559.42" r="9.50057" stroke-width="0.5" stroke="black" fill="grey"/>
  <circle cx="258.45" cy="1559.42" r="5.77592" stroke-width="0.5" stroke="grey" fill="grey"/>
   </g>
   <g id="cell107">
  <circle cx="1824.04" cy="1487.74" r="10.1464" stroke-width="0.5" stroke="black" fill="grey"/>
  <circle cx="1824.04" cy="1487.74" r="6.14671" stroke-width="0.5" stroke="grey" fill="grey"/>
   </g>
   <g id="cell108">
  <circle cx="624.015" cy="1197.74" r="10.1838" stroke-width="0.5" stroke="black" fill="grey"/>
  <circle cx="624.015" cy="1197.74" r="6.16681" stroke-width="0.5" stroke="grey" fill="grey"/>
   </g>
   <g id="cell109">
  <circle cx="1151.45" cy="231.242" r="8.4065" stroke-width="0.5" stroke="black" fill="grey"/>
  <circle cx="1151.45" cy="231.242" r="5.04982" stroke-width="0.5" stroke="grey" fill="grey"/>
   </g>
   <g id="cell110">
  <circle cx="1304.62" cy="1359.22" r="8.53852" stroke-width="0.5" stroke="black" fill="grey"/>
  <circle cx="1304.62" cy="1359.22" r="5.14764" stroke-width="0.5" stroke="grey" fill="grey"/>
   </g>
   <g id="cell111">
  <circle cx="1635.98" cy="1070.12" r="10.159" stroke-width="0.5" stroke="black" fill="grey"/>
  <circle cx="1635.98" cy="1070.12" r="6.15355" stroke-width="0.5" stroke="grey" fill="grey"/>
   </g>
   <g id="cell112">
  <circle cx="203.985" cy="1086.66" r="9.64437" stroke-width="0.5" stroke="black" fill="red"/>
  <circle cx="203.985" cy="1086.66" r="5.86169" stroke-width="0.5" stroke="red" fill="red"/>
   </g>
   <g id="cell113">
  <circle cx="1315.59" cy="606.514" r="9.61697" stroke-width="0.5" stroke="black" fill="red"/>
  <circle cx="1315.59" cy="606.514" r="5.84549" stroke-width="0.5" stroke="red" fill="red"/>
   </g>
   <g id="cell114">
  <circle cx="902.087" cy="1250.6" r="9.40483" stroke-width="0.5" stroke="black" fill="grey"/>
  <circle cx="902.087" cy="1250.6" r="5.71811" stroke-width="0.5" stroke="grey" fill="grey"/>
   </g>
   <g id="cell115">
  <circle cx="1705.34" cy="1958.93" r="8.40596" stroke-width="0.5" stroke="black" fill="red"/>
  <circle cx="1705.34" cy="1958.93" r="5.04964" stroke-width="0.5" stroke="red" fill="red"/>
   </g>
   <g id="cell116">
  <circle cx="1885.51" cy="1337.55" r="10.0446" stroke-width="0.5" stroke="black" fill="grey"/>
  <circle cx="1885.51" cy="1337.55" r="6.09115" stroke-width="0.5" stroke="grey" fill="grey"/>
   </g>
   <g id="cell117">
  <circle cx="480.954" cy="850.402" r="8.84086" stroke-width="0.5" stroke="black" fill="grey"/>
  <circle cx="480.954" cy="850.402" r="5.36049" stroke-width="0.5" stroke="grey" fill="grey"/>
   </g>
   <g id="cell118">
  <circle cx="970.115" cy="429.847" r="8.40494" stroke-width="0.5" stroke="black" fill="grey"/>
  <circle cx="970.115" cy="429.847" r="5.04929" stroke-width="0.5" stroke="grey" fill="grey"/>
   </g>
   <g id="cell119">
  <circle cx="1138.1" cy="1038.42" r="8.40494" stroke-width="0.5" stroke="black" fill="red"/>
  <circle cx="1138.1" cy="1038.42" r="5.04929" stroke-width="0.5" stroke="red" fill="red"/>
   </g>
   <g id="cell120">
  <circle cx="448.675" cy="1796.27" r="9.64346" stroke-width="0.5" stroke="black" fill="red"/>
  <circle cx="448.675" cy="1796.27" r="5.86137" stroke-width="0.5" stroke="red" fill="red"/>
   </g>
   <g id="cell121">
  <circle cx="582.048" cy="916.883" r="8.40472" stroke-width="0.5" stroke="black" fill="red"/>
  <circle cx="582.048" cy="916.883" r="5.04922" stroke-width="0.5" stroke="red" fill="red"/>
   </g>
   <g id="cell122">
  <circle cx="1334.49" cy="1743.88" r="2.04738" stroke-width="0.5" stroke="black" fill="red"/>
  <circle cx="1334.49" cy="1743.88" r="1.93066" stroke-width="0.5" stroke="black" fill="black"/>
   </g>
   <g id="cell123">
  <circle cx="180.457" cy="1443.17" r="9.69566" stroke-width="0.5" stroke="black" fill="grey"/>
  <circle cx="180.457" cy="1443.17" r="5.89218" stroke-width="0.5" stroke="grey" fill="grey"/>
   </g>
   <g id="cell124">
  <circle cx="1966.85" cy="1708.66" r="9.85893" stroke-width="0.5" stroke="black" fill="red"/>
  <circle cx="1966.85" cy="1708.66" r="5.98684" stroke-width="0.5" stroke="red" fill="red"/>
   </g>
   <g id="cell125">
  <circle cx="1270.34" cy="779.081" r="8.92015" stroke-width="0.5" stroke="black" fill="red"/>
  <circle cx="1270.34" cy="779.081" r="5.41339" stroke-width="0.5" stroke="red" fill="red"/>
   </g>
   <g id="cell126">
  <circle cx="1379.46" cy="193.518" r="2.3812" stroke-width="0.5" stroke="black" fill="grey"/>
  <circle cx="1379.46" cy="193.518" r="2.14881" stroke-width="0.5" stroke="black" fill="black"/>
   </g>
   <g id="cell127">
  <circle cx="1805.66" cy="1981.23" r="8.40244" stroke-width="0.5" stroke="black" fill="grey"/>
  <circle cx="1805.66" cy="1981.23" r="5.04843" stroke-width="0.5" stroke="grey" fill="grey"/>
   </g>
   <g id="cell128">
  <circle cx="1931.73" cy="1376.34" r="8.75808" stroke-width="0.5" stroke="black" fill="red"/>
  <circle cx="1931.73" cy="1376.34" r="5.30533" stroke-width="0.5" stroke="red" fill="red"/>
   </g>
   <g id="cell129">
  <circle cx="1675.61" cy="208.194" r="2.11259" stroke-width="0.5" stroke="black" fill="red"/>
  <circle cx="1675.61" cy="208.194" r="1.97648" stroke-width="0.5" stroke="black" fill="black"/>
   </g>
   <g id="cell130">
  <circle cx="1447.91" cy="598.43" r="9.76762" stroke-width="0.5" stroke="black" fill="red"/>
  <circle cx="1447.91" cy="598.43" r="5.93458" stroke-width="0.5" stroke="red" fill="red"/>
   </g>
   <g id="cell131">
  <circle cx="639.398" cy="1221.57" r="8.40123" stroke-width="0.5" stroke="black" fill="grey"/>
  <circle cx="639.398" cy="1221.57" r="5.048" stroke-width="0.5" stroke="grey" fill="grey"/>
   </g>
   <g id="cell132">
  <circle cx="1367.87" cy="876.996" r="9.43344" stroke-width="0.5" stroke="black" fill="grey"/>
  <circle cx="1367.87" cy="876.996" r="5.73644" stroke-width="0.5" stroke="grey" fill="grey"/>
   </g>
   <g id="cell133">
  <circle cx="98.2347" cy="821.645" r="8.4009" stroke-width="0.5" stroke="black" fill="red"/>
  <circle cx="98.2347" cy="821.645" r="5.04788" stroke-width="0.5" stroke="red" fill="red"/>
   </g>
   <g id="cell135">
  <circle cx="701.618" cy="293.976" r="8.40022" stroke-width="0.5" stroke="black" fill="grey"/>
  <circle cx="701.618" cy="293.976" r="5.04764" stroke-width="0.5" stroke="grey" fill="grey"/>
   </g>
   <g id="cell136">
  <circle cx="1672.83" cy="874.486" r="8.40022" stroke-width="0.5" stroke="black" fill="red"/>
  <circle cx="1672.83" cy="874.486" r="5.04764" stroke-width="0.5" stroke="red" fill="red"/>
   </g>
   <g id="cell137">
  <circle cx="1130.09" cy="797.701" r="9.46418" stroke-width="0.5" stroke="black" fill="grey"/>
  <circle cx="1130.09" cy="797.701" r="5.75527" stroke-width="0.5" stroke="grey" fill="grey"/>
   </g>
   <g id="cell138">
  <circle cx="969.297" cy="1965.51" r="9.63904" stroke-width="0.5" stroke="black" fill="red"/>
  <circle cx="969.297" cy="1965.51" r="5.85975" stroke-width="0.5" stroke="red" fill="red"/>
   </g>
   <g id="cell139">
  <circle cx="582.612" cy="338.015" r="8.39913" stroke-width="0.5" stroke="black" fill="red"/>
  <circle cx="582.612" cy="338.015" r="5.04725" stroke-width="0.5" stroke="red" fill="red"/>
   </g>
   <g id="cell140">
  <circle cx="213.852" cy="184.556" r="8.79533" stroke-width="0.5" stroke="black" fill="red"/>
  <circle cx="213.852" cy="184.556" r="5.33149" stroke-width="0.5" stroke="red" fill="red"/>
   </g>
   <g id="cell141">
  <circle cx="1325.34" cy="871.397" r="8.39874" stroke-width="0.5" stroke="black" fill="red"/>
  <circle cx="1325.34" cy="871.397" r="5.04711" stroke-width="0.5" stroke="red" fill="red"/>
   </g>
   <g id="cell142">
  <circle cx="1977.45" cy="212.35" r="2.9713" stroke-width="0.5" stroke="black" fill="red"/>
  <circle cx="1977.45" cy="212.35" r="2.45322" stroke-width="0.5" stroke="black" fill="black"/>
   </g>
   <g id="cell143">
  <circle cx="1200.65" cy="431.14" r="9.49307" stroke-width="0.5" stroke="black" fill="grey"/>
  <circle cx="1200.65" cy="431.14" r="5.77315" stroke-width="0.5" stroke="grey" fill="grey"/>
   </g>
   <g id="cell144">
  <circle cx="1238.15" cy="1709.17" r="8.39708" stroke-width="0.5" stroke="black" fill="grey"/>
  <circle cx="1238.15" cy="1709.17" r="5.0465" stroke-width="0.5" stroke="grey" fill="grey"/>
   </g>
   <g id="cell145">
  <circle cx="1907.77" cy="142.349" r="8.39523" stroke-width="0.5" stroke="black" fill="grey"/>
  <circle cx="1907.77" cy="142.349" r="5.04581" stroke-width="0.5" stroke="grey" fill="grey"/>
   </g>
   <g id="cell146">
  <circle cx="563.906" cy="405.889" r="8.39473" stroke-width="0.5" stroke="black" fill="grey"/>
  <circle cx="563.906" cy="405.889" r="5.04562" stroke-width="0.5" stroke="grey" fill="grey"/>
   </g>
   <g id="cell147">
  <circle cx="1396.56" cy="381.075" r="8.39422" stroke-width="0.5" stroke="black" fill="grey"/>
  <circle cx="1396.56" cy="381.075" r="5.04543" stroke-width="0.5" stroke="grey" fill="grey"/>
   </g>
   <g id="cell148">
  <circle cx="1316.58" cy="1203.9" r="9.42789" stroke-width="0.5" stroke="black" fill="red"/>
  <circle cx="1316.58" cy="1203.9" r="5.73431" stroke-width="0.5" stroke="red" fill="red"/>
   </g>
   <g id="cell149">
  <circle cx="223.58" cy="1992.24" r="8.39422" stroke-width="0.5" stroke="black" fill="grey"/>
  <circle cx="223.58" cy="1992.24" r="5.04543" stroke-width="0.5" stroke="grey" fill="grey"/>
   </g>
   <g id="cell150">
  <circle cx="1103.68" cy="538.995" r="8.39422" stroke-width="0.5" stroke="black" fill="red"/>
  <circle cx="1103.68" cy="538.995" r="5.04543" stroke-width="0.5" stroke="red" fill="red"/>
   </g>
   <g id="cell151">
  <circle cx="1113.87" cy="565.711" r="8.41358" stroke-width="0.5" stroke="black" fill="red"/>
  <circle cx="1113.87" cy="565.711" r="5.05912" stroke-width="0.5" stroke="red" fill="red"/>
   </g>
   <g id="cell152">
  <circle cx="1396.1" cy="1362.71" r="8.59611" stroke-width="0.5" stroke="black" fill="red"/>
  <circle cx="1396.1" cy="1362.71" r="5.19432" stroke-width="0.5" stroke="red" fill="red"/>
   </g>
   <g id="cell153">
  <circle cx="1503.66" cy="919.946" r="8.38823" stroke-width="0.5" stroke="black" fill="grey"/>
  <circle cx="1503.66" cy="919.946" r="5.04313" stroke-width="0.5" stroke="grey" fill="grey"/>
   </g>
   <g id="cell154">
  <circle cx="340.132" cy="605.046" r="9.06485" stroke-width="0.5" stroke="black" fill="grey"/>
  <circle cx="340.132" cy="605.046" r="5.51041" stroke-width="0.5" stroke="grey" fill="grey"/>
   </g>
   <g id="cell155">
  <circle cx="1890.04" cy="231.221" r="9.06423" stroke-width="0.5" stroke="black" fill="grey"/>
  <circle cx="1890.04" cy="231.221" r="5.51016" stroke-width="0.5" stroke="grey" fill="grey"/>
   </g>
   <g id="cell156">
  <circle cx="35.2472" cy="921.473" r="8.38682" stroke-width="0.5" stroke="black" fill="red"/>
  <circle cx="35.2472" cy="921.473" r="5.04258" stroke-width="0.5" stroke="red" fill="red"/>
   </g>
   <g id="cell157">
  <circle cx="975.976" cy="1078.45" r="8.38608" stroke-width="0.5" stroke="black" fill="red"/>
  <circle cx="975.976" cy="1078.45" r="5.04229" stroke-width="0.5" stroke="red" fill="red"/>
   </g>
   <g id="cell158">
  <circle cx="753.138" cy="180.265" r="8.38118" stroke-width="0.5" stroke="black" fill="red"/>
  <circle cx="753.138" cy="180.265" r="5.04034" stroke-width="0.5" stroke="red" fill="red"/>
   </g>
   <g id="cell159">
  <circle cx="607.019" cy="50.0532" r="8.38028" stroke-width="0.5" stroke="black" fill="red"/>
  <circle cx="607.019" cy="50.0532" r="5.03997" stroke-width="0.5" stroke="red" fill="red"/>
   </g>
   <g id="cell160">
  <circle cx="1414.04" cy="1294.79" r="8.69817" stroke-width="0.5" stroke="black" fill="red"/>
  <circle cx="1414.04" cy="1294.79" r="5.27011" stroke-width="0.5" stroke="red" fill="red"/>
   </g>
   <g id="cell161">
  <circle cx="1658.8" cy="155.29" r="8.38028" stroke-width="0.5" stroke="black" fill="grey"/>
  <circle cx="1658.8" cy="155.29" r="5.03997" stroke-width="0.5" stroke="grey" fill="grey"/>
   </g>
   <g id="cell162">
  <circle cx="1553.37" cy="298.088" r="8.38028" stroke-width="0.5" stroke="black" fill="grey"/>
  <circle cx="1553.37" cy="298.088" r="5.03997" stroke-width="0.5" stroke="grey" fill="grey"/>
   </g>
   <g id="cell163">
  <circle cx="1735.06" cy="1212.42" r="8.3784" stroke-width="0.5" stroke="black" fill="grey"/>
  <circle cx="1735.06" cy="1212.42" r="5.03921" stroke-width="0.5" stroke="grey" fill="grey"/>
   </g>
   <g id="cell164">
  <circle cx="1847.69" cy="726.474" r="8.3784" stroke-width="0.5" stroke="black" fill="grey"/>
  <circle cx="1847.69" cy="726.474" r="5.03921" stroke-width="0.5" stroke="grey" fill="grey"/>
   </g>
   <g id="cell165">
  <circle cx="1518.98" cy="1561.74" r="8.37641" stroke-width="0.5" stroke="black" fill="grey"/>
  <circle cx="1518.98" cy="1561.74" r="5.0384" stroke-width="0.5" stroke="grey" fill="grey"/>
   </g>
   <g id="cell166">
  <circle cx="1699.58" cy="964.016" r="8.37537" stroke-width="0.5" stroke="black" fill="grey"/>
  <circle cx="1699.58" cy="964.016" r="5.03798" stroke-width="0.5" stroke="grey" fill="grey"/>
   </g>
   <g id="cell167">
  <circle cx="891.444" cy="497.911" r="8.37431" stroke-width="0.5" stroke="black" fill="red"/>
  <circle cx="891.444" cy="497.911" r="5.03754" stroke-width="0.5" stroke="red" fill="red"/>
   </g>
   <g id="cell168">
  <circle cx="1130.1" cy="286.837" r="8.37431" stroke-width="0.5" stroke="black" fill="grey"/>
  <circle cx="1130.1" cy="286.837" r="5.03754" stroke-width="0.5" stroke="grey" fill="grey"/>
   </g>
   <g id="cell169">
  <circle cx="1025.38" cy="1901.07" r="8.37431" stroke-width="0.5" stroke="black" fill="red"/>
  <circle cx="1025.38" cy="1901.07" r="5.03754" stroke-width="0.5" stroke="red" fill="red"/>
   </g>
   <g id="cell170">
  <circle cx="193.974" cy="877.043" r="8.37321" stroke-width="0.5" stroke="black" fill="grey"/>
  <circle cx="193.974" cy="877.043" r="5.03708" stroke-width="0.5" stroke="grey" fill="grey"/>
   </g>
   <g id="cell171">
  <circle cx="883.794" cy="529.824" r="8.36972" stroke-width="0.5" stroke="black" fill="grey"/>
  <circle cx="883.794" cy="529.824" r="5.03563" stroke-width="0.5" stroke="grey" fill="grey"/>
   </g>
   <g id="cell172">
  <circle cx="325.768" cy="1610.25" r="8.36849" stroke-width="0.5" stroke="black" fill="red"/>
  <circle cx="325.768" cy="1610.25" r="5.03512" stroke-width="0.5" stroke="red" fill="red"/>
   </g>
   <g id="cell173">
  <circle cx="650.147" cy="1160.93" r="8.36592" stroke-width="0.5" stroke="black" fill="grey"/>
  <circle cx="650.147" cy="1160.93" r="5.03403" stroke-width="0.5" stroke="grey" fill="grey"/>
   </g>
   <g id="cell174">
  <circle cx="708.861" cy="1884.5" r="8.36592" stroke-width="0.5" stroke="black" fill="grey"/>
  <circle cx="708.861" cy="1884.5" r="5.03403" stroke-width="0.5" stroke="grey" fill="grey"/>
   </g>
  </g>
 </g>
  <rect x="1750" y="2070" width="200" height="20" stroke-width="4" stroke="rgb(255,255,255)" fill="rgb(0,0,0)"/>
  <text x="1762.5" y="2057.5"
   font-family="Arial" font-size="50" fill="black" >
   200 &#956;m
  </text>
  <text x="50" y="2090"
   font-family="Arial" font-size="37.5" fill="black" >
   0 days, 0 hours, 0 minutes, and 31.5743 seconds
  </text>
  <rect x="0" y="140" width="2000" height="2000" stroke-width="4" stroke="rgb(0,0,0)" fill="none"/>
</svg>
