<?xml version="1.0" encoding="UTF-8" standalone="no"?>
<!-- Created with PhysiCell (http://PhysiCell.MathCancer.org/) -->
<svg 
 xmlns:dc="http://purl.org/dc/elements/1.1/" 
 xmlns:cc="http://creativecommons.org/ns#" 
 xmlns:rdf="http://www.w3.org/1999/02/22-rdf-syntax-ns#" 
 xmlns:svg="http://www.w3.org/2000/svg" 
 xmlns="http://www.w3.org/2000/svg" 
 version="1.1" 
 width="2000" 
 height="2140" 
 id="svg2">
  <rect x="0" y="0" width="2000" height="2140" stroke-width="4" stroke="white" fill="white"/>
  <text x="25" y="60"
   font-family="Arial" font-size="50" fill="black" >
   Current time: 0 days, 13 hours, and 20.00 minutes, z = 0.00 &#956;m
  </text>
  <text x="25" y="115"
   font-family="Arial" font-size="47.5" fill="black" >
   86 agents
  </text>
 <g id="tissue" 
    transform="translate(0,2140) scale(1,-1)">
  <g id="ECM">
  </g>
  <g id="cells">
   <g id="cell0">
  <circle cx="1078.66" cy="1165.88" r="10.3247" stroke-width="0.5" stroke="black" fill="grey"/>
  <circle cx="1078.66" cy="1165.88" r="6.23971" stroke-width="0.5" stroke="grey" fill="grey"/>
   </g>
   <g id="cell1">
  <circle cx="1686.02" cy="1201.33" r="2.30099" stroke-width="0.5" stroke="black" fill="grey"/>
  <circle cx="1686.02" cy="1201.33" r="2.10017" stroke-width="0.5" stroke="black" fill="black"/>
   </g>
   <g id="cell2">
  <circle cx="1085.17" cy="1722.26" r="3.88002" stroke-width="0.5" stroke="black" fill="grey"/>
  <circle cx="1085.17" cy="1722.26" r="3.08604" stroke-width="0.5" stroke="black" fill="black"/>
   </g>
   <g id="cell3">
  <circle cx="1238.66" cy="1328.45" r="10.483" stroke-width="0.5" stroke="black" fill="grey"/>
  <circle cx="1238.66" cy="1328.45" r="6.31703" stroke-width="0.5" stroke="grey" fill="grey"/>
   </g>
   <g id="cell92">
  <circle cx="1286.42" cy="605.492" r="10.5295" stroke-width="0.5" stroke="black" fill="red"/>
  <circle cx="1286.42" cy="605.492" r="6.33783" stroke-width="0.5" stroke="red" fill="red"/>
   </g>
   <g id="cell5">
  <circle cx="104.936" cy="1977.32" r="8.41271" stroke-width="0.5" stroke="black" fill="grey"/>
  <circle cx="104.936" cy="1977.32" r="5.05167" stroke-width="0.5" stroke="grey" fill="grey"/>
   </g>
   <g id="cell6">
  <circle cx="764.197" cy="962.468" r="6.40976" stroke-width="0.5" stroke="black" fill="grey"/>
  <circle cx="764.197" cy="962.468" r="4.24703" stroke-width="0.5" stroke="black" fill="black"/>
   </g>
   <g id="cell7">
  <circle cx="1618.4" cy="1062.14" r="8.54454" stroke-width="0.5" stroke="black" fill="grey"/>
  <circle cx="1618.4" cy="1062.14" r="5.14947" stroke-width="0.5" stroke="grey" fill="grey"/>
   </g>
   <g id="cell8">
  <circle cx="1141.86" cy="780.703" r="10.5275" stroke-width="0.5" stroke="black" fill="grey"/>
  <circle cx="1141.86" cy="780.703" r="6.33696" stroke-width="0.5" stroke="grey" fill="grey"/>
   </g>
   <g id="cell9">
  <circle cx="1662.9" cy="159.749" r="1.76957" stroke-width="0.5" stroke="black" fill="grey"/>
  <circle cx="1662.9" cy="159.749" r="1.71615" stroke-width="0.5" stroke="black" fill="black"/>
   </g>
   <g id="cell10">
  <circle cx="131.058" cy="1309.42" r="1.6312" stroke-width="0.5" stroke="black" fill="grey"/>
  <circle cx="131.058" cy="1309.42" r="1.59812" stroke-width="0.5" stroke="black" fill="black"/>
   </g>
   <g id="cell11">
  <circle cx="773.771" cy="1666.64" r="3.00418" stroke-width="0.5" stroke="black" fill="grey"/>
  <circle cx="773.771" cy="1666.64" r="2.58653" stroke-width="0.5" stroke="black" fill="black"/>
   </g>
   <g id="cell12">
  <circle cx="1568.9" cy="193.26" r="8.04525" stroke-width="0.5" stroke="black" fill="grey"/>
  <circle cx="1568.9" cy="193.26" r="5.00787" stroke-width="0.5" stroke="black" fill="black"/>
   </g>
   <g id="cell96">
  <circle cx="1548.57" cy="1072.9" r="10.5387" stroke-width="0.5" stroke="black" fill="red"/>
  <circle cx="1548.57" cy="1072.9" r="6.34177" stroke-width="0.5" stroke="red" fill="red"/>
   </g>
   <g id="cell14">
  <circle cx="1553.78" cy="1633.43" r="8.96831" stroke-width="0.5" stroke="black" fill="grey"/>
  <circle cx="1553.78" cy="1633.43" r="5.44228" stroke-width="0.5" stroke="grey" fill="grey"/>
   </g>
   <g id="cell98">
  <circle cx="1884.27" cy="693.94" r="10.5352" stroke-width="0.5" stroke="black" fill="red"/>
  <circle cx="1884.27" cy="693.94" r="6.34027" stroke-width="0.5" stroke="red" fill="red"/>
   </g>
   <g id="cell95">
  <circle cx="1974.36" cy="1817.79" r="10.4307" stroke-width="0.5" stroke="black" fill="red"/>
  <circle cx="1974.36" cy="1817.79" r="6.29241" stroke-width="0.5" stroke="red" fill="red"/>
   </g>
   <g id="cell94">
  <circle cx="743.081" cy="222.553" r="8.36592" stroke-width="0.5" stroke="black" fill="red"/>
  <circle cx="743.081" cy="222.553" r="5.03403" stroke-width="0.5" stroke="red" fill="red"/>
   </g>
   <g id="cell18">
  <circle cx="1895.2" cy="1505.44" r="1.91454" stroke-width="0.5" stroke="black" fill="grey"/>
  <circle cx="1895.2" cy="1505.44" r="1.8857" stroke-width="0.5" stroke="black" fill="black"/>
   </g>
   <g id="cell19">
  <circle cx="187.929" cy="808.057" r="8.41271" stroke-width="0.5" stroke="black" fill="grey"/>
  <circle cx="187.929" cy="808.057" r="5.05167" stroke-width="0.5" stroke="grey" fill="grey"/>
   </g>
   <g id="cell20">
  <circle cx="506.936" cy="366.041" r="1.95777" stroke-width="0.5" stroke="black" fill="grey"/>
  <circle cx="506.936" cy="366.041" r="1.86492" stroke-width="0.5" stroke="black" fill="black"/>
   </g>
   <g id="cell21">
  <circle cx="1485.56" cy="920.913" r="2.03518" stroke-width="0.5" stroke="black" fill="grey"/>
  <circle cx="1485.56" cy="920.913" r="1.98363" stroke-width="0.5" stroke="black" fill="black"/>
   </g>
   <g id="cell22">
  <circle cx="1142.7" cy="295.776" r="3.45715" stroke-width="0.5" stroke="black" fill="grey"/>
  <circle cx="1142.7" cy="295.776" r="2.66266" stroke-width="0.5" stroke="black" fill="black"/>
   </g>
   <g id="cell90">
  <circle cx="1182.64" cy="1081.33" r="9.98223" stroke-width="0.5" stroke="black" fill="red"/>
  <circle cx="1182.64" cy="1081.33" r="6.05517" stroke-width="0.5" stroke="red" fill="red"/>
   </g>
   <g id="cell24">
  <circle cx="1238.02" cy="431.104" r="2.80111" stroke-width="0.5" stroke="black" fill="grey"/>
  <circle cx="1238.02" cy="431.104" r="2.55123" stroke-width="0.5" stroke="black" fill="black"/>
   </g>
   <g id="cell25">
  <circle cx="764.596" cy="1856.02" r="10.537" stroke-width="0.5" stroke="black" fill="grey"/>
  <circle cx="764.596" cy="1856.02" r="6.34103" stroke-width="0.5" stroke="grey" fill="grey"/>
   </g>
   <g id="cell93">
  <circle cx="463.877" cy="1811.01" r="8.36592" stroke-width="0.5" stroke="black" fill="red"/>
  <circle cx="463.877" cy="1811.01" r="5.03403" stroke-width="0.5" stroke="red" fill="red"/>
   </g>
   <g id="cell27">
  <circle cx="1238.77" cy="850.47" r="1.45331" stroke-width="0.5" stroke="black" fill="grey"/>
  <circle cx="1238.77" cy="850.47" r="1.44818" stroke-width="0.5" stroke="black" fill="black"/>
   </g>
   <g id="cell89">
  <circle cx="210.516" cy="1169.44" r="10.4102" stroke-width="0.5" stroke="black" fill="red"/>
  <circle cx="210.516" cy="1169.44" r="6.2825" stroke-width="0.5" stroke="red" fill="red"/>
   </g>
   <g id="cell29">
  <circle cx="1907.52" cy="1314.61" r="10.1238" stroke-width="0.5" stroke="black" fill="grey"/>
  <circle cx="1907.52" cy="1314.61" r="6.13347" stroke-width="0.5" stroke="grey" fill="grey"/>
   </g>
   <g id="cell30">
  <circle cx="1366.18" cy="314.534" r="7.53094" stroke-width="0.5" stroke="black" fill="grey"/>
  <circle cx="1366.18" cy="314.534" r="4.73101" stroke-width="0.5" stroke="black" fill="black"/>
   </g>
   <g id="cell31">
  <circle cx="758.339" cy="248.38" r="10.5066" stroke-width="0.5" stroke="black" fill="grey"/>
  <circle cx="758.339" cy="248.38" r="6.32777" stroke-width="0.5" stroke="grey" fill="grey"/>
   </g>
   <g id="cell86">
  <circle cx="573.021" cy="792.33" r="9.30826" stroke-width="0.5" stroke="black" fill="red"/>
  <circle cx="573.021" cy="792.33" r="5.65742" stroke-width="0.5" stroke="red" fill="red"/>
   </g>
   <g id="cell88">
  <circle cx="250.078" cy="199.91" r="10.4307" stroke-width="0.5" stroke="black" fill="red"/>
  <circle cx="250.078" cy="199.91" r="6.29241" stroke-width="0.5" stroke="red" fill="red"/>
   </g>
   <g id="cell34">
  <circle cx="892.533" cy="1280.93" r="1.58773" stroke-width="0.5" stroke="black" fill="grey"/>
  <circle cx="892.533" cy="1280.93" r="1.57085" stroke-width="0.5" stroke="black" fill="black"/>
   </g>
   <g id="cell91">
  <circle cx="80.7635" cy="1309.13" r="10.5211" stroke-width="0.5" stroke="black" fill="red"/>
  <circle cx="80.7635" cy="1309.13" r="6.33419" stroke-width="0.5" stroke="red" fill="red"/>
   </g>
   <g id="cell87">
  <circle cx="1445.62" cy="825.981" r="10.5295" stroke-width="0.5" stroke="black" fill="red"/>
  <circle cx="1445.62" cy="825.981" r="6.33783" stroke-width="0.5" stroke="red" fill="red"/>
   </g>
   <g id="cell37">
  <circle cx="1979.36" cy="1313.64" r="2.24838" stroke-width="0.5" stroke="black" fill="grey"/>
  <circle cx="1979.36" cy="1313.64" r="2.17314" stroke-width="0.5" stroke="black" fill="black"/>
   </g>
   <g id="cell38">
  <circle cx="482.131" cy="820.979" r="2.73763" stroke-width="0.5" stroke="black" fill="grey"/>
  <circle cx="482.131" cy="820.979" r="2.5308" stroke-width="0.5" stroke="black" fill="black"/>
   </g>
   <g id="cell39">
  <circle cx="941.484" cy="493.613" r="8.84788" stroke-width="0.5" stroke="black" fill="grey"/>
  <circle cx="941.484" cy="493.613" r="5.36278" stroke-width="0.5" stroke="grey" fill="grey"/>
   </g>
   <g id="cell40">
  <circle cx="330.083" cy="696.086" r="10.4573" stroke-width="0.5" stroke="black" fill="grey"/>
  <circle cx="330.083" cy="696.086" r="6.30507" stroke-width="0.5" stroke="grey" fill="grey"/>
   </g>
   <g id="cell41">
  <circle cx="1338.88" cy="1280.85" r="2.55093" stroke-width="0.5" stroke="black" fill="grey"/>
  <circle cx="1338.88" cy="1280.85" r="2.40779" stroke-width="0.5" stroke="black" fill="black"/>
   </g>
   <g id="cell42">
  <circle cx="302.177" cy="1559.02" r="5.48903" stroke-width="0.5" stroke="black" fill="grey"/>
  <circle cx="302.177" cy="1559.02" r="3.73088" stroke-width="0.5" stroke="black" fill="black"/>
   </g>
   <g id="cell84">
  <circle cx="14.282" cy="952.652" r="10.3545" stroke-width="0.5" stroke="black" fill="red"/>
  <circle cx="14.282" cy="952.652" r="6.25485" stroke-width="0.5" stroke="red" fill="red"/>
   </g>
   <g id="cell85">
  <circle cx="1418.75" cy="1305.89" r="10.4156" stroke-width="0.5" stroke="black" fill="red"/>
  <circle cx="1418.75" cy="1305.89" r="6.2851" stroke-width="0.5" stroke="red" fill="red"/>
   </g>
   <g id="cell45">
  <circle cx="1262.55" cy="1672.15" r="1.49361" stroke-width="0.5" stroke="black" fill="grey"/>
  <circle cx="1262.55" cy="1672.15" r="1.48384" stroke-width="0.5" stroke="black" fill="black"/>
   </g>
   <g id="cell46">
  <circle cx="171.458" cy="1918.41" r="8.41271" stroke-width="0.5" stroke="black" fill="grey"/>
  <circle cx="171.458" cy="1918.41" r="5.05167" stroke-width="0.5" stroke="grey" fill="grey"/>
   </g>
   <g id="cell47">
  <circle cx="1783.83" cy="915.755" r="8.41271" stroke-width="0.5" stroke="black" fill="grey"/>
  <circle cx="1783.83" cy="915.755" r="5.05167" stroke-width="0.5" stroke="grey" fill="grey"/>
   </g>
   <g id="cell97">
  <circle cx="876.865" cy="210.652" r="10.3325" stroke-width="0.5" stroke="black" fill="red"/>
  <circle cx="876.865" cy="210.652" r="6.24369" stroke-width="0.5" stroke="red" fill="red"/>
   </g>
   <g id="cell49">
  <circle cx="916.039" cy="1493.1" r="1.25143" stroke-width="0.5" stroke="black" fill="grey"/>
  <circle cx="916.039" cy="1493.1" r="1.24538" stroke-width="0.5" stroke="black" fill="black"/>
   </g>
   <g id="cell50">
  <circle cx="73.6031" cy="832.785" r="10.537" stroke-width="0.5" stroke="black" fill="red"/>
  <circle cx="73.6031" cy="832.785" r="6.34103" stroke-width="0.5" stroke="red" fill="red"/>
   </g>
   <g id="cell51">
  <circle cx="1914.71" cy="229.085" r="10.5254" stroke-width="0.5" stroke="black" fill="red"/>
  <circle cx="1914.71" cy="229.085" r="6.33607" stroke-width="0.5" stroke="red" fill="red"/>
   </g>
   <g id="cell52">
  <circle cx="569.221" cy="948.95" r="10.5066" stroke-width="0.5" stroke="black" fill="red"/>
  <circle cx="569.221" cy="948.95" r="6.32777" stroke-width="0.5" stroke="red" fill="red"/>
   </g>
   <g id="cell53">
  <circle cx="1334.81" cy="624.558" r="10.3325" stroke-width="0.5" stroke="black" fill="red"/>
  <circle cx="1334.81" cy="624.558" r="6.24369" stroke-width="0.5" stroke="red" fill="red"/>
   </g>
   <g id="cell54">
  <circle cx="815.646" cy="1876.14" r="10.5066" stroke-width="0.5" stroke="black" fill="red"/>
  <circle cx="815.646" cy="1876.14" r="6.32777" stroke-width="0.5" stroke="red" fill="red"/>
   </g>
   <g id="cell55">
  <circle cx="462.454" cy="1392.18" r="10.537" stroke-width="0.5" stroke="black" fill="red"/>
  <circle cx="462.454" cy="1392.18" r="6.34103" stroke-width="0.5" stroke="red" fill="red"/>
   </g>
   <g id="cell56">
  <circle cx="1142.07" cy="1746.45" r="10.3811" stroke-width="0.5" stroke="black" fill="red"/>
  <circle cx="1142.07" cy="1746.45" r="6.26814" stroke-width="0.5" stroke="red" fill="red"/>
   </g>
   <g id="cell57">
  <circle cx="1037.75" cy="1104.49" r="10.5333" stroke-width="0.5" stroke="black" fill="red"/>
  <circle cx="1037.75" cy="1104.49" r="6.33948" stroke-width="0.5" stroke="red" fill="red"/>
   </g>
   <g id="cell99">
  <circle cx="934.362" cy="1949.66" r="10.3747" stroke-width="0.5" stroke="black" fill="red"/>
  <circle cx="934.362" cy="1949.66" r="6.26498" stroke-width="0.5" stroke="red" fill="red"/>
   </g>
   <g id="cell59">
  <circle cx="149.447" cy="1873.46" r="10.4102" stroke-width="0.5" stroke="black" fill="red"/>
  <circle cx="149.447" cy="1873.46" r="6.2825" stroke-width="0.5" stroke="red" fill="red"/>
   </g>
   <g id="cell60">
  <circle cx="684.321" cy="19.4136" r="10.3747" stroke-width="0.5" stroke="black" fill="red"/>
  <circle cx="684.321" cy="19.4136" r="6.26498" stroke-width="0.5" stroke="red" fill="red"/>
   </g>
   <g id="cell61">
  <circle cx="1673.28" cy="303.432" r="10.3247" stroke-width="0.5" stroke="black" fill="red"/>
  <circle cx="1673.28" cy="303.432" r="6.23971" stroke-width="0.5" stroke="red" fill="red"/>
   </g>
   <g id="cell62">
  <circle cx="1425.42" cy="1702.47" r="10.3166" stroke-width="0.5" stroke="black" fill="red"/>
  <circle cx="1425.42" cy="1702.47" r="6.23561" stroke-width="0.5" stroke="red" fill="red"/>
   </g>
   <g id="cell63">
  <circle cx="568.985" cy="338.841" r="10.4726" stroke-width="0.5" stroke="black" fill="red"/>
  <circle cx="568.985" cy="338.841" r="6.31223" stroke-width="0.5" stroke="red" fill="red"/>
   </g>
   <g id="cell64">
  <circle cx="1169.98" cy="1148.48" r="10.4048" stroke-width="0.5" stroke="black" fill="red"/>
  <circle cx="1169.98" cy="1148.48" r="6.27981" stroke-width="0.5" stroke="red" fill="red"/>
   </g>
   <g id="cell65">
  <circle cx="320.097" cy="1662.87" r="10.4862" stroke-width="0.5" stroke="black" fill="red"/>
  <circle cx="320.097" cy="1662.87" r="6.31853" stroke-width="0.5" stroke="red" fill="red"/>
   </g>
   <g id="cell66">
  <circle cx="10.0361" cy="297.779" r="10.3474" stroke-width="0.5" stroke="black" fill="red"/>
  <circle cx="10.0361" cy="297.779" r="6.25125" stroke-width="0.5" stroke="red" fill="red"/>
   </g>
   <g id="cell67">
  <circle cx="1124.78" cy="552.923" r="9.20015" stroke-width="0.5" stroke="black" fill="red"/>
  <circle cx="1124.78" cy="552.923" r="5.59022" stroke-width="0.5" stroke="red" fill="red"/>
   </g>
   <g id="cell68">
  <circle cx="1455.02" cy="615.788" r="10.5012" stroke-width="0.5" stroke="black" fill="red"/>
  <circle cx="1455.02" cy="615.788" r="6.32534" stroke-width="0.5" stroke="red" fill="red"/>
   </g>
   <g id="cell69">
  <circle cx="849.16" cy="482.361" r="10.4102" stroke-width="0.5" stroke="black" fill="red"/>
  <circle cx="849.16" cy="482.361" r="6.2825" stroke-width="0.5" stroke="red" fill="red"/>
   </g>
   <g id="cell70">
  <circle cx="1111.65" cy="747.128" r="10.3615" stroke-width="0.5" stroke="black" fill="red"/>
  <circle cx="1111.65" cy="747.128" r="6.25834" stroke-width="0.5" stroke="red" fill="red"/>
   </g>
   <g id="cell71">
  <circle cx="1771.74" cy="1113.99" r="10.4102" stroke-width="0.5" stroke="black" fill="red"/>
  <circle cx="1771.74" cy="1113.99" r="6.2825" stroke-width="0.5" stroke="red" fill="red"/>
   </g>
   <g id="cell72">
  <circle cx="417.593" cy="1753.98" r="8.41271" stroke-width="0.5" stroke="black" fill="red"/>
  <circle cx="417.593" cy="1753.98" r="5.05167" stroke-width="0.5" stroke="red" fill="red"/>
   </g>
   <g id="cell73">
  <circle cx="1344.84" cy="904.965" r="10.4796" stroke-width="0.5" stroke="black" fill="red"/>
  <circle cx="1344.84" cy="904.965" r="6.31548" stroke-width="0.5" stroke="red" fill="red"/>
   </g>
   <g id="cell74">
  <circle cx="1745.94" cy="1975.51" r="10.4894" stroke-width="0.5" stroke="black" fill="red"/>
  <circle cx="1745.94" cy="1975.51" r="6.31998" stroke-width="0.5" stroke="red" fill="red"/>
   </g>
   <g id="cell75">
  <circle cx="220.629" cy="596.319" r="10.5387" stroke-width="0.5" stroke="black" fill="red"/>
  <circle cx="220.629" cy="596.319" r="6.34177" stroke-width="0.5" stroke="red" fill="red"/>
   </g>
   <g id="cell76">
  <circle cx="1613.52" cy="864.143" r="10.5012" stroke-width="0.5" stroke="black" fill="red"/>
  <circle cx="1613.52" cy="864.143" r="6.32534" stroke-width="0.5" stroke="red" fill="red"/>
   </g>
   <g id="cell77">
  <circle cx="1316.69" cy="1747.74" r="8.84788" stroke-width="0.5" stroke="black" fill="red"/>
  <circle cx="1316.69" cy="1747.74" r="5.36278" stroke-width="0.5" stroke="red" fill="red"/>
   </g>
   <g id="cell78">
  <circle cx="1163.96" cy="601.219" r="10.4355" stroke-width="0.5" stroke="black" fill="red"/>
  <circle cx="1163.96" cy="601.219" r="6.2947" stroke-width="0.5" stroke="red" fill="red"/>
   </g>
   <g id="cell79">
  <circle cx="1932.61" cy="1414.23" r="10.3166" stroke-width="0.5" stroke="black" fill="red"/>
  <circle cx="1932.61" cy="1414.23" r="6.23561" stroke-width="0.5" stroke="red" fill="red"/>
   </g>
   <g id="cell80">
  <circle cx="1483.44" cy="1318.66" r="10.3545" stroke-width="0.5" stroke="black" fill="red"/>
  <circle cx="1483.44" cy="1318.66" r="6.25485" stroke-width="0.5" stroke="red" fill="red"/>
   </g>
   <g id="cell81">
  <circle cx="1041.96" cy="1919.33" r="10.4401" stroke-width="0.5" stroke="black" fill="red"/>
  <circle cx="1041.96" cy="1919.33" r="6.29691" stroke-width="0.5" stroke="red" fill="red"/>
   </g>
   <g id="cell82">
  <circle cx="1295.75" cy="756.245" r="10.2632" stroke-width="0.5" stroke="black" fill="red"/>
  <circle cx="1295.75" cy="756.245" r="6.20796" stroke-width="0.5" stroke="red" fill="red"/>
   </g>
   <g id="cell83">
  <circle cx="1249.43" cy="1218.61" r="1.26682" stroke-width="0.5" stroke="black" fill="red"/>
  <circle cx="1249.43" cy="1218.61" r="1.26026" stroke-width="0.5" stroke="black" fill="black"/>
   </g>
   <g id="cell101">
  <circle cx="746.484" cy="209.154" r="8.36592" stroke-width="0.5" stroke="black" fill="red"/>
  <circle cx="746.484" cy="209.154" r="5.03403" stroke-width="0.5" stroke="red" fill="red"/>
   </g>
   <g id="cell102">
  <circle cx="463.892" cy="1797.34" r="8.36592" stroke-width="0.5" stroke="black" fill="red"/>
  <circle cx="463.892" cy="1797.34" r="5.03403" stroke-width="0.5" stroke="red" fill="red"/>
   </g>
  </g>
 </g>
  <rect x="1750" y="2070" width="200" height="20" stroke-width="4" stroke="rgb(255,255,255)" fill="rgb(0,0,0)"/>
  <text x="1762.5" y="2057.5"
   font-family="Arial" font-size="50" fill="black" >
   200 &#956;m
  </text>
  <text x="50" y="2090"
   font-family="Arial" font-size="37.5" fill="black" >
   0 days, 0 hours, 0 minutes, and 19.5667 seconds
  </text>
  <rect x="0" y="140" width="2000" height="2000" stroke-width="4" stroke="rgb(0,0,0)" fill="none"/>
</svg>
