<?xml version="1.0" encoding="UTF-8" standalone="no"?>
<!-- Created with PhysiCell (http://PhysiCell.MathCancer.org/) -->
<svg 
 xmlns:dc="http://purl.org/dc/elements/1.1/" 
 xmlns:cc="http://creativecommons.org/ns#" 
 xmlns:rdf="http://www.w3.org/1999/02/22-rdf-syntax-ns#" 
 xmlns:svg="http://www.w3.org/2000/svg" 
 xmlns="http://www.w3.org/2000/svg" 
 version="1.1" 
 width="2000" 
 height="2140" 
 id="svg2">
  <rect x="0" y="0" width="2000" height="2140" stroke-width="4" stroke="white" fill="white"/>
  <text x="25" y="60"
   font-family="Arial" font-size="50" fill="black" >
   Current time: 1 days, 5 hours, and 10.00 minutes, z = 0.00 &#956;m
  </text>
  <text x="25" y="115"
   font-family="Arial" font-size="47.5" fill="black" >
   204 agents
  </text>
 <g id="tissue" 
    transform="translate(0,2140) scale(1,-1)">
  <g id="ECM">
  </g>
  <g id="cells">
   <g id="cell0">
  <circle cx="1087.3" cy="1187.54" r="10.3386" stroke-width="0.5" stroke="black" fill="grey"/>
  <circle cx="1087.3" cy="1187.54" r="6.24715" stroke-width="0.5" stroke="grey" fill="grey"/>
   </g>
   <g id="cell1">
  <circle cx="1661.53" cy="1192.98" r="10.4252" stroke-width="0.5" stroke="black" fill="grey"/>
  <circle cx="1661.53" cy="1192.98" r="6.28989" stroke-width="0.5" stroke="grey" fill="grey"/>
   </g>
   <g id="cell2">
  <circle cx="1110.4" cy="1742.8" r="10.5291" stroke-width="0.5" stroke="black" fill="grey"/>
  <circle cx="1110.4" cy="1742.8" r="6.33774" stroke-width="0.5" stroke="grey" fill="grey"/>
   </g>
   <g id="cell3">
  <circle cx="1261.83" cy="1344.07" r="9.94428" stroke-width="0.5" stroke="black" fill="grey"/>
  <circle cx="1261.83" cy="1344.07" r="6.03414" stroke-width="0.5" stroke="grey" fill="grey"/>
   </g>
   <g id="cell4">
  <circle cx="889.418" cy="506.507" r="3.15993" stroke-width="0.5" stroke="black" fill="grey"/>
  <circle cx="889.418" cy="506.507" r="2.7235" stroke-width="0.5" stroke="black" fill="black"/>
   </g>
   <g id="cell5">
  <circle cx="95.1629" cy="1933.02" r="10.4514" stroke-width="0.5" stroke="black" fill="grey"/>
  <circle cx="95.1629" cy="1933.02" r="6.30264" stroke-width="0.5" stroke="grey" fill="grey"/>
   </g>
   <g id="cell6">
  <circle cx="757.732" cy="919.604" r="10.2973" stroke-width="0.5" stroke="black" fill="grey"/>
  <circle cx="757.732" cy="919.604" r="6.22624" stroke-width="0.5" stroke="grey" fill="grey"/>
   </g>
   <g id="cell7">
  <circle cx="1589.36" cy="1132.13" r="10.425" stroke-width="0.5" stroke="black" fill="grey"/>
  <circle cx="1589.36" cy="1132.13" r="6.28985" stroke-width="0.5" stroke="grey" fill="grey"/>
   </g>
   <g id="cell8">
  <circle cx="1163.75" cy="794.04" r="10.4722" stroke-width="0.5" stroke="black" fill="grey"/>
  <circle cx="1163.75" cy="794.04" r="6.31214" stroke-width="0.5" stroke="grey" fill="grey"/>
   </g>
   <g id="cell9">
  <circle cx="1603.6" cy="203.107" r="10.3858" stroke-width="0.5" stroke="black" fill="grey"/>
  <circle cx="1603.6" cy="203.107" r="6.27081" stroke-width="0.5" stroke="grey" fill="grey"/>
   </g>
   <g id="cell10">
  <circle cx="194.72" cy="1289.1" r="8.40537" stroke-width="0.5" stroke="black" fill="grey"/>
  <circle cx="194.72" cy="1289.1" r="5.04944" stroke-width="0.5" stroke="grey" fill="grey"/>
   </g>
   <g id="cell11">
  <circle cx="739.384" cy="1617.79" r="10.4484" stroke-width="0.5" stroke="black" fill="grey"/>
  <circle cx="739.384" cy="1617.79" r="6.301" stroke-width="0.5" stroke="grey" fill="grey"/>
   </g>
   <g id="cell12">
  <circle cx="1599.17" cy="250.086" r="10.4386" stroke-width="0.5" stroke="black" fill="grey"/>
  <circle cx="1599.17" cy="250.086" r="6.2965" stroke-width="0.5" stroke="grey" fill="grey"/>
   </g>
   <g id="cell13">
  <circle cx="1778.1" cy="1859.84" r="10.4757" stroke-width="0.5" stroke="black" fill="grey"/>
  <circle cx="1778.1" cy="1859.84" r="6.31377" stroke-width="0.5" stroke="grey" fill="grey"/>
   </g>
   <g id="cell14">
  <circle cx="1557.67" cy="1669.41" r="9.1078" stroke-width="0.5" stroke="black" fill="grey"/>
  <circle cx="1557.67" cy="1669.41" r="5.53665" stroke-width="0.5" stroke="grey" fill="grey"/>
   </g>
   <g id="cell15">
  <circle cx="1073.1" cy="1542.13" r="8.80627" stroke-width="0.5" stroke="black" fill="grey"/>
  <circle cx="1073.1" cy="1542.13" r="5.33533" stroke-width="0.5" stroke="grey" fill="grey"/>
   </g>
   <g id="cell16">
  <circle cx="235.919" cy="1403.48" r="10.4948" stroke-width="0.5" stroke="black" fill="grey"/>
  <circle cx="235.919" cy="1403.48" r="6.32258" stroke-width="0.5" stroke="grey" fill="grey"/>
   </g>
   <g id="cell17">
  <circle cx="1209.87" cy="226.798" r="10.3316" stroke-width="0.5" stroke="black" fill="grey"/>
  <circle cx="1209.87" cy="226.798" r="6.24346" stroke-width="0.5" stroke="grey" fill="grey"/>
   </g>
   <g id="cell18">
  <circle cx="1897.27" cy="1569.32" r="10.4151" stroke-width="0.5" stroke="black" fill="grey"/>
  <circle cx="1897.27" cy="1569.32" r="6.28498" stroke-width="0.5" stroke="grey" fill="grey"/>
   </g>
   <g id="cell19">
  <circle cx="253.275" cy="914.026" r="10.5275" stroke-width="0.5" stroke="black" fill="grey"/>
  <circle cx="253.275" cy="914.026" r="6.33696" stroke-width="0.5" stroke="grey" fill="grey"/>
   </g>
   <g id="cell20">
  <circle cx="547.087" cy="340.784" r="9.69617" stroke-width="0.5" stroke="black" fill="grey"/>
  <circle cx="547.087" cy="340.784" r="5.89237" stroke-width="0.5" stroke="grey" fill="grey"/>
   </g>
   <g id="cell21">
  <circle cx="1472.9" cy="908.746" r="10.2509" stroke-width="0.5" stroke="black" fill="grey"/>
  <circle cx="1472.9" cy="908.746" r="6.20207" stroke-width="0.5" stroke="grey" fill="grey"/>
   </g>
   <g id="cell22">
  <circle cx="1127.02" cy="262.593" r="8.39618" stroke-width="0.5" stroke="black" fill="grey"/>
  <circle cx="1127.02" cy="262.593" r="5.04616" stroke-width="0.5" stroke="grey" fill="grey"/>
   </g>
   <g id="cell175">
  <circle cx="764.159" cy="889.005" r="8.40884" stroke-width="0.5" stroke="black" fill="grey"/>
  <circle cx="764.159" cy="889.005" r="5.05057" stroke-width="0.5" stroke="grey" fill="grey"/>
   </g>
   <g id="cell24">
  <circle cx="1278.8" cy="400.307" r="10.0099" stroke-width="0.5" stroke="black" fill="grey"/>
  <circle cx="1278.8" cy="400.307" r="6.07228" stroke-width="0.5" stroke="grey" fill="grey"/>
   </g>
   <g id="cell25">
  <circle cx="782.56" cy="1925.21" r="10.525" stroke-width="0.5" stroke="black" fill="grey"/>
  <circle cx="782.56" cy="1925.21" r="6.33597" stroke-width="0.5" stroke="grey" fill="grey"/>
   </g>
   <g id="cell26">
  <circle cx="1343.09" cy="885.736" r="9.53087" stroke-width="0.5" stroke="black" fill="grey"/>
  <circle cx="1343.09" cy="885.736" r="5.7941" stroke-width="0.5" stroke="grey" fill="grey"/>
   </g>
   <g id="cell27">
  <circle cx="1166.83" cy="895.047" r="10.518" stroke-width="0.5" stroke="black" fill="grey"/>
  <circle cx="1166.83" cy="895.047" r="6.33297" stroke-width="0.5" stroke="grey" fill="grey"/>
   </g>
   <g id="cell28">
  <circle cx="1311.75" cy="104.186" r="10.4606" stroke-width="0.5" stroke="black" fill="grey"/>
  <circle cx="1311.75" cy="104.186" r="6.30677" stroke-width="0.5" stroke="grey" fill="grey"/>
   </g>
   <g id="cell29">
  <circle cx="1965.1" cy="1304.83" r="10.4036" stroke-width="0.5" stroke="black" fill="grey"/>
  <circle cx="1965.1" cy="1304.83" r="6.27951" stroke-width="0.5" stroke="grey" fill="grey"/>
   </g>
   <g id="cell30">
  <circle cx="1343.65" cy="358.696" r="8.41043" stroke-width="0.5" stroke="black" fill="grey"/>
  <circle cx="1343.65" cy="358.696" r="5.05106" stroke-width="0.5" stroke="grey" fill="grey"/>
   </g>
   <g id="cell31">
  <circle cx="690.207" cy="251.462" r="10.2529" stroke-width="0.5" stroke="black" fill="grey"/>
  <circle cx="690.207" cy="251.462" r="6.20268" stroke-width="0.5" stroke="grey" fill="grey"/>
   </g>
   <g id="cell32">
  <circle cx="635.085" cy="1204.49" r="10.529" stroke-width="0.5" stroke="black" fill="grey"/>
  <circle cx="635.085" cy="1204.49" r="6.33772" stroke-width="0.5" stroke="grey" fill="grey"/>
   </g>
   <g id="cell33">
  <circle cx="675.679" cy="1117.95" r="10.4242" stroke-width="0.5" stroke="black" fill="grey"/>
  <circle cx="675.679" cy="1117.95" r="6.28961" stroke-width="0.5" stroke="grey" fill="grey"/>
   </g>
   <g id="cell34">
  <circle cx="903.495" cy="1228.1" r="10.5348" stroke-width="0.5" stroke="black" fill="grey"/>
  <circle cx="903.495" cy="1228.1" r="6.34017" stroke-width="0.5" stroke="grey" fill="grey"/>
   </g>
   <g id="cell35">
  <circle cx="1909.7" cy="211.511" r="8.37167" stroke-width="0.5" stroke="black" fill="grey"/>
  <circle cx="1909.7" cy="211.511" r="5.03651" stroke-width="0.5" stroke="grey" fill="grey"/>
   </g>
   <g id="cell36">
  <circle cx="366.125" cy="1295.28" r="10.2722" stroke-width="0.5" stroke="black" fill="grey"/>
  <circle cx="366.125" cy="1295.28" r="6.21279" stroke-width="0.5" stroke="grey" fill="grey"/>
   </g>
   <g id="cell37">
  <circle cx="1961.16" cy="1334.28" r="8.3926" stroke-width="0.5" stroke="black" fill="grey"/>
  <circle cx="1961.16" cy="1334.28" r="5.04482" stroke-width="0.5" stroke="grey" fill="grey"/>
   </g>
   <g id="cell38">
  <circle cx="462.375" cy="836.265" r="8.37281" stroke-width="0.5" stroke="black" fill="grey"/>
  <circle cx="462.375" cy="836.265" r="5.03698" stroke-width="0.5" stroke="grey" fill="grey"/>
   </g>
   <g id="cell39">
  <circle cx="920.372" cy="530.397" r="8.4045" stroke-width="0.5" stroke="black" fill="grey"/>
  <circle cx="920.372" cy="530.397" r="5.04914" stroke-width="0.5" stroke="grey" fill="grey"/>
   </g>
   <g id="cell40">
  <circle cx="273.448" cy="642.593" r="10.361" stroke-width="0.5" stroke="black" fill="grey"/>
  <circle cx="273.448" cy="642.593" r="6.25822" stroke-width="0.5" stroke="grey" fill="grey"/>
   </g>
   <g id="cell41">
  <circle cx="1400.62" cy="1305.61" r="9.34246" stroke-width="0.5" stroke="black" fill="grey"/>
  <circle cx="1400.62" cy="1305.61" r="5.67863" stroke-width="0.5" stroke="grey" fill="grey"/>
   </g>
   <g id="cell42">
  <circle cx="261.543" cy="1589.09" r="10.5306" stroke-width="0.5" stroke="black" fill="grey"/>
  <circle cx="261.543" cy="1589.09" r="6.33846" stroke-width="0.5" stroke="grey" fill="grey"/>
   </g>
   <g id="cell43">
  <circle cx="1908.39" cy="737.202" r="10.5205" stroke-width="0.5" stroke="black" fill="grey"/>
  <circle cx="1908.39" cy="737.202" r="6.33402" stroke-width="0.5" stroke="grey" fill="grey"/>
   </g>
   <g id="cell44">
  <circle cx="1677.41" cy="62.6024" r="10.3983" stroke-width="0.5" stroke="black" fill="grey"/>
  <circle cx="1677.41" cy="62.6024" r="6.27683" stroke-width="0.5" stroke="grey" fill="grey"/>
   </g>
   <g id="cell45">
  <circle cx="1272.13" cy="1701.97" r="8.57711" stroke-width="0.5" stroke="black" fill="grey"/>
  <circle cx="1272.13" cy="1701.97" r="5.17423" stroke-width="0.5" stroke="grey" fill="grey"/>
   </g>
   <g id="cell46">
  <circle cx="182.365" cy="1977.12" r="10.4439" stroke-width="0.5" stroke="black" fill="grey"/>
  <circle cx="182.365" cy="1977.12" r="6.29887" stroke-width="0.5" stroke="grey" fill="grey"/>
   </g>
   <g id="cell47">
  <circle cx="1751.79" cy="934.959" r="8.42365" stroke-width="0.5" stroke="black" fill="grey"/>
  <circle cx="1751.79" cy="934.959" r="5.0713" stroke-width="0.5" stroke="grey" fill="grey"/>
   </g>
   <g id="cell48">
  <circle cx="1956.27" cy="73.4889" r="2.63508" stroke-width="0.5" stroke="black" fill="grey"/>
  <circle cx="1956.27" cy="73.4889" r="2.45923" stroke-width="0.5" stroke="black" fill="black"/>
   </g>
   <g id="cell49">
  <circle cx="944.602" cy="1478.87" r="2.04096" stroke-width="0.5" stroke="black" fill="grey"/>
  <circle cx="944.602" cy="1478.87" r="1.99539" stroke-width="0.5" stroke="black" fill="black"/>
   </g>
   <g id="cell50">
  <circle cx="139.836" cy="830.239" r="10.503" stroke-width="0.5" stroke="black" fill="red"/>
  <circle cx="139.836" cy="830.239" r="6.32631" stroke-width="0.5" stroke="red" fill="red"/>
   </g>
   <g id="cell51">
  <circle cx="1971.2" cy="284.095" r="8.39834" stroke-width="0.5" stroke="black" fill="red"/>
  <circle cx="1971.2" cy="284.095" r="5.04696" stroke-width="0.5" stroke="red" fill="red"/>
   </g>
   <g id="cell52">
  <circle cx="651.361" cy="998.391" r="10.5225" stroke-width="0.5" stroke="black" fill="red"/>
  <circle cx="651.361" cy="998.391" r="6.33493" stroke-width="0.5" stroke="red" fill="red"/>
   </g>
   <g id="cell53">
  <circle cx="1355.2" cy="679.632" r="8.39083" stroke-width="0.5" stroke="black" fill="red"/>
  <circle cx="1355.2" cy="679.632" r="5.04414" stroke-width="0.5" stroke="red" fill="red"/>
   </g>
   <g id="cell54">
  <circle cx="818.258" cy="1765.13" r="10.4565" stroke-width="0.5" stroke="black" fill="red"/>
  <circle cx="818.258" cy="1765.13" r="6.30488" stroke-width="0.5" stroke="red" fill="red"/>
   </g>
   <g id="cell55">
  <circle cx="468.493" cy="1338.54" r="8.38753" stroke-width="0.5" stroke="black" fill="red"/>
  <circle cx="468.493" cy="1338.54" r="5.04286" stroke-width="0.5" stroke="red" fill="red"/>
   </g>
   <g id="cell56">
  <circle cx="1133.72" cy="1683.38" r="9.15463" stroke-width="0.5" stroke="black" fill="red"/>
  <circle cx="1133.72" cy="1683.38" r="5.56401" stroke-width="0.5" stroke="red" fill="red"/>
   </g>
   <g id="cell57">
  <circle cx="1010.57" cy="1107" r="8.77945" stroke-width="0.5" stroke="black" fill="red"/>
  <circle cx="1010.57" cy="1107" r="5.32524" stroke-width="0.5" stroke="red" fill="red"/>
   </g>
   <g id="cell58">
  <circle cx="113.055" cy="1801.81" r="10.1485" stroke-width="0.5" stroke="black" fill="red"/>
  <circle cx="113.055" cy="1801.81" r="6.14739" stroke-width="0.5" stroke="red" fill="red"/>
   </g>
   <g id="cell98">
  <circle cx="1827.4" cy="643.195" r="8.41067" stroke-width="0.5" stroke="black" fill="red"/>
  <circle cx="1827.4" cy="643.195" r="5.05113" stroke-width="0.5" stroke="red" fill="red"/>
   </g>
   <g id="cell60">
  <circle cx="689.873" cy="32.3796" r="10.4147" stroke-width="0.5" stroke="black" fill="red"/>
  <circle cx="689.873" cy="32.3796" r="6.28486" stroke-width="0.5" stroke="red" fill="red"/>
   </g>
   <g id="cell61">
  <circle cx="1684.76" cy="248.368" r="10.1627" stroke-width="0.5" stroke="black" fill="red"/>
  <circle cx="1684.76" cy="248.368" r="6.15472" stroke-width="0.5" stroke="red" fill="red"/>
   </g>
   <g id="cell62">
  <circle cx="1416.58" cy="1716.85" r="10.5247" stroke-width="0.5" stroke="black" fill="red"/>
  <circle cx="1416.58" cy="1716.85" r="6.33588" stroke-width="0.5" stroke="red" fill="red"/>
   </g>
   <g id="cell63">
  <circle cx="578.291" cy="362.895" r="10.241" stroke-width="0.5" stroke="black" fill="red"/>
  <circle cx="578.291" cy="362.895" r="6.19682" stroke-width="0.5" stroke="red" fill="red"/>
   </g>
   <g id="cell64">
  <circle cx="1238.88" cy="1122.14" r="10.3464" stroke-width="0.5" stroke="black" fill="red"/>
  <circle cx="1238.88" cy="1122.14" r="6.251" stroke-width="0.5" stroke="red" fill="red"/>
   </g>
   <g id="cell65">
  <circle cx="334.204" cy="1626.53" r="10.374" stroke-width="0.5" stroke="black" fill="red"/>
  <circle cx="334.204" cy="1626.53" r="6.26479" stroke-width="0.5" stroke="red" fill="red"/>
   </g>
   <g id="cell66">
  <circle cx="30.8655" cy="317.189" r="10.3462" stroke-width="0.5" stroke="black" fill="red"/>
  <circle cx="30.8655" cy="317.189" r="6.25094" stroke-width="0.5" stroke="red" fill="red"/>
   </g>
   <g id="cell67">
  <circle cx="1084.34" cy="550.037" r="10.2792" stroke-width="0.5" stroke="black" fill="red"/>
  <circle cx="1084.34" cy="550.037" r="6.21693" stroke-width="0.5" stroke="red" fill="red"/>
   </g>
   <g id="cell68">
  <circle cx="1415.49" cy="598.189" r="10.4299" stroke-width="0.5" stroke="black" fill="red"/>
  <circle cx="1415.49" cy="598.189" r="6.2922" stroke-width="0.5" stroke="red" fill="red"/>
   </g>
   <g id="cell69">
  <circle cx="777.171" cy="479.962" r="9.75027" stroke-width="0.5" stroke="black" fill="red"/>
  <circle cx="777.171" cy="479.962" r="5.92294" stroke-width="0.5" stroke="red" fill="red"/>
   </g>
   <g id="cell70">
  <circle cx="1069.96" cy="768.419" r="10.5381" stroke-width="0.5" stroke="black" fill="red"/>
  <circle cx="1069.96" cy="768.419" r="6.34162" stroke-width="0.5" stroke="red" fill="red"/>
   </g>
   <g id="cell71">
  <circle cx="1730.64" cy="1172" r="10.4043" stroke-width="0.5" stroke="black" fill="red"/>
  <circle cx="1730.64" cy="1172" r="6.27971" stroke-width="0.5" stroke="red" fill="red"/>
   </g>
   <g id="cell72">
  <circle cx="462.756" cy="1753.45" r="9.59391" stroke-width="0.5" stroke="black" fill="red"/>
  <circle cx="462.756" cy="1753.45" r="5.83043" stroke-width="0.5" stroke="red" fill="red"/>
   </g>
   <g id="cell73">
  <circle cx="1364.94" cy="822.053" r="8.36811" stroke-width="0.5" stroke="black" fill="red"/>
  <circle cx="1364.94" cy="822.053" r="5.03502" stroke-width="0.5" stroke="red" fill="red"/>
   </g>
   <g id="cell74">
  <circle cx="1756.97" cy="1844.09" r="8.455" stroke-width="0.5" stroke="black" fill="red"/>
  <circle cx="1756.97" cy="1844.09" r="5.08269" stroke-width="0.5" stroke="red" fill="red"/>
   </g>
   <g id="cell75">
  <circle cx="309.037" cy="549.616" r="8.37208" stroke-width="0.5" stroke="black" fill="red"/>
  <circle cx="309.037" cy="549.616" r="5.03661" stroke-width="0.5" stroke="red" fill="red"/>
   </g>
   <g id="cell76">
  <circle cx="1595.55" cy="807.449" r="8.41061" stroke-width="0.5" stroke="black" fill="red"/>
  <circle cx="1595.55" cy="807.449" r="5.05111" stroke-width="0.5" stroke="red" fill="red"/>
   </g>
   <g id="cell77">
  <circle cx="1405.63" cy="1808.72" r="10.5228" stroke-width="0.5" stroke="black" fill="red"/>
  <circle cx="1405.63" cy="1808.72" r="6.33501" stroke-width="0.5" stroke="red" fill="red"/>
   </g>
   <g id="cell78">
  <circle cx="1138.44" cy="597.087" r="10.2063" stroke-width="0.5" stroke="black" fill="red"/>
  <circle cx="1138.44" cy="597.087" r="6.17895" stroke-width="0.5" stroke="red" fill="red"/>
   </g>
   <g id="cell79">
  <circle cx="1986.67" cy="1418.02" r="10.386" stroke-width="0.5" stroke="black" fill="red"/>
  <circle cx="1986.67" cy="1418.02" r="6.27085" stroke-width="0.5" stroke="red" fill="red"/>
   </g>
   <g id="cell80">
  <circle cx="1430.34" cy="1269.46" r="10.4483" stroke-width="0.5" stroke="black" fill="red"/>
  <circle cx="1430.34" cy="1269.46" r="6.30097" stroke-width="0.5" stroke="red" fill="red"/>
   </g>
   <g id="cell81">
  <circle cx="1143.25" cy="1882.36" r="10.2101" stroke-width="0.5" stroke="black" fill="red"/>
  <circle cx="1143.25" cy="1882.36" r="6.18016" stroke-width="0.5" stroke="red" fill="red"/>
   </g>
   <g id="cell82">
  <circle cx="1230.05" cy="822.194" r="10.4568" stroke-width="0.5" stroke="black" fill="red"/>
  <circle cx="1230.05" cy="822.194" r="6.30494" stroke-width="0.5" stroke="red" fill="red"/>
   </g>
   <g id="cell83">
  <circle cx="1231.77" cy="1203.06" r="10.2724" stroke-width="0.5" stroke="black" fill="red"/>
  <circle cx="1231.77" cy="1203.06" r="6.21285" stroke-width="0.5" stroke="red" fill="red"/>
   </g>
   <g id="cell84">
  <circle cx="59.9306" cy="969.845" r="8.3937" stroke-width="0.5" stroke="black" fill="red"/>
  <circle cx="59.9306" cy="969.845" r="5.04523" stroke-width="0.5" stroke="red" fill="red"/>
   </g>
   <g id="cell85">
  <circle cx="1371.63" cy="1283.69" r="9.99568" stroke-width="0.5" stroke="black" fill="red"/>
  <circle cx="1371.63" cy="1283.69" r="6.06374" stroke-width="0.5" stroke="red" fill="red"/>
   </g>
   <g id="cell86">
  <circle cx="565.939" cy="826.026" r="10.3535" stroke-width="0.5" stroke="black" fill="red"/>
  <circle cx="565.939" cy="826.026" r="6.25457" stroke-width="0.5" stroke="red" fill="red"/>
   </g>
   <g id="cell87">
  <circle cx="1493.5" cy="869.545" r="8.57275" stroke-width="0.5" stroke="black" fill="red"/>
  <circle cx="1493.5" cy="869.545" r="5.17284" stroke-width="0.5" stroke="red" fill="red"/>
   </g>
   <g id="cell88">
  <circle cx="251.017" cy="253.789" r="9.70119" stroke-width="0.5" stroke="black" fill="red"/>
  <circle cx="251.017" cy="253.789" r="5.89404" stroke-width="0.5" stroke="red" fill="red"/>
   </g>
   <g id="cell89">
  <circle cx="213.872" cy="1208.52" r="9.90586" stroke-width="0.5" stroke="black" fill="red"/>
  <circle cx="213.872" cy="1208.52" r="6.01224" stroke-width="0.5" stroke="red" fill="red"/>
   </g>
   <g id="cell90">
  <circle cx="1173.06" cy="1106.12" r="10.186" stroke-width="0.5" stroke="black" fill="red"/>
  <circle cx="1173.06" cy="1106.12" r="6.16753" stroke-width="0.5" stroke="red" fill="red"/>
   </g>
   <g id="cell91">
  <circle cx="54.8583" cy="1281.39" r="10.472" stroke-width="0.5" stroke="black" fill="red"/>
  <circle cx="54.8583" cy="1281.39" r="6.31209" stroke-width="0.5" stroke="red" fill="red"/>
   </g>
   <g id="cell99">
  <circle cx="934.296" cy="1986.61" r="8.74156" stroke-width="0.5" stroke="black" fill="red"/>
  <circle cx="934.296" cy="1986.61" r="5.29893" stroke-width="0.5" stroke="red" fill="red"/>
   </g>
   <g id="cell93">
  <circle cx="424.32" cy="1750.39" r="10.5138" stroke-width="0.5" stroke="black" fill="red"/>
  <circle cx="424.32" cy="1750.39" r="6.33104" stroke-width="0.5" stroke="red" fill="red"/>
   </g>
   <g id="cell94">
  <circle cx="774.589" cy="227.336" r="10.5003" stroke-width="0.5" stroke="black" fill="red"/>
  <circle cx="774.589" cy="227.336" r="6.32512" stroke-width="0.5" stroke="red" fill="red"/>
   </g>
   <g id="cell95">
  <circle cx="1943.27" cy="1783.86" r="10.5329" stroke-width="0.5" stroke="black" fill="red"/>
  <circle cx="1943.27" cy="1783.86" r="6.33937" stroke-width="0.5" stroke="red" fill="red"/>
   </g>
   <g id="cell96">
  <circle cx="1707.58" cy="1071.27" r="9.52953" stroke-width="0.5" stroke="black" fill="red"/>
  <circle cx="1707.58" cy="1071.27" r="5.79363" stroke-width="0.5" stroke="red" fill="red"/>
   </g>
   <g id="cell97">
  <circle cx="899.935" cy="168.235" r="10.5157" stroke-width="0.5" stroke="black" fill="red"/>
  <circle cx="899.935" cy="168.235" r="6.33195" stroke-width="0.5" stroke="red" fill="red"/>
   </g>
   <g id="cell101">
  <circle cx="1334.49" cy="1251.92" r="8.38262" stroke-width="0.5" stroke="black" fill="grey"/>
  <circle cx="1334.49" cy="1251.92" r="5.04096" stroke-width="0.5" stroke="grey" fill="grey"/>
   </g>
   <g id="cell102">
  <circle cx="1070.9" cy="1735.87" r="10.4858" stroke-width="0.5" stroke="black" fill="grey"/>
  <circle cx="1070.9" cy="1735.87" r="6.31844" stroke-width="0.5" stroke="grey" fill="grey"/>
   </g>
   <g id="cell103">
  <circle cx="1241.57" cy="1242.12" r="8.3781" stroke-width="0.5" stroke="black" fill="red"/>
  <circle cx="1241.57" cy="1242.12" r="5.03914" stroke-width="0.5" stroke="red" fill="red"/>
   </g>
   <g id="cell104">
  <circle cx="795.126" cy="1869.96" r="8.38577" stroke-width="0.5" stroke="black" fill="grey"/>
  <circle cx="795.126" cy="1869.96" r="5.04222" stroke-width="0.5" stroke="grey" fill="grey"/>
   </g>
   <g id="cell105">
  <circle cx="1144.69" cy="782.395" r="8.38577" stroke-width="0.5" stroke="black" fill="grey"/>
  <circle cx="1144.69" cy="782.395" r="5.04222" stroke-width="0.5" stroke="grey" fill="grey"/>
   </g>
   <g id="cell106">
  <circle cx="435.818" cy="1738.74" r="8.3729" stroke-width="0.5" stroke="black" fill="red"/>
  <circle cx="435.818" cy="1738.74" r="5.03701" stroke-width="0.5" stroke="red" fill="red"/>
   </g>
   <g id="cell107">
  <circle cx="925.192" cy="1241.84" r="10.4303" stroke-width="0.5" stroke="black" fill="grey"/>
  <circle cx="925.192" cy="1241.84" r="6.29231" stroke-width="0.5" stroke="grey" fill="grey"/>
   </g>
   <g id="cell108">
  <circle cx="1775.8" cy="969.411" r="10.5348" stroke-width="0.5" stroke="black" fill="grey"/>
  <circle cx="1775.8" cy="969.411" r="6.34017" stroke-width="0.5" stroke="grey" fill="grey"/>
   </g>
   <g id="cell109">
  <circle cx="1761.57" cy="1171.58" r="10.3807" stroke-width="0.5" stroke="black" fill="red"/>
  <circle cx="1761.57" cy="1171.58" r="6.26804" stroke-width="0.5" stroke="red" fill="red"/>
   </g>
   <g id="cell110">
  <circle cx="982.84" cy="1961.12" r="10.4043" stroke-width="0.5" stroke="black" fill="red"/>
  <circle cx="982.84" cy="1961.12" r="6.2797" stroke-width="0.5" stroke="red" fill="red"/>
   </g>
   <g id="cell111">
  <circle cx="1932.12" cy="1762.12" r="9.70148" stroke-width="0.5" stroke="black" fill="red"/>
  <circle cx="1932.12" cy="1762.12" r="5.89412" stroke-width="0.5" stroke="red" fill="red"/>
   </g>
   <g id="cell112">
  <circle cx="1002.01" cy="1076.71" r="8.37173" stroke-width="0.5" stroke="black" fill="red"/>
  <circle cx="1002.01" cy="1076.71" r="5.03653" stroke-width="0.5" stroke="red" fill="red"/>
   </g>
   <g id="cell113">
  <circle cx="688.813" cy="218.72" r="10.525" stroke-width="0.5" stroke="black" fill="grey"/>
  <circle cx="688.813" cy="218.72" r="6.33596" stroke-width="0.5" stroke="grey" fill="grey"/>
   </g>
   <g id="cell114">
  <circle cx="623.797" cy="1234.82" r="8.41198" stroke-width="0.5" stroke="black" fill="grey"/>
  <circle cx="623.797" cy="1234.82" r="5.05149" stroke-width="0.5" stroke="grey" fill="grey"/>
   </g>
   <g id="cell115">
  <circle cx="1702.75" cy="1944.74" r="10.5087" stroke-width="0.5" stroke="black" fill="grey"/>
  <circle cx="1702.75" cy="1944.74" r="6.32881" stroke-width="0.5" stroke="grey" fill="grey"/>
   </g>
   <g id="cell116">
  <circle cx="285.119" cy="687.829" r="10.1093" stroke-width="0.5" stroke="black" fill="grey"/>
  <circle cx="285.119" cy="687.829" r="6.12571" stroke-width="0.5" stroke="grey" fill="grey"/>
   </g>
   <g id="cell117">
  <circle cx="1911.64" cy="1581.17" r="10.5347" stroke-width="0.5" stroke="black" fill="grey"/>
  <circle cx="1911.64" cy="1581.17" r="6.34015" stroke-width="0.5" stroke="grey" fill="grey"/>
   </g>
   <g id="cell118">
  <circle cx="1320.43" cy="881.777" r="10.2323" stroke-width="0.5" stroke="black" fill="red"/>
  <circle cx="1320.43" cy="881.777" r="6.19184" stroke-width="0.5" stroke="red" fill="red"/>
   </g>
   <g id="cell119">
  <circle cx="1259.05" cy="840.675" r="10.4825" stroke-width="0.5" stroke="black" fill="red"/>
  <circle cx="1259.05" cy="840.675" r="6.31691" stroke-width="0.5" stroke="red" fill="red"/>
   </g>
   <g id="cell120">
  <circle cx="740.931" cy="1655.82" r="10.5035" stroke-width="0.5" stroke="black" fill="grey"/>
  <circle cx="740.931" cy="1655.82" r="6.32645" stroke-width="0.5" stroke="grey" fill="grey"/>
   </g>
   <g id="cell121">
  <circle cx="481.178" cy="888.324" r="10.529" stroke-width="0.5" stroke="black" fill="grey"/>
  <circle cx="481.178" cy="888.324" r="6.3377" stroke-width="0.5" stroke="grey" fill="grey"/>
   </g>
   <g id="cell122">
  <circle cx="1917.22" cy="253.245" r="10.4949" stroke-width="0.5" stroke="black" fill="grey"/>
  <circle cx="1917.22" cy="253.245" r="6.32262" stroke-width="0.5" stroke="grey" fill="grey"/>
   </g>
   <g id="cell123">
  <circle cx="56.4802" cy="1253.79" r="10.5328" stroke-width="0.5" stroke="black" fill="red"/>
  <circle cx="56.4802" cy="1253.79" r="6.33935" stroke-width="0.5" stroke="red" fill="red"/>
   </g>
   <g id="cell124">
  <circle cx="1381.93" cy="1791.55" r="8.36679" stroke-width="0.5" stroke="black" fill="red"/>
  <circle cx="1381.93" cy="1791.55" r="5.03448" stroke-width="0.5" stroke="red" fill="red"/>
   </g>
   <g id="cell125">
  <circle cx="1446.35" cy="1368.84" r="10.479" stroke-width="0.5" stroke="black" fill="red"/>
  <circle cx="1446.35" cy="1368.84" r="6.31534" stroke-width="0.5" stroke="red" fill="red"/>
   </g>
   <g id="cell126">
  <circle cx="1215.37" cy="802.694" r="10.506" stroke-width="0.5" stroke="black" fill="red"/>
  <circle cx="1215.37" cy="802.694" r="6.32762" stroke-width="0.5" stroke="red" fill="red"/>
   </g>
   <g id="cell127">
  <circle cx="390.247" cy="1266.35" r="9.92563" stroke-width="0.5" stroke="black" fill="grey"/>
  <circle cx="390.247" cy="1266.35" r="6.02345" stroke-width="0.5" stroke="grey" fill="grey"/>
   </g>
   <g id="cell128">
  <circle cx="1727.95" cy="1215.77" r="10.1231" stroke-width="0.5" stroke="black" fill="grey"/>
  <circle cx="1727.95" cy="1215.77" r="6.13329" stroke-width="0.5" stroke="grey" fill="grey"/>
   </g>
   <g id="cell129">
  <circle cx="1668.98" cy="317.425" r="8.36672" stroke-width="0.5" stroke="black" fill="red"/>
  <circle cx="1668.98" cy="317.425" r="5.03446" stroke-width="0.5" stroke="red" fill="red"/>
   </g>
   <g id="cell130">
  <circle cx="236.908" cy="1106.58" r="10.5227" stroke-width="0.5" stroke="black" fill="red"/>
  <circle cx="236.908" cy="1106.58" r="6.33498" stroke-width="0.5" stroke="red" fill="red"/>
   </g>
   <g id="cell131">
  <circle cx="227.204" cy="1456.71" r="10.4719" stroke-width="0.5" stroke="black" fill="grey"/>
  <circle cx="227.204" cy="1456.71" r="6.31206" stroke-width="0.5" stroke="grey" fill="grey"/>
   </g>
   <g id="cell132">
  <circle cx="1977.66" cy="811.742" r="10.5268" stroke-width="0.5" stroke="black" fill="grey"/>
  <circle cx="1977.66" cy="811.742" r="6.33679" stroke-width="0.5" stroke="black" fill="black"/>
   </g>
   <g id="cell133">
  <circle cx="286.808" cy="166.44" r="10.4682" stroke-width="0.5" stroke="black" fill="red"/>
  <circle cx="286.808" cy="166.44" r="6.31035" stroke-width="0.5" stroke="red" fill="red"/>
   </g>
   <g id="cell134">
  <circle cx="1336.74" cy="181.038" r="10.538" stroke-width="0.5" stroke="black" fill="grey"/>
  <circle cx="1336.74" cy="181.038" r="6.3416" stroke-width="0.5" stroke="grey" fill="grey"/>
   </g>
   <g id="cell135">
  <circle cx="193.717" cy="1956.14" r="10.5033" stroke-width="0.5" stroke="black" fill="grey"/>
  <circle cx="193.717" cy="1956.14" r="6.3264" stroke-width="0.5" stroke="grey" fill="grey"/>
   </g>
   <g id="cell136">
  <circle cx="1672.88" cy="1909.56" r="10.3608" stroke-width="0.5" stroke="black" fill="red"/>
  <circle cx="1672.88" cy="1909.56" r="6.25816" stroke-width="0.5" stroke="red" fill="red"/>
   </g>
   <g id="cell137">
  <circle cx="765.408" cy="1802.41" r="10.5159" stroke-width="0.5" stroke="black" fill="red"/>
  <circle cx="765.408" cy="1802.41" r="6.33201" stroke-width="0.5" stroke="red" fill="red"/>
   </g>
   <g id="cell138">
  <circle cx="269.349" cy="1605.61" r="10.2425" stroke-width="0.5" stroke="black" fill="red"/>
  <circle cx="269.349" cy="1605.61" r="6.19728" stroke-width="0.5" stroke="red" fill="red"/>
   </g>
   <g id="cell139">
  <circle cx="1414.19" cy="1691.96" r="10.5326" stroke-width="0.5" stroke="black" fill="red"/>
  <circle cx="1414.19" cy="1691.96" r="6.3393" stroke-width="0.5" stroke="red" fill="red"/>
   </g>
   <g id="cell140">
  <circle cx="1575.62" cy="1017.19" r="10.4947" stroke-width="0.5" stroke="black" fill="grey"/>
  <circle cx="1575.62" cy="1017.19" r="6.32255" stroke-width="0.5" stroke="grey" fill="grey"/>
   </g>
   <g id="cell141">
  <circle cx="1685.7" cy="42.2624" r="10.4917" stroke-width="0.5" stroke="black" fill="grey"/>
  <circle cx="1685.7" cy="42.2624" r="6.32119" stroke-width="0.5" stroke="grey" fill="grey"/>
   </g>
   <g id="cell142">
  <circle cx="1424.21" cy="634.81" r="10.4523" stroke-width="0.5" stroke="black" fill="red"/>
  <circle cx="1424.21" cy="634.81" r="6.30292" stroke-width="0.5" stroke="red" fill="red"/>
   </g>
   <g id="cell143">
  <circle cx="638.444" cy="941.685" r="10.5004" stroke-width="0.5" stroke="black" fill="red"/>
  <circle cx="638.444" cy="941.685" r="6.32513" stroke-width="0.5" stroke="red" fill="red"/>
   </g>
   <g id="cell144">
  <circle cx="1215.41" cy="266.687" r="8.92717" stroke-width="0.5" stroke="black" fill="grey"/>
  <circle cx="1215.41" cy="266.687" r="5.41578" stroke-width="0.5" stroke="grey" fill="grey"/>
   </g>
   <g id="cell145">
  <circle cx="273.857" cy="1536.83" r="10.4604" stroke-width="0.5" stroke="black" fill="grey"/>
  <circle cx="273.857" cy="1536.83" r="6.30673" stroke-width="0.5" stroke="grey" fill="grey"/>
   </g>
   <g id="cell146">
  <circle cx="743.993" cy="184.089" r="10.2101" stroke-width="0.5" stroke="black" fill="red"/>
  <circle cx="743.993" cy="184.089" r="6.18017" stroke-width="0.5" stroke="red" fill="red"/>
   </g>
   <g id="cell147">
  <circle cx="1168.02" cy="1904.71" r="10.3673" stroke-width="0.5" stroke="black" fill="red"/>
  <circle cx="1168.02" cy="1904.71" r="6.26148" stroke-width="0.5" stroke="red" fill="red"/>
   </g>
   <g id="cell148">
  <circle cx="1166.12" cy="938.837" r="10.1624" stroke-width="0.5" stroke="black" fill="grey"/>
  <circle cx="1166.12" cy="938.837" r="6.15464" stroke-width="0.5" stroke="grey" fill="grey"/>
   </g>
   <g id="cell149">
  <circle cx="661.87" cy="75.1768" r="10.5083" stroke-width="0.5" stroke="black" fill="red"/>
  <circle cx="661.87" cy="75.1768" r="6.32869" stroke-width="0.5" stroke="red" fill="red"/>
   </g>
   <g id="cell150">
  <circle cx="1205.43" cy="1079.8" r="10.4787" stroke-width="0.5" stroke="black" fill="red"/>
  <circle cx="1205.43" cy="1079.8" r="6.31525" stroke-width="0.5" stroke="red" fill="red"/>
   </g>
   <g id="cell151">
  <circle cx="955.009" cy="198.815" r="9.47318" stroke-width="0.5" stroke="black" fill="red"/>
  <circle cx="955.009" cy="198.815" r="5.75843" stroke-width="0.5" stroke="red" fill="red"/>
   </g>
   <g id="cell152">
  <circle cx="1198.78" cy="1712.3" r="10.1088" stroke-width="0.5" stroke="black" fill="grey"/>
  <circle cx="1198.78" cy="1712.3" r="6.12556" stroke-width="0.5" stroke="grey" fill="grey"/>
   </g>
   <g id="cell153">
  <circle cx="932.569" cy="1483.28" r="10.4146" stroke-width="0.5" stroke="black" fill="grey"/>
  <circle cx="932.569" cy="1483.28" r="6.28484" stroke-width="0.5" stroke="grey" fill="grey"/>
   </g>
   <g id="cell154">
  <circle cx="176.045" cy="834.268" r="3.35789" stroke-width="0.5" stroke="black" fill="red"/>
  <circle cx="176.045" cy="834.268" r="2.88763" stroke-width="0.5" stroke="black" fill="black"/>
   </g>
   <g id="cell155">
  <circle cx="599.098" cy="803.071" r="10.4715" stroke-width="0.5" stroke="black" fill="red"/>
  <circle cx="599.098" cy="803.071" r="6.31196" stroke-width="0.5" stroke="red" fill="red"/>
   </g>
   <g id="cell193">
  <circle cx="1376.26" cy="684.807" r="9.14438" stroke-width="0.5" stroke="black" fill="red"/>
  <circle cx="1376.26" cy="684.807" r="5.56006" stroke-width="0.5" stroke="red" fill="red"/>
   </g>
   <g id="cell157">
  <circle cx="1234.49" cy="1281.92" r="10.4785" stroke-width="0.5" stroke="black" fill="grey"/>
  <circle cx="1234.49" cy="1281.92" r="6.3152" stroke-width="0.5" stroke="grey" fill="grey"/>
   </g>
   <g id="cell158">
  <circle cx="1933.39" cy="1310.61" r="9.88504" stroke-width="0.5" stroke="black" fill="grey"/>
  <circle cx="1933.39" cy="1310.61" r="6.00053" stroke-width="0.5" stroke="grey" fill="grey"/>
   </g>
   <g id="cell159">
  <circle cx="70.5644" cy="276.38" r="10.4714" stroke-width="0.5" stroke="black" fill="red"/>
  <circle cx="70.5644" cy="276.38" r="6.31193" stroke-width="0.5" stroke="red" fill="red"/>
   </g>
   <g id="cell160">
  <circle cx="1959.59" cy="1494.84" r="10.3602" stroke-width="0.5" stroke="black" fill="red"/>
  <circle cx="1959.59" cy="1494.84" r="6.25799" stroke-width="0.5" stroke="red" fill="red"/>
   </g>
   <g id="cell161">
  <circle cx="1809.31" cy="673.019" r="10.4294" stroke-width="0.5" stroke="black" fill="red"/>
  <circle cx="1809.31" cy="673.019" r="6.29205" stroke-width="0.5" stroke="red" fill="red"/>
   </g>
   <g id="cell162">
  <circle cx="1656.54" cy="745.697" r="8.54251" stroke-width="0.5" stroke="black" fill="red"/>
  <circle cx="1656.54" cy="745.697" r="5.14891" stroke-width="0.5" stroke="red" fill="red"/>
   </g>
   <g id="cell196">
  <circle cx="1167.53" cy="762.541" r="8.38577" stroke-width="0.5" stroke="black" fill="grey"/>
  <circle cx="1167.53" cy="762.541" r="5.04222" stroke-width="0.5" stroke="grey" fill="grey"/>
   </g>
   <g id="cell164">
  <circle cx="837.869" cy="548.436" r="10.4088" stroke-width="0.5" stroke="black" fill="red"/>
  <circle cx="837.869" cy="548.436" r="6.2821" stroke-width="0.5" stroke="red" fill="red"/>
   </g>
   <g id="cell165">
  <circle cx="1601.3" cy="165.107" r="10.1223" stroke-width="0.5" stroke="black" fill="grey"/>
  <circle cx="1601.3" cy="165.107" r="6.13304" stroke-width="0.5" stroke="grey" fill="grey"/>
   </g>
   <g id="cell166">
  <circle cx="1387.95" cy="374.524" r="10.4292" stroke-width="0.5" stroke="black" fill="grey"/>
  <circle cx="1387.95" cy="374.524" r="6.29201" stroke-width="0.5" stroke="grey" fill="grey"/>
   </g>
   <g id="cell167">
  <circle cx="1660.57" cy="283.377" r="9.86376" stroke-width="0.5" stroke="black" fill="grey"/>
  <circle cx="1660.57" cy="283.377" r="5.98847" stroke-width="0.5" stroke="grey" fill="grey"/>
   </g>
   <g id="cell168">
  <circle cx="688.984" cy="1220.5" r="8.41023" stroke-width="0.5" stroke="black" fill="grey"/>
  <circle cx="688.984" cy="1220.5" r="5.051" stroke-width="0.5" stroke="grey" fill="grey"/>
   </g>
   <g id="cell169">
  <circle cx="1952.04" cy="123.859" r="10.3731" stroke-width="0.5" stroke="black" fill="grey"/>
  <circle cx="1952.04" cy="123.859" r="6.26453" stroke-width="0.5" stroke="grey" fill="grey"/>
   </g>
   <g id="cell170">
  <circle cx="110.277" cy="1886.31" r="9.53347" stroke-width="0.5" stroke="black" fill="grey"/>
  <circle cx="110.277" cy="1886.31" r="5.79498" stroke-width="0.5" stroke="grey" fill="grey"/>
   </g>
   <g id="cell171">
  <circle cx="1120.09" cy="1104.32" r="10.2802" stroke-width="0.5" stroke="black" fill="red"/>
  <circle cx="1120.09" cy="1104.32" r="6.21726" stroke-width="0.5" stroke="red" fill="red"/>
   </g>
   <g id="cell172">
  <circle cx="150.96" cy="1827.94" r="10.1078" stroke-width="0.5" stroke="black" fill="red"/>
  <circle cx="150.96" cy="1827.94" r="6.12524" stroke-width="0.5" stroke="red" fill="red"/>
   </g>
   <g id="cell173">
  <circle cx="535.18" cy="351.209" r="8.40934" stroke-width="0.5" stroke="black" fill="red"/>
  <circle cx="535.18" cy="351.209" r="5.05073" stroke-width="0.5" stroke="red" fill="red"/>
   </g>
   <g id="cell174">
  <circle cx="1452.34" cy="960.579" r="9.33987" stroke-width="0.5" stroke="black" fill="grey"/>
  <circle cx="1452.34" cy="960.579" r="5.67781" stroke-width="0.5" stroke="grey" fill="grey"/>
   </g>
   <g id="cell176">
  <circle cx="1136.83" cy="544.37" r="8.40839" stroke-width="0.5" stroke="black" fill="red"/>
  <circle cx="1136.83" cy="544.37" r="5.05043" stroke-width="0.5" stroke="red" fill="red"/>
   </g>
   <g id="cell177">
  <circle cx="1401.08" cy="1277.34" r="10.1593" stroke-width="0.5" stroke="black" fill="red"/>
  <circle cx="1401.08" cy="1277.34" r="6.15366" stroke-width="0.5" stroke="red" fill="red"/>
   </g>
   <g id="cell178">
  <circle cx="1513.78" cy="888.4" r="8.40667" stroke-width="0.5" stroke="black" fill="red"/>
  <circle cx="1513.78" cy="888.4" r="5.04987" stroke-width="0.5" stroke="red" fill="red"/>
   </g>
   <g id="cell179">
  <circle cx="1385.06" cy="886.239" r="10.1838" stroke-width="0.5" stroke="black" fill="grey"/>
  <circle cx="1385.06" cy="886.239" r="6.16681" stroke-width="0.5" stroke="grey" fill="grey"/>
   </g>
   <g id="cell180">
  <circle cx="1139.93" cy="576.585" r="8.40576" stroke-width="0.5" stroke="black" fill="red"/>
  <circle cx="1139.93" cy="576.585" r="5.04957" stroke-width="0.5" stroke="red" fill="red"/>
   </g>
   <g id="cell181">
  <circle cx="221.592" cy="1277.17" r="10.1323" stroke-width="0.5" stroke="black" fill="grey"/>
  <circle cx="221.592" cy="1277.17" r="6.13926" stroke-width="0.5" stroke="grey" fill="grey"/>
   </g>
   <g id="cell182">
  <circle cx="1675.56" cy="1071.81" r="8.68209" stroke-width="0.5" stroke="black" fill="red"/>
  <circle cx="1675.56" cy="1071.81" r="5.25184" stroke-width="0.5" stroke="red" fill="red"/>
   </g>
   <g id="cell183">
  <circle cx="595.477" cy="333.144" r="8.50494" stroke-width="0.5" stroke="black" fill="grey"/>
  <circle cx="595.477" cy="333.144" r="5.12317" stroke-width="0.5" stroke="grey" fill="grey"/>
   </g>
   <g id="cell184">
  <circle cx="932.513" cy="517.081" r="9.85945" stroke-width="0.5" stroke="black" fill="grey"/>
  <circle cx="932.513" cy="517.081" r="5.98702" stroke-width="0.5" stroke="grey" fill="grey"/>
   </g>
   <g id="cell185">
  <circle cx="890.263" cy="567.576" r="9.46706" stroke-width="0.5" stroke="black" fill="grey"/>
  <circle cx="890.263" cy="567.576" r="5.75634" stroke-width="0.5" stroke="grey" fill="grey"/>
   </g>
   <g id="cell186">
  <circle cx="1148.33" cy="1723.91" r="9.52801" stroke-width="0.5" stroke="black" fill="red"/>
  <circle cx="1148.33" cy="1723.91" r="5.79308" stroke-width="0.5" stroke="red" fill="red"/>
   </g>
   <g id="cell187">
  <circle cx="1298.49" cy="415.448" r="9.957" stroke-width="0.5" stroke="black" fill="grey"/>
  <circle cx="1298.49" cy="415.448" r="6.04266" stroke-width="0.5" stroke="grey" fill="grey"/>
   </g>
   <g id="cell188">
  <circle cx="1988.6" cy="236.982" r="9.15071" stroke-width="0.5" stroke="black" fill="red"/>
  <circle cx="1988.6" cy="236.982" r="5.56254" stroke-width="0.5" stroke="red" fill="red"/>
   </g>
   <g id="cell189">
  <circle cx="1107.67" cy="289.461" r="8.71293" stroke-width="0.5" stroke="black" fill="grey"/>
  <circle cx="1107.67" cy="289.461" r="5.27601" stroke-width="0.5" stroke="grey" fill="grey"/>
   </g>
   <g id="cell190">
  <circle cx="30.4149" cy="978.911" r="8.3937" stroke-width="0.5" stroke="black" fill="red"/>
  <circle cx="30.4149" cy="978.911" r="5.04523" stroke-width="0.5" stroke="red" fill="red"/>
   </g>
   <g id="cell191">
  <circle cx="1541.04" cy="1673.43" r="8.46311" stroke-width="0.5" stroke="black" fill="grey"/>
  <circle cx="1541.04" cy="1673.43" r="5.0964" stroke-width="0.5" stroke="grey" fill="grey"/>
   </g>
   <g id="cell192">
  <circle cx="1985.96" cy="1319.77" r="8.74929" stroke-width="0.5" stroke="black" fill="grey"/>
  <circle cx="1985.96" cy="1319.77" r="5.30198" stroke-width="0.5" stroke="grey" fill="grey"/>
   </g>
   <g id="cell194">
  <circle cx="459.294" cy="1348.04" r="8.38753" stroke-width="0.5" stroke="black" fill="red"/>
  <circle cx="459.294" cy="1348.04" r="5.04286" stroke-width="0.5" stroke="red" fill="red"/>
   </g>
   <g id="cell195">
  <circle cx="779.906" cy="1877.47" r="9.02418" stroke-width="0.5" stroke="black" fill="grey"/>
  <circle cx="779.906" cy="1877.47" r="5.48484" stroke-width="0.5" stroke="grey" fill="grey"/>
   </g>
   <g id="cell197">
  <circle cx="916.26" cy="1977.52" r="8.3842" stroke-width="0.5" stroke="black" fill="red"/>
  <circle cx="916.26" cy="1977.52" r="5.0416" stroke-width="0.5" stroke="red" fill="red"/>
   </g>
   <g id="cell198">
  <circle cx="1340.19" cy="1265.13" r="8.54963" stroke-width="0.5" stroke="black" fill="grey"/>
  <circle cx="1340.19" cy="1265.13" r="5.16414" stroke-width="0.5" stroke="grey" fill="grey"/>
   </g>
   <g id="cell199">
  <circle cx="1017.58" cy="1079.76" r="8.62196" stroke-width="0.5" stroke="black" fill="red"/>
  <circle cx="1017.58" cy="1079.76" r="5.21647" stroke-width="0.5" stroke="red" fill="red"/>
   </g>
   <g id="cell200">
  <circle cx="1746.52" cy="956.599" r="8.37996" stroke-width="0.5" stroke="black" fill="grey"/>
  <circle cx="1746.52" cy="956.599" r="5.0399" stroke-width="0.5" stroke="grey" fill="grey"/>
   </g>
   <g id="cell201">
  <circle cx="1253.85" cy="1272.93" r="8.3781" stroke-width="0.5" stroke="black" fill="red"/>
  <circle cx="1253.85" cy="1272.93" r="5.03914" stroke-width="0.5" stroke="red" fill="red"/>
   </g>
   <g id="cell202">
  <circle cx="452.061" cy="1733.9" r="8.3729" stroke-width="0.5" stroke="black" fill="red"/>
  <circle cx="452.061" cy="1733.9" r="5.03701" stroke-width="0.5" stroke="red" fill="red"/>
   </g>
   <g id="cell203">
  <circle cx="454.129" cy="823.656" r="8.37281" stroke-width="0.5" stroke="black" fill="grey"/>
  <circle cx="454.129" cy="823.656" r="5.03698" stroke-width="0.5" stroke="grey" fill="grey"/>
   </g>
   <g id="cell204">
  <circle cx="1006.24" cy="1061.09" r="8.37173" stroke-width="0.5" stroke="black" fill="red"/>
  <circle cx="1006.24" cy="1061.09" r="5.03653" stroke-width="0.5" stroke="red" fill="red"/>
   </g>
   <g id="cell205">
  <circle cx="1922.78" cy="226.61" r="8.37167" stroke-width="0.5" stroke="black" fill="grey"/>
  <circle cx="1922.78" cy="226.61" r="5.03651" stroke-width="0.5" stroke="grey" fill="grey"/>
   </g>
   <g id="cell206">
  <circle cx="319.665" cy="535.45" r="8.37208" stroke-width="0.5" stroke="black" fill="red"/>
  <circle cx="319.665" cy="535.45" r="5.03661" stroke-width="0.5" stroke="red" fill="red"/>
   </g>
   <g id="cell207">
  <circle cx="1347.43" cy="829.64" r="8.36811" stroke-width="0.5" stroke="black" fill="red"/>
  <circle cx="1347.43" cy="829.64" r="5.03502" stroke-width="0.5" stroke="red" fill="red"/>
   </g>
   <g id="cell208">
  <circle cx="1364.41" cy="1791.32" r="8.36679" stroke-width="0.5" stroke="black" fill="red"/>
  <circle cx="1364.41" cy="1791.32" r="5.03448" stroke-width="0.5" stroke="red" fill="red"/>
   </g>
   <g id="cell209">
  <circle cx="1661.12" cy="299.818" r="8.36672" stroke-width="0.5" stroke="black" fill="red"/>
  <circle cx="1661.12" cy="299.818" r="5.03446" stroke-width="0.5" stroke="red" fill="red"/>
   </g>
  </g>
 </g>
  <rect x="1750" y="2070" width="200" height="20" stroke-width="4" stroke="rgb(255,255,255)" fill="rgb(0,0,0)"/>
  <text x="1762.5" y="2057.5"
   font-family="Arial" font-size="50" fill="black" >
   200 &#956;m
  </text>
  <text x="50" y="2090"
   font-family="Arial" font-size="37.5" fill="black" >
   0 days, 0 hours, 0 minutes, and 43.6859 seconds
  </text>
  <rect x="0" y="140" width="2000" height="2000" stroke-width="4" stroke="rgb(0,0,0)" fill="none"/>
</svg>
