<?xml version="1.0" encoding="UTF-8" standalone="no"?>
<!-- Created with PhysiCell (http://PhysiCell.MathCancer.org/) -->
<svg 
 xmlns:dc="http://purl.org/dc/elements/1.1/" 
 xmlns:cc="http://creativecommons.org/ns#" 
 xmlns:rdf="http://www.w3.org/1999/02/22-rdf-syntax-ns#" 
 xmlns:svg="http://www.w3.org/2000/svg" 
 xmlns="http://www.w3.org/2000/svg" 
 version="1.1" 
 width="2000" 
 height="2140" 
 id="svg2">
  <rect x="0" y="0" width="2000" height="2140" stroke-width="4" stroke="white" fill="white"/>
  <text x="25" y="60"
   font-family="Arial" font-size="50" fill="black" >
   Current time: 0 days, 3 hours, and 20.00 minutes, z = 0.00 &#956;m
  </text>
  <text x="25" y="115"
   font-family="Arial" font-size="47.5" fill="black" >
   100 agents
  </text>
 <g id="tissue" 
    transform="translate(0,2140) scale(1,-1)">
  <g id="ECM">
  </g>
  <g id="cells">
   <g id="cell0">
  <circle cx="1078.01" cy="1157.89" r="8.41271" stroke-width="0.5" stroke="black" fill="grey"/>
  <circle cx="1078.01" cy="1157.89" r="5.05167" stroke-width="0.5" stroke="grey" fill="grey"/>
   </g>
   <g id="cell1">
  <circle cx="1702.88" cy="1200.69" r="8.88811" stroke-width="0.5" stroke="black" fill="grey"/>
  <circle cx="1702.88" cy="1200.69" r="5.38958" stroke-width="0.5" stroke="grey" fill="grey"/>
   </g>
   <g id="cell2">
  <circle cx="1100.24" cy="1709.86" r="9.53557" stroke-width="0.5" stroke="black" fill="grey"/>
  <circle cx="1100.24" cy="1709.86" r="5.79561" stroke-width="0.5" stroke="grey" fill="grey"/>
   </g>
   <g id="cell3">
  <circle cx="1238.03" cy="1280.31" r="8.41271" stroke-width="0.5" stroke="black" fill="grey"/>
  <circle cx="1238.03" cy="1280.31" r="5.05167" stroke-width="0.5" stroke="grey" fill="grey"/>
   </g>
   <g id="cell4">
  <circle cx="882.038" cy="599.451" r="8.41271" stroke-width="0.5" stroke="black" fill="grey"/>
  <circle cx="882.038" cy="599.451" r="5.05167" stroke-width="0.5" stroke="grey" fill="grey"/>
   </g>
   <g id="cell5">
  <circle cx="95.1951" cy="1913.86" r="8.41271" stroke-width="0.5" stroke="black" fill="grey"/>
  <circle cx="95.1951" cy="1913.86" r="5.05167" stroke-width="0.5" stroke="grey" fill="grey"/>
   </g>
   <g id="cell6">
  <circle cx="754.324" cy="925.295" r="8.41271" stroke-width="0.5" stroke="black" fill="grey"/>
  <circle cx="754.324" cy="925.295" r="5.05167" stroke-width="0.5" stroke="grey" fill="grey"/>
   </g>
   <g id="cell7">
  <circle cx="1599.73" cy="1053.6" r="8.57856" stroke-width="0.5" stroke="black" fill="grey"/>
  <circle cx="1599.73" cy="1053.6" r="5.17461" stroke-width="0.5" stroke="grey" fill="grey"/>
   </g>
   <g id="cell8">
  <circle cx="1152.4" cy="796.987" r="9.5053" stroke-width="0.5" stroke="black" fill="grey"/>
  <circle cx="1152.4" cy="796.987" r="5.77744" stroke-width="0.5" stroke="grey" fill="grey"/>
   </g>
   <g id="cell9">
  <circle cx="1653.41" cy="162.045" r="8.41271" stroke-width="0.5" stroke="black" fill="grey"/>
  <circle cx="1653.41" cy="162.045" r="5.05167" stroke-width="0.5" stroke="grey" fill="grey"/>
   </g>
   <g id="cell10">
  <circle cx="192.905" cy="1298.8" r="8.41271" stroke-width="0.5" stroke="black" fill="grey"/>
  <circle cx="192.905" cy="1298.8" r="5.05167" stroke-width="0.5" stroke="grey" fill="grey"/>
   </g>
   <g id="cell11">
  <circle cx="745.907" cy="1646.38" r="9.20015" stroke-width="0.5" stroke="black" fill="grey"/>
  <circle cx="745.907" cy="1646.38" r="5.59022" stroke-width="0.5" stroke="grey" fill="grey"/>
   </g>
   <g id="cell12">
  <circle cx="1593.3" cy="269.304" r="8.41271" stroke-width="0.5" stroke="black" fill="grey"/>
  <circle cx="1593.3" cy="269.304" r="5.05167" stroke-width="0.5" stroke="grey" fill="grey"/>
   </g>
   <g id="cell13">
  <circle cx="1731.48" cy="1946.46" r="9.2729" stroke-width="0.5" stroke="black" fill="grey"/>
  <circle cx="1731.48" cy="1946.46" r="5.63555" stroke-width="0.5" stroke="grey" fill="grey"/>
   </g>
   <g id="cell14">
  <circle cx="1588.59" cy="1602.15" r="8.41271" stroke-width="0.5" stroke="black" fill="grey"/>
  <circle cx="1588.59" cy="1602.15" r="5.05167" stroke-width="0.5" stroke="grey" fill="grey"/>
   </g>
   <g id="cell15">
  <circle cx="1027.29" cy="1576.78" r="8.41271" stroke-width="0.5" stroke="black" fill="grey"/>
  <circle cx="1027.29" cy="1576.78" r="5.05167" stroke-width="0.5" stroke="grey" fill="grey"/>
   </g>
   <g id="cell16">
  <circle cx="227.271" cy="1414.48" r="8.7678" stroke-width="0.5" stroke="black" fill="grey"/>
  <circle cx="227.271" cy="1414.48" r="5.30857" stroke-width="0.5" stroke="grey" fill="grey"/>
   </g>
   <g id="cell17">
  <circle cx="1184.8" cy="295.74" r="8.51252" stroke-width="0.5" stroke="black" fill="grey"/>
  <circle cx="1184.8" cy="295.74" r="5.12552" stroke-width="0.5" stroke="grey" fill="grey"/>
   </g>
   <g id="cell18">
  <circle cx="1876.96" cy="1525.24" r="9.23685" stroke-width="0.5" stroke="black" fill="grey"/>
  <circle cx="1876.96" cy="1525.24" r="5.61315" stroke-width="0.5" stroke="grey" fill="grey"/>
   </g>
   <g id="cell19">
  <circle cx="230.781" cy="823.976" r="8.41271" stroke-width="0.5" stroke="black" fill="grey"/>
  <circle cx="230.781" cy="823.976" r="5.05167" stroke-width="0.5" stroke="grey" fill="grey"/>
   </g>
   <g id="cell20">
  <circle cx="532.421" cy="367.926" r="8.41271" stroke-width="0.5" stroke="black" fill="grey"/>
  <circle cx="532.421" cy="367.926" r="5.05167" stroke-width="0.5" stroke="grey" fill="grey"/>
   </g>
   <g id="cell21">
  <circle cx="1442.59" cy="907.245" r="8.41271" stroke-width="0.5" stroke="black" fill="grey"/>
  <circle cx="1442.59" cy="907.245" r="5.05167" stroke-width="0.5" stroke="grey" fill="grey"/>
   </g>
   <g id="cell22">
  <circle cx="1139.94" cy="261.138" r="8.41271" stroke-width="0.5" stroke="black" fill="grey"/>
  <circle cx="1139.94" cy="261.138" r="5.05167" stroke-width="0.5" stroke="grey" fill="grey"/>
   </g>
   <g id="cell23">
  <circle cx="648.132" cy="1251.61" r="9.37686" stroke-width="0.5" stroke="black" fill="grey"/>
  <circle cx="648.132" cy="1251.61" r="5.69955" stroke-width="0.5" stroke="grey" fill="grey"/>
   </g>
   <g id="cell24">
  <circle cx="1252.46" cy="440.081" r="8.41271" stroke-width="0.5" stroke="black" fill="grey"/>
  <circle cx="1252.46" cy="440.081" r="5.05167" stroke-width="0.5" stroke="grey" fill="grey"/>
   </g>
   <g id="cell25">
  <circle cx="796.142" cy="1878.91" r="9.5053" stroke-width="0.5" stroke="black" fill="grey"/>
  <circle cx="796.142" cy="1878.91" r="5.77744" stroke-width="0.5" stroke="grey" fill="grey"/>
   </g>
   <g id="cell26">
  <circle cx="1388.18" cy="896.97" r="8.41271" stroke-width="0.5" stroke="black" fill="grey"/>
  <circle cx="1388.18" cy="896.97" r="5.05167" stroke-width="0.5" stroke="grey" fill="grey"/>
   </g>
   <g id="cell27">
  <circle cx="1232.22" cy="880.117" r="8.4325" stroke-width="0.5" stroke="black" fill="grey"/>
  <circle cx="1232.22" cy="880.117" r="5.06552" stroke-width="0.5" stroke="grey" fill="grey"/>
   </g>
   <g id="cell28">
  <circle cx="1380.39" cy="198.841" r="8.72828" stroke-width="0.5" stroke="black" fill="grey"/>
  <circle cx="1380.39" cy="198.841" r="5.28134" stroke-width="0.5" stroke="grey" fill="grey"/>
   </g>
   <g id="cell29">
  <circle cx="1937.79" cy="1330.75" r="8.41271" stroke-width="0.5" stroke="black" fill="grey"/>
  <circle cx="1937.79" cy="1330.75" r="5.05167" stroke-width="0.5" stroke="grey" fill="grey"/>
   </g>
   <g id="cell30">
  <circle cx="1346.55" cy="326.377" r="8.41271" stroke-width="0.5" stroke="black" fill="grey"/>
  <circle cx="1346.55" cy="326.377" r="5.05167" stroke-width="0.5" stroke="grey" fill="grey"/>
   </g>
   <g id="cell31">
  <circle cx="710.205" cy="255.84" r="9.30826" stroke-width="0.5" stroke="black" fill="grey"/>
  <circle cx="710.205" cy="255.84" r="5.65742" stroke-width="0.5" stroke="grey" fill="grey"/>
   </g>
   <g id="cell32">
  <circle cx="615.782" cy="1217.5" r="9.2729" stroke-width="0.5" stroke="black" fill="grey"/>
  <circle cx="615.782" cy="1217.5" r="5.63555" stroke-width="0.5" stroke="grey" fill="grey"/>
   </g>
   <g id="cell33">
  <circle cx="656.549" cy="1145.34" r="8.41271" stroke-width="0.5" stroke="black" fill="grey"/>
  <circle cx="656.549" cy="1145.34" r="5.05167" stroke-width="0.5" stroke="grey" fill="grey"/>
   </g>
   <g id="cell34">
  <circle cx="904.241" cy="1257.67" r="9.4743" stroke-width="0.5" stroke="black" fill="grey"/>
  <circle cx="904.241" cy="1257.67" r="5.75875" stroke-width="0.5" stroke="grey" fill="grey"/>
   </g>
   <g id="cell35">
  <circle cx="1902.88" cy="200.554" r="9.12489" stroke-width="0.5" stroke="black" fill="grey"/>
  <circle cx="1902.88" cy="200.554" r="5.54282" stroke-width="0.5" stroke="grey" fill="grey"/>
   </g>
   <g id="cell36">
  <circle cx="411.832" cy="1262.75" r="8.9283" stroke-width="0.5" stroke="black" fill="grey"/>
  <circle cx="411.832" cy="1262.75" r="5.4161" stroke-width="0.5" stroke="grey" fill="grey"/>
   </g>
   <g id="cell37">
  <circle cx="1972.04" cy="1295.43" r="8.41271" stroke-width="0.5" stroke="black" fill="grey"/>
  <circle cx="1972.04" cy="1295.43" r="5.05167" stroke-width="0.5" stroke="grey" fill="grey"/>
   </g>
   <g id="cell38">
  <circle cx="502.945" cy="859.117" r="9.16281" stroke-width="0.5" stroke="black" fill="grey"/>
  <circle cx="502.945" cy="859.117" r="5.56677" stroke-width="0.5" stroke="grey" fill="grey"/>
   </g>
   <g id="cell39">
  <circle cx="925.707" cy="490.741" r="8.41271" stroke-width="0.5" stroke="black" fill="grey"/>
  <circle cx="925.707" cy="490.741" r="5.05167" stroke-width="0.5" stroke="grey" fill="grey"/>
   </g>
   <g id="cell40">
  <circle cx="288.807" cy="657.56" r="9.23685" stroke-width="0.5" stroke="black" fill="grey"/>
  <circle cx="288.807" cy="657.56" r="5.61315" stroke-width="0.5" stroke="grey" fill="grey"/>
   </g>
   <g id="cell41">
  <circle cx="1344.23" cy="1296.36" r="9.5651" stroke-width="0.5" stroke="black" fill="grey"/>
  <circle cx="1344.23" cy="1296.36" r="5.81327" stroke-width="0.5" stroke="grey" fill="grey"/>
   </g>
   <g id="cell42">
  <circle cx="283.051" cy="1563.44" r="8.51252" stroke-width="0.5" stroke="black" fill="grey"/>
  <circle cx="283.051" cy="1563.44" r="5.12552" stroke-width="0.5" stroke="grey" fill="grey"/>
   </g>
   <g id="cell43">
  <circle cx="1889.33" cy="759.752" r="8.7678" stroke-width="0.5" stroke="black" fill="grey"/>
  <circle cx="1889.33" cy="759.752" r="5.30857" stroke-width="0.5" stroke="grey" fill="grey"/>
   </g>
   <g id="cell44">
  <circle cx="1633.55" cy="43.8516" r="8.57856" stroke-width="0.5" stroke="black" fill="grey"/>
  <circle cx="1633.55" cy="43.8516" r="5.17461" stroke-width="0.5" stroke="grey" fill="grey"/>
   </g>
   <g id="cell45">
  <circle cx="1250.71" cy="1690.3" r="8.41271" stroke-width="0.5" stroke="black" fill="grey"/>
  <circle cx="1250.71" cy="1690.3" r="5.05167" stroke-width="0.5" stroke="grey" fill="grey"/>
   </g>
   <g id="cell46">
  <circle cx="182.086" cy="1945.42" r="8.72828" stroke-width="0.5" stroke="black" fill="grey"/>
  <circle cx="182.086" cy="1945.42" r="5.28134" stroke-width="0.5" stroke="grey" fill="grey"/>
   </g>
   <g id="cell47">
  <circle cx="1753.98" cy="921.368" r="9.44256" stroke-width="0.5" stroke="black" fill="grey"/>
  <circle cx="1753.98" cy="921.368" r="5.73955" stroke-width="0.5" stroke="grey" fill="grey"/>
   </g>
   <g id="cell48">
  <circle cx="1939.29" cy="119.741" r="8.41271" stroke-width="0.5" stroke="black" fill="grey"/>
  <circle cx="1939.29" cy="119.741" r="5.05167" stroke-width="0.5" stroke="grey" fill="grey"/>
   </g>
   <g id="cell49">
  <circle cx="904.911" cy="1468.54" r="8.41271" stroke-width="0.5" stroke="black" fill="grey"/>
  <circle cx="904.911" cy="1468.54" r="5.05167" stroke-width="0.5" stroke="grey" fill="grey"/>
   </g>
   <g id="cell50">
  <circle cx="106.96" cy="889.44" r="8.41271" stroke-width="0.5" stroke="black" fill="red"/>
  <circle cx="106.96" cy="889.44" r="5.05167" stroke-width="0.5" stroke="red" fill="red"/>
   </g>
   <g id="cell51">
  <circle cx="1963.76" cy="265.029" r="8.41271" stroke-width="0.5" stroke="black" fill="red"/>
  <circle cx="1963.76" cy="265.029" r="5.05167" stroke-width="0.5" stroke="red" fill="red"/>
   </g>
   <g id="cell52">
  <circle cx="603.095" cy="941.231" r="8.51252" stroke-width="0.5" stroke="black" fill="red"/>
  <circle cx="603.095" cy="941.231" r="5.12552" stroke-width="0.5" stroke="red" fill="red"/>
   </g>
   <g id="cell53">
  <circle cx="1375.42" cy="644.345" r="8.41271" stroke-width="0.5" stroke="black" fill="red"/>
  <circle cx="1375.42" cy="644.345" r="5.05167" stroke-width="0.5" stroke="red" fill="red"/>
   </g>
   <g id="cell54">
  <circle cx="821.917" cy="1824.57" r="8.68937" stroke-width="0.5" stroke="black" fill="red"/>
  <circle cx="821.917" cy="1824.57" r="5.25417" stroke-width="0.5" stroke="red" fill="red"/>
   </g>
   <g id="cell55">
  <circle cx="416.867" cy="1385.39" r="8.41271" stroke-width="0.5" stroke="black" fill="red"/>
  <circle cx="416.867" cy="1385.39" r="5.05167" stroke-width="0.5" stroke="red" fill="red"/>
   </g>
   <g id="cell56">
  <circle cx="1148.57" cy="1723.54" r="8.41271" stroke-width="0.5" stroke="black" fill="red"/>
  <circle cx="1148.57" cy="1723.54" r="5.05167" stroke-width="0.5" stroke="red" fill="red"/>
   </g>
   <g id="cell57">
  <circle cx="1010.58" cy="1068.13" r="9.34292" stroke-width="0.5" stroke="black" fill="red"/>
  <circle cx="1010.58" cy="1068.13" r="5.67875" stroke-width="0.5" stroke="red" fill="red"/>
   </g>
   <g id="cell58">
  <circle cx="174.674" cy="1819.81" r="8.41271" stroke-width="0.5" stroke="black" fill="red"/>
  <circle cx="174.674" cy="1819.81" r="5.05167" stroke-width="0.5" stroke="red" fill="red"/>
   </g>
   <g id="cell59">
  <circle cx="166.225" cy="1858.59" r="2.38423" stroke-width="0.5" stroke="black" fill="red"/>
  <circle cx="166.225" cy="1858.59" r="2.15073" stroke-width="0.5" stroke="black" fill="black"/>
   </g>
   <g id="cell60">
  <circle cx="650.911" cy="23.7668" r="8.41271" stroke-width="0.5" stroke="black" fill="red"/>
  <circle cx="650.911" cy="23.7668" r="5.05167" stroke-width="0.5" stroke="red" fill="red"/>
   </g>
   <g id="cell61">
  <circle cx="1671.02" cy="255.54" r="8.84788" stroke-width="0.5" stroke="black" fill="red"/>
  <circle cx="1671.02" cy="255.54" r="5.36278" stroke-width="0.5" stroke="red" fill="red"/>
   </g>
   <g id="cell62">
  <circle cx="1426.87" cy="1680.44" r="8.65127" stroke-width="0.5" stroke="black" fill="red"/>
  <circle cx="1426.87" cy="1680.44" r="5.2272" stroke-width="0.5" stroke="red" fill="red"/>
   </g>
   <g id="cell63">
  <circle cx="547.737" cy="369.656" r="8.41271" stroke-width="0.5" stroke="black" fill="red"/>
  <circle cx="547.737" cy="369.656" r="5.05167" stroke-width="0.5" stroke="red" fill="red"/>
   </g>
   <g id="cell64">
  <circle cx="1173.03" cy="1126.63" r="8.41271" stroke-width="0.5" stroke="black" fill="red"/>
  <circle cx="1173.03" cy="1126.63" r="5.05167" stroke-width="0.5" stroke="red" fill="red"/>
   </g>
   <g id="cell65">
  <circle cx="320.406" cy="1660.98" r="8.68937" stroke-width="0.5" stroke="black" fill="red"/>
  <circle cx="320.406" cy="1660.98" r="5.25417" stroke-width="0.5" stroke="red" fill="red"/>
   </g>
   <g id="cell66">
  <circle cx="19.7796" cy="285.839" r="8.41271" stroke-width="0.5" stroke="black" fill="red"/>
  <circle cx="19.7796" cy="285.839" r="5.05167" stroke-width="0.5" stroke="red" fill="red"/>
   </g>
   <g id="cell67">
  <circle cx="1160.96" cy="537.481" r="8.41271" stroke-width="0.5" stroke="black" fill="red"/>
  <circle cx="1160.96" cy="537.481" r="5.05167" stroke-width="0.5" stroke="red" fill="red"/>
   </g>
   <g id="cell68">
  <circle cx="1456.22" cy="591.65" r="8.54454" stroke-width="0.5" stroke="black" fill="red"/>
  <circle cx="1456.22" cy="591.65" r="5.14947" stroke-width="0.5" stroke="red" fill="red"/>
   </g>
   <g id="cell69">
  <circle cx="868.51" cy="501.371" r="8.41271" stroke-width="0.5" stroke="black" fill="red"/>
  <circle cx="868.51" cy="501.371" r="5.05167" stroke-width="0.5" stroke="red" fill="red"/>
   </g>
   <g id="cell70">
  <circle cx="1166.65" cy="789.674" r="8.9283" stroke-width="0.5" stroke="black" fill="red"/>
  <circle cx="1166.65" cy="789.674" r="5.4161" stroke-width="0.5" stroke="red" fill="red"/>
   </g>
   <g id="cell71">
  <circle cx="1776.3" cy="1133.49" r="9.41008" stroke-width="0.5" stroke="black" fill="red"/>
  <circle cx="1776.3" cy="1133.49" r="5.71981" stroke-width="0.5" stroke="red" fill="red"/>
   </g>
   <g id="cell72">
  <circle cx="441.657" cy="1768.82" r="8.41271" stroke-width="0.5" stroke="black" fill="red"/>
  <circle cx="441.657" cy="1768.82" r="5.05167" stroke-width="0.5" stroke="red" fill="red"/>
   </g>
   <g id="cell73">
  <circle cx="1358.51" cy="882.134" r="9.23685" stroke-width="0.5" stroke="black" fill="red"/>
  <circle cx="1358.51" cy="882.134" r="5.61315" stroke-width="0.5" stroke="red" fill="red"/>
   </g>
   <g id="cell74">
  <circle cx="1705.92" cy="1932.99" r="8.72828" stroke-width="0.5" stroke="black" fill="red"/>
  <circle cx="1705.92" cy="1932.99" r="5.28134" stroke-width="0.5" stroke="red" fill="red"/>
   </g>
   <g id="cell75">
  <circle cx="212.221" cy="592.146" r="8.41271" stroke-width="0.5" stroke="black" fill="red"/>
  <circle cx="212.221" cy="592.146" r="5.05167" stroke-width="0.5" stroke="red" fill="red"/>
   </g>
   <g id="cell76">
  <circle cx="1642.56" cy="805.218" r="8.41271" stroke-width="0.5" stroke="black" fill="red"/>
  <circle cx="1642.56" cy="805.218" r="5.05167" stroke-width="0.5" stroke="red" fill="red"/>
   </g>
   <g id="cell77">
  <circle cx="1354.12" cy="1787.12" r="9.04745" stroke-width="0.5" stroke="black" fill="red"/>
  <circle cx="1354.12" cy="1787.12" r="5.49345" stroke-width="0.5" stroke="red" fill="red"/>
   </g>
   <g id="cell78">
  <circle cx="1142.06" cy="621.82" r="8.41271" stroke-width="0.5" stroke="black" fill="red"/>
  <circle cx="1142.06" cy="621.82" r="5.05167" stroke-width="0.5" stroke="red" fill="red"/>
   </g>
   <g id="cell79">
  <circle cx="1936.1" cy="1414.73" r="8.41271" stroke-width="0.5" stroke="black" fill="red"/>
  <circle cx="1936.1" cy="1414.73" r="5.05167" stroke-width="0.5" stroke="red" fill="red"/>
   </g>
   <g id="cell80">
  <circle cx="1445.43" cy="1315.92" r="8.96831" stroke-width="0.5" stroke="black" fill="red"/>
  <circle cx="1445.43" cy="1315.92" r="5.44228" stroke-width="0.5" stroke="red" fill="red"/>
   </g>
   <g id="cell81">
  <circle cx="1078.84" cy="1911.37" r="8.4325" stroke-width="0.5" stroke="black" fill="red"/>
  <circle cx="1078.84" cy="1911.37" r="5.06552" stroke-width="0.5" stroke="red" fill="red"/>
   </g>
   <g id="cell82">
  <circle cx="1285.73" cy="802.527" r="9.20015" stroke-width="0.5" stroke="black" fill="red"/>
  <circle cx="1285.73" cy="802.527" r="5.59022" stroke-width="0.5" stroke="red" fill="red"/>
   </g>
   <g id="cell83">
  <circle cx="1209.03" cy="1209.62" r="9.5053" stroke-width="0.5" stroke="black" fill="red"/>
  <circle cx="1209.03" cy="1209.62" r="5.77744" stroke-width="0.5" stroke="red" fill="red"/>
   </g>
   <g id="cell84">
  <circle cx="27.4968" cy="938.686" r="8.41271" stroke-width="0.5" stroke="black" fill="red"/>
  <circle cx="27.4968" cy="938.686" r="5.05167" stroke-width="0.5" stroke="red" fill="red"/>
   </g>
   <g id="cell85">
  <circle cx="1436.2" cy="1329.92" r="8.41271" stroke-width="0.5" stroke="black" fill="red"/>
  <circle cx="1436.2" cy="1329.92" r="5.05167" stroke-width="0.5" stroke="red" fill="red"/>
   </g>
   <g id="cell86">
  <circle cx="555.946" cy="782.466" r="8.41271" stroke-width="0.5" stroke="black" fill="red"/>
  <circle cx="555.946" cy="782.466" r="5.05167" stroke-width="0.5" stroke="red" fill="red"/>
   </g>
   <g id="cell87">
  <circle cx="1482.67" cy="867.65" r="8.41271" stroke-width="0.5" stroke="black" fill="red"/>
  <circle cx="1482.67" cy="867.65" r="5.05167" stroke-width="0.5" stroke="red" fill="red"/>
   </g>
   <g id="cell88">
  <circle cx="270.812" cy="219.201" r="8.72828" stroke-width="0.5" stroke="black" fill="red"/>
  <circle cx="270.812" cy="219.201" r="5.28134" stroke-width="0.5" stroke="red" fill="red"/>
   </g>
   <g id="cell89">
  <circle cx="181.211" cy="1135.24" r="8.84788" stroke-width="0.5" stroke="black" fill="red"/>
  <circle cx="181.211" cy="1135.24" r="5.36278" stroke-width="0.5" stroke="red" fill="red"/>
   </g>
   <g id="cell90">
  <circle cx="1204.29" cy="1096.78" r="8.41271" stroke-width="0.5" stroke="black" fill="red"/>
  <circle cx="1204.29" cy="1096.78" r="5.05167" stroke-width="0.5" stroke="red" fill="red"/>
   </g>
   <g id="cell91">
  <circle cx="67.6451" cy="1289.44" r="9.04745" stroke-width="0.5" stroke="black" fill="red"/>
  <circle cx="67.6451" cy="1289.44" r="5.49345" stroke-width="0.5" stroke="red" fill="red"/>
   </g>
   <g id="cell92">
  <circle cx="1304.21" cy="641.994" r="2.38423" stroke-width="0.5" stroke="black" fill="red"/>
  <circle cx="1304.21" cy="641.994" r="2.15073" stroke-width="0.5" stroke="black" fill="black"/>
   </g>
   <g id="cell93">
  <circle cx="452.005" cy="1806.26" r="9.4743" stroke-width="0.5" stroke="black" fill="red"/>
  <circle cx="452.005" cy="1806.26" r="5.75875" stroke-width="0.5" stroke="red" fill="red"/>
   </g>
   <g id="cell94">
  <circle cx="734.467" cy="194.905" r="8.45606" stroke-width="0.5" stroke="black" fill="red"/>
  <circle cx="734.467" cy="194.905" r="5.08296" stroke-width="0.5" stroke="red" fill="red"/>
   </g>
   <g id="cell95">
  <circle cx="1959.53" cy="1777.02" r="9.34292" stroke-width="0.5" stroke="black" fill="red"/>
  <circle cx="1959.53" cy="1777.02" r="5.67875" stroke-width="0.5" stroke="red" fill="red"/>
   </g>
   <g id="cell96">
  <circle cx="1622.43" cy="1069.83" r="8.41271" stroke-width="0.5" stroke="black" fill="red"/>
  <circle cx="1622.43" cy="1069.83" r="5.05167" stroke-width="0.5" stroke="red" fill="red"/>
   </g>
   <g id="cell97">
  <circle cx="915.682" cy="188.114" r="8.41271" stroke-width="0.5" stroke="black" fill="red"/>
  <circle cx="915.682" cy="188.114" r="5.05167" stroke-width="0.5" stroke="red" fill="red"/>
   </g>
   <g id="cell98">
  <circle cx="1821.39" cy="705.271" r="8.41271" stroke-width="0.5" stroke="black" fill="red"/>
  <circle cx="1821.39" cy="705.271" r="5.05167" stroke-width="0.5" stroke="red" fill="red"/>
   </g>
   <g id="cell99">
  <circle cx="944.822" cy="1988.8" r="9.37686" stroke-width="0.5" stroke="black" fill="red"/>
  <circle cx="944.822" cy="1988.8" r="5.69955" stroke-width="0.5" stroke="red" fill="red"/>
   </g>
  </g>
 </g>
  <rect x="1750" y="2070" width="200" height="20" stroke-width="4" stroke="rgb(255,255,255)" fill="rgb(0,0,0)"/>
  <text x="1762.5" y="2057.5"
   font-family="Arial" font-size="50" fill="black" >
   200 &#956;m
  </text>
  <text x="50" y="2090"
   font-family="Arial" font-size="37.5" fill="black" >
   0 days, 0 hours, 0 minutes, and 4.9714 seconds
  </text>
  <rect x="0" y="140" width="2000" height="2000" stroke-width="4" stroke="rgb(0,0,0)" fill="none"/>
</svg>
