<?xml version="1.0" encoding="UTF-8" standalone="no"?>
<!-- Created with PhysiCell (http://PhysiCell.MathCancer.org/) -->
<svg 
 xmlns:dc="http://purl.org/dc/elements/1.1/" 
 xmlns:cc="http://creativecommons.org/ns#" 
 xmlns:rdf="http://www.w3.org/1999/02/22-rdf-syntax-ns#" 
 xmlns:svg="http://www.w3.org/2000/svg" 
 xmlns="http://www.w3.org/2000/svg" 
 version="1.1" 
 width="2000" 
 height="2140" 
 id="svg2">
  <rect x="0" y="0" width="2000" height="2140" stroke-width="4" stroke="white" fill="white"/>
  <text x="25" y="60"
   font-family="Arial" font-size="50" fill="black" >
   Current time: 0 days, 11 hours, and 30.00 minutes, z = 0.00 &#956;m
  </text>
  <text x="25" y="115"
   font-family="Arial" font-size="47.5" fill="black" >
   100 agents
  </text>
 <g id="tissue" 
    transform="translate(0,2140) scale(1,-1)">
  <g id="ECM">
  </g>
  <g id="cells">
   <g id="cell0">
  <circle cx="1122.66" cy="1152.34" r="10.2821" stroke-width="0.5" stroke="black" fill="grey"/>
  <circle cx="1122.66" cy="1152.34" r="6.21778" stroke-width="0.5" stroke="grey" fill="grey"/>
   </g>
   <g id="cell1">
  <circle cx="1684.76" cy="1172.79" r="10.1238" stroke-width="0.5" stroke="black" fill="grey"/>
  <circle cx="1684.76" cy="1172.79" r="6.13347" stroke-width="0.5" stroke="grey" fill="grey"/>
   </g>
   <g id="cell2">
  <circle cx="1140.85" cy="1709.2" r="10.3873" stroke-width="0.5" stroke="black" fill="grey"/>
  <circle cx="1140.85" cy="1709.2" r="6.2712" stroke-width="0.5" stroke="grey" fill="grey"/>
   </g>
   <g id="cell3">
  <circle cx="1231.85" cy="1287.53" r="10.483" stroke-width="0.5" stroke="black" fill="grey"/>
  <circle cx="1231.85" cy="1287.53" r="6.31703" stroke-width="0.5" stroke="grey" fill="grey"/>
   </g>
   <g id="cell4">
  <circle cx="852.836" cy="611.405" r="10.4208" stroke-width="0.5" stroke="black" fill="grey"/>
  <circle cx="852.836" cy="611.405" r="6.28762" stroke-width="0.5" stroke="grey" fill="grey"/>
   </g>
   <g id="cell5">
  <circle cx="98.0435" cy="1959.2" r="9.44256" stroke-width="0.5" stroke="black" fill="grey"/>
  <circle cx="98.0435" cy="1959.2" r="5.73955" stroke-width="0.5" stroke="grey" fill="grey"/>
   </g>
   <g id="cell6">
  <circle cx="790.227" cy="905.961" r="10.3325" stroke-width="0.5" stroke="black" fill="grey"/>
  <circle cx="790.227" cy="905.961" r="6.24369" stroke-width="0.5" stroke="grey" fill="grey"/>
   </g>
   <g id="cell7">
  <circle cx="1644.76" cy="1070.81" r="10.4156" stroke-width="0.5" stroke="black" fill="grey"/>
  <circle cx="1644.76" cy="1070.81" r="6.2851" stroke-width="0.5" stroke="grey" fill="grey"/>
   </g>
   <g id="cell8">
  <circle cx="1131.2" cy="801.575" r="10.34" stroke-width="0.5" stroke="black" fill="grey"/>
  <circle cx="1131.2" cy="801.575" r="6.24753" stroke-width="0.5" stroke="grey" fill="grey"/>
   </g>
   <g id="cell9">
  <circle cx="1725.09" cy="131.881" r="9.96412" stroke-width="0.5" stroke="black" fill="grey"/>
  <circle cx="1725.09" cy="131.881" r="6.04499" stroke-width="0.5" stroke="grey" fill="grey"/>
   </g>
   <g id="cell10">
  <circle cx="186.513" cy="1278.86" r="10.4726" stroke-width="0.5" stroke="black" fill="grey"/>
  <circle cx="186.513" cy="1278.86" r="6.31223" stroke-width="0.5" stroke="grey" fill="grey"/>
   </g>
   <g id="cell11">
  <circle cx="701.425" cy="1699.3" r="10.2911" stroke-width="0.5" stroke="black" fill="grey"/>
  <circle cx="701.425" cy="1699.3" r="6.22246" stroke-width="0.5" stroke="grey" fill="grey"/>
   </g>
   <g id="cell12">
  <circle cx="1534.64" cy="319.022" r="10.3933" stroke-width="0.5" stroke="black" fill="grey"/>
  <circle cx="1534.64" cy="319.022" r="6.27417" stroke-width="0.5" stroke="grey" fill="grey"/>
   </g>
   <g id="cell13">
  <circle cx="1754.93" cy="1960.28" r="9.75192" stroke-width="0.5" stroke="black" fill="grey"/>
  <circle cx="1754.93" cy="1960.28" r="5.92342" stroke-width="0.5" stroke="grey" fill="grey"/>
   </g>
   <g id="cell14">
  <circle cx="1606.47" cy="1569.74" r="10.2632" stroke-width="0.5" stroke="black" fill="grey"/>
  <circle cx="1606.47" cy="1569.74" r="6.20796" stroke-width="0.5" stroke="grey" fill="grey"/>
   </g>
   <g id="cell15">
  <circle cx="1042.59" cy="1586.32" r="10.4689" stroke-width="0.5" stroke="black" fill="grey"/>
  <circle cx="1042.59" cy="1586.32" r="6.31053" stroke-width="0.5" stroke="grey" fill="grey"/>
   </g>
   <g id="cell16">
  <circle cx="235.256" cy="1455.75" r="10.4689" stroke-width="0.5" stroke="black" fill="grey"/>
  <circle cx="235.256" cy="1455.75" r="6.31053" stroke-width="0.5" stroke="grey" fill="grey"/>
   </g>
   <g id="cell17">
  <circle cx="1150.79" cy="287.158" r="10.4689" stroke-width="0.5" stroke="black" fill="grey"/>
  <circle cx="1150.79" cy="287.158" r="6.31053" stroke-width="0.5" stroke="grey" fill="grey"/>
   </g>
   <g id="cell18">
  <circle cx="1863.84" cy="1559.26" r="8.41271" stroke-width="0.5" stroke="black" fill="grey"/>
  <circle cx="1863.84" cy="1559.26" r="5.05167" stroke-width="0.5" stroke="grey" fill="grey"/>
   </g>
   <g id="cell19">
  <circle cx="196.094" cy="838.666" r="8.41271" stroke-width="0.5" stroke="black" fill="grey"/>
  <circle cx="196.094" cy="838.666" r="5.05167" stroke-width="0.5" stroke="grey" fill="grey"/>
   </g>
   <g id="cell20">
  <circle cx="553.758" cy="365.812" r="10.4401" stroke-width="0.5" stroke="black" fill="grey"/>
  <circle cx="553.758" cy="365.812" r="6.29691" stroke-width="0.5" stroke="grey" fill="grey"/>
   </g>
   <g id="cell21">
  <circle cx="1463.83" cy="916.189" r="10.3325" stroke-width="0.5" stroke="black" fill="grey"/>
  <circle cx="1463.83" cy="916.189" r="6.24369" stroke-width="0.5" stroke="grey" fill="grey"/>
   </g>
   <g id="cell22">
  <circle cx="1171.42" cy="262.993" r="10.4613" stroke-width="0.5" stroke="black" fill="grey"/>
  <circle cx="1171.42" cy="262.993" r="6.30695" stroke-width="0.5" stroke="grey" fill="grey"/>
   </g>
   <g id="cell23">
  <circle cx="648.859" cy="1221.84" r="10.4446" stroke-width="0.5" stroke="black" fill="grey"/>
  <circle cx="648.859" cy="1221.84" r="6.29905" stroke-width="0.5" stroke="grey" fill="grey"/>
   </g>
   <g id="cell24">
  <circle cx="1233.49" cy="441.016" r="1.29827" stroke-width="0.5" stroke="black" fill="grey"/>
  <circle cx="1233.49" cy="441.016" r="1.29055" stroke-width="0.5" stroke="black" fill="black"/>
   </g>
   <g id="cell25">
  <circle cx="752.138" cy="1920.14" r="10.4489" stroke-width="0.5" stroke="black" fill="grey"/>
  <circle cx="752.138" cy="1920.14" r="6.30112" stroke-width="0.5" stroke="grey" fill="grey"/>
   </g>
   <g id="cell26">
  <circle cx="1381.37" cy="903.856" r="9.5651" stroke-width="0.5" stroke="black" fill="grey"/>
  <circle cx="1381.37" cy="903.856" r="5.81327" stroke-width="0.5" stroke="grey" fill="grey"/>
   </g>
   <g id="cell27">
  <circle cx="1233.05" cy="839.485" r="10.4156" stroke-width="0.5" stroke="black" fill="grey"/>
  <circle cx="1233.05" cy="839.485" r="6.2851" stroke-width="0.5" stroke="grey" fill="grey"/>
   </g>
   <g id="cell28">
  <circle cx="1385.47" cy="199.805" r="10.4796" stroke-width="0.5" stroke="black" fill="grey"/>
  <circle cx="1385.47" cy="199.805" r="6.31548" stroke-width="0.5" stroke="grey" fill="grey"/>
   </g>
   <g id="cell29">
  <circle cx="1917.55" cy="1325.69" r="10.4796" stroke-width="0.5" stroke="black" fill="grey"/>
  <circle cx="1917.55" cy="1325.69" r="6.31548" stroke-width="0.5" stroke="grey" fill="grey"/>
   </g>
   <g id="cell30">
  <circle cx="1357.19" cy="379.651" r="9.82189" stroke-width="0.5" stroke="black" fill="grey"/>
  <circle cx="1357.19" cy="379.651" r="5.96395" stroke-width="0.5" stroke="grey" fill="grey"/>
   </g>
   <g id="cell31">
  <circle cx="729.862" cy="286.456" r="10.2534" stroke-width="0.5" stroke="black" fill="grey"/>
  <circle cx="729.862" cy="286.456" r="6.2028" stroke-width="0.5" stroke="grey" fill="grey"/>
   </g>
   <g id="cell32">
  <circle cx="691.097" cy="1199.67" r="10.4984" stroke-width="0.5" stroke="black" fill="grey"/>
  <circle cx="691.097" cy="1199.67" r="6.32406" stroke-width="0.5" stroke="grey" fill="grey"/>
   </g>
   <g id="cell33">
  <circle cx="654.559" cy="1151.58" r="9.96412" stroke-width="0.5" stroke="black" fill="grey"/>
  <circle cx="654.559" cy="1151.58" r="6.04499" stroke-width="0.5" stroke="grey" fill="grey"/>
   </g>
   <g id="cell34">
  <circle cx="850.104" cy="1308.26" r="10.2999" stroke-width="0.5" stroke="black" fill="grey"/>
  <circle cx="850.104" cy="1308.26" r="6.22699" stroke-width="0.5" stroke="grey" fill="grey"/>
   </g>
   <g id="cell35">
  <circle cx="1911.25" cy="191.356" r="10.0169" stroke-width="0.5" stroke="black" fill="grey"/>
  <circle cx="1911.25" cy="191.356" r="6.07458" stroke-width="0.5" stroke="grey" fill="grey"/>
   </g>
   <g id="cell36">
  <circle cx="410.252" cy="1270.38" r="10.4446" stroke-width="0.5" stroke="black" fill="grey"/>
  <circle cx="410.252" cy="1270.38" r="6.29905" stroke-width="0.5" stroke="grey" fill="grey"/>
   </g>
   <g id="cell37">
  <circle cx="1978.67" cy="1367.97" r="10.3747" stroke-width="0.5" stroke="black" fill="grey"/>
  <circle cx="1978.67" cy="1367.97" r="6.26498" stroke-width="0.5" stroke="grey" fill="grey"/>
   </g>
   <g id="cell38">
  <circle cx="506.384" cy="847.264" r="8.41271" stroke-width="0.5" stroke="black" fill="grey"/>
  <circle cx="506.384" cy="847.264" r="5.05167" stroke-width="0.5" stroke="grey" fill="grey"/>
   </g>
   <g id="cell39">
  <circle cx="912.335" cy="489.065" r="10.3933" stroke-width="0.5" stroke="black" fill="grey"/>
  <circle cx="912.335" cy="489.065" r="6.27417" stroke-width="0.5" stroke="grey" fill="grey"/>
   </g>
   <g id="cell40">
  <circle cx="327.692" cy="660.988" r="10.3873" stroke-width="0.5" stroke="black" fill="grey"/>
  <circle cx="327.692" cy="660.988" r="6.2712" stroke-width="0.5" stroke="grey" fill="grey"/>
   </g>
   <g id="cell41">
  <circle cx="1343.56" cy="1306.65" r="10.211" stroke-width="0.5" stroke="black" fill="grey"/>
  <circle cx="1343.56" cy="1306.65" r="6.18041" stroke-width="0.5" stroke="grey" fill="grey"/>
   </g>
   <g id="cell42">
  <circle cx="237.209" cy="1564.18" r="8.41271" stroke-width="0.5" stroke="black" fill="grey"/>
  <circle cx="237.209" cy="1564.18" r="5.05167" stroke-width="0.5" stroke="grey" fill="grey"/>
   </g>
   <g id="cell43">
  <circle cx="1870.11" cy="727.631" r="8.41271" stroke-width="0.5" stroke="black" fill="grey"/>
  <circle cx="1870.11" cy="727.631" r="5.05167" stroke-width="0.5" stroke="grey" fill="grey"/>
   </g>
   <g id="cell44">
  <circle cx="1654.85" cy="55.9964" r="10.3545" stroke-width="0.5" stroke="black" fill="grey"/>
  <circle cx="1654.85" cy="55.9964" r="6.25485" stroke-width="0.5" stroke="grey" fill="grey"/>
   </g>
   <g id="cell45">
  <circle cx="1197.79" cy="1643.37" r="8.61424" stroke-width="0.5" stroke="black" fill="grey"/>
  <circle cx="1197.79" cy="1643.37" r="5.20061" stroke-width="0.5" stroke="grey" fill="grey"/>
   </g>
   <g id="cell46">
  <circle cx="170.537" cy="1873.19" r="9.96412" stroke-width="0.5" stroke="black" fill="grey"/>
  <circle cx="170.537" cy="1873.19" r="6.04499" stroke-width="0.5" stroke="grey" fill="grey"/>
   </g>
   <g id="cell47">
  <circle cx="1772.55" cy="967.7" r="10.4489" stroke-width="0.5" stroke="black" fill="grey"/>
  <circle cx="1772.55" cy="967.7" r="6.30112" stroke-width="0.5" stroke="grey" fill="grey"/>
   </g>
   <g id="cell48">
  <circle cx="1979.31" cy="100.705" r="10.4613" stroke-width="0.5" stroke="black" fill="grey"/>
  <circle cx="1979.31" cy="100.705" r="6.30695" stroke-width="0.5" stroke="grey" fill="grey"/>
   </g>
   <g id="cell49">
  <circle cx="837.674" cy="1481.13" r="10.4894" stroke-width="0.5" stroke="black" fill="grey"/>
  <circle cx="837.674" cy="1481.13" r="6.31998" stroke-width="0.5" stroke="grey" fill="grey"/>
   </g>
   <g id="cell50">
  <circle cx="80.2604" cy="890.138" r="10.4984" stroke-width="0.5" stroke="black" fill="red"/>
  <circle cx="80.2604" cy="890.138" r="6.32406" stroke-width="0.5" stroke="red" fill="red"/>
   </g>
   <g id="cell51">
  <circle cx="1966.72" cy="264.177" r="9.7992" stroke-width="0.5" stroke="black" fill="red"/>
  <circle cx="1966.72" cy="264.177" r="5.95086" stroke-width="0.5" stroke="red" fill="red"/>
   </g>
   <g id="cell52">
  <circle cx="595.818" cy="988.85" r="10.3615" stroke-width="0.5" stroke="black" fill="red"/>
  <circle cx="595.818" cy="988.85" r="6.25834" stroke-width="0.5" stroke="red" fill="red"/>
   </g>
   <g id="cell53">
  <circle cx="1358.8" cy="601.641" r="10.4862" stroke-width="0.5" stroke="black" fill="red"/>
  <circle cx="1358.8" cy="601.641" r="6.31853" stroke-width="0.5" stroke="red" fill="red"/>
   </g>
   <g id="cell54">
  <circle cx="780.233" cy="1820.1" r="10.4984" stroke-width="0.5" stroke="black" fill="red"/>
  <circle cx="780.233" cy="1820.1" r="6.32406" stroke-width="0.5" stroke="red" fill="red"/>
   </g>
   <g id="cell55">
  <circle cx="420.502" cy="1388.79" r="10.4446" stroke-width="0.5" stroke="black" fill="red"/>
  <circle cx="420.502" cy="1388.79" r="6.29905" stroke-width="0.5" stroke="red" fill="red"/>
   </g>
   <g id="cell56">
  <circle cx="1156.18" cy="1692.32" r="9.4743" stroke-width="0.5" stroke="black" fill="red"/>
  <circle cx="1156.18" cy="1692.32" r="5.75875" stroke-width="0.5" stroke="red" fill="red"/>
   </g>
   <g id="cell57">
  <circle cx="1022.96" cy="1035.08" r="8.41271" stroke-width="0.5" stroke="black" fill="red"/>
  <circle cx="1022.96" cy="1035.08" r="5.05167" stroke-width="0.5" stroke="red" fill="red"/>
   </g>
   <g id="cell58">
  <circle cx="185.354" cy="1786.16" r="10.4355" stroke-width="0.5" stroke="black" fill="red"/>
  <circle cx="185.354" cy="1786.16" r="6.2947" stroke-width="0.5" stroke="red" fill="red"/>
   </g>
   <g id="cell59">
  <circle cx="171.722" cy="1844.99" r="1.47021" stroke-width="0.5" stroke="black" fill="red"/>
  <circle cx="171.722" cy="1844.99" r="1.46185" stroke-width="0.5" stroke="black" fill="black"/>
   </g>
   <g id="cell60">
  <circle cx="683.448" cy="54.6732" r="10.4796" stroke-width="0.5" stroke="black" fill="red"/>
  <circle cx="683.448" cy="54.6732" r="6.31548" stroke-width="0.5" stroke="red" fill="red"/>
   </g>
   <g id="cell61">
  <circle cx="1667.83" cy="279.998" r="10.3325" stroke-width="0.5" stroke="black" fill="red"/>
  <circle cx="1667.83" cy="279.998" r="6.24369" stroke-width="0.5" stroke="red" fill="red"/>
   </g>
   <g id="cell62">
  <circle cx="1428.89" cy="1666.83" r="10.0955" stroke-width="0.5" stroke="black" fill="red"/>
  <circle cx="1428.89" cy="1666.83" r="6.11797" stroke-width="0.5" stroke="red" fill="red"/>
   </g>
   <g id="cell63">
  <circle cx="505.504" cy="342.962" r="9.5651" stroke-width="0.5" stroke="black" fill="red"/>
  <circle cx="505.504" cy="342.962" r="5.81327" stroke-width="0.5" stroke="red" fill="red"/>
   </g>
   <g id="cell64">
  <circle cx="1161.01" cy="1111.35" r="10.1098" stroke-width="0.5" stroke="black" fill="red"/>
  <circle cx="1161.01" cy="1111.35" r="6.12585" stroke-width="0.5" stroke="red" fill="red"/>
   </g>
   <g id="cell65">
  <circle cx="381.286" cy="1641.5" r="10.4446" stroke-width="0.5" stroke="black" fill="red"/>
  <circle cx="381.286" cy="1641.5" r="6.29905" stroke-width="0.5" stroke="red" fill="red"/>
   </g>
   <g id="cell66">
  <circle cx="15.9226" cy="311.499" r="10.3325" stroke-width="0.5" stroke="black" fill="red"/>
  <circle cx="15.9226" cy="311.499" r="6.24369" stroke-width="0.5" stroke="red" fill="red"/>
   </g>
   <g id="cell67">
  <circle cx="1099.22" cy="554.967" r="10.2534" stroke-width="0.5" stroke="black" fill="red"/>
  <circle cx="1099.22" cy="554.967" r="6.2028" stroke-width="0.5" stroke="red" fill="red"/>
   </g>
   <g id="cell68">
  <circle cx="1485.99" cy="615.468" r="10.4401" stroke-width="0.5" stroke="black" fill="red"/>
  <circle cx="1485.99" cy="615.468" r="6.29691" stroke-width="0.5" stroke="red" fill="red"/>
   </g>
   <g id="cell69">
  <circle cx="888.679" cy="550.167" r="8.41271" stroke-width="0.5" stroke="black" fill="red"/>
  <circle cx="888.679" cy="550.167" r="5.05167" stroke-width="0.5" stroke="red" fill="red"/>
   </g>
   <g id="cell70">
  <circle cx="1164.98" cy="811.929" r="10.3991" stroke-width="0.5" stroke="black" fill="red"/>
  <circle cx="1164.98" cy="811.929" r="6.27703" stroke-width="0.5" stroke="red" fill="red"/>
   </g>
   <g id="cell71">
  <circle cx="1767.25" cy="1127" r="10.3545" stroke-width="0.5" stroke="black" fill="red"/>
  <circle cx="1767.25" cy="1127" r="6.25485" stroke-width="0.5" stroke="red" fill="red"/>
   </g>
   <g id="cell72">
  <circle cx="447.259" cy="1818.52" r="9.94548" stroke-width="0.5" stroke="black" fill="red"/>
  <circle cx="447.259" cy="1818.52" r="6.03448" stroke-width="0.5" stroke="red" fill="red"/>
   </g>
   <g id="cell73">
  <circle cx="1445.74" cy="899.329" r="10.4573" stroke-width="0.5" stroke="black" fill="red"/>
  <circle cx="1445.74" cy="899.329" r="6.30507" stroke-width="0.5" stroke="red" fill="red"/>
   </g>
   <g id="cell74">
  <circle cx="1685.94" cy="1961.08" r="10.4531" stroke-width="0.5" stroke="black" fill="red"/>
  <circle cx="1685.94" cy="1961.08" r="6.30312" stroke-width="0.5" stroke="red" fill="red"/>
   </g>
   <g id="cell75">
  <circle cx="207.267" cy="603.749" r="9.30826" stroke-width="0.5" stroke="black" fill="red"/>
  <circle cx="207.267" cy="603.749" r="5.65742" stroke-width="0.5" stroke="red" fill="red"/>
   </g>
   <g id="cell76">
  <circle cx="1614.66" cy="838.938" r="10.2534" stroke-width="0.5" stroke="black" fill="red"/>
  <circle cx="1614.66" cy="838.938" r="6.2028" stroke-width="0.5" stroke="red" fill="red"/>
   </g>
   <g id="cell77">
  <circle cx="1396.54" cy="1772.32" r="10.1374" stroke-width="0.5" stroke="black" fill="red"/>
  <circle cx="1396.54" cy="1772.32" r="6.14084" stroke-width="0.5" stroke="red" fill="red"/>
   </g>
   <g id="cell78">
  <circle cx="1241.46" cy="651.92" r="10.1374" stroke-width="0.5" stroke="black" fill="red"/>
  <circle cx="1241.46" cy="651.92" r="6.14084" stroke-width="0.5" stroke="red" fill="red"/>
   </g>
   <g id="cell79">
  <circle cx="1929.12" cy="1393.65" r="8.41271" stroke-width="0.5" stroke="black" fill="red"/>
  <circle cx="1929.12" cy="1393.65" r="5.05167" stroke-width="0.5" stroke="red" fill="red"/>
   </g>
   <g id="cell80">
  <circle cx="1410.31" cy="1274.99" r="10.3545" stroke-width="0.5" stroke="black" fill="red"/>
  <circle cx="1410.31" cy="1274.99" r="6.25485" stroke-width="0.5" stroke="red" fill="red"/>
   </g>
   <g id="cell81">
  <circle cx="1073.97" cy="1890.12" r="1.50015" stroke-width="0.5" stroke="black" fill="red"/>
  <circle cx="1073.97" cy="1890.12" r="1.48884" stroke-width="0.5" stroke="black" fill="black"/>
   </g>
   <g id="cell82">
  <circle cx="1259.98" cy="768.757" r="10.3747" stroke-width="0.5" stroke="black" fill="red"/>
  <circle cx="1259.98" cy="768.757" r="6.26498" stroke-width="0.5" stroke="red" fill="red"/>
   </g>
   <g id="cell83">
  <circle cx="1270.86" cy="1246.68" r="10.0806" stroke-width="0.5" stroke="black" fill="red"/>
  <circle cx="1270.86" cy="1246.68" r="6.10985" stroke-width="0.5" stroke="red" fill="red"/>
   </g>
   <g id="cell84">
  <circle cx="21.0267" cy="961.784" r="10.4761" stroke-width="0.5" stroke="black" fill="red"/>
  <circle cx="21.0267" cy="961.784" r="6.31388" stroke-width="0.5" stroke="red" fill="red"/>
   </g>
   <g id="cell85">
  <circle cx="1425.08" cy="1283.31" r="9.75192" stroke-width="0.5" stroke="black" fill="red"/>
  <circle cx="1425.08" cy="1283.31" r="5.92342" stroke-width="0.5" stroke="red" fill="red"/>
   </g>
   <g id="cell86">
  <circle cx="602.517" cy="796.261" r="8.41271" stroke-width="0.5" stroke="black" fill="red"/>
  <circle cx="602.517" cy="796.261" r="5.05167" stroke-width="0.5" stroke="red" fill="red"/>
   </g>
   <g id="cell87">
  <circle cx="1501.17" cy="890.866" r="10.3325" stroke-width="0.5" stroke="black" fill="red"/>
  <circle cx="1501.17" cy="890.866" r="6.24369" stroke-width="0.5" stroke="red" fill="red"/>
   </g>
   <g id="cell88">
  <circle cx="313.589" cy="200.704" r="10.3545" stroke-width="0.5" stroke="black" fill="red"/>
  <circle cx="313.589" cy="200.704" r="6.25485" stroke-width="0.5" stroke="red" fill="red"/>
   </g>
   <g id="cell89">
  <circle cx="179.802" cy="1145.78" r="8.41271" stroke-width="0.5" stroke="black" fill="red"/>
  <circle cx="179.802" cy="1145.78" r="5.05167" stroke-width="0.5" stroke="red" fill="red"/>
   </g>
   <g id="cell90">
  <circle cx="1151.5" cy="1095.7" r="9.2729" stroke-width="0.5" stroke="black" fill="red"/>
  <circle cx="1151.5" cy="1095.7" r="5.63555" stroke-width="0.5" stroke="red" fill="red"/>
   </g>
   <g id="cell91">
  <circle cx="49.321" cy="1267.82" r="9.44256" stroke-width="0.5" stroke="black" fill="red"/>
  <circle cx="49.321" cy="1267.82" r="5.73955" stroke-width="0.5" stroke="red" fill="red"/>
   </g>
   <g id="cell92">
  <circle cx="1263.83" cy="630.983" r="10.4984" stroke-width="0.5" stroke="black" fill="red"/>
  <circle cx="1263.83" cy="630.983" r="6.32406" stroke-width="0.5" stroke="red" fill="red"/>
   </g>
   <g id="cell93">
  <circle cx="428.379" cy="1791.86" r="10.1879" stroke-width="0.5" stroke="black" fill="red"/>
  <circle cx="428.379" cy="1791.86" r="6.16807" stroke-width="0.5" stroke="red" fill="red"/>
   </g>
   <g id="cell94">
  <circle cx="741.595" cy="223.721" r="10.4102" stroke-width="0.5" stroke="black" fill="red"/>
  <circle cx="741.595" cy="223.721" r="6.2825" stroke-width="0.5" stroke="red" fill="red"/>
   </g>
   <g id="cell95">
  <circle cx="1984.03" cy="1767.66" r="10.3873" stroke-width="0.5" stroke="black" fill="red"/>
  <circle cx="1984.03" cy="1767.66" r="6.2712" stroke-width="0.5" stroke="red" fill="red"/>
   </g>
   <g id="cell96">
  <circle cx="1630.8" cy="1085.55" r="10.4355" stroke-width="0.5" stroke="black" fill="red"/>
  <circle cx="1630.8" cy="1085.55" r="6.2947" stroke-width="0.5" stroke="red" fill="red"/>
   </g>
   <g id="cell97">
  <circle cx="870.866" cy="219.452" r="10.483" stroke-width="0.5" stroke="black" fill="red"/>
  <circle cx="870.866" cy="219.452" r="6.31703" stroke-width="0.5" stroke="red" fill="red"/>
   </g>
   <g id="cell98">
  <circle cx="1828.32" cy="698.103" r="10.4925" stroke-width="0.5" stroke="black" fill="red"/>
  <circle cx="1828.32" cy="698.103" r="6.32139" stroke-width="0.5" stroke="red" fill="red"/>
   </g>
   <g id="cell99">
  <circle cx="916.34" cy="1980.23" r="10.4955" stroke-width="0.5" stroke="black" fill="red"/>
  <circle cx="916.34" cy="1980.23" r="6.32275" stroke-width="0.5" stroke="red" fill="red"/>
   </g>
  </g>
 </g>
  <rect x="1750" y="2070" width="200" height="20" stroke-width="4" stroke="rgb(255,255,255)" fill="rgb(0,0,0)"/>
  <text x="1762.5" y="2057.5"
   font-family="Arial" font-size="50" fill="black" >
   200 &#956;m
  </text>
  <text x="50" y="2090"
   font-family="Arial" font-size="37.5" fill="black" >
   0 days, 0 hours, 0 minutes, and 17.0915 seconds
  </text>
  <rect x="0" y="140" width="2000" height="2000" stroke-width="4" stroke="rgb(0,0,0)" fill="none"/>
</svg>
