<?xml version="1.0" encoding="UTF-8" standalone="no"?>
<!-- Created with PhysiCell (http://PhysiCell.MathCancer.org/) -->
<svg 
 xmlns:dc="http://purl.org/dc/elements/1.1/" 
 xmlns:cc="http://creativecommons.org/ns#" 
 xmlns:rdf="http://www.w3.org/1999/02/22-rdf-syntax-ns#" 
 xmlns:svg="http://www.w3.org/2000/svg" 
 xmlns="http://www.w3.org/2000/svg" 
 version="1.1" 
 width="2000" 
 height="2140" 
 id="svg2">
  <rect x="0" y="0" width="2000" height="2140" stroke-width="4" stroke="white" fill="white"/>
  <text x="25" y="60"
   font-family="Arial" font-size="50" fill="black" >
   Current time: 1 days, 14 hours, and 0.00 minutes, z = 0.00 &#956;m
  </text>
  <text x="25" y="115"
   font-family="Arial" font-size="47.5" fill="black" >
   32 agents
  </text>
 <g id="tissue" 
    transform="translate(0,2140) scale(1,-1)">
  <g id="ECM">
  </g>
  <g id="cells">
   <g id="cell0">
  <circle cx="1134.73" cy="1179.12" r="9.46722" stroke-width="0.5" stroke="black" fill="grey"/>
  <circle cx="1134.73" cy="1179.12" r="5.7564" stroke-width="0.5" stroke="grey" fill="grey"/>
   </g>
   <g id="cell1">
  <circle cx="1698.22" cy="1228.25" r="8.37823" stroke-width="0.5" stroke="black" fill="grey"/>
  <circle cx="1698.22" cy="1228.25" r="5.03917" stroke-width="0.5" stroke="grey" fill="grey"/>
   </g>
   <g id="cell2">
  <circle cx="1159.6" cy="1703.03" r="8.40508" stroke-width="0.5" stroke="black" fill="grey"/>
  <circle cx="1159.6" cy="1703.03" r="5.04935" stroke-width="0.5" stroke="grey" fill="grey"/>
   </g>
   <g id="cell3">
  <circle cx="1269.17" cy="1315.26" r="9.52948" stroke-width="0.5" stroke="black" fill="grey"/>
  <circle cx="1269.17" cy="1315.26" r="5.79362" stroke-width="0.5" stroke="grey" fill="grey"/>
   </g>
   <g id="cell4">
  <circle cx="876.793" cy="550.145" r="8.39614" stroke-width="0.5" stroke="black" fill="grey"/>
  <circle cx="876.793" cy="550.145" r="5.04615" stroke-width="0.5" stroke="grey" fill="grey"/>
   </g>
   <g id="cell5">
  <circle cx="107.006" cy="1983.19" r="8.39256" stroke-width="0.5" stroke="black" fill="red"/>
  <circle cx="107.006" cy="1983.19" r="5.04481" stroke-width="0.5" stroke="red" fill="red"/>
   </g>
   <g id="cell6">
  <circle cx="793.202" cy="876.155" r="8.36272" stroke-width="0.5" stroke="black" fill="red"/>
  <circle cx="793.202" cy="876.155" r="5.03276" stroke-width="0.5" stroke="red" fill="red"/>
   </g>
   <g id="cell19">
  <circle cx="1687.64" cy="1254.67" r="9.52394" stroke-width="0.5" stroke="black" fill="grey"/>
  <circle cx="1687.64" cy="1254.67" r="5.79157" stroke-width="0.5" stroke="grey" fill="grey"/>
   </g>
   <g id="cell18">
  <circle cx="1654.55" cy="245.891" r="10.476" stroke-width="0.5" stroke="black" fill="red"/>
  <circle cx="1654.55" cy="245.891" r="6.31385" stroke-width="0.5" stroke="red" fill="red"/>
   </g>
   <g id="cell9">
  <circle cx="1686.86" cy="222.244" r="8.37826" stroke-width="0.5" stroke="black" fill="red"/>
  <circle cx="1686.86" cy="222.244" r="5.03918" stroke-width="0.5" stroke="red" fill="red"/>
   </g>
   <g id="cell11">
  <circle cx="1601.11" cy="1048.57" r="10.3214" stroke-width="0.5" stroke="black" fill="red"/>
  <circle cx="1601.11" cy="1048.57" r="6.23876" stroke-width="0.5" stroke="red" fill="red"/>
   </g>
   <g id="cell20">
  <circle cx="818.614" cy="959.695" r="10.3927" stroke-width="0.5" stroke="black" fill="red"/>
  <circle cx="818.614" cy="959.695" r="6.27401" stroke-width="0.5" stroke="red" fill="red"/>
   </g>
   <g id="cell13">
  <circle cx="848.841" cy="560.741" r="8.38527" stroke-width="0.5" stroke="black" fill="grey"/>
  <circle cx="848.841" cy="560.741" r="5.04198" stroke-width="0.5" stroke="grey" fill="grey"/>
   </g>
   <g id="cell14">
  <circle cx="1207.61" cy="1286.16" r="8.38112" stroke-width="0.5" stroke="black" fill="grey"/>
  <circle cx="1207.61" cy="1286.16" r="5.04032" stroke-width="0.5" stroke="grey" fill="grey"/>
   </g>
   <g id="cell15">
  <circle cx="1148.07" cy="1147.5" r="8.38602" stroke-width="0.5" stroke="black" fill="grey"/>
  <circle cx="1148.07" cy="1147.5" r="5.04228" stroke-width="0.5" stroke="grey" fill="grey"/>
   </g>
   <g id="cell16">
  <circle cx="1181.76" cy="1700.07" r="8.47047" stroke-width="0.5" stroke="black" fill="grey"/>
  <circle cx="1181.76" cy="1700.07" r="5.10974" stroke-width="0.5" stroke="grey" fill="grey"/>
   </g>
   <g id="cell17">
  <circle cx="1107.37" cy="707.87" r="8.40206" stroke-width="0.5" stroke="black" fill="red"/>
  <circle cx="1107.37" cy="707.87" r="5.04831" stroke-width="0.5" stroke="red" fill="red"/>
   </g>
   <g id="cell21">
  <circle cx="1569.4" cy="1058.15" r="8.53982" stroke-width="0.5" stroke="black" fill="red"/>
  <circle cx="1569.4" cy="1058.15" r="5.14807" stroke-width="0.5" stroke="red" fill="red"/>
   </g>
   <g id="cell22">
  <circle cx="1172.57" cy="1741.71" r="8.40508" stroke-width="0.5" stroke="black" fill="grey"/>
  <circle cx="1172.57" cy="1741.71" r="5.04935" stroke-width="0.5" stroke="grey" fill="grey"/>
   </g>
   <g id="cell23">
  <circle cx="1251.97" cy="1289.79" r="8.40489" stroke-width="0.5" stroke="black" fill="grey"/>
  <circle cx="1251.97" cy="1289.79" r="5.04928" stroke-width="0.5" stroke="grey" fill="grey"/>
   </g>
   <g id="cell24">
  <circle cx="1138.47" cy="1201.21" r="9.66924" stroke-width="0.5" stroke="black" fill="grey"/>
  <circle cx="1138.47" cy="1201.21" r="5.87677" stroke-width="0.5" stroke="grey" fill="grey"/>
   </g>
   <g id="cell25">
  <circle cx="1116.25" cy="683.606" r="8.40206" stroke-width="0.5" stroke="black" fill="red"/>
  <circle cx="1116.25" cy="683.606" r="5.04831" stroke-width="0.5" stroke="red" fill="red"/>
   </g>
   <g id="cell26">
  <circle cx="1666.13" cy="1234.91" r="8.95516" stroke-width="0.5" stroke="black" fill="grey"/>
  <circle cx="1666.13" cy="1234.91" r="5.4377" stroke-width="0.5" stroke="grey" fill="grey"/>
   </g>
   <g id="cell27">
  <circle cx="907.423" cy="580.609" r="8.39614" stroke-width="0.5" stroke="black" fill="grey"/>
  <circle cx="907.423" cy="580.609" r="5.04615" stroke-width="0.5" stroke="grey" fill="grey"/>
   </g>
   <g id="cell28">
  <circle cx="94.134" cy="1970.46" r="8.39256" stroke-width="0.5" stroke="black" fill="red"/>
  <circle cx="94.134" cy="1970.46" r="5.04481" stroke-width="0.5" stroke="red" fill="red"/>
   </g>
   <g id="cell29">
  <circle cx="1110.31" cy="1141.76" r="9.10222" stroke-width="0.5" stroke="black" fill="grey"/>
  <circle cx="1110.31" cy="1141.76" r="5.5344" stroke-width="0.5" stroke="grey" fill="grey"/>
   </g>
   <g id="cell30">
  <circle cx="859.974" cy="592.067" r="8.38527" stroke-width="0.5" stroke="black" fill="grey"/>
  <circle cx="859.974" cy="592.067" r="5.04198" stroke-width="0.5" stroke="grey" fill="grey"/>
   </g>
   <g id="cell31">
  <circle cx="1181.81" cy="1295.13" r="8.38112" stroke-width="0.5" stroke="black" fill="grey"/>
  <circle cx="1181.81" cy="1295.13" r="5.04032" stroke-width="0.5" stroke="grey" fill="grey"/>
   </g>
   <g id="cell32">
  <circle cx="1653.52" cy="219.886" r="8.37826" stroke-width="0.5" stroke="black" fill="red"/>
  <circle cx="1653.52" cy="219.886" r="5.03918" stroke-width="0.5" stroke="red" fill="red"/>
   </g>
   <g id="cell33">
  <circle cx="1677.35" cy="1202.85" r="8.37823" stroke-width="0.5" stroke="black" fill="grey"/>
  <circle cx="1677.35" cy="1202.85" r="5.03917" stroke-width="0.5" stroke="grey" fill="grey"/>
   </g>
   <g id="cell34">
  <circle cx="1170.64" cy="1680.09" r="8.36964" stroke-width="0.5" stroke="black" fill="grey"/>
  <circle cx="1170.64" cy="1680.09" r="5.03561" stroke-width="0.5" stroke="grey" fill="grey"/>
   </g>
   <g id="cell35">
  <circle cx="780.695" cy="876.593" r="8.36272" stroke-width="0.5" stroke="black" fill="red"/>
  <circle cx="780.695" cy="876.593" r="5.03276" stroke-width="0.5" stroke="red" fill="red"/>
   </g>
  </g>
 </g>
  <rect x="1750" y="2070" width="200" height="20" stroke-width="4" stroke="rgb(255,255,255)" fill="rgb(0,0,0)"/>
  <text x="1762.5" y="2057.5"
   font-family="Arial" font-size="50" fill="black" >
   200 &#956;m
  </text>
  <text x="50" y="2090"
   font-family="Arial" font-size="37.5" fill="black" >
   0 days, 0 hours, 0 minutes, and 49.2480 seconds
  </text>
  <rect x="0" y="140" width="2000" height="2000" stroke-width="4" stroke="rgb(0,0,0)" fill="none"/>
</svg>
