<?xml version="1.0" encoding="UTF-8" standalone="no"?>
<!-- Created with PhysiCell (http://PhysiCell.MathCancer.org/) -->
<svg 
 xmlns:dc="http://purl.org/dc/elements/1.1/" 
 xmlns:cc="http://creativecommons.org/ns#" 
 xmlns:rdf="http://www.w3.org/1999/02/22-rdf-syntax-ns#" 
 xmlns:svg="http://www.w3.org/2000/svg" 
 xmlns="http://www.w3.org/2000/svg" 
 version="1.1" 
 width="2000" 
 height="2140" 
 id="svg2">
  <rect x="0" y="0" width="2000" height="2140" stroke-width="4" stroke="white" fill="white"/>
  <text x="25" y="60"
   font-family="Arial" font-size="50" fill="black" >
   Current time: 3 days, 15 hours, and 0.00 minutes, z = 0.00 &#956;m
  </text>
  <text x="25" y="115"
   font-family="Arial" font-size="47.5" fill="black" >
   178 agents
  </text>
 <g id="tissue" 
    transform="translate(0,2140) scale(1,-1)">
  <g id="ECM">
  </g>
  <g id="cells">
   <g id="cell0">
  <circle cx="1065.92" cy="1174.19" r="9.58719" stroke-width="0.5" stroke="black" fill="grey"/>
  <circle cx="1065.92" cy="1174.19" r="5.82822" stroke-width="0.5" stroke="grey" fill="grey"/>
   </g>
   <g id="cell1">
  <circle cx="1682.82" cy="1250.4" r="10.4785" stroke-width="0.5" stroke="black" fill="grey"/>
  <circle cx="1682.82" cy="1250.4" r="6.31521" stroke-width="0.5" stroke="grey" fill="grey"/>
   </g>
   <g id="cell2">
  <circle cx="1220.63" cy="1766.72" r="8.37632" stroke-width="0.5" stroke="black" fill="grey"/>
  <circle cx="1220.63" cy="1766.72" r="5.03838" stroke-width="0.5" stroke="grey" fill="grey"/>
   </g>
   <g id="cell3">
  <circle cx="1270.7" cy="1335.12" r="8.53479" stroke-width="0.5" stroke="black" fill="grey"/>
  <circle cx="1270.7" cy="1335.12" r="5.14636" stroke-width="0.5" stroke="grey" fill="grey"/>
   </g>
   <g id="cell4">
  <circle cx="793.177" cy="527.527" r="8.36314" stroke-width="0.5" stroke="black" fill="grey"/>
  <circle cx="793.177" cy="527.527" r="5.03287" stroke-width="0.5" stroke="grey" fill="grey"/>
   </g>
   <g id="cell5">
  <circle cx="58.5308" cy="1918.44" r="8.39517" stroke-width="0.5" stroke="black" fill="red"/>
  <circle cx="58.5308" cy="1918.44" r="5.0458" stroke-width="0.5" stroke="red" fill="red"/>
   </g>
   <g id="cell6">
  <circle cx="878.3" cy="915.548" r="8.5857" stroke-width="0.5" stroke="black" fill="red"/>
  <circle cx="878.3" cy="915.548" r="5.19022" stroke-width="0.5" stroke="red" fill="red"/>
   </g>
   <g id="cell19">
  <circle cx="1691.41" cy="1386.68" r="8.40007" stroke-width="0.5" stroke="black" fill="grey"/>
  <circle cx="1691.41" cy="1386.68" r="5.04761" stroke-width="0.5" stroke="grey" fill="grey"/>
   </g>
   <g id="cell18">
  <circle cx="1619.35" cy="319.017" r="9.77074" stroke-width="0.5" stroke="black" fill="red"/>
  <circle cx="1619.35" cy="319.017" r="5.9357" stroke-width="0.5" stroke="red" fill="red"/>
   </g>
   <g id="cell9">
  <circle cx="1742.71" cy="168.07" r="9.07372" stroke-width="0.5" stroke="black" fill="red"/>
  <circle cx="1742.71" cy="168.07" r="5.51392" stroke-width="0.5" stroke="red" fill="red"/>
   </g>
   <g id="cell11">
  <circle cx="1532.13" cy="1137.6" r="9.33154" stroke-width="0.5" stroke="black" fill="red"/>
  <circle cx="1532.13" cy="1137.6" r="5.67479" stroke-width="0.5" stroke="red" fill="red"/>
   </g>
   <g id="cell20">
  <circle cx="792.986" cy="1011.3" r="10.488" stroke-width="0.5" stroke="black" fill="red"/>
  <circle cx="792.986" cy="1011.3" r="6.31962" stroke-width="0.5" stroke="red" fill="red"/>
   </g>
   <g id="cell13">
  <circle cx="841.435" cy="621.898" r="9.23442" stroke-width="0.5" stroke="black" fill="grey"/>
  <circle cx="841.435" cy="621.898" r="5.61241" stroke-width="0.5" stroke="grey" fill="grey"/>
   </g>
   <g id="cell14">
  <circle cx="1113.08" cy="1308.55" r="10.4793" stroke-width="0.5" stroke="black" fill="grey"/>
  <circle cx="1113.08" cy="1308.55" r="6.31542" stroke-width="0.5" stroke="grey" fill="grey"/>
   </g>
   <g id="cell15">
  <circle cx="1135.58" cy="1211.14" r="8.36163" stroke-width="0.5" stroke="black" fill="grey"/>
  <circle cx="1135.58" cy="1211.14" r="5.03224" stroke-width="0.5" stroke="grey" fill="grey"/>
   </g>
   <g id="cell16">
  <circle cx="1092.72" cy="1669.08" r="9.79136" stroke-width="0.5" stroke="black" fill="grey"/>
  <circle cx="1092.72" cy="1669.08" r="5.94825" stroke-width="0.5" stroke="grey" fill="grey"/>
   </g>
   <g id="cell90">
  <circle cx="835.868" cy="838.988" r="9.25428" stroke-width="0.5" stroke="black" fill="red"/>
  <circle cx="835.868" cy="838.988" r="5.62876" stroke-width="0.5" stroke="red" fill="red"/>
   </g>
   <g id="cell86">
  <circle cx="1559.25" cy="1002.61" r="9.32354" stroke-width="0.5" stroke="black" fill="red"/>
  <circle cx="1559.25" cy="1002.61" r="5.67166" stroke-width="0.5" stroke="red" fill="red"/>
   </g>
   <g id="cell22">
  <circle cx="1087.96" cy="1740.05" r="8.36413" stroke-width="0.5" stroke="black" fill="grey"/>
  <circle cx="1087.96" cy="1740.05" r="5.03335" stroke-width="0.5" stroke="grey" fill="grey"/>
   </g>
   <g id="cell23">
  <circle cx="1213.26" cy="1318.72" r="10.4095" stroke-width="0.5" stroke="black" fill="grey"/>
  <circle cx="1213.26" cy="1318.72" r="6.28231" stroke-width="0.5" stroke="grey" fill="grey"/>
   </g>
   <g id="cell24">
  <circle cx="1183.79" cy="1268.03" r="8.37738" stroke-width="0.5" stroke="black" fill="grey"/>
  <circle cx="1183.79" cy="1268.03" r="5.03881" stroke-width="0.5" stroke="grey" fill="grey"/>
   </g>
   <g id="cell25">
  <circle cx="1162.73" cy="737.355" r="8.40053" stroke-width="0.5" stroke="black" fill="red"/>
  <circle cx="1162.73" cy="737.355" r="5.04776" stroke-width="0.5" stroke="red" fill="red"/>
   </g>
   <g id="cell26">
  <circle cx="1727.91" cy="1215.52" r="8.39567" stroke-width="0.5" stroke="black" fill="grey"/>
  <circle cx="1727.91" cy="1215.52" r="5.04598" stroke-width="0.5" stroke="grey" fill="grey"/>
   </g>
   <g id="cell27">
  <circle cx="918.468" cy="557.314" r="10.2801" stroke-width="0.5" stroke="black" fill="grey"/>
  <circle cx="918.468" cy="557.314" r="6.21721" stroke-width="0.5" stroke="grey" fill="grey"/>
   </g>
   <g id="cell28">
  <circle cx="48.2512" cy="1991.41" r="8.38928" stroke-width="0.5" stroke="black" fill="red"/>
  <circle cx="48.2512" cy="1991.41" r="5.04358" stroke-width="0.5" stroke="red" fill="red"/>
   </g>
   <g id="cell29">
  <circle cx="1085.85" cy="1069.2" r="9.43732" stroke-width="0.5" stroke="black" fill="grey"/>
  <circle cx="1085.85" cy="1069.2" r="5.73785" stroke-width="0.5" stroke="grey" fill="grey"/>
   </g>
   <g id="cell30">
  <circle cx="933.748" cy="498.438" r="9.85902" stroke-width="0.5" stroke="black" fill="grey"/>
  <circle cx="933.748" cy="498.438" r="5.98688" stroke-width="0.5" stroke="grey" fill="grey"/>
   </g>
   <g id="cell31">
  <circle cx="1168.58" cy="1367.31" r="10.3804" stroke-width="0.5" stroke="black" fill="grey"/>
  <circle cx="1168.58" cy="1367.31" r="6.26798" stroke-width="0.5" stroke="grey" fill="grey"/>
   </g>
   <g id="cell109">
  <circle cx="780.672" cy="977.999" r="8.37274" stroke-width="0.5" stroke="black" fill="red"/>
  <circle cx="780.672" cy="977.999" r="5.03697" stroke-width="0.5" stroke="red" fill="red"/>
   </g>
   <g id="cell33">
  <circle cx="1660.52" cy="1172.92" r="8.36553" stroke-width="0.5" stroke="black" fill="grey"/>
  <circle cx="1660.52" cy="1172.92" r="5.03394" stroke-width="0.5" stroke="grey" fill="grey"/>
   </g>
   <g id="cell34">
  <circle cx="1102.49" cy="1614.07" r="8.40649" stroke-width="0.5" stroke="black" fill="grey"/>
  <circle cx="1102.49" cy="1614.07" r="5.04982" stroke-width="0.5" stroke="grey" fill="grey"/>
   </g>
   <g id="cell35">
  <circle cx="755.149" cy="942.361" r="10.2209" stroke-width="0.5" stroke="black" fill="red"/>
  <circle cx="755.149" cy="942.361" r="6.18597" stroke-width="0.5" stroke="red" fill="red"/>
   </g>
   <g id="cell36">
  <circle cx="1731" cy="249.701" r="10.4953" stroke-width="0.5" stroke="black" fill="red"/>
  <circle cx="1731" cy="249.701" r="6.32271" stroke-width="0.5" stroke="red" fill="red"/>
   </g>
   <g id="cell37">
  <circle cx="833.84" cy="918.187" r="8.44368" stroke-width="0.5" stroke="black" fill="red"/>
  <circle cx="833.84" cy="918.187" r="5.08869" stroke-width="0.5" stroke="red" fill="red"/>
   </g>
   <g id="cell38">
  <circle cx="1580.93" cy="1079.99" r="10.0265" stroke-width="0.5" stroke="black" fill="red"/>
  <circle cx="1580.93" cy="1079.99" r="6.08153" stroke-width="0.5" stroke="red" fill="red"/>
   </g>
   <g id="cell39">
  <circle cx="1115.41" cy="1180.41" r="8.36281" stroke-width="0.5" stroke="black" fill="grey"/>
  <circle cx="1115.41" cy="1180.41" r="5.03278" stroke-width="0.5" stroke="grey" fill="grey"/>
   </g>
   <g id="cell40">
  <circle cx="1760.55" cy="1255.02" r="9.71741" stroke-width="0.5" stroke="black" fill="grey"/>
  <circle cx="1760.55" cy="1255.02" r="5.90569" stroke-width="0.5" stroke="grey" fill="grey"/>
   </g>
   <g id="cell41">
  <circle cx="1200.39" cy="1466.88" r="10.2991" stroke-width="0.5" stroke="black" fill="grey"/>
  <circle cx="1200.39" cy="1466.88" r="6.22679" stroke-width="0.5" stroke="grey" fill="grey"/>
   </g>
   <g id="cell42">
  <circle cx="1098.84" cy="1113.73" r="8.84082" stroke-width="0.5" stroke="black" fill="grey"/>
  <circle cx="1098.84" cy="1113.73" r="5.36048" stroke-width="0.5" stroke="grey" fill="grey"/>
   </g>
   <g id="cell43">
  <circle cx="1044.04" cy="1107.44" r="8.41067" stroke-width="0.5" stroke="black" fill="grey"/>
  <circle cx="1044.04" cy="1107.44" r="5.05113" stroke-width="0.5" stroke="grey" fill="grey"/>
   </g>
   <g id="cell44">
  <circle cx="1685.91" cy="1182.68" r="8.3671" stroke-width="0.5" stroke="black" fill="grey"/>
  <circle cx="1685.91" cy="1182.68" r="5.03455" stroke-width="0.5" stroke="grey" fill="grey"/>
   </g>
   <g id="cell45">
  <circle cx="1517.68" cy="1060.35" r="8.3763" stroke-width="0.5" stroke="black" fill="red"/>
  <circle cx="1517.68" cy="1060.35" r="5.03838" stroke-width="0.5" stroke="red" fill="red"/>
   </g>
   <g id="cell101">
  <circle cx="1684.18" cy="221.938" r="10.3929" stroke-width="0.5" stroke="black" fill="red"/>
  <circle cx="1684.18" cy="221.938" r="6.27407" stroke-width="0.5" stroke="red" fill="red"/>
   </g>
   <g id="cell47">
  <circle cx="1650.4" cy="130.385" r="8.37614" stroke-width="0.5" stroke="black" fill="red"/>
  <circle cx="1650.4" cy="130.385" r="5.03834" stroke-width="0.5" stroke="red" fill="red"/>
   </g>
   <g id="cell48">
  <circle cx="1149.95" cy="1803.93" r="8.38588" stroke-width="0.5" stroke="black" fill="grey"/>
  <circle cx="1149.95" cy="1803.93" r="5.04224" stroke-width="0.5" stroke="grey" fill="grey"/>
   </g>
   <g id="cell49">
  <circle cx="80.9974" cy="1964.86" r="8.38083" stroke-width="0.5" stroke="black" fill="red"/>
  <circle cx="80.9974" cy="1964.86" r="5.04025" stroke-width="0.5" stroke="red" fill="red"/>
   </g>
   <g id="cell50">
  <circle cx="1135.13" cy="1139.02" r="8.38167" stroke-width="0.5" stroke="black" fill="grey"/>
  <circle cx="1135.13" cy="1139.02" r="5.04059" stroke-width="0.5" stroke="grey" fill="grey"/>
   </g>
   <g id="cell51">
  <circle cx="1101.3" cy="1280.05" r="9.94198" stroke-width="0.5" stroke="black" fill="grey"/>
  <circle cx="1101.3" cy="1280.05" r="6.03341" stroke-width="0.5" stroke="grey" fill="grey"/>
   </g>
   <g id="cell52">
  <circle cx="860.921" cy="601.687" r="8.67329" stroke-width="0.5" stroke="black" fill="grey"/>
  <circle cx="860.921" cy="601.687" r="5.24861" stroke-width="0.5" stroke="grey" fill="grey"/>
   </g>
   <g id="cell87">
  <circle cx="925.903" cy="623.378" r="10.0109" stroke-width="0.5" stroke="black" fill="grey"/>
  <circle cx="925.903" cy="623.378" r="6.07265" stroke-width="0.5" stroke="grey" fill="grey"/>
   </g>
   <g id="cell54">
  <circle cx="913.045" cy="529.792" r="8.38872" stroke-width="0.5" stroke="black" fill="grey"/>
  <circle cx="913.045" cy="529.792" r="5.04335" stroke-width="0.5" stroke="grey" fill="grey"/>
   </g>
   <g id="cell55">
  <circle cx="851.807" cy="545.419" r="10.1047" stroke-width="0.5" stroke="black" fill="grey"/>
  <circle cx="851.807" cy="545.419" r="6.12423" stroke-width="0.5" stroke="grey" fill="grey"/>
   </g>
   <g id="cell56">
  <circle cx="166.418" cy="1870.17" r="10.4528" stroke-width="0.5" stroke="black" fill="red"/>
  <circle cx="166.418" cy="1870.17" r="6.30305" stroke-width="0.5" stroke="red" fill="red"/>
   </g>
   <g id="cell57">
  <circle cx="1680.26" cy="272.468" r="8.4403" stroke-width="0.5" stroke="black" fill="red"/>
  <circle cx="1680.26" cy="272.468" r="5.08728" stroke-width="0.5" stroke="red" fill="red"/>
   </g>
   <g id="cell58">
  <circle cx="703.109" cy="845.716" r="1.67257" stroke-width="0.5" stroke="black" fill="red"/>
  <circle cx="703.109" cy="845.716" r="1.63404" stroke-width="0.5" stroke="black" fill="black"/>
   </g>
   <g id="cell59">
  <circle cx="1729.6" cy="330.574" r="10.5158" stroke-width="0.5" stroke="black" fill="red"/>
  <circle cx="1729.6" cy="330.574" r="6.33199" stroke-width="0.5" stroke="red" fill="red"/>
   </g>
   <g id="cell60">
  <circle cx="1736.4" cy="1200.09" r="10.5207" stroke-width="0.5" stroke="black" fill="grey"/>
  <circle cx="1736.4" cy="1200.09" r="6.33408" stroke-width="0.5" stroke="grey" fill="grey"/>
   </g>
   <g id="cell61">
  <circle cx="1115.13" cy="1776.77" r="10.4083" stroke-width="0.5" stroke="black" fill="grey"/>
  <circle cx="1115.13" cy="1776.77" r="6.28194" stroke-width="0.5" stroke="grey" fill="grey"/>
   </g>
   <g id="cell62">
  <circle cx="1208.9" cy="1651.18" r="9.72533" stroke-width="0.5" stroke="black" fill="grey"/>
  <circle cx="1208.9" cy="1651.18" r="5.90849" stroke-width="0.5" stroke="grey" fill="grey"/>
   </g>
   <g id="cell63">
  <circle cx="1647.2" cy="352.064" r="9.58208" stroke-width="0.5" stroke="black" fill="red"/>
  <circle cx="1647.2" cy="352.064" r="5.82633" stroke-width="0.5" stroke="red" fill="red"/>
   </g>
   <g id="cell64">
  <circle cx="1673.86" cy="1152.77" r="9.22879" stroke-width="0.5" stroke="black" fill="grey"/>
  <circle cx="1673.86" cy="1152.77" r="5.61043" stroke-width="0.5" stroke="grey" fill="grey"/>
   </g>
   <g id="cell115">
  <circle cx="843.513" cy="562.246" r="10.4681" stroke-width="0.5" stroke="black" fill="grey"/>
  <circle cx="843.513" cy="562.246" r="6.31031" stroke-width="0.5" stroke="grey" fill="grey"/>
   </g>
   <g id="cell66">
  <circle cx="798.483" cy="954.3" r="1.54773" stroke-width="0.5" stroke="black" fill="red"/>
  <circle cx="798.483" cy="954.3" r="1.52377" stroke-width="0.5" stroke="black" fill="black"/>
   </g>
   <g id="cell67">
  <circle cx="1564.07" cy="1076.59" r="10.0162" stroke-width="0.5" stroke="black" fill="red"/>
  <circle cx="1564.07" cy="1076.59" r="6.07439" stroke-width="0.5" stroke="red" fill="red"/>
   </g>
   <g id="cell68">
  <circle cx="838.062" cy="1045.18" r="8.83689" stroke-width="0.5" stroke="black" fill="red"/>
  <circle cx="838.062" cy="1045.18" r="5.35904" stroke-width="0.5" stroke="red" fill="red"/>
   </g>
   <g id="cell69">
  <circle cx="810.069" cy="551.281" r="9.50429" stroke-width="0.5" stroke="black" fill="grey"/>
  <circle cx="810.069" cy="551.281" r="5.77715" stroke-width="0.5" stroke="grey" fill="grey"/>
   </g>
   <g id="cell70">
  <circle cx="1654.72" cy="1263.67" r="10.4146" stroke-width="0.5" stroke="black" fill="grey"/>
  <circle cx="1654.72" cy="1263.67" r="6.28483" stroke-width="0.5" stroke="grey" fill="grey"/>
   </g>
   <g id="cell71">
  <circle cx="1035.44" cy="1071.51" r="10.3062" stroke-width="0.5" stroke="black" fill="grey"/>
  <circle cx="1035.44" cy="1071.51" r="6.23076" stroke-width="0.5" stroke="grey" fill="grey"/>
   </g>
   <g id="cell72">
  <circle cx="1150.85" cy="748.118" r="9.59122" stroke-width="0.5" stroke="black" fill="red"/>
  <circle cx="1150.85" cy="748.118" r="5.82962" stroke-width="0.5" stroke="red" fill="red"/>
   </g>
   <g id="cell73">
  <circle cx="1216.37" cy="1198.05" r="10.4084" stroke-width="0.5" stroke="black" fill="grey"/>
  <circle cx="1216.37" cy="1198.05" r="6.28199" stroke-width="0.5" stroke="grey" fill="grey"/>
   </g>
   <g id="cell74">
  <circle cx="1096.14" cy="1095.95" r="9.81632" stroke-width="0.5" stroke="black" fill="grey"/>
  <circle cx="1096.14" cy="1095.95" r="5.96216" stroke-width="0.5" stroke="grey" fill="grey"/>
   </g>
   <g id="cell75">
  <circle cx="1700.64" cy="1153.73" r="10.1972" stroke-width="0.5" stroke="black" fill="grey"/>
  <circle cx="1700.64" cy="1153.73" r="6.17363" stroke-width="0.5" stroke="grey" fill="grey"/>
   </g>
   <g id="cell76">
  <circle cx="1629.62" cy="216.11" r="8.40422" stroke-width="0.5" stroke="black" fill="red"/>
  <circle cx="1629.62" cy="216.11" r="5.04905" stroke-width="0.5" stroke="red" fill="red"/>
   </g>
   <g id="cell77">
  <circle cx="43.2546" cy="1928.33" r="10.0134" stroke-width="0.5" stroke="black" fill="red"/>
  <circle cx="43.2546" cy="1928.33" r="6.0735" stroke-width="0.5" stroke="red" fill="red"/>
   </g>
   <g id="cell128">
  <circle cx="1726.21" cy="1185.72" r="10.2086" stroke-width="0.5" stroke="black" fill="grey"/>
  <circle cx="1726.21" cy="1185.72" r="6.1797" stroke-width="0.5" stroke="grey" fill="grey"/>
   </g>
   <g id="cell79">
  <circle cx="1196.78" cy="1292.92" r="10.4531" stroke-width="0.5" stroke="black" fill="grey"/>
  <circle cx="1196.78" cy="1292.92" r="6.30311" stroke-width="0.5" stroke="grey" fill="grey"/>
   </g>
   <g id="cell80">
  <circle cx="798.157" cy="463.472" r="10.5254" stroke-width="0.5" stroke="black" fill="grey"/>
  <circle cx="798.157" cy="463.472" r="6.33605" stroke-width="0.5" stroke="grey" fill="grey"/>
   </g>
   <g id="cell81">
  <circle cx="1209.11" cy="1258.44" r="8.38674" stroke-width="0.5" stroke="black" fill="grey"/>
  <circle cx="1209.11" cy="1258.44" r="5.04256" stroke-width="0.5" stroke="grey" fill="grey"/>
   </g>
   <g id="cell82">
  <circle cx="1640.13" cy="1153.87" r="9.8337" stroke-width="0.5" stroke="black" fill="red"/>
  <circle cx="1640.13" cy="1153.87" r="5.97316" stroke-width="0.5" stroke="red" fill="red"/>
   </g>
   <g id="cell83">
  <circle cx="921.028" cy="594.584" r="8.36963" stroke-width="0.5" stroke="black" fill="grey"/>
  <circle cx="921.028" cy="594.584" r="5.03561" stroke-width="0.5" stroke="grey" fill="grey"/>
   </g>
   <g id="cell84">
  <circle cx="1152.14" cy="1624.67" r="10.399" stroke-width="0.5" stroke="black" fill="grey"/>
  <circle cx="1152.14" cy="1624.67" r="6.27701" stroke-width="0.5" stroke="grey" fill="grey"/>
   </g>
   <g id="cell85">
  <circle cx="1186.37" cy="1682.19" r="10.0436" stroke-width="0.5" stroke="black" fill="grey"/>
  <circle cx="1186.37" cy="1682.19" r="6.09081" stroke-width="0.5" stroke="grey" fill="grey"/>
   </g>
   <g id="cell88">
  <circle cx="1641.42" cy="1207.86" r="9.50511" stroke-width="0.5" stroke="black" fill="grey"/>
  <circle cx="1641.42" cy="1207.86" r="5.77739" stroke-width="0.5" stroke="grey" fill="grey"/>
   </g>
   <g id="cell89">
  <circle cx="1780.87" cy="284.218" r="10.3472" stroke-width="0.5" stroke="black" fill="red"/>
  <circle cx="1780.87" cy="284.218" r="6.25121" stroke-width="0.5" stroke="red" fill="red"/>
   </g>
   <g id="cell91">
  <circle cx="1178.14" cy="1245.31" r="10.4794" stroke-width="0.5" stroke="black" fill="grey"/>
  <circle cx="1178.14" cy="1245.31" r="6.31544" stroke-width="0.5" stroke="grey" fill="grey"/>
   </g>
   <g id="cell92">
  <circle cx="1678.22" cy="1347" r="10.4571" stroke-width="0.5" stroke="black" fill="grey"/>
  <circle cx="1678.22" cy="1347" r="6.30502" stroke-width="0.5" stroke="grey" fill="grey"/>
   </g>
   <g id="cell93">
  <circle cx="837.986" cy="593.275" r="10.4206" stroke-width="0.5" stroke="black" fill="grey"/>
  <circle cx="837.986" cy="593.275" r="6.28757" stroke-width="0.5" stroke="grey" fill="grey"/>
   </g>
   <g id="cell94">
  <circle cx="864.743" cy="530.055" r="8.36159" stroke-width="0.5" stroke="black" fill="grey"/>
  <circle cx="864.743" cy="530.055" r="5.03223" stroke-width="0.5" stroke="grey" fill="grey"/>
   </g>
   <g id="cell95">
  <circle cx="1146.95" cy="1780.89" r="8.38804" stroke-width="0.5" stroke="black" fill="grey"/>
  <circle cx="1146.95" cy="1780.89" r="5.04309" stroke-width="0.5" stroke="grey" fill="grey"/>
   </g>
   <g id="cell96">
  <circle cx="1671.74" cy="289.897" r="8.39402" stroke-width="0.5" stroke="black" fill="red"/>
  <circle cx="1671.74" cy="289.897" r="5.04538" stroke-width="0.5" stroke="red" fill="red"/>
   </g>
   <g id="cell97">
  <circle cx="1184.72" cy="1343.11" r="8.36299" stroke-width="0.5" stroke="black" fill="grey"/>
  <circle cx="1184.72" cy="1343.11" r="5.03283" stroke-width="0.5" stroke="grey" fill="grey"/>
   </g>
   <g id="cell98">
  <circle cx="148.1" cy="1908.91" r="10.5292" stroke-width="0.5" stroke="black" fill="red"/>
  <circle cx="148.1" cy="1908.91" r="6.33776" stroke-width="0.5" stroke="red" fill="red"/>
   </g>
   <g id="cell99">
  <circle cx="1707.11" cy="158.486" r="10.3163" stroke-width="0.5" stroke="black" fill="red"/>
  <circle cx="1707.11" cy="158.486" r="6.23552" stroke-width="0.5" stroke="red" fill="red"/>
   </g>
   <g id="cell100">
  <circle cx="41.6786" cy="1946.69" r="8.38579" stroke-width="0.5" stroke="black" fill="red"/>
  <circle cx="41.6786" cy="1946.69" r="5.04222" stroke-width="0.5" stroke="red" fill="red"/>
   </g>
   <g id="cell102">
  <circle cx="1720.55" cy="1169.1" r="8.41201" stroke-width="0.5" stroke="black" fill="grey"/>
  <circle cx="1720.55" cy="1169.1" r="5.0515" stroke-width="0.5" stroke="grey" fill="grey"/>
   </g>
   <g id="cell103">
  <circle cx="128.133" cy="1973.79" r="8.38419" stroke-width="0.5" stroke="black" fill="red"/>
  <circle cx="128.133" cy="1973.79" r="5.04159" stroke-width="0.5" stroke="red" fill="red"/>
   </g>
   <g id="cell104">
  <circle cx="792.21" cy="926.047" r="10.4253" stroke-width="0.5" stroke="black" fill="red"/>
  <circle cx="792.21" cy="926.047" r="6.28993" stroke-width="0.5" stroke="red" fill="red"/>
   </g>
   <g id="cell105">
  <circle cx="1667.17" cy="1138.9" r="8.37499" stroke-width="0.5" stroke="black" fill="grey"/>
  <circle cx="1667.17" cy="1138.9" r="5.03788" stroke-width="0.5" stroke="grey" fill="grey"/>
   </g>
   <g id="cell106">
  <circle cx="1139.79" cy="1170.34" r="8.6135" stroke-width="0.5" stroke="black" fill="grey"/>
  <circle cx="1139.79" cy="1170.34" r="5.20042" stroke-width="0.5" stroke="grey" fill="grey"/>
   </g>
   <g id="cell107">
  <circle cx="1151.81" cy="1141.54" r="10.361" stroke-width="0.5" stroke="black" fill="grey"/>
  <circle cx="1151.81" cy="1141.54" r="6.25821" stroke-width="0.5" stroke="grey" fill="grey"/>
   </g>
   <g id="cell108">
  <circle cx="1136.83" cy="1688.85" r="10.4824" stroke-width="0.5" stroke="black" fill="grey"/>
  <circle cx="1136.83" cy="1688.85" r="6.31689" stroke-width="0.5" stroke="grey" fill="grey"/>
   </g>
   <g id="cell110">
  <circle cx="1579.07" cy="1005.27" r="10.3741" stroke-width="0.5" stroke="black" fill="red"/>
  <circle cx="1579.07" cy="1005.27" r="6.26481" stroke-width="0.5" stroke="red" fill="red"/>
   </g>
   <g id="cell111">
  <circle cx="1202.31" cy="1343.23" r="10.5033" stroke-width="0.5" stroke="black" fill="grey"/>
  <circle cx="1202.31" cy="1343.23" r="6.32641" stroke-width="0.5" stroke="grey" fill="grey"/>
   </g>
   <g id="cell112">
  <circle cx="1258.87" cy="1297.04" r="10.5307" stroke-width="0.5" stroke="black" fill="grey"/>
  <circle cx="1258.87" cy="1297.04" r="6.33848" stroke-width="0.5" stroke="grey" fill="grey"/>
   </g>
   <g id="cell113">
  <circle cx="1255.87" cy="1442.26" r="8.364" stroke-width="0.5" stroke="black" fill="grey"/>
  <circle cx="1255.87" cy="1442.26" r="5.03332" stroke-width="0.5" stroke="grey" fill="grey"/>
   </g>
   <g id="cell114">
  <circle cx="1714.91" cy="376.252" r="10.5059" stroke-width="0.5" stroke="black" fill="red"/>
  <circle cx="1714.91" cy="376.252" r="6.32758" stroke-width="0.5" stroke="red" fill="red"/>
   </g>
   <g id="cell116">
  <circle cx="1695.72" cy="1214.24" r="10.4786" stroke-width="0.5" stroke="black" fill="grey"/>
  <circle cx="1695.72" cy="1214.24" r="6.31522" stroke-width="0.5" stroke="grey" fill="grey"/>
   </g>
   <g id="cell117">
  <circle cx="1710.51" cy="1262.29" r="9.86423" stroke-width="0.5" stroke="black" fill="grey"/>
  <circle cx="1710.51" cy="1262.29" r="5.98862" stroke-width="0.5" stroke="grey" fill="grey"/>
   </g>
   <g id="cell118">
  <circle cx="729.074" cy="960.161" r="10.1226" stroke-width="0.5" stroke="black" fill="red"/>
  <circle cx="729.074" cy="960.161" r="6.13314" stroke-width="0.5" stroke="red" fill="red"/>
   </g>
   <g id="cell119">
  <circle cx="1087.97" cy="1133.88" r="9.92484" stroke-width="0.5" stroke="black" fill="grey"/>
  <circle cx="1087.97" cy="1133.88" r="6.02321" stroke-width="0.5" stroke="grey" fill="grey"/>
   </g>
   <g id="cell120">
  <circle cx="761.182" cy="1067.67" r="10.1223" stroke-width="0.5" stroke="black" fill="red"/>
  <circle cx="761.182" cy="1067.67" r="6.13306" stroke-width="0.5" stroke="red" fill="red"/>
   </g>
   <g id="cell121">
  <circle cx="1168.81" cy="1603.65" r="8.41008" stroke-width="0.5" stroke="black" fill="grey"/>
  <circle cx="1168.81" cy="1603.65" r="5.05096" stroke-width="0.5" stroke="grey" fill="grey"/>
   </g>
   <g id="cell122">
  <circle cx="1184.75" cy="1172.66" r="9.88425" stroke-width="0.5" stroke="black" fill="grey"/>
  <circle cx="1184.75" cy="1172.66" r="6.00028" stroke-width="0.5" stroke="grey" fill="grey"/>
   </g>
   <g id="cell123">
  <circle cx="885.88" cy="644.987" r="9.64714" stroke-width="0.5" stroke="black" fill="grey"/>
  <circle cx="885.88" cy="644.987" r="5.86263" stroke-width="0.5" stroke="grey" fill="grey"/>
   </g>
   <g id="cell124">
  <circle cx="1132.81" cy="1821.91" r="10.3662" stroke-width="0.5" stroke="black" fill="grey"/>
  <circle cx="1132.81" cy="1821.91" r="6.26116" stroke-width="0.5" stroke="grey" fill="grey"/>
   </g>
   <g id="cell125">
  <circle cx="944.085" cy="509.35" r="10.4381" stroke-width="0.5" stroke="black" fill="grey"/>
  <circle cx="944.085" cy="509.35" r="6.29636" stroke-width="0.5" stroke="grey" fill="grey"/>
   </g>
   <g id="cell126">
  <circle cx="1067.23" cy="1103.25" r="9.6736" stroke-width="0.5" stroke="black" fill="grey"/>
  <circle cx="1067.23" cy="1103.25" r="5.87828" stroke-width="0.5" stroke="grey" fill="grey"/>
   </g>
   <g id="cell127">
  <circle cx="1130.99" cy="730.925" r="8.40922" stroke-width="0.5" stroke="black" fill="red"/>
  <circle cx="1130.99" cy="730.925" r="5.05069" stroke-width="0.5" stroke="red" fill="red"/>
   </g>
   <g id="cell129">
  <circle cx="1152.93" cy="1279.81" r="1.6738" stroke-width="0.5" stroke="black" fill="grey"/>
  <circle cx="1152.93" cy="1279.81" r="1.63517" stroke-width="0.5" stroke="black" fill="black"/>
   </g>
   <g id="cell130">
  <circle cx="24.6452" cy="1895.97" r="10.2787" stroke-width="0.5" stroke="black" fill="red"/>
  <circle cx="24.6452" cy="1895.97" r="6.21678" stroke-width="0.5" stroke="red" fill="red"/>
   </g>
   <g id="cell131">
  <circle cx="1112.14" cy="1652.32" r="8.40649" stroke-width="0.5" stroke="black" fill="grey"/>
  <circle cx="1112.14" cy="1652.32" r="5.04982" stroke-width="0.5" stroke="grey" fill="grey"/>
   </g>
   <g id="cell132">
  <circle cx="1077.8" cy="1007.65" r="10.249" stroke-width="0.5" stroke="black" fill="grey"/>
  <circle cx="1077.8" cy="1007.65" r="6.20144" stroke-width="0.5" stroke="grey" fill="grey"/>
   </g>
   <g id="cell133">
  <circle cx="1631.5" cy="282.236" r="9.46882" stroke-width="0.5" stroke="black" fill="red"/>
  <circle cx="1631.5" cy="282.236" r="5.75697" stroke-width="0.5" stroke="red" fill="red"/>
   </g>
   <g id="cell134">
  <circle cx="853.434" cy="588.322" r="8.40528" stroke-width="0.5" stroke="black" fill="grey"/>
  <circle cx="853.434" cy="588.322" r="5.04942" stroke-width="0.5" stroke="grey" fill="grey"/>
   </g>
   <g id="cell135">
  <circle cx="1125.34" cy="1082.05" r="8.40512" stroke-width="0.5" stroke="black" fill="grey"/>
  <circle cx="1125.34" cy="1082.05" r="5.04936" stroke-width="0.5" stroke="grey" fill="grey"/>
   </g>
   <g id="cell136">
  <circle cx="1117.11" cy="1140.36" r="8.40491" stroke-width="0.5" stroke="black" fill="grey"/>
  <circle cx="1117.11" cy="1140.36" r="5.04929" stroke-width="0.5" stroke="grey" fill="grey"/>
   </g>
   <g id="cell137">
  <circle cx="675.559" cy="886.353" r="9.00109" stroke-width="0.5" stroke="black" fill="red"/>
  <circle cx="675.559" cy="886.353" r="5.46578" stroke-width="0.5" stroke="red" fill="red"/>
   </g>
   <g id="cell138">
  <circle cx="1601.21" cy="257.465" r="8.7204" stroke-width="0.5" stroke="black" fill="red"/>
  <circle cx="1601.21" cy="257.465" r="5.27878" stroke-width="0.5" stroke="red" fill="red"/>
   </g>
   <g id="cell139">
  <circle cx="941.515" cy="633.665" r="8.57033" stroke-width="0.5" stroke="black" fill="grey"/>
  <circle cx="941.515" cy="633.665" r="5.17202" stroke-width="0.5" stroke="grey" fill="grey"/>
   </g>
   <g id="cell140">
  <circle cx="929.83" cy="539.604" r="8.60585" stroke-width="0.5" stroke="black" fill="grey"/>
  <circle cx="929.83" cy="539.604" r="5.19794" stroke-width="0.5" stroke="grey" fill="grey"/>
   </g>
   <g id="cell141">
  <circle cx="1080.73" cy="1218.95" r="9.83757" stroke-width="0.5" stroke="black" fill="grey"/>
  <circle cx="1080.73" cy="1218.95" r="5.97457" stroke-width="0.5" stroke="grey" fill="grey"/>
   </g>
   <g id="cell142">
  <circle cx="1220.26" cy="1736.26" r="8.40394" stroke-width="0.5" stroke="black" fill="grey"/>
  <circle cx="1220.26" cy="1736.26" r="5.04896" stroke-width="0.5" stroke="grey" fill="grey"/>
   </g>
   <g id="cell143">
  <circle cx="1737.89" cy="1162.18" r="8.40299" stroke-width="0.5" stroke="black" fill="grey"/>
  <circle cx="1737.89" cy="1162.18" r="5.04862" stroke-width="0.5" stroke="grey" fill="grey"/>
   </g>
   <g id="cell144">
  <circle cx="1620.96" cy="1010.01" r="8.40271" stroke-width="0.5" stroke="black" fill="red"/>
  <circle cx="1620.96" cy="1010.01" r="5.04853" stroke-width="0.5" stroke="red" fill="red"/>
   </g>
   <g id="cell145">
  <circle cx="1290.72" cy="1318.32" r="8.40265" stroke-width="0.5" stroke="black" fill="grey"/>
  <circle cx="1290.72" cy="1318.32" r="5.04851" stroke-width="0.5" stroke="grey" fill="grey"/>
   </g>
   <g id="cell146">
  <circle cx="1108.06" cy="1717.43" r="8.40207" stroke-width="0.5" stroke="black" fill="grey"/>
  <circle cx="1108.06" cy="1717.43" r="5.04831" stroke-width="0.5" stroke="grey" fill="grey"/>
   </g>
   <g id="cell147">
  <circle cx="807.997" cy="1057.88" r="8.40055" stroke-width="0.5" stroke="black" fill="red"/>
  <circle cx="807.997" cy="1057.88" r="5.04776" stroke-width="0.5" stroke="red" fill="red"/>
   </g>
   <g id="cell148">
  <circle cx="1187.08" cy="737.083" r="9.79023" stroke-width="0.5" stroke="black" fill="red"/>
  <circle cx="1187.08" cy="737.083" r="5.94783" stroke-width="0.5" stroke="red" fill="red"/>
   </g>
   <g id="cell149">
  <circle cx="1703.67" cy="1364.51" r="9.07559" stroke-width="0.5" stroke="black" fill="grey"/>
  <circle cx="1703.67" cy="1364.51" r="5.51465" stroke-width="0.5" stroke="grey" fill="grey"/>
   </g>
   <g id="cell150">
  <circle cx="1742.14" cy="1271.77" r="9.63931" stroke-width="0.5" stroke="black" fill="grey"/>
  <circle cx="1742.14" cy="1271.77" r="5.85985" stroke-width="0.5" stroke="grey" fill="grey"/>
   </g>
   <g id="cell151">
  <circle cx="1635.17" cy="1109.41" r="9.76549" stroke-width="0.5" stroke="black" fill="red"/>
  <circle cx="1635.17" cy="1109.41" r="5.9338" stroke-width="0.5" stroke="red" fill="red"/>
   </g>
   <g id="cell152">
  <circle cx="1535.88" cy="1084.61" r="9.76549" stroke-width="0.5" stroke="black" fill="red"/>
  <circle cx="1535.88" cy="1084.61" r="5.9338" stroke-width="0.5" stroke="red" fill="red"/>
   </g>
   <g id="cell153">
  <circle cx="1710.18" cy="128.027" r="8.39789" stroke-width="0.5" stroke="black" fill="red"/>
  <circle cx="1710.18" cy="128.027" r="5.0468" stroke-width="0.5" stroke="red" fill="red"/>
   </g>
   <g id="cell154">
  <circle cx="1679.28" cy="383.525" r="8.39731" stroke-width="0.5" stroke="black" fill="red"/>
  <circle cx="1679.28" cy="383.525" r="5.04661" stroke-width="0.5" stroke="red" fill="red"/>
   </g>
   <g id="cell155">
  <circle cx="903.421" cy="635.027" r="8.39556" stroke-width="0.5" stroke="black" fill="grey"/>
  <circle cx="903.421" cy="635.027" r="5.04596" stroke-width="0.5" stroke="grey" fill="grey"/>
   </g>
   <g id="cell156">
  <circle cx="1719.44" cy="1249.4" r="8.39567" stroke-width="0.5" stroke="black" fill="grey"/>
  <circle cx="1719.44" cy="1249.4" r="5.04598" stroke-width="0.5" stroke="grey" fill="grey"/>
   </g>
   <g id="cell157">
  <circle cx="65.713" cy="1949.56" r="9.63604" stroke-width="0.5" stroke="black" fill="red"/>
  <circle cx="65.713" cy="1949.56" r="5.8586" stroke-width="0.5" stroke="red" fill="red"/>
   </g>
   <g id="cell158">
  <circle cx="1665.35" cy="258.893" r="8.39402" stroke-width="0.5" stroke="black" fill="red"/>
  <circle cx="1665.35" cy="258.893" r="5.04538" stroke-width="0.5" stroke="red" fill="red"/>
   </g>
   <g id="cell159">
  <circle cx="819.426" cy="843.024" r="8.39008" stroke-width="0.5" stroke="black" fill="red"/>
  <circle cx="819.426" cy="843.024" r="5.04387" stroke-width="0.5" stroke="red" fill="red"/>
   </g>
   <g id="cell160">
  <circle cx="44.7567" cy="1974.31" r="8.38928" stroke-width="0.5" stroke="black" fill="red"/>
  <circle cx="44.7567" cy="1974.31" r="5.04358" stroke-width="0.5" stroke="red" fill="red"/>
   </g>
   <g id="cell161">
  <circle cx="880.609" cy="531.501" r="8.38872" stroke-width="0.5" stroke="black" fill="grey"/>
  <circle cx="880.609" cy="531.501" r="5.04335" stroke-width="0.5" stroke="grey" fill="grey"/>
   </g>
   <g id="cell162">
  <circle cx="1535.42" cy="1031.22" r="8.94728" stroke-width="0.5" stroke="black" fill="red"/>
  <circle cx="1535.42" cy="1031.22" r="5.43459" stroke-width="0.5" stroke="red" fill="red"/>
   </g>
   <g id="cell163">
  <circle cx="1156.98" cy="1764.1" r="8.86602" stroke-width="0.5" stroke="black" fill="grey"/>
  <circle cx="1156.98" cy="1764.1" r="5.38152" stroke-width="0.5" stroke="grey" fill="grey"/>
   </g>
   <g id="cell164">
  <circle cx="1241.45" cy="1238.99" r="8.82441" stroke-width="0.5" stroke="black" fill="grey"/>
  <circle cx="1241.45" cy="1238.99" r="5.35417" stroke-width="0.5" stroke="grey" fill="grey"/>
   </g>
   <g id="cell165">
  <circle cx="62.6032" cy="1969.81" r="8.45641" stroke-width="0.5" stroke="black" fill="red"/>
  <circle cx="62.6032" cy="1969.81" r="5.09384" stroke-width="0.5" stroke="red" fill="red"/>
   </g>
   <g id="cell166">
  <circle cx="1179.73" cy="1803.66" r="8.38588" stroke-width="0.5" stroke="black" fill="grey"/>
  <circle cx="1179.73" cy="1803.66" r="5.04224" stroke-width="0.5" stroke="grey" fill="grey"/>
   </g>
   <g id="cell167">
  <circle cx="133.988" cy="1987.9" r="8.38419" stroke-width="0.5" stroke="black" fill="red"/>
  <circle cx="133.988" cy="1987.9" r="5.04159" stroke-width="0.5" stroke="red" fill="red"/>
   </g>
   <g id="cell168">
  <circle cx="876.637" cy="878.968" r="8.38277" stroke-width="0.5" stroke="black" fill="red"/>
  <circle cx="876.637" cy="878.968" r="5.041" stroke-width="0.5" stroke="red" fill="red"/>
   </g>
   <g id="cell169">
  <circle cx="1126.19" cy="1152.95" r="8.38167" stroke-width="0.5" stroke="black" fill="grey"/>
  <circle cx="1126.19" cy="1152.95" r="5.04059" stroke-width="0.5" stroke="grey" fill="grey"/>
   </g>
   <g id="cell170">
  <circle cx="63.5105" cy="1988.74" r="8.38083" stroke-width="0.5" stroke="black" fill="red"/>
  <circle cx="63.5105" cy="1988.74" r="5.04025" stroke-width="0.5" stroke="red" fill="red"/>
   </g>
   <g id="cell171">
  <circle cx="1178.11" cy="1301.61" r="8.37738" stroke-width="0.5" stroke="black" fill="grey"/>
  <circle cx="1178.11" cy="1301.61" r="5.03881" stroke-width="0.5" stroke="grey" fill="grey"/>
   </g>
   <g id="cell172">
  <circle cx="1205.33" cy="1757.44" r="8.37632" stroke-width="0.5" stroke="black" fill="grey"/>
  <circle cx="1205.33" cy="1757.44" r="5.03838" stroke-width="0.5" stroke="grey" fill="grey"/>
   </g>
   <g id="cell173">
  <circle cx="1508.85" cy="1072.26" r="8.3763" stroke-width="0.5" stroke="black" fill="red"/>
  <circle cx="1508.85" cy="1072.26" r="5.03838" stroke-width="0.5" stroke="red" fill="red"/>
   </g>
   <g id="cell174">
  <circle cx="1641.66" cy="154.642" r="8.69432" stroke-width="0.5" stroke="black" fill="red"/>
  <circle cx="1641.66" cy="154.642" r="5.26856" stroke-width="0.5" stroke="red" fill="red"/>
   </g>
   <g id="cell175">
  <circle cx="1643.99" cy="1127.92" r="8.37499" stroke-width="0.5" stroke="black" fill="grey"/>
  <circle cx="1643.99" cy="1127.92" r="5.03788" stroke-width="0.5" stroke="grey" fill="grey"/>
   </g>
   <g id="cell176">
  <circle cx="792.117" cy="958.962" r="8.37274" stroke-width="0.5" stroke="black" fill="red"/>
  <circle cx="792.117" cy="958.962" r="5.03697" stroke-width="0.5" stroke="red" fill="red"/>
   </g>
   <g id="cell177">
  <circle cx="818.646" cy="910.155" r="8.44368" stroke-width="0.5" stroke="black" fill="red"/>
  <circle cx="818.646" cy="910.155" r="5.08869" stroke-width="0.5" stroke="red" fill="red"/>
   </g>
   <g id="cell178">
  <circle cx="906.765" cy="611.344" r="8.36963" stroke-width="0.5" stroke="black" fill="grey"/>
  <circle cx="906.765" cy="611.344" r="5.03561" stroke-width="0.5" stroke="grey" fill="grey"/>
   </g>
   <g id="cell179">
  <circle cx="1660.16" cy="273.541" r="8.3694" stroke-width="0.5" stroke="black" fill="red"/>
  <circle cx="1660.16" cy="273.541" r="5.03556" stroke-width="0.5" stroke="red" fill="red"/>
   </g>
   <g id="cell180">
  <circle cx="1699.91" cy="1191.47" r="8.3671" stroke-width="0.5" stroke="black" fill="grey"/>
  <circle cx="1699.91" cy="1191.47" r="5.03455" stroke-width="0.5" stroke="grey" fill="grey"/>
   </g>
   <g id="cell181">
  <circle cx="1677.1" cy="1171.65" r="8.36553" stroke-width="0.5" stroke="black" fill="grey"/>
  <circle cx="1677.1" cy="1171.65" r="5.03394" stroke-width="0.5" stroke="grey" fill="grey"/>
   </g>
   <g id="cell182">
  <circle cx="1241.69" cy="1450.78" r="8.364" stroke-width="0.5" stroke="black" fill="grey"/>
  <circle cx="1241.69" cy="1450.78" r="5.03332" stroke-width="0.5" stroke="grey" fill="grey"/>
   </g>
   <g id="cell183">
  <circle cx="1097.83" cy="1730.38" r="8.36413" stroke-width="0.5" stroke="black" fill="grey"/>
  <circle cx="1097.83" cy="1730.38" r="5.03335" stroke-width="0.5" stroke="grey" fill="grey"/>
   </g>
   <g id="cell184">
  <circle cx="1133.46" cy="1184.44" r="8.36281" stroke-width="0.5" stroke="black" fill="grey"/>
  <circle cx="1133.46" cy="1184.44" r="5.03278" stroke-width="0.5" stroke="grey" fill="grey"/>
   </g>
   <g id="cell185">
  <circle cx="1181.36" cy="1329.15" r="8.36299" stroke-width="0.5" stroke="black" fill="grey"/>
  <circle cx="1181.36" cy="1329.15" r="5.03283" stroke-width="0.5" stroke="grey" fill="grey"/>
   </g>
   <g id="cell186">
  <circle cx="795.602" cy="542.077" r="8.36314" stroke-width="0.5" stroke="black" fill="grey"/>
  <circle cx="795.602" cy="542.077" r="5.03287" stroke-width="0.5" stroke="grey" fill="grey"/>
   </g>
   <g id="cell187">
  <circle cx="1146.03" cy="1198.83" r="8.36163" stroke-width="0.5" stroke="black" fill="grey"/>
  <circle cx="1146.03" cy="1198.83" r="5.03224" stroke-width="0.5" stroke="grey" fill="grey"/>
   </g>
   <g id="cell188">
  <circle cx="860.249" cy="515.754" r="8.36159" stroke-width="0.5" stroke="black" fill="grey"/>
  <circle cx="860.249" cy="515.754" r="5.03223" stroke-width="0.5" stroke="grey" fill="grey"/>
   </g>
  </g>
 </g>
  <rect x="1750" y="2070" width="200" height="20" stroke-width="4" stroke="rgb(255,255,255)" fill="rgb(0,0,0)"/>
  <text x="1762.5" y="2057.5"
   font-family="Arial" font-size="50" fill="black" >
   200 &#956;m
  </text>
  <text x="50" y="2090"
   font-family="Arial" font-size="37.5" fill="black" >
   0 days, 0 hours, 1 minutes, and 55.1944 seconds
  </text>
  <rect x="0" y="140" width="2000" height="2000" stroke-width="4" stroke="rgb(0,0,0)" fill="none"/>
</svg>
