<?xml version="1.0" encoding="UTF-8" standalone="no"?>
<!-- Created with PhysiCell (http://PhysiCell.MathCancer.org/) -->
<svg 
 xmlns:dc="http://purl.org/dc/elements/1.1/" 
 xmlns:cc="http://creativecommons.org/ns#" 
 xmlns:rdf="http://www.w3.org/1999/02/22-rdf-syntax-ns#" 
 xmlns:svg="http://www.w3.org/2000/svg" 
 xmlns="http://www.w3.org/2000/svg" 
 version="1.1" 
 width="2000" 
 height="2140" 
 id="svg2">
  <rect x="0" y="0" width="2000" height="2140" stroke-width="4" stroke="white" fill="white"/>
  <text x="25" y="60"
   font-family="Arial" font-size="50" fill="black" >
   Current time: 1 days, 17 hours, and 0.00 minutes, z = 0.00 &#956;m
  </text>
  <text x="25" y="115"
   font-family="Arial" font-size="47.5" fill="black" >
   33 agents
  </text>
 <g id="tissue" 
    transform="translate(0,2140) scale(1,-1)">
  <g id="ECM">
  </g>
  <g id="cells">
   <g id="cell0">
  <circle cx="1107.34" cy="1165.55" r="10.1211" stroke-width="0.5" stroke="black" fill="grey"/>
  <circle cx="1107.34" cy="1165.55" r="6.13267" stroke-width="0.5" stroke="grey" fill="grey"/>
   </g>
   <g id="cell1">
  <circle cx="1685.32" cy="1215.55" r="8.39786" stroke-width="0.5" stroke="black" fill="grey"/>
  <circle cx="1685.32" cy="1215.55" r="5.0468" stroke-width="0.5" stroke="grey" fill="grey"/>
   </g>
   <g id="cell2">
  <circle cx="1173.85" cy="1723.63" r="9.47169" stroke-width="0.5" stroke="black" fill="grey"/>
  <circle cx="1173.85" cy="1723.63" r="5.75796" stroke-width="0.5" stroke="grey" fill="grey"/>
   </g>
   <g id="cell3">
  <circle cx="1279.42" cy="1319.27" r="10.1482" stroke-width="0.5" stroke="black" fill="grey"/>
  <circle cx="1279.42" cy="1319.27" r="6.14731" stroke-width="0.5" stroke="grey" fill="grey"/>
   </g>
   <g id="cell4">
  <circle cx="871.797" cy="542.354" r="9.15677" stroke-width="0.5" stroke="black" fill="grey"/>
  <circle cx="871.797" cy="542.354" r="5.5648" stroke-width="0.5" stroke="grey" fill="grey"/>
   </g>
   <g id="cell5">
  <circle cx="118.431" cy="1972.82" r="9.33587" stroke-width="0.5" stroke="black" fill="red"/>
  <circle cx="118.431" cy="1972.82" r="5.6764" stroke-width="0.5" stroke="red" fill="red"/>
   </g>
   <g id="cell6">
  <circle cx="808.974" cy="881.169" r="8.39123" stroke-width="0.5" stroke="black" fill="red"/>
  <circle cx="808.974" cy="881.169" r="5.04432" stroke-width="0.5" stroke="red" fill="red"/>
   </g>
   <g id="cell19">
  <circle cx="1696.68" cy="1277.51" r="10.1461" stroke-width="0.5" stroke="black" fill="grey"/>
  <circle cx="1696.68" cy="1277.51" r="6.14662" stroke-width="0.5" stroke="grey" fill="grey"/>
   </g>
   <g id="cell18">
  <circle cx="1652.81" cy="267.351" r="8.37086" stroke-width="0.5" stroke="black" fill="red"/>
  <circle cx="1652.81" cy="267.351" r="5.03612" stroke-width="0.5" stroke="red" fill="red"/>
   </g>
   <g id="cell9">
  <circle cx="1689.1" cy="212.639" r="9.46261" stroke-width="0.5" stroke="black" fill="red"/>
  <circle cx="1689.1" cy="212.639" r="5.75468" stroke-width="0.5" stroke="red" fill="red"/>
   </g>
   <g id="cell11">
  <circle cx="1580.17" cy="1062.25" r="10.4816" stroke-width="0.5" stroke="black" fill="red"/>
  <circle cx="1580.17" cy="1062.25" r="6.31667" stroke-width="0.5" stroke="red" fill="red"/>
   </g>
   <g id="cell20">
  <circle cx="834.774" cy="958.168" r="10.5115" stroke-width="0.5" stroke="black" fill="red"/>
  <circle cx="834.774" cy="958.168" r="6.32999" stroke-width="0.5" stroke="red" fill="red"/>
   </g>
   <g id="cell13">
  <circle cx="830.113" cy="578.144" r="8.79693" stroke-width="0.5" stroke="black" fill="grey"/>
  <circle cx="830.113" cy="578.144" r="5.33209" stroke-width="0.5" stroke="grey" fill="grey"/>
   </g>
   <g id="cell14">
  <circle cx="1198.71" cy="1299.74" r="9.15134" stroke-width="0.5" stroke="black" fill="grey"/>
  <circle cx="1198.71" cy="1299.74" r="5.56279" stroke-width="0.5" stroke="grey" fill="grey"/>
   </g>
   <g id="cell15">
  <circle cx="1143.41" cy="1174.3" r="9.19053" stroke-width="0.5" stroke="black" fill="grey"/>
  <circle cx="1143.41" cy="1174.3" r="5.58693" stroke-width="0.5" stroke="grey" fill="grey"/>
   </g>
   <g id="cell16">
  <circle cx="1185.76" cy="1709.58" r="9.57968" stroke-width="0.5" stroke="black" fill="grey"/>
  <circle cx="1185.76" cy="1709.58" r="5.82538" stroke-width="0.5" stroke="grey" fill="grey"/>
   </g>
   <g id="cell17">
  <circle cx="1096.01" cy="697.248" r="8.4081" stroke-width="0.5" stroke="black" fill="red"/>
  <circle cx="1096.01" cy="697.248" r="5.05034" stroke-width="0.5" stroke="red" fill="red"/>
   </g>
   <g id="cell21">
  <circle cx="1557.17" cy="1048.12" r="9.62038" stroke-width="0.5" stroke="black" fill="red"/>
  <circle cx="1557.17" cy="1048.12" r="5.84663" stroke-width="0.5" stroke="red" fill="red"/>
   </g>
   <g id="cell22">
  <circle cx="1172.62" cy="1749.75" r="8.4094" stroke-width="0.5" stroke="black" fill="grey"/>
  <circle cx="1172.62" cy="1749.75" r="5.05075" stroke-width="0.5" stroke="grey" fill="grey"/>
   </g>
   <g id="cell23">
  <circle cx="1258.05" cy="1293.58" r="8.40932" stroke-width="0.5" stroke="black" fill="grey"/>
  <circle cx="1258.05" cy="1293.58" r="5.05072" stroke-width="0.5" stroke="grey" fill="grey"/>
   </g>
   <g id="cell24">
  <circle cx="1159.32" cy="1213.66" r="10.2084" stroke-width="0.5" stroke="black" fill="grey"/>
  <circle cx="1159.32" cy="1213.66" r="6.17964" stroke-width="0.5" stroke="grey" fill="grey"/>
   </g>
   <g id="cell25">
  <circle cx="1122.9" cy="718.717" r="8.4081" stroke-width="0.5" stroke="black" fill="red"/>
  <circle cx="1122.9" cy="718.717" r="5.05034" stroke-width="0.5" stroke="red" fill="red"/>
   </g>
   <g id="cell26">
  <circle cx="1673.6" cy="1241.78" r="9.88161" stroke-width="0.5" stroke="black" fill="grey"/>
  <circle cx="1673.6" cy="1241.78" r="5.99941" stroke-width="0.5" stroke="grey" fill="grey"/>
   </g>
   <g id="cell27">
  <circle cx="908.041" cy="563.551" r="8.40555" stroke-width="0.5" stroke="black" fill="grey"/>
  <circle cx="908.041" cy="563.551" r="5.0495" stroke-width="0.5" stroke="grey" fill="grey"/>
   </g>
   <g id="cell28">
  <circle cx="90.1005" cy="1975.97" r="8.42384" stroke-width="0.5" stroke="black" fill="red"/>
  <circle cx="90.1005" cy="1975.97" r="5.06285" stroke-width="0.5" stroke="red" fill="red"/>
   </g>
   <g id="cell29">
  <circle cx="1111.5" cy="1127.94" r="9.95592" stroke-width="0.5" stroke="black" fill="grey"/>
  <circle cx="1111.5" cy="1127.94" r="6.04227" stroke-width="0.5" stroke="grey" fill="grey"/>
   </g>
   <g id="cell30">
  <circle cx="877.757" cy="597.963" r="8.60296" stroke-width="0.5" stroke="black" fill="grey"/>
  <circle cx="877.757" cy="597.963" r="5.19689" stroke-width="0.5" stroke="grey" fill="grey"/>
   </g>
   <g id="cell31">
  <circle cx="1163.81" cy="1293.1" r="8.95634" stroke-width="0.5" stroke="black" fill="grey"/>
  <circle cx="1163.81" cy="1293.1" r="5.43814" stroke-width="0.5" stroke="grey" fill="grey"/>
   </g>
   <g id="cell32">
  <circle cx="1640.35" cy="219.98" r="8.39788" stroke-width="0.5" stroke="black" fill="red"/>
  <circle cx="1640.35" cy="219.98" r="5.0468" stroke-width="0.5" stroke="red" fill="red"/>
   </g>
   <g id="cell33">
  <circle cx="1682.71" cy="1189.15" r="8.39786" stroke-width="0.5" stroke="black" fill="grey"/>
  <circle cx="1682.71" cy="1189.15" r="5.0468" stroke-width="0.5" stroke="grey" fill="grey"/>
   </g>
   <g id="cell34">
  <circle cx="1185.19" cy="1685.47" r="8.39419" stroke-width="0.5" stroke="black" fill="grey"/>
  <circle cx="1185.19" cy="1685.47" r="5.04542" stroke-width="0.5" stroke="grey" fill="grey"/>
   </g>
   <g id="cell35">
  <circle cx="770.493" cy="868.506" r="8.39123" stroke-width="0.5" stroke="black" fill="red"/>
  <circle cx="770.493" cy="868.506" r="5.04432" stroke-width="0.5" stroke="red" fill="red"/>
   </g>
   <g id="cell36">
  <circle cx="1662.36" cy="281.487" r="8.37086" stroke-width="0.5" stroke="black" fill="red"/>
  <circle cx="1662.36" cy="281.487" r="5.03612" stroke-width="0.5" stroke="red" fill="red"/>
   </g>
  </g>
 </g>
  <rect x="1750" y="2070" width="200" height="20" stroke-width="4" stroke="rgb(255,255,255)" fill="rgb(0,0,0)"/>
  <text x="1762.5" y="2057.5"
   font-family="Arial" font-size="50" fill="black" >
   200 &#956;m
  </text>
  <text x="50" y="2090"
   font-family="Arial" font-size="37.5" fill="black" >
   0 days, 0 hours, 0 minutes, and 53.1906 seconds
  </text>
  <rect x="0" y="140" width="2000" height="2000" stroke-width="4" stroke="rgb(0,0,0)" fill="none"/>
</svg>
