<?xml version="1.0" encoding="UTF-8" standalone="no"?>
<!-- Created with PhysiCell (http://PhysiCell.MathCancer.org/) -->
<svg 
 xmlns:dc="http://purl.org/dc/elements/1.1/" 
 xmlns:cc="http://creativecommons.org/ns#" 
 xmlns:rdf="http://www.w3.org/1999/02/22-rdf-syntax-ns#" 
 xmlns:svg="http://www.w3.org/2000/svg" 
 xmlns="http://www.w3.org/2000/svg" 
 version="1.1" 
 width="2000" 
 height="2140" 
 id="svg2">
  <rect x="0" y="0" width="2000" height="2140" stroke-width="4" stroke="white" fill="white"/>
  <text x="25" y="60"
   font-family="Arial" font-size="50" fill="black" >
   Current time: 0 days, 18 hours, and 20.00 minutes, z = 0.00 &#956;m
  </text>
  <text x="25" y="115"
   font-family="Arial" font-size="47.5" fill="black" >
   167 agents
  </text>
 <g id="tissue" 
    transform="translate(0,2140) scale(1,-1)">
  <g id="ECM">
  </g>
  <g id="cells">
   <g id="cell0">
  <circle cx="1137.88" cy="1257.49" r="10.5117" stroke-width="0.5" stroke="black" fill="grey"/>
  <circle cx="1137.88" cy="1257.49" r="6.33005" stroke-width="0.5" stroke="grey" fill="grey"/>
   </g>
   <g id="cell1">
  <circle cx="1697.07" cy="1287.81" r="8.38291" stroke-width="0.5" stroke="black" fill="grey"/>
  <circle cx="1697.07" cy="1287.81" r="5.04103" stroke-width="0.5" stroke="grey" fill="grey"/>
   </g>
   <g id="cell2">
  <circle cx="1067.4" cy="1719.1" r="8.38454" stroke-width="0.5" stroke="black" fill="grey"/>
  <circle cx="1067.4" cy="1719.1" r="5.04168" stroke-width="0.5" stroke="grey" fill="grey"/>
   </g>
   <g id="cell3">
  <circle cx="1222.24" cy="1267.85" r="8.38823" stroke-width="0.5" stroke="black" fill="grey"/>
  <circle cx="1222.24" cy="1267.85" r="5.04313" stroke-width="0.5" stroke="grey" fill="grey"/>
   </g>
   <g id="cell4">
  <circle cx="921.612" cy="618.625" r="8.71417" stroke-width="0.5" stroke="black" fill="grey"/>
  <circle cx="921.612" cy="618.625" r="5.27648" stroke-width="0.5" stroke="grey" fill="grey"/>
   </g>
   <g id="cell5">
  <circle cx="118.741" cy="1925.47" r="10.1238" stroke-width="0.5" stroke="black" fill="grey"/>
  <circle cx="118.741" cy="1925.47" r="6.13347" stroke-width="0.5" stroke="grey" fill="grey"/>
   </g>
   <g id="cell6">
  <circle cx="870.455" cy="938.09" r="8.37321" stroke-width="0.5" stroke="black" fill="grey"/>
  <circle cx="870.455" cy="938.09" r="5.03708" stroke-width="0.5" stroke="grey" fill="grey"/>
   </g>
   <g id="cell7">
  <circle cx="1545.52" cy="1033.7" r="10.5254" stroke-width="0.5" stroke="black" fill="grey"/>
  <circle cx="1545.52" cy="1033.7" r="6.33607" stroke-width="0.5" stroke="grey" fill="grey"/>
   </g>
   <g id="cell166">
  <circle cx="651.098" cy="970.468" r="8.37092" stroke-width="0.5" stroke="black" fill="red"/>
  <circle cx="651.098" cy="970.468" r="5.03613" stroke-width="0.5" stroke="red" fill="red"/>
   </g>
   <g id="cell9">
  <circle cx="1653.13" cy="211.754" r="10.2221" stroke-width="0.5" stroke="black" fill="grey"/>
  <circle cx="1653.13" cy="211.754" r="6.18628" stroke-width="0.5" stroke="grey" fill="grey"/>
   </g>
   <g id="cell10">
  <circle cx="201.199" cy="1296.61" r="8.38957" stroke-width="0.5" stroke="black" fill="grey"/>
  <circle cx="201.199" cy="1296.61" r="5.04365" stroke-width="0.5" stroke="grey" fill="grey"/>
   </g>
   <g id="cell11">
  <circle cx="795.283" cy="1674.53" r="8.60298" stroke-width="0.5" stroke="black" fill="grey"/>
  <circle cx="795.283" cy="1674.53" r="5.1969" stroke-width="0.5" stroke="grey" fill="grey"/>
   </g>
   <g id="cell12">
  <circle cx="1505.81" cy="302.43" r="8.37742" stroke-width="0.5" stroke="black" fill="grey"/>
  <circle cx="1505.81" cy="302.43" r="5.03881" stroke-width="0.5" stroke="grey" fill="grey"/>
   </g>
   <g id="cell13">
  <circle cx="1720.94" cy="1948.94" r="8.3926" stroke-width="0.5" stroke="black" fill="grey"/>
  <circle cx="1720.94" cy="1948.94" r="5.04482" stroke-width="0.5" stroke="grey" fill="grey"/>
   </g>
   <g id="cell14">
  <circle cx="1611.03" cy="1600.04" r="8.37431" stroke-width="0.5" stroke="black" fill="grey"/>
  <circle cx="1611.03" cy="1600.04" r="5.03754" stroke-width="0.5" stroke="grey" fill="grey"/>
   </g>
   <g id="cell15">
  <circle cx="1028.3" cy="1569.29" r="8.36849" stroke-width="0.5" stroke="black" fill="grey"/>
  <circle cx="1028.3" cy="1569.29" r="5.03512" stroke-width="0.5" stroke="grey" fill="grey"/>
   </g>
   <g id="cell16">
  <circle cx="226.635" cy="1392.91" r="2.74163" stroke-width="0.5" stroke="black" fill="grey"/>
  <circle cx="226.635" cy="1392.91" r="2.53431" stroke-width="0.5" stroke="black" fill="black"/>
   </g>
   <g id="cell17">
  <circle cx="1138.18" cy="288.037" r="8.59396" stroke-width="0.5" stroke="black" fill="grey"/>
  <circle cx="1138.18" cy="288.037" r="5.19348" stroke-width="0.5" stroke="grey" fill="grey"/>
   </g>
   <g id="cell18">
  <circle cx="1895.9" cy="1538.06" r="8.38823" stroke-width="0.5" stroke="black" fill="grey"/>
  <circle cx="1895.9" cy="1538.06" r="5.04313" stroke-width="0.5" stroke="grey" fill="grey"/>
   </g>
   <g id="cell19">
  <circle cx="213.811" cy="835.886" r="10.537" stroke-width="0.5" stroke="black" fill="grey"/>
  <circle cx="213.811" cy="835.886" r="6.34103" stroke-width="0.5" stroke="grey" fill="grey"/>
   </g>
   <g id="cell20">
  <circle cx="533.673" cy="400.642" r="10.4894" stroke-width="0.5" stroke="black" fill="grey"/>
  <circle cx="533.673" cy="400.642" r="6.31998" stroke-width="0.5" stroke="grey" fill="grey"/>
   </g>
   <g id="cell21">
  <circle cx="1507.92" cy="817.825" r="8.39708" stroke-width="0.5" stroke="black" fill="grey"/>
  <circle cx="1507.92" cy="817.825" r="5.0465" stroke-width="0.5" stroke="grey" fill="grey"/>
   </g>
   <g id="cell22">
  <circle cx="1164.92" cy="294.173" r="9.22678" stroke-width="0.5" stroke="black" fill="grey"/>
  <circle cx="1164.92" cy="294.173" r="5.60968" stroke-width="0.5" stroke="grey" fill="grey"/>
   </g>
   <g id="cell23">
  <circle cx="620.992" cy="1264.26" r="9.07411" stroke-width="0.5" stroke="black" fill="grey"/>
  <circle cx="620.992" cy="1264.26" r="5.51407" stroke-width="0.5" stroke="grey" fill="grey"/>
   </g>
   <g id="cell24">
  <circle cx="1223.46" cy="425.617" r="10.537" stroke-width="0.5" stroke="black" fill="grey"/>
  <circle cx="1223.46" cy="425.617" r="6.34103" stroke-width="0.5" stroke="grey" fill="grey"/>
   </g>
   <g id="cell25">
  <circle cx="717.442" cy="1844.23" r="10.4489" stroke-width="0.5" stroke="black" fill="grey"/>
  <circle cx="717.442" cy="1844.23" r="6.30112" stroke-width="0.5" stroke="grey" fill="grey"/>
   </g>
   <g id="cell26">
  <circle cx="1303.69" cy="935.486" r="9.02907" stroke-width="0.5" stroke="black" fill="grey"/>
  <circle cx="1303.69" cy="935.486" r="5.48678" stroke-width="0.5" stroke="grey" fill="grey"/>
   </g>
   <g id="cell27">
  <circle cx="1207.29" cy="900.494" r="10.5352" stroke-width="0.5" stroke="black" fill="grey"/>
  <circle cx="1207.29" cy="900.494" r="6.34027" stroke-width="0.5" stroke="grey" fill="grey"/>
   </g>
   <g id="cell28">
  <circle cx="1413.15" cy="144.155" r="8.38957" stroke-width="0.5" stroke="black" fill="grey"/>
  <circle cx="1413.15" cy="144.155" r="5.04365" stroke-width="0.5" stroke="grey" fill="grey"/>
   </g>
   <g id="cell29">
  <circle cx="1888.94" cy="1353.69" r="10.5295" stroke-width="0.5" stroke="black" fill="grey"/>
  <circle cx="1888.94" cy="1353.69" r="6.33783" stroke-width="0.5" stroke="grey" fill="grey"/>
   </g>
   <g id="cell30">
  <circle cx="1386.29" cy="337.389" r="8.39708" stroke-width="0.5" stroke="black" fill="grey"/>
  <circle cx="1386.29" cy="337.389" r="5.0465" stroke-width="0.5" stroke="grey" fill="grey"/>
   </g>
   <g id="cell31">
  <circle cx="683.414" cy="302.767" r="2.83985" stroke-width="0.5" stroke="black" fill="grey"/>
  <circle cx="683.414" cy="302.767" r="2.39167" stroke-width="0.5" stroke="black" fill="black"/>
   </g>
   <g id="cell32">
  <circle cx="668.098" cy="1244.73" r="9.11085" stroke-width="0.5" stroke="black" fill="grey"/>
  <circle cx="668.098" cy="1244.73" r="5.53784" stroke-width="0.5" stroke="grey" fill="grey"/>
   </g>
   <g id="cell33">
  <circle cx="671.898" cy="1138.32" r="8.38454" stroke-width="0.5" stroke="black" fill="grey"/>
  <circle cx="671.898" cy="1138.32" r="5.04168" stroke-width="0.5" stroke="grey" fill="grey"/>
   </g>
   <g id="cell34">
  <circle cx="890.96" cy="1219.36" r="10.5314" stroke-width="0.5" stroke="black" fill="grey"/>
  <circle cx="890.96" cy="1219.36" r="6.33867" stroke-width="0.5" stroke="grey" fill="grey"/>
   </g>
   <g id="cell35">
  <circle cx="1920.82" cy="191.938" r="10.1996" stroke-width="0.5" stroke="black" fill="grey"/>
  <circle cx="1920.82" cy="191.938" r="6.17434" stroke-width="0.5" stroke="grey" fill="grey"/>
   </g>
   <g id="cell36">
  <circle cx="463.665" cy="1248.83" r="10.0169" stroke-width="0.5" stroke="black" fill="grey"/>
  <circle cx="463.665" cy="1248.83" r="6.07458" stroke-width="0.5" stroke="grey" fill="grey"/>
   </g>
   <g id="cell37">
  <circle cx="1949.02" cy="1286.09" r="9.94548" stroke-width="0.5" stroke="black" fill="grey"/>
  <circle cx="1949.02" cy="1286.09" r="6.03448" stroke-width="0.5" stroke="grey" fill="grey"/>
   </g>
   <g id="cell38">
  <circle cx="492.748" cy="799.978" r="8.63379" stroke-width="0.5" stroke="black" fill="grey"/>
  <circle cx="492.748" cy="799.978" r="5.22112" stroke-width="0.5" stroke="grey" fill="grey"/>
   </g>
   <g id="cell39">
  <circle cx="927.268" cy="491.228" r="8.40366" stroke-width="0.5" stroke="black" fill="grey"/>
  <circle cx="927.268" cy="491.228" r="5.05527" stroke-width="0.5" stroke="grey" fill="grey"/>
   </g>
   <g id="cell40">
  <circle cx="302.505" cy="716.934" r="8.37537" stroke-width="0.5" stroke="black" fill="grey"/>
  <circle cx="302.505" cy="716.934" r="5.03798" stroke-width="0.5" stroke="grey" fill="grey"/>
   </g>
   <g id="cell41">
  <circle cx="1419.53" cy="1285.88" r="10.4689" stroke-width="0.5" stroke="black" fill="grey"/>
  <circle cx="1419.53" cy="1285.88" r="6.31053" stroke-width="0.5" stroke="grey" fill="grey"/>
   </g>
   <g id="cell42">
  <circle cx="281.79" cy="1543.77" r="8.43616" stroke-width="0.5" stroke="black" fill="grey"/>
  <circle cx="281.79" cy="1543.77" r="5.07617" stroke-width="0.5" stroke="grey" fill="grey"/>
   </g>
   <g id="cell43">
  <circle cx="1880.36" cy="738.3" r="9.3986" stroke-width="0.5" stroke="black" fill="grey"/>
  <circle cx="1880.36" cy="738.3" r="5.71581" stroke-width="0.5" stroke="grey" fill="grey"/>
   </g>
   <g id="cell44">
  <circle cx="1653.71" cy="23.0997" r="9.39759" stroke-width="0.5" stroke="black" fill="grey"/>
  <circle cx="1653.71" cy="23.0997" r="5.71543" stroke-width="0.5" stroke="grey" fill="grey"/>
   </g>
   <g id="cell45">
  <circle cx="1223.06" cy="1652.9" r="8.90718" stroke-width="0.5" stroke="black" fill="grey"/>
  <circle cx="1223.06" cy="1652.9" r="5.40838" stroke-width="0.5" stroke="grey" fill="grey"/>
   </g>
   <g id="cell46">
  <circle cx="164.837" cy="1962.84" r="8.38957" stroke-width="0.5" stroke="black" fill="grey"/>
  <circle cx="164.837" cy="1962.84" r="5.04365" stroke-width="0.5" stroke="grey" fill="grey"/>
   </g>
   <g id="cell47">
  <circle cx="1729.52" cy="935.256" r="10.3991" stroke-width="0.5" stroke="black" fill="grey"/>
  <circle cx="1729.52" cy="935.256" r="6.27703" stroke-width="0.5" stroke="grey" fill="grey"/>
   </g>
   <g id="cell48">
  <circle cx="1931.97" cy="99.7382" r="8.38957" stroke-width="0.5" stroke="black" fill="grey"/>
  <circle cx="1931.97" cy="99.7382" r="5.04365" stroke-width="0.5" stroke="grey" fill="grey"/>
   </g>
   <g id="cell49">
  <circle cx="909.295" cy="1434.8" r="10.3873" stroke-width="0.5" stroke="black" fill="grey"/>
  <circle cx="909.295" cy="1434.8" r="6.2712" stroke-width="0.5" stroke="grey" fill="grey"/>
   </g>
   <g id="cell50">
  <circle cx="77.3945" cy="908.62" r="8.37321" stroke-width="0.5" stroke="black" fill="red"/>
  <circle cx="77.3945" cy="908.62" r="5.03708" stroke-width="0.5" stroke="red" fill="red"/>
   </g>
   <g id="cell51">
  <circle cx="1962.85" cy="248.401" r="8.37742" stroke-width="0.5" stroke="black" fill="red"/>
  <circle cx="1962.85" cy="248.401" r="5.03881" stroke-width="0.5" stroke="red" fill="red"/>
   </g>
   <g id="cell52">
  <circle cx="629.453" cy="964.632" r="8.4147" stroke-width="0.5" stroke="black" fill="red"/>
  <circle cx="629.453" cy="964.632" r="5.06757" stroke-width="0.5" stroke="red" fill="red"/>
   </g>
   <g id="cell53">
  <circle cx="1350.68" cy="647.493" r="10.5352" stroke-width="0.5" stroke="black" fill="red"/>
  <circle cx="1350.68" cy="647.493" r="6.34027" stroke-width="0.5" stroke="red" fill="red"/>
   </g>
   <g id="cell54">
  <circle cx="865.216" cy="1868.71" r="8.49395" stroke-width="0.5" stroke="black" fill="red"/>
  <circle cx="865.216" cy="1868.71" r="5.11917" stroke-width="0.5" stroke="red" fill="red"/>
   </g>
   <g id="cell55">
  <circle cx="424.715" cy="1433.51" r="10.1098" stroke-width="0.5" stroke="black" fill="red"/>
  <circle cx="424.715" cy="1433.51" r="6.12585" stroke-width="0.5" stroke="red" fill="red"/>
   </g>
   <g id="cell56">
  <circle cx="1164.81" cy="1702.84" r="10.5211" stroke-width="0.5" stroke="black" fill="red"/>
  <circle cx="1164.81" cy="1702.84" r="6.33419" stroke-width="0.5" stroke="red" fill="red"/>
   </g>
   <g id="cell57">
  <circle cx="1005.19" cy="1087.09" r="8.36722" stroke-width="0.5" stroke="black" fill="red"/>
  <circle cx="1005.19" cy="1087.09" r="5.03458" stroke-width="0.5" stroke="red" fill="red"/>
   </g>
   <g id="cell58">
  <circle cx="198.831" cy="1844.07" r="8.41461" stroke-width="0.5" stroke="black" fill="red"/>
  <circle cx="198.831" cy="1844.07" r="5.05951" stroke-width="0.5" stroke="red" fill="red"/>
   </g>
   <g id="cell59">
  <circle cx="185.301" cy="1803.96" r="9.492" stroke-width="0.5" stroke="black" fill="red"/>
  <circle cx="185.301" cy="1803.96" r="5.77274" stroke-width="0.5" stroke="red" fill="red"/>
   </g>
   <g id="cell60">
  <circle cx="636.389" cy="50.7386" r="9.11085" stroke-width="0.5" stroke="black" fill="red"/>
  <circle cx="636.389" cy="50.7386" r="5.53784" stroke-width="0.5" stroke="red" fill="red"/>
   </g>
   <g id="cell61">
  <circle cx="1689.87" cy="219.38" r="8.41271" stroke-width="0.5" stroke="black" fill="red"/>
  <circle cx="1689.87" cy="219.38" r="5.05167" stroke-width="0.5" stroke="red" fill="red"/>
   </g>
   <g id="cell62">
  <circle cx="1429.57" cy="1681.24" r="8.39987" stroke-width="0.5" stroke="black" fill="red"/>
  <circle cx="1429.57" cy="1681.24" r="5.04751" stroke-width="0.5" stroke="red" fill="red"/>
   </g>
   <g id="cell63">
  <circle cx="468.518" cy="375.467" r="8.91234" stroke-width="0.5" stroke="black" fill="red"/>
  <circle cx="468.518" cy="375.467" r="5.41043" stroke-width="0.5" stroke="red" fill="red"/>
   </g>
   <g id="cell64">
  <circle cx="1195.17" cy="1104.23" r="9.55571" stroke-width="0.5" stroke="black" fill="red"/>
  <circle cx="1195.17" cy="1104.23" r="5.81007" stroke-width="0.5" stroke="red" fill="red"/>
   </g>
   <g id="cell65">
  <circle cx="355.676" cy="1659.39" r="10.1996" stroke-width="0.5" stroke="black" fill="red"/>
  <circle cx="355.676" cy="1659.39" r="6.17434" stroke-width="0.5" stroke="red" fill="red"/>
   </g>
   <g id="cell66">
  <circle cx="27.5763" cy="320.381" r="8.39664" stroke-width="0.5" stroke="black" fill="red"/>
  <circle cx="27.5763" cy="320.381" r="5.04633" stroke-width="0.5" stroke="red" fill="red"/>
   </g>
   <g id="cell67">
  <circle cx="1198.38" cy="536.615" r="8.38454" stroke-width="0.5" stroke="black" fill="red"/>
  <circle cx="1198.38" cy="536.615" r="5.04168" stroke-width="0.5" stroke="red" fill="red"/>
   </g>
   <g id="cell68">
  <circle cx="1427.83" cy="586.418" r="8.39021" stroke-width="0.5" stroke="black" fill="red"/>
  <circle cx="1427.83" cy="586.418" r="5.0439" stroke-width="0.5" stroke="red" fill="red"/>
   </g>
   <g id="cell69">
  <circle cx="911.886" cy="494.943" r="9.63716" stroke-width="0.5" stroke="black" fill="red"/>
  <circle cx="911.886" cy="494.943" r="5.85903" stroke-width="0.5" stroke="red" fill="red"/>
   </g>
   <g id="cell70">
  <circle cx="1172.03" cy="751.175" r="8.39874" stroke-width="0.5" stroke="black" fill="red"/>
  <circle cx="1172.03" cy="751.175" r="5.04711" stroke-width="0.5" stroke="red" fill="red"/>
   </g>
   <g id="cell71">
  <circle cx="1788.08" cy="1136.31" r="8.39913" stroke-width="0.5" stroke="black" fill="red"/>
  <circle cx="1788.08" cy="1136.31" r="5.04725" stroke-width="0.5" stroke="red" fill="red"/>
   </g>
   <g id="cell72">
  <circle cx="479.166" cy="1743.94" r="8.48992" stroke-width="0.5" stroke="black" fill="red"/>
  <circle cx="479.166" cy="1743.94" r="5.11762" stroke-width="0.5" stroke="red" fill="red"/>
   </g>
   <g id="cell73">
  <circle cx="1387.08" cy="860.916" r="8.39664" stroke-width="0.5" stroke="black" fill="red"/>
  <circle cx="1387.08" cy="860.916" r="5.04633" stroke-width="0.5" stroke="red" fill="red"/>
   </g>
   <g id="cell74">
  <circle cx="1675.3" cy="1984.9" r="8.37935" stroke-width="0.5" stroke="black" fill="red"/>
  <circle cx="1675.3" cy="1984.9" r="5.0396" stroke-width="0.5" stroke="red" fill="red"/>
   </g>
   <g id="cell75">
  <circle cx="233.96" cy="649.026" r="8.3926" stroke-width="0.5" stroke="black" fill="red"/>
  <circle cx="233.96" cy="649.026" r="5.04482" stroke-width="0.5" stroke="red" fill="red"/>
   </g>
   <g id="cell76">
  <circle cx="1655.43" cy="778.642" r="10.5314" stroke-width="0.5" stroke="black" fill="red"/>
  <circle cx="1655.43" cy="778.642" r="6.33867" stroke-width="0.5" stroke="red" fill="red"/>
   </g>
   <g id="cell77">
  <circle cx="1345.4" cy="1801.8" r="10.5254" stroke-width="0.5" stroke="black" fill="red"/>
  <circle cx="1345.4" cy="1801.8" r="6.33607" stroke-width="0.5" stroke="red" fill="red"/>
   </g>
   <g id="cell78">
  <circle cx="1105.11" cy="637.792" r="8.3926" stroke-width="0.5" stroke="black" fill="red"/>
  <circle cx="1105.11" cy="637.792" r="5.04482" stroke-width="0.5" stroke="red" fill="red"/>
   </g>
   <g id="cell79">
  <circle cx="1905.33" cy="1326.64" r="9.29888" stroke-width="0.5" stroke="black" fill="red"/>
  <circle cx="1905.33" cy="1326.64" r="5.65421" stroke-width="0.5" stroke="red" fill="red"/>
   </g>
   <g id="cell80">
  <circle cx="1449.9" cy="1364.44" r="8.39473" stroke-width="0.5" stroke="black" fill="red"/>
  <circle cx="1449.9" cy="1364.44" r="5.04562" stroke-width="0.5" stroke="red" fill="red"/>
   </g>
   <g id="cell81">
  <circle cx="1074.38" cy="1929.02" r="10.4862" stroke-width="0.5" stroke="black" fill="red"/>
  <circle cx="1074.38" cy="1929.02" r="6.31853" stroke-width="0.5" stroke="red" fill="red"/>
   </g>
   <g id="cell82">
  <circle cx="1187.2" cy="753.077" r="8.49638" stroke-width="0.5" stroke="black" fill="red"/>
  <circle cx="1187.2" cy="753.077" r="5.12009" stroke-width="0.5" stroke="red" fill="red"/>
   </g>
   <g id="cell83">
  <circle cx="1231.18" cy="1227.64" r="10.3991" stroke-width="0.5" stroke="black" fill="red"/>
  <circle cx="1231.18" cy="1227.64" r="6.27703" stroke-width="0.5" stroke="red" fill="red"/>
   </g>
   <g id="cell84">
  <circle cx="51.6346" cy="947.425" r="8.3784" stroke-width="0.5" stroke="black" fill="red"/>
  <circle cx="51.6346" cy="947.425" r="5.03921" stroke-width="0.5" stroke="red" fill="red"/>
   </g>
   <g id="cell85">
  <circle cx="1426.26" cy="1302.65" r="8.56752" stroke-width="0.5" stroke="black" fill="red"/>
  <circle cx="1426.26" cy="1302.65" r="5.171" stroke-width="0.5" stroke="red" fill="red"/>
   </g>
   <g id="cell86">
  <circle cx="532.1" cy="727.39" r="9.10577" stroke-width="0.5" stroke="black" fill="red"/>
  <circle cx="532.1" cy="727.39" r="5.53584" stroke-width="0.5" stroke="red" fill="red"/>
   </g>
   <g id="cell87">
  <circle cx="1492.13" cy="894.884" r="8.39987" stroke-width="0.5" stroke="black" fill="red"/>
  <circle cx="1492.13" cy="894.884" r="5.04751" stroke-width="0.5" stroke="red" fill="red"/>
   </g>
   <g id="cell88">
  <circle cx="290.355" cy="229.317" r="10.5387" stroke-width="0.5" stroke="black" fill="red"/>
  <circle cx="290.355" cy="229.317" r="6.34177" stroke-width="0.5" stroke="red" fill="red"/>
   </g>
   <g id="cell89">
  <circle cx="205.434" cy="1147.86" r="8.40056" stroke-width="0.5" stroke="black" fill="red"/>
  <circle cx="205.434" cy="1147.86" r="5.04776" stroke-width="0.5" stroke="red" fill="red"/>
   </g>
   <g id="cell90">
  <circle cx="1123.61" cy="1136" r="10.2221" stroke-width="0.5" stroke="black" fill="red"/>
  <circle cx="1123.61" cy="1136" r="6.18628" stroke-width="0.5" stroke="red" fill="red"/>
   </g>
   <g id="cell91">
  <circle cx="21.6217" cy="1316.23" r="8.39021" stroke-width="0.5" stroke="black" fill="red"/>
  <circle cx="21.6217" cy="1316.23" r="5.0439" stroke-width="0.5" stroke="red" fill="red"/>
   </g>
   <g id="cell92">
  <circle cx="1257.87" cy="695.316" r="10.4613" stroke-width="0.5" stroke="black" fill="red"/>
  <circle cx="1257.87" cy="695.316" r="6.30695" stroke-width="0.5" stroke="red" fill="red"/>
   </g>
   <g id="cell93">
  <circle cx="457.714" cy="1794.8" r="8.47159" stroke-width="0.5" stroke="black" fill="red"/>
  <circle cx="457.714" cy="1794.8" r="5.09954" stroke-width="0.5" stroke="red" fill="red"/>
   </g>
   <g id="cell94">
  <circle cx="730.326" cy="200.523" r="9.07058" stroke-width="0.5" stroke="black" fill="red"/>
  <circle cx="730.326" cy="200.523" r="5.5127" stroke-width="0.5" stroke="red" fill="red"/>
   </g>
   <g id="cell95">
  <circle cx="1950.64" cy="1808.72" r="8.37935" stroke-width="0.5" stroke="black" fill="red"/>
  <circle cx="1950.64" cy="1808.72" r="5.0396" stroke-width="0.5" stroke="red" fill="red"/>
   </g>
   <g id="cell96">
  <circle cx="1613.43" cy="1025.67" r="1.84136" stroke-width="0.5" stroke="black" fill="red"/>
  <circle cx="1613.43" cy="1025.67" r="1.81994" stroke-width="0.5" stroke="black" fill="black"/>
   </g>
   <g id="cell97">
  <circle cx="934.267" cy="254.117" r="8.38532" stroke-width="0.5" stroke="black" fill="red"/>
  <circle cx="934.267" cy="254.117" r="5.04199" stroke-width="0.5" stroke="red" fill="red"/>
   </g>
   <g id="cell98">
  <circle cx="1777.52" cy="687.588" r="8.56175" stroke-width="0.5" stroke="black" fill="red"/>
  <circle cx="1777.52" cy="687.588" r="5.16886" stroke-width="0.5" stroke="red" fill="red"/>
   </g>
   <g id="cell99">
  <circle cx="925.438" cy="1969.73" r="8.38454" stroke-width="0.5" stroke="black" fill="red"/>
  <circle cx="925.438" cy="1969.73" r="5.04168" stroke-width="0.5" stroke="red" fill="red"/>
   </g>
   <g id="cell101">
  <circle cx="1415.07" cy="1348.67" r="8.47159" stroke-width="0.5" stroke="black" fill="red"/>
  <circle cx="1415.07" cy="1348.67" r="5.09954" stroke-width="0.5" stroke="red" fill="red"/>
   </g>
   <g id="cell102">
  <circle cx="477.784" cy="1811.84" r="8.40123" stroke-width="0.5" stroke="black" fill="red"/>
  <circle cx="477.784" cy="1811.84" r="5.048" stroke-width="0.5" stroke="red" fill="red"/>
   </g>
   <g id="cell103">
  <circle cx="1901.47" cy="1358.04" r="2.47002" stroke-width="0.5" stroke="black" fill="red"/>
  <circle cx="1901.47" cy="1358.04" r="2.20033" stroke-width="0.5" stroke="black" fill="black"/>
   </g>
   <g id="cell104">
  <circle cx="790.924" cy="1654.98" r="8.4009" stroke-width="0.5" stroke="black" fill="grey"/>
  <circle cx="790.924" cy="1654.98" r="5.04788" stroke-width="0.5" stroke="grey" fill="grey"/>
   </g>
   <g id="cell105">
  <circle cx="250.042" cy="1149.22" r="8.91752" stroke-width="0.5" stroke="black" fill="red"/>
  <circle cx="250.042" cy="1149.22" r="5.41241" stroke-width="0.5" stroke="red" fill="red"/>
   </g>
   <g id="cell106">
  <circle cx="1159.51" cy="1151.7" r="8.8369" stroke-width="0.5" stroke="black" fill="red"/>
  <circle cx="1159.51" cy="1151.7" r="5.35904" stroke-width="0.5" stroke="red" fill="red"/>
   </g>
   <g id="cell107">
  <circle cx="1159.51" cy="238.747" r="9.55571" stroke-width="0.5" stroke="black" fill="grey"/>
  <circle cx="1159.51" cy="238.747" r="5.81007" stroke-width="0.5" stroke="grey" fill="grey"/>
   </g>
   <g id="cell108">
  <circle cx="1394.65" cy="1684.36" r="8.75598" stroke-width="0.5" stroke="black" fill="red"/>
  <circle cx="1394.65" cy="1684.36" r="5.30455" stroke-width="0.5" stroke="red" fill="red"/>
   </g>
   <g id="cell109">
  <circle cx="1483.33" cy="920.27" r="8.39987" stroke-width="0.5" stroke="black" fill="red"/>
  <circle cx="1483.33" cy="920.27" r="5.04751" stroke-width="0.5" stroke="red" fill="red"/>
   </g>
   <g id="cell110">
  <circle cx="1774.47" cy="1098.99" r="8.39913" stroke-width="0.5" stroke="black" fill="red"/>
  <circle cx="1774.47" cy="1098.99" r="5.04725" stroke-width="0.5" stroke="red" fill="red"/>
   </g>
   <g id="cell111">
  <circle cx="1140.5" cy="794.226" r="8.39874" stroke-width="0.5" stroke="black" fill="red"/>
  <circle cx="1140.5" cy="794.226" r="5.04711" stroke-width="0.5" stroke="red" fill="red"/>
   </g>
   <g id="cell112">
  <circle cx="602.083" cy="1245.73" r="9.554" stroke-width="0.5" stroke="black" fill="grey"/>
  <circle cx="602.083" cy="1245.73" r="5.80942" stroke-width="0.5" stroke="grey" fill="grey"/>
   </g>
   <g id="cell113">
  <circle cx="1878.52" cy="758.087" r="9.74123" stroke-width="0.5" stroke="black" fill="grey"/>
  <circle cx="1878.52" cy="758.087" r="5.91975" stroke-width="0.5" stroke="grey" fill="grey"/>
   </g>
   <g id="cell114">
  <circle cx="943.168" cy="609.25" r="8.39752" stroke-width="0.5" stroke="black" fill="grey"/>
  <circle cx="943.168" cy="609.25" r="5.04666" stroke-width="0.5" stroke="grey" fill="grey"/>
   </g>
   <g id="cell115">
  <circle cx="1491.87" cy="835.632" r="8.39708" stroke-width="0.5" stroke="black" fill="grey"/>
  <circle cx="1491.87" cy="835.632" r="5.0465" stroke-width="0.5" stroke="grey" fill="grey"/>
   </g>
   <g id="cell116">
  <circle cx="1646.1" cy="37.2876" r="9.11161" stroke-width="0.5" stroke="black" fill="grey"/>
  <circle cx="1646.1" cy="37.2876" r="5.53814" stroke-width="0.5" stroke="grey" fill="grey"/>
   </g>
   <g id="cell117">
  <circle cx="1354.33" cy="371.323" r="8.39708" stroke-width="0.5" stroke="black" fill="grey"/>
  <circle cx="1354.33" cy="371.323" r="5.0465" stroke-width="0.5" stroke="grey" fill="grey"/>
   </g>
   <g id="cell118">
  <circle cx="39.7128" cy="293.982" r="9.29514" stroke-width="0.5" stroke="black" fill="red"/>
  <circle cx="39.7128" cy="293.982" r="5.65278" stroke-width="0.5" stroke="red" fill="red"/>
   </g>
   <g id="cell119">
  <circle cx="868.558" cy="483.321" r="8.39664" stroke-width="0.5" stroke="black" fill="red"/>
  <circle cx="868.558" cy="483.321" r="5.04633" stroke-width="0.5" stroke="red" fill="red"/>
   </g>
   <g id="cell120">
  <circle cx="1386.37" cy="886.326" r="8.41651" stroke-width="0.5" stroke="black" fill="red"/>
  <circle cx="1386.37" cy="886.326" r="5.06022" stroke-width="0.5" stroke="red" fill="red"/>
   </g>
   <g id="cell121">
  <circle cx="1179.85" cy="778.778" r="9.49237" stroke-width="0.5" stroke="black" fill="red"/>
  <circle cx="1179.85" cy="778.778" r="5.77288" stroke-width="0.5" stroke="red" fill="red"/>
   </g>
   <g id="cell122">
  <circle cx="632.854" cy="13.5817" r="8.67388" stroke-width="0.5" stroke="black" fill="red"/>
  <circle cx="632.854" cy="13.5817" r="5.24882" stroke-width="0.5" stroke="red" fill="red"/>
   </g>
   <g id="cell123">
  <circle cx="709.634" cy="1246.34" r="9.55233" stroke-width="0.5" stroke="black" fill="grey"/>
  <circle cx="709.634" cy="1246.34" r="5.80878" stroke-width="0.5" stroke="grey" fill="grey"/>
   </g>
   <g id="cell124">
  <circle cx="191.561" cy="1822.38" r="8.39571" stroke-width="0.5" stroke="black" fill="red"/>
  <circle cx="191.561" cy="1822.38" r="5.04599" stroke-width="0.5" stroke="red" fill="red"/>
   </g>
   <g id="cell125">
  <circle cx="1787.13" cy="669.532" r="8.39523" stroke-width="0.5" stroke="black" fill="red"/>
  <circle cx="1787.13" cy="669.532" r="5.04581" stroke-width="0.5" stroke="red" fill="red"/>
   </g>
   <g id="cell126">
  <circle cx="472.659" cy="400.691" r="8.39473" stroke-width="0.5" stroke="black" fill="red"/>
  <circle cx="472.659" cy="400.691" r="5.04562" stroke-width="0.5" stroke="red" fill="red"/>
   </g>
   <g id="cell127">
  <circle cx="214.888" cy="1806.81" r="8.39473" stroke-width="0.5" stroke="black" fill="red"/>
  <circle cx="214.888" cy="1806.81" r="5.04562" stroke-width="0.5" stroke="red" fill="red"/>
   </g>
   <g id="cell128">
  <circle cx="1473.06" cy="1326.45" r="8.67252" stroke-width="0.5" stroke="black" fill="red"/>
  <circle cx="1473.06" cy="1326.45" r="5.24829" stroke-width="0.5" stroke="red" fill="red"/>
   </g>
   <g id="cell129">
  <circle cx="744.04" cy="183.89" r="8.39422" stroke-width="0.5" stroke="black" fill="red"/>
  <circle cx="744.04" cy="183.89" r="5.04543" stroke-width="0.5" stroke="red" fill="red"/>
   </g>
   <g id="cell130">
  <circle cx="497.087" cy="850.903" r="8.39422" stroke-width="0.5" stroke="black" fill="grey"/>
  <circle cx="497.087" cy="850.903" r="5.04543" stroke-width="0.5" stroke="grey" fill="grey"/>
   </g>
   <g id="cell131">
  <circle cx="839.057" cy="1856.07" r="8.3937" stroke-width="0.5" stroke="black" fill="red"/>
  <circle cx="839.057" cy="1856.07" r="5.04523" stroke-width="0.5" stroke="red" fill="red"/>
   </g>
   <g id="cell132">
  <circle cx="221.828" cy="691.377" r="8.3926" stroke-width="0.5" stroke="black" fill="red"/>
  <circle cx="221.828" cy="691.377" r="5.04482" stroke-width="0.5" stroke="red" fill="red"/>
   </g>
   <g id="cell133">
  <circle cx="1134.38" cy="640.742" r="8.3926" stroke-width="0.5" stroke="black" fill="red"/>
  <circle cx="1134.38" cy="640.742" r="5.04482" stroke-width="0.5" stroke="red" fill="red"/>
   </g>
   <g id="cell134">
  <circle cx="1735.61" cy="1924.04" r="8.3926" stroke-width="0.5" stroke="black" fill="grey"/>
  <circle cx="1735.61" cy="1924.04" r="5.04482" stroke-width="0.5" stroke="grey" fill="grey"/>
   </g>
   <g id="cell135">
  <circle cx="261.488" cy="1553.64" r="8.3926" stroke-width="0.5" stroke="black" fill="grey"/>
  <circle cx="261.488" cy="1553.64" r="5.04482" stroke-width="0.5" stroke="grey" fill="grey"/>
   </g>
   <g id="cell136">
  <circle cx="1330.92" cy="924.317" r="8.39144" stroke-width="0.5" stroke="black" fill="grey"/>
  <circle cx="1330.92" cy="924.317" r="5.04437" stroke-width="0.5" stroke="grey" fill="grey"/>
   </g>
   <g id="cell137">
  <circle cx="1120.7" cy="297.006" r="8.46197" stroke-width="0.5" stroke="black" fill="grey"/>
  <circle cx="1120.7" cy="297.006" r="5.09597" stroke-width="0.5" stroke="grey" fill="grey"/>
   </g>
   <g id="cell138">
  <circle cx="1471.92" cy="568.61" r="8.39021" stroke-width="0.5" stroke="black" fill="red"/>
  <circle cx="1471.92" cy="568.61" r="5.0439" stroke-width="0.5" stroke="red" fill="red"/>
   </g>
   <g id="cell139">
  <circle cx="560.797" cy="782.752" r="8.82754" stroke-width="0.5" stroke="black" fill="red"/>
  <circle cx="560.797" cy="782.752" r="5.35542" stroke-width="0.5" stroke="red" fill="red"/>
   </g>
   <g id="cell140">
  <circle cx="698.764" cy="293.213" r="8.39021" stroke-width="0.5" stroke="black" fill="grey"/>
  <circle cx="698.764" cy="293.213" r="5.0439" stroke-width="0.5" stroke="grey" fill="grey"/>
   </g>
   <g id="cell141">
  <circle cx="72.0819" cy="1314.57" r="8.39021" stroke-width="0.5" stroke="black" fill="red"/>
  <circle cx="72.0819" cy="1314.57" r="5.0439" stroke-width="0.5" stroke="red" fill="red"/>
   </g>
   <g id="cell142">
  <circle cx="459.347" cy="1763.31" r="8.38957" stroke-width="0.5" stroke="black" fill="red"/>
  <circle cx="459.347" cy="1763.31" r="5.04365" stroke-width="0.5" stroke="red" fill="red"/>
   </g>
   <g id="cell143">
  <circle cx="1423.16" cy="130.359" r="8.38957" stroke-width="0.5" stroke="black" fill="grey"/>
  <circle cx="1423.16" cy="130.359" r="5.04365" stroke-width="0.5" stroke="grey" fill="grey"/>
   </g>
   <g id="cell144">
  <circle cx="1901.03" cy="102.561" r="8.38957" stroke-width="0.5" stroke="black" fill="grey"/>
  <circle cx="1901.03" cy="102.561" r="5.04365" stroke-width="0.5" stroke="grey" fill="grey"/>
   </g>
   <g id="cell145">
  <circle cx="233.663" cy="1273.43" r="8.38957" stroke-width="0.5" stroke="black" fill="grey"/>
  <circle cx="233.663" cy="1273.43" r="5.04365" stroke-width="0.5" stroke="grey" fill="grey"/>
   </g>
   <g id="cell146">
  <circle cx="190.563" cy="1947.46" r="8.38957" stroke-width="0.5" stroke="black" fill="grey"/>
  <circle cx="190.563" cy="1947.46" r="5.04365" stroke-width="0.5" stroke="grey" fill="grey"/>
   </g>
   <g id="cell147">
  <circle cx="1246.96" cy="1629.02" r="9.18026" stroke-width="0.5" stroke="black" fill="grey"/>
  <circle cx="1246.96" cy="1629.02" r="5.58291" stroke-width="0.5" stroke="grey" fill="grey"/>
   </g>
   <g id="cell148">
  <circle cx="1248.11" cy="1264.66" r="8.74527" stroke-width="0.5" stroke="black" fill="grey"/>
  <circle cx="1248.11" cy="1264.66" r="5.30039" stroke-width="0.5" stroke="grey" fill="grey"/>
   </g>
   <g id="cell149">
  <circle cx="1904.65" cy="1578.48" r="8.38823" stroke-width="0.5" stroke="black" fill="grey"/>
  <circle cx="1904.65" cy="1578.48" r="5.04313" stroke-width="0.5" stroke="grey" fill="grey"/>
   </g>
   <g id="cell150">
  <circle cx="921.694" cy="266.974" r="8.86359" stroke-width="0.5" stroke="black" fill="red"/>
  <circle cx="921.694" cy="266.974" r="5.3805" stroke-width="0.5" stroke="red" fill="red"/>
   </g>
   <g id="cell151">
  <circle cx="1084.91" cy="1692.19" r="8.38454" stroke-width="0.5" stroke="black" fill="grey"/>
  <circle cx="1084.91" cy="1692.19" r="5.04168" stroke-width="0.5" stroke="grey" fill="grey"/>
   </g>
   <g id="cell152">
  <circle cx="641.144" cy="1142.29" r="8.38454" stroke-width="0.5" stroke="black" fill="grey"/>
  <circle cx="641.144" cy="1142.29" r="5.04168" stroke-width="0.5" stroke="grey" fill="grey"/>
   </g>
   <g id="cell153">
  <circle cx="938.791" cy="1955.91" r="8.38454" stroke-width="0.5" stroke="black" fill="red"/>
  <circle cx="938.791" cy="1955.91" r="5.04168" stroke-width="0.5" stroke="red" fill="red"/>
   </g>
   <g id="cell154">
  <circle cx="1187.56" cy="549.986" r="8.38454" stroke-width="0.5" stroke="black" fill="red"/>
  <circle cx="1187.56" cy="549.986" r="5.04168" stroke-width="0.5" stroke="red" fill="red"/>
   </g>
   <g id="cell155">
  <circle cx="922.348" cy="514.067" r="8.40366" stroke-width="0.5" stroke="black" fill="grey"/>
  <circle cx="922.348" cy="514.067" r="5.05527" stroke-width="0.5" stroke="grey" fill="grey"/>
   </g>
   <g id="cell156">
  <circle cx="1710.38" cy="1279.51" r="8.38291" stroke-width="0.5" stroke="black" fill="grey"/>
  <circle cx="1710.38" cy="1279.51" r="5.04103" stroke-width="0.5" stroke="grey" fill="grey"/>
   </g>
   <g id="cell157">
  <circle cx="1914.79" cy="1810.63" r="8.58244" stroke-width="0.5" stroke="black" fill="red"/>
  <circle cx="1914.79" cy="1810.63" r="5.18887" stroke-width="0.5" stroke="red" fill="red"/>
   </g>
   <g id="cell158">
  <circle cx="1670.02" cy="1958.48" r="8.37935" stroke-width="0.5" stroke="black" fill="red"/>
  <circle cx="1670.02" cy="1958.48" r="5.0396" stroke-width="0.5" stroke="red" fill="red"/>
   </g>
   <g id="cell159">
  <circle cx="65.3557" cy="946.162" r="8.58153" stroke-width="0.5" stroke="black" fill="red"/>
  <circle cx="65.3557" cy="946.162" r="5.18849" stroke-width="0.5" stroke="red" fill="red"/>
   </g>
   <g id="cell160">
  <circle cx="1971.59" cy="227.892" r="8.37742" stroke-width="0.5" stroke="black" fill="red"/>
  <circle cx="1971.59" cy="227.892" r="5.03881" stroke-width="0.5" stroke="red" fill="red"/>
   </g>
   <g id="cell161">
  <circle cx="1531.28" cy="279.261" r="8.37742" stroke-width="0.5" stroke="black" fill="grey"/>
  <circle cx="1531.28" cy="279.261" r="5.03881" stroke-width="0.5" stroke="grey" fill="grey"/>
   </g>
   <g id="cell162">
  <circle cx="284.458" cy="716.634" r="8.37537" stroke-width="0.5" stroke="black" fill="grey"/>
  <circle cx="284.458" cy="716.634" r="5.03798" stroke-width="0.5" stroke="grey" fill="grey"/>
   </g>
   <g id="cell163">
  <circle cx="1604.12" cy="1573.42" r="8.37431" stroke-width="0.5" stroke="black" fill="grey"/>
  <circle cx="1604.12" cy="1573.42" r="5.03754" stroke-width="0.5" stroke="grey" fill="grey"/>
   </g>
   <g id="cell164">
  <circle cx="854.808" cy="942.957" r="8.37321" stroke-width="0.5" stroke="black" fill="grey"/>
  <circle cx="854.808" cy="942.957" r="5.03708" stroke-width="0.5" stroke="grey" fill="grey"/>
   </g>
   <g id="cell165">
  <circle cx="74.8929" cy="890.916" r="8.37321" stroke-width="0.5" stroke="black" fill="red"/>
  <circle cx="74.8929" cy="890.916" r="5.03708" stroke-width="0.5" stroke="red" fill="red"/>
   </g>
   <g id="cell167">
  <circle cx="1011.45" cy="1568.83" r="8.36849" stroke-width="0.5" stroke="black" fill="grey"/>
  <circle cx="1011.45" cy="1568.83" r="5.03512" stroke-width="0.5" stroke="grey" fill="grey"/>
   </g>
   <g id="cell168">
  <circle cx="1001.02" cy="1072.97" r="8.36722" stroke-width="0.5" stroke="black" fill="red"/>
  <circle cx="1001.02" cy="1072.97" r="5.03458" stroke-width="0.5" stroke="red" fill="red"/>
   </g>
  </g>
 </g>
  <rect x="1750" y="2070" width="200" height="20" stroke-width="4" stroke="rgb(255,255,255)" fill="rgb(0,0,0)"/>
  <text x="1762.5" y="2057.5"
   font-family="Arial" font-size="50" fill="black" >
   200 &#956;m
  </text>
  <text x="50" y="2090"
   font-family="Arial" font-size="37.5" fill="black" >
   0 days, 0 hours, 0 minutes, and 27.2243 seconds
  </text>
  <rect x="0" y="140" width="2000" height="2000" stroke-width="4" stroke="rgb(0,0,0)" fill="none"/>
</svg>
