<?xml version="1.0" encoding="UTF-8" standalone="no"?>
<!-- Created with PhysiCell (http://PhysiCell.MathCancer.org/) -->
<svg 
 xmlns:dc="http://purl.org/dc/elements/1.1/" 
 xmlns:cc="http://creativecommons.org/ns#" 
 xmlns:rdf="http://www.w3.org/1999/02/22-rdf-syntax-ns#" 
 xmlns:svg="http://www.w3.org/2000/svg" 
 xmlns="http://www.w3.org/2000/svg" 
 version="1.1" 
 width="2000" 
 height="2140" 
 id="svg2">
  <rect x="0" y="0" width="2000" height="2140" stroke-width="4" stroke="white" fill="white"/>
  <text x="25" y="60"
   font-family="Arial" font-size="50" fill="black" >
   Current time: 3 days, 14 hours, and 0.00 minutes, z = 0.00 &#956;m
  </text>
  <text x="25" y="115"
   font-family="Arial" font-size="47.5" fill="black" >
   165 agents
  </text>
 <g id="tissue" 
    transform="translate(0,2140) scale(1,-1)">
  <g id="ECM">
  </g>
  <g id="cells">
   <g id="cell0">
  <circle cx="1074.08" cy="1179.48" r="9.26338" stroke-width="0.5" stroke="black" fill="grey"/>
  <circle cx="1074.08" cy="1179.48" r="5.6323" stroke-width="0.5" stroke="grey" fill="grey"/>
   </g>
   <g id="cell1">
  <circle cx="1685.23" cy="1251.06" r="10.4387" stroke-width="0.5" stroke="black" fill="grey"/>
  <circle cx="1685.23" cy="1251.06" r="6.29653" stroke-width="0.5" stroke="grey" fill="grey"/>
   </g>
   <g id="cell2">
  <circle cx="1213.24" cy="1775.4" r="8.36446" stroke-width="0.5" stroke="black" fill="grey"/>
  <circle cx="1213.24" cy="1775.4" r="5.03344" stroke-width="0.5" stroke="grey" fill="grey"/>
   </g>
   <g id="cell3">
  <circle cx="1266.46" cy="1324.53" r="8.3994" stroke-width="0.5" stroke="black" fill="grey"/>
  <circle cx="1266.46" cy="1324.53" r="5.04736" stroke-width="0.5" stroke="grey" fill="grey"/>
   </g>
   <g id="cell4">
  <circle cx="790.648" cy="535.115" r="10.5165" stroke-width="0.5" stroke="black" fill="grey"/>
  <circle cx="790.648" cy="535.115" r="6.33216" stroke-width="0.5" stroke="grey" fill="grey"/>
   </g>
   <g id="cell5">
  <circle cx="64.0817" cy="1924.57" r="8.38949" stroke-width="0.5" stroke="black" fill="red"/>
  <circle cx="64.0817" cy="1924.57" r="5.04364" stroke-width="0.5" stroke="red" fill="red"/>
   </g>
   <g id="cell6">
  <circle cx="867.692" cy="920.236" r="8.37303" stroke-width="0.5" stroke="black" fill="red"/>
  <circle cx="867.692" cy="920.236" r="5.03704" stroke-width="0.5" stroke="red" fill="red"/>
   </g>
   <g id="cell19">
  <circle cx="1694.11" cy="1386.59" r="8.39599" stroke-width="0.5" stroke="black" fill="grey"/>
  <circle cx="1694.11" cy="1386.59" r="5.04612" stroke-width="0.5" stroke="grey" fill="grey"/>
   </g>
   <g id="cell18">
  <circle cx="1615.24" cy="290.526" r="9.49811" stroke-width="0.5" stroke="black" fill="red"/>
  <circle cx="1615.24" cy="290.526" r="5.77504" stroke-width="0.5" stroke="red" fill="red"/>
   </g>
   <g id="cell9">
  <circle cx="1737.87" cy="162.968" r="8.67098" stroke-width="0.5" stroke="black" fill="red"/>
  <circle cx="1737.87" cy="162.968" r="5.24771" stroke-width="0.5" stroke="red" fill="red"/>
   </g>
   <g id="cell11">
  <circle cx="1536.51" cy="1133.57" r="8.95197" stroke-width="0.5" stroke="black" fill="red"/>
  <circle cx="1536.51" cy="1133.57" r="5.43645" stroke-width="0.5" stroke="red" fill="red"/>
   </g>
   <g id="cell20">
  <circle cx="780.708" cy="1016.17" r="10.4513" stroke-width="0.5" stroke="black" fill="red"/>
  <circle cx="780.708" cy="1016.17" r="6.30262" stroke-width="0.5" stroke="red" fill="red"/>
   </g>
   <g id="cell13">
  <circle cx="850.174" cy="632.813" r="8.84438" stroke-width="0.5" stroke="black" fill="grey"/>
  <circle cx="850.174" cy="632.813" r="5.3617" stroke-width="0.5" stroke="grey" fill="grey"/>
   </g>
   <g id="cell14">
  <circle cx="1129.34" cy="1304.7" r="10.4397" stroke-width="0.5" stroke="black" fill="grey"/>
  <circle cx="1129.34" cy="1304.7" r="6.29682" stroke-width="0.5" stroke="grey" fill="grey"/>
   </g>
   <g id="cell15">
  <circle cx="1138.53" cy="1203.84" r="10.5139" stroke-width="0.5" stroke="black" fill="grey"/>
  <circle cx="1138.53" cy="1203.84" r="6.33108" stroke-width="0.5" stroke="grey" fill="grey"/>
   </g>
   <g id="cell16">
  <circle cx="1111.79" cy="1667.98" r="9.52462" stroke-width="0.5" stroke="black" fill="grey"/>
  <circle cx="1111.79" cy="1667.98" r="5.79182" stroke-width="0.5" stroke="grey" fill="grey"/>
   </g>
   <g id="cell90">
  <circle cx="837.896" cy="840.786" r="8.86127" stroke-width="0.5" stroke="black" fill="red"/>
  <circle cx="837.896" cy="840.786" r="5.37958" stroke-width="0.5" stroke="red" fill="red"/>
   </g>
   <g id="cell86">
  <circle cx="1560.15" cy="1009.9" r="8.94046" stroke-width="0.5" stroke="black" fill="red"/>
  <circle cx="1560.15" cy="1009.9" r="5.4318" stroke-width="0.5" stroke="red" fill="red"/>
   </g>
   <g id="cell22">
  <circle cx="1086.24" cy="1736.9" r="10.5181" stroke-width="0.5" stroke="black" fill="grey"/>
  <circle cx="1086.24" cy="1736.9" r="6.33301" stroke-width="0.5" stroke="grey" fill="grey"/>
   </g>
   <g id="cell23">
  <circle cx="1222.06" cy="1318.31" r="10.3464" stroke-width="0.5" stroke="black" fill="grey"/>
  <circle cx="1222.06" cy="1318.31" r="6.25099" stroke-width="0.5" stroke="grey" fill="grey"/>
   </g>
   <g id="cell24">
  <circle cx="1175.71" cy="1265.2" r="8.36587" stroke-width="0.5" stroke="black" fill="grey"/>
  <circle cx="1175.71" cy="1265.2" r="5.03402" stroke-width="0.5" stroke="grey" fill="grey"/>
   </g>
   <g id="cell25">
  <circle cx="1172.71" cy="743.09" r="8.3966" stroke-width="0.5" stroke="black" fill="red"/>
  <circle cx="1172.71" cy="743.09" r="5.04633" stroke-width="0.5" stroke="red" fill="red"/>
   </g>
   <g id="cell26">
  <circle cx="1723.72" cy="1212.92" r="8.39016" stroke-width="0.5" stroke="black" fill="grey"/>
  <circle cx="1723.72" cy="1212.92" r="5.04389" stroke-width="0.5" stroke="grey" fill="grey"/>
   </g>
   <g id="cell27">
  <circle cx="916.736" cy="558.895" r="10.1731" stroke-width="0.5" stroke="black" fill="grey"/>
  <circle cx="916.736" cy="558.895" r="6.16079" stroke-width="0.5" stroke="grey" fill="grey"/>
   </g>
   <g id="cell28">
  <circle cx="59.5914" cy="1989.22" r="8.38167" stroke-width="0.5" stroke="black" fill="red"/>
  <circle cx="59.5914" cy="1989.22" r="5.0406" stroke-width="0.5" stroke="red" fill="red"/>
   </g>
   <g id="cell29">
  <circle cx="1071.66" cy="1061.76" r="9.07894" stroke-width="0.5" stroke="black" fill="grey"/>
  <circle cx="1071.66" cy="1061.76" r="5.51588" stroke-width="0.5" stroke="grey" fill="grey"/>
   </g>
   <g id="cell30">
  <circle cx="936.552" cy="486.29" r="9.6131" stroke-width="0.5" stroke="black" fill="grey"/>
  <circle cx="936.552" cy="486.29" r="5.8441" stroke-width="0.5" stroke="grey" fill="grey"/>
   </g>
   <g id="cell31">
  <circle cx="1180.29" cy="1364.28" r="10.3075" stroke-width="0.5" stroke="black" fill="grey"/>
  <circle cx="1180.29" cy="1364.28" r="6.23114" stroke-width="0.5" stroke="grey" fill="grey"/>
   </g>
   <g id="cell109">
  <circle cx="784.655" cy="968.692" r="10.5326" stroke-width="0.5" stroke="black" fill="red"/>
  <circle cx="784.655" cy="968.692" r="6.33928" stroke-width="0.5" stroke="red" fill="red"/>
   </g>
   <g id="cell33">
  <circle cx="1679.17" cy="1172.43" r="10.5205" stroke-width="0.5" stroke="black" fill="grey"/>
  <circle cx="1679.17" cy="1172.43" r="6.33403" stroke-width="0.5" stroke="grey" fill="grey"/>
   </g>
   <g id="cell34">
  <circle cx="1111.21" cy="1626.41" r="8.40449" stroke-width="0.5" stroke="black" fill="grey"/>
  <circle cx="1111.21" cy="1626.41" r="5.04914" stroke-width="0.5" stroke="grey" fill="grey"/>
   </g>
   <g id="cell35">
  <circle cx="751.581" cy="932.737" r="10.0939" stroke-width="0.5" stroke="black" fill="red"/>
  <circle cx="751.581" cy="932.737" r="6.11753" stroke-width="0.5" stroke="red" fill="red"/>
   </g>
   <g id="cell36">
  <circle cx="1735.08" cy="239.535" r="10.461" stroke-width="0.5" stroke="black" fill="red"/>
  <circle cx="1735.08" cy="239.535" r="6.30689" stroke-width="0.5" stroke="red" fill="red"/>
   </g>
   <g id="cell37">
  <circle cx="829.792" cy="912.163" r="10.5327" stroke-width="0.5" stroke="black" fill="red"/>
  <circle cx="829.792" cy="912.163" r="6.33933" stroke-width="0.5" stroke="red" fill="red"/>
   </g>
   <g id="cell38">
  <circle cx="1589.9" cy="1076.77" r="9.8343" stroke-width="0.5" stroke="black" fill="red"/>
  <circle cx="1589.9" cy="1076.77" r="5.97337" stroke-width="0.5" stroke="red" fill="red"/>
   </g>
   <g id="cell39">
  <circle cx="1128.3" cy="1177.48" r="10.5159" stroke-width="0.5" stroke="black" fill="grey"/>
  <circle cx="1128.3" cy="1177.48" r="6.33202" stroke-width="0.5" stroke="grey" fill="grey"/>
   </g>
   <g id="cell40">
  <circle cx="1763.21" cy="1248.65" r="9.42867" stroke-width="0.5" stroke="black" fill="grey"/>
  <circle cx="1763.21" cy="1248.65" r="5.73462" stroke-width="0.5" stroke="grey" fill="grey"/>
   </g>
   <g id="cell41">
  <circle cx="1195.48" cy="1462.47" r="10.1986" stroke-width="0.5" stroke="black" fill="grey"/>
  <circle cx="1195.48" cy="1462.47" r="6.17406" stroke-width="0.5" stroke="grey" fill="grey"/>
   </g>
   <g id="cell42">
  <circle cx="1102.31" cy="1116.99" r="8.47274" stroke-width="0.5" stroke="black" fill="grey"/>
  <circle cx="1102.31" cy="1116.99" r="5.09996" stroke-width="0.5" stroke="grey" fill="grey"/>
   </g>
   <g id="cell43">
  <circle cx="1049.86" cy="1107.93" r="8.41001" stroke-width="0.5" stroke="black" fill="grey"/>
  <circle cx="1049.86" cy="1107.93" r="5.05093" stroke-width="0.5" stroke="grey" fill="grey"/>
   </g>
   <g id="cell44">
  <circle cx="1698.06" cy="1179.69" r="10.5231" stroke-width="0.5" stroke="black" fill="grey"/>
  <circle cx="1698.06" cy="1179.69" r="6.3351" stroke-width="0.5" stroke="grey" fill="grey"/>
   </g>
   <g id="cell45">
  <circle cx="1530.41" cy="1059.58" r="8.36443" stroke-width="0.5" stroke="black" fill="red"/>
  <circle cx="1530.41" cy="1059.58" r="5.03343" stroke-width="0.5" stroke="red" fill="red"/>
   </g>
   <g id="cell101">
  <circle cx="1682.61" cy="229.814" r="10.3241" stroke-width="0.5" stroke="black" fill="red"/>
  <circle cx="1682.61" cy="229.814" r="6.23958" stroke-width="0.5" stroke="red" fill="red"/>
   </g>
   <g id="cell47">
  <circle cx="1640.03" cy="140.239" r="8.36422" stroke-width="0.5" stroke="black" fill="red"/>
  <circle cx="1640.03" cy="140.239" r="5.03338" stroke-width="0.5" stroke="red" fill="red"/>
   </g>
   <g id="cell48">
  <circle cx="1165.98" cy="1793.3" r="8.37716" stroke-width="0.5" stroke="black" fill="grey"/>
  <circle cx="1165.98" cy="1793.3" r="5.03875" stroke-width="0.5" stroke="grey" fill="grey"/>
   </g>
   <g id="cell49">
  <circle cx="89.8659" cy="1970.56" r="8.37045" stroke-width="0.5" stroke="black" fill="red"/>
  <circle cx="89.8659" cy="1970.56" r="5.03602" stroke-width="0.5" stroke="red" fill="red"/>
   </g>
   <g id="cell50">
  <circle cx="1127.71" cy="1144.04" r="8.37156" stroke-width="0.5" stroke="black" fill="grey"/>
  <circle cx="1127.71" cy="1144.04" r="5.03648" stroke-width="0.5" stroke="grey" fill="grey"/>
   </g>
   <g id="cell51">
  <circle cx="1109.97" cy="1271.81" r="9.72246" stroke-width="0.5" stroke="black" fill="grey"/>
  <circle cx="1109.97" cy="1271.81" r="5.90753" stroke-width="0.5" stroke="grey" fill="grey"/>
   </g>
   <g id="cell52">
  <circle cx="873.844" cy="595.546" r="8.39001" stroke-width="0.5" stroke="black" fill="grey"/>
  <circle cx="873.844" cy="595.546" r="5.04385" stroke-width="0.5" stroke="grey" fill="grey"/>
   </g>
   <g id="cell87">
  <circle cx="915.707" cy="623.311" r="9.81359" stroke-width="0.5" stroke="black" fill="grey"/>
  <circle cx="915.707" cy="623.311" r="5.96119" stroke-width="0.5" stroke="grey" fill="grey"/>
   </g>
   <g id="cell54">
  <circle cx="905.941" cy="531.36" r="8.38093" stroke-width="0.5" stroke="black" fill="grey"/>
  <circle cx="905.941" cy="531.36" r="5.04028" stroke-width="0.5" stroke="grey" fill="grey"/>
   </g>
   <g id="cell55">
  <circle cx="857.8" cy="543.978" r="9.93846" stroke-width="0.5" stroke="black" fill="grey"/>
  <circle cx="857.8" cy="543.978" r="6.03219" stroke-width="0.5" stroke="grey" fill="grey"/>
   </g>
   <g id="cell56">
  <circle cx="175.185" cy="1894.64" r="10.4044" stroke-width="0.5" stroke="black" fill="red"/>
  <circle cx="175.185" cy="1894.64" r="6.27971" stroke-width="0.5" stroke="red" fill="red"/>
   </g>
   <g id="cell57">
  <circle cx="1660.48" cy="270.521" r="10.527" stroke-width="0.5" stroke="black" fill="red"/>
  <circle cx="1660.48" cy="270.521" r="6.33683" stroke-width="0.5" stroke="red" fill="red"/>
   </g>
   <g id="cell58">
  <circle cx="703.109" cy="845.716" r="1.92529" stroke-width="0.5" stroke="black" fill="red"/>
  <circle cx="703.109" cy="845.716" r="1.84009" stroke-width="0.5" stroke="black" fill="black"/>
   </g>
   <g id="cell59">
  <circle cx="1726.05" cy="334.733" r="10.4884" stroke-width="0.5" stroke="black" fill="red"/>
  <circle cx="1726.05" cy="334.733" r="6.31972" stroke-width="0.5" stroke="red" fill="red"/>
   </g>
   <g id="cell60">
  <circle cx="1745.2" cy="1186.11" r="10.4949" stroke-width="0.5" stroke="black" fill="grey"/>
  <circle cx="1745.2" cy="1186.11" r="6.3226" stroke-width="0.5" stroke="grey" fill="grey"/>
   </g>
   <g id="cell61">
  <circle cx="1105.11" cy="1800.77" r="10.3448" stroke-width="0.5" stroke="black" fill="grey"/>
  <circle cx="1105.11" cy="1800.77" r="6.25049" stroke-width="0.5" stroke="grey" fill="grey"/>
   </g>
   <g id="cell62">
  <circle cx="1211.35" cy="1642.72" r="9.4398" stroke-width="0.5" stroke="black" fill="grey"/>
  <circle cx="1211.35" cy="1642.72" r="5.7387" stroke-width="0.5" stroke="grey" fill="grey"/>
   </g>
   <g id="cell63">
  <circle cx="1642.11" cy="349.988" r="9.25613" stroke-width="0.5" stroke="black" fill="red"/>
  <circle cx="1642.11" cy="349.988" r="5.62952" stroke-width="0.5" stroke="red" fill="red"/>
   </g>
   <g id="cell64">
  <circle cx="1677.12" cy="1147.68" r="8.83626" stroke-width="0.5" stroke="black" fill="grey"/>
  <circle cx="1677.12" cy="1147.68" r="5.3588" stroke-width="0.5" stroke="grey" fill="grey"/>
   </g>
   <g id="cell115">
  <circle cx="843.675" cy="565.26" r="10.4247" stroke-width="0.5" stroke="black" fill="grey"/>
  <circle cx="843.675" cy="565.26" r="6.28976" stroke-width="0.5" stroke="grey" fill="grey"/>
   </g>
   <g id="cell66">
  <circle cx="797.774" cy="956.452" r="1.76927" stroke-width="0.5" stroke="black" fill="red"/>
  <circle cx="797.774" cy="956.452" r="1.71592" stroke-width="0.5" stroke="black" fill="black"/>
   </g>
   <g id="cell67">
  <circle cx="1554.41" cy="1072.39" r="9.82092" stroke-width="0.5" stroke="black" fill="red"/>
  <circle cx="1554.41" cy="1072.39" r="5.96368" stroke-width="0.5" stroke="red" fill="red"/>
   </g>
   <g id="cell68">
  <circle cx="827.486" cy="1051.26" r="8.46707" stroke-width="0.5" stroke="black" fill="red"/>
  <circle cx="827.486" cy="1051.26" r="5.0979" stroke-width="0.5" stroke="red" fill="red"/>
   </g>
   <g id="cell69">
  <circle cx="821.426" cy="549.626" r="9.16138" stroke-width="0.5" stroke="black" fill="grey"/>
  <circle cx="821.426" cy="549.626" r="5.56636" stroke-width="0.5" stroke="grey" fill="grey"/>
   </g>
   <g id="cell70">
  <circle cx="1667.22" cy="1253.78" r="10.3532" stroke-width="0.5" stroke="black" fill="grey"/>
  <circle cx="1667.22" cy="1253.78" r="6.25448" stroke-width="0.5" stroke="grey" fill="grey"/>
   </g>
   <g id="cell71">
  <circle cx="1030.12" cy="1060.66" r="10.2081" stroke-width="0.5" stroke="black" fill="grey"/>
  <circle cx="1030.12" cy="1060.66" r="6.17956" stroke-width="0.5" stroke="grey" fill="grey"/>
   </g>
   <g id="cell72">
  <circle cx="1136.99" cy="751.933" r="9.2691" stroke-width="0.5" stroke="black" fill="red"/>
  <circle cx="1136.99" cy="751.933" r="5.63435" stroke-width="0.5" stroke="red" fill="red"/>
   </g>
   <g id="cell73">
  <circle cx="1224.35" cy="1205.12" r="10.3449" stroke-width="0.5" stroke="black" fill="grey"/>
  <circle cx="1224.35" cy="1205.12" r="6.25055" stroke-width="0.5" stroke="grey" fill="grey"/>
   </g>
   <g id="cell74">
  <circle cx="1102.13" cy="1100.33" r="9.55734" stroke-width="0.5" stroke="black" fill="grey"/>
  <circle cx="1102.13" cy="1100.33" r="5.81067" stroke-width="0.5" stroke="grey" fill="grey"/>
   </g>
   <g id="cell75">
  <circle cx="1694.09" cy="1144.04" r="10.0621" stroke-width="0.5" stroke="black" fill="grey"/>
  <circle cx="1694.09" cy="1144.04" r="6.10045" stroke-width="0.5" stroke="grey" fill="grey"/>
   </g>
   <g id="cell76">
  <circle cx="1622.9" cy="220.409" r="8.40148" stroke-width="0.5" stroke="black" fill="red"/>
  <circle cx="1622.9" cy="220.409" r="5.0481" stroke-width="0.5" stroke="red" fill="red"/>
   </g>
   <g id="cell77">
  <circle cx="31.3383" cy="1941.32" r="9.81701" stroke-width="0.5" stroke="black" fill="red"/>
  <circle cx="31.3383" cy="1941.32" r="5.96241" stroke-width="0.5" stroke="red" fill="red"/>
   </g>
   <g id="cell128">
  <circle cx="1729.17" cy="1183.39" r="10.0773" stroke-width="0.5" stroke="black" fill="grey"/>
  <circle cx="1729.17" cy="1183.39" r="6.10885" stroke-width="0.5" stroke="grey" fill="grey"/>
   </g>
   <g id="cell79">
  <circle cx="1195.72" cy="1287.39" r="10.4046" stroke-width="0.5" stroke="black" fill="grey"/>
  <circle cx="1195.72" cy="1287.39" r="6.27979" stroke-width="0.5" stroke="grey" fill="grey"/>
   </g>
   <g id="cell80">
  <circle cx="810.454" cy="470.244" r="10.5011" stroke-width="0.5" stroke="black" fill="grey"/>
  <circle cx="810.454" cy="470.244" r="6.32532" stroke-width="0.5" stroke="grey" fill="grey"/>
   </g>
   <g id="cell81">
  <circle cx="1227.52" cy="1263.85" r="8.3783" stroke-width="0.5" stroke="black" fill="grey"/>
  <circle cx="1227.52" cy="1263.85" r="5.03919" stroke-width="0.5" stroke="grey" fill="grey"/>
   </g>
   <g id="cell82">
  <circle cx="1636.94" cy="1140.3" r="9.57963" stroke-width="0.5" stroke="black" fill="red"/>
  <circle cx="1636.94" cy="1140.3" r="5.82537" stroke-width="0.5" stroke="red" fill="red"/>
   </g>
   <g id="cell83">
  <circle cx="914.792" cy="600.703" r="10.5274" stroke-width="0.5" stroke="black" fill="grey"/>
  <circle cx="914.792" cy="600.703" r="6.33693" stroke-width="0.5" stroke="grey" fill="grey"/>
   </g>
   <g id="cell84">
  <circle cx="1156.13" cy="1615.88" r="10.3323" stroke-width="0.5" stroke="black" fill="grey"/>
  <circle cx="1156.13" cy="1615.88" r="6.24365" stroke-width="0.5" stroke="grey" fill="grey"/>
   </g>
   <g id="cell85">
  <circle cx="1181.82" cy="1685.8" r="9.85698" stroke-width="0.5" stroke="black" fill="grey"/>
  <circle cx="1181.82" cy="1685.8" r="5.98614" stroke-width="0.5" stroke="grey" fill="grey"/>
   </g>
   <g id="cell88">
  <circle cx="1656.61" cy="1214.38" r="9.16254" stroke-width="0.5" stroke="black" fill="grey"/>
  <circle cx="1656.61" cy="1214.38" r="5.5667" stroke-width="0.5" stroke="grey" fill="grey"/>
   </g>
   <g id="cell89">
  <circle cx="1796.18" cy="279.98" r="10.263" stroke-width="0.5" stroke="black" fill="red"/>
  <circle cx="1796.18" cy="279.98" r="6.20791" stroke-width="0.5" stroke="red" fill="red"/>
   </g>
   <g id="cell91">
  <circle cx="1175.24" cy="1249.79" r="10.4398" stroke-width="0.5" stroke="black" fill="grey"/>
  <circle cx="1175.24" cy="1249.79" r="6.29685" stroke-width="0.5" stroke="grey" fill="grey"/>
   </g>
   <g id="cell92">
  <circle cx="1690.93" cy="1357.82" r="10.41" stroke-width="0.5" stroke="black" fill="grey"/>
  <circle cx="1690.93" cy="1357.82" r="6.28244" stroke-width="0.5" stroke="grey" fill="grey"/>
   </g>
   <g id="cell93">
  <circle cx="832.764" cy="581.742" r="10.3612" stroke-width="0.5" stroke="black" fill="grey"/>
  <circle cx="832.764" cy="581.742" r="6.25828" stroke-width="0.5" stroke="grey" fill="grey"/>
   </g>
   <g id="cell94">
  <circle cx="860.143" cy="526.076" r="10.5139" stroke-width="0.5" stroke="black" fill="grey"/>
  <circle cx="860.143" cy="526.076" r="6.33106" stroke-width="0.5" stroke="grey" fill="grey"/>
   </g>
   <g id="cell95">
  <circle cx="1135.45" cy="1782.93" r="8.38002" stroke-width="0.5" stroke="black" fill="grey"/>
  <circle cx="1135.45" cy="1782.93" r="5.03991" stroke-width="0.5" stroke="grey" fill="grey"/>
   </g>
   <g id="cell96">
  <circle cx="1665.35" cy="286.896" r="8.38796" stroke-width="0.5" stroke="black" fill="red"/>
  <circle cx="1665.35" cy="286.896" r="5.04307" stroke-width="0.5" stroke="red" fill="red"/>
   </g>
   <g id="cell97">
  <circle cx="1182.39" cy="1342.82" r="10.5162" stroke-width="0.5" stroke="black" fill="grey"/>
  <circle cx="1182.39" cy="1342.82" r="6.3321" stroke-width="0.5" stroke="grey" fill="grey"/>
   </g>
   <g id="cell98">
  <circle cx="131.844" cy="1923.51" r="10.5062" stroke-width="0.5" stroke="black" fill="red"/>
  <circle cx="131.844" cy="1923.51" r="6.32768" stroke-width="0.5" stroke="red" fill="red"/>
   </g>
   <g id="cell99">
  <circle cx="1696.62" cy="155.171" r="10.2216" stroke-width="0.5" stroke="black" fill="red"/>
  <circle cx="1696.62" cy="155.171" r="6.18616" stroke-width="0.5" stroke="red" fill="red"/>
   </g>
   <g id="cell100">
  <circle cx="47.399" cy="1952.59" r="8.37704" stroke-width="0.5" stroke="black" fill="red"/>
  <circle cx="47.399" cy="1952.59" r="5.03872" stroke-width="0.5" stroke="red" fill="red"/>
   </g>
   <g id="cell102">
  <circle cx="1721.93" cy="1168.61" r="8.41179" stroke-width="0.5" stroke="black" fill="grey"/>
  <circle cx="1721.93" cy="1168.61" r="5.05145" stroke-width="0.5" stroke="grey" fill="grey"/>
   </g>
   <g id="cell103">
  <circle cx="127.489" cy="1977.78" r="8.37491" stroke-width="0.5" stroke="black" fill="red"/>
  <circle cx="127.489" cy="1977.78" r="5.03786" stroke-width="0.5" stroke="red" fill="red"/>
   </g>
   <g id="cell104">
  <circle cx="794.457" cy="915.799" r="10.3676" stroke-width="0.5" stroke="black" fill="red"/>
  <circle cx="794.457" cy="915.799" r="6.26155" stroke-width="0.5" stroke="red" fill="red"/>
   </g>
   <g id="cell105">
  <circle cx="1661.39" cy="1135.4" r="8.36269" stroke-width="0.5" stroke="black" fill="grey"/>
  <circle cx="1661.39" cy="1135.4" r="5.03275" stroke-width="0.5" stroke="grey" fill="grey"/>
   </g>
   <g id="cell106">
  <circle cx="1150.41" cy="1166.81" r="8.41169" stroke-width="0.5" stroke="black" fill="grey"/>
  <circle cx="1150.41" cy="1166.81" r="5.05142" stroke-width="0.5" stroke="grey" fill="grey"/>
   </g>
   <g id="cell107">
  <circle cx="1149.53" cy="1134.19" r="10.2814" stroke-width="0.5" stroke="black" fill="grey"/>
  <circle cx="1149.53" cy="1134.19" r="6.21761" stroke-width="0.5" stroke="grey" fill="grey"/>
   </g>
   <g id="cell108">
  <circle cx="1141.67" cy="1692.31" r="10.4438" stroke-width="0.5" stroke="black" fill="grey"/>
  <circle cx="1141.67" cy="1692.31" r="6.29885" stroke-width="0.5" stroke="grey" fill="grey"/>
   </g>
   <g id="cell110">
  <circle cx="1585.43" cy="1009.93" r="10.299" stroke-width="0.5" stroke="black" fill="red"/>
  <circle cx="1585.43" cy="1009.93" r="6.22676" stroke-width="0.5" stroke="red" fill="red"/>
   </g>
   <g id="cell111">
  <circle cx="1201.09" cy="1346.35" r="10.4717" stroke-width="0.5" stroke="black" fill="grey"/>
  <circle cx="1201.09" cy="1346.35" r="6.31202" stroke-width="0.5" stroke="grey" fill="grey"/>
   </g>
   <g id="cell112">
  <circle cx="1258.59" cy="1293.58" r="10.5082" stroke-width="0.5" stroke="black" fill="grey"/>
  <circle cx="1258.59" cy="1293.58" r="6.32867" stroke-width="0.5" stroke="grey" fill="grey"/>
   </g>
   <g id="cell113">
  <circle cx="1254.9" cy="1438.72" r="10.5179" stroke-width="0.5" stroke="black" fill="grey"/>
  <circle cx="1254.9" cy="1438.72" r="6.33295" stroke-width="0.5" stroke="grey" fill="grey"/>
   </g>
   <g id="cell114">
  <circle cx="1723.06" cy="376.015" r="10.4751" stroke-width="0.5" stroke="black" fill="red"/>
  <circle cx="1723.06" cy="376.015" r="6.31362" stroke-width="0.5" stroke="red" fill="red"/>
   </g>
   <g id="cell116">
  <circle cx="1698.48" cy="1203.43" r="10.4387" stroke-width="0.5" stroke="black" fill="grey"/>
  <circle cx="1698.48" cy="1203.43" r="6.29655" stroke-width="0.5" stroke="grey" fill="grey"/>
   </g>
   <g id="cell117">
  <circle cx="1705.55" cy="1263.71" r="9.62034" stroke-width="0.5" stroke="black" fill="grey"/>
  <circle cx="1705.55" cy="1263.71" r="5.84662" stroke-width="0.5" stroke="grey" fill="grey"/>
   </g>
   <g id="cell118">
  <circle cx="740.057" cy="955.456" r="9.96249" stroke-width="0.5" stroke="black" fill="red"/>
  <circle cx="740.057" cy="955.456" r="6.04452" stroke-width="0.5" stroke="red" fill="red"/>
   </g>
   <g id="cell119">
  <circle cx="1082.47" cy="1137.54" r="9.69998" stroke-width="0.5" stroke="black" fill="grey"/>
  <circle cx="1082.47" cy="1137.54" r="5.89366" stroke-width="0.5" stroke="grey" fill="grey"/>
   </g>
   <g id="cell120">
  <circle cx="768.293" cy="1071.19" r="9.96213" stroke-width="0.5" stroke="black" fill="red"/>
  <circle cx="768.293" cy="1071.19" r="6.04441" stroke-width="0.5" stroke="red" fill="red"/>
   </g>
   <g id="cell121">
  <circle cx="1170.51" cy="1603" r="8.40924" stroke-width="0.5" stroke="black" fill="grey"/>
  <circle cx="1170.51" cy="1603" r="5.0507" stroke-width="0.5" stroke="grey" fill="grey"/>
   </g>
   <g id="cell122">
  <circle cx="1176.22" cy="1169.4" r="9.64655" stroke-width="0.5" stroke="black" fill="grey"/>
  <circle cx="1176.22" cy="1169.4" r="5.86244" stroke-width="0.5" stroke="grey" fill="grey"/>
   </g>
   <g id="cell123">
  <circle cx="886.464" cy="636.948" r="9.33978" stroke-width="0.5" stroke="black" fill="grey"/>
  <circle cx="886.464" cy="636.948" r="5.67778" stroke-width="0.5" stroke="grey" fill="grey"/>
   </g>
   <g id="cell124">
  <circle cx="1127.4" cy="1813.95" r="10.2885" stroke-width="0.5" stroke="black" fill="grey"/>
  <circle cx="1127.4" cy="1813.95" r="6.22168" stroke-width="0.5" stroke="grey" fill="grey"/>
   </g>
   <g id="cell125">
  <circle cx="936.539" cy="518.973" r="10.3847" stroke-width="0.5" stroke="black" fill="grey"/>
  <circle cx="936.539" cy="518.973" r="6.27045" stroke-width="0.5" stroke="grey" fill="grey"/>
   </g>
   <g id="cell126">
  <circle cx="1064.11" cy="1097.62" r="9.37344" stroke-width="0.5" stroke="black" fill="grey"/>
  <circle cx="1064.11" cy="1097.62" r="5.69849" stroke-width="0.5" stroke="grey" fill="grey"/>
   </g>
   <g id="cell127">
  <circle cx="1114.5" cy="733.354" r="8.4081" stroke-width="0.5" stroke="black" fill="red"/>
  <circle cx="1114.5" cy="733.354" r="5.05034" stroke-width="0.5" stroke="red" fill="red"/>
   </g>
   <g id="cell129">
  <circle cx="1152.93" cy="1279.81" r="1.92679" stroke-width="0.5" stroke="black" fill="grey"/>
  <circle cx="1152.93" cy="1279.81" r="1.84136" stroke-width="0.5" stroke="black" fill="black"/>
   </g>
   <g id="cell130">
  <circle cx="18.4275" cy="1910.95" r="10.1713" stroke-width="0.5" stroke="black" fill="red"/>
  <circle cx="18.4275" cy="1910.95" r="6.16019" stroke-width="0.5" stroke="red" fill="red"/>
   </g>
   <g id="cell131">
  <circle cx="1117.61" cy="1645.16" r="8.40449" stroke-width="0.5" stroke="black" fill="grey"/>
  <circle cx="1117.61" cy="1645.16" r="5.04914" stroke-width="0.5" stroke="grey" fill="grey"/>
   </g>
   <g id="cell132">
  <circle cx="1076.09" cy="1008.23" r="10.1314" stroke-width="0.5" stroke="black" fill="grey"/>
  <circle cx="1076.09" cy="1008.23" r="6.13893" stroke-width="0.5" stroke="grey" fill="grey"/>
   </g>
   <g id="cell133">
  <circle cx="1622.1" cy="275.912" r="9.11708" stroke-width="0.5" stroke="black" fill="red"/>
  <circle cx="1622.1" cy="275.912" r="5.5402" stroke-width="0.5" stroke="red" fill="red"/>
   </g>
   <g id="cell134">
  <circle cx="861.728" cy="589.171" r="8.40289" stroke-width="0.5" stroke="black" fill="grey"/>
  <circle cx="861.728" cy="589.171" r="5.0486" stroke-width="0.5" stroke="grey" fill="grey"/>
   </g>
   <g id="cell135">
  <circle cx="1109.36" cy="1083.32" r="8.40267" stroke-width="0.5" stroke="black" fill="grey"/>
  <circle cx="1109.36" cy="1083.32" r="5.04852" stroke-width="0.5" stroke="grey" fill="grey"/>
   </g>
   <g id="cell136">
  <circle cx="1112.33" cy="1142.65" r="8.40239" stroke-width="0.5" stroke="black" fill="grey"/>
  <circle cx="1112.33" cy="1142.65" r="5.04842" stroke-width="0.5" stroke="grey" fill="grey"/>
   </g>
   <g id="cell137">
  <circle cx="671.755" cy="898.621" r="8.60417" stroke-width="0.5" stroke="black" fill="red"/>
  <circle cx="671.755" cy="898.621" r="5.19733" stroke-width="0.5" stroke="red" fill="red"/>
   </g>
   <g id="cell138">
  <circle cx="1607.06" cy="245.426" r="8.40148" stroke-width="0.5" stroke="black" fill="red"/>
  <circle cx="1607.06" cy="245.426" r="5.0481" stroke-width="0.5" stroke="red" fill="red"/>
   </g>
   <g id="cell139">
  <circle cx="935.769" cy="626.554" r="8.40139" stroke-width="0.5" stroke="black" fill="grey"/>
  <circle cx="935.769" cy="626.554" r="5.04808" stroke-width="0.5" stroke="grey" fill="grey"/>
   </g>
   <g id="cell140">
  <circle cx="940.221" cy="535.703" r="8.40108" stroke-width="0.5" stroke="black" fill="grey"/>
  <circle cx="940.221" cy="535.703" r="5.04797" stroke-width="0.5" stroke="grey" fill="grey"/>
   </g>
   <g id="cell141">
  <circle cx="1083.96" cy="1208.53" r="9.58502" stroke-width="0.5" stroke="black" fill="grey"/>
  <circle cx="1083.96" cy="1208.53" r="5.82743" stroke-width="0.5" stroke="grey" fill="grey"/>
   </g>
   <g id="cell142">
  <circle cx="1207.07" cy="1742.18" r="8.40111" stroke-width="0.5" stroke="black" fill="grey"/>
  <circle cx="1207.07" cy="1742.18" r="5.04797" stroke-width="0.5" stroke="grey" fill="grey"/>
   </g>
   <g id="cell143">
  <circle cx="1734.37" cy="1147.83" r="8.39986" stroke-width="0.5" stroke="black" fill="grey"/>
  <circle cx="1734.37" cy="1147.83" r="5.04751" stroke-width="0.5" stroke="grey" fill="grey"/>
   </g>
   <g id="cell144">
  <circle cx="1616.53" cy="1013.52" r="8.39948" stroke-width="0.5" stroke="black" fill="red"/>
  <circle cx="1616.53" cy="1013.52" r="5.04738" stroke-width="0.5" stroke="red" fill="red"/>
   </g>
   <g id="cell145">
  <circle cx="1287.99" cy="1323.6" r="8.3994" stroke-width="0.5" stroke="black" fill="grey"/>
  <circle cx="1287.99" cy="1323.6" r="5.04736" stroke-width="0.5" stroke="grey" fill="grey"/>
   </g>
   <g id="cell146">
  <circle cx="1118.25" cy="1714.91" r="8.39863" stroke-width="0.5" stroke="black" fill="grey"/>
  <circle cx="1118.25" cy="1714.91" r="5.04708" stroke-width="0.5" stroke="grey" fill="grey"/>
   </g>
   <g id="cell147">
  <circle cx="813.376" cy="1055.28" r="8.39662" stroke-width="0.5" stroke="black" fill="red"/>
  <circle cx="813.376" cy="1055.28" r="5.04633" stroke-width="0.5" stroke="red" fill="red"/>
   </g>
   <g id="cell148">
  <circle cx="1180.85" cy="730.953" r="9.52304" stroke-width="0.5" stroke="black" fill="red"/>
  <circle cx="1180.85" cy="730.953" r="5.79121" stroke-width="0.5" stroke="red" fill="red"/>
   </g>
   <g id="cell149">
  <circle cx="1705.36" cy="1371.45" r="8.67369" stroke-width="0.5" stroke="black" fill="grey"/>
  <circle cx="1705.36" cy="1371.45" r="5.24877" stroke-width="0.5" stroke="grey" fill="grey"/>
   </g>
   <g id="cell150">
  <circle cx="1738.27" cy="1270.7" r="9.32873" stroke-width="0.5" stroke="black" fill="grey"/>
  <circle cx="1738.27" cy="1270.7" r="5.67371" stroke-width="0.5" stroke="grey" fill="grey"/>
   </g>
   <g id="cell151">
  <circle cx="1640.65" cy="1111.06" r="9.49075" stroke-width="0.5" stroke="black" fill="red"/>
  <circle cx="1640.65" cy="1111.06" r="5.77226" stroke-width="0.5" stroke="red" fill="red"/>
   </g>
   <g id="cell152">
  <circle cx="1537.31" cy="1093.09" r="9.49075" stroke-width="0.5" stroke="black" fill="red"/>
  <circle cx="1537.31" cy="1093.09" r="5.77226" stroke-width="0.5" stroke="red" fill="red"/>
   </g>
   <g id="cell153">
  <circle cx="1718.11" cy="132.442" r="8.3931" stroke-width="0.5" stroke="black" fill="red"/>
  <circle cx="1718.11" cy="132.442" r="5.04501" stroke-width="0.5" stroke="red" fill="red"/>
   </g>
   <g id="cell154">
  <circle cx="1681.28" cy="382.5" r="8.39233" stroke-width="0.5" stroke="black" fill="red"/>
  <circle cx="1681.28" cy="382.5" r="5.04475" stroke-width="0.5" stroke="red" fill="red"/>
   </g>
   <g id="cell155">
  <circle cx="914.132" cy="637.663" r="8.39001" stroke-width="0.5" stroke="black" fill="grey"/>
  <circle cx="914.132" cy="637.663" r="5.04385" stroke-width="0.5" stroke="grey" fill="grey"/>
   </g>
   <g id="cell156">
  <circle cx="1717.66" cy="1238.96" r="8.39016" stroke-width="0.5" stroke="black" fill="grey"/>
  <circle cx="1717.66" cy="1238.96" r="5.04389" stroke-width="0.5" stroke="grey" fill="grey"/>
   </g>
   <g id="cell157">
  <circle cx="62.8132" cy="1956.31" r="9.32411" stroke-width="0.5" stroke="black" fill="red"/>
  <circle cx="62.8132" cy="1956.31" r="5.67188" stroke-width="0.5" stroke="red" fill="red"/>
   </g>
   <g id="cell158">
  <circle cx="1648.83" cy="254.267" r="8.38796" stroke-width="0.5" stroke="black" fill="red"/>
  <circle cx="1648.83" cy="254.267" r="5.04307" stroke-width="0.5" stroke="red" fill="red"/>
   </g>
   <g id="cell159">
  <circle cx="804.914" cy="836.793" r="8.38273" stroke-width="0.5" stroke="black" fill="red"/>
  <circle cx="804.914" cy="836.793" r="5.04099" stroke-width="0.5" stroke="red" fill="red"/>
   </g>
   <g id="cell160">
  <circle cx="44.0776" cy="1970.89" r="8.38167" stroke-width="0.5" stroke="black" fill="red"/>
  <circle cx="44.0776" cy="1970.89" r="5.0406" stroke-width="0.5" stroke="red" fill="red"/>
   </g>
   <g id="cell161">
  <circle cx="887.569" cy="534.699" r="8.38093" stroke-width="0.5" stroke="black" fill="grey"/>
  <circle cx="887.569" cy="534.699" r="5.04028" stroke-width="0.5" stroke="grey" fill="grey"/>
   </g>
   <g id="cell162">
  <circle cx="1540.38" cy="1040.88" r="8.5481" stroke-width="0.5" stroke="black" fill="red"/>
  <circle cx="1540.38" cy="1040.88" r="5.1635" stroke-width="0.5" stroke="red" fill="red"/>
   </g>
   <g id="cell163">
  <circle cx="1156.37" cy="1770.05" r="8.4806" stroke-width="0.5" stroke="black" fill="grey"/>
  <circle cx="1156.37" cy="1770.05" r="5.11395" stroke-width="0.5" stroke="grey" fill="grey"/>
   </g>
   <g id="cell164">
  <circle cx="1237.37" cy="1234.47" r="8.44905" stroke-width="0.5" stroke="black" fill="grey"/>
  <circle cx="1237.37" cy="1234.47" r="5.09086" stroke-width="0.5" stroke="grey" fill="grey"/>
   </g>
   <g id="cell165">
  <circle cx="60.7833" cy="1972" r="8.37704" stroke-width="0.5" stroke="black" fill="red"/>
  <circle cx="60.7833" cy="1972" r="5.03872" stroke-width="0.5" stroke="red" fill="red"/>
   </g>
   <g id="cell166">
  <circle cx="1186.49" cy="1790.57" r="8.37716" stroke-width="0.5" stroke="black" fill="grey"/>
  <circle cx="1186.49" cy="1790.57" r="5.03875" stroke-width="0.5" stroke="grey" fill="grey"/>
   </g>
   <g id="cell167">
  <circle cx="133.777" cy="1990.18" r="8.37491" stroke-width="0.5" stroke="black" fill="red"/>
  <circle cx="133.777" cy="1990.18" r="5.03786" stroke-width="0.5" stroke="red" fill="red"/>
   </g>
   <g id="cell168">
  <circle cx="874.436" cy="898.539" r="8.37303" stroke-width="0.5" stroke="black" fill="red"/>
  <circle cx="874.436" cy="898.539" r="5.03704" stroke-width="0.5" stroke="red" fill="red"/>
   </g>
   <g id="cell169">
  <circle cx="1121.35" cy="1156.96" r="8.37156" stroke-width="0.5" stroke="black" fill="grey"/>
  <circle cx="1121.35" cy="1156.96" r="5.03648" stroke-width="0.5" stroke="grey" fill="grey"/>
   </g>
   <g id="cell170">
  <circle cx="79.213" cy="1990.54" r="8.37045" stroke-width="0.5" stroke="black" fill="red"/>
  <circle cx="79.213" cy="1990.54" r="5.03602" stroke-width="0.5" stroke="red" fill="red"/>
   </g>
   <g id="cell171">
  <circle cx="1176.54" cy="1286.63" r="8.36587" stroke-width="0.5" stroke="black" fill="grey"/>
  <circle cx="1176.54" cy="1286.63" r="5.03402" stroke-width="0.5" stroke="grey" fill="grey"/>
   </g>
   <g id="cell172">
  <circle cx="1218.43" cy="1749.52" r="8.36446" stroke-width="0.5" stroke="black" fill="grey"/>
  <circle cx="1218.43" cy="1749.52" r="5.03344" stroke-width="0.5" stroke="grey" fill="grey"/>
   </g>
   <g id="cell173">
  <circle cx="1518.97" cy="1072.27" r="8.36443" stroke-width="0.5" stroke="black" fill="red"/>
  <circle cx="1518.97" cy="1072.27" r="5.03343" stroke-width="0.5" stroke="red" fill="red"/>
   </g>
   <g id="cell174">
  <circle cx="1653.12" cy="148.022" r="8.36422" stroke-width="0.5" stroke="black" fill="red"/>
  <circle cx="1653.12" cy="148.022" r="5.03338" stroke-width="0.5" stroke="red" fill="red"/>
   </g>
   <g id="cell175">
  <circle cx="1651.19" cy="1126.14" r="8.36269" stroke-width="0.5" stroke="black" fill="grey"/>
  <circle cx="1651.19" cy="1126.14" r="5.03275" stroke-width="0.5" stroke="grey" fill="grey"/>
   </g>
  </g>
 </g>
  <rect x="1750" y="2070" width="200" height="20" stroke-width="4" stroke="rgb(255,255,255)" fill="rgb(0,0,0)"/>
  <text x="1762.5" y="2057.5"
   font-family="Arial" font-size="50" fill="black" >
   200 &#956;m
  </text>
  <text x="50" y="2090"
   font-family="Arial" font-size="37.5" fill="black" >
   0 days, 0 hours, 1 minutes, and 53.7989 seconds
  </text>
  <rect x="0" y="140" width="2000" height="2000" stroke-width="4" stroke="rgb(0,0,0)" fill="none"/>
</svg>
