<?xml version="1.0" encoding="UTF-8" standalone="no"?>
<!-- Created with PhysiCell (http://PhysiCell.MathCancer.org/) -->
<svg 
 xmlns:dc="http://purl.org/dc/elements/1.1/" 
 xmlns:cc="http://creativecommons.org/ns#" 
 xmlns:rdf="http://www.w3.org/1999/02/22-rdf-syntax-ns#" 
 xmlns:svg="http://www.w3.org/2000/svg" 
 xmlns="http://www.w3.org/2000/svg" 
 version="1.1" 
 width="2000" 
 height="2140" 
 id="svg2">
  <rect x="0" y="0" width="2000" height="2140" stroke-width="4" stroke="white" fill="white"/>
  <text x="25" y="60"
   font-family="Arial" font-size="50" fill="black" >
   Current time: 1 days, 1 hours, and 50.00 minutes, z = 0.00 &#956;m
  </text>
  <text x="25" y="115"
   font-family="Arial" font-size="47.5" fill="black" >
   186 agents
  </text>
 <g id="tissue" 
    transform="translate(0,2140) scale(1,-1)">
  <g id="ECM">
  </g>
  <g id="cells">
   <g id="cell0">
  <circle cx="1091.57" cy="1181.96" r="9.92253" stroke-width="0.5" stroke="black" fill="grey"/>
  <circle cx="1091.57" cy="1181.96" r="6.02247" stroke-width="0.5" stroke="grey" fill="grey"/>
   </g>
   <g id="cell1">
  <circle cx="1681.99" cy="1176.16" r="10.1489" stroke-width="0.5" stroke="black" fill="grey"/>
  <circle cx="1681.99" cy="1176.16" r="6.14752" stroke-width="0.5" stroke="grey" fill="grey"/>
   </g>
   <g id="cell2">
  <circle cx="1105.09" cy="1738.06" r="10.4198" stroke-width="0.5" stroke="black" fill="grey"/>
  <circle cx="1105.09" cy="1738.06" r="6.28737" stroke-width="0.5" stroke="grey" fill="grey"/>
   </g>
   <g id="cell3">
  <circle cx="1238.74" cy="1335.23" r="8.96461" stroke-width="0.5" stroke="black" fill="grey"/>
  <circle cx="1238.74" cy="1335.23" r="5.44113" stroke-width="0.5" stroke="grey" fill="grey"/>
   </g>
   <g id="cell4">
  <circle cx="889.764" cy="509.789" r="9.06659" stroke-width="0.5" stroke="black" fill="grey"/>
  <circle cx="889.764" cy="509.789" r="5.51111" stroke-width="0.5" stroke="grey" fill="grey"/>
   </g>
   <g id="cell5">
  <circle cx="110.422" cy="1917.29" r="10.2175" stroke-width="0.5" stroke="black" fill="grey"/>
  <circle cx="110.422" cy="1917.29" r="6.18487" stroke-width="0.5" stroke="grey" fill="grey"/>
   </g>
   <g id="cell6">
  <circle cx="744.734" cy="900.098" r="9.81477" stroke-width="0.5" stroke="black" fill="grey"/>
  <circle cx="744.734" cy="900.098" r="5.96161" stroke-width="0.5" stroke="grey" fill="grey"/>
   </g>
   <g id="cell7">
  <circle cx="1578.4" cy="1111.56" r="10.1485" stroke-width="0.5" stroke="black" fill="grey"/>
  <circle cx="1578.4" cy="1111.56" r="6.14739" stroke-width="0.5" stroke="grey" fill="grey"/>
   </g>
   <g id="cell8">
  <circle cx="1161.8" cy="818.563" r="10.2718" stroke-width="0.5" stroke="black" fill="grey"/>
  <circle cx="1161.8" cy="818.563" r="6.21268" stroke-width="0.5" stroke="grey" fill="grey"/>
   </g>
   <g id="cell9">
  <circle cx="1606.39" cy="209.17" r="10.0458" stroke-width="0.5" stroke="black" fill="grey"/>
  <circle cx="1606.39" cy="209.17" r="6.09158" stroke-width="0.5" stroke="grey" fill="grey"/>
   </g>
   <g id="cell10">
  <circle cx="183.54" cy="1273.49" r="8.39422" stroke-width="0.5" stroke="black" fill="grey"/>
  <circle cx="183.54" cy="1273.49" r="5.04543" stroke-width="0.5" stroke="grey" fill="grey"/>
   </g>
   <g id="cell11">
  <circle cx="736.667" cy="1598.22" r="10.2097" stroke-width="0.5" stroke="black" fill="grey"/>
  <circle cx="736.667" cy="1598.22" r="6.18005" stroke-width="0.5" stroke="grey" fill="grey"/>
   </g>
   <g id="cell12">
  <circle cx="1593.51" cy="267.101" r="10.184" stroke-width="0.5" stroke="black" fill="grey"/>
  <circle cx="1593.51" cy="267.101" r="6.16688" stroke-width="0.5" stroke="grey" fill="grey"/>
   </g>
   <g id="cell13">
  <circle cx="1769.59" cy="1866.2" r="10.2809" stroke-width="0.5" stroke="black" fill="grey"/>
  <circle cx="1769.59" cy="1866.2" r="6.21745" stroke-width="0.5" stroke="grey" fill="grey"/>
   </g>
   <g id="cell14">
  <circle cx="1544.91" cy="1667.57" r="10.5352" stroke-width="0.5" stroke="black" fill="grey"/>
  <circle cx="1544.91" cy="1667.57" r="6.34027" stroke-width="0.5" stroke="grey" fill="grey"/>
   </g>
   <g id="cell15">
  <circle cx="1042.77" cy="1527.4" r="8.40873" stroke-width="0.5" stroke="black" fill="grey"/>
  <circle cx="1042.77" cy="1527.4" r="5.05054" stroke-width="0.5" stroke="grey" fill="grey"/>
   </g>
   <g id="cell16">
  <circle cx="266.65" cy="1408.45" r="10.3307" stroke-width="0.5" stroke="black" fill="grey"/>
  <circle cx="266.65" cy="1408.45" r="6.2432" stroke-width="0.5" stroke="grey" fill="grey"/>
   </g>
   <g id="cell17">
  <circle cx="1199.11" cy="226.356" r="9.90428" stroke-width="0.5" stroke="black" fill="grey"/>
  <circle cx="1199.11" cy="226.356" r="6.01176" stroke-width="0.5" stroke="grey" fill="grey"/>
   </g>
   <g id="cell18">
  <circle cx="1878.33" cy="1551.95" r="10.1225" stroke-width="0.5" stroke="black" fill="grey"/>
  <circle cx="1878.33" cy="1551.95" r="6.13311" stroke-width="0.5" stroke="grey" fill="grey"/>
   </g>
   <g id="cell19">
  <circle cx="231.962" cy="906.951" r="10.4156" stroke-width="0.5" stroke="black" fill="grey"/>
  <circle cx="231.962" cy="906.951" r="6.2851" stroke-width="0.5" stroke="grey" fill="grey"/>
   </g>
   <g id="cell20">
  <circle cx="560.254" cy="329.485" r="8.52559" stroke-width="0.5" stroke="black" fill="grey"/>
  <circle cx="560.254" cy="329.485" r="5.14294" stroke-width="0.5" stroke="grey" fill="grey"/>
   </g>
   <g id="cell21">
  <circle cx="1465.47" cy="918.155" r="9.69491" stroke-width="0.5" stroke="black" fill="grey"/>
  <circle cx="1465.47" cy="918.155" r="5.89191" stroke-width="0.5" stroke="grey" fill="grey"/>
   </g>
   <g id="cell22">
  <circle cx="1123.73" cy="259.826" r="8.37092" stroke-width="0.5" stroke="black" fill="grey"/>
  <circle cx="1123.73" cy="259.826" r="5.03613" stroke-width="0.5" stroke="grey" fill="grey"/>
   </g>
   <g id="cell175">
  <circle cx="759.776" cy="877.31" r="8.403" stroke-width="0.5" stroke="black" fill="grey"/>
  <circle cx="759.776" cy="877.31" r="5.04863" stroke-width="0.5" stroke="grey" fill="grey"/>
   </g>
   <g id="cell24">
  <circle cx="1279.62" cy="401.07" r="9.1035" stroke-width="0.5" stroke="black" fill="grey"/>
  <circle cx="1279.62" cy="401.07" r="5.53492" stroke-width="0.5" stroke="grey" fill="grey"/>
   </g>
   <g id="cell25">
  <circle cx="788.212" cy="1910.67" r="10.4093" stroke-width="0.5" stroke="black" fill="grey"/>
  <circle cx="788.212" cy="1910.67" r="6.28224" stroke-width="0.5" stroke="grey" fill="grey"/>
   </g>
   <g id="cell26">
  <circle cx="1346.08" cy="878.975" r="8.39752" stroke-width="0.5" stroke="black" fill="grey"/>
  <circle cx="1346.08" cy="878.975" r="5.04666" stroke-width="0.5" stroke="grey" fill="grey"/>
   </g>
   <g id="cell27">
  <circle cx="1190.68" cy="881.628" r="10.391" stroke-width="0.5" stroke="black" fill="grey"/>
  <circle cx="1190.68" cy="881.628" r="6.27352" stroke-width="0.5" stroke="grey" fill="grey"/>
   </g>
   <g id="cell28">
  <circle cx="1335.95" cy="113.121" r="10.2414" stroke-width="0.5" stroke="black" fill="grey"/>
  <circle cx="1335.95" cy="113.121" r="6.19696" stroke-width="0.5" stroke="grey" fill="grey"/>
   </g>
   <g id="cell29">
  <circle cx="1989.66" cy="1295.65" r="10.0924" stroke-width="0.5" stroke="black" fill="grey"/>
  <circle cx="1989.66" cy="1295.65" r="6.11708" stroke-width="0.5" stroke="grey" fill="grey"/>
   </g>
   <g id="cell30">
  <circle cx="1348.5" cy="351.425" r="8.407" stroke-width="0.5" stroke="black" fill="grey"/>
  <circle cx="1348.5" cy="351.425" r="5.04998" stroke-width="0.5" stroke="grey" fill="grey"/>
   </g>
   <g id="cell31">
  <circle cx="704.145" cy="228.905" r="9.70067" stroke-width="0.5" stroke="black" fill="grey"/>
  <circle cx="704.145" cy="228.905" r="5.89388" stroke-width="0.5" stroke="grey" fill="grey"/>
   </g>
   <g id="cell32">
  <circle cx="622.327" cy="1203.81" r="10.4196" stroke-width="0.5" stroke="black" fill="grey"/>
  <circle cx="622.327" cy="1203.81" r="6.2873" stroke-width="0.5" stroke="grey" fill="grey"/>
   </g>
   <g id="cell33">
  <circle cx="663.615" cy="1151.35" r="10.1463" stroke-width="0.5" stroke="black" fill="grey"/>
  <circle cx="663.615" cy="1151.35" r="6.14667" stroke-width="0.5" stroke="grey" fill="grey"/>
   </g>
   <g id="cell34">
  <circle cx="896.323" cy="1230.54" r="10.4344" stroke-width="0.5" stroke="black" fill="grey"/>
  <circle cx="896.323" cy="1230.54" r="6.29443" stroke-width="0.5" stroke="grey" fill="grey"/>
   </g>
   <g id="cell35">
  <circle cx="1943.26" cy="221.169" r="10.4676" stroke-width="0.5" stroke="black" fill="grey"/>
  <circle cx="1943.26" cy="221.169" r="6.31017" stroke-width="0.5" stroke="grey" fill="grey"/>
   </g>
   <g id="cell36">
  <circle cx="358.625" cy="1294.61" r="9.75017" stroke-width="0.5" stroke="black" fill="grey"/>
  <circle cx="358.625" cy="1294.61" r="5.92291" stroke-width="0.5" stroke="grey" fill="grey"/>
   </g>
   <g id="cell37">
  <circle cx="1970.97" cy="1333.54" r="10.5352" stroke-width="0.5" stroke="black" fill="grey"/>
  <circle cx="1970.97" cy="1333.54" r="6.34027" stroke-width="0.5" stroke="grey" fill="grey"/>
   </g>
   <g id="cell38">
  <circle cx="451.496" cy="830.039" r="10.4713" stroke-width="0.5" stroke="black" fill="grey"/>
  <circle cx="451.496" cy="830.039" r="6.31189" stroke-width="0.5" stroke="grey" fill="grey"/>
   </g>
   <g id="cell39">
  <circle cx="924.614" cy="506.001" r="8.39203" stroke-width="0.5" stroke="black" fill="grey"/>
  <circle cx="924.614" cy="506.001" r="5.0446" stroke-width="0.5" stroke="grey" fill="grey"/>
   </g>
   <g id="cell40">
  <circle cx="268.298" cy="653.657" r="9.9809" stroke-width="0.5" stroke="black" fill="grey"/>
  <circle cx="268.298" cy="653.657" r="6.05479" stroke-width="0.5" stroke="grey" fill="grey"/>
   </g>
   <g id="cell41">
  <circle cx="1360.55" cy="1290.08" r="8.41129" stroke-width="0.5" stroke="black" fill="grey"/>
  <circle cx="1360.55" cy="1290.08" r="5.05131" stroke-width="0.5" stroke="grey" fill="grey"/>
   </g>
   <g id="cell42">
  <circle cx="271.314" cy="1578.04" r="10.4237" stroke-width="0.5" stroke="black" fill="grey"/>
  <circle cx="271.314" cy="1578.04" r="6.28947" stroke-width="0.5" stroke="grey" fill="grey"/>
   </g>
   <g id="cell43">
  <circle cx="1932.33" cy="744.251" r="10.3974" stroke-width="0.5" stroke="black" fill="grey"/>
  <circle cx="1932.33" cy="744.251" r="6.27656" stroke-width="0.5" stroke="grey" fill="grey"/>
   </g>
   <g id="cell44">
  <circle cx="1703.28" cy="62.9785" r="10.0785" stroke-width="0.5" stroke="black" fill="grey"/>
  <circle cx="1703.28" cy="62.9785" r="6.10924" stroke-width="0.5" stroke="grey" fill="grey"/>
   </g>
   <g id="cell45">
  <circle cx="1269.57" cy="1716.49" r="8.40895" stroke-width="0.5" stroke="black" fill="grey"/>
  <circle cx="1269.57" cy="1716.49" r="5.05061" stroke-width="0.5" stroke="grey" fill="grey"/>
   </g>
   <g id="cell46">
  <circle cx="198.797" cy="1981.48" r="10.1978" stroke-width="0.5" stroke="black" fill="grey"/>
  <circle cx="198.797" cy="1981.48" r="6.17382" stroke-width="0.5" stroke="grey" fill="grey"/>
   </g>
   <g id="cell47">
  <circle cx="1750.43" cy="919.938" r="10.4944" stroke-width="0.5" stroke="black" fill="grey"/>
  <circle cx="1750.43" cy="919.938" r="6.32248" stroke-width="0.5" stroke="grey" fill="grey"/>
   </g>
   <g id="cell48">
  <circle cx="1956.28" cy="73.4613" r="6.28088" stroke-width="0.5" stroke="black" fill="grey"/>
  <circle cx="1956.28" cy="73.4613" r="4.17484" stroke-width="0.5" stroke="black" fill="black"/>
   </g>
   <g id="cell49">
  <circle cx="943.631" cy="1479.35" r="3.52936" stroke-width="0.5" stroke="black" fill="grey"/>
  <circle cx="943.631" cy="1479.35" r="2.95708" stroke-width="0.5" stroke="black" fill="black"/>
   </g>
   <g id="cell50">
  <circle cx="148.332" cy="823.975" r="10.352" stroke-width="0.5" stroke="black" fill="red"/>
  <circle cx="148.332" cy="823.975" r="6.25411" stroke-width="0.5" stroke="red" fill="red"/>
   </g>
   <g id="cell51">
  <circle cx="1983.24" cy="281.997" r="8.37641" stroke-width="0.5" stroke="black" fill="red"/>
  <circle cx="1983.24" cy="281.997" r="5.0384" stroke-width="0.5" stroke="red" fill="red"/>
   </g>
   <g id="cell52">
  <circle cx="662.404" cy="1001.9" r="10.4027" stroke-width="0.5" stroke="black" fill="red"/>
  <circle cx="662.404" cy="1001.9" r="6.27922" stroke-width="0.5" stroke="red" fill="red"/>
   </g>
   <g id="cell53">
  <circle cx="1384.99" cy="681.798" r="10.5295" stroke-width="0.5" stroke="black" fill="red"/>
  <circle cx="1384.99" cy="681.798" r="6.33783" stroke-width="0.5" stroke="red" fill="red"/>
   </g>
   <g id="cell54">
  <circle cx="808.471" cy="1778.37" r="10.231" stroke-width="0.5" stroke="black" fill="red"/>
  <circle cx="808.471" cy="1778.37" r="6.19144" stroke-width="0.5" stroke="red" fill="red"/>
   </g>
   <g id="cell55">
  <circle cx="450.161" cy="1350.01" r="10.5189" stroke-width="0.5" stroke="black" fill="red"/>
  <circle cx="450.161" cy="1350.01" r="6.3332" stroke-width="0.5" stroke="red" fill="red"/>
   </g>
   <g id="cell56">
  <circle cx="1158.5" cy="1713.8" r="8.38823" stroke-width="0.5" stroke="black" fill="red"/>
  <circle cx="1158.5" cy="1713.8" r="5.04313" stroke-width="0.5" stroke="red" fill="red"/>
   </g>
   <g id="cell57">
  <circle cx="1002.9" cy="1101.65" r="10.5001" stroke-width="0.5" stroke="black" fill="red"/>
  <circle cx="1002.9" cy="1101.65" r="6.32505" stroke-width="0.5" stroke="red" fill="red"/>
   </g>
   <g id="cell58">
  <circle cx="118.366" cy="1806" r="9.43656" stroke-width="0.5" stroke="black" fill="red"/>
  <circle cx="118.366" cy="1806" r="5.73758" stroke-width="0.5" stroke="red" fill="red"/>
   </g>
   <g id="cell98">
  <circle cx="1831" cy="657.694" r="8.4076" stroke-width="0.5" stroke="black" fill="red"/>
  <circle cx="1831" cy="657.694" r="5.05018" stroke-width="0.5" stroke="red" fill="red"/>
   </g>
   <g id="cell60">
  <circle cx="681.444" cy="30.9411" r="10.1214" stroke-width="0.5" stroke="black" fill="red"/>
  <circle cx="681.444" cy="30.9411" r="6.13275" stroke-width="0.5" stroke="red" fill="red"/>
   </g>
   <g id="cell61">
  <circle cx="1670.86" cy="262.439" r="9.47234" stroke-width="0.5" stroke="black" fill="red"/>
  <circle cx="1670.86" cy="262.439" r="5.75817" stroke-width="0.5" stroke="red" fill="red"/>
   </g>
   <g id="cell62">
  <circle cx="1409.66" cy="1727.41" r="10.4084" stroke-width="0.5" stroke="black" fill="red"/>
  <circle cx="1409.66" cy="1727.41" r="6.28198" stroke-width="0.5" stroke="red" fill="red"/>
   </g>
   <g id="cell63">
  <circle cx="565.889" cy="353.741" r="9.66965" stroke-width="0.5" stroke="black" fill="red"/>
  <circle cx="565.889" cy="353.741" r="5.87692" stroke-width="0.5" stroke="red" fill="red"/>
   </g>
   <g id="cell64">
  <circle cx="1224.83" cy="1119.8" r="9.94293" stroke-width="0.5" stroke="black" fill="red"/>
  <circle cx="1224.83" cy="1119.8" r="6.03372" stroke-width="0.5" stroke="red" fill="red"/>
   </g>
   <g id="cell65">
  <circle cx="319.948" cy="1647.21" r="10.015" stroke-width="0.5" stroke="black" fill="red"/>
  <circle cx="319.948" cy="1647.21" r="6.07401" stroke-width="0.5" stroke="red" fill="red"/>
   </g>
   <g id="cell66">
  <circle cx="26.5902" cy="307.484" r="9.9423" stroke-width="0.5" stroke="black" fill="red"/>
  <circle cx="26.5902" cy="307.484" r="6.03351" stroke-width="0.5" stroke="red" fill="red"/>
   </g>
   <g id="cell67">
  <circle cx="1095.39" cy="529.02" r="9.76784" stroke-width="0.5" stroke="black" fill="red"/>
  <circle cx="1095.39" cy="529.02" r="5.93467" stroke-width="0.5" stroke="red" fill="red"/>
   </g>
   <g id="cell68">
  <circle cx="1424.57" cy="589.353" r="10.1612" stroke-width="0.5" stroke="black" fill="red"/>
  <circle cx="1424.57" cy="589.353" r="6.15429" stroke-width="0.5" stroke="red" fill="red"/>
   </g>
   <g id="cell69">
  <circle cx="792.93" cy="503.741" r="8.60894" stroke-width="0.5" stroke="black" fill="red"/>
  <circle cx="792.93" cy="503.741" r="5.19899" stroke-width="0.5" stroke="red" fill="red"/>
   </g>
   <g id="cell70">
  <circle cx="1086.9" cy="765.604" r="10.443" stroke-width="0.5" stroke="black" fill="red"/>
  <circle cx="1086.9" cy="765.604" r="6.29863" stroke-width="0.5" stroke="red" fill="red"/>
   </g>
   <g id="cell71">
  <circle cx="1718.35" cy="1187.77" r="10.0943" stroke-width="0.5" stroke="black" fill="red"/>
  <circle cx="1718.35" cy="1187.77" r="6.11766" stroke-width="0.5" stroke="red" fill="red"/>
   </g>
   <g id="cell72">
  <circle cx="467.169" cy="1768.12" r="8.4325" stroke-width="0.5" stroke="black" fill="red"/>
  <circle cx="467.169" cy="1768.12" r="5.06552" stroke-width="0.5" stroke="red" fill="red"/>
   </g>
   <g id="cell73">
  <circle cx="1339.89" cy="831.399" r="10.456" stroke-width="0.5" stroke="black" fill="red"/>
  <circle cx="1339.89" cy="831.399" r="6.30474" stroke-width="0.5" stroke="red" fill="red"/>
   </g>
   <g id="cell74">
  <circle cx="1758.57" cy="1849.86" r="8.41002" stroke-width="0.5" stroke="black" fill="red"/>
  <circle cx="1758.57" cy="1849.86" r="5.05093" stroke-width="0.5" stroke="red" fill="red"/>
   </g>
   <g id="cell75">
  <circle cx="301.101" cy="530.616" r="10.4689" stroke-width="0.5" stroke="black" fill="red"/>
  <circle cx="301.101" cy="530.616" r="6.31053" stroke-width="0.5" stroke="red" fill="red"/>
   </g>
   <g id="cell76">
  <circle cx="1609.96" cy="794.578" r="8.40745" stroke-width="0.5" stroke="black" fill="red"/>
  <circle cx="1609.96" cy="794.578" r="5.05013" stroke-width="0.5" stroke="red" fill="red"/>
   </g>
   <g id="cell77">
  <circle cx="1424.72" cy="1795.73" r="10.4033" stroke-width="0.5" stroke="black" fill="red"/>
  <circle cx="1424.72" cy="1795.73" r="6.27943" stroke-width="0.5" stroke="red" fill="red"/>
   </g>
   <g id="cell78">
  <circle cx="1142.98" cy="583.504" r="9.58048" stroke-width="0.5" stroke="black" fill="red"/>
  <circle cx="1142.98" cy="583.504" r="5.82569" stroke-width="0.5" stroke="red" fill="red"/>
   </g>
   <g id="cell79">
  <circle cx="1952.76" cy="1413.52" r="10.0462" stroke-width="0.5" stroke="black" fill="red"/>
  <circle cx="1952.76" cy="1413.52" r="6.09172" stroke-width="0.5" stroke="red" fill="red"/>
   </g>
   <g id="cell80">
  <circle cx="1440.72" cy="1274.01" r="10.2095" stroke-width="0.5" stroke="black" fill="red"/>
  <circle cx="1440.72" cy="1274.01" r="6.17998" stroke-width="0.5" stroke="red" fill="red"/>
   </g>
   <g id="cell81">
  <circle cx="1130.24" cy="1897.32" r="9.59125" stroke-width="0.5" stroke="black" fill="red"/>
  <circle cx="1130.24" cy="1897.32" r="5.82962" stroke-width="0.5" stroke="red" fill="red"/>
   </g>
   <g id="cell82">
  <circle cx="1235.11" cy="825.871" r="10.2315" stroke-width="0.5" stroke="black" fill="red"/>
  <circle cx="1235.11" cy="825.871" r="6.19161" stroke-width="0.5" stroke="red" fill="red"/>
   </g>
   <g id="cell83">
  <circle cx="1236.72" cy="1218.63" r="9.7508" stroke-width="0.5" stroke="black" fill="red"/>
  <circle cx="1236.72" cy="1218.63" r="5.92311" stroke-width="0.5" stroke="red" fill="red"/>
   </g>
   <g id="cell84">
  <circle cx="42.0043" cy="949.989" r="10.5387" stroke-width="0.5" stroke="black" fill="red"/>
  <circle cx="42.0043" cy="949.989" r="6.34177" stroke-width="0.5" stroke="red" fill="red"/>
   </g>
   <g id="cell85">
  <circle cx="1379.37" cy="1268.97" r="9.07376" stroke-width="0.5" stroke="black" fill="red"/>
  <circle cx="1379.37" cy="1268.97" r="5.51393" stroke-width="0.5" stroke="red" fill="red"/>
   </g>
   <g id="cell86">
  <circle cx="566.1" cy="819.982" r="9.96128" stroke-width="0.5" stroke="black" fill="red"/>
  <circle cx="566.1" cy="819.982" r="6.04414" stroke-width="0.5" stroke="red" fill="red"/>
   </g>
   <g id="cell87">
  <circle cx="1486.16" cy="872.672" r="8.39752" stroke-width="0.5" stroke="black" fill="red"/>
  <circle cx="1486.16" cy="872.672" r="5.04666" stroke-width="0.5" stroke="red" fill="red"/>
   </g>
   <g id="cell88">
  <circle cx="264.512" cy="225.905" r="8.54193" stroke-width="0.5" stroke="black" fill="red"/>
  <circle cx="264.512" cy="225.905" r="5.14874" stroke-width="0.5" stroke="red" fill="red"/>
   </g>
   <g id="cell89">
  <circle cx="207.772" cy="1182.16" r="8.88589" stroke-width="0.5" stroke="black" fill="red"/>
  <circle cx="207.772" cy="1182.16" r="5.38893" stroke-width="0.5" stroke="red" fill="red"/>
   </g>
   <g id="cell90">
  <circle cx="1168.69" cy="1118.36" r="9.53016" stroke-width="0.5" stroke="black" fill="red"/>
  <circle cx="1168.69" cy="1118.36" r="5.79386" stroke-width="0.5" stroke="red" fill="red"/>
   </g>
   <g id="cell91">
  <circle cx="50.8326" cy="1282.5" r="10.2714" stroke-width="0.5" stroke="black" fill="red"/>
  <circle cx="50.8326" cy="1282.5" r="6.21255" stroke-width="0.5" stroke="red" fill="red"/>
   </g>
   <g id="cell99">
  <circle cx="922.019" cy="1977.08" r="10.5081" stroke-width="0.5" stroke="black" fill="red"/>
  <circle cx="922.019" cy="1977.08" r="6.32864" stroke-width="0.5" stroke="red" fill="red"/>
   </g>
   <g id="cell93">
  <circle cx="392.984" cy="1768.31" r="10.3801" stroke-width="0.5" stroke="black" fill="red"/>
  <circle cx="392.984" cy="1768.31" r="6.26788" stroke-width="0.5" stroke="red" fill="red"/>
   </g>
   <g id="cell94">
  <circle cx="806.332" cy="214.999" r="10.3452" stroke-width="0.5" stroke="black" fill="red"/>
  <circle cx="806.332" cy="214.999" r="6.25062" stroke-width="0.5" stroke="red" fill="red"/>
   </g>
   <g id="cell95">
  <circle cx="1942.75" cy="1775.18" r="10.4296" stroke-width="0.5" stroke="black" fill="red"/>
  <circle cx="1942.75" cy="1775.18" r="6.29211" stroke-width="0.5" stroke="red" fill="red"/>
   </g>
   <g id="cell96">
  <circle cx="1682.87" cy="1068.91" r="8.39316" stroke-width="0.5" stroke="black" fill="red"/>
  <circle cx="1682.87" cy="1068.91" r="5.04503" stroke-width="0.5" stroke="red" fill="red"/>
   </g>
   <g id="cell97">
  <circle cx="917.254" cy="175.414" r="10.3849" stroke-width="0.5" stroke="black" fill="red"/>
  <circle cx="917.254" cy="175.414" r="6.27054" stroke-width="0.5" stroke="red" fill="red"/>
   </g>
   <g id="cell101">
  <circle cx="1339.23" cy="1256.07" r="10.503" stroke-width="0.5" stroke="black" fill="grey"/>
  <circle cx="1339.23" cy="1256.07" r="6.32634" stroke-width="0.5" stroke="grey" fill="grey"/>
   </g>
   <g id="cell102">
  <circle cx="1057.11" cy="1774.52" r="10.3074" stroke-width="0.5" stroke="black" fill="grey"/>
  <circle cx="1057.11" cy="1774.52" r="6.23111" stroke-width="0.5" stroke="grey" fill="grey"/>
   </g>
   <g id="cell103">
  <circle cx="1257.28" cy="1260.63" r="10.4884" stroke-width="0.5" stroke="black" fill="red"/>
  <circle cx="1257.28" cy="1260.63" r="6.31973" stroke-width="0.5" stroke="red" fill="red"/>
   </g>
   <g id="cell104">
  <circle cx="797.127" cy="1872.47" r="10.5132" stroke-width="0.5" stroke="black" fill="grey"/>
  <circle cx="797.127" cy="1872.47" r="6.33088" stroke-width="0.5" stroke="grey" fill="grey"/>
   </g>
   <g id="cell105">
  <circle cx="1158.93" cy="773.481" r="10.5132" stroke-width="0.5" stroke="black" fill="grey"/>
  <circle cx="1158.93" cy="773.481" r="6.33088" stroke-width="0.5" stroke="grey" fill="grey"/>
   </g>
   <g id="cell106">
  <circle cx="437.9" cy="1765.73" r="10.4716" stroke-width="0.5" stroke="black" fill="red"/>
  <circle cx="437.9" cy="1765.73" r="6.31197" stroke-width="0.5" stroke="red" fill="red"/>
   </g>
   <g id="cell107">
  <circle cx="920.602" cy="1252.54" r="10.1623" stroke-width="0.5" stroke="black" fill="grey"/>
  <circle cx="920.602" cy="1252.54" r="6.15461" stroke-width="0.5" stroke="grey" fill="grey"/>
   </g>
   <g id="cell108">
  <circle cx="1769.64" cy="970.392" r="10.4344" stroke-width="0.5" stroke="black" fill="grey"/>
  <circle cx="1769.64" cy="970.392" r="6.29442" stroke-width="0.5" stroke="grey" fill="grey"/>
   </g>
   <g id="cell109">
  <circle cx="1768.44" cy="1170.88" r="10.0324" stroke-width="0.5" stroke="black" fill="red"/>
  <circle cx="1768.44" cy="1170.88" r="6.08351" stroke-width="0.5" stroke="red" fill="red"/>
   </g>
   <g id="cell110">
  <circle cx="990.47" cy="1989.06" r="10.0943" stroke-width="0.5" stroke="black" fill="red"/>
  <circle cx="990.47" cy="1989.06" r="6.11765" stroke-width="0.5" stroke="red" fill="red"/>
   </g>
   <g id="cell111">
  <circle cx="1941.41" cy="1758.65" r="8.54286" stroke-width="0.5" stroke="black" fill="red"/>
  <circle cx="1941.41" cy="1758.65" r="5.14902" stroke-width="0.5" stroke="red" fill="red"/>
   </g>
   <g id="cell112">
  <circle cx="1005.2" cy="1072.76" r="10.4678" stroke-width="0.5" stroke="black" fill="red"/>
  <circle cx="1005.2" cy="1072.76" r="6.31023" stroke-width="0.5" stroke="red" fill="red"/>
   </g>
   <g id="cell113">
  <circle cx="677.601" cy="206.878" r="10.4091" stroke-width="0.5" stroke="black" fill="grey"/>
  <circle cx="677.601" cy="206.878" r="6.28219" stroke-width="0.5" stroke="grey" fill="grey"/>
   </g>
   <g id="cell114">
  <circle cx="629.098" cy="1226.08" r="8.41088" stroke-width="0.5" stroke="black" fill="grey"/>
  <circle cx="629.098" cy="1226.08" r="5.05119" stroke-width="0.5" stroke="grey" fill="grey"/>
   </g>
   <g id="cell115">
  <circle cx="1727.38" cy="1934.96" r="10.367" stroke-width="0.5" stroke="black" fill="grey"/>
  <circle cx="1727.38" cy="1934.96" r="6.26139" stroke-width="0.5" stroke="grey" fill="grey"/>
   </g>
   <g id="cell116">
  <circle cx="292.009" cy="687.235" r="9.3414" stroke-width="0.5" stroke="black" fill="grey"/>
  <circle cx="292.009" cy="687.235" r="5.67831" stroke-width="0.5" stroke="grey" fill="grey"/>
   </g>
   <g id="cell117">
  <circle cx="1909.58" cy="1575.35" r="10.4342" stroke-width="0.5" stroke="black" fill="grey"/>
  <circle cx="1909.58" cy="1575.35" r="6.29437" stroke-width="0.5" stroke="grey" fill="grey"/>
   </g>
   <g id="cell118">
  <circle cx="1310.92" cy="862.19" r="9.64794" stroke-width="0.5" stroke="black" fill="red"/>
  <circle cx="1310.92" cy="862.19" r="5.86288" stroke-width="0.5" stroke="red" fill="red"/>
   </g>
   <g id="cell119">
  <circle cx="1278.82" cy="819.99" r="10.2986" stroke-width="0.5" stroke="black" fill="red"/>
  <circle cx="1278.82" cy="819.99" r="6.22664" stroke-width="0.5" stroke="red" fill="red"/>
   </g>
   <g id="cell120">
  <circle cx="731.816" cy="1676.38" r="10.3533" stroke-width="0.5" stroke="black" fill="grey"/>
  <circle cx="731.816" cy="1676.38" r="6.25451" stroke-width="0.5" stroke="grey" fill="grey"/>
   </g>
   <g id="cell121">
  <circle cx="463.762" cy="880.905" r="10.4195" stroke-width="0.5" stroke="black" fill="grey"/>
  <circle cx="463.762" cy="880.905" r="6.28727" stroke-width="0.5" stroke="grey" fill="grey"/>
   </g>
   <g id="cell122">
  <circle cx="1917.98" cy="252.105" r="10.3311" stroke-width="0.5" stroke="black" fill="grey"/>
  <circle cx="1917.98" cy="252.105" r="6.24332" stroke-width="0.5" stroke="grey" fill="grey"/>
   </g>
   <g id="cell123">
  <circle cx="95.4775" cy="1240.72" r="10.4293" stroke-width="0.5" stroke="black" fill="red"/>
  <circle cx="95.4775" cy="1240.72" r="6.29203" stroke-width="0.5" stroke="red" fill="red"/>
   </g>
   <g id="cell124">
  <circle cx="1399.68" cy="1794.69" r="10.4517" stroke-width="0.5" stroke="black" fill="red"/>
  <circle cx="1399.68" cy="1794.69" r="6.30275" stroke-width="0.5" stroke="red" fill="red"/>
   </g>
   <g id="cell125">
  <circle cx="1456.97" cy="1341.62" r="10.2896" stroke-width="0.5" stroke="black" fill="red"/>
  <circle cx="1456.97" cy="1341.62" r="6.22204" stroke-width="0.5" stroke="red" fill="red"/>
   </g>
   <g id="cell126">
  <circle cx="1189.49" cy="808.192" r="10.3599" stroke-width="0.5" stroke="black" fill="red"/>
  <circle cx="1189.49" cy="808.192" r="6.25791" stroke-width="0.5" stroke="red" fill="red"/>
   </g>
   <g id="cell127">
  <circle cx="383.503" cy="1283.01" r="8.92622" stroke-width="0.5" stroke="black" fill="grey"/>
  <circle cx="383.503" cy="1283.01" r="5.41549" stroke-width="0.5" stroke="grey" fill="grey"/>
   </g>
   <g id="cell128">
  <circle cx="1719.86" cy="1216.24" r="9.37492" stroke-width="0.5" stroke="black" fill="grey"/>
  <circle cx="1719.86" cy="1216.24" r="5.69897" stroke-width="0.5" stroke="grey" fill="grey"/>
   </g>
   <g id="cell129">
  <circle cx="1664.01" cy="316.54" r="10.4515" stroke-width="0.5" stroke="black" fill="red"/>
  <circle cx="1664.01" cy="316.54" r="6.30268" stroke-width="0.5" stroke="red" fill="red"/>
   </g>
   <g id="cell130">
  <circle cx="245.332" cy="1122.6" r="10.4031" stroke-width="0.5" stroke="black" fill="red"/>
  <circle cx="245.332" cy="1122.6" r="6.27936" stroke-width="0.5" stroke="red" fill="red"/>
   </g>
   <g id="cell131">
  <circle cx="228.317" cy="1452.8" r="10.2711" stroke-width="0.5" stroke="black" fill="grey"/>
  <circle cx="228.317" cy="1452.8" r="6.21246" stroke-width="0.5" stroke="grey" fill="grey"/>
   </g>
   <g id="cell132">
  <circle cx="1965.3" cy="805.368" r="10.4139" stroke-width="0.5" stroke="black" fill="grey"/>
  <circle cx="1965.3" cy="805.368" r="6.28462" stroke-width="0.5" stroke="grey" fill="grey"/>
   </g>
   <g id="cell133">
  <circle cx="273.108" cy="185.254" r="10.2614" stroke-width="0.5" stroke="black" fill="red"/>
  <circle cx="273.108" cy="185.254" r="6.20745" stroke-width="0.5" stroke="red" fill="red"/>
   </g>
   <g id="cell134">
  <circle cx="1372.4" cy="181.435" r="10.4428" stroke-width="0.5" stroke="black" fill="grey"/>
  <circle cx="1372.4" cy="181.435" r="6.29856" stroke-width="0.5" stroke="grey" fill="grey"/>
   </g>
   <g id="cell135">
  <circle cx="183.09" cy="1955.75" r="10.3527" stroke-width="0.5" stroke="black" fill="grey"/>
  <circle cx="183.09" cy="1955.75" r="6.25436" stroke-width="0.5" stroke="grey" fill="grey"/>
   </g>
   <g id="cell136">
  <circle cx="1687.86" cy="1907.17" r="9.98032" stroke-width="0.5" stroke="black" fill="red"/>
  <circle cx="1687.86" cy="1907.17" r="6.05461" stroke-width="0.5" stroke="red" fill="red"/>
   </g>
   <g id="cell137">
  <circle cx="762.592" cy="1791.08" r="10.3855" stroke-width="0.5" stroke="black" fill="red"/>
  <circle cx="762.592" cy="1791.08" r="6.2707" stroke-width="0.5" stroke="red" fill="red"/>
   </g>
   <g id="cell138">
  <circle cx="280.753" cy="1605.23" r="9.67394" stroke-width="0.5" stroke="black" fill="red"/>
  <circle cx="280.753" cy="1605.23" r="5.87839" stroke-width="0.5" stroke="red" fill="red"/>
   </g>
   <g id="cell139">
  <circle cx="1404.81" cy="1675.5" r="10.4288" stroke-width="0.5" stroke="black" fill="red"/>
  <circle cx="1404.81" cy="1675.5" r="6.2919" stroke-width="0.5" stroke="red" fill="red"/>
   </g>
   <g id="cell140">
  <circle cx="1583.39" cy="1021.4" r="10.3305" stroke-width="0.5" stroke="black" fill="grey"/>
  <circle cx="1583.39" cy="1021.4" r="6.24312" stroke-width="0.5" stroke="grey" fill="grey"/>
   </g>
   <g id="cell141">
  <circle cx="1666.91" cy="37.4222" r="10.3227" stroke-width="0.5" stroke="black" fill="grey"/>
  <circle cx="1666.91" cy="37.4222" r="6.23915" stroke-width="0.5" stroke="grey" fill="grey"/>
   </g>
   <g id="cell142">
  <circle cx="1420.22" cy="619.534" r="10.22" stroke-width="0.5" stroke="black" fill="red"/>
  <circle cx="1420.22" cy="619.534" r="6.18568" stroke-width="0.5" stroke="red" fill="red"/>
   </g>
   <g id="cell143">
  <circle cx="649.621" cy="947.405" r="10.3453" stroke-width="0.5" stroke="black" fill="red"/>
  <circle cx="649.621" cy="947.405" r="6.25065" stroke-width="0.5" stroke="red" fill="red"/>
   </g>
   <g id="cell144">
  <circle cx="1200" cy="249.051" r="8.40953" stroke-width="0.5" stroke="black" fill="grey"/>
  <circle cx="1200" cy="249.051" r="5.05079" stroke-width="0.5" stroke="grey" fill="grey"/>
   </g>
   <g id="cell145">
  <circle cx="264.518" cy="1544.16" r="10.2411" stroke-width="0.5" stroke="black" fill="grey"/>
  <circle cx="264.518" cy="1544.16" r="6.19686" stroke-width="0.5" stroke="grey" fill="grey"/>
   </g>
   <g id="cell146">
  <circle cx="747.906" cy="190.447" r="9.59132" stroke-width="0.5" stroke="black" fill="red"/>
  <circle cx="747.906" cy="190.447" r="5.82965" stroke-width="0.5" stroke="red" fill="red"/>
   </g>
   <g id="cell147">
  <circle cx="1150.6" cy="1875.64" r="9.99739" stroke-width="0.5" stroke="black" fill="red"/>
  <circle cx="1150.6" cy="1875.64" r="6.0643" stroke-width="0.5" stroke="red" fill="red"/>
   </g>
   <g id="cell148">
  <circle cx="1179.28" cy="912.876" r="9.47157" stroke-width="0.5" stroke="black" fill="grey"/>
  <circle cx="1179.28" cy="912.876" r="5.75792" stroke-width="0.5" stroke="grey" fill="grey"/>
   </g>
   <g id="cell149">
  <circle cx="669.365" cy="51.751" r="10.3659" stroke-width="0.5" stroke="black" fill="red"/>
  <circle cx="669.365" cy="51.751" r="6.26104" stroke-width="0.5" stroke="red" fill="red"/>
   </g>
   <g id="cell150">
  <circle cx="1193.46" cy="1076.64" r="10.2887" stroke-width="0.5" stroke="black" fill="red"/>
  <circle cx="1193.46" cy="1076.64" r="6.22177" stroke-width="0.5" stroke="red" fill="red"/>
   </g>
   <g id="cell151">
  <circle cx="950.469" cy="206.206" r="8.40915" stroke-width="0.5" stroke="black" fill="red"/>
  <circle cx="950.469" cy="206.206" r="5.05067" stroke-width="0.5" stroke="red" fill="red"/>
   </g>
   <g id="cell152">
  <circle cx="1202.13" cy="1709.55" r="9.33987" stroke-width="0.5" stroke="black" fill="grey"/>
  <circle cx="1202.13" cy="1709.55" r="5.67781" stroke-width="0.5" stroke="grey" fill="grey"/>
   </g>
   <g id="cell153">
  <circle cx="938.405" cy="1496.43" r="10.1212" stroke-width="0.5" stroke="black" fill="grey"/>
  <circle cx="938.405" cy="1496.43" r="6.1327" stroke-width="0.5" stroke="grey" fill="grey"/>
   </g>
   <g id="cell154">
  <circle cx="175.467" cy="838.321" r="10.078" stroke-width="0.5" stroke="black" fill="red"/>
  <circle cx="175.467" cy="838.321" r="6.10905" stroke-width="0.5" stroke="red" fill="red"/>
   </g>
   <g id="cell155">
  <circle cx="585.088" cy="801.805" r="10.2701" stroke-width="0.5" stroke="black" fill="red"/>
  <circle cx="585.088" cy="801.805" r="6.21217" stroke-width="0.5" stroke="red" fill="red"/>
   </g>
   <g id="cell156">
  <circle cx="1054.4" cy="1528.03" r="1.23441" stroke-width="0.5" stroke="black" fill="grey"/>
  <circle cx="1054.4" cy="1528.03" r="1.22887" stroke-width="0.5" stroke="black" fill="black"/>
   </g>
   <g id="cell157">
  <circle cx="1256.54" cy="1296.62" r="10.2883" stroke-width="0.5" stroke="black" fill="grey"/>
  <circle cx="1256.54" cy="1296.62" r="6.22164" stroke-width="0.5" stroke="grey" fill="grey"/>
   </g>
   <g id="cell158">
  <circle cx="1949.19" cy="1321.81" r="8.84397" stroke-width="0.5" stroke="black" fill="grey"/>
  <circle cx="1949.19" cy="1321.81" r="5.36157" stroke-width="0.5" stroke="grey" fill="grey"/>
   </g>
   <g id="cell159">
  <circle cx="65.4955" cy="270.46" r="10.2698" stroke-width="0.5" stroke="black" fill="red"/>
  <circle cx="65.4955" cy="270.46" r="6.21207" stroke-width="0.5" stroke="red" fill="red"/>
   </g>
   <g id="cell160">
  <circle cx="1968.47" cy="1485.53" r="9.9787" stroke-width="0.5" stroke="black" fill="red"/>
  <circle cx="1968.47" cy="1485.53" r="6.05409" stroke-width="0.5" stroke="red" fill="red"/>
   </g>
   <g id="cell161">
  <circle cx="1805.85" cy="666.535" r="10.1599" stroke-width="0.5" stroke="black" fill="red"/>
  <circle cx="1805.85" cy="666.535" r="6.15384" stroke-width="0.5" stroke="red" fill="red"/>
   </g>
   <g id="cell162">
  <circle cx="1631.37" cy="744.925" r="8.40745" stroke-width="0.5" stroke="black" fill="red"/>
  <circle cx="1631.37" cy="744.925" r="5.05013" stroke-width="0.5" stroke="red" fill="red"/>
   </g>
   <g id="cell163">
  <circle cx="1092.87" cy="1200" r="1.39067" stroke-width="0.5" stroke="black" fill="grey"/>
  <circle cx="1092.87" cy="1200" r="1.37996" stroke-width="0.5" stroke="black" fill="black"/>
   </g>
   <g id="cell164">
  <circle cx="835.181" cy="522.66" r="10.106" stroke-width="0.5" stroke="black" fill="red"/>
  <circle cx="835.181" cy="522.66" r="6.12467" stroke-width="0.5" stroke="red" fill="red"/>
   </g>
   <g id="cell165">
  <circle cx="1596.48" cy="157.627" r="9.37239" stroke-width="0.5" stroke="black" fill="grey"/>
  <circle cx="1596.48" cy="157.627" r="5.69812" stroke-width="0.5" stroke="grey" fill="grey"/>
   </g>
   <g id="cell166">
  <circle cx="1384.02" cy="359.066" r="10.1595" stroke-width="0.5" stroke="black" fill="grey"/>
  <circle cx="1384.02" cy="359.066" r="6.1537" stroke-width="0.5" stroke="grey" fill="grey"/>
   </g>
   <g id="cell167">
  <circle cx="1659.88" cy="272.618" r="8.80251" stroke-width="0.5" stroke="black" fill="grey"/>
  <circle cx="1659.88" cy="272.618" r="5.3341" stroke-width="0.5" stroke="grey" fill="grey"/>
   </g>
   <g id="cell168">
  <circle cx="712.692" cy="1215.01" r="8.4065" stroke-width="0.5" stroke="black" fill="grey"/>
  <circle cx="712.692" cy="1215.01" r="5.04982" stroke-width="0.5" stroke="grey" fill="grey"/>
   </g>
   <g id="cell169">
  <circle cx="1940.45" cy="90.2453" r="10.0126" stroke-width="0.5" stroke="black" fill="grey"/>
  <circle cx="1940.45" cy="90.2453" r="6.07321" stroke-width="0.5" stroke="grey" fill="grey"/>
   </g>
   <g id="cell170">
  <circle cx="105.871" cy="1901.35" r="8.40596" stroke-width="0.5" stroke="black" fill="grey"/>
  <circle cx="105.871" cy="1901.35" r="5.04964" stroke-width="0.5" stroke="grey" fill="grey"/>
   </g>
   <g id="cell171">
  <circle cx="1168" cy="1097.15" r="9.77074" stroke-width="0.5" stroke="black" fill="red"/>
  <circle cx="1168" cy="1097.15" r="5.9357" stroke-width="0.5" stroke="red" fill="red"/>
   </g>
   <g id="cell172">
  <circle cx="157.447" cy="1839.65" r="9.3368" stroke-width="0.5" stroke="black" fill="red"/>
  <circle cx="157.447" cy="1839.65" r="5.67674" stroke-width="0.5" stroke="red" fill="red"/>
   </g>
   <g id="cell173">
  <circle cx="535.376" cy="353.507" r="8.40427" stroke-width="0.5" stroke="black" fill="red"/>
  <circle cx="535.376" cy="353.507" r="5.04906" stroke-width="0.5" stroke="red" fill="red"/>
   </g>
   <g id="cell174">
  <circle cx="1457.34" cy="948.602" r="8.40327" stroke-width="0.5" stroke="black" fill="grey"/>
  <circle cx="1457.34" cy="948.602" r="5.04872" stroke-width="0.5" stroke="grey" fill="grey"/>
   </g>
   <g id="cell176">
  <circle cx="1137.27" cy="549.351" r="8.40185" stroke-width="0.5" stroke="black" fill="red"/>
  <circle cx="1137.27" cy="549.351" r="5.04822" stroke-width="0.5" stroke="red" fill="red"/>
   </g>
   <g id="cell177">
  <circle cx="1425.37" cy="1284.68" r="9.46266" stroke-width="0.5" stroke="black" fill="red"/>
  <circle cx="1425.37" cy="1284.68" r="5.75469" stroke-width="0.5" stroke="red" fill="red"/>
   </g>
   <g id="cell178">
  <circle cx="1503.46" cy="888.843" r="8.39752" stroke-width="0.5" stroke="black" fill="red"/>
  <circle cx="1503.46" cy="888.843" r="5.04666" stroke-width="0.5" stroke="red" fill="red"/>
   </g>
   <g id="cell179">
  <circle cx="1372.41" cy="893.691" r="9.52375" stroke-width="0.5" stroke="black" fill="grey"/>
  <circle cx="1372.41" cy="893.691" r="5.79148" stroke-width="0.5" stroke="grey" fill="grey"/>
   </g>
   <g id="cell180">
  <circle cx="1161.3" cy="573.82" r="8.39523" stroke-width="0.5" stroke="black" fill="red"/>
  <circle cx="1161.3" cy="573.82" r="5.04581" stroke-width="0.5" stroke="red" fill="red"/>
   </g>
   <g id="cell181">
  <circle cx="191.988" cy="1255.12" r="9.39531" stroke-width="0.5" stroke="black" fill="grey"/>
  <circle cx="191.988" cy="1255.12" r="5.71454" stroke-width="0.5" stroke="grey" fill="grey"/>
   </g>
   <g id="cell182">
  <circle cx="1660.62" cy="1072.22" r="8.39316" stroke-width="0.5" stroke="black" fill="red"/>
  <circle cx="1660.62" cy="1072.22" r="5.04503" stroke-width="0.5" stroke="red" fill="red"/>
   </g>
   <g id="cell183">
  <circle cx="588.427" cy="328.794" r="8.39316" stroke-width="0.5" stroke="black" fill="grey"/>
  <circle cx="588.427" cy="328.794" r="5.04503" stroke-width="0.5" stroke="grey" fill="grey"/>
   </g>
   <g id="cell184">
  <circle cx="941.135" cy="533.882" r="8.78886" stroke-width="0.5" stroke="black" fill="grey"/>
  <circle cx="941.135" cy="533.882" r="5.32899" stroke-width="0.5" stroke="grey" fill="grey"/>
   </g>
   <g id="cell185">
  <circle cx="914.895" cy="546.573" r="8.38957" stroke-width="0.5" stroke="black" fill="grey"/>
  <circle cx="914.895" cy="546.573" r="5.04365" stroke-width="0.5" stroke="grey" fill="grey"/>
   </g>
   <g id="cell186">
  <circle cx="1138.91" cy="1719.24" r="8.38823" stroke-width="0.5" stroke="black" fill="red"/>
  <circle cx="1138.91" cy="1719.24" r="5.04313" stroke-width="0.5" stroke="red" fill="red"/>
   </g>
   <g id="cell187">
  <circle cx="1310.6" cy="401.844" r="8.98611" stroke-width="0.5" stroke="black" fill="grey"/>
  <circle cx="1310.6" cy="401.844" r="5.45998" stroke-width="0.5" stroke="grey" fill="grey"/>
   </g>
   <g id="cell188">
  <circle cx="1979.48" cy="267.092" r="8.37641" stroke-width="0.5" stroke="black" fill="red"/>
  <circle cx="1979.48" cy="267.092" r="5.0384" stroke-width="0.5" stroke="red" fill="red"/>
   </g>
   <g id="cell189">
  <circle cx="1112.31" cy="270.964" r="8.37092" stroke-width="0.5" stroke="black" fill="grey"/>
  <circle cx="1112.31" cy="270.964" r="5.03613" stroke-width="0.5" stroke="grey" fill="grey"/>
   </g>
  </g>
 </g>
  <rect x="1750" y="2070" width="200" height="20" stroke-width="4" stroke="rgb(255,255,255)" fill="rgb(0,0,0)"/>
  <text x="1762.5" y="2057.5"
   font-family="Arial" font-size="50" fill="black" >
   200 &#956;m
  </text>
  <text x="50" y="2090"
   font-family="Arial" font-size="37.5" fill="black" >
   0 days, 0 hours, 0 minutes, and 38.6257 seconds
  </text>
  <rect x="0" y="140" width="2000" height="2000" stroke-width="4" stroke="rgb(0,0,0)" fill="none"/>
</svg>
