<?xml version="1.0" encoding="UTF-8" standalone="no"?>
<!-- Created with PhysiCell (http://PhysiCell.MathCancer.org/) -->
<svg 
 xmlns:dc="http://purl.org/dc/elements/1.1/" 
 xmlns:cc="http://creativecommons.org/ns#" 
 xmlns:rdf="http://www.w3.org/1999/02/22-rdf-syntax-ns#" 
 xmlns:svg="http://www.w3.org/2000/svg" 
 xmlns="http://www.w3.org/2000/svg" 
 version="1.1" 
 width="2000" 
 height="2140" 
 id="svg2">
  <rect x="0" y="0" width="2000" height="2140" stroke-width="4" stroke="white" fill="white"/>
  <text x="25" y="60"
   font-family="Arial" font-size="50" fill="black" >
   Current time: 0 days, 8 hours, and 20.00 minutes, z = 0.00 &#956;m
  </text>
  <text x="25" y="115"
   font-family="Arial" font-size="47.5" fill="black" >
   100 agents
  </text>
 <g id="tissue" 
    transform="translate(0,2140) scale(1,-1)">
  <g id="ECM">
  </g>
  <g id="cells">
   <g id="cell0">
  <circle cx="1123.38" cy="1163.64" r="9.82189" stroke-width="0.5" stroke="black" fill="grey"/>
  <circle cx="1123.38" cy="1163.64" r="5.96395" stroke-width="0.5" stroke="grey" fill="grey"/>
   </g>
   <g id="cell1">
  <circle cx="1688.01" cy="1166.7" r="9.44256" stroke-width="0.5" stroke="black" fill="grey"/>
  <circle cx="1688.01" cy="1166.7" r="5.73955" stroke-width="0.5" stroke="grey" fill="grey"/>
   </g>
   <g id="cell2">
  <circle cx="1127.38" cy="1713.23" r="10.0806" stroke-width="0.5" stroke="black" fill="grey"/>
  <circle cx="1127.38" cy="1713.23" r="6.10985" stroke-width="0.5" stroke="grey" fill="grey"/>
   </g>
   <g id="cell3">
  <circle cx="1238.9" cy="1277.6" r="10.3166" stroke-width="0.5" stroke="black" fill="grey"/>
  <circle cx="1238.9" cy="1277.6" r="6.23561" stroke-width="0.5" stroke="grey" fill="grey"/>
   </g>
   <g id="cell4">
  <circle cx="840.544" cy="616.828" r="10.1634" stroke-width="0.5" stroke="black" fill="grey"/>
  <circle cx="840.544" cy="616.828" r="6.1549" stroke-width="0.5" stroke="grey" fill="grey"/>
   </g>
   <g id="cell5">
  <circle cx="105.145" cy="1962.14" r="8.41271" stroke-width="0.5" stroke="black" fill="grey"/>
  <circle cx="105.145" cy="1962.14" r="5.05167" stroke-width="0.5" stroke="grey" fill="grey"/>
   </g>
   <g id="cell6">
  <circle cx="784.825" cy="926.388" r="9.94548" stroke-width="0.5" stroke="black" fill="grey"/>
  <circle cx="784.825" cy="926.388" r="6.03448" stroke-width="0.5" stroke="grey" fill="grey"/>
   </g>
   <g id="cell7">
  <circle cx="1635.15" cy="1062.31" r="10.1506" stroke-width="0.5" stroke="black" fill="grey"/>
  <circle cx="1635.15" cy="1062.31" r="6.14798" stroke-width="0.5" stroke="grey" fill="grey"/>
   </g>
   <g id="cell8">
  <circle cx="1125.99" cy="785.25" r="9.96412" stroke-width="0.5" stroke="black" fill="grey"/>
  <circle cx="1125.99" cy="785.25" r="6.04499" stroke-width="0.5" stroke="grey" fill="grey"/>
   </g>
   <g id="cell9">
  <circle cx="1694.29" cy="134.74" r="9.08642" stroke-width="0.5" stroke="black" fill="grey"/>
  <circle cx="1694.29" cy="134.74" r="5.51837" stroke-width="0.5" stroke="grey" fill="grey"/>
   </g>
   <g id="cell10">
  <circle cx="164.804" cy="1286.45" r="10.2911" stroke-width="0.5" stroke="black" fill="grey"/>
  <circle cx="164.804" cy="1286.45" r="6.22246" stroke-width="0.5" stroke="grey" fill="grey"/>
   </g>
   <g id="cell11">
  <circle cx="708.849" cy="1688.44" r="9.84395" stroke-width="0.5" stroke="black" fill="grey"/>
  <circle cx="708.849" cy="1688.44" r="5.97665" stroke-width="0.5" stroke="grey" fill="grey"/>
   </g>
   <g id="cell12">
  <circle cx="1545.06" cy="342.561" r="10.0955" stroke-width="0.5" stroke="black" fill="grey"/>
  <circle cx="1545.06" cy="342.561" r="6.11797" stroke-width="0.5" stroke="grey" fill="grey"/>
   </g>
   <g id="cell13">
  <circle cx="1762.62" cy="1951.77" r="8.68937" stroke-width="0.5" stroke="black" fill="grey"/>
  <circle cx="1762.62" cy="1951.77" r="5.25417" stroke-width="0.5" stroke="grey" fill="grey"/>
   </g>
   <g id="cell14">
  <circle cx="1581.09" cy="1575.32" r="9.77588" stroke-width="0.5" stroke="black" fill="grey"/>
  <circle cx="1581.09" cy="1575.32" r="5.93735" stroke-width="0.5" stroke="grey" fill="grey"/>
   </g>
   <g id="cell15">
  <circle cx="1031.4" cy="1596.14" r="10.2821" stroke-width="0.5" stroke="black" fill="grey"/>
  <circle cx="1031.4" cy="1596.14" r="6.21778" stroke-width="0.5" stroke="grey" fill="grey"/>
   </g>
   <g id="cell16">
  <circle cx="236.232" cy="1454.14" r="10.2821" stroke-width="0.5" stroke="black" fill="grey"/>
  <circle cx="236.232" cy="1454.14" r="6.21778" stroke-width="0.5" stroke="grey" fill="grey"/>
   </g>
   <g id="cell17">
  <circle cx="1181.37" cy="298.99" r="10.2821" stroke-width="0.5" stroke="black" fill="grey"/>
  <circle cx="1181.37" cy="298.99" r="6.21778" stroke-width="0.5" stroke="grey" fill="grey"/>
   </g>
   <g id="cell18">
  <circle cx="1872.07" cy="1532.35" r="8.41271" stroke-width="0.5" stroke="black" fill="grey"/>
  <circle cx="1872.07" cy="1532.35" r="5.05167" stroke-width="0.5" stroke="grey" fill="grey"/>
   </g>
   <g id="cell19">
  <circle cx="193.671" cy="850.465" r="8.41271" stroke-width="0.5" stroke="black" fill="grey"/>
  <circle cx="193.671" cy="850.465" r="5.05167" stroke-width="0.5" stroke="grey" fill="grey"/>
   </g>
   <g id="cell20">
  <circle cx="548.806" cy="359.335" r="10.211" stroke-width="0.5" stroke="black" fill="grey"/>
  <circle cx="548.806" cy="359.335" r="6.18041" stroke-width="0.5" stroke="grey" fill="grey"/>
   </g>
   <g id="cell21">
  <circle cx="1453.89" cy="918.334" r="9.94548" stroke-width="0.5" stroke="black" fill="grey"/>
  <circle cx="1453.89" cy="918.334" r="6.03448" stroke-width="0.5" stroke="grey" fill="grey"/>
   </g>
   <g id="cell22">
  <circle cx="1172.08" cy="240.237" r="10.2632" stroke-width="0.5" stroke="black" fill="grey"/>
  <circle cx="1172.08" cy="240.237" r="6.20796" stroke-width="0.5" stroke="grey" fill="grey"/>
   </g>
   <g id="cell23">
  <circle cx="631.123" cy="1214.18" r="10.2221" stroke-width="0.5" stroke="black" fill="grey"/>
  <circle cx="631.123" cy="1214.18" r="6.18628" stroke-width="0.5" stroke="grey" fill="grey"/>
   </g>
   <g id="cell24">
  <circle cx="1233.49" cy="441.016" r="1.95777" stroke-width="0.5" stroke="black" fill="grey"/>
  <circle cx="1233.49" cy="441.016" r="1.86492" stroke-width="0.5" stroke="black" fill="black"/>
   </g>
   <g id="cell25">
  <circle cx="744.186" cy="1901.9" r="10.2328" stroke-width="0.5" stroke="black" fill="grey"/>
  <circle cx="744.186" cy="1901.9" r="6.19197" stroke-width="0.5" stroke="grey" fill="grey"/>
   </g>
   <g id="cell26">
  <circle cx="1388.53" cy="911.903" r="8.45606" stroke-width="0.5" stroke="black" fill="grey"/>
  <circle cx="1388.53" cy="911.903" r="5.08296" stroke-width="0.5" stroke="grey" fill="grey"/>
   </g>
   <g id="cell27">
  <circle cx="1222.41" cy="835.73" r="10.1506" stroke-width="0.5" stroke="black" fill="grey"/>
  <circle cx="1222.41" cy="835.73" r="6.14798" stroke-width="0.5" stroke="grey" fill="grey"/>
   </g>
   <g id="cell28">
  <circle cx="1397.37" cy="204.636" r="10.3084" stroke-width="0.5" stroke="black" fill="grey"/>
  <circle cx="1397.37" cy="204.636" r="6.23137" stroke-width="0.5" stroke="grey" fill="grey"/>
   </g>
   <g id="cell29">
  <circle cx="1928.38" cy="1334.28" r="10.3084" stroke-width="0.5" stroke="black" fill="grey"/>
  <circle cx="1928.38" cy="1334.28" r="6.23137" stroke-width="0.5" stroke="grey" fill="grey"/>
   </g>
   <g id="cell30">
  <circle cx="1358.36" cy="356.664" r="8.80772" stroke-width="0.5" stroke="black" fill="grey"/>
  <circle cx="1358.36" cy="356.664" r="5.33574" stroke-width="0.5" stroke="grey" fill="grey"/>
   </g>
   <g id="cell31">
  <circle cx="704.91" cy="281.919" r="9.75192" stroke-width="0.5" stroke="black" fill="grey"/>
  <circle cx="704.91" cy="281.919" r="5.92342" stroke-width="0.5" stroke="grey" fill="grey"/>
   </g>
   <g id="cell32">
  <circle cx="671.157" cy="1205.69" r="10.3545" stroke-width="0.5" stroke="black" fill="grey"/>
  <circle cx="671.157" cy="1205.69" r="6.25485" stroke-width="0.5" stroke="grey" fill="grey"/>
   </g>
   <g id="cell33">
  <circle cx="632.161" cy="1133.92" r="9.08642" stroke-width="0.5" stroke="black" fill="grey"/>
  <circle cx="632.161" cy="1133.92" r="5.51837" stroke-width="0.5" stroke="grey" fill="grey"/>
   </g>
   <g id="cell34">
  <circle cx="879.963" cy="1289.89" r="9.86542" stroke-width="0.5" stroke="black" fill="grey"/>
  <circle cx="879.963" cy="1289.89" r="5.98895" stroke-width="0.5" stroke="grey" fill="grey"/>
   </g>
   <g id="cell35">
  <circle cx="1913.66" cy="185.528" r="9.20015" stroke-width="0.5" stroke="black" fill="grey"/>
  <circle cx="1913.66" cy="185.528" r="5.59022" stroke-width="0.5" stroke="grey" fill="grey"/>
   </g>
   <g id="cell36">
  <circle cx="410.33" cy="1256.5" r="10.2221" stroke-width="0.5" stroke="black" fill="grey"/>
  <circle cx="410.33" cy="1256.5" r="6.18628" stroke-width="0.5" stroke="grey" fill="grey"/>
   </g>
   <g id="cell37">
  <circle cx="1978.36" cy="1364.57" r="10.0497" stroke-width="0.5" stroke="black" fill="grey"/>
  <circle cx="1978.36" cy="1364.57" r="6.09278" stroke-width="0.5" stroke="grey" fill="grey"/>
   </g>
   <g id="cell38">
  <circle cx="516.573" cy="859.222" r="8.41271" stroke-width="0.5" stroke="black" fill="grey"/>
  <circle cx="516.573" cy="859.222" r="5.05167" stroke-width="0.5" stroke="grey" fill="grey"/>
   </g>
   <g id="cell39">
  <circle cx="947.154" cy="488.346" r="10.0955" stroke-width="0.5" stroke="black" fill="grey"/>
  <circle cx="947.154" cy="488.346" r="6.11797" stroke-width="0.5" stroke="grey" fill="grey"/>
   </g>
   <g id="cell40">
  <circle cx="339.688" cy="660.674" r="10.0806" stroke-width="0.5" stroke="black" fill="grey"/>
  <circle cx="339.688" cy="660.674" r="6.10985" stroke-width="0.5" stroke="grey" fill="grey"/>
   </g>
   <g id="cell41">
  <circle cx="1328.2" cy="1321.48" r="9.64936" stroke-width="0.5" stroke="black" fill="grey"/>
  <circle cx="1328.2" cy="1321.48" r="5.86329" stroke-width="0.5" stroke="grey" fill="grey"/>
   </g>
   <g id="cell42">
  <circle cx="237.274" cy="1560.13" r="8.41271" stroke-width="0.5" stroke="black" fill="grey"/>
  <circle cx="237.274" cy="1560.13" r="5.05167" stroke-width="0.5" stroke="grey" fill="grey"/>
   </g>
   <g id="cell43">
  <circle cx="1879.96" cy="736.96" r="8.41271" stroke-width="0.5" stroke="black" fill="grey"/>
  <circle cx="1879.96" cy="736.96" r="5.05167" stroke-width="0.5" stroke="grey" fill="grey"/>
   </g>
   <g id="cell44">
  <circle cx="1631.57" cy="40.7353" r="9.99984" stroke-width="0.5" stroke="black" fill="grey"/>
  <circle cx="1631.57" cy="40.7353" r="6.06503" stroke-width="0.5" stroke="grey" fill="grey"/>
   </g>
   <g id="cell45">
  <circle cx="1225.21" cy="1655.36" r="8.41271" stroke-width="0.5" stroke="black" fill="grey"/>
  <circle cx="1225.21" cy="1655.36" r="5.05167" stroke-width="0.5" stroke="grey" fill="grey"/>
   </g>
   <g id="cell46">
  <circle cx="174.577" cy="1893.32" r="9.08642" stroke-width="0.5" stroke="black" fill="grey"/>
  <circle cx="174.577" cy="1893.32" r="5.51837" stroke-width="0.5" stroke="grey" fill="grey"/>
   </g>
   <g id="cell47">
  <circle cx="1762.77" cy="963.996" r="10.2328" stroke-width="0.5" stroke="black" fill="grey"/>
  <circle cx="1762.77" cy="963.996" r="6.19197" stroke-width="0.5" stroke="grey" fill="grey"/>
   </g>
   <g id="cell48">
  <circle cx="1966.21" cy="99.8175" r="10.2632" stroke-width="0.5" stroke="black" fill="grey"/>
  <circle cx="1966.21" cy="99.8175" r="6.20796" stroke-width="0.5" stroke="grey" fill="grey"/>
   </g>
   <g id="cell49">
  <circle cx="858.734" cy="1459.82" r="10.3325" stroke-width="0.5" stroke="black" fill="grey"/>
  <circle cx="858.734" cy="1459.82" r="6.24369" stroke-width="0.5" stroke="grey" fill="grey"/>
   </g>
   <g id="cell50">
  <circle cx="75.6692" cy="900.78" r="10.3545" stroke-width="0.5" stroke="black" fill="red"/>
  <circle cx="75.6692" cy="900.78" r="6.25485" stroke-width="0.5" stroke="red" fill="red"/>
   </g>
   <g id="cell51">
  <circle cx="1958.93" cy="246.525" r="8.7678" stroke-width="0.5" stroke="black" fill="red"/>
  <circle cx="1958.93" cy="246.525" r="5.30857" stroke-width="0.5" stroke="red" fill="red"/>
   </g>
   <g id="cell52">
  <circle cx="589.673" cy="993.567" r="10.0169" stroke-width="0.5" stroke="black" fill="red"/>
  <circle cx="589.673" cy="993.567" r="6.07458" stroke-width="0.5" stroke="red" fill="red"/>
   </g>
   <g id="cell53">
  <circle cx="1340.41" cy="611.315" r="10.3247" stroke-width="0.5" stroke="black" fill="red"/>
  <circle cx="1340.41" cy="611.315" r="6.23971" stroke-width="0.5" stroke="red" fill="red"/>
   </g>
   <g id="cell54">
  <circle cx="780.718" cy="1831.08" r="10.3545" stroke-width="0.5" stroke="black" fill="red"/>
  <circle cx="780.718" cy="1831.08" r="6.25485" stroke-width="0.5" stroke="red" fill="red"/>
   </g>
   <g id="cell55">
  <circle cx="418.523" cy="1385.25" r="10.2221" stroke-width="0.5" stroke="black" fill="red"/>
  <circle cx="418.523" cy="1385.25" r="6.18628" stroke-width="0.5" stroke="red" fill="red"/>
   </g>
   <g id="cell56">
  <circle cx="1154.38" cy="1712.25" r="8.41271" stroke-width="0.5" stroke="black" fill="red"/>
  <circle cx="1154.38" cy="1712.25" r="5.05167" stroke-width="0.5" stroke="red" fill="red"/>
   </g>
   <g id="cell57">
  <circle cx="1021.85" cy="1041.79" r="8.41271" stroke-width="0.5" stroke="black" fill="red"/>
  <circle cx="1021.85" cy="1041.79" r="5.05167" stroke-width="0.5" stroke="red" fill="red"/>
   </g>
   <g id="cell58">
  <circle cx="165.641" cy="1807.89" r="10.1996" stroke-width="0.5" stroke="black" fill="red"/>
  <circle cx="165.641" cy="1807.89" r="6.17434" stroke-width="0.5" stroke="red" fill="red"/>
   </g>
   <g id="cell59">
  <circle cx="171.722" cy="1844.99" r="2.21318" stroke-width="0.5" stroke="black" fill="red"/>
  <circle cx="171.722" cy="1844.99" r="2.11245" stroke-width="0.5" stroke="black" fill="black"/>
   </g>
   <g id="cell60">
  <circle cx="667.383" cy="50.6991" r="10.3084" stroke-width="0.5" stroke="black" fill="red"/>
  <circle cx="667.383" cy="50.6991" r="6.23137" stroke-width="0.5" stroke="red" fill="red"/>
   </g>
   <g id="cell61">
  <circle cx="1668.27" cy="296.239" r="9.94548" stroke-width="0.5" stroke="black" fill="red"/>
  <circle cx="1668.27" cy="296.239" r="6.03448" stroke-width="0.5" stroke="red" fill="red"/>
   </g>
   <g id="cell62">
  <circle cx="1434.01" cy="1673.78" r="9.37686" stroke-width="0.5" stroke="black" fill="red"/>
  <circle cx="1434.01" cy="1673.78" r="5.69955" stroke-width="0.5" stroke="red" fill="red"/>
   </g>
   <g id="cell63">
  <circle cx="525.253" cy="345.202" r="8.45606" stroke-width="0.5" stroke="black" fill="red"/>
  <circle cx="525.253" cy="345.202" r="5.08296" stroke-width="0.5" stroke="red" fill="red"/>
   </g>
   <g id="cell64">
  <circle cx="1163.68" cy="1110.22" r="9.41008" stroke-width="0.5" stroke="black" fill="red"/>
  <circle cx="1163.68" cy="1110.22" r="5.71981" stroke-width="0.5" stroke="red" fill="red"/>
   </g>
   <g id="cell65">
  <circle cx="365.869" cy="1630.46" r="10.2221" stroke-width="0.5" stroke="black" fill="red"/>
  <circle cx="365.869" cy="1630.46" r="6.18628" stroke-width="0.5" stroke="red" fill="red"/>
   </g>
   <g id="cell66">
  <circle cx="25.0542" cy="304.546" r="9.94548" stroke-width="0.5" stroke="black" fill="red"/>
  <circle cx="25.0542" cy="304.546" r="6.03448" stroke-width="0.5" stroke="red" fill="red"/>
   </g>
   <g id="cell67">
  <circle cx="1102.86" cy="556.037" r="9.75192" stroke-width="0.5" stroke="black" fill="red"/>
  <circle cx="1102.86" cy="556.037" r="5.92342" stroke-width="0.5" stroke="red" fill="red"/>
   </g>
   <g id="cell68">
  <circle cx="1457.8" cy="594.341" r="10.211" stroke-width="0.5" stroke="black" fill="red"/>
  <circle cx="1457.8" cy="594.341" r="6.18041" stroke-width="0.5" stroke="red" fill="red"/>
   </g>
   <g id="cell69">
  <circle cx="885.48" cy="533.014" r="8.41271" stroke-width="0.5" stroke="black" fill="red"/>
  <circle cx="885.48" cy="533.014" r="5.05167" stroke-width="0.5" stroke="red" fill="red"/>
   </g>
   <g id="cell70">
  <circle cx="1178.2" cy="808.488" r="10.1098" stroke-width="0.5" stroke="black" fill="red"/>
  <circle cx="1178.2" cy="808.488" r="6.12585" stroke-width="0.5" stroke="red" fill="red"/>
   </g>
   <g id="cell71">
  <circle cx="1769.45" cy="1118.15" r="9.99984" stroke-width="0.5" stroke="black" fill="red"/>
  <circle cx="1769.45" cy="1118.15" r="6.06503" stroke-width="0.5" stroke="red" fill="red"/>
   </g>
   <g id="cell72">
  <circle cx="445.455" cy="1809.46" r="9.04745" stroke-width="0.5" stroke="black" fill="red"/>
  <circle cx="445.455" cy="1809.46" r="5.49345" stroke-width="0.5" stroke="red" fill="red"/>
   </g>
   <g id="cell73">
  <circle cx="1408.25" cy="892.16" r="10.2534" stroke-width="0.5" stroke="black" fill="red"/>
  <circle cx="1408.25" cy="892.16" r="6.2028" stroke-width="0.5" stroke="red" fill="red"/>
   </g>
   <g id="cell74">
  <circle cx="1692.67" cy="1933.25" r="10.2433" stroke-width="0.5" stroke="black" fill="red"/>
  <circle cx="1692.67" cy="1933.25" r="6.19748" stroke-width="0.5" stroke="red" fill="red"/>
   </g>
   <g id="cell75">
  <circle cx="203.596" cy="596.022" r="8.41271" stroke-width="0.5" stroke="black" fill="red"/>
  <circle cx="203.596" cy="596.022" r="5.05167" stroke-width="0.5" stroke="red" fill="red"/>
   </g>
   <g id="cell76">
  <circle cx="1604.08" cy="832.463" r="9.75192" stroke-width="0.5" stroke="black" fill="red"/>
  <circle cx="1604.08" cy="832.463" r="5.92342" stroke-width="0.5" stroke="red" fill="red"/>
   </g>
   <g id="cell77">
  <circle cx="1381.05" cy="1754.2" r="9.4743" stroke-width="0.5" stroke="black" fill="red"/>
  <circle cx="1381.05" cy="1754.2" r="5.75875" stroke-width="0.5" stroke="red" fill="red"/>
   </g>
   <g id="cell78">
  <circle cx="1219.54" cy="638.501" r="9.4743" stroke-width="0.5" stroke="black" fill="red"/>
  <circle cx="1219.54" cy="638.501" r="5.75875" stroke-width="0.5" stroke="red" fill="red"/>
   </g>
   <g id="cell79">
  <circle cx="1934.93" cy="1383.25" r="8.41271" stroke-width="0.5" stroke="black" fill="red"/>
  <circle cx="1934.93" cy="1383.25" r="5.05167" stroke-width="0.5" stroke="red" fill="red"/>
   </g>
   <g id="cell80">
  <circle cx="1419.02" cy="1276.9" r="9.99984" stroke-width="0.5" stroke="black" fill="red"/>
  <circle cx="1419.02" cy="1276.9" r="6.06503" stroke-width="0.5" stroke="red" fill="red"/>
   </g>
   <g id="cell81">
  <circle cx="1073.97" cy="1890.12" r="2.28589" stroke-width="0.5" stroke="black" fill="red"/>
  <circle cx="1073.97" cy="1890.12" r="2.15147" stroke-width="0.5" stroke="black" fill="black"/>
   </g>
   <g id="cell82">
  <circle cx="1253.61" cy="782.434" r="10.0497" stroke-width="0.5" stroke="black" fill="red"/>
  <circle cx="1253.61" cy="782.434" r="6.09278" stroke-width="0.5" stroke="red" fill="red"/>
   </g>
   <g id="cell83">
  <circle cx="1261.16" cy="1234.71" r="9.34292" stroke-width="0.5" stroke="black" fill="red"/>
  <circle cx="1261.16" cy="1234.71" r="5.67875" stroke-width="0.5" stroke="red" fill="red"/>
   </g>
   <g id="cell84">
  <circle cx="34.823" cy="955.977" r="10.2999" stroke-width="0.5" stroke="black" fill="red"/>
  <circle cx="34.823" cy="955.977" r="6.22699" stroke-width="0.5" stroke="red" fill="red"/>
   </g>
   <g id="cell85">
  <circle cx="1419.1" cy="1293.62" r="8.68937" stroke-width="0.5" stroke="black" fill="red"/>
  <circle cx="1419.1" cy="1293.62" r="5.25417" stroke-width="0.5" stroke="red" fill="red"/>
   </g>
   <g id="cell86">
  <circle cx="592.337" cy="794.145" r="8.41271" stroke-width="0.5" stroke="black" fill="red"/>
  <circle cx="592.337" cy="794.145" r="5.05167" stroke-width="0.5" stroke="red" fill="red"/>
   </g>
   <g id="cell87">
  <circle cx="1481.39" cy="876.202" r="9.94548" stroke-width="0.5" stroke="black" fill="red"/>
  <circle cx="1481.39" cy="876.202" r="6.03448" stroke-width="0.5" stroke="red" fill="red"/>
   </g>
   <g id="cell88">
  <circle cx="284.736" cy="190.851" r="9.99984" stroke-width="0.5" stroke="black" fill="red"/>
  <circle cx="284.736" cy="190.851" r="6.06503" stroke-width="0.5" stroke="red" fill="red"/>
   </g>
   <g id="cell89">
  <circle cx="179.554" cy="1158.67" r="8.41271" stroke-width="0.5" stroke="black" fill="red"/>
  <circle cx="179.554" cy="1158.67" r="5.05167" stroke-width="0.5" stroke="red" fill="red"/>
   </g>
   <g id="cell90">
  <circle cx="1181.68" cy="1102.02" r="8.41271" stroke-width="0.5" stroke="black" fill="red"/>
  <circle cx="1181.68" cy="1102.02" r="5.05167" stroke-width="0.5" stroke="red" fill="red"/>
   </g>
   <g id="cell91">
  <circle cx="46.6402" cy="1285.23" r="8.41271" stroke-width="0.5" stroke="black" fill="red"/>
  <circle cx="46.6402" cy="1285.23" r="5.05167" stroke-width="0.5" stroke="red" fill="red"/>
   </g>
   <g id="cell92">
  <circle cx="1259.93" cy="647.697" r="10.3545" stroke-width="0.5" stroke="black" fill="red"/>
  <circle cx="1259.93" cy="647.697" r="6.25485" stroke-width="0.5" stroke="red" fill="red"/>
   </g>
   <g id="cell93">
  <circle cx="444.818" cy="1795.2" r="9.59391" stroke-width="0.5" stroke="black" fill="red"/>
  <circle cx="444.818" cy="1795.2" r="5.83043" stroke-width="0.5" stroke="red" fill="red"/>
   </g>
   <g id="cell94">
  <circle cx="755.343" cy="212.94" r="10.1374" stroke-width="0.5" stroke="black" fill="red"/>
  <circle cx="755.343" cy="212.94" r="6.14084" stroke-width="0.5" stroke="red" fill="red"/>
   </g>
   <g id="cell95">
  <circle cx="1990.32" cy="1755.27" r="10.0806" stroke-width="0.5" stroke="black" fill="red"/>
  <circle cx="1990.32" cy="1755.27" r="6.10985" stroke-width="0.5" stroke="red" fill="red"/>
   </g>
   <g id="cell96">
  <circle cx="1619.3" cy="1096.94" r="10.1996" stroke-width="0.5" stroke="black" fill="red"/>
  <circle cx="1619.3" cy="1096.94" r="6.17434" stroke-width="0.5" stroke="red" fill="red"/>
   </g>
   <g id="cell97">
  <circle cx="873.084" cy="208.554" r="10.3166" stroke-width="0.5" stroke="black" fill="red"/>
  <circle cx="873.084" cy="208.554" r="6.23561" stroke-width="0.5" stroke="red" fill="red"/>
   </g>
   <g id="cell98">
  <circle cx="1814.86" cy="691.867" r="10.34" stroke-width="0.5" stroke="black" fill="red"/>
  <circle cx="1814.86" cy="691.867" r="6.24753" stroke-width="0.5" stroke="red" fill="red"/>
   </g>
   <g id="cell99">
  <circle cx="915.897" cy="1974.57" r="10.3474" stroke-width="0.5" stroke="black" fill="red"/>
  <circle cx="915.897" cy="1974.57" r="6.25125" stroke-width="0.5" stroke="red" fill="red"/>
   </g>
  </g>
 </g>
  <rect x="1750" y="2070" width="200" height="20" stroke-width="4" stroke="rgb(255,255,255)" fill="rgb(0,0,0)"/>
  <text x="1762.5" y="2057.5"
   font-family="Arial" font-size="50" fill="black" >
   200 &#956;m
  </text>
  <text x="50" y="2090"
   font-family="Arial" font-size="37.5" fill="black" >
   0 days, 0 hours, 0 minutes, and 12.4622 seconds
  </text>
  <rect x="0" y="140" width="2000" height="2000" stroke-width="4" stroke="rgb(0,0,0)" fill="none"/>
</svg>
