<?xml version="1.0" encoding="UTF-8" standalone="no"?>
<!-- Created with PhysiCell (http://PhysiCell.MathCancer.org/) -->
<svg 
 xmlns:dc="http://purl.org/dc/elements/1.1/" 
 xmlns:cc="http://creativecommons.org/ns#" 
 xmlns:rdf="http://www.w3.org/1999/02/22-rdf-syntax-ns#" 
 xmlns:svg="http://www.w3.org/2000/svg" 
 xmlns="http://www.w3.org/2000/svg" 
 version="1.1" 
 width="2000" 
 height="2140" 
 id="svg2">
  <rect x="0" y="0" width="2000" height="2140" stroke-width="4" stroke="white" fill="white"/>
  <text x="25" y="60"
   font-family="Arial" font-size="50" fill="black" >
   Current time: 0 days, 6 hours, and 0.00 minutes, z = 0.00 &#956;m
  </text>
  <text x="25" y="115"
   font-family="Arial" font-size="47.5" fill="black" >
   100 agents
  </text>
 <g id="tissue" 
    transform="translate(0,2140) scale(1,-1)">
  <g id="ECM">
  </g>
  <g id="cells">
   <g id="cell0">
  <circle cx="1108.9" cy="1161.98" r="8.41271" stroke-width="0.5" stroke="black" fill="grey"/>
  <circle cx="1108.9" cy="1161.98" r="5.05167" stroke-width="0.5" stroke="grey" fill="grey"/>
   </g>
   <g id="cell1">
  <circle cx="1697.47" cy="1209.09" r="9.75192" stroke-width="0.5" stroke="black" fill="grey"/>
  <circle cx="1697.47" cy="1209.09" r="5.92342" stroke-width="0.5" stroke="grey" fill="grey"/>
   </g>
   <g id="cell2">
  <circle cx="1090.02" cy="1720.47" r="9.53557" stroke-width="0.5" stroke="black" fill="grey"/>
  <circle cx="1090.02" cy="1720.47" r="5.79561" stroke-width="0.5" stroke="grey" fill="grey"/>
   </g>
   <g id="cell3">
  <circle cx="1250.98" cy="1291.1" r="8.61424" stroke-width="0.5" stroke="black" fill="grey"/>
  <circle cx="1250.98" cy="1291.1" r="5.20061" stroke-width="0.5" stroke="grey" fill="grey"/>
   </g>
   <g id="cell4">
  <circle cx="848.707" cy="571.402" r="9.30826" stroke-width="0.5" stroke="black" fill="grey"/>
  <circle cx="848.707" cy="571.402" r="5.65742" stroke-width="0.5" stroke="grey" fill="grey"/>
   </g>
   <g id="cell5">
  <circle cx="136.011" cy="1917.32" r="8.41271" stroke-width="0.5" stroke="black" fill="grey"/>
  <circle cx="136.011" cy="1917.32" r="5.05167" stroke-width="0.5" stroke="grey" fill="grey"/>
   </g>
   <g id="cell6">
  <circle cx="726.255" cy="920.05" r="8.51252" stroke-width="0.5" stroke="black" fill="grey"/>
  <circle cx="726.255" cy="920.05" r="5.12552" stroke-width="0.5" stroke="grey" fill="grey"/>
   </g>
   <g id="cell7">
  <circle cx="1653.29" cy="1052.91" r="9.7992" stroke-width="0.5" stroke="black" fill="grey"/>
  <circle cx="1653.29" cy="1052.91" r="5.95086" stroke-width="0.5" stroke="grey" fill="grey"/>
   </g>
   <g id="cell8">
  <circle cx="1150.62" cy="749.803" r="8.41271" stroke-width="0.5" stroke="black" fill="grey"/>
  <circle cx="1150.62" cy="749.803" r="5.05167" stroke-width="0.5" stroke="grey" fill="grey"/>
   </g>
   <g id="cell9">
  <circle cx="1691.64" cy="153.041" r="8.88811" stroke-width="0.5" stroke="black" fill="grey"/>
  <circle cx="1691.64" cy="153.041" r="5.38958" stroke-width="0.5" stroke="grey" fill="grey"/>
   </g>
   <g id="cell10">
  <circle cx="194.51" cy="1289.91" r="8.41271" stroke-width="0.5" stroke="black" fill="grey"/>
  <circle cx="194.51" cy="1289.91" r="5.05167" stroke-width="0.5" stroke="grey" fill="grey"/>
   </g>
   <g id="cell11">
  <circle cx="782.207" cy="1655.63" r="9.7992" stroke-width="0.5" stroke="black" fill="grey"/>
  <circle cx="782.207" cy="1655.63" r="5.95086" stroke-width="0.5" stroke="grey" fill="grey"/>
   </g>
   <g id="cell12">
  <circle cx="1548.43" cy="268.032" r="8.41271" stroke-width="0.5" stroke="black" fill="grey"/>
  <circle cx="1548.43" cy="268.032" r="5.05167" stroke-width="0.5" stroke="grey" fill="grey"/>
   </g>
   <g id="cell13">
  <circle cx="1712.13" cy="1987.67" r="9.99984" stroke-width="0.5" stroke="black" fill="grey"/>
  <circle cx="1712.13" cy="1987.67" r="6.06503" stroke-width="0.5" stroke="grey" fill="grey"/>
   </g>
   <g id="cell14">
  <circle cx="1627.81" cy="1584.53" r="8.9283" stroke-width="0.5" stroke="black" fill="grey"/>
  <circle cx="1627.81" cy="1584.53" r="5.4161" stroke-width="0.5" stroke="grey" fill="grey"/>
   </g>
   <g id="cell15">
  <circle cx="1018.01" cy="1521.43" r="10.0169" stroke-width="0.5" stroke="black" fill="grey"/>
  <circle cx="1018.01" cy="1521.43" r="6.07458" stroke-width="0.5" stroke="grey" fill="grey"/>
   </g>
   <g id="cell16">
  <circle cx="228.082" cy="1459.94" r="8.41271" stroke-width="0.5" stroke="black" fill="grey"/>
  <circle cx="228.082" cy="1459.94" r="5.05167" stroke-width="0.5" stroke="grey" fill="grey"/>
   </g>
   <g id="cell17">
  <circle cx="1166.63" cy="283.58" r="9.44256" stroke-width="0.5" stroke="black" fill="grey"/>
  <circle cx="1166.63" cy="283.58" r="5.73955" stroke-width="0.5" stroke="grey" fill="grey"/>
   </g>
   <g id="cell18">
  <circle cx="1901.86" cy="1512.09" r="8.9283" stroke-width="0.5" stroke="black" fill="grey"/>
  <circle cx="1901.86" cy="1512.09" r="5.4161" stroke-width="0.5" stroke="grey" fill="grey"/>
   </g>
   <g id="cell19">
  <circle cx="200.185" cy="808.911" r="8.41271" stroke-width="0.5" stroke="black" fill="grey"/>
  <circle cx="200.185" cy="808.911" r="5.05167" stroke-width="0.5" stroke="grey" fill="grey"/>
   </g>
   <g id="cell20">
  <circle cx="529.741" cy="389.516" r="1.97541" stroke-width="0.5" stroke="black" fill="grey"/>
  <circle cx="529.741" cy="389.516" r="1.8944" stroke-width="0.5" stroke="black" fill="black"/>
   </g>
   <g id="cell21">
  <circle cx="1461.26" cy="894.913" r="9.20015" stroke-width="0.5" stroke="black" fill="grey"/>
  <circle cx="1461.26" cy="894.913" r="5.59022" stroke-width="0.5" stroke="grey" fill="grey"/>
   </g>
   <g id="cell22">
  <circle cx="1146.38" cy="273.037" r="9.99984" stroke-width="0.5" stroke="black" fill="grey"/>
  <circle cx="1146.38" cy="273.037" r="6.06503" stroke-width="0.5" stroke="grey" fill="grey"/>
   </g>
   <g id="cell23">
  <circle cx="670.627" cy="1225.84" r="9.67603" stroke-width="0.5" stroke="black" fill="grey"/>
  <circle cx="670.627" cy="1225.84" r="5.87901" stroke-width="0.5" stroke="grey" fill="grey"/>
   </g>
   <g id="cell24">
  <circle cx="1233.46" cy="448.049" r="9.84395" stroke-width="0.5" stroke="black" fill="grey"/>
  <circle cx="1233.46" cy="448.049" r="5.97665" stroke-width="0.5" stroke="grey" fill="grey"/>
   </g>
   <g id="cell25">
  <circle cx="790.145" cy="1866.33" r="8.41271" stroke-width="0.5" stroke="black" fill="grey"/>
  <circle cx="790.145" cy="1866.33" r="5.05167" stroke-width="0.5" stroke="grey" fill="grey"/>
   </g>
   <g id="cell26">
  <circle cx="1364.24" cy="897.169" r="9.88629" stroke-width="0.5" stroke="black" fill="grey"/>
  <circle cx="1364.24" cy="897.169" r="6.00088" stroke-width="0.5" stroke="grey" fill="grey"/>
   </g>
   <g id="cell27">
  <circle cx="1221.57" cy="909.958" r="9.82189" stroke-width="0.5" stroke="black" fill="grey"/>
  <circle cx="1221.57" cy="909.958" r="5.96395" stroke-width="0.5" stroke="grey" fill="grey"/>
   </g>
   <g id="cell28">
  <circle cx="1425.55" cy="172.214" r="8.41271" stroke-width="0.5" stroke="black" fill="grey"/>
  <circle cx="1425.55" cy="172.214" r="5.05167" stroke-width="0.5" stroke="grey" fill="grey"/>
   </g>
   <g id="cell29">
  <circle cx="1933.14" cy="1315.32" r="9.44256" stroke-width="0.5" stroke="black" fill="grey"/>
  <circle cx="1933.14" cy="1315.32" r="5.73955" stroke-width="0.5" stroke="grey" fill="grey"/>
   </g>
   <g id="cell30">
  <circle cx="1333.21" cy="324.881" r="10.0806" stroke-width="0.5" stroke="black" fill="grey"/>
  <circle cx="1333.21" cy="324.881" r="6.10985" stroke-width="0.5" stroke="grey" fill="grey"/>
   </g>
   <g id="cell31">
  <circle cx="695.466" cy="238.378" r="9.82189" stroke-width="0.5" stroke="black" fill="grey"/>
  <circle cx="695.466" cy="238.378" r="5.96395" stroke-width="0.5" stroke="grey" fill="grey"/>
   </g>
   <g id="cell32">
  <circle cx="631.476" cy="1210.96" r="1.72142" stroke-width="0.5" stroke="black" fill="grey"/>
  <circle cx="631.476" cy="1210.96" r="1.67587" stroke-width="0.5" stroke="black" fill="black"/>
   </g>
   <g id="cell33">
  <circle cx="668.795" cy="1157.2" r="9.98223" stroke-width="0.5" stroke="black" fill="grey"/>
  <circle cx="668.795" cy="1157.2" r="6.05517" stroke-width="0.5" stroke="grey" fill="grey"/>
   </g>
   <g id="cell34">
  <circle cx="860.012" cy="1276.34" r="9.23685" stroke-width="0.5" stroke="black" fill="grey"/>
  <circle cx="860.012" cy="1276.34" r="5.61315" stroke-width="0.5" stroke="grey" fill="grey"/>
   </g>
   <g id="cell35">
  <circle cx="1926.77" cy="181.8" r="9.94548" stroke-width="0.5" stroke="black" fill="grey"/>
  <circle cx="1926.77" cy="181.8" r="6.03448" stroke-width="0.5" stroke="grey" fill="grey"/>
   </g>
   <g id="cell36">
  <circle cx="403.092" cy="1281.35" r="9.44256" stroke-width="0.5" stroke="black" fill="grey"/>
  <circle cx="403.092" cy="1281.35" r="5.73955" stroke-width="0.5" stroke="grey" fill="grey"/>
   </g>
   <g id="cell37">
  <circle cx="1976.27" cy="1298.26" r="9.67603" stroke-width="0.5" stroke="black" fill="grey"/>
  <circle cx="1976.27" cy="1298.26" r="5.87901" stroke-width="0.5" stroke="grey" fill="grey"/>
   </g>
   <g id="cell38">
  <circle cx="489.983" cy="805.898" r="10.0497" stroke-width="0.5" stroke="black" fill="grey"/>
  <circle cx="489.983" cy="805.898" r="6.09278" stroke-width="0.5" stroke="grey" fill="grey"/>
   </g>
   <g id="cell39">
  <circle cx="927.91" cy="506.42" r="10.0654" stroke-width="0.5" stroke="black" fill="grey"/>
  <circle cx="927.91" cy="506.42" r="6.10145" stroke-width="0.5" stroke="grey" fill="grey"/>
   </g>
   <g id="cell40">
  <circle cx="314.988" cy="661.267" r="10.0169" stroke-width="0.5" stroke="black" fill="grey"/>
  <circle cx="314.988" cy="661.267" r="6.07458" stroke-width="0.5" stroke="grey" fill="grey"/>
   </g>
   <g id="cell41">
  <circle cx="1354.53" cy="1304.58" r="8.41271" stroke-width="0.5" stroke="black" fill="grey"/>
  <circle cx="1354.53" cy="1304.58" r="5.05167" stroke-width="0.5" stroke="grey" fill="grey"/>
   </g>
   <g id="cell42">
  <circle cx="285.152" cy="1546.81" r="8.41271" stroke-width="0.5" stroke="black" fill="grey"/>
  <circle cx="285.152" cy="1546.81" r="5.05167" stroke-width="0.5" stroke="grey" fill="grey"/>
   </g>
   <g id="cell43">
  <circle cx="1910.49" cy="758" r="8.80772" stroke-width="0.5" stroke="black" fill="grey"/>
  <circle cx="1910.49" cy="758" r="5.33574" stroke-width="0.5" stroke="grey" fill="grey"/>
   </g>
   <g id="cell44">
  <circle cx="1641.23" cy="34.7377" r="8.51252" stroke-width="0.5" stroke="black" fill="grey"/>
  <circle cx="1641.23" cy="34.7377" r="5.12552" stroke-width="0.5" stroke="grey" fill="grey"/>
   </g>
   <g id="cell45">
  <circle cx="1257.94" cy="1659.95" r="9.12489" stroke-width="0.5" stroke="black" fill="grey"/>
  <circle cx="1257.94" cy="1659.95" r="5.54282" stroke-width="0.5" stroke="grey" fill="grey"/>
   </g>
   <g id="cell46">
  <circle cx="204.471" cy="1934.71" r="8.41271" stroke-width="0.5" stroke="black" fill="grey"/>
  <circle cx="204.471" cy="1934.71" r="5.05167" stroke-width="0.5" stroke="grey" fill="grey"/>
   </g>
   <g id="cell47">
  <circle cx="1744.25" cy="913.397" r="8.41271" stroke-width="0.5" stroke="black" fill="grey"/>
  <circle cx="1744.25" cy="913.397" r="5.05167" stroke-width="0.5" stroke="grey" fill="grey"/>
   </g>
   <g id="cell48">
  <circle cx="1938.05" cy="103.698" r="8.41271" stroke-width="0.5" stroke="black" fill="grey"/>
  <circle cx="1938.05" cy="103.698" r="5.05167" stroke-width="0.5" stroke="grey" fill="grey"/>
   </g>
   <g id="cell49">
  <circle cx="931.727" cy="1457.01" r="9.96412" stroke-width="0.5" stroke="black" fill="grey"/>
  <circle cx="931.727" cy="1457.01" r="6.04499" stroke-width="0.5" stroke="grey" fill="grey"/>
   </g>
   <g id="cell50">
  <circle cx="91.1271" cy="905.04" r="9.44256" stroke-width="0.5" stroke="black" fill="red"/>
  <circle cx="91.1271" cy="905.04" r="5.73955" stroke-width="0.5" stroke="red" fill="red"/>
   </g>
   <g id="cell51">
  <circle cx="1983.27" cy="214.278" r="9.16281" stroke-width="0.5" stroke="black" fill="red"/>
  <circle cx="1983.27" cy="214.278" r="5.56677" stroke-width="0.5" stroke="red" fill="red"/>
   </g>
   <g id="cell52">
  <circle cx="638.423" cy="973.923" r="10.0169" stroke-width="0.5" stroke="black" fill="red"/>
  <circle cx="638.423" cy="973.923" r="6.07458" stroke-width="0.5" stroke="red" fill="red"/>
   </g>
   <g id="cell53">
  <circle cx="1364.07" cy="634.536" r="10.0336" stroke-width="0.5" stroke="black" fill="red"/>
  <circle cx="1364.07" cy="634.536" r="6.08382" stroke-width="0.5" stroke="red" fill="red"/>
   </g>
   <g id="cell54">
  <circle cx="874.188" cy="1873.2" r="8.41271" stroke-width="0.5" stroke="black" fill="red"/>
  <circle cx="874.188" cy="1873.2" r="5.05167" stroke-width="0.5" stroke="red" fill="red"/>
   </g>
   <g id="cell55">
  <circle cx="430.731" cy="1405.97" r="10.0169" stroke-width="0.5" stroke="black" fill="red"/>
  <circle cx="430.731" cy="1405.97" r="6.07458" stroke-width="0.5" stroke="red" fill="red"/>
   </g>
   <g id="cell56">
  <circle cx="1104.41" cy="1756.32" r="9.96412" stroke-width="0.5" stroke="black" fill="red"/>
  <circle cx="1104.41" cy="1756.32" r="6.04499" stroke-width="0.5" stroke="red" fill="red"/>
   </g>
   <g id="cell57">
  <circle cx="1052.46" cy="1021.15" r="8.61424" stroke-width="0.5" stroke="black" fill="red"/>
  <circle cx="1052.46" cy="1021.15" r="5.20061" stroke-width="0.5" stroke="red" fill="red"/>
   </g>
   <g id="cell58">
  <circle cx="190.184" cy="1843.07" r="8.41271" stroke-width="0.5" stroke="black" fill="red"/>
  <circle cx="190.184" cy="1843.07" r="5.05167" stroke-width="0.5" stroke="red" fill="red"/>
   </g>
   <g id="cell59">
  <circle cx="159.266" cy="1838.21" r="10.0336" stroke-width="0.5" stroke="black" fill="red"/>
  <circle cx="159.266" cy="1838.21" r="6.08382" stroke-width="0.5" stroke="red" fill="red"/>
   </g>
   <g id="cell60">
  <circle cx="617.394" cy="17.894" r="9.41008" stroke-width="0.5" stroke="black" fill="red"/>
  <circle cx="617.394" cy="17.894" r="5.71981" stroke-width="0.5" stroke="red" fill="red"/>
   </g>
   <g id="cell61">
  <circle cx="1726.88" cy="273.506" r="9.82189" stroke-width="0.5" stroke="black" fill="red"/>
  <circle cx="1726.88" cy="273.506" r="5.96395" stroke-width="0.5" stroke="red" fill="red"/>
   </g>
   <g id="cell62">
  <circle cx="1402.83" cy="1665.91" r="8.41271" stroke-width="0.5" stroke="black" fill="red"/>
  <circle cx="1402.83" cy="1665.91" r="5.05167" stroke-width="0.5" stroke="red" fill="red"/>
   </g>
   <g id="cell63">
  <circle cx="531.716" cy="380.564" r="8.41271" stroke-width="0.5" stroke="black" fill="red"/>
  <circle cx="531.716" cy="380.564" r="5.05167" stroke-width="0.5" stroke="red" fill="red"/>
   </g>
   <g id="cell64">
  <circle cx="1173.3" cy="1103.97" r="9.59391" stroke-width="0.5" stroke="black" fill="red"/>
  <circle cx="1173.3" cy="1103.97" r="5.83043" stroke-width="0.5" stroke="red" fill="red"/>
   </g>
   <g id="cell65">
  <circle cx="370.405" cy="1649.37" r="9.86542" stroke-width="0.5" stroke="black" fill="red"/>
  <circle cx="370.405" cy="1649.37" r="5.98895" stroke-width="0.5" stroke="red" fill="red"/>
   </g>
   <g id="cell66">
  <circle cx="37.6032" cy="311.849" r="9.53557" stroke-width="0.5" stroke="black" fill="red"/>
  <circle cx="37.6032" cy="311.849" r="5.79561" stroke-width="0.5" stroke="red" fill="red"/>
   </g>
   <g id="cell67">
  <circle cx="1185.91" cy="503.459" r="8.41271" stroke-width="0.5" stroke="black" fill="red"/>
  <circle cx="1185.91" cy="503.459" r="5.05167" stroke-width="0.5" stroke="red" fill="red"/>
   </g>
   <g id="cell68">
  <circle cx="1464.3" cy="559.817" r="10.0654" stroke-width="0.5" stroke="black" fill="red"/>
  <circle cx="1464.3" cy="559.817" r="6.10145" stroke-width="0.5" stroke="red" fill="red"/>
   </g>
   <g id="cell69">
  <circle cx="857.352" cy="502.034" r="10.0336" stroke-width="0.5" stroke="black" fill="red"/>
  <circle cx="857.352" cy="502.034" r="6.08382" stroke-width="0.5" stroke="red" fill="red"/>
   </g>
   <g id="cell70">
  <circle cx="1144.11" cy="800.39" r="8.41271" stroke-width="0.5" stroke="black" fill="red"/>
  <circle cx="1144.11" cy="800.39" r="5.05167" stroke-width="0.5" stroke="red" fill="red"/>
   </g>
   <g id="cell71">
  <circle cx="1772.94" cy="1145.61" r="10.0955" stroke-width="0.5" stroke="black" fill="red"/>
  <circle cx="1772.94" cy="1145.61" r="6.11797" stroke-width="0.5" stroke="red" fill="red"/>
   </g>
   <g id="cell72">
  <circle cx="458.717" cy="1792.43" r="8.41271" stroke-width="0.5" stroke="black" fill="red"/>
  <circle cx="458.717" cy="1792.43" r="5.05167" stroke-width="0.5" stroke="red" fill="red"/>
   </g>
   <g id="cell73">
  <circle cx="1340.23" cy="888.797" r="8.41271" stroke-width="0.5" stroke="black" fill="red"/>
  <circle cx="1340.23" cy="888.797" r="5.05167" stroke-width="0.5" stroke="red" fill="red"/>
   </g>
   <g id="cell74">
  <circle cx="1714.02" cy="1953.78" r="8.41271" stroke-width="0.5" stroke="black" fill="red"/>
  <circle cx="1714.02" cy="1953.78" r="5.05167" stroke-width="0.5" stroke="red" fill="red"/>
   </g>
   <g id="cell75">
  <circle cx="232.069" cy="559.716" r="9.67603" stroke-width="0.5" stroke="black" fill="red"/>
  <circle cx="232.069" cy="559.716" r="5.87901" stroke-width="0.5" stroke="red" fill="red"/>
   </g>
   <g id="cell76">
  <circle cx="1629.37" cy="854.563" r="8.41271" stroke-width="0.5" stroke="black" fill="red"/>
  <circle cx="1629.37" cy="854.563" r="5.05167" stroke-width="0.5" stroke="red" fill="red"/>
   </g>
   <g id="cell77">
  <circle cx="1356.72" cy="1732.67" r="8.41271" stroke-width="0.5" stroke="black" fill="red"/>
  <circle cx="1356.72" cy="1732.67" r="5.05167" stroke-width="0.5" stroke="red" fill="red"/>
   </g>
   <g id="cell78">
  <circle cx="1182.27" cy="624.892" r="9.23685" stroke-width="0.5" stroke="black" fill="red"/>
  <circle cx="1182.27" cy="624.892" r="5.61315" stroke-width="0.5" stroke="red" fill="red"/>
   </g>
   <g id="cell79">
  <circle cx="1922.89" cy="1365.99" r="8.41271" stroke-width="0.5" stroke="black" fill="red"/>
  <circle cx="1922.89" cy="1365.99" r="5.05167" stroke-width="0.5" stroke="red" fill="red"/>
   </g>
   <g id="cell80">
  <circle cx="1459.72" cy="1325.79" r="10.0806" stroke-width="0.5" stroke="black" fill="red"/>
  <circle cx="1459.72" cy="1325.79" r="6.10985" stroke-width="0.5" stroke="red" fill="red"/>
   </g>
   <g id="cell81">
  <circle cx="1069.69" cy="1905.56" r="9.98223" stroke-width="0.5" stroke="black" fill="red"/>
  <circle cx="1069.69" cy="1905.56" r="6.05517" stroke-width="0.5" stroke="red" fill="red"/>
   </g>
   <g id="cell82">
  <circle cx="1274.75" cy="759.464" r="9.82189" stroke-width="0.5" stroke="black" fill="red"/>
  <circle cx="1274.75" cy="759.464" r="5.96395" stroke-width="0.5" stroke="red" fill="red"/>
   </g>
   <g id="cell83">
  <circle cx="1249.44" cy="1202.24" r="8.41271" stroke-width="0.5" stroke="black" fill="red"/>
  <circle cx="1249.44" cy="1202.24" r="5.05167" stroke-width="0.5" stroke="red" fill="red"/>
   </g>
   <g id="cell84">
  <circle cx="8.74485" cy="956.461" r="8.80772" stroke-width="0.5" stroke="black" fill="red"/>
  <circle cx="8.74485" cy="956.461" r="5.33574" stroke-width="0.5" stroke="red" fill="red"/>
   </g>
   <g id="cell85">
  <circle cx="1421.42" cy="1356.02" r="9.90658" stroke-width="0.5" stroke="black" fill="red"/>
  <circle cx="1421.42" cy="1356.02" r="6.01243" stroke-width="0.5" stroke="red" fill="red"/>
   </g>
   <g id="cell86">
  <circle cx="627.962" cy="754.841" r="8.41271" stroke-width="0.5" stroke="black" fill="red"/>
  <circle cx="627.962" cy="754.841" r="5.05167" stroke-width="0.5" stroke="red" fill="red"/>
   </g>
   <g id="cell87">
  <circle cx="1494.68" cy="832.585" r="9.5053" stroke-width="0.5" stroke="black" fill="red"/>
  <circle cx="1494.68" cy="832.585" r="5.77744" stroke-width="0.5" stroke="red" fill="red"/>
   </g>
   <g id="cell88">
  <circle cx="269.002" cy="209.114" r="10.0336" stroke-width="0.5" stroke="black" fill="red"/>
  <circle cx="269.002" cy="209.114" r="6.08382" stroke-width="0.5" stroke="red" fill="red"/>
   </g>
   <g id="cell89">
  <circle cx="184.748" cy="1139.93" r="1.60978" stroke-width="0.5" stroke="black" fill="red"/>
  <circle cx="184.748" cy="1139.93" r="1.57926" stroke-width="0.5" stroke="black" fill="black"/>
   </g>
   <g id="cell90">
  <circle cx="1189.71" cy="1106.32" r="9.98223" stroke-width="0.5" stroke="black" fill="red"/>
  <circle cx="1189.71" cy="1106.32" r="6.05517" stroke-width="0.5" stroke="red" fill="red"/>
   </g>
   <g id="cell91">
  <circle cx="43.5938" cy="1300.3" r="8.41271" stroke-width="0.5" stroke="black" fill="red"/>
  <circle cx="43.5938" cy="1300.3" r="5.05167" stroke-width="0.5" stroke="red" fill="red"/>
   </g>
   <g id="cell92">
  <circle cx="1292.04" cy="650.431" r="1.91911" stroke-width="0.5" stroke="black" fill="red"/>
  <circle cx="1292.04" cy="650.431" r="1.84994" stroke-width="0.5" stroke="black" fill="black"/>
   </g>
   <g id="cell93">
  <circle cx="434.414" cy="1780.23" r="8.41271" stroke-width="0.5" stroke="black" fill="red"/>
  <circle cx="434.414" cy="1780.23" r="5.05167" stroke-width="0.5" stroke="red" fill="red"/>
   </g>
   <g id="cell94">
  <circle cx="724.209" cy="213.634" r="9.30826" stroke-width="0.5" stroke="black" fill="red"/>
  <circle cx="724.209" cy="213.634" r="5.65742" stroke-width="0.5" stroke="red" fill="red"/>
   </g>
   <g id="cell95">
  <circle cx="1976.95" cy="1769.29" r="10.0654" stroke-width="0.5" stroke="black" fill="red"/>
  <circle cx="1976.95" cy="1769.29" r="6.10145" stroke-width="0.5" stroke="red" fill="red"/>
   </g>
   <g id="cell96">
  <circle cx="1625.59" cy="1095.83" r="9.30826" stroke-width="0.5" stroke="black" fill="red"/>
  <circle cx="1625.59" cy="1095.83" r="5.65742" stroke-width="0.5" stroke="red" fill="red"/>
   </g>
   <g id="cell97">
  <circle cx="907.306" cy="181.451" r="9.5651" stroke-width="0.5" stroke="black" fill="red"/>
  <circle cx="907.306" cy="181.451" r="5.81327" stroke-width="0.5" stroke="red" fill="red"/>
   </g>
   <g id="cell98">
  <circle cx="1811.05" cy="731.755" r="9.59391" stroke-width="0.5" stroke="black" fill="red"/>
  <circle cx="1811.05" cy="731.755" r="5.83043" stroke-width="0.5" stroke="red" fill="red"/>
   </g>
   <g id="cell99">
  <circle cx="910.292" cy="1983.01" r="8.41271" stroke-width="0.5" stroke="black" fill="red"/>
  <circle cx="910.292" cy="1983.01" r="5.05167" stroke-width="0.5" stroke="red" fill="red"/>
   </g>
  </g>
 </g>
  <rect x="1750" y="2070" width="200" height="20" stroke-width="4" stroke="rgb(255,255,255)" fill="rgb(0,0,0)"/>
  <text x="1762.5" y="2057.5"
   font-family="Arial" font-size="50" fill="black" >
   200 &#956;m
  </text>
  <text x="50" y="2090"
   font-family="Arial" font-size="37.5" fill="black" >
   0 days, 0 hours, 0 minutes, and 8.8841 seconds
  </text>
  <rect x="0" y="140" width="2000" height="2000" stroke-width="4" stroke="rgb(0,0,0)" fill="none"/>
</svg>
