<?xml version="1.0" encoding="UTF-8" standalone="no"?>
<!-- Created with PhysiCell (http://PhysiCell.MathCancer.org/) -->
<svg 
 xmlns:dc="http://purl.org/dc/elements/1.1/" 
 xmlns:cc="http://creativecommons.org/ns#" 
 xmlns:rdf="http://www.w3.org/1999/02/22-rdf-syntax-ns#" 
 xmlns:svg="http://www.w3.org/2000/svg" 
 xmlns="http://www.w3.org/2000/svg" 
 version="1.1" 
 width="2000" 
 height="2140" 
 id="svg2">
  <rect x="0" y="0" width="2000" height="2140" stroke-width="4" stroke="white" fill="white"/>
  <text x="25" y="60"
   font-family="Arial" font-size="50" fill="black" >
   Current time: 2 days, 4 hours, and 0.00 minutes, z = 0.00 &#956;m
  </text>
  <text x="25" y="115"
   font-family="Arial" font-size="47.5" fill="black" >
   49 agents
  </text>
 <g id="tissue" 
    transform="translate(0,2140) scale(1,-1)">
  <g id="ECM">
  </g>
  <g id="cells">
   <g id="cell0">
  <circle cx="1136.36" cy="1177.99" r="8.39609" stroke-width="0.5" stroke="black" fill="grey"/>
  <circle cx="1136.36" cy="1177.99" r="5.04614" stroke-width="0.5" stroke="grey" fill="grey"/>
   </g>
   <g id="cell1">
  <circle cx="1686.16" cy="1211.46" r="10.4568" stroke-width="0.5" stroke="black" fill="grey"/>
  <circle cx="1686.16" cy="1211.46" r="6.30496" stroke-width="0.5" stroke="grey" fill="grey"/>
   </g>
   <g id="cell2">
  <circle cx="1156.73" cy="1742.23" r="8.37423" stroke-width="0.5" stroke="black" fill="grey"/>
  <circle cx="1156.73" cy="1742.23" r="5.03752" stroke-width="0.5" stroke="grey" fill="grey"/>
   </g>
   <g id="cell3">
  <circle cx="1268.69" cy="1309.67" r="8.397" stroke-width="0.5" stroke="black" fill="grey"/>
  <circle cx="1268.69" cy="1309.67" r="5.04648" stroke-width="0.5" stroke="grey" fill="grey"/>
   </g>
   <g id="cell4">
  <circle cx="865.282" cy="550.91" r="8.36303" stroke-width="0.5" stroke="black" fill="grey"/>
  <circle cx="865.282" cy="550.91" r="5.03284" stroke-width="0.5" stroke="grey" fill="grey"/>
   </g>
   <g id="cell5">
  <circle cx="81.0798" cy="1971.53" r="8.36951" stroke-width="0.5" stroke="black" fill="red"/>
  <circle cx="81.0798" cy="1971.53" r="5.03558" stroke-width="0.5" stroke="red" fill="red"/>
   </g>
   <g id="cell6">
  <circle cx="804.718" cy="860.311" r="8.41171" stroke-width="0.5" stroke="black" fill="red"/>
  <circle cx="804.718" cy="860.311" r="5.05142" stroke-width="0.5" stroke="red" fill="red"/>
   </g>
   <g id="cell19">
  <circle cx="1717.19" cy="1306.95" r="8.39693" stroke-width="0.5" stroke="black" fill="grey"/>
  <circle cx="1717.19" cy="1306.95" r="5.04646" stroke-width="0.5" stroke="grey" fill="grey"/>
   </g>
   <g id="cell18">
  <circle cx="1626.88" cy="326.512" r="10.3669" stroke-width="0.5" stroke="black" fill="red"/>
  <circle cx="1626.88" cy="326.512" r="6.26137" stroke-width="0.5" stroke="red" fill="red"/>
   </g>
   <g id="cell9">
  <circle cx="1650.19" cy="169.203" r="8.61464" stroke-width="0.5" stroke="black" fill="red"/>
  <circle cx="1650.19" cy="169.203" r="5.21344" stroke-width="0.5" stroke="red" fill="red"/>
   </g>
   <g id="cell11">
  <circle cx="1605.34" cy="1084.45" r="8.40845" stroke-width="0.5" stroke="black" fill="red"/>
  <circle cx="1605.34" cy="1084.45" r="5.05046" stroke-width="0.5" stroke="red" fill="red"/>
   </g>
   <g id="cell20">
  <circle cx="826.47" cy="996.353" r="9.97997" stroke-width="0.5" stroke="black" fill="red"/>
  <circle cx="826.47" cy="996.353" r="6.0545" stroke-width="0.5" stroke="red" fill="red"/>
   </g>
   <g id="cell13">
  <circle cx="869.991" cy="578.062" r="10.5185" stroke-width="0.5" stroke="black" fill="grey"/>
  <circle cx="869.991" cy="578.062" r="6.33312" stroke-width="0.5" stroke="grey" fill="grey"/>
   </g>
   <g id="cell14">
  <circle cx="1211.95" cy="1310.32" r="8.36288" stroke-width="0.5" stroke="black" fill="grey"/>
  <circle cx="1211.95" cy="1310.32" r="5.0328" stroke-width="0.5" stroke="grey" fill="grey"/>
   </g>
   <g id="cell15">
  <circle cx="1144.51" cy="1141.71" r="8.3643" stroke-width="0.5" stroke="black" fill="grey"/>
  <circle cx="1144.51" cy="1141.71" r="5.0334" stroke-width="0.5" stroke="grey" fill="grey"/>
   </g>
   <g id="cell16">
  <circle cx="1154.22" cy="1685.52" r="8.37796" stroke-width="0.5" stroke="black" fill="grey"/>
  <circle cx="1154.22" cy="1685.52" r="5.03911" stroke-width="0.5" stroke="grey" fill="grey"/>
   </g>
   <g id="cell17">
  <circle cx="1092.72" cy="673.581" r="9.92615" stroke-width="0.5" stroke="black" fill="red"/>
  <circle cx="1092.72" cy="673.581" r="6.02359" stroke-width="0.5" stroke="red" fill="red"/>
   </g>
   <g id="cell21">
  <circle cx="1573.13" cy="1025.37" r="8.3793" stroke-width="0.5" stroke="black" fill="red"/>
  <circle cx="1573.13" cy="1025.37" r="5.03959" stroke-width="0.5" stroke="red" fill="red"/>
   </g>
   <g id="cell22">
  <circle cx="1191.11" cy="1712.47" r="10.399" stroke-width="0.5" stroke="black" fill="grey"/>
  <circle cx="1191.11" cy="1712.47" r="6.27701" stroke-width="0.5" stroke="grey" fill="grey"/>
   </g>
   <g id="cell23">
  <circle cx="1282.4" cy="1293.32" r="10.1995" stroke-width="0.5" stroke="black" fill="grey"/>
  <circle cx="1282.4" cy="1293.32" r="6.17431" stroke-width="0.5" stroke="grey" fill="grey"/>
   </g>
   <g id="cell24">
  <circle cx="1146.75" cy="1224.48" r="8.95628" stroke-width="0.5" stroke="black" fill="grey"/>
  <circle cx="1146.75" cy="1224.48" r="5.43812" stroke-width="0.5" stroke="grey" fill="grey"/>
   </g>
   <g id="cell25">
  <circle cx="1153.12" cy="689.963" r="9.16263" stroke-width="0.5" stroke="black" fill="red"/>
  <circle cx="1153.12" cy="689.963" r="5.56673" stroke-width="0.5" stroke="red" fill="red"/>
   </g>
   <g id="cell26">
  <circle cx="1683.06" cy="1195" r="8.78526" stroke-width="0.5" stroke="black" fill="grey"/>
  <circle cx="1683.06" cy="1195" r="5.32758" stroke-width="0.5" stroke="grey" fill="grey"/>
   </g>
   <g id="cell27">
  <circle cx="897.636" cy="557.491" r="9.86517" stroke-width="0.5" stroke="black" fill="grey"/>
  <circle cx="897.636" cy="557.491" r="5.98889" stroke-width="0.5" stroke="grey" fill="grey"/>
   </g>
   <g id="cell28">
  <circle cx="80.6828" cy="1946.9" r="10.4891" stroke-width="0.5" stroke="black" fill="red"/>
  <circle cx="80.6828" cy="1946.9" r="6.31992" stroke-width="0.5" stroke="red" fill="red"/>
   </g>
   <g id="cell29">
  <circle cx="1095.36" cy="1083.89" r="9.21849" stroke-width="0.5" stroke="black" fill="grey"/>
  <circle cx="1095.36" cy="1083.89" r="5.60648" stroke-width="0.5" stroke="grey" fill="grey"/>
   </g>
   <g id="cell30">
  <circle cx="914.539" cy="624.167" r="10.5063" stroke-width="0.5" stroke="black" fill="grey"/>
  <circle cx="914.539" cy="624.167" r="6.32768" stroke-width="0.5" stroke="grey" fill="grey"/>
   </g>
   <g id="cell31">
  <circle cx="1197.8" cy="1282.82" r="10.5271" stroke-width="0.5" stroke="black" fill="grey"/>
  <circle cx="1197.8" cy="1282.82" r="6.33686" stroke-width="0.5" stroke="grey" fill="grey"/>
   </g>
   <g id="cell32">
  <circle cx="1635.03" cy="233.224" r="10.4608" stroke-width="0.5" stroke="black" fill="red"/>
  <circle cx="1635.03" cy="233.224" r="6.30684" stroke-width="0.5" stroke="red" fill="red"/>
   </g>
   <g id="cell33">
  <circle cx="1674.6" cy="1161.3" r="10.2816" stroke-width="0.5" stroke="black" fill="grey"/>
  <circle cx="1674.6" cy="1161.3" r="6.21767" stroke-width="0.5" stroke="grey" fill="grey"/>
   </g>
   <g id="cell34">
  <circle cx="1162.35" cy="1660.55" r="10.3742" stroke-width="0.5" stroke="black" fill="grey"/>
  <circle cx="1162.35" cy="1660.55" r="6.26484" stroke-width="0.5" stroke="grey" fill="grey"/>
   </g>
   <g id="cell35">
  <circle cx="757.52" cy="874.381" r="10.4566" stroke-width="0.5" stroke="black" fill="red"/>
  <circle cx="757.52" cy="874.381" r="6.3049" stroke-width="0.5" stroke="red" fill="red"/>
   </g>
   <g id="cell36">
  <circle cx="1698.44" cy="311.38" r="10.456" stroke-width="0.5" stroke="black" fill="red"/>
  <circle cx="1698.44" cy="311.38" r="6.30473" stroke-width="0.5" stroke="red" fill="red"/>
   </g>
   <g id="cell37">
  <circle cx="813.35" cy="945.172" r="10.1736" stroke-width="0.5" stroke="black" fill="red"/>
  <circle cx="813.35" cy="945.172" r="6.16096" stroke-width="0.5" stroke="red" fill="red"/>
   </g>
   <g id="cell38">
  <circle cx="1580.09" cy="1077.1" r="10.0467" stroke-width="0.5" stroke="black" fill="red"/>
  <circle cx="1580.09" cy="1077.1" r="6.09189" stroke-width="0.5" stroke="red" fill="red"/>
   </g>
   <g id="cell39">
  <circle cx="1153.95" cy="1196" r="8.39903" stroke-width="0.5" stroke="black" fill="grey"/>
  <circle cx="1153.95" cy="1196" r="5.04723" stroke-width="0.5" stroke="grey" fill="grey"/>
   </g>
   <g id="cell40">
  <circle cx="1721.32" cy="1268.91" r="9.7155" stroke-width="0.5" stroke="black" fill="grey"/>
  <circle cx="1721.32" cy="1268.91" r="5.90498" stroke-width="0.5" stroke="grey" fill="grey"/>
   </g>
   <g id="cell41">
  <circle cx="1257.49" cy="1349.28" r="8.397" stroke-width="0.5" stroke="black" fill="grey"/>
  <circle cx="1257.49" cy="1349.28" r="5.04648" stroke-width="0.5" stroke="grey" fill="grey"/>
   </g>
   <g id="cell42">
  <circle cx="1113.08" cy="1141.01" r="8.87323" stroke-width="0.5" stroke="black" fill="grey"/>
  <circle cx="1113.08" cy="1141.01" r="5.38436" stroke-width="0.5" stroke="grey" fill="grey"/>
   </g>
   <g id="cell43">
  <circle cx="1123.3" cy="1098.57" r="8.39056" stroke-width="0.5" stroke="black" fill="grey"/>
  <circle cx="1123.3" cy="1098.57" r="5.04408" stroke-width="0.5" stroke="grey" fill="grey"/>
   </g>
   <g id="cell44">
  <circle cx="1665.91" cy="1199.03" r="8.38808" stroke-width="0.5" stroke="black" fill="grey"/>
  <circle cx="1665.91" cy="1199.03" r="5.0431" stroke-width="0.5" stroke="grey" fill="grey"/>
   </g>
   <g id="cell45">
  <circle cx="1588.07" cy="1031.16" r="8.3793" stroke-width="0.5" stroke="black" fill="red"/>
  <circle cx="1588.07" cy="1031.16" r="5.03959" stroke-width="0.5" stroke="red" fill="red"/>
   </g>
   <g id="cell46">
  <circle cx="1167.49" cy="1705.89" r="8.37796" stroke-width="0.5" stroke="black" fill="grey"/>
  <circle cx="1167.49" cy="1705.89" r="5.03911" stroke-width="0.5" stroke="grey" fill="grey"/>
   </g>
   <g id="cell47">
  <circle cx="1654.46" cy="186.612" r="8.37396" stroke-width="0.5" stroke="black" fill="red"/>
  <circle cx="1654.46" cy="186.612" r="5.03745" stroke-width="0.5" stroke="red" fill="red"/>
   </g>
   <g id="cell48">
  <circle cx="1134.88" cy="1766.37" r="8.37423" stroke-width="0.5" stroke="black" fill="grey"/>
  <circle cx="1134.88" cy="1766.37" r="5.03752" stroke-width="0.5" stroke="grey" fill="grey"/>
   </g>
   <g id="cell49">
  <circle cx="74.9896" cy="1986.53" r="8.36951" stroke-width="0.5" stroke="black" fill="red"/>
  <circle cx="74.9896" cy="1986.53" r="5.03558" stroke-width="0.5" stroke="red" fill="red"/>
   </g>
   <g id="cell50">
  <circle cx="1130.52" cy="1152.43" r="8.3643" stroke-width="0.5" stroke="black" fill="grey"/>
  <circle cx="1130.52" cy="1152.43" r="5.0334" stroke-width="0.5" stroke="grey" fill="grey"/>
   </g>
   <g id="cell51">
  <circle cx="1196.27" cy="1306.11" r="8.36288" stroke-width="0.5" stroke="black" fill="grey"/>
  <circle cx="1196.27" cy="1306.11" r="5.0328" stroke-width="0.5" stroke="grey" fill="grey"/>
   </g>
   <g id="cell52">
  <circle cx="860.726" cy="566.078" r="8.36303" stroke-width="0.5" stroke="black" fill="grey"/>
  <circle cx="860.726" cy="566.078" r="5.03284" stroke-width="0.5" stroke="grey" fill="grey"/>
   </g>
  </g>
 </g>
  <rect x="1750" y="2070" width="200" height="20" stroke-width="4" stroke="rgb(255,255,255)" fill="rgb(0,0,0)"/>
  <text x="1762.5" y="2057.5"
   font-family="Arial" font-size="50" fill="black" >
   200 &#956;m
  </text>
  <text x="50" y="2090"
   font-family="Arial" font-size="37.5" fill="black" >
   0 days, 0 hours, 1 minutes, and 7.7166 seconds
  </text>
  <rect x="0" y="140" width="2000" height="2000" stroke-width="4" stroke="rgb(0,0,0)" fill="none"/>
</svg>
